<svg width="427" height="413" viewBox="0 0 427 413" fill="none" xmlns="http://www.w3.org/2000/svg">
<g clip-path="url(#clip0_2517_19140)">
<path d="M404.041 382.43C392.531 392.02 342.441 398.8 282.761 401.35C191.021 405.28 76.6009 399.23 44.7909 378.06C29.7309 368.05 19.5509 337.11 13.1009 297.52C-2.9291 199.02 4.2209 46.9904 17.1609 30.5104C35.3109 7.42044 327.301 -15.4496 403.911 13.7904C436.741 26.3204 433.231 358.09 404.031 382.43H404.041Z" fill="white"/>
<path d="M371.83 321.981L374.38 314.221L377.27 321.981C377.27 321.981 383.05 322.961 383.12 323.501C383.19 324.031 377.59 325.681 377.59 325.681C377.59 325.681 375.24 333.201 374.38 331.501C373.52 329.801 372.69 326.031 372.69 326.031C372.69 326.031 365.41 324.521 365.41 323.781C365.41 322.981 371.83 321.991 371.83 321.991V321.981Z" fill="#F1F1F1"/>
<path d="M34.2505 151.531L35.9105 146.471L37.8005 151.531C37.8005 151.531 41.5705 152.171 41.6105 152.521C41.6505 152.861 38.0005 153.941 38.0005 153.941C38.0005 153.941 36.4705 158.841 35.9105 157.731C35.3505 156.621 34.8105 154.161 34.8105 154.161C34.8105 154.161 30.0605 153.171 30.0605 152.691C30.0605 152.171 34.2505 151.521 34.2505 151.521V151.531Z" fill="#F1F1F1"/>
<path d="M301.971 380.861L303.631 375.801L305.521 380.861C305.521 380.861 309.291 381.501 309.331 381.851C309.371 382.191 305.721 383.271 305.721 383.271C305.721 383.271 304.191 388.171 303.631 387.061C303.071 385.951 302.531 383.491 302.531 383.491C302.531 383.491 297.781 382.501 297.781 382.021C297.781 381.501 301.971 380.851 301.971 380.851V380.861Z" fill="#F1F1F1"/>
<g clip-path="url(#clip1_2517_19140)">
<path d="M324.245 135.714C312.885 152.544 325.865 157.758 321.35 173.176L326.041 168.029C338.319 146.431 323.447 148.453 324.249 135.718L324.245 135.714Z" fill="#DADADA"/>
<path d="M307.092 155.196C295.732 172.026 308.713 177.241 304.198 192.659L308.888 187.511C321.167 165.914 306.295 167.936 307.096 155.2L307.092 155.196Z" fill="#DADADA"/>
<path d="M352.883 174.747C336.47 186.697 331.4 173.836 316.16 178.892L320.541 174.087C341.686 161.055 340.187 175.992 352.883 174.743V174.747Z" fill="#DADADA"/>
<path d="M334.779 196.42C318.365 208.37 313.074 196.938 297.834 201.994L302.436 195.76C323.582 182.728 322.082 197.665 334.779 196.416V196.42Z" fill="#DADADA"/>
<path d="M284.833 223.086C284.795 223.086 284.757 223.077 284.724 223.061C284.611 223.002 284.569 222.86 284.628 222.751C287.597 217.182 290.738 212.118 294.062 206.753C294.889 205.42 295.725 204.075 296.573 202.696C300.319 197.155 304.407 192.217 308.363 187.441C309.966 185.506 311.62 183.505 313.249 181.474C314.514 179.895 315.817 178.474 317.079 177.1C318.336 175.729 319.635 174.313 320.888 172.746C322.909 170.778 324.876 168.797 326.781 166.88C333.367 160.249 339.59 153.981 347.304 148.909C347.408 148.838 347.55 148.867 347.621 148.976C347.692 149.08 347.663 149.222 347.554 149.293C339.878 154.341 333.676 160.587 327.106 167.201C325.202 169.119 323.231 171.104 321.226 173.051C319.981 174.609 318.678 176.03 317.417 177.409C316.16 178.779 314.865 180.196 313.608 181.763C311.979 183.797 310.321 185.799 308.718 187.733C304.587 192.718 300.69 197.427 296.961 202.942C296.117 204.313 295.282 205.662 294.455 206.995C291.135 212.352 287.998 217.412 285.037 222.969C284.995 223.048 284.916 223.09 284.833 223.09V223.086Z" fill="#141629"/>
<path d="M364.376 135.525C358.041 145.725 340.579 140.757 335.438 152.401C334.933 153.463 331.186 162.764 334.076 161.03C338.62 158.523 344.008 159.225 348.903 158.101C358.901 155.97 365.993 145.624 364.376 135.525Z" fill="#DADADA"/>
<path d="M94.9813 310.741C97.8046 310.924 100.64 311.179 103.489 311.505C103.489 311.505 101.973 312.976 100.077 314.701C105.606 318.851 111.203 322.611 116.632 326.117C116.841 326.246 117.05 326.376 117.254 326.509C121.343 329.158 125.315 331.619 129.036 333.888C129.165 333.963 129.261 334.026 129.391 334.101C138.78 339.825 146.552 344.346 150.24 346.402C151.192 346.933 151.868 347.3 152.219 347.484C152.399 347.585 152.499 347.63 152.499 347.63C152.499 347.63 152.533 347.522 152.578 347.309C152.662 346.954 152.812 346.314 152.996 345.399C154.863 337.578 159.257 304.277 139.331 273.717C139.247 273.583 139.164 273.449 139.059 273.291C135.944 268.544 132.277 263.973 128.067 259.77C127.908 259.615 127.754 259.465 127.595 259.31C127.39 259.076 127.144 258.838 126.918 258.625C118.72 250.736 109.231 244.941 99.7968 240.98C101.434 243.621 101.054 245.956 99.7675 248.154C99.6088 245.25 97.8881 240.721 92.1038 238.16C86.0939 236.242 80.1884 235.018 74.6588 234.295C74.5043 234.261 74.3373 234.253 74.1786 234.224C54.0732 231.767 39.51 235.966 37.3216 236.526C37.1128 236.58 37 236.618 37 236.618C37 236.618 37.0543 236.718 37.1629 236.894C37.9272 238.218 41.6066 244.206 46.9148 252.32C47.0025 252.445 47.0902 252.566 47.1654 252.717C50.2393 257.392 53.7934 262.745 57.6942 268.39C57.8153 268.573 58.0074 268.749 58.2037 268.866C62.9273 271.594 67.3668 271.778 71.8565 269.037C70.0063 272.513 67.1663 274.887 62.827 275.668C64.3848 277.853 66.0095 280.047 67.6926 282.232C67.7803 282.357 67.868 282.449 67.9557 282.575C73.0927 289.252 78.6766 295.895 85.1542 302.121C88.3534 305.192 91.6611 308.054 94.9855 310.736L94.9813 310.741Z" fill="#DADADA"/>
<path d="M152.223 347.71C152.102 347.71 152.002 347.618 151.994 347.497C150.089 319.866 118.912 289.064 100.494 273.161C80.042 255.504 62.6598 246.7 37.739 236.631C37.6221 236.585 37.5636 236.451 37.6137 236.33C37.6597 236.213 37.7975 236.154 37.9144 236.205C62.8811 246.291 80.2968 255.111 100.799 272.81C119.271 288.759 150.54 319.666 152.457 347.464C152.465 347.589 152.369 347.702 152.244 347.71C152.24 347.71 152.232 347.71 152.227 347.71H152.223Z" fill="#141629"/>
<path d="M150.351 33.5879H284.352C297.449 33.5879 308.078 44.2258 308.078 57.3247V328.787C308.078 341.89 297.445 352.524 284.352 352.524H150.351C137.254 352.524 126.625 341.886 126.625 328.787V57.3247C126.625 44.2216 137.258 33.5879 150.351 33.5879Z" fill="#191025"/>
<path d="M150.351 53.8691H284.352C297.449 53.8691 308.078 64.507 308.078 77.6059V349.068C308.078 362.171 297.445 372.805 284.352 372.805H150.351C137.254 372.805 126.625 362.167 126.625 349.068V77.6059C126.625 64.5028 137.258 53.8691 150.351 53.8691Z" fill="white"/>
<path d="M275.009 95.4727H151.199V243.48H275.009V95.4727Z" fill="#E8E8E8"/>
<path d="M284.353 372.968H150.352C137.18 372.968 126.463 362.246 126.463 349.068V77.6058C126.463 64.4275 137.18 53.7061 150.352 53.7061H284.353C297.525 53.7061 308.242 64.4275 308.242 77.6058V349.068C308.242 362.246 297.525 372.968 284.353 372.968ZM150.352 54.032C137.359 54.032 126.784 64.6072 126.784 77.61V349.072C126.784 362.071 137.355 372.65 150.352 372.65H284.353C297.346 372.65 307.92 362.075 307.92 349.072V77.6058C307.92 64.6072 297.35 54.0278 284.353 54.0278H150.352V54.032Z" fill="#191025"/>
<path d="M260.961 243.479H212.473C210.526 220.661 208.58 199.77 206.738 182.597C206.58 181.105 206.421 179.639 206.258 178.201C206.17 177.387 206.083 176.58 205.987 175.786C205.824 174.324 205.657 172.891 205.498 171.491C206.208 171.487 206.951 171.445 207.737 171.378C220.817 170.246 243.633 161.259 245.892 172.101C246.105 173.125 246.323 174.165 246.54 175.218C246.565 175.306 246.582 175.402 246.602 175.498C246.953 177.174 247.308 178.883 247.672 180.621C251.447 198.671 256.016 220.218 260.965 243.479H260.961Z" fill="#008BCE"/>
<path d="M231.623 243.478H217.615C218.317 230.07 219.39 216.616 220.677 203.283L223.061 212.033L231.623 243.478Z" fill="#191025"/>
<path d="M224.602 171.492C224.564 172.478 224.51 173.798 224.443 175.428C224.414 176.247 224.376 177.145 224.339 178.11C224.288 179.372 224.238 180.751 224.184 182.255C223.9 189.571 223.52 199.77 223.061 212.029C222.706 221.38 222.309 231.989 221.883 243.475H175.207C179.972 214.302 183.873 190.578 185.949 178.302C186.028 177.818 186.112 177.354 186.187 176.907C186.308 176.221 186.417 175.578 186.517 174.972C186.776 173.464 186.993 172.214 187.164 171.245C189.687 171.258 192.205 171.274 194.728 171.291C196.077 171.299 197.421 171.312 198.77 171.32C201.757 171.337 204.751 171.354 207.737 171.375C212.615 171.408 217.498 171.437 222.376 171.475C223.119 171.479 223.858 171.479 224.602 171.492Z" fill="#008BCE"/>
<path d="M266.182 101.142C278.131 110.723 297.288 135.692 300.738 138.441C320.739 159.521 298.157 189.111 274.122 167.869C260.064 155.083 249.147 142.833 239.637 126.111C231.739 112.227 247.355 86.0457 266.178 101.142H266.182Z" fill="#FFBFBF"/>
<path d="M234.625 132.048C234.462 133.185 260.273 156.83 260.273 156.83L291.078 126.938C291.078 126.938 253.227 83.3756 240.506 83.1416C240.518 83.7558 232.395 87.4243 231.927 87.4369C227.396 99.5622 227.362 119.142 234.629 132.048H234.625Z" fill="#171717"/>
<path d="M254.091 99.4078C249.017 87.8214 220.981 83.8896 220.981 83.8896C220.772 88.4565 217.635 92.0247 215.468 96.2156C211.02 93.5582 202.228 83.8896 202.228 83.8896C192.681 85.4481 183.025 88.1891 178.348 91.3019L185.51 179.188L246.306 178.866C246.306 178.866 252.425 154.356 254.087 99.4078H254.091Z" fill="#171717"/>
<path d="M165.785 109.406C159.052 120.462 145.099 142.628 142.054 157.481C136.011 186.959 165.764 190.511 178.744 166.707C186.232 152.493 186.441 138.332 189.181 122.305C191.457 108.997 176.393 91.9829 165.785 109.406Z" fill="#FFBFBF"/>
<path d="M191.064 96.0859C190.651 96.1486 181.667 90.7085 181.588 90.1611C168.428 92.5804 151.004 129.316 151.004 129.316L182.039 150.111C182.039 150.111 206.325 110.973 191.064 96.0859Z" fill="#171717"/>
<path d="M188.809 143.184V120.128L179.588 146.439L188.809 143.184Z" fill="#191025"/>
<path d="M186.079 176.906L244.874 175.711C246.704 175.673 248.207 176.726 248.236 178.063L248.287 180.457C248.316 181.794 246.854 182.91 245.025 182.944L186.229 184.139C184.4 184.176 182.896 183.123 182.867 181.786L182.817 179.392C182.788 178.055 184.249 176.939 186.079 176.902V176.906Z" fill="#191025"/>
<path d="M312.924 99.7591C312.924 99.7591 293.679 121.068 281.237 136.657C260.597 163.281 287.197 191.305 305.653 168.17C324.919 144.02 336.107 118.461 336.107 118.461L312.928 99.7549L312.924 99.7591Z" fill="#FFBFBF"/>
<path d="M220.981 83.8937C223.992 90.7879 223.913 94.494 218.429 98.3756C211.742 97.423 202.483 95.4257 202.229 83.8937C208.355 83.1876 214.516 82.6695 220.981 83.8937Z" fill="#FFBFBF"/>
<path d="M372.626 103.222C371.774 101.634 370.212 101.008 368.525 101.091L368.792 100.949C370.993 99.7667 372.685 96.0062 371.503 93.8043C370.651 92.2165 368.116 92.3795 366.424 92.4631L367.326 91.9784C369.527 90.7959 370.35 88.055 369.168 85.8572C367.986 83.6553 365.246 82.8321 363.05 84.0146L361.229 84.9923C362.857 83.6469 363.367 81.2987 362.331 79.3683C361.149 77.1664 358.41 76.3433 356.213 77.5257C347.225 82.9241 336.972 90.9338 330.987 90.1232L335.005 82.8948C338.563 76.4686 333.639 69.2736 329.041 74.1246C329.041 74.1246 321.202 83.6051 317.1 90.3614C315.747 92.5884 311.441 102.524 311.441 102.524L324.806 127.761C345.826 127.168 359.42 119.455 369.657 110.141C371.858 108.959 373.8 105.437 372.618 103.235L372.626 103.222Z" fill="#FFBFBF"/>
<path d="M337.493 98.0908C337.427 98.0908 337.36 98.0449 337.339 97.978C337.314 97.8945 337.36 97.8025 337.443 97.7775C344.464 95.5672 352.407 91.1758 361.053 84.7245C361.124 84.6702 361.224 84.6869 361.278 84.758C361.332 84.829 361.316 84.9293 361.245 84.9836C352.57 91.4557 344.597 95.868 337.539 98.0867C337.523 98.0908 337.506 98.095 337.489 98.095L337.493 98.0908Z" fill="#191025"/>
<path d="M342.54 104.961C342.469 104.961 342.406 104.915 342.385 104.844C342.36 104.76 342.41 104.668 342.498 104.647C349.586 102.658 357.663 98.5218 366.504 92.3421C366.579 92.292 366.675 92.3087 366.73 92.3839C366.784 92.4591 366.763 92.5552 366.688 92.6095C357.817 98.8059 349.707 102.963 342.586 104.961C342.573 104.961 342.557 104.965 342.544 104.965L342.54 104.961Z" fill="#191025"/>
<path d="M344.059 113.818C343.988 113.818 343.926 113.772 343.905 113.701C343.88 113.617 343.93 113.525 344.018 113.505C351.105 111.516 359.182 107.379 368.024 101.2C368.099 101.149 368.195 101.166 368.249 101.241C368.299 101.312 368.283 101.413 368.208 101.467C359.337 107.663 351.226 111.821 344.105 113.818C344.093 113.818 344.076 113.822 344.064 113.822L344.059 113.818Z" fill="#191025"/>
<path d="M158.701 144.491C173.034 138.144 207.603 129.851 207.603 129.851L219.255 158.798C219.255 158.798 187.911 177.658 166.67 183.462C141.394 190.369 134.699 155.639 158.705 144.491H158.701Z" fill="#FFBFBF"/>
<path d="M238.28 122.564C234.433 117.876 247.952 94.8995 247.952 94.8995L238.196 91.7783C228.524 99.0611 228.285 116.25 229.505 121.628C230.336 125.28 234.776 125.083 237.536 124.578C238.463 124.406 238.877 123.295 238.275 122.568L238.28 122.564Z" fill="#191025"/>
<path d="M289.917 61.9072C289.917 61.9072 273.641 76.1719 254.254 73.293C234.867 70.4142 231.338 63.1607 228.498 74.6342C227.83 77.3418 225.663 88.0841 225.232 90.8376C223.403 102.512 229.467 97.1969 248.453 102.06C267.439 106.924 276.916 126.386 276.916 126.386L289.917 61.9072Z" fill="#191025"/>
<path d="M294.109 96.8838C290.43 115.139 283.372 129.115 278.352 128.1C274.342 127.289 272.843 117.165 274.275 103.82C274.639 100.456 275.186 96.888 275.925 93.2111C276.71 89.3253 277.646 85.6317 278.682 82.2389C282.52 69.6874 287.728 61.1972 291.679 61.9952C296.703 63.0105 297.789 78.6289 294.109 96.8838Z" fill="white"/>
<path d="M250.119 104.405L229.876 100.628C225.892 99.8211 223.394 95.5133 224.304 91.005L227.838 73.4855C228.748 68.9771 232.716 65.9729 236.704 66.7751L256.805 71.6637C250.157 82.0676 248.022 92.2375 250.119 104.405Z" fill="#008BCE"/>
<path d="M227.446 73.5736C226.247 73.3312 225.078 74.1084 224.836 75.3075L222.263 88.0638C222.021 89.263 222.798 90.4329 223.996 90.6752C225.195 90.9176 226.364 90.1404 226.606 88.9412L229.179 76.185C229.421 74.9858 228.645 73.8159 227.446 73.5736Z" fill="#008BCE"/>
<path d="M233.702 72.7834L242.193 74.4965C242.631 74.5842 243.091 74.3377 243.199 73.9031C243.312 73.4477 243.024 72.9965 242.569 72.9045L234.078 71.1914C233.639 71.1037 233.18 71.3502 233.071 71.7848C232.959 72.2402 233.247 72.6915 233.702 72.7834Z" fill="#191025"/>
<path d="M241.733 77.0579L233.242 75.3448C232.803 75.257 232.344 75.5035 232.235 75.9381C232.123 76.3935 232.411 76.8448 232.866 76.9367L241.357 78.6498C241.795 78.7375 242.255 78.491 242.363 78.0565C242.476 77.601 242.188 77.1498 241.733 77.0579Z" fill="#191025"/>
<path d="M251.64 102.596L251.515 102.571C251.273 102.387 250.567 101.409 250.283 98.4302C249.991 95.3884 250.271 91.4483 251.043 87.6168C251.816 83.7853 253.09 80.0416 254.535 77.355C255.946 74.7227 256.974 74.0917 257.27 74.0165C257.27 74.0165 257.32 74.0291 257.333 74.0291C257.35 74.0291 257.391 74.0416 257.391 74.0416C257.391 74.0416 259.233 73.5235 260.11 73.6781C259.688 72.27 258.824 72.1363 257.755 71.919C256.623 71.6892 255.537 72.4037 254.593 73.4734C253.854 74.309 253.198 75.3578 252.668 76.3397C251.106 79.2519 249.786 83.1085 248.963 87.2032C248.136 91.2937 247.857 95.3592 248.17 98.6516C248.278 99.7631 248.475 100.987 248.834 102.04C249.289 103.39 250.016 104.472 251.148 104.698C252.217 104.915 253.236 105.203 254.167 104.067C253.303 103.866 252.735 103.494 251.632 102.6L251.64 102.596Z" fill="#A0D2F4"/>
<path d="M287.934 88.6777L285.014 103.151C285.014 103.151 284.943 103.139 284.814 103.122C283.69 102.959 278.086 102.203 274.406 102.834C274.753 99.7668 275.258 96.5328 275.926 93.2111C276.515 90.2821 277.2 87.4618 277.948 84.8086C281.084 86.8434 286.631 88.3434 287.737 88.6317C287.867 88.6651 287.934 88.6819 287.934 88.6819V88.6777Z" fill="#A0D2F4"/>
<path d="M288.046 96.2323C287.24 100.231 285.883 103.327 285.018 103.152C284.154 102.976 284.103 99.5958 284.91 95.5972C285.716 91.5986 287.073 88.5025 287.937 88.678C288.802 88.8535 288.852 92.2337 288.046 96.2323Z" fill="#191025"/>
<path d="M278.857 128.309C278.678 128.309 278.498 128.292 278.323 128.254C274.326 127.448 272.634 117.621 274.117 103.799C274.489 100.352 275.044 96.7794 275.771 93.1777C276.539 89.3629 277.471 85.6693 278.531 82.1888C282.495 69.2195 287.795 61.0468 291.716 61.8323C294.222 62.3379 295.859 66.2905 296.323 72.959C296.782 79.5607 296.056 88.0677 294.272 96.9089C290.706 114.587 283.915 128.304 278.861 128.304L278.857 128.309ZM291.157 62.1039C287.456 62.1039 282.583 70.0384 278.836 82.2891C277.776 85.7571 276.853 89.4423 276.084 93.2445C275.362 96.8379 274.806 100.402 274.434 103.836C272.973 117.483 274.56 127.168 278.385 127.941C283.309 128.935 290.296 114.988 293.955 96.8504C295.734 88.0384 296.461 79.5607 296.001 72.9841C295.555 66.5663 293.968 62.6178 291.65 62.1498C291.487 62.1164 291.324 62.0997 291.157 62.0997V62.1039Z" fill="#191025"/>
<path d="M242.757 155.371C241.713 155.747 240.565 155.739 239.496 155.271L219.733 147.508C217.26 146.421 216.124 143.263 217.198 140.455C218.267 137.647 221.14 136.256 223.613 137.342L243.375 145.105C245.848 146.192 246.984 149.35 245.911 152.158C245.305 153.746 244.119 154.882 242.757 155.371Z" fill="#FFBFBF"/>
<path d="M222.564 113.02C212.921 110.509 198.708 133.114 195.279 136.369L203.494 160.791C224.063 173.351 219.837 153.316 234.27 149.664C242.318 147.625 222.564 113.025 222.564 113.025V113.02Z" fill="#FFBFBF"/>
<path d="M247.009 146.25C246.061 146.493 245.05 146.426 244.106 145.996L222.285 137.936C219.825 136.812 218.726 133.636 219.829 130.845C220.931 128.054 223.817 126.7 226.277 127.824L248.099 135.884C250.559 137.008 251.657 140.184 250.555 142.975C249.878 144.692 248.525 145.866 247.013 146.25H247.009Z" fill="#FFBFBF"/>
<path d="M251.31 137.647C250.379 137.885 249.385 137.827 248.449 137.413L223.499 128.38C221.031 127.285 219.903 124.122 220.981 121.319C222.058 118.515 224.936 117.132 227.404 118.227L252.354 127.26C254.822 128.355 255.95 131.518 254.872 134.321C254.204 136.064 252.839 137.259 251.31 137.651V137.647Z" fill="#FFBFBF"/>
<path d="M251.861 127.018C250.909 127.39 250.069 127.474 240.572 125.405C224.484 121.904 220.346 123.884 219.811 124.202C215.99 129.784 208.322 123.45 212.135 117.813C215.906 112.035 224.748 112.072 241.424 114.408C248.674 115.423 251.519 115.908 251.924 116.046C256.706 117.103 256.192 125.405 251.857 127.014L251.861 127.018Z" fill="#FFBFBF"/>
<path d="M250.88 127.005C250.88 127.005 250.855 127.005 250.838 127.001L228.415 121.301C228.327 121.281 228.277 121.193 228.298 121.105C228.319 121.017 228.406 120.967 228.494 120.988L250.917 126.687C251.005 126.708 251.055 126.796 251.034 126.884C251.017 126.955 250.951 127.005 250.88 127.005Z" fill="#191025"/>
<path d="M249.731 137.622C249.731 137.622 249.702 137.622 249.685 137.614L227.404 130.979C227.321 130.954 227.27 130.866 227.296 130.778C227.321 130.695 227.408 130.644 227.496 130.67L249.777 137.305C249.861 137.33 249.911 137.417 249.886 137.505C249.865 137.576 249.802 137.618 249.731 137.618V137.622Z" fill="#191025"/>
<path d="M244.448 146.664C244.448 146.664 244.411 146.664 244.394 146.656L229.547 141.316C229.463 141.287 229.421 141.195 229.451 141.111C229.48 141.028 229.572 140.986 229.655 141.015L244.503 146.355C244.586 146.384 244.628 146.476 244.599 146.56C244.574 146.627 244.515 146.668 244.448 146.668V146.664Z" fill="#191025"/>
<path d="M221.919 58.2806C220.591 55.4519 216.344 52.268 212.313 52.4477C208.15 52.6357 204.211 56.2875 203.38 59.6385C202.541 63.0229 200.62 70.4477 204.842 74.2123C207.385 76.4811 208.922 76.2889 209.089 80.4588C209.144 81.8711 207.916 85.034 207.531 85.97C211.219 93.3488 220.336 88.7569 216.294 83.3335C215.784 82.4728 215.291 81.612 214.999 80.321C214.669 78.8627 215.158 77.7263 216.532 77.1455C218.737 76.2095 220.399 76.0633 223.072 73.0215C226.931 68.626 223.419 61.4811 221.919 58.2847V58.2806Z" fill="#FFBFBF"/>
<path d="M223.594 62.2713C222.462 58.3646 220.963 56.6389 220.963 56.6389C220.963 56.6389 218.808 55.3646 217.785 55.4857C217.672 55.5024 217.572 55.5526 217.488 55.6487C214.097 59.3214 209.966 56.8646 207.548 57.086C207.398 57.0986 207.252 57.1236 207.114 57.1612C205.711 58.6821 205.038 61.2977 202.983 61.3771C204.065 65.2169 202.887 66.9676 202.804 70.8952C199.271 70.3395 196.702 66.5206 196.915 62.9398C196.74 63.9551 196.685 64.3311 196.577 65.8813C196.577 65.8813 195.946 64.281 195.432 62.3924C194.234 58.7323 195.992 54.8882 199.037 54.0693C197.379 52.1765 196.147 49.6947 195.554 47.0582C196.602 47.852 197.876 48.0944 198.97 47.71C198.018 46.9788 197.391 45.5832 197.412 44.2545C203.497 50.8562 207.156 39.9091 213.007 40.3479C217.889 40.7573 221.936 46.6947 222.061 52.2601C226.267 53.3841 224.659 58.9453 223.594 62.2671V62.2713Z" fill="#A0D2F4"/>
<path d="M210.734 76.9121C211.741 78.0862 214.957 79.2645 214.957 79.2645C214.957 79.2645 215.27 77.7937 216.239 77.2505C215.671 77.5597 214.639 77.6851 213.533 77.6182C212.447 77.5556 211.294 77.3049 210.734 76.9121Z" fill="#141629"/>
<path d="M203.697 65.4847C203.697 65.4847 201.12 61.7911 198.631 64.3147C196.13 66.8551 200.494 74.7646 203.873 70.3774L203.697 65.4805V65.4847Z" fill="#FFBFBF"/>
<path d="M208.982 65.013C208.861 64.1439 209.467 63.3417 210.335 63.2205C211.204 63.0993 212.006 63.7052 212.127 64.5743C212.248 65.4433 211.643 66.2456 210.774 66.3667C209.905 66.4879 209.103 65.8821 208.982 65.013Z" fill="#141629"/>
<path d="M210.285 63.2246C209.099 63.4544 209.074 64.5157 207.838 64.6369C208.235 64.9502 210.014 65.0965 210.285 63.2246Z" fill="#141629"/>
<path d="M209.605 64.6289C209.576 64.4242 209.718 64.2362 209.923 64.2069C210.127 64.1777 210.315 64.3198 210.345 64.5245C210.374 64.7292 210.232 64.9172 210.027 64.9465C209.823 64.9757 209.635 64.8337 209.605 64.6289Z" fill="white"/>
<path d="M221.711 63.1741C221.59 62.3009 220.784 61.695 219.916 61.8162C219.047 61.9374 218.437 62.7438 218.558 63.6129C218.679 64.4861 219.485 65.092 220.354 64.9708C221.227 64.8496 221.833 64.0432 221.711 63.1741Z" fill="#141629"/>
<path d="M219.965 61.8073C221.172 61.7029 221.489 62.7224 222.717 62.5009C222.421 62.9104 220.742 63.5413 219.965 61.8073Z" fill="#141629"/>
<path d="M221.005 62.9776C220.976 62.7729 220.788 62.6308 220.583 62.6601C220.378 62.6893 220.236 62.8773 220.266 63.0821C220.295 63.2868 220.483 63.4289 220.687 63.3996C220.892 63.3704 221.034 63.1824 221.005 62.9776Z" fill="white"/>
<path d="M215.998 68.3465C215.944 68.3465 215.894 68.3047 215.885 68.2462C215.877 68.1835 215.919 68.125 215.981 68.1167C216.32 68.0707 216.704 68.0164 216.984 67.8033C217.23 67.6153 217.376 67.2267 217.193 66.976C216.988 66.7002 216.499 66.508 216.236 66.4078C215.622 66.1654 214.921 63.9844 214.996 63.437C215.004 63.3743 215.067 63.3325 215.125 63.3409C215.188 63.3493 215.234 63.4078 215.221 63.4704C215.146 64.0261 215.894 66.0317 216.316 66.1988C216.6 66.3117 217.13 66.5164 217.372 66.8465C217.639 67.21 217.46 67.7323 217.122 67.9913C216.792 68.242 216.361 68.3047 216.011 68.3507C216.006 68.3507 215.998 68.3507 215.994 68.3507L215.998 68.3465Z" fill="#141629"/>
<path d="M208.744 62.5764C208.744 62.5764 208.71 62.5764 208.693 62.5639C208.635 62.5388 208.61 62.4678 208.639 62.4093C208.898 61.8535 209.412 61.4524 210.009 61.3396C210.51 61.2435 210.991 61.373 211.325 61.6948C211.371 61.7366 211.371 61.8118 211.325 61.8577C211.283 61.9037 211.208 61.9037 211.162 61.8577C210.882 61.5903 210.473 61.4817 210.047 61.5611C209.52 61.6613 209.069 62.0123 208.84 62.5012C208.819 62.543 208.777 62.568 208.735 62.568L208.744 62.5764Z" fill="#141629"/>
<path d="M218.02 60.9596C218.02 60.9596 217.982 60.9554 217.965 60.9471C217.911 60.9178 217.886 60.8468 217.919 60.7925C218.208 60.2493 218.738 59.8774 219.344 59.7939C219.849 59.727 220.321 59.8774 220.642 60.2159C220.684 60.2618 220.684 60.3329 220.638 60.3788C220.592 60.4206 220.521 60.4206 220.475 60.3746C220.208 60.0905 219.807 59.9652 219.377 60.0237C218.847 60.0947 218.379 60.4248 218.124 60.9011C218.103 60.9387 218.066 60.9638 218.024 60.9638L218.02 60.9596Z" fill="#141629"/>
<path d="M212.348 69.5C212.348 70.1017 212.657 70.8663 213.17 71.5223C213.772 72.2869 214.653 72.8969 215.635 72.9053C216.603 72.9136 217.472 72.3329 218.082 71.5933C218.616 70.9415 218.942 70.1602 218.946 69.5501C216.741 70.227 214.54 70.2145 212.352 69.5H212.348Z" fill="#141629"/>
<path d="M213.166 71.5223C213.767 72.2869 214.649 72.8969 215.63 72.9053C216.599 72.9137 217.468 72.3329 218.077 71.5933C217.476 71.2883 216.582 71.0878 215.588 71.0794C214.632 71.071 213.772 71.2423 213.17 71.5181L213.166 71.5223Z" fill="#008BCE"/>
<path d="M185.73 254.69C181.646 253.699 181.504 257.46 181.504 257.46C181.504 257.46 181.333 253.733 177.24 254.69C173.101 255.659 174.279 262.703 179.758 265.386C180.848 265.921 182.122 265.921 183.212 265.386C188.708 262.712 189.949 255.705 185.735 254.685L185.73 254.69Z" fill="#E8E8E8"/>
<path d="M156.466 257.297V265.432H153.622C152.281 265.432 151.195 264.346 151.195 263.004V259.729C151.195 258.387 152.281 257.297 153.622 257.297H156.466Z" fill="#E8E8E8"/>
<path d="M166.756 265.248C165.779 266.355 157.539 265.432 157.539 265.432V257.297C157.539 257.297 159.051 255.83 159.456 254.481C159.853 253.139 160.212 251.205 161.248 251.481C162.283 251.756 162.743 255.5 161.465 257.297C161.465 257.297 165.491 256.206 166.585 257.397C167.621 258.525 167.675 264.212 166.761 265.248H166.756Z" fill="#E8E8E8"/>
<path d="M203.936 252.914C200.256 252.914 197.274 255.897 197.274 259.578C197.274 260.857 197.634 262.052 198.26 263.067L196.777 266.59L200.983 265.553C201.873 265.996 202.875 266.243 203.936 266.243C207.615 266.243 210.597 263.259 210.597 259.578C210.597 255.897 207.615 252.914 203.936 252.914Z" fill="#E8E8E8"/>
<path d="M162.448 288.793C157.461 288.793 153.418 292.867 153.418 297.893C153.418 299.64 153.907 301.273 154.755 302.656L152.746 307.466L158.447 306.053C159.654 306.655 161.011 306.998 162.452 306.998C167.439 306.998 171.482 302.924 171.482 297.897C171.482 292.871 167.439 288.797 162.452 288.797L162.448 288.793Z" fill="#E8E8E8"/>
<path d="M278.837 293.28H186.951C186.4 293.28 185.953 292.449 185.953 291.421C185.953 290.393 186.4 289.562 186.951 289.562H278.837C279.388 289.562 279.835 290.393 279.835 291.421C279.835 292.449 279.388 293.28 278.837 293.28Z" fill="#E8E8E8"/>
<path d="M224.134 303.989H186.951C186.4 303.989 185.953 303.158 185.953 302.13C185.953 301.102 186.4 300.271 186.951 300.271H224.134C224.685 300.271 225.132 301.102 225.132 302.13C225.132 303.158 224.685 303.989 224.134 303.989Z" fill="#E8E8E8"/>
<path d="M241.562 303.989H230.524C229.972 303.989 229.525 303.158 229.525 302.13C229.525 301.102 229.972 300.271 230.524 300.271H241.562C242.113 300.271 242.56 301.102 242.56 302.13C242.56 303.158 242.113 303.989 241.562 303.989Z" fill="#E8E8E8"/>
<path d="M162.448 317.986C157.461 317.986 153.418 322.06 153.418 327.087C153.418 328.833 153.907 330.467 154.755 331.85L152.746 336.659L158.447 335.247C159.654 335.848 161.011 336.191 162.452 336.191C167.439 336.191 171.482 332.117 171.482 327.091C171.482 322.064 167.439 317.991 162.452 317.991L162.448 317.986Z" fill="#E8E8E8"/>
<path d="M278.837 322.47H186.951C186.4 322.47 185.953 321.638 185.953 320.61C185.953 319.582 186.4 318.751 186.951 318.751H278.837C279.388 318.751 279.835 319.582 279.835 320.61C279.835 321.638 279.388 322.47 278.837 322.47Z" fill="#E8E8E8"/>
<path d="M224.134 333.179H186.951C186.4 333.179 185.953 332.347 185.953 331.319C185.953 330.291 186.4 329.46 186.951 329.46H224.134C224.685 329.46 225.132 330.291 225.132 331.319C225.132 332.347 224.685 333.179 224.134 333.179Z" fill="#E8E8E8"/>
<path d="M241.562 333.179H230.524C229.972 333.179 229.525 332.347 229.525 331.319C229.525 330.291 229.972 329.46 230.524 329.46H241.562C242.113 329.46 242.56 330.291 242.56 331.319C242.56 332.347 242.113 333.179 241.562 333.179Z" fill="#E8E8E8"/>
<path d="M83.7543 117.116L83.6582 145.837C83.654 147.174 84.3599 148.352 85.4374 149.038C85.7631 149.246 86.1181 149.405 86.5024 149.514C86.8532 149.614 87.2249 149.668 87.6091 149.668L131.169 149.777C131.704 149.777 132.218 149.677 132.685 149.493C133.04 149.355 133.366 149.167 133.663 148.937C134.565 148.239 135.145 147.166 135.149 145.967L135.245 117.245C135.245 116.56 135.062 115.921 134.74 115.361C134.652 115.21 134.556 115.068 134.448 114.93C133.729 114.011 132.585 113.414 131.295 113.409L87.7344 113.301C86.4481 113.301 85.2996 113.89 84.5729 114.805C84.3599 115.072 84.1845 115.365 84.055 115.678C83.867 116.121 83.7626 116.606 83.7626 117.111L83.7543 117.116Z" fill="#A0D2F4"/>
<path d="M84.0469 115.683L86.181 119.765L103.296 131.715C106.833 134.184 111.586 134.197 115.14 131.744L132.335 119.878L134.732 115.357C134.644 115.206 134.548 115.064 134.44 114.926C133.721 114.007 132.577 113.41 131.286 113.406L87.7263 113.297C86.44 113.297 85.2914 113.886 84.5648 114.801C84.3518 115.068 84.1763 115.361 84.0469 115.674V115.683Z" fill="#A0D2F4"/>
<path d="M109.235 133.737C107.118 133.737 105.004 133.106 103.2 131.848L86.0852 119.899C86.0643 119.882 86.0476 119.865 86.0351 119.84L84.2768 116.477C84.235 116.397 84.2643 116.301 84.3436 116.259C84.423 116.217 84.519 116.247 84.5608 116.326L86.3024 119.656L103.384 131.585C106.863 134.013 111.549 134.025 115.045 131.614L132.214 119.765L134.281 116.531C134.327 116.456 134.427 116.435 134.503 116.481C134.578 116.527 134.599 116.627 134.553 116.702L132.469 119.965C132.469 119.965 132.444 119.999 132.423 120.011L115.228 131.878C113.432 133.114 111.332 133.737 109.235 133.737Z" fill="#1A1538"/>
<path d="M133.409 149.13C133.375 149.13 133.342 149.121 133.317 149.101L111.516 133.549C111.445 133.499 111.428 133.399 111.478 133.323C111.528 133.252 111.633 133.236 111.704 133.286L133.505 148.837C133.576 148.887 133.592 148.988 133.542 149.063C133.509 149.109 133.463 149.13 133.413 149.13H133.409Z" fill="#1A1538"/>
<path d="M84.8643 148.428C84.8142 148.428 84.7599 148.403 84.7307 148.357C84.6805 148.282 84.7014 148.181 84.7724 148.135L106.786 133.278C106.862 133.227 106.962 133.248 107.008 133.319C107.058 133.395 107.037 133.495 106.966 133.541L84.952 148.399C84.9228 148.415 84.8935 148.428 84.8643 148.428Z" fill="#1A1538"/>
<path d="M360.426 199.833H290.228C287.679 199.833 285.613 201.9 285.613 204.45V246.839C285.613 249.388 287.679 251.456 290.228 251.456H360.426C362.974 251.456 365.041 249.388 365.041 246.839V204.45C365.041 201.9 362.974 199.833 360.426 199.833Z" fill="white"/>
<path d="M360.422 251.614H290.229C287.594 251.614 285.451 249.471 285.451 246.834V204.45C285.451 201.813 287.594 199.67 290.229 199.67H360.422C363.058 199.67 365.2 201.813 365.2 204.45V246.834C365.2 249.471 363.058 251.614 360.422 251.614ZM290.229 199.992C287.773 199.992 285.773 201.993 285.773 204.45V246.834C285.773 249.291 287.773 251.292 290.229 251.292H360.422C362.878 251.292 364.878 249.291 364.878 246.834V204.45C364.878 201.993 362.878 199.992 360.422 199.992H290.229Z" fill="#191025"/>
<path d="M291.816 244.056L302.074 230.097L308.677 231.776L320.709 210.943L328.84 223.361L335.886 219.287L342.309 231.037L347.476 225.76L357.111 244.056H291.816Z" fill="#171717"/>
<path d="M339.09 212.894C339.09 209.518 341.825 206.781 345.2 206.781C348.575 206.781 351.31 209.518 351.31 212.894C351.31 216.27 348.575 219.007 345.2 219.007C341.825 219.007 339.09 216.27 339.09 212.894Z" fill="#A0D2F4"/>
<path d="M311.526 20H245.187C242.138 20 239.666 22.4735 239.666 25.5237V48.7423C239.666 51.7925 242.138 54.266 245.187 54.266H255.77V64.9875L268.675 54.266H311.526C314.574 54.266 317.047 51.7925 317.047 48.7423V25.5237C317.047 22.4735 314.574 20 311.526 20Z" fill="#171717"/>
<path d="M258.686 39.8347C261.078 39.8347 263.017 37.8948 263.017 35.5018C263.017 33.1088 261.078 31.1689 258.686 31.1689C256.295 31.1689 254.355 33.1088 254.355 35.5018C254.355 37.8948 256.295 39.8347 258.686 39.8347Z" fill="white"/>
<path d="M278.628 39.8347C281.02 39.8347 282.959 37.8948 282.959 35.5018C282.959 33.1088 281.02 31.1689 278.628 31.1689C276.236 31.1689 274.297 33.1088 274.297 35.5018C274.297 37.8948 276.236 39.8347 278.628 39.8347Z" fill="white"/>
<path d="M298.571 39.8347C300.963 39.8347 302.902 37.8948 302.902 35.5018C302.902 33.1088 300.963 31.1689 298.571 31.1689C296.179 31.1689 294.24 33.1088 294.24 35.5018C294.24 37.8948 296.179 39.8347 298.571 39.8347Z" fill="white"/>
<path d="M142 21.8047C157.156 21.8047 169.443 34.0972 169.443 49.2601C169.443 54.5331 167.956 59.4551 165.384 63.6334L166.511 76.9119L154.166 73.8701C150.499 75.6877 146.368 76.7156 142 76.7156C126.844 76.7156 114.557 64.4231 114.557 49.2601C114.557 34.0972 126.844 21.8047 142 21.8047Z" fill="white"/>
<path d="M166.512 77.0748C166.512 77.0748 166.487 77.0747 166.474 77.0706L154.187 74.0455C150.374 75.9257 146.273 76.8825 142.005 76.8825C126.782 76.8825 114.398 64.494 114.398 49.2642C114.398 34.0344 126.782 21.6416 142 21.6416C157.219 21.6416 169.607 34.0302 169.607 49.26C169.607 54.3575 168.203 59.3422 165.551 63.675L166.675 76.8993C166.679 76.9494 166.658 76.9995 166.62 77.0371C166.591 77.0622 166.554 77.0748 166.516 77.0748H166.512ZM154.166 73.7112C154.166 73.7112 154.191 73.7112 154.204 73.7154L166.332 76.7029L165.221 63.65C165.221 63.6165 165.226 63.5831 165.246 63.5539C167.886 59.2628 169.285 54.3199 169.285 49.2642C169.285 34.214 157.044 21.9675 142 21.9675C126.957 21.9675 114.716 34.214 114.716 49.2642C114.716 64.3143 126.957 76.5608 142 76.5608C146.24 76.5608 150.312 75.6082 154.095 73.7321C154.116 73.7196 154.141 73.7154 154.166 73.7154V73.7112Z" fill="#141629"/>
<path d="M156.613 42.3656C155.085 39.1733 151.217 36.9129 147.483 38.0786C143.478 39.3279 141.946 44.0034 141.778 44.5383C141.778 44.743 141.778 44.9477 141.778 45.1525C141.778 44.9477 141.77 44.743 141.766 44.5383C141.599 43.9993 140.062 39.3238 136.061 38.0786C132.323 36.9129 128.46 39.1733 126.931 42.3656C124.129 48.2193 130.018 55.4644 130.682 56.2834C134.666 61.1845 139.928 61.9951 141.833 62.1622C141.875 62.1622 141.912 62.1706 141.95 62.1706C142 62.1664 142.05 62.158 142.104 62.1539C144.009 61.9366 149.025 61.0174 152.867 56.2792C153.548 55.4435 159.416 48.2068 156.617 42.3614L156.613 42.3656Z" fill="#008BCE"/>
<path d="M282.878 343.118C291.143 365.948 315.956 378.011 338.876 370.657C339.415 370.486 339.953 370.302 340.492 370.11C363.851 361.645 375.929 335.84 367.472 312.47C359.01 289.101 333.217 277.018 309.858 285.479C309.319 285.675 308.785 285.88 308.258 286.097C285.952 295.131 274.613 320.288 282.878 343.118Z" fill="white"/>
<path d="M325.149 372.976C318.345 372.976 311.58 371.422 305.311 368.351C294.753 363.178 286.734 354.237 282.729 343.173C278.724 332.113 279.162 320.109 283.961 309.371C288.747 298.662 297.355 290.343 308.201 285.947C308.735 285.73 309.274 285.521 309.805 285.329C321.144 281.222 333.401 281.777 344.323 286.891C355.244 292.01 363.518 301.072 367.623 312.416C371.729 323.76 371.173 336.024 366.061 346.95C360.949 357.876 351.886 366.153 340.547 370.26C340.025 370.449 339.482 370.637 338.927 370.812C334.416 372.258 329.776 372.976 325.149 372.976ZM325.203 282.926C320.058 282.926 314.896 283.825 309.913 285.63C309.387 285.822 308.852 286.027 308.318 286.244C285.89 295.327 274.781 320.284 283.03 343.06C289.632 361.306 306.676 372.671 325.04 372.671C329.601 372.671 334.241 371.969 338.827 370.499C339.378 370.323 339.921 370.139 340.435 369.951C363.672 361.532 375.734 335.769 367.318 312.521C363.242 301.26 355.023 292.261 344.181 287.18C338.137 284.347 331.681 282.922 325.199 282.922L325.203 282.926Z" fill="#1A1538"/>
<path d="M349.983 318.809C345.03 305.125 329.873 298.026 316.196 302.981C302.518 307.937 295.422 323.1 300.375 336.784C305.328 350.467 320.485 357.566 334.163 352.611C347.84 347.655 354.936 332.493 349.983 318.809Z" fill="white"/>
<path d="M356.022 316.619C349.861 299.601 331.017 290.773 314.007 296.935C297 303.098 288.171 321.951 294.332 338.969C300.492 355.983 319.336 364.816 336.346 358.653C353.353 352.49 362.182 333.637 356.022 316.619Z" fill="#008BCE"/>
<path d="M341.011 322.059C337.85 313.323 328.173 308.793 319.444 311.956C310.711 315.119 306.184 324.8 309.345 333.533C312.507 342.27 322.184 346.799 330.913 343.636C339.645 340.473 344.173 330.792 341.011 322.059Z" fill="white"/>
<path d="M334.822 324.299C332.897 318.98 327.004 316.219 321.683 318.145C316.366 320.071 313.606 325.966 315.531 331.29C317.456 336.609 323.349 339.37 328.67 337.444C333.987 335.518 336.747 329.622 334.822 324.299Z" fill="#171717"/>
<path d="M375.262 271.106C375.262 271.106 374.143 277.879 374.824 281.639C374.92 282.178 375.087 282.767 375.354 283.394L364.011 293.121L363.18 285.496L366.721 279.592L368.814 282.897L368.538 278.297L375.258 271.102L375.262 271.106Z" fill="#A0D2F4"/>
<path d="M390 287.096C390 287.096 381.568 286.729 377.96 285.479C377.446 285.3 376.886 285.049 376.31 284.686L364.967 294.413L372.372 296.401L379.517 293.598L375.897 291.601L382.119 291.968L390.004 287.096H390Z" fill="#A0D2F4"/>
<path d="M325.562 327.174C325.462 326.731 325.362 326.289 325.262 325.841L375.35 282.889C376.009 282.321 376.958 282.504 377.308 283.077C377.601 283.553 377.471 284.289 376.92 284.723L326.828 327.676C326.406 327.509 325.98 327.341 325.558 327.174H325.562Z" fill="#1A1538"/>
<path d="M335.673 325.691L329.283 318.333L322.312 330.851L335.673 325.691Z" fill="#008BCE"/>
<path d="M339.03 322.77L332.64 315.412L325.67 327.93L339.03 322.77Z" fill="#A0D2F4"/>
<path d="M135.435 247.951C143.853 237.68 142.355 222.526 132.088 214.105C121.821 205.683 106.674 207.182 98.2561 217.453C89.8379 227.724 91.3365 242.878 101.603 251.3C111.87 259.722 127.017 258.223 135.435 247.951Z" fill="#171717"/>
<path d="M117.213 236.906C111.976 236.906 107.732 232.661 107.732 227.421C107.732 222.182 111.976 217.937 117.213 217.937C122.45 217.937 126.693 222.182 126.693 227.421C126.693 232.661 122.45 236.906 117.213 236.906Z" fill="white"/>
<path d="M108.517 236.986C109.281 236.388 110.346 236.409 111.098 237.023C112.731 238.356 114.815 239.158 117.091 239.158C119.367 239.158 121.318 238.41 122.922 237.149C123.686 236.547 124.772 236.559 125.507 237.195C127.42 238.837 128.585 241.202 128.585 244.277V244.553C128.585 246.144 127.294 247.431 125.707 247.431H107.991C106.4 247.431 105.113 246.14 105.113 244.553V244.277C105.113 241.072 106.412 238.632 108.517 236.99V236.986Z" fill="white"/>
<path d="M103.609 366.963C103.609 370.189 106.224 372.805 109.448 372.805H184.336C185.952 372.805 187.409 372.153 188.462 371.091C189.518 370.034 190.174 368.572 190.174 366.963C190.174 363.734 187.56 361.122 184.336 361.122H109.448C107.832 361.122 106.374 361.774 105.322 362.835C104.265 363.888 103.609 365.351 103.609 366.963Z" fill="#A0D2F4"/>
<path d="M165.258 372.809H176.936V361.126H165.258V372.809Z" fill="white"/>
<path d="M154.014 372.809H158.691V361.126H154.014V372.809Z" fill="white"/>
<path d="M103.609 366.963C103.609 370.189 106.224 372.808 109.448 372.808H120.353C117.124 372.808 114.514 370.189 114.514 366.963C114.514 365.35 115.166 363.888 116.222 362.835C117.275 361.778 118.732 361.126 120.348 361.126H109.444C107.832 361.126 106.37 361.778 105.318 362.835C104.265 363.888 103.609 365.35 103.609 366.963Z" fill="#191025"/>
<path d="M103.609 355.281C103.609 358.506 106.224 361.122 109.448 361.122H184.336C185.952 361.122 187.409 360.47 188.462 359.409C189.518 358.352 190.174 356.889 190.174 355.281C190.174 352.051 187.56 349.439 184.336 349.439H109.448C107.832 349.439 106.374 350.091 105.322 351.153C104.265 352.205 103.609 353.668 103.609 355.281Z" fill="#A0D2F4"/>
<path d="M165.258 361.126H176.936V349.444H165.258V361.126Z" fill="white"/>
<path d="M154.014 361.126H158.691V349.444H154.014V361.126Z" fill="white"/>
<path d="M103.609 355.28C103.609 358.506 106.224 361.126 109.448 361.126H120.353C117.124 361.126 114.514 358.506 114.514 355.28C114.514 353.668 115.166 352.205 116.222 351.152C117.275 350.095 118.732 349.443 120.348 349.443H109.444C107.832 349.443 106.37 350.095 105.318 351.152C104.265 352.205 103.609 353.668 103.609 355.28Z" fill="#191025"/>
<path d="M103.609 343.599C103.609 346.825 106.224 349.44 109.448 349.44H184.336C185.952 349.44 187.409 348.788 188.462 347.727C189.518 346.67 190.174 345.208 190.174 343.599C190.174 340.369 187.56 337.758 184.336 337.758H109.448C107.832 337.758 106.374 338.41 105.322 339.471C104.265 340.524 103.609 341.986 103.609 343.599Z" fill="#A0D2F4"/>
<path d="M165.258 349.44H176.936V337.758H165.258V349.44Z" fill="white"/>
<path d="M154.014 349.44H158.691V337.758H154.014V349.44Z" fill="white"/>
<path d="M103.609 343.599C103.609 346.824 106.224 349.444 109.448 349.444H120.353C117.124 349.444 114.514 346.824 114.514 343.599C114.514 341.986 115.166 340.524 116.222 339.471C117.275 338.414 118.732 337.762 120.348 337.762H109.444C107.832 337.762 106.37 338.414 105.318 339.471C104.265 340.524 103.609 341.986 103.609 343.599Z" fill="#191025"/>
<path d="M103.609 331.916C103.609 335.142 106.224 337.758 109.448 337.758H184.336C185.952 337.758 187.409 337.106 188.462 336.045C189.518 334.987 190.174 333.525 190.174 331.916C190.174 328.687 187.56 326.075 184.336 326.075H109.448C107.832 326.075 106.374 326.727 105.322 327.788C104.265 328.841 103.609 330.304 103.609 331.916Z" fill="#A0D2F4"/>
<path d="M165.258 337.758H176.936V326.075H165.258V337.758Z" fill="white"/>
<path d="M154.014 337.758H158.691V326.075H154.014V337.758Z" fill="white"/>
<path d="M103.609 331.916C103.609 335.142 106.224 337.762 109.448 337.762H120.353C117.124 337.762 114.514 335.142 114.514 331.916C114.514 330.303 115.166 328.841 116.222 327.788C117.275 326.731 118.732 326.079 120.348 326.079H109.444C107.832 326.079 106.37 326.731 105.318 327.788C104.265 328.841 103.609 330.303 103.609 331.916Z" fill="#191025"/>
<path d="M103.609 320.234C103.609 323.459 106.224 326.075 109.448 326.075H184.336C185.952 326.075 187.409 325.423 188.462 324.362C189.518 323.305 190.174 321.842 190.174 320.234C190.174 317.004 187.56 314.393 184.336 314.393H109.448C107.832 314.393 106.374 315.044 105.322 316.106C104.265 317.159 103.609 318.621 103.609 320.234Z" fill="#A0D2F4"/>
<path d="M165.258 326.075H176.936V314.393H165.258V326.075Z" fill="white"/>
<path d="M154.014 326.075H158.691V314.393H154.014V326.075Z" fill="white"/>
<path d="M103.609 320.234C103.609 323.459 106.224 326.079 109.448 326.079H120.353C117.124 326.079 114.514 323.459 114.514 320.234C114.514 318.621 115.166 317.158 116.222 316.105C117.275 315.048 118.732 314.396 120.348 314.396H109.444C107.832 314.396 106.37 315.048 105.318 316.105C104.265 317.158 103.609 318.621 103.609 320.234Z" fill="#191025"/>
<path d="M184.336 361.286H118.495C118.407 361.286 118.332 361.215 118.332 361.123C118.332 361.031 118.403 360.96 118.495 360.96H184.336C184.424 360.96 184.499 361.031 184.499 361.123C184.499 361.215 184.428 361.286 184.336 361.286Z" fill="#121252"/>
<path d="M184.336 349.603H118.495C118.407 349.603 118.332 349.532 118.332 349.44C118.332 349.348 118.403 349.277 118.495 349.277H184.336C184.424 349.277 184.499 349.348 184.499 349.44C184.499 349.532 184.428 349.603 184.336 349.603Z" fill="#121252"/>
<path d="M184.336 337.921H118.495C118.407 337.921 118.332 337.85 118.332 337.758C118.332 337.666 118.403 337.595 118.495 337.595H184.336C184.424 337.595 184.499 337.666 184.499 337.758C184.499 337.85 184.428 337.921 184.336 337.921Z" fill="#121252"/>
<path d="M184.336 326.234H118.495C118.407 326.234 118.332 326.163 118.332 326.071C118.332 325.979 118.403 325.908 118.495 325.908H184.336C184.424 325.908 184.499 325.979 184.499 326.071C184.499 326.163 184.428 326.234 184.336 326.234Z" fill="#121252"/>
<path d="M183.976 372.483C201.497 372.483 215.7 358.274 215.7 340.745C215.7 323.217 201.497 309.007 183.976 309.007C166.455 309.007 152.252 323.217 152.252 340.745C152.252 358.274 166.455 372.483 183.976 372.483Z" fill="#191025"/>
<path d="M188.607 372.483C206.128 372.483 220.331 358.274 220.331 340.745C220.331 323.217 206.128 309.007 188.607 309.007C171.086 309.007 156.883 323.217 156.883 340.745C156.883 358.274 171.086 372.483 188.607 372.483Z" fill="#A0D2F4"/>
<path d="M213.354 346.575C216.58 332.899 208.114 319.197 194.445 315.969C180.776 312.742 167.08 321.211 163.853 334.886C160.627 348.562 169.093 362.264 182.762 365.492C196.431 368.719 210.128 360.25 213.354 346.575Z" fill="#008BCE"/>
<path d="M188.608 366.396C174.471 366.396 162.969 354.889 162.969 340.745C162.969 326.602 174.471 315.095 188.608 315.095C202.745 315.095 214.247 326.602 214.247 340.745C214.247 354.889 202.745 366.396 188.608 366.396ZM188.608 315.513C174.7 315.513 163.386 326.832 163.386 340.745C163.386 354.659 174.7 365.978 188.608 365.978C202.515 365.978 213.829 354.659 213.829 340.745C213.829 326.832 202.515 315.513 188.608 315.513Z" fill="#FF7B42"/>
<path d="M188.603 366.362C174.487 366.362 163.006 354.876 163.006 340.753C163.006 326.631 174.487 315.145 188.603 315.145C202.72 315.145 214.201 326.631 214.201 340.753C214.201 354.876 202.72 366.362 188.603 366.362ZM188.603 315.466C174.666 315.466 163.327 326.81 163.327 340.753C163.327 354.696 174.666 366.04 188.603 366.04C202.54 366.04 213.879 354.696 213.879 340.753C213.879 326.81 202.54 315.466 188.603 315.466Z" fill="#E07F00"/>
<path d="M187.732 350.952C189.557 350.952 190.901 350.585 191.766 349.841C192.631 349.101 193.065 348.182 193.065 347.079C193.065 346.105 192.735 345.307 192.075 344.693C191.415 344.079 190.392 343.569 189.005 343.16L185.936 342.216C184.361 341.681 182.987 341.083 181.805 340.423C180.623 339.763 179.713 338.902 179.065 337.849C178.418 336.796 178.097 335.497 178.097 333.951C178.097 331.402 179.049 329.388 180.953 327.905C182.858 326.426 185.46 325.686 188.767 325.686C190.53 325.686 192.096 325.866 193.466 326.229C194.836 326.593 195.922 327.086 196.723 327.717C197.525 328.348 197.926 329.087 197.926 329.936C197.926 330.533 197.776 331.06 197.479 331.519C197.179 331.975 196.811 332.346 196.368 332.631C195.612 332.096 194.614 331.632 193.37 331.239C192.125 330.846 190.764 330.65 189.285 330.65C187.648 330.65 186.391 330.951 185.51 331.548C184.628 332.146 184.19 332.948 184.19 333.955C184.19 334.774 184.495 335.434 185.109 335.94C185.723 336.445 186.658 336.884 187.919 337.26L190.659 338.062C193.366 338.881 195.475 339.993 196.987 341.392C198.498 342.792 199.254 344.706 199.254 347.129C199.254 349.711 198.269 351.805 196.306 353.409C194.339 355.014 191.528 355.816 187.878 355.816C185.957 355.816 184.257 355.611 182.778 355.202C181.3 354.792 180.126 354.228 179.262 353.501C178.397 352.778 177.963 351.959 177.963 351.044C177.963 350.351 178.176 349.753 178.602 349.248C179.028 348.746 179.508 348.366 180.043 348.115C180.861 348.809 181.914 349.452 183.204 350.05C184.495 350.647 186.007 350.948 187.736 350.948L187.732 350.952ZM190.939 329.417H185.748V322.239C185.969 322.143 186.291 322.072 186.717 322.026C187.143 321.98 187.59 321.955 188.062 321.955C189.068 321.955 189.799 322.135 190.258 322.498C190.714 322.862 190.943 323.484 190.943 324.362V329.413L190.939 329.417ZM185.748 352.937H190.939V359.267C190.718 359.33 190.404 359.392 189.995 359.455C189.586 359.518 189.131 359.551 188.625 359.551C187.648 359.551 186.926 359.372 186.454 359.008C185.982 358.644 185.744 358.022 185.744 357.14V352.937H185.748Z" fill="white"/>
<path d="M381.059 373.039H60.8899C60.7646 373.039 60.6602 372.934 60.6602 372.809C60.6602 372.684 60.7646 372.579 60.8899 372.579H381.055C381.18 372.579 381.284 372.684 381.284 372.809C381.284 372.934 381.18 373.039 381.055 373.039H381.059Z" fill="#141629"/>
<path d="M347.291 49.3398C343.424 48.1824 340.405 44.0793 339.553 38.8272L339.089 35.9609L338.625 38.8272C337.773 44.0793 334.754 48.1824 330.886 49.3398L328.777 49.9707L330.886 50.6016C334.754 51.759 337.773 55.8621 338.625 61.1141L339.089 63.9804L339.553 61.1141C340.405 55.8621 343.424 51.759 347.291 50.6016L349.401 49.9707L347.291 49.3398Z" fill="#A0D2F4"/>
<path d="M76.8598 340.118C72.9924 338.961 69.9729 334.858 69.1209 329.606L68.6573 326.739L68.1937 329.606C67.3417 334.858 64.3222 338.961 60.4548 340.118L58.3457 340.749L60.4548 341.38C64.3222 342.537 67.3417 346.64 68.1937 351.892L68.6573 354.759L69.1209 351.892C69.9729 346.64 72.9924 342.537 76.8598 341.38L78.9689 340.749L76.8598 340.118Z" fill="#A0D2F4"/>
<path d="M81.1403 66.0901C82.8985 65.5637 84.2684 63.7002 84.6568 61.3144L84.8698 60.0107L85.0828 61.3144C85.4712 63.7002 86.8411 65.5637 88.5994 66.0901L89.5599 66.3784L88.5994 66.6667C86.8411 67.1932 85.4712 69.0567 85.0828 71.4425L84.8698 72.7461L84.6568 71.4425C84.2684 69.0567 82.8985 67.1932 81.1403 66.6667L80.1797 66.3784L81.1403 66.0901Z" fill="#171717"/>
<path d="M79.9293 185.69C81.6876 185.163 83.0575 183.3 83.4459 180.914L83.6589 179.61L83.8719 180.914C84.2603 183.3 85.6302 185.163 87.3884 185.69L88.349 185.978L87.3884 186.266C85.6302 186.793 84.2603 188.656 83.8719 191.042L83.6589 192.346L83.4459 191.042C83.0575 188.656 81.6876 186.793 79.9293 186.266L78.9688 185.978L79.9293 185.69Z" fill="#008BCE"/>
<path d="M366.445 182.075C368.203 181.549 369.573 179.686 369.961 177.3L370.174 175.996L370.387 177.3C370.776 179.686 372.146 181.549 373.904 182.075L374.865 182.364L373.904 182.652C372.146 183.179 370.776 185.042 370.387 187.428L370.174 188.731L369.961 187.428C369.573 185.042 368.203 183.179 366.445 182.652L365.484 182.364L366.445 182.075Z" fill="#008BCE"/>
<path d="M298.791 392H255.757C255.632 392 255.527 391.895 255.527 391.77C255.527 391.645 255.632 391.54 255.757 391.54H298.791C298.916 391.54 299.021 391.645 299.021 391.77C299.021 391.895 298.916 392 298.791 392Z" fill="#141629"/>
</g>
</g>
<defs>
<clipPath id="clip0_2517_19140">
<rect width="427" height="413" fill="white"/>
</clipPath>
<clipPath id="clip1_2517_19140">
<rect width="353" height="372" fill="white" transform="translate(37 20)"/>
</clipPath>
</defs>
</svg>
