<svg width="427" height="425" viewBox="0 0 427 425" fill="none" xmlns="http://www.w3.org/2000/svg">
<g clip-path="url(#clip0_2415_16726)">
<path d="M400.041 382.57C388.531 392.16 338.441 398.94 278.761 401.49C187.021 405.42 72.6009 399.37 40.7909 378.2C25.7309 368.19 15.5509 337.25 9.1009 297.66C-6.9291 199.16 0.220901 47.1301 13.1609 30.6501C31.3109 7.56009 323.301 -15.3099 399.911 13.9301C432.741 26.4601 429.231 358.23 400.031 382.57H400.041Z" fill="white"/>
<path d="M373.314 247.44L375.204 241.883L377.358 247.44C377.358 247.44 381.657 248.14 381.712 248.531C381.757 248.913 377.595 250.095 377.595 250.095C377.595 250.095 375.85 255.488 375.204 254.27C374.568 253.051 373.95 250.35 373.95 250.35C373.95 250.35 368.533 249.268 368.533 248.731C368.533 248.158 373.314 247.449 373.314 247.449V247.44Z" fill="white"/>
<path d="M304.094 233.142L305.566 228.822L307.238 233.142C307.238 233.142 310.574 233.688 310.619 233.988C310.656 234.279 307.429 235.198 307.429 235.198C307.429 235.198 306.075 239.381 305.575 238.435C305.075 237.49 304.594 235.389 304.594 235.389C304.594 235.389 300.395 234.543 300.395 234.134C300.395 233.688 304.103 233.142 304.103 233.142H304.094Z" fill="white"/>
<g clip-path="url(#clip1_2415_16726)">
<path d="M373.105 208.725C374.607 177.357 361.178 145.997 338.877 123.896C316.576 101.804 285.987 88.8195 254.738 85.9725C223.49 83.1254 191.711 90.0699 163.451 103.722C140.795 114.671 119.989 130.131 105.048 150.382C90.0996 170.632 81.338 195.9 83.119 221.017C86.0817 262.667 113.886 299.889 151.102 318.754C188.317 337.619 232.429 339.385 273.291 330.962C289.726 327.574 306 322.547 320.417 313.956C354.712 293.528 371.189 248.617 373.105 208.716V208.725Z" fill="#F3F3F3"/>
<path d="M108.304 46.2829L113.057 38.0459H103.561L108.304 46.2829Z" fill="#060305"/>
<path d="M281.84 51.9854L277.088 60.2223H286.584L281.84 51.9854Z" fill="#008BCE"/>
<path d="M376.15 134.28L384.372 139.028V129.523L376.15 134.28Z" stroke="#060305" stroke-linecap="round" stroke-linejoin="round"/>
<path d="M51.9707 200.572L60.2005 205.328V195.824L51.9707 200.572Z" fill="#008BCE"/>
<path d="M157.111 338.438L148.881 333.69V343.195L157.111 338.438Z" fill="#060305"/>
<path d="M101.966 68.5435C101.966 67.817 101.375 67.2256 100.649 67.2256C99.9229 67.2256 99.332 67.817 99.332 68.5435C99.332 69.2701 99.9229 69.8614 100.649 69.8614C101.375 69.8614 101.966 69.2701 101.966 68.5435Z" fill="#008BCE"/>
<path d="M161.981 89.4029C161.981 88.6763 161.39 88.085 160.664 88.085C159.939 88.085 159.348 88.6763 159.348 89.4029C159.348 90.1294 159.939 90.7208 160.664 90.7208C161.39 90.7208 161.981 90.1294 161.981 89.4029Z" fill="#060305"/>
<path d="M68.7683 229.035C68.7683 228.308 68.1775 227.717 67.4515 227.717C66.7256 227.717 66.1348 228.308 66.1348 229.035C66.1348 229.761 66.7256 230.353 67.4515 230.353C68.1775 230.353 68.7683 229.761 68.7683 229.035Z" stroke="#060305" stroke-linecap="round" stroke-linejoin="round"/>
<path d="M188.434 106.806C188.434 106.08 187.843 105.488 187.118 105.488C186.392 105.488 185.801 106.08 185.801 106.806C185.801 107.533 186.392 108.124 187.118 108.124C187.843 108.124 188.434 107.533 188.434 106.806Z" stroke="#060305" stroke-linecap="round" stroke-linejoin="round"/>
<path d="M246.288 61.2359C246.288 60.5093 245.697 59.918 244.971 59.918C244.245 59.918 243.654 60.5093 243.654 61.2359C243.654 61.9624 244.245 62.5538 244.971 62.5538C245.697 62.5538 246.288 61.9624 246.288 61.2359Z" fill="#060305"/>
<path d="M292.264 153.178C292.264 152.452 291.674 151.86 290.948 151.86C290.222 151.86 289.631 152.452 289.631 153.178C289.631 153.905 290.222 154.496 290.948 154.496C291.674 154.496 292.264 153.905 292.264 153.178Z" fill="#008BCE"/>
<path d="M331.194 136.129C331.194 135.403 330.603 134.812 329.877 134.812C329.151 134.812 328.561 135.403 328.561 136.129C328.561 136.856 329.151 137.447 329.877 137.447C330.603 137.447 331.194 136.856 331.194 136.129Z" stroke="#060305" stroke-linecap="round" stroke-linejoin="round"/>
<path d="M187.118 238.522C187.118 237.795 186.527 237.204 185.801 237.204C185.075 237.204 184.484 237.795 184.484 238.522C184.484 239.249 185.075 239.84 185.801 239.84C186.527 239.84 187.118 239.249 187.118 238.522Z" fill="#008BCE"/>
<path d="M105.95 231.923C105.95 231.197 105.359 230.605 104.633 230.605C103.907 230.605 103.316 231.197 103.316 231.923C103.316 232.65 103.907 233.241 104.633 233.241C105.359 233.241 105.95 232.65 105.95 231.923Z" fill="#008BCE"/>
<path d="M299.305 167.287C299.305 166.56 298.715 165.969 297.989 165.969C297.263 165.969 296.672 166.56 296.672 167.287C296.672 168.013 297.263 168.605 297.989 168.605C298.715 168.605 299.305 168.013 299.305 167.287Z" fill="#060305"/>
<path d="M204.632 262.532C204.632 261.805 204.041 261.214 203.315 261.214C202.589 261.214 201.998 261.805 201.998 262.532C201.998 263.258 202.589 263.85 203.315 263.85C204.041 263.85 204.632 263.258 204.632 262.532Z" fill="#008BCE"/>
<path d="M187.118 344.631C187.118 343.905 186.527 343.313 185.801 343.313C185.075 343.313 184.484 343.905 184.484 344.631C184.484 345.358 185.075 345.949 185.801 345.949C186.527 345.949 187.118 345.358 187.118 344.631Z" fill="#008BCE"/>
<path d="M166.698 279.783C166.698 279.056 166.107 278.465 165.381 278.465C164.655 278.465 164.064 279.056 164.064 279.783C164.064 280.509 164.655 281.101 165.381 281.101C166.107 281.101 166.698 280.509 166.698 279.783Z" fill="#008BCE"/>
<path d="M152.594 281.1C152.594 280.374 152.004 279.782 151.278 279.782C150.552 279.782 149.961 280.374 149.961 281.1C149.961 281.827 150.552 282.418 151.278 282.418C152.004 282.418 152.594 281.827 152.594 281.1Z" stroke="#060305" stroke-linecap="round" stroke-linejoin="round"/>
<path d="M352.263 109.273C351.444 111.816 347.848 111.816 347.03 109.273C346.211 106.73 342.615 106.73 341.796 109.273C340.978 111.816 337.382 111.816 336.563 109.273C335.744 106.73 332.148 106.73 331.33 109.273C330.511 111.816 326.915 111.816 326.096 109.273C325.278 106.73 321.682 106.73 320.863 109.273C320.044 111.816 316.448 111.816 315.63 109.273C314.811 106.73 311.215 106.73 310.396 109.273C309.578 111.816 305.982 111.816 305.163 109.273C304.344 106.73 300.748 106.73 299.93 109.273" stroke="#060305" stroke-linecap="round" stroke-linejoin="round"/>
<path d="M121.929 257.522C121.11 260.065 117.514 260.065 116.696 257.522C115.877 254.98 112.281 254.98 111.462 257.522C110.644 260.065 107.048 260.065 106.229 257.522C105.41 254.98 101.814 254.98 100.996 257.522C100.177 260.065 96.5811 260.065 95.7624 257.522C94.9436 254.98 91.3478 254.98 90.529 257.522C89.7103 260.065 86.1145 260.065 85.2957 257.522C84.4769 254.98 80.8811 254.98 80.0624 257.522C79.2436 260.065 75.6478 260.065 74.829 257.522C74.0103 254.98 70.4145 254.98 69.5957 257.522" stroke="#060305" stroke-linecap="round" stroke-linejoin="round"/>
<path d="M215.63 300.431C214.811 302.974 211.216 302.974 210.397 300.431C209.578 297.888 205.982 297.888 205.164 300.431C204.345 302.974 200.749 302.974 199.93 300.431C199.111 297.888 195.516 297.888 194.697 300.431C193.878 302.974 190.282 302.974 189.464 300.431C188.645 297.888 185.049 297.888 184.23 300.431C183.411 302.974 179.816 302.974 178.997 300.431C178.178 297.888 174.582 297.888 173.764 300.431C172.945 302.974 169.349 302.974 168.53 300.431C167.711 297.888 164.116 297.888 163.297 300.431" stroke="#060305" stroke-linecap="round" stroke-linejoin="round"/>
<path d="M181.395 39.8545C181.395 37.7847 182.948 36.1035 184.949 35.8669C184.518 34.0337 183.792 32.3187 182.83 30.7642C181.243 32.0061 178.956 31.9132 177.495 30.4601C176.035 28.9986 175.942 26.7091 177.191 25.1208C175.638 24.1577 173.925 23.4396 172.093 23.0088C171.857 25.011 170.169 26.5655 168.109 26.5655C166.049 26.5655 164.361 25.011 164.125 23.0088C162.293 23.4396 160.58 24.1662 159.027 25.1208C160.267 26.7091 160.183 28.9986 158.723 30.4601C157.263 31.9216 154.975 32.0146 153.388 30.7642C152.426 32.3187 151.708 34.0337 151.27 35.8669C153.27 36.1035 154.823 37.7931 154.823 39.8545C154.823 41.9159 153.27 43.6055 151.27 43.842C151.7 45.6753 152.426 47.3903 153.388 48.9448C154.975 47.7029 157.263 47.7958 158.723 49.2489C160.183 50.7104 160.276 52.9999 159.027 54.5882C160.58 55.5513 162.293 56.2694 164.125 56.7087C164.361 54.7064 166.049 53.152 168.109 53.152C170.169 53.152 171.857 54.7064 172.093 56.7087C173.925 56.2778 175.638 55.5513 177.191 54.5882C175.951 52.9999 176.043 50.7104 177.495 49.2489C178.947 47.7874 181.243 47.6944 182.83 48.9448C183.792 47.3903 184.51 45.6753 184.949 43.842C182.948 43.6055 181.395 41.9159 181.395 39.8545ZM168.117 45.3796C165.07 45.3796 162.597 42.9043 162.597 39.8545C162.597 36.8047 165.07 34.3294 168.117 34.3294C171.165 34.3294 173.638 36.8047 173.638 39.8545C173.638 42.9043 171.165 45.3796 168.117 45.3796Z" fill="#008BCE"/>
<path d="M221.363 76.3084C221.363 80.862 219.86 85.0777 217.328 88.4739C214.568 92.1573 210.601 94.8776 206.009 96.0266C204.422 96.4321 202.759 96.6433 201.046 96.6433C189.819 96.6433 180.729 87.5361 180.729 76.3084C180.729 65.0808 189.828 55.9736 201.046 55.9736C208.98 55.9736 215.851 60.5188 219.193 67.1675C220.586 69.9216 221.363 73.0221 221.363 76.3169V76.3084Z" fill="white"/>
<path d="M201.038 55.9648V76.3081H180.721C180.721 65.072 189.82 55.9648 201.038 55.9648Z" fill="#202020"/>
<path d="M219.195 67.1591L201.047 76.3084V55.9736C208.981 55.9736 215.852 60.5188 219.195 67.1675V67.1591Z" fill="#A0D2F4"/>
<path d="M217.329 88.4737C214.569 92.1571 210.602 94.8774 206.01 96.0264L201.047 76.2998L217.329 88.4652V88.4737Z" fill="black"/>
<path d="M230.564 33.7969H225.322V50.5412H230.564V33.7969Z" fill="#008BCE"/>
<path d="M239.511 29.168H234.27V50.5335H239.511V29.168Z" fill="#A0D2F4"/>
<path d="M248.459 38.0127H243.217V50.5329H248.459V38.0127Z" fill="#008BCE"/>
<path d="M253.287 25.3828H220.494V50.5331H253.287V25.3828Z" stroke="#060305" stroke-linecap="round" stroke-linejoin="round"/>
<path d="M142.972 54.4189H128.859V68.5443H142.972V54.4189Z" fill="white"/>
<path d="M136.541 66.4997L130.008 58.7696L132.278 56.8434L136.22 61.5068L142.137 52.332L144.644 53.9456L136.541 66.4997Z" fill="black"/>
<path d="M142.972 75.2354H128.859V89.3607H142.972V75.2354Z" fill="white"/>
<path d="M136.541 87.3161L130.008 79.586L132.278 77.6598L136.22 82.3316L142.137 73.1484L144.644 74.762L136.541 87.3161Z" fill="black"/>
<path d="M142.972 96.0518H128.859V110.177H142.972V96.0518Z" fill="white"/>
<path d="M136.541 108.132L130.008 100.402L132.278 98.4762L136.22 103.148L142.137 93.9648L144.644 95.5785L136.541 108.132Z" fill="black"/>
<path d="M44.5276 144.162L41.418 147.274L57.3422 163.212L60.4518 160.1L44.5276 144.162Z" fill="#FFBFBF"/>
<path d="M50.4245 153.18C54.5384 149.062 54.5384 142.387 50.4245 138.269C46.3107 134.152 39.6408 134.152 35.5269 138.269C31.4131 142.387 31.4131 149.062 35.5269 153.18C39.6408 157.297 46.3107 157.297 50.4245 153.18Z" fill="white"/>
<path d="M42.9727 157.58C36.431 157.58 31.1133 152.258 31.1133 145.711C31.1133 139.163 36.431 133.841 42.9727 133.841C49.5143 133.841 54.8321 139.163 54.8321 145.711C54.8321 152.258 49.5143 157.58 42.9727 157.58ZM42.9727 136.485C37.8913 136.485 33.7553 140.625 33.7553 145.711C33.7553 150.796 37.8913 154.936 42.9727 154.936C48.0541 154.936 52.1901 150.796 52.1901 145.711C52.1901 140.625 48.0541 136.485 42.9727 136.485Z" fill="#202020"/>
<path d="M51.2207 154.852C53.2043 156.871 55.1879 158.881 57.1715 160.9" stroke="#060305" stroke-linecap="round" stroke-linejoin="round"/>
<path d="M277.529 83.3287V130.655H230.572V70.1748H264.395L277.529 83.3287Z" fill="white"/>
<path d="M277.529 83.3287H264.395V70.1748L277.529 83.3287Z" fill="#A0D2F4"/>
<path d="M240.254 87.2236H269.451" stroke="#060305" stroke-linecap="round" stroke-linejoin="round"/>
<path d="M240.254 93.1631H269.451" stroke="#060305" stroke-linecap="round" stroke-linejoin="round"/>
<path d="M240.254 99.1016H269.451" stroke="#060305" stroke-linecap="round" stroke-linejoin="round"/>
<path d="M240.254 105.041H269.451" stroke="#060305" stroke-linecap="round" stroke-linejoin="round"/>
<path d="M240.254 110.988H269.451" stroke="#060305" stroke-linecap="round" stroke-linejoin="round"/>
<path d="M240.254 116.928H269.451" stroke="#060305" stroke-linecap="round" stroke-linejoin="round"/>
<path d="M30 86.9873H58.5048V102.27H39.7154L36.9553 107.06L34.1867 102.27H30V86.9873Z" fill="white"/>
<path d="M35.3086 92.4619H54.0557" stroke="#060305" stroke-linecap="round" stroke-linejoin="round"/>
<path d="M35.3086 97.0918H54.0557" stroke="#060305" stroke-linecap="round" stroke-linejoin="round"/>
<path d="M81.7001 64.084H53.1953V79.3668H71.9847L74.7448 84.1569L77.5134 79.3668H81.7001V64.084Z" fill="white"/>
<path d="M58.0742 69.4912H76.8214" stroke="#060305" stroke-linecap="round" stroke-linejoin="round"/>
<path d="M58.0742 74.1201H76.8214" stroke="#060305" stroke-linecap="round" stroke-linejoin="round"/>
<path d="M94.936 102.075V132.911H64.3379V93.5088H86.377L94.936 102.075Z" fill="#008BCE"/>
<path d="M94.936 102.075H86.377V93.5088L94.936 102.075Z" fill="#A0D2F4"/>
<path d="M84.4363 107.778C82.4274 108.935 81.7437 111.503 82.9001 113.514C84.0565 115.525 86.6225 116.209 88.6314 115.051C90.6403 113.894 91.324 111.326 90.1676 109.315C89.0112 107.304 86.4452 106.62 84.4363 107.778Z" fill="white"/>
<path d="M70.4754 115.846C68.4664 117.003 67.7827 119.572 68.9391 121.582C70.0955 123.593 72.6615 124.277 74.6705 123.12C76.6794 121.962 77.3631 119.394 76.2067 117.383C75.0503 115.373 72.4843 114.688 70.4754 115.846Z" fill="white"/>
<path d="M88.6314 115.846C86.6225 114.688 84.0565 115.373 82.9001 117.383C81.7437 119.394 82.4274 121.962 84.4363 123.12C86.4452 124.277 89.0112 123.593 90.1676 121.582C91.324 119.572 90.6403 117.003 88.6314 115.846Z" fill="white"/>
<path d="M74.6705 107.778C72.6615 106.62 70.0955 107.304 68.9391 109.315C67.7827 111.326 68.4664 113.894 70.4754 115.051C72.4843 116.209 75.0503 115.525 76.2067 113.514C77.3631 111.503 76.6794 108.935 74.6705 107.778Z" fill="white"/>
<path d="M79.5584 127.715C81.8753 127.715 83.7535 125.835 83.7535 123.516C83.7535 121.197 81.8753 119.317 79.5584 119.317C77.2415 119.317 75.3633 121.197 75.3633 123.516C75.3633 125.835 77.2415 127.715 79.5584 127.715Z" fill="white"/>
<path d="M79.5584 111.579C81.8753 111.579 83.7535 109.699 83.7535 107.38C83.7535 105.061 81.8753 103.182 79.5584 103.182C77.2415 103.182 75.3633 105.061 75.3633 107.38C75.3633 109.699 77.2415 111.579 79.5584 111.579Z" fill="white"/>
<path d="M85.5505 115.448C85.5505 112.137 82.8663 109.45 79.5575 109.45C76.2486 109.45 73.5645 112.137 73.5645 115.448C73.5645 118.76 76.2486 121.447 79.5575 121.447C82.8663 121.447 85.5505 118.76 85.5505 115.448Z" fill="black"/>
<path d="M352.272 396.85C352.272 390.699 312.313 390.699 263.026 390.699C213.74 390.699 173.781 390.699 173.781 396.85C173.781 403 213.74 403 263.026 403C312.313 403 352.272 403 352.272 396.85Z" fill="#C4C8FF"/>
<path d="M224.325 363.615C223.666 373.744 218.129 383.451 209.747 389.162C206.683 391.249 202.691 393.141 202.488 396.85L304.96 396.309C307.644 384.896 310.928 372.832 313.612 361.427C283.622 361.646 254.315 363.404 224.325 363.615Z" fill="#060305"/>
<path d="M268.141 365.601C267.457 375.003 262.831 384.051 255.614 390.109C253.327 392.027 250.238 393.471 248.988 396.183" stroke="white" stroke-linecap="round" stroke-linejoin="round"/>
<path d="M250.965 394.814C269.374 394.062 287.784 393.318 306.193 392.566" stroke="white" stroke-linecap="round" stroke-linejoin="round"/>
<path d="M203.602 394.67C219.048 394.518 234.487 394.366 249.933 394.214" stroke="white" stroke-linecap="round" stroke-linejoin="round"/>
<path d="M372.032 266.182C342.945 258.713 311.528 258.333 282.88 267.322C282.956 269.705 281.96 271.825 282.036 274.207C275.004 274.833 267.889 274.478 260.858 275.103C253.767 274.841 247.42 280.155 243.469 286.052C239.519 291.949 237.687 298.969 235.923 305.846C230.842 325.623 225.769 345.4 220.688 365.178L314.879 366.115C318.272 350.486 323.024 334.764 326.418 319.126C333.407 318.222 340.446 317.302 347.132 315.08C353.817 312.849 360.206 309.2 364.596 303.683C372.699 293.478 372.564 279.2 372.032 266.173V266.182Z" fill="#008BCE"/>
<path d="M329.16 308.11C328.257 312.005 327.362 315.9 326.459 319.794C327.539 318.417 328.611 317.04 329.692 315.671" stroke="#060305" stroke-linecap="round" stroke-linejoin="round"/>
<path d="M266.859 365.017C272.245 341.362 277.621 317.699 283.007 294.044C284.957 285.486 291.507 278.144 300.125 276.514" stroke="#060305" stroke-linecap="round" stroke-linejoin="round"/>
<path d="M294.807 284.261C298.512 281.431 303.914 281.042 307.991 283.298" stroke="#060305" stroke-linecap="round" stroke-linejoin="round"/>
<path d="M251.801 282.199C253.582 280.222 256.19 279.014 258.849 278.93C261.508 278.845 264.184 279.884 266.091 281.743" stroke="#060305" stroke-linecap="round" stroke-linejoin="round"/>
<path d="M222.832 358.461C222.832 358.461 305.282 358.976 315.057 359.103" stroke="#060305" stroke-linecap="round" stroke-linejoin="round"/>
<path d="M357.361 187.36C349.933 185.391 343.341 184.31 335.795 182.814C335.221 185.07 333.06 186.819 330.739 186.912C328.417 187.013 326.265 185.526 325.497 183.33C319.706 185.045 313.925 186.768 308.134 188.483C299.297 191.111 291.531 197.143 285.234 203.884C280.11 209.359 274.767 214.47 269.602 219.902C276.05 238.505 281.63 250.442 290.079 268.217L371.229 260.563C375.644 245.365 380.523 237.043 384.937 221.845C387.005 220.088 389.647 218.314 391.715 216.557C385.57 202.499 376.615 192.454 357.353 187.351L357.361 187.36Z" fill="white"/>
<path d="M318.229 185.577C318.971 189.354 322.145 192.387 325.825 193.502C329.505 194.617 333.566 193.975 337.026 192.311C340.487 190.646 343.416 188.027 345.965 185.146" stroke="#060305" stroke-linecap="round" stroke-linejoin="round"/>
<path d="M296.274 194.541C294.991 202.609 293.717 210.686 292.434 218.754" stroke="#060305" stroke-linecap="round" stroke-linejoin="round"/>
<path d="M365.624 190.325C362.34 190.469 359.175 192.201 357.267 194.887C355.368 197.565 355.132 201.054 355.731 204.282C357.352 213.042 358.837 219.801 361.184 227.43" stroke="#060305" stroke-linecap="round" stroke-linejoin="round"/>
<path d="M360.383 223.889C370.512 220.637 380.641 217.376 390.77 214.123" stroke="#060305" stroke-linecap="round" stroke-linejoin="round"/>
<path d="M396.239 234.957C395.015 228.789 392.534 222.943 390.069 217.156L363.092 227.142C363.953 230.817 364.814 234.5 365.675 238.175C358.61 240.211 351.25 241.8 344.193 243.836C336.275 246.117 328.451 248.66 321.133 252.461C318.558 257.851 316.06 263.089 313.485 268.479C313.063 269.358 313.266 270.777 314 271.419C314.726 272.061 315.79 272.306 316.726 272.036C321.707 270.625 326.003 266.696 330.468 264.069C327.21 267.533 324.078 271.115 321.099 274.824C322.272 275.897 324.07 275.846 325.378 274.933C329.388 272.12 333.6 269.924 337.668 267.212C336.174 269.468 334.68 271.715 333.186 273.97C333.287 274.553 333.836 274.824 334.427 274.79C335.009 274.748 335.541 274.427 336.039 274.122C338.073 272.847 340.116 271.58 342.15 270.304C346.025 270.845 350.498 270 354.288 269.011C363.531 266.604 373.668 268.707 382.489 265.041C387.993 262.751 392.373 258.933 394.804 253.484C397.37 247.739 397.472 241.132 396.239 234.965V234.957Z" fill="#FFBFBF"/>
<path d="M365.016 238.192C367.092 237.838 369.16 237.483 371.237 237.128" stroke="#060305" stroke-linecap="round" stroke-linejoin="round"/>
<path d="M314.439 270.38C318.339 265.97 322.239 261.568 326.147 257.158" stroke="#060305" stroke-linecap="round" stroke-linejoin="round"/>
<path d="M331.928 262.726C330.991 263.722 330.054 264.719 329.117 265.708" stroke="#060305" stroke-linecap="round" stroke-linejoin="round"/>
<path d="M299.238 221.236L315.943 271.208H348.263C349.9 271.208 350.947 273.058 350.019 274.418C348.972 275.947 347.25 276.859 345.41 276.859H231.906C229.584 276.859 227.525 275.372 226.782 273.159L209.419 221.236C208.812 219.42 210.154 217.536 212.061 217.536H294.098C296.419 217.536 298.479 219.023 299.222 221.236H299.238Z" fill="#060305"/>
<path d="M255.877 248.068C255.877 246.083 257.481 244.478 259.447 244.478C261.414 244.478 263.018 246.083 263.018 248.068C263.018 250.053 261.414 251.659 259.447 251.659C257.481 251.659 255.877 250.053 255.877 248.068Z" fill="#008BCE"/>
<path d="M294.115 217.536L314.078 276.868" stroke="white" stroke-linecap="round" stroke-linejoin="round"/>
<path d="M211.166 219.725H251.581" stroke="white" stroke-linecap="round" stroke-linejoin="round"/>
<path d="M319.919 274.047C319.919 273.269 319.286 272.636 318.509 272.636C317.733 272.636 317.1 273.269 317.1 274.047C317.1 274.824 317.733 275.457 318.509 275.457C319.286 275.457 319.919 274.824 319.919 274.047Z" stroke="white" stroke-linecap="round" stroke-linejoin="round"/>
<path d="M323.625 274.046H327.466" stroke="white" stroke-linecap="round" stroke-linejoin="round"/>
<path d="M343.367 167.996C343.426 170.395 344.456 172.769 346.237 174.619C347.199 175.616 348.381 176.47 349.225 177.543C350.069 178.615 350.559 180.035 349.934 181.218" stroke="#060305" stroke-linecap="round" stroke-linejoin="round"/>
<path d="M338.961 160.781C339.273 160.536 339.577 160.3 339.889 160.055" stroke="#060305" stroke-linecap="round" stroke-linejoin="round"/>
<path d="M347.705 177.914C347.047 176.935 346.101 176.157 345.468 175.16C344.244 173.217 344.362 170.75 343.94 168.486C342.97 163.291 338.665 158.881 333.499 157.791C328.333 156.701 322.619 158.991 319.631 163.341C317.985 165.741 317.166 168.588 316.128 171.308C315.09 174.02 313.714 176.766 311.342 178.447L348 181.243C348.684 180.28 348.355 178.903 347.688 177.923L347.705 177.914Z" fill="#060305"/>
<path d="M341.747 184.715C340.303 184.504 338.522 184.386 337.07 184.175C336.969 182.485 336.876 180.812 336.783 179.123C338.59 179.097 340.312 177.822 340.86 176.09C341.409 174.366 340.725 172.322 339.265 171.266C337.796 170.21 335.652 170.21 334.184 171.274C333.88 170.066 333.382 168.63 333.078 167.422C331.829 167.794 330.225 166.729 329.997 165.445C329.744 166.028 328.697 166.239 328.072 166.155C327.448 166.07 326.891 165.707 326.401 165.31C325.911 164.913 325.447 164.465 324.89 164.161C324.038 163.696 322.983 163.629 322.079 163.967C321.176 164.305 320.425 165.057 320.087 165.96C318.931 169.027 317.445 172.085 317.445 175.363C317.445 177.366 318.188 179.165 319.53 180.643C320.872 182.122 322.797 183.06 324.789 183.195C324.797 183.854 324.831 184.225 324.839 184.884C323.734 185.096 322.172 185.29 321.066 185.501C321.911 188.23 323.928 190.105 326.696 190.824C329.465 191.542 332.445 191.035 335.036 189.818C337.627 188.602 339.78 186.777 341.747 184.707V184.715Z" fill="#FFBFBF"/>
<path d="M335.609 174.087C336.293 173.884 336.977 173.69 337.66 173.487" stroke="#060305" stroke-linecap="round" stroke-linejoin="round"/>
<path d="M335.221 179.189C335.761 179.257 336.301 179.333 336.85 179.401" stroke="#060305" stroke-linecap="round" stroke-linejoin="round"/>
<path d="M324.299 183.372C326.147 183.837 328.148 183.642 329.878 182.84" stroke="#060305" stroke-linecap="round" stroke-linejoin="round"/>
<path d="M322.164 163.882C322.713 163.603 323.405 163.798 323.878 164.195C324.35 164.592 324.637 165.158 324.916 165.707" stroke="#060305" stroke-linecap="round" stroke-linejoin="round"/>
<path d="M328.713 173.066C329.179 173.066 329.557 172.687 329.557 172.221C329.557 171.754 329.179 171.376 328.713 171.376C328.247 171.376 327.869 171.754 327.869 172.221C327.869 172.687 328.247 173.066 328.713 173.066Z" fill="#060305"/>
<path d="M320.442 171.57C320.908 171.57 321.286 171.191 321.286 170.725C321.286 170.258 320.908 169.88 320.442 169.88C319.976 169.88 319.598 170.258 319.598 170.725C319.598 171.191 319.976 171.57 320.442 171.57Z" fill="#060305"/>
<path d="M324.131 170.902C323.785 171.756 323.439 172.609 323.084 173.462C323.379 173.53 323.633 173.707 323.928 173.775" stroke="#060305" stroke-linecap="round" stroke-linejoin="round"/>
<path d="M325.211 175.406C325.354 175.803 325.819 176.065 326.232 175.98C326.646 175.896 326.975 175.482 326.958 175.051" stroke="#060305" stroke-linecap="round" stroke-linejoin="round"/>
<path d="M319.623 167.354C320.129 166.881 320.889 166.695 321.556 166.89C322.223 167.084 322.771 167.641 322.949 168.309" stroke="#060305" stroke-linecap="round" stroke-linejoin="round"/>
<path d="M327.076 168.723C327.92 168.79 328.756 168.858 329.6 168.925" stroke="#060305" stroke-linecap="round" stroke-linejoin="round"/>
<path d="M176.262 207.999C173.401 207.999 170.539 207.855 167.686 207.559C166.53 207.441 165.686 206.402 165.804 205.245C165.922 204.087 166.96 203.242 168.117 203.361C202.842 206.926 237.99 186.456 246.465 157.732C246.794 156.617 247.967 155.975 249.081 156.304C250.196 156.634 250.837 157.808 250.508 158.923C246.279 173.251 235.247 186.684 220.248 195.774C207.054 203.766 191.701 207.999 176.254 207.999H176.262Z" fill="#A0D2F4"/>
<path d="M198.994 200.641C199.281 201.95 199.568 203.26 199.855 204.569" stroke="#060305" stroke-linecap="round" stroke-linejoin="round"/>
<path d="M202.547 199.812C202.96 200.843 203.374 201.882 203.796 202.913" stroke="#060305" stroke-linecap="round" stroke-linejoin="round"/>
<path d="M206.641 197.954C206.987 199.196 207.341 200.438 207.687 201.68" stroke="#060305" stroke-linecap="round" stroke-linejoin="round"/>
<path d="M210.439 196.483C210.921 197.446 211.402 198.418 211.891 199.381" stroke="#060305" stroke-linecap="round" stroke-linejoin="round"/>
<path d="M214.643 194.279C215.276 195.445 215.909 196.611 216.542 197.777" stroke="#060305" stroke-linecap="round" stroke-linejoin="round"/>
<path d="M218.23 192.175C218.956 193.298 219.682 194.422 220.408 195.546" stroke="#060305" stroke-linecap="round" stroke-linejoin="round"/>
<path d="M221.783 189.463C222.678 190.637 223.573 191.812 224.467 192.986" stroke="#060305" stroke-linecap="round" stroke-linejoin="round"/>
<path d="M225.455 187.428L227.709 190.545" stroke="#060305" stroke-linecap="round" stroke-linejoin="round"/>
<path d="M241.628 148.313C242.337 144.502 245.46 141.757 249.115 141.343L247.604 149.428L252.525 150.34L254.036 142.255C257.294 143.953 259.218 147.637 258.501 151.447C257.631 156.11 253.149 159.194 248.49 158.332C243.831 157.47 240.758 152.984 241.628 148.313Z" fill="#008BCE"/>
<path d="M251.166 156.017C253.867 155.89 256.315 153.626 256.653 150.939" stroke="#060305" stroke-linecap="round" stroke-linejoin="round"/>
<path d="M135.535 232.583C146.896 235.135 158.283 229.533 162.343 219.387L172.573 193.781L118.602 181.641L116.931 209.173C116.272 220.08 124.173 230.032 135.535 232.583Z" fill="#008BCE"/>
<path d="M119.742 212.553C121.084 220.519 127.449 227.092 134.986 229.981" stroke="white" stroke-linecap="round" stroke-linejoin="round"/>
<path d="M127.363 195.834C127.65 194.558 128.908 193.764 130.183 194.043C131.457 194.322 132.251 195.589 131.964 196.865C131.677 198.14 130.419 198.935 129.144 198.656C127.87 198.377 127.076 197.11 127.363 195.834Z" fill="black"/>
<path d="M127 193.299C127.92 192.362 129.321 191.922 130.613 192.184C131.896 192.446 133.027 193.392 133.508 194.617" stroke="#060305" stroke-linecap="round" stroke-linejoin="round"/>
<path d="M135.652 197.692C135.939 196.417 137.197 195.623 138.472 195.901C139.738 196.189 140.54 197.447 140.253 198.723C139.966 199.999 138.708 200.793 137.433 200.514C136.159 200.235 135.365 198.968 135.652 197.692Z" fill="white"/>
<path d="M135.771 194.837C136.793 194.094 138.211 193.933 139.376 194.432C140.541 194.93 141.402 196.062 141.57 197.312" stroke="#060305" stroke-linecap="round" stroke-linejoin="round"/>
<path d="M117.953 194.372C117.641 194.372 117.329 194.305 117.025 194.153C95.2644 183.474 89.5162 164.238 89.2798 163.427C88.9591 162.303 89.6006 161.137 90.7232 160.816C91.8374 160.495 93.0107 161.137 93.3314 162.261C93.3821 162.447 98.8602 180.551 118.873 190.368C119.92 190.883 120.351 192.142 119.836 193.19C119.473 193.933 118.722 194.372 117.937 194.372H117.953Z" fill="#A0D2F4"/>
<path d="M96.4883 177.256C97.8641 176.36 99.2484 175.465 100.624 174.569" stroke="#060305" stroke-linecap="round" stroke-linejoin="round"/>
<path d="M98.1602 179.554C99.4685 178.591 100.777 177.619 102.085 176.656" stroke="#060305" stroke-linecap="round" stroke-linejoin="round"/>
<path d="M99.3496 181.556C100.523 180.593 101.696 179.63 102.869 178.667" stroke="#060305" stroke-linecap="round" stroke-linejoin="round"/>
<path d="M101.225 183.237C102.187 182.063 103.158 180.889 104.12 179.723" stroke="#060305" stroke-linecap="round" stroke-linejoin="round"/>
<path d="M105.369 180.763L103.301 184.074" stroke="#060305" stroke-linecap="round" stroke-linejoin="round"/>
<path d="M106.811 182.418C105.849 183.592 104.878 184.767 103.916 185.941" stroke="#060305" stroke-linecap="round" stroke-linejoin="round"/>
<path d="M79.657 159.456C77.7916 156.06 78.4584 151.954 81.016 149.318L84.9747 156.524L89.3555 154.108L85.3968 146.902C88.9926 146.141 92.8163 147.772 94.6817 151.168C96.9692 155.325 95.4583 160.554 91.3054 162.843C87.1525 165.133 81.936 163.621 79.6485 159.464L79.657 159.456Z" fill="#008BCE"/>
<path d="M81.9531 159.912C84.8146 161.982 89.1447 161.661 91.677 159.194" stroke="#060305" stroke-linecap="round" stroke-linejoin="round"/>
<path d="M205.788 120.349C204.269 122.385 202.758 124.429 201.238 126.465" stroke="white" stroke-linecap="round" stroke-linejoin="round"/>
<path d="M204.716 119.183C204.514 117.975 205.333 116.834 206.54 116.631C207.747 116.429 208.886 117.248 209.089 118.456C209.291 119.664 208.473 120.813 207.265 121.008C206.058 121.21 204.919 120.391 204.716 119.183Z" fill="#008BCE"/>
<path d="M188.071 133.341C187.336 128.948 190.299 124.792 194.688 124.057C199.078 123.322 203.222 126.296 203.956 130.689C204.691 135.082 201.728 139.238 197.339 139.973C192.95 140.708 188.805 137.735 188.071 133.341Z" fill="#008BCE"/>
<path d="M161.517 117.316C186.443 113.16 210.938 135.547 216.23 167.321L125.981 182.384C120.688 150.61 136.599 121.473 161.517 117.316Z" fill="#A0D2F4"/>
<path d="M168.473 136.966C168.009 134.186 169.883 131.568 172.651 131.103C175.42 130.638 178.045 132.514 178.501 135.293C178.965 138.073 177.091 140.692 174.322 141.156C171.554 141.621 168.929 139.745 168.473 136.966Z" fill="#008BCE"/>
<path d="M166.953 132.928C167.687 130.85 169.553 129.211 171.714 128.755C173.875 128.307 176.238 129.059 177.741 130.672" stroke="#060305" stroke-linecap="round" stroke-linejoin="round"/>
<path d="M156.055 148.862C160.258 152.807 166.066 154.978 171.822 154.759C177.579 154.539 183.209 151.937 187.109 147.688" stroke="white" stroke-width="2" stroke-linecap="round" stroke-linejoin="round"/>
<path d="M143.217 131.289C147.8 124.775 155.346 120.433 163.272 119.74" stroke="white" stroke-linecap="round" stroke-linejoin="round"/>
<path d="M128.446 148.575C127.045 147.384 126.041 145.711 125.711 143.751C124.977 139.358 127.94 135.201 132.329 134.466C133.409 134.289 134.473 134.331 135.469 134.559C135.469 134.559 137.824 143.776 128.446 148.566V148.575Z" fill="#008BCE"/>
<path d="M120.029 134.863C122.351 136.147 124.663 137.423 126.985 138.707" stroke="white" stroke-linecap="round" stroke-linejoin="round"/>
<path d="M116.501 134.559C116.299 133.351 117.118 132.21 118.325 132.007C119.532 131.805 120.671 132.624 120.874 133.832C121.076 135.04 120.258 136.189 119.051 136.384C117.844 136.578 116.704 135.767 116.501 134.559Z" fill="#008BCE"/>
</g>
</g>
<defs>
<clipPath id="clip0_2415_16726">
<rect width="427" height="425" fill="white"/>
</clipPath>
<clipPath id="clip1_2415_16726">
<rect width="367" height="380" fill="white" transform="translate(30 23)"/>
</clipPath>
</defs>
</svg>
