<svg width="427" height="425" viewBox="0 0 427 425" fill="none" xmlns="http://www.w3.org/2000/svg">
<g clip-path="url(#clip0_2451_9992)">
<path d="M400.041 382.57C388.531 392.16 338.441 398.94 278.761 401.49C187.021 405.42 72.6009 399.37 40.7909 378.2C25.7309 368.19 15.5509 337.25 9.1009 297.66C-6.9291 199.16 0.220901 47.1301 13.1609 30.6501C31.3109 7.56009 323.301 -15.3099 399.911 13.9301C432.741 26.4601 429.231 358.23 400.031 382.57H400.041Z" fill="white"/>
<path d="M373.314 247.44L375.204 241.883L377.358 247.44C377.358 247.44 381.657 248.14 381.712 248.531C381.757 248.913 377.595 250.095 377.595 250.095C377.595 250.095 375.85 255.488 375.204 254.27C374.568 253.051 373.95 250.35 373.95 250.35C373.95 250.35 368.533 249.268 368.533 248.731C368.533 248.158 373.314 247.449 373.314 247.449V247.44Z" fill="white"/>
<path d="M304.094 233.142L305.566 228.822L307.238 233.142C307.238 233.142 310.574 233.688 310.619 233.988C310.656 234.279 307.429 235.198 307.429 235.198C307.429 235.198 306.075 239.381 305.575 238.435C305.075 237.49 304.594 235.389 304.594 235.389C304.594 235.389 300.395 234.543 300.395 234.134C300.395 233.688 304.103 233.142 304.103 233.142H304.094Z" fill="white"/>
<g clip-path="url(#clip1_2451_9992)">
<path d="M147.084 224.081C147.084 227.779 150.073 230.777 153.759 230.777H350.143C353.829 230.777 356.818 227.779 356.818 224.081V221.627L351.875 219.049H148.704L147.085 221.627V224.081H147.084Z" fill="white"/>
<path d="M350.145 231.091H153.761C149.906 231.091 146.77 227.946 146.77 224.08C146.77 223.905 146.911 223.764 147.086 223.764C147.261 223.764 147.403 223.905 147.403 224.08C147.403 227.598 150.255 230.46 153.761 230.46H350.145C353.651 230.46 356.504 227.598 356.504 224.08C356.504 223.905 356.646 223.764 356.82 223.764C356.995 223.764 357.137 223.905 357.137 224.08C357.137 227.946 354.001 231.091 350.145 231.091Z" fill="black"/>
<path d="M213.669 230.777H290.236V245.14C290.236 248.432 287.561 251.105 284.268 251.105H219.637C216.343 251.105 213.668 248.432 213.668 245.14V230.777H213.669Z" fill="white"/>
<path d="M284.268 251.42H219.638C216.172 251.42 213.354 248.602 213.354 245.14V230.777C213.354 230.603 213.495 230.461 213.67 230.461H290.237C290.412 230.461 290.554 230.603 290.554 230.777V245.14C290.554 248.603 287.734 251.42 284.268 251.42ZM213.985 231.092V245.139C213.985 248.253 216.521 250.787 219.638 250.787H284.268C287.385 250.787 289.92 248.253 289.92 245.139V231.092H213.985Z" fill="black"/>
<path d="M287.383 235.865H216.522C216.347 235.865 216.205 235.723 216.205 235.549C216.205 235.374 216.347 235.232 216.522 235.232H287.383C287.558 235.232 287.7 235.374 287.7 235.549C287.7 235.723 287.558 235.865 287.383 235.865Z" fill="black"/>
<path d="M154.127 96.1543H349.778C353.665 96.1543 356.82 99.3069 356.82 103.191V221.627H147.084V103.191C147.084 99.3069 150.239 96.1543 154.126 96.1543H154.127Z" fill="white"/>
<path d="M356.82 221.943H147.086C146.911 221.943 146.77 221.801 146.77 221.627V103.191C146.77 99.1365 150.071 95.8379 154.128 95.8379H349.778C353.836 95.8379 357.137 99.1365 357.137 103.191V221.627C357.137 221.801 356.995 221.943 356.82 221.943ZM147.401 221.312H356.504V103.191C356.504 99.4844 353.486 96.4693 349.777 96.4693H154.128C150.419 96.4693 147.401 99.4844 147.401 103.191V221.31V221.312Z" fill="black"/>
<path d="M349.656 148.981C349.482 148.981 349.34 148.84 349.34 148.665V122.074C349.34 121.9 349.482 121.758 349.656 121.758C349.831 121.758 349.973 121.9 349.973 122.074V148.665C349.973 148.84 349.831 148.981 349.656 148.981Z" fill="black"/>
<path d="M338.096 103.654H289.549C289.374 103.654 289.232 103.513 289.232 103.338C289.232 103.163 289.374 103.021 289.549 103.021H338.096C338.271 103.021 338.413 103.163 338.413 103.338C338.413 103.513 338.271 103.654 338.096 103.654Z" fill="black"/>
<path d="M276.641 214.757H154.248C154.073 214.757 153.932 214.615 153.932 214.441V176.873C153.932 176.698 154.073 176.557 154.248 176.557C154.423 176.557 154.565 176.698 154.565 176.873V214.124H276.641C276.816 214.124 276.958 214.266 276.958 214.441C276.958 214.615 276.816 214.757 276.641 214.757Z" fill="black"/>
<path d="M255.147 182.281H182.154V205.864H255.147V182.281Z" fill="#A0D2F4"/>
<path d="M223.798 199.318C223.718 199.318 223.636 199.286 223.575 199.225C223.452 199.102 223.452 198.901 223.575 198.778L228.286 194.071L223.575 189.363C223.452 189.24 223.452 189.04 223.575 188.917C223.698 188.793 223.899 188.793 224.022 188.917L228.956 193.847C229.079 193.97 229.079 194.171 228.956 194.294L224.022 199.225C223.96 199.286 223.879 199.318 223.798 199.318Z" fill="black"/>
<path d="M213.501 199.318C213.421 199.318 213.339 199.286 213.277 199.225L208.343 194.294C208.284 194.235 208.25 194.155 208.25 194.071C208.25 193.986 208.283 193.906 208.343 193.847L213.277 188.917C213.401 188.793 213.601 188.793 213.725 188.917C213.848 189.04 213.848 189.24 213.725 189.363L209.014 194.071L213.725 198.778C213.848 198.901 213.848 199.102 213.725 199.225C213.663 199.286 213.581 199.318 213.501 199.318Z" fill="black"/>
<path d="M216.022 199.438C215.973 199.438 215.924 199.427 215.878 199.404C215.722 199.325 215.661 199.135 215.739 198.979L220.883 188.878C220.962 188.723 221.152 188.66 221.308 188.739C221.465 188.818 221.526 189.008 221.447 189.164L216.304 199.265C216.248 199.374 216.136 199.438 216.022 199.438Z" fill="black"/>
<path d="M276.641 199.608C279.688 199.608 282.158 197.131 282.158 194.075C282.158 191.018 279.688 188.541 276.641 188.541C273.593 188.541 271.123 191.018 271.123 194.075C271.123 197.131 273.593 199.608 276.641 199.608Z" fill="#E2EAFF"/>
<path d="M292.74 199.608C295.787 199.608 298.258 197.131 298.258 194.075C298.258 191.018 295.787 188.541 292.74 188.541C289.693 188.541 287.223 191.018 287.223 194.075C287.223 197.131 289.693 199.608 292.74 199.608Z" fill="#E2EAFF"/>
<path d="M308.842 199.608C311.889 199.608 314.359 197.131 314.359 194.075C314.359 191.018 311.889 188.541 308.842 188.541C305.794 188.541 303.324 191.018 303.324 194.075C303.324 197.131 305.794 199.608 308.842 199.608Z" fill="#E2EAFF"/>
<path d="M270.019 36H137.664C131.315 36 126.168 41.1433 126.168 47.4879V115.568C126.168 121.912 131.315 127.056 137.664 127.056H270.019C276.368 127.056 281.515 121.912 281.515 115.568V47.4879C281.515 41.1433 276.368 36 270.019 36Z" fill="#008BCE"/>
<path d="M146.725 55.3422H171.863C173.153 55.3422 174.197 54.2985 174.197 53.01C174.197 51.7214 173.153 50.6777 171.863 50.6777H146.725C145.435 50.6777 144.391 51.7214 144.391 53.01C144.391 54.2985 145.435 55.3422 146.725 55.3422Z" fill="white"/>
<path d="M153.131 65.2934H165.911C167.2 65.2934 168.245 64.2497 168.245 62.9611C168.245 61.6726 167.2 60.6289 165.911 60.6289H153.131C151.841 60.6289 150.797 61.6726 150.797 62.9611C150.797 64.2497 151.841 65.2934 153.131 65.2934Z" fill="white"/>
<path d="M146.725 75.2445H165.91C167.2 75.2445 168.244 74.2008 168.244 72.9123C168.244 71.6238 167.2 70.5801 165.91 70.5801H146.725C145.435 70.5801 144.391 71.6238 144.391 72.9123C144.391 74.2008 145.435 75.2445 146.725 75.2445Z" fill="white"/>
<path d="M153.988 85.1938H165.911C167.201 85.1938 168.245 84.1501 168.245 82.8615C168.245 81.573 167.201 80.5293 165.911 80.5293H153.988C152.699 80.5293 151.654 81.573 151.654 82.8615C151.654 84.1501 152.699 85.1938 153.988 85.1938Z" fill="white"/>
<path d="M151.574 101.116H165.912C167.201 101.116 168.246 100.072 168.246 98.7834C168.246 97.4949 167.201 96.4512 165.912 96.4512H151.574C150.285 96.4512 149.24 97.4949 149.24 98.7834C149.24 100.072 150.285 101.116 151.574 101.116Z" fill="white"/>
<path d="M151.574 111.069H165.912C167.201 111.069 168.246 110.025 168.246 108.737C168.246 107.448 167.201 106.404 165.912 106.404H151.574C150.285 106.404 149.24 107.448 149.24 108.737C149.24 110.025 150.285 111.069 151.574 111.069Z" fill="white"/>
<path d="M180.455 55.3422H199.641C200.93 55.3422 201.975 54.2985 201.975 53.01C201.975 51.7214 200.93 50.6777 199.641 50.6777H180.455C179.166 50.6777 178.121 51.7214 178.121 53.01C178.121 54.2985 179.166 55.3422 180.455 55.3422Z" fill="#E2EAFF"/>
<path d="M174.504 65.2934H193.69C194.979 65.2934 196.024 64.2497 196.024 62.9611C196.024 61.6726 194.979 60.6289 193.69 60.6289H174.504C173.214 60.6289 172.17 61.6726 172.17 62.9611C172.17 64.2497 173.214 65.2934 174.504 65.2934Z" fill="#E2EAFF"/>
<path d="M174.504 75.2445H221.468C222.757 75.2445 223.801 74.2008 223.801 72.9123C223.801 71.6238 222.757 70.5801 221.468 70.5801H174.504C173.214 70.5801 172.17 71.6238 172.17 72.9123C172.17 74.2008 173.214 75.2445 174.504 75.2445Z" fill="#E2EAFF"/>
<path d="M174.504 85.1938H193.69C194.979 85.1938 196.024 84.1501 196.024 82.8615C196.024 81.573 194.979 80.5293 193.69 80.5293H174.504C173.214 80.5293 172.17 81.573 172.17 82.8615C172.17 84.1501 173.214 85.1938 174.504 85.1938Z" fill="#E2EAFF"/>
<path d="M174.504 101.116H185.752C187.042 101.116 188.086 100.072 188.086 98.7834C188.086 97.4949 187.042 96.4512 185.752 96.4512H174.504C173.214 96.4512 172.17 97.4949 172.17 98.7834C172.17 100.072 173.214 101.116 174.504 101.116Z" fill="#E2EAFF"/>
<path d="M174.504 111.069H193.69C194.979 111.069 196.024 110.025 196.024 108.737C196.024 107.448 194.979 106.404 193.69 106.404H174.504C173.214 106.404 172.17 107.448 172.17 108.737C172.17 110.025 173.214 111.069 174.504 111.069Z" fill="#E2EAFF"/>
<path d="M208.234 55.3422H227.42C228.71 55.3422 229.754 54.2985 229.754 53.01C229.754 51.7214 228.71 50.6777 227.42 50.6777H208.234C206.945 50.6777 205.9 51.7214 205.9 53.01C205.9 54.2985 206.945 55.3422 208.234 55.3422Z" fill="white"/>
<path d="M202.283 65.2934H214.59C215.88 65.2934 216.924 64.2497 216.924 62.9611C216.924 61.6726 215.88 60.6289 214.59 60.6289H202.283C200.994 60.6289 199.949 61.6726 199.949 62.9611C199.949 64.2497 200.994 65.2934 202.283 65.2934Z" fill="white"/>
<path d="M230.062 75.2445H256.336C257.625 75.2445 258.67 74.2008 258.67 72.9123C258.67 71.6238 257.625 70.5801 256.336 70.5801H230.062C228.773 70.5801 227.729 71.6238 227.729 72.9123C227.729 74.2008 228.773 75.2445 230.062 75.2445Z" fill="white"/>
<path d="M202.283 85.1938H229.749C231.038 85.1938 232.083 84.1501 232.083 82.8615C232.083 81.573 231.038 80.5293 229.749 80.5293H202.283C200.994 80.5293 199.949 81.573 199.949 82.8615C199.949 84.1501 200.994 85.1938 202.283 85.1938Z" fill="white"/>
<path d="M194.346 101.116H221.467C222.757 101.116 223.801 100.072 223.801 98.7834C223.801 97.4949 222.757 96.4512 221.467 96.4512H194.346C193.056 96.4512 192.012 97.4949 192.012 98.7834C192.012 100.072 193.056 101.116 194.346 101.116Z" fill="white"/>
<path d="M202.283 111.069H243.295C244.585 111.069 245.629 110.025 245.629 108.737C245.629 107.448 244.585 106.404 243.295 106.404H202.283C200.994 106.404 199.949 107.448 199.949 108.737C199.949 110.025 200.994 111.069 202.283 111.069Z" fill="white"/>
<path d="M249.019 47.349C250.769 47.2157 252.079 45.69 251.946 43.9413C251.813 42.1926 250.286 40.8831 248.536 41.0164C246.786 41.1497 245.475 42.6754 245.609 44.4241C245.742 46.1728 247.269 47.4823 249.019 47.349Z" fill="white"/>
<path d="M260.375 46.3225C261.57 45.038 261.497 43.0287 260.211 41.8346C258.926 40.6406 256.915 40.7139 255.72 41.9984C254.525 43.2829 254.599 45.2922 255.884 46.4863C257.17 47.6803 259.18 47.607 260.375 46.3225Z" fill="white"/>
<path d="M268.525 47.1128C270.151 46.4515 270.932 44.5987 270.27 42.9743C269.609 41.35 267.754 40.5692 266.129 41.2305C264.503 41.8917 263.722 43.7445 264.384 45.3689C265.045 46.9932 266.9 47.774 268.525 47.1128Z" fill="#E2EAFF"/>
<path d="M407.522 340.495C407.374 340.495 407.242 340.392 407.212 340.242L383.936 224.804C383.902 224.634 384.012 224.466 384.184 224.432C384.354 224.398 384.522 224.508 384.556 224.68L407.833 340.117C407.867 340.288 407.757 340.455 407.585 340.489C407.563 340.494 407.543 340.495 407.522 340.495Z" fill="black"/>
<path d="M407.746 342.68C409.108 342.545 410.103 341.333 409.968 339.971C409.833 338.61 408.62 337.616 407.258 337.75C405.895 337.885 404.9 339.098 405.035 340.459C405.17 341.82 406.383 342.815 407.746 342.68Z" fill="black"/>
<path d="M348.518 340.495C348.498 340.495 348.477 340.494 348.455 340.489C348.283 340.455 348.173 340.289 348.207 340.117L371.484 224.68C371.518 224.509 371.684 224.398 371.856 224.432C372.028 224.466 372.138 224.632 372.104 224.804L348.828 340.242C348.798 340.392 348.666 340.495 348.518 340.495Z" fill="black"/>
<path d="M346.039 340.178C346.039 341.545 347.148 342.655 348.518 342.655C349.887 342.655 350.996 341.547 350.996 340.178C350.996 338.809 349.887 337.701 348.518 337.701C347.148 337.701 346.039 338.809 346.039 340.178Z" fill="black"/>
<path d="M398.975 303.654H374.383C374.208 303.654 374.066 303.513 374.066 303.338C374.066 303.163 374.208 303.021 374.383 303.021H398.975C399.149 303.021 399.291 303.163 399.291 303.338C399.291 303.513 399.149 303.654 398.975 303.654Z" fill="black"/>
<path d="M396.888 309.016H374.092C373.917 309.016 373.775 308.874 373.775 308.699C373.775 308.525 373.917 308.383 374.092 308.383H396.888C397.063 308.383 397.205 308.525 397.205 308.699C397.205 308.874 397.063 309.016 396.888 309.016Z" fill="black"/>
<path d="M384.056 240.072L323.643 339.667C322.518 341.521 320.505 342.655 318.335 342.655H284.495C283.412 342.655 282.985 341.252 283.884 340.649L297.179 331.744C297.179 331.744 339.857 261.07 354.488 231.744L384.054 240.074L384.056 240.072Z" fill="#202020"/>
<path d="M318.335 342.97H284.495C283.859 342.97 283.329 342.577 283.144 341.969C282.959 341.362 283.182 340.74 283.709 340.385L296.946 331.519C298.403 329.102 339.931 260.215 354.207 231.601C354.274 231.465 354.427 231.396 354.575 231.438L384.141 239.767C384.235 239.795 384.313 239.863 384.349 239.955C384.384 240.047 384.376 240.15 384.324 240.234L323.911 339.828C322.737 341.764 320.599 342.968 318.334 342.968L318.335 342.97ZM354.655 232.119C340.076 261.264 297.876 331.203 297.45 331.907C297.426 331.947 297.394 331.98 297.356 332.006L284.061 340.911C283.707 341.149 283.669 341.518 283.749 341.786C283.831 342.053 284.07 342.338 284.495 342.338H318.335C320.381 342.338 322.312 341.252 323.373 339.504L383.571 240.264L354.655 232.119Z" fill="black"/>
<path d="M323.02 337.083C323.003 337.083 322.986 337.083 322.969 337.079L298.566 333.026C298.394 332.997 298.278 332.834 298.307 332.662C298.336 332.49 298.499 332.373 298.671 332.403L323.073 336.456C323.245 336.485 323.361 336.648 323.333 336.82C323.307 336.975 323.174 337.083 323.022 337.083H323.02Z" fill="black"/>
<path d="M323.452 259.112C336.265 245.789 354.852 227.013 358.141 223.693C362.656 226.189 385.842 236.967 385.842 236.967L346.31 273.879L370.046 304.883C371.656 306.986 371.464 309.956 369.595 311.834L351.372 330.15C350.277 331.249 348.403 330.43 348.466 328.881L349.002 315.88C344.262 311.602 331.088 294.496 322.046 282.502C316.705 275.416 317.3 265.507 323.45 259.111L323.452 259.112Z" fill="#202020"/>
<path d="M350.182 330.974C349.906 330.974 349.629 330.916 349.359 330.799C348.58 330.458 348.117 329.72 348.151 328.869L348.68 316.015C343.941 311.663 331.466 295.522 321.795 282.693C316.332 275.445 316.932 265.435 323.223 258.894C335.926 245.685 354.351 227.07 357.915 223.472C358.016 223.372 358.169 223.35 358.294 223.418C362.747 225.879 385.742 236.574 385.974 236.681C386.07 236.725 386.136 236.814 386.153 236.917C386.171 237.02 386.133 237.126 386.057 237.198L346.734 273.914L370.297 304.691C371.995 306.91 371.79 310.075 369.82 312.057L351.597 330.372C351.205 330.768 350.702 330.974 350.183 330.974H350.182ZM323.679 259.332C317.604 265.65 317.024 275.314 322.299 282.313C332.029 295.22 344.597 311.48 349.213 315.647C349.283 315.71 349.32 315.801 349.318 315.895L348.782 328.896C348.753 329.594 349.192 330.037 349.611 330.221C350.033 330.404 350.656 330.424 351.147 329.929L369.37 311.613C371.12 309.855 371.302 307.044 369.794 305.076L346.058 274.071C345.959 273.942 345.975 273.759 346.094 273.649L385.284 237.056C382.157 235.6 362.758 226.552 358.199 224.085C354.259 228.061 336.192 246.321 323.68 259.33L323.679 259.332Z" fill="black"/>
<path d="M351.006 315.837C350.876 315.837 350.754 315.755 350.708 315.626C350.649 315.462 350.735 315.281 350.9 315.223C357.453 312.906 362.952 307.991 365.982 301.74C366.058 301.583 366.249 301.518 366.405 301.594C366.563 301.67 366.629 301.859 366.553 302.017C363.449 308.416 357.821 313.447 351.112 315.82C351.078 315.832 351.042 315.838 351.007 315.838L351.006 315.837Z" fill="black"/>
<path d="M351.198 197.023C351.137 201.968 352.311 206.825 353.533 211.594C354.756 216.365 356.047 221.171 356.231 226.112C362.245 228.371 368.261 230.63 374.276 232.888C374.348 223.744 373.318 214.531 370.548 205.876C368.856 200.588 366.503 195.522 363.466 190.962C362.088 188.894 360.353 185.901 358.295 184.545C355.848 182.933 354.169 185.598 353.176 187.718C351.832 190.587 351.236 193.829 351.198 197.021V197.023Z" fill="white"/>
<path d="M374.276 233.204C374.239 233.204 374.201 233.196 374.164 233.183L356.119 226.407C356 226.363 355.918 226.251 355.914 226.124C355.739 221.454 354.551 216.831 353.401 212.358L353.225 211.672C351.907 206.531 350.819 201.879 350.879 197.017C350.921 193.563 351.616 190.301 352.888 187.584C353.917 185.388 354.99 184.158 356.169 183.826C356.915 183.615 357.691 183.769 358.469 184.281C360.275 185.472 361.837 187.879 363.092 189.813C363.313 190.152 363.525 190.48 363.728 190.787C366.694 195.239 369.089 200.283 370.847 205.779C373.411 213.787 374.669 222.908 374.591 232.89C374.591 232.993 374.54 233.089 374.454 233.148C374.401 233.185 374.338 233.204 374.274 233.204H374.276ZM356.539 225.889L373.964 232.432C374.001 222.693 372.75 213.793 370.247 205.971C368.506 200.532 366.137 195.541 363.204 191.136C362.997 190.827 362.784 190.498 362.563 190.157C361.34 188.271 359.818 185.926 358.122 184.808C357.494 184.394 356.913 184.273 356.342 184.433C355.351 184.712 354.408 185.83 353.463 187.85C352.229 190.486 351.556 193.659 351.514 197.023C351.455 201.808 352.533 206.417 353.841 211.513L354.017 212.199C355.157 216.636 356.337 221.222 356.54 225.888L356.539 225.889Z" fill="black"/>
<path d="M363.215 179.787C363.215 179.787 356.861 182.457 355.43 187.648C353.998 192.839 374.28 269.374 374.28 269.374L397.181 250.358C401.562 246.72 403 240.621 400.704 235.412L378.768 185.627C378.768 185.627 369.188 177.649 363.215 179.788V179.787Z" fill="#008BCE"/>
<path d="M318.785 206.091C327.394 206.401 336.521 206.599 337.735 205.787C340.058 204.235 347.574 198.931 350.993 191.396C354.411 183.862 363.215 179.789 363.215 179.789L373.382 199.327C373.382 199.327 350.749 220.844 337.735 220.575C331.469 220.445 324.706 219.858 319.214 219.247C320.143 214.916 319.987 210.354 318.783 206.091H318.785Z" fill="#008BCE"/>
<path d="M293.277 212.803C293.519 211.894 294.098 211.117 294.664 210.365C296.276 208.222 298.054 205.96 300.611 205.151C302.281 204.623 304.079 204.789 305.821 204.959C307.897 205.162 316.976 206.189 318.783 206.379C320.353 206.545 321.124 214.772 320.266 217.794C320.121 218.304 319.933 218.831 319.534 219.182C318.811 219.813 317.707 219.637 316.786 219.366C313.413 218.374 310.274 216.595 307.692 214.208C307.062 213.625 306.378 212.967 305.52 212.929C304.417 212.881 303.579 213.856 302.875 214.705C302.258 215.449 301.576 216.188 300.683 216.56C299.79 216.932 298.633 216.836 298.014 216.093C297.689 215.704 297.62 215.138 297.76 214.659C297.392 214.998 296.995 215.303 296.545 215.519C295.719 215.917 294.654 215.962 293.939 215.388C293.206 214.798 293.032 213.713 293.274 212.803H293.277Z" fill="white"/>
<path d="M316.79 219.366C313.417 218.374 310.278 216.595 307.696 214.208C307.066 213.625 306.382 212.967 305.524 212.929C304.421 212.881 303.583 213.856 302.879 214.705C302.262 215.449 301.58 216.188 300.687 216.56C299.794 216.932 298.637 216.836 298.018 216.093C297.693 215.704 297.624 215.138 297.764 214.659C297.396 214.998 296.999 215.303 296.549 215.519C295.723 215.917 294.658 215.962 293.943 215.388C293.21 214.798 293.036 213.713 293.278 212.803C293.52 211.894 294.099 211.117 294.665 210.365C296.277 208.222 298.055 205.96 300.612 205.151C302.282 204.623 304.08 204.789 305.822 204.959C307.898 205.162 316.977 206.189 318.784 206.379L316.788 219.366H316.79Z" fill="white"/>
<path d="M316.787 219.682C316.759 219.682 316.727 219.678 316.698 219.669C313.283 218.664 310.095 216.856 307.48 214.439L307.417 214.382C306.83 213.838 306.222 213.276 305.507 213.245C304.613 213.205 303.893 213.974 303.119 214.907C302.519 215.633 301.795 216.441 300.805 216.853C299.887 217.235 298.546 217.225 297.772 216.297C297.56 216.044 297.43 215.722 297.389 215.38C297.153 215.551 296.921 215.692 296.683 215.806C295.646 216.305 294.491 216.237 293.742 215.636C292.861 214.929 292.72 213.664 292.969 212.724C293.23 211.743 293.856 210.911 294.408 210.177C296.243 207.739 297.968 205.656 300.513 204.851C302.269 204.295 304.172 204.482 305.85 204.646C307.138 204.772 311.152 205.219 314.379 205.578C316.386 205.802 318.127 205.995 318.815 206.068C318.988 206.087 319.114 206.241 319.095 206.416C319.077 206.589 318.921 206.714 318.749 206.696C318.06 206.623 316.317 206.43 314.309 206.207C311.085 205.847 307.072 205.402 305.788 205.276C304.171 205.117 302.338 204.938 300.705 205.455C298.339 206.204 296.683 208.21 294.915 210.559C294.372 211.281 293.812 212.027 293.583 212.889C293.385 213.632 293.479 214.617 294.139 215.145C294.776 215.656 295.739 215.56 296.409 215.238C296.782 215.059 297.143 214.803 297.547 214.43C297.652 214.335 297.808 214.319 297.928 214.395C298.048 214.469 298.104 214.615 298.064 214.753C297.944 215.162 298.02 215.612 298.256 215.895C298.799 216.546 299.828 216.578 300.562 216.273C301.418 215.917 302.079 215.175 302.632 214.508C303.312 213.686 304.238 212.564 305.535 212.618C306.48 212.659 307.207 213.331 307.846 213.922L307.907 213.979C310.45 216.33 313.551 218.09 316.875 219.068C317.042 219.116 317.138 219.292 317.088 219.46C317.048 219.597 316.922 219.686 316.784 219.686L316.787 219.682Z" fill="black"/>
<path d="M298.16 214.353C298.107 214.353 298.052 214.341 298.003 214.312C297.852 214.226 297.798 214.033 297.886 213.881C298.976 211.975 300.333 209.603 302.499 208.29C303.097 207.928 304.638 207.161 306.021 207.866C306.177 207.945 306.237 208.136 306.159 208.292C306.08 208.448 305.889 208.508 305.733 208.429C304.971 208.04 303.885 208.19 302.827 208.83C300.8 210.058 299.544 212.256 298.435 214.194C298.376 214.296 298.27 214.353 298.16 214.353Z" fill="black"/>
<path d="M382.529 183.362C383.912 184.768 385.135 186.427 385.541 188.356C385.946 190.284 385.366 192.515 383.744 193.637C382.568 194.451 381.025 194.581 379.621 194.307C378.216 194.034 376.914 193.397 375.626 192.775C372.225 191.132 368.773 189.534 365.115 188.588C361.458 187.641 357.553 187.369 353.914 188.384C353.33 188.548 352.705 188.744 352.131 188.551C351.441 188.319 351.032 187.564 351.007 186.838C350.983 186.112 351.271 185.412 351.605 184.768C356.005 176.294 367.968 175.254 375.864 178.774C378.341 179.877 380.623 181.428 382.526 183.362H382.529Z" fill="white"/>
<path d="M380.949 194.756C380.502 194.756 380.038 194.71 379.564 194.618C378.144 194.342 376.83 193.706 375.559 193.092L375.493 193.061C372.063 191.403 368.682 189.837 365.042 188.895C360.99 187.845 357.276 187.776 354.005 188.69L353.911 188.717C353.33 188.88 352.671 189.066 352.035 188.852C351.279 188.597 350.728 187.775 350.697 186.85C350.668 186.013 351.021 185.219 351.33 184.624C355.651 176.301 367.573 174.731 375.999 178.486C378.572 179.633 380.847 181.199 382.757 183.142C384.481 184.894 385.492 186.578 385.853 188.293C386.322 190.525 385.548 192.777 383.928 193.9C383.11 194.465 382.082 194.757 380.951 194.757L380.949 194.756ZM358.846 187.42C360.858 187.42 362.98 187.708 365.199 188.282C368.896 189.24 372.307 190.819 375.767 192.491L375.833 192.522C377.068 193.119 378.344 193.736 379.684 193.997C380.555 194.166 382.217 194.312 383.567 193.377C384.959 192.414 385.644 190.375 385.233 188.421C384.898 186.829 383.941 185.247 382.305 183.583C380.449 181.697 378.24 180.175 375.74 179.06C367.577 175.422 356.047 176.906 351.889 184.912C351.598 185.473 351.303 186.138 351.326 186.826C351.345 187.371 351.637 188.048 352.234 188.25C352.687 188.402 353.221 188.25 353.737 188.107L353.833 188.08C355.411 187.639 357.086 187.418 358.846 187.418V187.42Z" fill="black"/>
<path d="M356.013 167.426L363.213 179.787C359.986 181.239 357.374 182.857 355.936 184.795L349.877 173.687C350.016 172.901 352.741 163.576 356.015 167.426H356.013Z" fill="white"/>
<path d="M355.934 185.112C355.927 185.112 355.92 185.112 355.913 185.112C355.805 185.104 355.709 185.043 355.658 184.947L349.599 173.838C349.564 173.775 349.553 173.702 349.566 173.632C349.683 172.968 351.417 166.926 353.923 166.248C354.734 166.028 355.517 166.356 356.254 167.222C356.267 167.237 356.277 167.253 356.287 167.268L363.486 179.63C363.531 179.707 363.542 179.8 363.513 179.884C363.486 179.969 363.425 180.039 363.341 180.076C359.797 181.671 357.457 183.276 356.188 184.984C356.128 185.064 356.034 185.112 355.934 185.112ZM350.208 173.636L355.983 184.225C357.323 182.625 359.549 181.121 362.763 179.645L355.754 167.61C355.188 166.953 354.643 166.707 354.087 166.857C352.115 167.391 350.461 172.478 350.208 173.636Z" fill="black"/>
<path d="M355.194 185.973C355.126 185.973 355.058 185.951 355 185.906C354.863 185.798 354.838 185.599 354.946 185.462C359.029 180.24 365.197 178.739 365.457 178.677C365.626 178.635 365.796 178.741 365.836 178.912C365.876 179.082 365.772 179.251 365.601 179.291C365.54 179.305 359.385 180.809 355.443 185.85C355.38 185.93 355.288 185.971 355.194 185.971V185.973Z" fill="black"/>
<path d="M340.914 157.633C342.306 154.235 346.326 152.147 349.909 152.961C355.213 154.167 358.167 160.465 363.47 161.679C363.189 162.438 362.477 163.019 361.678 163.145C363.07 163.865 363.742 165.645 363.362 167.165C362.983 168.686 361.688 169.887 360.193 170.363C358.699 170.842 357.047 170.656 355.591 170.069L344.052 167.264C340.926 165.335 339.523 161.03 340.914 157.633Z" fill="black"/>
<path d="M355.673 168.464C355.508 168.464 355.371 168.338 355.358 168.172C355.325 167.719 355.489 167.248 355.809 166.879C356.13 166.509 356.573 166.28 357.025 166.249C357.199 166.237 357.351 166.368 357.362 166.542C357.374 166.717 357.243 166.867 357.068 166.879C356.782 166.899 356.497 167.049 356.285 167.292C356.074 167.536 355.965 167.839 355.985 168.126C355.998 168.3 355.868 168.451 355.693 168.464C355.684 168.464 355.677 168.464 355.67 168.464H355.673Z" fill="black"/>
<path d="M353.779 166.43C353.866 165.843 353.918 165.25 354.223 164.712C354.67 163.923 355.499 163.379 356.419 163.362C357.508 163.342 358.556 164.043 359.021 165.027C359.487 166.01 359.385 167.22 358.829 168.156C358.273 169.093 357.299 169.75 356.239 169.996C356.233 170.062 356.223 170.126 356.216 170.192C355.723 169.81 355.303 169.326 354.958 168.805C354.468 168.066 354.114 167.249 353.777 166.428L353.779 166.43Z" fill="white"/>
<path d="M356.217 170.511C356.149 170.511 356.08 170.488 356.024 170.445C355.534 170.065 355.087 169.573 354.696 168.982C354.181 168.206 353.816 167.355 353.487 166.551C353.465 166.498 353.458 166.44 353.466 166.385L353.498 166.163C353.574 165.63 353.651 165.08 353.948 164.558C354.465 163.644 355.411 163.066 356.414 163.047C357.608 163.026 358.773 163.767 359.308 164.894C359.808 165.951 359.729 167.264 359.103 168.32C358.554 169.245 357.624 169.939 356.53 170.252C356.511 170.356 356.441 170.445 356.342 170.486C356.302 170.504 356.26 170.512 356.217 170.512V170.511ZM354.104 166.389C354.414 167.141 354.757 167.928 355.223 168.631C355.498 169.046 355.8 169.404 356.126 169.702C356.14 169.696 356.154 169.692 356.169 169.689C357.176 169.454 358.07 168.821 358.56 167.995C359.081 167.116 359.149 166.031 358.737 165.161C358.315 164.269 357.374 163.657 356.426 163.676C355.646 163.69 354.908 164.147 354.499 164.866C354.262 165.284 354.196 165.752 354.126 166.249L354.105 166.389H354.104Z" fill="black"/>
<path d="M343.802 164.609C343.941 163.694 350.184 164.218 349.86 166.164C349.479 168.45 351.701 168.321 351.667 168.459C351.092 170.769 352.13 174.018 350.052 175.182C348.863 175.847 345.033 175.054 343.694 174.854C343.606 174.29 343.546 173.72 343.499 173.153C343.288 170.612 343.418 167.13 343.802 164.609Z" fill="white"/>
<path d="M345.384 164.803C346.957 164.803 348.679 165.269 349.148 165.82C349.255 165.947 349.243 166.02 349.236 166.059C349.064 167.094 349.238 168.391 350.937 168.905C350.837 169.594 350.83 170.315 350.822 171.02C350.804 172.899 350.722 174.081 349.742 174.629C349.622 174.696 349.301 174.809 348.509 174.809C347.266 174.809 345.619 174.532 344.53 174.348C344.434 174.333 344.341 174.317 344.253 174.303C344.206 173.942 344.166 173.549 344.129 173.1C343.931 170.715 344.041 167.379 344.398 164.903C344.55 164.859 344.861 164.803 345.384 164.803ZM345.382 164.172C344.51 164.172 343.845 164.318 343.801 164.609C343.417 167.128 343.286 170.612 343.497 173.153C343.544 173.72 343.604 174.29 343.692 174.854C344.649 174.997 346.878 175.444 348.506 175.444C349.155 175.444 349.709 175.372 350.049 175.183C352.128 174.019 351.09 170.771 351.663 168.46C351.698 168.322 349.476 168.451 349.857 166.165C350.077 164.839 347.249 164.173 345.381 164.173L345.382 164.172Z" fill="black"/>
<path d="M349.132 173.532C351.211 172.368 351.092 170.769 351.667 168.458C351.701 168.321 351.726 168.181 351.754 168.043C351.829 168.125 351.918 168.194 352.026 168.244C352.638 168.53 353.343 167.963 353.574 167.329C353.68 167.035 353.734 166.733 353.78 166.43C354.117 167.25 354.471 168.068 354.961 168.806C355.306 169.327 355.726 169.811 356.219 170.194C356.021 172.086 355.547 173.95 354.81 175.704C354.219 177.112 353.438 178.477 352.28 179.474C351.122 180.47 349.539 181.056 348.042 180.747C346.488 180.426 344.838 180.323 344.144 178.897C343.698 177.982 343.691 174.522 343.533 173.514C345.154 173.151 347.945 174.198 349.134 173.532H349.132Z" fill="black"/>
<path d="M355.883 168.168C355.864 168.168 355.844 168.167 355.825 168.162C355.653 168.131 355.54 167.966 355.572 167.794C355.712 167.031 356.191 166.333 356.853 165.926C357 165.834 357.196 165.88 357.287 166.029C357.378 166.178 357.331 166.373 357.184 166.463C356.672 166.778 356.301 167.318 356.193 167.908C356.165 168.059 356.033 168.167 355.883 168.167V168.168Z" fill="black"/>
<path d="M236.917 223.451L360.74 223.451V219.329L236.917 219.329V223.451Z" fill="white"/>
<path d="M360.741 223.768H236.918C236.743 223.768 236.602 223.627 236.602 223.452V219.33C236.602 219.155 236.743 219.014 236.918 219.014H360.741C360.916 219.014 361.058 219.155 361.058 219.33V223.452C361.058 223.627 360.916 223.768 360.741 223.768ZM237.233 223.136H360.424V219.646H237.233V223.136Z" fill="black"/>
<path d="M375.935 340.493C375.787 340.493 375.655 340.39 375.625 340.24L370.409 314.371C370.374 314.2 370.485 314.033 370.656 313.998C370.827 313.964 370.995 314.074 371.029 314.246L376.246 340.115C376.28 340.286 376.17 340.453 375.998 340.488C375.976 340.492 375.956 340.493 375.935 340.493Z" fill="black"/>
<path d="M367.396 298.146C367.249 298.146 367.117 298.043 367.087 297.892L352.09 223.513C352.056 223.342 352.166 223.175 352.338 223.141C352.509 223.108 352.676 223.217 352.711 223.388L367.707 297.766C367.741 297.937 367.631 298.104 367.459 298.138C367.438 298.143 367.418 298.144 367.396 298.144V298.146Z" fill="black"/>
<path d="M378.412 340.178C378.412 341.545 377.303 342.655 375.934 342.655C374.564 342.655 373.455 341.547 373.455 340.178C373.455 338.809 374.564 337.701 375.934 337.701C377.303 337.701 378.412 338.809 378.412 340.178Z" fill="black"/>
<path d="M225.983 340.493C225.963 340.493 225.942 340.492 225.92 340.488C225.748 340.453 225.638 340.287 225.672 340.115L249.199 223.435C249.234 223.263 249.4 223.155 249.572 223.188C249.744 223.222 249.854 223.388 249.82 223.56L226.293 340.24C226.263 340.39 226.131 340.493 225.983 340.493Z" fill="black"/>
<path d="M223.504 340.176C223.504 341.543 224.613 342.653 225.983 342.653C227.352 342.653 228.461 341.545 228.461 340.176C228.461 338.807 227.352 337.699 225.983 337.699C224.613 337.699 223.504 338.807 223.504 340.176Z" fill="black"/>
<path d="M287.102 219.366H317.402C317.402 217.779 316.115 216.492 314.526 216.492H284.227C284.227 218.079 285.513 219.366 287.102 219.366Z" fill="black"/>
<path d="M287.651 217.682L273.747 187.584C272.305 188.248 271.676 189.956 272.341 191.397L284.484 217.682H287.65H287.651Z" fill="black"/>
<path d="M332.289 149.326C332.24 149.131 332.176 148.944 332.106 148.76C333.891 147.808 335.497 146.607 336.885 145.208C337.04 145.329 337.202 145.443 337.374 145.546C339.694 146.932 342.698 146.176 344.085 143.858C345.472 141.54 344.714 138.537 342.394 137.151C342.221 137.048 342.043 136.96 341.864 136.88C342.439 134.996 342.737 133.013 342.729 130.99C342.924 130.966 343.119 130.933 343.315 130.884C345.936 130.224 347.525 127.567 346.866 124.947C346.205 122.327 343.546 120.738 340.926 121.398C340.731 121.447 340.543 121.511 340.36 121.581C339.407 119.796 338.205 118.191 336.805 116.804C336.925 116.649 337.04 116.487 337.143 116.314C338.53 113.996 337.772 110.992 335.453 109.606C333.133 108.221 330.129 108.976 328.742 111.294C328.639 111.468 328.551 111.645 328.471 111.824C326.585 111.25 324.602 110.951 322.578 110.958C322.554 110.763 322.521 110.568 322.472 110.372C321.812 107.752 319.152 106.163 316.532 106.823C313.911 107.483 312.322 110.14 312.982 112.76C313.03 112.955 313.095 113.143 313.165 113.326C311.38 114.278 309.774 115.479 308.385 116.878C308.231 116.758 308.069 116.643 307.897 116.54C305.577 115.154 302.573 115.91 301.186 118.228C299.799 120.546 300.557 123.55 302.876 124.936C303.05 125.039 303.227 125.126 303.407 125.206C302.832 127.09 302.534 129.073 302.541 131.096C302.346 131.12 302.151 131.153 301.955 131.202C299.335 131.862 297.746 134.519 298.405 137.139C299.065 139.759 301.725 141.348 304.345 140.688C304.54 140.64 304.728 140.575 304.911 140.505C305.864 142.291 307.066 143.895 308.466 145.283C308.345 145.437 308.231 145.599 308.127 145.772C306.741 148.09 307.498 151.094 309.818 152.48C312.138 153.866 315.142 153.11 316.529 150.792C316.632 150.619 316.72 150.441 316.8 150.262C318.685 150.836 320.668 151.136 322.693 151.128C322.717 151.323 322.75 151.518 322.799 151.714C323.459 154.334 326.118 155.923 328.739 155.263C331.359 154.603 332.948 151.946 332.289 149.326ZM313.824 133.259C312.598 128.395 315.549 123.458 320.416 122.234C325.283 121.01 330.222 123.961 331.448 128.825C332.675 133.69 329.723 138.627 324.856 139.851C319.989 141.075 315.05 138.124 313.824 133.259Z" fill="#1F1B1B"/>
<path d="M327.546 155.727C325.214 155.727 323.087 154.149 322.492 151.791C322.465 151.681 322.441 151.566 322.419 151.443C320.571 151.425 318.741 151.155 316.969 150.641C316.913 150.753 316.857 150.855 316.8 150.954C316.086 152.148 314.95 152.992 313.601 153.332C312.251 153.671 310.851 153.465 309.656 152.752C307.191 151.279 306.384 148.076 307.857 145.61C307.916 145.513 307.98 145.414 308.052 145.313C306.761 143.996 305.656 142.512 304.765 140.894C304.646 140.935 304.534 140.967 304.424 140.995C301.637 141.695 298.802 140.001 298.1 137.216C297.398 134.432 299.094 131.597 301.879 130.896C301.988 130.868 302.104 130.844 302.228 130.822C302.245 128.977 302.514 127.146 303.029 125.375C302.917 125.319 302.814 125.263 302.718 125.206C300.252 123.733 299.445 120.529 300.918 118.065C301.632 116.871 302.768 116.026 304.117 115.687C305.466 115.347 306.867 115.553 308.062 116.266C308.159 116.324 308.257 116.388 308.358 116.46C309.675 115.168 311.159 114.066 312.778 113.175C312.738 113.057 312.705 112.945 312.678 112.835C312.338 111.486 312.545 110.086 313.258 108.892C313.972 107.698 315.108 106.853 316.458 106.514C319.244 105.812 322.08 107.509 322.782 110.292C322.809 110.401 322.833 110.517 322.855 110.64C324.702 110.659 326.533 110.928 328.305 111.442C328.361 111.33 328.417 111.227 328.474 111.13C329.187 109.936 330.324 109.091 331.673 108.751C333.023 108.412 334.423 108.618 335.618 109.331C338.083 110.805 338.89 114.007 337.417 116.473C337.36 116.57 337.295 116.667 337.224 116.769C338.516 118.086 339.619 119.569 340.51 121.187C340.629 121.147 340.741 121.114 340.851 121.087C343.638 120.387 346.473 122.081 347.175 124.865C347.878 127.65 346.181 130.485 343.396 131.186C343.287 131.213 343.171 131.238 343.048 131.259C343.029 133.106 342.76 134.936 342.247 136.707C342.359 136.763 342.462 136.818 342.559 136.877C345.025 138.35 345.832 141.553 344.359 144.018C343.645 145.212 342.509 146.057 341.159 146.396C339.811 146.736 338.41 146.53 337.215 145.817C337.118 145.759 337.02 145.695 336.918 145.622C335.6 146.913 334.116 148.017 332.499 148.906C332.539 149.024 332.572 149.137 332.599 149.247C332.938 150.596 332.732 151.996 332.019 153.19C331.305 154.384 330.169 155.229 328.819 155.568C328.394 155.675 327.968 155.725 327.548 155.725L327.546 155.727ZM322.693 150.813C322.852 150.813 322.987 150.932 323.007 151.09C323.032 151.294 323.065 151.473 323.107 151.638C323.723 154.085 326.216 155.574 328.663 154.958C329.848 154.66 330.847 153.917 331.474 152.869C332.102 151.82 332.282 150.59 331.983 149.404C331.943 149.243 331.885 149.069 331.811 148.875C331.753 148.726 331.817 148.557 331.957 148.482C333.693 147.558 335.275 146.381 336.661 144.986C336.774 144.873 336.953 144.862 337.079 144.959C337.242 145.086 337.393 145.19 337.536 145.275C338.586 145.903 339.817 146.083 341.002 145.785C342.187 145.487 343.185 144.744 343.813 143.696C345.107 141.53 344.397 138.715 342.231 137.421C342.086 137.335 341.924 137.252 341.735 137.168C341.589 137.103 341.515 136.94 341.561 136.787C342.134 134.909 342.42 132.959 342.413 130.99C342.413 130.831 342.531 130.695 342.69 130.675C342.896 130.649 343.075 130.616 343.238 130.576C345.685 129.961 347.175 127.469 346.558 125.023C345.94 122.576 343.449 121.086 341.002 121.703C340.838 121.744 340.665 121.8 340.472 121.874C340.323 121.932 340.155 121.869 340.079 121.728C339.154 119.992 337.976 118.41 336.582 117.027C336.469 116.914 336.457 116.735 336.555 116.609C336.684 116.443 336.784 116.297 336.871 116.152C338.166 113.986 337.457 111.171 335.291 109.877C334.242 109.25 333.01 109.068 331.825 109.367C330.639 109.665 329.642 110.408 329.014 111.456C328.928 111.601 328.845 111.762 328.76 111.951C328.696 112.097 328.533 112.172 328.379 112.126C326.521 111.56 324.593 111.273 322.648 111.273C322.626 111.273 322.593 111.27 322.58 111.273C322.421 111.273 322.286 111.154 322.266 110.996C322.239 110.787 322.207 110.613 322.167 110.448C321.551 108.001 319.058 106.512 316.611 107.128C315.426 107.426 314.427 108.169 313.8 109.217C313.172 110.266 312.992 111.496 313.291 112.681C313.331 112.845 313.389 113.017 313.463 113.211C313.52 113.36 313.457 113.529 313.317 113.604C311.579 114.53 309.997 115.705 308.613 117.1C308.5 117.213 308.321 117.224 308.195 117.127C308.032 116.999 307.881 116.896 307.738 116.811C306.688 116.183 305.457 116.003 304.272 116.301C303.087 116.599 302.089 117.342 301.461 118.39C300.166 120.556 300.875 123.371 303.043 124.665C303.188 124.751 303.349 124.834 303.539 124.918C303.685 124.983 303.759 125.146 303.713 125.299C303.14 127.179 302.854 129.129 302.861 131.096C302.861 131.255 302.743 131.391 302.584 131.411C302.378 131.437 302.199 131.47 302.036 131.51C299.589 132.125 298.098 134.616 298.715 137.063C299.331 139.51 301.824 140.999 304.271 140.383C304.435 140.342 304.603 140.287 304.801 140.212C304.95 140.154 305.117 140.217 305.193 140.358C306.12 142.094 307.297 143.676 308.692 145.059C308.805 145.172 308.817 145.351 308.719 145.477C308.592 145.641 308.489 145.791 308.403 145.935C307.109 148.1 307.818 150.916 309.984 152.211C311.033 152.838 312.265 153.018 313.45 152.72C314.637 152.422 315.634 151.679 316.261 150.631C316.347 150.487 316.427 150.329 316.515 150.135C316.581 149.989 316.744 149.916 316.896 149.961C318.754 150.527 320.681 150.815 322.627 150.815C322.65 150.815 322.689 150.815 322.696 150.815L322.693 150.813ZM322.64 140.443C318.433 140.443 314.592 137.597 313.519 133.338C312.906 130.903 313.277 128.376 314.565 126.221C315.853 124.066 317.905 122.542 320.34 121.929C325.371 120.665 330.49 123.724 331.755 128.749C332.368 131.183 331.997 133.712 330.709 135.866C329.421 138.021 327.369 139.546 324.934 140.159C324.166 140.352 323.396 140.443 322.64 140.443ZM322.634 122.274C321.928 122.274 321.21 122.36 320.494 122.54C318.221 123.111 316.309 124.533 315.106 126.543C313.904 128.553 313.558 130.911 314.131 133.182C315.313 137.869 320.088 140.724 324.779 139.544C327.051 138.973 328.964 137.551 330.166 135.541C331.368 133.531 331.715 131.173 331.142 128.903C330.14 124.93 326.558 122.274 322.634 122.274Z" fill="black"/>
<path d="M363.013 114.533C362.983 114.414 362.944 114.301 362.903 114.191C363.983 113.615 364.953 112.888 365.794 112.042C365.889 112.115 365.986 112.183 366.091 112.246C367.493 113.085 369.311 112.627 370.15 111.226C370.988 109.823 370.531 108.007 369.127 107.168C369.022 107.105 368.914 107.052 368.806 107.005C369.152 105.865 369.334 104.666 369.33 103.443C369.447 103.429 369.566 103.409 369.684 103.379C371.268 102.979 372.23 101.371 371.832 99.7878C371.432 98.203 369.824 97.2423 368.238 97.6417C368.121 97.6718 368.006 97.7105 367.896 97.752C367.32 96.6725 366.592 95.7018 365.747 94.8628C365.82 94.7683 365.889 94.671 365.952 94.5665C366.79 93.1634 366.333 91.348 364.929 90.509C363.526 89.6701 361.708 90.1282 360.87 91.5298C360.807 91.6343 360.754 91.7417 360.706 91.8505C359.566 91.5026 358.367 91.3222 357.142 91.3265C357.127 91.2091 357.107 91.0903 357.077 90.9729C356.677 89.388 355.07 88.4273 353.484 88.8268C351.899 89.2262 350.938 90.834 351.336 92.4175C351.366 92.5363 351.405 92.6494 351.447 92.7597C350.366 93.3352 349.396 94.0625 348.555 94.9086C348.461 94.8356 348.363 94.7669 348.259 94.7039C346.856 93.8649 345.038 94.3231 344.2 95.7247C343.362 97.1278 343.819 98.9431 345.223 99.7821C345.327 99.8451 345.435 99.8981 345.544 99.9453C345.197 101.085 345.015 102.285 345.019 103.507C344.902 103.522 344.783 103.542 344.665 103.572C343.081 103.971 342.119 105.579 342.518 107.162C342.917 108.747 344.525 109.708 346.111 109.309C346.229 109.279 346.343 109.24 346.453 109.198C347.029 110.278 347.757 111.249 348.603 112.088C348.529 112.182 348.461 112.279 348.398 112.384C347.56 113.787 348.017 115.602 349.421 116.441C350.823 117.28 352.641 116.822 353.48 115.421C353.543 115.316 353.596 115.209 353.643 115.1C354.783 115.448 355.983 115.628 357.208 115.624C357.222 115.741 357.242 115.86 357.272 115.977C357.672 117.562 359.279 118.523 360.865 118.124C362.45 117.724 363.411 116.116 363.013 114.533ZM351.845 104.815C351.103 101.872 352.888 98.8859 355.832 98.1457C358.776 97.4055 361.764 99.1894 362.504 102.133C363.247 105.075 361.461 108.062 358.517 108.802C355.573 109.542 352.586 107.758 351.845 104.815Z" fill="#E2EAFF"/>
<path d="M396.125 204.539C395.95 204.539 395.808 204.397 395.808 204.223V123.713H362.569C362.394 123.713 362.252 123.571 362.252 123.396C362.252 123.222 362.394 123.08 362.569 123.08H396.123C396.298 123.08 396.44 123.222 396.44 123.396V204.223C396.44 204.397 396.298 204.539 396.123 204.539H396.125Z" fill="black"/>
<path d="M50.5381 109.435C50.9556 107.747 49.9254 106.041 48.237 105.624C46.5486 105.207 44.8415 106.237 44.424 107.924C44.0064 109.611 45.0367 111.317 46.725 111.734C48.4134 112.151 50.1206 111.122 50.5381 109.435Z" fill="#E2EAFF"/>
<path d="M57.8903 111.579C59.4934 110.905 60.2462 109.06 59.5716 107.458C58.8971 105.856 57.0507 105.104 55.4476 105.778C53.8445 106.452 53.0917 108.297 53.7663 109.899C54.4408 111.501 56.2872 112.253 57.8903 111.579Z" fill="white"/>
<path d="M56.6689 112.139C54.7576 112.139 53.2031 110.586 53.2031 108.676C53.2031 106.766 54.7576 105.213 56.6689 105.213C58.5802 105.213 60.1347 106.766 60.1347 108.676C60.1347 110.586 58.5802 112.139 56.6689 112.139ZM56.6689 105.844C55.1072 105.844 53.835 107.114 53.835 108.676C53.835 110.238 55.1058 111.508 56.6689 111.508C58.232 111.508 59.5029 110.238 59.5029 108.676C59.5029 107.114 58.232 105.844 56.6689 105.844Z" fill="black"/>
<path d="M68.9698 109.185C69.2503 107.469 68.0862 105.852 66.3697 105.571C64.6532 105.291 63.0344 106.454 62.7539 108.17C62.4735 109.885 63.6376 111.503 65.354 111.783C67.0705 112.063 68.6893 110.9 68.9698 109.185Z" fill="white"/>
<path d="M65.8623 112.139C63.951 112.139 62.3965 110.586 62.3965 108.676C62.3965 106.766 63.951 105.213 65.8623 105.213C67.7736 105.213 69.3281 106.766 69.3281 108.676C69.3281 110.586 67.7736 112.139 65.8623 112.139ZM65.8623 105.844C64.3006 105.844 63.0283 107.114 63.0283 108.676C63.0283 110.238 64.2992 111.508 65.8623 111.508C67.4254 111.508 68.6962 110.238 68.6962 108.676C68.6962 107.114 67.4254 105.844 65.8623 105.844Z" fill="black"/>
<path d="M29.301 158.348C29.1262 158.348 28.9844 158.207 28.9844 158.032V108.676C28.9844 108.501 29.1262 108.359 29.301 108.359H40.4248C40.5996 108.359 40.7414 108.501 40.7414 108.676C40.7414 108.85 40.5996 108.992 40.4248 108.992H29.6176V158.033C29.6176 158.208 29.4758 158.35 29.301 158.35V158.348Z" fill="black"/>
<path d="M121.861 109.059H88.8381C88.6633 109.059 88.5215 108.917 88.5215 108.742C88.5215 108.568 88.6633 108.426 88.8381 108.426H121.861C122.036 108.426 122.178 108.568 122.178 108.742C122.178 108.917 122.036 109.059 121.861 109.059Z" fill="black"/>
<path d="M85.2745 109.059H76.3127C76.1379 109.059 75.9961 108.917 75.9961 108.742C75.9961 108.568 76.1379 108.426 76.3127 108.426H85.2745C85.4493 108.426 85.5911 108.568 85.5911 108.742C85.5911 108.917 85.4493 109.059 85.2745 109.059Z" fill="black"/>
<path d="M106.058 102.9H96.4963C96.3215 102.9 96.1797 102.759 96.1797 102.584C96.1797 102.409 96.3215 102.268 96.4963 102.268H106.058C106.233 102.268 106.375 102.409 106.375 102.584C106.375 102.759 106.233 102.9 106.058 102.9Z" fill="black"/>
<path d="M92.8814 102.9H76.3147C76.1399 102.9 75.998 102.759 75.998 102.584C75.998 102.409 76.1399 102.268 76.3147 102.268H92.8814C93.0562 102.268 93.1981 102.409 93.1981 102.584C93.1981 102.759 93.0562 102.9 92.8814 102.9Z" fill="black"/>
<path d="M207.29 279.768H199.717C199.542 279.768 199.4 279.626 199.4 279.451C199.4 279.277 199.542 279.135 199.717 279.135H206.975L206.941 237.811C206.941 237.636 207.083 237.494 207.256 237.494C207.431 237.494 207.573 237.636 207.573 237.809L207.609 279.45C207.609 279.534 207.576 279.615 207.515 279.673C207.457 279.732 207.376 279.766 207.292 279.766L207.29 279.768Z" fill="black"/>
<path d="M201.787 279.768H152.254C152.079 279.768 151.938 279.626 151.938 279.451C151.938 279.277 152.079 279.135 152.254 279.135H201.787C201.962 279.135 202.103 279.277 202.103 279.451C202.103 279.626 201.962 279.768 201.787 279.768Z" fill="black"/>
<path d="M201.787 287.85H152.254C152.079 287.85 151.938 287.708 151.938 287.533C151.938 287.359 152.079 287.217 152.254 287.217H201.787C201.962 287.217 202.103 287.359 202.103 287.533C202.103 287.708 201.962 287.85 201.787 287.85Z" fill="black"/>
<path d="M207.272 303.942H130.08C129.906 303.942 129.764 303.8 129.764 303.625C129.764 303.451 129.906 303.309 130.08 303.309H206.955V295.914L201.786 295.928H152.253C152.079 295.928 151.937 295.787 151.937 295.612C151.937 295.437 152.079 295.296 152.253 295.296H201.786L207.27 295.281C207.354 295.281 207.434 295.314 207.494 295.373C207.554 295.432 207.587 295.513 207.587 295.596V303.622C207.587 303.797 207.445 303.939 207.27 303.939L207.272 303.942Z" fill="black"/>
<path d="M165.502 279.451C165.502 280.621 164.553 281.569 163.383 281.569C162.212 281.569 161.264 280.621 161.264 279.451C161.264 278.282 162.212 277.334 163.383 277.334C164.553 277.334 165.502 278.282 165.502 279.451Z" fill="white"/>
<path d="M163.381 281.885C162.038 281.885 160.945 280.793 160.945 279.451C160.945 278.11 162.038 277.018 163.381 277.018C164.723 277.018 165.817 278.11 165.817 279.451C165.817 280.793 164.723 281.885 163.381 281.885ZM163.381 277.65C162.387 277.65 161.577 278.459 161.577 279.453C161.577 280.446 162.387 281.255 163.381 281.255C164.375 281.255 165.185 280.446 165.185 279.453C165.185 278.459 164.375 277.65 163.381 277.65Z" fill="black"/>
<path d="M179.45 287.312C179.45 288.681 178.34 289.791 176.97 289.791C175.601 289.791 174.49 288.681 174.49 287.312C174.49 285.944 175.601 284.834 176.97 284.834C178.34 284.834 179.45 285.944 179.45 287.312Z" fill="#008BCE"/>
<path d="M193.867 297.493C194.916 296.974 195.345 295.704 194.826 294.656C194.307 293.608 193.036 293.179 191.987 293.698C190.938 294.216 190.509 295.486 191.028 296.535C191.547 297.583 192.818 298.012 193.867 297.493Z" fill="white"/>
<path d="M192.924 298.034C191.581 298.034 190.488 296.941 190.488 295.6C190.488 294.258 191.581 293.166 192.924 293.166C194.266 293.166 195.36 294.258 195.36 295.6C195.36 296.941 194.266 298.034 192.924 298.034ZM192.924 293.799C191.93 293.799 191.12 294.608 191.12 295.601C191.12 296.595 191.93 297.404 192.924 297.404C193.918 297.404 194.728 296.595 194.728 295.601C194.728 294.608 193.918 293.799 192.924 293.799Z" fill="black"/>
<path d="M155.778 363L155.79 377.602C155.795 382.027 150.675 386.463 140.386 389.894C119.809 396.758 86.2302 397.047 64.7205 390.63C64.3666 390.524 64.0185 390.418 63.6718 390.31C52.7729 386.882 47.2984 382.324 47.2927 377.755L47.2812 363.153C47.2884 367.723 52.7615 372.28 63.6603 375.708C64.007 375.817 64.3552 375.924 64.7091 376.028C86.2188 382.447 119.798 382.156 140.375 375.293C150.663 371.861 155.784 367.425 155.778 363Z" fill="#008BCE"/>
<path d="M138.347 350.122C138.702 350.228 139.05 350.333 139.398 350.444C160.852 357.191 161.29 368.316 140.377 375.292C119.8 382.156 86.2207 382.445 64.711 376.028C64.3571 375.922 64.0089 375.816 63.6622 375.707C42.2113 368.96 41.7728 357.836 62.6865 350.859C83.2606 343.997 116.837 343.706 138.347 350.123V350.122Z" fill="#E2EAFF"/>
<path d="M155.778 343.271L155.79 357.873C155.795 362.299 150.675 366.734 140.386 370.166C119.809 377.029 86.2302 377.319 64.7205 370.902C64.3666 370.796 64.0185 370.69 63.6718 370.581C52.7729 367.154 47.2984 362.595 47.2927 358.027L47.2812 343.425C47.2884 347.995 52.7615 352.552 63.6603 355.979C64.007 356.088 64.3552 356.195 64.7091 356.3C86.2188 362.718 119.798 362.428 140.375 355.564C150.663 352.132 155.784 347.697 155.778 343.271Z" fill="#008BCE"/>
<path d="M138.347 330.395C138.702 330.501 139.05 330.607 139.398 330.717C160.852 337.465 161.29 348.589 140.377 355.566C119.8 362.429 86.2207 362.718 64.711 356.302C64.3571 356.196 64.0089 356.09 63.6622 355.981C42.2113 349.233 41.7728 338.109 62.6865 331.132C83.2606 324.27 116.837 323.98 138.347 330.396V330.395Z" fill="#E2EAFF"/>
<path d="M155.811 324.104L155.823 338.705C155.829 343.131 150.708 347.566 140.419 350.998C119.843 357.861 86.2634 358.151 64.7537 351.734C64.3999 351.628 64.0517 351.522 63.705 351.413C52.8061 347.986 47.3316 343.427 47.3259 338.859L47.3145 324.257C47.3216 328.827 52.7947 333.384 63.6935 336.811C64.0402 336.92 64.3884 337.027 64.7423 337.132C86.252 343.55 119.831 343.26 140.408 336.396C150.697 332.964 155.817 328.529 155.811 324.104Z" fill="#181B1D"/>
<path d="M138.378 311.227C138.733 311.333 139.081 311.439 139.429 311.549C160.883 318.297 161.322 329.421 140.408 336.398C119.831 343.261 86.2519 343.55 64.7422 337.134C64.3883 337.028 64.0402 336.922 63.6935 336.813C42.2425 330.065 41.8041 318.941 62.7178 311.964C83.2919 305.102 116.868 304.812 138.378 311.228V311.227Z" fill="#E2EAFF"/>
<path d="M155.581 304.504L155.592 319.106C155.598 323.531 150.478 327.967 140.189 331.398C119.612 338.262 86.033 338.551 64.5233 332.134C64.1694 332.028 63.8212 331.922 63.4745 331.813C52.5757 328.386 47.1012 323.827 47.0954 319.259L47.084 304.657C47.0911 309.227 52.5642 313.784 63.463 317.212C63.8098 317.32 64.1579 317.428 64.5118 317.532C86.0215 323.951 119.601 323.66 140.178 316.796C150.466 313.365 155.587 308.929 155.581 304.504Z" fill="#008BCE"/>
<path d="M138.147 291.625C138.503 291.731 138.851 291.837 139.199 291.948C160.653 298.695 161.091 309.819 140.178 316.796C119.601 323.66 86.0215 323.949 64.5118 317.532C64.1579 317.426 63.8097 317.32 63.463 317.211C42.012 310.464 41.5736 299.339 62.4873 292.363C83.0614 285.501 116.638 285.21 138.147 291.627V291.625Z" fill="#E2EAFF"/>
<path d="M155.55 284.917L155.562 299.519C155.567 303.944 150.447 308.38 140.158 311.811C119.581 318.675 86.0022 318.964 64.4925 312.547C64.1387 312.441 63.7905 312.335 63.4438 312.226C52.5464 308.796 47.0719 304.239 47.0661 299.669L47.0547 285.067C47.0619 289.637 52.5349 294.194 63.4337 297.622C63.7805 297.731 64.1286 297.838 64.4825 297.942C85.9922 304.361 119.571 304.07 140.148 297.207C150.437 293.775 155.557 289.339 155.552 284.914L155.55 284.917Z" fill="#181B1D"/>
<path d="M138.116 272.04C138.471 272.145 138.82 272.251 139.168 272.362C160.622 279.109 161.06 290.234 140.146 297.21C119.569 304.074 85.9902 304.363 64.4805 297.946C64.1266 297.84 63.7785 297.734 63.4317 297.625C41.9808 290.878 41.5424 279.754 62.456 272.777C83.0302 265.915 116.606 265.624 138.116 272.041V272.04Z" fill="#E2EAFF"/>
<path d="M155.624 266.127L155.635 280.729C155.641 285.154 150.52 289.59 140.232 293.021C119.655 299.885 86.0759 300.174 64.5662 293.757C64.2124 293.651 63.8642 293.545 63.5175 293.437C52.6186 290.009 47.1441 285.451 47.1384 280.882L47.127 266.28C47.1341 270.85 52.6072 275.407 63.506 278.835C63.8527 278.943 64.2009 279.051 64.5548 279.155C86.0645 285.574 119.644 285.283 140.221 278.419C150.509 274.988 155.63 270.552 155.624 266.127Z" fill="#008BCE"/>
<path d="M138.192 253.249C138.548 253.354 138.896 253.46 139.244 253.571C160.698 260.318 161.136 271.442 140.222 278.419C119.645 285.283 86.0664 285.572 64.5567 279.155C64.2028 279.049 63.8546 278.943 63.5079 278.834C42.057 272.087 41.6185 260.962 62.5322 253.986C83.1063 247.124 116.683 246.833 138.192 253.25V253.249Z" fill="#E2EAFF"/>
<path d="M155.496 246.997L155.507 261.599C155.513 266.024 150.392 270.46 140.104 273.891C119.527 280.755 85.9475 281.044 64.4379 274.627C64.084 274.521 63.7358 274.415 63.3891 274.307C52.4917 270.876 47.0172 266.319 47.0115 261.749L47 247.147C47.0072 251.717 52.4802 256.274 63.3791 259.702C63.7258 259.811 64.0739 259.918 64.4278 260.023C85.9375 266.441 119.517 266.15 140.094 259.287C150.382 255.855 155.503 251.42 155.497 246.994L155.496 246.997Z" fill="#181B1D"/>
<path d="M138.063 234.12C138.419 234.226 138.767 234.332 139.115 234.442C160.569 241.189 161.007 252.314 140.094 259.29C119.517 266.154 85.9375 266.443 64.4278 260.026C64.0739 259.92 63.7257 259.814 63.379 259.705C41.9281 252.958 41.4896 241.834 62.4033 234.857C82.9774 227.995 116.554 227.704 138.063 234.121V234.12Z" fill="#E2EAFF"/>
<path d="M155.496 227.496L155.507 242.097C155.513 246.523 150.392 250.958 140.104 254.39C119.527 261.253 85.9475 261.543 64.4379 255.126C64.084 255.02 63.7358 254.914 63.3891 254.805C52.4917 251.375 47.0172 246.818 47.0115 242.248L47 227.647C47.0072 232.217 52.4802 236.774 63.3791 240.202C63.7258 240.311 64.0739 240.418 64.4278 240.523C85.9375 246.941 119.517 246.65 140.094 239.787C150.382 236.355 155.503 231.92 155.497 227.494L155.496 227.496Z" fill="#008BCE"/>
<path d="M138.063 214.618C138.419 214.724 138.767 214.83 139.115 214.94C160.569 221.687 161.007 232.812 140.094 239.788C119.517 246.652 85.9375 246.941 64.4278 240.524C64.0739 240.418 63.7257 240.312 63.379 240.203C41.9281 233.456 41.4896 222.332 62.4033 215.355C82.9774 208.493 116.554 208.202 138.063 214.619V214.618Z" fill="#E2EAFF"/>
</g>
</g>
<defs>
<clipPath id="clip0_2451_9992">
<rect width="427" height="425" fill="white"/>
</clipPath>
<clipPath id="clip1_2451_9992">
<rect width="393" height="381" fill="white" transform="translate(17 22)"/>
</clipPath>
</defs>
</svg>
