<svg width="427" height="425" viewBox="0 0 427 425" fill="none" xmlns="http://www.w3.org/2000/svg">
<g clip-path="url(#clip0_2414_15026)">
<path d="M400.041 382.57C388.531 392.16 338.441 398.94 278.761 401.49C187.021 405.42 72.6009 399.37 40.7909 378.2C25.7309 368.19 15.5509 337.25 9.1009 297.66C-6.9291 199.16 0.220901 47.1301 13.1609 30.6501C31.3109 7.56009 323.301 -15.3099 399.911 13.9301C432.741 26.4601 429.231 358.23 400.031 382.57H400.041Z" fill="white"/>
<path d="M373.314 247.44L375.204 241.883L377.358 247.44C377.358 247.44 381.657 248.14 381.712 248.531C381.757 248.913 377.595 250.095 377.595 250.095C377.595 250.095 375.85 255.488 375.204 254.27C374.568 253.051 373.95 250.35 373.95 250.35C373.95 250.35 368.533 249.268 368.533 248.731C368.533 248.158 373.314 247.449 373.314 247.449V247.44Z" fill="white"/>
<path d="M304.094 233.142L305.566 228.822L307.238 233.142C307.238 233.142 310.574 233.688 310.619 233.988C310.656 234.279 307.429 235.198 307.429 235.198C307.429 235.198 306.075 239.381 305.575 238.435C305.075 237.49 304.594 235.389 304.594 235.389C304.594 235.389 300.395 234.543 300.395 234.134C300.395 233.688 304.103 233.142 304.103 233.142H304.094Z" fill="white"/>
<g clip-path="url(#clip1_2414_15026)">
<path d="M277.564 37.043C279.331 37.043 279.333 34.2988 277.564 34.2988C275.796 34.2988 275.796 37.043 277.564 37.043Z" fill="#008BCE"/>
<path d="M126.003 228.389H115.922V340.854H126.003V228.389Z" fill="white"/>
<path d="M126.002 341.313H115.92C115.668 341.313 115.463 341.108 115.463 340.855V228.389C115.463 228.137 115.668 227.932 115.92 227.932H126.002C126.254 227.932 126.459 228.137 126.459 228.389V340.855C126.459 341.108 126.254 341.313 126.002 341.313ZM116.38 340.397H125.546V228.847H116.38V340.397Z" fill="#008BCE"/>
<path d="M164.369 332.711H78.3262C76.1764 332.711 74.4336 334.454 74.4336 336.604V336.961C74.4336 339.111 76.1764 340.854 78.3262 340.854H164.369C166.519 340.854 168.262 339.111 168.262 336.961V336.604C168.262 334.454 166.519 332.711 164.369 332.711Z" fill="white"/>
<path d="M164.368 341.313H78.3267C75.927 341.313 73.9766 339.362 73.9766 336.961V336.605C73.9766 334.205 75.9291 332.254 78.3267 332.254H164.368C166.767 332.254 168.718 334.207 168.718 336.605V336.961C168.718 339.362 166.767 341.313 164.368 341.313ZM78.3267 333.169C76.4322 333.169 74.8917 334.71 74.8917 336.605V336.961C74.8917 338.856 76.4322 340.397 78.3267 340.397H164.368C166.262 340.397 167.803 338.856 167.803 336.961V336.605C167.803 334.71 166.262 333.169 164.368 333.169H78.3267Z" fill="#008BCE"/>
<path d="M144.785 226.062H97.1458C95.0978 226.062 93.4375 227.723 93.4375 229.772V230.109C93.4375 232.158 95.0978 233.819 97.1458 233.819H144.785C146.833 233.819 148.493 232.158 148.493 230.109V229.772C148.493 227.723 146.833 226.062 144.785 226.062Z" fill="white"/>
<path d="M144.785 234.277H97.1443C94.8481 234.277 92.9805 232.409 92.9805 230.112V229.772C92.9805 227.475 94.8481 225.607 97.1443 225.607H144.785C147.081 225.607 148.949 227.475 148.949 229.772V230.112C148.949 232.409 147.081 234.277 144.785 234.277ZM97.1443 226.519C95.3512 226.519 93.8936 227.977 93.8936 229.77V230.11C93.8936 231.903 95.3512 233.361 97.1443 233.361H144.785C146.578 233.361 148.036 231.903 148.036 230.11V229.77C148.036 227.977 146.578 226.519 144.785 226.519H97.1443Z" fill="#008BCE"/>
<path d="M115.62 226.401H129.677C136.499 222.742 141.309 216.672 141.309 208.849C141.309 203.556 139.069 198.649 135.53 195.253C131.19 191.09 128.608 185.271 128.608 179.254V178.836H128.84C130.927 178.836 132.621 177.494 132.621 175.406C132.621 173.319 130.929 171.977 128.84 171.977H116.454C114.365 171.977 112.673 173.319 112.673 175.406C112.673 177.494 114.365 178.836 116.454 178.836H116.262V179.254C116.262 185.268 113.893 190.96 109.553 195.122C106.013 198.517 103.896 203.554 103.896 208.849C103.896 216.67 108.795 222.742 115.618 226.401H115.62Z" fill="#008BCE"/>
<path d="M86.0861 266.706C88.8233 279.244 77.9717 313.538 75.6962 321.897C75.398 322.993 74.398 323.753 73.255 323.753H63.1446C61.7387 323.753 60.602 322.616 60.6165 321.22C60.7097 311.304 62.511 275.15 56.3305 264.741C52.7526 258.714 50.1065 256.674 45.7232 253.808C35.2049 246.926 43.1723 227.342 43.1723 227.342L74.986 254.595C80.4894 255.419 84.9038 261.303 86.084 266.706H86.0861Z" fill="#008BCE"/>
<path d="M71.0174 234.951C71.0174 234.951 105.701 235.262 116.637 248.295C126.466 260.009 111.896 311.58 108.844 321.904C108.527 322.975 107.539 323.706 106.417 323.706H93.3874C93.112 323.706 92.8904 323.484 92.8904 323.213V268.568C92.8904 265.126 92.2154 266.972 89.3022 265.106C85.2191 262.49 71.8725 265.213 61.6648 265.288C29.2507 265.528 38.0753 232.445 38.0753 232.445L71.0174 234.951Z" fill="#008BCE"/>
<path d="M63.0582 323.801L62.377 332.65L70.4789 332.692L72.1519 323.861L63.0582 323.801Z" fill="white"/>
<path d="M70.4789 333.148H70.4769L62.3749 333.107C62.2486 333.107 62.1264 333.053 62.0415 332.96C61.9546 332.866 61.9111 332.742 61.9214 332.614L62.6026 323.764C62.6213 323.526 62.82 323.342 63.0581 323.342H63.0623L72.1581 323.404C72.2948 323.404 72.4211 323.466 72.508 323.572C72.595 323.677 72.6302 323.814 72.6033 323.947L70.9282 332.775C70.8868 332.991 70.6984 333.148 70.4789 333.148ZM62.8697 332.195L70.1 332.233L71.6011 324.317L63.4805 324.263L62.8697 332.198V332.195Z" fill="#008BCE"/>
<path d="M95.0918 323.803L95.216 332.652L103.569 332.694L105.053 323.863L95.0918 323.803Z" fill="white"/>
<path d="M103.569 333.15H103.567L95.2145 333.108C94.9661 333.108 94.7631 332.907 94.759 332.657L94.6348 323.807C94.6348 323.685 94.6803 323.565 94.7673 323.478C94.8542 323.391 94.9661 323.331 95.0944 323.343L105.056 323.406C105.19 323.406 105.317 323.466 105.404 323.569C105.491 323.673 105.528 323.807 105.505 323.94L104.02 332.769C103.983 332.988 103.793 333.15 103.569 333.15ZM95.668 332.197L103.184 332.234L104.515 324.319L95.5562 324.263L95.668 332.197Z" fill="#008BCE"/>
<path d="M103.449 331.562H95.6808C95.13 331.562 94.6331 331.89 94.424 332.397C93.7345 334.06 92.3327 337.95 92.5212 341.638C92.5729 342.647 93.4156 343.436 94.4323 343.436H117.231C118.279 343.436 119.076 342.485 118.867 341.464C118.614 340.242 117.748 338.635 115.249 337.192C111.201 334.853 106.116 332.515 104.512 331.79C104.178 331.641 103.818 331.562 103.454 331.562H103.449Z" fill="white"/>
<path d="M117.23 343.894H94.4311C93.168 343.894 92.1266 342.914 92.0624 341.663C91.8677 337.838 93.3523 333.787 94.0004 332.224C94.282 331.546 94.9404 331.107 95.6796 331.107H103.448C103.881 331.107 104.301 331.199 104.695 331.377C106.19 332.052 111.382 334.436 115.474 336.799C118.19 338.368 119.06 340.154 119.311 341.376C119.437 341.991 119.282 342.622 118.882 343.111C118.476 343.61 117.872 343.896 117.228 343.896L117.23 343.894ZM95.6796 332.021C95.311 332.021 94.9839 332.238 94.8452 332.572C94.2219 334.079 92.7891 337.975 92.9755 341.614C93.0148 342.378 93.6525 342.977 94.429 342.977H117.228C117.596 342.977 117.942 342.813 118.174 342.529C118.397 342.254 118.486 341.9 118.416 341.556C118.11 340.067 116.934 338.694 115.016 337.586C110.962 335.243 105.804 332.876 104.32 332.205C104.045 332.081 103.753 332.019 103.45 332.019H95.6816L95.6796 332.021Z" fill="#008BCE"/>
<path d="M70.2014 330.605H62.4327C61.882 330.605 61.3851 330.933 61.1759 331.44C60.4864 333.103 59.0847 336.993 59.2731 340.681C59.3249 341.69 60.1676 342.479 61.1842 342.479H83.9828C85.0305 342.479 85.8276 341.528 85.6185 340.507C85.3659 339.285 84.5004 337.678 82.0013 336.235C77.9534 333.896 72.8682 331.558 71.2635 330.833C70.9302 330.684 70.572 330.605 70.2055 330.605H70.2014Z" fill="white"/>
<path d="M83.9816 342.937H61.183C59.92 342.937 58.8785 341.957 58.8143 340.706C58.6197 336.881 60.1043 332.83 60.7523 331.267C61.0339 330.587 61.6924 330.15 62.4315 330.15H70.2002C70.6329 330.15 71.0511 330.242 71.4466 330.42C72.9415 331.095 78.1344 333.479 82.2258 335.842C84.9402 337.411 85.8119 339.197 86.0625 340.419C86.1888 341.034 86.0335 341.665 85.6339 342.154C85.2281 342.653 84.6235 342.939 83.9795 342.939L83.9816 342.937ZM62.4336 331.064C62.065 331.064 61.7379 331.281 61.5992 331.617C60.976 333.122 59.5431 337.02 59.7295 340.659C59.7688 341.423 60.4066 342.022 61.183 342.022H83.9816C84.3502 342.022 84.6959 341.858 84.9278 341.574C85.1514 341.299 85.2405 340.945 85.1701 340.601C84.8636 339.112 83.6876 337.739 81.7703 336.631C77.7162 334.288 72.5585 331.921 71.0739 331.25C70.7985 331.126 70.5066 331.064 70.2043 331.064H62.4357H62.4336Z" fill="#008BCE"/>
<path d="M103.033 217.924L107.143 216.389C108.887 215.739 110.794 215.759 112.518 216.466C114.668 217.346 117.585 218.775 119.585 220.666C120.086 221.14 119.78 222.01 119.103 222.01H103.224L103.033 217.924Z" fill="white"/>
<path d="M119.1 222.468H103.221C102.977 222.468 102.776 222.276 102.763 222.033L102.573 217.947C102.563 217.748 102.683 217.566 102.869 217.498L106.979 215.963C108.838 215.269 110.863 215.298 112.687 216.044C114.839 216.924 117.835 218.384 119.895 220.335C120.27 220.689 120.388 221.232 120.195 221.714C120.009 222.18 119.588 222.468 119.098 222.468H119.1ZM103.66 221.555H119.102C119.255 221.555 119.323 221.443 119.348 221.377C119.39 221.271 119.392 221.116 119.27 221C117.311 219.146 114.423 217.742 112.344 216.891C110.735 216.232 108.946 216.207 107.302 216.82L103.505 218.239L103.66 221.557V221.555Z" fill="#008BCE"/>
<path d="M103.342 216.497C99.4558 215.503 84.6163 211.566 81.1689 208.536C77.1935 205.042 75.827 191.315 69.6092 185.961C62.7164 180.028 55.2335 181.063 55.2335 181.063L43.5909 181.722C43.595 181.737 43.6033 181.753 43.6095 181.77C32.6171 183.694 33.0602 199.632 33.0602 199.632L32.4121 238.259C32.4121 238.259 38.5823 239.798 46.941 240.274C53.0615 240.622 61.2918 240.324 64.4101 240.187C72.0752 239.848 73.127 234.871 73.127 234.871C71.4747 234.072 69.9135 232.742 68.5304 231.259C65.2362 227.726 64.4163 222.629 66.1348 218.127C66.9879 215.894 67.1204 213.891 67.0976 212.68C68.9652 214.637 70.6568 216.375 72.0296 217.789C74.3093 220.136 77.4482 221.463 80.732 221.463H104.262L104.274 217.698C104.274 217.133 103.895 216.638 103.342 216.497Z" fill="white"/>
<path d="M53.7101 240.895C51.3973 240.895 49.039 240.852 46.9167 240.731C38.6097 240.259 32.365 238.72 32.3029 238.704C32.0958 238.652 31.953 238.466 31.9571 238.252L32.6052 199.626C32.6011 199.483 32.2843 183.463 43.3512 181.353C43.4154 181.303 43.4879 181.27 43.5686 181.266L55.2112 180.607C55.4887 180.568 62.9426 179.615 69.9099 185.615C73.465 188.676 75.4506 194.334 77.2044 199.327C78.5399 203.13 79.8008 206.723 81.4738 208.191C84.1241 210.521 94.5699 213.779 103.459 216.053C104.212 216.246 104.738 216.923 104.734 217.699L104.722 221.465C104.722 221.717 104.517 221.92 104.264 221.92H80.7346C77.3493 221.92 74.0572 220.531 71.7051 218.107L71.351 217.743C70.2412 216.6 68.9471 215.268 67.5329 213.793C67.4584 215.026 67.2099 216.594 66.5639 218.288C64.862 222.747 65.744 227.595 68.8664 230.944C70.3944 232.582 71.8935 233.762 73.3263 234.454C73.5168 234.545 73.6182 234.754 73.5747 234.962C73.5292 235.179 72.3573 240.288 64.4313 240.64C62.3256 240.734 58.1038 240.893 53.7122 240.893L53.7101 240.895ZM32.8744 237.898C34.2968 238.223 39.8665 239.412 46.9664 239.816C53.0807 240.164 61.1868 239.87 64.3878 239.727C70.5207 239.454 72.1937 236.177 72.5768 235.102C71.1502 234.346 69.678 233.16 68.1934 231.567C64.8309 227.961 63.8764 222.747 65.7047 217.96C66.5184 215.833 66.6612 213.918 66.6385 212.685C66.6343 212.497 66.7482 212.325 66.9221 212.255C67.0981 212.182 67.2969 212.226 67.4273 212.362C69.1355 214.154 70.6967 215.761 72.0032 217.105L72.3573 217.47C74.5396 219.717 77.5916 221.005 80.7326 221.005H103.807L103.819 217.695C103.819 217.339 103.579 217.026 103.231 216.937C98.8662 215.821 84.3581 211.942 80.8692 208.877C79.0161 207.249 77.7779 203.718 76.341 199.628C74.6266 194.742 72.6823 189.206 69.3136 186.305C62.6713 180.586 55.3707 181.504 55.2982 181.512L43.8378 182.16C43.7923 182.187 43.7426 182.204 43.6887 182.214C33.2056 184.049 33.5142 199.458 33.5183 199.613L32.8764 237.892L32.8744 237.898Z" fill="#008BCE"/>
<path d="M67.6027 214.489C67.4805 214.489 67.3583 214.439 67.2672 214.342C64.1407 210.977 61.7182 207.096 60.0659 202.811C59.9748 202.575 60.0929 202.309 60.3289 202.218C60.5629 202.127 60.83 202.245 60.919 202.481C62.5299 206.659 64.8903 210.44 67.936 213.721C68.1079 213.905 68.0975 214.195 67.9132 214.367C67.8263 214.45 67.7145 214.489 67.6027 214.489Z" fill="#008BCE"/>
<path d="M62.1729 160.888C62.1729 160.888 62.6098 164.782 64.5603 166.946C64.7093 167.112 64.7445 167.35 64.6286 167.543L63.8232 168.887C63.7528 169.003 63.6969 169.127 63.6534 169.255L62.3179 173.182C62.1957 173.54 61.8727 173.797 61.4917 173.828C60.6573 173.897 58.5392 173.574 58.3652 174.131C58.1727 174.754 58.3218 179.797 58.3963 181.992C58.417 182.576 58.007 183.084 57.4335 183.191L52.9135 184.026C50.8761 184.403 48.7828 184.152 46.9049 183.324C46.2961 183.055 46.0228 182.34 46.3044 181.738C47.3376 179.53 49.6007 174.257 49.3005 171.03L47.2921 165.41C47.3418 162.715 49.5903 160.578 52.3027 160.644L62.1709 160.891L62.1729 160.888Z" fill="#FFAB99"/>
<path d="M51.0427 184.653C49.5623 184.653 48.0964 184.346 46.7215 183.74C46.3116 183.559 45.9989 183.228 45.8416 182.81C45.6863 182.393 45.7028 181.942 45.8913 181.538C46.8706 179.444 49.1089 174.256 48.8521 171.123L46.8623 165.558C46.8437 165.506 46.8354 165.45 46.8354 165.396C46.8623 163.978 47.4442 162.652 48.4711 161.669C49.5085 160.675 50.8626 160.144 52.3161 160.184L62.1843 160.43C62.412 160.436 62.6004 160.608 62.6273 160.836C62.6315 160.873 63.0725 164.612 64.8987 166.639C65.1886 166.958 65.2362 167.416 65.0209 167.776L64.2175 169.12C64.1637 169.209 64.1202 169.302 64.0871 169.402L62.7516 173.329C62.5714 173.863 62.0911 174.238 61.532 174.283C61.2546 174.306 60.8736 174.292 60.4719 174.275C59.9729 174.254 59.0681 174.219 58.7927 174.333C58.7161 174.82 58.6892 177.056 58.8569 181.975C58.8838 182.791 58.3227 183.491 57.5194 183.638L52.9994 184.473C52.3492 184.593 51.695 184.653 51.0427 184.653ZM47.7547 165.332L49.7342 170.872C49.7466 170.908 49.7549 170.947 49.759 170.984C50.0696 174.333 47.7382 179.753 46.7215 181.928C46.6387 182.106 46.6304 182.304 46.6988 182.489C46.7692 182.675 46.9079 182.822 47.0901 182.903C48.8997 183.7 50.8874 183.932 52.8317 183.574L57.3516 182.739C57.7057 182.675 57.9542 182.367 57.9417 182.006C57.7761 177.197 57.774 174.501 57.9314 173.993C58.1571 173.269 59.2462 173.312 60.5071 173.36C60.8819 173.374 61.2339 173.389 61.4554 173.37C61.6521 173.353 61.8219 173.221 61.884 173.032L63.2195 169.104C63.2733 168.944 63.3437 168.791 63.4307 168.648L64.2361 167.304C64.2444 167.289 64.2361 167.267 64.2196 167.25C62.5466 165.392 61.942 162.408 61.7722 161.333L52.2913 161.097C51.1007 161.072 49.964 161.505 49.1027 162.329C48.2703 163.125 47.792 164.189 47.7506 165.332H47.7547Z" fill="#111111"/>
<path d="M63.0877 159.511C63.4894 160.124 63.2471 160.95 62.5784 161.257L62.1746 161.441L54.4225 165.262C54.2258 165.359 53.9898 165.347 53.8117 165.219C53.4908 164.987 52.9131 164.699 52.3355 165.067C51.53 165.581 51.3664 168.327 53.437 169.056C53.7103 169.151 53.8614 169.441 53.7496 169.706C53.6295 169.994 53.4535 170.377 53.2113 170.794C51.3851 173.936 46.8672 174.122 44.6911 171.208C43.0864 169.06 41.6184 165.529 43.426 160.702C46.2626 153.13 57.8472 151.5 63.0877 159.509V159.511Z" fill="#111111"/>
<path d="M44.2101 157.755C44.2101 157.755 40.8269 153.739 35.8783 155.296C30.9277 156.854 30.6772 165.231 30.1036 170.454C28.0828 188.849 23.5918 195.545 22.1424 197.208C20.5336 199.051 33.1846 197.8 37.4457 196.349C49.7302 192.161 43.2618 180.329 42.6842 178.2C42.1065 176.069 37.5286 164.148 43.2204 162.754L46.1088 160.296L44.2122 157.757L44.2101 157.755Z" fill="#111111"/>
<path d="M42.654 163.496L42.7141 163.519C43.2524 163.715 43.8508 163.44 44.0495 162.906L45.559 158.828C45.7577 158.291 45.4803 157.699 44.9419 157.502L44.8819 157.48C44.3436 157.283 43.7452 157.558 43.5464 158.093L42.037 162.17C41.8382 162.707 42.1157 163.299 42.654 163.496Z" fill="white"/>
<path d="M43.0721 164.04C42.9023 164.04 42.7284 164.011 42.5586 163.949L42.4965 163.927C42.1196 163.79 41.8194 163.514 41.6517 163.15C41.484 162.79 41.4695 162.386 41.6061 162.011L43.1156 157.933C43.3992 157.163 44.2606 156.765 45.037 157.049L45.0991 157.071C45.476 157.208 45.7741 157.484 45.9439 157.848C46.1116 158.208 46.1261 158.612 45.9895 158.985L44.48 163.063C44.2585 163.664 43.6829 164.038 43.0741 164.038L43.0721 164.04ZM44.5214 157.873C44.2833 157.873 44.0597 158.018 43.9728 158.252L42.4633 162.33C42.4116 162.473 42.4178 162.628 42.482 162.767C42.5462 162.908 42.6642 163.013 42.8091 163.067L42.8712 163.09C43.1735 163.2 43.509 163.046 43.6208 162.748L45.1302 158.67C45.1819 158.527 45.1778 158.372 45.1136 158.233C45.0494 158.092 44.9314 157.987 44.7844 157.933L44.7223 157.91C44.656 157.885 44.5877 157.875 44.5214 157.875V157.873Z" fill="#111111"/>
<path d="M56.8407 343.098H65.541L65.541 272.096H56.8407L56.8407 343.098Z" fill="white"/>
<path d="M65.5408 343.555H56.8404C56.5878 343.555 56.3828 343.35 56.3828 343.098V272.096C56.3828 271.844 56.5878 271.639 56.8404 271.639H65.5408C65.7934 271.639 65.9983 271.844 65.9983 272.096V343.098C65.9983 343.35 65.7934 343.555 65.5408 343.555ZM57.3001 342.64H65.0852V272.554H57.3001V342.64Z" fill="#008BCE"/>
<path d="M91.3555 343.305H30.1113V342.884C30.1113 337.808 34.2317 333.687 39.3065 333.687H82.1582C87.233 333.687 91.3534 337.808 91.3534 342.884V343.305H91.3555Z" fill="white"/>
<path d="M91.3561 343.762H30.1119C29.8593 343.762 29.6543 343.557 29.6543 343.304V342.884C29.6543 337.559 33.9838 333.229 39.3071 333.229H82.1588C87.4821 333.229 91.8116 337.559 91.8116 342.884V343.304C91.8116 343.557 91.6066 343.762 91.354 343.762H91.3561ZM30.5695 342.848H90.8985C90.8798 338.046 86.9665 334.144 82.1608 334.144H39.3092C34.5035 334.144 30.5902 338.046 30.5715 342.848H30.5695Z" fill="#008BCE"/>
<path d="M45.1232 274.934H77.9887C80.4004 274.934 82.3555 272.978 82.3555 270.566V267.824C82.3555 265.411 80.4004 263.456 77.9887 263.456H45.1232C42.7115 263.456 40.7565 265.411 40.7565 267.824V270.566C40.7565 272.978 42.7115 274.934 45.1232 274.934Z" fill="white"/>
<path d="M77.9885 275.391H45.1251C42.4645 275.391 40.3008 273.227 40.3008 270.566V267.824C40.3008 265.162 42.4645 262.998 45.1251 262.998H77.9885C80.6492 262.998 82.8129 265.162 82.8129 267.824V270.566C82.8129 273.227 80.6492 275.391 77.9885 275.391ZM45.1251 263.913C42.9697 263.913 41.216 265.668 41.216 267.824V270.566C41.216 272.722 42.9697 274.476 45.1251 274.476H77.9885C80.144 274.476 81.8977 272.722 81.8977 270.566V267.824C81.8977 265.668 80.144 263.913 77.9885 263.913H45.1251Z" fill="#008BCE"/>
<path d="M341.847 347.105L353.422 346.086L345.882 260.405L334.307 261.424L341.847 347.105Z" fill="#1D1D1D"/>
<path d="M242.3 345.879L253.902 346.514L258.598 260.63L246.995 259.995L242.3 345.879Z" fill="#1D1D1D"/>
<path d="M139.973 344.994L151.27 347.715L171.402 264.093L160.105 261.372L139.973 344.994Z" fill="#1D1D1D"/>
<path d="M377.352 290.01C378.909 289.94 380.164 288.708 380.263 287.15L397.132 18.692C397.248 16.8777 389.135 11.3771 387.319 11.4599L184.857 13.5268C183.3 13.5972 186.329 21.6991 186.232 23.2545L159.033 287.33C158.917 289.145 377.352 290.01 377.352 290.01Z" fill="white"/>
<path d="M377.349 290.466C376.807 290.464 322.569 290.246 268.822 289.811C159.892 288.931 159.091 288.074 158.708 287.662C158.621 287.571 158.567 287.424 158.575 287.297L185.776 23.2067C185.805 22.7345 185.411 21.2392 185.03 19.7936C184.123 16.3557 183.616 14.208 184.206 13.4065C184.357 13.1994 184.581 13.0793 184.836 13.069L387.313 11C387.329 11 387.348 11 387.364 11C389.025 11 394.083 14.2785 396.324 16.5607C397.22 17.4741 397.622 18.1596 397.587 18.7188L380.718 287.177C380.604 288.971 379.165 290.383 377.37 290.464C377.362 290.464 377.355 290.464 377.347 290.464L377.349 290.466ZM159.523 287.024C167.008 288.368 304.558 289.263 377.343 289.553C378.666 289.488 379.724 288.445 379.807 287.121L396.675 18.6628C396.678 18.6193 396.673 18.2217 395.673 17.2028C393.325 14.8107 388.482 11.8657 387.339 11.9154L184.923 13.9823C184.602 14.5767 185.455 17.8075 185.916 19.5617C186.42 21.4732 186.728 22.6765 186.689 23.2833L159.525 287.026L159.523 287.024Z" fill="#1D1D1D"/>
<path d="M152.92 289.454H354.494C357.033 289.454 359.165 287.54 359.441 285.016L388.569 17.1537C388.89 14.2108 386.583 11.6406 383.622 11.6406H182.048C179.51 11.6406 177.377 13.5543 177.102 16.0789L147.971 283.941C147.65 286.884 149.957 289.454 152.918 289.454H152.92Z" fill="white"/>
<path d="M354.495 289.912H152.92C151.38 289.912 149.906 289.254 148.877 288.108C147.848 286.961 147.353 285.424 147.52 283.892L176.651 16.0279C176.951 13.2651 179.272 11.1816 182.051 11.1816H383.625C385.165 11.1816 386.64 11.8402 387.669 12.9876C388.698 14.1349 389.192 15.6717 389.025 17.2021L359.895 285.064C359.594 287.827 357.273 289.91 354.495 289.91V289.912ZM182.051 12.097C179.74 12.097 177.81 13.8305 177.56 16.1273L148.429 283.991C148.291 285.265 148.703 286.543 149.558 287.497C150.413 288.452 151.639 288.999 152.92 288.999H354.495C356.805 288.999 358.735 287.266 358.986 284.969L388.116 17.1048C388.255 15.8311 387.843 14.5533 386.987 13.5985C386.132 12.6438 384.907 12.097 383.625 12.097H182.051Z" fill="#1D1D1D"/>
<path d="M347.203 280.66H163.677C162.286 280.66 160.948 280.059 160.008 279.014C159.035 277.93 158.565 276.472 158.721 275.01L185.244 25.0794C185.519 22.4864 187.65 20.5293 190.201 20.5293H373.726C375.118 20.5293 376.455 21.1299 377.395 22.1758C378.368 23.2589 378.838 24.7169 378.683 26.1791L352.162 276.108C351.886 278.701 349.756 280.658 347.205 280.658L347.203 280.66ZM190.201 21.4447C188.118 21.4447 186.379 23.0498 186.153 25.1767L159.632 275.108C159.503 276.311 159.89 277.512 160.69 278.403C161.468 279.27 162.53 279.747 163.679 279.747H347.205C349.288 279.747 351.027 278.142 351.253 276.015L377.774 26.0838C377.903 24.8785 377.515 23.6793 376.716 22.7888C375.938 21.921 374.875 21.4447 373.726 21.4447H190.201Z" fill="#1D1D1D"/>
<path d="M287.103 235.598C275.74 235.598 265.609 221.492 258.116 211.064C252.72 203.552 241.495 187.924 233.884 170.553C224.387 148.871 223.948 132.158 232.582 120.879C238.665 112.932 248.927 108.067 262.257 106.808C272.976 105.795 285.302 107.282 296.961 110.994C309.055 114.844 319.801 120.769 328.041 128.134C328.356 128.413 329.015 129.014 329.901 129.875C330.081 130.051 330.087 130.341 329.909 130.521C329.733 130.702 329.443 130.706 329.263 130.532C328.387 129.681 327.739 129.092 327.431 128.817C311.198 114.309 284.432 105.636 262.339 107.719C249.27 108.954 239.23 113.696 233.304 121.434C224.888 132.429 225.364 148.832 234.719 170.184C242.291 187.469 253.478 203.043 258.855 210.528C266.574 221.274 277.15 235.989 288.637 234.589C294.594 233.864 297.507 229.194 302.334 221.459C306.431 214.889 312.043 205.893 322.13 195.521C323.408 194.208 324.702 192.928 325.977 191.719C326.161 191.545 326.449 191.553 326.623 191.735C326.797 191.919 326.789 192.207 326.607 192.381C325.339 193.583 324.056 194.852 322.786 196.157C312.769 206.458 307.187 215.407 303.11 221.941C298.311 229.635 295.141 234.717 288.749 235.496C288.196 235.562 287.648 235.596 287.101 235.596L287.103 235.598Z" fill="#1D1D1D"/>
<path d="M315.664 109.637C318.546 110.269 320.732 112.806 320.803 115.888L321.426 143.207C321.465 144.944 320.813 146.626 319.614 147.883C318.413 149.14 316.763 149.867 315.028 149.907L295.068 150.362L295.58 172.738C295.662 176.356 292.797 179.355 289.18 179.437L260.294 180.098C256.679 180.181 253.678 177.315 253.596 173.697C253.513 170.078 256.378 167.08 259.995 166.997L282.332 166.487L281.821 144.112C281.738 140.494 284.604 137.495 288.221 137.412L308.181 136.956L307.707 116.188C307.624 112.57 310.489 109.571 314.107 109.488C314.643 109.476 315.165 109.527 315.666 109.639L315.664 109.637Z" fill="white"/>
<path d="M260.139 180.559C258.329 180.559 256.619 179.873 255.304 178.618C253.95 177.324 253.182 175.582 253.138 173.71C253.097 171.837 253.784 170.061 255.076 168.708C256.371 167.354 258.112 166.585 259.984 166.542L281.863 166.041L281.362 144.123C281.275 140.258 284.345 137.044 288.207 136.955L307.711 136.51L307.248 116.197C307.206 114.325 307.894 112.548 309.186 111.195C310.48 109.841 312.221 109.073 314.093 109.029C314.658 109.017 315.215 109.071 315.76 109.191C318.923 109.884 321.184 112.635 321.259 115.878L321.882 143.197C321.926 145.069 321.236 146.844 319.944 148.199C318.65 149.553 316.909 150.321 315.037 150.365L295.535 150.81L296.036 172.728C296.079 174.6 295.39 176.377 294.098 177.73C292.804 179.084 291.062 179.852 289.191 179.896L260.305 180.557C260.249 180.557 260.195 180.557 260.139 180.557V180.559ZM314.261 109.942C314.213 109.942 314.165 109.942 314.118 109.942C312.49 109.98 310.975 110.649 309.85 111.825C308.726 113.001 308.128 114.546 308.165 116.174L308.639 136.943C308.645 137.195 308.444 137.404 308.192 137.411L288.232 137.866C284.873 137.943 282.202 140.739 282.279 144.098L282.791 166.473C282.797 166.726 282.596 166.935 282.343 166.942L260.006 167.453C258.379 167.49 256.863 168.159 255.739 169.336C254.615 170.512 254.016 172.057 254.054 173.685C254.091 175.313 254.76 176.829 255.938 177.953C257.116 179.078 258.661 179.668 260.284 179.639L289.17 178.978C290.797 178.941 292.313 178.272 293.437 177.096C294.561 175.919 295.16 174.374 295.123 172.747L294.613 150.371C294.607 150.118 294.808 149.909 295.06 149.903L315.02 149.447C316.648 149.41 318.163 148.741 319.288 147.565C320.412 146.389 321.01 144.844 320.973 143.216L320.35 115.897C320.286 113.076 318.321 110.686 315.569 110.081C315.143 109.988 314.704 109.94 314.263 109.94L314.261 109.942Z" fill="#1D1D1D"/>
<path d="M199.018 228.274C185.682 228.274 174.832 217.422 174.832 204.082C174.832 190.743 185.682 179.891 199.018 179.891C212.354 179.891 223.204 190.743 223.204 204.082C223.204 217.422 212.354 228.274 199.018 228.274ZM199.018 180.804C186.185 180.804 175.745 191.246 175.745 204.08C175.745 216.915 186.185 227.359 199.018 227.359C211.851 227.359 222.291 216.917 222.291 204.08C222.291 191.244 211.851 180.804 199.018 180.804Z" fill="#1D1D1D"/>
<path d="M266.643 204.755V209.208H200.494V187.441H248.661L266.643 204.755Z" fill="white"/>
<path d="M266.644 209.664H200.497C200.244 209.664 200.039 209.459 200.039 209.207V187.44C200.039 187.187 200.244 186.982 200.497 186.982H240.365C240.617 186.982 240.822 187.187 240.822 187.44C240.822 187.693 240.617 187.898 240.365 187.898H200.954V208.749H266.188V204.754C266.188 204.501 266.393 204.296 266.646 204.296C266.898 204.296 267.103 204.501 267.103 204.754V209.207C267.103 209.459 266.898 209.664 266.646 209.664H266.644Z" fill="#1D1D1D"/>
<path d="M284.747 94.8416H258.708C258.455 94.8416 258.25 94.6366 258.25 94.3839V68.3386C258.25 68.0859 258.455 67.8809 258.708 67.8809H284.747C284.999 67.8809 285.204 68.0859 285.204 68.3386V94.3839C285.204 94.6366 284.999 94.8416 284.747 94.8416ZM259.165 93.9283H284.291V68.7963H259.165V93.9283Z" fill="#1D1D1D"/>
<path d="M245.526 78.2214H207.913C207.66 78.2214 207.455 78.0163 207.455 77.7637V40.1432C207.455 39.8906 207.66 39.6855 207.913 39.6855H245.526C245.778 39.6855 245.983 39.8906 245.983 40.1432V77.7637C245.983 78.0163 245.778 78.2214 245.526 78.2214ZM208.37 77.308H245.068V40.6009H208.37V77.308Z" fill="#1D1D1D"/>
<path d="M357.514 35.8555H319.902V73.4759H357.514V35.8555Z" fill="#1D1D1D"/>
<path d="M235.506 232.635C227.57 232.635 220.031 234.586 213.236 238.086C210.277 239.61 208.078 242.404 207.171 245.782C206.27 249.137 205.494 253.384 205.552 258.676C205.637 266.337 207.399 269.319 205.552 271.197C203.506 273.279 198.282 272.726 193.369 270.458C189.615 268.725 185.263 270.748 184.035 274.921C182.205 281.145 181.213 287.807 181.213 294.737C181.213 329.035 205.521 356.839 235.506 356.839C265.492 356.839 289.8 329.035 289.8 294.737C289.8 260.438 265.492 232.635 235.506 232.635ZM218.389 296.16C214.89 297.8 210.426 295.277 208.418 290.529C206.409 285.778 207.62 280.598 211.12 278.96C214.619 277.319 219.083 279.842 221.091 284.591C223.1 289.342 221.888 294.522 218.389 296.16Z" fill="white"/>
<path d="M235.507 357.297C205.316 357.297 180.756 329.233 180.756 294.737C180.756 287.913 181.712 281.203 183.597 274.793C184.23 272.642 185.713 270.9 187.665 270.013C189.533 269.166 191.68 269.177 193.56 270.044C198.538 272.341 203.443 272.691 205.225 270.879C206.182 269.906 205.998 268.473 205.66 265.873C205.422 264.038 205.128 261.752 205.093 258.685C205.043 254.205 205.577 249.947 206.729 245.666C207.667 242.17 209.963 239.261 213.025 237.682C220.112 234.031 227.676 232.18 235.507 232.18C265.695 232.18 290.258 260.244 290.258 294.74C290.258 329.235 265.697 357.299 235.507 357.299V357.297ZM190.572 270.293C189.715 270.293 188.858 270.477 188.044 270.848C186.334 271.625 185.034 273.157 184.475 275.054C182.613 281.379 181.671 288.002 181.671 294.74C181.671 328.732 205.822 356.384 235.507 356.384C265.192 356.384 289.343 328.729 289.343 294.74C289.343 260.75 265.192 233.095 235.507 233.095C227.823 233.095 220.4 234.911 213.445 238.496C210.611 239.956 208.484 242.657 207.613 245.904C206.484 250.105 205.96 254.282 206.01 258.677C206.043 261.692 206.335 263.947 206.569 265.76C206.929 268.549 207.147 270.233 205.878 271.523C203.801 273.636 198.577 273.371 193.177 270.877C192.336 270.488 191.452 270.295 190.572 270.295V270.293ZM216.123 297.121C215.332 297.121 214.518 296.966 213.704 296.653C211.282 295.723 209.201 293.557 207.996 290.707C205.896 285.741 207.211 280.286 210.926 278.546C212.423 277.844 214.11 277.817 215.804 278.469C218.226 279.399 220.307 281.566 221.512 284.415C223.612 289.382 222.297 294.837 218.582 296.577C217.806 296.941 216.978 297.123 216.123 297.123V297.121ZM213.385 278.915C212.663 278.915 211.965 279.068 211.311 279.372C208.037 280.907 206.925 285.83 208.836 290.351C209.928 292.934 211.87 294.969 214.029 295.798C215.487 296.357 216.926 296.338 218.193 295.746C221.467 294.211 222.578 289.289 220.667 284.77C219.576 282.189 217.634 280.151 215.474 279.323C214.768 279.051 214.064 278.917 213.385 278.917V278.915Z" fill="black"/>
<path d="M211.359 328.288C210.76 328.288 210.149 327.813 209.468 327.283C208.435 326.478 207.019 325.376 204.874 325.073C202.565 324.746 200.933 325.564 199.494 326.287C198.169 326.952 196.919 327.579 195.453 327.138C192.726 326.316 190.794 322.369 190.086 318.821C189.237 314.561 190.02 310.963 192.175 309.197C196.308 305.813 204.072 309.528 207.857 313.389C211.93 317.539 213.255 323.531 212.87 326.271C212.735 327.225 212.412 327.855 211.913 328.139C211.727 328.244 211.541 328.292 211.352 328.292L211.359 328.288ZM203.843 324.084C204.213 324.084 204.598 324.108 205.004 324.166C207.389 324.504 208.917 325.693 210.031 326.56C210.667 327.055 211.218 327.484 211.468 327.339C211.553 327.292 211.841 327.062 211.971 326.14C212.332 323.578 211.069 317.957 207.211 314.027C203.588 310.332 196.337 306.975 192.761 309.903C190.535 311.726 190.384 315.611 190.989 318.641C191.761 322.522 193.707 325.655 195.722 326.262C196.838 326.598 197.832 326.101 199.089 325.469C200.339 324.842 201.847 324.086 203.845 324.086L203.843 324.084Z" fill="#008BCE"/>
<path d="M230.642 351.717C229.006 351.717 227.337 351.472 225.78 350.973C223.026 350.089 221.072 348.544 220.279 346.624C218.384 342.039 223.366 336.02 227.178 333.094C234.108 327.774 243.988 327.757 248.79 329.447C250.005 329.876 251.517 330.63 251.801 331.789C252.037 332.756 251.347 333.349 250.094 334.424C249.096 335.279 247.732 336.451 245.984 338.435C243.303 341.48 242.127 343.714 241.179 345.51C240.179 347.409 239.456 348.78 237.57 349.954C235.711 351.114 233.218 351.717 230.644 351.717H230.642ZM227.453 333.456L227.731 333.819C224.279 336.468 219.434 342.192 221.122 346.274C221.811 347.941 223.565 349.302 226.06 350.103C229.826 351.313 234.257 350.942 237.083 349.18C238.758 348.136 239.398 346.922 240.367 345.085C241.336 343.246 242.543 340.96 245.295 337.833C247.084 335.801 248.535 334.554 249.494 333.732C250.62 332.765 251.006 332.409 250.908 332.009C250.767 331.431 249.86 330.795 248.484 330.313C243.875 328.693 234.392 328.71 227.731 333.823L227.453 333.461V333.456Z" fill="#008BCE"/>
<path d="M262.264 306.95C257.371 307.739 253.686 315.07 255.51 320.981C257.237 326.573 263.862 330.783 268.498 328.777C272.192 327.178 273.356 322.184 273.173 318.902C272.836 312.759 267.43 306.117 262.262 306.95H262.264Z" fill="#008BCE"/>
<path d="M275.525 300.526C275.37 300.526 275.225 300.501 275.091 300.449C273.877 299.989 274.088 297.829 274.382 294.841C274.737 291.237 275.175 286.753 272.931 285.339C271.616 284.51 269.966 285.092 268.372 285.658C266.885 286.184 265.479 286.681 264.547 285.805C263.142 284.483 263.852 280.896 264.984 277.98C266.726 273.496 270.092 268.951 273.689 268.903C275.333 268.876 277.047 269.787 278.623 271.521C282.056 275.298 284.106 282.06 283.501 287.598C282.861 293.463 279.209 298.614 276.817 300.078C276.333 300.376 275.9 300.526 275.525 300.526ZM271.417 284.017C272.107 284.017 272.786 284.166 273.418 284.564C276.14 286.279 275.67 291.075 275.291 294.93C275.107 296.808 274.855 299.382 275.414 299.594C275.546 299.643 275.857 299.594 276.339 299.3C278.569 297.935 281.981 293.074 282.59 287.499C283.17 282.199 281.215 275.737 277.944 272.136C276.55 270.601 275.074 269.802 273.699 269.818C270.531 269.86 267.467 274.114 265.837 278.312C264.61 281.474 264.33 284.345 265.175 285.138C265.701 285.633 266.798 285.243 268.067 284.794C269.088 284.434 270.266 284.017 271.417 284.017Z" fill="#008BCE"/>
<path d="M256.701 266.742C252.852 266.742 248.868 264.259 246.114 261.564C241.95 257.488 239.96 252.607 241.043 249.13C242.511 244.42 249.201 241.939 254.522 242.575C259.428 243.161 265.219 246.617 266.347 252.82C267.474 259.006 263.531 264.903 259.289 266.328C258.444 266.611 257.574 266.74 256.699 266.74L256.701 266.742ZM252.785 243.389C247.835 243.389 242.988 245.973 241.919 249.403C240.95 252.507 242.894 257.132 246.756 260.912C250.76 264.83 255.568 266.617 259.003 265.464C262.892 264.159 266.494 258.714 265.453 252.988C264.407 247.241 258.999 244.033 254.419 243.486C253.876 243.422 253.332 243.391 252.787 243.391L252.785 243.389Z" fill="#008BCE"/>
<path d="M216.542 252.385C217.387 246.781 223.236 241.487 226.932 242.51C230.171 243.407 231.113 248.972 232.127 254.982C233.024 260.292 234.266 267.64 231.608 269.014C227.872 270.942 215.128 261.757 216.54 252.383L216.542 252.385Z" fill="#008BCE"/>
<path d="M351.12 365.256L351.824 376.282L343.228 375.694L339.697 364.434L351.12 365.256Z" fill="white"/>
<path d="M351.823 376.739C351.823 376.739 351.803 376.739 351.792 376.739L343.195 376.153C343.007 376.14 342.848 376.014 342.79 375.834L339.259 364.574C339.214 364.429 339.243 364.271 339.338 364.153C339.431 364.035 339.574 363.973 339.729 363.981L351.15 364.803C351.378 364.82 351.558 365.002 351.573 365.23L352.277 376.256C352.285 376.389 352.237 376.517 352.142 376.61C352.057 376.695 351.941 376.743 351.819 376.743L351.823 376.739ZM343.57 375.258L351.335 375.788L350.689 365.682L340.334 364.936L343.57 375.258Z" fill="#252525"/>
<path d="M385.682 345.787C386.995 346.792 394.519 358.53 394.519 358.53L387.302 366.321L377.438 353.779L385.682 345.787Z" fill="white"/>
<path d="M387.302 366.78C387.302 366.78 387.29 366.78 387.284 366.78C387.149 366.774 387.025 366.712 386.942 366.606L377.078 354.064C376.933 353.879 376.952 353.616 377.119 353.453L385.364 345.461C385.528 345.303 385.781 345.289 385.961 345.426C387.298 346.451 394.129 357.077 394.903 358.287C395.015 358.463 394.994 358.69 394.854 358.844L387.636 366.635C387.549 366.728 387.429 366.782 387.3 366.782L387.302 366.78ZM378.053 353.824L387.331 365.62L393.945 358.481C391.166 354.157 387.021 347.917 385.685 346.426L378.055 353.824H378.053Z" fill="#252525"/>
<path d="M392.439 351.721L400.292 360.224C401.905 361.972 401.971 364.646 400.443 366.466C394.408 373.659 379.964 390.404 377.048 389.507C370.176 387.392 382.206 361.343 382.206 361.343L386.827 363.3L392.439 351.721Z" fill="white"/>
<path d="M377.305 389.999C377.156 389.999 377.025 389.976 376.911 389.941C376.046 389.674 375.4 389.077 374.994 388.162C372.234 381.978 381.398 361.994 381.789 361.147C381.893 360.921 382.156 360.822 382.384 360.917L386.605 362.707L392.028 351.519C392.094 351.382 392.223 351.289 392.372 351.266C392.521 351.245 392.672 351.297 392.776 351.409L400.629 359.913C402.395 361.824 402.466 364.767 400.795 366.76C397.457 370.736 392.513 376.491 387.908 381.334C380.972 388.626 378.485 389.999 377.309 389.999H377.305ZM382.435 361.936C381.135 364.834 373.439 382.442 375.828 387.791C376.129 388.462 376.57 388.88 377.18 389.067C378.539 389.493 385.349 383.736 400.091 366.171C401.468 364.531 401.408 362.108 399.954 360.534L392.556 352.523L387.237 363.5C387.131 363.719 386.87 363.817 386.647 363.721L382.435 361.938V361.936Z" fill="#252525"/>
<path d="M378.003 386.287C377.9 386.287 377.794 386.252 377.707 386.18C377.514 386.016 377.49 385.728 377.653 385.536L398.456 360.965C398.617 360.772 398.905 360.747 399.1 360.911C399.292 361.075 399.317 361.363 399.154 361.555L378.351 386.126C378.26 386.234 378.131 386.287 378.001 386.287H378.003Z" fill="#252525"/>
<path d="M383.968 372.152C383.889 372.152 383.81 372.131 383.738 372.09L379.301 369.495C379.083 369.366 379.009 369.087 379.137 368.869C379.263 368.652 379.545 368.577 379.762 368.706L384.2 371.301C384.417 371.429 384.492 371.709 384.363 371.926C384.278 372.071 384.125 372.152 383.968 372.152Z" fill="#252525"/>
<path d="M380.367 376.434C380.276 376.434 380.182 376.407 380.104 376.349L377.681 374.634C377.476 374.487 377.426 374.203 377.571 373.996C377.718 373.789 378.002 373.741 378.209 373.886L380.632 375.601C380.837 375.748 380.886 376.032 380.741 376.239C380.652 376.365 380.512 376.432 380.367 376.432V376.434Z" fill="#252525"/>
<path d="M387.995 344.515L377.45 356.102C377.45 356.102 348.274 330.158 336.899 315.878C325.525 301.598 305.656 279.534 314.224 239.206L346.396 239.047C346.396 239.047 354.37 304.425 387.995 344.515Z" fill="#252525"/>
<path d="M352.838 372.946L354.989 384.3C354.707 386.826 352.591 388.752 350.051 388.792C340.015 388.945 316.376 388.988 315.059 386.004C311.957 378.969 341.427 370.461 341.427 370.461L343.079 375.568L352.838 372.948V372.946Z" fill="white"/>
<path d="M342.861 389.303C338.519 389.303 333.7 389.237 329.261 389.028C317.027 388.454 315.055 387.131 314.639 386.184C314.252 385.308 314.285 384.376 314.732 383.415C317.791 376.869 340.339 370.295 341.297 370.018C341.535 369.95 341.784 370.082 341.858 370.316L343.378 375.009L352.716 372.501C352.84 372.468 352.971 372.489 353.079 372.555C353.186 372.623 353.261 372.733 353.286 372.857L355.437 384.211C355.445 384.256 355.447 384.302 355.443 384.347C355.137 387.098 352.82 389.202 350.058 389.245C347.962 389.279 345.498 389.301 342.861 389.301V389.303ZM341.13 371.024C337.97 371.973 318.229 378.099 315.565 383.805C315.227 384.526 315.2 385.184 315.48 385.818C316.124 387.28 325.545 388.709 350.045 388.332C352.327 388.297 354.244 386.576 354.53 384.314L352.482 373.516L343.2 376.009C342.962 376.074 342.722 375.939 342.647 375.709L341.132 371.027L341.13 371.024Z" fill="#252525"/>
<path d="M318.7 384.66C318.449 384.66 318.244 384.459 318.242 384.208C318.24 383.955 318.441 383.748 318.694 383.746L353.108 383.367C353.356 383.367 353.567 383.568 353.57 383.819C353.572 384.071 353.371 384.278 353.118 384.281L318.704 384.66H318.7Z" fill="#252525"/>
<path d="M334.295 379.59C334.08 379.59 333.887 379.437 333.846 379.217L332.838 373.814C332.792 373.565 332.956 373.327 333.204 373.28C333.453 373.232 333.691 373.398 333.738 373.646L334.747 379.05C334.792 379.298 334.629 379.536 334.38 379.584C334.351 379.59 334.324 379.592 334.295 379.592V379.59Z" fill="#252525"/>
<path d="M328.315 379.676C328.083 379.676 327.884 379.5 327.86 379.264L327.551 376.105C327.526 375.855 327.71 375.631 327.961 375.606C328.218 375.579 328.435 375.766 328.46 376.016L328.769 379.174C328.793 379.425 328.609 379.649 328.359 379.674C328.344 379.674 328.328 379.676 328.313 379.676H328.315Z" fill="#252525"/>
<path d="M364.709 233.135C364.709 233.135 367.436 254.551 361.827 277.985C356.218 301.419 351.566 358.337 353.263 369.142L339.095 369.212C339.095 369.212 312.743 281.03 333.421 238.225L364.711 233.135H364.709Z" fill="#252525"/>
<path d="M355.213 336.227C354.973 336.227 354.77 336.038 354.758 335.794C354.404 329.284 356.095 314.636 356.112 314.487C356.141 314.236 356.369 314.056 356.619 314.085C356.87 314.114 357.05 314.342 357.021 314.593C357.004 314.74 355.321 329.311 355.671 335.744C355.685 335.997 355.491 336.212 355.24 336.224C355.232 336.224 355.224 336.224 355.215 336.224L355.213 336.227Z" fill="white"/>
<path d="M327.16 304.597C326.93 304.597 326.731 304.423 326.706 304.189C324.826 286.889 324.474 274.018 325.565 262.453C325.59 262.203 325.81 262.018 326.062 262.041C326.313 262.064 326.499 262.287 326.474 262.54C325.392 274.041 325.741 286.856 327.615 304.091C327.642 304.342 327.462 304.568 327.209 304.595C327.193 304.595 327.176 304.597 327.16 304.597Z" fill="white"/>
<path d="M316.184 172.133C300.116 181.844 276.409 184.186 249.701 183.637L256.691 190.567C256.691 190.567 271.344 205.897 326.298 193.924L316.186 172.133H316.184Z" fill="#FFAB99"/>
<path d="M288.937 198.935C281.096 198.935 275.143 198.15 270.785 197.182C260.237 194.844 256.51 191.044 256.357 190.884L249.377 183.965C249.245 183.833 249.206 183.634 249.278 183.462C249.351 183.29 249.52 183.182 249.709 183.182C280.922 183.822 301.973 180.187 315.945 171.742C316.057 171.676 316.189 171.657 316.316 171.696C316.44 171.734 316.541 171.823 316.597 171.941L326.71 193.732C326.768 193.858 326.766 194.003 326.703 194.128C326.641 194.252 326.527 194.341 326.391 194.372C310.775 197.773 298.461 198.932 288.935 198.932L288.937 198.935ZM250.833 184.118L257.011 190.244C257.055 190.29 260.78 194.051 271.112 196.319C280.607 198.402 297.755 199.61 325.639 193.602L315.98 172.788C302.027 181.039 281.28 184.644 250.831 184.118H250.833Z" fill="black"/>
<path d="M366.936 247.614L312.2 234.962L318.368 198.355L311.839 198.216L303.201 171.485C303.201 171.485 341.088 165.533 366.853 166.231C373.065 166.398 378.962 168.979 383.316 173.413C389.366 179.574 397.597 188.991 399.847 196.623L372.736 206.858L370.156 203.054C370.156 203.054 374.959 228.735 366.938 247.614H366.936Z" fill="#008BCE"/>
<path d="M366.936 248.072C366.903 248.072 366.868 248.068 366.833 248.06L312.096 235.408C311.86 235.354 311.709 235.124 311.749 234.886L317.828 198.8L311.827 198.674C311.633 198.67 311.463 198.543 311.403 198.357L302.765 171.626C302.723 171.5 302.74 171.359 302.81 171.245C302.881 171.131 302.996 171.055 303.129 171.034C303.508 170.974 341.349 165.082 366.864 165.776C373.216 165.947 379.173 168.547 383.639 173.095C389.992 179.562 398.036 188.874 400.282 196.495C400.351 196.725 400.229 196.967 400.005 197.052L372.893 207.287C372.695 207.362 372.473 207.292 372.353 207.116L370.922 205.005C371.846 211.477 374.032 232.08 367.355 247.795C367.282 247.967 367.115 248.072 366.934 248.072H366.936ZM312.724 234.615L366.665 247.082C374.334 228.574 369.754 203.392 369.707 203.139C369.668 202.926 369.781 202.715 369.982 202.632C370.183 202.549 370.413 202.619 370.535 202.797L372.912 206.304L399.284 196.346C396.928 188.982 389.155 180.012 382.989 173.732C378.691 169.354 372.955 166.852 366.841 166.687C343.061 166.043 308.485 171.142 303.802 171.854L312.175 197.765L318.378 197.897C318.511 197.899 318.635 197.962 318.72 198.063C318.805 198.164 318.84 198.299 318.819 198.43L312.724 234.613V234.615Z" fill="#008BCE"/>
<path d="M370.156 203.512C369.984 203.512 369.819 203.414 369.742 203.249L364.965 193.016C364.858 192.786 364.957 192.514 365.187 192.407C365.417 192.299 365.688 192.398 365.794 192.628L370.57 202.861C370.678 203.091 370.579 203.363 370.349 203.47C370.287 203.499 370.22 203.514 370.156 203.514V203.512Z" fill="#008BCE"/>
<path d="M347.862 154.439C350.699 155.16 353.829 152.579 354.771 151.8C357.852 149.259 359.511 145.15 358.109 143.974C357.221 143.228 355.726 144.185 354.73 143.413C353.165 142.199 356.283 138.66 355.032 136.47C353.626 134.008 348.897 136.661 342.539 133.822C339.628 132.521 339.046 131.262 337.052 131.415C333.987 131.651 330.681 134.986 331.066 137.601C331.538 140.82 337.153 139.857 341.739 145.067C345.665 149.528 344.644 153.619 347.864 154.437L347.862 154.439Z" fill="#171717"/>
<path d="M334.278 150.771C335.481 149.234 336.495 147.536 337.21 145.218C338.034 142.545 338.856 140.627 338.856 140.627C350.368 142.186 346.79 149.305 346.79 149.305C346.79 149.305 349.972 147.882 349.989 150.796C349.995 151.858 348.627 153.372 347.769 153.817L354.074 166.749C344.018 170.988 338.088 167.869 338.088 167.869L340.171 158.699C338.077 158.993 336.311 158.541 336.311 158.541C335.798 157.442 335.574 156.102 335.551 154.656C335.528 153.347 334.735 152.171 333.545 151.624L334.28 150.769L334.278 150.771Z" fill="#FFAB99"/>
<path d="M343.994 169.443C340.168 169.443 338.019 168.351 337.872 168.273C337.689 168.175 337.592 167.968 337.638 167.767L339.578 159.22C337.718 159.365 336.261 159.001 336.192 158.982C336.06 158.949 335.948 158.858 335.89 158.733C335.383 157.648 335.114 156.279 335.087 154.662C335.068 153.545 334.385 152.516 333.348 152.038C333.217 151.978 333.122 151.86 333.091 151.719C333.06 151.578 333.097 151.431 333.192 151.323L333.921 150.476C335.273 148.749 336.151 147.084 336.77 145.079C337.592 142.414 338.424 140.461 338.433 140.442C338.514 140.253 338.712 140.14 338.913 140.169C343.22 140.753 345.998 142.173 347.168 144.396C348.013 145.999 347.802 147.61 347.531 148.585C348.141 148.455 348.932 148.413 349.554 148.813C350.135 149.188 350.434 149.853 350.44 150.789C350.446 151.88 349.307 153.301 348.355 153.982L354.479 166.545C354.535 166.659 354.541 166.79 354.496 166.906C354.452 167.024 354.361 167.117 354.245 167.167C350.096 168.917 346.64 169.441 343.99 169.441L343.994 169.443ZM338.613 167.604C339.926 168.132 345.263 169.822 353.446 166.512L347.355 154.018C347.245 153.794 347.334 153.527 347.553 153.411C348.301 153.021 349.531 151.638 349.527 150.797C349.523 150.192 349.367 149.784 349.061 149.588C348.467 149.202 347.351 149.554 346.972 149.722C346.796 149.801 346.589 149.76 346.454 149.621C346.321 149.48 346.29 149.273 346.375 149.101C346.386 149.08 347.45 146.887 346.355 144.82C345.357 142.938 342.93 141.697 339.139 141.132C338.874 141.784 338.257 143.366 337.642 145.356C336.988 147.475 336.06 149.233 334.633 151.056C334.629 151.062 334.625 151.066 334.621 151.073L334.25 151.503C335.308 152.201 335.979 153.384 336.002 154.653C336.025 156.039 336.236 157.213 336.629 158.149C337.143 158.251 338.534 158.47 340.102 158.251C340.251 158.23 340.4 158.284 340.501 158.394C340.603 158.503 340.644 158.659 340.611 158.804L338.613 167.608V167.604Z" fill="#121212"/>
<path d="M340.166 159.156C339.963 159.156 339.777 159.019 339.723 158.812C339.661 158.568 339.808 158.317 340.052 158.255L341.251 157.949C341.496 157.884 341.746 158.033 341.808 158.278C341.87 158.522 341.723 158.773 341.479 158.835L340.28 159.141C340.243 159.152 340.204 159.156 340.166 159.156Z" fill="#008BCE"/>
<path d="M240.365 177.18L256.836 158.545L366.976 263.11L375.77 277.416C377.043 279.489 374.834 281.944 372.606 280.931C366.111 277.978 357.594 274.065 357.025 273.608L240.367 177.18H240.365Z" fill="white"/>
<path d="M373.668 281.623C373.25 281.623 372.825 281.532 372.415 281.346C357.462 274.545 356.918 274.108 356.737 273.965L240.073 177.533C239.978 177.454 239.918 177.34 239.908 177.216C239.897 177.092 239.939 176.97 240.022 176.879L256.493 158.243C256.576 158.15 256.692 158.094 256.816 158.09C256.936 158.086 257.06 158.129 257.151 158.214L367.291 262.779C367.32 262.806 367.345 262.837 367.365 262.87L376.159 277.177C376.842 278.287 376.724 279.635 375.861 280.615C375.279 281.275 374.488 281.623 373.668 281.623ZM241.022 177.129L357.315 273.256C357.522 273.414 359.46 274.449 372.794 280.515C373.815 280.979 374.714 280.532 375.175 280.01C375.645 279.478 375.946 278.579 375.38 277.657L366.618 263.402L256.865 159.204L241.022 177.131V177.129Z" fill="#008BCE"/>
<path d="M240.365 177.18L256.836 158.545L281.227 181.701L266.431 198.725L240.365 177.18Z" fill="white"/>
<path d="M266.431 199.182C266.328 199.182 266.224 199.146 266.139 199.076L240.075 177.531C239.98 177.452 239.92 177.338 239.91 177.214C239.899 177.09 239.941 176.968 240.024 176.877L256.495 158.241C256.578 158.148 256.693 158.092 256.818 158.088C256.938 158.084 257.062 158.128 257.153 158.212L281.544 181.369C281.722 181.536 281.734 181.816 281.575 182L266.779 199.024C266.688 199.128 266.562 199.182 266.433 199.182H266.431ZM241.022 177.129L266.377 198.088L280.594 181.731L256.863 159.202L241.02 177.129H241.022Z" fill="#008BCE"/>
<path d="M211.787 165.833C223.887 176.033 233.776 178.566 241.41 176.356C241.412 176.356 241.418 176.354 241.418 176.354L256.071 159.595C256.071 159.595 256.076 159.566 256.078 159.55C257.194 151.7 253.144 142.36 240.919 132.055C222.771 116.756 182.717 112.16 182.717 112.16C182.717 112.16 193.639 150.534 211.787 165.835V165.833Z" fill="#A0D2F4"/>
<path d="M256.366 191.227C256.366 191.227 240.655 185.523 252.024 175.713L256.366 191.227Z" fill="white"/>
<path d="M256.369 191.684C256.317 191.684 256.263 191.676 256.214 191.657C255.899 191.543 248.476 188.793 247.536 183.688C247.041 180.993 248.451 178.196 251.729 175.369C251.847 175.267 252.01 175.232 252.159 175.277C252.309 175.323 252.427 175.441 252.468 175.592L256.81 191.106C256.855 191.272 256.806 191.448 256.679 191.564C256.595 191.643 256.483 191.686 256.369 191.686V191.684ZM251.783 176.543C249.155 178.97 248.029 181.317 248.435 183.522C249.103 187.159 253.735 189.58 255.673 190.446L251.783 176.545V176.543Z" fill="#008BCE"/>
<path d="M396.856 197.922L376.712 205.357C376.712 205.357 380.116 236.833 358.363 247.658C358.363 247.658 346.573 246.2 342.49 253.204C342.49 253.204 350.743 252.831 357.651 254.733C364.558 256.634 405.716 244.765 396.856 197.92V197.922Z" fill="#FFAB99"/>
<path d="M359.423 255.381C358.661 255.381 358.021 255.311 357.529 255.176C350.773 253.316 342.592 253.658 342.509 253.662C342.343 253.666 342.184 253.586 342.097 253.443C342.01 253.3 342.01 253.12 342.093 252.977C346.085 246.128 356.856 247.039 358.276 247.19C379.358 236.576 376.288 205.72 376.255 205.409C376.228 205.158 376.41 204.933 376.66 204.906C376.911 204.877 377.137 205.061 377.163 205.312C377.172 205.39 378 213.358 376.139 222.543C373.664 234.752 367.587 243.58 358.562 248.072C358.481 248.112 358.39 248.128 358.303 248.116C358.193 248.101 347.596 246.873 343.343 252.73C345.671 252.697 352.185 252.759 357.769 254.298C361.496 255.325 374.161 252.331 384.085 243.183C392.189 235.712 400.904 221.814 396.403 198.011C396.355 197.763 396.519 197.525 396.767 197.477C397.016 197.429 397.254 197.593 397.301 197.841C401.881 222.054 392.98 236.228 384.704 243.856C375.824 252.043 364.686 255.385 359.419 255.385L359.423 255.381Z" fill="black"/>
<path d="M136.921 34.4883H63.5957V128.103H136.921V34.4883Z" fill="white"/>
<path d="M136.922 128.562H63.5963C63.3437 128.562 63.1387 128.357 63.1387 128.104V34.4889C63.1387 34.2363 63.3437 34.0312 63.5963 34.0312H136.922C137.175 34.0312 137.38 34.2363 137.38 34.4889V128.106C137.38 128.359 137.175 128.564 136.922 128.564V128.562ZM64.0538 127.648H136.464V34.9466H64.0538V127.648Z" fill="#008BCE"/>
<path d="M132.664 124.301H67.856C67.6034 124.301 67.3984 124.096 67.3984 123.844V38.7487C67.3984 38.496 67.6034 38.291 67.856 38.291H132.664C132.916 38.291 133.121 38.496 133.121 38.7487V123.844C133.121 124.096 132.916 124.301 132.664 124.301ZM68.3136 123.386H132.206V39.2064H68.3136V123.388V123.386Z" fill="#008BCE"/>
<path d="M87.6494 92.8844C82.6366 92.8844 78.7565 91.4554 76.0627 88.6056C73.0853 85.4556 71.7125 80.7439 72.0935 74.9802C72.7374 65.2319 78.1705 54.6261 85.612 48.5869C86.7549 47.6591 97.002 39.6276 104.94 43.0655C107.423 44.1404 108.286 45.7185 109.717 48.3322C110.713 50.1526 111.953 52.4184 114.212 55.4566C117.844 60.3442 121.213 63.2872 123.672 65.4348C126.637 68.0236 128.594 69.7343 128.482 72.5986C128.277 77.9108 121.177 81.4564 115.993 84.0431L115.788 83.633L115.991 84.0431C112.461 85.8056 105.116 89.4734 97.2753 91.5009C93.7057 92.4246 90.4943 92.8844 87.6473 92.8844H87.6494ZM100.605 43.1215C94.0225 43.1215 87.0986 48.5559 86.1876 49.2952C79.0443 55.0921 73.6236 65.6792 73.0045 75.0382C72.6401 80.541 73.928 85.0144 76.7253 87.976C79.241 90.6373 82.8685 91.9669 87.5769 91.9669C94.5567 91.9669 103.915 89.0509 115.583 83.225C120.563 80.7377 127.383 77.3329 127.567 72.5633C127.66 70.1361 125.931 68.6242 123.068 66.1245C120.577 63.9478 117.165 60.9676 113.475 56.0033C111.179 52.9133 109.922 50.6166 108.912 48.7713C107.529 46.2467 106.767 44.8549 104.574 43.9043C103.303 43.3534 101.959 43.1215 100.603 43.1215H100.605Z" fill="#008BCE"/>
<path d="M109.576 99.6206C117.504 91.6904 117.504 78.833 109.576 70.9028C101.648 62.9726 88.7934 62.9726 80.8651 70.9028C72.9369 78.833 72.9369 91.6904 80.8651 99.6206C88.7934 107.551 101.648 107.551 109.576 99.6206Z" fill="#FFAB99"/>
<path d="M124.603 58.8522C125.83 59.1214 126.76 60.2004 126.791 61.5135L127.056 73.1444C127.073 73.8838 126.795 74.6004 126.284 75.1347C125.772 75.669 125.071 75.9797 124.331 75.9962L115.834 76.1909L116.051 85.7156C116.086 87.2565 114.867 88.5322 113.326 88.5675L101.03 88.8491C99.4912 88.8843 98.2137 87.6645 98.1785 86.1236C98.1433 84.5828 99.3628 83.307 100.903 83.2718L110.411 83.0543L110.194 73.5296C110.159 71.9888 111.378 70.713 112.919 70.6778L121.416 70.4831L121.215 61.6419C121.18 60.101 122.4 58.8253 123.94 58.7901C124.168 58.7839 124.391 58.8066 124.605 58.8543L124.603 58.8522Z" fill="white"/>
<path d="M100.966 89.306C100.127 89.306 99.3344 88.9891 98.7257 88.4072C98.0983 87.8086 97.7422 87.0009 97.7215 86.1332C97.6822 84.3438 99.1025 82.8547 100.894 82.8133L109.946 82.6062L109.739 73.5392C109.7 71.7498 111.12 70.2607 112.911 70.2193L120.951 70.035L120.758 61.6514C120.74 60.7837 121.056 59.9615 121.657 59.3339C122.255 58.7064 123.063 58.3502 123.93 58.3316C124.185 58.3233 124.45 58.3502 124.703 58.4061C126.168 58.7271 127.216 60.0008 127.249 61.5023L127.514 73.1333C127.533 74.001 127.214 74.8232 126.616 75.4508C126.017 76.0783 125.21 76.4345 124.342 76.4531L116.302 76.6375L116.509 85.7065C116.528 86.5743 116.211 87.3965 115.611 88.024C115.012 88.6516 114.205 89.0078 113.337 89.0264L101.041 89.3081C101.016 89.3081 100.989 89.3081 100.964 89.3081L100.966 89.306ZM124.007 59.2449C123.988 59.2449 123.97 59.2449 123.951 59.2449C123.328 59.2594 122.748 59.5141 122.317 59.9656C121.887 60.415 121.659 61.0073 121.673 61.6307L121.874 70.472C121.876 70.5942 121.831 70.7101 121.748 70.7992C121.665 70.8862 121.549 70.938 121.427 70.94L112.93 71.1347C111.646 71.1637 110.623 72.2344 110.652 73.5205L110.869 83.0452C110.876 83.2979 110.675 83.5071 110.422 83.5133L100.914 83.7308C99.6305 83.7598 98.6077 84.8305 98.6367 86.1145C98.6512 86.7379 98.9058 87.3178 99.3572 87.7465C99.8086 88.1773 100.403 88.403 101.02 88.3927L113.317 88.111C113.94 88.0965 114.52 87.8418 114.948 87.3903C115.379 86.9409 115.607 86.3486 115.592 85.7272L115.375 76.2025C115.373 76.0803 115.418 75.9644 115.501 75.8753C115.584 75.7883 115.7 75.7366 115.822 75.7345L124.32 75.5398C124.943 75.5253 125.522 75.2706 125.951 74.8191C126.38 74.3697 126.61 73.7774 126.595 73.154L126.33 61.5251C126.305 60.4461 125.554 59.5307 124.502 59.3008C124.338 59.2656 124.17 59.247 124.003 59.247L124.007 59.2449Z" fill="#008BCE"/>
<path d="M93.9324 111.472H76.5938L93.9324 94.127V111.472Z" fill="white"/>
<path d="M93.9323 111.928H76.5917C76.4074 111.928 76.2397 111.816 76.1693 111.646C76.0989 111.474 76.1382 111.279 76.2687 111.147L93.6093 93.8039C93.7398 93.6734 93.9365 93.634 94.1083 93.7044C94.2802 93.7749 94.3899 93.9426 94.3899 94.1269V111.47C94.3899 111.722 94.1849 111.928 93.9323 111.928ZM77.6973 111.014H93.4768V95.2308L77.6973 111.014Z" fill="#008BCE"/>
<path d="M112.618 116.981C118.197 116.981 122.72 112.457 122.72 106.876C122.72 101.295 118.197 96.7715 112.618 96.7715C107.038 96.7715 102.516 101.295 102.516 106.876C102.516 112.457 107.038 116.981 112.618 116.981Z" fill="white"/>
<path d="M112.618 117.439C106.796 117.439 102.061 112.7 102.061 106.877C102.061 101.053 106.798 96.3164 112.618 96.3164C118.438 96.3164 123.176 101.055 123.176 106.877C123.176 112.698 118.438 117.439 112.618 117.439ZM112.618 97.2318C107.301 97.2318 102.974 101.558 102.974 106.879C102.974 112.199 107.299 116.526 112.618 116.526C117.937 116.526 122.263 112.199 122.263 106.879C122.263 101.558 117.937 97.2318 112.618 97.2318Z" fill="#008BCE"/>
<path d="M105.86 74.2729H96.5963C96.3437 74.2729 96.1387 74.0679 96.1387 73.8152V45.6491C96.1387 45.3964 96.3437 45.1914 96.5963 45.1914H105.86C106.112 45.1914 106.317 45.3964 106.317 45.6491V73.8152C106.317 74.0679 106.112 74.2729 105.86 74.2729ZM97.0538 73.3596H105.402V46.1089H97.0538V73.3596Z" fill="#008BCE"/>
<path d="M159.715 29.6198C159.467 29.6198 159.262 29.4209 159.258 29.1703C159.254 28.9177 159.455 28.7085 159.707 28.7044L162.821 28.6484C163.072 28.6484 163.283 28.8452 163.287 29.0979C163.291 29.3505 163.09 29.5597 162.838 29.5638L159.724 29.6198H159.715Z" fill="#008BCE"/>
<path d="M148.819 29.8133C148.571 29.8133 148.366 29.6144 148.361 29.3638C148.357 29.1112 148.558 28.902 148.811 28.8979L151.925 28.8419C152.177 28.8357 152.387 29.0387 152.391 29.2914C152.395 29.544 152.194 29.7532 151.941 29.7573L148.827 29.8133H148.819Z" fill="#008BCE"/>
<path d="M155.814 25.8537C155.561 25.8537 155.358 25.6507 155.356 25.3981L155.348 22.3288C155.348 22.0761 155.551 21.8711 155.803 21.8711C156.056 21.8711 156.259 22.0741 156.261 22.3267L156.269 25.396C156.269 25.6487 156.066 25.8537 155.814 25.8537Z" fill="#008BCE"/>
<path d="M155.845 36.5939C155.592 36.5939 155.389 36.391 155.387 36.1383L155.379 33.069C155.379 32.8164 155.582 32.6113 155.834 32.6113C156.087 32.6113 156.29 32.8143 156.292 33.067L156.3 36.1362C156.3 36.3889 156.097 36.5939 155.845 36.5939Z" fill="#008BCE"/>
<path d="M203.839 383.594C203.839 383.594 203.828 383.594 203.822 383.594C185.722 382.941 168.3 379.215 152.044 372.522C151.81 372.427 151.701 372.157 151.796 371.925C151.891 371.691 152.16 371.582 152.392 371.677C168.547 378.331 185.86 382.032 203.855 382.68C204.108 382.689 204.305 382.902 204.296 383.155C204.288 383.401 204.085 383.596 203.841 383.596L203.839 383.594Z" fill="#008BCE"/>
<path d="M212.036 383.68C211.785 383.68 211.582 383.479 211.578 383.231C211.574 382.978 211.777 382.771 212.028 382.767C214.429 382.729 216.864 382.636 219.27 382.491C219.527 382.475 219.738 382.667 219.755 382.92C219.769 383.173 219.579 383.388 219.326 383.405C216.908 383.55 214.458 383.643 212.042 383.68H212.036Z" fill="#008BCE"/>
<path d="M207.335 374.162C193.243 374.162 179.478 372.087 166.194 367.949C165.954 367.875 165.819 367.618 165.894 367.378C165.968 367.137 166.225 367.003 166.467 367.077C186.783 373.408 208.25 374.877 230.268 371.445C230.525 371.41 230.753 371.578 230.79 371.826C230.83 372.075 230.658 372.309 230.409 372.348C222.643 373.56 214.94 374.164 207.335 374.164V374.162Z" fill="#008BCE"/>
<path d="M144.346 373.573C142.729 373.573 141.263 372.46 140.882 370.82C140.437 368.909 141.63 366.993 143.541 366.548C145.45 366.104 147.367 367.295 147.812 369.207C148.028 370.133 147.87 371.087 147.367 371.893C146.866 372.701 146.079 373.262 145.154 373.477C144.885 373.539 144.613 373.571 144.348 373.571L144.346 373.573ZM141.771 370.613C142.1 372.032 143.526 372.918 144.943 372.589C145.63 372.429 146.214 372.011 146.587 371.41C146.959 370.812 147.077 370.102 146.918 369.414C146.587 367.993 145.164 367.107 143.746 367.438C142.327 367.768 141.441 369.192 141.771 370.611V370.613Z" fill="#008BCE"/>
</g>
</g>
<defs>
<clipPath id="clip0_2414_15026">
<rect width="427" height="425" fill="white"/>
</clipPath>
<clipPath id="clip1_2414_15026">
<rect width="380" height="379" fill="white" transform="translate(22 11)"/>
</clipPath>
</defs>
</svg>
