<svg width="427" height="425" viewBox="0 0 427 425" fill="none" xmlns="http://www.w3.org/2000/svg">
<g clip-path="url(#clip0_2437_12097)">
<path d="M400.041 382.57C388.531 392.16 338.441 398.94 278.761 401.49C187.021 405.42 72.6009 399.37 40.7909 378.2C25.7309 368.19 15.5509 337.25 9.1009 297.66C-6.9291 199.16 0.220901 47.1301 13.1609 30.6501C31.3109 7.56009 323.301 -15.3099 399.911 13.9301C432.741 26.4601 429.231 358.23 400.031 382.57H400.041Z" fill="white"/>
<path d="M373.314 247.44L375.204 241.883L377.358 247.44C377.358 247.44 381.657 248.14 381.712 248.531C381.757 248.913 377.595 250.095 377.595 250.095C377.595 250.095 375.85 255.488 375.204 254.27C374.568 253.051 373.95 250.35 373.95 250.35C373.95 250.35 368.533 249.268 368.533 248.731C368.533 248.158 373.314 247.449 373.314 247.449V247.44Z" fill="white"/>
<path d="M304.094 233.142L305.566 228.822L307.238 233.142C307.238 233.142 310.574 233.688 310.619 233.988C310.656 234.279 307.429 235.198 307.429 235.198C307.429 235.198 306.075 239.381 305.575 238.435C305.075 237.49 304.594 235.389 304.594 235.389C304.594 235.389 300.395 234.543 300.395 234.134C300.395 233.688 304.103 233.142 304.103 233.142H304.094Z" fill="white"/>
<g clip-path="url(#clip1_2437_12097)">
<path d="M255.027 118.803L176.821 109.315C169.218 108.421 156.914 113.354 156.914 122.041L162.998 333.814C162.998 342.502 169.219 350.34 176.821 351.233L250.126 363.319C257.729 364.212 268.851 355.24 268.851 346.552V136.224C268.851 127.536 262.63 119.698 255.027 118.804V118.803Z" fill="black"/>
<path d="M251.207 363.177C250.847 363.177 250.491 363.157 250.151 363.117L176.854 351.032C173.222 350.605 169.804 348.578 167.219 345.32C164.629 342.056 163.203 337.97 163.203 333.814L157.119 122.035C157.119 118.506 159.28 115.222 163.204 112.794C166.624 110.678 171.023 109.415 174.971 109.415C175.605 109.415 176.22 109.449 176.797 109.517L255.003 119.006C258.628 119.432 262.046 121.46 264.632 124.718C267.222 127.982 268.648 132.068 268.648 136.224V346.551C268.648 350.332 266.486 354.477 262.716 357.922C259.171 361.164 254.76 363.176 251.207 363.176V363.177Z" fill="#151515"/>
<path d="M250.126 121.4L169.374 111.912C161.771 111.018 155.551 117.396 155.551 126.083V336.41C155.551 345.098 161.772 352.936 169.375 353.829L250.127 363.318C257.73 364.212 263.951 357.836 263.951 349.148V138.821C263.951 130.133 257.731 122.295 250.127 121.401L250.126 121.4Z" fill="black"/>
<path d="M251.542 363.198C251.083 363.198 250.615 363.17 250.151 363.116L169.398 353.628C165.775 353.202 162.357 351.174 159.772 347.917C157.182 344.653 155.756 340.566 155.756 336.411V126.083C155.756 122.213 157.016 118.645 159.305 116.037C161.571 113.454 164.645 112.032 167.961 112.032C168.42 112.032 168.887 112.06 169.351 112.114L250.104 121.603C253.727 122.028 257.146 124.057 259.731 127.315C262.321 130.579 263.747 134.665 263.747 138.821V349.149C263.747 353.019 262.487 356.587 260.198 359.196C257.933 361.777 254.858 363.199 251.543 363.199H251.542V363.198Z" fill="white"/>
<path d="M253.401 128.436C253.401 128.436 224.786 125.143 216.298 124.076C213.686 123.748 213.366 129.135 209.75 128.711C206.133 128.285 205.814 122.864 203.203 122.537C193.989 121.386 166.099 118.177 166.099 118.177C163.298 117.848 161.008 120.199 161.008 123.398V341.207C161.008 344.407 163.298 347.296 166.099 347.625L253.402 357.883C256.201 358.212 258.494 355.862 258.494 352.662V134.854C258.494 131.655 256.201 128.766 253.402 128.437L253.401 128.436Z" fill="black"/>
<path d="M253.922 357.711C253.758 357.711 253.591 357.701 253.426 357.682L166.123 347.424C163.415 347.106 161.211 344.317 161.211 341.208V123.399C161.211 122.005 161.664 120.72 162.486 119.784C163.296 118.86 164.394 118.352 165.578 118.352C165.742 118.352 165.909 118.362 166.075 118.381C166.354 118.413 194.07 121.603 203.178 122.741C204.276 122.878 204.974 124.071 205.714 125.333C206.63 126.899 207.668 128.672 209.727 128.914C209.87 128.931 210.011 128.939 210.149 128.939C211.95 128.939 212.919 127.508 213.773 126.245C214.491 125.183 215.112 124.267 216.072 124.267C216.137 124.267 216.205 124.271 216.273 124.28C224.665 125.334 253.092 128.607 253.378 128.64C256.086 128.958 258.29 131.746 258.29 134.854V352.663C258.29 354.058 257.837 355.342 257.014 356.28C256.203 357.204 255.105 357.712 253.922 357.712V357.711Z" fill="#008BCE"/>
<path d="M209.751 122.475C208.571 122.336 207.614 123.318 207.613 124.666C207.613 126.015 208.571 127.221 209.751 127.36C210.93 127.499 211.887 126.517 211.887 125.168C211.887 123.819 210.93 122.613 209.751 122.475Z" fill="black"/>
<path d="M217.935 119.835L202.051 117.968C201.549 117.909 201.143 118.327 201.143 118.901C201.143 119.476 201.548 119.988 202.051 120.047L217.935 121.913C218.436 121.972 218.844 121.555 218.844 120.981C218.844 120.406 218.436 119.893 217.935 119.834V119.835Z" fill="black"/>
<path d="M249.719 216.941C249.682 221.009 253.73 233.621 253.73 233.621C253.73 233.621 245.146 225.132 241.955 224.29C225.158 219.856 173.894 214.439 173.894 214.439C169.978 213.949 166.8 210.564 166.832 206.916L167.012 186.755C167.044 183.107 170.275 180.523 174.19 181.014L242.201 189.531C246.117 190.021 249.295 193.407 249.263 197.055C249.263 197.055 249.763 211.901 249.718 216.942L249.719 216.941Z" fill="black"/>
<path d="M251.77 230.508C248.881 227.843 244.424 224.002 242.108 223.391C232.861 220.949 213.191 218.216 198.317 216.354C185.192 214.71 174.294 213.552 173.891 213.51C170.52 213.082 167.8 210.182 167.828 207.04L168.008 186.879C168.036 183.734 170.806 181.519 174.183 181.942L242.194 190.459C245.57 190.882 248.294 193.785 248.266 196.93V196.967C248.271 197.115 248.765 211.852 248.721 216.817C248.695 219.692 250.558 226.436 251.77 230.509V230.508Z" fill="white"/>
<path d="M239.468 196.443L172.66 188.27C172.139 188.206 171.72 187.761 171.723 187.277C171.726 186.792 172.149 186.451 172.669 186.515L239.477 194.687C239.997 194.751 240.417 195.196 240.415 195.68C240.412 196.165 239.988 196.507 239.468 196.443Z" fill="#1A1A1A"/>
<path d="M195.49 194.577L172.03 191.707C171.846 191.685 171.701 191.274 171.703 190.789C171.706 190.304 171.856 189.929 172.039 189.951L195.5 192.821C195.682 192.843 195.828 193.254 195.825 193.74C195.822 194.225 195.673 194.599 195.49 194.577Z" fill="#1A1A1A"/>
<path d="M227.741 202.037L172.458 195.274C172.027 195.222 171.681 194.786 171.684 194.301C171.687 193.815 172.037 193.465 172.468 193.518L227.751 200.281C228.182 200.334 228.528 200.769 228.525 201.254C228.522 201.739 228.172 202.09 227.741 202.037Z" fill="#1A1A1A"/>
<path d="M187.18 200.589L171.875 198.717C171.756 198.702 171.662 198.297 171.664 197.812C171.667 197.327 171.766 196.945 171.885 196.96L187.19 198.833C187.309 198.848 187.403 199.252 187.401 199.737C187.398 200.222 187.299 200.604 187.181 200.589H187.18Z" fill="#1A1A1A"/>
<path d="M206.307 202.93L191.002 201.057C190.883 201.042 190.788 200.638 190.791 200.153C190.794 199.668 190.892 199.287 191.011 199.301L206.316 201.173C206.435 201.188 206.53 201.593 206.527 202.078C206.524 202.563 206.426 202.944 206.307 202.93Z" fill="#1A1A1A"/>
<path d="M215.582 207.577L200.278 205.705C200.159 205.69 200.064 205.286 200.066 204.8C200.069 204.316 200.168 203.934 200.287 203.949L215.591 205.821C215.71 205.836 215.805 206.24 215.803 206.726C215.8 207.21 215.701 207.591 215.582 207.577Z" fill="#1A1A1A"/>
<path d="M181.77 203.442L171.781 202.22C171.703 202.211 171.643 201.81 171.645 201.326C171.648 200.84 171.713 200.455 171.791 200.465L181.78 201.687C181.858 201.696 181.919 202.097 181.916 202.583C181.913 203.067 181.848 203.453 181.77 203.443V203.442Z" fill="#1A1A1A"/>
<path d="M194.49 204.998L184.502 203.776C184.423 203.766 184.362 203.366 184.365 202.88C184.368 202.395 184.433 202.01 184.511 202.02L194.499 203.242C194.578 203.252 194.639 203.652 194.636 204.137C194.634 204.622 194.568 205.008 194.49 204.998Z" fill="#1A1A1A"/>
<path d="M211.489 210.592L172.174 205.782C171.867 205.745 171.622 205.322 171.625 204.837C171.628 204.351 171.878 203.989 172.184 204.027L211.498 208.837C211.805 208.874 212.05 209.298 212.048 209.782C212.046 210.267 211.795 210.63 211.489 210.592Z" fill="#1A1A1A"/>
<path d="M170.71 159.473C170.702 163.544 166.52 175.149 166.52 175.149C166.52 175.149 175.187 168.772 178.382 168.711C195.206 168.389 246.459 175.514 246.459 175.514C250.375 175.983 253.586 173.378 253.594 169.727L253.64 149.549C253.648 145.899 250.45 142.529 246.534 142.061L178.52 133.937C174.604 133.469 171.392 136.074 171.384 139.724C171.384 139.724 170.72 154.429 170.709 159.473H170.71Z" fill="black"/>
<path d="M168.512 172.519C171.426 170.563 175.92 167.818 178.239 167.774C187.502 167.597 207.176 169.677 222.049 171.454C235.173 173.022 246.071 174.53 246.473 174.585C249.845 174.983 252.592 172.752 252.599 169.607L252.644 149.429C252.651 146.281 249.909 143.392 246.533 142.989L178.52 134.865C175.144 134.462 172.391 136.695 172.384 139.842V139.879C172.377 140.026 171.72 154.622 171.708 159.591C171.701 162.468 169.767 168.748 168.512 172.518V172.519Z" fill="white"/>
<path d="M247.982 149.682L181.174 141.509C180.654 141.445 180.233 141.001 180.236 140.515C180.239 140.031 180.663 139.689 181.183 139.753L247.991 147.926C248.512 147.99 248.93 148.434 248.928 148.919C248.925 149.404 248.502 149.746 247.981 149.682H247.982Z" fill="#1A1A1A"/>
<path d="M204.005 147.816L180.544 144.946C180.362 144.924 180.216 144.512 180.219 144.027C180.222 143.542 180.372 143.167 180.554 143.189L204.015 146.059C204.198 146.081 204.344 146.493 204.341 146.978C204.338 147.463 204.188 147.838 204.005 147.816Z" fill="#1A1A1A"/>
<path d="M236.257 155.275L180.974 148.513C180.543 148.459 180.196 148.024 180.199 147.539C180.202 147.053 180.553 146.703 180.984 146.756L236.267 153.519C236.697 153.571 237.044 154.007 237.042 154.493C237.039 154.977 236.688 155.328 236.258 155.275H236.257Z" fill="#1A1A1A"/>
<path d="M195.696 153.828L180.391 151.956C180.272 151.942 180.178 151.537 180.18 151.051C180.183 150.567 180.282 150.186 180.4 150.2L195.705 152.072C195.824 152.086 195.918 152.491 195.916 152.977C195.913 153.462 195.815 153.842 195.696 153.828Z" fill="#1A1A1A"/>
<path d="M214.823 156.168L199.519 154.296C199.4 154.281 199.306 153.876 199.309 153.391C199.312 152.907 199.411 152.524 199.529 152.539L214.833 154.412C214.953 154.427 215.047 154.831 215.044 155.316C215.041 155.802 214.943 156.183 214.823 156.168Z" fill="#1A1A1A"/>
<path d="M224.096 160.816L208.791 158.944C208.672 158.929 208.578 158.525 208.58 158.04C208.583 157.555 208.681 157.173 208.801 157.188L224.105 159.06C224.224 159.075 224.318 159.48 224.315 159.965C224.312 160.45 224.214 160.83 224.095 160.816H224.096Z" fill="#1A1A1A"/>
<path d="M190.283 156.68L180.294 155.459C180.217 155.449 180.156 155.048 180.158 154.564C180.161 154.079 180.226 153.693 180.304 153.703L190.292 154.925C190.371 154.935 190.432 155.335 190.429 155.821C190.426 156.305 190.361 156.691 190.282 156.681L190.283 156.68Z" fill="#1A1A1A"/>
<path d="M203.004 158.236L193.015 157.014C192.937 157.004 192.876 156.604 192.879 156.119C192.882 155.633 192.947 155.248 193.024 155.258L203.013 156.48C203.091 156.49 203.152 156.89 203.149 157.375C203.146 157.861 203.081 158.246 203.003 158.236H203.004Z" fill="#1A1A1A"/>
<path d="M220.005 163.83L180.691 159.021C180.384 158.984 180.139 158.559 180.141 158.075C180.144 157.591 180.394 157.227 180.7 157.264L220.014 162.074C220.321 162.112 220.566 162.535 220.564 163.019C220.561 163.505 220.311 163.867 220.004 163.829L220.005 163.83Z" fill="#1A1A1A"/>
<path d="M170.725 255.96C170.711 260.029 168.178 271.837 168.178 271.837C168.178 271.837 173.388 265.036 175.304 264.819C185.393 263.674 216.106 268.285 216.106 268.285C218.453 268.561 220.384 265.8 220.396 262.15L220.468 241.976C220.481 238.325 218.572 235.114 216.225 234.838L175.465 230.048C173.118 229.772 171.187 232.533 171.174 236.183C171.174 236.183 170.743 250.915 170.725 255.96Z" fill="black"/>
<path d="M169.377 269.109C171.128 267.013 173.829 264.047 175.219 263.889C180.773 263.258 192.564 264.374 201.477 265.422C209.344 266.346 215.873 267.32 216.115 267.356C218.135 267.588 219.788 265.223 219.799 262.079L219.871 241.904C219.882 238.758 218.245 236.004 216.222 235.766L175.462 230.976C173.438 230.738 171.783 233.105 171.771 236.252V236.289C171.766 236.436 171.34 251.062 171.322 256.029C171.311 258.906 170.137 265.279 169.377 269.109Z" fill="white"/>
<path d="M217.077 242.385L177.04 237.487C176.729 237.449 176.478 237.024 176.48 236.54C176.483 236.055 176.738 235.692 177.05 235.731L217.087 240.63C217.399 240.668 217.65 241.092 217.647 241.576C217.644 242.062 217.39 242.424 217.078 242.386L217.077 242.385Z" fill="#1A1A1A"/>
<path d="M190.714 242.674L176.654 240.954C176.545 240.94 176.458 240.537 176.461 240.051C176.464 239.567 176.555 239.185 176.664 239.198L190.724 240.918C190.834 240.931 190.92 241.335 190.917 241.819C190.914 242.305 190.824 242.686 190.714 242.673V242.674Z" fill="#1A1A1A"/>
<path d="M210.033 248.552L176.902 244.499C176.644 244.467 176.437 244.049 176.439 243.564C176.442 243.079 176.654 242.711 176.911 242.743L210.042 246.796C210.3 246.827 210.506 247.246 210.504 247.731C210.501 248.216 210.29 248.583 210.033 248.552Z" fill="#1A1A1A"/>
<path d="M185.718 249.092L176.546 247.97C176.475 247.961 176.419 247.561 176.422 247.077C176.425 246.592 176.485 246.206 176.556 246.215L185.728 247.337C185.799 247.346 185.855 247.746 185.852 248.23C185.849 248.716 185.789 249.101 185.718 249.093V249.092Z" fill="#1A1A1A"/>
<path d="M197.181 250.493L188.009 249.372C187.937 249.363 187.882 248.962 187.885 248.478C187.888 247.994 187.948 247.607 188.019 247.616L197.191 248.738C197.262 248.747 197.318 249.147 197.315 249.633C197.312 250.117 197.252 250.503 197.181 250.494V250.493Z" fill="#1A1A1A"/>
<path d="M202.73 254.688L193.559 253.566C193.487 253.557 193.432 253.157 193.434 252.672C193.437 252.187 193.497 251.802 193.568 251.81L202.739 252.931C202.811 252.94 202.867 253.341 202.864 253.825C202.861 254.31 202.8 254.696 202.729 254.688H202.73Z" fill="#1A1A1A"/>
<path d="M182.466 252.208L176.48 251.475C176.433 251.469 176.398 251.072 176.401 250.586C176.404 250.101 176.444 249.713 176.49 249.719L182.476 250.451C182.523 250.456 182.559 250.855 182.556 251.34C182.553 251.825 182.513 252.214 182.466 252.208Z" fill="#1A1A1A"/>
<path d="M190.091 253.141L184.105 252.409C184.059 252.403 184.023 252.005 184.026 251.52C184.029 251.036 184.069 250.646 184.115 250.652L190.101 251.385C190.148 251.391 190.184 251.788 190.182 252.274C190.179 252.758 190.139 253.147 190.092 253.141H190.091Z" fill="#1A1A1A"/>
<path d="M200.27 257.901L176.708 255.019C176.525 254.997 176.378 254.586 176.381 254.1C176.384 253.615 176.534 253.241 176.719 253.263L200.28 256.145C200.463 256.167 200.61 256.579 200.607 257.063C200.604 257.549 200.454 257.924 200.27 257.901Z" fill="#1A1A1A"/>
<path d="M166.112 306.721C166.108 309.595 162.488 317.706 162.488 317.706C162.488 317.706 170.006 313.375 172.779 313.395C187.381 313.502 231.874 319.547 231.874 319.547C235.274 319.955 238.058 318.18 238.062 315.603L238.083 301.359C238.087 298.781 235.308 296.34 231.909 295.931L172.869 288.848C169.47 288.44 166.685 290.215 166.681 292.792C166.681 292.792 166.118 303.161 166.113 306.721H166.112Z" fill="black"/>
<path d="M164.214 315.887C166.741 314.565 170.64 312.715 172.652 312.73C180.691 312.789 197.769 314.647 210.68 316.197C222.073 317.563 231.532 318.844 231.882 318.892C234.809 319.24 237.192 317.72 237.195 315.499L237.216 301.254C237.219 299.033 234.836 296.938 231.905 296.587L172.865 289.503C169.934 289.151 167.547 290.673 167.544 292.895V292.921C167.538 293.024 166.981 303.317 166.976 306.824C166.973 308.855 165.299 313.25 164.213 315.887H164.214Z" fill="white"/>
<path d="M233.172 301.34L175.178 294.245C174.726 294.19 174.361 293.868 174.363 293.526C174.365 293.183 174.733 292.951 175.185 293.006L233.179 300.1C233.63 300.155 233.995 300.478 233.993 300.82C233.991 301.162 233.623 301.395 233.172 301.339V301.34Z" fill="#1A1A1A"/>
<path d="M194.999 299.151L174.633 296.659C174.475 296.64 174.348 296.347 174.35 296.004C174.352 295.662 174.482 295.4 174.64 295.42L195.006 297.912C195.164 297.931 195.291 298.225 195.29 298.567C195.288 298.909 195.158 299.171 195 299.152L194.999 299.151Z" fill="#1A1A1A"/>
<path d="M222.999 305.058L175.009 299.187C174.635 299.142 174.334 298.827 174.336 298.484C174.338 298.142 174.642 297.902 175.016 297.948L223.005 303.818C223.379 303.864 223.68 304.178 223.678 304.521C223.676 304.863 223.372 305.103 222.998 305.057L222.999 305.058Z" fill="#1A1A1A"/>
<path d="M187.791 303.231L174.507 301.606C174.403 301.593 174.321 301.305 174.322 300.963C174.324 300.621 174.409 300.354 174.513 300.367L187.797 301.992C187.901 302.005 187.983 302.293 187.982 302.634C187.98 302.977 187.895 303.244 187.79 303.231H187.791Z" fill="#1A1A1A"/>
<path d="M204.397 305.263L191.112 303.638C191.008 303.625 190.926 303.338 190.928 302.995C190.93 302.653 191.015 302.386 191.119 302.398L204.404 304.023C204.507 304.035 204.589 304.323 204.588 304.665C204.586 305.008 204.501 305.275 204.398 305.263H204.397Z" fill="#1A1A1A"/>
<path d="M212.45 308.729L199.165 307.104C199.062 307.091 198.979 306.803 198.98 306.461C198.982 306.119 199.068 305.852 199.172 305.864L212.457 307.489C212.56 307.501 212.643 307.789 212.641 308.131C212.639 308.474 212.554 308.741 212.45 308.729Z" fill="#1A1A1A"/>
<path d="M183.098 305.138L174.428 304.077C174.361 304.069 174.307 303.785 174.309 303.443C174.311 303.1 174.367 302.829 174.435 302.838L183.106 303.899C183.174 303.908 183.227 304.191 183.226 304.533C183.224 304.876 183.168 305.147 183.099 305.139L183.098 305.138Z" fill="#1A1A1A"/>
<path d="M194.142 306.489L185.471 305.429C185.404 305.421 185.351 305.136 185.352 304.794C185.354 304.452 185.41 304.181 185.477 304.189L194.148 305.249C194.215 305.257 194.27 305.542 194.267 305.884C194.265 306.226 194.208 306.497 194.141 306.488L194.142 306.489Z" fill="#1A1A1A"/>
<path d="M208.902 310.775L174.775 306.6C174.508 306.567 174.295 306.264 174.297 305.922C174.299 305.579 174.516 305.328 174.782 305.361L208.91 309.536C209.175 309.568 209.39 309.872 209.388 310.215C209.386 310.557 209.168 310.808 208.903 310.775H208.902Z" fill="#1A1A1A"/>
<path d="M191.859 278.863C191.859 281.957 189.169 284.149 185.852 283.759C182.534 283.368 179.844 280.545 179.844 277.451C179.844 274.357 182.534 272.165 185.852 272.556C189.169 272.946 191.859 275.77 191.859 278.863Z" fill="white"/>
<path d="M184.389 276.507C184.389 277.045 183.921 277.426 183.343 277.358C182.766 277.29 182.297 276.799 182.297 276.261C182.297 275.722 182.765 275.341 183.343 275.408C183.92 275.476 184.389 275.967 184.389 276.506V276.507Z" fill="black"/>
<path d="M189.408 277.098C189.408 277.636 188.94 278.017 188.362 277.949C187.784 277.881 187.316 277.39 187.316 276.851C187.316 276.313 187.784 275.932 188.362 275.999C188.94 276.067 189.408 276.558 189.408 277.097V277.098Z" fill="black"/>
<path d="M188.281 280.916C188.281 281.554 187.194 281.945 185.852 281.786C184.511 281.628 183.424 280.983 183.424 280.345C183.424 279.708 184.511 280.848 185.852 281.005C187.194 281.163 188.281 280.277 188.281 280.916Z" fill="black"/>
<path d="M206.113 226.655C206.113 229.749 203.423 231.941 200.105 231.551C196.787 231.16 194.098 228.337 194.098 225.243C194.098 222.149 196.787 219.957 200.105 220.348C203.423 220.738 206.113 223.562 206.113 226.655Z" fill="white"/>
<path d="M198.643 224.299C198.643 224.837 198.175 225.218 197.597 225.15C197.019 225.082 196.551 224.591 196.551 224.053C196.551 223.514 197.019 223.133 197.597 223.2C198.174 223.268 198.643 223.759 198.643 224.298V224.299Z" fill="black"/>
<path d="M203.662 224.889C203.662 225.427 203.194 225.808 202.616 225.74C202.039 225.672 201.57 225.181 201.57 224.642C201.57 224.104 202.038 223.723 202.616 223.79C203.193 223.858 203.662 224.349 203.662 224.888V224.889Z" fill="black"/>
<path d="M202.534 228.707C202.534 229.345 201.447 229.736 200.106 229.577C198.765 229.419 197.678 228.774 197.678 228.136C197.678 227.499 198.765 228.639 200.106 228.796C201.447 228.954 202.534 228.068 202.534 228.707Z" fill="black"/>
<path d="M208.871 281.835C208.871 284.929 206.181 287.121 202.863 286.73C199.545 286.34 196.855 283.517 196.855 280.423C196.855 277.329 199.545 275.137 202.863 275.527C206.181 275.918 208.871 278.742 208.871 281.835Z" fill="white"/>
<path d="M201.4 279.478C201.4 280.017 200.932 280.398 200.354 280.331C199.777 280.263 199.309 279.772 199.309 279.233C199.309 278.695 199.776 278.314 200.354 278.381C200.931 278.449 201.4 278.94 201.4 279.478Z" fill="black"/>
<path d="M206.42 280.068C206.42 280.607 205.952 280.988 205.374 280.92C204.797 280.852 204.328 280.361 204.328 279.822C204.328 279.284 204.796 278.903 205.374 278.97C205.952 279.038 206.42 279.529 206.42 280.067V280.068Z" fill="black"/>
<path d="M205.292 283.887C205.292 284.525 204.205 284.914 202.864 284.757C201.522 284.599 200.436 283.954 200.436 283.316C200.436 282.679 201.522 283.818 202.864 283.976C204.205 284.134 205.292 283.248 205.292 283.887Z" fill="black"/>
<path d="M226.572 330.513C226.572 333.606 223.882 335.798 220.564 335.408C217.246 335.018 214.557 332.194 214.557 329.101C214.557 326.007 217.246 323.815 220.564 324.205C223.882 324.595 226.572 327.419 226.572 330.513Z" fill="white"/>
<path d="M219.1 328.156C219.1 328.695 218.632 329.076 218.054 329.008C217.477 328.94 217.008 328.448 217.008 327.91C217.008 327.372 217.476 326.99 218.054 327.057C218.631 327.125 219.1 327.617 219.1 328.155V328.156Z" fill="black"/>
<path d="M224.119 328.746C224.119 329.284 223.651 329.666 223.073 329.598C222.495 329.53 222.027 329.038 222.027 328.5C222.027 327.962 222.495 327.58 223.073 327.647C223.651 327.715 224.119 328.207 224.119 328.745V328.746Z" fill="black"/>
<path d="M222.991 332.564C222.991 333.203 221.905 333.592 220.563 333.435C219.222 333.277 218.135 332.631 218.135 331.994C218.135 331.356 219.222 332.496 220.563 332.653C221.905 332.811 222.991 331.926 222.991 332.564Z" fill="black"/>
<path d="M302.256 51.542L317.57 89.5266L259.533 112.876L244.209 74.8714L302.256 51.542Z" fill="#86B1D8"/>
<path d="M317.56 89.4986L284.317 82.863L280.832 82.1665L302.064 51.8192L302.256 51.542L302.65 52.5187L317.56 89.4986Z" fill="black"/>
<path d="M281.178 82.0289L302.208 51.9678L317.23 89.2259L281.178 82.0289Z" fill="#A0C1FD"/>
<path d="M244.211 74.8711L259.48 112.744L280.834 82.1662L244.211 74.8711Z" fill="black"/>
<path d="M244.539 75.1445L280.486 82.3056L259.527 112.319L244.539 75.1445Z" fill="#A0C1FD"/>
<path d="M280.832 82.1661C277.04 83.6882 269.972 95.8107 269.972 95.8107L259.479 112.744L259.532 112.876L317.57 89.5263L317.559 89.4982L297.398 84.3156C297.398 84.3156 284.458 80.7101 280.832 82.1671V82.1661Z" fill="black"/>
<path d="M270.147 95.9182C270.22 95.7931 277.226 83.8347 280.909 82.3557C281.457 82.1355 282.278 82.0234 283.346 82.0234C288.358 82.0234 297.256 84.4862 297.346 84.5112L316.959 89.5537L259.854 112.528L270.147 95.9172V95.9182Z" fill="#B9D1FE"/>
<path d="M302.256 51.542C302.256 51.542 290.884 80.2982 281.665 84.0078C273.542 87.2761 244.209 74.8714 244.209 74.8714L302.256 51.542Z" fill="black"/>
<path d="M278.046 84.3529C268.127 84.3529 248.035 76.2322 244.746 74.8743L301.887 51.9092C301.204 53.5894 298.62 59.8087 295.235 66.2923C290.03 76.2603 285.312 82.3205 281.588 83.8186C280.707 84.1728 279.515 84.3519 278.046 84.3519V84.3529Z" fill="#B9D1FE"/>
<path d="M129.465 135.918L114.134 161.345L75.2832 137.969L90.6227 112.528L129.465 135.918Z" fill="#86B1D8"/>
<path d="M114.144 161.326L103.488 139.208L102.371 136.89L129.22 135.927L129.465 135.918L129.071 136.571L114.144 161.326Z" fill="black"/>
<path d="M102.602 137.029L129.197 136.076L114.159 161.016L102.602 137.029Z" fill="#A0C1FD"/>
<path d="M90.6233 112.529L75.3359 137.881L102.371 136.889L90.6233 112.529Z" fill="black"/>
<path d="M90.6084 112.839L102.141 136.751L75.6035 137.723L90.6084 112.839Z" fill="#A0C1FD"/>
<path d="M102.372 136.889C99.8352 135.361 89.7271 136.562 89.7271 136.562L75.3363 137.881L75.2832 137.97L114.134 161.344L114.145 161.325L108.353 147.406C108.353 147.406 104.798 138.351 102.372 136.889Z" fill="black"/>
<path d="M89.7403 136.708C89.8445 136.696 99.8314 135.531 102.295 137.015C102.661 137.236 103.084 137.661 103.55 138.278C105.737 141.176 108.191 147.397 108.215 147.46L113.85 161.001L75.623 138.002L89.7393 136.708H89.7403Z" fill="#B9D1FE"/>
<path d="M129.466 135.918C129.466 135.918 107.84 141.886 101.668 138.173C96.2301 134.902 90.623 112.528 90.623 112.528L129.466 135.918Z" fill="black"/>
<path d="M99.8896 136.232C95.5629 130.496 91.5036 115.336 90.8555 112.842L129.092 135.866C127.821 136.204 123.088 137.423 117.854 138.294C109.807 139.633 104.236 139.548 101.744 138.048C101.155 137.694 100.531 137.083 99.8896 136.232Z" fill="#B9D1FE"/>
<path d="M120.857 46.1846L132.237 73.6038L90.3425 90.955L78.9551 63.5207L120.857 46.1846Z" fill="#86B1D8"/>
<path d="M132.229 73.5838L108.085 69.0186L105.555 68.5392L120.72 46.3867L120.857 46.1846L121.15 46.8891L132.229 73.5838Z" fill="black"/>
<path d="M105.803 68.4376L120.826 46.4932L131.988 73.388L105.803 68.4376Z" fill="#A0C1FD"/>
<path d="M78.957 63.5205L90.3033 90.8597L105.556 68.539L78.957 63.5205Z" fill="black"/>
<path d="M79.1973 63.7168L105.306 68.6423L90.3352 90.5516L79.1973 63.7168Z" fill="#A0C1FD"/>
<path d="M105.554 68.5396C102.817 69.6714 97.7841 78.5096 97.7841 78.5096L90.3027 90.8602L90.3428 90.9553L132.238 73.6041L132.23 73.5841L117.579 69.9756C117.579 69.9756 108.173 67.4578 105.555 68.5396H105.554Z" fill="black"/>
<path d="M97.9104 78.5857C97.9625 78.4946 102.951 69.7755 105.611 68.6758C106.007 68.5116 106.6 68.4256 107.374 68.4176C111.007 68.3806 117.475 70.1008 117.541 70.1178L131.794 73.6282L90.5723 90.7002L97.9104 78.5847V78.5857Z" fill="#B9D1FE"/>
<path d="M120.857 46.1846C120.857 46.1846 112.827 67.1112 106.172 69.8682C100.308 72.2969 78.9551 63.5217 78.9551 63.5217L120.857 46.1856V46.1846Z" fill="black"/>
<path d="M103.552 70.1447C96.3622 70.2178 81.739 64.4788 79.3457 63.5191L120.595 46.4531C120.112 47.676 118.284 52.2032 115.878 56.9275C112.179 64.1906 108.803 68.6177 106.116 69.7314C105.481 69.9946 104.618 70.1337 103.552 70.1447Z" fill="#B9D1FE"/>
<path d="M348.831 155.589L369.09 177.303L335.911 208.191L315.641 186.465L348.831 155.589Z" fill="#86B1D8"/>
<path d="M369.076 177.287L344.858 181.442L342.318 181.877L348.774 155.826L348.832 155.589L349.353 156.147L369.076 177.287Z" fill="black"/>
<path d="M342.516 181.694L348.909 155.889L368.781 177.188L342.516 181.694Z" fill="#A0C1FD"/>
<path d="M315.641 186.464L335.841 208.115L342.317 181.877L315.641 186.464Z" fill="black"/>
<path d="M315.936 186.564L342.12 182.061L335.763 207.816L315.936 186.564Z" fill="#A0C1FD"/>
<path d="M342.317 181.877C340.15 183.893 338.527 193.932 338.527 193.932L335.84 208.116L335.911 208.192L369.089 177.304L369.074 177.288L354.085 179.024C354.085 179.024 344.391 179.95 342.316 181.878L342.317 181.877Z" fill="black"/>
<path d="M338.672 193.959C338.689 193.855 340.312 183.944 342.419 181.986C342.732 181.694 343.258 181.405 343.98 181.128C347.371 179.825 354.033 179.178 354.099 179.171L368.683 177.482L336.037 207.874L338.672 193.96V193.959Z" fill="#B9D1FE"/>
<path d="M348.831 155.589C348.831 155.589 348.631 178 343.361 182.906C338.717 187.229 315.641 186.465 315.641 186.465L348.831 155.589Z" fill="black"/>
<path d="M341.004 184.081C334.294 186.66 318.584 186.391 316.006 186.328L348.678 155.934C348.654 157.248 348.526 162.128 347.926 167.394C347.002 175.49 345.389 180.817 343.261 182.798C342.758 183.267 341.997 183.698 341.003 184.08L341.004 184.081Z" fill="#B9D1FE"/>
<path d="M383.117 284.019L368.813 305.718L335.656 283.909L349.968 262.197L383.117 284.019Z" fill="#86B1D8"/>
<path d="M368.824 305.701L360.281 285.982L359.387 283.915L382.903 284.017L383.117 284.018L382.75 284.575L368.824 305.701Z" fill="black"/>
<path d="M359.584 284.046L382.879 284.147L368.848 305.432L359.584 284.046Z" fill="white"/>
<path d="M349.97 262.197L335.707 283.833L359.387 283.915L349.97 262.197Z" fill="black"/>
<path d="M349.944 262.469L359.189 283.787L335.945 283.706L349.944 262.469Z" fill="white"/>
<path d="M359.387 283.916C357.222 282.49 348.339 283.185 348.339 283.185L335.706 283.834L335.656 283.91L368.813 305.718L368.824 305.702L364.248 293.324C364.248 293.324 361.457 285.28 359.387 283.916Z" fill="black"/>
<path d="M348.345 283.315C348.437 283.308 357.212 282.639 359.315 284.025C359.629 284.231 359.982 284.618 360.368 285.174C362.178 287.786 364.106 293.313 364.126 293.368L368.577 305.41L335.953 283.952L348.345 283.316V283.315Z" fill="white"/>
<path d="M383.118 284.019C383.118 284.019 363.994 288.48 358.726 285.015C354.086 281.963 349.969 262.197 349.969 262.197L383.118 284.018V284.019Z" fill="black"/>
<path d="M357.24 283.254C353.657 278.085 350.641 264.683 350.162 262.479L382.795 283.96C381.671 284.211 377.489 285.11 372.88 285.688C365.795 286.576 360.925 286.306 358.799 284.907C358.296 284.576 357.772 284.021 357.24 283.254Z" fill="white"/>
<path d="M211.83 376.898L194.608 394.282L155.914 393.237L173.145 375.844L211.83 376.898Z" fill="#86B1D8"/>
<path d="M194.622 394.269L184.893 385.916L183.873 385.04L211.579 376.971L211.831 376.898L211.388 377.345L194.622 394.269Z" fill="black"/>
<path d="M184.102 385.046L211.545 377.055L194.652 394.106L184.102 385.046Z" fill="white"/>
<path d="M173.145 375.844L155.975 393.176L183.874 385.04L173.145 375.844Z" fill="black"/>
<path d="M173.112 376.007L183.642 385.034L156.258 393.02L173.112 376.007Z" fill="white"/>
<path d="M183.874 385.04C181.348 384.971 170.871 388.439 170.871 388.439L155.976 393.177L155.916 393.238L194.61 394.283L194.623 394.27L189.443 388.755C189.443 388.755 186.291 385.107 183.875 385.041L183.874 385.04Z" fill="black"/>
<path d="M170.874 388.51C170.983 388.474 181.333 385.059 183.787 385.126C184.152 385.136 184.563 385.235 185.008 385.421C187.096 386.293 189.274 388.795 189.295 388.821L194.046 394.048L156.939 393.047L170.873 388.511L170.874 388.51Z" fill="white"/>
<path d="M211.83 376.898C211.83 376.898 189.222 386.064 183.075 385.899C177.66 385.753 173.145 375.844 173.145 375.844L211.83 376.898Z" fill="black"/>
<path d="M181.353 385.402C177.22 383.677 173.894 377.035 173.367 375.938L211.449 376.975C210.121 377.508 205.179 379.468 199.739 381.392C191.377 384.35 185.644 385.877 183.162 385.81C182.575 385.794 181.967 385.657 181.353 385.401V385.402Z" fill="white"/>
<path d="M210.832 41.8203L196.527 63.5205L163.371 41.7122L177.683 20L210.832 41.8203Z" fill="#86B1D8"/>
<path d="M196.539 63.5041L187.997 43.7852L187.102 41.7178L210.619 41.8198L210.833 41.8208L210.465 42.3782L196.539 63.5041Z" fill="black"/>
<path d="M187.299 41.8486L210.594 41.9497L196.562 63.2346L187.299 41.8486Z" fill="#A0C1FD"/>
<path d="M177.683 20L163.422 41.6362L187.102 41.7182L177.683 20Z" fill="black"/>
<path d="M177.66 20.2715L186.905 41.5894L163.66 41.5084L177.66 20.2715Z" fill="#A0C1FD"/>
<path d="M187.102 41.7184C184.937 40.2924 176.054 40.9879 176.054 40.9879L163.421 41.6364L163.371 41.7124L196.527 63.5207L196.538 63.5047L191.963 51.127C191.963 51.127 189.172 43.0824 187.102 41.7184Z" fill="black"/>
<path d="M176.06 41.1169C176.152 41.1099 184.927 40.4405 187.03 41.8264C187.343 42.0326 187.697 42.4199 188.083 42.9762C189.893 45.5881 191.82 51.115 191.84 51.17L196.291 63.2114L163.668 41.7534L176.06 41.1179V41.1169Z" fill="#B9D1FE"/>
<path d="M210.833 41.8203C210.833 41.8203 191.709 46.2815 186.441 42.817C181.801 39.7649 177.684 19.999 177.684 19.999L210.833 41.8193V41.8203Z" fill="black"/>
<path d="M184.955 41.0568C181.372 35.8882 178.356 22.4858 177.877 20.2822L210.509 41.7623C209.385 42.0135 205.204 42.9131 200.595 43.4905C193.51 44.3791 188.64 44.1089 186.513 42.71C186.011 42.3787 185.487 41.8233 184.955 41.0568Z" fill="#B9D1FE"/>
<path d="M163.89 223.338C165.14 223.435 167.406 223.567 169.532 224.299C169.591 224.319 169.652 224.341 169.711 224.362C170 224.466 170.285 224.581 170.563 224.71C172.221 225.474 173.99 225.687 176.754 225.938C177.96 226.048 179.258 226.283 180.194 226.48C182.672 226.998 183.845 227.201 184.351 226.66C184.691 226.294 182.81 225.675 180.755 225.264C180.11 225.136 179.485 224.945 178.953 224.733C177.777 224.266 177.285 224.023 177.846 223.808C178.02 223.74 178.634 223.913 179.753 224.208C180.568 224.422 181.535 224.68 182.505 224.91C183.254 225.088 184.003 225.248 184.691 225.356C186.274 225.607 187.514 225.585 187.595 224.877C187.625 224.6 186.649 224.349 185.298 224.006C184.622 223.834 184.08 223.676 183.065 223.406C182.657 223.299 182.227 223.141 181.815 223.097C181.349 223.049 180.897 222.882 180.483 222.761C179.243 222.396 178.362 222.038 178.587 221.991C178.904 221.925 179.522 222.038 180.75 222.226C181.467 222.336 182.279 222.47 183.11 222.61C184.259 222.802 185.447 222.857 186.481 223.009C186.876 223.067 187.274 223.11 187.672 223.152C188.377 223.226 189.861 223.363 189.945 222.488C189.985 222.079 188.682 221.844 186.97 221.62C185.789 221.466 184.394 221.04 183.069 220.884C182.339 220.799 181.649 220.709 181.042 220.617C179.594 220.4 178.83 220.18 179.004 220.053C179.123 219.965 179.974 220.033 181.136 220.154C181.816 220.225 182.6 220.314 183.408 220.402C184.26 220.493 185.135 220.584 185.941 220.648C187.612 220.781 188.973 220.801 189.162 220.497C189.671 219.675 188.291 219.45 186.217 219.171C185.469 219.069 184.63 218.835 183.755 218.742C183.297 218.692 182.828 218.641 182.358 218.586C180.612 218.381 180.24 218.058 179.261 217.927C178.469 217.822 177.73 217.707 177.097 217.575C177.02 217.559 176.95 217.543 176.885 217.527C176.842 217.514 176.801 217.502 176.763 217.492C175.404 217.081 177.047 216.41 177.915 215.685C178.961 215.499 179.233 215.329 179.794 214.916C180.492 214.4 180.614 213.625 180.565 213.134C180.477 212.293 179.789 212.818 178.397 213.423C177.713 213.721 176.759 213.727 175.825 214.203C174.807 214.72 173.208 214.999 171.941 215.589C171.093 215.984 170.424 217.404 169.483 217.78C167.585 218.536 162.991 217.117 161.823 216.697C155.608 214.459 156.402 222.761 163.894 223.338H163.89Z" fill="black"/>
<path d="M183.34 226.579C182.679 226.579 181.653 226.375 180.276 226.088C179.552 225.935 178.135 225.661 176.792 225.539C174.101 225.295 172.351 225.093 170.733 224.347C170.448 224.216 170.151 224.095 169.847 223.986C169.787 223.964 169.724 223.941 169.662 223.92C167.623 223.219 165.463 223.055 164.172 222.958L163.922 222.939C159.814 222.623 157.997 219.985 158.062 218.303C158.101 217.294 158.774 216.716 159.908 216.716C160.425 216.716 161.024 216.836 161.684 217.074C161.721 217.087 165.397 218.399 168.032 218.399C168.681 218.399 169.218 218.316 169.63 218.152C170.215 217.919 170.669 217.395 171.108 216.887C171.455 216.485 171.784 216.105 172.109 215.952C172.715 215.67 173.413 215.458 174.086 215.254C174.794 215.039 175.463 214.836 176.004 214.561C176.496 214.309 176.999 214.2 177.486 214.095C177.869 214.012 178.229 213.933 178.556 213.792C178.82 213.677 179.059 213.565 179.274 213.465C179.619 213.304 179.974 213.137 180.154 213.104C180.158 213.124 180.162 213.148 180.165 213.178C180.186 213.388 180.205 214.114 179.554 214.596C179.057 214.962 178.851 215.113 177.843 215.293L177.737 215.312L177.655 215.38C177.458 215.545 177.207 215.714 176.963 215.877C176.324 216.308 175.771 216.679 175.849 217.194C175.919 217.658 176.466 217.824 176.647 217.879C176.694 217.892 176.779 217.917 176.779 217.917L176.789 217.92C176.858 217.937 176.934 217.954 177.015 217.971C177.596 218.091 178.314 218.208 179.208 218.326C179.585 218.377 179.868 218.459 180.197 218.555C180.67 218.692 181.258 218.864 182.312 218.988C182.687 219.032 183.062 219.073 183.431 219.113L183.711 219.144C184.186 219.195 184.655 219.289 185.108 219.381C185.475 219.455 185.824 219.525 186.165 219.571C187.051 219.69 188.699 219.911 188.869 220.197C188.866 220.198 188.862 220.215 188.846 220.247C188.774 220.275 188.532 220.342 187.831 220.342C187.352 220.342 186.745 220.312 185.975 220.251C185.153 220.185 184.242 220.09 183.454 220.006L182.621 219.914C182.111 219.858 181.623 219.804 181.18 219.757C180.217 219.657 179.662 219.614 179.323 219.614C179.079 219.614 178.901 219.634 178.766 219.733C178.617 219.842 178.55 220.021 178.593 220.197C178.653 220.443 178.711 220.675 180.984 221.014C181.562 221.102 182.249 221.192 183.024 221.282C183.708 221.363 184.423 221.52 185.115 221.672C185.75 221.812 186.35 221.943 186.92 222.018C188.368 222.207 189.24 222.383 189.519 222.541C189.387 222.769 188.865 222.806 188.541 222.806C188.247 222.806 187.961 222.779 187.715 222.753C187.335 222.713 186.93 222.669 186.541 222.612C186.071 222.543 185.584 222.494 185.067 222.443C184.445 222.381 183.802 222.318 183.178 222.214C182.491 222.098 181.601 221.95 180.812 221.829L180.369 221.761C179.607 221.642 179.146 221.571 178.813 221.571C178.696 221.571 178.596 221.58 178.507 221.599C178.272 221.647 178.16 221.836 178.153 221.999C178.142 222.271 178.133 222.486 180.372 223.146C180.46 223.172 180.551 223.2 180.642 223.228C180.984 223.334 181.372 223.455 181.777 223.496C182.032 223.523 182.317 223.607 182.592 223.688C182.718 223.725 182.843 223.762 182.966 223.794C183.419 223.914 183.778 224.012 184.098 224.099C184.493 224.207 184.827 224.298 185.202 224.393C185.907 224.573 186.757 224.789 187.112 224.948C186.968 225.042 186.653 225.099 186.237 225.099C185.844 225.099 185.346 225.052 184.756 224.958C184.153 224.863 183.448 224.719 182.6 224.518C181.774 224.321 180.946 224.104 180.216 223.912L179.573 223.743C178.712 223.516 178.237 223.391 177.954 223.391C177.858 223.391 177.776 223.405 177.702 223.433C177.382 223.556 177.218 223.745 177.216 223.995C177.213 224.45 177.73 224.677 178.807 225.105C179.397 225.339 180.045 225.529 180.679 225.655C182.23 225.966 183.284 226.311 183.762 226.538C183.659 226.562 183.524 226.577 183.343 226.577L183.34 226.579Z" fill="#FFBFBF"/>
<path d="M134.954 199.694C135.06 199.39 135.067 199.492 134.896 199.456C134.795 199.435 134.727 199.571 134.651 199.765C134.551 200.015 134.489 200.233 134.577 200.273C134.703 200.33 134.791 200.165 134.954 199.695V199.694Z" fill="#FFB594"/>
<path d="M110.128 175.424C111.337 174.661 111.685 173.799 111.783 172.562C111.886 171.28 111.951 169.714 111.776 167.879C111.739 167.488 111.716 167.094 111.716 166.704C111.72 162.753 112.183 158.784 112.308 157.786C112.327 157.631 112.339 157.548 112.339 157.548H102.791C102.791 157.548 102.776 158.422 102.71 159.828C102.64 161.322 102.516 163.412 102.294 165.687C102.124 167.43 102.204 167.77 101.682 169.785C101.394 170.893 107.517 175.36 110.128 175.423V175.424Z" fill="black"/>
<path d="M110.016 175.018C107.378 174.832 102.092 170.675 102.072 169.868C102.482 168.294 102.528 167.703 102.606 166.724C102.628 166.439 102.654 166.119 102.692 165.727C102.874 163.864 103.015 161.887 103.11 159.849C103.149 159.001 103.17 158.34 103.181 157.95H111.882C111.721 159.286 111.317 162.99 111.313 166.704C111.313 167.082 111.333 167.478 111.375 167.917C111.556 169.817 111.474 171.381 111.382 172.531C111.299 173.582 111.044 174.334 110.016 175.018Z" fill="#FFBFBF"/>
<path d="M100.475 153.17C100.475 160.68 107.949 166.769 113.018 166.769C116.287 166.769 116.834 164.55 117.827 159.88C118.374 157.308 120.055 152.935 120.055 150.267C120.055 142.757 114.722 139.571 109.653 139.571C104.584 139.571 100.476 145.66 100.476 153.171L100.475 153.17Z" fill="black"/>
<path d="M113.017 166.368C108.222 166.368 100.875 160.455 100.875 153.17C100.875 145.885 104.812 139.972 109.652 139.972C114.491 139.972 119.653 143.155 119.653 150.267C119.653 151.972 118.923 154.465 118.279 156.664C117.942 157.818 117.622 158.909 117.434 159.796C116.395 164.679 115.89 166.368 113.018 166.368H113.017Z" fill="#FFBFBF"/>
<path d="M115.738 151.771C115.972 152.789 115.964 153.508 115.807 154.08C115.352 155.741 113.632 156.162 112.838 159.023C112.447 159.014 112.005 159.288 112.045 158.873C112.338 155.854 109.566 154.628 109.944 158.591C110.439 160.926 107.004 160.136 106.279 165.855C104.317 165.756 102.422 166.424 100.399 164.46C99.984 158.948 98.5475 149.606 99.5312 146.655C99.9349 145.444 100.828 143.511 101.893 142.309C102.357 141.783 102.853 141.398 103.357 141.27C103.61 141.206 103.862 141.208 104.114 141.288C104.173 141.307 104.322 141.402 104.533 141.551C105.609 142.306 108.296 144.396 108.714 144.296C109.729 144.054 110.709 143.977 111.628 144.046C111.817 144.16 111.929 144.24 111.929 144.24C111.929 144.24 115.71 144.737 117.395 147.15L116.663 149.834C116.753 150.129 115.679 151.517 115.738 151.772V151.771Z" fill="#182853"/>
<g style="mix-blend-mode:overlay" opacity="0.3">
<path d="M116.593 150.092C116.683 150.387 115.681 151.518 115.739 151.772C112.479 151.456 106.899 150.337 104.625 148.118C102.793 146.333 102.767 144.368 102.502 142.815C102.966 142.289 102.854 141.4 103.357 141.271L104.534 141.552C105.61 142.306 108.296 144.397 108.714 144.297C109.73 144.054 110.71 143.977 111.628 144.046C111.818 144.161 111.93 144.241 111.93 144.241C111.93 144.241 115.711 144.738 117.396 147.151L116.592 150.093L116.593 150.092Z" fill="#FFBFBF"/>
</g>
<path d="M121.289 149.872C120.992 150.025 120.46 150.09 119.781 150.092C118.718 150.095 117.294 149.938 115.849 149.715C115.849 149.714 115.846 149.714 115.843 149.714C113.933 149.418 111.987 149.002 110.786 148.669C110.766 148.663 110.745 148.658 110.725 148.652C110.676 148.638 110.626 148.624 110.576 148.61C110.498 148.587 110.421 148.564 110.343 148.54C106.147 147.237 102.639 144.971 102.501 142.814C102.485 142.57 102.511 142.327 102.586 142.087C103.319 139.731 108.352 138.12 113.022 139.571C117.694 141.021 128.201 146.342 121.288 149.873L121.289 149.872Z" fill="#182853"/>
<g style="mix-blend-mode:overlay" opacity="0.3">
<path d="M119.782 150.092C118.719 150.095 117.295 149.938 115.85 149.715C115.85 149.714 115.847 149.714 115.844 149.714C113.946 149.24 112.28 149.07 110.788 148.669C110.768 148.663 110.747 148.658 110.727 148.653C110.678 148.639 110.628 148.625 110.577 148.611C110.499 148.587 110.422 148.564 110.344 148.54C106.148 147.237 102.64 144.971 102.502 142.814C105.67 145.776 113.282 146.738 116.808 147.458C118.934 147.891 119.619 149.057 119.781 150.092H119.782Z" fill="black"/>
</g>
<path d="M168.429 217.218C166.453 217.116 160.333 215.566 155.861 214.766C150.515 213.809 144.266 212.477 141.501 209.975C137.311 206.184 136.686 201.487 133.109 195.621C129.963 190.46 128.402 186.719 126.773 183.571C125.355 180.831 121.663 178.126 118.955 177.13C118.744 177.007 118.52 176.881 118.281 176.751C116.713 175.906 115.059 175.031 113.487 174.232C111.008 172.972 103.124 170.991 101.636 170.913C97.9693 170.722 92.5747 173.182 88.4653 174.873C87.5206 175.261 86.8444 175.912 86.3616 176.742H86.3606C86.3606 176.742 86.3575 176.748 86.3525 176.758C86.1672 177.079 86.0099 177.427 85.8787 177.798C84.4471 180.947 80.2376 190.283 78.9453 193.955C76.4959 200.919 75.4911 211.571 76.9828 213.08C77.8363 213.943 80.1925 214.532 83.1819 214.497C83.84 214.489 84.5283 214.45 85.2395 214.378C87.0929 214.19 89.4541 213.611 92.0537 212.799C94.0133 217.238 95.1323 222.78 92.0367 238.551C91.3575 242.009 105.778 243.624 115.458 242.94C120.309 242.598 123.97 241.68 123.94 240.126C123.778 231.732 124.822 218.979 125.289 213.397C125.449 211.496 125.51 209.107 125.519 206.469C129.624 211.15 130.844 213.014 136.386 219.307C139.063 222.347 165.893 225.166 165.893 225.166C165.893 225.166 167.471 224.701 168.122 222.546C168.674 220.72 170.21 217.307 168.432 217.215L168.429 217.218Z" fill="black"/>
<path d="M110.815 242.696C102.016 242.696 94.2147 241.282 92.6699 239.407C92.4565 239.147 92.3774 238.893 92.4295 238.631C95.6853 222.044 94.2097 216.697 92.4204 212.64L92.2762 212.311L91.9336 212.419C89.1606 213.283 86.8946 213.81 85.1985 213.982C84.5083 214.052 83.8281 214.091 83.1769 214.099C83.0937 214.099 83.0106 214.1 82.9285 214.1C79.906 214.1 77.9085 213.447 77.2683 212.8C75.981 211.497 76.8766 201.051 79.324 194.09C80.6223 190.399 84.9491 180.814 86.2444 177.964L86.2514 177.948L86.2574 177.932C86.3826 177.579 86.5319 177.251 86.7012 176.959L86.7112 176.942C87.1821 176.133 87.8062 175.578 88.6196 175.242C89.0654 175.059 89.5273 174.866 90.0001 174.669C93.5945 173.169 98.0666 171.303 101.225 171.303C101.357 171.303 101.489 171.306 101.617 171.313C103.1 171.39 110.908 173.37 113.307 174.589C114.708 175.302 116.273 176.124 118.092 177.103C118.328 177.23 118.547 177.354 118.755 177.475L118.786 177.493L118.819 177.505C121.412 178.459 125.056 181.12 126.419 183.753C126.88 184.644 127.339 185.59 127.825 186.591C129.082 189.181 130.507 192.117 132.77 195.828C134.11 198.026 135.016 200.024 135.891 201.956C137.328 205.123 138.567 207.857 141.234 210.271C143.998 212.771 149.864 214.098 155.793 215.158C157.643 215.49 159.752 215.944 161.791 216.384C164.705 217.013 167.222 217.556 168.41 217.617C168.628 217.628 168.706 217.704 168.75 217.769C169.13 218.33 168.499 220.168 168.082 221.385C167.953 221.762 167.83 222.117 167.735 222.432C167.227 224.113 166.129 224.645 165.842 224.759C158.355 223.969 138.787 221.431 136.686 219.043C133.669 215.619 131.965 213.544 130.317 211.538C128.967 209.894 127.691 208.341 125.819 206.206L125.076 205.436L125.116 206.469C125.107 209.393 125.032 211.649 124.889 213.365C124.474 218.33 123.371 231.518 123.538 240.136C123.554 240.981 121.44 242.118 115.43 242.542C113.992 242.644 112.44 242.695 110.817 242.695L110.815 242.696Z" fill="#008BCE"/>
<path d="M116.92 176.023C116.92 176.023 110.686 174.995 106.361 174.086C100.75 172.907 98.6895 171.087 98.6895 171.087C98.6895 171.087 99.6151 167.864 100.75 167.275C102.564 166.336 108.027 168.686 108.027 168.686C108.027 168.686 112.982 170.635 114.36 172.514C115.028 173.426 116.92 176.022 116.92 176.022V176.023Z" fill="black"/>
<path d="M116.017 175.466C114.095 175.14 109.702 174.38 106.444 173.695C101.966 172.755 99.7844 171.391 99.1543 170.939C99.529 169.742 100.271 167.976 100.935 167.632C101.162 167.515 101.492 167.455 101.919 167.455C104.125 167.455 107.832 169.039 107.87 169.055C107.93 169.079 112.744 170.988 114.037 172.752C114.467 173.338 115.404 174.623 116.017 175.465V175.466Z" fill="#008BCE"/>
<path d="M92.1928 212.877C92.1187 212.877 92.0476 212.836 92.0125 212.765C91.8292 212.396 87.5165 203.66 86.7691 199.478C86.0258 195.314 85.1863 184.08 85.1783 183.967C85.1703 183.857 85.2534 183.761 85.3636 183.752C85.4758 183.743 85.57 183.827 85.579 183.937C85.587 184.05 86.4255 195.263 87.1648 199.408C87.9021 203.534 92.3281 212.498 92.3722 212.588C92.4212 212.687 92.3802 212.807 92.281 212.856C92.2519 212.87 92.2219 212.877 92.1918 212.877H92.1928Z" fill="black"/>
<path d="M126.375 371.987C127.9 371.14 129.373 370.767 131.769 368.965C132.094 368.72 131.755 367.515 132.109 367.276C135.61 364.921 139.157 364.568 141.444 363.522C143.949 362.375 148.888 354.744 147.45 352.246C146.011 349.747 144.353 351.702 141.611 352.746C140.806 353.052 139.171 353.568 138.339 353.793C136.766 354.218 131.825 354.079 131.825 354.079L121.746 362.947C119.508 364.554 119.894 366.671 120.648 369.965C122.372 371.14 125.208 372.637 126.375 371.987Z" fill="#1C1C1B"/>
<path d="M96.341 357.581C97.8657 356.732 99.3394 356.36 101.735 354.559C102.06 354.314 101.721 353.109 102.075 352.87C105.576 350.515 109.123 350.162 111.41 349.115C113.915 347.969 118.855 340.338 117.416 337.839C115.977 335.34 114.219 337.669 111.743 339.241C110.803 339.838 109.2 340.276 108.369 340.5C106.795 340.925 102.129 341.675 102.129 341.675L92.5021 346.573C90.2641 348.179 89.8594 352.264 90.6127 355.559C92.3368 356.733 95.1729 358.23 96.34 357.581H96.341Z" fill="#1C1C1B"/>
<path d="M91.3037 337.856C91.5612 343.127 89.8391 346.482 92.03 346.777C93.2242 346.939 92.8245 346.728 96.1574 346.728C96.7735 346.728 97.3406 346.64 97.8595 346.491C100.725 345.665 102.098 342.969 102.098 342.969C102.098 342.969 105.659 312.953 106.02 300.835C106.111 297.74 110.733 285.016 112.098 272.998C113.726 258.674 112.984 251.303 111.744 247.299C110.437 243.074 108.576 242.598 108.36 241.657C108.36 241.657 93.6019 238.625 90.9722 241.823C89.0758 244.127 87.8906 258.6 88.7492 273.113C89.3713 283.631 91.6153 294.606 91.6283 300.612C91.6363 304.141 89.5466 311.913 89.769 317.892C90.0876 326.475 90.9711 331.027 91.3047 337.858L91.3037 337.856Z" fill="black"/>
<path d="M92.7696 346.438C92.5843 346.438 92.3859 346.421 92.0844 346.38C91.1868 346.259 91.1968 345.456 91.4633 343.006C91.6155 341.607 91.8039 339.867 91.7047 337.837C91.5554 334.783 91.299 332.208 91.0285 329.483C90.6929 326.11 90.3453 322.621 90.1699 317.877C90.0407 314.394 90.6979 310.338 91.2779 306.758C91.6837 304.255 92.0333 302.095 92.0303 300.612C92.0243 297.575 91.4613 293.354 90.8111 288.465C90.178 283.711 89.4607 278.321 89.1511 273.09C88.2685 258.159 89.5729 244.158 91.2839 242.078C91.7788 241.476 93.1593 240.76 96.927 240.76C101.403 240.76 106.902 241.782 108.061 242.008C108.202 242.309 108.455 242.568 108.756 242.879C109.458 243.602 110.519 244.694 111.363 247.419C112.936 252.501 113.049 261.092 111.701 272.955C110.866 280.3 108.815 287.89 107.319 293.432C106.354 297.002 105.657 299.582 105.621 300.825C105.274 312.49 101.91 341.152 101.71 342.847C101.493 343.232 100.179 345.406 97.7495 346.107C97.2396 346.254 96.7046 346.328 96.1597 346.328C94.5007 346.328 93.7684 346.379 93.2835 346.413C93.0731 346.428 92.9219 346.438 92.7706 346.438H92.7696Z" fill="#151515"/>
<path d="M119.345 307.981C119.345 307.981 119.447 316.989 119.975 325.233C120.212 328.918 121.779 334.078 122.442 339.641C122.901 343.491 122.442 362.824 122.442 362.824C122.442 362.824 122.688 363.693 127.543 363.693C132.398 363.693 133.457 359.419 133.457 359.419C133.457 359.419 135.264 333.492 135.375 316.197C135.401 312.126 136.274 308.41 136.037 305.76C134.619 289.867 124.294 243.019 124.294 243.019C124.294 243.019 118.015 241.996 111.651 241.723C109.252 241.62 106.67 241.881 104.414 241.573C101.178 241.132 98.5802 240.254 97.8719 241.657C95.5387 246.281 94.4318 262.104 101.637 271.232C103.078 275.727 105.214 281.064 107.806 287.003C113.39 299.8 119.346 307.981 119.346 307.981H119.345Z" fill="black"/>
<path d="M127.542 363.293C124.009 363.293 123.063 362.832 122.846 362.679C122.891 360.711 123.28 343.288 122.84 339.594C122.513 336.849 121.96 334.164 121.471 331.794C120.947 329.253 120.494 327.057 120.376 325.207C119.854 317.067 119.748 308.066 119.747 307.976V307.848L119.669 307.745C119.61 307.662 113.673 299.447 108.172 286.842C105.357 280.389 103.343 275.243 102.017 271.109L101.995 271.04L101.95 270.983C98.8702 267.08 96.9617 261.309 96.5761 254.73C96.2294 248.807 97.1892 243.895 98.228 241.836C98.3552 241.584 98.6237 241.294 99.5794 241.294C100.309 241.294 101.242 241.456 102.322 241.643C102.971 241.755 103.642 241.872 104.357 241.969C105.167 242.08 106.071 242.13 107.286 242.13C107.784 242.13 108.287 242.122 108.791 242.114C109.292 242.106 109.793 242.098 110.291 242.098C110.789 242.098 111.232 242.106 111.63 242.123C117.161 242.359 122.692 243.176 123.958 243.371C124.799 247.205 134.291 290.729 135.635 305.795C135.756 307.157 135.577 308.802 135.37 310.709C135.188 312.371 134.984 314.255 134.971 316.193C134.864 332.949 133.14 358.141 133.056 359.348C132.928 359.768 131.729 363.292 127.541 363.292L127.542 363.293Z" fill="#151515"/>
<path d="M108.083 245.731C111.587 245.895 114.882 245.701 117.948 245.387C123.678 244.8 125.062 244.409 125.194 244.028C125.527 243.07 124.926 240.358 123.937 240.127C123.836 240.104 119.186 240.948 113.524 241.263C109.052 241.511 104.007 241.192 99.9576 240.331C95.3313 239.346 91.7118 237.904 91.6567 238.056C91.1769 239.396 90.3313 240.263 90.3203 242.064C90.3153 242.887 93.3517 243.087 98.1173 244.192C101.324 244.937 104.347 245.558 108.082 245.731H108.083Z" fill="black"/>
<path d="M110.668 245.39C109.804 245.39 108.94 245.37 108.102 245.331C104.285 245.154 101.244 244.506 98.2091 243.802C96.6743 243.445 95.2968 243.179 94.1889 242.964C92.589 242.654 90.936 242.335 90.7227 242.043C90.7337 240.919 91.1003 240.185 91.489 239.409C91.6333 239.119 91.7815 238.823 91.9148 238.502C92.1532 238.571 92.5379 238.694 92.9376 238.821C94.4363 239.299 96.9448 240.098 99.875 240.722C102.976 241.381 106.752 241.745 110.509 241.745C111.541 241.745 112.563 241.717 113.548 241.663C118.038 241.413 121.907 240.831 123.364 240.611C123.592 240.577 123.795 240.546 123.893 240.533C124.027 240.592 124.188 240.775 124.33 241.034C124.801 241.887 124.994 243.301 124.827 243.863C124.57 244.082 123.141 244.451 117.907 244.988C115.276 245.258 112.908 245.389 110.669 245.389L110.668 245.39Z" fill="#081E77"/>
<path d="M100.548 244.923L102.059 245.155C102.059 245.155 101.922 245.073 101.957 244.84C102.094 243.926 102.391 242.194 102.543 241.294C102.592 241.003 102.82 240.683 102.82 240.683L101.275 240.466C101.275 240.466 101.126 240.505 101.082 240.753C100.923 241.654 100.573 243.742 100.44 244.633C100.408 244.85 100.548 244.922 100.548 244.922V244.923Z" fill="black"/>
<path d="M100.857 244.565C100.998 243.64 101.307 241.796 101.466 240.898L102.208 241.003C102.182 241.076 102.161 241.152 102.149 241.229L102.073 241.678C101.922 242.563 101.7 243.879 101.578 244.676L100.858 244.566L100.857 244.565Z" fill="#151515"/>
<path d="M111.152 245.823L112.681 245.768C112.681 245.768 112.532 245.713 112.522 245.477C112.484 244.555 112.451 242.798 112.431 241.885C112.425 241.59 112.588 241.232 112.588 241.232L111.03 241.308C111.03 241.308 110.891 241.375 110.895 241.627C110.907 242.541 110.955 244.658 110.993 245.558C111.002 245.779 111.152 245.823 111.152 245.823Z" fill="black"/>
<path d="M111.388 245.414C111.352 244.479 111.31 242.61 111.297 241.698L112.045 241.661C112.034 241.738 112.027 241.817 112.029 241.894L112.039 242.35C112.058 243.246 112.086 244.581 112.115 245.387L111.388 245.413V245.414Z" fill="#151515"/>
<path d="M119.27 245.218L120.793 245.074C120.793 245.074 120.641 245.028 120.618 244.794C120.527 243.874 120.391 242.122 120.319 241.213C120.296 240.919 120.437 240.553 120.437 240.553L118.886 240.719C118.886 240.719 118.751 240.793 118.769 241.044C118.834 241.956 119.006 244.067 119.095 244.964C119.117 245.183 119.269 245.218 119.269 245.218H119.27Z" fill="black"/>
<path d="M119.483 244.794C119.393 243.863 119.242 242 119.176 241.091L119.921 241.011C119.914 241.088 119.912 241.167 119.918 241.245L119.954 241.699C120.025 242.593 120.13 243.924 120.207 244.726L119.482 244.794H119.483Z" fill="#151515"/>
<path d="M93.1546 243.178L94.6443 243.528C94.6443 243.528 94.5151 243.436 94.5682 243.207C94.7765 242.306 95.2333 240.619 95.4557 239.733C95.5279 239.447 95.8024 239.145 95.8024 239.145L94.456 238.721C94.456 238.721 94.1003 238.862 94.0372 239.106C93.8068 239.991 93.2728 242.004 93.0715 242.883C93.0224 243.097 93.1546 243.179 93.1546 243.179V243.178Z" fill="black"/>
<path d="M93.4922 242.846C93.6645 242.116 94.0011 240.828 94.2515 239.873L94.4259 239.206C94.4329 239.196 94.4599 239.175 94.495 239.153L95.1692 239.366C95.1261 239.453 95.089 239.544 95.066 239.637C94.9839 239.965 94.8686 240.405 94.7464 240.874C94.5531 241.611 94.3367 242.443 94.2015 243.013L93.4932 242.847L93.4922 242.846Z" fill="#151515"/>
<path d="M125.306 206.17C125.254 206.17 125.202 206.15 125.163 206.11C124.97 205.912 120.41 201.229 118.901 198.122C118.853 198.023 118.894 197.903 118.994 197.854C119.094 197.806 119.215 197.847 119.263 197.947C120.742 200.995 125.404 205.782 125.451 205.83C125.528 205.909 125.527 206.036 125.447 206.113C125.408 206.151 125.358 206.17 125.306 206.17Z" fill="black"/>
<path d="M297.22 200.593C295.347 203.25 294.701 208.83 292.326 212.633C291.43 214.068 288.503 222.088 287.04 222.937C285.118 224.051 280.779 224.35 277.191 224.466C272.989 224.601 260.658 224.768 260.622 225.066C259.544 225.077 258.562 224.967 258.079 224.608C257.56 224.221 257.643 223.027 257.282 221.941C256.568 219.789 255.572 217.362 254.919 217.574C254.439 217.73 255.334 220.911 254.83 220.887C254.06 220.851 252.83 220.174 251.221 218.84C249.106 218.224 248.044 218.177 247.012 217.854C246.006 217.539 245.505 217.631 244.543 217.568C243.927 217.528 242.613 217.6 242.897 218.389C242.997 218.664 243.944 218.682 243.944 218.682L246.463 218.98C246.463 218.98 248.916 219.658 249.356 220.146C249.639 220.459 245.885 219.235 245.885 219.235C245.885 219.235 243.191 218.66 242.421 218.921C242.175 219.004 242.046 219.295 241.86 219.507C241.447 219.978 245.761 220.521 245.761 220.521L249.26 222.073L245.866 221.156C245.866 221.156 242.561 221.375 241.386 221.344C240.755 221.328 241.351 221.969 242.14 222.318C242.973 222.687 245.771 222.61 245.771 222.61L249.345 223.718L245.713 222.819C245.713 222.819 242.177 222.55 241.994 222.735C241.672 223.06 242.745 223.659 243.291 223.788C244.024 223.961 244.746 223.967 245.742 223.898C247.428 224.429 248.952 225.039 248.952 225.039C248.952 225.039 252.229 227.529 253.648 228.512C254.329 228.985 257.88 229.241 258.306 229.299C259.05 229.402 279.517 232.249 286.632 232.091C288.042 232.06 290.734 231.506 292.102 230.712C293.541 229.877 303.329 213.418 304.401 210.996C305.036 209.561 306.498 206.921 306.562 205.219C306.666 202.389 306.136 200.702 303.767 199.189C300.375 197.024 298.45 198.846 297.218 200.595L297.22 200.593Z" fill="black"/>
<path d="M286.027 231.714C278.762 231.714 260.463 229.211 258.4 228.925L258.361 228.92C258.285 228.909 258.112 228.893 257.873 228.87C255.535 228.646 254.188 228.42 253.868 228.198C252.473 227.23 249.219 224.759 249.186 224.734L249.145 224.703L249.096 224.684C249.081 224.678 247.539 224.062 245.859 223.534L245.79 223.512L245.717 223.517C245.322 223.544 245.006 223.557 244.726 223.557C244.209 223.557 243.794 223.514 243.381 223.415C243.129 223.355 242.806 223.198 242.579 223.05C242.611 223.05 242.644 223.05 242.68 223.05C243.657 223.05 245.398 223.176 245.653 223.195L249.255 224.087L249.459 223.353L245.824 222.227L245.761 222.229C245.761 222.229 245.52 222.236 245.163 222.236C243.743 222.236 242.67 222.137 242.295 221.969C242.122 221.892 241.974 221.808 241.854 221.727C243.146 221.711 245.41 221.568 245.829 221.54L249.162 222.441L249.416 221.724L245.865 220.149L245.809 220.142C244.482 219.975 242.943 219.699 242.353 219.486C242.42 219.395 242.494 219.298 242.543 219.282C242.596 219.264 242.727 219.234 243.016 219.234C243.984 219.234 245.592 219.563 245.785 219.603C246.513 219.84 248.816 220.577 249.307 220.577C249.58 220.577 249.686 220.407 249.718 220.334C249.769 220.219 249.775 220.041 249.638 219.89C249.162 219.362 247.164 218.778 246.564 218.612L246.536 218.604L243.97 218.301H243.951C243.679 218.295 243.366 218.248 243.239 218.196C243.237 218.182 243.239 218.169 243.243 218.162C243.303 218.076 243.635 217.94 244.267 217.94C244.358 217.94 244.443 217.943 244.517 217.948C244.781 217.965 245.015 217.971 245.222 217.976C245.796 217.991 246.21 218.001 246.898 218.217C247.368 218.365 247.844 218.457 248.395 218.564C249.068 218.695 249.904 218.857 251.039 219.184C252.668 220.525 253.937 221.227 254.812 221.268H254.836C254.976 221.268 255.104 221.21 255.198 221.104C255.445 220.826 255.393 220.305 255.263 219.249C255.22 218.907 255.157 218.398 255.153 218.079C255.472 218.439 256.085 219.54 256.921 222.061C257.051 222.451 257.12 222.858 257.186 223.253C257.306 223.967 257.41 224.583 257.852 224.913C258.335 225.273 259.197 225.448 260.485 225.448L260.964 225.444L260.974 225.363C262.208 225.195 268.316 225.058 272.446 224.965C274.393 224.921 276.074 224.884 277.206 224.846C280.525 224.74 285.175 224.46 287.234 223.266C288.239 222.684 289.583 219.719 291.236 215.904C291.844 214.501 292.369 213.289 292.652 212.835C293.905 210.831 294.662 208.417 295.395 206.083C296.048 204.008 296.663 202.049 297.534 200.812C298.267 199.773 299.31 198.58 300.899 198.58C301.705 198.58 302.602 198.892 303.565 199.507C305.889 200.99 306.279 202.653 306.184 205.202C306.137 206.471 305.216 208.393 304.544 209.796C304.361 210.176 304.19 210.535 304.055 210.839C302.852 213.557 293.145 229.665 291.913 230.378C290.57 231.158 287.928 231.677 286.626 231.706C286.435 231.71 286.237 231.712 286.028 231.712H286.027V231.714Z" fill="#FFBFBF"/>
<path d="M313.689 369.872C314.214 373.548 297.24 370.598 297.24 370.598C297.24 370.598 302.014 369.76 304.096 367.101C305.356 365.492 304.469 362.018 304.255 361.077C303.575 358.096 301.4 348.33 301.4 348.33L310.369 343.678C311.083 348.003 311.148 350.709 310.171 355.346C309.709 357.545 309.615 359.812 310.206 362.536C310.78 365.18 313.082 365.621 313.689 369.872Z" fill="black"/>
<path d="M308.508 371.336C305.329 371.336 301.398 370.838 299.139 370.508C300.763 370.001 303.073 369.026 304.396 367.335C305.709 365.657 304.947 362.373 304.661 361.138L304.627 360.992C304.02 358.332 302.2 350.167 301.835 348.533L310.076 344.259C310.68 348.078 310.761 350.692 309.799 355.268C309.275 357.757 309.286 360.092 309.834 362.617C310.096 363.825 310.685 364.594 311.31 365.409C312.13 366.477 312.976 367.582 313.312 369.926C313.34 370.126 313.294 370.288 313.165 370.436C312.873 370.772 311.879 371.337 308.509 371.337L308.508 371.336Z" fill="#FFBFBF"/>
<path d="M315.038 374.904C313.696 375.082 312.604 375.533 310.275 375.521C309.958 375.519 309.61 374.611 309.278 374.627C306.004 374.782 303.63 376.207 301.719 376.615C299.626 377.062 293.005 374.599 292.741 372.375C292.68 371.862 292.737 371.491 292.887 371.216C293.386 370.302 294.922 370.458 296.61 369.979C297.084 369.845 297.891 369.573 298.531 369.342C298.676 369.29 298.814 369.239 298.937 369.193C299.008 369.165 299.074 369.14 299.134 369.116C299.271 369.062 299.444 368.993 299.642 368.914C299.765 368.865 299.899 368.811 300.042 368.755C300.267 368.662 300.512 368.563 300.768 368.459C300.898 368.407 301.032 368.352 301.167 368.298C301.406 368.2 301.649 368.101 301.887 368.005C302.02 367.95 302.152 367.897 302.282 367.845C302.54 367.739 302.786 367.638 303.009 367.548C303.151 367.49 303.283 367.435 303.404 367.386C303.823 367.213 304.096 367.102 304.096 367.102C304.096 367.102 305.215 368.862 308.53 369.056C309.739 369.126 312.546 366.502 312.546 366.502C312.546 366.502 312.547 366.502 312.548 366.503C314.471 367.195 314.937 368.792 315.396 370.869C315.528 371.464 315.645 372.087 315.708 372.661C315.836 373.842 315.732 374.814 315.038 374.906V374.904Z" fill="black"/>
<path d="M301.133 376.287C298.702 376.287 293.326 374.07 293.119 372.33C293.07 371.918 293.104 371.614 293.222 371.4C293.468 370.948 294.182 370.831 295.087 370.682C295.58 370.601 296.138 370.509 296.715 370.346C297.222 370.203 298.058 369.918 298.661 369.699C298.808 369.646 298.947 369.595 299.071 369.548L299.275 369.468L300.182 369.107L300.423 369.012V369.009C300.581 368.946 301.31 368.65 301.31 368.65C301.551 368.551 301.794 368.453 302.031 368.355C302.167 368.299 302.297 368.247 302.426 368.195C302.663 368.097 302.889 368.005 303.096 367.921C303.096 367.921 303.863 367.607 303.976 367.561C304.444 368.093 305.777 369.273 308.509 369.433C308.532 369.434 308.556 369.435 308.58 369.435C309.775 369.435 311.955 367.551 312.63 366.94C314.176 367.597 314.588 368.967 315.026 370.948C315.174 371.619 315.277 372.208 315.33 372.699C315.449 373.798 315.323 374.481 314.991 374.525C314.559 374.582 314.16 374.665 313.738 374.753C312.867 374.934 311.879 375.139 310.364 375.139H310.336C310.274 375.084 310.168 374.942 310.102 374.853C309.878 374.554 309.648 374.245 309.289 374.245H309.262C307.063 374.35 305.231 375.022 303.759 375.561C302.964 375.854 302.277 376.106 301.642 376.241C301.503 376.271 301.333 376.286 301.136 376.286L301.133 376.287Z" fill="#FFBFBF"/>
<path d="M305.802 316.033C305.404 319.903 311.036 330.122 311.341 334.615C311.793 341.277 311.507 346.983 310.806 351.323C310.806 351.323 308.594 352.73 306.616 353.056C304.582 353.391 301.845 352.701 301.845 352.701C301.845 352.701 296.707 332.766 293.046 320.17C291.738 315.667 291.677 305.338 291.607 295.204C291.46 274.124 289.119 251.114 289.119 251.114C289.119 251.114 297.588 249.132 303.137 247.972C308.227 246.907 316.854 262.605 314.352 277.318C311.771 292.506 306.596 308.301 305.803 316.031L305.802 316.033Z" fill="black"/>
<path d="M305.369 352.768C304.035 352.768 302.674 352.498 302.156 352.383C301.578 350.147 296.824 331.806 293.412 320.065C292.13 315.65 292.058 305.385 291.99 295.458L291.988 295.204C291.852 275.716 289.817 254.325 289.531 251.412C291.14 251.037 298.347 249.365 303.215 248.348C303.352 248.319 303.495 248.305 303.641 248.305C304.81 248.305 306.245 249.24 307.683 250.941C312.029 256.081 315.711 267.051 313.976 277.257C312.664 284.978 310.686 292.832 308.941 299.762C307.264 306.422 305.815 312.174 305.424 315.995C305.202 318.155 306.679 321.953 308.244 325.975C309.512 329.236 310.823 332.608 310.962 334.642C311.479 342.269 310.981 347.772 310.458 351.091C309.944 351.398 308.15 352.419 306.556 352.682C306.206 352.74 305.807 352.769 305.371 352.769L305.369 352.768Z" fill="#151515"/>
<path d="M315.038 374.904C313.696 375.083 312.604 375.534 310.275 375.522C309.958 375.52 309.61 374.611 309.278 374.627C306.004 374.782 303.63 376.207 301.719 376.616C299.626 377.063 293.005 374.599 292.741 372.376C292.68 371.862 292.737 371.492 292.887 371.217C294.443 372.951 297.878 376.226 301.149 375.609C305.56 374.777 310.102 374.088 313.128 373.737C314.698 373.553 314.855 372.93 315.707 372.659C315.835 373.84 315.731 374.811 315.037 374.903L315.038 374.904Z" fill="black"/>
<path d="M305.264 369.879C305.238 369.942 305.185 369.985 305.124 370.002C305.081 370.013 305.034 370.011 304.99 369.994C303.541 369.404 303.126 368.161 303.008 367.546C303.15 367.488 303.282 367.433 303.403 367.384C303.481 367.872 303.808 369.061 305.148 369.606C305.254 369.65 305.305 369.772 305.263 369.879H305.264Z" fill="#1C1C1B"/>
<path d="M304.145 370.359C304.12 370.423 304.067 370.466 304.006 370.483C303.962 370.495 303.916 370.492 303.873 370.475C302.407 369.878 301.999 368.612 301.887 368.005C302.02 367.95 302.152 367.897 302.281 367.845C302.355 368.32 302.67 369.536 304.03 370.088C304.138 370.132 304.189 370.254 304.145 370.36V370.359Z" fill="#1C1C1B"/>
<path d="M303.042 370.894C303.017 370.957 302.964 371 302.901 371.017C302.859 371.028 302.812 371.026 302.769 371.009C301.234 370.384 300.859 369.026 300.768 368.459C300.898 368.407 301.032 368.352 301.166 368.298C301.214 368.698 301.481 370.035 302.925 370.622C303.034 370.666 303.085 370.788 303.041 370.894H303.042Z" fill="#1C1C1B"/>
<path d="M301.915 371.343C301.889 371.406 301.837 371.45 301.774 371.465C301.732 371.477 301.685 371.476 301.642 371.457C300.113 370.835 299.735 369.485 299.643 368.913C299.766 368.864 299.9 368.81 300.042 368.754C300.092 369.16 300.363 370.486 301.8 371.072C301.907 371.116 301.96 371.237 301.916 371.344L301.915 371.343Z" fill="#1C1C1B"/>
<path d="M300.824 371.928C300.798 371.991 300.745 372.034 300.684 372.051C300.641 372.062 300.595 372.06 300.552 372.043C298.856 371.355 298.575 369.77 298.531 369.342C298.677 369.29 298.815 369.239 298.937 369.193C298.939 369.201 298.94 369.21 298.94 369.219C298.943 369.291 299.036 370.977 300.71 371.657C300.816 371.7 300.867 371.822 300.825 371.928H300.824Z" fill="#1C1C1B"/>
<path d="M287.125 384.809C287.043 388.522 270.777 382.85 270.777 382.85C270.777 382.85 275.624 382.8 278.11 380.515C279.616 379.132 279.308 375.56 279.25 374.597C279.064 371.545 278.51 361.556 278.51 361.556L288.118 358.425C288.118 362.809 287.741 365.488 286.023 369.905C285.207 372 284.745 374.221 284.886 377.005C285.021 379.707 287.22 380.516 287.127 384.809H287.125Z" fill="black"/>
<path d="M284.598 385.689C281.327 385.689 275.56 383.994 272.664 383.072C274.349 382.836 276.786 382.25 278.367 380.796C279.937 379.354 279.72 375.99 279.639 374.724L279.63 374.575C279.464 371.852 278.999 363.5 278.906 361.828L287.734 358.951C287.707 362.818 287.361 365.41 285.665 369.768C284.743 372.138 284.373 374.445 284.502 377.025C284.564 378.259 285.02 379.114 285.504 380.019C286.138 381.207 286.794 382.435 286.742 384.801C286.729 385.39 286.008 385.689 284.598 385.689Z" fill="#FFBFBF"/>
<path d="M288.673 387.604C288.633 388.92 288.388 390.019 287.635 389.995C286.28 389.952 285.13 390.219 282.834 389.829C282.522 389.776 282.326 388.824 281.997 388.785C278.741 388.406 276.166 389.426 274.214 389.517C272.076 389.618 265.945 386.11 266.046 383.874C266.075 383.225 266.251 382.828 266.541 382.586C267.251 381.992 268.646 382.323 270.254 382.141C270.664 382.094 271.323 381.991 271.921 381.884C272.065 381.858 272.206 381.832 272.338 381.807C272.546 381.767 272.733 381.73 272.885 381.698C272.957 381.682 273.037 381.666 273.125 381.646C273.25 381.619 273.39 381.587 273.544 381.553C273.781 381.5 274.048 381.44 274.331 381.377C274.468 381.346 274.608 381.314 274.753 381.282C275.011 381.224 275.276 381.163 275.537 381.103C275.68 381.071 275.823 381.038 275.961 381.007C276.235 380.944 276.502 380.883 276.747 380.828C276.899 380.794 277.043 380.76 277.176 380.73C277.732 380.603 278.107 380.517 278.107 380.517C278.107 380.517 278.924 382.434 282.163 383.164C283.344 383.431 286.541 381.297 286.541 381.297C288.328 382.295 288.526 383.945 288.642 386.07C288.669 386.58 288.684 387.108 288.669 387.604H288.673Z" fill="black"/>
<path d="M285.305 389.663C284.525 389.663 283.776 389.599 282.953 389.462C282.901 389.397 282.819 389.24 282.769 389.142C282.602 388.818 282.411 388.45 282.042 388.406C281.547 388.349 281.037 388.319 280.526 388.319C278.973 388.319 277.604 388.579 276.396 388.81C275.564 388.968 274.846 389.105 274.197 389.136C274.173 389.137 274.146 389.138 274.121 389.138C272.664 389.138 269.112 387.392 267.337 385.536C266.723 384.894 266.409 384.326 266.429 383.891C266.452 383.392 266.568 383.061 266.787 382.878C267.113 382.606 267.692 382.586 268.539 382.586H268.735C269.248 382.586 269.753 382.581 270.299 382.519C270.694 382.474 271.341 382.374 271.989 382.259C272.135 382.233 272.277 382.206 272.41 382.181C272.62 382.142 272.811 382.104 272.965 382.071L273.628 381.925L274.838 381.654L277.914 380.952C278.289 381.554 279.413 382.935 282.083 383.536C282.178 383.557 282.283 383.568 282.394 383.568C283.62 383.568 285.838 382.207 286.555 381.746C287.972 382.645 288.155 384.064 288.265 386.09C288.296 386.668 288.305 387.16 288.292 387.592C288.254 388.858 288.017 389.614 287.66 389.614C287.537 389.61 287.427 389.609 287.318 389.609C287.001 389.609 286.696 389.622 286.374 389.635C286.037 389.649 285.687 389.663 285.306 389.663H285.305Z" fill="#FFBFBF"/>
<path d="M288.116 330.408C287.093 334.161 290.984 345.16 290.552 349.643C289.912 356.29 288.7 361.873 287.301 366.041C287.301 366.041 284.889 367.07 282.885 367.07C280.882 367.07 278.235 365.943 278.235 365.943C278.235 365.943 276.415 345.438 274.856 332.416C274.299 327.76 275.922 317.559 277.505 307.549C280.797 286.726 286.382 263.38 286.382 263.38C286.382 263.38 290.916 263.065 296.58 262.823C301.775 262.6 309.94 260.269 311.853 261.676C320.836 268.28 307.729 279.492 302.863 293.602C297.84 308.167 290.161 322.91 288.118 330.409L288.116 330.408Z" fill="black"/>
<path d="M282.885 366.688C281.255 366.688 279.238 365.937 278.594 365.678C278.389 363.379 276.688 344.51 275.234 332.37C274.687 327.805 276.291 317.664 277.842 307.856L277.881 307.609C280.943 288.242 286.054 266.421 286.687 263.741C287.761 263.67 291.793 263.41 296.595 263.205C298.558 263.12 300.93 262.74 303.225 262.372C305.673 261.98 307.985 261.608 309.661 261.608C310.627 261.608 311.288 261.735 311.626 261.983C317.292 266.148 313.69 272.323 309.131 280.141C306.801 284.136 304.16 288.665 302.501 293.478C299.948 300.882 296.717 308.309 293.866 314.863C291.125 321.162 288.759 326.603 287.749 330.309C287.178 332.404 288.016 336.392 288.904 340.615C289.624 344.038 290.368 347.579 290.172 349.607C289.439 357.216 288.051 362.565 286.994 365.754C286.437 365.975 284.501 366.689 282.885 366.689V366.688Z" fill="#151515"/>
<path d="M288.673 387.603C288.633 388.919 288.388 390.019 287.635 389.995C286.28 389.952 285.13 390.219 282.834 389.829C282.522 389.776 282.326 388.824 281.997 388.785C278.741 388.406 276.166 389.426 274.214 389.517C272.076 389.618 265.945 386.109 266.046 383.874C266.075 383.224 266.251 382.828 266.541 382.586C267.678 384.381 270.642 388.453 274.067 388.331C278.455 388.175 282.948 388.175 285.927 388.279C287.525 388.335 287.731 387.712 288.671 387.603H288.673Z" fill="black"/>
<path d="M278.322 383.676C278.281 383.73 278.219 383.758 278.156 383.758C278.112 383.758 278.067 383.744 278.03 383.715C276.775 382.765 276.702 381.446 276.751 380.827C276.902 380.793 277.046 380.759 277.179 380.729C277.124 381.177 277.083 382.474 278.283 383.383C278.375 383.452 278.392 383.584 278.322 383.676Z" fill="#1C1C1B"/>
<path d="M277.117 383.85C277.076 383.904 277.014 383.932 276.951 383.932C276.907 383.932 276.862 383.918 276.824 383.89C275.634 382.989 275.508 381.756 275.539 381.102C275.682 381.07 275.825 381.037 275.963 381.006C275.918 381.526 275.959 382.71 277.077 383.557C277.169 383.627 277.187 383.757 277.117 383.849V383.85Z" fill="#1C1C1B"/>
<path d="M275.913 384.08C275.871 384.134 275.809 384.163 275.746 384.163C275.702 384.163 275.658 384.149 275.62 384.12C274.454 383.239 274.309 382.039 274.332 381.375C274.469 381.344 274.61 381.312 274.754 381.28C274.716 381.82 274.784 382.963 275.872 383.787C275.964 383.857 275.982 383.987 275.913 384.079V384.08Z" fill="#1C1C1B"/>
<path d="M274.708 384.224C274.666 384.278 274.605 384.307 274.541 384.307C274.496 384.307 274.452 384.293 274.414 384.264C273.32 383.435 273.126 382.327 273.125 381.646C273.25 381.619 273.39 381.587 273.544 381.553C273.527 382.13 273.659 383.168 274.667 383.931C274.759 384 274.776 384.132 274.708 384.224Z" fill="#1C1C1B"/>
<path d="M273.504 384.507C273.462 384.561 273.401 384.589 273.337 384.589C273.293 384.589 273.249 384.575 273.212 384.547C272.093 383.7 271.913 382.559 271.922 381.883C272.066 381.857 272.208 381.831 272.34 381.806C272.319 382.378 272.438 383.438 273.463 384.213C273.555 384.283 273.573 384.413 273.504 384.506V384.507Z" fill="#1C1C1B"/>
<path d="M315.155 270.501C312.716 274.493 303.376 274.31 298.943 274.585C296.976 274.707 293.714 274.644 290.542 274.183C286.913 273.657 285.585 272.839 284.256 270.952C283.235 269.504 284.341 268.007 284.421 263.869C284.565 256.4 286.893 245.3 286.371 240.343C285.116 228.443 278.231 225.621 279.867 218.135C280.826 213.751 286.679 202.759 287.936 202.337C290.786 201.379 298.27 197.69 303.749 198.602C307.885 199.29 309.749 206.815 309.548 210.919C309.104 220.013 304.854 229.858 305.299 236.434C305.656 241.721 310.315 243.043 314.061 254.332C315.545 258.801 316.212 268.772 315.155 270.5V270.501Z" fill="black"/>
<path d="M296.985 274.259C294.871 274.259 292.601 274.099 290.596 273.806C286.915 273.274 285.761 272.428 284.567 270.734C284.051 270.003 284.175 269.237 284.402 267.847C284.565 266.842 284.768 265.59 284.802 263.877C284.867 260.509 285.379 256.398 285.872 252.423C286.473 247.606 287.039 243.056 286.749 240.304C286.13 234.425 284.113 230.66 282.493 227.635C280.782 224.439 279.43 221.914 280.238 218.217C280.738 215.932 282.558 211.95 284.096 208.986C286.212 204.906 287.687 202.853 288.058 202.699C288.608 202.513 289.328 202.229 290.16 201.899C293.236 200.681 297.883 198.84 301.902 198.84C302.532 198.84 303.132 198.887 303.685 198.978C307.634 199.635 309.352 207.09 309.166 210.901C308.954 215.241 307.879 219.709 306.839 224.032C305.73 228.639 304.683 232.991 304.918 236.461C305.094 239.067 306.299 240.788 307.826 242.967C309.57 245.457 311.741 248.555 313.699 254.454C315.231 259.067 315.752 268.796 314.83 270.304C312.815 273.603 305.632 273.908 300.879 274.112C300.17 274.142 299.5 274.171 298.92 274.207C298.346 274.243 297.696 274.261 296.986 274.261L296.985 274.259Z" fill="#008BCE"/>
<path d="M289.171 202.286C285.923 202.141 280.866 204.602 276.379 204.651C274.686 204.67 266.345 206.524 264.841 205.75C262.866 204.733 260.278 201.242 258.248 198.283C255.873 194.82 249.091 184.53 248.82 184.661C248.231 183.759 247.794 182.874 247.837 182.273C247.884 181.629 248.936 181.055 249.658 180.167C251.088 178.407 252.6 176.261 252.069 175.826C251.679 175.505 249.477 177.971 249.226 177.535C248.842 176.867 248.751 175.467 249.01 173.395C248.39 171.284 247.857 170.363 247.576 169.321C247.3 168.305 246.953 167.933 246.488 167.09C246.19 166.549 245.421 165.481 244.909 166.147C244.731 166.378 245.226 167.186 245.226 167.186L246.331 169.465C246.331 169.465 247.08 171.896 246.906 172.528C246.793 172.936 245.805 169.116 245.805 169.116C245.805 169.116 244.84 166.539 244.205 166.031C244.002 165.869 243.688 165.917 243.408 165.875C242.788 165.781 244.654 169.704 244.654 169.704L245.229 173.486L244.175 170.136C244.175 170.136 242.21 167.472 241.603 166.466C241.277 165.926 241.057 166.772 241.188 167.625C241.326 168.525 242.897 170.838 242.897 170.838L243.887 174.444L242.689 170.902C242.689 170.902 241.012 167.782 240.758 167.727C240.311 167.631 240.383 168.857 240.568 169.386C240.817 170.096 241.2 170.707 241.795 171.508C242.256 173.212 242.562 174.825 242.562 174.825C242.562 174.825 242.226 178.924 242.16 180.648C242.128 181.476 243.825 184.603 244.005 184.993C244.32 185.675 252.938 204.436 256.904 210.339C257.689 211.509 259.606 213.476 261.013 214.201C262.493 214.963 281.647 214.338 284.267 213.936C285.819 213.698 288.834 213.508 290.303 212.645C292.747 211.209 293.885 209.855 293.885 207.045C293.885 203.024 291.311 202.385 289.172 202.289L289.171 202.286Z" fill="black"/>
<path d="M267.392 214.176C262.203 214.176 261.329 213.933 261.184 213.859C259.803 213.147 257.943 211.204 257.217 210.123C253.433 204.488 245.283 186.86 244.366 184.868L244.349 184.831C244.317 184.761 244.238 184.606 244.129 184.393C243.059 182.304 242.524 181.048 242.539 180.659C242.604 178.963 242.937 174.894 242.94 174.853L242.944 174.802L242.934 174.751C242.931 174.735 242.62 173.105 242.161 171.406L242.142 171.336L242.099 171.278C241.555 170.544 241.169 169.951 240.926 169.257C240.84 169.011 240.8 168.654 240.803 168.383C241.164 168.937 241.791 170.037 242.337 171.051L243.524 174.562L244.253 174.339L243.246 170.672L243.21 170.62C242.621 169.753 241.653 168.157 241.563 167.564C241.534 167.377 241.526 167.207 241.53 167.062C242.239 168.142 243.579 169.969 243.828 170.307L244.863 173.597L245.604 173.426L245.02 169.59L244.996 169.539C244.422 168.332 243.828 166.889 243.69 166.277C243.802 166.283 243.923 166.294 243.965 166.326C244.343 166.63 245.052 168.199 245.439 169.228C246.39 172.898 246.548 172.937 246.871 172.937H246.882C247.034 172.937 247.213 172.841 247.272 172.627C247.461 171.94 246.878 169.946 246.694 169.35L246.685 169.322L245.56 167L245.55 166.984C245.408 166.751 245.28 166.463 245.255 166.328C245.266 166.319 245.276 166.313 245.284 166.313C245.445 166.313 245.842 166.707 246.152 167.27C246.28 167.501 246.401 167.7 246.507 167.877C246.804 168.369 247.018 168.724 247.206 169.419C247.336 169.895 247.514 170.345 247.72 170.867C247.973 171.504 248.285 172.295 248.621 173.425C248.366 175.52 248.458 176.965 248.894 177.723C248.982 177.875 249.143 177.967 249.324 177.967C249.674 177.967 250.085 177.64 250.84 177.015C251.105 176.796 251.501 176.467 251.768 176.293C251.635 176.756 251.036 177.864 249.36 179.926C249.101 180.245 248.794 180.522 248.497 180.791C247.96 181.276 247.495 181.695 247.456 182.245C247.411 182.866 247.752 183.725 248.5 184.868L248.683 185.15L248.757 185.114C249.564 186.061 252.97 191.131 255.274 194.559C256.358 196.172 257.293 197.565 257.933 198.498C259.809 201.234 262.549 204.998 264.665 206.087C264.971 206.245 265.447 206.318 266.16 206.318C267.902 206.318 270.746 205.86 273.03 205.491C274.541 205.247 275.847 205.037 276.382 205.031C278.747 205.005 281.19 204.344 283.553 203.704C285.537 203.167 287.411 202.66 288.886 202.66C288.976 202.66 289.065 202.662 289.152 202.666C291.302 202.762 293.5 203.356 293.5 207.04C293.5 209.795 292.308 211.018 290.107 212.312C289.011 212.956 286.894 213.215 285.349 213.405C284.93 213.456 284.534 213.505 284.206 213.555C282.515 213.815 273.727 214.175 267.392 214.175V214.176Z" fill="#FFBFBF"/>
<path d="M302.38 199.763C302.717 201.382 302.188 203.336 297.743 203.952C294.846 204.354 292.066 201.991 292.471 201.027C293.023 199.715 293.488 197.934 293.867 195.683C293.947 195.207 294.155 192.797 294.192 192.175C294.196 192.113 294.199 192.051 294.202 191.989C294.251 191.025 294.242 189.957 294.209 188.971C294.193 188.48 294.171 188.008 294.147 187.579C294.079 186.34 293.995 185.449 293.995 185.449H301.572C301.572 185.449 301.42 187.61 301.39 189.915V189.927C301.374 191.226 301.396 192.571 301.507 193.6C301.527 193.777 301.547 193.945 301.572 194.101C301.621 194.415 301.823 197.092 302.379 199.762L302.38 199.763Z" fill="black"/>
<path d="M297.075 203.617C295.172 203.617 293.514 202.459 292.993 201.677C292.832 201.434 292.791 201.25 292.823 201.175C293.659 199.184 293.672 199.134 294.243 195.747C294.328 195.24 294.538 192.798 294.574 192.198C294.577 192.153 294.585 192.009 294.585 192.009C294.629 191.141 294.631 190.114 294.593 188.957C294.579 188.517 294.558 188.059 294.531 187.556C294.491 186.826 294.444 186.21 294.413 185.829H301.169C301.123 186.568 301.034 188.207 301.012 189.91C300.993 191.483 301.033 192.734 301.131 193.641C301.153 193.826 301.174 193.999 301.199 194.161C301.208 194.219 301.222 194.365 301.244 194.581C301.338 195.507 301.557 197.676 302.008 199.841C302.174 200.637 302.068 201.289 301.685 201.831C301.068 202.706 299.725 203.292 297.692 203.575C297.491 203.603 297.285 203.617 297.076 203.617H297.075Z" fill="#FFBFBF"/>
<path d="M304.035 182.765C304.026 183.014 304.015 183.267 304.001 183.521C303.752 188.142 302.37 190.067 300.293 191.206C298.633 192.118 296.529 192.526 294.203 193.407C290.409 194.843 288.805 189.238 288.805 182.935C288.805 181.401 289.005 179.979 289.391 178.704C290.063 176.476 291.299 174.7 293.005 173.573C294.331 172.697 295.941 172.213 297.794 172.213C303.167 172.213 304.255 176.83 304.036 182.765H304.035Z" fill="black"/>
<path d="M293.057 193.252C290.199 193.252 289.186 187.694 289.186 182.935C289.186 181.451 289.378 180.065 289.756 178.814C290.406 176.658 291.603 174.955 293.216 173.891C294.517 173.03 296.058 172.595 297.794 172.595C299.53 172.595 300.782 173.068 301.721 174.041C303.204 175.578 303.818 178.346 303.654 182.752C303.645 182.999 303.634 183.249 303.62 183.5C303.356 188.434 301.776 189.959 300.11 190.873C299.123 191.415 297.931 191.786 296.668 192.179C295.835 192.439 294.975 192.707 294.068 193.05C293.714 193.184 293.374 193.252 293.058 193.252H293.057Z" fill="#FFBFBF"/>
<path d="M309.094 184.669C308.937 186.415 308.566 188.146 308.02 189.792C306.851 193.316 307.032 195.559 305.366 196.95C304.729 197.484 303.821 197.892 302.465 198.2C299.468 198.881 294.242 193.022 294.388 189.916C294.554 186.426 291.908 183.781 289.675 181.658C289.639 181.624 289.602 181.589 289.568 181.555C288.579 180.617 287.684 179.782 287.167 179.02C287.06 178.861 286.971 178.691 286.898 178.511C286.41 177.313 286.627 175.694 286.784 174.495C286.971 173.059 288.19 171.086 289.344 170.094C293.518 166.503 298.857 167.087 302.882 169.894H302.883C303.704 170.467 304.47 171.131 305.16 171.872C305.429 172.162 305.688 172.462 305.934 172.774C306.343 173.292 306.715 173.84 307.047 174.413C308.842 177.512 309.413 181.122 309.095 184.669H309.094Z" fill="#182853"/>
<path d="M310.413 208.248C310.413 210.885 309.276 213.082 307.8 214.688C306.054 216.586 303.834 217.661 302.457 217.661C299.913 217.661 299.826 214.002 299.826 208.248C299.826 202.494 301.888 197.831 304.431 197.831C304.999 197.831 305.614 198.064 306.224 198.491C308.34 199.971 310.413 203.781 310.413 208.248Z" fill="#182853"/>
<g style="mix-blend-mode:overlay" opacity="0.3">
<path d="M302.88 169.894C299.037 167.427 295.293 168.982 292.198 170.12C288.571 171.454 286.808 176.272 286.896 178.51C286.408 177.312 286.625 175.694 286.782 174.494C286.969 173.058 288.188 171.085 289.342 170.093C293.516 166.502 298.855 167.086 302.88 169.893V169.894Z" fill="#FFBFBF"/>
</g>
<g style="mix-blend-mode:overlay" opacity="0.2">
<path d="M307.801 214.688C308.318 212.915 309.113 208.737 308.656 206.589C307.558 201.416 307.611 200.704 306.225 198.49C308.341 199.97 310.414 203.781 310.414 208.248C310.414 210.885 309.277 213.081 307.801 214.688Z" fill="black"/>
</g>
<g style="mix-blend-mode:overlay" opacity="0.2">
<path d="M308.019 189.792C306.85 193.315 307.031 195.559 305.365 196.95C304.906 196.18 304.515 194.745 305.121 192.197C306.202 187.656 308.558 184.724 306.578 178.013C306.029 176.155 305.556 174.007 305.159 171.871C305.428 172.161 305.688 172.462 305.933 172.774C306.342 173.291 306.715 173.839 307.046 174.412C308.842 177.511 309.413 181.122 309.094 184.668C308.938 186.414 308.566 188.146 308.02 189.792H308.019Z" fill="black"/>
</g>
<path d="M304.476 199.347C302.558 199.955 301.769 199.832 301.254 199.173C300.934 198.762 300.914 198.124 301.429 198.04C302.008 197.946 302.463 197.975 303.745 197.556C304.674 197.251 305.321 196.69 305.73 196.493C306.2 196.266 306.227 197.235 306.124 197.747C305.974 198.492 304.947 199.199 304.476 199.348V199.347Z" fill="black"/>
</g>
</g>
<defs>
<clipPath id="clip0_2437_12097">
<rect width="427" height="425" fill="white"/>
</clipPath>
<clipPath id="clip1_2437_12097">
<rect width="411" height="385" fill="white" transform="translate(16 20)"/>
</clipPath>
</defs>
</svg>
