<svg width="427" height="425" viewBox="0 0 427 425" fill="none" xmlns="http://www.w3.org/2000/svg">
<g clip-path="url(#clip0_2447_10398)">
<path d="M400.041 382.57C388.531 392.16 338.441 398.94 278.761 401.49C187.021 405.42 72.6009 399.37 40.7909 378.2C25.7309 368.19 15.5509 337.25 9.1009 297.66C-6.9291 199.16 0.220901 47.1301 13.1609 30.6501C31.3109 7.56009 323.301 -15.3099 399.911 13.9301C432.741 26.4601 429.231 358.23 400.031 382.57H400.041Z" fill="white"/>
<path d="M373.314 247.44L375.204 241.883L377.358 247.44C377.358 247.44 381.657 248.14 381.712 248.531C381.757 248.913 377.595 250.095 377.595 250.095C377.595 250.095 375.85 255.488 375.204 254.27C374.568 253.051 373.95 250.35 373.95 250.35C373.95 250.35 368.533 249.268 368.533 248.731C368.533 248.158 373.314 247.449 373.314 247.449V247.44Z" fill="white"/>
<path d="M304.094 233.142L305.566 228.822L307.238 233.142C307.238 233.142 310.574 233.688 310.619 233.988C310.656 234.279 307.429 235.198 307.429 235.198C307.429 235.198 306.075 239.381 305.575 238.435C305.075 237.49 304.594 235.389 304.594 235.389C304.594 235.389 300.395 234.543 300.395 234.134C300.395 233.688 304.103 233.142 304.103 233.142H304.094Z" fill="white"/>
<path d="M396.938 45.1665C397.71 43.3039 396.825 41.1686 394.96 40.3971C393.096 39.6256 390.959 40.5101 390.187 42.3727C389.415 44.2352 390.3 46.3705 392.164 47.142C394.028 47.9135 396.165 47.0291 396.938 45.1665Z" fill="#0D0D0D"/>
<path d="M383.259 47.4371C385.267 47.2386 386.734 45.4513 386.535 43.4451C386.337 41.4389 384.548 39.9734 382.54 40.1719C380.532 40.3703 379.065 42.1576 379.264 44.1639C379.463 46.1701 381.251 47.6356 383.259 47.4371Z" fill="#E2EAFF"/>
<path d="M375.611 45.1675C376.384 43.3049 375.498 41.1696 373.634 40.3981C371.77 39.6266 369.633 40.511 368.861 42.3736C368.089 44.2362 368.974 46.3715 370.838 47.143C372.702 47.9145 374.839 47.03 375.611 45.1675Z" fill="#E2EAFF"/>
<path d="M352.66 55.3619H300.33C300.147 55.3619 300 55.2152 300 55.0325C300 54.8499 300.147 54.7031 300.33 54.7031H352.66C352.843 54.7031 352.99 54.8499 352.99 55.0325C352.99 55.2152 352.843 55.3619 352.66 55.3619Z" fill="black"/>
<path d="M397.218 55.3619H359.787C359.604 55.3619 359.457 55.2152 359.457 55.0325C359.457 54.8499 359.604 54.7031 359.787 54.7031H397.218C397.4 54.7031 397.547 54.8499 397.547 55.0325C397.547 55.2152 397.4 55.3619 397.218 55.3619Z" fill="black"/>
<path d="M374.127 63.0397H343.98C343.797 63.0397 343.65 62.8929 343.65 62.7103C343.65 62.5276 343.797 62.3809 343.98 62.3809H374.127C374.31 62.3809 374.456 62.5276 374.456 62.7103C374.456 62.8929 374.31 63.0397 374.127 63.0397Z" fill="black"/>
<path d="M397.217 63.0397H381.853C381.67 63.0397 381.523 62.8929 381.523 62.7103C381.523 62.5276 381.67 62.3809 381.853 62.3809H397.217C397.4 62.3809 397.547 62.5276 397.547 62.7103C397.547 62.8929 397.4 63.0397 397.217 63.0397Z" fill="black"/>
<path d="M355.793 70.7193H343.982C343.799 70.7193 343.652 70.5726 343.652 70.3899C343.652 70.2073 343.799 70.0605 343.982 70.0605H355.793C355.976 70.0605 356.123 70.2073 356.123 70.3899C356.123 70.5726 355.976 70.7193 355.793 70.7193Z" fill="black"/>
<path d="M397.201 151.629C397.018 151.629 396.871 151.48 396.871 151.299L396.888 70.7193H365.091C364.909 70.7193 364.762 70.5726 364.762 70.3899C364.762 70.2073 364.909 70.0605 365.091 70.0605H397.218C397.305 70.0605 397.388 70.095 397.451 70.1564C397.514 70.2178 397.547 70.3016 397.547 70.3899L397.531 151.299C397.531 151.482 397.382 151.629 397.201 151.629Z" fill="black"/>
<g clip-path="url(#clip1_2447_10398)">
<path d="M181.195 341.087H296.046C302.368 341.087 307.494 335.965 307.494 329.648L307.494 101.768C307.494 95.4505 302.368 90.329 296.046 90.329L181.195 90.329C174.872 90.329 169.746 95.4505 169.746 101.768L169.746 329.648C169.746 335.965 174.872 341.087 181.195 341.087Z" fill="white"/>
<path d="M296.046 341.417H181.194C174.7 341.417 169.416 336.137 169.416 329.648V101.769C169.416 95.2794 174.7 90 181.194 90H296.046C302.541 90 307.825 95.2794 307.825 101.769V329.65C307.825 336.139 302.541 341.418 296.046 341.418V341.417ZM181.194 90.6588C175.064 90.6588 170.077 95.6417 170.077 101.767V329.648C170.077 335.773 175.064 340.756 181.194 340.756H296.046C302.177 340.756 307.164 335.773 307.164 329.648V101.769C307.164 95.6432 302.177 90.6603 296.046 90.6603H181.194V90.6588Z" fill="black"/>
<path d="M274.699 333.456H187.683C187.5 333.456 187.354 333.309 187.354 333.126C187.354 332.944 187.5 332.797 187.683 332.797H274.699C274.882 332.797 275.029 332.944 275.029 333.126C275.029 333.309 274.882 333.456 274.699 333.456Z" fill="black"/>
<path d="M280.277 333.448H184.462C179.892 333.448 176.174 329.733 176.174 325.167V105.549C176.174 100.982 179.892 97.2676 184.462 97.2676H292.778C297.348 97.2676 301.066 100.982 301.066 105.549V300.576C301.066 300.758 300.919 300.905 300.736 300.905C300.553 300.905 300.407 300.758 300.407 300.576V105.549C300.407 101.346 296.984 97.9264 292.778 97.9264H184.462C180.256 97.9264 176.833 101.346 176.833 105.549V325.167C176.833 329.37 180.256 332.789 184.462 332.789H280.277C280.46 332.789 280.607 332.936 280.607 333.119C280.607 333.301 280.46 333.448 280.277 333.448Z" fill="black"/>
<path d="M251.53 105.022H224.154C223.971 105.022 223.824 104.875 223.824 104.693C223.824 104.51 223.971 104.363 224.154 104.363H251.53C251.713 104.363 251.86 104.51 251.86 104.693C251.86 104.875 251.713 105.022 251.53 105.022Z" fill="black"/>
<path d="M194.253 315.921H282.985C287.776 315.921 291.66 312.04 291.66 307.253V123.473C291.66 118.686 287.776 114.805 282.985 114.805H194.253C189.462 114.805 185.579 118.686 185.579 123.473L185.579 307.253C185.579 312.04 189.462 315.921 194.253 315.921Z" fill="#060607"/>
<path d="M237.84 232.525C256.047 232.525 270.806 217.773 270.806 199.576C270.806 181.379 256.047 166.627 237.84 166.627C219.634 166.627 204.875 181.379 204.875 199.576C204.875 217.773 219.634 232.525 237.84 232.525Z" fill="white"/>
<path d="M247.961 217.8H228.458C225.943 217.8 223.781 216.021 223.3 213.555L220.336 198.379H256.083L253.119 213.555C252.638 216.021 250.475 217.8 247.961 217.8Z" fill="#008BCE"/>
<path d="M258.564 194.78H217.853C217.177 194.78 216.629 195.328 216.629 196.004V197.156C216.629 197.832 217.177 198.38 217.853 198.38H258.564C259.24 198.38 259.789 197.832 259.789 197.156V196.004C259.789 195.328 259.24 194.78 258.564 194.78Z" fill="#008BCE"/>
<path d="M238.455 197.032C239.371 197.032 240.276 196.481 240.466 195.807L244.226 182.574C244.418 181.901 243.826 181.35 242.91 181.35C241.995 181.35 241.09 181.901 240.899 182.574L237.14 195.807C236.948 196.481 237.54 197.032 238.455 197.032Z" fill="#008BCE"/>
<path d="M238.455 197.361C237.831 197.361 237.303 197.138 237.008 196.747C236.783 196.451 236.717 196.084 236.822 195.717L240.582 182.484C240.816 181.664 241.838 181.021 242.91 181.021C243.535 181.021 244.063 181.245 244.358 181.635C244.583 181.932 244.649 182.297 244.544 182.665L240.784 195.898C240.55 196.719 239.528 197.361 238.455 197.361ZM242.91 181.68C242.143 181.68 241.369 182.131 241.216 182.664L237.456 195.897C237.408 196.066 237.433 196.219 237.534 196.349C237.7 196.569 238.045 196.701 238.455 196.701C239.223 196.701 239.997 196.25 240.15 195.716L243.91 182.483C243.958 182.314 243.932 182.162 243.832 182.031C243.666 181.811 243.321 181.679 242.91 181.679V181.68Z" fill="white"/>
<path d="M239.742 215.122C239.068 215.122 238.413 214.571 238.284 213.897L235.77 200.664C235.642 199.99 236.089 199.439 236.762 199.439C237.435 199.439 238.091 199.99 238.22 200.664L240.734 213.897C240.862 214.571 240.415 215.122 239.742 215.122Z" fill="white"/>
<path d="M248.555 215.122C247.88 215.122 247.226 214.571 247.097 213.897L244.582 200.664C244.455 199.99 244.901 199.439 245.574 199.439C246.247 199.439 246.903 199.99 247.032 200.664L249.547 213.897C249.674 214.571 249.228 215.122 248.555 215.122Z" fill="white"/>
<path d="M230.932 215.122C230.257 215.122 229.603 214.571 229.474 213.897L226.959 200.664C226.832 199.99 227.278 199.439 227.951 199.439C228.624 199.439 229.28 199.99 229.409 200.664L231.924 213.897C232.051 214.571 231.605 215.122 230.932 215.122Z" fill="white"/>
<path d="M264.035 307.746H213.209C213.026 307.746 212.879 307.599 212.879 307.416C212.879 307.234 213.026 307.087 213.209 307.087H264.035C264.217 307.087 264.364 307.234 264.364 307.416C264.364 307.599 264.217 307.746 264.035 307.746Z" fill="white"/>
<path d="M237.84 284.137C247.006 284.137 254.436 276.713 254.436 267.555C254.436 258.397 247.006 250.973 237.84 250.973C228.674 250.973 221.244 258.397 221.244 267.555C221.244 276.713 228.674 284.137 237.84 284.137Z" fill="white"/>
<path d="M232.936 257.417H234.229C234.928 257.417 235.496 257.984 235.496 258.682V276.357C235.496 277.055 234.928 277.623 234.229 277.623H232.936C232.238 277.623 231.67 277.055 231.67 276.357V258.682C231.67 257.984 232.238 257.417 232.936 257.417Z" fill="black"/>
<path d="M243.089 257.487H241.796C241.096 257.487 240.529 258.054 240.529 258.752V276.426C240.529 277.125 241.096 277.691 241.796 277.691H243.089C243.788 277.691 244.355 277.125 244.355 276.426V258.752C244.355 258.054 243.788 257.487 243.089 257.487Z" fill="black"/>
<path d="M212.427 126.885H197.24C197.057 126.885 196.91 126.739 196.91 126.556C196.91 126.373 197.057 126.227 197.24 126.227H212.427C212.61 126.227 212.757 126.373 212.757 126.556C212.757 126.739 212.61 126.885 212.427 126.885Z" fill="white"/>
<path d="M212.427 130.483H197.24C197.057 130.483 196.91 130.336 196.91 130.154C196.91 129.971 197.057 129.824 197.24 129.824H212.427C212.61 129.824 212.757 129.971 212.757 130.154C212.757 130.336 212.61 130.483 212.427 130.483Z" fill="white"/>
<path d="M212.427 134.451H197.24C197.057 134.451 196.91 134.304 196.91 134.121C196.91 133.939 197.057 133.792 197.24 133.792H212.427C212.61 133.792 212.757 133.939 212.757 134.121C212.757 134.304 212.61 134.451 212.427 134.451Z" fill="white"/>
<path d="M279.291 133.086C279.864 133.086 280.327 133.55 280.327 134.121C280.327 134.691 279.862 135.155 279.291 135.155C278.72 135.155 278.256 134.691 278.256 134.121C278.256 133.55 278.72 133.086 279.291 133.086Z" fill="white"/>
<path d="M279.291 129.304C279.864 129.304 280.327 129.768 280.327 130.338C280.327 130.909 279.862 131.373 279.291 131.373C278.72 131.373 278.256 130.909 278.256 130.338C278.256 129.768 278.72 129.304 279.291 129.304Z" fill="white"/>
<path d="M279.291 125.521C279.864 125.521 280.327 125.986 280.327 126.556C280.327 127.127 279.862 127.591 279.291 127.591C278.72 127.591 278.256 127.127 278.256 126.556C278.256 125.986 278.72 125.521 279.291 125.521Z" fill="white"/>
<path d="M115.852 261.243C116.389 261.348 110.293 225.496 128.592 201.318L165.082 193.9L210.068 350.895L215.352 357.29C217.426 359.799 215.64 363.589 212.382 363.589H177.941C173.42 363.589 169.519 360.416 168.602 355.993L152.729 279.459L157.994 350.805L163.552 357.221C165.712 359.714 163.94 363.589 160.639 363.589H128.198C123.043 363.589 118.821 359.495 118.665 354.346L115.851 261.242L115.852 261.243Z" fill="#111111"/>
<path d="M212.382 363.918H177.94C173.286 363.918 169.222 360.614 168.278 356.061L153.428 284.455L158.314 350.672L163.8 357.005C164.885 358.257 165.131 359.97 164.443 361.476C163.754 362.982 162.297 363.918 160.64 363.918H128.201C122.831 363.918 118.499 359.718 118.337 354.357L115.523 261.252C115.522 261.197 115.534 261.143 115.558 261.095C115.567 260.876 115.51 260.164 115.445 259.351C115.134 255.401 114.404 246.152 115.72 235.186C117.366 221.459 121.609 209.998 128.328 201.119C128.376 201.054 128.446 201.011 128.526 200.995L165.016 193.577C165.185 193.543 165.351 193.643 165.398 193.809L210.366 350.738L215.606 357.08C216.648 358.341 216.862 360.042 216.164 361.521C215.465 363 214.016 363.918 212.38 363.918H212.382ZM152.728 279.128C152.882 279.128 153.019 279.236 153.05 279.39L168.924 355.924C169.805 360.174 173.597 363.258 177.94 363.258H212.382C213.76 363.258 214.98 362.484 215.567 361.238C216.155 359.992 215.975 358.559 215.097 357.498L209.812 351.103C209.783 351.069 209.761 351.027 209.749 350.983L164.846 194.282L128.777 201.614C118.429 215.353 114.164 234.758 116.1 259.297C116.213 260.715 116.246 261.144 116.183 261.336L118.994 354.334C119.145 359.337 123.188 363.256 128.198 363.256H160.637C162.034 363.256 163.261 362.469 163.841 361.199C164.421 359.931 164.214 358.488 163.3 357.434L157.742 351.018C157.695 350.964 157.667 350.896 157.662 350.826L152.397 279.48C152.383 279.306 152.508 279.153 152.68 279.129C152.695 279.126 152.711 279.126 152.726 279.126L152.728 279.128Z" fill="black"/>
<path d="M121.289 353.913C121.145 353.913 121.013 353.817 120.971 353.672C120.922 353.497 121.024 353.314 121.201 353.266C121.369 353.22 138.195 348.583 155.134 349.909C155.315 349.923 155.452 350.082 155.437 350.264C155.423 350.445 155.26 350.58 155.082 350.567C138.263 349.251 121.544 353.855 121.378 353.901C121.348 353.91 121.318 353.913 121.288 353.913H121.289Z" fill="black"/>
<path d="M171.849 356.924C171.712 356.924 171.583 356.838 171.536 356.7C171.479 356.528 171.572 356.34 171.745 356.284C171.926 356.224 190.074 350.247 206.687 350.914C206.868 350.922 207.01 351.075 207.003 351.257C206.995 351.438 206.838 351.59 206.66 351.573C190.17 350.917 172.134 356.85 171.953 356.909C171.918 356.921 171.882 356.926 171.848 356.926L171.849 356.924Z" fill="black"/>
<path d="M152.763 279.974C152.589 279.974 152.444 279.84 152.435 279.664L149.618 232.062C149.431 229.024 151.097 226.193 153.763 225.019L157.654 223.304C157.822 223.231 158.015 223.307 158.089 223.473C158.162 223.64 158.087 223.834 157.919 223.908L154.028 225.622C151.614 226.685 150.106 229.257 150.276 232.021L153.093 279.626C153.103 279.807 152.965 279.962 152.783 279.974C152.777 279.974 152.769 279.974 152.763 279.974Z" fill="black"/>
<path d="M155.86 129.75C159.803 125.27 162.073 118.827 160.04 113.219C157.737 106.866 150.262 103.322 143.568 104.284C136.876 105.249 131.155 109.959 127.576 115.692C127.193 116.306 126.832 116.932 126.488 117.567C122.628 124.731 111.427 131.133 104.216 134.522C93.4451 139.582 96.8437 152.694 100.918 157.87C104.467 162.378 109.445 165.653 115.136 166.395C121.262 167.195 127.759 165.963 132.784 162.371C135.147 160.68 137.131 151.608 138.544 149.071C139.999 146.453 139.636 142.963 140.929 140.601C142.002 138.639 145.837 133.126 147.718 131.957C150.686 130.111 153.541 132.387 155.86 129.751V129.75Z" fill="black"/>
<path d="M140.941 127.885L131.941 146.095C131.941 146.095 142.256 158.796 150.027 158.294C157.798 157.794 156.35 149.004 150.559 146.274L146.408 145.639L151.69 131.436L140.94 127.885H140.941Z" fill="#FFCFC5"/>
<path d="M146.095 147.156C146.057 147.156 146.02 147.15 145.982 147.137C145.812 147.076 145.723 146.885 145.785 146.715L151.266 131.643L141.111 128.289L133.425 143.84C133.344 144.003 133.146 144.071 132.983 143.99C132.82 143.909 132.752 143.711 132.833 143.548L140.646 127.74C140.72 127.592 140.89 127.521 141.045 127.572L151.795 131.124C151.88 131.152 151.949 131.212 151.988 131.293C152.027 131.374 152.032 131.465 152.002 131.549L146.405 146.939C146.357 147.073 146.23 147.156 146.095 147.156Z" fill="black"/>
<path d="M149.795 146.487C149.779 146.487 149.762 146.487 149.744 146.482L146.659 146.01C146.479 145.984 146.354 145.814 146.383 145.635C146.41 145.455 146.575 145.332 146.759 145.359L149.844 145.831C150.024 145.858 150.149 146.027 150.12 146.207C150.095 146.37 149.955 146.487 149.795 146.487Z" fill="black"/>
<path d="M157.123 122.05C157.514 124.182 157.525 126.428 156.804 128.473C156.083 130.518 154.564 132.34 152.538 133.114C150.78 133.785 148.769 133.625 147.032 132.9C145.295 132.176 143.818 130.924 142.612 129.481C140.758 130.139 138.5 129.371 137.431 127.72C136.815 126.767 136.598 125.501 137.102 124.483C137.605 123.466 138.928 122.858 139.955 123.343C140.539 123.619 140.956 124.183 141.552 124.435C142.216 124.715 143.009 124.55 143.608 124.147C144.206 123.746 144.636 123.137 144.979 122.503C146.06 120.507 146.38 118.113 145.866 115.903C145.914 116.111 147.026 116.427 147.224 116.493C147.722 116.661 148.234 116.785 148.754 116.866C149.779 117.025 150.829 117.014 151.851 116.838C152.37 116.748 152.881 116.615 153.375 116.439C153.769 116.3 154.279 115.927 154.699 115.923C155.575 115.914 155.836 117.51 156.049 118.128C156.488 119.411 156.879 120.714 157.123 122.05Z" fill="#FFCFC5"/>
<path d="M150.148 133.868C149.073 133.868 147.963 133.645 146.905 133.204C145.321 132.544 143.842 131.42 142.502 129.863C140.536 130.445 138.272 129.628 137.154 127.9C136.417 126.759 136.284 125.395 136.805 124.338C137.413 123.11 138.949 122.505 140.094 123.046C140.413 123.197 140.676 123.412 140.929 123.62C141.178 123.826 141.414 124.02 141.68 124.131C142.194 124.348 142.862 124.249 143.422 123.874C143.893 123.558 144.294 123.072 144.687 122.346C145.726 120.425 146.039 118.105 145.543 115.978C145.501 115.8 145.612 115.624 145.788 115.582C145.935 115.546 146.082 115.616 146.151 115.742C146.235 115.802 146.487 115.919 147.185 116.136C147.246 116.155 147.296 116.17 147.326 116.181C147.801 116.341 148.297 116.462 148.8 116.54C149.792 116.694 150.798 116.684 151.79 116.511C152.293 116.425 152.788 116.296 153.261 116.128C153.378 116.086 153.519 116.014 153.669 115.939C153.984 115.779 154.342 115.598 154.691 115.594H154.703C155.67 115.594 156.014 116.824 156.243 117.64C156.284 117.787 156.321 117.917 156.356 118.021C156.882 119.557 157.228 120.818 157.442 121.988C157.895 124.453 157.782 126.672 157.11 128.581C156.309 130.851 154.642 132.659 152.65 133.422C151.871 133.72 151.018 133.868 150.143 133.868H150.148ZM142.612 129.151C142.708 129.151 142.8 129.193 142.865 129.27C144.173 130.834 145.618 131.953 147.16 132.597C148.925 133.333 150.841 133.41 152.419 132.808C154.232 132.114 155.756 130.453 156.492 128.364C157.126 126.564 157.229 124.46 156.798 122.11C156.59 120.972 156.251 119.741 155.735 118.236C155.697 118.124 155.656 117.98 155.611 117.819C155.448 117.233 155.174 116.254 154.705 116.254H154.7C154.505 116.255 154.221 116.401 153.97 116.528C153.801 116.613 153.642 116.696 153.483 116.751C152.975 116.931 152.445 117.07 151.904 117.163C150.84 117.347 149.762 117.357 148.7 117.193C148.159 117.109 147.626 116.979 147.115 116.806L146.989 116.766C146.722 116.684 146.502 116.609 146.32 116.541C146.637 118.62 146.265 120.813 145.265 122.661C144.82 123.484 144.35 124.044 143.788 124.422C143.045 124.92 142.138 125.041 141.42 124.739C141.067 124.589 140.782 124.356 140.508 124.13C140.275 123.938 140.055 123.757 139.811 123.641C138.991 123.254 137.84 123.727 137.394 124.63C136.98 125.467 137.102 126.609 137.706 127.542C138.689 129.06 140.792 129.776 142.498 129.171C142.534 129.157 142.571 129.151 142.609 129.151H142.612Z" fill="black"/>
<path d="M141.99 127.862C141.866 127.862 141.748 127.792 141.692 127.672C141.307 126.851 140.401 126.305 139.497 126.354C139.313 126.362 139.16 126.224 139.151 126.041C139.142 125.86 139.281 125.704 139.464 125.695C140.631 125.64 141.793 126.335 142.289 127.39C142.367 127.555 142.295 127.751 142.13 127.829C142.085 127.85 142.037 127.861 141.99 127.861V127.862Z" fill="black"/>
<path d="M123.247 205.434C119.445 203.453 117.042 199.571 115.221 195.693C110.943 186.576 108.866 176.474 108.899 166.405C108.915 161.411 109.536 156.159 112.456 152.107C115.618 147.723 121.022 145.446 126.37 144.641C128.525 144.317 130.811 144.214 132.797 145.109C135.377 146.273 136.949 148.858 138.894 150.914C141.155 153.305 144.073 155.071 147.242 155.964C149.265 156.535 151.708 156.677 153.031 154.738C153.623 153.871 153.806 152.796 153.668 151.756C153.377 149.571 151.948 147.887 150.56 146.274C153.223 145.843 155.962 146.907 158.064 148.595C160.167 150.284 161.722 152.548 163.14 154.84C167.472 161.849 170.8 169.444 173.465 177.239C174.407 179.997 175.279 182.878 174.98 185.777C174.639 189.056 174.031 192.186 171.608 194.423C170.824 195.148 170.078 195.795 169.428 196.341C168.191 197.379 166.573 197.812 164.974 197.591C156.173 196.382 134.886 203.277 133.085 204.735C130.372 206.931 126.278 207.011 123.247 205.431V205.434Z" fill="#008BCE"/>
<path d="M131.941 178.749C131.802 178.749 131.671 178.66 131.626 178.52L127.42 165.328C127.365 165.154 127.46 164.969 127.634 164.913C127.808 164.858 127.994 164.954 128.049 165.127L132.256 178.32C132.311 178.493 132.215 178.679 132.041 178.734C132.008 178.745 131.974 178.749 131.941 178.749Z" fill="black"/>
<path d="M161.662 173.691C161.5 173.691 161.359 173.572 161.335 173.408C160.811 169.756 159.909 166.146 158.654 162.675C158.593 162.504 158.681 162.316 158.852 162.253C159.023 162.192 159.213 162.28 159.275 162.451C160.544 165.962 161.458 169.616 161.988 173.313C162.014 173.493 161.89 173.661 161.708 173.686C161.692 173.688 161.677 173.689 161.66 173.689L161.662 173.691Z" fill="black"/>
<path d="M133.363 201.613C133.51 202.095 133.721 202.64 134.201 202.797C134.58 202.922 135.039 202.836 135.347 202.585C141.969 197.186 147.251 193.707 155.094 190.336C156.091 189.907 154.516 194.258 160.189 190.373C161.084 189.761 160.336 187.931 159.266 187.753C160.152 187.628 160.907 186.863 161.02 185.977C161.132 185.091 160.592 184.162 159.767 183.819C160.624 183.98 161.421 183.126 161.463 182.255C161.505 181.385 160.99 180.578 160.368 179.967C162.74 181.118 166.066 184.472 167.947 182.211C168.451 179.921 166.847 178.702 165.068 177.172C163.29 175.641 160.972 174.884 158.665 174.45C153.536 173.485 148.194 173.964 143.181 175.417C138.77 176.694 134.571 178.7 130.675 181.118C129.717 181.713 129.398 181.842 129.383 182.945C129.368 184.128 129.714 185.43 129.899 186.598C130.284 189.028 130.748 191.446 131.295 193.845C131.89 196.458 132.58 199.051 133.363 201.614V201.613Z" fill="#FFCFC5"/>
<path d="M155.233 190.577C155.093 190.577 154.963 190.487 154.918 190.348C154.863 190.174 154.959 189.989 155.132 189.933L157.401 189.21C157.573 189.155 157.761 189.25 157.816 189.424C157.872 189.598 157.776 189.783 157.602 189.839L155.333 190.562C155.3 190.573 155.266 190.577 155.233 190.577Z" fill="black"/>
<path d="M121.263 187.147C121.168 187.147 121.073 187.106 121.009 187.028C120.893 186.887 120.913 186.679 121.054 186.564C123.339 184.689 125.853 183.103 128.527 181.847C128.69 181.769 128.888 181.84 128.966 182.006C129.044 182.171 128.972 182.367 128.807 182.445C126.183 183.677 123.715 185.234 121.472 187.073C121.41 187.123 121.337 187.147 121.263 187.147Z" fill="black"/>
<path d="M162.258 192.478C162.294 193.974 162.721 195.575 163.902 196.494C165.422 197.675 167.597 197.341 169.448 196.808C178.231 194.286 186.15 189.419 190.703 181.503C190.89 181.177 192.562 177.175 191.878 176.272C191.233 175.421 189.636 177.036 188.591 177.256C184.069 178.203 179.606 179.437 175.238 180.942C172.994 181.716 170.773 182.562 168.582 183.478C166.907 184.179 165.482 184.368 164.362 185.886C162.97 187.774 162.2 190.131 162.257 192.478H162.258Z" fill="#FFCFC5"/>
<path d="M169.45 197.139C169.307 197.139 169.175 197.045 169.134 196.901C169.083 196.726 169.185 196.543 169.36 196.494C179.035 193.714 186.317 188.475 190.42 181.342C190.737 180.791 192.117 177.131 191.619 176.473C191.51 176.327 191.538 176.121 191.684 176.011C191.829 175.901 192.036 175.931 192.145 176.076C193.029 177.242 191.017 181.631 190.993 181.671C186.803 188.955 179.385 194.301 169.542 197.129C169.512 197.138 169.48 197.142 169.45 197.142V197.139Z" fill="black"/>
<path d="M196.561 168.618H180.416C180.072 168.618 179.746 168.775 179.534 169.046L166.519 185.593C165.941 186.328 166.465 187.406 167.402 187.406H182.988C183.323 187.406 183.642 187.255 183.855 186.996L197.429 170.449C198.03 169.717 197.508 168.618 196.561 168.618Z" fill="black"/>
<path d="M189.695 170.747C189.5 170.569 189.224 170.395 188.992 170.52C188.79 170.629 188.754 170.897 188.74 171.126C188.612 173.366 188.483 175.606 188.355 177.846C188.382 175.842 187.861 173.77 186.563 172.243C186.244 171.867 185.679 171.514 185.301 171.83C185.074 172.021 185.056 172.36 185.069 172.656C185.18 175.172 186.188 177.771 185.303 180.128C185.146 178.629 184.789 177.152 184.245 175.747C184.022 175.17 183.746 174.579 183.244 174.221C182.74 173.863 181.948 173.842 181.572 174.332C181.172 174.851 181.419 175.592 181.639 176.209C182.276 177.998 182.546 179.918 182.427 181.815C182.183 180.334 181.879 178.737 180.773 177.72C180.449 177.422 180.049 177.182 179.61 177.147C179.171 177.111 178.696 177.317 178.506 177.714C178.297 178.151 178.47 178.663 178.609 179.126C179.149 180.912 179.137 182.854 178.612 184.642C178.219 185.983 176.538 187.788 178.317 188.836C178.927 189.195 179.681 189.223 180.382 189.122C182.363 188.837 184.086 187.642 185.636 186.376C187.216 185.082 188.719 183.661 189.873 181.975C191.027 180.289 191.821 178.314 191.88 176.274C191.938 174.231 191.204 172.128 189.696 170.747H189.695Z" fill="#FFCFC5"/>
<path d="M81.8982 272.678C82.5636 271.943 83.2334 271.164 83.5166 270.215C83.7998 269.266 83.587 268.095 82.7644 267.543C82.1814 267.15 81.4022 267.126 80.8433 266.703C80.0805 266.125 79.9831 264.97 80.3398 264.084C80.6979 263.197 81.4022 262.506 82.0571 261.81C83.8358 259.917 85.3897 257.734 86.094 255.235C86.7983 252.736 86.554 249.879 85.0076 247.792C83.4612 245.705 80.4866 244.634 78.1055 245.673C76.3478 246.44 75.1954 248.123 74.1405 249.724C71.4777 253.757 68.8044 257.812 66.7844 262.202C64.7644 266.592 63.4083 271.37 63.5312 276.2C63.5761 277.958 63.8309 279.756 64.6745 281.298C65.5197 282.84 67.0406 284.095 68.7939 284.249C71.629 284.498 72.7154 281.526 74.5166 279.949C77.1165 277.673 79.5815 275.245 81.8982 272.681V272.678Z" fill="#A0D2F4"/>
<path d="M69.1322 284.591C69.0123 284.591 68.8909 284.585 68.7651 284.574C67.0343 284.422 65.356 283.227 64.385 281.454C63.6327 280.079 63.2566 278.413 63.2011 276.206C63.0888 271.8 64.1932 267.041 66.4844 262.061C68.5193 257.638 71.2361 253.521 73.8644 249.54C74.846 248.051 76.0687 246.201 77.9733 245.37C80.4069 244.308 83.5462 245.265 85.2725 247.595C86.777 249.625 87.2026 252.513 86.4114 255.322C85.779 257.564 84.4333 259.759 82.2965 262.033L82.1062 262.235C81.5352 262.838 80.9448 263.463 80.6451 264.205C80.3484 264.942 80.3889 265.945 81.0407 266.439C81.288 266.627 81.6042 266.727 81.9383 266.835C82.2785 266.944 82.6291 267.056 82.9468 267.27C83.9718 267.959 84.1231 269.329 83.8309 270.31C83.5342 271.302 82.8629 272.102 82.1406 272.9C79.8165 275.471 77.3245 277.925 74.7321 280.195C74.2181 280.644 73.767 281.21 73.2905 281.807C72.1981 283.177 71.0697 284.591 69.1307 284.591H69.1322ZM80.0682 245.606C79.4314 245.606 78.808 245.725 78.2386 245.973C76.5123 246.726 75.3495 248.487 74.4159 249.902C71.801 253.864 69.0977 257.959 67.0838 262.337C64.836 267.224 63.7511 271.885 63.8605 276.19C63.9129 278.287 64.2636 279.859 64.9634 281.138C65.8295 282.719 67.3085 283.785 68.822 283.918C70.6322 284.082 71.6751 282.776 72.775 281.397C73.2501 280.803 73.7401 280.187 74.2975 279.699C76.8704 277.446 79.3444 275.01 81.6506 272.458C82.319 271.719 82.9408 270.982 83.1986 270.121C83.4323 269.34 83.2945 268.296 82.5782 267.815C82.3384 267.654 82.0462 267.561 81.736 267.462C81.3644 267.342 80.9778 267.219 80.6421 266.965C79.7266 266.272 79.6411 264.929 80.0323 263.96C80.3784 263.1 81.0138 262.431 81.6267 261.783L81.8155 261.582C83.8774 259.387 85.1736 257.281 85.776 255.144C86.5133 252.531 86.1266 249.856 84.742 247.987C83.6286 246.484 81.8005 245.606 80.0682 245.606Z" fill="black"/>
<path d="M50.8716 274.992C48.5864 271.498 48.3901 266.353 51.4021 263.459C52.6339 262.275 54.468 261.165 54.2612 259.47C54.1803 258.808 53.7757 258.233 53.3382 257.73C51.7707 255.929 49.6653 254.688 47.9406 253.036C46.2158 251.386 44.8282 249.03 45.3557 246.703C45.8097 244.698 47.6574 243.199 49.6653 242.756C51.6733 242.313 53.7937 242.791 55.6578 243.658C61.2562 246.263 64.7402 252.186 65.9165 258.244C67.0928 264.302 66.2927 270.551 65.3561 276.65C65.1463 278.018 64.9095 279.438 64.1243 280.58C60.9355 285.22 52.8212 277.967 50.8731 274.991L50.8716 274.992Z" fill="#A0D2F4"/>
<path d="M61.2527 282.422C61.2348 282.422 61.2168 282.422 61.1973 282.422C57.3761 282.378 52.1898 277.609 50.5954 275.173C48.3462 271.733 47.9461 266.323 51.1739 263.224C51.4286 262.978 51.7118 262.735 51.9845 262.499C53.014 261.61 54.0779 260.692 53.9341 259.512C53.8592 258.901 53.4426 258.356 53.0889 257.949C52.1988 256.926 51.1004 256.064 50.0365 255.228C49.2543 254.614 48.4451 253.979 47.7108 253.277C46.6769 252.288 44.3452 249.658 45.033 246.632C45.4886 244.625 47.3212 242.939 49.5929 242.437C51.9591 241.914 54.2713 242.653 55.7952 243.361C61.004 245.783 64.9076 251.325 66.2382 258.182C67.4161 264.255 66.6458 270.407 65.6793 276.702C65.486 277.963 65.2447 279.53 64.3936 280.769C63.6384 281.866 62.5819 282.423 61.2527 282.423V282.422ZM51.1469 274.812C52.7353 277.241 57.7598 281.724 61.2048 281.763H61.2527C62.3661 281.763 63.2158 281.315 63.8496 280.394C64.6169 279.28 64.8342 277.856 65.0275 276.6C65.985 270.366 66.7492 264.275 65.5909 258.307C64.2992 251.656 60.5335 246.291 55.5165 243.957C54.0839 243.29 51.9186 242.597 49.7338 243.079C47.7063 243.527 46.076 245.012 45.6744 246.776C45.063 249.474 47.2133 251.888 48.1664 252.8C48.8767 253.479 49.6724 254.104 50.4426 254.709C51.5305 255.562 52.6544 256.445 53.5849 257.515C54.0015 257.992 54.4915 258.642 54.5874 259.431C54.7733 260.958 53.5205 262.041 52.4146 262.996C52.1359 263.237 51.8722 263.465 51.6309 263.697C48.6504 266.56 49.0445 271.596 51.1469 274.812Z" fill="black"/>
<path d="M59.3532 278.522C59.2738 278.522 59.1944 278.494 59.1314 278.437C56.0415 275.631 56.085 270.873 56.3862 268.287C56.5195 267.137 56.7263 265.977 56.9256 264.855C57.3347 262.551 57.7588 260.169 57.555 257.83C57.2703 254.557 55.1484 250.844 51.7798 250.404C51.5985 250.38 51.4711 250.215 51.4951 250.034C51.5191 249.853 51.6824 249.724 51.8652 249.749C55.616 250.237 57.8967 254.154 58.2128 257.772C58.4241 260.197 57.9926 262.623 57.576 264.969C57.3782 266.082 57.1744 267.231 57.0425 268.362C56.7563 270.822 56.7039 275.339 59.5765 277.947C59.7113 278.07 59.7218 278.278 59.599 278.413C59.5345 278.485 59.4446 278.521 59.3547 278.521L59.3532 278.522Z" fill="black"/>
<path d="M60.9234 265.476C61.8045 263.456 63.1277 261.507 63.1232 259.303C63.1187 256.111 60.4199 253.694 58.5138 251.132C55.0988 246.542 53.9974 240.124 56.3605 234.915C58.7236 229.706 64.7761 226.222 70.3669 227.446C72.3944 227.889 74.3904 228.995 75.3479 230.835C76.4508 232.951 75.9698 235.526 75.2565 237.804C74.5433 240.081 73.6112 242.399 73.8899 244.769C74.3859 248.972 78.4978 251.963 79.3579 256.106C80.2525 260.409 77.4339 264.555 74.5088 267.836C72.8604 269.685 71.1192 271.489 69.769 273.578C68.2226 275.971 68.0413 278.107 67.5003 280.799C66.9249 283.665 64.9963 283.996 63.1157 281.939C61.3355 279.991 60.3225 277.216 59.8835 274.656C59.356 271.581 59.6692 268.346 60.9204 265.478L60.9234 265.476Z" fill="#A0D2F4"/>
<path d="M65.4342 283.586C64.619 283.586 63.7304 283.095 62.8763 282.161C60.696 279.776 59.8643 276.47 59.5616 274.71C59.0102 271.5 59.3863 268.175 60.6211 265.345C60.8413 264.839 61.0916 264.333 61.3343 263.843C62.0866 262.322 62.7969 260.886 62.7939 259.303C62.7909 256.915 61.15 254.915 59.5646 252.982C59.1226 252.443 58.6655 251.886 58.2504 251.329C54.5911 246.409 53.7325 239.914 56.0611 234.78C58.5606 229.27 64.8783 225.905 70.4392 227.124C72.8428 227.65 74.7384 228.946 75.642 230.683C76.8558 233.011 76.2429 235.765 75.573 237.901C75.4697 238.229 75.3633 238.559 75.2554 238.888C74.6335 240.797 73.9891 242.772 74.2199 244.729C74.4702 246.852 75.669 248.64 76.9367 250.532C78.08 252.238 79.2608 254.003 79.6849 256.038C80.6649 260.757 77.3428 265.156 74.7594 268.053C74.4791 268.368 74.1974 268.679 73.9142 268.992C72.5581 270.492 71.157 272.044 70.0496 273.755C68.7894 275.704 68.4567 277.503 68.0701 279.585C67.9937 279.999 67.9142 280.422 67.8273 280.863C67.5351 282.319 66.8698 283.261 65.9527 283.516C65.7849 283.562 65.611 283.586 65.4342 283.586ZM68.0956 227.533C63.4502 227.533 58.712 230.533 56.6635 235.052C54.4308 239.971 55.2624 246.207 58.7809 250.937C59.1855 251.482 59.638 252.033 60.0756 252.566C61.7359 254.589 63.4517 256.68 63.4547 259.303C63.4577 261.04 62.68 262.614 61.9262 264.137C61.688 264.62 61.4407 265.119 61.2264 265.61C60.0426 268.323 59.6815 271.517 60.212 274.601C60.5012 276.288 61.2954 279.457 63.3633 281.718C64.2129 282.649 65.0926 283.073 65.7759 282.882C66.4412 282.698 66.9387 281.935 67.18 280.735C67.2669 280.3 67.3448 279.879 67.4212 279.469C67.8198 277.317 68.1645 275.459 69.4951 273.4C70.6295 271.644 72.0501 270.073 73.4242 268.554C73.7059 268.242 73.9876 267.931 74.2664 267.618C76.7554 264.825 79.9591 260.602 79.0391 256.174C78.642 254.265 77.4971 252.555 76.3897 250.901C75.134 249.026 73.8363 247.089 73.5666 244.807C73.3193 242.706 73.9846 240.662 74.6305 238.685C74.7369 238.357 74.8433 238.03 74.9467 237.704C75.5775 235.687 76.162 233.101 75.0606 230.986C74.2469 229.424 72.5116 228.25 70.3013 227.766C69.5776 227.608 68.8388 227.531 68.0985 227.531L68.0956 227.533Z" fill="black"/>
<path d="M65.5039 280.894C65.4125 280.894 65.3196 280.856 65.2552 280.781C62.964 278.145 63.2023 274.212 64.1883 271.409C64.8806 269.443 65.946 267.626 66.9755 265.868C67.5359 264.911 68.1158 263.923 68.6253 262.926C70.383 259.488 70.8641 256.484 70.0579 253.999C69.5289 252.367 68.4815 251.021 67.3741 249.594C66.6518 248.666 65.9055 247.705 65.3211 246.661C63.0869 242.68 63.424 237.337 66.1423 233.668C66.2502 233.521 66.457 233.491 66.6038 233.599C66.7507 233.707 66.7807 233.913 66.6728 234.06C64.1043 237.528 63.7852 242.576 65.8966 246.338C66.4585 247.338 67.1883 248.279 67.8955 249.19C68.9894 250.599 70.1208 252.054 70.6857 253.795C71.5489 256.455 71.0529 259.627 69.2127 263.225C68.6942 264.239 68.1098 265.236 67.5449 266.2C66.5304 267.931 65.4815 269.722 64.8101 271.628C63.8856 274.257 63.6473 277.927 65.7527 280.348C65.8726 280.486 65.8576 280.694 65.7197 280.814C65.6568 280.868 65.5804 280.894 65.5039 280.894Z" fill="black"/>
<path d="M85.219 278.528H45.7441L48.4339 308.685H82.5292L85.219 278.528Z" fill="#E2EAFF"/>
<path d="M167.246 363.917H40.3297C40.1469 363.917 40 363.771 40 363.588V308.7C40 308.517 40.1484 308.37 40.3297 308.37H86.308C86.4908 308.37 86.6377 308.517 86.6377 308.7C86.6377 308.882 86.4908 309.029 86.308 309.029H40.6593V363.258H167.246C167.429 363.258 167.576 363.405 167.576 363.588C167.576 363.771 167.429 363.917 167.246 363.917Z" fill="black"/>
<path d="M384.028 280.145C383.846 280.145 383.699 279.999 383.699 279.816V255.824C383.699 248.965 378.117 243.384 371.255 243.384C364.394 243.384 358.812 248.965 358.812 255.824V279.816C358.812 279.999 358.665 280.145 358.482 280.145C358.299 280.145 358.152 279.999 358.152 279.816V255.824C358.152 248.601 364.031 242.726 371.255 242.726C378.479 242.726 384.358 248.601 384.358 255.824V279.816C384.358 279.999 384.211 280.145 384.028 280.145Z" fill="black"/>
<path d="M409.766 352.242H345.758L351.503 275.54H404.021L409.766 352.242Z" fill="#008BCE"/>
<path d="M392.532 352.242H328.523L334.269 275.54H386.786L392.532 352.242Z" fill="#E2EAFF"/>
<path d="M374.05 285.09C373.867 285.09 373.72 284.943 373.72 284.76V260.768C373.72 253.909 368.138 248.329 361.277 248.329C354.415 248.329 348.833 253.909 348.833 260.768V284.76C348.833 284.943 348.686 285.09 348.504 285.09C348.321 285.09 348.174 284.943 348.174 284.76V260.768C348.174 253.545 354.052 247.67 361.277 247.67C368.501 247.67 374.38 253.545 374.38 260.768V284.76C374.38 284.943 374.233 285.09 374.05 285.09Z" fill="black"/>
<path d="M377.608 358.015L371.118 363.658L290.611 319.463L297.113 313.891H377.608V358.015Z" fill="white"/>
<path d="M371.118 363.988C371.064 363.988 371.008 363.975 370.959 363.948L290.452 319.753C290.358 319.7 290.293 319.606 290.283 319.498C290.272 319.39 290.314 319.284 290.397 319.214L296.899 313.641C296.959 313.59 297.035 313.562 297.113 313.562H377.608C377.791 313.562 377.937 313.708 377.937 313.891V358.015C377.937 358.111 377.895 358.201 377.823 358.264L371.333 363.906C371.272 363.96 371.196 363.987 371.118 363.987V363.988ZM291.186 319.404L371.074 363.259L377.278 357.866V314.22H297.234L291.186 319.404Z" fill="black"/>
<path d="M371.106 319.453H290.611V363.67H371.106V319.453Z" fill="white"/>
<path d="M371.106 364H290.611C290.428 364 290.281 363.853 290.281 363.671V319.453C290.281 319.271 290.428 319.124 290.611 319.124H371.106C371.288 319.124 371.435 319.271 371.435 319.453V363.671C371.435 363.853 371.288 364 371.106 364ZM290.941 363.341H370.776V319.783H290.941V363.341Z" fill="black"/>
<path d="M331.436 345.091C326.026 345.091 321.625 340.697 321.625 335.296V322.472C321.625 322.289 321.772 322.143 321.955 322.143C322.137 322.143 322.284 322.289 322.284 322.472V335.296C322.284 340.333 326.389 344.432 331.436 344.432C336.483 344.432 340.587 340.334 340.587 335.296V322.472C340.587 322.289 340.734 322.143 340.917 322.143C341.099 322.143 341.246 322.289 341.246 322.472V335.296C341.246 340.697 336.845 345.091 331.436 345.091Z" fill="black"/>
<path d="M371.105 319.782C371.012 319.782 370.919 319.743 370.855 319.667C370.736 319.529 370.753 319.321 370.89 319.203L377.392 313.64C377.53 313.524 377.739 313.537 377.857 313.676C377.975 313.814 377.959 314.022 377.821 314.141L371.319 319.703C371.258 319.755 371.181 319.782 371.105 319.782Z" fill="black"/>
</g>
</g>
<defs>
<clipPath id="clip0_2447_10398">
<rect width="427" height="425" fill="white"/>
</clipPath>
<clipPath id="clip1_2447_10398">
<rect width="411" height="274" fill="white" transform="translate(0 90)"/>
</clipPath>
</defs>
</svg>
