<svg width="427" height="425" viewBox="0 0 427 425" fill="none" xmlns="http://www.w3.org/2000/svg">
<g clip-path="url(#clip0_2449_11048)">
<path d="M376.275 33.5538C373.918 33.5538 372 31.6348 372 29.2769C372 26.919 373.918 25 376.275 25C378.633 25 380.549 26.919 380.549 29.2769C380.549 31.6348 378.63 33.5538 376.275 33.5538ZM376.275 25.722C374.316 25.722 372.719 27.3172 372.719 29.2793C372.719 31.2414 374.314 32.8366 376.275 32.8366C378.237 32.8366 379.829 31.2414 379.829 29.2793C379.829 27.3172 378.235 25.722 376.275 25.722Z" fill="#404040"/>
<path d="M362.275 40.5538C359.918 40.5538 358 38.6348 358 36.2769C358 33.919 359.918 32 362.275 32C364.633 32 366.549 33.919 366.549 36.2769C366.549 38.6348 364.63 40.5538 362.275 40.5538ZM362.275 32.722C360.316 32.722 358.719 34.3172 358.719 36.2793C358.719 38.2414 360.314 39.8366 362.275 39.8366C364.237 39.8366 365.829 38.2414 365.829 36.2793C365.829 34.3172 364.235 32.722 362.275 32.722Z" fill="#404040"/>
<path d="M359.275 24.5538C356.918 24.5538 355 22.6348 355 20.2769C355 17.919 356.918 16 359.275 16C361.633 16 363.549 17.919 363.549 20.2769C363.549 22.6348 361.63 24.5538 359.275 24.5538ZM359.275 16.722C357.316 16.722 355.719 18.3172 355.719 20.2793C355.719 22.2414 357.314 23.8366 359.275 23.8366C361.237 23.8366 362.829 22.2414 362.829 20.2793C362.829 18.3172 361.235 16.722 359.275 16.722Z" fill="#404040"/>
<path d="M400.041 382.57C388.531 392.16 338.441 398.94 278.761 401.49C187.021 405.42 72.6009 399.37 40.7909 378.2C25.7309 368.19 15.5509 337.25 9.1009 297.66C-6.9291 199.16 0.220901 47.1301 13.1609 30.6501C31.3109 7.56009 323.301 -15.3099 399.911 13.9301C432.741 26.4601 429.231 358.23 400.031 382.57H400.041Z" fill="white"/>
<path d="M373.314 247.44L375.204 241.883L377.358 247.44C377.358 247.44 381.657 248.14 381.712 248.531C381.757 248.913 377.595 250.095 377.595 250.095C377.595 250.095 375.85 255.488 375.204 254.27C374.568 253.051 373.95 250.35 373.95 250.35C373.95 250.35 368.533 249.268 368.533 248.731C368.533 248.158 373.314 247.449 373.314 247.449V247.44Z" fill="white"/>
<path d="M304.094 233.142L305.566 228.822L307.238 233.142C307.238 233.142 310.574 233.688 310.619 233.988C310.656 234.279 307.429 235.198 307.429 235.198C307.429 235.198 306.075 239.381 305.575 238.435C305.075 237.49 304.594 235.389 304.594 235.389C304.594 235.389 300.395 234.543 300.395 234.134C300.395 233.688 304.103 233.142 304.103 233.142H304.094Z" fill="white"/>
<g clip-path="url(#clip1_2449_11048)">
<path d="M431.64 351.001H88.805C88.606 351.001 88.4453 350.84 88.4453 350.641C88.4453 350.442 88.606 350.281 88.805 350.281H431.64C431.839 350.281 431.999 350.442 431.999 350.641C431.999 350.84 431.839 351.001 431.64 351.001Z" fill="#404040"/>
<path d="M58.7505 351.001H-4.64032C-4.83934 351.001 -5 350.84 -5 350.641C-5 350.442 -4.83934 350.281 -4.64032 350.281H58.7505C58.9495 350.281 59.1102 350.442 59.1102 350.641C59.1102 350.84 58.9495 351.001 58.7505 351.001Z" fill="#404040"/>
<path d="M303.41 99.7471C301.053 99.7471 299.135 97.8282 299.135 95.4702C299.135 93.1123 301.053 91.1934 303.41 91.1934C305.767 91.1934 307.686 93.1123 307.686 95.4702C307.686 97.8282 305.767 99.7471 303.41 99.7471ZM303.41 91.9154C301.451 91.9154 299.854 93.5105 299.854 95.4726C299.854 97.4348 301.449 99.0299 303.41 99.0299C305.372 99.0299 306.966 97.4348 306.966 95.4726C306.966 93.5105 305.372 91.9154 303.41 91.9154Z" fill="#404040"/>
<path d="M63.9883 318.788C61.6312 318.788 59.7129 316.869 59.7129 314.511C59.7129 312.153 61.6312 310.234 63.9883 310.234C66.3455 310.234 68.2638 312.153 68.2638 314.511C68.2638 316.869 66.3455 318.788 63.9883 318.788ZM63.9883 310.956C62.0293 310.956 60.4323 312.552 60.4323 314.514C60.4323 316.476 62.0269 318.071 63.9883 318.071C65.9498 318.071 67.5444 316.476 67.5444 314.514C67.5444 312.552 65.9498 310.956 63.9883 310.956Z" fill="#404040"/>
<path d="M257.355 74.3594H129.458C122.529 74.3594 116.912 79.9782 116.912 86.9094V338.087C116.912 345.019 122.529 350.637 129.458 350.637H257.355C264.283 350.637 269.9 345.019 269.9 338.087V86.9094C269.9 79.9782 264.283 74.3594 257.355 74.3594Z" fill="white"/>
<path d="M257.352 351H129.458C122.341 351 116.553 345.207 116.553 338.088V86.9098C116.553 79.7905 122.344 74 129.458 74H257.352C264.469 74 270.26 79.7929 270.26 86.9098V338.088C270.26 345.207 264.469 351 257.352 351ZM129.458 74.7196C122.739 74.7196 117.272 80.1887 117.272 86.9098V338.088C117.272 344.811 122.739 350.28 129.458 350.28H257.352C264.074 350.28 269.541 344.811 269.541 338.088V86.9098C269.541 80.1887 264.074 74.7196 257.352 74.7196H129.458Z" fill="#404040"/>
<path d="M208.788 91.1602H174.457V91.8798H208.788V91.1602Z" fill="#404040"/>
<path d="M261.604 91.1292V101.674H125.209V91.1292C125.209 86.1974 129.204 82.2012 134.134 82.2012H252.679C257.609 82.2012 261.604 86.1974 261.604 91.1292Z" fill="#008BCE"/>
<path d="M252.677 343.159H134.132C129.013 343.159 124.848 338.99 124.848 333.869V91.1296C124.848 86.0083 129.013 81.8418 134.132 81.8418H252.677C257.797 81.8418 261.962 86.0083 261.962 91.1296V333.869C261.962 338.993 257.797 343.159 252.677 343.159ZM134.132 82.5614C129.408 82.5614 125.567 86.4041 125.567 91.1296V333.869C125.567 338.594 129.408 342.439 134.132 342.439H252.677C257.401 342.439 261.242 338.594 261.242 333.869V91.1296C261.242 86.4041 257.401 82.5614 252.677 82.5614H134.132Z" fill="#404040"/>
<path d="M220.824 95.5522C222.846 95.5522 224.485 93.9123 224.485 91.8894C224.485 89.8665 222.846 88.2266 220.824 88.2266C218.801 88.2266 217.162 89.8665 217.162 91.8894C217.162 93.9123 218.801 95.5522 220.824 95.5522Z" fill="white"/>
<path d="M220.824 95.9124C218.606 95.9124 216.803 94.1086 216.803 91.8898C216.803 89.671 218.606 87.8672 220.824 87.8672C223.042 87.8672 224.845 89.671 224.845 91.8898C224.845 94.1086 223.042 95.9124 220.824 95.9124ZM220.824 88.5844C219.004 88.5844 217.522 90.0668 217.522 91.8874C217.522 93.708 219.004 95.1904 220.824 95.1904C222.644 95.1904 224.126 93.708 224.126 91.8874C224.126 90.0668 222.644 88.5844 220.824 88.5844Z" fill="#404040"/>
<path d="M234.46 95.5522C236.483 95.5522 238.122 93.9123 238.122 91.8894C238.122 89.8665 236.483 88.2266 234.46 88.2266C232.438 88.2266 230.799 89.8665 230.799 91.8894C230.799 93.9123 232.438 95.5522 234.46 95.5522Z" fill="white"/>
<path d="M234.461 95.9124C232.243 95.9124 230.439 94.1086 230.439 91.8898C230.439 89.671 232.243 87.8672 234.461 87.8672C236.679 87.8672 238.482 89.671 238.482 91.8898C238.482 94.1086 236.679 95.9124 234.461 95.9124ZM234.461 88.5844C232.641 88.5844 231.159 90.0668 231.159 91.8874C231.159 93.708 232.641 95.1904 234.461 95.1904C236.281 95.1904 237.763 93.708 237.763 91.8874C237.763 90.0668 236.281 88.5844 234.461 88.5844Z" fill="#404040"/>
<path d="M248.101 95.5522C250.123 95.5522 251.763 93.9123 251.763 91.8894C251.763 89.8665 250.123 88.2266 248.101 88.2266C246.079 88.2266 244.439 89.8665 244.439 91.8894C244.439 93.9123 246.079 95.5522 248.101 95.5522Z" fill="white"/>
<path d="M248.101 95.9124C245.883 95.9124 244.08 94.1086 244.08 91.8898C244.08 89.671 245.883 87.8672 248.101 87.8672C250.319 87.8672 252.123 89.671 252.123 91.8898C252.123 94.1086 250.319 95.9124 248.101 95.9124ZM248.101 88.5844C246.281 88.5844 244.799 90.0668 244.799 91.8874C244.799 93.708 246.281 95.1904 248.101 95.1904C249.921 95.1904 251.403 93.708 251.403 91.8874C251.403 90.0668 249.921 88.5844 248.101 88.5844Z" fill="#404040"/>
<path d="M246.536 169.405H203.666C199.968 169.405 196.959 166.395 196.959 162.696V122.844C196.959 119.145 199.968 116.135 203.666 116.135H246.536C250.233 116.135 253.242 119.145 253.242 122.844V162.696C253.242 166.395 250.233 169.405 246.536 169.405ZM203.666 116.854C200.364 116.854 197.678 119.541 197.678 122.844V162.696C197.678 165.999 200.364 168.686 203.666 168.686H246.536C249.837 168.686 252.523 165.999 252.523 162.696V122.844C252.523 119.541 249.837 116.854 246.536 116.854H203.666Z" fill="#404040"/>
<path d="M183.143 169.405H140.273C136.576 169.405 133.566 166.395 133.566 162.696V122.844C133.566 119.145 136.576 116.135 140.273 116.135H183.143C186.84 116.135 189.85 119.145 189.85 122.844V162.696C189.85 166.395 186.84 169.405 183.143 169.405ZM140.273 116.854C136.971 116.854 134.286 119.541 134.286 122.844V162.696C134.286 165.999 136.971 168.686 140.273 168.686H183.143C186.445 168.686 189.13 165.999 189.13 162.696V122.844C189.13 119.541 186.445 116.854 183.143 116.854H140.273Z" fill="#404040"/>
<path d="M246.536 239.133H203.666C199.968 239.133 196.959 236.125 196.959 232.426V192.574C196.959 188.876 199.968 185.865 203.666 185.865H246.536C250.233 185.865 253.242 188.876 253.242 192.574V232.426C253.242 236.125 250.233 239.133 246.536 239.133ZM203.666 186.585C200.364 186.585 197.678 189.271 197.678 192.574V232.426C197.678 235.729 200.364 238.414 203.666 238.414H246.536C249.837 238.414 252.523 235.727 252.523 232.426V192.574C252.523 189.271 249.837 186.585 246.536 186.585H203.666Z" fill="#404040"/>
<path d="M183.143 239.133H140.273C136.576 239.133 133.566 236.125 133.566 232.426V192.574C133.566 188.876 136.576 185.865 140.273 185.865H183.143C186.84 185.865 189.85 188.876 189.85 192.574V232.426C189.85 236.125 186.84 239.133 183.143 239.133ZM140.273 186.585C136.971 186.585 134.286 189.271 134.286 192.574V232.426C134.286 235.729 136.971 238.414 140.273 238.414H183.143C186.445 238.414 189.13 235.727 189.13 232.426V192.574C189.13 189.271 186.445 186.585 183.143 186.585H140.273Z" fill="#404040"/>
<path d="M246.536 308.861H203.666C199.968 308.861 196.959 305.853 196.959 302.155V262.302C196.959 258.604 199.968 255.596 203.666 255.596H246.536C250.233 255.596 253.242 258.606 253.242 262.302V302.155C253.242 305.853 250.233 308.861 246.536 308.861ZM203.666 256.313C200.364 256.313 197.678 258.999 197.678 262.3V302.152C197.678 305.455 200.364 308.139 203.666 308.139H246.536C249.837 308.139 252.523 305.453 252.523 302.152V262.3C252.523 258.997 249.837 256.313 246.536 256.313H203.666Z" fill="#404040"/>
<path d="M183.143 308.861H140.273C136.576 308.861 133.566 305.853 133.566 302.155V262.302C133.566 258.604 136.576 255.596 140.273 255.596H183.143C186.84 255.596 189.85 258.606 189.85 262.302V302.155C189.85 305.853 186.84 308.861 183.143 308.861ZM140.273 256.313C136.971 256.313 134.286 258.999 134.286 262.3V302.152C134.286 305.455 136.971 308.139 140.273 308.139H183.143C186.445 308.139 189.13 305.453 189.13 302.152V262.3C189.13 258.997 186.445 256.313 183.143 256.313H140.273Z" fill="#404040"/>
<path d="M211.389 224.533C211.389 221.7 211.772 219.944 211.772 217.366C211.772 215.895 210.952 214.408 208.178 214.36V211.607C210.952 211.559 211.772 210.071 211.772 208.632C211.772 206.022 211.389 204.266 211.389 201.434C211.389 197.241 212.993 195.977 216.503 195.977H218.76V198.459H217.824C215.827 198.459 215.283 199.265 215.283 201.64C215.283 204.015 215.484 205.895 215.484 208.443C215.484 211.228 214.64 212.429 212.676 212.904V213.063C214.64 213.537 215.484 214.77 215.484 217.524C215.484 220.072 215.283 222.072 215.283 224.327C215.283 226.699 215.827 227.508 217.824 227.508H218.76V229.99H216.503C212.993 229.99 211.389 228.724 211.389 224.533Z" fill="#008BCE"/>
<path d="M231.998 227.508H232.933C234.931 227.508 235.473 226.702 235.473 224.327C235.473 221.952 235.271 220.072 235.271 217.524C235.271 214.77 236.115 213.537 238.079 213.063V212.904C236.115 212.429 235.271 211.228 235.271 208.443C235.271 205.895 235.473 203.895 235.473 201.64C235.473 199.268 234.928 198.459 232.933 198.459H231.998V195.977H234.254C237.765 195.977 239.369 197.243 239.369 201.434C239.369 204.266 238.986 206.022 238.986 208.632C238.986 210.071 239.806 211.559 242.58 211.607V214.36C239.806 214.408 238.986 215.895 238.986 217.366C238.986 219.944 239.369 221.7 239.369 224.533C239.369 228.726 237.765 229.99 234.254 229.99H231.998V227.508Z" fill="#008BCE"/>
<path d="M204.721 143.488V141.039L218.417 136.002V138.823L212.468 140.792L208.33 142.203V142.32L212.468 143.731L218.417 145.7V148.521L204.721 143.484V143.488Z" fill="#9FC4FF"/>
<path d="M220.738 131.248H223.141L230.335 156.607H227.932L220.738 131.248Z" fill="#9FC4FF"/>
<path d="M232.342 145.704L238.291 143.734L242.43 142.324V142.207L238.291 140.796L232.342 138.827V136.006L246.039 141.043V143.492L232.342 148.529V145.709V145.704Z" fill="#9FC4FF"/>
<path d="M166.207 138.343C170.192 142.21 174.825 142.903 176.28 143.064C175.343 143.011 169.739 142.795 165.171 147.151C160.502 151.601 160.536 157.367 160.557 158.288C160.66 157.288 161.09 152.126 157.402 147.669C152.874 142.198 146.052 142.514 145.338 142.56C146.379 142.56 152.11 142.459 156.625 137.827C160.73 133.613 161.025 128.525 161.061 127.338C161.166 128.681 161.735 134.011 166.207 138.346V138.343Z" fill="#008BCE"/>
<path d="M160.558 158.648C160.558 158.648 160.548 158.648 160.544 158.648C160.354 158.641 160.203 158.488 160.198 158.298C160.191 157.941 160.196 157.384 160.261 156.686C160.225 154.554 159.709 151.023 157.124 147.9C153.362 143.352 147.926 142.908 146 142.903C145.739 142.918 145.516 142.92 145.341 142.92H145.338C145.144 142.92 144.986 142.766 144.979 142.572C144.972 142.378 145.123 142.215 145.314 142.203C145.422 142.196 145.65 142.176 145.974 142.186C148.024 142.083 152.645 141.399 156.366 137.578C160.109 133.738 160.644 129.13 160.702 127.328C160.707 127.137 160.862 126.985 161.052 126.981C161.244 126.976 161.404 127.122 161.419 127.312C161.567 129.228 162.356 134.114 166.454 138.089C170.034 141.562 174.171 142.474 176.317 142.709C176.511 142.73 176.653 142.901 176.636 143.095C176.619 143.289 176.451 143.438 176.257 143.424C174.782 143.342 169.636 143.388 165.414 147.413C162.088 150.581 161.193 154.429 160.975 156.715C160.985 157.42 160.946 157.977 160.91 158.327C160.891 158.512 160.735 158.651 160.553 158.651L160.558 158.648ZM148.983 142.474C151.575 142.961 155.024 144.227 157.68 147.439C159.51 149.653 160.356 152.057 160.723 154.076C161.301 151.865 162.495 149.205 164.924 146.89C167.761 144.186 170.994 143.193 173.358 142.853C171.149 142.224 168.428 140.996 165.958 138.602C162.992 135.726 161.687 132.392 161.114 129.953C160.654 132.251 159.541 135.347 156.884 138.077C154.311 140.718 151.331 141.927 148.986 142.476L148.983 142.474Z" fill="#404040"/>
<path d="M164.536 279.531C167.229 282.143 170.356 282.611 171.339 282.719C170.706 282.683 166.922 282.537 163.836 285.48C160.683 288.486 160.707 292.379 160.721 293.002C160.791 292.326 161.081 288.841 158.589 285.83C155.532 282.134 150.926 282.35 150.441 282.379C151.144 282.379 155.014 282.311 158.064 279.181C160.836 276.334 161.035 272.899 161.062 272.098C161.131 273.004 161.517 276.605 164.536 279.531Z" fill="#9FC4FF"/>
<path d="M164.536 279.531C167.229 282.143 170.356 282.611 171.339 282.719C170.706 282.683 166.922 282.537 163.836 285.48C160.683 288.486 160.707 292.379 160.721 293.002C160.791 292.326 161.081 288.841 158.589 285.83C155.532 282.134 150.926 282.35 150.441 282.379C151.144 282.379 155.014 282.311 158.064 279.181C160.836 276.334 161.035 272.899 161.062 272.098C161.131 273.004 161.517 276.605 164.536 279.531Z" fill="#9FC4FF"/>
<path d="M225.371 264.263C225.966 264.263 226.57 264.194 227.153 264.278C228.29 264.443 229.074 265.453 229.107 266.686C229.122 267.187 229.098 267.689 229.127 268.19C229.182 269.097 229.695 269.689 230.505 270.02C231.337 270.358 232.102 270.183 232.764 269.593C233.114 269.279 233.431 268.931 233.764 268.6C234.68 267.689 236.174 267.684 237.09 268.593C237.769 269.265 238.447 269.939 239.121 270.618C240.121 271.625 240.121 272.978 239.121 273.995C238.814 274.307 238.486 274.599 238.179 274.911C237.517 275.588 237.39 276.401 237.728 277.243C238.054 278.054 238.689 278.533 239.601 278.569C240.147 278.591 240.699 278.555 241.241 278.62C242.502 278.771 243.147 279.344 243.257 280.611C243.356 281.774 243.341 282.961 243.241 284.127C243.137 285.317 242.229 286.029 241.027 286.046C240.557 286.053 240.087 286.032 239.617 286.053C238.653 286.099 238.011 286.605 237.675 287.495C237.356 288.339 237.553 289.078 238.181 289.721C238.629 290.177 239.121 290.611 239.476 291.134C240.083 292.031 239.919 293.189 239.162 293.959C238.469 294.662 237.771 295.36 237.064 296.049C236.164 296.924 234.776 296.948 233.838 296.106C233.5 295.804 233.196 295.466 232.867 295.152C232.16 294.475 231.34 294.23 230.421 294.636C229.525 295.034 229.067 295.756 229.067 296.749C229.067 297.202 229.079 297.658 229.064 298.111C229.021 299.397 228.019 300.361 226.729 300.361C225.82 300.361 224.911 300.34 224.002 300.366C222.743 300.405 221.655 299.402 221.616 298.006C221.604 297.553 221.616 297.097 221.616 296.643C221.616 295.739 221.096 294.957 220.276 294.629C219.386 294.271 218.593 294.432 217.904 295.096C217.6 295.389 217.31 295.698 217.005 295.991C216.01 296.951 214.59 296.953 213.605 295.991C212.922 295.324 212.248 294.65 211.576 293.969C210.634 293.012 210.644 291.618 211.593 290.656C211.869 290.378 212.142 290.097 212.425 289.826C213.125 289.155 213.368 288.351 213.017 287.442C212.653 286.502 211.924 286.039 210.915 286.022C210.464 286.015 210.013 286.01 209.564 286.003C208.217 285.981 207.236 284.991 207.236 283.647C207.236 282.817 207.282 281.983 207.227 281.155C207.135 279.805 208.116 278.591 209.749 278.574C210.126 278.569 210.502 278.574 210.876 278.574C211.912 278.572 212.634 278.121 212.989 277.252C213.368 276.322 213.145 275.516 212.468 274.81C212.241 274.573 212.008 274.34 211.771 274.112C210.574 272.975 210.572 271.591 211.766 270.433C212.394 269.824 213.025 269.212 213.655 268.603C214.614 267.677 216.07 267.696 217.017 268.629C217.439 269.044 217.84 269.507 218.326 269.831C219.693 270.742 221.535 269.778 221.619 268.14C221.652 267.499 221.612 266.852 221.698 266.221C221.859 265.05 222.827 264.261 224.012 264.259C224.465 264.259 224.921 264.259 225.374 264.259C225.374 264.263 225.374 264.268 225.374 264.273L225.371 264.263ZM217.854 282.294C217.813 286.456 221.175 289.786 225.264 289.819C229.515 289.855 232.913 286.497 232.877 282.237C232.841 278.044 229.474 274.818 225.415 274.782C221.168 274.746 217.796 278.233 217.854 282.294Z" fill="#9FC4FF"/>
<path d="M159.973 222.717C159.973 223.849 159.942 224.974 159.884 226.092C159.774 228.191 159.565 230.261 159.258 232.304C158.088 240.11 155.51 247.455 151.789 254.073C148.928 259.158 145.396 263.811 141.307 267.918C139.298 269.935 137.154 271.821 134.893 273.557C133.831 274.373 132.745 275.155 131.632 275.906C130.536 276.642 129.416 277.347 128.272 278.014C127.268 278.606 126.241 279.17 125.198 279.705C116.429 284.222 106.48 286.772 95.9393 286.772C88.1053 286.772 80.6023 285.364 73.6676 282.787C71.5167 281.991 69.4257 281.082 67.3899 280.067C59.731 276.246 52.9474 270.935 47.4178 264.512C43.9792 260.525 41.0274 256.107 38.6487 251.352C34.3325 242.734 31.9082 233.01 31.9082 222.717C31.9082 188.365 58.9445 160.326 92.8939 158.736C93.2752 158.717 93.6565 158.702 94.0401 158.693C94.6708 158.674 95.3038 158.664 95.9416 158.664C97.6322 158.664 99.3083 158.729 100.963 158.858C101.253 158.882 101.538 158.904 101.826 158.933C134.43 161.905 159.97 189.329 159.97 222.717H159.973Z" fill="#DEEDFF"/>
<path d="M91.8796 165.957H103.123C107.989 165.957 111.94 169.908 111.94 174.777V180.798H83.0625V174.777C83.0625 169.91 87.0142 165.957 91.8796 165.957Z" fill="#404040"/>
<path d="M100.966 155.469H94.043V174.265H100.966V155.469Z" fill="#404040"/>
<path d="M105.204 154.092C106.193 149.835 103.546 145.581 99.2903 144.592C95.0349 143.602 90.7831 146.25 89.7936 150.507C88.8041 154.764 91.4517 159.017 95.7071 160.007C99.9625 160.997 104.214 158.348 105.204 154.092Z" fill="#008BCE"/>
<path d="M136.688 221.518C131.499 221.518 127.293 217.31 127.293 212.12V200.644C127.293 195.453 131.499 191.246 136.688 191.246C141.877 191.246 146.083 195.453 146.083 200.644V212.12C146.083 217.31 141.877 221.518 136.688 221.518Z" fill="#404040"/>
<path d="M151.792 254.073C148.931 259.158 145.399 263.812 141.311 267.919C139.301 269.936 137.157 271.821 134.896 273.558C133.834 274.373 132.748 275.155 131.635 275.906C130.539 276.643 129.419 277.348 128.276 278.015C126.338 274.901 124.753 271.78 123.547 268.758C123.384 268.346 123.226 267.935 123.077 267.528C122.245 265.266 121.629 263.068 121.243 260.984C121.058 260.003 120.926 259.053 120.845 258.127C120.581 255.15 120.845 252.476 121.665 250.269C122.324 248.494 123.348 247.016 124.748 245.925C125.271 245.519 125.83 245.174 126.424 244.893C126.542 244.838 126.659 244.783 126.782 244.737C131.244 242.854 137.534 244.282 144.083 248.271C144.5 248.525 144.917 248.789 145.332 249.065C147.485 250.473 149.658 252.152 151.789 254.076L151.792 254.073Z" fill="#008BCE"/>
<path d="M141.31 267.916C139.3 269.934 137.156 271.819 134.895 273.556C133.833 274.371 132.747 275.153 131.634 275.904C130.538 276.641 129.418 277.346 128.275 278.013C127.27 278.605 126.244 279.169 125.201 279.704C116.431 284.22 106.483 286.77 95.9414 286.77C88.1074 286.77 80.6044 285.362 73.6697 282.786C71.5188 281.99 69.4278 281.081 67.392 280.066C59.7331 276.245 52.9495 270.934 47.4199 264.51C49.8802 258.708 53.0766 253.428 56.8604 248.852C61.5699 243.15 67.1906 238.537 73.4347 235.352C73.7225 235.205 74.0102 235.059 74.3027 234.92H74.3075C80.2975 232.017 86.839 230.42 93.6945 230.42C101.039 230.42 108.032 232.255 114.364 235.563C114.364 235.563 114.364 235.563 114.369 235.563C114.551 235.656 114.734 235.755 114.914 235.853C119.194 238.158 123.167 241.14 126.738 244.687C126.752 244.702 126.769 244.719 126.781 244.731C127.603 245.549 128.404 246.4 129.183 247.276C134.31 253.052 138.463 260.061 141.31 267.909V267.916Z" fill="#008BCE"/>
<path d="M67.3916 280.066C59.7327 276.245 52.9491 270.932 47.4195 264.511C43.9809 260.524 41.0291 256.106 38.6504 251.351C43.4822 247.645 48.5441 246.067 53.2344 247.278C54.5221 247.612 55.7306 248.142 56.86 248.852C64.1305 253.419 68.015 265.434 67.3916 280.066Z" fill="#008BCE"/>
<path d="M73.4199 226.068H114.956V234.689C114.956 242.816 108.36 249.415 100.236 249.415H88.1406C80.0165 249.415 73.4199 242.816 73.4199 234.689V226.068Z" fill="#404040"/>
<path d="M117.197 171.262H79.8878C66.4857 171.262 55.6211 182.13 55.6211 195.537V211.291C55.6211 224.698 66.4857 235.566 79.8878 235.566H117.197C130.599 235.566 141.463 224.698 141.463 211.291V195.537C141.463 182.13 130.599 171.262 117.197 171.262Z" fill="#008BCE"/>
<path d="M54.5317 221.518C49.3426 221.518 45.1367 217.31 45.1367 212.12V200.644C45.1367 195.453 49.3426 191.246 54.5317 191.246C59.7207 191.246 63.9266 195.453 63.9266 200.644V212.12C63.9266 217.31 59.7207 221.518 54.5317 221.518Z" fill="#404040"/>
<path d="M116.045 189.859H88.1553C77.0681 189.859 68.0801 198.85 68.0801 209.941V209.944C68.0801 221.035 77.0681 230.026 88.1553 230.026H116.045C127.132 230.026 136.12 221.035 136.12 209.944V209.941C136.12 198.85 127.132 189.859 116.045 189.859Z" fill="#DEEDFF"/>
<path d="M95.8563 211.982C96.379 209.86 95.0828 207.715 92.9611 207.192C90.8394 206.67 88.6957 207.966 88.173 210.089C87.6503 212.211 88.9465 214.356 91.0682 214.878C93.1899 215.401 95.3336 214.105 95.8563 211.982Z" fill="#404040"/>
<path d="M131.386 213.112C132.529 211.248 131.945 208.811 130.083 207.668C128.22 206.525 125.784 207.109 124.641 208.972C123.499 210.835 124.082 213.272 125.945 214.415C127.807 215.559 130.243 214.975 131.386 213.112Z" fill="#404040"/>
<path d="M104.277 214.594H116.739V215.683C116.739 219.122 113.948 221.915 110.509 221.915C107.071 221.915 104.28 219.122 104.28 215.683V214.594H104.277Z" fill="#008BCE"/>
<path d="M125.201 279.704C116.432 284.221 106.483 286.771 95.9416 286.771C88.1077 286.771 80.6046 285.362 73.6699 282.786C76.1877 271.117 83.0601 261.877 91.8244 258.317C94.3518 257.288 97.0398 256.736 99.8286 256.736C104.078 256.736 108.101 258.024 111.689 260.322C113.703 261.613 115.578 263.222 117.276 265.101C119.218 267.245 120.928 269.742 122.352 272.517C123.498 274.746 124.457 277.154 125.203 279.702L125.201 279.704Z" fill="#DEEDFF"/>
<path d="M111.686 260.326C110.986 265.683 106.828 269.796 101.804 269.796C96.2865 269.796 91.8145 264.833 91.8145 258.717C91.8145 258.585 91.8169 258.451 91.824 258.321C94.3538 257.292 97.0395 256.74 99.8282 256.74C104.08 256.74 108.103 258.028 111.686 260.329V260.326Z" fill="white"/>
<path d="M95.9422 287.13C88.2354 287.13 80.6988 285.782 73.5458 283.124C71.4165 282.337 69.2944 281.416 67.2322 280.387C59.5373 276.546 52.78 271.284 47.1474 264.745C43.6704 260.713 40.7042 256.261 38.3303 251.514C36.5942 248.045 35.1651 244.399 34.0884 240.676C34.0333 240.484 34.1436 240.285 34.333 240.23C34.5225 240.173 34.7239 240.285 34.779 240.475C35.8461 244.154 37.2561 247.76 38.9754 251.19C41.3229 255.884 44.2555 260.286 47.6941 264.275C53.262 270.742 59.945 275.944 67.5535 279.742C69.5893 280.759 71.6899 281.668 73.7952 282.447C80.869 285.076 88.3217 286.408 95.9422 286.408C106.198 286.408 115.989 284.045 125.036 279.382C126.103 278.832 127.129 278.266 128.093 277.7C129.206 277.05 130.33 276.345 131.433 275.601C132.517 274.872 133.608 274.085 134.675 273.267C136.915 271.55 139.061 269.662 141.054 267.659C145.14 263.558 148.646 258.923 151.475 253.893C155.257 247.165 157.758 239.882 158.901 232.247C159.206 230.211 159.415 228.133 159.522 226.071C159.58 224.95 159.611 223.821 159.611 222.715C159.611 192.827 138.433 166.626 109.253 160.418C109.059 160.377 108.934 160.185 108.975 159.991C109.016 159.797 109.207 159.672 109.402 159.713C123.604 162.735 136.522 170.625 145.778 181.927C155.161 193.388 160.331 207.872 160.331 222.715C160.331 223.833 160.302 224.974 160.242 226.107C160.134 228.193 159.92 230.295 159.614 232.353C158.455 240.074 155.928 247.441 152.103 254.243C149.24 259.331 145.696 264.016 141.565 268.165C139.548 270.192 137.378 272.099 135.114 273.836C134.035 274.664 132.932 275.457 131.834 276.196C130.717 276.947 129.58 277.662 128.455 278.319C127.482 278.892 126.441 279.466 125.364 280.02C116.214 284.736 106.313 287.125 95.9422 287.125V287.13Z" fill="#404040"/>
<path d="M366.122 205.145C366.429 208.234 366.928 212.631 367.743 217.877C369.661 230.218 373.037 250.965 383.941 273.896C388.976 284.484 397.429 299.349 411.478 314.868C403.599 322.482 395.719 330.098 387.84 337.711C378.706 330.146 368.16 319.592 358.844 305.322C333.194 266.024 334.05 224.824 335.407 207.913C345.646 206.992 355.885 206.068 366.124 205.147L366.122 205.145Z" fill="#1D1D1D"/>
<path d="M387.837 338.069C387.756 338.069 387.674 338.043 387.607 337.988C376.231 328.563 366.453 317.64 358.54 305.519C347.421 288.483 340.052 269.226 336.64 248.281C334.491 235.086 333.954 221.495 335.045 207.884C335.059 207.709 335.196 207.57 335.371 207.556L366.086 204.79C366.282 204.776 366.458 204.917 366.477 205.114C366.896 209.338 367.438 213.613 368.095 217.825C369.865 229.206 373.157 250.392 384.262 273.743C391.264 288.464 400.508 302.221 411.742 314.629C411.871 314.773 411.864 314.994 411.725 315.13L388.087 337.973C388.017 338.041 387.928 338.074 387.837 338.074V338.069ZM335.74 208.242C333.784 233.169 336.292 270.112 359.144 305.123C366.959 317.095 376.605 327.894 387.82 337.225L410.977 314.847C399.803 302.453 390.597 288.73 383.614 274.048C372.464 250.601 369.16 229.348 367.386 217.93C366.748 213.824 366.213 209.655 365.798 205.534L335.74 208.242Z" fill="#404040"/>
<path d="M320.184 201.867C316.405 247.596 312.629 293.325 308.85 339.054L343.096 339.75C344.451 302.135 345.806 264.521 347.161 226.91C347.211 225.497 348.084 224.245 349.391 223.705C350.046 223.436 350.698 223.165 351.352 222.897L320.182 201.867H320.184Z" fill="#1D1D1D"/>
<path d="M343.098 340.109H343.091L308.844 339.413C308.746 339.413 308.65 339.368 308.585 339.294C308.518 339.219 308.484 339.121 308.494 339.022L319.829 201.836C319.845 201.637 320.018 201.49 320.217 201.507C320.416 201.524 320.562 201.697 320.546 201.896L309.244 338.701L342.755 339.38L346.807 226.893C346.863 225.343 347.827 223.959 349.26 223.369L351.222 222.561C351.407 222.484 351.615 222.573 351.692 222.757C351.769 222.942 351.68 223.151 351.495 223.227L349.534 224.036C348.361 224.52 347.572 225.653 347.527 226.921L343.462 339.761C343.455 339.956 343.297 340.109 343.103 340.109H343.098Z" fill="#404040"/>
<path d="M358.023 179.68C361.377 188.052 364.734 196.423 368.089 204.795C363.02 207.426 353.699 211.427 341.362 212.087C329.91 212.698 320.812 210.165 315.561 208.268C317.589 200.587 319.493 192.597 321.229 184.31C321.841 181.388 322.419 178.495 322.965 175.629C326.881 177.735 333.936 180.841 343.213 181.299C349.333 181.602 354.44 180.657 358.023 179.678V179.68Z" fill="white"/>
<path d="M337.823 212.542C330.188 212.542 322.676 211.222 315.439 208.606C315.264 208.543 315.165 208.356 315.213 208.176C317.297 200.28 319.203 192.227 320.877 184.237C321.479 181.368 322.062 178.449 322.611 175.563C322.632 175.451 322.707 175.355 322.81 175.307C322.913 175.256 323.033 175.261 323.136 175.314C329.349 178.653 336.298 180.598 343.23 180.944C348.17 181.188 353.114 180.646 357.927 179.337C358.104 179.289 358.287 179.38 358.356 179.55L368.423 204.664C368.492 204.837 368.418 205.031 368.255 205.118C359.97 209.416 350.678 211.952 341.382 212.448C340.195 212.511 339.008 212.544 337.823 212.544V212.542ZM315.993 208.042C324.167 210.951 332.694 212.192 341.343 211.729C350.429 211.244 359.512 208.788 367.634 204.626L357.81 180.111C353.021 181.383 348.108 181.903 343.197 181.661C336.317 181.32 329.423 179.425 323.229 176.177C322.707 178.912 322.153 181.67 321.584 184.386C319.93 192.28 318.05 200.239 315.995 208.042H315.993Z" fill="#404040"/>
<path d="M370.199 190.022C359.753 190.506 354.519 191.149 354.492 191.955C354.473 192.584 357.614 193.308 363.916 194.131C364.964 196.87 366.009 199.61 367.057 202.349C368.908 202.454 371.318 202.409 374.064 201.864C376.131 201.457 377.893 200.864 379.311 200.279L370.199 190.02V190.022Z" fill="#FFCFC5"/>
<path d="M368.652 202.755C368.115 202.755 367.576 202.741 367.039 202.709C366.897 202.702 366.772 202.611 366.722 202.479L363.658 194.46C360.615 194.06 358.293 193.676 356.754 193.321C354.826 192.877 354.116 192.503 354.133 191.944C354.15 191.38 354.869 190.944 358.394 190.51C361.008 190.188 364.974 189.903 370.182 189.66C370.381 189.653 370.549 189.804 370.559 190.003C370.568 190.203 370.415 190.37 370.216 190.38C358.027 190.944 355.426 191.632 354.917 191.966C355.27 192.217 356.864 192.846 363.962 193.772C364.094 193.789 364.204 193.877 364.252 194L367.31 201.999C369.552 202.107 371.801 201.944 373.995 201.51C375.762 201.16 377.503 200.634 379.172 199.946C379.357 199.872 379.565 199.958 379.642 200.14C379.719 200.325 379.63 200.534 379.448 200.61C377.736 201.318 375.947 201.858 374.134 202.215C372.331 202.57 370.492 202.75 368.65 202.75L368.652 202.755Z" fill="#404040"/>
<path d="M284.615 158.542L274.832 142.296C274.403 141.732 274.384 140.979 274.755 140.473C275.216 139.847 276.204 139.691 276.93 140.23C276.302 139.305 276.678 138.146 277.415 137.813C278.014 137.541 278.88 137.808 279.347 138.537C278.949 137.822 279.052 136.939 279.589 136.361C280.071 135.843 280.829 135.654 281.522 135.877C277.362 128.57 275.59 124.704 276.206 124.274C276.889 123.799 280.52 127.568 287.097 135.579C290.337 140.595 293.576 145.611 296.816 150.626L284.615 158.54V158.542Z" fill="#FFCFC5"/>
<path d="M284.615 158.902C284.493 158.902 284.376 158.84 284.306 158.727L274.532 142.497C274.024 141.816 273.995 140.9 274.465 140.259C274.736 139.89 275.17 139.636 275.652 139.564C275.863 139.532 276.076 139.535 276.283 139.571C276.23 139.261 276.244 138.942 276.331 138.638C276.479 138.108 276.822 137.688 277.266 137.486C277.724 137.28 278.263 137.316 278.743 137.544C278.757 137.023 278.956 136.515 279.326 136.119C279.724 135.692 280.278 135.45 280.853 135.428C278.961 132.085 277.582 129.47 276.748 127.649C275.537 125.006 275.566 124.286 276.002 123.982C276.489 123.643 277.304 123.082 287.375 135.354C287.385 135.364 287.392 135.376 287.399 135.388L297.118 150.435C297.226 150.603 297.178 150.823 297.01 150.931C296.842 151.039 296.622 150.991 296.514 150.823L286.805 135.795C279.028 126.323 276.978 124.768 276.439 124.613C276.403 125.114 276.992 127.196 281.834 135.702C281.908 135.831 281.894 135.992 281.8 136.107C281.707 136.222 281.551 136.268 281.409 136.222C280.848 136.04 280.239 136.194 279.851 136.608C279.422 137.071 279.342 137.793 279.659 138.364C279.755 138.535 279.697 138.748 279.529 138.849C279.364 138.95 279.148 138.897 279.043 138.734C278.657 138.129 277.973 137.957 277.561 138.144C277.314 138.254 277.115 138.513 277.024 138.834C276.911 139.237 276.985 139.674 277.227 140.031C277.326 140.178 277.307 140.372 277.179 140.494C277.052 140.617 276.856 140.626 276.717 140.523C276.439 140.314 276.098 140.228 275.76 140.278C275.465 140.322 275.206 140.473 275.045 140.689C274.765 141.072 274.794 141.658 275.117 142.08C275.124 142.09 275.134 142.102 275.139 142.114L284.922 158.36C285.025 158.53 284.97 158.751 284.8 158.854C284.742 158.89 284.678 158.907 284.615 158.907V158.902Z" fill="#404040"/>
<path d="M349.576 129.795H340.551V144.379H349.576V129.795Z" fill="white"/>
<path d="M349.577 144.739H340.551C340.352 144.739 340.191 144.579 340.191 144.379V129.795C340.191 129.596 340.352 129.436 340.551 129.436H349.577C349.776 129.436 349.936 129.596 349.936 129.795V144.379C349.936 144.579 349.776 144.739 349.577 144.739ZM340.911 144.02H349.217V130.155H340.911V144.02Z" fill="#404040"/>
<path d="M356.066 139.137C358.184 152.906 360.303 166.674 362.421 180.443C358.822 182.664 347.3 189.136 332.684 186.747C326.472 185.732 321.613 183.427 318.338 181.474C321.249 168.08 324.16 154.686 327.071 141.291C331.742 140.334 336.413 139.377 341.084 138.42C342.31 138.799 343.684 139.137 345.192 139.377C349.542 140.073 353.318 139.686 356.064 139.137H356.066Z" fill="#008BCE"/>
<path d="M308.521 338.939C307.037 340.976 305.552 343.015 304.068 345.051C302.447 347.275 304.034 350.398 306.785 350.398H337.888C339.403 350.398 340.734 349.383 341.132 347.92C341.864 345.236 342.597 342.552 343.329 339.865C331.725 339.556 320.124 339.249 308.521 338.939Z" fill="#404040"/>
<path d="M378.026 345.907C376.218 347.603 377.417 350.637 379.896 350.637H384.335C388.764 350.556 393.195 350.476 397.624 350.395C400.31 349.025 404.297 346.629 408.237 342.64C411.244 339.594 413.834 336.972 415.205 332.539C415.814 330.574 417.308 324.616 414.32 318.713C413.376 316.847 412.241 315.494 411.395 314.623C400.271 325.05 389.147 335.477 378.023 345.907H378.026Z" fill="#404040"/>
<path d="M368.089 144.385C374.285 149.905 380.977 156.604 387.641 164.635C387.682 164.685 387.725 164.736 387.766 164.786C394.446 172.853 394.557 184.504 388.09 192.741C385.085 196.567 382.083 200.39 379.078 204.216C375.568 198.932 372.06 193.645 368.549 188.361L370.851 184.88C372.386 182.558 371.985 179.461 369.911 177.607C363.866 172.203 357.819 166.799 351.773 161.392L368.086 144.383L368.089 144.385Z" fill="#008BCE"/>
<path d="M373.294 149.589C373.198 150.778 372.531 157.552 366.815 161.858C360.484 166.627 350.466 166.485 347.608 162.321C345.076 158.632 349.26 154.376 349.229 144.729C349.205 137.991 347.097 132.541 345.411 129.104C339.469 128.341 334.827 125.302 332.921 121.797C332.369 120.785 332.048 119.732 331.99 118.686C331.983 118.583 331.981 118.477 331.981 118.374C331.942 112.222 340.927 106.829 348.303 107.69C356.398 108.636 360.861 116.909 362.187 122.275C363.038 125.724 362.755 128.725 362.42 130.608C369.601 134.856 373.886 142.198 373.296 149.589H373.294Z" fill="#404040"/>
<path d="M341.083 138.177C338.433 138.045 335.781 137.913 333.132 137.781C324.24 137.781 315.756 141.514 309.745 148.067L301.558 156.995L295.772 147.736C293.888 148.679 291.108 150.346 288.406 153.162C285.74 155.942 284.198 158.746 283.332 160.655C284.632 163.339 291.614 177.144 303.64 178.986C318.231 181.219 337.467 165.412 341.081 138.177H341.083Z" fill="#008BCE"/>
<path d="M306.628 179.896C305.674 179.896 304.739 179.824 303.82 179.68C301.159 179.26 298.55 178.2 296.066 176.526C295.9 176.415 295.857 176.192 295.967 176.027C296.078 175.861 296.303 175.818 296.466 175.929C298.864 177.543 301.374 178.567 303.931 178.97C312.683 180.349 323.155 174.676 330.619 164.518C330.737 164.357 330.962 164.324 331.123 164.441C331.283 164.559 331.317 164.784 331.2 164.945C327.385 170.136 322.781 174.252 317.889 176.847C314.086 178.865 310.244 179.898 306.628 179.898V179.896Z" fill="#404040"/>
<path d="M302.906 159.081C302.791 159.081 302.679 159.026 302.609 158.923L299.185 153.871C299.075 153.706 299.115 153.483 299.281 153.372C299.444 153.262 299.669 153.303 299.779 153.468L303.204 158.52C303.314 158.685 303.273 158.909 303.108 159.019C303.045 159.06 302.976 159.081 302.906 159.081Z" fill="#404040"/>
<path d="M351.229 123.12C350.618 122.328 349.44 122.151 348.285 122.575C348.337 119.171 346.889 116.243 344.275 115.166C340.494 113.606 335.712 116.509 333.59 121.649C331.47 126.79 332.816 132.223 336.597 133.782C340.244 135.286 344.822 132.638 347.045 127.835C347.949 128.085 349.117 127.823 350.102 127.061C351.546 125.945 352.049 124.18 351.229 123.12Z" fill="#FFCFC5"/>
<path d="M338.744 134.561C337.963 134.561 337.195 134.417 336.461 134.114C332.505 132.481 331.069 126.827 333.26 121.512C334.315 118.955 336.042 116.851 338.126 115.587C340.243 114.301 342.478 114.032 344.413 114.834C346.962 115.884 348.554 118.643 348.64 122.095C349.813 121.816 350.904 122.114 351.513 122.9C351.981 123.507 352.105 124.313 351.861 125.17C351.628 125.988 351.081 126.76 350.324 127.348C349.381 128.077 348.233 128.406 347.25 128.25C345.353 132.138 341.948 134.563 338.744 134.563V134.561ZM342.113 115.102C340.933 115.102 339.699 115.472 338.497 116.203C336.545 117.388 334.92 119.372 333.924 121.787C331.884 126.736 333.145 131.97 336.735 133.45C340.178 134.872 344.566 132.339 346.72 127.686C346.794 127.528 346.971 127.444 347.142 127.489C347.969 127.717 349.019 127.444 349.882 126.777C350.52 126.285 350.976 125.642 351.168 124.971C351.348 124.34 351.268 123.759 350.945 123.339C350.448 122.697 349.453 122.531 348.408 122.912C348.297 122.953 348.173 122.936 348.077 122.867C347.981 122.797 347.923 122.687 347.926 122.567C347.979 119.19 346.528 116.479 344.139 115.496C343.497 115.232 342.816 115.1 342.116 115.1L342.113 115.102Z" fill="#404040"/>
<path d="M344.023 114.289C343.632 115.313 341.961 119.345 337.774 121.003C336.326 121.576 334.338 121.96 332.918 121.799C332.367 120.787 332.046 119.734 331.988 118.688C331.981 118.585 331.979 118.479 331.979 118.376C332.823 117.076 334.468 115.186 337.542 112.439L344.021 114.291L344.023 114.289Z" fill="#404040"/>
<path d="M343.08 114.355C341.72 116.481 341.562 119.052 342.718 120.748C344.365 123.161 348.703 123.835 351.923 121.12L343.08 114.355Z" fill="#404040"/>
<path d="M368.75 163.313C368.661 163.313 368.573 163.279 368.503 163.215C368.359 163.078 368.352 162.85 368.489 162.706C370.354 160.732 374.666 155.325 374.431 147.736C374.392 146.51 373.817 135.639 365.46 131.859C361.6 130.112 357.746 130.575 355.192 131.273C355.001 131.326 354.804 131.213 354.751 131.022C354.699 130.83 354.811 130.633 355.003 130.58C357.669 129.851 361.703 129.369 365.758 131.204C374.51 135.166 375.112 146.443 375.15 147.714C375.395 155.572 370.939 161.161 369.012 163.2C368.942 163.275 368.846 163.313 368.75 163.313Z" fill="#404040"/>
<path d="M333.267 122.408C331.981 122.408 330.917 122.173 330.226 121.964C330.037 121.907 329.929 121.705 329.986 121.516C330.044 121.326 330.245 121.218 330.435 121.276C331.631 121.636 334.039 122.086 336.724 121.043C339.827 119.839 341.343 117.383 341.849 116.382C341.94 116.205 342.156 116.135 342.333 116.224C342.51 116.315 342.58 116.531 342.491 116.709C341.947 117.783 340.319 120.422 336.986 121.715C335.648 122.233 334.377 122.408 333.267 122.408Z" fill="#404040"/>
<path d="M345.656 123.713C344.637 123.713 343.618 123.449 342.709 122.895C341.366 122.077 340.409 120.676 340.083 119.047C339.743 117.342 340.133 115.559 341.155 114.156C341.272 113.995 341.498 113.959 341.659 114.077C341.819 114.195 341.855 114.42 341.738 114.581C340.834 115.821 340.488 117.399 340.79 118.906C341.076 120.338 341.913 121.566 343.083 122.278C345.332 123.648 348.478 122.933 350.094 120.683C350.212 120.522 350.435 120.486 350.595 120.601C350.756 120.717 350.795 120.942 350.677 121.103C349.466 122.789 347.557 123.71 345.656 123.71V123.713Z" fill="#404040"/>
<path d="M362.107 178.42C361.937 178.42 361.785 178.3 361.754 178.125L357.647 156.129C357.611 155.935 357.738 155.745 357.934 155.709C358.129 155.673 358.318 155.8 358.354 155.997L362.462 177.993C362.498 178.187 362.371 178.377 362.174 178.413C362.152 178.418 362.128 178.42 362.107 178.42Z" fill="#404040"/>
</g>
<path d="M96.3861 45.4936C98.4547 45.4936 100.132 43.8161 100.132 41.7468C100.132 39.6775 98.4547 38 96.3861 38C94.3175 38 92.6406 39.6775 92.6406 41.7468C92.6406 43.8161 94.3175 45.4936 96.3861 45.4936Z" fill="#DEEDFF"/>
<path d="M106.634 45.4936C108.703 45.4936 110.38 43.8161 110.38 41.7468C110.38 39.6775 108.703 38 106.634 38C104.566 38 102.889 39.6775 102.889 41.7468C102.889 43.8161 104.566 45.4936 106.634 45.4936Z" fill="#DEEDFF"/>
<path d="M116.88 45.4936C118.949 45.4936 120.626 43.8161 120.626 41.7468C120.626 39.6775 118.949 38 116.88 38C114.812 38 113.135 39.6775 113.135 41.7468C113.135 43.8161 114.812 45.4936 116.88 45.4936Z" fill="#1D1E1E"/>
<path d="M88.4028 41.4149H32.4359C32.2368 41.4149 32.0762 41.2542 32.0762 41.0551C32.0762 40.856 32.2368 40.6953 32.4359 40.6953H88.4028C88.6018 40.6953 88.7625 40.856 88.7625 41.0551C88.7625 41.2542 88.6018 41.4149 88.4028 41.4149Z" fill="#404040"/>
<path d="M41.1073 49.7313H32.6331C32.4341 49.7313 32.2734 49.5706 32.2734 49.3715C32.2734 49.1724 32.4341 49.0117 32.6331 49.0117H41.1073C41.3063 49.0117 41.467 49.1724 41.467 49.3715C41.467 49.5706 41.3063 49.7313 41.1073 49.7313Z" fill="#404040"/>
<path d="M72.4425 49.8309H47.514C47.315 49.8309 47.1543 49.6702 47.1543 49.4711C47.1543 49.272 47.315 49.1113 47.514 49.1113H72.4425C72.6415 49.1113 72.8022 49.272 72.8022 49.4711C72.8022 49.6702 72.6415 49.8309 72.4425 49.8309Z" fill="#404040"/>
<path d="M32.7308 108.147C32.5318 108.147 32.3711 107.986 32.3711 107.787V57.3207C32.3711 57.1217 32.5318 56.9609 32.7308 56.9609H53.3239C53.5229 56.9609 53.6836 57.1217 53.6836 57.3207C53.6836 57.5198 53.5229 57.6805 53.3239 57.6805H33.0905V107.787C33.0905 107.986 32.9298 108.147 32.7308 108.147Z" fill="#404040"/>
<path d="M150.283 41.5165H125.551C125.352 41.5165 125.191 41.3558 125.191 41.1567C125.191 40.9576 125.352 40.7969 125.551 40.7969H150.283C150.482 40.7969 150.643 40.9576 150.643 41.1567C150.643 41.3558 150.482 41.5165 150.283 41.5165Z" fill="#404040"/>
</g>
<defs>
<clipPath id="clip0_2449_11048">
<rect width="427" height="425" fill="white"/>
</clipPath>
<clipPath id="clip1_2449_11048">
<rect width="412" height="277" fill="white" transform="translate(11 74)"/>
</clipPath>
</defs>
</svg>
