<svg width="427" height="425" viewBox="0 0 427 425" fill="none" xmlns="http://www.w3.org/2000/svg">
<g clip-path="url(#clip0_2413_14530)">
<path d="M400.041 382.57C388.531 392.16 338.441 398.94 278.761 401.49C187.021 405.42 72.6009 399.37 40.7909 378.2C25.7309 368.19 15.5509 337.25 9.1009 297.66C-6.9291 199.16 0.220901 47.1301 13.1609 30.6501C31.3109 7.56009 323.301 -15.3099 399.911 13.9301C432.741 26.4601 429.231 358.23 400.031 382.57H400.041Z" fill="white"/>
<path d="M373.314 247.44L375.204 241.883L377.358 247.44C377.358 247.44 381.657 248.14 381.712 248.531C381.757 248.913 377.595 250.095 377.595 250.095C377.595 250.095 375.85 255.488 375.204 254.27C374.568 253.051 373.95 250.35 373.95 250.35C373.95 250.35 368.533 249.268 368.533 248.731C368.533 248.158 373.314 247.449 373.314 247.449V247.44Z" fill="white"/>
<path d="M304.094 233.142L305.566 228.822L307.238 233.142C307.238 233.142 310.574 233.688 310.619 233.988C310.656 234.279 307.429 235.198 307.429 235.198C307.429 235.198 306.075 239.381 305.575 238.435C305.075 237.49 304.594 235.389 304.594 235.389C304.594 235.389 300.395 234.543 300.395 234.134C300.395 233.688 304.103 233.142 304.103 233.142H304.094Z" fill="white"/>
<g clip-path="url(#clip1_2413_14530)">
<path d="M359.844 316.492H53.5083C38.0832 316.492 25.5352 303.941 25.5352 288.513V104.168C25.5352 88.7399 38.0832 76.1895 53.5083 76.1895H359.846C375.271 76.1895 387.819 88.7399 387.819 104.168V288.515C387.819 303.943 375.271 316.494 359.846 316.494L359.844 316.492ZM53.5083 77.0907C38.5818 77.0907 26.4363 89.2365 26.4363 104.168V288.515C26.4363 303.445 38.5797 315.592 53.5083 315.592H359.846C374.772 315.592 386.918 303.447 386.918 288.515V104.168C386.918 89.2386 374.774 77.0907 359.846 77.0907H53.5083Z" fill="black"/>
<path d="M387.275 278.571H26.0746C25.8253 278.571 25.623 278.369 25.623 278.12C25.623 277.87 25.8253 277.668 26.0746 277.668H387.275C387.525 277.668 387.727 277.87 387.727 278.12C387.727 278.369 387.525 278.571 387.275 278.571Z" fill="black"/>
<path d="M267.379 379.638H145.975C145.842 379.638 145.716 379.578 145.632 379.478C145.546 379.376 145.509 379.243 145.532 379.113L156.274 315.966C156.31 315.749 156.498 315.592 156.717 315.592H256.636C256.854 315.592 257.042 315.751 257.079 315.966L267.821 379.113C267.843 379.243 267.806 379.378 267.721 379.478C267.635 379.581 267.51 379.638 267.377 379.638H267.379ZM146.509 378.734H266.846L256.258 316.491H157.099L146.511 378.734H146.509Z" fill="black"/>
<path d="M283.72 391.906H129.63C126.001 391.906 123.049 388.953 123.049 385.323C123.049 381.694 126.001 378.734 129.63 378.734H283.72C287.349 378.734 290.301 381.688 290.301 385.317C290.301 388.947 287.349 391.906 283.72 391.906ZM129.632 379.638C126.5 379.638 123.952 382.186 123.952 385.319C123.952 388.452 126.5 391.007 129.632 391.007H283.722C286.854 391.007 289.402 388.458 289.402 385.325C289.402 382.192 286.854 379.638 283.722 379.638H129.632Z" fill="black"/>
<path d="M206.677 300.004C203.736 300.004 201.344 297.611 201.344 294.668C201.344 291.725 203.736 289.332 206.677 289.332C209.617 289.332 212.01 291.725 212.01 294.668C212.01 297.611 209.617 300.004 206.677 300.004ZM206.677 290.235C204.233 290.235 202.245 292.224 202.245 294.67C202.245 297.117 204.233 299.105 206.677 299.105C209.121 299.105 211.109 297.117 211.109 294.67C211.109 292.224 209.121 290.235 206.677 290.235Z" fill="black"/>
<path d="M244.943 140.621L304.188 61.9824C304.188 61.9824 300.058 68.6715 306.509 89.6932C309.053 97.9886 317.128 113.498 321.486 121.001C326.464 129.568 338.663 145.619 346.356 151.859C358.595 161.785 363.25 160.093 363.25 160.093L235.497 178.043C231.987 178.534 228.525 176.856 226.725 173.794C224.927 170.733 225.146 166.89 227.281 164.062L237.107 151.021L244.943 140.621Z" fill="#008BCE"/>
<path d="M244.944 141.07C244.85 141.07 244.754 141.042 244.674 140.98C244.476 140.831 244.435 140.547 244.584 140.349L303.828 61.7107C303.977 61.5124 304.259 61.4715 304.46 61.6228C304.658 61.772 304.699 62.0561 304.549 62.2543L245.305 140.892C245.217 141.011 245.083 141.072 244.946 141.072L244.944 141.07Z" fill="black"/>
<path d="M234.276 178.581C231.039 178.581 228.017 176.881 226.339 174.026C224.441 170.794 224.672 166.778 226.926 163.793L236.75 150.752C236.899 150.553 237.183 150.513 237.382 150.664C237.58 150.813 237.621 151.097 237.471 151.295L227.647 164.336C225.614 167.03 225.406 170.655 227.12 173.57C228.832 176.484 232.102 178.066 235.44 177.6L363.193 159.65C363.438 159.615 363.667 159.787 363.702 160.034C363.737 160.282 363.565 160.508 363.318 160.543L235.565 178.493C235.134 178.552 234.705 178.583 234.28 178.583L234.276 178.581Z" fill="black"/>
<path d="M348.128 118.9C348.128 118.9 345.933 120.23 340.502 114.155C338.303 111.696 334.954 105.873 333.827 102.775C330.974 94.9334 333.567 93.9912 333.567 93.9912L311.387 101.986C313.845 107.453 316.791 113.137 320.191 118.855C323.483 124.391 326.932 129.54 330.416 134.203L348.128 118.9Z" fill="white"/>
<path d="M332.25 133.069C332.123 133.069 331.998 133.016 331.908 132.914C331.745 132.726 331.767 132.442 331.955 132.278L347.834 118.559C348.022 118.397 348.306 118.416 348.47 118.606C348.633 118.794 348.611 119.078 348.423 119.241L332.544 132.961C332.458 133.034 332.354 133.071 332.25 133.071V133.069Z" fill="black"/>
<path d="M313.272 101.758C313.088 101.758 312.914 101.643 312.849 101.459C312.765 101.224 312.886 100.967 313.121 100.883L333.415 93.5686C333.648 93.4848 333.907 93.6054 333.991 93.8404C334.075 94.0754 333.954 94.3329 333.719 94.4167L313.425 101.731C313.374 101.75 313.323 101.758 313.272 101.758Z" fill="black"/>
<path d="M345.041 103.975C340.967 97.1208 335.82 92.6614 333.546 94.0143C331.271 95.3673 332.73 102.02 336.805 108.874C340.879 115.729 345.924 120.239 348.184 118.86C350.444 117.482 349.116 110.828 345.041 103.973V103.975Z" fill="black"/>
<path d="M362.314 160.6C361.415 160.6 360.459 160.476 359.446 160.224C348.79 157.58 332.86 141.046 319.805 119.086C311.828 105.671 306.062 92.0194 303.567 80.6481C301.037 69.1175 302.187 61.2553 306.807 58.5065C311.427 55.7577 318.881 58.5024 327.803 66.2297C336.599 73.8507 345.837 85.4366 353.812 98.8535C370.249 126.501 375.87 153.721 366.34 159.534C365.175 160.245 363.828 160.6 362.314 160.6ZM310.8 58.3859C309.462 58.3859 308.275 58.6802 307.267 59.2811C303.07 61.7785 302.042 69.4956 304.447 80.454C306.922 91.7332 312.651 105.289 320.579 118.624C333.52 140.392 349.227 156.758 359.664 159.35C362.141 159.965 364.229 159.769 365.872 158.765C374.826 153.302 368.949 126.078 353.038 99.3154C345.11 85.9802 335.937 74.472 327.212 66.9123C320.772 61.333 315.03 58.3859 310.802 58.3859H310.8Z" fill="black"/>
<path d="M287.216 203.07C287.118 203.07 287.02 203.037 286.942 202.976L251.924 176.056C251.781 175.945 251.717 175.759 251.762 175.584C251.809 175.408 251.956 175.277 252.136 175.253L265.062 173.436C265.181 173.419 265.303 173.452 265.399 173.526L293.16 194.866C293.356 195.017 293.395 195.299 293.244 195.498L287.578 202.892C287.504 202.986 287.398 203.049 287.279 203.066C287.259 203.068 287.241 203.07 287.22 203.07H287.216ZM253.323 175.997L287.134 201.986L292.253 195.308L264.999 174.355L253.323 175.997Z" fill="black"/>
<path d="M319.167 230.96L320.614 235.36L304.188 227.904L315.591 214.15L316.219 218.591C335.72 213.946 353.399 202.709 366 186.954C378.975 170.729 385.835 151.146 385.835 130.321C385.835 124.633 385.305 118.944 384.261 113.407L396.752 111.053C397.941 117.364 398.544 123.846 398.544 130.323C398.544 153.726 390.512 176.658 375.925 194.896C361.564 212.854 341.405 225.66 319.163 230.96H319.167Z" fill="#A0D2F4"/>
<path d="M371.401 57.71L374.44 54.2132L376.448 72.1427L358.796 69.3878L362.288 66.5736C348.314 52.1981 329.611 42.7623 309.627 40.0032C289.049 37.1625 268.718 41.2969 250.835 51.959C245.951 54.8713 241.333 58.2393 237.114 61.9711L228.695 52.4454C233.507 48.1924 238.765 44.3543 244.327 41.0394C264.425 29.0571 288.234 24.2176 311.364 27.4099C334.139 30.5531 355.459 41.3153 371.399 57.71H371.401Z" fill="#A0D2F4"/>
<path d="M194.275 102.95L189.721 102.104L204.155 91.2842L210.728 107.9L206.533 106.316C201.229 125.651 202.579 146.559 210.332 165.185C218.317 184.365 232.185 199.797 250.442 209.812C255.428 212.546 260.671 214.819 266.027 216.566L262.085 228.653C255.982 226.66 250.007 224.073 244.331 220.96C223.816 209.707 207.573 191.637 198.599 170.074C189.762 148.845 188.227 125.008 194.277 102.956L194.275 102.95Z" fill="#A0D2F4"/>
<path d="M320.616 235.811C320.553 235.811 320.489 235.799 320.43 235.77L304.004 228.315C303.875 228.258 303.783 228.143 303.75 228.006C303.718 227.869 303.752 227.726 303.842 227.618L315.246 213.864C315.361 213.727 315.544 213.67 315.716 213.719C315.888 213.768 316.014 213.913 316.039 214.089L316.599 218.039C335.81 213.347 353.215 202.223 365.651 186.674C378.563 170.529 385.387 151.044 385.387 130.323C385.387 124.662 384.86 119.001 383.822 113.493C383.8 113.374 383.826 113.254 383.892 113.156C383.959 113.058 384.063 112.988 384.18 112.968L396.671 110.613C396.789 110.591 396.91 110.617 397.008 110.685C397.106 110.752 397.175 110.857 397.196 110.973C398.391 117.313 398.996 123.824 398.996 130.327C398.996 153.832 390.927 176.864 376.278 195.182C361.959 213.087 341.895 225.897 319.746 231.287L321.039 235.223C321.094 235.392 321.045 235.58 320.912 235.699C320.828 235.775 320.72 235.813 320.612 235.813L320.616 235.811ZM304.913 227.739L319.866 234.526L318.74 231.101C318.701 230.98 318.714 230.849 318.775 230.741C318.836 230.631 318.94 230.551 319.065 230.522C341.211 225.247 361.28 212.495 375.577 194.616C390.099 176.458 398.099 153.623 398.099 130.323C398.099 124.028 397.527 117.725 396.397 111.58L384.791 113.769C385.786 119.191 386.288 124.76 386.288 130.323C386.288 151.251 379.396 170.932 366.356 187.236C353.691 203.071 335.925 214.363 316.327 219.03C316.202 219.061 316.074 219.037 315.969 218.965C315.865 218.893 315.794 218.781 315.777 218.656L315.291 215.223L304.913 227.739Z" fill="black"/>
<path d="M376.448 72.5923C376.425 72.5923 376.401 72.5923 376.378 72.5861L358.726 69.8312C358.55 69.8046 358.407 69.6739 358.36 69.5022C358.313 69.3305 358.374 69.1466 358.513 69.0342L361.619 66.5327C347.753 52.429 329.286 43.1709 309.567 40.4487C289.091 37.6223 268.862 41.7363 251.067 52.3452C246.206 55.2432 241.613 58.5949 237.414 62.3063C237.326 62.386 237.207 62.4268 237.087 62.4187C236.968 62.4105 236.856 62.3573 236.776 62.2674L228.358 52.7417C228.278 52.6517 228.237 52.5352 228.245 52.4147C228.253 52.2961 228.306 52.1837 228.396 52.104C233.229 47.8327 238.511 43.9782 244.095 40.649C264.281 28.6136 288.194 23.7536 311.425 26.9602C334.134 30.0953 355.407 40.7737 371.378 57.0416L374.096 53.9148C374.214 53.7799 374.4 53.7267 374.57 53.7799C374.741 53.833 374.864 53.9822 374.884 54.16L376.893 72.0895C376.909 72.2285 376.858 72.3675 376.756 72.4656C376.672 72.5473 376.56 72.5902 376.445 72.5902L376.448 72.5923ZM359.872 69.0975L375.935 71.6052L374.108 55.284L371.744 58.0063C371.662 58.1023 371.542 58.1575 371.417 58.1616C371.29 58.1677 371.17 58.1166 371.082 58.0247C355.211 41.6995 333.985 30.9863 311.308 27.8574C288.278 24.6774 264.573 29.4985 244.563 41.4277C239.159 44.6506 234.038 48.3702 229.338 52.4862L237.16 61.3355C241.308 57.7059 245.832 54.4216 250.611 51.5727C268.584 40.8575 289.016 36.7026 309.696 39.5577C329.778 42.3289 348.573 51.8118 362.616 66.2588C362.704 66.3508 362.751 66.4734 362.743 66.6001C362.735 66.7268 362.676 66.8433 362.575 66.923L359.876 69.0975H359.872Z" fill="black"/>
<path d="M262.085 229.098C262.038 229.098 261.991 229.089 261.946 229.075C255.814 227.074 249.815 224.475 244.116 221.348C223.511 210.046 207.199 191.896 198.184 170.239C189.373 149.07 187.79 125.318 193.715 103.301L189.643 102.543C189.467 102.51 189.326 102.377 189.287 102.201C189.247 102.028 189.312 101.846 189.455 101.737L203.889 90.9179C204.001 90.8341 204.146 90.8075 204.281 90.8443C204.416 90.8831 204.527 90.9812 204.578 91.112L211.151 107.727C211.216 107.893 211.178 108.083 211.053 108.21C210.928 108.336 210.738 108.377 210.573 108.316L206.842 106.906C201.717 126.011 203.1 146.623 210.75 165.005C218.695 184.091 232.496 199.445 250.661 209.408C255.624 212.131 260.841 214.391 266.167 216.128C266.282 216.165 266.376 216.247 266.429 216.353C266.482 216.459 266.492 216.584 266.456 216.696L262.514 228.783C262.477 228.897 262.396 228.991 262.289 229.044C262.226 229.077 262.156 229.094 262.085 229.094V229.098ZM190.814 101.848L194.359 102.506C194.484 102.528 194.592 102.602 194.659 102.71C194.727 102.816 194.745 102.947 194.712 103.068C188.689 125.025 190.217 148.757 199.016 169.893C207.953 191.36 224.124 209.353 244.549 220.557C250.068 223.584 255.869 226.112 261.799 228.076L265.461 216.846C260.228 215.11 255.105 212.875 250.228 210.199C231.883 200.136 217.943 184.628 209.919 165.352C202.126 146.634 200.771 125.622 206.102 106.191C206.135 106.068 206.218 105.966 206.331 105.909C206.443 105.851 206.576 105.843 206.694 105.888L209.937 107.112L203.956 91.9929L190.816 101.844L190.814 101.848Z" fill="black"/>
<path d="M101.219 285.807L113.324 303.285L78.0968 328.034L65.9922 310.554L101.219 285.807Z" fill="#FFAB99"/>
<path d="M97.8877 314.128L79.2383 301.249L101.218 285.807L113.323 303.285L97.8877 314.128Z" fill="#020202"/>
<path d="M77.443 302.51L89.5476 319.99L78.0968 328.034L65.9922 310.554L77.443 302.51Z" fill="#020202"/>
<path d="M71.7391 304.994L71.218 304.961C65.2413 304.591 61.9986 307.044 55.3945 309.288L62.2049 335.018L83.0898 365.993L89.7837 369.089L92.8773 364.28L86.6901 343.383L85.9382 326.553L87.8425 321.634L85.601 318.396L81.1997 317.448L78.057 319.657C74.1032 317.867 72.8466 317.922 71.7902 316.396C71.7779 316.355 69.755 313.98 71.6165 311.462L73.5311 308.871C74.6753 307.324 73.6578 305.114 71.7452 304.996L71.7391 304.994Z" fill="#008BCE"/>
<path d="M89.7813 369.088L81.3261 360.788L64.2541 335.046L55.3963 309.287L50.4678 308.15L42.5703 311.774L44.6974 322.581C44.6974 322.581 48.8454 328.516 54.0518 336.09L57.1086 336.658L59.0702 339.491L58.5573 342.597C66.702 354.428 75.5925 367.195 75.5925 367.195L83.8496 371.61L86.7429 371.226L89.7854 369.088H89.7813Z" fill="#020202"/>
<path d="M66.2598 305.772C66.174 305.772 66.0861 305.747 66.0126 305.698C65.8655 305.6 65.7878 305.426 65.8164 305.253C65.939 304.47 67.0383 297.562 68.0273 296.06C68.5606 295.249 69.3759 294.697 70.3219 294.505C71.266 294.313 72.2284 294.503 73.0294 295.038C74.6865 296.144 75.1422 298.402 74.0428 300.07C73.0539 301.572 67.1671 305.285 66.4968 305.704C66.4233 305.749 66.3416 305.774 66.2578 305.774L66.2598 305.772ZM71.0392 295.332C70.8593 295.332 70.6795 295.351 70.4997 295.388C69.7907 295.533 69.1777 295.945 68.7772 296.554C68.1295 297.54 67.2876 301.909 66.8646 304.4C68.9795 303.037 72.6432 300.556 73.2889 299.573C74.1144 298.318 73.7731 296.618 72.5267 295.786C72.0792 295.488 71.5643 295.332 71.0371 295.332H71.0392Z" fill="black"/>
<path d="M86.2011 330.996C86.1479 330.996 86.0948 330.986 86.0417 330.968L81.3727 329.214C81.1397 329.126 81.0212 328.867 81.1091 328.634C81.197 328.401 81.4565 328.284 81.6894 328.37L86.3584 330.123C86.5913 330.211 86.7098 330.471 86.622 330.704C86.5546 330.886 86.3829 330.996 86.199 330.996H86.2011Z" fill="black"/>
<path d="M86.2772 335.292C86.2241 335.292 86.171 335.282 86.1179 335.263L81.4489 333.51C81.2159 333.422 81.0974 333.162 81.1853 332.929C81.2731 332.696 81.5326 332.578 81.7656 332.666L86.4346 334.419C86.6675 334.507 86.786 334.767 86.6982 335C86.6307 335.182 86.4591 335.292 86.2752 335.292H86.2772Z" fill="black"/>
<path d="M86.3514 339.588C86.2983 339.588 86.2452 339.578 86.1921 339.559L81.5231 337.806C81.2901 337.718 81.1716 337.458 81.2595 337.225C81.3473 336.992 81.6069 336.876 81.8398 336.962L86.5088 338.715C86.7417 338.803 86.8602 339.063 86.7724 339.296C86.7049 339.478 86.5333 339.588 86.3494 339.588H86.3514Z" fill="black"/>
<path d="M164.814 337.462L183.018 330.572L197.457 369.274L179.253 376.163L164.814 337.462Z" fill="#FFAB99"/>
<path d="M191.094 352.219L174.05 362.217L164.814 337.462L183.018 330.572L191.094 352.219Z" fill="#020202"/>
<path d="M174.859 364.383L193.061 357.494L197.456 369.274L179.253 376.163L174.859 364.383Z" fill="#020202"/>
<path d="M174.213 386.504C173.694 379.623 172.164 375.916 173.964 370.271L174.121 369.778C174.697 367.972 177.033 367.532 178.22 369.006L180.206 371.472C182.135 373.87 184.873 372.507 184.914 372.505C186.614 371.861 186.867 370.643 189.52 367.283L188.195 363.731L190.161 359.739L193.768 358.374L197.956 361.395L214.244 363.937L228.281 357.686L233.672 359.188L232.652 366.318L217.043 383.647L200.198 386.22L174.211 386.504H174.213Z" fill="#008BCE"/>
<path d="M174.213 386.955C173.978 386.955 173.782 386.773 173.763 386.538C173.616 384.58 173.381 382.845 173.173 381.312C172.64 377.372 172.219 374.257 173.535 370.135L173.692 369.642C174.015 368.631 174.826 367.911 175.864 367.719C176.898 367.525 177.909 367.901 178.571 368.725L180.558 371.191C181.996 372.98 183.935 372.426 184.701 372.105C184.716 372.099 184.736 372.093 184.757 372.084C185.772 371.7 186.215 371.067 187.19 369.681C187.652 369.023 188.22 368.214 189.011 367.204L187.775 363.889C187.732 363.773 187.738 363.644 187.793 363.532L189.759 359.54C189.81 359.438 189.898 359.358 190.004 359.317L193.61 357.952C193.751 357.899 193.911 357.919 194.033 358.007L198.134 360.965L214.185 363.47L228.1 357.274C228.196 357.231 228.304 357.223 228.404 357.251L233.794 358.753C234.013 358.815 234.152 359.027 234.119 359.252L233.1 366.383C233.087 366.47 233.049 366.554 232.989 366.62L217.38 383.948C217.311 384.026 217.217 384.077 217.113 384.091L200.267 386.664C200.247 386.668 200.225 386.668 200.204 386.668L174.217 386.953H174.213V386.955ZM176.391 368.571C176.273 368.571 176.152 368.584 176.03 368.604C175.325 368.737 174.771 369.225 174.552 369.916L174.395 370.409C173.14 374.339 173.549 377.363 174.068 381.191C174.262 382.626 174.481 384.236 174.63 386.049L200.163 385.769L216.818 383.225L232.229 366.117L233.173 359.514L228.32 358.163L214.432 364.349C214.352 364.384 214.264 364.396 214.178 364.382L197.889 361.839C197.82 361.829 197.752 361.801 197.695 361.76L193.702 358.88L190.488 360.096L188.686 363.754L189.943 367.124C189.998 367.272 189.971 367.437 189.875 367.562C189.017 368.647 188.414 369.507 187.928 370.198C186.91 371.645 186.35 372.442 185.075 372.924C185.071 372.924 185.067 372.927 185.065 372.929C184.291 373.251 181.724 374.075 179.857 371.755L177.871 369.289C177.499 368.827 176.963 368.571 176.391 368.571Z" fill="black"/>
<path d="M171.942 390.958L174.214 386.505L200.724 384.261L218.456 378.671L227.557 369.099L233.675 359.164L236.355 361.653L237.334 364.369L234.833 373.249C234.833 373.249 231.67 376.873 225.272 383.862C225.272 383.862 210.323 390.118 206.478 391.563L203.666 390.316L200.509 391.512L199.23 394.308C190.804 397.463 184.183 400.002 184.183 400.002H173.55L171.938 390.96L171.942 390.958Z" fill="#020202"/>
<path d="M173.102 375.568C173.04 375.568 172.981 375.555 172.924 375.531C172.213 375.224 165.946 372.49 164.763 371.174C163.449 369.712 163.559 367.446 165.012 366.121C165.715 365.48 166.628 365.153 167.575 365.2C168.525 365.247 169.399 365.664 170.037 366.373C171.22 367.689 173.3 374.239 173.533 374.981C173.586 375.149 173.535 375.333 173.404 375.451C173.32 375.527 173.212 375.568 173.102 375.568ZM167.395 366.097C166.737 366.097 166.109 366.34 165.617 366.788C164.53 367.779 164.446 369.475 165.431 370.571C166.201 371.427 170.108 373.287 172.364 374.298C171.588 371.936 170.135 367.832 169.365 366.976C168.888 366.446 168.237 366.136 167.528 366.101C167.483 366.099 167.438 366.097 167.395 366.097Z" fill="black"/>
<path d="M199.007 366.615C198.919 366.615 198.829 366.588 198.752 366.535C198.547 366.394 198.494 366.114 198.637 365.907L201.428 361.855C201.569 361.65 201.849 361.599 202.056 361.738C202.26 361.879 202.313 362.159 202.17 362.366L199.379 366.418C199.291 366.545 199.15 366.613 199.007 366.613V366.615Z" fill="black"/>
<path d="M203.087 367.586C202.999 367.586 202.909 367.56 202.832 367.506C202.627 367.365 202.574 367.085 202.717 366.879L205.508 362.826C205.649 362.622 205.929 362.569 206.136 362.71C206.34 362.851 206.393 363.131 206.25 363.337L203.459 367.39C203.371 367.517 203.23 367.584 203.087 367.584V367.586Z" fill="black"/>
<path d="M207.167 368.555C207.079 368.555 206.989 368.528 206.912 368.475C206.707 368.334 206.654 368.054 206.797 367.848L209.589 363.795C209.73 363.591 210.009 363.538 210.216 363.679C210.42 363.82 210.473 364.1 210.33 364.306L207.539 368.359C207.451 368.485 207.31 368.553 207.167 368.553V368.555Z" fill="black"/>
<path d="M180.141 220.352L92.9711 240.658L99.5935 271.41L125.156 264.396L87.4316 290.899L105.207 316.566L195.094 253.413C203.016 247.848 204.958 236.869 199.432 228.891L198.425 227.438C194.338 221.537 187.101 218.733 180.143 220.354L180.141 220.352Z" fill="#242424"/>
<path d="M105.802 285.902C109.369 283.421 112.101 280.541 119.42 280.145C128.552 279.65 141.339 280.613 147.68 274.85H110.274L91.7129 287.891C100.37 288.379 104.369 286.897 105.802 285.902Z" fill="black"/>
<path d="M197.376 348.023L172.168 277.748V277.742L164.926 257.678C161.878 249.232 153.909 243.607 144.985 243.607H55.0566V253.64C55.0566 266.955 65.7739 277.75 78.9922 277.75H133.412L163.097 360.502L197.376 348.027V348.023Z" fill="#242424"/>
<path d="M144.985 243.605H141.207C142.004 255.465 151.802 264.84 163.78 264.84C165.014 264.84 166.223 264.737 167.404 264.545L164.926 257.676C161.877 249.23 153.908 243.605 144.985 243.605Z" fill="#008BCE"/>
<path d="M103.886 246.971H55.0566V253.637C55.0566 255.828 55.3529 257.95 55.8964 259.967C58.0848 259.636 60.5348 259.047 62.008 258.023C65.5757 255.542 68.3076 252.662 75.6268 252.266C84.7584 251.771 97.5455 252.734 103.886 246.971Z" fill="black"/>
<path d="M163.098 360.948C163.032 360.948 162.967 360.934 162.906 360.905C162.797 360.854 162.714 360.762 162.673 360.65L133.096 278.196H78.9926C65.5454 278.196 54.6055 267.178 54.6055 253.637V243.604C54.6055 243.355 54.8078 243.152 55.057 243.152H144.986C154.066 243.152 162.25 248.926 165.35 257.522L172.589 277.585L197.802 347.868C197.885 348.101 197.765 348.359 197.532 348.445L163.253 360.919C163.204 360.938 163.151 360.946 163.1 360.946L163.098 360.948ZM55.5086 244.056V253.637C55.5086 266.682 66.044 277.295 78.9946 277.295H133.414C133.605 277.295 133.774 277.413 133.839 277.593L163.372 359.918L196.805 347.752L171.747 277.898L164.506 257.828C161.533 249.59 153.69 244.056 144.988 244.056H55.5086Z" fill="black"/>
<path d="M143.646 216.59L161.209 213.919C163.675 213.543 166.133 214.638 167.504 216.723L170.641 221.491C171.438 222.701 171.963 224.07 172.179 225.503L172.682 228.807C172.897 230.219 171.926 231.538 170.514 231.752L170.159 231.805C168.747 232.02 167.429 231.049 167.214 229.637L166.887 227.479C166.675 226.081 166.162 224.744 165.385 223.561L163.757 221.086C163.042 220.001 161.761 219.429 160.475 219.625L144.476 222.055L143.646 216.586V216.59Z" fill="#FFAB99"/>
<path d="M149.033 219.95L159.199 218.403C161.665 218.027 164.123 219.123 165.494 221.207L168.631 225.975C169.428 227.185 169.953 228.554 170.169 229.987L170.672 233.292C170.887 234.704 169.916 236.022 168.504 236.237L168.149 236.29C166.737 236.504 165.419 235.534 165.204 234.121L164.877 231.963C164.665 230.565 164.152 229.229 163.375 228.045L161.747 225.571C161.032 224.485 159.75 223.913 158.465 224.109L149.865 225.415L149.035 219.946L149.033 219.95Z" fill="#FFAB99"/>
<path d="M146.691 223.884L156.857 222.337C159.323 221.961 161.781 223.056 163.152 225.141L166.289 229.909C167.086 231.119 167.611 232.488 167.828 233.921L168.33 237.225C168.545 238.637 167.574 239.956 166.162 240.17L165.807 240.223C164.395 240.438 163.077 239.467 162.862 238.055L162.535 235.897C162.323 234.499 161.81 233.162 161.034 231.979L159.405 229.504C158.69 228.419 157.409 227.847 156.123 228.043L147.523 229.349L146.693 223.88L146.691 223.884Z" fill="#FFAB99"/>
<path d="M122.16 225.866L124.774 210.875L150.201 215.334L157.132 214.454L159.132 227.623L149.437 229.097L149.582 229.338C150.186 230.341 151.198 231.034 152.354 231.237L157.487 232.132C158.856 232.371 159.772 233.675 159.535 235.042L159.506 235.212C159.269 236.577 157.974 237.492 156.607 237.261C154.355 236.879 149.96 236.121 149.443 235.998C149.165 235.933 148.891 235.849 148.623 235.749L122.162 225.868L122.16 225.866Z" fill="#FFAB99"/>
<path d="M148.621 235.749C147.818 235.448 147.07 234.994 146.423 234.404L140.43 229.053L122.16 225.867L148.621 235.749Z" fill="#FFAB99"/>
<path d="M165.411 240.707C164.767 240.707 164.144 240.503 163.617 240.115C162.963 239.634 162.536 238.927 162.416 238.124L162.087 235.966C161.886 234.642 161.39 233.35 160.654 232.23L159.028 229.755C158.413 228.819 157.303 228.322 156.19 228.492L149.823 229.459C149.575 229.496 149.347 229.326 149.31 229.081C149.273 228.835 149.441 228.604 149.688 228.568L156.055 227.601C157.51 227.38 158.971 228.032 159.78 229.261L161.406 231.735C162.213 232.964 162.757 234.38 162.978 235.833L163.307 237.991C163.392 238.555 163.693 239.052 164.152 239.391C164.612 239.728 165.174 239.867 165.738 239.784L166.094 239.73C167.258 239.553 168.061 238.463 167.884 237.298L167.381 233.994C167.17 232.616 166.678 231.327 165.912 230.162L162.775 225.394C161.504 223.463 159.208 222.441 156.923 222.788L155.286 223.037C155.039 223.074 154.81 222.907 154.774 222.659C154.737 222.414 154.904 222.183 155.152 222.146L156.788 221.897C159.42 221.498 162.064 222.676 163.527 224.899L166.664 229.667C167.501 230.94 168.043 232.353 168.272 233.859L168.774 237.164C169.026 238.819 167.884 240.37 166.228 240.622L165.873 240.675C165.718 240.699 165.564 240.709 165.411 240.709V240.707Z" fill="black"/>
<path d="M168.269 236.724C168.05 236.724 167.858 236.565 167.823 236.342C167.784 236.097 167.954 235.866 168.201 235.829L168.434 235.794C169.599 235.618 170.402 234.527 170.224 233.362L169.722 230.057C169.515 228.698 169.006 227.374 168.252 226.225L165.116 221.458C163.845 219.526 161.55 218.504 159.264 218.852L156.26 219.31C156.015 219.346 155.784 219.177 155.747 218.931C155.71 218.686 155.878 218.455 156.125 218.419L159.129 217.961C161.761 217.558 164.405 218.739 165.868 220.963L169.004 225.731C169.83 226.988 170.388 228.437 170.612 229.923L171.115 233.227C171.366 234.883 170.224 236.434 168.569 236.685L168.336 236.72C168.314 236.724 168.291 236.724 168.269 236.724Z" fill="black"/>
<path d="M157.025 237.747C156.861 237.747 156.696 237.732 156.528 237.704C155.731 237.569 154.987 237.448 154.297 237.336C150.253 236.68 147.813 236.285 146.117 234.734L140.224 229.472L122.08 226.308C121.961 226.288 121.857 226.22 121.787 226.124C121.718 226.026 121.691 225.905 121.712 225.787L124.317 210.845C124.36 210.6 124.595 210.437 124.838 210.479L150.016 214.845L161.152 213.474C163.772 213.077 166.416 214.254 167.879 216.478L171.015 221.246C171.841 222.503 172.396 223.952 172.623 225.437L173.126 228.742C173.249 229.543 173.05 230.346 172.57 230.998C172.09 231.652 171.383 232.08 170.582 232.2C170.337 232.237 170.106 232.067 170.069 231.822C170.032 231.577 170.2 231.346 170.447 231.309C171.011 231.223 171.508 230.923 171.847 230.463C172.186 230.003 172.325 229.439 172.239 228.877L171.736 225.572C171.53 224.213 171.021 222.889 170.267 221.74L167.131 216.972C165.86 215.041 163.569 214.019 161.281 214.367L150.067 215.748C150.024 215.752 149.979 215.752 149.934 215.744L125.134 211.444L122.684 225.499L140.51 228.607C140.592 228.622 140.67 228.658 140.733 228.716L146.726 234.066C148.228 235.437 150.437 235.797 154.446 236.447C155.139 236.559 155.882 236.68 156.683 236.815C157.805 237.003 158.868 236.249 159.064 235.133L159.092 234.963C159.186 234.42 159.064 233.872 158.747 233.42C158.43 232.969 157.956 232.668 157.413 232.574L152.28 231.679C150.997 231.454 149.873 230.686 149.199 229.57L149.054 229.329C148.925 229.116 148.994 228.838 149.207 228.709C149.419 228.581 149.697 228.65 149.826 228.863L149.971 229.104C150.51 229.997 151.407 230.612 152.435 230.79L157.568 231.685C158.349 231.822 159.029 232.253 159.485 232.901C159.94 233.549 160.116 234.336 159.981 235.116L159.953 235.286C159.701 236.725 158.445 237.745 157.031 237.745L157.025 237.747Z" fill="black"/>
<path d="M98.635 185.222L109.963 203.587C111.492 206.064 114.007 207.769 116.876 208.269L140.687 212.42L137.152 232.706L107.362 227.499C102.889 226.716 98.968 224.049 96.5978 220.176L78.1895 190.101L89.8098 181.272C93.7371 181.033 96.7878 182.222 98.637 185.22L98.635 185.222Z" fill="#008BCE"/>
<path d="M52.0327 181.273H48.7511C39.5582 181.273 31.5851 187.678 29.5439 196.708L25.4531 214.79H52.0327V181.273Z" fill="#008BCE"/>
<path d="M89.8046 181.273H47.9961V248.461H107.892L89.8046 181.273Z" fill="#008BCE"/>
<path d="M52.0321 215.242H25.4525C25.3156 215.242 25.1849 215.181 25.1011 215.073C25.0153 214.967 24.9826 214.826 25.0132 214.693L29.104 196.61C31.2065 187.315 39.2859 180.824 48.7505 180.824H52.0321C52.2814 180.824 52.4837 181.027 52.4837 181.276C52.4837 181.525 52.2814 181.728 52.0321 181.728H48.7505C39.7088 181.728 31.9912 187.93 29.9826 196.81L26.0165 214.343H52.0321C52.2814 214.343 52.4837 214.546 52.4837 214.795C52.4837 215.044 52.2814 215.247 52.0321 215.247V215.242Z" fill="black"/>
<path d="M74.3652 187.329L71.9867 193.659L58.3945 181.176L67.5302 181.237L74.3652 187.329Z" fill="white"/>
<path d="M74.3415 187.329L80.3918 191.453L80.0117 181.095L74.0391 179.738L74.3415 187.329Z" fill="white"/>
<path d="M180.371 243.586H124.4L155.925 201.539H211.896L180.371 243.586Z" fill="white"/>
<path d="M180.372 244.036H124.401C124.229 244.036 124.074 243.94 123.998 243.787C123.923 243.634 123.939 243.452 124.041 243.315L155.566 201.27C155.651 201.157 155.784 201.09 155.925 201.09H211.896C212.068 201.09 212.223 201.186 212.298 201.339C212.374 201.492 212.358 201.674 212.256 201.811L180.731 243.857C180.645 243.969 180.513 244.036 180.372 244.036ZM125.302 243.135H180.145L210.993 201.991H156.15L125.302 243.135Z" fill="black"/>
<path d="M180.288 248.912H93.4262C93.1769 248.912 92.9746 248.71 92.9746 248.461V243.584C92.9746 243.335 93.1769 243.133 93.4262 243.133H180.288C180.537 243.133 180.74 243.335 180.74 243.584V248.461C180.74 248.71 180.537 248.912 180.288 248.912ZM93.8757 248.011H179.836V244.036H93.8757V248.011Z" fill="black"/>
<path d="M167.672 226.726C165.741 226.726 164.172 225.147 164.172 223.203C164.172 221.259 165.743 219.68 167.672 219.68C169.601 219.68 171.172 221.259 171.172 223.203C171.172 225.147 169.601 226.726 167.672 226.726ZM167.672 220.581C166.24 220.581 165.073 221.756 165.073 223.203C165.073 224.65 166.24 225.825 167.672 225.825C169.104 225.825 170.271 224.65 170.271 223.203C170.271 221.756 169.104 220.581 167.672 220.581Z" fill="black"/>
<path d="M28.5703 232.328V215.146H47.9962V222.598C47.9962 224.676 49.6697 226.36 51.7314 226.358L83.6788 226.348V243.979L40.1498 243.987C33.7542 243.987 28.5703 238.768 28.5703 232.326V232.328Z" fill="#FFAB99"/>
<path d="M102.897 231.833L104.797 233.899C105.757 234.943 105.853 236.523 105.028 237.678L103.162 240.285L98.6404 235.205H70.2402V229.219H96.9628C99.2166 229.219 101.368 230.165 102.899 231.831L102.897 231.833Z" fill="#FFAB99"/>
<path d="M102.02 228.099L103.095 229.268C104.055 230.312 104.151 231.892 103.326 233.047L101.46 235.655L96.9384 230.574H70.2383V226.409H74.7704C76.6441 226.409 79.989 224.588 84.2208 224.588H94.0471C97.0753 224.588 99.9646 225.861 102.022 228.099H102.02Z" fill="#FFAB99"/>
<path d="M103.561 235.857L105.84 238.336C106.8 239.381 106.896 240.961 106.07 242.115L104.205 244.723L99.683 239.642H82.0879V233.654H98.5612C100.459 233.654 102.272 234.451 103.561 235.855V235.857Z" fill="#FFAB99"/>
<path d="M102.727 240.217L105.103 242.804C105.984 243.763 106.074 245.216 105.314 246.274C104.296 247.697 102.232 247.809 101.07 246.501L99.7803 245.052C99.1632 244.359 98.2846 243.963 97.361 243.963H82.5857C78.7218 243.963 76.0042 243.74 72.2812 237.971L97.6369 237.975C99.5699 237.975 101.413 238.786 102.727 240.215V240.217Z" fill="#FFAB99"/>
<path d="M28.5703 225.735V215.146H47.9962V221.394C46.6946 221.339 44.919 221.182 43.5377 220.752C41.4719 220.111 39.4449 219.814 37.4567 222.553C34.8495 226.142 31.5045 226.532 28.5724 225.733L28.5703 225.735Z" fill="black"/>
<path d="M105.152 237.936C105.062 237.936 104.97 237.909 104.89 237.852C104.688 237.707 104.641 237.425 104.786 237.222C105.446 236.299 105.323 235.142 104.463 234.206L102.563 232.14C101.122 230.572 99.0788 229.673 96.9578 229.673H91.7289C91.4796 229.673 91.2773 229.471 91.2773 229.221C91.2773 228.972 91.4796 228.77 91.7289 228.77H96.9578C99.3301 228.77 101.615 229.775 103.225 231.529L105.125 233.595C106.273 234.843 106.427 236.474 105.517 237.746C105.429 237.868 105.29 237.934 105.149 237.934L105.152 237.936Z" fill="black"/>
<path d="M105.342 243.583C105.252 243.583 105.16 243.557 105.08 243.499C104.878 243.354 104.831 243.072 104.976 242.87L105.701 241.854C106.4 240.877 106.318 239.526 105.505 238.641L103.227 236.162C102.027 234.856 100.325 234.106 98.5578 234.106H91.682C91.4328 234.106 91.2305 233.904 91.2305 233.655C91.2305 233.405 91.4328 233.203 91.682 233.203H98.5578C100.577 233.203 102.52 234.059 103.889 235.549L106.167 238.028C107.266 239.224 107.377 241.051 106.433 242.375L105.707 243.391C105.62 243.514 105.481 243.579 105.34 243.579L105.342 243.583Z" fill="black"/>
<path d="M103.102 247.869C102.199 247.869 101.345 247.486 100.738 246.804L99.4483 245.355C98.917 244.758 98.159 244.417 97.3641 244.417H81.0216C78.0281 244.417 75.2369 242.925 73.5532 240.427C73.4143 240.221 73.4695 239.941 73.6758 239.802C73.8822 239.663 74.1622 239.718 74.3011 239.925C75.8152 242.175 78.3285 243.517 81.0216 243.517H97.3641C98.4144 243.517 99.4197 243.969 100.121 244.758L101.41 246.207C101.872 246.726 102.53 247 103.224 246.967C103.917 246.93 104.546 246.585 104.951 246.017C105.582 245.134 105.509 243.912 104.773 243.113L102.397 240.525C101.173 239.195 99.4401 238.431 97.64 238.431H91.9187C91.6694 238.431 91.4671 238.228 91.4671 237.979C91.4671 237.73 91.6694 237.527 91.9187 237.527H97.64C99.6915 237.527 101.667 238.396 103.061 239.912L105.437 242.5C106.459 243.611 106.561 245.31 105.685 246.538C105.119 247.329 104.24 247.811 103.273 247.864C103.216 247.866 103.159 247.869 103.102 247.869Z" fill="black"/>
<path d="M40.1481 244.442C36.936 244.442 33.9139 243.183 31.6438 240.894C29.3716 238.607 28.1211 235.564 28.1211 232.328V215.147C28.1211 214.898 28.3234 214.695 28.5727 214.695H47.9986C48.2478 214.695 48.4501 214.898 48.4501 215.147V222.598C48.4501 223.483 48.7914 224.315 49.4125 224.94C50.0317 225.564 50.8572 225.909 51.7317 225.909H73.9243C75.5732 225.909 76.8319 225.56 78.2908 225.155C80.0052 224.679 81.9484 224.139 84.8785 224.139H94.049C97.1937 224.139 100.222 225.472 102.355 227.796L103.43 228.965C104.38 229.999 104.609 231.489 104.016 232.762C103.912 232.987 103.642 233.085 103.418 232.98C103.193 232.876 103.095 232.606 103.199 232.382C103.638 231.442 103.469 230.34 102.766 229.576L101.691 228.407C99.7253 226.269 96.9403 225.043 94.0469 225.043H84.8765C82.069 225.043 80.2688 225.541 78.5299 226.026C77.071 226.43 75.6938 226.813 73.9222 226.813H51.7297C50.612 226.813 49.5617 226.375 48.7709 225.578C47.9802 224.783 47.5449 223.724 47.5449 222.6V215.599H29.0222V232.328C29.0222 235.325 30.1808 238.141 32.2833 240.258C34.3839 242.373 37.1792 243.54 40.1501 243.54H86.6624C86.9116 243.54 87.1139 243.743 87.1139 243.992C87.1139 244.241 86.9116 244.444 86.6624 244.444H40.1481V244.442Z" fill="black"/>
<path d="M65.3964 181.32L74.3666 187.329L74.2972 169.734L65.3535 169.773L65.3964 181.32Z" fill="#FFAB99"/>
<path d="M65.3678 173.068L65.3535 169.773L74.2951 169.732L74.3278 177.004C73.5493 177.163 71.9984 177.368 70.2146 176.783C67.4214 175.87 65.7274 173.681 65.3678 173.066V173.068Z" fill="black"/>
<path d="M67.3674 171.205H65.4385C64.1001 171.205 62.9865 170.179 62.8741 168.845L62.4981 164.414C62.3388 162.542 63.814 160.936 65.6878 160.936H67.3674V171.205Z" fill="black"/>
<path d="M71.0777 174.752C74.9326 174.752 78.0577 171.272 78.0577 166.979C78.0577 162.687 74.9326 159.207 71.0777 159.207C67.2227 159.207 64.0977 162.687 64.0977 166.979C64.0977 171.272 67.2227 174.752 71.0777 174.752Z" fill="#FFAB99"/>
<path d="M68.043 170.39C68.7173 171.013 69.5857 171.432 70.5665 171.532C72.7528 171.755 74.7226 170.326 75.2641 168.252L68.043 170.39Z" fill="white"/>
<path d="M82.4418 157.643C82.4418 154.956 80.4394 152.777 77.967 152.777C76.1137 152.777 74.526 154.002 73.8456 155.747H71.5714C68.1365 155.747 65.3535 158.774 65.3535 162.51H78.1713V162.497C80.5477 162.381 82.4418 160.255 82.4418 157.643Z" fill="black"/>
<path d="M151.307 105.263C154.134 81.9656 137.367 60.7659 113.857 57.912C90.3469 55.0581 68.9965 71.6307 66.1695 94.9279C63.3425 118.225 80.1095 139.425 103.62 142.279C127.13 145.133 148.48 128.56 151.307 105.263Z" fill="black"/>
<path d="M147.12 101.097C149.947 77.7996 133.18 56.5999 109.67 53.746C86.1594 50.8921 64.809 67.4647 61.982 90.7619C59.155 114.059 75.922 135.259 99.4321 138.113C122.942 140.967 144.293 124.394 147.12 101.097Z" fill="#008BCE"/>
<path d="M104.714 138.884C103.735 138.884 102.752 138.851 101.765 138.786C77.9256 137.21 59.7788 116.706 61.3154 93.0762C62.0551 81.7029 67.2002 71.2841 75.8006 63.7407C84.5153 56.0972 95.7209 52.3123 107.337 53.0787C131.177 54.6544 149.323 75.159 147.787 98.7884C147.047 110.162 141.904 120.581 133.302 128.124C125.327 135.12 115.269 138.884 104.712 138.884H104.714ZM104.391 53.8798C94.0515 53.8798 84.2048 57.5667 76.3952 64.4151C67.9746 71.8011 62.9399 81.9993 62.2165 93.1314C60.7126 116.266 78.4814 136.342 101.826 137.885C113.204 138.637 124.178 134.929 132.711 127.443C141.132 120.057 146.167 109.859 146.89 98.7271C148.394 75.5922 130.625 55.5168 107.282 53.9758C106.316 53.9125 105.353 53.8798 104.395 53.8798H104.391Z" fill="black"/>
<path d="M135.658 99.7069C137.724 82.6822 125.471 67.1902 108.29 65.1047C91.1099 63.0191 75.5076 75.1297 73.4417 92.1545C71.3759 109.179 83.6288 124.671 100.809 126.757C117.99 128.842 133.592 116.732 135.658 99.7069Z" fill="white"/>
<path d="M128.512 98.8408C130.103 85.7288 120.666 73.7974 107.435 72.1912C94.2029 70.585 82.1868 79.9123 80.5957 93.0243C79.0047 106.136 88.4412 118.068 101.673 119.674C114.904 121.28 126.92 111.953 128.512 98.8408Z" fill="#FFAB99"/>
<path d="M119.986 97.8059C121.011 89.3597 114.933 81.6739 106.41 80.6393C97.8864 79.6046 90.1463 85.613 89.1214 94.0592C88.0965 102.505 94.1749 110.191 102.698 111.226C111.221 112.261 118.961 106.252 119.986 97.8059Z" fill="white"/>
<path d="M113.281 96.9932C113.861 92.2177 110.424 87.8721 105.604 87.2871C100.785 86.702 96.408 90.0991 95.8285 94.8746C95.2491 99.6502 98.6862 103.996 103.506 104.581C108.325 105.166 112.702 101.769 113.281 96.9932Z" fill="#FFAB99"/>
<path d="M104.523 96.5017C104.398 96.5017 104.271 96.4486 104.184 96.3485C104.02 96.1604 104.039 95.8764 104.227 95.7129L174.227 34.5118C174.413 34.3483 174.699 34.3666 174.862 34.5547C175.026 34.7427 175.007 35.0268 174.819 35.1903L104.819 96.3893C104.733 96.465 104.629 96.4997 104.523 96.4997V96.5017Z" fill="black"/>
<path d="M170.663 45.9895C170.663 45.9895 170.643 45.9895 170.632 45.9895L162.856 45.4765C162.606 45.4601 162.418 45.2455 162.435 44.9962C162.451 44.7469 162.684 44.5589 162.915 44.5752L170.692 45.0882C170.941 45.1045 171.129 45.3191 171.113 45.5685C171.096 45.8076 170.898 45.9895 170.663 45.9895Z" fill="black"/>
<path d="M177.019 40.4346C177.019 40.4346 176.998 40.4346 176.988 40.4346L169.211 39.9216C168.962 39.9052 168.774 39.6906 168.79 39.4413C168.806 39.192 169.037 39.006 169.27 39.0203L177.047 39.5333C177.296 39.5496 177.484 39.7642 177.468 40.0136C177.452 40.2527 177.253 40.4346 177.019 40.4346Z" fill="black"/>
<path d="M160.036 47.9861C160.036 47.9861 160.016 47.9861 160.008 47.9861C159.759 47.9698 159.571 47.7552 159.587 47.5079L160.092 39.754C160.108 39.5067 160.331 39.3167 160.57 39.333C160.819 39.3494 161.007 39.564 160.991 39.8112L160.486 47.5651C160.47 47.8042 160.271 47.9861 160.036 47.9861Z" fill="black"/>
<path d="M166.39 42.4314C166.39 42.4314 166.37 42.4314 166.361 42.4314C166.112 42.4151 165.924 42.2005 165.94 41.9532L166.445 34.1993C166.461 33.952 166.68 33.762 166.923 33.7783C167.173 33.7947 167.361 34.0093 167.344 34.2566L166.839 42.0104C166.823 42.2495 166.625 42.4314 166.39 42.4314Z" fill="black"/>
<path d="M307.11 335.949H299.002V358.467H307.11V335.949Z" fill="#242424"/>
<path d="M322.254 332.434H314.146V358.464H322.254V332.434Z" fill="#242424"/>
<path d="M337.399 335.949H329.291V358.467H337.399V335.949Z" fill="#242424"/>
<path d="M352.543 325.598H344.436V358.465H352.543V325.598Z" fill="#242424"/>
<path d="M367.688 317.379H359.58V358.464H367.688V317.379Z" fill="#242424"/>
<path d="M382.831 303.672H374.723V358.464H382.831V303.672Z" fill="#242424"/>
<path d="M302.214 331.156C302.024 331.156 301.846 331.033 301.785 330.841C301.71 330.604 301.84 330.35 302.077 330.275L318.062 325.168C318.146 325.141 318.236 325.139 318.32 325.164L333.258 329.28L378.518 297.099C378.722 296.954 379.002 297.003 379.147 297.206C379.29 297.408 379.243 297.69 379.041 297.835L333.608 330.14C333.498 330.22 333.359 330.244 333.228 330.207L318.213 326.069L302.355 331.135C302.31 331.15 302.263 331.158 302.218 331.158L302.214 331.156Z" fill="black"/>
<path d="M376.986 301.826C376.915 301.826 376.843 301.809 376.776 301.772C376.557 301.656 376.473 301.382 376.59 301.163L378.419 297.72L374.479 298.421C374.236 298.466 373.999 298.3 373.956 298.055C373.913 297.81 374.077 297.577 374.322 297.532L379.173 296.669C379.344 296.639 379.514 296.708 379.616 296.847C379.718 296.986 379.73 297.172 379.649 297.323L377.385 301.582C377.303 301.736 377.148 301.821 376.986 301.821V301.826Z" fill="black"/>
<path d="M395.012 370.074H287.579C287.329 370.074 287.127 369.872 287.127 369.623V317.226C287.127 316.977 287.329 316.774 287.579 316.774C287.828 316.774 288.03 316.977 288.03 317.226V369.173H394.563V288.491H315.809C315.56 288.491 315.358 288.289 315.358 288.04C315.358 287.79 315.56 287.588 315.809 287.588H395.012C395.262 287.588 395.464 287.79 395.464 288.04V369.623C395.464 369.872 395.262 370.074 395.012 370.074Z" fill="black"/>
<path d="M262.879 302.495C262.789 302.495 262.697 302.485 262.605 302.464C262.074 302.348 261.702 301.923 261.653 301.383L260.59 289.442C260.578 289.313 260.501 289.239 260.454 289.209C260.407 289.176 260.313 289.129 260.186 289.166L248.439 292.597C247.912 292.75 247.362 292.544 247.07 292.08C246.775 291.618 246.822 291.032 247.186 290.621L256.001 280.65C256.069 280.574 256.095 280.474 256.073 280.376C256.052 280.278 255.987 280.196 255.895 280.153L234.691 270.468C234.182 270.235 233.903 269.71 233.997 269.158C234.091 268.606 234.528 268.201 235.084 268.148L251.598 266.597C251.751 266.583 251.823 266.476 251.847 266.431C251.872 266.386 251.921 266.268 251.847 266.133L238.545 241.177C238.257 240.638 238.398 240.002 238.884 239.634C239.373 239.264 240.022 239.303 240.464 239.726L265.118 263.409C265.194 263.48 265.296 263.511 265.396 263.491C265.498 263.472 265.582 263.407 265.625 263.313L272.521 248.514C272.76 248.001 273.294 247.725 273.852 247.832C274.407 247.936 274.806 248.385 274.841 248.952L275.731 262.963C275.742 263.121 275.85 263.196 275.895 263.221C275.94 263.245 276.062 263.296 276.201 263.221L302.235 248.733C302.797 248.42 303.449 248.569 303.821 249.093C304.193 249.616 304.117 250.28 303.637 250.707L280.836 271.005C280.709 271.118 280.725 271.259 280.738 271.314C280.75 271.369 280.799 271.502 280.962 271.547L293.611 275.054C294.156 275.205 294.514 275.687 294.503 276.254C294.491 276.82 294.113 277.286 293.559 277.414L280.345 280.47C280.245 280.492 280.165 280.56 280.125 280.654C280.084 280.748 280.092 280.852 280.145 280.94L291.547 299.914C291.853 300.425 291.757 301.058 291.31 301.453C290.864 301.847 290.223 301.867 289.753 301.5L272.352 287.913C272.252 287.835 272.15 287.841 272.096 287.852C272.043 287.862 271.945 287.897 271.882 288.005L263.923 301.882C263.7 302.272 263.308 302.495 262.879 302.495ZM260.278 288.252C260.519 288.252 260.758 288.324 260.964 288.465C261.267 288.671 261.459 288.998 261.489 289.362L262.552 301.303C262.57 301.518 262.746 301.573 262.799 301.585C262.852 301.596 263.034 301.62 263.143 301.434L271.101 287.557C271.277 287.251 271.577 287.036 271.923 286.969C272.27 286.901 272.63 286.987 272.908 287.204L290.309 300.79C290.501 300.94 290.666 300.819 290.713 300.778C290.76 300.737 290.901 300.588 290.774 300.38L279.373 281.406C279.17 281.069 279.142 280.666 279.295 280.302C279.448 279.938 279.757 279.681 280.143 279.591L293.357 276.536C293.58 276.485 293.602 276.292 293.602 276.233C293.602 276.176 293.59 275.982 293.371 275.922L280.723 272.415C280.294 272.297 279.963 271.952 279.863 271.518C279.761 271.083 279.906 270.629 280.239 270.333L303.04 250.035C303.231 249.865 303.137 249.685 303.087 249.616C303.038 249.546 302.9 249.397 302.675 249.522L276.641 264.01C276.273 264.214 275.834 264.216 275.464 264.014C275.096 263.811 274.859 263.442 274.832 263.023L273.942 249.011C273.927 248.784 273.741 248.731 273.684 248.721C273.627 248.71 273.435 248.692 273.339 248.898L266.442 263.697C266.277 264.053 265.948 264.308 265.562 264.38C265.178 264.451 264.777 264.333 264.495 264.061L239.84 240.378C239.659 240.204 239.481 240.317 239.43 240.354C239.379 240.392 239.223 240.534 239.342 240.754L252.642 265.71C252.834 266.07 252.832 266.499 252.64 266.859C252.446 267.218 252.088 267.455 251.682 267.494L235.167 269.045C234.943 269.066 234.894 269.252 234.885 269.307C234.875 269.362 234.861 269.554 235.065 269.646L256.269 279.331C256.624 279.493 256.874 279.806 256.955 280.186C257.037 280.568 256.935 280.952 256.675 281.244L247.861 291.216C247.715 291.381 247.801 291.547 247.83 291.594C247.86 291.641 247.973 291.79 248.185 291.729L259.932 288.297C260.045 288.264 260.161 288.248 260.276 288.248L260.278 288.252Z" fill="#242424"/>
</g>
</g>
<defs>
<clipPath id="clip0_2413_14530">
<rect width="427" height="425" fill="white"/>
</clipPath>
<clipPath id="clip1_2413_14530">
<rect width="374" height="374" fill="white" transform="translate(25 26)"/>
</clipPath>
</defs>
</svg>
