<svg width="427" height="413" viewBox="0 0 427 413" fill="none" xmlns="http://www.w3.org/2000/svg">
<g clip-path="url(#clip0_2517_19993)">
<path d="M404.041 382.43C392.531 392.02 342.441 398.8 282.761 401.35C191.021 405.28 76.6009 399.23 44.7909 378.06C29.7309 368.05 19.5509 337.11 13.1009 297.52C-2.9291 199.02 4.2209 46.9904 17.1609 30.5104C35.3109 7.42044 327.301 -15.4496 403.911 13.7904C436.741 26.3204 433.231 358.09 404.031 382.43H404.041Z" fill="white"/>
<path d="M371.83 321.981L374.38 314.221L377.27 321.981C377.27 321.981 383.05 322.961 383.12 323.501C383.19 324.031 377.59 325.681 377.59 325.681C377.59 325.681 375.24 333.201 374.38 331.501C373.52 329.801 372.69 326.031 372.69 326.031C372.69 326.031 365.41 324.521 365.41 323.781C365.41 322.981 371.83 321.991 371.83 321.991V321.981Z" fill="#F1F1F1"/>
<path d="M34.2505 151.531L35.9105 146.471L37.8005 151.531C37.8005 151.531 41.5705 152.171 41.6105 152.521C41.6505 152.861 38.0005 153.941 38.0005 153.941C38.0005 153.941 36.4705 158.841 35.9105 157.731C35.3505 156.621 34.8105 154.161 34.8105 154.161C34.8105 154.161 30.0605 153.171 30.0605 152.691C30.0605 152.171 34.2505 151.521 34.2505 151.521V151.531Z" fill="#F1F1F1"/>
<path d="M301.971 380.861L303.631 375.801L305.521 380.861C305.521 380.861 309.291 381.501 309.331 381.851C309.371 382.191 305.721 383.271 305.721 383.271C305.721 383.271 304.191 388.171 303.631 387.061C303.071 385.951 302.531 383.491 302.531 383.491C302.531 383.491 297.781 382.501 297.781 382.021C297.781 381.501 301.971 380.851 301.971 380.851V380.861Z" fill="#F1F1F1"/>
<g clip-path="url(#clip1_2517_19993)">
<path d="M46.6406 123.725H374.248" stroke="#DED8D5" stroke-width="1.97" stroke-miterlimit="10"/>
<path d="M369.971 101.513H50.918C48.5557 101.513 46.6406 103.494 46.6406 105.938V306.764C46.6406 309.208 48.5557 311.189 50.918 311.189H369.971C372.333 311.189 374.248 309.208 374.248 306.764V105.938C374.248 103.494 372.333 101.513 369.971 101.513Z" stroke="#DED8D5" stroke-width="1.97" stroke-miterlimit="10"/>
<path d="M68.2306 112.847C68.2306 114.557 66.8857 115.948 65.2325 115.948C63.5793 115.948 62.2344 114.557 62.2344 112.847C62.2344 111.136 63.5727 109.745 65.2325 109.745C66.8923 109.745 68.2306 111.136 68.2306 112.847Z" fill="#FFBFBF"/>
<path d="M79.8751 112.847C79.8751 114.557 78.5302 115.948 76.877 115.948C75.2238 115.948 73.8789 114.557 73.8789 112.847C73.8789 111.136 75.2238 109.745 76.877 109.745C78.5302 109.745 79.8751 111.136 79.8751 112.847Z" fill="#EAD254"/>
<path d="M91.5275 112.847C91.5275 114.557 90.1826 115.948 88.5294 115.948C86.8761 115.948 85.5312 114.557 85.5312 112.847C85.5312 111.136 86.8696 109.745 88.5294 109.745C90.1891 109.745 91.5275 111.136 91.5275 112.847Z" fill="#A0D2F4"/>
<path d="M416.806 116.762H339.812C337.642 116.762 335.883 118.582 335.883 120.827V194.488C335.883 196.733 337.642 198.553 339.812 198.553H416.806C418.976 198.553 420.735 196.733 420.735 194.488V120.827C420.735 118.582 418.976 116.762 416.806 116.762Z" fill="#EDEDED"/>
<path d="M416.806 116.762H339.812C337.642 116.762 335.883 118.582 335.883 120.827V194.488C335.883 196.733 337.642 198.553 339.812 198.553H416.806C418.976 198.553 420.735 196.733 420.735 194.488V120.827C420.735 118.582 418.976 116.762 416.806 116.762Z" stroke="#DED8D5" stroke-width="1.97" stroke-miterlimit="10"/>
<path d="M358.431 177.277H398.449C400.63 177.277 402.398 175.448 402.398 173.192V139.266C402.398 137.01 400.63 135.181 398.449 135.181H358.431C356.249 135.181 354.481 137.01 354.481 139.266V173.192C354.481 175.448 356.249 177.277 358.431 177.277Z" fill="#008BCE"/>
<path d="M389.363 163.229H370.633H367.254V147.885H389.363V151.719V163.229Z" stroke="white" stroke-width="1.65" stroke-linecap="round" stroke-linejoin="round"/>
<path d="M367.254 147.885L378.308 156.897L389.363 147.885" stroke="white" stroke-width="1.65" stroke-linecap="round" stroke-linejoin="round"/>
<path d="M87.9541 186.256H14.5233C12.4545 186.256 10.7773 187.991 10.7773 190.131V256.361C10.7773 258.501 12.4545 260.236 14.5233 260.236H87.9541C90.023 260.236 91.7001 258.501 91.7001 256.361V190.131C91.7001 187.991 90.023 186.256 87.9541 186.256Z" fill="#EDEDED"/>
<path d="M87.9541 186.256H14.5233C12.4545 186.256 10.7773 187.991 10.7773 190.131V256.361C10.7773 258.501 12.4545 260.236 14.5233 260.236H87.9541C90.023 260.236 91.7001 258.501 91.7001 256.361V190.131C91.7001 187.991 90.023 186.256 87.9541 186.256Z" stroke="#DED8D5" stroke-width="1.97" stroke-miterlimit="10"/>
<path d="M70.0976 198.927H32.0143C29.6085 198.927 27.6582 200.944 27.6582 203.433V241.478C27.6582 243.967 29.6085 245.984 32.0143 245.984H70.0976C72.5034 245.984 74.4537 243.967 74.4537 241.478V203.433C74.4537 200.944 72.5034 198.927 70.0976 198.927Z" fill="#2A2A2A"/>
<path d="M41.9854 213.219C36.8486 218.533 36.8486 227.26 41.9854 232.574C47.1222 237.888 55.5589 237.888 60.6957 232.574C65.8326 227.26 65.8326 218.533 60.6957 213.219C55.5589 207.905 47.1222 207.905 41.9854 213.219ZM60.6629 215.187H56.4446C56.0247 213.816 55.4802 212.445 54.8045 211.074C57.14 211.807 59.1737 213.26 60.6629 215.187ZM46.4793 222.096C46.4793 220.324 46.6827 218.56 47.1091 216.788H55.5721C55.9919 218.56 56.1953 220.324 56.2019 222.096H46.4859H46.4793ZM56.1428 223.697C56.0247 225.468 55.7164 227.233 55.2309 229.004H47.4371C46.9517 227.233 46.6433 225.468 46.5252 223.697H56.1363H56.1428ZM51.3406 210.545C51.9769 210.545 52.6002 210.599 53.2103 210.694C54.0238 212.194 54.6536 213.687 55.1259 215.187H47.5487C48.021 213.687 48.6574 212.194 49.4643 210.694C50.0744 210.592 50.6977 210.545 51.334 210.545H51.3406ZM47.8701 211.074C47.201 212.445 46.6564 213.816 46.23 215.187H42.0117C43.5009 213.26 45.5346 211.807 47.8701 211.074ZM40.962 216.788H45.7905C45.364 218.56 45.1475 220.324 45.1147 222.096H39.4269C39.5449 220.175 40.0895 218.37 40.962 216.788ZM40.962 228.997C40.0895 227.416 39.5449 225.611 39.4269 223.69H45.1344C45.2197 225.462 45.4887 227.226 45.9414 228.997H40.962ZM42.0117 230.599H46.4006C46.8401 231.984 47.3846 233.375 48.0341 234.759C45.633 234.047 43.5402 232.567 42.0182 230.599H42.0117ZM51.3406 235.241C50.8092 235.241 50.2909 235.207 49.7792 235.132C49.051 233.619 48.4278 232.112 47.9292 230.599H54.7586C54.26 232.112 53.6367 233.626 52.9085 235.132C52.3968 235.2 51.872 235.241 51.3471 235.241H51.3406ZM54.647 234.759C55.2965 233.375 55.841 231.984 56.2806 230.599H60.6695C59.1475 232.567 57.0547 234.047 54.6536 234.759H54.647ZM61.7126 228.997H56.7332C57.1859 227.226 57.4549 225.462 57.5402 223.69H63.2477C63.1297 225.611 62.5851 227.416 61.7126 228.997ZM63.2477 222.096H57.5599C57.5271 220.324 57.304 218.56 56.8841 216.788H61.7126C62.5851 218.37 63.1297 220.175 63.2477 222.096Z" fill="white"/>
<path d="M73.6028 82.1647H7.08015C5.70902 82.1647 4.59375 81.011 4.59375 79.5926C4.59375 78.1742 5.70902 77.0205 7.08015 77.0205H73.6028C74.9739 77.0205 76.0892 78.1742 76.0892 79.5926C76.0892 81.011 74.9739 82.1647 73.6028 82.1647Z" fill="#008BCE"/>
<path d="M419.513 250.254H387.223C385.852 250.254 384.736 249.1 384.736 247.681C384.736 246.263 385.852 245.109 387.223 245.109H419.513C420.884 245.109 422 246.263 422 247.681C422 249.1 420.884 250.254 419.513 250.254Z" fill="black"/>
<path d="M396.908 272.316H392.958C391.922 272.316 391.082 273.185 391.082 274.257V278.092C391.082 279.164 391.922 280.033 392.958 280.033H396.908C397.944 280.033 398.784 279.164 398.784 278.092V274.257C398.784 273.185 397.944 272.316 396.908 272.316Z" fill="#008BCE"/>
<path d="M22.9311 290.151H18.9817C17.9455 290.151 17.1055 291.02 17.1055 292.092V295.927C17.1055 296.999 17.9455 297.868 18.9817 297.868H22.9311C23.9674 297.868 24.8074 296.999 24.8074 295.927V292.092C24.8074 291.02 23.9674 290.151 22.9311 290.151Z" fill="#FFBFBF"/>
<path d="M324.894 58.833H259.231C258.14 58.833 257.256 59.7476 257.256 60.8758V77.462C257.256 78.5902 258.14 79.5047 259.231 79.5047H324.894C325.984 79.5047 326.868 78.5902 326.868 77.462V60.8758C326.868 59.7476 325.984 58.833 324.894 58.833Z" fill="#A0D2F4"/>
<path d="M266.734 66.1963H313.431" stroke="white" stroke-width="1.18" stroke-miterlimit="10"/>
<path d="M266.734 71.1572H285.753" stroke="white" stroke-width="1.18" stroke-miterlimit="10"/>
<path d="M264.832 77.1631V85.2187L274.627 77.1631H264.832Z" fill="#A0D2F4"/>
<path d="M130.437 40H163.574C165.916 40 167.812 41.9613 167.812 44.3841V76.3486C167.812 78.7714 165.916 80.7327 163.574 80.7327H131.789C128.705 80.7327 126.199 78.1402 126.199 74.9506V44.3841C126.199 41.9613 128.095 40 130.437 40Z" fill="black"/>
<path d="M156.717 63.3798L154.349 60.9299C153.929 60.448 153.378 60.1834 152.827 60.1834C152.276 60.1834 151.725 60.448 151.305 60.8824L149.953 62.2804C149.868 62.2397 149.783 62.1922 149.697 62.1514C149.527 62.0632 149.402 62.0225 149.278 61.9343C148.011 61.0995 146.863 60.0069 145.768 58.6089C145.263 57.9506 144.882 57.3398 144.666 56.8172C145.007 56.5118 145.302 56.1589 145.597 55.8536C145.722 55.7246 145.853 55.5889 145.978 55.4599C146.443 54.9781 146.699 54.408 146.699 53.838C146.699 53.2679 146.443 52.6978 145.978 52.216L144.79 50.9876C144.666 50.8587 144.534 50.7229 144.41 50.5533L143.603 49.7185C143.183 49.2842 142.632 49.0195 142.081 49.0195C141.53 49.0195 141.024 49.2367 140.559 49.7185L139.076 51.2523C138.525 51.8224 138.19 52.5621 138.105 53.3968C138.02 54.7066 138.361 55.935 138.656 56.7222C139.332 58.7378 140.388 60.5295 141.956 62.4568C143.859 64.7778 146.102 66.617 148.726 67.9268C149.697 68.4086 151.055 68.9787 152.531 69.1076H152.827C153.844 69.1076 154.69 68.714 155.366 67.9675L155.405 67.9268C155.615 67.6621 155.871 67.4042 156.166 67.1395L156.717 66.5695C157.603 65.6058 157.603 64.296 156.717 63.373V63.3798ZM155.74 65.6533C155.569 65.8297 155.398 66.0062 155.234 66.1759C154.939 66.4405 154.683 66.7459 154.388 67.0513C153.968 67.4924 153.502 67.7096 152.866 67.7096H152.656C151.39 67.6214 150.203 67.0988 149.356 66.6577C146.942 65.4293 144.83 63.7259 143.052 61.5339C141.615 59.7422 140.637 58.032 139.962 56.2404C139.542 55.1885 139.371 54.3605 139.457 53.5258C139.496 53.0439 139.666 52.6096 140.047 52.2567L141.484 50.7705C141.608 50.6415 141.825 50.4651 142.074 50.4651C142.323 50.4651 142.494 50.594 142.665 50.7705C142.92 51.0351 143.17 51.293 143.426 51.5577C143.55 51.6866 143.681 51.8631 143.845 51.992L145.033 53.2204C145.158 53.3493 145.328 53.614 145.328 53.8312C145.328 54.0958 145.158 54.313 145.033 54.442L144.652 54.8356L143.596 55.9282L143.557 55.9689C143.137 56.4033 143.216 56.8037 143.301 57.0616V57.1023C143.596 57.8895 144.062 58.5885 144.698 59.464C145.886 60.9977 147.152 62.1786 148.549 63.0948C148.72 63.2237 148.93 63.3119 149.1 63.4002C149.271 63.4884 149.396 63.5291 149.52 63.6173L149.56 63.6581C149.979 63.8752 150.406 63.787 150.747 63.4409L152.23 61.9071C152.354 61.7782 152.571 61.6017 152.82 61.6017C153.03 61.6017 153.24 61.7782 153.371 61.9071L155.74 64.3571C156.12 64.7507 156.12 65.1918 155.74 65.6261V65.6533Z" fill="white"/>
<mask id="mask0_2517_19993" style="mask-type:luminance" maskUnits="userSpaceOnUse" x="79" y="147" width="313" height="226">
<path d="M391.535 147H79.4121V372.774H391.535V147Z" fill="white"/>
</mask>
<g mask="url(#mask0_2517_19993)">
<path d="M312.511 297.097L287.706 293.799L287.903 296.256L266.692 299.079C266.692 299.079 253.018 333.33 265.068 408.654H282.323L288.535 332.272H290.737L296.751 408.654H314.006C326.056 333.324 312.518 297.09 312.518 297.09L312.511 297.097Z" fill="#8E716C"/>
<path d="M280.637 332.271H298.639" stroke="#282828" stroke-width="1.23" stroke-linecap="round" stroke-linejoin="round"/>
<path d="M326.994 260.966C324.873 257.587 312.953 257.702 312.321 257.627C309.1 257.247 314.387 282.86 321.095 305.248C322.379 309.537 327.109 311.777 331.241 310.026C331.289 310.006 331.33 309.985 331.377 309.972C334.646 308.587 336.501 305.126 335.849 301.645C332.662 284.753 329.461 264.882 327.001 260.966H326.994Z" fill="#FFBFBF"/>
<path d="M329.835 270.223L314.619 276.12L313.191 268.913L328.951 264.983L329.835 270.223Z" fill="#F3978E"/>
<path d="M332.71 284.652C332.71 284.652 325.499 294.322 325.846 293.874C326.193 293.427 331.5 278.245 331.5 278.245L332.71 284.645V284.652Z" fill="#F3978E"/>
<path d="M343.018 271.654L322.352 298.393C319.64 301.902 320.503 306.978 324.227 309.394C327.945 311.803 332.933 310.534 335.047 306.646L352.247 274.953L343.012 271.654H343.018Z" fill="#FFBFBF"/>
<path d="M348.373 278.522C343.894 277.077 341.434 272.279 342.882 267.806C344.329 263.334 349.134 260.877 353.613 262.323C358.091 263.768 360.552 268.566 359.104 273.039C357.657 277.511 352.852 279.968 348.373 278.522Z" fill="#FFBFBF"/>
<path d="M357.208 265.302C357.208 265.302 359.539 262.886 355.4 261.19C351.261 259.493 346.144 259.88 342.875 267.806L357.201 265.309L357.208 265.302Z" fill="#FFBFBF"/>
<path d="M361.496 248.404L370.147 252.15C370.63 252.361 370.806 252.931 370.541 253.426L359.158 274.661C358.893 275.156 358.288 275.387 357.805 275.177L349.154 271.431C348.672 271.22 348.495 270.65 348.76 270.155L360.143 248.92C360.408 248.424 361.013 248.194 361.496 248.404Z" fill="#372F5F"/>
<path d="M360.668 248.024L369.319 251.77C369.802 251.981 369.978 252.551 369.713 253.046L358.33 274.281C358.065 274.777 357.46 275.007 356.977 274.797L348.326 271.051C347.843 270.84 347.667 270.27 347.932 269.775L359.315 248.54C359.58 248.044 360.185 247.814 360.668 248.024Z" fill="#261B43"/>
<path d="M359.696 250.189L367.294 253.481L358.017 270.787L350.412 267.495L359.696 250.189Z" fill="#E6E6E6"/>
<path d="M367.294 253.481L350.412 267.495L359.696 250.189L367.294 253.481Z" fill="white"/>
<path d="M352.921 260.484C352.921 260.484 354.851 260.858 356.584 261.842C357.352 262.276 357.74 263.158 357.529 264.013C357.339 264.794 356.679 265.371 355.884 265.472L351.385 266.036C351.385 266.036 349.041 270.074 345.969 270.528L348.782 263.437L352.914 260.484H352.921Z" fill="#FFBFBF"/>
<path d="M295.46 227.291C294.963 227.291 327.367 231.77 332.709 268.655L315.895 271.227L312.504 299.079H265.598L256.287 247.623C256.287 247.623 266.678 232.754 285.972 227.291H295.453H295.46Z" fill="black"/>
<path d="M315.895 271.226L317.356 255.122" stroke="#282828" stroke-width="1.23" stroke-linecap="round" stroke-linejoin="round"/>
<path d="M298.539 227.814V215.001H283.5V227.963C282.732 228.194 281.447 228.655 279.463 229.599L291.193 236.575L303.181 229.599C303.181 229.599 301.278 228.493 298.539 227.814Z" fill="#FFBFBF"/>
<path d="M283.363 216.569C283.363 216.569 286.061 223.729 293.272 223.111C299.898 222.541 298.845 212.619 298.845 212.619L283.363 216.569Z" fill="#282828"/>
<path d="M276.805 207.047C274.447 209.185 269.18 201.082 271.457 198.808C273.734 196.535 275.473 200.104 275.473 200.104L276.493 202.52L277.261 205.791L277.444 206.647L276.812 207.04L276.805 207.047Z" fill="#F3978E"/>
<path d="M272.559 201.679C272.559 201.679 274.346 200.878 275.929 203.457" stroke="#282828" stroke-width="0.99" stroke-linecap="round" stroke-linejoin="round"/>
<path d="M304.675 206.804C306.843 209.131 312.783 201.503 310.703 199.047C308.624 196.59 306.592 199.997 306.592 199.997L305.375 202.318L304.335 205.514L304.084 206.356L304.682 206.804H304.675Z" fill="#F3978E"/>
<path d="M309.364 201.809C309.364 201.809 307.652 200.859 305.857 203.302" stroke="#282828" stroke-width="0.99" stroke-linecap="round" stroke-linejoin="round"/>
<path d="M272.674 191.086C272.674 201.802 280.856 206.885 290.955 206.885C301.054 206.885 309.237 201.802 309.237 191.086C309.237 180.37 301.054 173.074 290.955 173.074C280.856 173.074 272.674 180.363 272.674 191.086Z" fill="#282828"/>
<path d="M275.153 191.832C275.153 198.415 276.084 204.089 277.015 208.12C277.926 212.063 280.488 214.825 284.104 217.044L284.763 217.452C288.589 219.8 293.536 219.854 297.424 217.594C301.345 215.314 304.091 212.301 304.933 208.066C306.469 200.363 306.639 191.839 306.639 191.839C306.639 191.839 308.1 175.226 291.124 175.552C274.147 175.877 275.16 191.839 275.16 191.839L275.153 191.832Z" fill="#FFBFBF"/>
<path d="M289.867 201.313V203.614C289.867 203.75 289.894 203.879 289.942 204.001C290.132 204.469 290.676 204.693 291.165 204.564L292.219 204.286" stroke="#282828" stroke-width="1.23" stroke-linecap="round" stroke-linejoin="round"/>
<path d="M287.169 192.395L278.729 194.37C278.729 194.37 279.109 192.226 282.561 191.445C286.014 190.665 287.162 192.395 287.162 192.395H287.169Z" fill="#282828"/>
<path d="M294.658 192.395L302.807 194.37C302.807 194.37 302.44 192.226 299.103 191.445C295.773 190.665 294.658 192.395 294.658 192.395Z" fill="#282828"/>
<path d="M283.961 200.004C284.746 200.004 285.382 199.369 285.382 198.585C285.382 197.802 284.746 197.167 283.961 197.167C283.177 197.167 282.541 197.802 282.541 198.585C282.541 199.369 283.177 200.004 283.961 200.004Z" fill="#282828"/>
<path d="M298.878 198.585C298.878 199.366 298.239 200.004 297.457 200.004C296.676 200.004 296.037 199.373 296.037 198.585C296.037 197.798 296.676 197.167 297.457 197.167C298.239 197.167 298.878 197.798 298.878 198.585Z" fill="#282828"/>
<path d="M285.389 207.238H296.364C296.364 207.238 291.498 213.149 285.389 207.238Z" fill="white"/>
<path d="M287.641 203.41C290.003 201.051 290.003 197.227 287.641 194.868C285.279 192.509 281.45 192.509 279.087 194.868C276.725 197.227 276.725 201.051 279.087 203.41C281.45 205.768 285.279 205.768 287.641 203.41Z" stroke="#008BCE" stroke-width="1.34" stroke-miterlimit="10"/>
<path d="M302.512 203.409C304.875 201.05 304.875 197.226 302.512 194.867C300.15 192.508 296.321 192.508 293.959 194.867C291.596 197.226 291.596 201.05 293.959 203.409C296.321 205.767 300.15 205.767 302.512 203.409Z" stroke="#008BCE" stroke-width="1.34" stroke-miterlimit="10"/>
<path d="M289.418 199.141C289.418 199.141 290.852 197.804 292.184 199.141" stroke="#008BCE" stroke-width="1.34" stroke-miterlimit="10"/>
<path d="M277.314 199.141L275.404 199.087" stroke="#008BCE" stroke-width="1.34" stroke-miterlimit="10"/>
<path d="M304.281 199.141L306.198 199.087" stroke="#008BCE" stroke-width="1.34" stroke-miterlimit="10"/>
<path d="M306.423 197.336C306.423 197.336 299.634 188.175 301.197 178.884C301.197 178.884 306.232 181.415 307.551 187.951C308.863 194.486 306.423 197.33 306.423 197.33V197.336Z" fill="#282828"/>
<path d="M275.147 197.96C275.147 197.96 283.03 187.55 281.467 178.266C281.467 178.266 275.996 181.421 274.684 187.957C273.373 194.492 275.147 197.96 275.147 197.96Z" fill="#282828"/>
<path d="M305.852 182.548C305.852 182.548 297.133 192.076 273.285 190.448C273.285 190.448 276.935 176.461 288.495 174.974C288.495 174.974 301.842 173.386 305.852 182.548Z" fill="#282828"/>
<path d="M316.486 173.222C317.489 167.02 313.267 161.181 307.057 160.18C300.846 159.179 294.999 163.395 293.997 169.596C292.994 175.798 297.216 181.637 303.426 182.638C309.636 183.639 315.484 179.423 316.486 173.222Z" fill="#282828"/>
<path d="M166.233 297.071L145.022 294.248L145.213 291.791L120.407 295.089C120.407 295.089 106.869 331.323 118.919 406.646H136.174L142.188 330.264H144.39L150.602 406.646H167.857C179.907 331.316 166.233 297.071 166.233 297.071Z" fill="#282828"/>
<path d="M164.54 194.025C161.672 190.652 159.368 186.716 157.418 181.198C155.318 175.273 148.454 177.683 148.454 177.683C148.454 177.683 142.731 170.333 134.121 172.891C125.51 175.45 122.52 181.571 122.343 188.847C122.166 196.122 116.437 197.255 112.027 205.67C104.238 220.526 117.348 233.04 141.223 229.566L141.257 229.335C143.608 230.047 146.489 230.36 150.003 230.149C178.682 228.446 175.91 207.387 164.54 194.025Z" fill="#282828"/>
<path d="M155.149 205.039C157.507 207.177 162.774 199.074 160.497 196.8C158.22 194.527 156.481 198.097 156.481 198.097L155.461 200.513L154.693 203.784L154.51 204.639L155.142 205.032L155.149 205.039Z" fill="#F3978E"/>
<path d="M159.402 199.671C159.402 199.671 157.615 198.87 156.031 201.449" stroke="#282828" stroke-width="0.99" stroke-linecap="round" stroke-linejoin="round"/>
<path d="M127.277 204.795C125.109 207.123 119.17 199.494 121.249 197.038C123.329 194.581 125.361 197.988 125.361 197.988L126.577 200.309L127.617 203.505L127.869 204.347L127.271 204.795H127.277Z" fill="#F3978E"/>
<path d="M122.588 199.8C122.588 199.8 124.3 198.85 126.095 201.293" stroke="#282828" stroke-width="0.99" stroke-linecap="round" stroke-linejoin="round"/>
<path d="M159.287 189.077C159.287 199.793 151.105 204.876 141.006 204.876C130.907 204.876 122.725 199.793 122.725 189.077C122.725 178.361 130.907 171.065 141.006 171.065C151.105 171.065 159.287 178.354 159.287 189.077Z" fill="#282828"/>
<path d="M148.454 212.992H133.414V232.436H148.454V212.992Z" fill="#FFBFBF"/>
<path d="M131.225 211.784C131.225 211.784 135.411 220.125 140.562 221.428C141.935 221.774 143.41 221.659 144.735 221.19C146.672 220.505 149.132 217.621 149.547 214.424L149.744 212.599C149.744 212.599 140.583 217.58 131.231 211.784H131.225Z" fill="#282828"/>
<path d="M156.799 189.824C156.799 196.407 155.868 202.08 154.937 206.111C154.026 210.054 151.464 212.816 147.848 215.036L147.189 215.443C143.363 217.791 138.416 217.845 134.528 215.585C130.607 213.305 127.861 210.292 127.019 206.057C125.483 198.354 125.313 189.83 125.313 189.83C125.313 189.83 123.852 173.217 140.828 173.543C157.805 173.869 156.792 189.83 156.792 189.83L156.799 189.824Z" fill="#FFBFBF"/>
<path d="M139.869 200.199V201.563C139.869 201.699 139.896 201.828 139.944 201.95C140.134 202.418 140.678 202.642 141.167 202.513L142.221 202.235" stroke="#282828" stroke-width="1.23" stroke-linecap="round" stroke-linejoin="round"/>
<path d="M143.41 191.201L152.442 193.339C152.442 193.339 152.034 191.018 148.337 190.176C144.64 189.334 143.41 191.201 143.41 191.201Z" fill="#282828"/>
<path d="M138.667 191.201L129.52 193.339C129.52 193.339 129.934 191.018 133.679 190.176C137.423 189.334 138.667 191.201 138.667 191.201Z" fill="#282828"/>
<path d="M135.392 196.799C135.392 197.58 134.753 198.211 133.971 198.211C133.19 198.211 132.551 197.58 132.551 196.799C132.551 196.019 133.19 195.388 133.971 195.388C134.753 195.388 135.392 196.019 135.392 196.799Z" fill="#282828"/>
<path d="M148.882 196.799C148.882 197.58 148.243 198.211 147.461 198.211C146.68 198.211 146.041 197.58 146.041 196.799C146.041 196.019 146.68 195.388 147.461 195.388C148.243 195.388 148.882 196.019 148.882 196.799Z" fill="#282828"/>
<path d="M134.447 204.876H146.938C146.938 204.876 146.055 208.303 140.394 208.303C136.078 208.303 134.447 204.876 134.447 204.876Z" fill="white"/>
<path d="M125.531 195.328C125.531 195.328 132.32 186.166 130.757 176.875C130.757 176.875 125.721 179.406 124.403 185.942C123.091 192.477 125.531 195.321 125.531 195.321V195.328Z" fill="#282828"/>
<path d="M156.813 195.028C156.813 195.028 148.929 185.548 150.492 176.264C150.492 176.264 155.963 179.419 157.275 185.955C158.586 192.49 156.813 195.028 156.813 195.028Z" fill="#282828"/>
<path d="M126.102 180.539C126.102 180.539 133.89 190.997 157.744 189.362C157.744 189.362 155.019 174.452 143.459 172.966C143.459 172.966 130.111 171.378 126.102 180.539Z" fill="#282828"/>
<path d="M104.361 343.063C104.015 343.606 124.212 255.307 118.218 256.644C117.668 256.766 107.168 257.737 105.612 260.906C101.085 270.095 97.8438 342.392 97.8438 342.392L104.368 343.063H104.361Z" fill="#FFBFBF"/>
<path d="M97.8369 342.392C97.8369 342.392 94.5816 357.472 106.889 359.121C107.698 359.229 108.486 358.754 108.751 357.981L108.785 357.879C109.078 357.024 108.649 356.114 107.827 355.748C105.822 354.852 102.71 352.585 104.252 347.448C104.252 347.448 106.033 347.231 107.012 350.543C107.263 351.398 108.221 351.825 109.016 351.425C109.56 351.153 109.866 350.57 109.791 349.966C109.499 347.645 108.33 342.059 103.845 340.56L97.8437 342.392H97.8369Z" fill="#FFBFBF"/>
<path d="M101.977 282.128C101.977 282.128 113.611 298.49 113.673 298.178C113.734 297.859 117.743 275.199 117.743 275.199L103.621 269.091L101.977 282.128Z" fill="#F3978E"/>
<path d="M134.311 229.24C134.807 229.24 105.55 229.762 100.201 266.647L117.015 269.219L120.406 297.071H167.312L176.623 245.615C176.623 245.615 170.003 234.465 150.709 229.009L134.311 229.24Z" fill="#A0D2F4"/>
<path d="M120.012 233.699C120.012 233.699 124.144 239.182 141.086 239.182C158.029 239.182 162.161 233.414 162.161 233.414C162.161 233.414 152.266 227.896 140.787 226.104C140.787 226.104 130.539 227.93 120.012 233.699Z" fill="#FFBFBF"/>
<path d="M177.576 350.562L177.617 424.134H214.064L216.864 350.562H177.576Z" fill="#005683"/>
<path d="M256.71 350.562L256.669 424.134H220.222L217.422 350.562H256.71Z" fill="#005683"/>
<path d="M236.803 350.562H199.119V376.12H236.803V350.562Z" fill="#005683"/>
<path d="M279.734 286.36C281.997 311.287 279.612 329.455 280.271 375.325L258.517 376.234L255.275 290.371L279.734 286.36Z" fill="#FFBFBF"/>
<path d="M257.959 305.81C257.959 305.81 271.429 304.582 280.637 298.515L280.393 293.174L257.945 296.228V305.81H257.959Z" fill="#F3978E"/>
<path d="M236.348 228.96C236.348 228.96 279.136 239.703 286.89 293.941C286.89 293.941 265.951 303.008 244.965 299.105L249.688 280.965L236.354 228.96H236.348Z" fill="#008BCE"/>
<path d="M108.541 251.512L140.401 289.082L130.655 316.499C130.655 316.499 106.441 282.879 95.5605 256.893L108.548 251.512H108.541Z" fill="#FFBFBF"/>
<path d="M109.588 252.869C109.588 252.869 98.4017 259.18 95.5541 256.9C90.5794 252.91 86.4746 238.305 86.4746 238.305C86.4746 238.305 107.393 230.433 107.196 230.738C106.999 231.044 109.588 252.869 109.588 252.869Z" fill="#FFBFBF"/>
<path d="M109.588 252.87C109.391 251.743 113.734 239.616 115.229 235.062C115.589 233.962 114.828 232.761 113.639 232.53C112.864 232.381 111.634 232.476 111.049 233.589L105.803 242.547L109.588 252.87Z" fill="#FFBFBF"/>
<path d="M109.2 239.751L105.598 221.855C105.387 220.667 104.184 219.846 102.988 220.07C101.955 220.267 101.269 221.183 101.391 222.221L102.961 235.55L109.193 239.758L109.2 239.751Z" fill="#FFBFBF"/>
<path d="M102.037 233.154L97.1434 220.375C96.7356 219.256 95.4783 218.638 94.3638 219.011C93.3987 219.337 92.8551 220.308 93.0861 221.305L96.7152 236.073L102.037 233.161V233.154Z" fill="#FFBFBF"/>
<path d="M96.7836 236.921L90.5924 224.366C90.0215 223.199 88.6079 222.663 87.4526 223.165C86.3652 223.64 85.8827 224.868 86.3448 225.995L91.2787 237.851L96.7836 236.928V236.921Z" fill="#FFBFBF"/>
<path d="M86.4741 238.305L81.6149 230.609C81.214 229.707 81.5809 228.689 82.4644 228.288C83.3071 227.901 84.3469 228.207 84.8906 228.994L91.2789 237.844L86.4741 238.305Z" fill="#FFBFBF"/>
<path d="M108.222 238.407C108.222 238.407 100.93 237.64 100.176 247.351" stroke="#282828" stroke-width="1.53" stroke-linecap="round" stroke-linejoin="round"/>
<path d="M124.186 303.68C124.186 303.68 130.18 324.386 142.12 321.637C154.061 318.882 172.669 293.419 172.669 293.419L168.503 249.938L134.991 291.125L124.186 303.687V303.68Z" fill="#FFBFBF"/>
<path d="M145.389 278.325C145.389 278.325 156.704 295.366 166.355 301.379L172.675 293.419L148.304 274.593L145.389 278.332V278.325Z" fill="#F3978E"/>
<path d="M194.892 228.023C194.892 228.023 161.672 235.502 143.969 274.056C143.969 274.056 154.666 290.147 171.812 297.3L183.291 283.259L194.892 228.023Z" fill="#008BCE"/>
<path d="M194.892 227.902C181.918 234.546 173.756 243.362 173.756 243.362L176.318 356.059H258.095L257.83 243.945C257.83 243.945 247.52 233.874 236.348 228.961C226.86 224.787 204.114 223.179 194.892 227.902Z" fill="#008BCE"/>
<path d="M222.212 260.104H244.958V271.465C244.958 277.736 239.861 282.826 233.582 282.826C227.302 282.826 222.205 277.736 222.205 271.465V260.104H222.212Z" stroke="#282828" stroke-width="1.4" stroke-linecap="round" stroke-linejoin="round"/>
<path d="M257.959 299.526L259.019 262.662" stroke="#282828" stroke-width="1.4" stroke-linecap="round" stroke-linejoin="round"/>
<path d="M175.013 293.385L173.246 261.428" stroke="#282828" stroke-width="1.4" stroke-linecap="round" stroke-linejoin="round"/>
<path d="M195.849 186.742L192.437 169.905C192.247 168.534 191.71 166.416 192.363 164.428C193.443 161.136 197.412 154.818 204.195 157.709L205.663 164.374C205.663 164.374 198.622 165.792 195.795 174.994L195.849 186.742Z" fill="#282828"/>
<path d="M203.698 161.184C203.576 163.396 201.619 173.08 194.741 176.603C194.741 176.603 188.72 163.701 203.698 161.184Z" fill="#282828"/>
<path d="M227.819 224.801V196.202H201.423V224.801L193.566 228.377C193.566 228.377 195.408 240.226 214.899 240.491C234.39 240.756 236.348 228.961 236.348 228.961L227.819 224.801Z" fill="#FFBFBF"/>
<path d="M204.194 157.709C204.194 157.709 209.04 144.944 223.978 151.73C233.023 155.836 235.551 161.34 236.632 165.242C236.992 166.538 237.135 168.581 237.033 169.796L233.417 186.742L219.309 163.294L205.655 164.374L204.188 157.709H204.194Z" fill="#282828"/>
<path d="M233.424 186.742C233.424 186.742 235.205 183.912 238.875 185.304C242.545 186.695 240.886 195.599 235.382 196.732C235.382 196.732 233.411 197.16 231.861 195.809C231.861 195.809 233.214 189.233 233.431 186.736L233.424 186.742Z" fill="#F3978E"/>
<path d="M238.147 188.445C238.147 188.445 235.075 187.421 232.887 191.941" stroke="#282828" stroke-width="1.4" stroke-linecap="round" stroke-linejoin="round"/>
<path d="M195.849 186.742C195.849 186.742 194.068 183.912 190.399 185.304C186.729 186.695 188.387 195.599 193.892 196.732C193.892 196.732 195.863 197.16 197.412 195.809C197.412 195.809 196.06 189.233 195.842 186.736L195.849 186.742Z" fill="#F3978E"/>
<path d="M191.125 188.445C191.125 188.445 194.197 187.421 196.385 191.941" stroke="#282828" stroke-width="1.4" stroke-linecap="round" stroke-linejoin="round"/>
<path d="M233.792 178.293C233.792 183.661 233.269 194.886 229.959 201.55C226.86 207.807 221.729 211.173 215.001 211.377C208.273 211.581 203.264 208.988 199.248 200.865C195.231 192.741 195.421 178.388 195.421 178.388C195.421 178.388 195.421 159.216 214.396 159.216C234.383 159.216 233.785 178.286 233.785 178.286L233.792 178.293Z" fill="#FFBFBF"/>
<path d="M201.619 204.869C201.619 204.869 203.828 216.074 213.594 217.356C224.828 218.836 227.818 205.154 227.818 205.154C227.818 205.154 222.857 211.364 215.001 211.377C206.247 211.391 201.619 204.869 201.619 204.869Z" fill="#282828"/>
<path d="M213.254 186.254V190.692C213.254 190.882 213.288 191.066 213.356 191.235C213.621 191.894 214.375 192.206 215.062 192.022L216.536 191.629" stroke="#282828" stroke-width="1.4" stroke-linecap="round" stroke-linejoin="round"/>
<path d="M207.654 184.136C207.654 185.086 206.879 185.86 205.927 185.86C204.976 185.86 204.201 185.086 204.201 184.136C204.201 183.186 204.976 182.412 205.927 182.412C206.879 182.412 207.654 183.186 207.654 184.136Z" fill="#282828"/>
<path d="M223.849 184.136C223.849 185.086 223.074 185.86 222.123 185.86C221.171 185.86 220.396 185.086 220.396 184.136C220.396 183.186 221.171 182.412 222.123 182.412C223.074 182.412 223.849 183.186 223.849 184.136Z" fill="#282828"/>
<path d="M217.697 175.551L229.312 178.544C229.312 178.544 228.782 175.293 224.031 174.106C219.281 172.925 217.697 175.544 217.697 175.544V175.551Z" fill="#282828"/>
<path d="M210.48 175.551L198.865 178.544C198.865 178.544 199.395 175.293 204.146 174.106C208.896 172.925 210.48 175.544 210.48 175.544V175.551Z" fill="#282828"/>
<path d="M208.17 195.164C208.17 195.164 209.883 196.474 214.388 196.474C218.486 196.474 221.042 195.164 221.042 195.164" stroke="#282828" stroke-width="1.4" stroke-linecap="round" stroke-linejoin="round"/>
<path d="M205.459 191.967C209.513 191.967 212.799 188.686 212.799 184.638C212.799 180.59 209.513 177.309 205.459 177.309C201.405 177.309 198.119 180.59 198.119 184.638C198.119 188.686 201.405 191.967 205.459 191.967Z" stroke="white" stroke-width="1.95" stroke-miterlimit="10"/>
<path d="M223.488 191.967C227.542 191.967 230.828 188.686 230.828 184.638C230.828 180.59 227.542 177.309 223.488 177.309C219.435 177.309 216.148 180.59 216.148 184.638C216.148 188.686 219.435 191.967 223.488 191.967Z" stroke="white" stroke-width="1.95" stroke-miterlimit="10"/>
<path d="M212.799 184.638C212.799 184.638 214.539 183.016 216.149 184.638" stroke="white" stroke-width="1.95" stroke-miterlimit="10"/>
<path d="M198.118 184.638L195.658 184.577" stroke="white" stroke-width="1.95" stroke-miterlimit="10"/>
<path d="M230.828 184.638L233.574 184.598" stroke="white" stroke-width="1.95" stroke-miterlimit="10"/>
<path d="M201.618 161.618C201.618 161.618 205.145 171.622 221.048 171.31C231.854 171.099 234.436 178.911 234.436 178.911C234.436 178.911 232.554 161.449 232.058 161.618C231.562 161.781 215.611 157.37 215.611 157.37L201.611 161.618H201.618Z" fill="#282828"/>
</g>
</g>
</g>
<defs>
<clipPath id="clip0_2517_19993">
<rect width="427" height="413" fill="white"/>
</clipPath>
<clipPath id="clip1_2517_19993">
<rect width="437" height="322" fill="white" transform="translate(0 40)"/>
</clipPath>
</defs>
</svg>
