<svg width="427" height="425" viewBox="0 0 427 425" fill="none" xmlns="http://www.w3.org/2000/svg">
<g clip-path="url(#clip0_2329_12262)">
<path d="M400.041 382.57C388.531 392.16 338.441 398.94 278.761 401.49C187.021 405.42 72.6009 399.37 40.7909 378.2C25.7309 368.19 15.5509 337.25 9.1009 297.66C-6.9291 199.16 0.220901 47.1301 13.1609 30.6501C31.3109 7.56009 323.301 -15.3099 399.911 13.9301C432.741 26.4601 429.231 358.23 400.031 382.57H400.041Z" fill="white"/>
<path d="M373.314 247.44L375.204 241.883L377.358 247.44C377.358 247.44 381.657 248.14 381.712 248.531C381.757 248.913 377.595 250.095 377.595 250.095C377.595 250.095 375.85 255.488 375.204 254.27C374.568 253.051 373.95 250.35 373.95 250.35C373.95 250.35 368.533 249.268 368.533 248.731C368.533 248.158 373.314 247.449 373.314 247.449V247.44Z" fill="white"/>
<path d="M304.094 233.142L305.566 228.822L307.238 233.142C307.238 233.142 310.574 233.688 310.619 233.988C310.656 234.279 307.429 235.198 307.429 235.198C307.429 235.198 306.075 239.381 305.575 238.435C305.075 237.49 304.594 235.389 304.594 235.389C304.594 235.389 300.395 234.543 300.395 234.134C300.395 233.688 304.103 233.142 304.103 233.142H304.094Z" fill="white"/>
<g clip-path="url(#clip1_2329_12262)">
<path d="M193.093 53.2879C190.644 57.0056 188.19 60.9945 187.781 65.5361C187.376 70.0224 189.189 74.6745 192.438 77.503C195.687 80.3314 200.279 81.2458 204.249 79.8542L215.739 75.2623L214.883 52.1977L202.352 48.5654L193.093 53.2829V53.2879Z" fill="white"/>
<path d="M200.464 81.2062C197.42 81.2062 194.366 80.111 192.014 78.0663C188.612 75.1072 186.688 70.1637 187.111 65.4664C187.529 60.8143 189.918 56.8505 192.544 52.8665C192.609 52.766 192.698 52.6857 192.804 52.6354L202.063 47.918C202.207 47.8477 202.365 47.8276 202.519 47.8728L215.05 51.505C215.329 51.5854 215.529 51.8567 215.543 52.1732L216.398 75.2379C216.412 75.5493 216.235 75.8357 215.966 75.9412L204.476 80.533C203.184 80.9852 201.826 81.2062 200.464 81.2062ZM193.53 53.8612C191.052 57.6292 188.821 61.3719 188.435 65.6121C188.054 69.8372 189.788 74.2883 192.846 76.951C195.909 79.6137 200.302 80.4878 204.039 79.1816L215.05 74.7807L214.232 52.766L202.412 49.3397L193.53 53.8663V53.8612Z" fill="black"/>
<path d="M272.506 213.912L249.861 163.231H229.813L206.262 188.512L231.9 241.021C237.037 251.541 244.841 260.258 254.397 266.151L317.192 304.885L348.623 258.007L277.117 218.981C275.109 217.886 273.487 216.103 272.506 213.912Z" fill="white"/>
<path d="M317.193 305.608C317.081 305.608 316.965 305.578 316.863 305.512L254.068 266.778C244.386 260.805 236.516 252.013 231.311 241.357L205.672 188.848C205.537 188.567 205.584 188.225 205.793 188.004L229.344 162.724C229.47 162.588 229.637 162.513 229.814 162.513H249.861C250.117 162.513 250.349 162.668 250.461 162.92L273.106 213.601C274.017 215.64 275.546 217.323 277.415 218.343L348.921 257.369C349.093 257.464 349.223 257.635 349.269 257.841C349.316 258.047 349.274 258.263 349.162 258.434L317.732 305.312C317.602 305.502 317.402 305.608 317.193 305.608ZM207.08 188.647L232.487 240.689C237.572 251.104 245.259 259.695 254.723 265.532L317.002 303.945L347.624 258.273L276.815 219.629C274.686 218.469 272.943 216.55 271.907 214.229L249.443 163.955H230.088L207.08 188.652V188.647Z" fill="black"/>
<path d="M375.785 269.571L341.324 345.356L337.987 343.583C333.808 341.362 331.484 336.439 332.246 331.485L332.256 331.415L335.254 312.153L331.419 303.497C330.736 301.975 330.75 300.202 331.438 298.684C332.07 297.298 333.19 296.268 334.552 295.836C338.717 294.504 347.896 290.837 351.331 283.678C355.84 274.288 349.89 266.28 349.89 266.28C361.78 256.599 375.789 269.576 375.789 269.576L375.785 269.571Z" fill="#A0D2F4"/>
<path d="M341.32 346.075C341.217 346.075 341.12 346.049 341.027 345.999L337.689 344.226C333.292 341.89 330.782 336.599 331.586 331.365L334.557 312.259L330.81 303.809C330.034 302.085 330.043 300.101 330.833 298.368C331.54 296.81 332.827 295.635 334.357 295.142C338.163 293.927 347.376 290.345 350.736 283.341C354.98 274.494 349.598 267.039 349.365 266.727C349.254 266.577 349.203 266.381 349.226 266.19C349.249 265.999 349.342 265.823 349.486 265.707C361.664 255.795 376.073 268.898 376.217 269.028C376.45 269.244 376.515 269.596 376.38 269.892L341.919 345.678C341.84 345.848 341.705 345.979 341.538 346.039C341.468 346.064 341.394 346.08 341.324 346.08L341.32 346.075ZM350.811 266.441C352.108 268.551 355.849 275.816 351.922 284.004C348.324 291.5 338.707 295.258 334.738 296.524C333.562 296.901 332.576 297.805 332.033 299.001C331.424 300.332 331.419 301.859 332.014 303.181L335.853 311.842C335.914 311.977 335.932 312.128 335.909 312.274L332.911 331.535C332.195 336.218 334.403 340.88 338.28 342.935L341.022 344.392L374.958 269.772C372.661 267.848 360.93 258.84 350.815 266.446L350.811 266.441Z" fill="black"/>
<path d="M368.902 285.427C368.804 285.427 368.702 285.402 368.609 285.351C360.745 281.177 357.1 271.34 360.131 262.473C360.257 262.101 360.642 261.91 360.986 262.046C361.33 262.181 361.507 262.598 361.381 262.97C358.588 271.144 361.948 280.207 369.195 284.06C369.525 284.236 369.66 284.668 369.497 285.025C369.381 285.281 369.144 285.427 368.897 285.427H368.902Z" fill="black"/>
<path d="M341.32 346.075C341.217 346.075 341.12 346.05 341.027 346L337.689 344.226C333.292 341.89 330.782 336.6 331.586 331.365C331.624 331.129 331.777 330.858 331.982 330.757C335.361 329.134 339.2 329.215 342.519 330.973C344.108 331.817 345.48 332.983 346.59 334.44C346.758 334.656 346.79 334.962 346.674 335.213L341.919 345.668C341.84 345.839 341.705 345.969 341.538 346.03C341.468 346.055 341.394 346.07 341.324 346.07L341.32 346.075ZM332.855 331.923C332.293 336.434 334.492 340.925 338.275 342.94L341.017 344.397L345.284 335.012C344.345 333.877 343.221 332.952 341.928 332.269C339.075 330.752 335.788 330.631 332.855 331.923Z" fill="black"/>
<path d="M339.252 320.896L334.004 320.866C333.637 320.866 333.339 320.539 333.344 320.142C333.344 319.745 333.641 319.429 334.008 319.429L339.256 319.459C339.623 319.459 339.921 319.785 339.916 320.182C339.916 320.579 339.619 320.896 339.252 320.896Z" fill="black"/>
<path d="M339.935 316.987L334.687 316.957C334.32 316.957 334.023 316.63 334.027 316.233C334.027 315.837 334.348 315.505 334.697 315.52L339.944 315.55C340.312 315.55 340.609 315.877 340.604 316.274C340.604 316.67 340.307 316.987 339.94 316.987H339.935Z" fill="black"/>
<path d="M340.623 313.078L335.375 313.048C335.008 313.048 334.71 312.722 334.715 312.325C334.715 311.928 335.012 311.611 335.38 311.611L340.627 311.641C340.994 311.641 341.292 311.968 341.287 312.365C341.287 312.762 340.99 313.078 340.623 313.078Z" fill="black"/>
<path d="M332.856 314.851C331.513 314.851 329.91 314.369 328.696 313.726C327.52 313.103 326.688 312.339 326.228 311.47C325.759 310.586 325.717 309.631 326.103 308.787C326.489 307.938 327.214 307.396 328.148 307.255C329.068 307.119 330.133 307.365 331.309 307.988C333.53 309.169 336.152 311.797 335.301 313.67C334.916 314.519 333.977 314.851 332.861 314.851H332.856ZM328.645 308.657C328.524 308.657 328.418 308.667 328.325 308.682C327.827 308.757 327.483 309.003 327.293 309.42C327.102 309.837 327.135 310.284 327.381 310.757C327.604 311.184 328.115 311.817 329.282 312.435C331.467 313.595 333.833 313.63 334.102 313.037C334.372 312.445 332.903 310.44 330.718 309.28C329.793 308.787 329.115 308.657 328.645 308.657Z" fill="black"/>
<path d="M328.12 319.72C326.321 319.72 325.359 318.7 325.071 317.625C324.694 316.208 325.345 314.214 328.427 313.249C330.802 312.506 334.381 312.546 334.915 314.55C335.162 315.465 334.66 316.515 333.512 317.505C332.577 318.313 331.318 319.002 330.067 319.394C329.333 319.625 328.682 319.725 328.12 319.725V319.72ZM331.327 314.244C330.565 314.244 329.682 314.36 328.799 314.631C327.037 315.178 326.079 316.198 326.354 317.223C326.628 318.248 327.943 318.555 329.7 318.007C330.779 317.67 331.894 317.062 332.684 316.379C333.428 315.736 333.702 315.189 333.637 314.947C333.53 314.551 332.587 314.244 331.322 314.244H331.327Z" fill="black"/>
<path d="M350.091 266.572C351.1 268.109 355.33 275.349 351.328 283.678C347.893 290.837 338.708 294.51 334.548 295.836C333.186 296.273 332.062 297.298 331.434 298.685C331.141 299.323 330.974 300.016 330.932 300.714L323.207 295.922L343.784 265.467L350.091 266.572Z" fill="white"/>
<path d="M330.927 301.432C330.811 301.432 330.699 301.402 330.597 301.337L322.872 296.544C322.709 296.444 322.593 296.268 322.551 296.072C322.514 295.871 322.551 295.665 322.663 295.499L343.24 265.045C343.388 264.828 343.635 264.718 343.886 264.758L350.193 265.863C350.37 265.894 350.528 265.999 350.63 266.16C351.578 267.612 356.11 275.283 351.913 284.01C348.315 291.505 338.698 295.263 334.729 296.529C333.553 296.906 332.568 297.81 332.024 299.006C331.773 299.554 331.629 300.146 331.587 300.769C331.573 301.015 331.438 301.237 331.238 301.352C331.141 301.407 331.034 301.438 330.927 301.438V301.432ZM324.183 295.695L330.43 299.574C330.527 299.157 330.662 298.755 330.839 298.368C331.545 296.811 332.833 295.635 334.362 295.143C338.169 293.927 347.381 290.345 350.742 283.341C354.386 275.76 350.825 269.028 349.71 267.23L344.086 266.245L324.187 295.695H324.183Z" fill="black"/>
<path d="M235.037 163.231H180.269L160.357 218.615C156.922 228.17 155.708 238.494 156.833 248.678L164.047 314.063H217.611L204.908 236.043C204.536 233.767 204.834 231.426 205.759 229.341L235.037 163.231Z" fill="white"/>
<path d="M217.611 314.786H164.047C163.712 314.786 163.424 314.515 163.387 314.153L156.173 248.768C155.039 238.509 156.271 227.994 159.738 218.358L179.651 162.975C179.748 162.698 179.995 162.518 180.269 162.518H235.037C235.265 162.518 235.479 162.643 235.599 162.854C235.72 163.065 235.734 163.326 235.637 163.547L206.358 229.657C205.489 231.616 205.215 233.786 205.564 235.927L218.267 313.947C218.299 314.158 218.248 314.369 218.123 314.535C217.997 314.696 217.811 314.791 217.611 314.791V314.786ZM164.637 313.345H216.817L204.248 236.168C203.853 233.731 204.165 231.259 205.155 229.029L233.977 163.949H180.72L160.97 218.875C157.586 228.29 156.382 238.564 157.489 248.592L164.633 313.345H164.637Z" fill="black"/>
<path d="M224.905 346.92H146.775V342.896C146.775 337.867 149.838 333.441 154.287 331.994L154.347 331.974L171.666 326.387L177.16 318.846C178.122 317.51 179.605 316.741 181.166 316.741C182.598 316.741 183.946 317.374 184.908 318.505C187.85 321.956 194.943 329.246 202.408 329.416C212.192 329.648 216.217 320.343 216.217 320.343C229.497 327.608 224.905 346.915 224.905 346.915V346.92Z" fill="#A0D2F4"/>
<path d="M224.905 347.638H146.776C146.409 347.638 146.111 347.316 146.111 346.919V342.895C146.111 337.6 149.398 332.832 154.097 331.305L171.271 325.759L176.635 318.399C177.723 316.887 179.373 316.022 181.162 316.022C182.766 316.022 184.309 316.751 185.392 318.017C188.079 321.172 195.116 328.527 202.418 328.698C211.663 328.914 215.572 320.127 215.609 320.037C215.684 319.861 215.823 319.725 215.995 319.66C216.167 319.594 216.353 319.61 216.511 319.7C230.111 327.14 225.589 346.894 225.542 347.095C225.468 347.412 225.203 347.638 224.896 347.638H224.905ZM147.441 346.201H224.371C224.956 343.126 227.262 327.773 216.483 321.313C215.302 323.503 210.938 330.336 202.39 330.135C194.581 329.949 187.219 322.277 184.416 318.987C183.584 318.012 182.399 317.454 181.162 317.454C179.787 317.454 178.518 318.122 177.681 319.283L172.182 326.824C172.099 326.939 171.982 327.025 171.848 327.07L154.529 332.657C150.327 334.023 147.431 338.223 147.431 342.895V346.196L147.441 346.201Z" fill="black"/>
<path d="M209.301 347.638C208.934 347.638 208.637 347.316 208.637 346.919C208.637 337.449 215.195 329.577 223.896 328.607C224.259 328.567 224.589 328.853 224.626 329.25C224.663 329.647 224.398 329.999 224.031 330.039C216.013 330.933 209.966 338.193 209.966 346.924C209.966 347.321 209.669 347.643 209.301 347.643V347.638Z" fill="black"/>
<path d="M157.555 347.637H146.776C146.409 347.637 146.111 347.316 146.111 346.919V342.895C146.111 337.599 149.398 332.832 154.097 331.304C154.311 331.234 154.603 331.264 154.775 331.42C157.615 333.982 159.242 337.745 159.242 341.734C159.242 343.648 158.88 345.492 158.159 347.215C158.052 347.471 157.815 347.637 157.55 347.637H157.555ZM147.441 346.2H157.113C157.643 344.789 157.913 343.291 157.913 341.734C157.913 338.298 156.565 335.057 154.199 332.776C150.206 334.218 147.445 338.333 147.445 342.895V346.195L147.441 346.2Z" fill="black"/>
<path d="M166.772 334.526C166.525 334.526 166.288 334.375 166.172 334.119L163.881 329.014C163.718 328.658 163.857 328.226 164.187 328.055C164.517 327.884 164.917 328.03 165.075 328.386L167.367 333.491C167.529 333.847 167.39 334.279 167.06 334.45C166.967 334.5 166.869 334.52 166.772 334.52V334.526Z" fill="black"/>
<path d="M170.319 333.465C170.072 333.465 169.835 333.314 169.719 333.058L167.427 327.954C167.265 327.597 167.404 327.165 167.734 326.994C168.064 326.823 168.464 326.969 168.622 327.326L170.913 332.43C171.076 332.787 170.937 333.219 170.607 333.39C170.514 333.44 170.416 333.46 170.319 333.46V333.465Z" fill="black"/>
<path d="M173.863 332.4C173.617 332.4 173.38 332.249 173.264 331.993L170.972 326.889C170.81 326.532 170.949 326.1 171.279 325.929C171.609 325.753 172.009 325.904 172.167 326.261L174.458 331.365C174.621 331.722 174.482 332.154 174.152 332.324C174.059 332.375 173.961 332.395 173.863 332.395V332.4Z" fill="black"/>
<path d="M170.429 327.095C168.5 327.095 167.473 323.393 167.473 320.715C167.473 317.248 169.067 316.018 170.429 316.018C171.791 316.018 173.385 317.248 173.385 320.715C173.385 323.388 172.358 327.095 170.429 327.095ZM170.429 317.459C169.443 317.459 168.802 318.741 168.802 320.72C168.802 323.352 169.815 325.658 170.429 325.658C171.042 325.658 172.056 323.347 172.056 320.72C172.056 318.741 171.419 317.459 170.429 317.459Z" fill="black"/>
<path d="M168.297 327.582C167.767 327.582 167.144 327.406 166.461 327.06C165.378 326.507 164.253 325.593 163.375 324.548C162.491 323.498 161.975 322.463 161.845 321.468C161.711 320.458 161.994 319.554 162.636 318.921C163.282 318.288 164.141 318.067 165.057 318.308C165.959 318.544 166.865 319.197 167.748 320.247C168.627 321.292 169.361 322.589 169.77 323.804C170.268 325.301 170.184 326.472 169.533 327.115C169.217 327.427 168.799 327.582 168.297 327.582ZM164.346 319.655C164.035 319.655 163.76 319.765 163.537 319.986C163.221 320.298 163.096 320.73 163.165 321.262C163.23 321.744 163.491 322.543 164.365 323.578C165.118 324.472 166.117 325.286 167.033 325.754C167.897 326.196 168.473 326.216 168.641 326.05C168.808 325.884 168.845 325.261 168.52 324.292C168.176 323.262 167.521 322.106 166.768 321.212C165.894 320.177 165.187 319.82 164.746 319.705C164.606 319.67 164.471 319.65 164.346 319.65V319.655Z" fill="black"/>
<path d="M216.065 320.675C215.233 322.327 211.087 329.627 202.409 329.421C194.949 329.245 187.851 321.961 184.909 318.509C183.947 317.379 182.599 316.746 181.167 316.746C180.507 316.746 179.861 316.887 179.261 317.153L179.141 314.073H214.201L216.065 320.68V320.675Z" fill="white"/>
<path d="M202.766 330.144C202.641 330.144 202.52 330.144 202.394 330.144C194.586 329.958 187.223 322.287 184.42 318.996C183.207 317.575 181.204 317.072 179.512 317.816C179.312 317.906 179.084 317.881 178.903 317.755C178.722 317.63 178.606 317.414 178.596 317.183L178.475 314.103C178.466 313.907 178.536 313.716 178.661 313.576C178.787 313.435 178.959 313.354 179.14 313.354H214.2C214.493 313.354 214.754 313.56 214.837 313.862L216.701 320.468C216.752 320.654 216.734 320.85 216.65 321.021C215.878 322.558 211.607 330.144 202.766 330.144ZM181.167 316.022C182.77 316.022 184.313 316.751 185.396 318.017C188.083 321.172 195.12 328.527 202.422 328.697C210.305 328.888 214.345 322.463 215.344 320.589L213.703 314.786H179.833L179.888 316.178C180.307 316.072 180.734 316.022 181.167 316.022Z" fill="black"/>
<path d="M258.585 117.434V163.241H180.274V133.887L169.718 153.59C164.276 163.759 150.861 164.251 144.786 154.52L115.396 107.411L141.505 88.2247L158.233 118.348L176.937 90.5709C179.033 87.4561 182.384 85.6123 185.949 85.6123H232.732C236.427 85.6123 239.886 87.5917 241.959 90.9025L258.585 117.434Z" fill="black"/>
<path d="M258.585 163.955H180.274C179.907 163.955 179.61 163.633 179.61 163.236V136.554L170.295 153.942C167.622 158.931 162.844 162.03 157.513 162.226C152.2 162.427 147.217 159.689 144.238 154.912L114.848 107.803C114.644 107.476 114.723 107.029 115.025 106.808L141.133 87.6217C141.286 87.5111 141.472 87.4709 141.649 87.5162C141.825 87.5564 141.983 87.6769 142.076 87.8477L158.289 117.042L176.402 90.1437C178.615 86.853 182.189 84.8887 185.949 84.8887H232.732C236.655 84.8887 240.309 86.9836 242.512 90.4953L259.138 117.026C259.212 117.147 259.254 117.288 259.254 117.428V163.236C259.254 163.633 258.957 163.955 258.589 163.955H258.585ZM180.939 162.518H257.915V117.654L241.401 91.3042C239.449 88.1894 236.204 86.3305 232.723 86.3305H185.94C182.598 86.3305 179.433 88.0738 177.467 90.9927L158.763 118.77C158.633 118.966 158.419 119.076 158.196 119.066C157.973 119.056 157.768 118.925 157.657 118.719L141.291 89.2494L116.317 107.607L145.339 154.123C148.063 158.489 152.595 160.985 157.466 160.805C162.337 160.624 166.702 157.795 169.142 153.234L179.698 133.53C179.847 133.249 180.153 133.113 180.446 133.193C180.739 133.279 180.939 133.56 180.939 133.887V162.523V162.518Z" fill="black"/>
<path d="M309.015 111.907H191.735C189.253 111.907 187.24 114.082 187.24 116.765V207.406C187.24 210.089 189.253 212.264 191.735 212.264H309.015C311.497 212.264 313.51 210.089 313.51 207.406V116.765C313.51 114.082 311.497 111.907 309.015 111.907Z" fill="#008BCE"/>
<path d="M309.016 212.977H191.736C188.891 212.977 186.576 210.476 186.576 207.401V116.76C186.576 113.685 188.891 111.184 191.736 111.184H309.016C311.86 111.184 314.175 113.685 314.175 116.76V207.401C314.175 210.476 311.86 212.977 309.016 212.977ZM191.736 112.625C189.625 112.625 187.906 114.484 187.906 116.765V207.406C187.906 209.687 189.625 211.546 191.736 211.546H309.016C311.126 211.546 312.846 209.687 312.846 207.406V116.765C312.846 114.484 311.126 112.625 309.016 112.625H191.736Z" fill="black"/>
<path d="M215.692 73.7559C215.79 77.4484 215.92 78.8601 216.036 81.9197C216.11 83.9543 217.64 85.572 219.522 85.6122C219.522 91.4249 214.651 96.1423 208.641 96.1423C202.631 96.1423 197.76 91.4249 197.76 85.6122L199.954 85.572C201.004 85.5519 201.948 84.7531 202.11 83.6278C202.11 83.6228 202.11 83.6127 202.11 83.6077C202.306 82.2462 202.208 81.8745 201.841 80.4125" fill="white"/>
<path d="M208.642 96.8606C202.274 96.8606 197.096 91.8166 197.096 85.6121C197.096 85.2203 197.389 84.8987 197.751 84.8937L199.945 84.8535C200.698 84.8384 201.349 84.2657 201.456 83.5172C201.632 82.2964 201.567 82.0452 201.209 80.6284L202.487 80.2265C202.864 81.7186 202.989 82.216 202.771 83.7181C202.553 85.1901 201.377 86.2652 199.964 86.2903L198.448 86.3155C198.825 91.3946 203.254 95.4187 208.637 95.4187C214.019 95.4187 218.486 91.3645 218.83 86.2552C216.92 85.8834 215.446 84.11 215.367 81.9447C215.321 80.7189 215.274 79.7593 215.223 78.8148C215.149 77.3629 215.079 75.9964 215.023 73.7759C215.014 73.379 215.302 73.0474 215.669 73.0373C216.032 73.0273 216.343 73.3388 216.353 73.7357C216.413 75.9361 216.478 77.2976 216.553 78.7395C216.599 79.694 216.65 80.6586 216.697 81.8894C216.757 83.5423 218.003 84.8585 219.532 84.8887C219.894 84.8937 220.187 85.2152 220.187 85.6071C220.187 91.8116 215.005 96.8556 208.642 96.8556V96.8606Z" fill="black"/>
<path d="M233.328 53.4138C232.947 54.5894 232.333 55.7248 231.38 56.4131C230.139 57.3124 228.48 57.3325 227.085 56.7547C226.676 56.5839 226.286 56.3679 225.914 56.1167C225.017 55.5239 224.241 54.7251 223.544 53.871L219.648 45.6369C219.723 45.1646 219.806 44.6874 219.89 44.2151C219.904 44.1498 219.909 44.0945 219.918 44.0292C220.081 43.0747 220.262 42.0749 220.843 41.3415C221.512 40.4874 222.586 40.1508 223.609 40.0453C226.718 39.7238 229.93 41.2108 231.854 43.8584C233.783 46.506 234.355 50.2337 233.328 53.4138Z" fill="black"/>
<path d="M227.95 51.0224C227.95 53.0269 227.164 54.8406 225.914 56.1116C225.017 55.5188 224.241 54.72 223.544 53.8659L219.648 45.6318C219.723 45.1595 219.806 44.6823 219.89 44.21C220.392 44.0694 220.922 43.999 221.457 43.999C225.045 43.999 227.95 47.144 227.95 51.0174V51.0224Z" fill="#008BCE"/>
<path d="M208.126 48.5811C208.526 47.6316 208.303 46.4811 207.754 45.622C207.206 44.7629 206.378 44.1651 205.528 43.6828C202.934 42.2158 199.838 41.6732 197.022 42.5373C194.205 43.4065 191.751 45.7777 190.947 48.8222C190.143 51.8667 191.188 55.4638 193.633 57.197C196.083 58.9303 199.769 58.3977 201.488 55.8356C201.842 58.242 202.66 60.6082 204.11 62.4721C205.56 64.336 207.675 65.6572 209.929 65.7627C212.179 65.8682 214.512 64.6374 215.586 62.4972C218.705 63.4065 220.876 67.1292 220.29 70.5656C222.214 68.3651 223.962 65.9486 225.17 63.2156C226.379 60.4826 227.02 57.408 226.69 54.4037C226.36 51.3995 225.031 48.5308 223.004 46.4409C220.978 44.351 218.268 43.0498 215.474 42.8337C213.002 42.6378 209.093 43.1955 207.187 44.9136" fill="black"/>
<path d="M202.353 67.5813C202.13 67.5813 201.907 67.4557 201.781 67.2347C201.274 66.3354 200.842 65.6069 200.219 65.1196C199.717 64.7227 198.918 64.4615 198.332 64.8232C198.016 65.0191 197.607 64.9036 197.426 64.5569C197.245 64.2103 197.352 63.7732 197.672 63.5773C198.644 62.9744 199.95 63.1251 201.005 63.9591C201.888 64.6574 202.46 65.6722 202.915 66.4911C203.106 66.8328 203.004 67.2749 202.692 67.4808C202.585 67.5512 202.464 67.5863 202.348 67.5863L202.353 67.5813Z" fill="black"/>
<path d="M192.052 63.9338C192.052 64.5718 191.573 65.0893 190.983 65.0893C190.393 65.0893 189.914 64.5718 189.914 63.9338C189.914 63.2958 190.393 62.7783 190.983 62.7783C191.573 62.7783 192.052 63.2958 192.052 63.9338Z" fill="black"/>
<path d="M199.415 68.053C199.415 68.691 198.937 69.2084 198.346 69.2084C197.756 69.2084 197.277 68.691 197.277 68.053C197.277 67.4149 197.756 66.8975 198.346 66.8975C198.937 66.8975 199.415 67.4149 199.415 68.053Z" fill="black"/>
<path d="M196.124 75.9861C195.603 75.9861 195.092 75.8354 194.636 75.539C194.32 75.333 194.218 74.8959 194.408 74.5543C194.599 74.2127 195.003 74.1022 195.319 74.3081C195.687 74.5443 196.1 74.6146 196.514 74.499C197.076 74.3433 197.592 73.8861 197.964 73.2029C198.15 72.8613 198.559 72.7507 198.875 72.9517C199.191 73.1526 199.294 73.5947 199.108 73.9364C198.55 74.9462 197.746 75.6445 196.839 75.8907C196.602 75.956 196.361 75.9861 196.124 75.9861Z" fill="black"/>
<path d="M191.903 71.7815C191.773 71.7815 191.643 71.7715 191.508 71.7514C190.718 71.6358 190.132 71.1435 189.983 70.4703C189.863 69.9428 190.039 69.4605 190.207 69.1038C190.597 68.2598 191.234 67.6619 191.852 67.0892C192.066 66.8882 192.28 66.6873 192.479 66.4813C193.07 65.8634 193.353 65.0997 193.325 64.2155C193.288 62.9998 192.689 61.9548 192.373 61.6684C191.787 61.1309 190.881 60.4979 189.895 60.528C189.505 60.5381 189.221 60.2266 189.207 59.8297C189.198 59.4328 189.486 59.1012 189.853 59.0862C190.974 59.046 192.14 59.5634 193.232 60.5682C193.888 61.1711 194.604 62.638 194.65 64.1653C194.687 65.4514 194.26 66.6069 193.404 67.5062C193.186 67.7323 192.954 67.9533 192.721 68.1744C192.182 68.6818 191.666 69.159 191.396 69.7468C191.266 70.0332 191.276 70.1186 191.28 70.1337C191.29 70.1789 191.443 70.2944 191.689 70.3296C192.396 70.4301 193.177 69.993 193.502 69.3047C193.669 68.9531 194.069 68.8124 194.399 68.9933C194.724 69.1741 194.855 69.6062 194.687 69.9629C194.157 71.0782 193.051 71.7865 191.908 71.7865L191.903 71.7815Z" fill="black"/>
<path d="M209.613 66.6106C210.352 63.5158 213.267 61.657 216.13 62.4508C218.993 63.2496 220.713 66.3996 219.978 69.4943C219.244 72.584 216.325 74.4478 213.462 73.654" fill="white"/>
<path d="M214.796 74.5538C214.298 74.5538 213.796 74.4885 213.294 74.3478C212.936 74.2473 212.723 73.8555 212.816 73.4737C212.909 73.0868 213.271 72.8557 213.624 72.9562C216.125 73.6545 218.686 72.0218 219.332 69.3139C219.644 68.0027 219.467 66.6412 218.83 65.4756C218.193 64.3101 217.176 63.4862 215.962 63.1446C213.462 62.4462 210.901 64.079 210.255 66.7869C210.162 67.1737 209.799 67.4048 209.446 67.3043C209.088 67.2039 208.874 66.812 208.967 66.4302C209.794 62.9587 213.081 60.8587 216.292 61.7529C217.85 62.185 219.156 63.2501 219.974 64.7422C220.792 66.2393 221.019 67.9876 220.62 69.6706C219.923 72.5995 217.473 74.5538 214.791 74.5538H214.796Z" fill="black"/>
<path d="M213.006 67.5507C213.262 66.4806 214.27 65.8376 215.26 66.1139C216.25 66.3902 216.845 67.4804 216.59 68.5505C216.334 69.6155 215.325 70.2636 214.335 69.9873" fill="white"/>
<path d="M214.8 70.7708C214.591 70.7708 214.377 70.7407 214.168 70.6854C213.81 70.5849 213.596 70.1931 213.689 69.8113C213.782 69.4244 214.144 69.1933 214.498 69.2938C214.804 69.3792 215.121 69.329 215.395 69.1581C215.669 68.9823 215.86 68.706 215.939 68.3744C216.018 68.0428 215.971 67.6962 215.813 67.4048C215.65 67.1084 215.395 66.9024 215.088 66.817C214.456 66.6412 213.81 67.0531 213.647 67.7364C213.554 68.1232 213.192 68.3543 212.838 68.2539C212.48 68.1534 212.267 67.7615 212.36 67.3797C212.704 65.9278 214.079 65.0536 215.423 65.4254C216.073 65.6063 216.622 66.0484 216.961 66.6764C217.301 67.2993 217.398 68.0328 217.231 68.7361C217.063 69.4395 216.654 70.0273 216.073 70.399C215.683 70.6502 215.241 70.7758 214.8 70.7758V70.7708Z" fill="black"/>
<path d="M313.948 285.427C313.822 285.427 313.696 285.386 313.58 285.306C313.274 285.09 313.19 284.643 313.39 284.311L334.236 250.063C334.441 249.732 334.85 249.641 335.157 249.857C335.463 250.074 335.547 250.521 335.347 250.852L314.501 285.1C314.37 285.311 314.161 285.422 313.943 285.422L313.948 285.427Z" fill="black"/>
<path d="M215.222 300.112H177.34C176.973 300.112 176.676 299.79 176.676 299.393C176.676 298.996 176.973 298.675 177.34 298.675H215.222C215.589 298.675 215.887 298.996 215.887 299.393C215.887 299.79 215.589 300.112 215.222 300.112Z" fill="black"/>
<path d="M256.39 108.893C256.39 108.893 255.349 119.478 259.258 118.383C262.191 117.559 262.995 110.35 262.995 110.35C263.535 100.658 247.429 101.291 243.817 101.523C241.122 101.698 238.351 102.206 235.985 103.864C233.62 105.522 231.723 108.551 231.732 111.811L236.288 111.907" fill="white"/>
<path d="M258.715 119.176C258.157 119.176 257.65 118.975 257.223 118.578C255.033 116.533 255.647 109.595 255.721 108.812C255.758 108.415 256.093 108.129 256.451 108.174C256.818 108.214 257.083 108.571 257.041 108.962C256.781 111.635 256.832 116.317 258.087 117.488C258.268 117.659 258.547 117.835 259.082 117.684C261.118 117.111 262.131 112.007 262.326 110.259C262.419 108.54 261.931 107.104 260.825 105.908C256.962 101.733 246.853 102.045 243.845 102.241C241.624 102.386 238.76 102.768 236.339 104.466C234.136 106.013 232.648 108.561 232.421 111.103L236.292 111.183C236.66 111.193 236.952 111.52 236.943 111.917C236.934 112.313 236.636 112.63 236.264 112.62L231.709 112.524C231.347 112.514 231.059 112.198 231.059 111.806C231.049 108.561 232.839 105.2 235.614 103.255C238.296 101.371 241.382 100.954 243.766 100.799C247.801 100.537 257.622 100.412 261.764 104.888C263.135 106.37 263.772 108.219 263.651 110.389C263.558 111.218 262.698 118.156 259.416 119.076C259.175 119.146 258.938 119.176 258.71 119.176H258.715Z" fill="black"/>
<path d="M242.299 109.4C242.299 109.4 242.457 116.66 238.962 117.644C235.466 118.624 236.4 109.169 236.4 109.169" fill="white"/>
<path d="M238.478 118.428C237.962 118.428 237.497 118.242 237.102 117.875C235.117 116.026 235.671 109.791 235.74 109.088C235.777 108.691 236.112 108.41 236.47 108.45C236.837 108.49 237.102 108.847 237.06 109.239C236.828 111.61 236.87 115.76 237.971 116.785C238.12 116.925 238.348 117.066 238.794 116.94C241.234 116.257 241.671 111.274 241.634 109.41C241.625 109.013 241.918 108.681 242.285 108.676C242.657 108.676 242.954 108.983 242.963 109.38C242.973 109.701 243.089 117.222 239.129 118.332C238.906 118.392 238.687 118.428 238.478 118.428Z" fill="black"/>
<path d="M248.936 109.299C248.936 109.299 249.112 117.317 245.25 118.402C241.392 119.483 242.419 109.043 242.419 109.043" fill="white"/>
<path d="M244.72 119.202C244.167 119.202 243.665 119.001 243.246 118.609C241.08 116.589 241.689 109.742 241.764 108.968C241.801 108.571 242.136 108.285 242.493 108.33C242.861 108.37 243.126 108.727 243.084 109.119C242.823 111.756 242.875 116.368 244.111 117.519C244.288 117.684 244.557 117.855 245.082 117.709C247.825 116.941 248.313 111.394 248.266 109.32C248.257 108.923 248.55 108.591 248.917 108.586C249.275 108.581 249.591 108.893 249.596 109.289C249.605 109.641 249.735 117.895 245.412 119.106C245.171 119.171 244.938 119.207 244.711 119.207L244.72 119.202Z" fill="black"/>
<path d="M256.256 109.123C256.256 109.123 256.447 117.925 252.212 119.111C247.978 120.296 249.107 108.837 249.107 108.837" fill="white"/>
<path d="M251.626 119.92C251.036 119.92 250.501 119.704 250.05 119.287C247.698 117.096 248.363 109.611 248.447 108.767C248.484 108.37 248.818 108.089 249.176 108.129C249.544 108.169 249.808 108.526 249.767 108.918C249.483 111.826 249.539 116.916 250.915 118.197C251.105 118.373 251.431 118.589 252.04 118.418C255.093 117.559 255.632 111.43 255.586 109.139C255.577 108.742 255.87 108.41 256.237 108.405C256.609 108.395 256.911 108.712 256.915 109.108C256.925 109.49 257.064 118.493 252.374 119.809C252.114 119.88 251.863 119.92 251.621 119.92H251.626Z" fill="black"/>
<path d="M313.51 125.667H187.426C187.059 125.667 186.762 125.346 186.762 124.949C186.762 124.552 187.059 124.23 187.426 124.23H313.51C313.877 124.23 314.174 124.552 314.174 124.949C314.174 125.346 313.877 125.667 313.51 125.667Z" fill="black"/>
<path d="M196.793 118.463C196.793 119.573 195.961 120.467 194.939 120.467C193.916 120.467 193.084 119.568 193.084 118.463C193.084 117.357 193.916 116.458 194.939 116.458C195.961 116.458 196.793 117.357 196.793 118.463Z" fill="black"/>
<path d="M203.473 118.463C203.473 119.573 202.641 120.467 201.618 120.467C200.596 120.467 199.764 119.568 199.764 118.463C199.764 117.357 200.596 116.458 201.618 116.458C202.641 116.458 203.473 117.357 203.473 118.463Z" fill="black"/>
<path d="M210.153 118.463C210.153 119.573 209.321 120.467 208.298 120.467C207.275 120.467 206.443 119.568 206.443 118.463C206.443 117.357 207.275 116.458 208.298 116.458C209.321 116.458 210.153 117.357 210.153 118.463Z" fill="black"/>
<path d="M278.548 189.023H216.185C214.288 189.023 213.089 186.818 214.014 185.029L230.64 152.826C231.547 151.068 233.857 150.977 234.884 152.655L250.59 178.378L262.967 158.629C264.004 156.971 266.291 157.081 267.193 158.825L280.714 185.029C281.639 186.818 280.44 189.023 278.543 189.023H278.548Z" fill="white"/>
<path d="M278.547 189.741H216.184C215.055 189.741 214.041 189.113 213.47 188.058C212.898 187.008 212.884 185.742 213.437 184.677L230.063 152.474C230.602 151.429 231.588 150.776 232.699 150.731C233.805 150.686 234.832 151.259 235.446 152.258L250.603 177.081L262.423 158.222C263.041 157.237 264.068 156.679 265.165 156.73C266.267 156.78 267.243 157.433 267.778 158.473L281.299 184.677C281.847 185.742 281.833 187.008 281.266 188.058C280.694 189.108 279.681 189.736 278.552 189.736L278.547 189.741ZM232.815 152.168C232.815 152.168 232.768 152.168 232.745 152.168C232.104 152.193 231.537 152.57 231.225 153.173L214.599 185.376C214.283 185.994 214.288 186.722 214.618 187.33C214.948 187.938 215.533 188.3 216.184 188.3H278.547C279.198 188.3 279.783 187.938 280.113 187.33C280.443 186.722 280.453 185.994 280.132 185.376L266.611 159.171C266.299 158.568 265.737 158.196 265.1 158.166C264.463 158.136 263.873 158.458 263.515 159.025L251.137 178.774C251.012 178.975 250.812 179.096 250.584 179.091C250.361 179.091 250.157 178.97 250.031 178.769L234.325 153.047C233.986 152.489 233.424 152.163 232.81 152.163L232.815 152.168Z" fill="black"/>
<path d="M258.328 146.18C258.328 150.26 255.261 153.575 251.486 153.575C247.712 153.575 244.645 150.26 244.645 146.18C244.645 142.101 247.703 138.785 251.486 138.785C255.27 138.785 258.328 142.091 258.328 146.18Z" fill="white"/>
<path d="M251.487 154.294C247.35 154.294 243.98 150.656 243.98 146.18C243.98 141.704 247.346 138.066 251.487 138.066C255.629 138.066 258.994 141.704 258.994 146.18C258.994 150.656 255.629 154.294 251.487 154.294ZM251.487 139.503C248.08 139.503 245.31 142.497 245.31 146.18C245.31 149.862 248.08 152.857 251.487 152.857C254.894 152.857 257.664 149.862 257.664 146.18C257.664 142.497 254.894 139.503 251.487 139.503Z" fill="black"/>
<path d="M121.131 41.5127H57.9177C56.1208 41.5127 54.6641 43.0872 54.6641 45.0294V135.685C54.6641 137.628 56.1208 139.202 57.9177 139.202H121.131C122.928 139.202 124.385 137.628 124.385 135.685V45.0294C124.385 43.0872 122.928 41.5127 121.131 41.5127Z" fill="#D2D2D2"/>
<path d="M121.132 139.92H57.9183C55.757 139.92 54 138.021 54 135.685V45.0241C54 42.693 55.757 40.7939 57.9183 40.7939H121.137C123.298 40.7939 125.055 42.693 125.055 45.0291V135.69C125.055 138.026 123.298 139.925 121.137 139.925L121.132 139.92ZM57.9183 42.2308C56.4914 42.2308 55.334 43.4867 55.334 45.0241V135.685C55.334 137.227 56.496 138.478 57.9183 138.478H121.137C122.564 138.478 123.721 137.222 123.721 135.685V45.0241C123.721 43.4817 122.559 42.2308 121.137 42.2308H57.9183Z" fill="black"/>
<path d="M140.365 89.0474L140.193 89.178L124.385 100.798V93.1669L124.845 91.5342C120.82 87.5151 124.897 82.4711 124.897 82.4711C124.897 82.4711 114.35 75.92 118.124 71.9059C121.392 68.4444 132.603 74.5886 135.657 78.3515C137.474 80.5721 140.37 89.0474 140.37 89.0474H140.365Z" fill="white"/>
<path d="M124.386 101.517C124.279 101.517 124.172 101.487 124.074 101.432C123.856 101.306 123.721 101.065 123.721 100.794V93.1623C123.721 93.092 123.73 93.0216 123.749 92.9513L124.088 91.7355C121.281 88.6006 122.531 84.7724 123.907 82.6624C122.02 81.4014 117.079 77.7942 116.67 74.3328C116.54 73.2325 116.879 72.2127 117.655 71.3838C118.482 70.5096 119.728 70.0976 121.364 70.163C126.403 70.3689 133.812 74.9758 136.154 77.8646C138.032 80.1605 140.868 88.4348 140.988 88.7815C141.095 89.0879 140.988 89.4346 140.742 89.6204L140.57 89.7511L124.757 101.376C124.646 101.457 124.516 101.502 124.381 101.502L124.386 101.517ZM125.05 93.2778V99.4421L139.561 88.7764C138.906 86.9126 136.619 80.6227 135.16 78.8342C132.952 76.1163 125.878 71.8058 121.318 71.6199C120.063 71.5696 119.147 71.8409 118.589 72.4287C118.101 72.9462 117.911 73.4988 117.99 74.167C118.324 76.9904 123.33 80.6779 125.227 81.8586C125.399 81.9641 125.52 82.1499 125.552 82.3609C125.585 82.5719 125.529 82.788 125.399 82.9538C125.25 83.1396 121.801 87.5255 125.297 91.0171C125.482 91.203 125.557 91.4893 125.482 91.7556L125.05 93.2879V93.2778Z" fill="black"/>
<path d="M311.68 164.788H283.369C280.942 164.788 278.967 162.653 278.967 160.031V133.922C278.967 131.299 280.942 129.164 283.369 129.164H311.68C312.047 129.164 312.345 129.486 312.345 129.882V164.07C312.345 164.467 312.047 164.788 311.68 164.788ZM283.369 130.601C281.677 130.601 280.296 132.088 280.296 133.922V160.031C280.296 161.859 281.672 163.352 283.369 163.352H311.015V130.601H283.369Z" fill="black"/>
<path d="M303.67 156.358C303.498 156.358 303.331 156.287 303.201 156.147L298.441 151.002C298.181 150.721 298.181 150.264 298.441 149.987C298.702 149.706 299.125 149.706 299.38 149.987L304.14 155.132C304.4 155.413 304.4 155.87 304.14 156.147C304.01 156.287 303.838 156.358 303.67 156.358Z" fill="black"/>
<path d="M197.071 178.353H151.836C150.093 178.353 148.68 179.88 148.68 181.764V230.651C148.68 232.535 150.093 234.062 151.836 234.062H197.071C198.814 234.062 200.227 232.535 200.227 230.651V181.764C200.227 179.88 198.814 178.353 197.071 178.353Z" fill="#A0D2F4"/>
<path d="M197.076 234.781H151.836C149.731 234.781 148.016 232.927 148.016 230.651V181.759C148.016 179.483 149.731 177.629 151.836 177.629H197.076C199.182 177.629 200.897 179.483 200.897 181.759V230.651C200.897 232.927 199.182 234.781 197.076 234.781ZM151.836 179.071C150.465 179.071 149.35 180.276 149.35 181.759V230.651C149.35 232.133 150.465 233.339 151.836 233.339H197.076C198.447 233.339 199.563 232.133 199.563 230.651V181.759C199.563 180.276 198.447 179.071 197.076 179.071H151.836Z" fill="black"/>
<path d="M375.785 351.973V379.232C375.785 382.021 373.694 384.286 371.109 384.286H110.223C109.042 384.286 107.871 384.015 106.793 383.498L73.8192 367.592C72.2295 366.823 72.2295 364.387 73.8192 363.623L106.793 347.717C107.871 347.195 109.042 346.929 110.223 346.929H371.109C373.689 346.929 375.785 349.189 375.785 351.983V351.973Z" fill="#008BCE"/>
<path d="M371.11 385H110.223C108.94 385 107.695 384.713 106.523 384.146L73.5498 368.24C72.5737 367.768 71.9648 366.758 71.9648 365.598C71.9648 364.437 72.5737 363.427 73.5498 362.955L106.523 347.049C107.695 346.482 108.94 346.195 110.223 346.195H371.11C374.052 346.195 376.45 348.783 376.45 351.968V379.227C376.45 382.407 374.057 385 371.11 385ZM110.223 347.642C109.126 347.642 108.066 347.888 107.067 348.371L74.0937 364.276C73.5963 364.517 73.2988 365.015 73.2988 365.603C73.2988 366.19 73.5963 366.688 74.0937 366.929L107.067 382.834C108.066 383.317 109.131 383.563 110.223 383.563H371.11C373.322 383.563 375.116 381.619 375.116 379.232V351.973C375.116 349.581 373.318 347.642 371.11 347.642H110.223Z" fill="black"/>
<path d="M109.288 346.979V384.222C108.433 384.116 107.592 383.875 106.797 383.493L81.9204 371.491L73.8235 367.587C72.2385 366.819 72.2385 364.382 73.8235 363.614L82.2597 359.544L106.797 347.708C107.592 347.326 108.433 347.085 109.288 346.979Z" fill="white"/>
<path d="M109.288 384.94C109.265 384.94 109.237 384.94 109.214 384.94C108.27 384.824 107.368 384.558 106.527 384.151L73.5537 368.246C72.5776 367.773 71.9688 366.758 71.9688 365.603C71.9688 364.447 72.5776 363.433 73.5537 362.96L106.527 347.055C107.368 346.648 108.275 346.382 109.214 346.266C109.404 346.241 109.59 346.306 109.734 346.442C109.874 346.577 109.957 346.773 109.957 346.979V384.221C109.957 384.427 109.878 384.623 109.734 384.759C109.613 384.88 109.455 384.94 109.293 384.94H109.288ZM108.623 347.823C108.084 347.944 107.564 348.125 107.066 348.366L74.0929 364.272C73.5956 364.513 73.2981 365.01 73.2981 365.603C73.2981 366.196 73.5956 366.693 74.0929 366.934L107.066 382.84C107.559 383.081 108.08 383.262 108.623 383.382V347.828V347.823Z" fill="black"/>
<path d="M371.109 346.919H342.072V384.282H371.109C373.688 384.282 375.785 382.021 375.785 379.228V351.968C375.785 349.18 373.693 346.914 371.109 346.914V346.919Z" fill="white"/>
<path d="M371.109 385H342.073C341.706 385 341.408 384.678 341.408 384.281V346.919C341.408 346.522 341.706 346.2 342.073 346.2H371.109C374.052 346.2 376.45 348.787 376.45 351.973V379.232C376.45 382.412 374.056 385.005 371.109 385.005V385ZM342.738 383.563H371.109C373.322 383.563 375.116 381.619 375.116 379.232V351.973C375.116 349.581 373.317 347.642 371.109 347.642H342.738V383.568V383.563Z" fill="black"/>
<path d="M349.174 346.919H342.072V384.282H349.174V346.919Z" fill="white"/>
<path d="M349.175 385H342.073C341.706 385 341.408 384.678 341.408 384.281V346.919C341.408 346.522 341.706 346.2 342.073 346.2H349.175C349.542 346.2 349.84 346.522 349.84 346.919V384.281C349.84 384.678 349.542 385 349.175 385ZM342.738 383.563H348.51V347.637H342.738V383.563Z" fill="black"/>
<path d="M83.469 365.166C83.469 367.467 82.9066 369.627 81.9165 371.491L73.8196 367.587C72.2346 366.819 72.2346 364.382 73.8196 363.613L82.2558 359.544C83.0367 361.237 83.469 363.146 83.469 365.166Z" fill="black"/>
<path d="M342.073 366.322H171.573C171.206 366.322 170.908 366 170.908 365.603C170.908 365.206 171.206 364.885 171.573 364.885H342.073C342.44 364.885 342.738 365.206 342.738 365.603C342.738 366 342.44 366.322 342.073 366.322Z" fill="black"/>
<path d="M70.6215 364.905C70.5099 364.905 70.3937 364.874 70.2914 364.809C62.8034 360.172 57.3791 351.988 55.7848 342.92C54.1859 333.842 56.4913 324.276 61.9528 317.328C66.7822 311.179 73.5962 307.461 80.1872 303.864C82.9156 302.372 85.7416 300.835 88.3724 299.147C106.904 287.255 119.022 265.346 120.003 241.965C120.602 227.657 116.07 215.977 107.88 210.712C107.23 210.29 106.565 209.918 105.891 209.586C104.204 218.624 101.345 227.265 97.3664 235.258C94.9773 240.061 91.5331 246.04 86.0949 249.707C81.4422 252.837 74.2748 254.254 68.7436 250.35C62.571 245.994 61.2091 237.122 63.0591 230.611C64.7324 224.713 68.8552 219.217 75.316 214.273C83.2874 208.175 94.7775 203.653 104.817 207.567C109.326 180.558 103.39 150.958 87.8054 128.797C87.5823 128.481 87.638 128.029 87.9309 127.787C88.2237 127.546 88.642 127.607 88.8651 127.923C99.4116 142.919 105.803 161.151 107.35 180.649C108.094 190.028 107.68 199.267 106.151 208.139C106.965 208.526 107.773 208.968 108.559 209.476C117.181 215.017 121.955 227.185 121.332 242.03C120.333 265.889 107.959 288.25 89.051 300.383C86.3784 302.096 83.5384 303.648 80.7868 305.151C74.3167 308.682 67.6235 312.335 62.9661 318.263C57.7649 324.884 55.571 334.003 57.0909 342.659C58.6155 351.32 63.7981 359.137 70.9515 363.568C71.2722 363.764 71.3791 364.206 71.1978 364.548C71.077 364.779 70.8492 364.91 70.6215 364.91V364.905ZM96.7854 207.531C89.3532 207.531 81.7908 211.068 76.0829 215.439C69.8685 220.192 65.913 225.437 64.328 231.023C62.6686 236.876 63.905 245.211 69.4687 249.139C74.5072 252.696 81.0935 251.37 85.3884 248.481C90.5663 244.995 93.8804 239.217 96.1951 234.575C100.165 226.602 102.944 217.951 104.571 208.993C102.052 207.979 99.4302 207.531 96.7901 207.531H96.7854Z" fill="black"/>
<path d="M96.8 75.7352C96.8 83.3765 91.0736 89.571 84.0039 89.571C76.9342 89.571 71.2031 83.3765 71.2031 75.7352C71.2031 68.0939 76.9342 61.8994 84.0039 61.8994C91.0736 61.8994 96.8 68.0939 96.8 75.7352Z" fill="white"/>
<path d="M84.0033 90.2942C76.5757 90.2942 70.5332 83.7632 70.5332 75.735C70.5332 67.7068 76.5757 61.1758 84.0033 61.1758C91.4309 61.1758 97.4641 67.7068 97.4641 75.735C97.4641 83.7632 91.4263 90.2942 84.0033 90.2942ZM84.0033 62.6176C77.3101 62.6176 71.8672 68.5006 71.8672 75.735C71.8672 82.9694 77.3101 88.8523 84.0033 88.8523C90.6965 88.8523 96.1347 82.9694 96.1347 75.735C96.1347 68.5006 90.6919 62.6176 84.0033 62.6176Z" fill="black"/>
<path d="M110.898 74.3281H90.0234V96.8904H110.898V74.3281Z" fill="#008BCE"/>
<path d="M110.902 97.6085H90.028C89.6608 97.6085 89.3633 97.2869 89.3633 96.89V74.3278C89.3633 73.9309 89.6608 73.6094 90.028 73.6094H110.902C111.27 73.6094 111.567 73.9309 111.567 74.3278V96.89C111.567 97.2869 111.27 97.6085 110.902 97.6085ZM90.6926 96.1716H110.238V75.0462H90.6926V96.1716Z" fill="black"/>
<path d="M93.4804 107.204H67.6836L80.582 86.5908L93.4804 107.204Z" fill="#008BCE"/>
<path d="M93.4802 107.923H67.6834C67.4371 107.923 67.2093 107.777 67.0978 107.541C66.9816 107.305 66.9955 107.023 67.1349 106.802L80.0333 86.1893C80.2797 85.7924 80.8886 85.7924 81.1349 86.1893L94.0333 106.802C94.1727 107.023 94.1867 107.31 94.0705 107.541C93.9543 107.777 93.7312 107.923 93.4848 107.923H93.4802ZM68.9384 106.486H92.2299L80.5865 87.8773L68.943 106.486H68.9384Z" fill="black"/>
<path d="M247.494 184.04C247.364 184.04 247.234 184 247.122 183.914C246.82 183.693 246.737 183.246 246.946 182.915L262.419 158.217C262.624 157.891 263.037 157.8 263.344 158.026C263.646 158.247 263.73 158.695 263.521 159.026L248.047 183.724C247.917 183.93 247.708 184.04 247.494 184.04Z" fill="black"/>
</g>
</g>
<defs>
<clipPath id="clip0_2329_12262">
<rect width="427" height="425" fill="white"/>
</clipPath>
<clipPath id="clip1_2329_12262">
<rect width="342" height="345" fill="white" transform="translate(54 40)"/>
</clipPath>
</defs>
</svg>
