<svg width="427" height="425" viewBox="0 0 427 425" fill="none" xmlns="http://www.w3.org/2000/svg">
<g clip-path="url(#clip0_2447_9647)">
<path d="M400.041 382.57C388.531 392.16 338.441 398.94 278.761 401.49C187.021 405.42 72.6009 399.37 40.7909 378.2C25.7309 368.19 15.5509 337.25 9.1009 297.66C-6.9291 199.16 0.220901 47.1301 13.1609 30.6501C31.3109 7.56009 323.301 -15.3099 399.911 13.9301C432.741 26.4601 429.231 358.23 400.031 382.57H400.041Z" fill="white"/>
<path d="M373.314 247.44L375.204 241.883L377.358 247.44C377.358 247.44 381.657 248.14 381.712 248.531C381.757 248.913 377.595 250.095 377.595 250.095C377.595 250.095 375.85 255.488 375.204 254.27C374.568 253.051 373.95 250.35 373.95 250.35C373.95 250.35 368.533 249.268 368.533 248.731C368.533 248.158 373.314 247.449 373.314 247.449V247.44Z" fill="white"/>
<path d="M304.094 233.142L305.566 228.822L307.238 233.142C307.238 233.142 310.574 233.688 310.619 233.988C310.656 234.279 307.429 235.198 307.429 235.198C307.429 235.198 306.075 239.381 305.575 238.435C305.075 237.49 304.594 235.389 304.594 235.389C304.594 235.389 300.395 234.543 300.395 234.134C300.395 233.688 304.103 233.142 304.103 233.142H304.094Z" fill="white"/>
<g clip-path="url(#clip1_2447_9647)">
<path d="M256.113 62.5437V193.539C256.113 197.879 252.628 201.387 248.276 201.387H131.125C126.79 201.387 123.287 197.879 123.287 193.539V62.5437C123.287 58.2206 126.791 54.6777 131.125 54.6777H248.276C252.628 54.6777 256.113 58.2215 256.113 62.5437Z" fill="white"/>
<path d="M200.414 167.905H176.804C175.912 167.905 175.189 168.629 175.189 169.522V190.085C175.189 190.978 175.912 191.701 176.804 191.701H200.414C201.305 191.701 202.028 190.978 202.028 190.085V169.522C202.028 168.629 201.305 167.905 200.414 167.905Z" fill="white"/>
<path d="M195.222 179.814C195.222 183.467 192.257 186.415 188.609 186.415C184.96 186.415 181.996 183.466 181.996 179.814C181.996 176.162 184.961 173.191 188.609 173.191C192.256 173.191 195.222 176.14 195.222 179.814Z" fill="#008BCE"/>
<path d="M237.234 167.905H213.624C212.732 167.905 212.01 168.629 212.01 169.522V190.085C212.01 190.978 212.732 191.701 213.624 191.701H237.234C238.126 191.701 238.848 190.978 238.848 190.085V169.522C238.848 168.629 238.126 167.905 237.234 167.905Z" fill="white"/>
<path d="M232.042 179.814C232.042 183.467 229.077 186.415 225.429 186.415C221.781 186.415 218.816 183.466 218.816 179.814C218.816 176.162 221.782 173.191 225.429 173.191C229.076 173.191 232.042 176.14 232.042 179.814Z" fill="#050505"/>
<path d="M256.113 80.5726V62.5447C256.113 58.2215 252.627 54.6787 248.275 54.6787H131.123C126.789 54.6787 123.285 58.2224 123.285 62.5447V80.5726H256.112H256.113Z" fill="#008BCE"/>
<path d="M140.871 67.6298C140.871 70.1228 138.848 72.1483 136.35 72.1483C133.852 72.1483 131.838 70.1228 131.838 67.6298C131.838 65.1369 133.861 63.1025 136.35 63.1025C138.84 63.1025 140.871 65.128 140.871 67.6298Z" fill="white"/>
<path d="M152.74 67.6298C152.74 70.1228 150.718 72.1483 148.219 72.1483C145.721 72.1483 143.707 70.1228 143.707 67.6298C143.707 65.1369 145.73 63.1025 148.219 63.1025C150.709 63.1025 152.74 65.128 152.74 67.6298Z" fill="white"/>
<path d="M164.609 67.6298C164.609 70.1228 162.587 72.1483 160.088 72.1483C157.59 72.1483 155.576 70.1228 155.576 67.6298C155.576 65.1369 157.599 63.1025 160.088 63.1025C162.578 63.1025 164.609 65.128 164.609 67.6298Z" fill="white"/>
<path d="M163.592 167.905H139.981C139.09 167.905 138.367 168.629 138.367 169.522V190.085C138.367 190.978 139.09 191.701 139.981 191.701H163.592C164.483 191.701 165.206 190.978 165.206 190.085V169.522C165.206 168.629 164.483 167.905 163.592 167.905Z" fill="white"/>
<path d="M158.4 179.814C158.4 183.467 155.435 186.415 151.786 186.415C148.138 186.415 145.174 183.466 145.174 179.814C145.174 176.162 148.139 173.191 151.786 173.191C155.434 173.191 158.4 176.14 158.4 179.814Z" fill="#DEDEFC"/>
<g opacity="0.05">
<path d="M110.596 328.315C110.596 350.6 92.5522 368.669 70.2983 368.669C48.0444 368.669 30 350.601 30 328.315C30 306.03 48.0435 287.962 70.2974 287.962C92.5513 287.962 110.595 306.03 110.595 328.315H110.596Z" fill="black"/>
</g>
<path d="M386.202 285.147H289.764V385.115H386.202V285.147Z" fill="white"/>
<path d="M386.202 285.147H363.33V385.115H386.202V285.147Z" fill="#DEDEFC"/>
<path d="M236.161 352.585C236.161 352.585 211.639 343.978 213.662 356.533C215.725 369.34 231.72 358.564 231.897 358.55C232.073 358.537 236.161 352.585 236.161 352.585Z" fill="white"/>
<path d="M236.125 352.553C236.125 352.553 236.448 369.67 232.45 373.185C225.917 378.929 194.088 375.328 190.019 374.699C189.701 374.649 189.487 374.371 189.509 374.043C189.903 368.022 194.608 362.943 200.571 362.1L211.349 360.458L212.204 358.288C213.5 354.995 217.255 353.52 220.503 354.918C226.001 357.283 232.078 356.559 236.126 352.553H236.125Z" fill="white"/>
<path d="M354.322 230.861L350.778 260.885L303.877 262.946L257.643 288.175C259.291 312.772 247.183 334.935 240.983 344.538C239.019 347.589 235.352 349.08 231.813 348.249L221.567 345.819C219.005 345.209 217.476 342.603 218.189 340.074L242.343 254.382C244.055 248.311 249.223 243.875 255.466 243.103L354.323 230.861H354.322Z" fill="#050505"/>
<path d="M285.125 236.261V237.389H297.505V241.005H310.539L315.426 237.752L319.097 235.319C318.947 234.964 318.769 234.581 318.578 234.212C316.762 230.563 314.428 227.638 312.982 227.063L312 227.173L299.753 227.691C299.083 227.719 298.419 227.84 297.781 228.051L288.119 232.403C286.379 233.361 285.126 234.442 285.126 236.261H285.125Z" fill="white"/>
<path d="M379.144 266.26C376.736 259.669 370.086 251.592 360.794 244.761C348.302 235.573 335.097 231.627 328.673 234.641L316.009 204.085C312.239 208.764 308.299 212.621 305.145 213.265C296.436 215.032 284.421 181.674 284.141 181.072C284.428 181.373 284.77 181.585 285.18 181.696C288.375 182.552 292.282 179.825 296.332 172.062C299.171 166.622 300.362 161.573 299.725 158.737L304.583 170.191C304.583 170.191 325.295 149.623 333.872 145.294C343.326 140.523 370.278 140.101 375.49 145.042C382.253 151.451 365.433 171.65 365.433 171.65L379.143 266.258L379.144 266.26Z" fill="#008BCE"/>
<path d="M375.976 145.481C384.996 159.868 383.382 213.94 375.879 225.845C369.345 236.197 313.178 245.797 313.178 245.797C313.219 245.784 313.26 245.755 313.302 245.735C316.162 244.077 315.655 236.698 312.166 229.244C309.005 222.482 306.492 220.763 303.543 221.222L354.488 204.601L359.961 169.816" fill="#008BCE"/>
<path d="M358.985 125.973V141.088L347.982 156.653L346.312 141.895L346.545 129.053L358.985 125.973Z" fill="#FFE6DE"/>
<path d="M337.77 118.93C337.77 128.217 343.29 135.743 350.099 135.743C355.397 135.743 359.914 131.185 361.659 124.791C362.012 124.853 362.379 124.881 362.76 124.881C365.724 124.881 368.128 123.001 368.128 120.678C368.128 118.951 366.805 117.466 364.907 116.821C351.532 115.663 345.222 109.892 342.396 105.807C339.578 108.886 337.77 113.623 337.77 118.93Z" fill="#FFE6DE"/>
<path d="M343.756 119.088C343.491 120.215 343.173 121.33 342.805 122.427C342.61 123.007 342.425 123.721 342.837 124.174C343.143 124.51 343.656 124.544 344.108 124.496C344.56 124.449 345.026 124.344 345.458 124.486" fill="white"/>
<path d="M350.144 127.82C349.109 128.924 347.607 129.573 346.096 129.567L350.144 127.82Z" fill="white"/>
<path d="M351.911 115.492C351.911 115.492 350.086 113.629 348.121 115.089L351.911 115.492Z" fill="white"/>
<path d="M341.053 114.769C341.053 114.769 339.513 113.199 337.857 114.43L341.053 114.769Z" fill="white"/>
<path d="M305.598 345.135C305.598 345.135 280.331 352.4 289.336 361.576C298.522 370.937 305.426 352.671 305.565 352.557C305.702 352.443 305.598 345.136 305.598 345.136V345.135Z" fill="white"/>
<path d="M305.552 345.129C305.552 345.129 315.819 359.065 314.573 364.31C312.537 372.879 284.167 388.556 280.441 390.42C280.149 390.566 279.811 390.462 279.636 390.178C276.443 384.979 277.358 378.031 281.787 373.84L289.721 366.17L289.159 363.88C288.306 360.402 290.542 356.985 294.039 356.236C299.959 354.966 304.55 350.807 305.551 345.13L305.552 345.129Z" fill="white"/>
<path d="M277.739 280.958C290.742 303.33 298.928 318.442 301.964 332.772C303.113 338.161 300.622 343.661 295.807 346.35L290.448 349.341C288.223 350.589 285.429 349.826 284.134 347.633C272.147 327.308 240.088 288.777 244.621 269.149C250.494 243.718 353.529 239.938 353.529 239.938C360.52 243.903 366.628 248.881 371.939 254.777C371.939 254.777 364.411 277.139 358.071 280.958C340.862 291.325 277.738 280.958 277.738 280.958H277.739Z" fill="#050505"/>
<path d="M283.77 240.957C283.77 242.798 285.26 244.291 287.098 244.291H320.8C322.638 244.291 324.129 242.798 324.129 240.957C324.129 239.117 322.638 237.624 320.8 237.624H287.098C285.26 237.624 283.77 239.117 283.77 240.957Z" fill="white"/>
<path d="M215.505 200.492L231.002 237.624H289.481L273.656 199.095C272.773 196.981 270.699 195.614 268.412 195.638L218.355 196.159C216.139 196.182 214.652 198.445 215.506 200.492H215.505Z" fill="white"/>
<path d="M284.818 172.052C285.44 172.128 286.198 171.688 287.017 170.868C286.198 171.688 285.44 172.113 284.818 172.052Z" fill="white"/>
<path d="M299.782 162.104C299.434 164.867 298.266 168.374 296.34 172.064C295.37 173.916 294.309 175.632 293.202 177.18C289.472 173.628 285.121 169.3 284.939 169.239C284.863 169.194 284.787 169.163 284.711 169.133C284.635 169.103 284.544 169.072 284.483 169.027C275.644 165.307 271.929 163.516 267.866 160.616C255.615 151.703 259.602 145.509 262.393 149.441C262.423 149.501 262.498 149.578 262.529 149.653C262.499 149.577 262.468 149.531 262.453 149.456L262.393 149.441C260.3 145.615 261.983 142.76 263.605 144.248C261.058 139.785 263.711 137.31 265.576 140.301C266.561 141.758 268.623 143.717 270.989 145.57C265.622 139.633 268.881 135.548 271.08 139.102C273.93 143.428 283.497 149.548 283.497 149.548C280.768 138.13 287.349 134 288.183 139.603C289.259 146.83 292.549 152.751 295.445 156.79C297.295 159.387 298.963 161.208 299.782 162.104Z" fill="#FFE6DE"/>
<path d="M263.592 144.247C263.592 144.247 265.9 147.131 268.692 149.05L263.592 144.247Z" fill="#FFE6DE"/>
<path d="M262.402 149.415C262.402 149.415 264.336 152.018 267.129 153.937L262.402 149.415Z" fill="#FFE6DE"/>
<path d="M283.5 149.545C283.5 149.545 282.748 153.659 285.902 155.281L283.5 149.545Z" fill="white"/>
<g opacity="0.05">
<path d="M396.154 11H372.029C371.01 11 370.184 11.8273 370.184 12.8479V45.9556C370.184 46.9761 371.01 47.8034 372.029 47.8034H396.154C397.173 47.8034 397.999 46.9761 397.999 45.9556V12.8479C397.999 11.8273 397.173 11 396.154 11Z" fill="black"/>
</g>
<path d="M245.92 18.8731V45.9875C245.92 47.2141 246.913 48.2083 248.138 48.2083H301.395L316.035 59.9794C316.606 60.4929 317.515 60.0846 317.515 59.314V48.2083H329.02C330.245 48.2083 331.238 47.2141 331.238 45.9875V18.8731C331.238 17.6465 330.245 16.6523 329.02 16.6523H248.138C246.913 16.6523 245.92 17.6465 245.92 18.8731Z" fill="#DEDEFC"/>
<path d="M173.789 216.967H117.269C115.483 216.967 114.035 218.416 114.035 220.205V247.873C114.035 249.661 115.483 251.111 117.269 251.111H173.789C175.575 251.111 177.022 249.661 177.022 247.873V220.205C177.022 218.416 175.575 216.967 173.789 216.967Z" fill="#050505"/>
<path d="M134.742 243.291C132.272 243.291 129.952 242.329 128.209 240.582C126.462 238.835 125.502 236.512 125.502 234.04C125.502 231.568 126.462 229.245 128.209 227.498C129.952 225.75 132.272 224.788 134.742 224.788C137.211 224.788 139.529 225.75 141.275 227.498C141.477 227.7 141.477 228.029 141.275 228.232C141.073 228.434 140.745 228.434 140.543 228.232C138.994 226.681 136.934 225.826 134.742 225.826C132.55 225.826 130.49 226.68 128.94 228.232C127.392 229.783 126.537 231.846 126.537 234.041C126.537 236.235 127.391 238.298 128.94 239.849C130.49 241.4 132.55 242.255 134.742 242.255C136.934 242.255 138.994 241.401 140.543 239.849C140.745 239.647 141.073 239.647 141.275 239.849C141.477 240.052 141.477 240.38 141.275 240.584C139.53 242.331 137.21 243.293 134.742 243.293V243.291Z" fill="white"/>
<path d="M149.711 242.531C149.425 242.531 149.193 242.298 149.193 242.012V235.31C149.193 235.023 149.425 234.791 149.711 234.791C149.996 234.791 150.228 235.023 150.228 235.31V242.012C150.228 242.298 149.996 242.531 149.711 242.531Z" fill="white"/>
<path d="M153.058 239.179H146.365C146.079 239.179 145.848 238.947 145.848 238.66C145.848 238.374 146.079 238.142 146.365 238.142H153.058C153.344 238.142 153.575 238.374 153.575 238.66C153.575 238.947 153.344 239.179 153.058 239.179Z" fill="white"/>
<path d="M160.406 242.531C160.12 242.531 159.889 242.298 159.889 242.012V235.31C159.889 235.023 160.12 234.791 160.406 234.791C160.692 234.791 160.923 235.023 160.923 235.31V242.012C160.923 242.298 160.692 242.531 160.406 242.531Z" fill="white"/>
<path d="M163.753 239.179H157.06C156.774 239.179 156.543 238.947 156.543 238.66C156.543 238.374 156.774 238.142 157.06 238.142H163.753C164.039 238.142 164.27 238.374 164.27 238.66C164.27 238.947 164.039 239.179 163.753 239.179Z" fill="white"/>
<path d="M104.667 132.225H39.4126C37.351 132.225 35.6797 133.898 35.6797 135.963V167.907C35.6797 169.971 37.351 171.645 39.4126 171.645H104.667C106.729 171.645 108.4 169.971 108.4 167.907V135.963C108.4 133.898 106.729 132.225 104.667 132.225Z" fill="#DEDEFC"/>
<path d="M105.445 46.3896H70.4213C69.3861 46.3896 68.5469 47.23 68.5469 48.2667V81.8896C68.5469 82.9263 69.3861 83.7666 70.4213 83.7666H105.445C106.48 83.7666 107.319 82.9263 107.319 81.8896V48.2667C107.319 47.23 106.48 46.3896 105.445 46.3896Z" fill="white"/>
<path d="M200.412 167.385H176.801C175.632 167.385 174.67 168.348 174.67 169.519V190.08C174.67 191.266 175.632 192.215 176.801 192.215H200.412C201.597 192.215 202.544 191.266 202.544 190.08V169.519C202.544 168.348 201.596 167.385 200.412 167.385ZM201.508 190.08C201.508 190.688 201.019 191.176 200.412 191.176H176.801C176.194 191.176 175.706 190.688 175.706 190.08V169.519C175.706 168.911 176.195 168.422 176.801 168.422H200.412C201.019 168.422 201.508 168.911 201.508 169.519V190.08Z" fill="black"/>
<path d="M188.613 172.677C184.676 172.677 181.479 175.878 181.479 179.822C181.479 183.765 184.676 186.936 188.613 186.936C192.551 186.936 195.733 183.735 195.733 179.822C195.733 175.909 192.536 172.677 188.613 172.677ZM188.613 185.9C185.253 185.9 182.515 183.173 182.515 179.823C182.515 176.472 185.253 173.715 188.613 173.715C191.974 173.715 194.697 176.443 194.697 179.823C194.697 183.202 191.974 185.9 188.613 185.9Z" fill="black"/>
<path d="M237.242 167.385H213.631C212.447 167.385 211.5 168.348 211.5 169.519V190.08C211.5 191.266 212.448 192.215 213.631 192.215H237.242C238.412 192.215 239.374 191.266 239.374 190.08V169.519C239.374 168.348 238.412 167.385 237.242 167.385ZM238.338 190.08C238.338 190.688 237.835 191.176 237.243 191.176H213.632C213.025 191.176 212.537 190.688 212.537 190.08V169.519C212.537 168.911 213.025 168.422 213.632 168.422H237.243C237.835 168.422 238.338 168.911 238.338 169.519V190.08Z" fill="black"/>
<path d="M225.428 172.677C221.49 172.677 218.293 175.878 218.293 179.822C218.293 183.765 221.49 186.936 225.428 186.936C229.366 186.936 232.563 183.735 232.563 179.822C232.563 175.909 229.366 172.677 225.428 172.677ZM225.428 185.9C222.067 185.9 219.329 183.173 219.329 179.823C219.329 176.472 222.067 173.715 225.428 173.715C228.789 173.715 231.527 176.443 231.527 179.823C231.527 183.202 228.789 185.9 225.428 185.9Z" fill="black"/>
<path d="M136.344 62.5811C133.576 62.5811 131.326 64.8487 131.326 67.6359C131.326 70.4232 133.577 72.6608 136.344 72.6608C139.112 72.6608 141.392 70.4073 141.392 67.6359C141.392 64.8646 139.127 62.5811 136.344 62.5811ZM136.344 71.6242C134.153 71.6242 132.362 69.8302 132.362 67.6368C132.362 65.4434 134.154 63.6194 136.344 63.6194C138.534 63.6194 140.356 65.4134 140.356 67.6368C140.356 69.8603 138.564 71.6242 136.344 71.6242Z" fill="black"/>
<path d="M148.215 62.5811C145.446 62.5811 143.182 64.8487 143.182 67.6359C143.182 70.4232 145.446 72.6608 148.215 72.6608C150.983 72.6608 153.262 70.4073 153.262 67.6359C153.262 64.8646 150.998 62.5811 148.215 62.5811ZM148.215 71.6242C146.009 71.6242 144.218 69.8302 144.218 67.6368C144.218 65.4434 146.009 63.6194 148.215 63.6194C150.42 63.6194 152.226 65.4134 152.226 67.6368C152.226 69.8603 150.42 71.6242 148.215 71.6242Z" fill="black"/>
<path d="M160.088 62.5811C157.319 62.5811 155.055 64.8487 155.055 67.6359C155.055 70.4232 157.319 72.6608 160.088 72.6608C162.856 72.6608 165.12 70.4073 165.12 67.6359C165.12 64.8646 162.87 62.5811 160.088 62.5811ZM160.088 71.6242C157.882 71.6242 156.091 69.8302 156.091 67.6368C156.091 65.4434 157.882 63.6194 160.088 63.6194C162.293 63.6194 164.099 65.4134 164.099 67.6368C164.099 69.8603 162.294 71.6242 160.088 71.6242Z" fill="black"/>
<path d="M138.367 95.4818H145.8C146.086 95.4818 146.317 95.2494 146.317 94.9631C146.317 94.6768 146.086 94.4443 145.8 94.4443H138.367C138.081 94.4443 137.85 94.6768 137.85 94.9631C137.85 95.2494 138.081 95.4818 138.367 95.4818Z" fill="black"/>
<path d="M138.367 102.669H145.8C146.086 102.669 146.317 102.437 146.317 102.151C146.317 101.864 146.086 101.632 145.8 101.632H138.367C138.081 101.632 137.85 101.864 137.85 102.151C137.85 102.437 138.081 102.669 138.367 102.669Z" fill="black"/>
<path d="M154.244 95.4818H199.246C199.532 95.4818 199.763 95.2494 199.763 94.9631C199.763 94.6768 199.532 94.4443 199.246 94.4443H154.244C153.958 94.4443 153.727 94.6768 153.727 94.9631C153.727 95.2494 153.958 95.4818 154.244 95.4818Z" fill="black"/>
<path d="M222 95.4818H241.458C241.744 95.4818 241.975 95.2494 241.975 94.9631C241.975 94.6768 241.744 94.4443 241.458 94.4443H222C221.714 94.4443 221.482 94.6768 221.482 94.9631C221.482 95.2494 221.714 95.4818 222 95.4818Z" fill="black"/>
<path d="M154.244 102.669H219.555C219.841 102.669 220.073 102.437 220.073 102.151C220.073 101.864 219.841 101.632 219.555 101.632H154.244C153.958 101.632 153.727 101.864 153.727 102.151C153.727 102.437 153.958 102.669 154.244 102.669Z" fill="black"/>
<path d="M138.367 131.609H145.8C146.086 131.609 146.317 131.376 146.317 131.09C146.317 130.804 146.086 130.571 145.8 130.571H138.367C138.081 130.571 137.85 130.804 137.85 131.09C137.85 131.376 138.081 131.609 138.367 131.609Z" fill="black"/>
<path d="M138.367 138.795H145.8C146.086 138.795 146.317 138.563 146.317 138.277C146.317 137.99 146.086 137.758 145.8 137.758H138.367C138.081 137.758 137.85 137.99 137.85 138.277C137.85 138.563 138.081 138.795 138.367 138.795Z" fill="black"/>
<path d="M154.244 131.609H163.006C163.292 131.609 163.523 131.376 163.523 131.09C163.523 130.804 163.292 130.571 163.006 130.571H154.244C153.958 130.571 153.727 130.804 153.727 131.09C153.727 131.376 153.958 131.609 154.244 131.609Z" fill="black"/>
<path d="M241.459 130.57H179.701C179.415 130.57 179.184 130.803 179.184 131.089C179.184 131.375 179.415 131.608 179.701 131.608H241.459C241.745 131.608 241.976 131.375 241.976 131.089C241.976 130.803 241.745 130.57 241.459 130.57Z" fill="black"/>
<path d="M154.244 138.795H192.721C193.007 138.795 193.239 138.563 193.239 138.277C193.239 137.99 193.007 137.758 192.721 137.758H154.244C153.958 137.758 153.727 137.99 153.727 138.277C153.727 138.563 153.958 138.795 154.244 138.795Z" fill="black"/>
<path d="M220.545 138.795C220.831 138.795 221.062 138.563 221.062 138.277C221.062 137.99 220.831 137.758 220.545 137.758H205.035C204.749 137.758 204.518 137.99 204.518 138.277C204.518 138.563 204.749 138.795 205.035 138.795H220.545Z" fill="black"/>
<path d="M241.458 137.758H229.779C229.493 137.758 229.262 137.99 229.262 138.277C229.262 138.563 229.493 138.795 229.779 138.795H241.458C241.744 138.795 241.975 138.563 241.975 138.277C241.975 137.99 241.744 137.758 241.458 137.758Z" fill="black"/>
<path d="M138.367 149.561H145.8C146.086 149.561 146.317 149.329 146.317 149.042C146.317 148.756 146.086 148.523 145.8 148.523H138.367C138.081 148.523 137.85 148.756 137.85 149.042C137.85 149.329 138.081 149.561 138.367 149.561Z" fill="black"/>
<path d="M138.367 156.748H145.8C146.086 156.748 146.317 156.516 146.317 156.23C146.317 155.943 146.086 155.711 145.8 155.711H138.367C138.081 155.711 137.85 155.943 137.85 156.23C137.85 156.516 138.081 156.748 138.367 156.748Z" fill="black"/>
<path d="M154.244 149.561H165.206C165.492 149.561 165.723 149.329 165.723 149.042C165.723 148.756 165.492 148.523 165.206 148.523H154.244C153.958 148.523 153.727 148.756 153.727 149.042C153.727 149.329 153.958 149.561 154.244 149.561Z" fill="black"/>
<path d="M241.459 148.522H176.267C175.981 148.522 175.75 148.755 175.75 149.041C175.75 149.328 175.981 149.56 176.267 149.56H241.459C241.745 149.56 241.976 149.328 241.976 149.041C241.976 148.755 241.745 148.522 241.459 148.522Z" fill="black"/>
<path d="M154.244 156.748H190.709C190.995 156.748 191.226 156.516 191.226 156.23C191.226 155.943 190.995 155.711 190.709 155.711H154.244C153.958 155.711 153.727 155.943 153.727 156.23C153.727 156.516 153.958 156.748 154.244 156.748Z" fill="black"/>
<path d="M241.459 155.711H211.31C211.024 155.711 210.793 155.943 210.793 156.23C210.793 156.516 211.024 156.748 211.31 156.748H241.459C241.745 156.748 241.976 156.516 241.976 156.23C241.976 155.943 241.745 155.711 241.459 155.711Z" fill="black"/>
<path d="M140.244 112.487C140.244 112.773 140.475 113.005 140.761 113.005H148.195C148.48 113.005 148.712 112.773 148.712 112.487C148.712 112.2 148.48 111.968 148.195 111.968H140.761C140.475 111.968 140.244 112.2 140.244 112.487Z" fill="black"/>
<path d="M148.195 119.155H140.761C140.475 119.155 140.244 119.388 140.244 119.674C140.244 119.96 140.475 120.193 140.761 120.193H148.195C148.48 120.193 148.712 119.96 148.712 119.674C148.712 119.388 148.48 119.155 148.195 119.155Z" fill="black"/>
<path d="M156.638 113.006H168.304C168.59 113.006 168.821 112.774 168.821 112.487C168.821 112.201 168.59 111.969 168.304 111.969H156.638C156.352 111.969 156.121 112.201 156.121 112.487C156.121 112.774 156.352 113.006 156.638 113.006Z" fill="black"/>
<path d="M180.332 112.487C180.332 112.773 180.563 113.005 180.849 113.005H243.852C244.138 113.005 244.369 112.773 244.369 112.487C244.369 112.2 244.138 111.968 243.852 111.968H180.849C180.563 111.968 180.332 112.2 180.332 112.487Z" fill="black"/>
<path d="M156.638 120.194H217.003C217.289 120.194 217.52 119.961 217.52 119.675C217.52 119.389 217.289 119.156 217.003 119.156H156.638C156.352 119.156 156.121 119.389 156.121 119.675C156.121 119.961 156.352 120.194 156.638 120.194Z" fill="black"/>
<path d="M243.853 119.155H233.058C232.772 119.155 232.541 119.388 232.541 119.674C232.541 119.96 232.772 120.193 233.058 120.193H243.853C244.139 120.193 244.37 119.96 244.37 119.674C244.37 119.388 244.139 119.155 243.853 119.155Z" fill="black"/>
<path d="M163.596 167.385H139.985C138.8 167.385 137.854 168.348 137.854 169.519V190.08C137.854 191.266 138.801 192.215 139.985 192.215H163.596C164.765 192.215 165.727 191.266 165.727 190.08V169.519C165.727 168.348 164.765 167.385 163.596 167.385ZM164.691 190.08C164.691 190.688 164.188 191.176 163.596 191.176H139.985C139.378 191.176 138.89 190.688 138.89 190.08V169.519C138.89 168.911 139.378 168.422 139.985 168.422H163.596C164.188 168.422 164.691 168.911 164.691 169.519V190.08Z" fill="black"/>
<path d="M151.783 172.677C147.861 172.677 144.648 175.878 144.648 179.822C144.648 183.765 147.861 186.936 151.783 186.936C155.706 186.936 158.918 183.735 158.918 179.822C158.918 175.909 155.721 172.677 151.783 172.677ZM151.783 185.9C148.423 185.9 145.684 183.173 145.684 179.823C145.684 176.472 148.423 173.715 151.783 173.715C155.144 173.715 157.882 176.443 157.882 179.823C157.882 183.202 155.144 185.9 151.783 185.9Z" fill="black"/>
<path d="M394.294 384.596H386.723V285.143C386.723 284.861 386.487 284.625 386.205 284.625H348.931C352.736 283.883 355.963 282.846 358.346 281.408C359.56 280.666 360.817 279.303 362.047 277.539C362.048 277.537 362.049 277.536 362.049 277.535C365.334 278.565 368.391 279.111 371.032 279.111C374.737 279.111 377.64 278.06 379.261 275.851C380.99 273.492 381.001 270.124 379.635 266.281C379.637 266.248 379.661 266.219 379.657 266.185L374.174 228.351C375.105 227.625 375.844 226.871 376.317 226.115C385.202 212.007 384.159 151.944 375.843 144.659C373.43 142.376 366.887 141.25 359.5 141.086V137.384C362.161 137.406 365.819 137.247 367.168 136.328C376.035 130.295 380.935 96.5714 358.241 94.3329C340.842 92.6115 335.207 101.625 335.895 110.064C334.317 110.481 332.975 111.825 332.132 113.701C322.44 87.66 305.441 65.1587 283.626 48.7206H301.219L315.681 60.3574C315.948 60.6093 316.288 60.7277 316.614 60.7277C316.806 60.7277 317.014 60.6835 317.191 60.5943C317.709 60.3716 318.035 59.8829 318.035 59.319V48.7197H329.019C330.529 48.7197 331.758 47.4896 331.758 45.9925V18.8658C331.758 17.3688 330.529 16.1387 329.019 16.1387H248.135C246.625 16.1387 245.397 17.3688 245.397 18.8658V28.1228C230.35 22.7613 214.167 19.8229 197.307 19.8229C163.501 19.8229 132.405 31.5808 107.831 51.2012V48.261C107.831 46.9417 106.764 45.8741 105.447 45.8741H70.4224C69.1049 45.8741 68.0247 46.9417 68.0247 48.261V81.8955C68.0247 83.2149 69.1049 84.2824 70.4224 84.2824H77.5548C68.0776 98.5218 61.0459 114.521 57.1109 131.704H39.4124C37.0738 131.704 35.1641 133.616 35.1641 135.958V167.903C35.1641 170.26 37.0738 172.157 39.4124 172.157H53.67C57.9572 247.768 120.74 307.969 197.308 307.969C207.702 307.969 217.835 306.842 227.609 304.735L217.688 339.934C216.988 342.416 218.225 344.971 220.513 346.002V346.01L219.388 349.301C217.565 349.504 215.96 350.007 214.821 350.96C213.452 352.107 212.89 353.795 213.09 355.95C212.882 356.217 212.258 356.768 211.72 358.092L210.979 359.989L200.499 361.59C194.347 362.455 189.496 367.504 188.996 373.997C188.966 374.323 189.07 374.619 189.263 374.827C189.626 375.255 190.002 375.212 190.891 375.331C198.215 376.249 207.062 376.932 214.443 376.932C219.387 376.932 226.325 376.669 230.697 374.827C231.455 374.498 232.603 373.893 233.11 373.241C234.487 371.663 235.271 368.506 235.271 368.289C236.401 363.683 236.677 357.502 236.648 352.72C236.738 352.396 236.526 352.154 236.322 352.072C236.297 352.072 235.006 351.656 234.342 351.456C234.401 351.302 235.409 348.673 235.347 348.835C237.79 348.399 240.017 346.99 241.415 344.818C246.487 336.962 253.893 323.272 256.911 307.036C256.911 307.036 256.911 307.038 256.912 307.038C265.805 321.788 277.505 337.442 283.692 347.891C284.921 349.98 287.276 350.829 289.243 350.337V352.812C288.147 353.894 287.363 355.066 287.037 356.296C286.578 358.045 287.081 359.78 288.517 361.455V361.47C288.414 362.3 288.443 363.16 288.65 364.005L289.139 366.006L281.427 373.462C278.333 376.382 276.882 380.532 277.253 384.594H262.557C262.271 384.594 262.04 384.826 262.04 385.112C262.04 385.399 262.271 385.631 262.557 385.631H277.386C277.753 387.782 278.887 390.172 279.384 390.671C279.741 391.028 280.222 391.084 280.672 390.879C280.936 390.732 284.52 388.918 289.997 385.631H394.291C394.577 385.631 394.809 385.399 394.809 385.112C394.809 384.826 394.577 384.594 394.291 384.594L394.294 384.596ZM385.687 285.663V384.596H363.852V285.663H385.687ZM362.816 285.663V384.596H291.732C297.773 380.931 311.145 372.351 314.426 366.112C314.689 365.452 315.195 364.788 315.195 363.325C315.195 358.444 308.944 348.981 306.106 345.003C306.019 344.697 305.678 344.558 305.44 344.618C305.376 344.65 304.346 344.965 303.439 345.271L302.033 339.718C302.033 339.718 302.034 339.713 302.035 339.711C302.805 337.517 302.983 335.086 302.465 332.67C300.481 323.302 296.218 313.473 290.282 302.222V285.664H315.462C324.256 286.183 333.315 286.331 341.131 285.664H362.817L362.816 285.663ZM304.122 347.965L303.699 346.295C304.136 346.147 304.523 346.019 304.832 345.921C304.655 346.633 304.417 347.314 304.121 347.966L304.122 347.965ZM289.245 285.144V300.28C286.136 294.483 282.598 288.317 278.735 281.646C281.888 282.15 291.11 283.529 302.361 284.626H289.763C289.482 284.626 289.245 284.863 289.245 285.145V285.144ZM349.162 238.41C349.911 238.766 350.66 239.122 351.415 239.517C349.624 239.591 346.813 239.739 343.247 239.961C345.224 239.474 347.2 238.942 349.162 238.41ZM350.699 237.975H350.723C359.954 235.353 368.534 232.301 373.229 229.057L378.106 262.707C373.857 254.742 364.301 244.778 350.699 237.975ZM375.132 145.416C383.404 153.693 383.955 212.048 375.443 225.568C371.89 231.186 352.957 236.671 336.881 240.407C333.179 240.704 329.035 241.059 324.594 241.503C324.623 241.326 324.638 241.133 324.638 240.955C324.638 238.835 322.92 237.101 320.804 237.101H315.267C314.824 234.61 313.95 231.838 312.632 229.022C311.731 227.131 310.699 225.148 309.405 223.507C308.398 222.188 307.377 221.313 306.341 220.854C387.885 194.244 337.467 210.696 354.629 205.096L354.673 205.081L363.51 202.576C363.791 202.501 363.939 202.219 363.866 201.938C363.791 201.656 363.51 201.508 363.229 201.582L355.117 203.88L360.476 169.889C360.52 169.607 360.313 169.341 360.032 169.296C359.751 169.252 359.484 169.46 359.44 169.741L354.022 204.206L321.071 214.953C319.423 211.118 312.721 195.279 312.055 191.131C311.522 187.84 319.812 171.505 324.371 163.5C324.52 163.248 324.43 162.937 324.179 162.789C323.927 162.64 323.617 162.729 323.468 162.981C320.671 167.903 310.368 187.129 311.034 191.295C311.759 195.905 314.439 201.968 315.387 204.028C311.108 209.291 307.629 212.241 305.039 212.76C300.273 213.738 292.871 202.324 285.129 182.223C290.396 183.493 295.116 176.042 297.371 171.15C299.054 168.201 300.361 162.498 300.361 161.558C300.426 161.71 304.409 171.086 304.166 170.512L308.073 177.954C308.162 178.132 308.34 178.236 308.532 178.236C308.621 178.236 308.695 178.206 308.769 178.177C309.02 178.043 309.124 177.732 308.991 177.465L305.217 170.291C307.674 167.874 326.223 149.73 334.097 145.758C336.895 144.335 341.144 143.341 345.88 142.733L347.464 156.712C347.494 156.92 347.642 157.097 347.849 157.157C347.893 157.172 347.938 157.172 347.982 157.172C348.145 157.172 348.308 157.097 348.411 156.949L358.951 142.022C366.352 142.185 372.895 143.297 375.131 145.416H375.132ZM287.099 243.771C285.545 243.771 284.286 242.511 284.286 240.955C284.286 239.398 285.545 238.138 287.099 238.138H320.806C322.345 238.138 323.618 239.413 323.618 240.955C323.618 242.496 322.345 243.771 320.806 243.771H287.099ZM123.805 62.5517C123.805 58.4901 127.092 55.1991 131.118 55.1991H248.27C250.29 55.1991 252.122 56.0219 253.449 57.3519C254.774 58.6819 255.595 60.5191 255.595 62.5446V80.0591H123.805V62.5526V62.5517ZM123.803 81.0957H255.594V193.539C255.594 194.135 255.487 194.701 255.343 195.253L218.353 195.638C217.139 195.653 216.014 196.261 215.348 197.284C214.681 198.292 214.563 199.566 215.022 200.693L215.095 200.868H131.124C127.087 200.868 123.804 197.581 123.804 193.539V81.0957H123.803ZM215.984 200.293C215.643 199.478 215.732 198.588 216.206 197.847C216.695 197.12 217.48 196.691 218.368 196.676L268.417 196.157C270.504 196.083 272.369 197.372 273.183 199.3L286.847 232.579C286.802 232.61 286.753 232.633 286.708 232.664H286.889L286.891 232.668L288.711 237.1H231.349L215.983 200.293H215.984ZM299.774 228.209L310.862 227.739C312.317 230.655 313.572 233.6 314.248 237.1H299.987L310.739 233.479C311.011 233.388 311.157 233.094 311.066 232.823C310.973 232.55 310.678 232.401 310.409 232.497L297.421 236.87H289.721L289.718 236.863L288.134 232.994C288.202 232.954 288.259 232.915 288.33 232.876L297.942 228.543C298.534 228.348 299.15 228.235 299.773 228.209H299.774ZM261.934 149.671V149.686C262.444 150.452 264.686 152.889 266.833 154.37C266.923 154.43 267.026 154.46 267.13 154.46C267.292 154.46 267.456 154.385 267.559 154.238C267.721 154.001 267.662 153.675 267.426 153.511C264.684 151.63 262.94 149.228 262.792 149.079C261.593 146.841 261.816 144.974 262.452 144.469C262.659 144.306 262.911 144.351 263.192 144.573C263.192 144.573 263.207 144.603 263.236 144.633C263.577 145.048 265.753 147.657 268.402 149.48C268.492 149.539 268.595 149.569 268.698 149.569C268.86 149.569 269.024 149.495 269.113 149.346C269.276 149.11 269.216 148.783 268.98 148.62C266.508 146.915 264.406 144.41 264.05 143.995C262.688 141.608 262.955 139.948 263.561 139.577C263.976 139.34 264.612 139.739 265.145 140.6C266.122 142.023 268.135 143.995 270.667 145.981C270.889 146.145 271.185 146.13 271.362 145.922C271.555 145.729 271.555 145.418 271.377 145.226C268.535 142.083 268.372 139.741 268.727 138.836C269.126 137.8 270.041 138.416 270.652 139.385C273.287 143.387 281.31 148.739 282.939 149.806C282.821 150.903 282.747 154.238 285.662 155.75C285.736 155.78 285.826 155.794 285.899 155.794C286.091 155.794 286.269 155.705 286.358 155.512C286.491 155.26 286.388 154.949 286.135 154.815C284.252 153.851 283.768 151.825 283.989 149.731C284.011 149.687 284.031 149.479 283.989 149.375C282.435 142.793 284.063 139.206 285.292 138.109C285.558 137.872 286.076 137.501 286.579 137.694C287.112 137.886 287.512 138.613 287.674 139.68C288.949 148.304 293.362 155.856 299.221 162.257C298.706 165.786 297.394 168.482 296.512 170.543C295.213 173.239 293.484 175.938 293.107 176.369C292.808 176.087 286.197 169.717 285.409 168.927C285.261 168.794 285.232 168.794 285.202 168.794C284.853 168.585 274.45 164.67 268.163 160.196C261.028 155.007 259.696 150.976 260.036 149.419C260.261 148.293 261.27 148.759 261.931 149.671H261.934ZM332.308 117.251C333.108 119.569 333.85 121.913 334.533 124.282C333.177 123.049 332.263 120.757 332.263 118.155C332.263 117.843 332.278 117.547 332.308 117.25V117.251ZM338.969 113.456C339.102 112.981 339.235 112.522 339.383 112.062C339.87 112.519 340.296 113.124 340.636 113.831C340.171 113.58 339.593 113.41 338.967 113.466C338.967 113.463 338.968 113.459 338.969 113.456ZM339.768 111.04C340.434 109.394 341.307 107.912 342.358 106.637C343.528 108.223 345.112 109.913 347.273 111.484C346.429 112.819 345.881 114.568 345.807 116.495C345.807 116.496 345.807 116.497 345.807 116.498L342.52 116.62C342.207 114.237 341.187 112.209 339.768 111.04ZM356.155 116.999C356.155 120.957 354.068 124.174 351.492 124.174C348.916 124.174 346.829 120.972 346.829 117.014V116.985C346.829 116.985 346.83 116.981 346.83 116.978C346.83 116.978 346.83 116.977 346.83 116.976C346.832 115.067 347.319 113.35 348.117 112.062C350.235 113.47 352.855 114.76 356.082 115.708C356.126 116.124 356.156 116.553 356.156 116.998L356.155 116.999ZM357.147 116.006C357.345 116.065 357.554 116.114 357.762 116.157C358.572 116.363 359.422 116.545 360.303 116.711C360.338 116.717 360.369 116.726 360.404 116.733H360.421L357.19 117.045V117C357.19 116.658 357.175 116.332 357.146 116.006H357.147ZM342.625 118.155C342.625 117.994 342.625 117.818 342.61 117.655L345.807 117.536C346 121.818 348.487 125.211 351.491 125.211C354.495 125.211 356.771 122.103 357.13 118.092L364.83 117.349C364.83 117.349 364.84 117.352 364.843 117.355C366.531 117.963 367.612 119.252 367.612 120.675C367.612 122.706 365.436 124.366 362.756 124.366C362.387 124.366 362.061 124.336 361.749 124.277C361.468 124.233 361.231 124.395 361.157 124.647C359.44 130.976 354.984 135.217 350.1 135.217C345.215 135.217 341.158 131.258 339.323 125.581C341.261 124.277 342.624 121.446 342.624 118.155L342.625 118.155ZM346.948 135.721C347.955 136.077 349.006 136.255 350.101 136.255C353.239 136.255 356.2 134.699 358.465 132.045V140.924L348.34 155.244L346.83 141.903L346.948 135.721ZM338.288 118.926C338.288 117.432 338.436 115.968 338.73 114.563C339.736 114.247 340.577 115.027 340.685 115.134C340.787 115.236 340.921 115.287 341.054 115.287C341.1 115.287 341.136 115.247 341.18 115.235C341.183 115.244 341.187 115.254 341.19 115.265C341.456 116.154 341.59 117.133 341.59 118.155C341.59 120.943 340.539 123.374 339.014 124.545C338.54 122.781 338.288 120.898 338.288 118.927V118.926ZM339.087 127.835C339.087 127.835 339.09 127.841 339.091 127.845C338.996 130.946 338.947 134.116 339.116 135.544C339.384 137.836 342.199 138.603 345.866 138.333V138.345L345.792 141.784C343.587 142.066 341.5 142.407 339.619 142.852C339.616 142.852 339.615 142.853 339.612 142.854C338.783 137.211 337.625 131.675 336.161 126.262C336.164 126.262 336.168 126.264 336.17 126.264C336.407 126.323 336.673 126.353 336.925 126.353C337.428 126.353 337.932 126.249 338.391 126.071C338.598 126.679 338.82 127.272 339.086 127.835H339.087ZM332.692 115.191C333.283 113.121 334.522 111.553 336.011 111.103C336.254 112.798 336.746 114.451 337.444 115.967V115.976C337.31 116.939 337.251 117.919 337.251 118.926C337.251 121.09 337.548 123.166 338.095 125.078C337.725 125.24 337.325 125.314 336.926 125.314C336.556 125.314 336.2 125.255 335.86 125.122C335.857 125.121 335.854 125.119 335.852 125.118C334.914 121.761 333.862 118.451 332.692 115.198V115.19V115.191ZM246.434 18.8658C246.434 17.9317 247.204 17.1762 248.137 17.1762H329.021C329.954 17.1762 330.723 17.9317 330.723 18.8658V45.9934C330.723 46.9275 329.954 47.6831 329.021 47.6831H317.519C317.223 47.6831 317.001 47.9199 317.001 48.2018V59.3199C317.001 59.5276 316.837 59.631 316.778 59.661C316.719 59.6911 316.542 59.7353 316.363 59.5718L301.723 47.8015C301.634 47.7273 301.515 47.6831 301.397 47.6831H248.136C247.203 47.6831 246.434 46.9266 246.434 45.9934V18.8658H246.434ZM69.0634 81.8963V48.2619C69.0634 47.5205 69.6705 46.9125 70.4251 46.9125H105.45C106.19 46.9125 106.797 47.5205 106.797 48.2619V81.8963C106.797 82.6378 106.19 83.2458 105.45 83.2458H70.4251C69.6705 83.2458 69.0634 82.6378 69.0634 81.8963ZM36.2001 167.904V135.959C36.2001 134.195 37.6359 132.742 39.4124 132.742H104.665C106.441 132.742 107.877 134.195 107.877 135.959V167.904C107.877 169.683 106.441 171.12 104.665 171.12H39.4124C37.6359 171.12 36.2001 169.683 36.2001 167.904ZM197.309 306.931C121.312 306.931 58.995 247.196 54.7096 172.158H104.665C107.004 172.158 108.913 170.26 108.913 167.904V135.959C108.913 133.617 107.004 131.705 104.665 131.705H58.1743C62.1437 114.502 69.2408 98.4997 78.8 84.2833H105.45C106.767 84.2833 107.833 83.2157 107.833 81.8963V52.533C132.331 32.7429 163.45 20.8613 197.309 20.8613C214.177 20.8613 230.364 23.8209 245.399 29.2213V45.9934C245.399 47.4904 246.628 48.7206 248.138 48.7206H281.884C304.404 65.3496 321.891 88.4279 331.599 115.216C331.599 115.218 331.598 115.219 331.598 115.22C331.362 116.124 331.228 117.117 331.228 118.155C331.228 121.697 332.797 124.721 334.989 125.863C336.536 131.476 337.748 137.226 338.605 143.091C336.641 143.594 334.942 144.186 333.641 144.838C325.766 148.811 308.15 165.946 304.76 169.282L300.201 158.535C300.142 158.239 300.053 157.957 299.935 157.705C299.535 156.786 298.884 156.193 298.025 155.971C297.33 155.778 296.515 155.867 295.642 156.178C291.896 150.842 289.558 145.253 288.699 139.532C288.477 138.05 287.855 137.041 286.938 136.715C286.183 136.448 285.338 136.671 284.599 137.338C282.986 138.791 281.609 142.512 282.733 148.411C280.172 146.707 273.718 142.171 271.527 138.835C270.172 136.632 268.335 136.947 267.767 138.465C267.397 139.384 267.456 140.807 268.285 142.571C267.278 141.623 266.509 140.748 266.021 140.021C264.97 138.347 263.756 138.257 263.031 138.687C262.024 139.295 261.624 141.029 262.572 143.341C262.305 143.372 262.054 143.475 261.817 143.653C260.989 144.305 260.604 145.847 261.151 147.788C260.036 147.495 259.252 148.148 259.034 149.197C258.545 151.435 260.485 155.882 267.561 161.042C271.691 163.991 275.51 165.8 284.007 169.372C281.223 174.976 281.476 178.104 282.201 179.778C282.557 180.579 283.104 181.231 283.814 181.66C283.829 181.705 283.859 181.764 283.874 181.823C288.67 194.408 297.803 215.295 305.249 213.768C308.018 213.205 311.585 210.284 315.863 205.082L320.096 215.28L304.139 220.483C303.562 220.542 302.999 220.75 302.422 221.076C300.689 222.085 299.343 224.1 299.284 227.199V227.224C298.716 227.283 298.151 227.385 297.57 227.578L287.869 231.949C287.826 231.973 287.785 232.003 287.741 232.027L287.737 232.016L274.133 198.899C273.171 196.572 270.921 195.075 268.404 195.12L256.443 195.238H256.433C256.55 194.687 256.631 194.124 256.631 193.539V80.5973C256.631 80.5902 256.635 80.584 256.635 80.577V62.5517C256.635 60.5271 255.917 58.6677 254.723 57.2158C253.189 55.3503 250.869 54.159 248.277 54.159H131.126C126.518 54.159 122.77 57.921 122.77 62.5446V193.539C122.77 198.153 126.519 201.907 131.126 201.907H215.526V201.909L230.227 237.101H229.783C227.666 237.101 225.934 238.835 225.934 240.955C225.934 243.074 227.666 244.809 229.783 244.809H249.018C245.589 246.886 242.982 250.209 241.844 254.24L227.929 303.607C218.06 305.775 207.819 306.931 197.31 306.931H197.309ZM235.086 352.777C234.54 353.263 233.967 353.676 233.363 354L233.967 352.434C234.403 352.564 234.778 352.68 235.086 352.777ZM215.487 351.756C216.368 351.019 217.611 350.611 219.028 350.401L217.85 353.867C216.44 353.892 215.236 354.33 214.102 355.082C214.112 353.656 214.547 352.545 215.487 351.756ZM234.34 367.875C224.111 371.358 209.87 372.232 190.819 370.528C192.418 366.422 196.192 363.234 200.648 362.612L203.828 362.123L205.829 364.19C205.931 364.295 206.065 364.348 206.201 364.348C206.337 364.348 206.461 364.299 206.562 364.202C206.768 364.002 206.772 363.673 206.572 363.468L205.084 361.932H205.09L207.073 361.634H207.078L209.058 363.679C209.16 363.784 209.294 363.837 209.43 363.837C209.566 363.837 209.69 363.788 209.79 363.691C209.996 363.491 210.001 363.163 209.801 362.957L208.334 361.441L211.159 361.012H211.165L213.074 362.981C213.176 363.087 213.31 363.14 213.446 363.14C213.582 363.14 213.706 363.091 213.808 362.993C214.013 362.794 214.018 362.465 213.817 362.259L211.946 360.328L212.684 358.477C213.584 356.202 215.734 354.904 217.969 354.904C218.753 354.904 219.538 355.067 220.293 355.393C225.77 357.75 231.529 357.098 235.614 353.718C235.599 356.372 235.466 363.027 234.341 367.875H234.34ZM240.547 344.257C238.706 347.12 235.244 348.523 231.932 347.743L221.687 345.315C219.417 344.773 218.053 342.469 218.687 340.216L242.84 254.523C244.084 250.114 247.2 246.603 251.233 244.809H298.882C272.976 249.004 247.042 256.371 244.111 269.03C241.95 278.398 247.914 291.869 256.098 305.668C253.262 322.246 245.694 336.284 240.548 344.256L240.547 344.257ZM284.582 347.374C272.672 327.133 240.656 288.651 245.132 269.268C248.181 256.045 278.587 248.738 306.432 244.809H320.806C322.316 244.809 323.633 243.935 324.255 242.645C339.204 241.107 350.907 240.572 353.163 240.482C360.291 244.474 366.603 249.638 371.319 254.974C371.319 254.976 371.314 254.979 371.314 254.979C370.322 257.87 363.483 277.096 357.798 280.521C354.009 282.803 347.91 284.063 340.716 284.626H316.483C297.037 283.526 278.586 280.572 277.848 280.451L265.904 277.341C265.63 277.271 265.345 277.436 265.272 277.713C265.2 277.991 265.366 278.273 265.644 278.346L277.394 281.406C281.817 289.036 285.813 296 289.245 302.475C295.211 313.741 299.474 323.569 301.458 332.878C301.84 334.643 301.812 336.406 301.421 338.056C300.35 341.458 298.819 344.078 295.552 345.894L290.193 348.888C288.209 350 285.737 349.332 284.583 347.376L284.582 347.374ZM288.046 356.565C288.383 355.311 289.236 354.237 290.179 353.345L291.256 356.922C290.035 357.839 289.228 359.02 288.845 360.167C287.987 358.966 287.72 357.78 288.046 356.565ZM282.154 374.22L285.926 370.575L288.388 371.524C288.658 371.627 288.957 371.491 289.057 371.226C289.161 370.959 289.027 370.658 288.761 370.556L286.75 369.781L287.907 368.651L290.408 369.616C290.469 369.639 290.532 369.65 290.594 369.65C290.802 369.65 290.999 369.524 291.076 369.317C291.181 369.05 291.046 368.75 290.78 368.647L288.73 367.857L289.244 367.357L289.866 366.764L289.867 366.762L292.267 367.687C292.329 367.711 292.391 367.722 292.453 367.722C292.661 367.722 292.858 367.595 292.936 367.389C293.04 367.122 292.907 366.821 292.639 366.719L290.148 365.758L289.657 363.754C288.911 360.702 290.814 357.459 294.143 356.742C300.05 355.482 304.416 351.554 305.808 346.381C307.347 348.575 311.137 354.178 313.032 358.832C306.607 367.697 295.357 376.769 278.659 386.523C277.564 382.194 278.821 377.347 282.153 374.219L282.154 374.22Z" fill="black"/>
<path d="M343.799 125.033C343.917 125.033 344.037 125.026 344.164 125.012L344.427 124.981C344.752 124.939 345.059 124.902 345.299 124.979C345.572 125.068 345.862 124.92 345.952 124.648C346.04 124.375 345.892 124.082 345.619 123.994C345.156 123.842 344.699 123.9 344.294 123.952L344.052 123.981C343.651 124.024 343.352 123.969 343.221 123.825C343 123.584 343.146 123.041 343.298 122.594C343.668 121.49 343.992 120.351 344.261 119.207C344.326 118.929 344.154 118.65 343.875 118.583C343.589 118.517 343.317 118.691 343.252 118.97C342.992 120.081 342.677 121.189 342.317 122.261C342.16 122.721 341.795 123.799 342.455 124.523C342.763 124.861 343.212 125.033 343.798 125.033H343.799Z" fill="black"/>
<path d="M345.579 129.565C345.577 129.859 345.822 130.098 346.116 130.086C347.756 130.086 349.401 129.372 350.523 128.175C350.718 127.965 350.708 127.637 350.498 127.441C350.29 127.245 349.963 127.256 349.765 127.465C348.836 128.458 347.474 129.048 346.116 129.048H346.095C345.81 129.048 345.578 129.278 345.578 129.565H345.579Z" fill="black"/>
<path d="M348.975 118.078C348.509 118.078 348.121 118.691 348.121 119.439C348.121 120.188 348.509 120.8 348.975 120.8C349.441 120.8 349.839 120.188 349.839 119.439C349.839 118.691 349.451 118.078 348.975 118.078Z" fill="black"/>
<path d="M339.969 121.276C340.445 121.276 340.833 120.663 340.833 119.915C340.833 119.166 340.445 118.554 339.969 118.554C339.494 118.554 339.115 119.166 339.115 119.915C339.115 120.663 339.504 121.276 339.969 121.276Z" fill="black"/>
<path d="M347.703 115.399C347.877 115.63 348.197 115.675 348.429 115.506C349.996 114.337 351.478 115.794 351.541 115.856C351.643 115.958 351.777 116.009 351.91 116.009C352.043 116.009 352.173 115.96 352.274 115.86C352.477 115.658 352.48 115.332 352.281 115.128C351.54 114.373 349.654 113.305 347.811 114.672C347.581 114.843 347.533 115.168 347.704 115.399H347.703Z" fill="black"/>
<path d="M251.793 221.343C252.903 221.343 253.851 220.898 254.457 220.113C255.094 219.283 255.272 218.141 254.975 216.985C254.368 214.732 252.074 212.894 249.838 212.894C248.728 212.894 247.78 213.324 247.159 214.124C246.729 214.702 246.508 215.414 246.508 216.185C246.508 216.526 246.552 216.896 246.641 217.252C247.248 219.506 249.543 221.344 251.792 221.344L251.793 221.343Z" fill="black"/>
<path d="M321.556 240.958C321.556 240.157 320.907 239.508 320.108 239.508H318.087C317.287 239.508 316.639 240.157 316.639 240.958C316.639 241.759 317.287 242.408 318.087 242.408H320.108C320.907 242.408 321.556 241.759 321.556 240.958Z" fill="black"/>
<path d="M313.036 239.508H311.015C310.215 239.508 309.566 240.157 309.566 240.958C309.566 241.759 310.215 242.408 311.015 242.408H313.036C313.835 242.408 314.484 241.759 314.484 240.958C314.484 240.157 313.835 239.508 313.036 239.508Z" fill="black"/>
<path d="M256.557 41.0754H263.428C263.714 41.0754 263.945 40.843 263.945 40.5567C263.945 40.2704 263.714 40.0379 263.428 40.0379H260.667V23.5725C260.667 23.2861 260.436 23.0537 260.15 23.0537C260.006 23.0537 259.876 23.112 259.783 23.2066L256.741 26.2528C256.539 26.4552 256.539 26.7839 256.741 26.9872C256.842 27.0888 256.974 27.1392 257.106 27.1392C257.238 27.1392 257.371 27.0888 257.471 26.9872L259.631 24.8247V40.0388H256.556C256.27 40.0388 256.039 40.2712 256.039 40.5576C256.039 40.8439 256.27 41.0763 256.556 41.0763L256.557 41.0754Z" fill="black"/>
<path d="M269.794 41.072H277.447C278.795 41.072 279.89 39.9753 279.89 38.6259V25.492C279.89 24.1435 278.795 23.0459 277.447 23.0459H269.794C268.448 23.0459 267.352 24.1426 267.352 25.492V38.6259C267.352 39.9745 268.447 41.072 269.794 41.072ZM268.388 25.492C268.388 24.7214 269.024 24.0843 269.794 24.0843H277.447C278.217 24.0843 278.854 24.7214 278.854 25.492V38.6259C278.854 39.4115 278.218 40.0337 277.447 40.0337H269.794C269.025 40.0337 268.388 39.4115 268.388 38.6259V25.492Z" fill="black"/>
<path d="M285.145 41.0754H292.014C292.3 41.0754 292.531 40.843 292.531 40.5567C292.531 40.2704 292.3 40.0379 292.014 40.0379H289.255V23.5725C289.255 23.2861 289.024 23.0537 288.738 23.0537C288.594 23.0537 288.465 23.112 288.37 23.2066L285.329 26.2528C285.126 26.4552 285.126 26.7839 285.329 26.9872C285.43 27.0888 285.562 27.1392 285.694 27.1392C285.826 27.1392 285.959 27.0888 286.059 26.9872L288.219 24.8247V40.0388H285.144C284.858 40.0388 284.627 40.2712 284.627 40.5576C284.627 40.8439 284.858 41.0763 285.144 41.0763L285.145 41.0754Z" fill="black"/>
<path d="M298.378 41.072H306.031C307.378 41.072 308.474 39.9753 308.474 38.6259V25.492C308.474 24.1435 307.379 23.0459 306.031 23.0459H298.378C297.031 23.0459 295.936 24.1426 295.936 25.492V38.6259C295.936 39.9745 297.031 41.072 298.378 41.072ZM296.972 25.492C296.972 24.7214 297.608 24.0843 298.378 24.0843H306.031C306.801 24.0843 307.438 24.7214 307.438 25.492V38.6259C307.438 39.4115 306.802 40.0337 306.031 40.0337H298.378C297.609 40.0337 296.972 39.4115 296.972 38.6259V25.492Z" fill="black"/>
<path d="M313.732 41.0754H320.601C320.887 41.0754 321.118 40.843 321.118 40.5567C321.118 40.2704 320.887 40.0379 320.601 40.0379H317.84V23.5725C317.84 23.2861 317.609 23.0537 317.323 23.0537C317.179 23.0537 317.049 23.112 316.956 23.2066L313.914 26.2528C313.711 26.4552 313.711 26.7839 313.914 26.9872C314.015 27.0888 314.147 27.1392 314.279 27.1392C314.411 27.1392 314.544 27.0888 314.644 26.9872L316.804 24.8247V40.0388H313.73C313.444 40.0388 313.213 40.2712 313.213 40.5576C313.213 40.8439 313.444 41.0763 313.73 41.0763L313.732 41.0754Z" fill="black"/>
<path d="M173.796 216.451H117.263C115.205 216.451 113.518 218.141 113.518 220.202V247.877C113.518 249.938 115.205 251.628 117.263 251.628H173.796C175.854 251.628 177.541 249.938 177.541 247.877V220.202C177.541 218.141 175.854 216.451 173.796 216.451ZM176.505 247.877C176.505 249.374 175.291 250.59 173.796 250.59H117.263C115.768 250.59 114.554 249.374 114.554 247.877V220.202C114.554 218.705 115.767 217.489 117.263 217.489H173.796C175.291 217.489 176.505 218.705 176.505 220.202V247.877Z" fill="black"/>
<path d="M58.02 142.371C60.5722 142.371 62.9708 143.365 64.7738 145.172C64.9759 145.374 65.3041 145.374 65.5071 145.172C65.7092 144.969 65.7092 144.641 65.5071 144.437C61.3797 140.305 54.6639 140.304 50.5338 144.437C48.5349 146.439 47.4336 149.102 47.4336 151.935C47.4336 154.768 48.5341 157.429 50.5338 159.432C52.5327 161.433 55.1916 162.536 58.02 162.536C60.8484 162.536 63.5074 161.434 65.5071 159.432C65.7092 159.229 65.7092 158.9 65.5071 158.697C65.305 158.495 64.9767 158.495 64.7738 158.697C62.9699 160.503 60.5722 161.498 58.02 161.498C55.4678 161.498 53.0701 160.503 51.2672 158.697C47.543 154.968 47.543 148.9 51.2672 145.171C53.071 143.365 55.4687 142.37 58.02 142.37V142.371Z" fill="black"/>
<path d="M75.4668 142.103C78.0296 142.103 80.1149 144.191 80.1149 146.757C80.1149 147.044 80.347 147.276 80.6329 147.276C80.9189 147.276 81.151 147.044 81.151 146.757C81.151 143.618 78.6005 141.064 75.4659 141.064C72.3313 141.064 69.7773 143.618 69.7773 146.757C69.7773 149.896 72.3295 152.454 75.4659 152.454C78.0287 152.454 80.114 154.542 80.114 157.109C80.114 159.676 78.0287 161.767 75.4659 161.767C72.9031 161.767 70.8143 159.677 70.8143 157.109C70.8143 156.823 70.5822 156.591 70.2963 156.591C70.0103 156.591 69.7782 156.823 69.7782 157.109C69.7782 160.25 72.3304 162.806 75.4668 162.806C78.6032 162.806 81.1518 160.25 81.1518 157.109C81.1518 153.969 78.6014 151.415 75.4668 151.415C72.9014 151.415 70.8152 149.325 70.8152 146.757C70.8152 144.189 72.9023 142.103 75.4668 142.103Z" fill="black"/>
<path d="M90.9609 142.103C93.5237 142.103 95.609 144.191 95.609 146.757C95.609 147.044 95.8411 147.276 96.1271 147.276C96.413 147.276 96.6451 147.044 96.6451 146.757C96.6451 143.618 94.0947 141.064 90.9601 141.064C87.8254 141.064 85.2715 143.618 85.2715 146.757C85.2715 149.896 87.8237 152.454 90.9601 152.454C93.5228 152.454 95.6082 154.542 95.6082 157.109C95.6082 159.676 93.5228 161.767 90.9601 161.767C88.3973 161.767 86.3084 159.677 86.3084 157.109C86.3084 156.823 86.0763 156.591 85.7904 156.591C85.5045 156.591 85.2724 156.823 85.2724 157.109C85.2724 160.25 87.8245 162.806 90.9609 162.806C94.0973 162.806 96.646 160.25 96.646 157.109C96.646 153.969 94.0956 151.415 90.9609 151.415C88.3955 151.415 86.3093 149.325 86.3093 146.757C86.3093 144.189 88.3964 142.103 90.9609 142.103Z" fill="black"/>
<path d="M95.1166 63.3071L85.5098 55.9545C84.8285 55.4358 83.9257 55.3465 83.1712 55.7177C82.4016 56.103 81.9277 56.8736 81.9277 57.7184V72.4235C81.9277 73.2834 82.4016 74.054 83.1712 74.4243C83.4818 74.5878 83.8225 74.6611 84.1631 74.6611C84.637 74.6611 85.1109 74.5127 85.5107 74.2016L95.1175 66.849C95.6797 66.4187 95.9912 65.7815 95.9912 65.0701C95.9912 64.3587 95.6806 63.7357 95.1175 63.3062L95.1166 63.3071Z" fill="black"/>
</g>
</g>
<defs>
<clipPath id="clip0_2447_9647">
<rect width="427" height="425" fill="white"/>
</clipPath>
<clipPath id="clip1_2447_9647">
<rect width="368" height="380" fill="white" transform="translate(30 11)"/>
</clipPath>
</defs>
</svg>
