<svg width="427" height="425" viewBox="0 0 427 425" fill="none" xmlns="http://www.w3.org/2000/svg">
<g clip-path="url(#clip0_2414_16259)">
<path d="M400.041 382.57C388.531 392.16 338.441 398.94 278.761 401.49C187.021 405.42 72.6009 399.37 40.7909 378.2C25.7309 368.19 15.5509 337.25 9.1009 297.66C-6.9291 199.16 0.220901 47.1301 13.1609 30.6501C31.3109 7.56009 323.301 -15.3099 399.911 13.9301C432.741 26.4601 429.231 358.23 400.031 382.57H400.041Z" fill="white"/>
<path d="M373.314 247.44L375.204 241.883L377.358 247.44C377.358 247.44 381.657 248.14 381.712 248.531C381.757 248.913 377.595 250.095 377.595 250.095C377.595 250.095 375.85 255.488 375.204 254.27C374.568 253.051 373.95 250.35 373.95 250.35C373.95 250.35 368.533 249.268 368.533 248.731C368.533 248.158 373.314 247.449 373.314 247.449V247.44Z" fill="white"/>
<path d="M304.094 233.142L305.566 228.822L307.238 233.142C307.238 233.142 310.574 233.688 310.619 233.988C310.656 234.279 307.429 235.198 307.429 235.198C307.429 235.198 306.075 239.381 305.575 238.435C305.075 237.49 304.594 235.389 304.594 235.389C304.594 235.389 300.395 234.543 300.395 234.134C300.395 233.688 304.103 233.142 304.103 233.142H304.094Z" fill="white"/>
<g clip-path="url(#clip1_2414_16259)">
<path d="M403.468 335.578C417.818 335.578 429.451 323.94 429.451 309.584C429.451 295.228 417.818 283.59 403.468 283.59C389.118 283.59 377.484 295.228 377.484 309.584C377.484 323.94 389.118 335.578 403.468 335.578Z" stroke="#008BCE" stroke-miterlimit="10"/>
<path d="M94.4059 286.238L56.1348 333.231" stroke="#008BCE" stroke-miterlimit="10" stroke-linecap="round"/>
<path d="M72.3203 326.951L113.541 278.293" stroke="#008BCE" stroke-miterlimit="10" stroke-linecap="round"/>
<path d="M62.2559 353.894L116.01 286.83" stroke="#008BCE" stroke-miterlimit="10" stroke-linecap="round"/>
<path d="M125.572 264.881C125.572 264.881 122.712 259.26 125.572 258.544C128.431 257.829 135.413 263.339 133.447 253.068" stroke="black" stroke-miterlimit="10" stroke-linecap="round"/>
<path d="M298.653 63.5551C298.653 63.5551 293.917 50.1893 305.132 50.4239C316.348 50.6586 317.778 43.6516 315.867 37.248" stroke="black" stroke-miterlimit="10" stroke-linecap="round"/>
<path d="M70.8133 86.2407C70.8133 86.2407 66.0769 72.8748 77.2924 73.1095C88.5079 73.3442 89.9378 66.3371 88.0275 59.9336" stroke="black" stroke-miterlimit="10" stroke-linecap="round"/>
<path d="M138.006 92.6233C142.318 92.6233 145.814 89.1259 145.814 84.8117C145.814 80.4974 142.318 77 138.006 77C133.693 77 130.197 80.4974 130.197 84.8117C130.197 89.1259 133.693 92.6233 138.006 92.6233Z" stroke="#BBD8FF" stroke-miterlimit="10"/>
<path d="M34.7538 112.248C34.7538 114.27 33.1117 115.913 31.0898 115.913C29.0679 115.913 27.4258 114.27 27.4258 112.248C27.4258 110.225 29.0679 108.582 31.0898 108.582C33.1117 108.582 34.7538 110.225 34.7538 112.248Z" stroke="#BBD8FF" stroke-miterlimit="10"/>
<path d="M146.092 315.249C146.092 316.792 144.841 318.032 143.311 318.032C141.78 318.032 140.529 316.781 140.529 315.249C140.529 313.718 141.78 312.467 143.311 312.467C144.841 312.467 146.092 313.718 146.092 315.249Z" stroke="#BBD8FF" stroke-miterlimit="10"/>
<path d="M355.881 164.514L399.682 96.209" stroke="#A0D2F4" stroke-miterlimit="10" stroke-linecap="round"/>
<path d="M352.229 187.836L396.029 119.531" stroke="#A0D2F4" stroke-miterlimit="10" stroke-linecap="round"/>
<path d="M372.582 176.17L416.383 107.877" stroke="#A0D2F4" stroke-miterlimit="10" stroke-linecap="round"/>
<path d="M311.556 167.52C311.556 169.979 309.568 171.968 307.11 171.968C304.652 171.968 302.664 169.979 302.664 167.52C302.664 165.062 304.652 163.072 307.11 163.072C309.568 163.072 311.556 165.062 311.556 167.52Z" stroke="#008BCE" stroke-miterlimit="10"/>
<path d="M332.423 136.375L323.531 122.562L307.121 122.059L317.499 109.33L312.896 93.5618L328.212 99.5072L341.784 90.2539L340.868 106.66L353.849 116.717L337.975 120.908L332.423 136.375Z" stroke="#BBD8FF" stroke-miterlimit="10" stroke-linecap="round"/>
<path d="M49.4658 297.269L33.8155 282.796L13.0154 287.479L21.9409 268.112L11.0605 249.773L32.2292 252.287L46.2933 236.262L50.46 257.182L70.0424 265.609L51.4318 276.035L49.4658 297.269Z" stroke="black" stroke-miterlimit="10" stroke-linecap="round"/>
<path d="M282.343 318.044L276.322 312.467L268.313 314.277L271.754 306.812L267.564 299.761L275.708 300.722L281.126 294.553L282.723 302.61L290.264 305.851L283.103 309.863L282.343 318.044Z" fill="black"/>
<path d="M334.488 333.232C334.488 334.64 333.349 335.78 331.941 335.78C330.534 335.78 329.395 334.64 329.395 333.232C329.395 331.823 330.534 330.684 331.941 330.684C333.349 330.684 334.488 331.823 334.488 333.232Z" stroke="#008BCE" stroke-miterlimit="10"/>
<path d="M107.007 119.039L99.377 157.036L118.032 160.69L129.047 126.907L107.007 119.039Z" fill="white" stroke="black" stroke-miterlimit="10" stroke-linecap="round"/>
<path d="M140.598 130.628L98.1934 121.677L103.03 104.377L142.62 120.403L140.598 130.628Z" fill="#008BCE"/>
<path d="M106.325 102.422L99.3767 127.88L90.7305 125.734L97.5111 98.6895L106.325 102.422Z" fill="#008BCE"/>
<path d="M106.325 102.422L99.377 127.88" stroke="#BBD8FF" stroke-miterlimit="10" stroke-linecap="round"/>
<path d="M138.004 118.024C138.004 118.024 134.687 117.007 132.017 119.041C129.246 121.153 125.392 120.169 117.35 116.537C111.865 114.056 109.63 109.787 111.92 106.826C114.211 103.853 124.465 106.658 130.743 109.62C137.021 112.592 137.636 115.643 138.004 118.012V118.024Z" fill="white" stroke="black" stroke-linecap="round" stroke-linejoin="round"/>
<path d="M112.947 113.531C112.947 113.531 115.215 106.937 123.18 106.814" stroke="black" stroke-linecap="round" stroke-linejoin="round"/>
<path d="M117.348 116.548C117.348 116.548 120.967 107.898 130.049 109.317" stroke="black" stroke-linecap="round" stroke-linejoin="round"/>
<path d="M122.32 118.639C122.32 118.639 125.996 109.889 135.602 112.85" stroke="black" stroke-linecap="round" stroke-linejoin="round"/>
<path d="M115.731 136.172C115.731 136.172 119.897 128.83 124.131 129.031C124.131 129.031 117.518 127.88 117.518 124.393C117.518 120.906 124.98 121.04 130.409 123.175C135.838 125.309 134.822 133.624 134.14 137.189C133.459 140.754 122.612 162.803 122.612 162.803L108.369 159.808" fill="white"/>
<path d="M115.731 136.172C115.731 136.172 119.897 128.83 124.131 129.031C124.131 129.031 117.518 127.88 117.518 124.393C117.518 120.906 124.98 121.04 130.409 123.175C135.838 125.309 134.822 133.624 134.14 137.189C133.459 140.754 122.612 162.803 122.612 162.803L108.369 159.808" stroke="black" stroke-miterlimit="10" stroke-linecap="round"/>
<path d="M168.335 211.863C168.335 211.863 113.43 250.776 83.2469 247.546C53.0633 244.316 47.9806 184.013 96.8082 138.004L135.951 150.062L125.093 190.607L156.416 191.255L168.324 211.863H168.335Z" fill="white"/>
<path d="M118.123 207.583H98.5969C94.4748 207.583 91.1348 204.241 91.1348 200.118C91.1348 195.994 94.4748 192.652 98.5969 192.652H118.123C122.245 192.652 125.586 195.994 125.586 200.118C125.586 204.241 122.245 207.583 118.123 207.583Z" fill="#BBD8FF"/>
<path d="M67.7653 185.243H87.2919C91.4139 185.243 94.754 181.901 94.754 177.778C94.754 173.654 91.4139 170.312 87.2919 170.312H71.7645C69.1617 175.196 67.0169 180.058 65.3301 184.829C66.0897 185.098 66.9052 185.243 67.7653 185.243Z" fill="#BBD8FF"/>
<path d="M62.8717 229.096H81.3706C85.4926 229.096 88.8327 225.755 88.8327 221.631C88.8327 217.507 85.4926 214.166 81.3706 214.166H61.844C61.3301 214.166 60.8275 214.222 60.3359 214.322C60.5147 219.754 61.386 224.727 62.8717 229.096Z" fill="#BBD8FF"/>
<path d="M159.555 208.912H140.029C135.906 208.912 132.566 212.254 132.566 216.377C132.566 220.501 135.906 223.843 140.029 223.843H149.647C157.354 219.261 163.364 215.271 166.325 213.259C165.14 210.7 162.56 208.923 159.555 208.923V208.912Z" fill="#BBD8FF"/>
<path d="M124.077 229.666H104.55C100.428 229.666 97.0879 233.007 97.0879 237.131C97.0879 241.255 100.428 244.596 104.55 244.596H105.31C113.755 242.06 122.591 238.249 130.891 234.114C129.729 231.499 127.115 229.666 124.065 229.666H124.077Z" fill="#BBD8FF"/>
<path d="M166.045 213.438C166.045 213.438 113.43 250.776 83.2469 247.546C53.0633 244.316 47.9806 184.013 96.8082 138.004L135.951 150.062L127.528 186.897L161.934 188.372L166.045 213.438Z" stroke="black" stroke-miterlimit="10" stroke-linecap="round"/>
<path d="M108.771 190.06C108.771 190.06 122.121 181.499 135.861 180.438" stroke="black" stroke-miterlimit="10" stroke-linecap="round"/>
<path d="M349.268 221.453H326.58L327.183 270.234H349.871L349.268 221.453Z" fill="white" stroke="black" stroke-miterlimit="10" stroke-linecap="round"/>
<path d="M195.447 228.571C195.447 228.571 240.007 275.497 252.407 278.134C264.806 280.772 335.071 278.134 335.071 278.134L333.25 209.048L254.373 206.991L243.626 182.785L195.436 228.571H195.447Z" fill="#008BCE"/>
<path d="M333.463 216.848L333.429 215.731H317.176V208.634L316.058 208.601V215.719H293.404V208.008L292.287 207.975V215.719H269.633V207.382L268.516 207.349V215.719H245.861V193.871H248.564L248.073 192.754H245.872V187.792L244.755 185.277V192.754H233.138L231.965 193.871H244.755V215.719H222.101V203.248L220.984 204.309V215.719H208.975L207.802 216.837H220.984V238.685H205.322C205.691 239.054 206.06 239.423 206.439 239.803H220.984V253.973C221.352 254.319 221.732 254.677 222.101 255.024V239.803H244.755V261.651H229.34C229.764 262.031 230.177 262.399 230.602 262.768H244.755V274.156C245.135 274.413 245.504 274.67 245.872 274.905V262.768H268.527V279.218C268.895 279.218 269.264 279.23 269.644 279.241V262.768H292.298V279.218C292.667 279.218 293.047 279.218 293.415 279.207V262.768H316.07V278.738C316.449 278.738 316.818 278.716 317.187 278.704V262.768H334.669L334.635 261.651H317.176V239.803H334.055L334.021 238.685H317.164V216.837H333.44L333.463 216.848ZM244.744 238.685H222.09V216.837H244.744V238.685ZM268.516 261.651H245.861V239.803H268.516V261.651ZM268.516 238.685H245.861V216.837H268.516V238.685ZM292.287 261.651H269.633V239.803H292.287V261.651ZM292.287 238.685H269.633V216.837H292.287V238.685ZM316.058 261.651H293.404V239.803H316.058V261.651ZM316.058 238.685H293.404V216.837H316.058V238.685Z" fill="#BBD8FF"/>
<path d="M243.638 182.785L195.447 228.571C195.447 228.571 240.008 275.497 252.407 278.134C264.807 280.772 335.071 278.134 335.071 278.134L333.25 209.048" stroke="black" stroke-miterlimit="10" stroke-linecap="round"/>
<path d="M399.537 289.778C403.86 289.666 407.446 293.075 407.558 297.4C407.67 301.725 404.262 305.312 399.939 305.424C395.616 305.535 392.03 302.127 391.919 297.802C391.807 293.477 395.214 289.89 399.537 289.778Z" fill="black"/>
<path d="M399.626 293.209C402.05 293.142 404.072 295.064 404.139 297.489C404.206 299.914 402.284 301.937 399.86 302.004C397.436 302.071 395.414 300.149 395.347 297.724C395.28 295.299 397.202 293.276 399.626 293.209Z" stroke="white" stroke-miterlimit="10" stroke-linecap="round"/>
<path d="M398.867 264.165C403.19 264.053 406.776 267.462 406.888 271.786C407 276.111 403.592 279.699 399.269 279.81C394.946 279.922 391.36 276.514 391.249 272.189C391.137 267.864 394.544 264.277 398.867 264.165Z" fill="black"/>
<path d="M398.956 267.584C401.38 267.517 403.402 269.439 403.469 271.864C403.536 274.289 401.615 276.312 399.19 276.379C396.766 276.446 394.745 274.524 394.677 272.099C394.61 269.674 396.532 267.651 398.956 267.584Z" stroke="white" stroke-miterlimit="10" stroke-linecap="round"/>
<path d="M398.195 238.538C402.518 238.426 406.104 241.835 406.216 246.159C406.328 250.484 402.921 254.072 398.598 254.184C394.274 254.295 390.689 250.887 390.577 246.562C390.465 242.237 393.872 238.65 398.195 238.538Z" fill="black"/>
<path d="M398.284 241.968C400.708 241.901 402.73 243.824 402.797 246.249C402.864 248.674 400.943 250.697 398.519 250.764C396.095 250.831 394.073 248.908 394.006 246.483C393.939 244.058 395.86 242.036 398.284 241.968Z" stroke="white" stroke-miterlimit="10" stroke-linecap="round"/>
<path d="M397.537 212.925C401.86 212.813 405.446 216.221 405.558 220.546C405.67 224.871 402.262 228.458 397.939 228.57C393.616 228.682 390.03 225.273 389.919 220.949C389.807 216.624 393.214 213.036 397.537 212.925Z" fill="black"/>
<path d="M397.739 225.15C400.17 225.15 402.14 223.179 402.14 220.747C402.14 218.315 400.17 216.344 397.739 216.344C395.308 216.344 393.338 218.315 393.338 220.747C393.338 223.179 395.308 225.15 397.739 225.15Z" stroke="white" stroke-miterlimit="10" stroke-linecap="round"/>
<path d="M395.683 310.575L393.348 214.611L347.168 216.344L348.966 273.696L363.41 273.35C363.41 273.35 368.437 317.348 395.683 310.575Z" fill="white" stroke="black" stroke-miterlimit="10" stroke-linecap="round"/>
<path d="M366.281 239.287C369.9 239.198 372.905 242.048 372.995 245.668C373.084 249.289 370.235 252.295 366.616 252.385C362.997 252.474 359.992 249.625 359.902 246.004C359.813 242.383 362.662 239.377 366.281 239.287Z" stroke="black" stroke-miterlimit="10" stroke-linecap="round"/>
<path d="M376.302 281.877L366.494 287.129" stroke="black" stroke-miterlimit="10" stroke-linecap="round"/>
<path d="M374.962 272.266L364.193 278.144" stroke="black" stroke-miterlimit="10" stroke-linecap="round"/>
<path d="M365.321 283.085C365.321 283.085 340.711 269.82 331.886 277.073C323.061 284.326 329.105 309.437 365.321 283.085Z" stroke="black" stroke-linecap="round" stroke-linejoin="round"/>
<path d="M365.186 283.029C365.186 283.029 341.068 289.153 339.649 299.234C338.231 309.303 357.31 322.121 365.186 283.029Z" stroke="black" stroke-linecap="round" stroke-linejoin="round"/>
<path d="M389.606 237.969C391.081 237.935 392.511 237.745 393.907 237.443L393.348 214.623L365.689 215.662C366.248 228.347 376.86 238.304 389.606 237.98V237.969Z" fill="#BBD8FF" stroke="black" stroke-miterlimit="10" stroke-linecap="round"/>
<path d="M388.903 311.235C390.992 311.369 393.248 311.179 395.683 310.575L393.349 214.611L386.4 214.868L388.903 311.235Z" fill="white" stroke="black" stroke-miterlimit="10" stroke-linecap="round"/>
<path d="M181.596 274.39L196.229 306.195L239.304 301.334L219.04 264.689L181.596 274.39Z" fill="white" stroke="black" stroke-miterlimit="10" stroke-linecap="round"/>
<path d="M237.907 174.95C209.332 161.886 205.099 169.083 205.099 169.083C205.099 169.083 148.295 204.185 144.609 223.083C140.922 241.992 167.341 291.745 167.341 291.745L233.964 277.117L213.075 241.769C231.339 232.359 258.104 218.177 264.471 212.679C274.369 204.118 266.493 188.014 237.918 174.95H237.907Z" fill="#008BCE"/>
<path d="M254.026 216.848V195H265.253C265.007 194.631 264.739 194.251 264.46 193.882H254.015V184.082C253.646 183.824 253.278 183.567 252.898 183.299V193.871H230.243V172.023H231.092C230.098 171.621 229.115 171.252 228.199 170.906H206.483V168C205.936 168.268 205.578 168.548 205.366 168.749V170.906H202.182C201.669 171.241 201.088 171.61 200.451 172.023H205.366V193.871H182.712V184.182C182.343 184.45 181.974 184.719 181.595 184.998V193.871H169.977C169.519 194.24 169.061 194.62 168.603 194.989H181.595V216.837H158.94V203.415C158.56 203.773 158.192 204.13 157.823 204.477V216.837H147.278C147.043 217.217 146.831 217.586 146.619 217.954H157.823V239.802H146.094C146.183 240.171 146.284 240.54 146.373 240.92H157.823V262.768H153.869C154.025 263.137 154.17 263.517 154.327 263.886H157.823V272.033C158.203 272.882 158.572 273.709 158.94 274.514V263.886H181.595V285.734H164.269C164.459 286.125 164.648 286.494 164.827 286.851H181.595V288.628L182.712 288.382V286.851H189.66L194.754 285.734H182.712V263.886H205.366V283.398L206.483 283.152V263.886H226.121L225.462 262.768H206.483V240.92H214.716C215.42 240.551 216.146 240.182 216.872 239.802H206.483V217.954H229.138V233.377C229.506 233.175 229.886 232.985 230.255 232.784V217.954H252.909V220.245C253.289 220.022 253.657 219.798 254.026 219.586V217.954H256.741C257.366 217.574 257.958 217.194 258.539 216.837H254.037L254.026 216.848ZM181.595 262.768H158.94V240.92H181.595V262.768ZM181.595 239.802H158.94V217.954H181.595V239.802ZM205.366 262.768H182.712V240.92H205.366V262.768ZM205.366 239.802H182.712V217.954H205.366V239.802ZM205.366 216.848H182.712V195H205.366V216.848ZM229.138 216.848H206.483V195H229.138V216.848ZM229.138 193.882H206.483V172.034H229.138V193.882ZM252.909 216.848H230.255V195H252.909V216.848Z" fill="#BBD8FF"/>
<path d="M230.254 277.934V270.871L229.137 268.982V278.18L230.254 277.934Z" fill="#BBD8FF"/>
<path d="M167.33 291.745L233.953 277.116L213.063 241.779" stroke="black" stroke-miterlimit="10" stroke-linecap="round"/>
<path d="M195.448 250.731C195.448 250.731 254.564 221.239 264.461 212.679C274.358 204.118 266.483 188.014 237.908 174.95C209.333 161.886 205.099 169.083 205.099 169.083C205.099 169.083 148.296 204.185 144.609 223.083" stroke="black" stroke-miterlimit="10" stroke-linecap="round"/>
<path d="M170.269 356.876C174.587 356.876 178.088 353.374 178.088 349.053C178.088 344.733 174.587 341.23 170.269 341.23C165.95 341.23 162.449 344.733 162.449 349.053C162.449 353.374 165.95 356.876 170.269 356.876Z" fill="black"/>
<path d="M170.268 353.457C172.699 353.457 174.67 351.485 174.67 349.054C174.67 346.622 172.699 344.65 170.268 344.65C167.838 344.65 165.867 346.622 165.867 349.054C165.867 351.485 167.838 353.457 170.268 353.457Z" stroke="white" stroke-miterlimit="10" stroke-linecap="round"/>
<path d="M195.884 356.876C200.203 356.876 203.704 353.374 203.704 349.053C203.704 344.733 200.203 341.23 195.884 341.23C191.565 341.23 188.064 344.733 188.064 349.053C188.064 353.374 191.565 356.876 195.884 356.876Z" fill="black"/>
<path d="M195.884 353.457C198.314 353.457 200.285 351.485 200.285 349.054C200.285 346.622 198.314 344.65 195.884 344.65C193.453 344.65 191.482 346.622 191.482 349.054C191.482 351.485 193.453 353.457 195.884 353.457Z" stroke="white" stroke-miterlimit="10" stroke-linecap="round"/>
<path d="M221.509 356.876C225.828 356.876 229.329 353.374 229.329 349.053C229.329 344.733 225.828 341.23 221.509 341.23C217.19 341.23 213.689 344.733 213.689 349.053C213.689 353.374 217.19 356.876 221.509 356.876Z" fill="black"/>
<path d="M221.509 353.457C223.939 353.457 225.91 351.485 225.91 349.054C225.91 346.622 223.939 344.65 221.509 344.65C219.078 344.65 217.107 346.622 217.107 349.054C217.107 351.485 219.078 353.457 221.509 353.457Z" stroke="white" stroke-miterlimit="10" stroke-linecap="round"/>
<path d="M247.124 356.876C251.443 356.876 254.944 353.374 254.944 349.053C254.944 344.733 251.443 341.23 247.124 341.23C242.806 341.23 239.305 344.733 239.305 349.053C239.305 353.374 242.806 356.876 247.124 356.876Z" fill="black"/>
<path d="M251.525 349.054C251.525 351.479 249.559 353.457 247.124 353.457C244.689 353.457 242.723 351.49 242.723 349.054C242.723 346.617 244.689 344.65 247.124 344.65C249.559 344.65 251.525 346.617 251.525 349.054Z" stroke="white" stroke-miterlimit="10" stroke-linecap="round"/>
<path d="M157.411 344.662H262.227L241.583 296.607L187.985 299.278L195.447 313.359C195.447 313.359 151.356 317.249 157.411 344.673V344.662Z" fill="white" stroke="black" stroke-miterlimit="10" stroke-linecap="round"/>
<path d="M229.407 317.113C229.407 320.734 226.469 323.662 222.861 323.662C219.252 323.662 216.314 320.723 216.314 317.113C216.314 313.504 219.252 310.564 222.861 310.564C226.469 310.564 229.407 313.504 229.407 317.113Z" stroke="black" stroke-miterlimit="10" stroke-linecap="round"/>
<path d="M186.589 326.032L181.596 316.086" stroke="black" stroke-miterlimit="10" stroke-linecap="round"/>
<path d="M196.23 324.936L190.645 314.018" stroke="black" stroke-miterlimit="10" stroke-linecap="round"/>
<path d="M185.686 315.024C185.686 315.024 199.583 290.762 192.568 281.744C185.541 272.725 160.306 278.123 185.686 315.024Z" stroke="black" stroke-linecap="round" stroke-linejoin="round"/>
<path d="M185.741 314.89C185.741 314.89 180.245 290.617 170.214 288.93C160.183 287.253 146.889 305.995 185.741 314.89Z" stroke="black" stroke-linecap="round" stroke-linejoin="round"/>
<path d="M250.487 317.326C239.004 318.801 230.123 328.591 230.123 340.471C230.123 341.901 230.268 343.298 230.514 344.661H262.217L250.476 317.326H250.487Z" fill="#BBD8FF" stroke="black" stroke-miterlimit="10" stroke-linecap="round"/>
<path d="M157.412 344.662H262.227L259.312 337.867H156.931C156.741 339.957 156.875 342.214 157.412 344.662Z" fill="white" stroke="black" stroke-miterlimit="10" stroke-linecap="round"/>
<path d="M147.981 151.739C147.981 151.739 172.077 137.848 207.153 131.746C242.654 125.566 278.847 125.767 284.634 151.739L217.586 185.064L146.641 158.802L147.981 151.739Z" fill="white"/>
<path d="M157.979 158.791H176.69C181.114 158.791 184.699 155.204 184.699 150.778C184.699 146.353 181.114 142.766 176.69 142.766H167.574C159.018 146.085 152.918 149.102 149.98 150.644C149.98 150.689 149.98 150.734 149.98 150.778C149.98 155.204 153.566 158.791 157.99 158.791H157.979Z" fill="#BBD8FF"/>
<path d="M147.98 151.739C147.98 151.739 172.076 137.848 207.152 131.746C242.653 125.566 278.846 125.767 284.633 151.739" stroke="black" stroke-miterlimit="10" stroke-linecap="round"/>
<path d="M166.938 136.925C175.742 133.896 180.424 124.3 177.396 115.493C174.368 106.686 164.777 102.002 155.973 105.031C147.17 108.06 142.488 117.655 145.516 126.463C148.544 135.27 158.135 139.954 166.938 136.925Z" fill="white" stroke="#010001" stroke-miterlimit="10"/>
<path d="M161.463 102.746C153.822 102.746 147.365 107.842 145.299 114.816C149.7 119.632 158.357 124.147 175.304 121.666C175.304 121.666 176.577 121.957 178.152 121.856C178.253 121.119 178.32 120.37 178.32 119.61C178.32 110.29 170.768 102.746 161.463 102.746Z" fill="#010001"/>
<path d="M150.281 131.737C150.281 131.737 153.163 131.469 153.655 128.016" stroke="#010001" stroke-miterlimit="10" stroke-linecap="round"/>
<path d="M146.483 120.828L145.299 128.226L147.98 128.059" fill="white"/>
<path d="M146.483 120.828L145.299 128.226L147.98 128.059" stroke="#010001" stroke-miterlimit="10" stroke-linecap="round"/>
<path d="M152.471 122.236C152.471 122.929 151.912 123.488 151.22 123.488C150.527 123.488 149.969 122.929 149.969 122.236C149.969 121.543 150.527 120.984 151.22 120.984C151.912 120.984 152.471 121.543 152.471 122.236Z" fill="#010001"/>
<path d="M180.643 124.74C180.833 127.109 179.079 129.177 176.711 129.367C175.75 129.445 174.845 129.199 174.097 128.73C172.98 128.037 172.198 126.841 172.086 125.433C171.963 123.891 172.656 122.483 173.818 121.622C174.443 121.164 175.192 120.862 176.018 120.795C178.387 120.605 180.453 122.36 180.643 124.729V124.74Z" fill="white"/>
<path d="M176.32 122.684C177.65 122.573 178.811 123.567 178.923 124.886C179.035 126.216 178.041 127.378 176.722 127.49" stroke="#010001" stroke-miterlimit="10" stroke-linecap="round"/>
<path d="M173.818 121.634C174.444 121.176 175.192 120.874 176.019 120.807C178.387 120.617 180.454 122.372 180.644 124.741C180.834 127.11 179.08 129.177 176.712 129.367C175.751 129.446 174.846 129.2 174.098 128.73" stroke="#010001" stroke-miterlimit="10" stroke-linecap="round"/>
<path d="M148.439 112.357L198.552 123.376" stroke="#008BCE" stroke-width="4" stroke-miterlimit="10" stroke-linecap="round"/>
<path d="M161.464 102.613C154.18 102.613 148.003 107.24 145.635 113.699L178.254 120.785C178.287 120.349 178.321 119.924 178.321 119.477C178.321 110.157 170.769 102.613 161.464 102.613Z" fill="#A0D2F4" stroke="#010001" stroke-miterlimit="10"/>
<path d="M92.9093 132.844L78.459 177.629L263.093 237.253L277.543 192.469L92.9093 132.844Z" fill="#A0D2F4"/>
<path d="M267.477 203.299L261.255 222.581C258.983 229.623 262.847 237.175 269.887 239.448L284.908 244.299C291.947 246.572 299.496 242.706 301.769 235.664L307.99 216.382C310.262 209.34 306.398 201.788 299.358 199.515L284.337 194.664C277.298 192.39 269.749 196.257 267.477 203.299Z" fill="black"/>
<path d="M83.0117 164.883L263.23 223.085" stroke="black" stroke-miterlimit="10" stroke-linecap="round"/>
<path d="M89.1562 145.861L269.364 204.063" stroke="black" stroke-miterlimit="10" stroke-linecap="round"/>
<path d="M138.564 197.045L221.508 223.833" stroke="black" stroke-miterlimit="10" stroke-linecap="round"/>
<path d="M53.1191 144.722L78.4657 177.634L92.9207 132.854L53.1191 144.722Z" fill="black"/>
<path d="M51.2415 145.014L51.77 143.376C52.4975 141.121 54.9162 139.883 57.1699 140.61L61.8155 142.111L58.6516 151.916L54.006 150.416C51.7523 149.688 50.5141 147.268 51.2415 145.014Z" fill="#A0D2F4"/>
<path d="M256.254 234.028L270.111 191.084C270.735 189.148 272.802 188.089 274.737 188.714L277.31 189.545C279.245 190.17 280.303 192.238 279.678 194.173L265.822 237.118C265.197 239.054 263.13 240.112 261.195 239.488L258.622 238.657C256.688 238.032 255.629 235.964 256.254 234.028Z" fill="#BBD8FF"/>
<path d="M192.307 186.227C192.307 186.227 163.788 193.994 165.117 199.402C166.514 205.091 180.656 202.051 180.656 202.051C180.656 202.051 174.132 206.644 169.072 206.901C169.072 206.901 174.02 214.735 189.492 218.323C204.964 221.91 219.519 193.144 219.519 193.144L192.307 186.227Z" fill="#F2A391" stroke="black" stroke-linecap="round" stroke-linejoin="round"/>
<path d="M167.33 198.385C167.33 198.385 169.698 196.91 170.659 197.055C172.111 197.278 172.111 199.402 172.111 199.402" stroke="black" stroke-miterlimit="10" stroke-linecap="round"/>
<path d="M174.59 212.065C174.59 212.065 179.795 211.294 185.135 208.623" stroke="black" stroke-miterlimit="10" stroke-linecap="round"/>
<path d="M183.717 216.636C183.717 216.636 192.899 214.993 195.446 212.68" stroke="black" stroke-miterlimit="10" stroke-linecap="round"/>
<path d="M220.257 145.613L182.768 185.063L209.7 208.99C265.018 199.893 289.069 171.664 284.634 151.749C278.848 125.777 242.654 125.576 207.153 131.756L220.257 145.625V145.613Z" fill="white"/>
<path d="M227.685 205.067L194.017 173.217L182.768 185.063L209.7 208.99C216.124 207.928 222.111 206.609 227.697 205.078L227.685 205.067Z" fill="#BBD8FF"/>
<path d="M186.867 188.695L187.716 189.444L199.982 178.849L199.166 178.078L186.867 188.695Z" fill="white"/>
<path d="M206.471 184.995L205.645 184.213L192.307 193.533L193.167 194.293L206.471 184.995Z" fill="white"/>
<path d="M221.508 199.223L220.625 198.385L205.098 204.889L206.025 205.716L221.508 199.223Z" fill="white"/>
<path d="M213.455 191.6L198.832 199.333L199.726 200.115L214.315 192.415L213.455 191.6Z" fill="white"/>
<path d="M213.062 130.773C214.314 133.555 217.106 135.489 220.357 135.489H239.068C243.123 135.489 246.463 132.471 246.988 128.571C236.555 128.001 224.87 128.973 213.062 130.773Z" fill="#BBD8FF"/>
<path d="M261.476 143.725C257.053 143.725 253.467 147.312 253.467 151.737C253.467 156.163 257.053 159.75 261.476 159.75H280.187C282.031 159.75 283.717 159.124 285.069 158.074C285.214 155.895 285.069 153.771 284.622 151.737C283.963 148.776 282.891 146.161 281.483 143.848C281.059 143.78 280.623 143.736 280.187 143.736H261.476V143.725Z" fill="#BBD8FF"/>
<path d="M261.086 179.844H242.375C237.951 179.844 234.365 183.431 234.365 187.857C234.365 192.282 237.951 195.869 242.375 195.869H252.104C258.584 192.595 264.08 188.985 268.626 185.197C267.531 182.09 264.571 179.855 261.086 179.855V179.844Z" fill="#BBD8FF"/>
<path d="M201.433 168.692H220.145C224.568 168.692 228.154 165.104 228.154 160.679C228.154 156.253 224.568 152.666 220.145 152.666H213.543L198.764 168.222C199.601 168.513 200.495 168.692 201.433 168.692Z" fill="#BBD8FF"/>
<path d="M207.153 131.734C242.654 125.554 278.848 125.756 284.634 151.727C289.069 171.642 265.018 199.871 209.7 208.968L182.768 185.041L220.257 145.592" stroke="black" stroke-miterlimit="10" stroke-linecap="round"/>
<path d="M99.668 356.441H356.362" stroke="black" stroke-miterlimit="10" stroke-linecap="round"/>
<path d="M223.598 78.9082H221.263C217.235 78.9082 213.969 82.1754 213.969 86.2058V92.7882C213.969 96.8185 217.235 100.086 221.263 100.086H223.598C227.627 100.086 230.893 96.8185 230.893 92.7882V86.2058C230.893 82.1754 227.627 78.9082 223.598 78.9082Z" fill="#BBD8FF" stroke="#010001" stroke-miterlimit="10" stroke-linecap="round"/>
<path d="M215.656 97.4492H228.804" stroke="#010001" stroke-miterlimit="10" stroke-linecap="round"/>
<path d="M214.092 94.1172H230.703" stroke="#010001" stroke-miterlimit="10" stroke-linecap="round"/>
<path d="M213.969 91H230.703" stroke="#010001" stroke-miterlimit="10" stroke-linecap="round"/>
<path d="M243.307 70.6617C245.19 59.1245 237.367 48.2453 225.834 46.3622C214.302 44.4791 203.427 52.3053 201.545 63.8425C199.663 75.3797 207.486 86.259 219.018 88.142C230.55 90.0251 241.425 82.1989 243.307 70.6617Z" fill="white" stroke="#010001" stroke-miterlimit="10" stroke-linecap="round"/>
<path d="M206.82 75.79C206.82 75.79 223.42 69.5988 222.605 61.7759C221.8 53.9531 209.602 62.5023 218.885 72.1468C228.168 81.7912 234.356 63.9551 230.346 63.9551C226.336 63.9551 223.979 76.8852 235.987 74.3372" stroke="#010001" stroke-miterlimit="10" stroke-linecap="round"/>
<path d="M195.234 86.8998L201.68 82.709" stroke="#010001" stroke-miterlimit="10" stroke-linecap="round"/>
<path d="M183.584 68.6953H198.452" stroke="#010001" stroke-miterlimit="10" stroke-linecap="round"/>
<path d="M195.234 47.9414L201.289 52.8586" stroke="#010001" stroke-miterlimit="10" stroke-linecap="round"/>
<path d="M221.408 31.5586V42.1194" stroke="#010001" stroke-miterlimit="10" stroke-linecap="round"/>
<path d="M239.695 49.5848L248.006 44.2988" stroke="#010001" stroke-miterlimit="10" stroke-linecap="round"/>
<path d="M246.363 65.9688H255.467" stroke="#010001" stroke-miterlimit="10" stroke-linecap="round"/>
<path d="M243.615 80.1055L255.467 84.8104" stroke="#010001" stroke-miterlimit="10" stroke-linecap="round"/>
</g>
</g>
<defs>
<clipPath id="clip0_2414_16259">
<rect width="427" height="425" fill="white"/>
</clipPath>
<clipPath id="clip1_2414_16259">
<rect width="420" height="326" fill="white" transform="translate(10 31)"/>
</clipPath>
</defs>
</svg>
