<svg width="427" height="425" viewBox="0 0 427 425" fill="none" xmlns="http://www.w3.org/2000/svg">
<g clip-path="url(#clip0_2430_9614)">
<path d="M400.041 382.57C388.531 392.16 338.441 398.94 278.761 401.49C187.021 405.42 72.6009 399.37 40.7909 378.2C25.7309 368.19 15.5509 337.25 9.1009 297.66C-6.9291 199.16 0.220901 47.1301 13.1609 30.6501C31.3109 7.56009 323.301 -15.3099 399.911 13.9301C432.741 26.4601 429.231 358.23 400.031 382.57H400.041Z" fill="white"/>
<path d="M373.314 247.44L375.204 241.883L377.358 247.44C377.358 247.44 381.657 248.14 381.712 248.531C381.757 248.913 377.595 250.095 377.595 250.095C377.595 250.095 375.85 255.488 375.204 254.27C374.568 253.051 373.95 250.35 373.95 250.35C373.95 250.35 368.533 249.268 368.533 248.731C368.533 248.158 373.314 247.449 373.314 247.449V247.44Z" fill="white"/>
<path d="M304.094 233.142L305.566 228.822L307.238 233.142C307.238 233.142 310.574 233.688 310.619 233.988C310.656 234.279 307.429 235.198 307.429 235.198C307.429 235.198 306.075 239.381 305.575 238.435C305.075 237.49 304.594 235.389 304.594 235.389C304.594 235.389 300.395 234.543 300.395 234.134C300.395 233.688 304.103 233.142 304.103 233.142H304.094Z" fill="white"/>
<g clip-path="url(#clip1_2430_9614)">
<path d="M410.291 16.4746H184.566V38.5171H410.291V16.4746Z" fill="#008BCE"/>
<path d="M398.552 32.2863C401.255 32.2863 403.447 30.1078 403.447 27.4205C403.447 24.7332 401.255 22.5547 398.552 22.5547C395.848 22.5547 393.656 24.7332 393.656 27.4205C393.656 30.1078 395.848 32.2863 398.552 32.2863Z" fill="white"/>
<path d="M382.456 32.2863C385.16 32.2863 387.351 30.1078 387.351 27.4205C387.351 24.7332 385.16 22.5547 382.456 22.5547C379.752 22.5547 377.561 24.7332 377.561 27.4205C377.561 30.1078 379.752 32.2863 382.456 32.2863Z" fill="white"/>
<path d="M366.358 32.2863C369.062 32.2863 371.254 30.1078 371.254 27.4205C371.254 24.7332 369.062 22.5547 366.358 22.5547C363.655 22.5547 361.463 24.7332 361.463 27.4205C361.463 30.1078 363.655 32.2863 366.358 32.2863Z" fill="white"/>
<path d="M410.289 168.071H184.566C184.303 168.071 184.09 167.858 184.09 167.597V16.4737C184.09 16.211 184.303 16 184.566 16H410.291C410.554 16 410.765 16.2131 410.765 16.4737V167.595C410.765 167.858 410.552 168.069 410.291 168.069L410.289 168.071ZM185.04 167.122H409.814V16.9495H185.04V167.122Z" fill="black"/>
<path d="M387.349 56.375H297.428V116.295H387.349V56.375Z" fill="#C6C6C6"/>
<path d="M342.473 99.5856C350.961 99.5856 357.842 92.6964 357.842 84.1981C357.842 75.6998 350.961 68.8105 342.473 68.8105C333.985 68.8105 327.104 75.6998 327.104 84.1981C327.104 92.6964 333.985 99.5856 342.473 99.5856Z" fill="white"/>
<path d="M348.334 84.1971L338.727 78.6445V89.7497L348.334 84.1971Z" fill="white"/>
<path d="M338.726 90.2251C338.644 90.2251 338.562 90.2036 338.489 90.1606C338.342 90.0766 338.252 89.9194 338.252 89.7493V78.6441C338.252 78.474 338.342 78.3169 338.489 78.2329C338.636 78.1489 338.817 78.1489 338.965 78.2329L348.571 83.7855C348.717 83.8695 348.808 84.0266 348.808 84.1967C348.808 84.3668 348.717 84.5218 348.571 84.6079L338.965 90.1606C338.892 90.2036 338.81 90.2251 338.728 90.2251H338.726ZM339.203 79.4687V88.9269L347.385 84.1967L339.203 79.4666V79.4687Z" fill="black"/>
<path d="M384.153 109.445H300.459V112.229H384.153V109.445Z" fill="white"/>
<path d="M373.388 116.77C373.125 116.77 372.914 116.557 372.914 116.296V56.3741C372.914 56.1114 373.127 55.9004 373.388 55.9004C373.649 55.9004 373.863 56.1135 373.863 56.3741V116.294C373.863 116.557 373.649 116.768 373.388 116.768V116.77Z" fill="white"/>
<path d="M387.349 121.994H297.428V130.126H387.349V121.994Z" fill="#404040"/>
<path d="M387.348 138.731H338.726C338.463 138.731 338.252 138.518 338.252 138.257C338.252 137.997 338.465 137.781 338.726 137.781H387.348C387.611 137.781 387.822 137.994 387.822 138.257C387.822 138.52 387.609 138.731 387.348 138.731Z" fill="black"/>
<path d="M256.107 262.095H298.825C298.825 262.095 300.948 222.94 285.635 222.493C270.321 222.045 265.736 229.974 260.149 242.294C254.559 254.611 256.109 262.095 256.109 262.095H256.107Z" fill="black"/>
<path d="M207.504 177.56H250.221C250.221 177.56 252.345 138.405 237.031 137.957C221.718 137.51 217.133 145.439 211.545 157.759C205.956 170.076 207.506 177.56 207.506 177.56H207.504Z" fill="black"/>
<path d="M262.19 224.684C246.428 208.233 248.579 167.261 242.712 150.307C238.504 138.148 222.359 133.948 221.927 153.889C221.524 172.519 214.383 177.391 207.506 177.559C202.458 177.682 200.311 171.742 199.528 168.577C199.268 167.526 199.14 166.452 199.143 165.369L199.475 56.373H263.19V140.14L310.641 140.123C315.53 139.946 321.01 143.742 323.142 149.902C329.009 166.857 327.022 212.655 327.022 231.425L304.884 237.04L279.967 223.427L262.19 224.684Z" fill="#A0D2F4"/>
<path d="M312.524 311.889C282.77 294.329 296.139 256.733 290.269 239.781C286.062 227.623 268.741 222.821 268.741 241.456C268.741 260.09 261.261 262.051 254.387 262.219C249.339 262.342 247.192 256.402 246.409 253.237C246.148 252.186 246.021 251.112 246.023 250.029L246.355 145.789H310.071V229.556L376.526 229.539C381.415 229.362 386.895 233.158 389.027 239.318C394.894 256.273 384.269 290.426 411.001 311.805L312.524 311.889Z" fill="#A0D2F4"/>
<path d="M326.697 230.027L280.558 229.91C280.295 229.91 280.084 229.697 280.084 229.435C280.084 229.174 280.297 228.961 280.558 228.961L326.697 229.077C326.96 229.077 327.171 229.29 327.171 229.553C327.171 229.814 326.958 230.027 326.697 230.027Z" fill="#FCB503"/>
<path d="M232.642 140.633C232.379 140.633 232.168 140.42 232.166 140.159C232.166 139.896 232.379 139.683 232.64 139.683L263.187 139.666C263.45 139.666 263.664 139.879 263.664 140.14C263.664 140.402 263.45 140.615 263.19 140.615L232.642 140.633Z" fill="#FCB503"/>
<path d="M240.566 70.3264H219.775C219.512 70.3264 219.301 70.1133 219.301 69.8528C219.301 69.5923 219.514 69.377 219.775 69.377H240.566C240.829 69.377 241.042 69.5901 241.042 69.8528C241.042 70.1154 240.829 70.3264 240.566 70.3264Z" fill="black"/>
<path d="M251.472 79.9356H209.765C209.502 79.9356 209.291 79.7225 209.291 79.4619C209.291 79.2014 209.504 78.9883 209.765 78.9883H251.472C251.735 78.9883 251.946 79.2014 251.946 79.4619C251.946 79.7225 251.733 79.9356 251.472 79.9356Z" fill="black"/>
<path d="M251.472 89.5469H209.765C209.502 89.5469 209.291 89.3338 209.291 89.0733C209.291 88.8128 209.504 88.5996 209.765 88.5996H251.472C251.735 88.5996 251.946 88.8128 251.946 89.0733C251.946 89.3338 251.733 89.5469 251.472 89.5469Z" fill="black"/>
<path d="M251.472 99.1544H209.765C209.502 99.1544 209.291 98.9412 209.291 98.6807C209.291 98.4202 209.504 98.207 209.765 98.207H251.472C251.735 98.207 251.946 98.4202 251.946 98.6807C251.946 98.9412 251.733 99.1544 251.472 99.1544Z" fill="black"/>
<path d="M252.54 108.766H210.834C210.571 108.766 210.359 108.553 210.359 108.292C210.359 108.032 210.573 107.818 210.834 107.818H252.54C252.803 107.818 253.015 108.032 253.015 108.292C253.015 108.553 252.801 108.766 252.54 108.766Z" fill="black"/>
<path d="M252.541 118.375H230.035C229.772 118.375 229.561 118.162 229.561 117.901C229.561 117.641 229.774 117.428 230.035 117.428H252.541C252.804 117.428 253.016 117.641 253.016 117.901C253.016 118.162 252.802 118.375 252.541 118.375Z" fill="black"/>
<path d="M310.421 163.586H261.857C261.594 163.586 261.383 163.373 261.383 163.11C261.383 162.848 261.596 162.637 261.857 162.637H310.421C310.684 162.637 310.895 162.85 310.895 163.11C310.895 163.371 310.682 163.586 310.421 163.586Z" fill="black"/>
<path d="M310.421 173.196H261.857C261.594 173.196 261.383 172.982 261.383 172.722C261.383 172.461 261.596 172.246 261.857 172.246H310.421C310.684 172.246 310.895 172.459 310.895 172.722C310.895 172.985 310.682 173.196 310.421 173.196Z" fill="black"/>
<path d="M310.421 182.807H261.857C261.594 182.807 261.383 182.594 261.383 182.333C261.383 182.073 261.596 181.859 261.857 181.859H310.421C310.684 181.859 310.895 182.073 310.895 182.333C310.895 182.594 310.682 182.807 310.421 182.807Z" fill="black"/>
<path d="M310.421 192.414H261.857C261.594 192.414 261.383 192.201 261.383 191.94C261.383 191.68 261.596 191.467 261.857 191.467H310.421C310.684 191.467 310.895 191.68 310.895 191.94C310.895 192.201 310.682 192.414 310.421 192.414Z" fill="black"/>
<path d="M310.716 202.025H262.152C261.889 202.025 261.678 201.812 261.678 201.552C261.678 201.291 261.891 201.078 262.152 201.078H310.716C310.979 201.078 311.192 201.291 311.192 201.552C311.192 201.812 310.979 202.025 310.716 202.025Z" fill="black"/>
<path d="M288.387 211.637H262.177C261.914 211.637 261.703 211.424 261.703 211.163C261.703 210.903 261.917 210.689 262.177 210.689H288.387C288.65 210.689 288.862 210.903 288.862 211.163C288.862 211.424 288.648 211.637 288.387 211.637Z" fill="black"/>
<path d="M369.419 247.404H313.494C313.231 247.404 313.02 247.191 313.02 246.931C313.02 246.67 313.233 246.457 313.494 246.457H369.419C369.682 246.457 369.893 246.67 369.893 246.931C369.893 247.191 369.68 247.404 369.419 247.404Z" fill="black"/>
<path d="M369.419 256.994H313.494C313.231 256.994 313.02 256.781 313.02 256.521C313.02 256.26 313.233 256.047 313.494 256.047H369.419C369.682 256.047 369.893 256.26 369.893 256.521C369.893 256.781 369.68 256.994 369.419 256.994Z" fill="black"/>
<path d="M369.268 266.58H313.343C313.08 266.58 312.869 266.367 312.869 266.105C312.869 265.842 313.083 265.631 313.343 265.631H369.268C369.531 265.631 369.743 265.844 369.743 266.105C369.743 266.365 369.529 266.58 369.268 266.58Z" fill="black"/>
<path d="M371.181 276.168H315.255C314.992 276.168 314.781 275.955 314.781 275.694C314.781 275.434 314.995 275.221 315.255 275.221H371.181C371.444 275.221 371.657 275.434 371.657 275.694C371.657 275.955 371.444 276.168 371.181 276.168Z" fill="black"/>
<path d="M377.481 285.756H350.625C350.362 285.756 350.15 285.543 350.15 285.282C350.15 285.022 350.364 284.809 350.625 284.809H377.481C377.744 284.809 377.956 285.022 377.956 285.282C377.956 285.543 377.742 285.756 377.481 285.756Z" fill="black"/>
<path d="M151.21 324.406L124.006 318.541L114.003 364.828L141.208 370.693L151.21 324.406Z" fill="#FFAB99"/>
<path d="M146.792 344.944L151.209 324.394L124.005 318.531L120.477 334.944L146.792 344.944Z" fill="#020202"/>
<path d="M111.018 388.705H186.973L187.223 381.525C187.223 377.219 184.056 373.572 179.799 372.971L167.898 371.292C166.007 371.025 164.216 370.286 162.685 369.143L156.285 365.244C151.282 362.195 147.818 357.151 146.768 351.381L146.462 349.697H114.098L111.02 388.705H111.018Z" fill="#5A5A5A"/>
<path d="M179.796 372.971L168.121 371.324V388.705H186.972L187.222 381.525C187.222 377.219 184.055 373.572 179.798 372.971H179.796Z" fill="white"/>
<path d="M125.707 387.082C123.228 377.056 116.095 372.808 112.405 371.24L111.015 386.738C110.592 386.738 125.705 387.082 125.705 387.082H125.707Z" fill="#020202"/>
<path d="M157.622 383.168C157.533 383.168 157.443 383.142 157.361 383.09C157.141 382.946 157.081 382.653 157.225 382.433L164.873 370.788C165.018 370.57 165.311 370.508 165.531 370.652C165.75 370.796 165.811 371.089 165.666 371.309L158.018 382.954C157.928 383.092 157.775 383.168 157.619 383.168H157.622Z" fill="black"/>
<path d="M152.312 373.234C152.148 373.234 151.989 373.15 151.901 372.999C151.769 372.773 151.844 372.483 152.071 372.349L159.878 367.789C160.105 367.658 160.396 367.733 160.529 367.959C160.661 368.185 160.585 368.476 160.359 368.609L152.552 373.17C152.476 373.213 152.394 373.234 152.312 373.234Z" fill="black"/>
<path d="M186.97 389.179H111.015C110.883 389.179 110.756 389.123 110.666 389.026C110.575 388.929 110.53 388.797 110.541 388.666L113.619 349.656C113.638 349.408 113.845 349.219 114.093 349.219H146.457C146.688 349.219 146.884 349.382 146.925 349.608L147.231 351.294C148.257 356.927 151.646 361.861 156.528 364.839L162.928 368.738C164.427 369.855 166.153 370.566 167.96 370.822L179.861 372.501C184.327 373.132 187.694 377.01 187.694 381.525L187.444 388.72C187.436 388.976 187.224 389.179 186.97 389.179ZM111.53 388.229H186.511L186.744 381.507C186.744 377.479 183.728 374.004 179.727 373.44L167.826 371.761C165.862 371.483 163.985 370.71 162.396 369.522L156.033 365.646C150.917 362.529 147.369 357.359 146.296 351.462L146.061 350.168H114.533L111.53 388.229Z" fill="black"/>
<path d="M107.616 386.699L107.586 398.205H130.254V394.129H147.096V398.205H192.146V386.701L107.616 386.699Z" fill="black"/>
<path d="M66.6419 339.113L48.5176 319.464L80.3473 290.037L98.4695 309.685L66.6419 339.113Z" fill="#FFAB99"/>
<path d="M84.0663 323.002L98.4701 309.685L80.3479 290.037L68.6602 300.841L84.0663 323.002Z" fill="#020202"/>
<path d="M80.8226 356.688C78.8588 356.443 77.0459 355.513 75.6944 354.068L71.9695 347.747C71.2236 346.479 71.1698 344.92 71.8315 343.605L76.8821 333.55L54.9078 309.26L27.4238 334.59L58.4948 368.939C61.2928 372.031 65.2655 373.796 69.4323 373.796L94.8362 375.583V374.416C94.8362 360.303 85.6059 357.293 80.8226 356.693V356.688Z" fill="#5A5A5A"/>
<path d="M80.8219 356.688C80.7701 356.681 80.7184 356.669 80.6667 356.662L69.4316 373.794H69.4424L94.8355 375.393V374.411C94.8355 360.299 85.6052 357.289 80.8219 356.688Z" fill="white"/>
<path d="M38.5513 346.892C40.487 343.113 41.5864 338.838 41.5864 334.299C41.5864 331.222 40.9677 327.838 38.8531 324.051L27.4219 334.588L38.5513 346.892Z" fill="#020202"/>
<path d="M69.4309 373.791C65.2641 373.791 61.2913 372.028 58.4933 368.934L24.827 331.713L17 338.96L32.7747 356.014L36.3035 352.748L50.2546 368.172L46.8961 371.281L52.8629 377.731C56.8982 382.089 62.5653 384.567 68.5018 384.567H99.8379V373.789H69.4309V373.791Z" fill="#020202"/>
<path d="M94.8365 374.268C94.5736 374.268 94.3623 374.055 94.3623 373.794C94.3623 364.315 89.6027 358.706 80.5988 357.576C79.9176 357.49 79.245 357.326 78.6027 357.087C78.3569 356.994 78.2319 356.723 78.3224 356.476C78.4151 356.228 78.6867 356.105 78.9346 356.196C79.508 356.409 80.1094 356.557 80.7173 356.633C87.376 357.468 95.3129 361.122 95.3129 373.792C95.3129 374.055 95.0995 374.266 94.8387 374.266L94.8365 374.268Z" fill="black"/>
<path d="M66.2939 366.687C66.1516 366.687 66.0093 366.623 65.9166 366.502C65.7571 366.296 65.7959 365.996 66.0029 365.837L78.4278 356.301C78.6347 356.142 78.9344 356.181 79.0939 356.387C79.2534 356.594 79.2146 356.893 79.0077 357.053L66.5827 366.588C66.4965 366.655 66.3952 366.687 66.2939 366.687Z" fill="black"/>
<path d="M63.0569 358.479C62.8715 358.479 62.6947 358.369 62.6193 358.189C62.518 357.947 62.6301 357.668 62.8736 357.566L74.072 352.856C74.3135 352.754 74.5937 352.866 74.695 353.11C74.7963 353.351 74.6842 353.631 74.4406 353.732L63.2423 358.443C63.1819 358.468 63.1194 358.479 63.059 358.479H63.0569Z" fill="black"/>
<path d="M125.782 204.4H91.426V266.19L67.5117 290.516L93.0492 318.854L114.457 296.099C121.732 288.368 125.782 278.145 125.782 267.524V204.4Z" fill="#252525"/>
<path d="M125.781 267.525V263.109C118.515 267.142 113.596 274.895 113.596 283.802C113.596 287.572 114.482 291.133 116.049 294.296C122.315 286.812 125.784 277.343 125.784 267.525H125.781Z" fill="#D1D1D1"/>
<path d="M147.052 217.743V196.975H111.939V215.075C111.939 221.909 113.742 228.624 117.162 234.538L135.285 265.869L118.245 325.548L152.454 332.681L168.699 274.896C171.07 266.463 169.938 257.429 165.565 249.84L147.054 217.74L147.052 217.743Z" fill="#252525"/>
<path d="M147.052 217.743V196.975H111.939V215.075C111.939 221.909 113.742 228.624 117.162 234.538L135.285 265.869L118.245 325.548L152.454 332.681L168.699 274.896C171.07 266.463 169.938 257.429 165.565 249.84L147.054 217.74L147.052 217.743Z" fill="#252525"/>
<path d="M164.015 247.158C160.92 251.159 159.072 256.175 159.072 261.627C159.072 268.831 162.295 275.279 167.369 279.615L168.695 274.896C171.066 266.462 169.937 257.428 165.561 249.839L164.015 247.156V247.158Z" fill="#D1D1D1"/>
<path d="M152.452 333.156C152.419 333.156 152.387 333.152 152.355 333.145L118.145 326.012C118.016 325.986 117.904 325.907 117.835 325.793C117.766 325.679 117.749 325.543 117.785 325.416L134.769 265.928L116.748 234.772C113.291 228.793 111.463 221.981 111.463 215.072V196.972C111.463 196.709 111.676 196.496 111.937 196.496H147.05C147.313 196.496 147.524 196.709 147.524 196.972V217.613L165.97 249.602C170.382 257.254 171.542 266.518 169.151 275.023L152.907 332.807C152.848 333.016 152.659 333.154 152.45 333.154L152.452 333.156ZM118.842 325.188L152.116 332.127L168.239 274.769C170.561 266.51 169.436 257.51 165.15 250.078L146.64 217.979C146.599 217.908 146.578 217.826 146.578 217.742V197.448H112.416V215.074C112.416 221.818 114.201 228.464 117.574 234.301L135.696 265.631C135.761 265.743 135.778 265.875 135.742 265.999L118.842 325.188Z" fill="black"/>
<path d="M147.051 179.91H91.4258V214.976C98.7721 216.412 102.626 216.953 109.059 216.057C118.522 214.739 123.094 210.491 128.138 208.295C140.552 202.889 140.546 208.836 147.051 212.578V179.91Z" fill="black"/>
<path d="M119.934 130.002H111.363V142.489H119.934V130.002Z" fill="#FFAB99"/>
<path d="M128.052 107.848V117.741C128.052 121.366 125.116 124.305 121.494 124.305H118.537L109.369 126.094V123.052C109.369 119.81 111.156 116.832 114.019 115.31L128.052 107.848Z" fill="black"/>
<path d="M117.484 135.534C121.243 134.935 123.753 131.078 123.089 126.919C122.425 122.76 118.839 119.874 115.079 120.472C111.319 121.071 108.81 124.928 109.474 129.087C110.138 133.247 113.724 136.133 117.484 135.534Z" fill="#FFAB99"/>
<path d="M116.499 136.084C114.436 136.084 112.427 135.139 110.968 133.44C110.798 133.242 110.819 132.941 111.02 132.771C111.218 132.598 111.52 132.622 111.69 132.822C113.188 134.566 115.335 135.404 117.435 135.059C120.927 134.489 123.253 130.859 122.617 126.966C122.309 125.071 121.354 123.401 119.929 122.264C118.519 121.138 116.814 120.668 115.133 120.944C114.872 120.985 114.628 120.811 114.587 120.552C114.544 120.294 114.721 120.051 114.98 120.007C116.933 119.689 118.901 120.227 120.524 121.523C122.132 122.809 123.21 124.688 123.557 126.815C124.277 131.225 121.6 135.345 117.59 136C117.228 136.058 116.864 136.088 116.501 136.088L116.499 136.084Z" fill="black"/>
<path d="M109.23 129.958C110.3 133.92 113.897 136.549 117.65 135.935C121.403 135.321 123.979 131.685 123.733 127.588L109.23 129.958Z" fill="black"/>
<path d="M119.95 131.547C119.618 132.064 119.125 132.482 118.506 132.712C117.126 133.227 115.609 132.641 114.908 131.395L119.95 131.547Z" fill="white"/>
<path d="M116.127 118.951C112.395 118.951 109.371 122.299 109.371 126.426C109.371 126.797 109.397 127.163 109.444 127.52L113.818 124.288H122.479C121.647 121.201 119.186 118.951 116.127 118.951Z" fill="black"/>
<path d="M85.2975 195.652C92.4096 195.652 98.1751 189.88 98.1751 182.759C98.1751 175.639 92.4096 169.867 85.2975 169.867C78.1854 169.867 72.4199 175.639 72.4199 182.759C72.4199 189.88 78.1854 195.652 85.2975 195.652Z" fill="#FFAB99"/>
<path d="M85.2972 196.124C77.9336 196.124 71.9453 190.128 71.9453 182.758C71.9453 175.389 77.9357 169.393 85.2972 169.393C92.6586 169.393 98.649 175.389 98.649 182.758C98.649 190.128 92.6586 196.124 85.2972 196.124ZM85.2972 170.34C78.4596 170.34 72.8959 175.91 72.8959 182.758C72.8959 189.607 78.4596 195.175 85.2972 195.175C92.1347 195.175 97.6984 189.605 97.6984 182.758C97.6984 175.912 92.1347 170.34 85.2972 170.34Z" fill="black"/>
<path d="M166.895 158.788L149.047 175.009L123.723 140.41H131.789C143.457 140.41 154.591 145.319 162.468 153.94L166.897 158.788H166.895Z" fill="#008BCE"/>
<path d="M77.4082 160.414L95.2566 176.634L121.699 140.41H113.683C101.583 140.41 90.0832 145.687 82.185 154.863L77.4082 160.414Z" fill="#008BCE"/>
<path d="M150.139 204.679H142.961L133.735 192.539L124.33 204.679H86.9043L90.4524 161.959C91.4634 149.78 101.631 140.412 113.839 140.412H125.572C139.141 140.412 150.141 151.425 150.141 165.01V204.681L150.139 204.679Z" fill="#008BCE"/>
<path d="M146.17 170.011L135.513 161.283L89.5226 173.151L88.3672 187.057C94.9957 187.543 102.445 187.586 109.578 180.777C116.397 174.27 131.35 167.899 146.17 170.009V170.011Z" fill="black"/>
<path d="M162.466 153.941L134.633 160.898L141.533 167.822L164.102 157.711L162.466 153.941Z" fill="black"/>
<path d="M46.1666 198.852L36.7832 173.597L197.805 113.645L207.186 138.899L46.1666 198.852Z" fill="#404040"/>
<path d="M46.1674 199.326C46.1006 199.326 46.0316 199.311 45.9691 199.283C45.8549 199.231 45.7643 199.134 45.7212 199.016L36.34 173.761C36.2495 173.515 36.3745 173.242 36.6202 173.152L197.642 113.199C197.761 113.154 197.89 113.158 198.006 113.212C198.121 113.264 198.211 113.36 198.254 113.479L207.635 138.734C207.726 138.979 207.601 139.252 207.355 139.343L46.3334 199.298C46.2795 199.317 46.2235 199.328 46.1674 199.328V199.326ZM37.3963 173.875L46.4477 198.24L206.579 138.619L197.528 114.254L37.3963 173.875Z" fill="black"/>
<path d="M36.7834 174.072C36.5916 174.072 36.4084 173.953 36.3372 173.764C36.2445 173.518 36.3696 173.245 36.6175 173.152L197.639 113.2C197.883 113.109 198.159 113.232 198.251 113.479C198.344 113.725 198.219 113.998 197.971 114.091L36.9494 174.041C36.8955 174.061 36.8395 174.072 36.7834 174.072Z" fill="black"/>
<path d="M39.1291 180.386C38.9373 180.386 38.7541 180.267 38.6829 180.078C38.5902 179.832 38.7153 179.559 38.9632 179.466L199.985 119.514C200.231 119.423 200.504 119.548 200.597 119.794C200.69 120.039 200.563 120.313 200.317 120.405L39.2951 180.356C39.2412 180.375 39.1852 180.386 39.1291 180.386Z" fill="black"/>
<path d="M41.4748 186.698C41.283 186.698 41.0998 186.58 41.0286 186.39C40.9359 186.145 41.061 185.871 41.3089 185.779L202.331 125.826C202.576 125.736 202.85 125.861 202.943 126.106C203.036 126.352 202.908 126.625 202.663 126.718L41.6408 186.668C41.5869 186.687 41.5309 186.698 41.4748 186.698Z" fill="black"/>
<path d="M43.8203 193.013C43.6284 193.013 43.4452 192.894 43.3741 192.705C43.2814 192.459 43.4086 192.186 43.6543 192.093L204.676 132.141C204.92 132.05 205.196 132.175 205.288 132.421C205.381 132.666 205.254 132.94 205.008 133.032L43.9863 192.983C43.9324 193.002 43.8763 193.013 43.8203 193.013Z" fill="black"/>
<path d="M197.805 113.645L207.186 138.899L224.842 117.953L197.805 113.645Z" fill="white"/>
<path d="M216.777 116.668L219.575 124.203L224.844 117.953L216.777 116.668Z" fill="#404040"/>
<path d="M46.1664 198.852C39.1995 201.446 31.4522 197.894 28.8634 190.92C26.2723 183.946 29.8204 176.189 36.7852 173.597C43.7521 171.003 51.4994 174.555 54.0883 181.529C56.6793 188.502 53.1312 196.259 46.1664 198.852Z" fill="white"/>
<path d="M41.4674 200.179C39.4972 200.179 37.5313 199.755 35.6861 198.911C32.2975 197.361 29.7151 194.581 28.4152 191.087C25.738 183.878 29.4176 175.835 36.6173 173.154C40.1008 171.856 43.8817 171.994 47.2639 173.54C50.6525 175.09 53.2349 177.867 54.5326 181.364C57.2099 188.572 53.5302 196.616 46.3305 199.296C44.7483 199.886 43.1057 200.179 41.4674 200.179ZM41.4804 173.221C39.9542 173.221 38.4237 173.495 36.9493 174.044C30.2389 176.541 26.8115 184.04 29.3055 190.757C30.5148 194.015 32.9226 196.605 36.0806 198.05C39.2299 199.49 42.7522 199.619 45.9985 198.409C52.7089 195.909 56.1364 188.413 53.6402 181.695C52.4309 178.438 50.0252 175.848 46.8672 174.403C45.1471 173.617 43.317 173.221 41.4804 173.221Z" fill="black"/>
<path d="M41.4745 192.427C44.896 192.427 47.6697 189.65 47.6697 186.224C47.6697 182.799 44.896 180.021 41.4745 180.021C38.053 180.021 35.2793 182.799 35.2793 186.224C35.2793 189.65 38.053 192.427 41.4745 192.427Z" fill="#404040"/>
<path d="M207.187 139.376C207.161 139.376 207.133 139.374 207.105 139.37C206.939 139.339 206.799 139.225 206.741 139.066L197.359 113.811C197.301 113.654 197.331 113.475 197.437 113.346C197.545 113.215 197.713 113.15 197.879 113.178L224.917 117.486C225.085 117.512 225.227 117.629 225.287 117.79C225.348 117.952 225.315 118.13 225.205 118.262L207.549 139.21C207.458 139.318 207.325 139.38 207.185 139.38L207.187 139.376ZM198.534 114.242L207.348 137.972L223.938 118.29L198.534 114.242Z" fill="black"/>
<path d="M180.42 139.279L184.27 118.686L162.356 126.845L162.061 128.387C161.572 130.938 161.578 133.561 162.083 136.11L165.691 154.352L182.171 148.216L180.423 139.279H180.42Z" fill="black"/>
<path d="M160.016 119.973L164.954 120.925L166.368 113.561L167.722 113.822L168.129 111.705C168.463 109.966 167.325 108.284 165.588 107.951C163.85 107.617 162.171 108.756 161.837 110.495L160.018 119.975L160.016 119.973Z" fill="#FFAB99"/>
<path d="M165.16 119.827L170.099 120.778L171.513 113.415L172.866 113.675L173.293 111.453C173.617 109.772 172.517 108.149 170.838 107.826L170.625 107.785C168.945 107.462 167.322 108.562 167.001 110.244L165.16 119.829V119.827Z" fill="#FFAB99"/>
<path d="M169.824 122.161L174.763 123.112L176.177 115.749L177.531 116.009L177.957 113.787C178.281 112.106 177.181 110.483 175.502 110.16L175.289 110.119C173.609 109.796 171.986 110.896 171.665 112.577L169.824 122.163V122.161Z" fill="#FFAB99"/>
<path d="M174.537 124.218L179.476 125.17L180.528 119.876L184.313 118.472L184.643 116.749C185.018 114.792 183.739 112.9 181.784 112.521L180.506 112.273C178.549 111.894 176.656 113.178 176.281 115.137L174.537 124.216V124.218Z" fill="#FFAB99"/>
<path d="M158.26 135.295L163.075 128.838C163.075 128.838 161.241 120.857 160.831 118.904C160.73 118.592 160.586 116.426 158.572 113.897C158.516 113.856 156.902 111.324 153.806 111.974L153.726 111.991C152.431 112.262 151.875 113.81 152.705 114.844C153.685 116.067 154.472 116.898 154.834 118.625L158.26 135.295Z" fill="#FFAB99"/>
<path d="M158.402 128.385C157.912 130.937 157.919 133.559 158.423 136.108L163.099 159.748L149.635 173.553L159.945 181.763C163.534 184.62 168.326 185.457 172.667 183.985L173.528 183.692C179.928 181.522 183.736 174.944 182.439 168.304L176.761 139.28L180.367 120.499L160.643 116.703L158.399 128.387L158.402 128.385Z" fill="#FFAB99"/>
<path d="M165.223 119.975C165.192 119.975 165.162 119.973 165.132 119.967C164.873 119.917 164.705 119.67 164.755 119.411L166.533 110.151C166.712 109.215 167.247 108.403 168.036 107.867C168.827 107.331 169.775 107.135 170.713 107.316L170.926 107.357C172.416 107.643 173.565 108.844 173.785 110.345C173.823 110.605 173.642 110.847 173.384 110.883C173.125 110.924 172.884 110.741 172.845 110.483C172.683 109.38 171.84 108.498 170.745 108.289L170.532 108.248C169.846 108.117 169.148 108.259 168.568 108.653C167.988 109.047 167.596 109.641 167.464 110.33L165.686 119.59C165.643 119.818 165.442 119.975 165.22 119.975H165.223Z" fill="black"/>
<path d="M169.9 122.243C169.87 122.243 169.84 122.24 169.81 122.234C169.551 122.184 169.383 121.935 169.432 121.678L171.198 112.485C171.377 111.549 171.911 110.737 172.7 110.201C173.489 109.665 174.442 109.469 175.378 109.65L175.591 109.691C177.089 109.979 178.238 111.187 178.454 112.698C178.49 112.959 178.309 113.198 178.051 113.234C177.794 113.273 177.551 113.09 177.514 112.832C177.357 111.723 176.512 110.836 175.412 110.623L175.201 110.582C174.513 110.448 173.817 110.593 173.237 110.987C172.657 111.381 172.265 111.975 172.133 112.664L170.368 121.857C170.325 122.085 170.124 122.243 169.902 122.243H169.9Z" fill="black"/>
<path d="M158.668 127.469C158.638 127.469 158.607 127.467 158.577 127.461C158.319 127.411 158.15 127.164 158.2 126.905L161.369 110.405C161.554 109.438 162.104 108.602 162.919 108.051C163.734 107.5 164.714 107.298 165.678 107.483C166.536 107.649 167.308 108.114 167.853 108.796C168.017 109.001 167.984 109.3 167.777 109.464C167.573 109.627 167.273 109.595 167.109 109.388C166.706 108.885 166.133 108.538 165.497 108.415C164.781 108.28 164.055 108.428 163.451 108.837C162.848 109.246 162.44 109.866 162.302 110.583L159.133 127.084C159.09 127.312 158.89 127.469 158.668 127.469Z" fill="black"/>
<path d="M164.135 165.466C163.913 165.466 163.715 165.309 163.67 165.083L162.025 156.766C161.973 156.509 162.141 156.26 162.4 156.208C162.659 156.158 162.907 156.324 162.958 156.583L164.603 164.9C164.655 165.156 164.487 165.406 164.228 165.457C164.198 165.464 164.165 165.466 164.135 165.466Z" fill="black"/>
<path d="M168.346 185.168C165.227 185.168 162.161 184.116 159.639 182.096L149.383 173.878C149.279 173.794 149.215 173.671 149.206 173.538C149.197 173.404 149.247 173.273 149.34 173.176L162.584 159.597L157.956 136.2L156.352 128.209L154.369 118.722C154.067 117.278 153.459 116.528 152.616 115.493L152.332 115.142C151.838 114.526 151.702 113.717 151.97 112.972C152.237 112.229 152.855 111.689 153.627 111.527L153.707 111.51C156.555 110.913 158.294 112.746 158.911 113.562C158.924 113.579 158.902 113.553 158.861 113.521C158.891 113.544 158.919 113.57 158.943 113.6C159.874 114.772 160.549 116.027 160.95 117.334C161.027 117.583 160.885 117.85 160.635 117.926C160.383 118.003 160.118 117.861 160.042 117.611C159.678 116.423 159.064 115.278 158.212 114.203C158.193 114.182 158.176 114.158 158.156 114.13C157.527 113.297 156.136 111.966 153.907 112.436L153.828 112.453C153.381 112.545 153.024 112.86 152.871 113.288C152.715 113.719 152.795 114.188 153.08 114.543L153.36 114.89C154.216 115.943 154.955 116.854 155.304 118.524L157.287 128.013L158.891 136.011L163.569 159.655C163.599 159.808 163.552 159.965 163.444 160.079L150.389 173.463L160.238 181.353C163.72 184.144 168.32 184.953 172.545 183.521L173.379 183.239C179.529 181.155 183.224 174.772 181.976 168.392L176.298 139.368C176.287 139.307 176.287 139.247 176.298 139.187L180.064 119.784C180.096 119.62 180.21 119.487 180.365 119.429L183.898 118.117L184.179 116.658C184.504 114.959 183.392 113.312 181.695 112.985L180.417 112.737C179.598 112.58 178.764 112.75 178.072 113.217C177.378 113.687 176.908 114.399 176.748 115.224L175.073 123.95C175.024 124.208 174.776 124.376 174.517 124.327C174.259 124.277 174.09 124.03 174.14 123.771L175.815 115.045C176.022 113.971 176.634 113.043 177.539 112.431C178.443 111.82 179.529 111.598 180.598 111.805L181.876 112.052C184.086 112.479 185.537 114.625 185.112 116.836L184.782 118.557C184.75 118.72 184.636 118.854 184.48 118.912L180.945 120.223L177.248 139.273L182.909 168.207C184.248 175.049 180.281 181.898 173.685 184.135L172.851 184.417C171.374 184.917 169.857 185.162 168.35 185.162L168.346 185.168Z" fill="black"/>
<path d="M149.673 173.977C149.57 173.977 149.464 173.942 149.376 173.873L140.986 167.152C140.782 166.988 140.749 166.689 140.913 166.484C141.077 166.28 141.376 166.247 141.581 166.411L149.971 173.133C150.176 173.296 150.208 173.596 150.044 173.8C149.949 173.916 149.811 173.977 149.673 173.977Z" fill="black"/>
<path d="M375.859 206.016C375.747 206.016 375.635 205.978 375.545 205.898L350.992 184.209C350.882 184.112 350.824 183.967 350.833 183.821C350.844 183.675 350.919 183.541 351.042 183.459L378.237 165.202C378.455 165.055 378.75 165.114 378.897 165.331C379.043 165.549 378.985 165.843 378.767 165.99L352.083 183.905L376.174 205.188C376.37 205.362 376.39 205.661 376.215 205.857C376.12 205.963 375.991 206.016 375.859 206.016Z" fill="black"/>
<path d="M348.541 191.568C352.997 191.568 356.61 187.952 356.61 183.49C356.61 179.029 352.997 175.412 348.541 175.412C344.085 175.412 340.473 179.029 340.473 183.49C340.473 187.952 344.085 191.568 348.541 191.568Z" fill="white"/>
<path d="M348.551 192.044C348.359 192.044 348.168 192.038 347.974 192.025C343.272 191.713 339.703 187.631 340.013 182.924C340.164 180.644 341.192 178.56 342.91 177.055C344.628 175.55 346.827 174.807 349.105 174.954C353.807 175.266 357.376 179.348 357.066 184.054C356.915 186.334 355.887 188.419 354.169 189.924C352.597 191.301 350.621 192.042 348.551 192.042V192.044ZM348.53 175.888C346.691 175.888 344.934 176.547 343.537 177.772C342.011 179.109 341.097 180.963 340.964 182.991C340.688 187.174 343.861 190.804 348.038 191.08C350.058 191.215 352.018 190.55 353.544 189.213C355.07 187.876 355.984 186.022 356.117 183.996C356.393 179.813 353.22 176.183 349.043 175.907C348.872 175.897 348.7 175.89 348.53 175.89V175.888Z" fill="black"/>
<path d="M378.504 173.674C382.96 173.674 386.572 170.057 386.572 165.596C386.572 161.134 382.96 157.518 378.504 157.518C374.048 157.518 370.436 161.134 370.436 165.596C370.436 170.057 374.048 173.674 378.504 173.674Z" fill="#404040"/>
<path d="M378.516 174.15C378.325 174.15 378.133 174.143 377.939 174.13C373.237 173.818 369.665 169.736 369.978 165.03C370.129 162.75 371.157 160.665 372.875 159.161C374.593 157.656 376.792 156.913 379.07 157.059C383.772 157.371 387.344 161.453 387.031 166.16C386.88 168.44 385.852 170.524 384.134 172.029C382.562 173.407 380.586 174.148 378.516 174.148V174.15ZM378.493 157.991C376.654 157.991 374.897 158.65 373.5 159.875C371.974 161.212 371.06 163.066 370.927 165.092C370.648 169.275 373.824 172.905 378.001 173.181C380.019 173.317 381.98 172.653 383.507 171.314C385.033 169.975 385.947 168.123 386.08 166.095C386.358 161.912 383.183 158.282 379.006 158.006C378.833 157.996 378.663 157.989 378.493 157.989V157.991Z" fill="black"/>
<path d="M375.859 213.619C380.316 213.619 383.928 210.002 383.928 205.541C383.928 201.08 380.316 197.463 375.859 197.463C371.403 197.463 367.791 201.08 367.791 205.541C367.791 210.002 371.403 213.619 375.859 213.619Z" fill="white"/>
<path d="M375.872 214.096C375.68 214.096 375.488 214.089 375.294 214.076C370.593 213.764 367.021 209.682 367.333 204.976C367.484 202.696 368.513 200.612 370.231 199.107C371.947 197.602 374.147 196.857 376.426 197.007C381.127 197.32 384.697 201.402 384.387 206.108C384.236 208.388 383.207 210.472 381.489 211.977C379.918 213.355 377.941 214.096 375.872 214.096ZM375.848 197.937C374.009 197.937 372.253 198.596 370.856 199.821C369.33 201.161 368.416 203.012 368.282 205.04C368.004 209.224 371.179 212.854 375.357 213.129C377.381 213.267 379.336 212.602 380.862 211.262C382.388 209.925 383.302 208.072 383.436 206.046C383.712 201.862 380.539 198.232 376.361 197.957C376.191 197.946 376.018 197.94 375.848 197.94V197.937Z" fill="black"/>
<path d="M266.691 339.314H329.859L344.438 352.298V288.264H266.691V339.314Z" fill="white"/>
<path d="M344.437 352.771C344.323 352.771 344.209 352.73 344.121 352.651L329.678 339.786H266.691C266.428 339.786 266.217 339.573 266.217 339.313V288.263C266.217 288 266.43 287.789 266.691 287.789H344.435C344.698 287.789 344.909 288.002 344.909 288.263V352.295C344.909 352.483 344.8 352.653 344.629 352.728C344.567 352.756 344.5 352.769 344.435 352.769L344.437 352.771ZM267.167 338.837H329.859C329.975 338.837 330.087 338.88 330.176 338.957L343.961 351.236V288.736H267.167V338.837Z" fill="black"/>
<path d="M321.518 315.403C322.893 315.403 324.008 314.288 324.008 312.91C324.008 311.532 322.893 310.417 321.518 310.417H319.75C321.126 310.417 322.24 309.299 322.24 307.924C322.24 306.548 321.126 305.431 319.75 305.431H305.332C306.112 302.825 306.47 300.341 306.47 297.563V297.322C306.47 295.985 305.355 294.902 303.98 294.902C302.605 294.902 301.49 295.987 301.49 297.322L300.606 301.032L296.625 307.45V325.38H318.867C320.242 325.38 321.356 324.263 321.356 322.887C321.356 321.511 320.242 320.394 318.867 320.394H321.52C322.895 320.394 324.01 319.277 324.01 317.901C324.01 316.525 322.895 315.408 321.52 315.408L321.518 315.403Z" fill="#404040"/>
<path d="M294.059 307.449H288.189V325.379H294.059V307.449Z" fill="#404040"/>
<path d="M279.59 378.265H216.422L201.846 391.249V327.217H279.59V378.265Z" fill="#008BCE"/>
<path d="M238.725 366.101C238.65 366.101 238.572 366.084 238.503 366.047L232.748 363.018L226.992 366.047C226.833 366.131 226.639 366.118 226.492 366.01C226.346 365.905 226.272 365.724 226.302 365.545L227.402 359.127L222.744 354.582C222.614 354.455 222.567 354.268 222.623 354.096C222.679 353.923 222.828 353.799 223.007 353.773L229.443 352.836L232.321 346.997C232.401 346.836 232.567 346.732 232.748 346.732C232.929 346.732 233.095 346.836 233.175 346.997L236.052 352.836L242.489 353.773C242.668 353.799 242.817 353.923 242.873 354.096C242.929 354.268 242.881 354.455 242.752 354.582L238.094 359.127L239.193 365.545C239.223 365.724 239.15 365.903 239.003 366.01C238.921 366.071 238.822 366.101 238.723 366.101H238.725ZM224.095 354.574L228.242 358.621C228.355 358.731 228.404 358.886 228.378 359.041L227.4 364.757L232.526 362.06C232.664 361.986 232.83 361.986 232.97 362.06L238.096 364.757L237.117 359.041C237.091 358.888 237.141 358.731 237.253 358.621L241.4 354.574L235.669 353.74C235.513 353.719 235.38 353.62 235.311 353.48L232.748 348.283L230.185 353.48C230.116 353.62 229.982 353.717 229.827 353.74L224.095 354.574Z" fill="black"/>
<path d="M251.04 366.101C250.941 366.101 250.844 366.071 250.76 366.011C250.613 365.905 250.54 365.725 250.57 365.546L251.669 359.128L247.011 354.583C246.882 354.456 246.834 354.268 246.89 354.096C246.946 353.924 247.095 353.799 247.274 353.773L253.711 352.837L256.588 346.998C256.748 346.673 257.28 346.673 257.442 346.998L260.32 352.837L266.756 353.773C266.935 353.799 267.084 353.924 267.14 354.096C267.196 354.268 267.149 354.456 267.019 354.583L262.361 359.128L263.461 365.546C263.491 365.725 263.417 365.903 263.271 366.011C263.124 366.116 262.93 366.131 262.771 366.048L257.015 363.018L251.26 366.048C251.191 366.084 251.113 366.101 251.038 366.101H251.04ZM257.017 362.004C257.093 362.004 257.171 362.021 257.239 362.058L262.366 364.756L261.387 359.04C261.361 358.887 261.411 358.729 261.523 358.62L265.67 354.572L259.938 353.737C259.783 353.715 259.649 353.616 259.58 353.476L257.017 348.279L254.454 353.476C254.385 353.616 254.252 353.713 254.097 353.737L248.365 354.572L252.512 358.62C252.624 358.729 252.674 358.884 252.648 359.04L251.669 364.756L256.795 362.058C256.864 362.021 256.94 362.004 257.017 362.004Z" fill="black"/>
<path d="M275.311 366.101C275.212 366.101 275.115 366.071 275.031 366.011C274.885 365.905 274.811 365.725 274.842 365.546L275.941 359.128L271.283 354.583C271.153 354.456 271.106 354.268 271.162 354.096C271.218 353.924 271.367 353.799 271.546 353.773L277.982 352.837L280.86 346.998C281.019 346.673 281.552 346.673 281.714 346.998L284.591 352.837L291.028 353.773C291.207 353.799 291.356 353.924 291.412 354.096C291.468 354.268 291.42 354.456 291.291 354.583L286.633 359.128L287.732 365.546C287.762 365.725 287.689 365.903 287.542 366.011C287.396 366.116 287.202 366.131 287.042 366.048L281.287 363.018L275.531 366.048C275.462 366.084 275.385 366.101 275.309 366.101H275.311ZM281.289 362.004C281.364 362.004 281.442 362.021 281.511 362.058L286.637 364.756L285.658 359.04C285.632 358.887 285.682 358.729 285.794 358.62L289.942 354.572L284.21 353.737C284.055 353.715 283.921 353.616 283.852 353.476L281.289 348.279L278.726 353.476C278.657 353.616 278.523 353.713 278.368 353.737L272.636 354.572L276.786 358.62C276.898 358.729 276.948 358.884 276.922 359.04L275.943 364.756L281.069 362.058C281.138 362.021 281.213 362.004 281.291 362.004H281.289Z" fill="black"/>
<path d="M311.54 366.101C311.464 366.101 311.387 366.084 311.318 366.048L305.562 363.018L299.807 366.048C299.647 366.131 299.453 366.119 299.307 366.011C299.16 365.905 299.087 365.725 299.117 365.546L300.216 359.128L295.558 354.583C295.429 354.456 295.381 354.268 295.437 354.096C295.493 353.924 295.642 353.799 295.821 353.773L302.258 352.837L305.135 346.998C305.295 346.673 305.827 346.673 305.989 346.998L308.867 352.837L315.303 353.773C315.482 353.799 315.631 353.924 315.687 354.096C315.743 354.268 315.696 354.456 315.566 354.583L310.908 359.128L312.007 365.546C312.038 365.725 311.964 365.903 311.818 366.011C311.736 366.071 311.637 366.101 311.538 366.101H311.54ZM305.562 362.004C305.638 362.004 305.715 362.021 305.784 362.058L310.91 364.756L309.932 359.04C309.906 358.887 309.955 358.729 310.067 358.62L314.217 354.572L308.485 353.737C308.33 353.715 308.196 353.616 308.127 353.476L305.564 348.279L303.001 353.476C302.932 353.616 302.799 353.713 302.643 353.737L296.912 354.572L301.061 358.62C301.173 358.729 301.223 358.884 301.197 359.04L300.218 364.756L305.344 362.058C305.413 362.021 305.491 362.004 305.567 362.004H305.562Z" fill="black"/>
<path d="M100.27 100.522L79.5412 108.238L76.9652 126.599L62.943 114.419L42.6048 121.991L24.543 73.3721L82.2098 51.9023L100.27 100.522Z" fill="#020202"/>
<path d="M93.7578 97.5332L73.0294 105.25L70.4535 123.61L56.4313 111.429L36.0909 119.003L18.0312 70.3838L75.6981 48.9141L93.7578 97.5332Z" fill="white"/>
<path d="M70.4526 124.086C70.3405 124.086 70.2284 124.046 70.14 123.97L56.3312 111.974L36.256 119.449C36.1375 119.494 36.0081 119.49 35.8917 119.436C35.7775 119.384 35.687 119.287 35.6438 119.169L17.5842 70.5498C17.4936 70.3044 17.6186 70.031 17.8644 69.9405L75.5312 48.4708C75.6498 48.4277 75.7791 48.432 75.8955 48.4837C76.0098 48.5354 76.1003 48.6322 76.1434 48.7507L94.2031 97.3698C94.2936 97.6153 94.1686 97.8887 93.9229 97.9791L73.4597 105.599L70.9225 123.68C70.8988 123.852 70.7824 123.998 70.6186 124.058C70.5647 124.078 70.5087 124.089 70.4526 124.089V124.086ZM56.4304 110.955C56.5425 110.955 56.6546 110.996 56.7429 111.072L70.1034 122.678L72.5586 105.183C72.5823 105.011 72.6988 104.864 72.8626 104.804L93.1447 97.2514L75.4148 49.5214L18.6404 70.6618L36.3703 118.392L56.2644 110.985C56.3183 110.966 56.3743 110.955 56.4304 110.955Z" fill="black"/>
<path d="M59.1352 68.6638C55.6258 69.9707 53.3991 73.2088 53.2072 76.7268C50.7649 74.1906 46.9646 73.1959 43.4574 74.5006C38.7345 76.2596 36.331 81.5173 38.0857 86.2453C39.2281 89.3219 41.0949 90.7967 44.6516 92.6806L62.3944 101.458L70.0964 83.2052C71.5601 79.4504 72.0085 77.1144 70.866 74.0377C69.1092 69.3097 63.8581 66.9027 59.1352 68.6617V68.6638Z" fill="#FFAB99"/>
<path d="M202.644 258.699L182.947 229.677C182.444 228.936 183.371 228.064 184.078 228.611L207.016 246.367C207.46 246.711 208.111 246.492 208.258 245.947L212.666 229.507C212.875 228.727 213.979 228.729 214.186 229.507L220.329 252.628C220.465 253.138 221.056 253.373 221.504 253.095L233.101 245.895C233.771 245.48 234.567 246.199 234.222 246.909L228.734 258.204C228.516 258.65 228.762 259.184 229.24 259.311L241.129 262.443C241.872 262.639 241.922 263.679 241.2 263.944L225.802 269.604C225.352 269.77 225.153 270.295 225.382 270.717L236.121 290.663C236.535 291.431 235.578 292.202 234.916 291.634L217.699 276.832C217.294 276.483 216.667 276.632 216.462 277.125L211.101 289.967C210.786 290.721 209.676 290.555 209.592 289.743L208.223 276.343C208.161 275.723 207.436 275.419 206.949 275.809L182.509 295.38C181.776 295.968 180.817 295.005 181.405 294.271L200.528 270.429C200.89 269.977 200.657 269.303 200.094 269.169L186.085 265.854C185.292 265.666 185.272 264.542 186.059 264.327L202.205 259.9C202.724 259.758 202.951 259.145 202.647 258.699H202.644Z" fill="#404040"/>
<path d="M141.144 83.7441C153.991 83.7441 164.405 73.3173 164.405 60.4551C164.405 47.5929 153.991 37.166 141.144 37.166C128.297 37.166 117.883 47.5929 117.883 60.4551C117.883 73.3173 128.297 83.7441 141.144 83.7441Z" fill="#A0D2F4"/>
<path d="M148.857 49.996C149.797 49.7721 150.758 49.9529 151.565 50.5041C152.168 50.9153 152.591 51.4837 152.821 52.1942C152.938 52.5538 153.002 52.9391 153.015 53.3461C153.395 53.2061 153.776 53.1243 154.149 53.1006C154.891 53.0533 155.572 53.2363 156.175 53.6475C156.982 54.1987 157.505 55.0297 157.648 55.99C157.788 56.9394 157.544 57.9384 156.962 58.8039C156.363 59.6953 155.484 60.2874 154.197 60.6641C153.046 61.0022 151.61 61.1636 149.948 61.3509C149.381 61.4155 148.736 61.4866 148.064 61.5727C147.885 61.5942 147.706 61.5512 147.557 61.45C147.409 61.3488 147.301 61.1959 147.256 61.0215C147.083 60.3606 146.913 59.7319 146.76 59.1764C146.316 57.5552 145.934 56.1536 145.82 54.9522C145.693 53.6109 145.913 52.5688 146.512 51.6775C147.094 50.812 147.928 50.2134 148.855 49.9938L148.857 49.996Z" fill="white"/>
<path d="M140.39 47.3988C139.737 46.6884 138.841 46.2965 137.864 46.3008C137.133 46.303 136.465 46.5376 135.877 46.9962C135.579 47.2288 135.31 47.5108 135.073 47.8424C134.835 47.513 134.568 47.2309 134.271 47.0027C133.682 46.5463 133.016 46.318 132.285 46.3202C131.309 46.3223 130.41 46.7185 129.755 47.4333C129.108 48.1395 128.75 49.104 128.748 50.1482C128.748 51.2226 129.143 52.2065 129.996 53.24C130.759 54.1657 131.859 55.1045 133.13 56.1917C133.564 56.562 134.057 56.984 134.568 57.4319C134.704 57.5503 134.876 57.6149 135.058 57.6149C135.236 57.6149 135.411 57.5481 135.547 57.4297C136.06 56.9776 136.554 56.5534 136.989 56.181C138.265 55.0872 139.364 54.1399 140.132 53.2098C140.99 52.1699 141.389 51.1838 141.391 50.1095C141.391 49.0653 141.037 48.1029 140.393 47.3988H140.39Z" fill="white"/>
<path d="M128.643 59.3262C126.141 67.2062 131.98 75.2972 140.262 75.3596C145.871 75.4005 150.622 71.6672 152.129 66.5344L128.643 59.3262Z" fill="white"/>
<path d="M140.351 75.8363C140.321 75.8363 140.288 75.8363 140.258 75.8363C136.171 75.8061 132.446 73.89 130.038 70.5786C127.62 67.2522 126.945 63.0991 128.189 59.1849C128.269 58.9373 128.532 58.7974 128.782 58.8749L152.267 66.0832C152.515 66.1607 152.657 66.4212 152.584 66.6709C150.995 72.0793 145.973 75.8384 140.351 75.8384V75.8363ZM128.963 59.9234C127.999 63.4134 128.663 67.0692 130.808 70.021C133.037 73.0847 136.484 74.8588 140.265 74.8868C140.293 74.8868 140.323 74.8868 140.351 74.8868C145.397 74.8868 149.922 71.6142 151.532 66.8496L128.963 59.9234Z" fill="black"/>
<path d="M211.188 197.914H201.99C201.727 197.914 201.516 197.701 201.516 197.44C201.516 197.18 201.729 196.967 201.99 196.967H211.188C211.451 196.967 211.662 197.18 211.662 197.44C211.662 197.701 211.449 197.914 211.188 197.914Z" fill="black"/>
<path d="M233.954 206.51H163.974C163.711 206.51 163.5 206.297 163.5 206.036C163.5 205.776 163.713 205.562 163.974 205.562H233.954C234.217 205.562 234.43 205.776 234.43 206.036C234.43 206.297 234.217 206.51 233.954 206.51Z" fill="black"/>
<path d="M81.993 398.678H50.2711C50.0081 398.678 49.7969 398.465 49.7969 398.204C49.7969 397.944 50.0103 397.73 50.2711 397.73H81.993C82.256 397.73 82.4673 397.944 82.4673 398.204C82.4673 398.465 82.2539 398.678 81.993 398.678Z" fill="black"/>
<path d="M106.299 410H67.5563C67.2933 410 67.082 409.787 67.082 409.526C67.082 409.266 67.2954 409.053 67.5563 409.053H106.299C106.562 409.053 106.773 409.266 106.773 409.526C106.773 409.787 106.56 410 106.299 410Z" fill="black"/>
</g>
</g>
<defs>
<clipPath id="clip0_2430_9614">
<rect width="427" height="425" fill="white"/>
</clipPath>
<clipPath id="clip1_2430_9614">
<rect width="394" height="394" fill="white" transform="translate(17 16)"/>
</clipPath>
</defs>
</svg>
