<svg width="427" height="425" viewBox="0 0 427 425" fill="none" xmlns="http://www.w3.org/2000/svg">
<g clip-path="url(#clip0_2434_11365)">
<path d="M400.041 382.57C388.531 392.16 338.441 398.94 278.761 401.49C187.021 405.42 72.6009 399.37 40.7909 378.2C25.7309 368.19 15.5509 337.25 9.1009 297.66C-6.9291 199.16 0.220901 47.1301 13.1609 30.6501C31.3109 7.56009 323.301 -15.3099 399.911 13.9301C432.741 26.4601 429.231 358.23 400.031 382.57H400.041Z" fill="white"/>
<path d="M373.314 247.44L375.204 241.883L377.358 247.44C377.358 247.44 381.657 248.14 381.712 248.531C381.757 248.913 377.595 250.095 377.595 250.095C377.595 250.095 375.85 255.488 375.204 254.27C374.568 253.051 373.95 250.35 373.95 250.35C373.95 250.35 368.533 249.268 368.533 248.731C368.533 248.158 373.314 247.449 373.314 247.449V247.44Z" fill="white"/>
<path d="M304.094 233.142L305.566 228.822L307.238 233.142C307.238 233.142 310.574 233.688 310.619 233.988C310.656 234.279 307.429 235.198 307.429 235.198C307.429 235.198 306.075 239.381 305.575 238.435C305.075 237.49 304.594 235.389 304.594 235.389C304.594 235.389 300.395 234.543 300.395 234.134C300.395 233.688 304.103 233.142 304.103 233.142H304.094Z" fill="white"/>
<g clip-path="url(#clip1_2434_11365)">
<path opacity="0.4" d="M407.181 264.085C414.942 256.352 414.942 243.813 407.181 236.079C399.421 228.345 386.839 228.345 379.079 236.079C371.318 243.813 371.318 256.352 379.079 264.085C386.839 271.819 399.421 271.819 407.181 264.085Z" fill="#E5E5FF"/>
<path opacity="0.4" d="M87.5794 133.221C99.4174 121.423 99.4174 102.296 87.5794 90.4979C75.7413 78.7003 56.5481 78.7003 44.7101 90.4979C32.872 102.296 32.872 121.423 44.7101 133.221C56.5481 145.018 75.7413 145.018 87.5794 133.221Z" fill="#E5E5FF"/>
<path opacity="0.4" d="M170.997 82.8151C179.725 82.8151 186.8 75.7639 186.8 67.0658C186.8 58.3676 179.725 51.3164 170.997 51.3164C162.269 51.3164 155.193 58.3676 155.193 67.0658C155.193 75.7639 162.269 82.8151 170.997 82.8151Z" fill="#E5E5FF"/>
<path d="M148.375 74.8498C147.397 74.8498 146.411 74.773 145.441 74.6218L145.535 74.0289C146.472 74.1753 147.428 74.2497 148.375 74.2497H148.485L148.49 74.8498H148.375ZM151.532 74.5858L151.431 73.9953C152.399 73.832 153.363 73.5872 154.3 73.2703L154.495 73.8392C153.529 74.1681 152.532 74.4201 151.532 74.5882V74.5858ZM142.471 73.9113C141.505 73.5968 140.556 73.2007 139.653 72.735L139.93 72.2021C140.804 72.651 141.724 73.0351 142.659 73.3399L142.471 73.9113ZM157.299 72.6294L157.017 72.0989C157.889 71.638 158.727 71.1051 159.51 70.5122L159.874 70.9899C159.064 71.602 158.2 72.1541 157.299 72.6294ZM137.056 71.1291C136.237 70.5266 135.462 69.8521 134.753 69.1272L135.185 68.7071C135.871 69.408 136.623 70.0609 137.415 70.6442L137.056 71.1267V71.1291ZM162.152 68.9567L161.716 68.5438C162.393 67.8333 163.019 67.0604 163.573 66.249L164.072 66.5875C163.499 67.4252 162.853 68.2222 162.155 68.9567H162.152ZM132.805 66.7819C132.222 65.9538 131.702 65.0704 131.261 64.1558L131.803 63.8942C132.232 64.7799 132.735 65.6345 133.299 66.4387L132.805 66.7819ZM165.582 63.9422L165.038 63.6877C165.457 62.7972 165.806 61.8682 166.076 60.9248L166.654 61.0905C166.375 62.065 166.013 63.0228 165.582 63.9422ZM130.153 61.3161C129.861 60.3415 129.645 59.3405 129.515 58.3371L130.112 58.2603C130.24 59.2301 130.447 60.2023 130.731 61.1433L130.155 61.3161H130.153ZM167.254 58.1043L166.656 58.0347C166.741 57.3265 166.782 56.6088 166.782 55.8983C166.782 55.6294 166.774 55.3558 166.762 55.0869L167.365 55.0605C167.377 55.339 167.384 55.6198 167.384 55.8983C167.384 56.6328 167.34 57.3746 167.254 58.1043ZM129.967 55.315L129.365 55.2958C129.399 54.2828 129.515 53.265 129.71 52.2688L130.3 52.384C130.11 53.349 129.996 54.3332 129.965 55.315H129.967ZM166.394 52.1608C166.194 51.203 165.912 50.2524 165.558 49.3307L166.119 49.1146C166.485 50.0652 166.777 51.047 166.984 52.036L166.394 52.1584V52.1608ZM131.104 49.5467L130.541 49.3379C130.892 48.3873 131.326 47.4583 131.827 46.5749L132.352 46.8702C131.868 47.7248 131.449 48.6249 131.107 49.5443L131.104 49.5467ZM165.503 49.1938C165.141 48.2769 164.705 47.3863 164.204 46.5437L164.722 46.2389C165.238 47.1078 165.688 48.0296 166.061 48.9754L165.5 49.1938H165.503ZM134.004 44.4265L133.535 44.0521C134.171 43.2599 134.876 42.5134 135.63 41.8365L136.035 42.2829C135.305 42.9407 134.623 43.6608 134.007 44.4289L134.004 44.4265ZM162.499 44.1337C161.868 43.3823 161.169 42.6742 160.425 42.0309L160.818 41.5772C161.589 42.2397 162.309 42.9719 162.959 43.7472L162.497 44.1313L162.499 44.1337ZM138.381 40.4898L138.056 39.9857C138.908 39.4384 139.814 38.9535 140.749 38.5478L140.99 39.0975C140.084 39.4912 139.207 39.9593 138.381 40.4898ZM158.038 40.2906C157.2 39.7769 156.313 39.3256 155.403 38.9487L155.634 38.3942C156.574 38.7807 157.489 39.2488 158.356 39.7793L158.041 40.2906H158.038ZM143.788 38.1326L143.639 37.5517C144.627 37.2972 145.638 37.122 146.65 37.0308L146.705 37.6285C145.727 37.7173 144.745 37.8877 143.791 38.1326H143.788ZM152.587 38.0437C151.629 37.8181 150.643 37.6693 149.663 37.5997L149.707 37.002C150.721 37.074 151.737 37.2276 152.727 37.4628L152.587 38.0461V38.0437Z" fill="#2F2F2F"/>
<path d="M338.082 284.577L338.073 283.977C339.07 283.961 340.077 283.92 341.067 283.857L341.105 284.455C340.108 284.517 339.091 284.561 338.085 284.577H338.082ZM335.057 284.561C334.055 284.532 333.039 284.479 332.039 284.405L332.085 283.807C333.075 283.881 334.081 283.934 335.076 283.963L335.059 284.563L335.057 284.561ZM344.114 284.193L344.046 283.598C345.036 283.488 346.033 283.353 347.014 283.2L347.108 283.793C346.118 283.949 345.111 284.085 344.111 284.196L344.114 284.193ZM329.028 284.107C328.033 283.985 327.029 283.838 326.036 283.67L326.138 283.08C327.12 283.248 328.118 283.394 329.1 283.514L329.028 284.109V284.107ZM350.085 283.248L349.962 282.66C350.937 282.458 351.92 282.23 352.879 281.983L353.028 282.564C352.06 282.813 351.067 283.041 350.082 283.245L350.085 283.248ZM323.069 283.089C322.089 282.873 321.101 282.633 320.133 282.371L320.289 281.793C321.248 282.052 322.228 282.29 323.199 282.504L323.069 283.089ZM355.94 281.743L355.762 281.169C356.713 280.876 357.667 280.557 358.602 280.221L358.807 280.785C357.865 281.123 356.899 281.447 355.94 281.743ZM317.233 281.517C316.279 281.21 315.315 280.876 314.371 280.523L314.583 279.961C315.518 280.312 316.472 280.643 317.418 280.946L317.233 281.517ZM361.617 279.695L361.386 279.14C362.299 278.761 363.219 278.356 364.118 277.931L364.375 278.473C363.467 278.9 362.54 279.311 361.617 279.695ZM311.56 279.395C310.635 278.999 309.71 278.574 308.807 278.135L309.072 277.595C309.966 278.029 310.883 278.449 311.799 278.843L311.56 279.395ZM367.073 277.127L366.791 276.596C367.668 276.133 368.545 275.641 369.397 275.134L369.706 275.65C368.843 276.159 367.957 276.656 367.073 277.127ZM306.117 276.747C305.238 276.267 304.356 275.758 303.496 275.235L303.809 274.724C304.662 275.242 305.534 275.746 306.406 276.222L306.117 276.747ZM372.266 274.054L371.934 273.552C372.765 273.005 373.593 272.434 374.393 271.853L374.747 272.338C373.94 272.926 373.104 273.502 372.264 274.054H372.266ZM300.953 273.603C300.124 273.043 299.295 272.453 298.488 271.853L298.85 271.373C299.649 271.968 300.471 272.551 301.292 273.106L300.955 273.603H300.953ZM377.149 270.506L376.773 270.038C377.546 269.419 378.317 268.771 379.063 268.115L379.461 268.564C378.709 269.227 377.931 269.88 377.149 270.506ZM296.109 269.99C295.333 269.354 294.562 268.689 293.82 268.019L294.225 267.575C294.962 268.24 295.723 268.898 296.492 269.527L296.109 269.99ZM381.679 266.519L381.26 266.087C381.973 265.398 382.681 264.68 383.361 263.958L383.799 264.368C383.112 265.098 382.399 265.82 381.679 266.517V266.519ZM291.626 265.943C290.913 265.235 290.21 264.505 289.533 263.768L289.976 263.362C290.646 264.092 291.342 264.817 292.05 265.518L291.626 265.943ZM385.817 262.124L385.36 261.735C386.008 260.979 386.644 260.201 387.253 259.418L387.727 259.786C387.113 260.573 386.47 261.36 385.817 262.124ZM287.546 261.497C286.903 260.727 286.272 259.934 285.667 259.138L286.146 258.775C286.744 259.565 287.37 260.35 288.008 261.113L287.546 261.497ZM389.527 257.361L389.035 257.016C389.609 256.204 390.17 255.366 390.702 254.531L391.21 254.853C390.673 255.695 390.107 256.54 389.527 257.359V257.361ZM283.902 256.694C283.335 255.871 282.781 255.021 282.254 254.171L282.767 253.857C283.29 254.699 283.839 255.539 284.4 256.355L283.904 256.694H283.902ZM392.771 252.272L392.249 251.975C392.742 251.115 393.222 250.229 393.675 249.344L394.212 249.617C393.754 250.51 393.27 251.403 392.771 252.272ZM280.727 251.576C280.24 250.702 279.768 249.805 279.325 248.912L279.865 248.645C280.305 249.531 280.77 250.419 281.252 251.286L280.724 251.576H280.727ZM395.524 246.895L394.975 246.648C395.387 245.741 395.78 244.814 396.146 243.895L396.705 244.116C396.336 245.045 395.939 245.981 395.522 246.895H395.524ZM278.053 246.185C277.651 245.27 277.268 244.334 276.912 243.403L277.475 243.189C277.829 244.111 278.21 245.037 278.607 245.945L278.056 246.185H278.053ZM397.752 241.281L397.182 241.086C397.502 240.15 397.805 239.192 398.082 238.239L398.66 238.407C398.381 239.37 398.075 240.337 397.75 241.281H397.752ZM275.897 240.563C275.584 239.61 275.288 238.64 275.023 237.678L275.604 237.517C275.869 238.47 276.16 239.43 276.471 240.373L275.9 240.56L275.897 240.563ZM399.436 235.493L398.851 235.354C399.082 234.394 399.292 233.41 399.477 232.435L400.07 232.545C399.882 233.53 399.67 234.521 399.436 235.493ZM274.286 234.754C274.064 233.782 273.865 232.788 273.689 231.799L274.281 231.693C274.455 232.673 274.655 233.657 274.874 234.619L274.286 234.751V234.754ZM400.561 229.574L399.966 229.49C400.103 228.513 400.221 227.514 400.315 226.525L400.915 226.58C400.821 227.579 400.703 228.587 400.563 229.574H400.561ZM273.231 228.822C273.103 227.833 272.997 226.825 272.916 225.824L273.515 225.776C273.597 226.767 273.701 227.766 273.828 228.745L273.231 228.822ZM401.122 223.575L400.52 223.546C400.566 222.56 400.59 221.556 400.59 220.562H401.192C401.192 221.566 401.168 222.579 401.122 223.575ZM272.74 222.816C272.713 222.072 272.701 221.314 272.701 220.562C272.701 220.308 272.701 220.056 272.706 219.804L273.308 219.811C273.306 220.061 273.303 220.313 273.303 220.562C273.303 221.306 273.315 222.058 273.342 222.797L272.74 222.819V222.816ZM400.573 219.086C400.551 218.095 400.503 217.091 400.436 216.105L401.035 216.064C401.105 217.06 401.151 218.073 401.175 219.074L400.573 219.088V219.086ZM273.412 216.827L272.81 216.794C272.867 215.793 272.949 214.782 273.055 213.791L273.655 213.853C273.551 214.835 273.47 215.836 273.412 216.827ZM400.159 213.133C400.043 212.151 399.903 211.157 399.742 210.178L400.337 210.08C400.501 211.069 400.643 212.072 400.758 213.063L400.161 213.133H400.159ZM274.038 210.891L273.443 210.8C273.595 209.811 273.773 208.812 273.971 207.833L274.561 207.953C274.363 208.923 274.187 209.912 274.038 210.891ZM399.183 207.242C398.976 206.275 398.742 205.298 398.487 204.338L399.07 204.184C399.325 205.154 399.561 206.14 399.771 207.115L399.181 207.24L399.183 207.242ZM275.223 205.041L274.64 204.895C274.886 203.925 275.156 202.948 275.447 201.99L276.023 202.163C275.736 203.111 275.466 204.078 275.223 205.039V205.041ZM397.656 201.472C397.357 200.526 397.032 199.575 396.688 198.646L397.254 198.44C397.601 199.378 397.928 200.336 398.232 201.292L397.658 201.472H397.656ZM276.96 199.321L276.391 199.119C276.728 198.173 277.092 197.225 277.473 196.299L278.029 196.527C277.651 197.446 277.292 198.385 276.957 199.321H276.96ZM395.589 195.879C395.204 194.971 394.79 194.057 394.361 193.164L394.903 192.904C395.337 193.807 395.756 194.729 396.143 195.646L395.589 195.879ZM279.236 193.785L278.689 193.531C279.113 192.626 279.566 191.716 280.033 190.826L280.566 191.104C280.101 191.985 279.653 192.888 279.234 193.783L279.236 193.785ZM393.005 190.506C392.535 189.637 392.037 188.766 391.524 187.916L392.039 187.607C392.557 188.466 393.06 189.344 393.535 190.221L393.005 190.506ZM282.025 188.492L281.505 188.187C282.013 187.326 282.55 186.462 283.099 185.621L283.603 185.95C283.058 186.781 282.529 187.638 282.025 188.492ZM389.922 185.398C389.37 184.575 388.792 183.754 388.202 182.957L388.686 182.602C389.281 183.406 389.866 184.236 390.423 185.067L389.922 185.401V185.398ZM285.301 183.49L284.812 183.139C285.4 182.328 286.014 181.521 286.64 180.736L287.112 181.111C286.491 181.889 285.884 182.69 285.301 183.492V183.49ZM386.369 180.597C385.743 179.829 385.09 179.063 384.428 178.326L384.878 177.926C385.548 178.672 386.205 179.443 386.839 180.218L386.371 180.597H386.369ZM289.032 178.814L288.579 178.418C289.242 177.664 289.928 176.917 290.624 176.197L291.058 176.613C290.369 177.325 289.687 178.067 289.032 178.814ZM382.38 176.147C381.682 175.439 380.959 174.738 380.232 174.066L380.641 173.626C381.376 174.306 382.106 175.011 382.809 175.727L382.378 176.147H382.38ZM293.182 174.51L292.768 174.075C293.498 173.386 294.252 172.707 295.01 172.054L295.403 172.508C294.651 173.153 293.902 173.828 293.182 174.51ZM377.989 172.085C377.23 171.447 376.445 170.818 375.655 170.213L376.021 169.738C376.821 170.347 377.613 170.986 378.377 171.629L377.989 172.088V172.085ZM297.718 170.614L297.347 170.141C298.137 169.524 298.951 168.919 299.767 168.338L300.117 168.828C299.307 169.402 298.5 170.002 297.718 170.614ZM373.234 168.449C372.416 167.882 371.575 167.328 370.734 166.802L371.055 166.293C371.905 166.823 372.753 167.383 373.579 167.956L373.234 168.449ZM302.595 167.16L302.27 166.655C303.113 166.115 303.983 165.587 304.85 165.088L305.151 165.606C304.291 166.101 303.433 166.624 302.595 167.16ZM368.155 165.273C367.287 164.785 366.396 164.313 365.507 163.866L365.777 163.331C366.676 163.782 367.574 164.26 368.448 164.749L368.152 165.273H368.155ZM307.774 164.176L307.497 163.643C308.386 163.184 309.299 162.743 310.211 162.325L310.462 162.87C309.559 163.283 308.655 163.722 307.774 164.176ZM362.798 162.587C361.887 162.183 360.955 161.797 360.028 161.437L360.247 160.878C361.184 161.242 362.126 161.631 363.043 162.039L362.798 162.587ZM313.208 161.694L312.984 161.137C313.916 160.762 314.87 160.407 315.816 160.078L316.014 160.645C315.077 160.969 314.133 161.322 313.21 161.694H313.208ZM357.202 160.417C356.258 160.102 355.297 159.805 354.341 159.536L354.505 158.957C355.471 159.231 356.441 159.529 357.395 159.848L357.205 160.417H357.202ZM318.863 159.733L318.692 159.156C319.653 158.873 320.636 158.609 321.612 158.371L321.756 158.955C320.788 159.19 319.817 159.452 318.863 159.733ZM351.441 158.787C350.473 158.561 349.487 158.357 348.507 158.179L348.615 157.589C349.603 157.769 350.6 157.975 351.576 158.203L351.438 158.787H351.441ZM324.68 158.311L324.565 157.723C325.55 157.531 326.552 157.361 327.544 157.217L327.631 157.81C326.648 157.954 325.654 158.122 324.678 158.311H324.68ZM345.549 157.711C344.564 157.579 343.562 157.467 342.572 157.38L342.625 156.782C343.625 156.869 344.636 156.982 345.631 157.116L345.552 157.711H345.549ZM330.606 157.447L330.546 156.85C331.543 156.751 332.557 156.674 333.561 156.624L333.592 157.224C332.598 157.274 331.593 157.351 330.606 157.447ZM339.585 157.188C338.711 157.152 337.822 157.135 336.948 157.135C336.827 157.135 336.709 157.135 336.591 157.135L336.586 156.535C336.707 156.535 336.83 156.535 336.948 156.535C337.832 156.535 338.728 156.554 339.609 156.588L339.585 157.188Z" fill="#2F2F2F"/>
<path d="M76.3017 214.376C75.2901 214.371 74.2736 214.328 73.274 214.251L73.3198 213.653C74.3049 213.728 75.3093 213.768 76.3041 213.776V214.376H76.3017ZM79.3318 214.287L79.2933 213.689C80.2832 213.624 81.2828 213.524 82.2656 213.392L82.3475 213.987C81.3503 214.124 80.3362 214.225 79.3318 214.289V214.287ZM70.2632 213.915C69.266 213.766 68.264 213.581 67.2836 213.363L67.4161 212.777C68.382 212.993 69.3695 213.176 70.3523 213.322L70.2632 213.915ZM85.3318 213.466L85.2066 212.878C86.1773 212.674 87.1528 212.431 88.1042 212.158L88.2704 212.734C87.3021 213.012 86.3146 213.257 85.3294 213.464L85.3318 213.466ZM64.3499 212.597C63.384 212.309 62.4181 211.98 61.4763 211.622L61.6907 211.061C62.618 211.414 63.5719 211.738 64.5233 212.021L64.3499 212.595V212.597ZM91.1536 211.798L90.9465 211.234C91.8762 210.893 92.8035 210.513 93.7068 210.108L93.9549 210.655C93.0372 211.068 92.0954 211.452 91.1536 211.798ZM58.6822 210.444C57.7694 210.019 56.8613 209.556 55.9821 209.068L56.276 208.545C57.1431 209.028 58.0391 209.484 58.9376 209.901L58.6822 210.446V210.444ZM96.6671 209.313L96.3804 208.785C97.25 208.315 98.1171 207.806 98.9529 207.275L99.2781 207.782C98.4302 208.322 97.551 208.838 96.6671 209.313ZM53.388 207.501C52.5473 206.951 51.7139 206.363 50.9143 205.756L51.2804 205.278C52.0704 205.878 52.8918 206.457 53.7204 206.999L53.3904 207.501H53.388ZM101.771 206.065L101.412 205.583C102.207 204.992 102.992 204.366 103.744 203.723L104.136 204.176C103.375 204.832 102.578 205.465 101.771 206.065ZM48.5706 203.838C47.8167 203.175 47.0772 202.474 46.3715 201.759L46.8002 201.339C47.4964 202.045 48.2262 202.734 48.9681 203.389L48.5706 203.838ZM106.36 202.126L105.936 201.701C106.639 201.005 107.328 200.273 107.978 199.529L108.431 199.923C107.769 200.679 107.073 201.421 106.357 202.126H106.36ZM44.3241 199.531C43.6714 198.768 43.0379 197.971 42.443 197.162L42.9271 196.807C43.5148 197.601 44.1362 198.389 44.7818 199.142L44.3241 199.531ZM110.344 197.575L109.862 197.215C110.459 196.425 111.035 195.604 111.574 194.774L112.08 195.1C111.533 195.943 110.948 196.776 110.344 197.577V197.575ZM40.74 194.668C40.2029 193.821 39.6922 192.942 39.2177 192.059L39.7501 191.776C40.2173 192.647 40.7207 193.513 41.2507 194.349L40.74 194.668ZM113.636 192.503L113.109 192.215C113.588 191.348 114.041 190.453 114.455 189.553L115.002 189.802C114.583 190.715 114.123 191.622 113.636 192.503ZM37.8881 189.346C37.4787 188.429 37.0981 187.488 36.7585 186.547L37.3245 186.343C37.6617 187.272 38.0351 188.199 38.4397 189.101L37.8906 189.346H37.8881ZM116.168 187.013L115.604 186.802C115.951 185.875 116.271 184.925 116.551 183.979L117.129 184.149C116.845 185.112 116.522 186.074 116.168 187.015V187.013ZM35.8311 183.672C35.559 182.707 35.3181 181.718 35.1158 180.736L35.7059 180.616C35.9058 181.583 36.1419 182.558 36.4116 183.508L35.8311 183.672ZM117.878 181.221L117.29 181.094C117.5 180.129 117.678 179.142 117.82 178.163L118.415 178.247C118.273 179.24 118.092 180.239 117.878 181.218V181.221ZM34.6148 177.757C34.4847 176.763 34.3883 175.753 34.3281 174.752L34.9303 174.716C34.9881 175.705 35.0844 176.701 35.2121 177.68L34.6148 177.759V177.757ZM118.738 175.244L118.138 175.2C118.208 174.216 118.244 173.215 118.244 172.224H118.846C118.846 173.227 118.81 174.243 118.74 175.241L118.738 175.244ZM34.858 171.739L34.2559 171.732C34.2679 170.728 34.3161 169.713 34.398 168.714L34.9977 168.765C34.9158 169.749 34.8701 170.75 34.858 171.739ZM118.193 170.229C118.145 169.24 118.063 168.242 117.945 167.262L118.543 167.19C118.661 168.184 118.745 169.194 118.793 170.2L118.191 170.229H118.193ZM35.3494 165.807L34.7545 165.716C34.9086 164.725 35.1013 163.726 35.3253 162.749L35.913 162.884C35.6914 163.846 35.5011 164.83 35.3494 165.807ZM117.488 164.319C117.3 163.349 117.073 162.372 116.818 161.417L117.399 161.261C117.659 162.231 117.887 163.22 118.078 164.204L117.485 164.317L117.488 164.319ZM36.6862 160.008L36.1105 159.833C36.4068 158.873 36.7416 157.91 37.1053 156.976L37.6665 157.195C37.3077 158.116 36.9777 159.065 36.6862 160.01V160.008ZM115.939 158.573C115.614 157.641 115.25 156.707 114.857 155.8L115.411 155.562C115.809 156.482 116.177 157.427 116.507 158.373L115.939 158.57V158.573ZM38.8516 154.453L38.3073 154.196C38.7384 153.289 39.2081 152.387 39.7043 151.513L40.2294 151.808C39.7404 152.67 39.2779 153.56 38.8516 154.453ZM113.578 153.114C113.121 152.238 112.627 151.366 112.109 150.524L112.622 150.209C113.147 151.064 113.651 151.947 114.113 152.838L113.578 153.114ZM41.7926 149.268L41.2916 148.937C41.848 148.102 42.443 147.276 43.0596 146.481L43.5365 146.849C42.9295 147.631 42.3442 148.447 41.795 149.271L41.7926 149.268ZM110.457 148.044C109.879 147.24 109.264 146.448 108.631 145.687L109.093 145.303C109.737 146.073 110.36 146.878 110.946 147.694L110.457 148.044ZM45.4442 144.556L44.9961 144.155C45.6658 143.406 46.3715 142.674 47.0941 141.976L47.5132 142.405C46.8002 143.094 46.1041 143.817 45.4442 144.554V144.556ZM106.639 143.466C105.953 142.754 105.23 142.055 104.495 141.393L104.9 140.948C105.647 141.621 106.379 142.329 107.075 143.054L106.641 143.469L106.639 143.466ZM49.7292 140.413L49.3414 139.955C50.1098 139.309 50.9143 138.685 51.7284 138.094L52.0825 138.579C51.2804 139.16 50.4879 139.777 49.7292 140.413ZM102.209 139.475C101.427 138.865 100.612 138.277 99.7911 137.725L100.128 137.228C100.964 137.787 101.788 138.385 102.583 139.004L102.212 139.477L102.209 139.475ZM54.561 136.918L54.2431 136.409C55.0981 135.879 55.9821 135.375 56.8709 134.909L57.1503 135.439C56.2736 135.9 55.4016 136.397 54.561 136.918ZM97.25 136.152C96.3877 135.66 95.4989 135.192 94.6028 134.765L94.863 134.225C95.771 134.659 96.6743 135.135 97.5462 135.634L97.2476 136.155L97.25 136.152ZM59.8408 134.148L59.5999 133.598C60.5201 133.197 61.4667 132.823 62.4157 132.489L62.618 133.056C61.6835 133.385 60.7513 133.754 59.8432 134.15L59.8408 134.148ZM91.8642 133.569C90.9416 133.205 89.9926 132.871 89.0436 132.576L89.2243 132.002C90.1853 132.302 91.1488 132.643 92.0858 133.01L91.8642 133.569ZM65.4651 132.16L65.3061 131.582C66.2744 131.315 67.2668 131.083 68.2567 130.886L68.3748 131.474C67.4017 131.666 66.4237 131.899 65.4675 132.16H65.4651ZM86.1628 131.786C85.197 131.558 84.2118 131.363 83.2315 131.207L83.3278 130.614C84.3202 130.773 85.3222 130.972 86.3001 131.203L86.1628 131.786ZM71.323 131.001L71.2483 130.406C72.2455 130.281 73.2595 130.192 74.2664 130.139L74.2977 130.739C73.3053 130.792 72.3033 130.881 71.323 131.003V131.001ZM80.2688 130.84C79.2837 130.754 78.2792 130.701 77.2844 130.684L77.2941 130.084C78.3009 130.101 79.3198 130.156 80.3194 130.242L80.2664 130.84H80.2688Z" fill="#2F2F2F"/>
<path d="M245.906 71.1827C240.304 71.1827 235.744 66.6411 235.744 61.0552C235.744 55.4694 240.301 50.9277 245.906 50.9277C251.511 50.9277 256.069 55.4694 256.069 61.0552C256.069 66.6411 251.511 71.1827 245.906 71.1827ZM245.906 51.3814C240.552 51.3814 236.197 55.7214 236.197 61.0576C236.197 66.3938 240.552 70.7338 245.906 70.7338C251.261 70.7338 255.616 66.3938 255.616 61.0576C255.616 55.7214 251.261 51.3814 245.906 51.3814Z" fill="#2F2F2F"/>
<path d="M351.625 107.535V290.013C351.625 293.813 348.535 296.89 344.729 296.89H78.645C74.8345 296.89 71.7441 293.813 71.7441 290.013V107.535C71.7441 103.736 74.8345 100.658 78.645 100.658H344.732C348.537 100.658 351.628 103.736 351.628 107.535H351.625Z" fill="white"/>
<path d="M344.732 297.187H78.6453C74.6734 297.187 71.4434 293.968 71.4434 290.01V107.535C71.4434 103.576 74.6734 100.357 78.6453 100.357H344.732C348.699 100.357 351.929 103.576 351.929 107.535V290.01C351.929 293.968 348.701 297.187 344.732 297.187ZM78.6453 100.958C75.0058 100.958 72.0455 103.908 72.0455 107.535V290.01C72.0455 293.637 75.0058 296.587 78.6453 296.587H344.732C348.366 296.587 351.327 293.637 351.327 290.01V107.535C351.327 103.908 348.369 100.958 344.732 100.958H78.6453Z" fill="#2F2F2F"/>
<path d="M351.625 107.535V118.362H71.7441V107.535C71.7441 103.736 74.8345 100.658 78.645 100.658H344.732C348.537 100.658 351.628 103.736 351.628 107.535H351.625Z" fill="white"/>
<path d="M351.926 118.661H71.4434V107.535C71.4434 103.576 74.6734 100.357 78.6453 100.357H344.732C348.699 100.357 351.929 103.576 351.929 107.535V118.661H351.926ZM72.0455 118.061H351.327V107.535C351.327 103.908 348.369 100.958 344.732 100.958H78.6453C75.0058 100.958 72.0455 103.908 72.0455 107.535V118.061Z" fill="#2F2F2F"/>
<path d="M87.283 112.708C89.0563 112.708 90.4938 111.276 90.4938 109.508C90.4938 107.741 89.0563 106.309 87.283 106.309C85.5098 106.309 84.0723 107.741 84.0723 109.508C84.0723 111.276 85.5098 112.708 87.283 112.708Z" fill="#3335CF"/>
<path d="M99.5291 106.309C97.7587 106.309 96.3184 107.744 96.3184 109.508C96.3184 111.273 97.7587 112.708 99.5291 112.708C101.299 112.708 102.74 111.273 102.74 109.508C102.74 107.744 101.299 106.309 99.5291 106.309Z" fill="#3335CF"/>
<path d="M111.771 112.708C110.001 112.708 108.561 111.273 108.561 109.508C108.561 107.744 110.001 106.309 111.771 106.309C113.542 106.309 114.982 107.744 114.982 109.508C114.982 111.273 113.542 112.708 111.771 112.708ZM111.771 106.909C110.333 106.909 109.163 108.075 109.163 109.508C109.163 110.941 110.333 112.108 111.771 112.108C113.209 112.108 114.38 110.941 114.38 109.508C114.38 108.075 113.209 106.909 111.771 106.909Z" fill="#2F2F2F"/>
<path d="M190.793 113.07H131.104C129.131 113.07 127.529 111.471 127.529 109.508C127.529 107.544 129.133 105.945 131.104 105.945H190.793C192.763 105.945 194.368 107.544 194.368 109.508C194.368 111.471 192.763 113.07 190.793 113.07ZM131.104 106.545C129.463 106.545 128.131 107.875 128.131 109.508C128.131 111.14 129.466 112.47 131.104 112.47H190.793C192.433 112.47 193.765 111.14 193.765 109.508C193.765 107.875 192.431 106.545 190.793 106.545H131.104Z" fill="#2F2F2F"/>
<path d="M266.7 203.275C266.7 232.009 243.331 255.305 214.499 255.305C185.667 255.305 162.291 232.009 162.291 203.275C162.291 176.318 182.866 154.15 209.217 151.51L210.958 168.582C193.303 170.353 179.518 185.212 179.518 203.273C179.518 222.532 195.179 238.14 214.499 238.14C233.819 238.14 249.473 222.532 249.473 203.273C249.473 199.912 248.996 196.667 248.107 193.594L264.66 188.83C265.989 193.414 266.7 198.263 266.7 203.273V203.275Z" fill="#2F2F2F"/>
<path d="M214.498 245.281C237.777 245.281 256.649 226.474 256.649 203.273C256.649 180.073 237.777 161.266 214.498 161.266C191.218 161.266 172.346 180.073 172.346 203.273C172.346 226.474 191.218 245.281 214.498 245.281Z" fill="white"/>
<path opacity="0.5" d="M214.498 245.281C237.777 245.281 256.649 226.474 256.649 203.273C256.649 180.073 237.777 161.266 214.498 161.266C191.218 161.266 172.346 180.073 172.346 203.273C172.346 226.474 191.218 245.281 214.498 245.281Z" fill="#BCBCBC"/>
<path d="M214.496 233.036C230.985 233.036 244.352 219.711 244.352 203.273C244.352 186.835 230.985 173.51 214.496 173.51C198.007 173.51 184.641 186.835 184.641 203.273C184.641 219.711 198.007 233.036 214.496 233.036Z" fill="white"/>
<path d="M217.902 217.909V222.434H212.136V218.113C208.046 217.868 204.081 216.767 201.627 215.259L204.734 208.247C207.434 209.836 211.03 210.857 214.181 210.857C216.922 210.857 217.905 210.285 217.905 209.306C217.905 205.72 202.077 208.615 202.077 197.973C202.077 193.367 205.43 189.493 212.138 188.557V184.113H217.905V188.475C220.928 188.761 223.876 189.536 226.207 190.839L223.303 197.81C220.48 196.382 217.82 195.691 215.328 195.691C212.505 195.691 211.604 196.504 211.604 197.484C211.604 200.909 227.431 198.055 227.431 208.571C227.431 212.974 224.242 216.807 217.905 217.907L217.902 217.909Z" fill="#2F2F2F"/>
<path d="M400.337 65.0586H286.766V134.266H400.337V65.0586Z" fill="white"/>
<path d="M400.639 134.565H286.465V64.7578H400.639V134.565ZM287.067 133.965H400.036V65.3579H287.067V133.965Z" fill="#2F2F2F"/>
<path d="M307.602 112.236H301.064V124.2H307.602V112.236Z" fill="#BCBCBC"/>
<path d="M320.674 106.77H314.137V124.199H320.674V106.77Z" fill="#BCBCBC"/>
<path d="M333.748 111.24H327.211V124.2H333.748V111.24Z" fill="#BCBCBC"/>
<path d="M346.822 102.117H340.285V124.197H346.822V102.117Z" fill="#BCBCBC"/>
<path d="M359.895 96.2852H353.357V124.2H359.895V96.2852Z" fill="#BCBCBC"/>
<path d="M372.969 87.9551H366.432V124.199H372.969V87.9551Z" fill="#BCBCBC"/>
<path d="M386.041 75.125H379.504V124.2H386.041V75.125Z" fill="#BCBCBC"/>
<path d="M306.26 80.9492H301.064V86.8111H306.26V80.9492Z" fill="#BCBCBC"/>
<path d="M349.466 83.6621H314.285V85.1648H349.466V83.6621Z" fill="#BCBCBC"/>
<path d="M298.144 169.354L290.952 149.553C282.825 152.486 277.018 160.242 277.018 169.354C277.018 180.982 286.476 190.408 298.144 190.408C309.812 190.408 319.271 180.982 319.271 169.354C319.271 165.854 318.408 162.558 316.893 159.654L298.144 169.354Z" fill="#EBEBFF"/>
<path d="M319.703 152.153C316.182 145.408 309.11 140.797 300.954 140.797C298.427 140.797 296.007 141.241 293.762 142.05L300.954 161.851L319.703 152.151V152.153Z" fill="#2F2F2F"/>
<path d="M328.05 236.826H278.07V284.235H328.05V236.826Z" fill="#EBEBFF"/>
<path d="M313.899 249.428H285.898V251.43H313.899V249.428Z" fill="white"/>
<path d="M313.899 255.43H285.898V257.432H313.899V255.43Z" fill="white"/>
<path d="M137.269 146.209H93.8066V219.423H137.269V146.209Z" fill="#EBEBFF"/>
<path d="M128.934 156.812H100.432V182.817H128.934V156.812Z" fill="white"/>
<path d="M100.633 156.581L100.227 157.023L128.73 183.026L129.137 182.583L100.633 156.581Z" fill="#EBEBFF"/>
<path d="M128.728 156.592L100.229 182.6L100.635 183.042L129.134 157.035L128.728 156.592Z" fill="#EBEBFF"/>
<path d="M114.696 176.111H15.2871V241.387H114.696V176.111Z" fill="white"/>
<path d="M114.984 241.673H15V175.824H114.984V241.673ZM15.5757 241.102H114.408V176.4H15.5757V241.102Z" fill="#2F2F2F"/>
<path d="M25.7617 225.623L32.1832 213.621L45.431 226.024L54.2636 200.418L70.7221 218.422L81.5611 214.022L101.233 188.416" fill="white"/>
<path d="M45.5656 226.562L32.2649 214.109L26.0265 225.765L25.4941 225.485L32.1035 213.134L45.2983 225.489L54.1429 199.843L70.8037 218.067L81.373 213.775L100.994 188.234L101.471 188.599L81.7512 214.27L70.6424 218.78L70.5003 218.626L54.3838 200.998L45.5656 226.562Z" fill="#2F2F2F"/>
<path d="M32.2329 215.222C33.1468 215.222 33.8876 214.484 33.8876 213.573C33.8876 212.662 33.1468 211.924 32.2329 211.924C31.319 211.924 30.5781 212.662 30.5781 213.573C30.5781 214.484 31.319 215.222 32.2329 215.222Z" fill="#2F2F2F"/>
<path d="M45.3325 227.374C46.2464 227.374 46.9873 226.636 46.9873 225.725C46.9873 224.815 46.2464 224.076 45.3325 224.076C44.4186 224.076 43.6777 224.815 43.6777 225.725C43.6777 226.636 44.4186 227.374 45.3325 227.374Z" fill="#2F2F2F"/>
<path d="M54.3637 202.169C55.2776 202.169 56.0185 201.431 56.0185 200.52C56.0185 199.609 55.2776 198.871 54.3637 198.871C53.4498 198.871 52.709 199.609 52.709 200.52C52.709 201.431 53.4498 202.169 54.3637 202.169Z" fill="#2F2F2F"/>
<path d="M86.0678 186.518H43.916V187.118H86.0678V186.518Z" fill="#2F2F2F"/>
<path d="M251.64 333.894C249.858 322.256 252.308 310.021 258.433 299.954C264.558 289.889 274.316 282.07 285.494 278.266C279.164 282.682 275.298 289.819 272.603 297.035C269.908 304.25 268.137 311.826 264.811 318.778C261.485 325.727 256.239 332.223 248.967 334.823L251.64 333.891V333.894Z" fill="#008BCE"/>
<path d="M249.892 333.99C249.639 320.54 247.018 307.136 242.184 294.577C240.467 290.117 238.41 285.664 235.062 282.246C231.713 278.828 226.846 276.574 222.127 277.409C228.004 281.792 231.049 289.003 232.764 296.118C234.479 303.23 235.139 310.612 237.552 317.52C239.966 324.429 244.583 331.088 251.494 333.558L249.894 333.987L249.892 333.99Z" fill="#008BCE"/>
<path d="M248.972 334.873C245.612 325.855 241.961 316.611 235.205 309.743C228.448 302.873 217.744 298.943 208.895 302.784C216.06 304.404 222.626 308.538 227.172 314.292C230.505 318.512 232.745 323.514 236.173 327.657C239.6 331.801 244.83 335.14 250.126 334.151L248.972 334.873Z" fill="#BCBCBC"/>
<path d="M247.898 334.257C246.52 324.36 245.145 314.304 246.595 304.419C248.045 294.534 252.737 284.663 261.141 279.217C256.49 283.763 254.936 290.648 254.934 297.141C254.934 303.634 256.251 310.067 256.362 316.561C256.473 323.054 255.179 329.95 250.774 334.732L247.9 334.257H247.898Z" fill="#BCBCBC"/>
<path d="M252.547 332.813C255.767 324.635 259.202 316.144 265.761 310.273C269.974 306.504 275.338 304.032 280.948 303.275C277.014 306.403 274.553 310.986 272.51 315.568C270.467 320.151 268.704 324.923 265.746 328.979C262.789 333.036 258.345 336.373 253.318 336.586L252.547 332.813Z" fill="#BCBCBC"/>
<path d="M268.904 357.699H232.728L227.152 329.967H274.48L268.904 357.699Z" fill="white"/>
<path d="M269.149 357.999H232.482L226.783 329.666H274.846L269.147 357.999H269.149ZM232.976 357.398H268.656L274.111 330.266H227.518L232.974 357.398H232.976Z" fill="#2F2F2F"/>
<path d="M333.665 341.024V357.7H311.963L321.899 349.622L322.421 339.461L333.665 341.024Z" fill="#BCBCBC"/>
<path d="M322.106 349.43L321.691 349.865L325.834 353.793L326.249 353.358L322.106 349.43Z" fill="#1B1B43"/>
<path d="M331.561 345.447H324.135V346.047H331.561V345.447Z" fill="#1B1B43"/>
<path d="M359.026 341.807L359.812 357.701H338.109L347.26 349.885V340.242L359.026 341.807Z" fill="#BCBCBC"/>
<path d="M347.463 349.691L347.064 350.141L350.435 353.108L350.833 352.658L347.463 349.691Z" fill="#1B1B43"/>
<path d="M357.054 345.748H349.727V346.348H357.054V345.748Z" fill="#1B1B43"/>
<path d="M335.85 245.167C336.223 278.397 338.986 311.098 344.27 343.24H362.557C358.754 318.659 357.034 288.807 359.161 249.231L345.956 238.453L335.852 245.167H335.85Z" fill="#1C1C1C"/>
<path d="M321.392 249.562L313.118 286.236C311.131 295.048 310.992 304.174 312.714 313.044L318.526 342.999H336.813L331.277 303.675L344.511 243.729L321.392 249.564V249.562Z" fill="#1C1C1C"/>
<path d="M337.083 284.705C337.037 283.949 335.994 267.084 335.888 264.947L331.109 263.216L331.314 262.652L336.481 264.525V264.736C336.481 265.106 337.268 277.938 337.685 284.672L337.083 284.708V284.705Z" fill="white"/>
<path d="M376.675 166.766L377.653 164.44C377.653 164.44 374.114 157.013 375.244 156.039C376.374 155.064 378.18 157.839 378.18 157.839C378.18 157.839 377.653 148.837 379.385 148.763C380.844 148.7 380.738 151.312 380.89 155.215C380.89 155.215 381.793 154.015 383.455 155.256C384.202 154.015 385.782 154.841 386.235 155.592C386.762 154.992 388.945 155.141 388.644 157.692C388.261 160.926 386.762 166.92 386.762 166.92L381.945 170.895L376.675 166.769V166.766Z" fill="#FFBC96"/>
<path d="M337.982 197.82L345.307 197.763C358.155 196.62 368.192 186.219 368.192 186.219L376.673 166.766L386.761 166.914L380.84 189.779C379.99 193.063 378.157 196.01 375.587 198.233L354.544 216.424L337.985 197.82H337.982Z" fill="#008BCE"/>
<path d="M317.906 214.374L321.392 249.562L359.16 249.231L357.854 206.822L337.983 197.82L324.234 203.622L317.906 214.374Z" fill="#008BCE"/>
<path d="M294.519 217.793C293.902 217.249 293.127 216.915 292.305 216.848C288.131 216.502 275.078 215.496 275.206 216.507C275.355 217.707 285.291 222.208 285.294 222.208C287.418 224.592 289.542 226.975 291.667 229.356L297.506 220.434L294.521 217.793H294.519Z" fill="#FFBC96"/>
<path d="M322.984 201.208C320.294 201.676 317.981 203.38 316.743 205.805L305.613 227.606L297.503 220.433L291.664 229.356C292.375 230.152 293.085 230.949 293.796 231.746C296.949 235.282 300.624 240.035 305.548 241.065C308.058 241.591 310.392 240.551 312.191 238.833C313.508 237.572 314.686 236.014 315.628 234.452L320.067 227.159L334.218 199.254L322.986 201.21L322.984 201.208Z" fill="#008BCE"/>
<path d="M318.213 214.332L317.613 214.391L319.728 236.044L320.328 235.985L318.213 214.332Z" fill="#BCBCBC"/>
<path d="M358.081 213.275L354.543 216.425L358.308 222.652L358.081 213.275Z" fill="#1B1B43"/>
<path d="M382.194 159.69C380.773 159.69 380.665 157.834 380.662 155.213H381.115C381.115 158.297 381.368 159.238 382.194 159.238C382.358 159.238 382.5 159.174 382.628 159.037C383.03 158.607 383.186 157.601 383.235 156.699C383.203 156.046 383.22 155.479 383.23 155.242L383.68 155.234C383.685 155.29 383.724 155.897 383.69 156.644C383.752 157.865 383.96 159.073 384.367 159.195C384.595 159.262 384.793 159.234 384.971 159.106C385.458 158.756 385.732 157.767 385.874 156.881C385.887 156.502 385.927 156.06 386.009 155.549L386.457 155.59C386.457 155.64 386.438 156.154 386.344 156.8C386.31 157.736 386.419 158.643 386.797 158.802C387.079 158.919 387.31 158.919 387.508 158.799C388.025 158.485 388.211 157.424 388.24 157.042L388.69 157.076C388.685 157.14 388.56 158.684 387.741 159.183C387.416 159.38 387.04 159.392 386.621 159.217C386.515 159.174 386.183 158.982 385.997 158.278C385.819 158.782 385.573 159.226 385.234 159.469C384.938 159.683 384.603 159.733 384.234 159.625C383.837 159.507 383.591 159.001 383.442 158.369C383.331 158.761 383.174 159.106 382.955 159.339C382.741 159.567 382.485 159.683 382.192 159.683L382.194 159.69Z" fill="#D28572"/>
<path d="M334.798 206.362C331.587 206.619 328.781 204.237 328.523 201.045L328.458 200.233L327.543 188.915L334.617 188.351L339.158 187.986L340.133 200.109C340.393 203.308 338.001 206.105 334.798 206.362Z" fill="#FFBC96"/>
<path d="M336.881 192.168C334.677 196.038 331.522 198.825 328.458 200.234L327.543 188.916L334.617 188.352L336.881 192.168Z" fill="#1B1B43"/>
<path d="M339.19 180.317L337.786 192.122C337.786 192.122 333.269 196.424 326.645 196.22C324.23 196.148 322.811 193.867 321.977 190.967C321.633 189.755 321.394 188.442 321.226 187.127C320.672 182.782 320.925 178.514 320.925 178.514L331.162 175.117L339.19 180.314V180.317Z" fill="#FFBC96"/>
<path d="M337.633 185.168C336.566 181.38 334.654 179.477 332.064 179.066C323.834 183.517 318.492 180.866 314.602 175.917C324.135 177.767 328.3 164.265 337.433 173.267C344.207 175.317 344.084 181.769 340.244 187.019L337.633 185.168Z" fill="#1B1B43"/>
<path d="M341.861 186.601C342.21 184.82 341.237 183.132 339.687 182.83C338.138 182.528 336.598 183.728 336.249 185.509C335.9 187.29 336.874 188.979 338.423 189.28C339.973 189.582 341.512 188.383 341.861 186.601Z" fill="#FFBC96"/>
<path d="M340.131 184.847C339.659 184.926 339.353 185.282 339.124 185.687C338.9 186.098 338.753 186.556 338.664 187.048L338.488 187.058C338.414 186.794 338.414 186.513 338.457 186.244C338.503 185.973 338.594 185.709 338.734 185.466C338.874 185.226 339.059 184.998 339.305 184.837C339.546 184.677 339.866 184.593 340.146 184.669L340.134 184.845L340.131 184.847Z" fill="#1B1B43"/>
<path d="M323.381 185.643C323.381 186.154 323.132 186.567 322.829 186.567C322.525 186.567 322.277 186.152 322.277 185.643C322.277 185.134 322.525 184.719 322.829 184.719C323.132 184.719 323.381 185.134 323.381 185.643Z" fill="#1B1B43"/>
<path d="M327.943 185.267C327.943 185.822 327.675 186.27 327.345 186.27C327.015 186.27 326.748 185.822 326.748 185.267C326.748 184.713 327.015 184.264 327.345 184.264C327.675 184.264 327.943 184.713 327.943 185.267Z" fill="#1B1B43"/>
<path d="M324.633 186.396C324.633 186.574 324.563 186.749 324.479 186.898C324.387 187.047 324.279 187.174 324.173 187.291C323.959 187.524 323.761 187.735 323.715 187.959C323.655 188.184 323.744 188.408 323.92 188.631C324.096 188.852 324.332 189.051 324.561 189.272L324.465 189.418C324.171 189.293 323.879 189.14 323.629 188.897C323.503 188.775 323.393 188.626 323.318 188.444C323.246 188.259 323.231 188.048 323.282 187.855C323.33 187.661 323.434 187.491 323.549 187.359C323.665 187.227 323.788 187.116 323.908 187.015C324.142 186.811 324.368 186.636 324.465 186.367L324.638 186.394L324.633 186.396Z" fill="#1B1B43"/>
<path d="M325.068 191.394C325.704 191.253 326.294 191.053 326.819 190.727C327.082 190.566 327.332 190.379 327.571 190.175C327.809 189.968 328.038 189.748 328.277 189.52L328.419 189.623C328.123 190.225 327.648 190.753 327.053 191.111C326.461 191.469 325.75 191.639 325.078 191.572L325.068 191.397V191.394Z" fill="#1B1B43"/>
<path d="M326.621 182.782C326.491 183.459 328.627 183.678 329.01 183.745C329.326 183.8 329.779 183.836 329.844 183.358C329.926 182.766 329.28 182.703 328.914 182.624C328.562 182.547 326.741 182.144 326.621 182.782Z" fill="#1B1B43"/>
<path d="M323.648 183.2C323.636 183.855 321.94 183.92 321.63 183.958C321.374 183.99 321.018 183.994 321.044 183.533C321.078 182.962 321.591 182.945 321.89 182.895C322.174 182.847 323.66 182.58 323.651 183.2H323.648Z" fill="#1B1B43"/>
<path opacity="0.2" d="M331.624 189.455C332.829 189.455 333.806 188.481 333.806 187.28C333.806 186.079 332.829 185.105 331.624 185.105C330.418 185.105 329.441 186.079 329.441 187.28C329.441 188.481 330.418 189.455 331.624 189.455Z" fill="#1C1C1C"/>
<path opacity="0.2" d="M322.859 189.235C322.859 189.947 322.515 190.579 321.98 190.968C321.636 189.755 321.397 188.442 321.229 187.127C322.168 187.372 322.862 188.226 322.862 189.235H322.859Z" fill="#1C1C1C"/>
<path d="M167.275 259.33H125.383V262.141H167.275V259.33Z" fill="#2F2F2F"/>
<path d="M167.271 259.334H131.893L145.292 226.779H180.668L167.271 259.334Z" fill="white"/>
<path d="M167.474 259.634H131.445L145.09 226.479H181.119L167.474 259.634ZM132.344 259.033H167.07L180.221 227.079H145.495L132.344 259.033Z" fill="#2F2F2F"/>
<path d="M164.217 256.598H136.414L146.942 231.014H174.746L164.217 256.598Z" fill="#EBEBFF"/>
<path d="M153.186 263.043H152.584V357.856H153.186V263.043Z" fill="#1B1B43"/>
<path d="M186.673 262.145H119.098V267.5H186.673V262.145Z" fill="#BCBCBC"/>
<path d="M64.5651 302.867H63.9629V357.854H64.5651V302.867Z" fill="#1B1B43"/>
<path d="M80.7901 305.417H47.7383C48.4392 302.073 51.3995 299.678 54.827 299.678H73.7038C77.1314 299.678 80.0892 302.073 80.7925 305.417H80.7901Z" fill="#BCBCBC"/>
<path d="M59.4609 353.928H69.0642C71.1502 353.928 72.8411 355.615 72.8411 357.692H55.6816C55.6816 355.613 57.3749 353.928 59.4584 353.928H59.4609Z" fill="#BCBCBC"/>
<path d="M89.7631 221.283C90.6086 222.495 91.8201 224.209 91.955 225.707C92.1501 227.887 88.6503 226.358 88.6094 226.547L89.7631 221.283Z" fill="#D28572"/>
<path d="M84.4181 223.848H73.3574V240.003H84.4181V223.848Z" fill="#FFBC96"/>
<path d="M84.4207 226.617V238.151C80.9354 235.969 77.9221 232.729 75.3184 228.986L84.4207 226.617Z" fill="#1B1B43"/>
<path d="M90.6366 222.263C90.2922 227.844 88.1364 234.157 82.2568 232.599C77.6394 231.375 72.5547 227.501 72.5547 221.91C72.5547 216.32 76.4375 211.785 81.2283 211.785C84.2223 211.785 87.9919 213.233 89.7647 216.029C90.8293 217.707 90.786 219.829 90.6366 222.263Z" fill="#FFBC96"/>
<path d="M80.8477 220.645C82.4133 216.507 85.9974 216.099 85.9974 216.099C85.9974 216.099 94.2977 224.28 93.7823 215.828C93.3728 209.111 86.7875 209.745 86.7875 209.745C83.5695 205.571 78.4077 207.203 76.5265 209.625C74.6453 212.047 75.3125 210.655 70.8806 212.227C66.4486 213.799 68.8163 220.518 68.0263 221.001C62.1371 221.001 63.2282 226.81 63.2282 226.81L77.172 231.342L80.5297 222.206L80.8477 220.645Z" fill="#1B1B43"/>
<path d="M82.2998 221.118C83.1621 222.607 82.9285 224.349 81.7795 225.012C80.6306 225.674 78.9999 225.002 78.1376 223.514C77.2753 222.026 77.509 220.283 78.6579 219.62C79.8068 218.958 81.4375 219.63 82.2998 221.118Z" fill="#FFBC96"/>
<path d="M80.5193 222.912C80.3242 222.535 80.158 222.168 79.8955 221.911C79.7654 221.781 79.6161 221.676 79.4451 221.585C79.2741 221.493 79.0838 221.416 78.8887 221.323L78.9176 221.167C79.1392 221.155 79.3632 221.181 79.5824 221.253C79.8016 221.325 80.0159 221.452 80.1821 221.625C80.3507 221.798 80.4712 222.005 80.5483 222.218C80.6253 222.432 80.6663 222.65 80.6735 222.871L80.5193 222.91V222.912Z" fill="#1B1B43"/>
<path d="M75.3023 212.908C77.8868 212.786 79.8745 210.424 79.7419 207.633C79.6093 204.841 77.4067 202.677 74.8222 202.799C72.2377 202.921 70.2501 205.283 70.3826 208.074C70.5152 210.866 72.7179 213.03 75.3023 212.908Z" fill="#1B1B43"/>
<path opacity="0.2" d="M85.8263 227.527C86.9903 227.527 87.9339 226.587 87.9339 225.427C87.9339 224.267 86.9903 223.326 85.8263 223.326C84.6624 223.326 83.7188 224.267 83.7188 225.427C83.7188 226.587 84.6624 227.527 85.8263 227.527Z" fill="#1C1C1C"/>
<path d="M94.108 279.737L58.6836 275.236L65.3604 240.147C65.8301 237.693 67.468 235.61 69.7515 234.578C71.6543 233.713 73.8293 233.658 75.778 234.422L87.8503 239.767C90.1746 240.795 91.7764 242.972 92.0654 245.488L92.7471 256.95L93.5251 269.943L94.108 279.737Z" fill="#008BCE"/>
<path d="M126.524 254.532L135.901 251.786C136.578 251.589 137.303 251.697 137.89 252.083C140.458 253.78 147.289 258.586 145.564 260.55C144.702 261.532 136.862 259.232 136.862 259.232L125.51 262.388L126.524 254.532Z" fill="#FFBC96"/>
<path d="M93.5234 269.944C90.5727 266.199 88.8192 261.254 88.2363 255.133L92.7478 256.95L93.5258 269.944H93.5234Z" fill="#1B1B43"/>
<path d="M86.7815 239.33L88.193 239.937C91.0979 241.186 93.7041 243.039 95.8309 245.374L107.458 258.135L126.527 254.535L129.037 264.736L105.078 272.199C103.187 272.535 101.253 271.885 99.9522 270.473L82.6699 251.733L86.7839 239.33H86.7815Z" fill="#008BCE"/>
<path d="M107.232 258.337C107.174 258.275 101.504 252.12 96.5907 246.633C91.7348 241.205 84.3305 238.567 84.2559 238.543L84.4558 237.977C84.5304 238.003 92.0768 240.689 97.0411 246.234C101.95 251.719 107.62 257.871 107.675 257.934L107.232 258.34V258.337Z" fill="#1B1B43"/>
<path d="M84.0868 253.725L83.6543 254.143L99.7315 270.682L100.164 270.264L84.0868 253.725Z" fill="#1B1B43"/>
<path d="M92.8244 332.811L85.1816 347.645L104.487 357.523L99.3495 345.814L103.541 336.536L92.8244 332.811Z" fill="#BCBCBC"/>
<path d="M99.2531 345.534L93.7676 347.143L93.9376 347.718L99.4231 346.109L99.2531 345.534Z" fill="#1B1B43"/>
<path d="M104.847 342.558L87.3574 336.055L99.3334 298.916C101.393 293.416 107.735 290.696 113.499 292.84C119.263 294.984 122.266 301.179 120.207 306.679L104.844 342.561L104.847 342.558Z" fill="#1C1C1C"/>
<path d="M121.807 340.047L123.512 357.7H145.214L135.278 349.623L132.947 339.447L121.807 340.047Z" fill="#BCBCBC"/>
<path d="M135.141 349.352L129.998 352.178L130.289 352.703L135.431 349.878L135.141 349.352Z" fill="#1B1B43"/>
<path d="M137.463 342.148L118.495 345.149L105.505 307.083L103.14 300.141L70.8804 300.4C62.9029 300.58 56.556 293.77 57.3388 285.848L58.6805 275.238L90.5954 279.24L111.568 281.539C120.299 283.04 122.98 288.309 124.796 295.078L137.461 342.151L137.463 342.148Z" fill="#1C1C1C"/>
<path d="M105.506 307.085L103.141 300.143L107.505 299.994C107.91 302.611 106.867 305.534 105.506 307.087V307.085Z" fill="#1B1B43"/>
<path d="M393.386 357.4H27.8691V358.001H393.386V357.4Z" fill="#1B1B43"/>
</g>
</g>
<defs>
<clipPath id="clip0_2434_11365">
<rect width="427" height="425" fill="white"/>
</clipPath>
<clipPath id="clip1_2434_11365">
<rect width="398" height="321" fill="white" transform="translate(15 37)"/>
</clipPath>
</defs>
</svg>
