<svg width="427" height="425" viewBox="0 0 427 425" fill="none" xmlns="http://www.w3.org/2000/svg">
<g clip-path="url(#clip0_2382_10660)">
<path d="M400.041 382.57C388.531 392.16 338.441 398.94 278.761 401.49C187.021 405.42 72.6009 399.37 40.7909 378.2C25.7309 368.19 15.5509 337.25 9.1009 297.66C-6.9291 199.16 0.220901 47.1301 13.1609 30.6501C31.3109 7.56009 323.301 -15.3099 399.911 13.9301C432.741 26.4601 429.231 358.23 400.031 382.57H400.041Z" fill="white"/>
<path d="M373.314 247.44L375.204 241.883L377.358 247.44C377.358 247.44 381.657 248.14 381.712 248.531C381.757 248.913 377.595 250.095 377.595 250.095C377.595 250.095 375.85 255.488 375.204 254.27C374.568 253.051 373.95 250.35 373.95 250.35C373.95 250.35 368.533 249.268 368.533 248.731C368.533 248.158 373.314 247.449 373.314 247.449V247.44Z" fill="white"/>
<path d="M304.094 233.142L305.566 228.822L307.238 233.142C307.238 233.142 310.574 233.688 310.619 233.988C310.656 234.279 307.429 235.198 307.429 235.198C307.429 235.198 306.075 239.381 305.575 238.435C305.075 237.49 304.594 235.389 304.594 235.389C304.594 235.389 300.395 234.543 300.395 234.134C300.395 233.688 304.103 233.142 304.103 233.142H304.094Z" fill="white"/>
<g clip-path="url(#clip1_2382_10660)">
<path d="M237.303 220.29L197.27 178.434L222.515 168.666L252.144 205.863L237.303 220.29Z" fill="#008BCE"/>
<path d="M260.514 43.2165L266.27 38.2139L290.565 49.5524L268.33 68.8635L260.514 43.2165Z" fill="#F2E8D3"/>
<path d="M257.055 33.4221C258.692 32.0098 261.161 32.1813 262.574 33.8181L266.654 38.5172L260.752 43.6387L256.672 38.9396C255.259 37.3028 255.431 34.8345 257.055 33.4221Z" fill="#272525"/>
<path d="M286.658 52.0869L387.745 168.508L391.891 164.918L290.421 48.0742L285.43 52.4037L387.745 168.508L286.658 52.0869Z" fill="#008BCE"/>
<path d="M380.601 174.698L387.745 168.494C387.731 169.616 298.923 67.8865 285.416 52.4033L279.131 57.8548L380.601 174.698Z" fill="#008BCE"/>
<path d="M387.745 168.508L285.416 52.4033C298.923 67.8997 387.732 169.63 387.745 168.508Z" fill="#008BCE"/>
<path d="M279.138 57.8671L271.211 64.7461L372.67 181.591L380.597 174.712L279.138 57.8671Z" fill="#008BCE"/>
<path d="M271.213 64.7498L267.225 68.2109L368.684 185.055L372.672 181.594L271.213 64.7498Z" fill="#008BCE"/>
<path d="M392.709 189.825L393.238 189.376C398.796 184.545 399.945 176.533 396.327 170.408L373.498 190.221C379.057 194.669 387.151 194.656 392.723 189.838L392.709 189.825Z" fill="#272525"/>
<path d="M396.313 170.395L397.304 169.537L392.682 164.218L391.877 164.917L394.716 168.191C395.323 168.89 395.851 169.63 396.3 170.395H396.313Z" fill="#FFBFBF"/>
<path d="M372.403 191.158L373.485 190.221C372.785 189.666 372.125 189.033 371.518 188.333L368.679 185.06L367.781 185.838L372.403 191.158Z" fill="#FFBFBF"/>
<path d="M373.484 190.208L396.314 170.395C395.865 169.629 395.336 168.89 394.729 168.191L391.89 164.917L368.691 185.06L371.53 188.333C372.138 189.033 372.798 189.653 373.498 190.221L373.484 190.208Z" fill="#F2E8D3"/>
<path d="M387.745 168.508L285.43 52.4033" stroke="white" stroke-width="0.71" stroke-miterlimit="10"/>
<path d="M380.919 174.434L278.59 58.3301" stroke="white" stroke-width="0.71" stroke-miterlimit="10"/>
<path d="M372.72 181.549L270.404 65.4443" stroke="white" stroke-width="0.71" stroke-miterlimit="10"/>
<path d="M187.881 39.7319C186.098 39.1248 183.761 41.2895 182.652 44.563C181.543 47.8365 182.097 50.9648 183.88 51.572C185.662 52.1792 187.999 50.0145 189.109 46.741C190.218 43.4674 189.663 40.3391 187.881 39.7319Z" fill="white"/>
<path d="M208.361 49.5919C208.361 45.9092 207.093 42.5301 204.967 39.8505C202.089 36.2338 197.653 33.9107 192.675 33.9239C184.013 33.9239 176.989 40.9461 177.002 49.6051C177.002 52.2318 177.649 54.7002 178.784 56.8781C180.395 59.9536 182.996 62.422 186.165 63.8739V66.989V71.1733V71.6881H196.279H199.211V71.1733V67.5302V63.8739C204.611 61.3924 208.374 55.9409 208.361 49.6051V49.5919ZM183.881 51.5586C182.099 50.9515 181.544 47.8231 182.653 44.5496C183.762 41.2761 186.099 39.1246 187.882 39.7185C189.664 40.3257 190.219 43.454 189.11 46.7276C188.001 50.0011 185.664 52.1526 183.881 51.5586Z" fill="#222222"/>
<path d="M196.278 71.6611H186.164V76.4262C186.164 76.7694 186.204 77.0994 186.256 77.4162C186.626 79.2905 187.999 80.8217 189.782 81.3893C189.967 81.4553 190.165 81.5081 190.363 81.5477V81.9173C190.363 83.1976 191.406 84.2272 192.673 84.2272C193.954 84.2272 194.984 83.1844 194.984 81.9173V81.5477C197.374 81.0725 199.196 78.9473 199.196 76.4262V73.5619V71.6611H196.265H196.278Z" fill="#008BCE"/>
<path d="M194.403 8.77832L193.334 28.855" stroke="#272425" stroke-width="1.17" stroke-linecap="round" stroke-linejoin="round"/>
<path d="M171.218 53.9082L151.928 59.5841" stroke="#272425" stroke-width="1.17" stroke-linecap="round" stroke-linejoin="round"/>
<path d="M211.926 55.5977L229.315 65.6954" stroke="#272425" stroke-width="1.17" stroke-linecap="round" stroke-linejoin="round"/>
<path d="M212.863 42.4506L231.494 34.874" stroke="#272425" stroke-width="1.17" stroke-linecap="round" stroke-linejoin="round"/>
<path d="M157.131 31.7197L175.524 39.8375" stroke="#272425" stroke-width="1.17" stroke-linecap="round" stroke-linejoin="round"/>
<path d="M285.734 129.199L236.471 133.027L239.666 111.036L277.125 104.819L285.734 129.199Z" stroke="#272425" stroke-width="1.17" stroke-linecap="round" stroke-linejoin="round"/>
<path d="M252.051 120.105C252.051 121.425 250.982 122.494 249.661 122.494C248.341 122.494 247.271 121.425 247.271 120.105C247.271 118.785 248.341 117.716 249.661 117.716C250.982 117.716 252.051 118.785 252.051 120.105Z" fill="#272425"/>
<path d="M261.321 118.957C261.321 120.276 260.251 121.346 258.931 121.346C257.611 121.346 256.541 120.276 256.541 118.957C256.541 117.637 257.611 116.567 258.931 116.567C260.251 116.567 261.321 117.637 261.321 118.957Z" fill="#272425"/>
<path d="M268.411 119.894C269.731 119.894 270.801 118.824 270.801 117.504C270.801 116.185 269.731 115.115 268.411 115.115C267.091 115.115 266.021 116.185 266.021 117.504C266.021 118.824 267.091 119.894 268.411 119.894Z" fill="#272425"/>
<path d="M221.196 402.999C294.621 402.999 354.144 399.684 354.144 395.594C354.144 391.505 294.621 388.189 221.196 388.189C147.771 388.189 88.248 391.505 88.248 395.594C88.248 399.684 147.771 402.999 221.196 402.999Z" fill="#D2D2D2"/>
<path d="M278.908 315.671L271.224 383.676C271.224 383.676 268.609 384.732 267.065 384.415C265.533 384.098 263.13 382.144 263.13 382.144C263.13 382.144 252.488 339.021 251.933 326.085C251.537 316.925 249.715 313.625 249.715 313.625L278.895 315.658L278.908 315.671Z" fill="#FFBFBF"/>
<path d="M250.283 313.202C252.805 336.777 256.687 360.853 263.698 383.49" stroke="#D4686F" stroke-width="0.7" stroke-linecap="round" stroke-linejoin="round"/>
<path d="M262.853 380.706L271.91 379.967L305.21 388.467L305.025 392.731L262.113 392.361L262.853 380.706Z" fill="#272425"/>
<path d="M288.429 384.692C286.937 382.699 285.709 380.442 285.234 378C284.745 375.558 285.062 372.891 286.422 370.793C286.792 370.225 287.333 369.644 288.006 369.631C288.772 369.618 289.366 370.304 289.696 370.991C290.423 372.495 290.489 374.225 290.396 375.888C290.251 378.435 289.762 380.956 289.261 383.464C290.198 379.782 291.254 375.888 294.04 373.327C295.506 371.981 297.368 371.096 299.322 370.674C300.035 370.529 300.84 370.449 301.435 370.859C301.883 371.162 302.121 371.703 302.2 372.231C302.346 373.327 301.844 374.409 301.276 375.36C298.82 379.557 295.07 382.976 290.674 385.061" stroke="#272425" stroke-width="0.92" stroke-miterlimit="10"/>
<path d="M177.386 266.594L153.461 390.459" stroke="#272425" stroke-width="0.92" stroke-miterlimit="10"/>
<path d="M210.699 266.594L234.624 390.459" stroke="#272425" stroke-width="0.92" stroke-miterlimit="10"/>
<path d="M198.037 271.24C220.978 271.24 239.576 268.682 239.576 265.525C239.576 262.368 220.978 259.81 198.037 259.81C175.096 259.81 156.498 262.368 156.498 265.525C156.498 268.682 175.096 271.24 198.037 271.24Z" fill="#272425"/>
<path d="M177.583 217.927C177.583 217.927 169.991 230.44 169.859 243.508C169.767 252.813 173.279 260.245 190.853 267.412C202.736 272.257 219.215 274.091 228.642 274.765C232.946 275.068 236.419 278.434 236.868 282.724L245.477 364.271L302.464 353.91C302.464 353.91 278.895 269.617 275.528 264.825C268.2 254.397 177.57 217.927 177.57 217.927H177.583Z" fill="#222222"/>
<path d="M223.018 141.672C212.455 150.423 196.901 153.235 183.644 154.819C177.637 155.532 172.355 155.703 166.559 153.974C169.318 150.766 170.52 146.529 171.325 142.372C172.131 138.214 172.632 133.95 174.27 130.056C177.676 121.991 181.452 117.094 189.929 114.929C192.53 114.269 198.102 114.203 202.803 116.791C207.662 119.457 208.81 125.054 211.781 129.739C214.752 134.425 218.132 139.177 223.097 141.659" fill="#272425"/>
<path d="M202.34 149.948C202.789 146.226 204.202 141.434 204.202 141.434L191.17 134.597C191.17 134.597 192.583 138.491 191.923 143.572C194.709 146.608 198.353 148.866 202.327 149.948H202.34Z" fill="#F5C2D4"/>
<path d="M202.208 152.469C202.168 151.756 202.208 150.885 202.34 149.948C198.366 148.852 194.722 146.608 191.936 143.572C191.856 144.166 191.764 144.787 191.619 145.42C190.298 151.386 185.215 155.36 185.215 155.36L196.029 175.885L208.902 158.013C208.902 158.013 202.432 156.02 202.208 152.482V152.469Z" fill="#FFBFBF"/>
<path d="M189.111 137.712C186.259 137.989 183.315 136.22 182.219 133.567C181.915 132.841 181.756 131.983 182.139 131.284C182.562 130.518 183.579 130.215 184.437 130.426C185.295 130.637 185.968 131.297 186.457 132.023C187.659 133.845 188.002 135.811 189.111 137.699V137.712Z" fill="#F5C2D4"/>
<path d="M187.078 135.019C186.708 135.494 185.995 135.574 185.441 135.323C184.899 135.072 184.503 134.57 184.213 134.056" stroke="#D4686F" stroke-width="0.36" stroke-linecap="round" stroke-linejoin="round"/>
<path d="M207.213 126.361C209.748 134.267 208.151 142.28 202.275 144.167C196.399 146.041 188.49 141.078 185.955 133.172C183.42 125.265 186.127 117.345 192.002 115.458C197.878 113.583 204.691 118.454 207.213 126.361Z" fill="#FFBFBF"/>
<path d="M192.399 123.311C191.118 125.991 189.23 128.34 187.104 130.4C186.893 130.598 186.681 130.796 186.417 130.901C185.48 131.271 184.595 130.334 183.869 129.634C182.813 128.618 181.426 127.931 179.974 127.707C179.855 127.694 182.984 122.242 183.341 121.78C184.807 119.879 186.563 118.177 188.517 116.778C189.916 115.774 192.359 113.636 193.732 115.629C195 117.464 193.231 121.595 192.399 123.311Z" fill="#272425"/>
<path d="M207.107 124.645C203.555 124.645 199.95 124.13 196.649 122.731C193.348 121.332 190.351 119.035 188.41 115.959C191.975 114.481 196.121 114.547 199.673 116.118C203.225 117.688 206.156 120.738 207.608 124.42C207.688 124.618 207.212 124.843 207.093 124.645H207.107Z" fill="#272425"/>
<path d="M208.573 126.031C207.252 126.955 205.879 127.404 204.44 127.654C204.229 127.694 203.965 127.707 203.767 127.615C203.569 127.522 203.41 127.311 203.436 127.1C203.436 126.955 203.516 126.823 203.608 126.73C204.321 125.965 205.166 125.912 206.671 125.199C207.173 124.962 207.979 124.539 208.533 124.698C209.273 124.909 209.088 125.688 208.573 126.044V126.031Z" fill="#272425"/>
<path d="M192.676 129.001C194.22 129.436 195.673 129.423 197.112 129.199C197.323 129.159 197.574 129.093 197.733 128.935C197.891 128.776 197.97 128.539 197.878 128.341C197.825 128.209 197.719 128.103 197.587 128.037C196.663 127.549 195.844 127.76 194.194 127.588C193.639 127.522 192.742 127.39 192.279 127.72C191.646 128.156 192.068 128.842 192.676 129.014V129.001Z" fill="#272425"/>
<path d="M208.336 132.169C207.055 131.773 206.316 134.201 207.544 134.544C207.834 134.637 208.296 134.663 208.349 134.412C208.402 134.135 208.415 132.855 208.336 132.182" fill="#F5A4A4"/>
<path d="M193.309 134.61C194.933 133.211 197.494 136.26 195.91 137.567C194.325 139.006 191.698 135.864 193.309 134.61Z" fill="#F5A4A4"/>
<path d="M205.219 138.2C204.929 138.741 204.414 139.137 203.82 139.283C203.225 139.415 202.578 139.283 202.09 138.926" stroke="#D4686F" stroke-width="0.25" stroke-linecap="round" stroke-linejoin="round"/>
<path d="M203.568 132.01C204.149 132.789 204.717 133.594 204.73 134.584C204.73 134.993 204.572 135.336 204.268 135.6C203.383 136.353 202.446 135.073 202.314 134.69C202.063 133.964 201.733 131.284 201.759 130.123C201.759 129.938 201.997 129.859 202.116 130.004C202.631 130.585 203.132 131.403 203.581 132.023" fill="#E2A4A6"/>
<path d="M196.953 131.297C196.953 131.746 196.715 132.115 196.425 132.115C196.134 132.115 195.896 131.746 195.896 131.297C195.896 130.848 196.134 130.479 196.425 130.479C196.715 130.479 196.953 130.848 196.953 131.297Z" fill="#08000E"/>
<path d="M206.473 129.858C206.765 129.858 207.002 129.492 207.002 129.04C207.002 128.588 206.765 128.222 206.473 128.222C206.182 128.222 205.945 128.588 205.945 129.04C205.945 129.492 206.182 129.858 206.473 129.858Z" fill="#08000E"/>
<path d="M193.059 109.043C192.174 107.313 190.722 105.65 188.781 105.413C186.246 105.109 184.014 107.525 183.684 110.059C183.341 112.58 184.41 115.088 185.651 117.306C186.629 119.048 187.87 120.843 189.771 121.463C196.492 123.655 194.524 111.894 193.059 109.043Z" fill="#272425"/>
<path d="M138.909 197.467L189.717 169.642L172.116 155.004L132.373 183.74L138.909 197.467Z" fill="#008BCE"/>
<path d="M209.074 158C205.839 159.848 203.806 161.498 200.096 161.049C194.854 160.402 189.255 158.422 186.601 153.855C181.544 153.327 175.748 151.677 171.008 155.901C171.061 159.095 173.147 164.137 174.718 166.923C176.593 170.236 179.762 172.704 183.261 174.222C186.747 175.753 190.563 176.4 194.365 176.717C204.572 177.562 215.28 175.846 223.757 170.091C221.01 165.273 214.369 159.663 209.074 158.013V158Z" fill="#008BCE"/>
<path d="M272.637 280.929L241.793 342.03C241.793 342.03 238.967 342.109 237.634 341.278C236.3 340.446 234.742 337.78 234.742 337.78C234.742 337.78 239.76 293.64 243.721 281.325C246.533 272.6 245.965 268.864 245.965 268.864L272.624 280.916L272.637 280.929Z" fill="#FFBFBF"/>
<path d="M246.652 268.666C240.816 291.647 236.089 315.578 234.795 339.245" stroke="#D4686F" stroke-width="0.7" stroke-linecap="round" stroke-linejoin="round"/>
<path d="M234.967 336.328L243.721 338.783L271.99 358.332L270.339 362.252L230.227 347.007L234.967 336.328Z" fill="#272425"/>
<path d="M257.572 348.947C256.859 346.558 256.503 344.023 256.899 341.555C257.295 339.087 258.523 336.711 260.517 335.219C261.071 334.81 261.758 334.467 262.405 334.691C263.131 334.942 263.448 335.787 263.514 336.552C263.672 338.215 263.131 339.865 262.471 341.397C261.441 343.733 260.107 345.937 258.774 348.115C260.926 344.987 263.276 341.7 266.788 340.261C268.637 339.509 270.684 339.324 272.664 339.615C273.39 339.72 274.169 339.931 274.579 340.525C274.882 340.961 274.935 341.555 274.816 342.083C274.579 343.165 273.72 343.997 272.862 344.696C269.099 347.772 264.399 349.686 259.553 350.108" stroke="#272425" stroke-width="0.92" stroke-miterlimit="10"/>
<path d="M216.085 219.392L177.227 218.996L167.707 167.478L223.638 170.091L216.085 219.392Z" fill="#008BCE"/>
<path d="M208.889 218.309L260.753 200.674C271.686 196.965 283.107 204.779 283.609 216.303L285.339 322.243L218.092 330.11C218.092 330.11 225.645 292.491 229.104 280.572C231.811 271.24 241.687 245.183 241.687 245.183L214.567 233.145L177.227 218.982L208.889 218.296V218.309Z" fill="#222222"/>
<path d="M242.638 245.514C229.131 273.735 225.315 301.322 218.502 329.728" stroke="#272425" stroke-width="0.92" stroke-miterlimit="10"/>
<path d="M211.834 231.535C215.109 233.766 235.786 243.098 242.533 245.844" stroke="#272425" stroke-width="0.92" stroke-miterlimit="10"/>
<path d="M283.476 214.587L285.338 322.257L238.637 327.127" stroke="#272425" stroke-width="0.92" stroke-miterlimit="10"/>
<path d="M229.434 236.723C234.94 234.017 240.617 231.668 246.414 229.688C252.184 227.721 257.742 233.133 255.841 238.928C247.945 263.096 237.937 287.146 234.319 312.093" stroke="#272425" stroke-width="0.92" stroke-miterlimit="10"/>
<path d="M106.693 160.442L211.068 190.062L177.834 279.107L80.127 242.835L106.693 160.442Z" fill="#F7F7F7"/>
<path d="M95.8125 232.473C95.8125 232.473 116.899 202.509 135.067 209.03C153.235 215.551 141.233 228.869 152.456 228.038C163.68 227.206 174.137 211.776 178.837 216.409C183.538 221.042 170.585 265.01 170.585 265.01L95.8125 232.473Z" fill="#CFC3F1"/>
<path d="M122.485 179.873C123.581 175.728 127.846 173.246 131.992 174.355C136.138 175.451 138.62 179.714 137.511 183.859C136.415 188.004 132.15 190.485 128.004 189.376C123.858 188.281 121.376 184.017 122.485 179.873Z" fill="#222222"/>
<path d="M147.756 236.261C147.756 236.261 161.435 261.341 164.023 264.205C166.611 267.056 169.318 269.168 172.051 269.181C174.797 269.208 175.563 268.812 175.563 268.812C175.563 268.812 176.883 269.313 178.098 268.93C179.313 268.561 180.963 267.016 180.963 267.016C180.963 267.016 182.27 267.439 183.908 266.343C185.545 265.248 185.571 264.284 185.545 264.06C185.518 263.835 183.115 262.964 182.706 262.647C182.297 262.331 176.078 253.566 175.655 251.916C175.22 250.266 176.223 250.517 176.223 250.517C176.223 250.517 182.072 258.74 183.353 259.532C184.634 260.337 186.165 260.139 186.588 259.941C187.156 259.677 187.75 258.265 186.852 256.457C185.954 254.648 182.719 249.25 180.831 247.125C178.93 244.999 172.579 239.152 169.08 235.958C165.356 232.565 160.431 226.995 160.431 226.995L147.769 236.261H147.756Z" fill="#FFBFBF"/>
<path d="M165.74 262.423C166.176 263.32 166.678 264.192 167.259 265.01C168.698 267.082 170.692 268.917 173.161 269.419" stroke="#D4686F" stroke-width="0.47" stroke-linecap="round" stroke-linejoin="round"/>
<path d="M169.238 261.063C170.017 262.964 171.034 264.799 172.5 266.238C173.952 267.677 175.893 268.719 177.953 268.798" stroke="#D4686F" stroke-width="0.47" stroke-linecap="round" stroke-linejoin="round"/>
<path d="M173.648 259.242C174.546 261.46 175.787 263.611 177.715 265.024C179.643 266.436 182.376 266.924 184.449 265.75" stroke="#D4686F" stroke-width="0.47" stroke-linecap="round" stroke-linejoin="round"/>
<path d="M175.959 250.306C177.794 252.563 179.63 254.833 181.465 257.09C182.614 258.503 184 260.034 185.809 260.034" stroke="#D4686F" stroke-width="0.47" stroke-linecap="round" stroke-linejoin="round"/>
<path d="M183.684 256.893C184.053 257.645 184.595 258.305 185.268 258.807C185.466 258.952 185.677 259.084 185.915 259.137C186.153 259.189 186.43 259.137 186.589 258.939C186.734 258.767 186.76 258.516 186.76 258.279C186.747 257.064 186.153 255.876 185.189 255.124C183.631 253.923 183.024 255.533 183.684 256.88V256.893Z" stroke="#D4686F" stroke-width="0.47" stroke-linecap="round" stroke-linejoin="round"/>
<path d="M167.324 233.198L151.625 209.677L146.502 201.018L185.757 177.562L166.902 158.897L120.57 192.451C116.318 195.302 116.252 200.173 118.84 204.7L152.048 246.002L167.324 233.185V233.198Z" fill="#008BCE"/>
<path d="M168.01 226.995L145.656 246.055" stroke="#272425" stroke-width="0.92" stroke-miterlimit="10"/>
<path d="M163.733 225.675L151.572 235.205" stroke="#272425" stroke-width="0.92" stroke-miterlimit="10"/>
<path d="M219.135 232.935C218.211 230.876 217.973 228.5 218.501 226.309" stroke="#272425" stroke-width="0.92" stroke-miterlimit="10"/>
<path d="M223.743 235.997C221.657 231.522 221.459 226.189 223.215 221.569" stroke="#272425" stroke-width="0.92" stroke-miterlimit="10"/>
<path d="M51.7251 224.989C66.2293 224.989 77.9872 213.234 77.9872 198.735C77.9872 184.235 66.2293 172.48 51.7251 172.48C37.2209 172.48 25.4629 184.235 25.4629 198.735C25.4629 213.234 37.2209 224.989 51.7251 224.989Z" stroke="#008BCE" stroke-width="0.7" stroke-miterlimit="10"/>
<path d="M78.7788 109.135C81.8817 112.237 81.8817 117.253 78.7788 120.355C75.6759 123.457 70.6585 123.457 67.5557 120.355C64.4528 117.253 64.4528 112.237 67.5557 109.135C70.6585 106.033 75.6759 106.033 78.7788 109.135Z" stroke="#008BCE" stroke-width="0.7" stroke-miterlimit="10"/>
<path d="M308.656 156.205C311.759 159.307 311.759 164.323 308.656 167.425C305.553 170.527 300.535 170.527 297.433 167.425C294.33 164.323 294.33 159.307 297.433 156.205C300.535 153.103 305.553 153.103 308.656 156.205Z" stroke="#008BCE" stroke-width="0.7" stroke-miterlimit="10"/>
<path d="M292.719 178.421C294.515 180.216 294.515 183.133 292.719 184.941C290.923 186.75 288.005 186.736 286.196 184.941C284.401 183.146 284.401 180.229 286.196 178.421C287.992 176.625 290.91 176.625 292.719 178.421Z" fill="#272425"/>
<path d="M310.848 245.091C312.644 246.887 312.644 249.804 310.848 251.612C309.052 253.407 306.134 253.407 304.325 251.612C302.53 249.817 302.53 246.9 304.325 245.091C306.121 243.296 309.039 243.296 310.848 245.091Z" fill="#272425"/>
<path d="M103.418 135.059C105.214 136.854 105.214 139.772 103.418 141.58C101.623 143.375 98.7045 143.375 96.8956 141.58C95.0999 139.785 95.0999 136.868 96.8956 135.059C98.6913 133.251 101.609 133.264 103.418 135.059Z" fill="#272425"/>
<path d="M147.678 280.203C149.474 281.998 149.474 284.915 147.678 286.723C145.882 288.519 142.964 288.519 141.155 286.723C139.36 284.928 139.36 282.011 141.155 280.203C142.951 278.408 145.869 278.408 147.678 280.203Z" fill="#272425"/>
<path d="M51.8828 40.7744L120.318 117.583" stroke="#272425" stroke-width="0.92" stroke-miterlimit="10"/>
<path d="M72.6523 77.3643L141.087 154.173" stroke="#272425" stroke-width="0.92" stroke-miterlimit="10"/>
<path d="M316.551 213.954L399.893 196.953L408.858 270.911L327.761 280.877L316.551 213.954Z" fill="#F7F7F7"/>
<path d="M334.957 268.007C334.957 268.007 338.825 239.548 353.825 237.542C368.824 235.536 365.272 249.131 372.785 244.511C380.298 239.892 382.015 225.385 386.953 226.916C391.891 228.448 398.73 263.73 398.73 263.73L334.943 268.02L334.957 268.007Z" fill="#A0D2F4"/>
<path d="M334.547 221.781C333.821 218.495 335.894 215.247 339.182 214.508C342.47 213.782 345.718 215.855 346.457 219.141C347.183 222.428 345.11 225.675 341.823 226.414C338.535 227.14 335.287 225.068 334.547 221.781Z" fill="#222222"/>
<path d="M405.253 200.081L414.218 274.039L333.121 283.991" stroke="#272425" stroke-width="1.08" stroke-miterlimit="10"/>
<path d="M94.9274 282.314C70.0912 282.314 49.9688 302.444 49.9688 327.259C49.9688 352.075 70.1044 372.204 94.9274 372.204C119.75 372.204 139.886 352.075 139.886 327.259C139.886 302.444 119.75 282.314 94.9274 282.314ZM94.9274 347.904C83.5194 347.904 74.2768 338.664 74.2768 327.259C74.2768 315.855 83.5194 306.615 94.9274 306.615C106.335 306.615 115.578 315.855 115.578 327.259C115.578 338.664 106.335 347.904 94.9274 347.904Z" fill="#A0D2F4"/>
<path d="M358.117 94.7998L426.539 171.609" stroke="#272425" stroke-width="0.92" stroke-miterlimit="10"/>
<path d="M305.184 53.6172L353.456 108.343" stroke="#272425" stroke-width="0.92" stroke-miterlimit="10"/>
<path d="M343.197 65.0348L359.279 83.3295C367.809 77.1257 379.811 78.34 386.915 86.405C394.018 94.4832 393.675 106.535 386.439 114.19L402.522 132.485C419.832 115.919 421.139 88.517 405.175 70.3542C389.199 52.2047 361.841 50.0003 343.197 65.0348Z" fill="#A0D2F4"/>
</g>
</g>
<defs>
<clipPath id="clip0_2382_10660">
<rect width="427" height="425" fill="white"/>
</clipPath>
<clipPath id="clip1_2382_10660">
<rect width="402" height="395" fill="white" transform="translate(25 8)"/>
</clipPath>
</defs>
</svg>
