<svg width="427" height="425" viewBox="0 0 427 425" fill="none" xmlns="http://www.w3.org/2000/svg">
<g clip-path="url(#clip0_2385_11145)">
<path d="M400.041 382.57C388.531 392.16 338.441 398.94 278.761 401.49C187.021 405.42 72.6009 399.37 40.7909 378.2C25.7309 368.19 15.5509 337.25 9.1009 297.66C-6.9291 199.16 0.220901 47.1301 13.1609 30.6501C31.3109 7.56009 323.301 -15.3099 399.911 13.9301C432.741 26.4601 429.231 358.23 400.031 382.57H400.041Z" fill="white"/>
<g clip-path="url(#clip1_2385_11145)">
<path d="M186.627 381.327C186.627 381.327 166.768 151.883 325.947 178.295C485.139 204.71 389.416 394.351 362.702 420.585L186.624 381.34L186.627 381.327Z" fill="#CCE3FF"/>
<mask id="mask0_2385_11145" style="mask-type:luminance" maskUnits="userSpaceOnUse" x="185" y="176" width="231" height="245">
<path d="M186.627 381.327C186.627 381.327 166.768 151.883 325.947 178.295C485.139 204.71 389.416 394.351 362.702 420.585L186.624 381.34L186.627 381.327Z" fill="white"/>
</mask>
<g mask="url(#mask0_2385_11145)">
<g opacity="0.5">
<path d="M268.79 235.738L235.705 228.1L232.498 241.992L265.583 249.63L268.79 235.738Z" stroke="#A6CEFF" stroke-width="0.5" stroke-miterlimit="10"/>
<path d="M410.634 325.597L377.549 317.959L374.342 331.852L407.427 339.49L410.634 325.597Z" stroke="#A6CEFF" stroke-width="0.5" stroke-miterlimit="10"/>
<path d="M424.023 257.253L390.938 249.615L387.73 263.508L420.815 271.146L424.023 257.253Z" stroke="#A6CEFF" stroke-width="0.5" stroke-miterlimit="10"/>
<path d="M407.2 271.111L374.115 263.473L370.908 277.365L403.993 285.003L407.2 271.111Z" fill="#A6CEFF"/>
<path d="M333.39 265.07L300.305 257.432L297.097 271.324L330.182 278.962L333.39 265.07Z" fill="#A6CEFF"/>
<path d="M317.025 193.665L283.939 186.027L280.732 199.92L313.817 207.558L317.025 193.665Z" fill="#A6CEFF"/>
</g>
</g>
<path d="M314.073 271.771C314.154 271.83 314.222 271.886 314.303 271.945C326.33 281.491 339.648 278.837 341.85 278.305C342.555 271.86 342.444 268.308 342.921 262.203C342.605 262.171 342.304 262.128 341.978 262.08C334.465 261.17 326.518 260.267 318.965 257.834C317.943 260.801 316.967 263.683 316.028 266.52C315.15 269.155 314.904 269.166 314.066 271.742L314.073 271.771Z" fill="#FFAB99"/>
<path d="M316.034 266.548C327.662 268.408 338.481 265.231 341.824 264.084C341.88 263.435 341.928 262.757 341.984 262.108C334.471 261.197 326.524 260.295 318.971 257.862C317.949 260.828 316.973 263.711 316.034 266.548Z" fill="#FF9078"/>
<path d="M353.127 209.877C353.127 209.877 354.908 194.79 361.173 195.493C364.61 195.868 366.372 199.058 367.267 201.846C368.055 204.284 369.704 206.381 371.879 207.72C374.006 209.036 375.989 211.264 374.457 214.801C371.628 221.323 359.023 220.304 359.023 220.304L353.127 209.877Z" fill="#21100C"/>
<path d="M355.606 209.491C355.633 209.375 359.113 198.978 363.005 196.039C362.786 195.934 362.57 195.817 362.333 195.735C358.372 199.09 355.131 208.8 354.98 209.278L355.619 209.494L355.606 209.491Z" fill="#5C2D21"/>
<path d="M368.547 204.492C368.416 204.3 368.301 204.097 368.185 203.895L357.359 215.583L357.309 212.639L366.06 199.067C365.934 198.849 365.806 198.644 365.665 198.436L356.698 212.363L356.639 212.444L356.706 216.189L357.091 216.859L368.55 204.479L368.547 204.492Z" fill="#5C2D21"/>
<path d="M373.044 208.584C372.863 208.434 372.694 208.287 372.51 208.15L358.332 219.091L358.668 219.682L373.044 208.584Z" fill="#5C2D21"/>
<path d="M308.197 229.392C308.197 229.392 306.011 192.717 344.375 202.52C380.854 211.833 362.073 238.736 362.073 238.736L308.21 229.395L308.197 229.392Z" fill="white"/>
<path d="M315.559 231.768C315.277 230.243 314.309 228.939 313.223 227.85C312.567 227.185 311.834 226.557 310.975 226.183C310.117 225.809 309.1 225.709 308.232 226.077C307.152 226.543 306.476 227.657 306.213 228.799C305.689 231.07 306.543 233.51 308.015 235.322C309.487 237.135 311.501 238.411 313.554 239.52C314.084 236.696 314.694 233.878 315.544 231.777L315.559 231.768Z" fill="#FFAB99"/>
<path d="M314.905 234.832C312.74 233.859 311.032 231.898 310.344 229.617" stroke="#21100C" stroke-width="0.5" stroke-miterlimit="10"/>
<path d="M309.38 234.733C309.38 234.733 302.078 241.681 304.369 243.804C306.66 245.927 310.517 237.644 310.517 237.644" stroke="#F3BE2E" stroke-width="0.75" stroke-miterlimit="10"/>
<path d="M355.027 240.298C356.239 238.97 357.51 237.615 359.177 236.946C360.843 236.277 363.008 236.493 364.065 237.94C364.444 238.46 364.653 239.075 364.776 239.712C365.237 242.102 364.38 244.701 362.597 246.343C360.811 247.998 358.161 248.656 355.823 248.022C355.188 247.848 354.558 247.594 353.908 247.661C354.594 244.982 355.062 242.252 355.024 240.311L355.027 240.298Z" fill="#FFAB99"/>
<path d="M361.609 240.034C360.306 241.76 358.375 242.99 356.251 243.418" stroke="#21100C" stroke-width="0.5" stroke-miterlimit="10"/>
<path d="M359.412 245.985C359.412 245.985 363.282 255.364 359.741 255.965C356.212 256.569 357.106 248.196 357.106 248.196" stroke="#F3BE2E" stroke-width="0.75" stroke-miterlimit="10"/>
<path d="M338.605 210.256C343.232 211.675 347.971 213.431 351.339 216.911C354.403 220.077 356.05 224.403 356.62 228.777C357.19 233.152 356.749 237.576 356.119 241.944C354.888 250.374 352.397 259.528 345.32 264.271C339.007 268.516 330.456 268.068 323.439 265.125C321.52 264.316 319.667 263.335 318.089 261.984C315.211 259.536 313.424 255.989 312.544 252.313C311.677 248.641 311.656 244.812 311.892 241.043C312.36 233.341 313.919 225.419 318.396 219.129C322.885 212.842 330.835 208.584 338.592 210.253L338.605 210.256Z" fill="#FFAB99"/>
<path d="M313.76 240.677C313.111 243.135 314.936 245.759 317.815 246.505C320.705 247.266 323.565 245.873 324.213 243.415C324.862 240.957 323.037 238.333 320.158 237.587C317.269 236.826 314.408 238.219 313.76 240.677Z" fill="#FF9078"/>
<path d="M340.774 246.954C340.125 249.413 341.95 252.036 344.829 252.782C347.718 253.543 350.578 252.15 351.227 249.692C351.875 247.234 350.051 244.61 347.171 243.865C344.282 243.103 341.422 244.496 340.774 246.954Z" fill="#FF9078"/>
<path d="M346.128 237.853C346.781 237.477 346.418 236.42 345.84 236.057C345.604 235.908 345.335 235.846 345.066 235.784C344.592 235.674 344.117 235.565 343.643 235.455C342.797 235.26 341.907 235.082 341.065 235.333C340.789 235.418 340.53 235.547 340.346 235.761C340.161 235.976 340.087 236.296 340.188 236.563C340.354 236.952 340.828 237.062 341.245 237.131C342.819 237.386 345.477 238.216 346.131 237.84L346.128 237.853Z" fill="#21100C"/>
<path d="M342.856 240.503C343.016 239.864 342.641 239.21 342.006 239.036C341.368 238.875 340.714 239.251 340.54 239.887C340.379 240.525 340.755 241.18 341.39 241.353C342.028 241.514 342.682 241.138 342.856 240.503Z" fill="#21100C"/>
<path d="M328.196 233.822C328.594 233.914 329.054 233.966 329.356 233.711C329.677 233.434 329.664 232.904 329.437 232.541C329.211 232.178 328.814 231.965 328.422 231.793C327.125 231.21 325.703 230.936 324.284 231C323.997 231.015 323.663 231.059 323.476 231.286C323.248 231.571 323.371 232.032 323.65 232.286C323.929 232.539 326.829 233.547 328.181 233.832L328.196 233.822Z" fill="#21100C"/>
<path d="M327.07 236.655C327.231 236.016 326.856 235.362 326.221 235.189C325.583 235.028 324.929 235.404 324.755 236.039C324.594 236.678 324.97 237.332 325.605 237.506C326.243 237.666 326.897 237.29 327.07 236.655Z" fill="#21100C"/>
<path d="M334.947 233.001C333.164 239.318 330.168 240.775 329.855 241.662C329.542 242.549 331.486 244.714 333.58 244.008" fill="#FF9078"/>
<path d="M334.947 233.001C333.164 239.318 330.168 240.775 329.855 241.662C329.542 242.549 331.486 244.714 333.58 244.008" stroke="#21100C" stroke-width="0.5" stroke-miterlimit="10"/>
<path d="M329.631 249.068C329.631 249.068 334.835 250.797 336.349 246.931" stroke="#21100C" stroke-width="0.5" stroke-miterlimit="10"/>
<path d="M344.002 265.129C344.002 265.129 330.515 271.379 317.059 261.179" stroke="#21100C" stroke-width="0.5" stroke-miterlimit="10"/>
<path d="M313.649 231.733C313.649 231.733 325.357 227.518 330.671 219.003L328.014 226.416C328.014 226.416 334.852 225.278 336.219 220.527L333.969 228.52C333.969 228.52 342.285 229.697 345.251 223.22C345.251 223.22 350.536 240.627 356.238 243.416C356.238 243.416 357.267 237.965 360.811 237.176C360.811 237.176 372.067 215.44 342.602 206.8C313.147 198.176 310.843 226.694 310.843 226.694C310.843 226.694 314.085 228.618 313.64 231.717L313.649 231.733Z" fill="#21100C"/>
<path d="M317.478 224.388C317.478 224.388 325.684 221.188 328.028 213.082" stroke="#5C2D21" stroke-width="0.5" stroke-miterlimit="10"/>
<path d="M316.666 219.539C316.666 219.539 320.024 213.882 324.09 210.835" stroke="#5C2D21" stroke-width="0.5" stroke-miterlimit="10"/>
<path d="M349.68 217.311C349.68 217.311 350.862 227.339 354.717 231.985" stroke="#5C2D21" stroke-width="0.5" stroke-miterlimit="10"/>
<path d="M355.229 219.361C355.229 219.361 357.923 223.307 358.07 226.881" stroke="#5C2D21" stroke-width="0.5" stroke-miterlimit="10"/>
<path d="M342.881 213.958C342.881 213.958 343.28 220.59 339.702 224.628" stroke="#5C2D21" stroke-width="0.5" stroke-miterlimit="10"/>
<path d="M335.452 211.689C335.452 211.689 336.234 215.086 333.065 220.448" stroke="#5C2D21" stroke-width="0.5" stroke-miterlimit="10"/>
<path d="M365.215 421.098L234.221 390.856L236.397 380.495C233.753 379.371 231.631 377.922 229.94 376.18C216.372 356.172 245.945 306.21 255.846 291.512C256.178 291.008 256.496 290.567 256.779 290.16C257.025 289.798 257.29 289.467 257.6 289.12C259.718 286.731 263.19 284.614 267.404 282.736C267.971 282.502 268.544 282.242 269.156 281.992C269.276 281.939 269.394 281.898 269.514 281.845C270.031 281.653 270.54 281.433 271.07 281.245C271.279 281.158 271.511 281.09 271.736 280.993C272.192 280.828 272.652 280.651 273.131 280.505C273.81 280.256 274.495 280.036 275.183 279.803C275.196 279.806 275.212 279.796 275.228 279.786C275.91 279.579 276.596 279.359 277.294 279.142C279.417 278.483 281.58 277.888 283.759 277.337C298.767 273.506 314.102 271.763 314.102 271.763L341.889 278.313C346.264 284.336 355.128 289.571 363.791 295.908C363.872 295.968 363.94 296.024 364.024 296.07C364.567 296.466 365.118 296.89 365.661 297.286C365.693 297.32 365.729 297.342 365.764 297.364C366.353 297.797 366.923 298.253 367.496 298.696C367.496 298.696 367.499 298.701 367.505 298.711C368.648 299.61 369.772 300.532 370.864 301.473C370.955 301.548 371.043 301.636 371.134 301.711C371.72 302.211 372.275 302.731 372.843 303.254C373.408 303.79 373.973 304.326 374.522 304.871C374.993 305.345 375.462 305.831 375.901 306.325C376.041 306.479 376.181 306.632 376.337 306.776C376.787 307.286 377.226 307.779 377.647 308.295C377.892 308.581 378.143 308.896 378.372 309.192C379.093 310.102 379.771 311.028 380.413 311.987C380.623 312.306 380.843 312.64 381.04 312.956C381.454 313.619 381.827 314.286 382.199 314.953C382.384 315.266 382.549 315.602 382.718 315.924C382.82 316.123 382.91 316.32 383.01 316.532C383.165 316.852 383.328 317.2 383.468 317.53C383.611 317.846 383.761 318.192 383.885 318.531C384.048 318.934 384.219 319.365 384.351 319.787C384.451 320.054 384.533 320.343 384.644 320.625C384.755 320.961 384.87 321.339 384.966 321.686C385.282 322.772 385.525 323.882 385.721 325.022C389.891 349.481 365.247 421.078 365.247 421.078L365.215 421.098Z" fill="#FFAB99"/>
<path d="M304.251 278.528L315.213 280.815" stroke="#21100C" stroke-width="0.5" stroke-miterlimit="10"/>
<path d="M321.994 283.083C321.994 283.083 323.46 285.272 325.446 285.731C327.433 286.19 329.287 284.186 329.287 284.186" stroke="#21100C" stroke-width="0.5" stroke-miterlimit="10"/>
<path d="M373.341 414.677C368.109 423.305 354.967 423.852 354.967 423.852L320.571 413.411L316.1 412.19L233.396 392.854L236.385 380.491C233.741 379.368 231.619 377.918 229.928 376.177C211.68 357.372 246.073 305.658 255.834 291.508C256.166 291.004 256.484 290.564 256.767 290.156C257.013 289.794 257.278 289.464 257.588 289.116C259.706 286.727 263.178 284.611 267.392 282.732C267.959 282.499 268.532 282.239 269.144 281.988C269.264 281.935 269.382 281.895 269.502 281.841C270.019 281.65 270.529 281.43 271.058 281.241C271.267 281.154 271.499 281.086 271.724 280.99C272.18 280.825 272.64 280.647 273.119 280.501C273.798 280.252 274.483 280.032 275.172 279.799C275.184 279.802 275.2 279.792 275.216 279.783C275.898 279.575 276.584 279.355 277.282 279.138C279.405 278.48 281.568 277.885 283.747 277.334C294.797 286.843 323.588 306.475 363.779 295.905C363.86 295.964 363.928 296.02 364.012 296.067C364.555 296.462 365.106 296.887 365.649 297.282C365.681 297.317 365.717 297.338 365.752 297.36C366.341 297.793 366.911 298.249 367.484 298.692C367.484 298.692 367.487 298.697 367.493 298.708C368.636 299.607 369.76 300.528 370.852 301.47C370.943 301.545 371.031 301.632 371.122 301.707C371.708 302.208 372.263 302.728 372.831 303.251C373.396 303.786 373.961 304.322 374.51 304.868C374.981 305.341 375.45 305.828 375.889 306.321C376.029 306.475 376.169 306.629 376.325 306.773C376.775 307.282 377.214 307.775 377.635 308.292C377.88 308.578 378.131 308.892 378.36 309.188C379.081 310.098 379.759 311.025 380.401 311.984C380.611 312.302 380.831 312.637 381.028 312.953C381.442 313.616 381.815 314.283 382.187 314.95C382.372 315.263 382.537 315.598 382.706 315.921C382.808 316.12 382.898 316.316 382.998 316.529C383.153 316.848 383.316 317.196 383.456 317.526C383.599 317.843 383.749 318.188 383.873 318.528C384.036 318.93 384.207 319.361 384.339 319.784C384.439 320.05 384.521 320.339 384.632 320.621C384.743 320.958 384.858 321.336 384.954 321.682C385.27 322.769 385.513 323.879 385.709 325.018C389.879 349.477 385.013 395.469 373.37 414.67L373.341 414.677Z" fill="#008BCE"/>
<path d="M366.617 298.059C366.319 297.828 366.034 297.6 365.723 297.366C365.688 297.345 365.652 297.323 365.62 297.288C365.076 296.893 364.526 296.468 363.983 296.073C363.899 296.026 363.831 295.97 363.75 295.911C323.559 306.481 294.768 286.849 283.718 277.34C282.743 277.588 281.777 277.851 280.812 278.115C287.258 284.818 318.823 313.954 366.617 298.059Z" fill="#0161D1"/>
<path d="M208.671 311.103C177.701 303.953 158.332 272.931 165.487 241.939C172.642 210.947 203.65 191.555 234.62 198.705C265.59 205.855 284.959 236.877 277.804 267.869C270.649 298.861 239.641 318.253 208.671 311.103ZM231.904 210.468C207.42 204.816 182.898 220.152 177.241 244.653C171.585 269.154 186.903 293.688 211.387 299.34C235.871 304.992 260.393 289.657 266.049 265.155C271.706 240.654 256.388 216.121 231.904 210.468Z" fill="#A0D2F4"/>
<path d="M243.415 252.081L201.024 242.294C198.695 241.756 196.37 243.21 195.832 245.541L191.609 263.833C191.071 266.164 192.523 268.49 194.852 269.027L237.244 278.814C239.573 279.352 241.897 277.898 242.435 275.567L246.659 257.275C247.197 254.944 245.745 252.618 243.415 252.081Z" fill="#222222"/>
<path d="M198.466 257.702C199.556 257.953 200.645 257.273 200.896 256.182C201.148 255.091 200.469 254.002 199.378 253.751C198.288 253.499 197.2 254.179 196.948 255.27C196.696 256.361 197.376 257.45 198.466 257.702Z" fill="white"/>
<path d="M222.561 261.184C222.141 263.006 220.31 264.151 218.49 263.73C216.67 263.31 215.526 261.479 215.947 259.657C216.367 257.836 218.198 256.691 220.018 257.111C221.838 257.531 222.982 259.363 222.561 261.184Z" fill="white"/>
<path d="M229.769 249.078L214.618 245.58C215.041 243.746 216.872 242.601 218.705 243.024L227.204 244.986C229.037 245.41 230.18 247.241 229.757 249.075L229.769 249.078Z" fill="#001D3D"/>
<path d="M208.518 272.006L223.669 275.504C223.246 277.338 221.415 278.483 219.582 278.06L211.083 276.098C209.25 275.675 208.107 273.843 208.53 272.009L208.518 272.006Z" fill="#001D3D"/>
<path d="M215.756 275.217L202.204 333.917" stroke="#001D3D" stroke-width="0.75" stroke-miterlimit="10"/>
<path d="M207.442 334.101L197.418 331.787L193.198 350.067L203.222 352.381L207.442 334.101Z" fill="#001D3D"/>
<path d="M199.564 350.441L197.334 349.926L189.637 383.265L191.868 383.78L199.564 350.441Z" fill="#001D3D"/>
<path d="M199.442 350.891L197.627 349.496L174.829 379.192L176.644 380.587L199.442 350.891Z" fill="#001D3D"/>
<path d="M204.833 387.097L207.076 386.639L199.603 349.955L197.36 350.413L204.833 387.097Z" fill="#001D3D"/>
<path d="M161.312 376.227L374.629 425.473" stroke="#A6CEFF" stroke-miterlimit="10"/>
<path d="M344.783 292.748L332.123 284.245C332.123 284.245 337.025 272.838 347.193 275.874L348.97 289.174L344.783 292.748Z" fill="white"/>
<path d="M344.783 292.749L364.039 327.771C364.039 327.771 368.698 327.239 369.578 324.658L348.97 289.175C348.97 289.175 345.35 289.65 344.783 292.749Z" fill="#010C16"/>
<path d="M344.114 312.078C344.114 312.078 354.384 299.234 358.564 299.727C362.744 300.219 361.993 304.409 361.993 304.409C361.993 304.409 365.269 303.085 366.885 305.674C368.502 308.263 367.763 310.295 367.763 310.295C367.763 310.295 370.687 310.146 371.449 312.808C372.212 315.47 371.161 318.268 371.161 318.268C371.161 318.268 374.758 318.828 374.331 321.905C373.892 324.978 357.059 336.306 357.059 336.306L344.127 312.081L344.114 312.078Z" fill="#FFAB99"/>
<path d="M258.086 344.684C258.086 344.684 322.526 314.526 341.948 307.89C341.948 307.89 352.76 328.019 359.125 340.338C359.125 340.338 264.013 401.531 230.687 377.217" fill="#008BCE"/>
<path d="M258.086 344.684C258.086 344.684 322.526 314.526 341.948 307.89C341.948 307.89 352.76 328.019 359.125 340.338C359.125 340.338 264.013 401.531 230.687 377.217" stroke="#21100C" stroke-width="0.5" stroke-miterlimit="10"/>
<path d="M338.188 309.266L355.242 342.185" stroke="#21100C" stroke-width="0.5" stroke-miterlimit="10"/>
<path d="M271.929 321.452L265.901 341.07" stroke="#21100C" stroke-width="0.5" stroke-miterlimit="10"/>
<path d="M285.474 341.668L236.172 312.811L221.838 337.323L271.14 366.18L285.474 341.668Z" fill="#010C16"/>
<path d="M271.138 366.184L221.836 337.326L209.083 359.134L258.385 387.991L271.138 366.184Z" fill="#03203B"/>
<path d="M281.036 383.004C273.957 379.924 267.068 376.429 260.395 372.523C258.824 371.607 257.108 370.441 256.849 368.638C256.794 368.233 256.815 367.792 257.055 367.456C257.596 366.689 258.775 366.907 259.664 367.207C262.503 368.187 265.332 369.15 268.171 370.13C264.86 367.744 261.549 365.359 258.241 362.96C257.326 362.303 256.372 361.583 255.935 360.55C255.499 359.517 255.821 358.064 256.893 357.69C257.73 357.397 258.625 357.847 259.399 358.296C262.856 360.283 266.3 362.267 269.757 364.254C266.277 361.37 262.795 358.499 259.329 355.618C258.091 354.602 256.773 352.825 257.811 351.606C258.736 350.522 260.475 351.18 261.694 351.921C265.382 354.137 269.069 356.353 272.754 358.582C270.593 356.772 268.432 354.963 266.271 353.153C265.545 352.553 264.8 351.922 264.433 351.054C264.063 350.198 264.183 349.037 264.965 348.515C265.94 347.861 267.224 348.496 268.202 349.113C271.359 351.112 274.519 353.098 278.2 355.11C276.838 353.174 275.636 351.127 274.615 349C274.304 348.36 274.013 347.631 274.237 346.953C274.57 345.976 275.86 345.652 276.818 346.009C277.775 346.365 278.473 347.201 279.129 347.988C283.023 352.643 287.297 356.994 291.795 360.965C288.484 368.523 284.893 375.95 281.023 383.001L281.036 383.004Z" fill="#FFAB99"/>
<path d="M353.274 381.238L292.841 357.721L275.775 385.79C275.775 385.79 338.326 433.645 365.206 421.082" fill="#008BCE"/>
<path d="M353.274 381.238L292.841 357.721L275.775 385.79C275.775 385.79 338.326 433.645 365.206 421.082" stroke="#21100C" stroke-width="0.5" stroke-miterlimit="10"/>
<path d="M295.987 359.353L279.24 388.442" stroke="#21100C" stroke-width="0.5" stroke-miterlimit="10"/>
<path d="M354.047 357.596L349.213 379.53" stroke="#21100C" stroke-width="0.5" stroke-miterlimit="10"/>
</g>
<path d="M373.314 247.44L375.204 241.883L377.358 247.44C377.358 247.44 381.657 248.14 381.712 248.531C381.757 248.913 377.595 250.095 377.595 250.095C377.595 250.095 375.85 255.488 375.204 254.27C374.568 253.051 373.95 250.35 373.95 250.35C373.95 250.35 368.533 249.268 368.533 248.731C368.533 248.158 373.314 247.449 373.314 247.449V247.44Z" fill="white"/>
<path d="M304.094 233.142L305.566 228.822L307.238 233.142C307.238 233.142 310.574 233.688 310.619 233.988C310.656 234.279 307.429 235.198 307.429 235.198C307.429 235.198 306.075 239.381 305.575 238.435C305.075 237.49 304.594 235.389 304.594 235.389C304.594 235.389 300.395 234.543 300.395 234.134C300.395 233.688 304.103 233.142 304.103 233.142H304.094Z" fill="white"/>
<g clip-path="url(#clip2_2385_11145)">
<path d="M76.1766 215.758C76.1766 215.758 -29.7598 44.9938 106.076 2.10202C241.912 -40.7898 242.322 146.016 231.774 177.236L76.1795 215.77L76.1766 215.758Z" fill="#CCE3FF"/>
<mask id="mask1_2385_11145" style="mask-type:luminance" maskUnits="userSpaceOnUse" x="36" y="-5" width="200" height="221">
<path d="M76.1766 215.758C76.1766 215.758 -29.7598 44.9938 106.076 2.10202C241.912 -40.7898 242.322 146.016 231.774 177.236L76.1795 215.77L76.1766 215.758Z" fill="white"/>
</mask>
<g mask="url(#mask1_2385_11145)">
<g opacity="0.5">
<path d="M83.8141 73.9692L54.7227 81.2012L57.7462 93.3636L86.8376 86.1316L83.8141 73.9692Z" stroke="#A6CEFF" stroke-width="0.5" stroke-miterlimit="10"/>
<path d="M236.892 127.358L207.801 134.59L210.824 146.752L239.916 139.52L236.892 127.358Z" stroke="#A6CEFF" stroke-width="0.5" stroke-miterlimit="10"/>
<path d="M214.59 28.812L185.498 36.0439L188.522 48.2063L217.613 40.9744L214.59 28.812Z" stroke="#A6CEFF" stroke-width="0.5" stroke-miterlimit="10"/>
<path d="M206.877 46.3764L177.785 53.6084L180.809 65.7708L209.9 58.5388L206.877 46.3764Z" fill="#A6CEFF"/>
<path d="M168.211 80.019L139.119 87.251L142.143 99.4134L171.234 92.1814L168.211 80.019Z" fill="#A6CEFF"/>
<path d="M104.972 21.7299L75.8809 28.9619L78.9044 41.1243L107.996 33.8923L104.972 21.7299Z" fill="#A6CEFF"/>
</g>
</g>
<path d="M62.9512 219.047L82.4679 214.195" stroke="#A6CEFF" stroke-miterlimit="10"/>
<path d="M66.7266 118.222C66.7266 118.222 8.31081 107.231 16.9274 84.5702C25.544 61.909 60.2503 97.4659 66.7266 118.222Z" fill="#A6CEFF"/>
<path d="M36.0234 96.5146C36.0234 96.5146 67.6225 113.394 79.862 135.414" stroke="#85BCFF" stroke-width="0.5" stroke-miterlimit="10"/>
<path d="M60.0293 127.322C60.0293 127.322 9.53698 147.224 5.11653 125.568C0.696076 103.913 44.8874 114.467 60.0293 127.322Z" fill="#A6CEFF"/>
<path d="M25.7129 125.502C25.7129 125.502 58.374 123.165 78.5828 134.19" stroke="#85BCFF" stroke-width="0.5" stroke-miterlimit="10"/>
<path d="M204.559 81.1023C205.207 51.5901 145.966 26.7368 145.966 26.7368L131.129 41.9786L173.203 80.7941L155.436 87.2884L162.467 118.123C176.526 113.972 204.08 103.053 204.559 81.1023Z" fill="#FFAB99"/>
<path d="M194.008 101.766C200.073 96.2977 204.376 89.4817 204.557 81.0905C204.669 75.8023 202.855 70.6648 199.813 65.784C189.181 75.9715 192.262 94.4975 194.008 101.766Z" fill="#FF8E75"/>
<path d="M176.242 84.5817L170.596 78.1494" stroke="#001D3D" stroke-width="0.5" stroke-miterlimit="10"/>
<path d="M150.399 29.1697C150.399 29.1697 148.376 22.7479 138.596 19.2507C138.596 19.2507 134.27 17.8842 133.723 21.6162C133.723 21.6162 130.405 21.0196 129.196 24.6855C129.196 24.6855 123.142 19.5572 121.808 18.504C120.473 17.4508 117.024 18.041 118.894 21.0994C120.752 24.1606 126.137 28.9082 126.137 28.9082C126.137 28.9082 118.199 25.1717 116.428 24.3242C114.669 23.4738 111.091 25.0192 114.364 27.7894C117.637 30.5596 126.352 35.901 126.352 35.901C126.352 35.901 124.555 37.842 128.65 41.0274C132.743 44.2013 136.376 46.068 136.376 46.068L150.397 29.1583L150.399 29.1697Z" fill="#FFAB99"/>
<path d="M139.326 20.175C139.326 20.175 145.5 24.1193 143.498 26.658C141.496 29.1966 134.433 22.6063 134.433 22.6063C134.433 22.6063 143.147 28.4339 140.651 31.3383C138.155 34.2428 130.716 26.1422 130.716 26.1422" stroke="#001D3D" stroke-width="0.5" stroke-miterlimit="10"/>
<path d="M126.181 36.5392C126.181 36.5392 127.725 29.4128 130.26 30.0462C132.791 30.6682 133.104 33.494 131.952 36.7567" stroke="#001D3D" stroke-width="0.5" stroke-miterlimit="10"/>
<path d="M137.571 34.5464C137.571 34.5464 134.367 33.2291 132.747 34.3608" stroke="#001D3D" stroke-width="0.5" stroke-miterlimit="10"/>
<path d="M52.182 162.34C52.182 162.34 53.3368 133.2 59.5721 126.9C65.8075 120.6 94.5321 103.752 94.5321 103.752L123.021 98.1159C123.021 98.1159 145.287 85.7408 157.024 79.7981C157.024 79.7981 174.439 109.789 164.442 139.256L177.076 190.08L93.8432 210.771L87.3311 178.495C87.3311 178.495 63.4403 170.901 52.1705 162.343L52.182 162.34Z" fill="#008BCE"/>
<path d="M162.017 125.379C162.017 125.379 161.627 129.156 164.443 139.257" stroke="#001D3D" stroke-width="0.5" stroke-miterlimit="10"/>
<path d="M52.1934 159.934C52.1934 159.934 75.3924 171.806 87.1442 174.898" stroke="#001D3D" stroke-width="0.5" stroke-miterlimit="10"/>
<path d="M163.444 134.208C163.444 134.208 169.412 110.942 154.758 81.3217" stroke="#001D3D" stroke-width="0.5" stroke-miterlimit="10"/>
<g style="mix-blend-mode:soft-light" opacity="0.5">
<path d="M104.99 132.678L99.6312 142.211C99.2339 142.917 99.5275 143.804 100.258 144.145L108.128 147.801C109.148 148.276 110.294 147.396 110.079 146.283L107.556 133.097C107.315 131.833 105.612 131.552 104.978 132.681L104.99 132.678Z" fill="white"/>
<path d="M111.662 145.586L111.068 141.579C110.966 140.924 111.346 140.295 111.972 140.066L117.633 138.027C118.965 137.55 120.077 139.133 119.166 140.222L114.098 146.268C113.328 147.189 111.834 146.77 111.662 145.586Z" stroke="white" stroke-width="0.5" stroke-miterlimit="10"/>
<path d="M110.602 135.985L108.258 126.557C107.931 125.241 109.508 124.278 110.527 125.191L118.971 132.677C119.77 133.39 119.498 134.697 118.47 135.025L112.373 136.978C111.604 137.218 110.798 136.774 110.605 135.996L110.602 135.985Z" stroke="white" stroke-width="0.5" stroke-miterlimit="10"/>
<path d="M121.623 132.846L117.209 128.671C116.284 127.795 116.935 126.248 118.212 126.283L129.663 126.595C131.074 126.633 131.529 128.512 130.285 129.198L123.238 133.064C122.712 133.353 122.047 133.275 121.614 132.86L121.623 132.846Z" fill="white"/>
<path d="M126.047 134.611L132.966 130.62C133.936 130.062 135.148 130.818 135.037 131.939L133.98 143.573C133.865 144.829 132.26 145.288 131.488 144.29L125.641 136.656C125.134 135.992 125.323 135.034 126.05 134.623L126.047 134.611Z" stroke="white" stroke-width="0.5" stroke-miterlimit="10"/>
<path d="M122.677 138.463L114.777 147.728C114.098 148.529 114.514 149.762 115.544 149.98L132.848 153.587C134.095 153.848 135.002 152.444 134.258 151.414L124.862 138.527C124.33 137.809 123.258 137.76 122.685 138.449L122.677 138.463Z" stroke="white" stroke-width="0.5" stroke-miterlimit="10"/>
<path d="M135.61 143.654L136.531 128.482C136.591 127.592 137.461 126.975 138.318 127.236L147.727 130.072C148.676 130.359 149.026 131.523 148.388 132.289L138.058 144.625C137.204 145.651 135.527 144.987 135.61 143.654Z" stroke="white" stroke-width="0.5" stroke-miterlimit="10"/>
<path d="M137.273 151.915L139.935 157.084C140.335 157.86 141.353 158.08 142.046 157.532L151.14 150.229C152.258 149.331 151.444 147.529 150.021 147.786L138.264 149.919C137.343 150.087 136.847 151.085 137.273 151.915Z" stroke="white" stroke-width="0.5" stroke-miterlimit="10"/>
<path d="M140.47 144.816L151.092 132.87C151.845 132.027 153.25 132.382 153.492 133.5L155.551 143.108C155.716 143.869 155.207 144.615 154.437 144.758L141.756 147.096C140.462 147.333 139.593 145.8 140.47 144.816Z" stroke="white" stroke-width="0.5" stroke-miterlimit="10"/>
<path d="M111.531 155.264L107.061 170.286C106.795 171.178 107.482 172.076 108.417 172.063L118.681 171.868C119.651 171.845 120.301 170.882 119.953 169.972L114.159 155.146C113.682 153.916 111.909 153.992 111.531 155.264Z" stroke="white" stroke-width="0.5" stroke-miterlimit="10"/>
<path d="M117.273 151.98L134.241 155.95C135.276 156.191 135.663 157.455 134.944 158.241L124.255 169.718C123.562 170.462 122.334 170.232 121.955 169.294L115.677 153.846C115.26 152.808 116.183 151.716 117.284 151.977L117.273 151.98Z" stroke="white" stroke-width="0.5" stroke-miterlimit="10"/>
<path d="M139.225 159.715L143.224 167.663C143.652 168.504 143.114 169.524 142.184 169.658L129.142 171.528C127.848 171.716 127.04 170.179 127.922 169.219L136.962 159.391C137.626 158.679 138.788 158.84 139.222 159.704L139.225 159.715Z" stroke="white" stroke-width="0.5" stroke-miterlimit="10"/>
<path d="M142.337 161.25L146.002 168.442C146.522 169.455 147.982 169.444 148.484 168.42L155.911 153.332C156.542 152.045 155.027 150.758 153.858 151.595L142.766 159.491C142.205 159.886 142.026 160.635 142.337 161.25Z" stroke="white" stroke-width="0.5" stroke-miterlimit="10"/>
<path d="M109.104 152.418L104.303 169.684C103.976 170.871 102.369 171.076 101.761 170L87.1255 144.129C86.471 142.968 87.6758 141.635 88.8967 142.182L108.333 150.787C108.964 151.068 109.295 151.763 109.104 152.418Z" stroke="white" stroke-width="0.5" stroke-miterlimit="10"/>
<path d="M92.9187 140.904L78.186 135.285C77.2573 134.933 76.9988 133.746 77.6859 133.028L84.1803 126.348C84.7898 125.71 85.8366 125.802 86.337 126.541L94.5869 138.837C95.3418 139.962 94.197 141.388 92.9302 140.901L92.9187 140.904Z" stroke="white" stroke-width="0.5" stroke-miterlimit="10"/>
<path d="M89.7725 126.039L97.1011 138.504C97.6471 139.426 98.9954 139.406 99.5166 138.463L104.357 129.691C104.786 128.916 104.39 127.958 103.547 127.705L91.3775 124.012C90.1648 123.646 89.1351 124.947 89.7725 126.039Z" stroke="white" stroke-width="0.5" stroke-miterlimit="10"/>
<path d="M107.471 173.841L115.594 174.106C116.515 174.132 117.153 175.03 116.87 175.902L113.309 187.223C112.913 188.476 111.172 188.532 110.687 187.316L106.127 175.742C105.762 174.813 106.467 173.824 107.462 173.855L107.471 173.841Z" fill="white"/>
</g>
<path d="M125.793 127.41C125.793 127.41 128.064 143.999 140.141 140.997C152.219 137.994 145.986 122.633 145.986 122.633" stroke="white" stroke-miterlimit="10"/>
<path d="M140.133 141.01L153.552 194.991" stroke="white" stroke-miterlimit="10"/>
<path d="M166.518 189.533L139.264 196.309L140.037 199.421L167.292 192.645L166.518 189.533Z" fill="white"/>
<path d="M122.922 128.016L148.96 121.543" stroke="white" stroke-miterlimit="10"/>
<path d="M138.799 136.326C135.011 137.268 131.172 134.966 130.233 131.191L127.176 118.891C126.237 115.115 128.551 111.284 132.34 110.342C136.128 109.4 139.968 111.702 140.906 115.478L143.964 127.777C144.902 131.553 142.588 135.384 138.799 136.326Z" fill="#003169"/>
<path d="M130.984 127.941L141.696 125.279" stroke="white" stroke-width="0.5" stroke-miterlimit="10"/>
<g style="mix-blend-mode:soft-light">
<mask id="mask2_2385_11145" style="mask-type:luminance" maskUnits="userSpaceOnUse" x="126" y="110" width="18" height="19">
<path d="M140.909 115.489L143.253 124.917L129.522 128.33L127.178 118.902C126.237 115.115 128.551 111.284 132.34 110.342C134.234 109.871 136.158 110.207 137.705 111.134C139.252 112.062 140.448 113.587 140.92 115.486L140.909 115.489Z" fill="white"/>
</mask>
<g mask="url(#mask2_2385_11145)">
<path d="M122.957 123.937L137.839 99.317" stroke="white" stroke-width="0.2" stroke-miterlimit="10"/>
<path d="M125.334 125.362L140.214 100.731" stroke="white" stroke-width="0.2" stroke-miterlimit="10"/>
<path d="M127.713 126.788L142.582 102.16" stroke="white" stroke-width="0.2" stroke-miterlimit="10"/>
<path d="M130.09 128.214L144.959 103.585" stroke="white" stroke-width="0.2" stroke-miterlimit="10"/>
<path d="M132.469 129.639L147.338 105.01" stroke="white" stroke-width="0.2" stroke-miterlimit="10"/>
<path d="M134.843 131.053L149.715 106.436" stroke="white" stroke-width="0.2" stroke-miterlimit="10"/>
<path d="M137.22 132.479L152.092 107.862" stroke="white" stroke-width="0.2" stroke-miterlimit="10"/>
<path d="M150.911 118.068L126.244 103.28" stroke="white" stroke-width="0.2" stroke-miterlimit="10"/>
<path d="M149.478 120.441L124.811 105.653" stroke="white" stroke-width="0.2" stroke-miterlimit="10"/>
<path d="M148.044 122.814L123.377 108.026" stroke="white" stroke-width="0.2" stroke-miterlimit="10"/>
<path d="M146.611 125.187L121.943 110.399" stroke="white" stroke-width="0.2" stroke-miterlimit="10"/>
<path d="M145.177 127.561L120.51 112.773" stroke="white" stroke-width="0.2" stroke-miterlimit="10"/>
<path d="M143.755 129.931L119.076 115.146" stroke="white" stroke-width="0.2" stroke-miterlimit="10"/>
<path d="M142.321 132.305L117.643 117.52" stroke="white" stroke-width="0.2" stroke-miterlimit="10"/>
</g>
</g>
<path d="M80.0208 216.455C107.219 225.584 147.574 178.146 147.574 178.146L137.774 160.052L89.4681 187.622L87.9654 177.949C87.9654 177.949 82.4772 176.859 73.7552 173.5C65.0332 170.141 57.7699 166.078 57.7699 166.078C57.5132 180.247 59.7915 209.663 80.0208 216.455Z" fill="#FFAB99"/>
<path d="M144.772 180.411C150.068 177.151 155.168 173.587 160.05 169.737C161.202 168.831 162.435 167.711 162.438 166.252C162.442 165.923 162.368 165.577 162.139 165.342C161.623 164.79 160.702 165.104 160.03 165.441C157.876 166.536 155.722 167.63 153.569 168.724C155.94 166.446 158.314 164.179 160.674 161.904C161.335 161.278 162.008 160.6 162.242 159.728C162.477 158.856 162.052 157.735 161.154 157.557C160.449 157.416 159.788 157.897 159.225 158.328C156.69 160.294 154.17 162.269 151.636 164.236C154.089 161.549 156.53 158.864 158.985 156.189C159.857 155.231 160.715 153.681 159.747 152.829C158.888 152.07 157.57 152.799 156.688 153.516C154.001 155.703 151.311 157.878 148.613 160.067C150.134 158.389 151.652 156.7 153.173 155.022C153.679 154.458 154.206 153.878 154.402 153.149C154.599 152.42 154.374 151.516 153.698 151.198C152.852 150.789 151.893 151.44 151.177 152.043C148.881 153.987 146.596 155.928 143.881 157.951C144.754 156.264 145.472 154.494 146.047 152.687C146.217 152.146 146.368 151.526 146.119 151.017C145.754 150.282 144.678 150.172 143.946 150.561C143.228 150.958 142.764 151.693 142.33 152.396C139.751 156.536 136.828 160.47 133.693 164.141C137.187 169.759 140.893 175.253 144.76 180.414L144.772 180.411Z" fill="#FFAB99"/>
<path d="M63.9258 200.752C67.2209 207.927 72.2915 213.858 80.0197 216.456C84.89 218.1 90.1916 217.9 95.6105 216.504C89.2693 203.745 71.1909 201.242 63.9258 200.752Z" fill="#FF8E75"/>
<path d="M85.0659 189.336L92.692 185.982" stroke="#001D3D" stroke-width="0.5" stroke-miterlimit="10"/>
<path d="M83.3924 156.076C83.3924 156.076 85.9428 160.01 86.5449 168.267C87.147 176.525 89.5282 187.231 89.5282 187.231" stroke="#001D3D" stroke-width="0.5" stroke-miterlimit="10"/>
<path d="M85.8607 155.316L86.1581 163.868" stroke="#001D3D" stroke-width="0.5" stroke-miterlimit="10"/>
<path d="M122.74 99C122.668 99.0543 122.596 99.1086 122.516 99.1772C110.93 108.666 97.8996 106.317 95.7463 105.844C94.9592 99.5888 95.0039 96.1396 94.4571 90.2134C94.7641 90.1735 95.0683 90.1222 95.3753 90.0823C102.681 89.068 110.425 88.0539 117.754 85.5638C118.798 88.4387 119.805 91.2134 120.754 93.9538C121.641 96.4911 121.89 96.5141 122.752 98.9971L122.74 99Z" fill="#FFAB99"/>
<path d="M120.742 93.9563C109.43 95.9667 98.8224 93.0639 95.5487 92.0069C95.4869 91.3662 95.4252 90.7255 95.3634 90.0848C102.669 89.0705 110.414 88.0564 117.742 85.5663C118.786 88.4412 119.793 91.2159 120.742 93.9563Z" fill="#FF8E75"/>
<path d="M95.6778 105.618C95.6778 105.618 108.345 109.94 122.683 98.7711" stroke="#001D3D" stroke-width="0.5" stroke-miterlimit="10"/>
<path d="M120.193 61.5352C120.437 60.1139 121.315 58.8874 122.321 57.8354C122.93 57.198 123.6 56.6063 124.401 56.2492C125.199 55.8807 126.146 55.7668 126.96 56.099C127.978 56.5142 128.624 57.5442 128.888 58.6082C129.414 60.7249 128.641 63.0068 127.286 64.7164C125.931 66.426 124.067 67.6548 122.163 68.7235C121.621 66.1005 121.018 63.4804 120.19 61.5237L120.193 61.5352Z" fill="#FFAB99"/>
<path d="M120.852 64.384C122.87 63.4326 124.435 61.5859 125.05 59.4526" stroke="#001D3D" stroke-width="0.5" stroke-miterlimit="10"/>
<path d="M83.3727 70.1423C82.2192 68.9347 81.0056 67.6814 79.4434 67.0857C77.8813 66.49 75.8556 66.7263 74.8774 68.0872C74.5235 68.576 74.3387 69.1565 74.2313 69.7542C73.8364 71.9905 74.6775 74.3934 76.3697 75.9044C78.0618 77.4154 80.5563 77.9858 82.7406 77.3578C83.3319 77.1865 83.9148 76.9322 84.5257 76.9869C83.8454 74.4955 83.3717 71.9527 83.3755 70.1537L83.3727 70.1423Z" fill="#FFAB99"/>
<path d="M77.2051 69.999C78.4409 71.587 80.2802 72.7091 82.2731 73.0762" stroke="#001D3D" stroke-width="0.5" stroke-miterlimit="10"/>
<path d="M98.3038 41.8415C93.9836 43.2435 89.5824 44.9572 86.4801 48.2675C83.6539 51.2662 82.1795 55.3381 81.7061 59.4162C81.2356 63.5058 81.7116 67.6273 82.3657 71.6803C83.6341 79.5289 86.1089 88.013 92.8037 92.338C98.7851 96.1965 106.775 95.6315 113.305 92.7692C115.085 91.9865 116.811 91.035 118.274 89.7602C120.924 87.425 122.557 84.0911 123.322 80.6451C124.086 77.1992 124.039 73.627 123.766 70.1234C123.213 62.9473 121.639 55.5876 117.346 49.791C113.055 44.0057 105.542 40.1636 98.3038 41.8415Z" fill="#FFAB99"/>
<path d="M120.789 70.7048C121.361 73.0046 119.623 75.429 116.914 76.1025C114.204 76.7761 111.537 75.4591 110.962 73.1479C110.387 70.8367 112.128 68.4237 114.837 67.7502C117.547 67.0766 120.215 68.3936 120.789 70.7048Z" fill="#FF8E75"/>
<path d="M98.678 76.2009C99.2497 78.5007 97.5119 80.9251 94.8025 81.5986C92.0931 82.2722 89.4252 80.9552 88.8507 78.644C88.2761 76.3328 90.0168 73.9198 92.7261 73.2463C95.4355 72.5727 98.1034 73.8897 98.678 76.2009Z" fill="#FF8E75"/>
<path d="M92.8532 67.5296C92.2511 67.3634 92.342 66.4539 92.7301 66.0537C92.8853 65.8937 93.0893 65.7822 93.296 65.6822C93.655 65.508 94.0111 65.3222 94.37 65.148C95.0104 64.8309 95.6852 64.5052 96.3994 64.5341C96.6346 64.5486 96.8783 64.5973 97.0588 64.7347C97.2507 64.8692 97.3706 65.1067 97.3415 65.3326C97.2805 65.6758 96.9244 65.8615 96.6172 65.9986C95.417 66.5156 93.4696 67.7044 92.8647 67.5267L92.8532 67.5296Z" fill="#001D3D"/>
<path d="M94.9392 68.5659C94.8084 68.0396 95.1279 67.5106 95.656 67.3793C96.1841 67.248 96.7141 67.5658 96.845 68.0921C96.9758 68.6184 96.6563 69.1473 96.1282 69.2786C95.6001 69.4099 95.07 69.0922 94.9392 68.5659Z" fill="#001D3D"/>
<path d="M108.112 63.0565C107.788 63.0278 107.406 62.9646 107.238 62.6785C107.055 62.3839 107.185 61.975 107.458 61.7492C107.731 61.5234 108.089 61.4463 108.434 61.4093C109.581 61.2698 110.772 61.3991 111.858 61.7972C112.084 61.8746 112.334 61.9948 112.414 62.2179C112.522 62.5069 112.309 62.8271 112.036 62.9556C111.763 63.0842 109.236 63.1658 108.115 63.068L108.112 63.0565Z" fill="#001D3D"/>
<path d="M108.969 65.0786C108.838 64.5522 109.157 64.0233 109.685 63.892C110.213 63.7607 110.743 64.0785 110.874 64.6048C111.005 65.1311 110.686 65.66 110.157 65.7913C109.629 65.9226 109.099 65.6049 108.969 65.0786Z" fill="#001D3D"/>
<path d="M102.917 63.2419C102.939 66.6625 104.481 68.2592 106.04 70.2649C106.149 70.408 106.189 70.6168 106.146 70.7855C106.102 70.9542 105.947 71.0657 105.815 71.1714C105.068 71.6973 104.232 72.1115 103.348 72.3799" fill="#FF8E75"/>
<path d="M102.917 63.2419C102.939 66.6625 104.481 68.2592 106.04 70.2649C106.149 70.408 106.189 70.6168 106.146 70.7855C106.102 70.9542 105.947 71.0657 105.815 71.1714C105.068 71.6973 104.232 72.1115 103.348 72.3799" stroke="#001D3D" stroke-width="0.5" stroke-miterlimit="10"/>
<path d="M101.676 75.9541C101.676 75.9541 105.07 78.5728 107.659 75.0621" stroke="#001D3D" stroke-width="0.5" stroke-miterlimit="10"/>
<path d="M94.0586 93.1191C94.0586 93.1191 106.778 98.7286 119.228 88.9882" stroke="#001D3D" stroke-width="0.5" stroke-miterlimit="10"/>
<path d="M82.4745 74.0338C82.4745 74.0338 88.385 66.721 85.9366 57.9509C85.9366 57.9509 89.3118 61.1816 94.4257 58.8534C99.5396 56.5252 105.81 53.8972 109.426 54.8573C113.041 55.8173 113.078 58.4685 116.879 56.989C116.879 56.989 118.472 66.2392 123.334 66.1845L122.322 57.847L123.42 56.8695C123.42 56.8695 121.77 44.888 119.298 42.0524C119.298 42.0524 121.727 40.7438 121.56 38.307C121.56 38.307 113.034 40.0013 109.27 38.884C101.796 36.6721 82.4988 35.5408 80.9049 51.2443C80.9049 51.2443 74.3745 53.3173 79.4571 67.0938C79.4571 67.0938 81.4735 68.5363 82.4888 74.0424L82.4745 74.0338Z" fill="#001D3D"/>
<path d="M77.7057 52.0035C77.7057 52.0035 78.2396 50.4737 80.8886 51.2244C80.8886 51.2244 78.8967 49.0469 79.7189 46.8622" stroke="#001D3D" stroke-width="0.5" stroke-miterlimit="10"/>
<path d="M83.3308 45.4053C83.3308 45.4053 85.1682 35.2417 95.3683 35.5732C105.568 35.9046 112.007 40.3782 116.783 39.3368" stroke="#001D3D" stroke-width="0.5" stroke-miterlimit="10"/>
<path d="M88.3418 52.0801C88.3418 52.0801 92.1703 53.9468 97.2156 51.4899C102.261 49.0329 108.977 47.3633 112.877 50.5486" stroke="#003269" stroke-width="0.5" stroke-miterlimit="10"/>
<path d="M86.8262 47.4033C86.8262 47.4033 91.172 48.8013 96.0038 46.9563C100.836 45.1112 105.202 40.9036 112.698 44.5312" stroke="#003269" stroke-width="0.5" stroke-miterlimit="10"/>
<path d="M222.425 84.3142L185.148 93.5811C183.1 94.0902 181.851 96.1575 182.358 98.1986L186.34 114.217C186.848 116.258 188.919 117.5 190.967 116.991L228.244 107.724C230.292 107.215 231.541 105.147 231.034 103.106L227.052 87.088C226.544 85.047 224.473 83.8051 222.425 84.3142Z" fill="#151515"/>
<path d="M190.424 103.872C190.66 104.821 190.073 105.793 189.12 106.03C188.167 106.267 187.193 105.683 186.957 104.734C186.721 103.784 187.308 102.812 188.261 102.575C189.214 102.338 190.188 102.922 190.424 103.872Z" fill="white"/>
<path d="M193.541 104.154C194.092 104.017 194.429 103.46 194.292 102.91C194.155 102.36 193.597 102.026 193.046 102.163C192.494 102.3 192.158 102.857 192.294 103.407C192.431 103.956 192.989 104.291 193.541 104.154Z" fill="white"/>
<path d="M210.482 87.4166L197.153 90.7301C196.752 89.1168 197.737 87.4871 199.355 87.0847L206.829 85.2268C208.448 84.8244 210.081 85.8034 210.482 87.4166Z" fill="#001D3D"/>
<path d="M202.904 113.865L216.233 110.552C216.634 112.165 215.65 113.795 214.031 114.197L206.557 116.055C204.938 116.457 203.305 115.478 202.904 113.865Z" fill="#001D3D"/>
<path d="M203.678 88.5371L215.265 135.15" stroke="#001D3D" stroke-width="0.75" stroke-miterlimit="10"/>
<path d="M219.46 133.195L210.643 135.387L214.622 151.393L223.439 149.202L219.46 133.195Z" fill="#001D3D"/>
<path d="M219.791 149.137L217.828 149.625L225.084 178.812L227.047 178.324L219.791 149.137Z" fill="#001D3D"/>
<path d="M219.867 149.56L217.879 149.191L211.796 181.561L213.784 181.93L219.867 149.56Z" fill="#001D3D"/>
<path d="M238.578 175.772L240.162 174.516L219.63 148.762L218.046 150.018L238.578 175.772Z" fill="#001D3D"/>
<path d="M199.377 180.831L129.473 198.209L130.565 202.603L200.469 185.225L199.377 180.831Z" fill="#001D3D"/>
<path d="M201.873 145.271L153.735 157.237L151.227 192.801L199.365 180.834L201.873 145.271Z" fill="#001D3D"/>
<path d="M178.995 168.428C178.573 169.967 177.121 171.482 175.777 171.816C174.423 172.152 173.679 171.171 174.104 169.644C174.529 168.117 175.978 166.591 177.321 166.257C178.676 165.92 179.42 166.901 178.995 168.428Z" fill="white"/>
<path d="M120.768 204.674L254.09 171.531" stroke="#A6CEFF" stroke-miterlimit="10"/>
</g>
</g>
<defs>
<clipPath id="clip0_2385_11145">
<rect width="427" height="425" fill="white"/>
</clipPath>
<clipPath id="clip1_2385_11145">
<rect width="258" height="234" fill="white" transform="translate(187.637 146) rotate(12.9997)"/>
</clipPath>
<clipPath id="clip2_2385_11145">
<rect width="230.541" height="205.874" fill="white" transform="translate(-18 32.6182) rotate(-13.9604)"/>
</clipPath>
</defs>
</svg>
