<svg width="423" height="403" viewBox="0 0 423 403" fill="none" xmlns="http://www.w3.org/2000/svg">
<g clip-path="url(#clip0_2440_14928)">
<path d="M400.041 382.57C388.531 392.16 338.441 398.94 278.761 401.49C187.021 405.42 72.6009 399.37 40.7909 378.2C25.7309 368.19 15.5509 337.25 9.1009 297.66C-6.9291 199.16 0.220901 47.1301 13.1609 30.6501C31.3109 7.56009 323.301 -15.3099 399.911 13.9301C432.741 26.4601 429.231 358.23 400.031 382.57H400.041Z" fill="white"/>
<path d="M373.314 247.44L375.204 241.883L377.358 247.44C377.358 247.44 381.657 248.14 381.712 248.531C381.757 248.913 377.595 250.095 377.595 250.095C377.595 250.095 375.85 255.488 375.204 254.27C374.568 253.051 373.95 250.35 373.95 250.35C373.95 250.35 368.533 249.268 368.533 248.731C368.533 248.158 373.314 247.449 373.314 247.449V247.44Z" fill="white"/>
<path d="M304.094 233.142L305.566 228.822L307.238 233.142C307.238 233.142 310.574 233.688 310.619 233.988C310.656 234.279 307.429 235.198 307.429 235.198C307.429 235.198 306.075 239.381 305.575 238.435C305.075 237.49 304.594 235.389 304.594 235.389C304.594 235.389 300.395 234.543 300.395 234.134C300.395 233.688 304.103 233.142 304.103 233.142H304.094Z" fill="white"/>
<g clip-path="url(#clip1_2440_14928)">
<path d="M280.908 332.803C205.92 355.694 82.3678 354.299 37.808 285.049C-5.94443 217.055 1.69488 106.739 76.772 113.254C146.484 119.304 107.68 52.999 180.177 38.0507C252.674 23.1007 349.436 64.0411 373.499 140.153C397.559 216.264 370.556 305.437 280.91 332.803H280.908Z" fill="#EBEBEB"/>
<path d="M47.5293 286.717C47.5293 286.717 72.2681 308.042 92.892 305.009C113.516 301.976 102.166 269.206 102.354 269.65C102.542 270.092 79.7738 241.139 73.5313 241.186C67.2888 241.232 41.0606 240.905 42.7548 244.884C44.4491 248.863 47.5293 286.717 47.5293 286.717Z" fill="#FFE6DE"/>
<path d="M211.035 260.001C211.035 260.001 216.451 266.976 216.676 268.142C216.902 269.307 213.699 271.517 212.854 271.881C212.01 272.247 204.76 267.98 204.76 267.98L211.034 260L211.035 260.001Z" fill="#7A7876"/>
<path d="M207.212 253.354C207.212 253.354 214.381 262.836 211.724 267.622C209.067 272.409 194.823 269.593 191.491 264.223C188.159 258.853 207.212 253.354 207.212 253.354Z" fill="#FFE6DE"/>
<path d="M202.652 270.158C202.956 270.224 210.112 271.701 212.243 267.201C214.349 262.754 207.967 253.89 207.694 253.515L207.215 253.862C207.279 253.951 213.664 262.815 211.709 266.947C209.78 271.024 202.848 269.594 202.777 269.579L202.654 270.158L202.652 270.158Z" fill="black"/>
<path d="M212.756 271.604C214.648 270.93 216.228 268.653 216.38 268.114C216.231 267.5 213.412 263.592 210.801 260.181L211.271 259.821C211.286 259.84 212.731 261.729 214.143 263.667C217.07 267.689 217.01 267.996 216.968 268.199C216.827 268.9 215.059 271.409 212.955 272.16L212.755 271.602L212.756 271.604Z" fill="black"/>
<path d="M53.066 290.575L37.1641 297.342L37.396 297.886L53.298 291.12L53.066 290.575Z" fill="black"/>
<path d="M51.7576 289.763C59.8971 297.317 71.5525 302.57 78.9378 304.254C85.4759 305.746 89.8373 305.718 89.8801 305.718L89.874 305.126C89.8312 305.127 85.5344 305.152 79.0705 303.678C71.7608 302.01 60.223 296.81 52.1626 289.329L51.76 289.764L51.7576 289.763Z" fill="black"/>
<path d="M178.706 183.381C178.743 183.358 178.782 183.336 178.82 183.314C180.108 182.573 181.748 182.914 182.637 184.106C182.664 184.141 182.691 184.177 182.715 184.213C182.723 184.224 182.734 184.236 182.741 184.247L218.755 239.02C218.762 239.032 218.77 239.045 218.778 239.057C218.802 239.095 218.824 239.133 218.845 239.17C219.587 240.46 219.25 242.101 218.059 242.988C218.024 243.014 217.989 243.04 217.952 243.066C217.94 243.073 217.929 243.085 217.917 243.092L104.145 317.903C102.962 318.681 101.372 318.351 100.594 317.167L64.1664 261.764C63.3885 260.58 63.7147 258.991 64.8993 258.212L178.672 183.401C178.683 183.394 178.697 183.385 178.708 183.378L178.706 183.381Z" fill="#D6ECF0"/>
<path d="M219.243 243.575L219.362 237.081L184.136 183.803L176.945 181.826C176.945 181.826 172.484 185.406 172.604 185.749C172.724 186.09 212.734 248.511 213.685 247.883C214.636 247.254 219.243 243.575 219.243 243.575Z" fill="#8BBECC"/>
<g opacity="0.5">
<path d="M212.951 239.515C212.616 239.734 212.461 240.122 212.521 240.494C212.542 240.627 212.592 240.759 212.671 240.88C212.749 240.999 212.85 241.096 212.965 241.169C213.282 241.371 213.701 241.382 214.036 241.162C214.491 240.863 214.615 240.251 214.318 239.798C214.018 239.342 213.407 239.217 212.952 239.516L212.951 239.515Z" fill="white"/>
<path d="M211.275 236.966C210.94 237.185 210.785 237.573 210.845 237.945C210.866 238.078 210.916 238.21 210.995 238.331C211.075 238.451 211.176 238.55 211.29 238.621C211.607 238.824 212.026 238.835 212.36 238.613C212.815 238.314 212.941 237.703 212.642 237.249C212.342 236.794 211.731 236.668 211.276 236.967L211.275 236.966Z" fill="white"/>
<path d="M209.598 234.415C209.263 234.635 209.107 235.022 209.168 235.395C209.188 235.528 209.239 235.66 209.317 235.781C209.395 235.902 209.498 235.999 209.613 236.071C209.929 236.273 210.348 236.284 210.683 236.063C211.138 235.763 211.263 235.153 210.963 234.697C210.664 234.242 210.053 234.116 209.598 234.415Z" fill="white"/>
</g>
<path d="M177.42 184.222C179.467 182.876 182.216 183.447 183.562 185.494L217.934 237.77C219.28 239.817 218.715 242.567 216.667 243.912L105.321 317.13C103.487 318.336 101.023 317.823 99.8156 315.988L64.9403 262.944C63.7341 261.11 64.2417 258.645 66.0752 257.439L177.422 184.221L177.42 184.222ZM175.828 181.663L63.3357 255.632C59.9598 257.852 59.0251 262.388 61.2473 265.767L95.7612 318.261C97.9825 321.638 102.518 322.579 105.894 320.359L218.386 246.39C221.762 244.169 222.696 239.632 220.475 236.255L185.961 183.761C183.739 180.382 179.204 179.443 175.828 181.663Z" fill="#20111D"/>
<path d="M77.7824 259.741C96.0897 248.817 101.664 234.956 101.664 234.956C101.664 234.956 128.224 226.262 135.93 219.849C143.033 213.938 145.056 201.307 136.132 202.265C135.378 202.347 134.543 202.525 133.629 202.812C133.629 202.812 127.211 206.062 120.774 208.19C118.093 209.076 115.411 209.767 113.186 209.945C105.618 210.557 86.3204 213.026 78.6227 215.778C70.9251 218.531 42.5757 238.952 42.5757 238.952L-19.0418 260.079L11.5453 308.559L53.196 290.831L49.2217 258.842C49.2217 258.842 59.4766 270.665 77.7815 259.74L77.7824 259.741Z" fill="#FFE6DE"/>
<path d="M54.4465 242.75C56.655 245.672 64.8188 254.265 63.3547 257.624C61.8907 260.982 64.2749 264.313 64.2749 264.313C64.2749 264.313 51.3091 264.807 50.8053 271.556C50.3015 278.306 40.6606 260.204 41.2059 259.972C41.7503 259.74 52.2404 239.829 54.4489 242.751L54.4465 242.75Z" fill="#FFE6DE"/>
<path d="M128.864 303.735C131.939 313.178 127.2 315.747 124.387 317.253C121.574 318.761 110.3 316.669 110.3 316.669C110.3 316.669 109.062 312.384 114.179 308.008C119.296 303.632 125.613 306.057 125.613 306.057L128.866 303.734L128.864 303.735Z" fill="#FFE6DE"/>
<path d="M119.541 313.322C120.887 313.594 121.61 314.339 121.884 315.934C121.973 316.452 122.075 317.219 122.026 317.716C115.441 318.114 108.226 316.534 108.226 316.534L108.15 316.274C108.122 315.68 108.169 314.969 108.413 314.279C109.044 312.481 110.371 312.504 110.371 312.504L119.542 313.324L119.541 313.322Z" fill="#7A7876"/>
<path d="M146.542 291.343L151.259 288.621C154.181 301.831 147.414 304.688 143.4 306.358C139.387 308.03 124.375 303.704 124.375 303.704C124.375 303.704 123.263 297.729 130.778 292.473C138.294 287.216 146.541 291.341 146.541 291.341L146.542 291.343Z" fill="#FFE6DE"/>
<path d="M137.35 300.385C139.142 300.932 140.022 302.035 140.183 304.234C140.235 304.95 140.271 306.003 140.141 306.67C131.159 306.338 121.583 303.242 121.583 303.242L121.515 302.879C121.557 302.07 121.714 301.113 122.135 300.207C123.23 297.853 125.025 298.059 125.025 298.059L137.352 300.384L137.35 300.385Z" fill="#7A7876"/>
<path d="M176.874 273.28C180.408 286.34 173.423 289.394 169.493 291.249C165.562 293.106 150.365 289.485 150.365 289.485C150.365 289.485 148.976 283.569 156.239 277.968C163.502 272.368 172.68 275.967 172.68 275.967L176.874 273.28Z" fill="#FFE6DE"/>
<path d="M163.173 285.567C164.987 286.03 165.919 287.092 166.18 289.28C166.265 289.994 166.351 291.042 166.252 291.714C157.265 291.803 147.555 289.155 147.555 289.155L147.469 288.794C147.473 287.985 147.585 287.021 147.964 286.097C148.948 283.694 150.75 283.817 150.75 283.817L163.172 285.565L163.173 285.567Z" fill="#7A7876"/>
<path d="M147.984 291.966L147.66 292.461C147.598 292.421 141.39 288.458 134.819 290.789C128.231 293.127 125.834 298.23 125.811 298.281L125.272 298.036C125.372 297.817 127.788 292.657 134.621 290.233C141.473 287.8 147.92 291.924 147.984 291.966Z" fill="black"/>
<path d="M138.141 300.373L138.012 300.952C133.338 299.906 125.691 298.274 125.066 298.354C122.939 298.67 121.867 300.315 121.877 303.243L121.285 303.244C121.277 300.998 121.911 298.222 124.977 297.768C125.855 297.637 136.095 299.916 138.139 300.373L138.141 300.373Z" fill="black"/>
<path d="M174.604 276.485L174.374 277.031C174.303 277 167.193 274.056 161.013 275.73C154.867 277.394 151.569 283.957 151.536 284.022L151.006 283.76C151.143 283.48 154.449 276.894 160.858 275.158C167.238 273.431 174.305 276.36 174.602 276.486L174.604 276.485Z" fill="black"/>
<path d="M149.921 283.677C149.131 283.969 147.281 284.654 147.262 289.156L147.854 289.158C147.872 285.065 149.454 284.48 150.129 284.231C150.184 284.211 150.233 284.192 150.278 284.174C150.948 284.043 158.506 285.137 163.13 285.86L163.22 285.275C159.478 284.69 150.705 283.359 150.063 283.622C150.021 283.64 149.973 283.656 149.921 283.677ZM150.287 284.17C150.287 284.17 150.286 284.171 150.284 284.172C150.284 284.172 150.286 284.171 150.287 284.17Z" fill="black"/>
<path d="M127.298 306.608L126.999 307.119C126.952 307.091 122.217 304.374 117.264 306.47C112.316 308.565 111.053 312.581 111.041 312.62L110.474 312.45C110.526 312.275 111.817 308.133 117.032 305.924C122.255 303.713 127.093 306.489 127.298 306.608Z" fill="black"/>
<path d="M119.175 312.991L119.122 313.581L110.367 312.798C110.247 312.809 109.279 312.933 108.687 314.388C108.087 315.867 108.441 316.327 108.444 316.333C108.439 316.324 108.433 316.322 108.433 316.322L108.019 316.745C107.986 316.712 107.919 316.634 107.858 316.492C107.714 316.154 107.615 315.457 108.139 314.165C108.912 312.263 110.304 312.208 110.363 312.206L119.171 312.992L119.175 312.991Z" fill="black"/>
<path d="M218.831 246.741L218.512 246.242L172.508 275.718L172.828 276.217L218.831 246.741Z" fill="black"/>
<path d="M55.4208 238.534C55.5623 238.632 55.6004 238.825 55.5015 238.968C55.4661 239.019 52.0279 244.095 52.0049 247.751C52.0035 247.925 51.8629 248.063 51.6911 248.06C51.6333 248.06 51.5779 248.043 51.5324 248.017C51.4403 247.962 51.3803 247.86 51.3807 247.747C51.405 243.901 54.8397 238.829 54.986 238.616C55.0834 238.474 55.2763 238.439 55.4193 238.535L55.4208 238.534Z" fill="#000100"/>
<path d="M55.8061 242.007C55.783 242.064 53.5198 247.764 54.2863 251.339C54.3226 251.507 54.2145 251.674 54.0466 251.71C53.9657 251.728 53.8853 251.711 53.8198 251.673C53.7477 251.63 53.6946 251.559 53.6756 251.47C52.8694 247.709 55.1301 242.014 55.226 241.773C55.2911 241.613 55.4721 241.536 55.6313 241.6C55.7929 241.664 55.8688 241.846 55.8052 242.005L55.8061 242.007Z" fill="#000100"/>
<path d="M136.486 202.847C136.776 203.529 132.518 204.858 131.701 205.205C130.884 205.552 126.277 207.192 126.277 207.192L125.502 206.454L125.622 206.404C125.736 206.295 135.75 201.873 135.75 201.873C135.75 201.873 136.197 202.165 136.486 202.847Z" fill="#FFE6DE"/>
<path d="M78.5259 215.503C86.3771 212.695 106.215 210.213 113.165 209.653C115.142 209.494 117.672 208.907 120.683 207.911C127.024 205.815 133.433 202.582 133.497 202.55L133.518 202.537L133.543 202.531C134.452 202.246 135.312 202.058 136.102 201.972C139.675 201.588 141.193 203.305 141.837 204.816C141.839 204.819 141.84 204.822 141.841 204.826C142.661 206.764 142.516 209.543 141.44 212.453C140.339 215.432 138.448 218.14 136.121 220.079C128.653 226.296 104.121 234.461 101.885 235.198C101.592 235.874 100.096 239.143 96.8253 243.434C93.4502 247.863 87.4322 254.331 77.9353 259.998C73.7248 262.511 69.5856 264.028 65.6342 264.507C62.4632 264.89 59.4052 264.611 56.5475 263.673C51.6737 262.076 49.1073 259.162 49.0006 259.039L49.4468 258.65C49.4716 258.68 52.0122 261.563 56.7313 263.11C61.1004 264.541 68.2711 265.075 77.6326 259.489C87.039 253.877 92.9967 247.476 96.3384 243.095C99.9606 238.346 101.377 234.883 101.391 234.847L101.442 234.72L101.573 234.677C101.838 234.589 128.168 225.928 135.741 219.623C140.277 215.847 142.925 208.905 141.296 205.057C141.294 205.054 141.292 205.051 141.29 205.049C140.481 203.149 138.708 202.289 136.164 202.561C135.419 202.641 134.603 202.82 133.741 203.088C133.319 203.301 127.063 206.425 120.867 208.472C117.81 209.483 115.234 210.078 113.21 210.242C106.283 210.802 86.5227 213.27 78.7235 216.06C71.1531 218.767 43.0329 238.992 42.7491 239.196L42.7143 239.222L16.2654 248.291L16.0723 247.731L42.4391 238.692C44.0284 237.547 70.9414 218.217 78.523 215.505L78.5259 215.503Z" fill="black"/>
<path d="M140.798 198.008C141.867 198.84 144.771 202.101 143.278 203.831C141.787 205.562 129.392 211.151 129.392 211.151L125.447 213.176C125.447 213.176 123.95 213.813 122.399 212.061C120.991 210.469 120.775 208.247 120.775 208.192C121.734 207.761 139.729 197.175 140.798 198.008Z" fill="#7A7876"/>
<path d="M140.98 197.774C141.715 198.347 143.792 200.504 143.98 202.389C144.045 203.034 143.884 203.585 143.505 204.025L143.056 203.639C143.33 203.321 143.44 202.931 143.392 202.448C143.238 200.911 141.508 198.945 140.638 198.259C140.393 198.214 139.225 198.454 133.712 201.368C130.209 203.219 126.25 205.46 123.629 206.943C122.299 207.696 121.475 208.161 121.096 208.363C121.176 208.916 121.506 210.6 122.624 211.864L122.18 212.257C121.692 211.703 121.34 211.081 121.089 210.492C120.572 209.278 120.481 208.211 120.482 208.196L120.48 208.002L120.657 207.924C120.853 207.835 121.95 207.214 123.338 206.429C126.035 204.902 130.109 202.596 133.677 200.719C140.289 197.237 140.723 197.575 140.982 197.777L140.98 197.774Z" fill="black"/>
<path d="M15.8259 246.061C19.7892 269.207 33.8184 291.063 38.4834 297.836C39.2422 298.938 38.9874 300.422 37.9612 300.867L27.0637 305.595C26.3986 305.883 25.5882 305.639 25.0281 304.988C8.57374 285.862 2.8247 257.766 1.63103 250.946C1.47286 250.042 1.8506 249.21 2.55667 248.902L13.2337 244.27C14.2935 243.811 15.5923 244.705 15.8244 246.062L15.8259 246.061Z" fill="#333333"/>
<path d="M28.4478 299.435L32.0392 297.876C32.3558 297.739 32.7233 297.884 32.861 298.201L33.0263 298.582C33.1639 298.899 33.0191 299.266 32.7025 299.404L29.1111 300.962C28.7945 301.1 28.4269 300.954 28.2893 300.637L28.124 300.257C27.9864 299.94 28.1312 299.572 28.4478 299.435Z" fill="#212121"/>
<path d="M25.6314 295.39L29.2227 293.831C29.5394 293.694 29.9069 293.839 30.0446 294.156L30.2099 294.537C30.3475 294.854 30.2027 295.221 29.886 295.359L26.2947 296.917C25.9781 297.055 25.6105 296.909 25.4729 296.593L25.3076 296.212C25.1699 295.895 25.3148 295.527 25.6314 295.39Z" fill="#212121"/>
<path d="M22.8288 291.341L26.4206 289.784C26.7373 289.647 27.1048 289.792 27.2424 290.109L27.4075 290.49C27.5451 290.807 27.4001 291.174 27.0834 291.312L23.4915 292.869C23.1748 293.006 22.8074 292.861 22.6698 292.544L22.5047 292.163C22.3671 291.846 22.5121 291.479 22.8288 291.341Z" fill="#212121"/>
<path d="M20.5474 287.109L24.1388 285.55C24.4554 285.413 24.8229 285.558 24.9606 285.875L25.1259 286.255C25.2635 286.572 25.1187 286.94 24.8021 287.077L21.2107 288.636C20.8941 288.773 20.5265 288.628 20.3889 288.311L20.2236 287.931C20.086 287.614 20.2308 287.246 20.5474 287.109Z" fill="#212121"/>
<path d="M17.9029 282.988L21.4942 281.429C21.8109 281.292 22.1784 281.437 22.3161 281.754L22.4814 282.134C22.619 282.451 22.4742 282.819 22.1575 282.956L18.5662 284.515C18.2496 284.652 17.882 284.507 17.7444 284.19L17.5791 283.81C17.4414 283.493 17.5863 283.125 17.9029 282.988Z" fill="#212121"/>
<path d="M15.7389 278.656L19.3305 277.098C19.6472 276.96 20.0147 277.106 20.1522 277.423L20.3175 277.803C20.4551 278.12 20.3102 278.488 19.9935 278.625L16.4019 280.183C16.0852 280.32 15.7177 280.175 15.5802 279.858L15.4149 279.478C15.2773 279.161 15.4222 278.793 15.7389 278.656Z" fill="#212121"/>
<path d="M13.7897 274.238L17.3813 272.68C17.6979 272.542 18.0655 272.688 18.203 273.005L18.3683 273.385C18.5059 273.702 18.361 274.07 18.0443 274.207L14.4527 275.765C14.136 275.902 13.7685 275.757 13.6309 275.44L13.4657 275.06C13.3281 274.743 13.473 274.375 13.7897 274.238Z" fill="#212121"/>
<path d="M12.0944 269.705L15.686 268.147C16.0026 268.009 16.3701 268.155 16.5077 268.471L16.673 268.852C16.8105 269.169 16.6657 269.537 16.349 269.674L12.7574 271.232C12.4407 271.369 12.0732 271.224 11.9356 270.907L11.7704 270.526C11.6328 270.21 11.7777 269.842 12.0944 269.705Z" fill="#212121"/>
<path d="M14.5235 263.369L10.9322 264.927C10.6158 265.064 10.4709 265.432 10.6084 265.749L10.773 266.128C10.9105 266.445 11.2784 266.59 11.5948 266.453L15.1861 264.894C15.5025 264.757 15.6475 264.389 15.51 264.072L15.3453 263.693C15.2078 263.377 14.8399 263.231 14.5235 263.369Z" fill="#212121"/>
<path d="M9.39119 260.326L12.9825 258.767C13.2992 258.63 13.6667 258.775 13.8043 259.092L13.9696 259.472C14.1073 259.789 13.9625 260.157 13.6458 260.294L10.0545 261.853C9.73784 261.99 9.3703 261.845 9.23266 261.528L9.06735 261.147C8.92971 260.831 9.07454 260.463 9.39119 260.326Z" fill="#212121"/>
<path d="M11.9024 253.97L8.31111 255.529C7.99475 255.666 7.84976 256.034 7.98728 256.351L8.15189 256.73C8.28941 257.046 8.65735 257.192 8.97371 257.054L12.565 255.496C12.8814 255.358 13.0264 254.99 12.8889 254.674L12.7243 254.295C12.5867 253.978 12.2188 253.833 11.9024 253.97Z" fill="#212121"/>
<path d="M7.23694 250.726L10.8285 249.168C11.1452 249.031 11.5127 249.176 11.6503 249.493L11.8155 249.874C11.9531 250.191 11.8082 250.558 11.4916 250.695L7.89997 252.253C7.58329 252.391 7.21578 252.245 7.0782 251.929L6.91296 251.548C6.77537 251.231 6.92026 250.863 7.23694 250.726Z" fill="#212121"/>
<path d="M30.1311 284.353L27.7852 278.948C27.6476 278.632 27.3601 278.423 27.0291 278.357C26.8176 277.934 26.6067 277.509 26.3945 277.078C27.5038 276.873 28.6222 277.391 29.058 278.397L31.4054 283.801C31.9191 284.986 31.2978 286.401 30.0191 286.955L16.9767 292.613C15.698 293.168 14.2386 292.655 13.7249 291.471L11.3776 286.066C11.026 285.255 11.2056 284.337 11.7649 283.66C12.0165 284.212 12.2729 284.764 12.5355 285.317L12.5856 285.296C12.5992 285.369 12.6205 285.442 12.651 285.513L14.9969 290.919C15.2287 291.452 15.8849 291.682 16.4619 291.433L29.5043 285.775C30.0804 285.524 30.36 284.888 30.1296 284.354L30.1311 284.353Z" fill="#2E2E2E"/>
<path d="M23.686 289.451C23.2301 289.648 22.7137 289.467 22.5311 289.044L21.511 286.693L23.1581 285.978L24.1782 288.33C24.3623 288.751 24.141 289.252 23.6851 289.45L23.686 289.451Z" fill="white"/>
<path d="M380.837 288.391C380.837 288.391 351.813 303.375 332.449 295.633C313.086 287.892 331.735 258.671 331.449 259.057C331.163 259.443 360.039 236.587 366.104 238.082C372.167 239.577 397.766 245.357 395.193 248.83C392.621 252.304 380.837 288.391 380.837 288.391Z" fill="#FFE6DE"/>
<path d="M227.931 224.418C227.931 224.418 221.042 229.94 220.552 231.021C220.062 232.101 222.665 234.994 223.402 235.545C224.139 236.097 232.183 233.633 232.183 233.633L227.929 224.418L227.931 224.418Z" fill="#7A7876"/>
<path d="M233.195 218.847C233.195 218.847 224.018 226.399 225.492 231.67C226.966 236.94 241.481 237.513 245.969 233.067C250.458 228.62 233.195 218.847 233.195 218.847Z" fill="#FFE6DE"/>
<path d="M233.727 236.241C233.416 236.234 226.11 236.007 225.081 231.137C224.066 226.324 232.332 219.189 232.685 218.888L233.069 219.337C232.985 219.408 224.716 226.542 225.659 231.013C226.59 235.424 233.668 235.645 233.739 235.648L233.725 236.24L233.727 236.241Z" fill="black"/>
<path d="M223.24 235.794C221.368 234.576 220.23 231.724 220.255 231.011C220.263 230.804 220.274 230.491 224.057 227.261C225.881 225.704 227.726 224.202 227.743 224.189L228.116 224.648C224.785 227.357 221.135 230.502 220.846 231.064C220.868 231.625 221.877 234.204 223.562 235.3L223.239 235.796L223.24 235.794Z" fill="black"/>
<path d="M376.014 290.37C366.339 295.821 353.779 298.219 346.203 298.141C339.495 298.071 335.257 297.032 335.217 297.021L335.361 296.446C335.403 296.457 339.578 297.479 346.21 297.549C353.71 297.626 366.146 295.252 375.725 289.854L376.016 290.369L376.014 290.37Z" fill="black"/>
<path d="M277.173 157.442C277.141 157.411 277.11 157.38 277.077 157.351C275.996 156.332 274.321 156.282 273.179 157.233C273.145 157.26 273.111 157.289 273.078 157.319C273.068 157.329 273.056 157.337 273.044 157.348L225.287 202.229C225.277 202.239 225.267 202.25 225.255 202.261C225.224 202.292 225.193 202.324 225.164 202.357C224.144 203.437 224.091 205.111 225.043 206.252C225.07 206.286 225.098 206.319 225.129 206.353C225.139 206.364 225.147 206.375 225.157 206.386L318.506 305.559C319.478 306.591 321.101 306.639 322.133 305.67L370.44 260.272C371.471 259.303 371.523 257.68 370.552 256.649L277.203 157.475C277.193 157.465 277.182 157.456 277.171 157.444L277.173 157.442Z" fill="#D6ECF0"/>
<path d="M223.758 206.543L225.148 200.2L271.795 156.591L279.251 156.34C279.251 156.34 282.762 160.859 282.566 161.162C282.369 161.465 228.945 212.852 228.167 212.021C227.389 211.189 223.758 206.543 223.758 206.543Z" fill="#8BBECC"/>
<g opacity="0.5">
<path d="M230.822 204.057C231.096 204.348 231.159 204.762 231.014 205.109C230.962 205.234 230.884 205.352 230.779 205.449C230.675 205.547 230.554 205.618 230.425 205.661C230.07 205.786 229.659 205.697 229.385 205.407C229.012 205.01 229.032 204.386 229.428 204.014C229.825 203.642 230.448 203.66 230.822 204.057Z" fill="white"/>
<path d="M233.043 201.967C233.318 202.258 233.38 202.672 233.235 203.019C233.184 203.144 233.105 203.26 233 203.359C232.895 203.459 232.773 203.529 232.645 203.573C232.29 203.696 231.88 203.609 231.606 203.317C231.233 202.92 231.252 202.298 231.649 201.924C232.046 201.552 232.669 201.57 233.043 201.967Z" fill="white"/>
<path d="M235.267 199.879C235.542 200.17 235.605 200.584 235.46 200.931C235.408 201.056 235.33 201.174 235.224 201.272C235.12 201.371 234.998 201.441 234.87 201.486C234.514 201.608 234.105 201.521 233.83 201.229C233.458 200.833 233.477 200.21 233.873 199.836C234.271 199.464 234.893 199.482 235.267 199.879Z" fill="white"/>
</g>
<path d="M369.586 255.617C371.092 257.215 371.012 259.731 369.414 261.233L323.163 304.697C321.562 306.202 319.046 306.126 317.541 304.527L226.182 207.469C224.503 205.685 224.59 202.881 226.375 201.203L271.955 158.369C273.74 156.691 276.548 156.776 278.226 158.559L369.585 255.617L369.586 255.617ZM270.026 156.126L224.255 199.141C221.31 201.909 221.165 206.536 223.935 209.479L316.233 307.536C319.002 310.478 323.635 310.617 326.579 307.85L372.35 264.836C375.297 262.068 375.44 257.44 372.671 254.498L280.372 156.441C277.603 153.499 272.972 153.358 270.026 156.126Z" fill="#20111D"/>
<path d="M396.743 243.105C396.743 243.105 373.895 216.662 367.044 212.198C360.192 207.731 341.986 200.846 334.764 198.493C332.642 197.801 330.19 196.507 327.788 195.023C322.019 191.46 316.527 186.808 316.527 186.808C315.704 186.315 314.933 185.948 314.218 185.694C305.755 182.689 304.792 195.438 310.334 202.836C316.344 210.862 340.172 225.486 340.172 225.486C340.172 225.486 342.38 240.256 357.659 255.133C372.936 270.008 385.659 260.896 385.659 260.896L374.367 291.073L441.277 339.545L419.61 257.583L396.743 243.105Z" fill="#FFE6DE"/>
<path d="M384.312 244.04C381.485 246.366 371.547 252.823 372.192 256.43C372.836 260.034 369.745 262.717 369.745 262.717C369.745 262.717 382.247 266.212 381.171 272.891C380.096 279.569 393.678 264.211 393.203 263.859C392.727 263.508 387.14 241.713 384.312 244.04Z" fill="#FFE6DE"/>
<path d="M297.74 286.031C292.556 294.497 296.573 298.096 298.959 300.214C301.346 302.333 312.802 302.92 312.802 302.92C312.802 302.92 315.002 299.041 311.038 293.598C307.076 288.154 300.365 289.045 300.365 289.045L297.739 286.029L297.74 286.031Z" fill="#FFE6DE"/>
<path d="M304.585 297.517C303.211 297.468 302.336 298.024 301.7 299.511C301.492 299.995 301.216 300.717 301.147 301.211C307.462 303.128 314.851 303.268 314.851 303.268L314.985 303.032C315.15 302.461 315.27 301.76 315.192 301.031C314.995 299.136 313.698 298.849 313.698 298.849L304.583 297.516L304.585 297.517Z" fill="#7A7876"/>
<path d="M283.416 269.876L279.457 266.134C273.548 278.298 279.469 282.648 282.986 285.206C286.504 287.764 302.116 287.047 302.116 287.047C302.116 287.047 304.585 281.496 298.491 274.641C292.397 267.784 283.416 269.876 283.416 269.876Z" fill="#FFE6DE"/>
<path d="M290.262 280.807C288.393 280.922 287.279 281.791 286.613 283.89C286.395 284.574 286.115 285.588 286.088 286.268C294.906 288.033 304.944 287.249 304.944 287.249L305.095 286.911C305.242 286.115 305.311 285.148 305.112 284.17C304.593 281.627 302.799 281.411 302.799 281.411L290.264 280.806L290.262 280.807Z" fill="#7A7876"/>
<path d="M258.088 245.269C251.618 257.145 257.706 261.738 261.1 264.455C264.495 267.173 280.123 267.184 280.123 267.184C280.123 267.184 282.847 261.755 277.081 254.622C271.314 247.488 261.548 248.858 261.548 248.858L258.089 245.27L258.088 245.269Z" fill="#FFE6DE"/>
<path d="M268.569 260.398C266.696 260.427 265.544 261.243 264.78 263.309C264.531 263.983 264.205 264.982 264.145 265.66C272.869 267.834 282.934 267.516 282.934 267.516L283.099 267.186C283.284 266.397 283.398 265.435 283.245 264.449C282.846 261.885 281.062 261.585 281.062 261.585L268.569 260.397L268.569 260.398Z" fill="#7A7876"/>
<path d="M281.867 270.147L282.066 270.704C282.136 270.678 289.098 268.269 294.951 272.063C300.818 275.866 301.968 281.386 301.979 281.44L302.559 281.326C302.513 281.091 301.36 275.513 295.274 271.567C289.171 267.609 281.941 270.122 281.868 270.146L281.867 270.147Z" fill="black"/>
<path d="M289.493 280.611L289.484 281.202C294.275 281.27 302.095 281.462 302.683 281.685C304.68 282.485 305.341 284.334 304.651 287.179L305.226 287.317C305.755 285.134 305.783 282.29 302.904 281.135C302.081 280.805 291.587 280.639 289.492 280.61L289.493 280.611Z" fill="black"/>
<path d="M259.558 248.914L259.655 249.498C259.73 249.485 267.334 248.275 272.958 251.338C278.553 254.386 280.239 261.531 280.256 261.602L280.834 261.471C280.765 261.168 279.077 253.994 273.243 250.818C267.436 247.656 259.879 248.861 259.56 248.915L259.558 248.914Z" fill="black"/>
<path d="M281.782 261.554C281.218 261.149 272.373 260.405 268.596 260.104L268.549 260.694C273.216 261.066 280.825 261.76 281.448 262.043C281.487 262.07 281.531 262.099 281.579 262.133C282.179 262.533 283.581 263.468 282.648 267.452L283.224 267.587C284.249 263.205 282.607 262.109 281.907 261.641C281.861 261.61 281.818 261.582 281.782 261.556L281.782 261.554ZM281.439 262.036C281.439 262.036 281.439 262.036 281.437 262.035C281.437 262.035 281.437 262.035 281.439 262.036Z" fill="black"/>
<path d="M298.599 289.194L298.772 289.76C298.823 289.744 304.062 288.201 308.396 291.39C312.724 294.577 313.022 298.774 313.023 298.815L313.614 298.781C313.604 298.598 313.309 294.272 308.747 290.912C304.176 287.549 298.826 289.123 298.6 289.191L298.599 289.194Z" fill="black"/>
<path d="M305.02 297.284L304.934 297.87L313.634 299.144C313.75 299.182 314.662 299.527 314.898 301.08C315.139 302.656 314.688 303.023 314.684 303.027C314.693 303.021 314.698 303.018 314.698 303.018L315.003 303.526C315.042 303.503 315.126 303.442 315.219 303.318C315.437 303.024 315.697 302.368 315.485 300.991C315.175 298.961 313.833 298.584 313.775 298.569L305.02 297.286L305.02 297.284Z" fill="black"/>
<path d="M223.839 209.312L223.412 209.723L261.334 249.073L261.76 248.662L223.839 209.312Z" fill="black"/>
<path d="M384.344 239.713C384.182 239.776 384.102 239.955 384.163 240.116C384.185 240.173 386.353 245.908 385.527 249.468C385.489 249.636 385.592 249.804 385.76 249.842C385.818 249.855 385.874 249.851 385.926 249.836C386.027 249.804 386.111 249.72 386.135 249.608C387.004 245.864 384.839 240.135 384.747 239.892C384.684 239.731 384.505 239.653 384.343 239.712L384.344 239.713Z" fill="#000100"/>
<path d="M383.162 242.999C383.171 243.06 384.05 249.129 382.476 252.426C382.402 252.582 382.467 252.767 382.623 252.841C382.697 252.877 382.779 252.881 382.852 252.858C382.932 252.833 383.001 252.775 383.039 252.695C384.697 249.225 383.819 243.165 383.781 242.908C383.756 242.737 383.597 242.619 383.426 242.644C383.255 242.67 383.137 242.828 383.162 242.999Z" fill="#000100"/>
<path d="M313.742 186.178C313.301 186.773 317.135 189.054 317.849 189.581C318.563 190.108 322.665 192.774 322.665 192.774L323.592 192.236L323.486 192.16C323.4 192.028 314.683 185.402 314.683 185.402C314.683 185.402 314.181 185.583 313.74 186.177L313.742 186.178Z" fill="#FFE6DE"/>
<path d="M367.206 211.952C360.217 207.396 341.489 200.375 334.856 198.213C332.97 197.599 330.644 196.442 327.943 194.773C322.26 191.263 316.774 186.629 316.719 186.585L316.7 186.57L316.679 186.557C315.862 186.068 315.068 185.686 314.318 185.418C310.931 184.214 309.055 185.53 308.077 186.851C308.074 186.853 308.074 186.857 308.071 186.859C306.823 188.553 306.32 191.289 306.69 194.367C307.071 197.519 308.279 200.59 310.097 203.016C315.921 210.795 337.899 224.436 339.903 225.671C340.031 226.396 340.728 229.922 342.916 234.855C345.172 239.945 349.526 247.632 357.452 255.348C360.966 258.77 364.642 261.207 368.377 262.59C371.373 263.7 374.414 264.137 377.413 263.892C382.526 263.471 385.699 261.237 385.832 261.141L385.487 260.659C385.455 260.682 382.315 262.894 377.364 263.302C372.781 263.679 365.678 262.532 357.867 254.925C350.017 247.283 345.704 239.675 343.469 234.639C341.046 229.182 340.472 225.483 340.468 225.447L340.448 225.31L340.331 225.239C340.093 225.094 316.482 210.552 310.575 202.662C307.036 197.937 306.071 190.573 308.552 187.211C308.553 187.209 308.556 187.207 308.557 187.203C309.786 185.543 311.71 185.119 314.123 185.975C314.83 186.226 315.581 186.589 316.357 187.051C316.718 187.356 322.08 191.847 327.635 195.276C330.376 196.97 332.743 198.147 334.675 198.776C341.285 200.929 359.943 207.922 366.884 212.448C373.623 216.84 396.293 243.037 396.521 243.302L396.549 243.335L417.517 256.636L417.834 256.136L396.94 242.882C395.659 241.401 373.958 216.353 367.208 211.953L367.206 211.952Z" fill="black"/>
<path d="M310.665 180.471C309.432 181.032 305.848 183.526 306.899 185.557C307.949 187.587 318.713 195.901 318.713 195.901L322.081 198.787C322.081 198.787 323.39 199.755 325.306 198.41C327.045 197.19 327.771 195.08 327.786 195.027C326.952 194.385 311.898 179.912 310.665 180.473L310.665 180.471Z" fill="#7A7876"/>
<path d="M310.546 180.2C309.698 180.586 307.175 182.2 306.557 183.989C306.345 184.601 306.372 185.173 306.64 185.691L307.166 185.419C306.974 185.047 306.957 184.642 307.116 184.184C307.622 182.726 309.762 181.217 310.768 180.75C311.016 180.763 312.098 181.268 316.788 185.382C319.767 187.996 323.1 191.095 325.305 193.145C326.424 194.186 327.119 194.83 327.44 195.114C327.232 195.634 326.521 197.195 325.141 198.164L325.481 198.648C326.085 198.223 326.572 197.7 326.953 197.186C327.738 196.126 328.074 195.11 328.078 195.095L328.125 194.906L327.972 194.789C327.8 194.657 326.877 193.799 325.709 192.712C323.438 190.601 320.009 187.412 316.974 184.757C311.349 179.835 310.847 180.063 310.549 180.199L310.546 180.2Z" fill="black"/>
<path d="M205.899 57.7507C208.548 54.8158 211.92 46.5976 207.727 44.9307C204.603 43.6888 203.586 47.0624 203.383 47.9037C202.801 47.2602 200.291 44.7885 198.145 47.3729C195.263 50.842 202.164 56.4428 205.897 57.7507H205.899Z" fill="#0E0E0E"/>
<path d="M63.4782 134.576C65.5269 132.307 68.1329 125.952 64.8914 124.663C62.4764 123.704 61.6899 126.311 61.5336 126.961C61.0839 126.465 59.1429 124.553 57.483 126.55C55.2555 129.233 60.5909 133.563 63.4764 134.574H63.4782V134.576Z" fill="black"/>
<path d="M44.185 172.791L42.8672 170.111L41.5407 172.786L38.584 173.209L40.7178 175.296L40.2073 178.236L42.8551 176.853L45.4958 178.246L44.9975 175.305L47.14 173.225L44.185 172.791Z" fill="#C3C3C3"/>
<path d="M349.101 141.99L353.129 148.498L355.85 141.344L363.288 139.528L357.32 134.734L357.89 127.105L351.481 131.294L344.394 128.394L346.403 135.778L341.453 141.615L349.101 141.99Z" fill="#D7D7D7"/>
<path d="M166.877 65.8591C165.428 66.6744 163.242 68.1574 163.377 70.9743L165.601 70.8806C165.627 69.9024 165.869 69.356 166.528 68.7836C174.055 64.6935 167.113 62.3849 171.074 59.4899L169.943 57.5732C164.945 60.4127 169.954 64.4334 166.876 65.8574L166.877 65.8591Z" fill="#D7D7D7"/>
<path d="M325.325 87.0673C318.82 92.6352 326.086 93.447 322.816 97.1034L324.32 98.7425C328.556 94.9751 323.049 92.0715 325.414 90.1687C326.77 88.9164 328.673 87.1992 327.949 84.2695L325.794 84.8246C325.973 85.7873 325.851 86.3718 325.325 87.0673Z" fill="black"/>
<path d="M125.107 119.612C128.831 127.32 131.474 120.509 134.175 124.602L136.146 123.568C133.585 118.514 129.366 123.09 128.13 120.32C127.263 118.691 126.092 116.413 123.071 116.361L123.057 118.585C124.032 118.66 124.569 118.925 125.107 119.612Z" fill="black"/>
<path d="M198.257 171.767L197.761 171.944L197.672 171.696C197.346 170.787 197.039 169.854 196.759 168.921L196.683 168.669L197.188 168.518L197.264 168.77C197.54 169.693 197.844 170.619 198.167 171.519L198.256 171.767H198.257ZM196.571 166.234L196.059 166.357L195.997 166.1C195.766 165.146 195.563 164.186 195.391 163.244L195.344 162.985L195.863 162.892L195.91 163.15C196.078 164.083 196.282 165.034 196.509 165.977L196.571 166.234ZM226.825 147.392C226.441 147.588 226.026 147.754 225.592 147.884L225.34 147.961L225.189 147.456L225.441 147.38C225.846 147.258 226.229 147.104 226.585 146.922C227.052 146.682 227.481 146.387 227.861 146.046L228.058 145.869L228.41 146.259L228.214 146.436C227.801 146.809 227.334 147.13 226.825 147.39V147.392ZM222.873 148.261L222.611 148.229C221.632 148.112 220.729 147.641 219.929 146.837L219.743 146.649L220.118 146.278L220.304 146.465C221.017 147.185 221.816 147.603 222.675 147.707L222.938 147.739L222.875 148.261H222.873ZM229.816 144.217L229.329 144.02L229.427 143.775C229.763 142.953 229.957 142.03 230.006 141.035L230.018 140.771L230.544 140.797L230.532 141.061C230.48 142.117 230.273 143.097 229.915 143.975L229.816 144.217ZM195.514 160.555L194.992 160.616L194.96 160.354C194.846 159.37 194.764 158.39 194.721 157.44L194.709 157.176L195.235 157.152L195.247 157.416C195.29 158.354 195.37 159.322 195.483 160.293L195.514 160.555ZM218.884 144.368L218.401 144.58L218.295 144.339C217.923 143.492 217.635 142.54 217.437 141.51L217.387 141.251L217.904 141.153L217.955 141.411C218.146 142.403 218.423 143.317 218.778 144.129L218.884 144.37V144.368ZM230.342 138.365L229.827 138.471L229.775 138.212C229.587 137.297 229.296 136.386 228.908 135.505L228.802 135.264L229.285 135.052L229.391 135.293C229.794 136.209 230.096 137.156 230.29 138.108L230.342 138.367V138.365ZM195.216 154.796L194.689 154.781L194.698 154.517C194.729 153.528 194.802 152.545 194.915 151.598L194.946 151.336L195.469 151.398L195.438 151.66C195.327 152.592 195.255 153.56 195.224 154.533L195.216 154.796ZM217.661 138.83L217.135 138.844L217.128 138.58C217.102 137.628 217.146 136.639 217.253 135.645L217.281 135.383L217.805 135.441L217.778 135.703C217.672 136.674 217.63 137.637 217.656 138.566L217.663 138.83H217.661ZM227.653 133.245L227.499 133.031C227.28 132.728 227.049 132.431 226.811 132.154C226.434 131.713 226.023 131.307 225.589 130.945L225.386 130.777L225.722 130.372L225.926 130.541C226.382 130.922 226.816 131.349 227.212 131.812C227.46 132.102 227.7 132.409 227.927 132.724L228.08 132.938L227.653 133.245ZM195.856 149.079L195.342 148.967L195.398 148.71C195.608 147.747 195.868 146.795 196.172 145.884L196.256 145.635L196.756 145.801L196.672 146.051C196.375 146.944 196.118 147.877 195.913 148.823L195.858 149.079H195.856ZM218.203 133.13L217.689 133.011L217.748 132.754C217.967 131.816 218.246 130.868 218.574 129.94L218.663 129.692L219.16 129.868L219.071 130.116C218.748 131.025 218.476 131.953 218.26 132.872L218.201 133.129L218.203 133.13ZM197.62 143.619L197.143 143.397L197.254 143.158C197.665 142.271 198.134 141.402 198.645 140.577L198.783 140.353L199.231 140.629L199.092 140.852C198.592 141.661 198.136 142.511 197.731 143.38L197.62 143.619ZM223.429 129.573L223.188 129.469C222.344 129.103 221.427 128.844 220.465 128.699L220.205 128.659L220.283 128.138L220.543 128.178C221.55 128.331 222.51 128.601 223.396 128.985L223.637 129.089L223.427 129.571L223.429 129.573ZM200.579 138.71L200.165 138.384L200.329 138.178C200.931 137.415 201.579 136.67 202.254 135.97L202.436 135.781L202.817 136.145L202.634 136.334C201.971 137.024 201.336 137.753 200.744 138.504L200.58 138.71H200.579ZM220.064 127.699L219.588 127.472L219.701 127.235C220.118 126.364 220.587 125.498 221.097 124.659L221.234 124.433L221.684 124.707L221.547 124.933C221.047 125.757 220.585 126.608 220.175 127.462L220.061 127.699H220.064ZM217.885 128.57L217.623 128.588C216.706 128.645 215.757 128.79 214.798 129.018L214.541 129.078L214.42 128.567L214.677 128.506C215.665 128.27 216.646 128.121 217.592 128.062L217.854 128.045L217.887 128.57H217.885ZM204.529 134.53L204.187 134.129L204.386 133.958C205.133 133.319 205.914 132.717 206.709 132.169L206.926 132.02L207.227 132.454L207.01 132.603C206.23 133.142 205.463 133.732 204.728 134.358L204.529 134.53ZM212.308 129.784L212.064 129.881C211.194 130.223 210.319 130.631 209.459 131.096L209.228 131.221L208.977 130.757L209.208 130.633C210.083 130.159 210.98 129.741 211.869 129.391L212.114 129.293L212.307 129.783L212.308 129.784ZM223.004 122.765L222.587 122.444L222.748 122.236C223.335 121.476 223.986 120.735 224.688 120.031L224.873 119.844L225.247 120.215L225.061 120.402C224.377 121.091 223.738 121.816 223.165 122.558L223.004 122.766V122.765ZM245.852 110.469L245.593 110.522C244.652 110.715 243.704 110.933 242.774 111.174L242.519 111.24L242.387 110.73L242.642 110.665C243.581 110.422 244.538 110.201 245.487 110.007L245.746 109.955L245.852 110.47V110.469ZM240.244 111.891L239.992 111.971C239.062 112.264 238.143 112.581 237.26 112.916L237.013 113.01L236.825 112.517L237.072 112.423C237.964 112.085 238.893 111.764 239.833 111.468L240.084 111.388L240.242 111.889L240.244 111.891ZM226.995 118.645L226.665 118.236L226.87 118.071C227.61 117.474 228.408 116.895 229.24 116.349L229.46 116.205L229.75 116.643L229.53 116.787C228.71 117.325 227.927 117.896 227.2 118.48L226.995 118.645ZM234.831 113.913L234.591 114.023C233.702 114.425 232.846 114.85 232.006 115.308L231.775 115.434L231.523 114.971L231.754 114.845C232.605 114.382 233.473 113.951 234.374 113.542L234.614 113.433L234.832 113.912L234.831 113.913Z" fill="#49263E"/>
<path d="M248.928 112.092L249.743 108.916C249.743 108.916 258.78 103.065 258.88 102.932C258.979 102.797 262.651 97.8584 262.651 97.8584L256.295 100.611L246.932 107.147L248.928 112.094V112.092Z" fill="#F9F9F9"/>
<path d="M242.152 103.362L262.65 97.8584L246.93 107.145L242.152 103.362Z" fill="#D7D7D7"/>
<path d="M249.742 108.916L254.793 112.965L262.649 97.8584L249.742 108.916Z" fill="#D7D7D7"/>
<path d="M374.745 316.341L374.284 316.711L363.469 303.223L363.802 302.666L374.745 316.341Z" fill="black"/>
<path d="M121.291 242.123H186.918C187.861 242.123 188.625 241.36 188.625 240.418V201.297C188.625 200.355 187.861 199.592 186.918 199.592H121.291C120.349 199.592 119.585 200.355 119.585 201.297V240.418C119.585 241.36 120.349 242.123 121.291 242.123Z" fill="#C6C6C6"/>
<path d="M126.07 207.336H183.637C184.037 207.336 184.36 207.013 184.36 206.616C184.36 206.219 184.037 205.895 183.637 205.895H126.07C125.671 205.895 125.348 206.217 125.348 206.616C125.348 207.015 125.671 207.336 126.07 207.336Z" fill="#3A3E3C"/>
<path d="M126.07 215.521H183.637C184.037 215.521 184.36 215.199 184.36 214.8C184.36 214.401 184.037 214.08 183.637 214.08H126.07C125.671 214.08 125.348 214.403 125.348 214.8C125.348 215.197 125.671 215.521 126.07 215.521Z" fill="#3A3E3C"/>
<path d="M146.234 223.707H183.639C184.038 223.707 184.361 223.384 184.361 222.985C184.361 222.587 184.038 222.266 183.639 222.266H146.234C145.835 222.266 145.514 222.588 145.514 222.985C145.514 223.383 145.837 223.707 146.234 223.707Z" fill="#3A3E3C"/>
<path d="M125.642 223.707H140.569C140.968 223.707 141.289 223.384 141.289 222.985C141.289 222.587 140.966 222.266 140.569 222.266H125.642C125.243 222.266 124.922 222.588 124.922 222.985C124.922 223.383 125.245 223.707 125.642 223.707Z" fill="#3A3E3C"/>
<path d="M160.127 231.895H183.639C184.038 231.895 184.361 231.572 184.361 231.175C184.361 230.777 184.038 230.453 183.639 230.453H160.127C159.727 230.453 159.406 230.776 159.406 231.175C159.406 231.574 159.729 231.895 160.127 231.895Z" fill="#3A3E3C"/>
<path d="M125.642 231.895H154.854C155.253 231.895 155.575 231.572 155.575 231.175C155.575 230.777 155.252 230.453 154.854 230.453H125.642C125.243 230.453 124.922 230.776 124.922 231.175C124.922 231.574 125.245 231.895 125.642 231.895Z" fill="#3A3E3C"/>
<path d="M140.699 240.244C140.628 240.529 124.922 254.551 124.922 254.551L129.151 239.949L140.699 240.244Z" fill="#C6C6C6"/>
<path d="M207.657 118.486H154.378C153.613 118.486 152.993 117.865 152.993 117.102V85.3427C152.993 84.5778 153.615 83.9585 154.378 83.9585H207.657C208.423 83.9585 209.043 84.5795 209.043 85.3427V117.102C209.043 117.867 208.421 118.486 207.657 118.486Z" fill="white"/>
<path d="M158.255 90.2443H204.992C205.315 90.2443 205.577 89.9824 205.577 89.6597C205.577 89.3371 205.315 89.0752 204.992 89.0752H158.255C157.932 89.0752 157.67 89.3371 157.67 89.6597C157.67 89.9824 157.932 90.2443 158.255 90.2443Z" fill="#3A3E3C"/>
<path d="M158.255 96.8917H204.992C205.315 96.8917 205.577 96.6298 205.577 96.3072C205.577 95.9846 205.315 95.7227 204.992 95.7227H158.255C157.932 95.7227 157.67 95.9846 157.67 96.3072C157.67 96.6298 157.932 96.8917 158.255 96.8917Z" fill="#3A3E3C"/>
<path d="M174.626 103.536H204.994C205.317 103.536 205.579 103.274 205.579 102.952C205.579 102.629 205.317 102.367 204.994 102.367H174.626C174.303 102.367 174.041 102.629 174.041 102.952C174.041 103.274 174.303 103.536 174.626 103.536Z" fill="#3A3E3C"/>
<path d="M157.911 103.536H170.03C170.353 103.536 170.615 103.274 170.615 102.952C170.615 102.629 170.353 102.367 170.03 102.367H157.911C157.588 102.367 157.326 102.629 157.326 102.952C157.326 103.274 157.588 103.536 157.911 103.536Z" fill="#3A3E3C"/>
<path d="M185.905 110.182H204.993C205.316 110.182 205.578 109.92 205.578 109.597C205.578 109.275 205.316 109.013 204.993 109.013H185.905C185.582 109.013 185.32 109.275 185.32 109.597C185.32 109.92 185.582 110.182 185.905 110.182Z" fill="#3A3E3C"/>
<path d="M157.911 110.182H181.628C181.951 110.182 182.213 109.92 182.213 109.597C182.213 109.275 181.951 109.013 181.628 109.013H157.911C157.588 109.013 157.326 109.275 157.326 109.597C157.326 109.92 157.588 110.182 157.911 110.182Z" fill="#3A3E3C"/>
<path d="M170.134 116.96C170.077 117.191 157.324 128.577 157.324 128.577L160.758 116.723L170.134 116.962V116.96Z" fill="white"/>
<path d="M107.398 175.455H173.376C174.209 175.455 174.885 174.78 174.885 173.948V145.444C174.885 144.612 174.209 143.937 173.376 143.937H107.398C106.565 143.937 105.89 144.612 105.89 145.444V173.948C105.89 174.78 106.565 175.455 107.398 175.455Z" fill="white"/>
<path d="M111.62 151.943H170.475C170.828 151.943 171.113 151.659 171.113 151.307C171.113 150.954 170.828 150.67 170.475 150.67H111.62C111.267 150.67 110.982 150.954 110.982 151.307C110.982 151.659 111.267 151.943 111.62 151.943Z" fill="#121212"/>
<path d="M129.442 159.179H170.475C170.828 159.179 171.113 158.895 171.113 158.543C171.113 158.191 170.828 157.906 170.475 157.906H129.442C129.089 157.906 128.805 158.191 128.805 158.543C128.805 158.895 129.089 159.179 129.442 159.179Z" fill="#121212"/>
<path d="M111.245 159.179H124.438C124.79 159.179 125.075 158.895 125.075 158.543C125.075 158.191 124.79 157.906 124.438 157.906H111.245C110.892 157.906 110.607 158.191 110.607 158.543C110.607 158.895 110.892 159.179 111.245 159.179Z" fill="#121212"/>
<path d="M141.723 166.414H170.476C170.829 166.414 171.114 166.129 171.114 165.777C171.114 165.425 170.829 165.141 170.476 165.141H141.723C141.371 165.141 141.086 165.425 141.086 165.777C141.086 166.129 141.371 166.414 141.723 166.414Z" fill="#121212"/>
<path d="M111.245 166.414H137.064C137.416 166.414 137.701 166.129 137.701 165.777C137.701 165.425 137.416 165.141 137.064 165.141H111.245C110.892 165.141 110.607 165.425 110.607 165.777C110.607 166.129 110.892 166.414 111.245 166.414Z" fill="#121212"/>
<path d="M124.553 173.793C124.49 174.045 110.607 186.44 110.607 186.44L114.345 173.533L124.553 173.793Z" fill="#FFE2BF"/>
<path d="M320.734 217.584H241.089C239.945 217.584 239.018 218.51 239.018 219.653V255.956C239.018 257.098 239.945 258.025 241.089 258.025H320.734C321.878 258.025 322.805 257.098 322.805 255.956V219.653C322.805 218.51 321.878 217.584 320.734 217.584Z" fill="#008BCE"/>
<path d="M314.939 226.983H245.072C244.588 226.983 244.197 226.591 244.197 226.109C244.197 225.626 244.59 225.234 245.072 225.234H314.939C315.423 225.234 315.814 225.626 315.814 226.109C315.814 226.591 315.422 226.983 314.939 226.983Z" fill="black"/>
<path d="M314.939 236.916H245.072C244.588 236.916 244.197 236.524 244.197 236.042C244.197 235.56 244.59 235.168 245.072 235.168H314.939C315.423 235.168 315.814 235.56 315.814 236.042C315.814 236.524 315.422 236.916 314.939 236.916Z" fill="black"/>
<path d="M290.467 246.85H245.072C244.588 246.85 244.197 246.458 244.197 245.976C244.197 245.494 244.59 245.102 245.072 245.102H290.467C290.952 245.102 291.342 245.494 291.342 245.976C291.342 246.458 290.95 246.85 290.467 246.85Z" fill="black"/>
<path d="M315.455 246.85H297.34C296.855 246.85 296.465 246.458 296.465 245.976C296.465 245.494 296.857 245.102 297.34 245.102H315.455C315.94 245.102 316.331 245.494 316.331 245.976C316.331 246.458 315.938 246.85 315.455 246.85Z" fill="black"/>
<path d="M297.183 255.744C297.27 256.089 316.33 273.107 316.33 273.107L311.196 255.387L297.182 255.744H297.183Z" fill="#008BCE"/>
<path d="M300.555 52.0264H241.421C240.572 52.0264 239.883 52.7144 239.883 53.5632V80.5162C239.883 81.365 240.572 82.053 241.421 82.053H300.555C301.404 82.053 302.093 81.365 302.093 80.5162V53.5632C302.093 52.7144 301.404 52.0264 300.555 52.0264Z" fill="#008BCE"/>
<path d="M296.25 59.0045H244.376C244.017 59.0045 243.727 58.7131 243.727 58.3557C243.727 57.9984 244.018 57.707 244.376 57.707H296.25C296.61 57.707 296.9 57.9984 296.9 58.3557C296.9 58.7131 296.608 59.0045 296.25 59.0045Z" fill="black"/>
<path d="M296.25 66.3795H244.376C244.017 66.3795 243.727 66.0881 243.727 65.7308C243.727 65.3734 244.018 65.082 244.376 65.082H296.25C296.61 65.082 296.9 65.3734 296.9 65.7308C296.9 66.0881 296.608 66.3795 296.25 66.3795Z" fill="black"/>
<path d="M278.081 73.7554H244.376C244.017 73.7554 243.727 73.464 243.727 73.1067C243.727 72.7494 244.018 72.458 244.376 72.458H278.081C278.44 72.458 278.73 72.7494 278.73 73.1067C278.73 73.464 278.439 73.7554 278.081 73.7554Z" fill="black"/>
<path d="M296.637 73.7554H283.186C282.827 73.7554 282.537 73.464 282.537 73.1067C282.537 72.7494 282.829 72.458 283.186 72.458H296.637C296.996 72.458 297.286 72.7494 297.286 73.1067C297.286 73.464 296.995 73.7554 296.637 73.7554Z" fill="black"/>
<path d="M283.068 80.3582C283.133 80.6149 297.284 93.2493 297.284 93.2493L293.473 80.0928L283.068 80.3582Z" fill="#008BCE"/>
<path d="M284.584 160.641H220.803C220.138 160.641 219.6 161.179 219.6 161.843V189.425C219.6 190.089 220.138 190.627 220.803 190.627H284.584C285.249 190.627 285.787 190.089 285.787 189.425V161.843C285.787 161.179 285.249 160.641 284.584 160.641Z" fill="#AEE2E8"/>
<path d="M281.217 166.098H223.118C222.837 166.098 222.609 165.871 222.609 165.59C222.609 165.309 222.837 165.082 223.118 165.082H281.217C281.498 165.082 281.726 165.309 281.726 165.59C281.726 165.871 281.498 166.098 281.217 166.098Z" fill="#61A3C5"/>
<path d="M281.217 171.872H223.118C222.837 171.872 222.609 171.645 222.609 171.364C222.609 171.083 222.837 170.855 223.118 170.855H281.217C281.498 170.855 281.726 171.083 281.726 171.364C281.726 171.645 281.498 171.872 281.217 171.872Z" fill="#61A3C5"/>
<path d="M267.001 177.643H223.118C222.837 177.643 222.609 177.416 222.609 177.135C222.609 176.854 222.837 176.627 223.118 176.627H267.001C267.282 176.627 267.509 176.854 267.509 177.135C267.509 177.416 267.282 177.643 267.001 177.643Z" fill="#61A3C5"/>
<path d="M281.516 177.643H270.991C270.71 177.643 270.482 177.416 270.482 177.135C270.482 176.854 270.71 176.627 270.991 176.627H281.516C281.797 176.627 282.025 176.854 282.025 177.135C282.025 177.416 281.797 177.643 281.516 177.643Z" fill="#61A3C5"/>
<path d="M257.205 183.413H223.118C222.837 183.413 222.609 183.186 222.609 182.905C222.609 182.624 222.837 182.396 223.118 182.396H257.205C257.486 182.396 257.714 182.624 257.714 182.905C257.714 183.186 257.486 183.413 257.205 183.413Z" fill="#61A3C5"/>
<path d="M281.515 183.413H260.919C260.638 183.413 260.41 183.186 260.41 182.905C260.41 182.624 260.638 182.396 260.919 182.396H281.515C281.797 182.396 282.024 182.624 282.024 182.905C282.024 183.186 281.797 183.413 281.515 183.413Z" fill="#61A3C5"/>
<path d="M270.9 189.3C270.951 189.501 280.307 200.315 280.307 200.315L279.043 189.094L270.902 189.302L270.9 189.3Z" fill="#AEE2E8"/>
</g>
</g>
<defs>
<clipPath id="clip0_2440_14928">
<rect width="423" height="403" fill="white"/>
</clipPath>
<clipPath id="clip1_2440_14928">
<rect width="405" height="332" fill="white" transform="translate(11 35)"/>
</clipPath>
</defs>
</svg>
