<svg width="427" height="425" viewBox="0 0 427 425" fill="none" xmlns="http://www.w3.org/2000/svg">
<g clip-path="url(#clip0_2445_16366)">
<path d="M400.041 382.57C388.531 392.16 338.441 398.94 278.761 401.49C187.021 405.42 72.6009 399.37 40.7909 378.2C25.7309 368.19 15.5509 337.25 9.1009 297.66C-6.9291 199.16 0.220901 47.1301 13.1609 30.6501C31.3109 7.56009 323.301 -15.3099 399.911 13.9301C432.741 26.4601 429.231 358.23 400.031 382.57H400.041Z" fill="white"/>
<path d="M373.314 247.44L375.204 241.883L377.358 247.44C377.358 247.44 381.657 248.14 381.712 248.531C381.757 248.913 377.595 250.095 377.595 250.095C377.595 250.095 375.85 255.488 375.204 254.27C374.568 253.051 373.95 250.35 373.95 250.35C373.95 250.35 368.533 249.268 368.533 248.731C368.533 248.158 373.314 247.449 373.314 247.449V247.44Z" fill="white"/>
<path d="M304.094 233.142L305.566 228.822L307.238 233.142C307.238 233.142 310.574 233.688 310.619 233.988C310.656 234.279 307.429 235.198 307.429 235.198C307.429 235.198 306.075 239.381 305.575 238.435C305.075 237.49 304.594 235.389 304.594 235.389C304.594 235.389 300.395 234.543 300.395 234.134C300.395 233.688 304.103 233.142 304.103 233.142H304.094Z" fill="white"/>
<g clip-path="url(#clip1_2445_16366)">
<path d="M309.72 215.571C309.467 215.581 309.253 215.383 309.243 215.13L308.968 207.797L293.434 208.379C293.18 208.389 292.967 208.191 292.959 207.938C292.949 207.685 293.147 207.473 293.4 207.464L309.392 206.864C309.514 206.859 309.633 206.903 309.721 206.987C309.81 207.068 309.862 207.185 309.866 207.305L310.159 215.097C310.169 215.35 309.971 215.561 309.718 215.571L309.72 215.571Z" fill="#955B50"/>
<path d="M315.376 366.345L257.215 368.527C256.962 368.537 256.748 368.339 256.74 368.086L256.297 356.302C256.287 356.049 256.485 355.837 256.739 355.828C256.992 355.818 257.205 356.015 257.215 356.268L257.641 367.594L314.884 365.446L310.485 248.212C310.475 247.959 310.673 247.747 310.926 247.738C311.18 247.728 311.393 247.925 311.403 248.178L315.818 365.871C315.827 366.124 315.63 366.335 315.376 366.345Z" fill="#008BCE"/>
<path d="M264.452 359.322L307.521 357.71L306.428 328.493L263.359 330.106L264.452 359.322Z" fill="#636363"/>
<path d="M263.208 326.215L306.277 324.603L305.184 295.386L262.115 296.998L263.208 326.215Z" fill="#008BCE"/>
<path d="M261.964 293.11L305.033 291.498L303.94 262.281L260.87 263.894L261.964 293.11Z" fill="white"/>
<path d="M295.168 227.87C295.118 227.872 295.066 227.865 295.015 227.851C294.773 227.777 294.637 227.52 294.712 227.279L298.097 216.319L282.173 211.411C281.931 211.337 281.795 211.081 281.87 210.839C281.944 210.597 282.201 210.46 282.443 210.536L298.805 215.579C298.92 215.614 299.019 215.695 299.075 215.803C299.132 215.911 299.145 216.035 299.108 216.153L295.588 227.55C295.529 227.742 295.357 227.867 295.168 227.874L295.168 227.87Z" fill="#955B50"/>
<path d="M241.155 205.55C241.105 205.552 241.053 205.545 241.002 205.531C240.76 205.457 240.623 205.2 240.699 204.958L242.618 198.746C242.692 198.504 242.948 198.367 243.191 198.443L245.885 199.274C246.127 199.348 246.264 199.604 246.188 199.846C246.112 200.088 245.855 200.225 245.615 200.149L243.359 199.455L241.575 205.228C241.516 205.419 241.344 205.544 241.155 205.552L241.155 205.55Z" fill="#955B50"/>
<path d="M251.859 368.103C251.809 368.105 251.757 368.098 251.706 368.084L196.091 350.947C195.975 350.912 195.878 350.831 195.82 350.723C195.762 350.615 195.751 350.491 195.788 350.373L203.108 326.67C203.181 326.428 203.438 326.292 203.68 326.368C203.922 326.441 204.057 326.698 203.983 326.94L196.798 350.205L251.536 367.072L290.918 239.555C290.991 239.313 291.248 239.177 291.49 239.253C291.732 239.326 291.869 239.583 291.793 239.825L252.277 367.779C252.218 367.97 252.046 368.096 251.857 368.103L251.859 368.103Z" fill="#FFE6DE"/>
<path d="M205.906 344.672L247.092 357.358L255.715 329.419L214.529 316.732L205.906 344.672Z" fill="#FFE6DE"/>
<path d="M215.686 313.015L256.871 325.702L265.494 297.763L224.308 285.076L215.686 313.015Z" fill="#FFE6DE"/>
<path d="M225.465 281.361L266.65 294.048L275.273 266.108L234.088 253.422L225.465 281.361Z" fill="#FFE6DE"/>
<path d="M188.797 345.37L296.626 228.849L253.891 189.383L146.061 305.903L188.797 345.37Z" fill="white"/>
<path d="M188.814 345.826C188.698 345.83 188.578 345.789 188.485 345.706L145.75 306.239C145.661 306.158 145.607 306.041 145.602 305.921C145.598 305.8 145.641 305.68 145.725 305.592L227.712 216.996C227.884 216.81 228.175 216.799 228.36 216.971C228.546 217.142 228.557 217.433 228.385 217.618L146.709 305.878L188.772 344.722L285.505 240.193C285.676 240.008 285.967 239.996 286.153 240.168C286.338 240.339 286.349 240.63 286.178 240.815L189.135 345.681C189.049 345.773 188.933 345.823 188.816 345.828L188.814 345.826Z" fill="#151515"/>
<path d="M177.211 283.341L157.348 304.814L188.996 334.041L208.86 312.568L177.211 283.341Z" fill="#151515"/>
<path d="M199.725 259.011L179.861 280.484L211.51 309.711L231.373 288.238L199.725 259.011Z" fill="black"/>
<path d="M222.237 234.686L202.373 256.159L234.021 285.386L253.885 263.913L222.237 234.686Z" fill="black"/>
<path d="M363.516 120.463L301.847 122.847C301.594 122.857 301.38 122.659 301.371 122.406L299.119 64.1685C299.11 63.9154 299.307 63.702 299.561 63.6922L361.229 61.3083C361.482 61.2985 361.696 61.496 361.706 61.7491L363.957 119.987C363.967 120.24 363.769 120.453 363.516 120.463ZM302.269 121.912L363.021 119.564L360.805 62.2432L300.053 64.5917L302.269 121.914L302.269 121.912Z" fill="#FFE6DE"/>
<path d="M280.611 123.668L218.943 126.052C218.69 126.062 218.476 125.864 218.466 125.611L216.215 67.3736C216.205 67.1205 216.403 66.9071 216.656 66.8973L278.325 64.5134C278.578 64.5036 278.791 64.701 278.801 64.9542L281.053 123.192C281.062 123.445 280.865 123.658 280.611 123.668ZM219.364 125.117L280.117 122.769L277.901 65.4482L217.149 67.7968L219.364 125.119L219.364 125.117Z" fill="#FFE6DE"/>
<path d="M195.949 126.941L134.281 129.325C134.028 129.334 133.814 129.137 133.804 128.884L131.553 70.6461C131.543 70.3929 131.741 70.1796 131.994 70.1698L193.662 67.7858C193.916 67.776 194.129 67.9735 194.139 68.2267L196.39 126.464C196.4 126.718 196.203 126.931 195.949 126.941ZM134.702 128.39L195.455 126.041L193.239 68.7207L132.486 71.0692L134.702 128.392L134.702 128.39Z" fill="#FFE6DE"/>
<path d="M393.36 16.2875L88.9102 28.0566L90.065 57.9318L394.515 46.1626L393.36 16.2875Z" fill="black"/>
<path d="M378.356 38.3277C382.002 38.1868 384.844 35.1202 384.703 31.4783C384.562 27.8364 381.492 24.9984 377.846 25.1393C374.2 25.2803 371.358 28.3469 371.499 31.9887C371.64 35.6306 374.71 38.4687 378.356 38.3277Z" fill="white"/>
<path d="M356.645 39.1676C360.291 39.0266 363.133 35.96 362.992 32.3182C362.851 28.6763 359.781 25.8382 356.135 25.9792C352.489 26.1201 349.647 29.1867 349.788 32.8286C349.929 36.4705 352.999 39.3085 356.645 39.1676Z" fill="white"/>
<path d="M334.936 40.0064C338.582 39.8655 341.424 36.7989 341.283 33.157C341.142 29.5151 338.072 26.6771 334.426 26.818C330.78 26.959 327.938 30.0256 328.079 33.6674C328.22 37.3093 331.29 40.1474 334.936 40.0064Z" fill="white"/>
<path d="M401.296 221.563L96.8456 233.332C96.5923 233.342 96.3787 233.144 96.369 232.891L88.4513 28.0748C88.4415 27.8216 88.6392 27.6083 88.8925 27.5985L393.343 15.8293C393.596 15.8195 393.809 16.017 393.819 16.2701L401.737 221.089C401.747 221.342 401.549 221.555 401.296 221.565L401.296 221.563ZM97.2671 232.399L400.801 220.666L392.919 16.7621L89.3848 28.4959L97.2671 232.397L97.2671 232.399Z" fill="black"/>
<path d="M390.452 351.557L325.193 354.079C316.161 354.429 308.532 347.371 308.183 338.349C307.835 329.328 314.898 321.702 323.928 321.353L389.187 318.831C398.219 318.481 405.848 325.539 406.196 334.56C406.545 343.582 399.482 351.208 390.452 351.557ZM323.963 322.268C315.438 322.598 308.77 329.796 309.099 338.314C309.428 346.832 316.633 353.494 325.158 353.164L390.417 350.642C398.942 350.312 405.61 343.114 405.281 334.596C404.951 326.078 397.747 319.416 389.222 319.746L323.963 322.268Z" fill="#008BCE"/>
<path d="M366.867 385.211L381.53 335.514L331.768 355.355L366.867 385.211Z" fill="black"/>
<path d="M344.804 366.417L333.988 378.535L343.336 386.865L354.152 374.747L344.804 366.417Z" fill="black"/>
<path d="M362.117 381.299L376.782 331.6L327.02 351.443L362.117 381.299Z" fill="white"/>
<path d="M362.135 381.757C362.021 381.761 361.909 381.724 361.821 381.648L326.722 351.793C326.599 351.69 326.541 351.528 326.566 351.371C326.593 351.212 326.698 351.079 326.848 351.019L376.612 331.176C376.774 331.112 376.961 331.144 377.09 331.264C377.219 331.381 377.27 331.564 377.22 331.733L362.555 381.431C362.511 381.58 362.395 381.697 362.247 381.74C362.21 381.752 362.172 381.757 362.133 381.759L362.135 381.757ZM327.895 351.588L361.876 380.493L376.074 332.377L327.893 351.588L327.895 351.588Z" fill="black"/>
<path d="M340.811 361.668L329.24 374.627L338.587 382.958L350.158 369.999L340.811 361.668Z" fill="white"/>
<path d="M338.606 383.407C338.492 383.411 338.376 383.374 338.283 383.29L328.935 374.961C328.844 374.88 328.79 374.767 328.783 374.645C328.777 374.523 328.818 374.405 328.9 374.314L339.702 362.216C339.872 362.029 340.16 362.011 340.35 362.178C340.539 362.346 340.555 362.636 340.387 362.825L329.889 374.582L338.553 382.301L349.242 370.33C349.412 370.142 349.702 370.125 349.89 370.292C350.079 370.46 350.095 370.75 349.927 370.939L338.933 383.253C338.847 383.35 338.729 383.4 338.608 383.405L338.606 383.407Z" fill="black"/>
<path d="M385.956 101.775L189.025 109.388C182.723 109.632 177.813 114.933 178.056 121.229L182.794 243.786C183.037 250.082 188.343 254.988 194.644 254.745L391.576 247.132C397.877 246.888 402.788 241.587 402.544 235.291L397.807 112.734C397.563 106.438 392.258 101.532 385.956 101.775Z" fill="white"/>
<path d="M187.6 109.443L387.383 101.72C392.893 101.507 397.539 105.804 397.752 111.308L398.251 124.237L178.501 132.732L178.001 119.803C177.788 114.299 182.089 109.656 187.598 109.443L187.6 109.443Z" fill="black"/>
<path d="M393.813 247.503L192.443 255.287C187.123 255.493 182.628 251.336 182.422 246.02L177.513 119.031C177.308 113.715 181.469 109.223 186.789 109.018L388.159 101.233C393.479 101.028 397.974 105.184 398.18 110.501L403.089 237.49C403.294 242.806 399.134 247.297 393.813 247.503ZM186.824 109.933C182.009 110.119 178.243 114.184 178.429 118.995L183.338 245.985C183.524 250.796 187.592 254.558 192.408 254.372L393.778 246.588C398.594 246.402 402.359 242.337 402.173 237.525L397.264 110.536C397.078 105.724 393.01 101.962 388.194 102.148L186.824 109.933Z" fill="black"/>
<path d="M398.271 124.696L178.518 133.191C178.264 133.201 178.051 133.004 178.041 132.751C178.031 132.497 178.229 132.284 178.482 132.274L398.233 123.779C398.487 123.77 398.7 123.967 398.71 124.22C398.72 124.473 398.522 124.687 398.269 124.696L398.271 124.696Z" fill="black"/>
<path d="M372.919 125.677C372.665 125.687 372.452 125.489 372.442 125.236L371.557 102.333C371.547 102.079 371.745 101.866 371.998 101.856C372.251 101.846 372.465 102.044 372.475 102.297L373.36 125.2C373.37 125.454 373.172 125.667 372.919 125.677Z" fill="black"/>
<path d="M347.663 126.652C347.41 126.662 347.196 126.465 347.186 126.211L346.301 103.308C346.291 103.055 346.489 102.842 346.742 102.832C346.996 102.822 347.209 103.02 347.219 103.273L348.104 126.176C348.114 126.429 347.916 126.643 347.663 126.652Z" fill="black"/>
<path d="M340.004 120.694L329.862 121.086C329.608 121.096 329.395 120.898 329.385 120.645C329.375 120.392 329.573 120.179 329.826 120.169L339.969 119.777C340.222 119.767 340.436 119.964 340.446 120.218C340.455 120.471 340.258 120.684 340.004 120.694Z" fill="white"/>
<path d="M389.84 118.768C389.724 118.773 389.604 118.731 389.511 118.646L379.1 109.015C378.914 108.844 378.903 108.553 379.075 108.368C379.246 108.183 379.537 108.171 379.723 108.343L390.134 117.973C390.32 118.145 390.331 118.435 390.159 118.621C390.073 118.713 389.957 118.764 389.84 118.768Z" fill="white"/>
<path d="M379.816 119.156C379.7 119.16 379.58 119.119 379.487 119.033C379.301 118.862 379.29 118.571 379.462 118.386L389.099 107.98C389.271 107.795 389.561 107.784 389.747 107.955C389.932 108.127 389.944 108.417 389.772 108.603L380.135 119.008C380.049 119.101 379.932 119.151 379.816 119.156Z" fill="white"/>
<path d="M364.988 119.728L354.563 120.131C354.31 120.141 354.096 119.943 354.086 119.69L353.684 109.274C353.674 109.021 353.872 108.807 354.125 108.798L364.55 108.395C364.803 108.385 365.017 108.582 365.027 108.836L365.429 119.252C365.439 119.505 365.242 119.718 364.988 119.728ZM354.987 119.198L364.494 118.831L364.127 109.332L354.619 109.699L354.987 119.198Z" fill="white"/>
<path d="M309.315 142.194C309.062 142.203 308.849 142.006 308.839 141.753L308.733 139.005C308.728 138.883 308.771 138.765 308.855 138.677C308.939 138.588 309.053 138.534 309.174 138.529L311.923 138.423C312.177 138.417 312.39 138.613 312.398 138.866C312.408 139.119 312.21 139.33 311.957 139.34L309.666 139.429L309.755 141.715C309.764 141.968 309.567 142.182 309.313 142.192L309.315 142.194Z" fill="black"/>
<path d="M312.683 229.327C312.43 229.337 312.217 229.14 312.207 228.887L311.996 223.44C311.986 223.187 312.184 222.973 312.437 222.963C312.691 222.954 312.904 223.151 312.914 223.404L313.125 228.851C313.134 229.104 312.937 229.318 312.683 229.327ZM312.262 218.436C312.009 218.446 311.796 218.248 311.786 217.995L311.575 212.548C311.565 212.295 311.763 212.082 312.016 212.072C312.27 212.062 312.483 212.26 312.493 212.513L312.704 217.96C312.713 218.213 312.516 218.426 312.262 218.436ZM311.841 207.544C311.588 207.554 311.374 207.357 311.365 207.104L311.154 201.659C311.144 201.406 311.342 201.192 311.595 201.183C311.849 201.173 312.062 201.37 312.072 201.624L312.283 207.068C312.292 207.321 312.095 207.535 311.841 207.544ZM311.42 196.653C311.167 196.663 310.953 196.465 310.944 196.212L310.733 190.765C310.723 190.512 310.921 190.299 311.174 190.289C311.428 190.279 311.641 190.477 311.651 190.73L311.862 196.177C311.871 196.43 311.674 196.643 311.42 196.653ZM310.999 185.762C310.746 185.771 310.532 185.574 310.523 185.321L310.312 179.874C310.302 179.621 310.5 179.408 310.753 179.398C311.007 179.388 311.22 179.585 311.23 179.839L311.441 185.285C311.45 185.538 311.253 185.752 310.999 185.762ZM310.578 174.87C310.325 174.88 310.111 174.683 310.102 174.429L309.891 168.983C309.881 168.729 310.079 168.516 310.332 168.506C310.586 168.497 310.799 168.694 310.809 168.947L311.02 174.394C311.029 174.647 310.832 174.86 310.578 174.87ZM310.157 163.979C309.904 163.989 309.69 163.791 309.681 163.538L309.47 158.091C309.46 157.838 309.658 157.625 309.911 157.615C310.165 157.605 310.378 157.803 310.388 158.056L310.598 163.502C310.608 163.756 310.411 163.969 310.157 163.979ZM309.736 153.087C309.483 153.097 309.269 152.9 309.26 152.647L309.049 147.2C309.039 146.947 309.237 146.733 309.49 146.723C309.744 146.714 309.957 146.911 309.967 147.164L310.177 152.611C310.187 152.864 309.99 153.078 309.736 153.087Z" fill="black"/>
<path d="M315.751 237.414L313.001 237.521C312.748 237.53 312.534 237.333 312.524 237.08L312.418 234.333C312.408 234.079 312.606 233.866 312.859 233.856C313.113 233.846 313.326 234.044 313.336 234.297L313.425 236.586L315.715 236.497C315.968 236.487 316.182 236.685 316.192 236.938C316.202 237.191 316.004 237.405 315.751 237.414Z" fill="black"/>
<path d="M378.132 235.003L372.934 235.204C372.681 235.214 372.467 235.017 372.458 234.763C372.448 234.51 372.645 234.297 372.899 234.287L378.097 234.086C378.35 234.076 378.564 234.274 378.573 234.527C378.583 234.78 378.386 234.993 378.132 235.003ZM367.736 235.405L362.538 235.606C362.285 235.616 362.071 235.418 362.061 235.165C362.052 234.912 362.249 234.699 362.503 234.689L367.701 234.488C367.954 234.478 368.168 234.676 368.177 234.929C368.187 235.182 367.99 235.395 367.736 235.405ZM357.338 235.807L352.14 236.008C351.887 236.018 351.673 235.82 351.663 235.567C351.653 235.314 351.851 235.101 352.105 235.091L357.303 234.89C357.556 234.88 357.769 235.078 357.779 235.331C357.789 235.584 357.591 235.797 357.338 235.807ZM346.94 236.209L341.742 236.41C341.488 236.42 341.275 236.222 341.265 235.969C341.255 235.716 341.453 235.503 341.706 235.493L346.904 235.292C347.158 235.282 347.371 235.48 347.381 235.733C347.391 235.986 347.193 236.199 346.94 236.209ZM336.544 236.611L331.346 236.812C331.092 236.822 330.879 236.624 330.869 236.371C330.859 236.118 331.057 235.905 331.31 235.895L336.508 235.694C336.762 235.684 336.975 235.882 336.985 236.135C336.995 236.388 336.797 236.601 336.544 236.611ZM326.146 237.013L320.948 237.214C320.694 237.224 320.481 237.026 320.471 236.773C320.461 236.52 320.659 236.307 320.912 236.297L326.11 236.096C326.363 236.086 326.577 236.283 326.587 236.537C326.597 236.79 326.399 237.003 326.146 237.013Z" fill="black"/>
<path d="M386.081 234.696L383.331 234.802C383.078 234.812 382.864 234.614 382.854 234.361C382.845 234.108 383.042 233.895 383.296 233.885L385.586 233.796L385.498 231.508C385.488 231.254 385.686 231.041 385.939 231.031C386.192 231.021 386.406 231.219 386.416 231.472L386.522 234.219C386.532 234.472 386.334 234.686 386.081 234.696Z" fill="black"/>
<path d="M385.764 226.506C385.51 226.516 385.297 226.318 385.287 226.065L385.076 220.623C385.067 220.369 385.264 220.156 385.518 220.146C385.771 220.137 385.985 220.334 385.994 220.587L386.205 226.03C386.215 226.283 386.017 226.496 385.764 226.506ZM385.343 215.621C385.089 215.631 384.876 215.433 384.866 215.18L384.656 209.737C384.646 209.484 384.844 209.271 385.097 209.261C385.35 209.251 385.564 209.449 385.574 209.702L385.784 215.145C385.794 215.398 385.596 215.611 385.343 215.621ZM384.922 204.736C384.669 204.745 384.455 204.548 384.445 204.295L384.235 198.852C384.225 198.599 384.423 198.386 384.676 198.376C384.929 198.366 385.143 198.564 385.153 198.817L385.363 204.259C385.373 204.513 385.175 204.726 384.922 204.736ZM384.501 193.85C384.248 193.86 384.034 193.663 384.024 193.41L383.814 187.967C383.804 187.714 384.002 187.501 384.255 187.491C384.509 187.481 384.722 187.678 384.732 187.932L384.942 193.374C384.952 193.627 384.755 193.841 384.501 193.85ZM384.08 182.965C383.827 182.975 383.613 182.778 383.604 182.524L383.393 177.082C383.384 176.829 383.581 176.615 383.835 176.606C384.088 176.596 384.301 176.793 384.311 177.046L384.522 182.489C384.531 182.742 384.334 182.955 384.08 182.965ZM383.66 172.082C383.406 172.092 383.193 171.894 383.183 171.641L382.973 166.199C382.963 165.946 383.16 165.732 383.414 165.722C383.667 165.713 383.881 165.91 383.89 166.163L384.101 171.606C384.111 171.859 383.913 172.072 383.66 172.082ZM383.239 161.197C382.986 161.207 382.772 161.009 382.762 160.756L382.552 155.313C382.542 155.06 382.74 154.847 382.993 154.837C383.246 154.827 383.46 155.025 383.47 155.278L383.68 160.721C383.69 160.974 383.492 161.187 383.239 161.197ZM382.818 150.312C382.565 150.322 382.351 150.124 382.341 149.871L382.131 144.428C382.121 144.175 382.319 143.962 382.572 143.952C382.826 143.942 383.039 144.14 383.049 144.393L383.259 149.835C383.269 150.089 383.071 150.302 382.818 150.312Z" fill="black"/>
<path d="M382.397 139.426C382.144 139.436 381.93 139.239 381.92 138.985L381.832 136.695L379.539 136.783C379.286 136.793 379.074 136.593 379.065 136.34C379.055 136.087 379.252 135.876 379.506 135.866L382.255 135.76C382.509 135.752 382.72 135.95 382.73 136.203L382.836 138.95C382.846 139.203 382.648 139.416 382.395 139.426L382.397 139.426Z" fill="black"/>
<path d="M374.343 136.98L369.145 137.177C368.891 137.187 368.68 136.99 368.67 136.736C368.66 136.483 368.858 136.272 369.111 136.262L374.309 136.065C374.563 136.056 374.774 136.253 374.784 136.506C374.794 136.759 374.596 136.971 374.343 136.98ZM363.944 137.374L358.746 137.571C358.493 137.581 358.281 137.383 358.271 137.13C358.262 136.877 358.459 136.666 358.713 136.656L363.911 136.459C364.164 136.449 364.376 136.647 364.386 136.9C364.395 137.153 364.198 137.364 363.944 137.374ZM353.548 137.768L348.35 137.965C348.096 137.974 347.885 137.777 347.875 137.524C347.865 137.27 348.063 137.059 348.316 137.049L353.515 136.853C353.768 136.843 353.979 137.04 353.989 137.293C353.999 137.547 353.801 137.758 353.548 137.768ZM343.149 138.161L337.951 138.358C337.698 138.368 337.486 138.17 337.477 137.917C337.467 137.664 337.665 137.453 337.918 137.443L343.116 137.246C343.369 137.236 343.581 137.434 343.591 137.687C343.6 137.94 343.403 138.152 343.149 138.161ZM332.753 138.555L327.555 138.752C327.301 138.762 327.09 138.564 327.08 138.311C327.07 138.058 327.268 137.846 327.521 137.837L332.72 137.64C332.973 137.63 333.185 137.828 333.194 138.081C333.204 138.334 333.006 138.545 332.753 138.555ZM322.355 138.949L317.156 139.145C316.903 139.155 316.691 138.958 316.682 138.705C316.672 138.451 316.87 138.24 317.123 138.23L322.321 138.034C322.575 138.024 322.786 138.221 322.796 138.474C322.806 138.728 322.608 138.939 322.355 138.949Z" fill="black"/>
<path d="M348.138 199.834C355.446 199.551 361.142 193.403 360.86 186.101C360.577 178.799 354.424 173.108 347.116 173.391C339.807 173.673 334.112 179.822 334.394 187.124C334.676 194.426 340.83 200.117 348.138 199.834Z" fill="#008BCE"/>
<path d="M347.943 194.817C347.689 194.826 347.476 194.629 347.466 194.376L346.867 178.886C346.858 178.633 347.055 178.42 347.309 178.41C347.562 178.4 347.775 178.598 347.785 178.851L348.384 194.34C348.394 194.593 348.196 194.807 347.943 194.817Z" fill="white"/>
<path d="M355.394 186.772L339.893 187.371C339.639 187.381 339.426 187.183 339.416 186.93C339.406 186.677 339.604 186.464 339.857 186.454L355.358 185.855C355.611 185.845 355.825 186.042 355.835 186.296C355.845 186.549 355.647 186.762 355.394 186.772Z" fill="white"/>
<path d="M245.016 212.924C244.459 211.744 243.721 210.682 242.845 209.764L244.732 206.863L240.079 203.836L238.192 206.738C236.998 206.308 235.729 206.066 234.423 206.035L233.706 202.651L228.276 203.8L228.994 207.185C227.813 207.741 226.752 208.479 225.835 209.354L222.934 207.467L219.908 212.118L222.81 214.005C222.382 215.198 222.138 216.468 222.109 217.772L218.724 218.489L219.74 223.795L223.261 223.204C223.818 224.383 224.556 225.446 225.432 226.363L223.545 229.265L228.201 232.291L230.087 229.39C231.281 229.82 232.551 230.062 233.856 230.092L234.573 233.477L240.003 232.327L239.286 228.943C240.466 228.386 241.528 227.649 242.444 226.774L245.346 228.661L248.371 224.01L245.469 222.123C245.897 220.93 246.142 219.659 246.17 218.355L249.556 217.638L248.403 212.209L245.018 212.926L245.016 212.924ZM240.984 216.613C241.786 220.393 239.371 224.108 235.59 224.909C231.808 225.71 228.092 223.293 227.291 219.513C226.489 215.733 228.904 212.017 232.685 211.217C236.467 210.416 240.183 212.832 240.984 216.613Z" fill="white"/>
<path d="M257.284 236.434L207.528 238.358L228.216 199.135L229.713 196.294L230.742 194.345L257.284 236.434Z" fill="#B5B5B5"/>
<path d="M251.888 237.1L207.546 238.815C207.382 238.821 207.227 238.74 207.14 238.602C207.054 238.464 207.047 238.289 207.122 238.143L227.81 198.92C227.963 198.63 228.429 198.612 228.604 198.89L252.258 236.398C252.344 236.536 252.351 236.711 252.276 236.857C252.2 237.001 252.052 237.094 251.888 237.1ZM208.306 237.869L251.059 236.216L228.251 200.05L208.306 237.869Z" fill="#2C2C2C"/>
<path d="M262.1 193.816C259.211 193.928 256.257 193.514 253.364 192.508C247.343 190.416 242.497 186.108 239.719 180.374C236.942 174.64 236.567 168.171 238.662 162.155C242.986 149.738 256.618 143.147 269.048 147.465C275.069 149.557 279.915 153.867 282.692 159.599C285.47 165.333 285.845 171.802 283.75 177.818C280.433 187.347 271.632 193.446 262.1 193.814L262.1 193.816ZM260.347 147.074C251.181 147.428 242.72 153.291 239.528 162.456C237.514 168.24 237.875 174.463 240.546 179.974C243.216 185.486 247.877 189.63 253.666 191.642C265.621 195.796 278.726 189.458 282.884 177.517C284.898 171.733 284.537 165.51 281.866 159.999C279.196 154.485 274.535 150.343 268.746 148.331C265.968 147.366 263.124 146.966 260.347 147.074Z" fill="#B5B5B5"/>
<path d="M248.851 155.873C248.668 155.88 248.491 155.776 248.414 155.599C248.311 155.366 248.417 155.096 248.65 154.995L264.902 147.898C265.133 147.797 265.406 147.901 265.506 148.134C265.609 148.367 265.503 148.637 265.269 148.738L249.018 155.835C248.964 155.858 248.907 155.87 248.851 155.873Z" fill="#B5B5B5"/>
<path d="M240.115 165.784C239.928 165.791 239.75 165.683 239.674 165.501C239.578 165.268 239.688 165 239.923 164.904L272.817 151.318C273.05 151.221 273.319 151.331 273.415 151.567C273.511 151.8 273.401 152.068 273.166 152.164L240.272 165.751C240.221 165.771 240.167 165.784 240.115 165.786L240.115 165.784Z" fill="#B5B5B5"/>
<path d="M239.21 172.393C239.023 172.4 238.842 172.291 238.766 172.107C238.672 171.874 238.784 171.605 239.02 171.509L278.063 155.663C278.299 155.567 278.565 155.681 278.662 155.916C278.756 156.15 278.644 156.418 278.408 156.514L239.365 172.36C239.313 172.381 239.262 172.391 239.21 172.393Z" fill="#B5B5B5"/>
<path d="M241.308 178.692C241.121 178.699 240.94 178.59 240.865 178.406C240.77 178.173 240.883 177.904 241.118 177.808L281.173 161.551C281.407 161.455 281.675 161.569 281.772 161.804C281.866 162.038 281.754 162.306 281.518 162.402L241.463 178.659C241.412 178.68 241.36 178.69 241.308 178.692Z" fill="#B5B5B5"/>
<path d="M244.07 184.001C243.883 184.008 243.702 183.899 243.626 183.715C243.532 183.481 243.644 183.213 243.879 183.117L282.948 167.262C283.181 167.165 283.45 167.28 283.546 167.515C283.64 167.748 283.528 168.017 283.293 168.113L244.224 183.968C244.173 183.989 244.122 183.999 244.07 184.001Z" fill="#B5B5B5"/>
<path d="M248.862 188.649C248.675 188.656 248.494 188.547 248.418 188.363C248.324 188.129 248.436 187.861 248.672 187.765L282.987 173.837C283.22 173.74 283.489 173.855 283.585 174.09C283.68 174.323 283.567 174.592 283.332 174.688L249.016 188.616C248.965 188.636 248.914 188.647 248.862 188.649Z" fill="#B5B5B5"/>
<path d="M256.586 191.787C256.397 191.795 256.216 191.685 256.142 191.499C256.048 191.264 256.162 190.998 256.398 190.903L279.289 181.727C279.523 181.631 279.791 181.747 279.886 181.982C279.98 182.218 279.865 182.484 279.63 182.578L256.738 191.755C256.689 191.775 256.636 191.786 256.586 191.787Z" fill="#B5B5B5"/>
<path d="M143.807 379.92L118.126 375.406L125.768 331.629L151.447 336.141L143.807 379.92Z" fill="#FFE6DE"/>
<path d="M148.054 355.573L151.446 336.141L125.767 331.629L123.058 347.149L148.054 355.573Z" fill="#020202"/>
<path d="M116.152 397.907L187.257 395.158L187.23 388.416C187.074 384.378 183.978 381.071 179.969 380.663L168.766 379.519C166.987 379.336 165.283 378.71 163.81 377.692L157.678 374.266C152.882 371.588 149.457 366.982 148.266 361.609L147.918 360.041L117.621 361.212L116.152 397.907Z" fill="#B5B5B5"/>
<path d="M179.97 380.662L168.98 379.539L169.611 395.838L187.256 395.156L187.229 388.413C187.073 384.376 183.977 381.071 179.968 380.66L179.97 380.662Z" fill="white"/>
<path d="M129.846 395.852C127.161 386.54 120.33 382.814 116.82 381.477L116.082 396.062C115.685 396.077 129.848 395.854 129.848 395.854L129.846 395.852Z" fill="#020202"/>
<path d="M159.58 391.038C159.495 391.041 159.407 391.02 159.326 390.973C159.109 390.842 159.039 390.56 159.168 390.343L165.907 379.146C166.038 378.929 166.32 378.86 166.535 378.989C166.752 379.119 166.821 379.401 166.692 379.618L159.954 390.816C159.872 390.954 159.727 391.032 159.578 391.038L159.58 391.038Z" fill="black"/>
<path d="M154.25 381.916C154.093 381.922 153.936 381.847 153.845 381.705C153.708 381.492 153.772 381.209 153.985 381.072L161.13 376.513C161.343 376.376 161.626 376.44 161.763 376.653C161.9 376.866 161.836 377.149 161.623 377.286L154.478 381.845C154.407 381.889 154.329 381.913 154.25 381.916Z" fill="black"/>
<path d="M187.275 395.614L116.17 398.363C116.041 398.368 115.918 398.318 115.828 398.228C115.737 398.138 115.688 398.013 115.694 397.886L117.162 361.192C117.171 360.952 117.364 360.762 117.603 360.753L147.9 359.581C148.122 359.573 148.317 359.723 148.365 359.94L148.713 361.508C149.876 366.749 153.224 371.252 157.901 373.864L164.033 377.29C165.476 378.282 167.115 378.888 168.813 379.061L180.015 380.205C184.225 380.635 187.524 384.156 187.688 388.397L187.717 395.156C187.718 395.404 187.522 395.606 187.275 395.616L187.275 395.614ZM116.629 397.428L186.795 394.716L186.77 388.416C186.624 384.646 183.68 381.502 179.922 381.117L168.719 379.973C166.869 379.785 165.08 379.124 163.548 378.068L157.451 374.665C152.547 371.926 149.035 367.201 147.816 361.706L147.551 360.511L118.06 361.651L116.629 397.426L116.629 397.428Z" fill="black"/>
<path d="M112.896 396.147L113.284 406.938L134.506 406.118L134.359 402.296L150.125 401.686L150.273 405.508L192.445 403.878L192.028 393.09L112.896 396.147Z" fill="black"/>
<path d="M72.8105 353.004L55.1314 335.235L83.8634 306.484L101.543 324.256L72.8105 353.004Z" fill="#FFE6DE"/>
<path d="M88.5398 337.266L101.543 324.255L83.864 306.483L73.3156 317.04L88.5398 337.266Z" fill="#020202"/>
<path d="M86.7262 368.973C84.8794 368.814 83.149 368.008 81.8297 366.7L78.1138 360.906C77.3679 359.745 77.2636 358.284 77.8328 357.027L82.1949 347.416L60.7422 325.43L35.9319 350.179L66.2658 381.266C68.9967 384.065 72.7801 385.575 76.6822 385.425L100.53 386.18L100.487 385.084C99.9756 371.848 91.2273 369.36 86.7261 368.971L86.7262 368.973Z" fill="#B5B5B5"/>
<path d="M86.7255 368.973C86.6754 368.969 86.6272 368.958 86.5792 368.954L76.6816 385.427L76.692 385.426L100.522 386.008L100.487 385.086C99.975 371.85 91.2267 369.362 86.7255 368.973Z" fill="white"/>
<path d="M46.7997 361.317C48.4758 357.705 49.3487 353.654 49.1842 349.398C49.0726 346.512 48.3705 343.362 46.2541 339.886L35.9347 350.181L46.7997 361.317Z" fill="#020202"/>
<path d="M76.6831 385.426C72.781 385.577 68.9976 384.067 66.2667 381.267L33.401 347.581L26.3349 354.658L41.7228 370.08L44.9085 366.89L58.5283 380.852L55.4968 383.889L61.317 389.721C65.2526 393.663 70.6484 395.78 76.2057 395.565L105.542 394.431L105.151 384.324L76.6851 385.424L76.6831 385.426Z" fill="#020202"/>
<path d="M100.483 384.963C100.23 384.973 100.016 384.775 100.007 384.522C99.6632 375.637 95.0097 370.555 86.5477 369.823C85.9049 369.766 85.2697 369.637 84.6588 369.436C84.4186 369.356 84.288 369.097 84.3661 368.858C84.4442 368.618 84.7033 368.487 84.9454 368.565C85.4911 368.745 86.0571 368.861 86.6268 368.909C92.8956 369.453 100.465 372.595 100.925 384.487C100.934 384.74 100.737 384.953 100.483 384.963Z" fill="black"/>
<path d="M73.4897 378.887C73.3526 378.892 73.2132 378.835 73.1194 378.723C72.9579 378.527 72.9842 378.24 73.1776 378.076L84.4636 368.684C84.657 368.52 84.9471 368.546 85.1085 368.742C85.27 368.937 85.2437 369.225 85.0503 369.388L73.7643 378.781C73.6837 378.848 73.5873 378.883 73.4897 378.887Z" fill="black"/>
<path d="M70.1598 371.309C69.9812 371.316 69.8068 371.216 69.7274 371.045C69.6208 370.816 69.7183 370.542 69.9492 370.436L80.2618 365.613C80.4926 365.504 80.7647 365.604 80.8713 365.832C80.9779 366.061 80.8804 366.335 80.6495 366.442L70.3369 371.264C70.2797 371.292 70.2199 371.304 70.1597 371.307L70.1598 371.309Z" fill="black"/>
<path d="M123.296 224.531L91.1312 225.774L93.3713 283.721L71.8661 307.401L96.8008 333.053L116.018 310.937C122.547 303.422 125.969 293.691 125.584 283.729L123.296 224.531Z" fill="black"/>
<path d="M125.583 283.729L125.423 279.587C118.768 283.633 114.441 291.082 114.764 299.433C114.9 302.969 115.858 306.276 117.441 309.186C123.037 301.942 125.939 292.935 125.583 283.729Z" fill="#151515"/>
<path d="M143.69 236.273L142.937 216.798L110.064 218.068L110.721 235.044C110.968 241.453 112.898 247.683 116.315 253.106L134.415 281.831L120.628 338.416L152.911 343.867L166.024 289.088C167.939 281.092 166.552 272.661 162.182 265.705L143.69 236.271L143.69 236.273Z" fill="black"/>
<path d="M143.69 236.273L142.937 216.798L110.064 218.068L110.721 235.044C110.968 241.453 112.898 247.683 116.315 253.106L134.415 281.831L120.628 338.416L152.911 343.867L166.024 289.088C167.939 281.092 166.552 272.661 162.182 265.705L143.69 236.271L143.69 236.273Z" fill="black"/>
<path d="M160.637 263.248C157.885 267.111 156.337 271.882 156.534 276.995C156.795 283.751 160.045 289.681 164.955 293.564L166.026 289.09C167.94 281.094 166.554 272.663 162.183 265.707L160.639 263.248L160.637 263.248Z" fill="#151515"/>
<path d="M152.931 344.328C152.9 344.329 152.869 344.326 152.838 344.321L120.554 338.869C120.428 338.849 120.317 338.776 120.246 338.669C120.176 338.562 120.154 338.432 120.185 338.308L133.928 281.91L115.929 253.349C112.473 247.866 110.514 241.541 110.264 235.059L109.608 218.084C109.598 217.83 109.795 217.617 110.049 217.607L142.921 216.336C143.175 216.327 143.388 216.524 143.398 216.777L144.146 236.13L162.572 265.458C166.982 272.478 168.402 281.128 166.472 289.193L153.359 343.972C153.31 344.176 153.133 344.316 152.931 344.323L152.931 344.328ZM121.192 338.046L152.567 343.346L165.58 288.984C167.452 281.157 166.073 272.76 161.794 265.95L143.302 236.516C143.26 236.447 143.236 236.369 143.233 236.29L142.498 217.271L110.541 218.507L111.18 235.023C111.424 241.344 113.335 247.512 116.705 252.86L134.805 281.585C134.872 281.691 134.891 281.817 134.863 281.938L121.19 338.047L121.192 338.046Z" fill="black"/>
<path d="M142.318 200.795L90.2422 202.809L91.5135 235.695C98.4436 236.775 102.071 237.144 108.061 236.071C116.872 234.494 120.998 230.343 125.639 228.102C137.064 222.583 137.274 228.159 143.5 231.432L142.316 200.796L142.318 200.795Z" fill="black"/>
<path d="M115.118 154.972L107.096 155.282L107.548 166.993L115.571 166.683L115.118 154.972Z" fill="#FFE6DE"/>
<path d="M121.918 133.9L122.277 143.177C122.408 146.576 119.767 149.44 116.376 149.571L113.607 149.678L105.089 151.688L104.979 148.835C104.861 145.793 106.427 142.936 109.051 141.407L121.918 133.9Z" fill="black"/>
<path d="M113.015 160.252C116.513 159.562 118.73 155.859 117.964 151.981C117.199 148.103 113.742 145.517 110.243 146.207C106.745 146.896 104.529 150.599 105.294 154.478C106.059 158.356 109.516 160.941 113.015 160.252Z" fill="#FFE6DE"/>
<path d="M112.127 160.811C110.192 160.886 108.274 160.07 106.843 158.528C106.672 158.343 106.682 158.052 106.868 157.88C107.053 157.707 107.345 157.719 107.516 157.905C108.979 159.482 111.015 160.191 112.963 159.791C116.205 159.132 118.246 155.649 117.511 152.029C117.134 150.165 116.057 148.525 114.559 147.536C113.261 146.678 111.75 146.366 110.303 146.663C110.056 146.712 109.812 146.553 109.763 146.306C109.712 146.059 109.873 145.815 110.121 145.764C111.807 145.421 113.566 145.779 115.066 146.772C116.765 147.897 117.985 149.747 118.411 151.848C119.246 155.964 116.885 159.931 113.148 160.692C112.81 160.762 112.47 160.802 112.129 160.815L112.127 160.811Z" fill="black"/>
<path d="M105.1 155.318C106.244 158.996 109.708 161.33 113.197 160.618C116.687 159.907 118.968 156.403 118.589 152.569L105.1 155.316L105.1 155.318Z" fill="black"/>
<path d="M115.191 156.42C114.898 156.915 114.452 157.325 113.881 157.565C112.608 158.099 111.166 157.602 110.465 156.461L115.191 156.422L115.191 156.42Z" fill="white"/>
<path d="M111.156 144.744C107.663 144.879 104.951 148.128 105.101 152C105.115 152.348 105.151 152.69 105.209 153.022L109.187 149.834L117.297 149.521C116.406 146.656 114.022 144.635 111.156 144.746L111.156 144.744Z" fill="black"/>
<path d="M85.0781 217.793C91.7361 217.535 96.9242 211.913 96.6661 205.236C96.4079 198.558 90.8013 193.354 84.1433 193.611C77.4853 193.869 72.2972 199.49 72.5553 206.168C72.8134 212.845 78.4201 218.05 85.0781 217.793Z" fill="#FFE6DE"/>
<path d="M85.0959 218.249C78.195 218.515 72.364 213.103 72.0964 206.183C71.8289 199.263 77.2247 193.417 84.1257 193.15C91.0266 192.883 96.8576 198.296 97.1251 205.216C97.3927 212.136 91.9969 217.982 85.0959 218.249ZM84.1612 194.069C77.767 194.316 72.7665 199.736 73.0144 206.15C73.2624 212.563 78.6663 217.581 85.0605 217.334C91.4548 217.086 96.4552 211.667 96.2073 205.253C95.9594 198.839 90.5554 193.822 84.1612 194.069Z" fill="black"/>
<path d="M160.13 180.269L144.009 196.126L119.047 164.597L126.598 164.305C137.521 163.883 148.122 168.084 155.807 175.883L160.13 180.269Z" fill="#008BCE"/>
<path d="M76.4146 185.032L93.712 199.598L117.153 164.67L109.648 164.96C98.3216 165.398 87.7472 170.763 80.6846 179.653L76.4146 185.03L76.4146 185.032Z" fill="#008BCE"/>
<path d="M146.107 223.911L139.387 224.171L130.31 213.12L121.944 224.845L86.908 226.2L88.68 186.008C89.1855 174.551 98.3655 165.396 109.792 164.954L120.775 164.529C133.479 164.038 144.174 173.967 144.667 186.708L146.105 223.911L146.107 223.911Z" fill="#008BCE"/>
<path d="M141.135 191.543L130.842 183.743L88.2173 196.537L87.6395 209.62C93.8624 209.837 100.838 209.607 107.269 202.964C113.415 196.615 127.184 190.1 141.135 191.543Z" fill="black"/>
<path d="M155.809 175.882L130.004 183.413L136.714 189.656L157.476 179.359L155.809 175.882Z" fill="black"/>
<path d="M48.561 222.211L38.8629 198.865L187.433 136.814L197.131 160.158L48.561 222.211Z" fill="#B5B5B5"/>
<path d="M48.578 222.667C48.5136 222.669 48.4466 222.657 48.3853 222.632C48.2733 222.587 48.1825 222.497 48.1365 222.384L38.4385 199.04C38.3422 198.807 38.4524 198.539 38.6858 198.443L187.256 136.392C187.368 136.344 187.493 136.346 187.607 136.391C187.719 136.437 187.81 136.527 187.856 136.639L197.554 159.983C197.65 160.217 197.54 160.485 197.307 160.581L48.7367 222.631C48.6856 222.652 48.632 222.664 48.578 222.667ZM39.4604 199.111L48.8075 221.61L196.53 159.913L187.183 137.413L39.4604 199.111Z" fill="black"/>
<path d="M38.8792 199.323C38.6943 199.33 38.5134 199.223 38.4377 199.041C38.3393 198.808 38.4496 198.539 38.6849 198.441L187.255 136.391C187.488 136.292 187.756 136.403 187.855 136.638C187.953 136.871 187.843 137.139 187.608 137.237L39.038 199.288C38.9868 199.308 38.9311 199.321 38.8792 199.323Z" fill="black"/>
<path d="M41.305 205.16C41.1201 205.167 40.9392 205.06 40.8635 204.878C40.7651 204.645 40.8753 204.376 41.1107 204.278L189.681 142.228C189.914 142.129 190.182 142.239 190.281 142.475C190.379 142.708 190.269 142.976 190.034 143.074L41.4637 205.125C41.4125 205.145 41.3589 205.158 41.305 205.16Z" fill="black"/>
<path d="M43.7287 210.995C43.5439 211.002 43.363 210.895 43.2873 210.713C43.1889 210.48 43.2991 210.211 43.5345 210.113L192.104 148.063C192.338 147.966 192.606 148.075 192.705 148.31C192.803 148.543 192.693 148.811 192.457 148.909L43.8896 210.96C43.8384 210.98 43.7848 210.993 43.7308 210.995L43.7287 210.995Z" fill="black"/>
<path d="M46.1546 216.832C45.9697 216.839 45.7888 216.732 45.7131 216.549C45.6147 216.316 45.725 216.048 45.9603 215.95L194.53 153.9C194.763 153.801 195.032 153.911 195.13 154.146C195.229 154.38 195.119 154.648 194.883 154.746L46.3133 216.796C46.2622 216.817 46.2086 216.83 46.1546 216.832Z" fill="black"/>
<path d="M187.432 136.814L197.13 160.158L212.899 139.876L187.432 136.814Z" fill="white"/>
<path d="M205.299 138.962L208.193 145.928L212.898 139.875L205.299 138.962Z" fill="#B5B5B5"/>
<path d="M48.5596 222.21C42.1327 224.894 34.75 221.844 32.0736 215.398C29.3952 208.951 32.4347 201.55 38.8615 198.864C45.2885 196.18 52.6712 199.23 55.3476 205.676C58.026 212.123 54.9865 219.524 48.5596 222.21Z" fill="white"/>
<path d="M44.2103 223.638C42.3662 223.709 40.5109 223.384 38.7525 222.66C35.5168 221.329 32.9944 218.812 31.6485 215.576C28.8783 208.907 32.0337 201.223 38.6837 198.445C41.8992 197.101 45.445 197.093 48.6679 198.419C51.9036 199.75 54.426 202.267 55.772 205.505C58.5423 212.174 55.3868 219.858 48.7368 222.636C47.2755 223.247 45.7472 223.581 44.2104 223.64L44.2103 223.638ZM43.2454 198.354C41.8166 198.409 40.3956 198.72 39.0387 199.288C32.8533 201.871 29.9204 209.018 32.4958 215.222C33.7478 218.232 36.0928 220.573 39.1003 221.811C42.0951 223.044 45.3913 223.035 48.3816 221.787C54.567 219.204 57.4999 212.056 54.9245 205.853C53.6725 202.843 51.3275 200.502 48.3179 199.264C46.6842 198.591 44.9587 198.288 43.2454 198.354Z" fill="black"/>
<path d="M43.9355 216.352C47.1389 216.228 49.6351 213.524 49.511 210.312C49.3868 207.1 46.6893 204.596 43.4858 204.72C40.2824 204.844 37.7862 207.548 37.9104 210.76C38.0346 213.973 40.7321 216.476 43.9355 216.352Z" fill="#B5B5B5"/>
<path d="M197.149 160.616C197.124 160.617 197.097 160.616 197.069 160.613C196.908 160.59 196.769 160.486 196.707 160.334L187.009 136.99C186.947 136.839 186.97 136.668 187.066 136.537C187.165 136.407 187.323 136.338 187.486 136.359L212.953 139.42C213.118 139.439 213.258 139.546 213.322 139.699C213.386 139.852 213.361 140.026 213.26 140.157L197.491 160.441C197.408 160.548 197.282 160.613 197.147 160.619L197.149 160.616ZM188.157 137.364L197.252 159.255L212.04 140.233L188.157 137.364Z" fill="black"/>
<path d="M172.085 161.482L174.944 142.029L154.724 150.474L154.504 151.931C154.137 154.341 154.238 156.8 154.804 159.172L158.844 176.149L174.048 169.799L172.088 161.482L172.085 161.482Z" fill="black"/>
<path d="M152.284 144.117L156.941 144.83L157.997 137.874L159.273 138.069L159.577 136.071C159.827 134.428 158.701 132.892 157.061 132.642C155.42 132.392 153.892 133.521 153.641 135.164L152.28 144.119L152.284 144.117Z" fill="#FFE6DE"/>
<path d="M157.091 143.792L161.748 144.505L162.804 137.549L164.081 137.745L164.399 135.646C164.641 134.057 163.552 132.574 161.968 132.332L161.768 132.302C160.184 132.06 158.706 133.15 158.463 134.739L157.087 143.794L157.091 143.792Z" fill="#FFE6DE"/>
<path d="M161.544 145.811L166.202 146.525L167.257 139.568L168.534 139.764L168.852 137.665C169.094 136.077 168.005 134.594 166.421 134.351L166.221 134.322C164.637 134.08 163.159 135.17 162.916 136.758L161.54 145.814L161.544 145.811Z" fill="#FFE6DE"/>
<path d="M166.029 147.571L170.687 148.285L171.479 143.281L174.971 141.827L175.218 140.201C175.498 138.351 174.233 136.623 172.388 136.339L171.183 136.153C169.337 135.869 167.612 137.141 167.33 138.993L166.027 147.571L166.029 147.571Z" fill="#FFE6DE"/>
<path d="M151.191 158.549L155.466 152.32C155.466 152.32 153.459 144.902 153.006 143.087C152.902 142.798 152.686 140.772 150.711 138.473C150.657 138.435 149.054 136.12 146.18 136.842L146.106 136.861C144.903 137.164 144.438 138.634 145.252 139.573C146.214 140.683 146.982 141.435 147.383 143.042L151.194 158.553L151.191 158.549Z" fill="#FFE6DE"/>
<path d="M151.074 152.064C150.708 154.475 150.809 156.933 151.375 159.305L156.609 181.307L144.506 194.74L154.456 202.065C157.92 204.613 162.436 205.224 166.447 203.687L167.242 203.382C173.155 201.115 176.482 194.811 175.027 188.631L168.658 161.617L171.354 143.874L152.752 141.027L151.074 152.066L151.074 152.064Z" fill="#FFE6DE"/>
<path d="M157.156 143.943C157.127 143.944 157.097 143.943 157.068 143.938C156.817 143.9 156.646 143.665 156.684 143.417L158.014 134.669C158.15 133.778 158.623 132.993 159.349 132.46C160.071 131.929 160.955 131.71 161.842 131.848L162.043 131.88C163.453 132.096 164.577 133.185 164.839 134.59C164.886 134.837 164.72 135.078 164.473 135.123C164.223 135.172 163.983 135.005 163.939 134.757C163.747 133.736 162.93 132.943 161.905 132.785L161.704 132.753C161.062 132.658 160.419 132.813 159.895 133.199C159.368 133.588 159.024 134.158 158.924 134.808L157.594 143.556C157.561 143.778 157.374 143.936 157.16 143.945L157.156 143.943Z" fill="black"/>
<path d="M161.618 145.9C161.589 145.901 161.56 145.9 161.531 145.895C161.279 145.857 161.108 145.623 161.146 145.374L162.466 136.689C162.602 135.798 163.075 135.013 163.801 134.48C164.523 133.949 165.409 133.732 166.294 133.868L166.495 133.9C167.914 134.117 169.038 135.213 169.294 136.626C169.339 136.876 169.173 137.113 168.923 137.158C168.676 137.203 168.436 137.038 168.391 136.788C168.204 135.758 167.387 134.961 166.355 134.803L166.154 134.771C165.51 134.674 164.869 134.831 164.344 135.218C163.816 135.606 163.472 136.176 163.372 136.824L162.052 145.509C162.019 145.731 161.832 145.89 161.618 145.898L161.618 145.9Z" fill="black"/>
<path d="M151.292 151.208C151.263 151.209 151.234 151.208 151.205 151.203C150.954 151.165 150.783 150.931 150.821 150.682L153.19 135.092C153.329 134.174 153.818 133.366 154.564 132.817C155.309 132.271 156.219 132.047 157.131 132.186C157.943 132.311 158.687 132.72 159.223 133.342C159.388 133.533 159.368 133.823 159.175 133.988C158.984 134.153 158.694 134.133 158.528 133.94C158.134 133.484 157.588 133.183 156.992 133.091C156.322 132.991 155.653 133.154 155.107 133.555C154.556 133.959 154.197 134.554 154.094 135.23L151.725 150.819C151.692 151.041 151.504 151.2 151.29 151.208L151.292 151.208Z" fill="black"/>
<path d="M157.789 186.643C157.575 186.651 157.376 186.507 157.326 186.291L155.483 178.551C155.424 178.304 155.576 178.057 155.824 178C156.069 177.94 156.318 178.093 156.376 178.34L158.218 186.08C158.278 186.327 158.125 186.574 157.878 186.631C157.849 186.639 157.818 186.642 157.789 186.643Z" fill="black"/>
<path d="M162.445 204.968C159.521 205.081 156.609 204.204 154.174 202.399L144.273 195.062C144.17 194.985 144.104 194.869 144.09 194.741C144.077 194.612 144.12 194.484 144.206 194.389L156.107 181.18L150.927 159.411L149.136 151.972L146.936 143.149C146.601 141.807 146.005 141.128 145.18 140.189L144.902 139.871C144.414 139.308 144.258 138.548 144.482 137.837C144.706 137.128 145.27 136.595 145.991 136.415L146.065 136.396C148.716 135.73 150.415 137.391 151.024 138.137C151.035 138.149 151.018 138.131 150.977 138.101C151.007 138.123 151.033 138.147 151.057 138.175C151.972 139.241 152.651 140.395 153.072 141.609C153.156 141.849 153.029 142.109 152.789 142.191C152.549 142.275 152.288 142.148 152.204 141.908C151.82 140.809 151.203 139.759 150.369 138.783C150.35 138.763 150.332 138.741 150.313 138.717C149.695 137.959 148.351 136.769 146.287 137.285L146.213 137.304C145.805 137.407 145.484 137.709 145.356 138.113C145.228 138.519 145.318 138.951 145.594 139.271L145.868 139.585C146.708 140.543 147.435 141.369 147.824 142.928L150.024 151.753L151.815 159.196L157.05 181.2C157.085 181.346 157.045 181.501 156.946 181.613L145.219 194.626L154.715 201.663C158.073 204.15 162.405 204.743 166.301 203.25L167.072 202.954C172.747 200.777 175.971 194.666 174.573 188.735L168.204 161.721C168.192 161.663 168.19 161.605 168.198 161.547L171.018 143.213C171.044 143.056 171.149 142.922 171.296 142.86L174.551 141.506L174.76 140.134C175.001 138.537 173.906 137.04 172.313 136.794L171.108 136.608C170.338 136.49 169.57 136.678 168.941 137.138C168.31 137.603 167.895 138.284 167.778 139.062L166.526 147.306C166.488 147.557 166.255 147.728 166.004 147.69C165.753 147.652 165.582 147.417 165.62 147.169L166.872 138.924C167.026 137.907 167.569 137.009 168.399 136.401C169.224 135.795 170.237 135.546 171.248 135.703L172.453 135.889C174.543 136.209 175.986 138.175 175.665 140.272L175.418 141.898C175.395 142.057 175.29 142.19 175.141 142.252L171.886 143.606L169.117 161.597L175.463 188.524C176.966 194.899 173.497 201.469 167.396 203.81L166.625 204.106C165.26 204.628 163.847 204.914 162.435 204.968L162.445 204.968Z" fill="black"/>
<path d="M144.558 195.148C144.458 195.152 144.355 195.123 144.267 195.058L136.169 189.056C135.966 188.906 135.924 188.618 136.074 188.415C136.226 188.212 136.512 188.17 136.715 188.32L144.813 194.322C145.016 194.472 145.059 194.759 144.908 194.962C144.821 195.078 144.691 195.143 144.558 195.148Z" fill="black"/>
<path d="M112.019 112.443L83.1666 113.558L84.0468 136.329L63.6433 114.313L25.1844 115.8L23.3848 69.2461L110.219 65.8893L112.019 112.443Z" fill="#B5B5B5"/>
<path d="M50.3419 96.1748C52.8801 96.0767 54.8586 93.9496 54.7609 91.4239C54.6633 88.8982 52.5266 86.9303 49.9884 87.0284C47.4502 87.1265 45.4717 89.2535 45.5694 91.7793C45.667 94.305 47.8038 96.2729 50.3419 96.1748Z" fill="white"/>
<path d="M67.7072 95.5039C70.2454 95.4058 72.2238 93.2787 72.1262 90.753C72.0286 88.2273 69.8918 86.2594 67.3536 86.3575C64.8154 86.4556 62.837 88.5826 62.9346 91.1084C63.0322 93.6341 65.169 95.602 67.7072 95.5039Z" fill="white"/>
<path d="M85.0724 94.832C87.6106 94.7339 89.5891 92.6069 89.4914 90.0812C89.3938 87.5555 87.257 85.5875 84.7188 85.6856C82.1807 85.7837 80.2022 87.9108 80.2998 90.4365C80.3975 92.9622 82.5342 94.9301 85.0724 94.832Z" fill="white"/>
</g>
</g>
<defs>
<clipPath id="clip0_2445_16366">
<rect width="427" height="425" fill="white"/>
</clipPath>
<clipPath id="clip1_2445_16366">
<rect width="381" height="380" fill="white" transform="translate(13.8027 30.501) rotate(-2.21379)"/>
</clipPath>
</defs>
</svg>
