<svg width="427" height="425" viewBox="0 0 427 425" fill="none" xmlns="http://www.w3.org/2000/svg">
<g clip-path="url(#clip0_2447_10094)">
<path d="M400.041 382.57C388.531 392.16 338.441 398.94 278.761 401.49C187.021 405.42 72.6009 399.37 40.7909 378.2C25.7309 368.19 15.5509 337.25 9.1009 297.66C-6.9291 199.16 0.220901 47.1301 13.1609 30.6501C31.3109 7.56009 323.301 -15.3099 399.911 13.9301C432.741 26.4601 429.231 358.23 400.031 382.57H400.041Z" fill="white"/>
<path d="M373.314 247.44L375.204 241.883L377.358 247.44C377.358 247.44 381.657 248.14 381.712 248.531C381.757 248.913 377.595 250.095 377.595 250.095C377.595 250.095 375.85 255.488 375.204 254.27C374.568 253.051 373.95 250.35 373.95 250.35C373.95 250.35 368.533 249.268 368.533 248.731C368.533 248.158 373.314 247.449 373.314 247.449V247.44Z" fill="white"/>
<path d="M304.094 233.142L305.566 228.822L307.238 233.142C307.238 233.142 310.574 233.688 310.619 233.988C310.656 234.279 307.429 235.198 307.429 235.198C307.429 235.198 306.075 239.381 305.575 238.435C305.075 237.49 304.594 235.389 304.594 235.389C304.594 235.389 300.395 234.543 300.395 234.134C300.395 233.688 304.103 233.142 304.103 233.142H304.094Z" fill="white"/>
<g clip-path="url(#clip1_2447_10094)">
<path d="M134.418 273.586H238.836C245.663 273.586 251.197 268.053 251.197 261.227L251.197 50.707C251.197 43.8814 245.663 38.3482 238.836 38.3482L134.418 38.3482C127.592 38.3482 122.057 43.8814 122.057 50.707L122.057 261.227C122.057 268.053 127.592 273.586 134.418 273.586Z" fill="white"/>
<path d="M238.836 273.932H134.418C127.411 273.932 121.711 268.232 121.711 261.227V50.705C121.711 43.6986 127.412 38 134.418 38H238.836C245.844 38 251.543 43.7002 251.543 50.705V261.227C251.543 268.233 245.842 273.932 238.836 273.932ZM134.418 38.694C127.793 38.694 122.405 44.0826 122.405 50.705V261.227C122.405 267.851 127.795 273.238 134.418 273.238H238.836C245.461 273.238 250.849 267.849 250.849 261.227V50.705C250.849 44.081 245.46 38.694 238.836 38.694H134.418Z" fill="#3D3D3D"/>
<path d="M137.834 265.896H235.568C240.742 265.896 244.936 261.703 244.936 256.531L244.936 54.3109C244.936 49.1385 240.742 44.9454 235.568 44.9454H137.834C132.661 44.9454 128.467 49.1385 128.467 54.3109L128.467 256.531C128.467 261.703 132.661 265.896 137.834 265.896Z" fill="white"/>
<path d="M235.569 266.243H137.833C132.476 266.243 128.119 261.887 128.119 256.531V54.3094C128.119 48.9539 132.476 44.5977 137.833 44.5977H235.569C240.925 44.5977 245.282 48.9539 245.282 54.3094V256.531C245.282 261.887 240.925 266.243 235.569 266.243ZM137.834 45.2917C132.86 45.2917 128.815 49.3379 128.815 54.3094V256.531C128.815 261.504 132.862 265.549 137.834 265.549H235.57C240.544 265.549 244.59 261.503 244.59 256.531V54.3094C244.59 49.3363 240.543 45.2917 235.57 45.2917H137.834Z" fill="#3D3D3D"/>
<path d="M198.73 52.169H173.065C172.873 52.169 172.719 52.0132 172.719 51.8228C172.719 51.6324 172.875 51.4766 173.065 51.4766H198.73C198.922 51.4766 199.076 51.6324 199.076 51.8228C199.076 52.0132 198.92 52.169 198.73 52.169Z" fill="#3D3D3D"/>
<path d="M231.577 79.4062H141.678V169.289H231.577V79.4062Z" fill="#008BCE"/>
<path d="M215.771 109.331C215.771 99.8554 208.088 92.1738 198.61 92.1738H195.602C194.751 96.7629 190.731 100.238 185.895 100.238C181.06 100.238 177.038 96.7614 176.188 92.1738H173.18C163.702 92.1738 156.02 99.8554 156.02 109.331V123.279H166.637V156.521H205.154V123.279H215.771V109.331Z" fill="white"/>
<path d="M166.598 123.417C166.406 123.417 166.252 123.261 166.252 123.07V116.383C166.252 116.191 166.408 116.037 166.598 116.037C166.789 116.037 166.945 116.193 166.945 116.383V123.07C166.945 123.262 166.789 123.417 166.598 123.417Z" fill="#3D3D3D"/>
<path d="M205.159 123.764C204.967 123.764 204.812 123.608 204.812 123.417V116.384C204.812 116.192 204.968 116.038 205.159 116.038C205.349 116.038 205.505 116.194 205.505 116.384V123.417C205.505 123.609 205.349 123.764 205.159 123.764Z" fill="#3D3D3D"/>
<path d="M193.984 69.8262H141.678C141.486 69.8262 141.332 69.6704 141.332 69.48C141.332 69.2896 141.488 69.1338 141.678 69.1338H193.984C194.176 69.1338 194.33 69.2896 194.33 69.48C194.33 69.6704 194.174 69.8262 193.984 69.8262Z" fill="#3D3D3D"/>
<path d="M230.883 177.423H210.169C209.977 177.423 209.822 177.267 209.822 177.077C209.822 176.886 209.978 176.73 210.169 176.73H230.883C231.075 176.73 231.229 176.886 231.229 177.077C231.229 177.267 231.074 177.423 230.883 177.423Z" fill="#3D3D3D"/>
<path d="M209.634 226.404C209.634 221.286 205.485 217.138 200.366 217.138H173.586C168.468 217.138 164.318 221.286 164.318 226.404C164.318 231.522 168.468 235.67 173.586 235.67H200.366C205.485 235.67 209.634 231.522 209.634 226.404Z" fill="#A0D2F4"/>
<path d="M193.984 191.774H141.678C141.486 191.774 141.332 191.618 141.332 191.427C141.332 191.237 141.488 191.081 141.678 191.081H193.984C194.176 191.081 194.33 191.237 194.33 191.427C194.33 191.618 194.174 191.774 193.984 191.774Z" fill="#3D3D3D"/>
<path d="M134.877 247.848V191.631H22.0836V247.848H134.877Z" fill="white"/>
<path d="M134.876 248.195H22.0826C21.8906 248.195 21.7363 248.039 21.7363 247.849V191.632C21.7363 191.44 21.8922 191.286 22.0826 191.286H134.876C135.068 191.286 135.222 191.442 135.222 191.632V247.849C135.222 248.041 135.066 248.195 134.876 248.195ZM22.4289 247.501H134.528V191.979H22.4289V247.501Z" fill="#3D3D3D"/>
<path d="M126.163 233.323H30.7975C30.6054 233.323 30.4512 233.168 30.4512 232.977C30.4512 232.787 30.607 232.631 30.7975 232.631H126.161C126.353 232.631 126.508 232.787 126.508 232.977C126.508 233.168 126.352 233.323 126.161 233.323H126.163Z" fill="#3D3D3D"/>
<path d="M114.684 234.173C115.344 232.579 114.587 230.751 112.993 230.091C111.399 229.431 109.571 230.188 108.911 231.782C108.25 233.376 109.007 235.203 110.601 235.863C112.196 236.524 114.023 235.767 114.684 234.173Z" fill="white"/>
<path d="M111.797 236.447C109.883 236.447 108.326 234.891 108.326 232.977C108.326 231.063 109.883 229.507 111.797 229.507C113.711 229.507 115.268 231.063 115.268 232.977C115.268 234.891 113.711 236.447 111.797 236.447ZM111.797 230.199C110.265 230.199 109.02 231.444 109.02 232.975C109.02 234.507 110.265 235.752 111.797 235.752C113.329 235.752 114.574 234.507 114.574 232.975C114.574 231.444 113.329 230.199 111.797 230.199Z" fill="#3D3D3D"/>
<path d="M126.163 219.844H30.7975C30.6054 219.844 30.4512 219.688 30.4512 219.498C30.4512 219.307 30.607 219.151 30.7975 219.151H126.161C126.353 219.151 126.508 219.307 126.508 219.498C126.508 219.688 126.352 219.844 126.161 219.844H126.163Z" fill="#3D3D3D"/>
<path d="M47.6772 222.539C49.4028 222.539 50.8017 221.14 50.8017 219.415C50.8017 217.69 49.4028 216.291 47.6772 216.291C45.9516 216.291 44.5527 217.69 44.5527 219.415C44.5527 221.14 45.9516 222.539 47.6772 222.539Z" fill="white"/>
<path d="M47.6778 222.885C45.7638 222.885 44.207 221.328 44.207 219.414C44.207 217.501 45.7638 215.944 47.6778 215.944C49.5919 215.944 51.1486 217.501 51.1486 219.414C51.1486 221.328 49.5919 222.885 47.6778 222.885ZM47.6778 216.638C46.1463 216.638 44.9012 217.883 44.9012 219.414C44.9012 220.946 46.1463 222.191 47.6778 222.191C49.2094 222.191 50.4544 220.946 50.4544 219.414C50.4544 217.883 49.2094 216.638 47.6778 216.638Z" fill="#3D3D3D"/>
<path d="M126.163 206.362H30.7975C30.6054 206.362 30.4512 206.207 30.4512 206.016C30.4512 205.826 30.607 205.67 30.7975 205.67H126.161C126.353 205.67 126.508 205.826 126.508 206.016C126.508 206.207 126.352 206.362 126.161 206.362H126.163Z" fill="#3D3D3D"/>
<path d="M89.4638 206.439C89.7403 204.736 88.5836 203.131 86.8803 202.855C85.177 202.578 83.572 203.735 83.2955 205.438C83.0191 207.141 84.1757 208.746 85.8791 209.022C87.5824 209.298 89.1873 208.142 89.4638 206.439Z" fill="white"/>
<path d="M86.377 209.405C84.463 209.405 82.9062 207.849 82.9062 205.935C82.9062 204.021 84.463 202.465 86.377 202.465C88.2911 202.465 89.8478 204.021 89.8478 205.935C89.8478 207.849 88.2911 209.405 86.377 209.405ZM86.377 203.157C84.8455 203.157 83.6004 204.402 83.6004 205.933C83.6004 207.465 84.8455 208.71 86.377 208.71C87.9086 208.71 89.1537 207.465 89.1537 205.933C89.1537 204.402 87.9086 203.157 86.377 203.157Z" fill="#3D3D3D"/>
<path d="M100.732 363.892L109.256 391.695H28.4914L28.0664 382.604L100.732 363.892Z" fill="#3D3D3D"/>
<path d="M109.093 391.999C108.943 391.999 108.803 391.9 108.759 391.749L101.455 366.69C101.402 366.506 101.507 366.314 101.691 366.26C101.876 366.207 102.068 366.312 102.121 366.496L109.425 391.555C109.478 391.739 109.373 391.931 109.189 391.985C109.156 391.994 109.124 391.999 109.091 391.999H109.093Z" fill="#3D3D3D"/>
<path d="M79.884 241.868C81.3526 239.662 82.5631 236.934 81.7225 234.42C80.8348 231.765 77.4868 230.251 74.9069 231.335C75.993 229.443 76.8745 227.434 77.5293 225.353C70.4681 225.15 63.2038 226.396 57.1642 230.062C51.1246 233.727 46.4748 240.049 45.916 247.09C45.6831 250.019 46.1978 253.111 47.9434 255.475C49.7772 257.957 52.749 259.364 55.7428 260.111C59.6417 261.085 63.9405 261.057 67.4931 259.178C69.8904 257.91 71.8469 255.698 72.6938 253.11C72.9094 252.452 73.0511 251.769 73.1062 251.079C73.1455 250.582 72.8937 249.665 73.0841 249.226C73.3124 248.705 74.282 248.187 74.7101 247.808C75.3193 247.268 75.9064 246.703 76.4715 246.116C77.7323 244.805 78.8751 243.382 79.884 241.867V241.868Z" fill="#151515"/>
<path d="M73.3639 242.18C73.2757 242.18 73.1876 242.147 73.1199 242.079C72.9845 241.944 72.983 241.725 73.1183 241.588C74.5916 240.102 75.6809 238.256 76.2711 236.248C76.3247 236.064 76.5183 235.959 76.7024 236.014C76.8866 236.067 76.9921 236.261 76.937 236.445C76.3152 238.562 75.1662 240.51 73.6126 242.077C73.5449 242.145 73.4552 242.18 73.3654 242.18H73.3639Z" fill="#151515"/>
<path d="M72.7165 280.281L68.7656 279.852L69.8076 266.366C69.8076 266.366 66.5257 249.931 53.8829 262.203L51.5675 280.513L47.8496 280.98C47.8496 280.98 49.356 289.519 59.9667 289.497C68.9797 289.477 72.8739 286.436 72.7149 280.281H72.7165Z" fill="#F4EAE2"/>
<path d="M49.3556 281.137C49.184 281.137 49.0345 281.009 49.0125 280.833C48.9889 280.642 49.1227 280.469 49.3131 280.446L51.2571 280.202L53.5394 262.16C53.5489 262.081 53.5851 262.009 53.6418 261.955C57.5769 258.134 61.0524 256.658 63.9691 257.565C68.644 259.019 70.089 266.002 70.1488 266.299C70.1551 266.33 70.1567 266.362 70.1551 266.393L69.1399 279.544L71.1342 279.761C71.3246 279.781 71.4616 279.953 71.4411 280.143C71.4207 280.334 71.2507 280.469 71.0586 280.45L68.7306 280.197C68.5449 280.177 68.4079 280.013 68.4221 279.826L69.4594 266.39C69.3287 265.794 67.8617 259.5 63.7629 258.227C61.1295 257.409 57.9153 258.803 54.2147 262.369L51.915 280.557C51.8946 280.715 51.7718 280.838 51.6144 280.858L49.4044 281.137C49.3902 281.138 49.3745 281.14 49.3603 281.14L49.3556 281.137Z" fill="#3D3D3D"/>
<path d="M59.7347 262.832C61.6283 264.456 63.8839 265.712 66.3347 266.176C68.7855 266.641 71.4393 266.263 73.5187 264.883C76.9973 262.576 78.2597 257.894 77.6443 253.764C77.0288 249.635 74.8834 245.916 72.749 242.329C72.749 242.329 64.6048 248.571 57.1233 249.578C56.171 252.005 56.0609 254.373 56.6118 256.696C56.6118 256.696 54.9496 255.187 53.4243 256.183C51.7747 257.259 51.1105 259.581 51.9054 261.381C52.7003 263.183 54.7623 264.29 56.722 264.096C57.8285 263.987 58.8454 263.772 59.7363 262.831L59.7347 262.832Z" fill="#F4EAE2"/>
<path d="M68.3405 266.713C67.6558 266.713 66.9616 266.648 66.2706 266.518C64.0339 266.094 61.7862 264.983 59.7525 263.301C58.7923 264.173 57.7078 264.349 56.7555 264.444C54.6006 264.656 52.4284 263.428 51.5879 261.524C50.7269 259.574 51.4667 257.048 53.2343 255.895C54.3047 255.196 55.4018 255.544 56.1023 255.928C55.7371 253.74 55.9716 251.567 56.7996 249.455C56.8452 249.338 56.9522 249.255 57.0766 249.238C64.3818 248.254 72.4566 242.12 72.5369 242.057C72.6156 241.997 72.7148 241.972 72.814 241.991C72.9116 242.009 72.9965 242.069 73.0469 242.154C74.9594 245.366 77.3394 249.364 77.9879 253.715C78.6978 258.481 77.0182 262.978 73.7112 265.174C72.1891 266.184 70.3049 266.714 68.3405 266.714V266.713ZM59.7352 262.486C59.8154 262.486 59.8957 262.514 59.9603 262.569C61.9656 264.288 64.1913 265.418 66.3997 265.836C68.8993 266.31 71.4241 265.857 73.3271 264.595C76.8341 262.267 77.8509 257.505 77.3016 253.816C76.6956 249.746 74.4919 245.941 72.6487 242.839C71.0809 243.991 64.0654 248.914 57.3741 249.894C56.5414 252.115 56.4029 254.315 56.9491 256.617C56.9837 256.765 56.9192 256.919 56.7885 256.996C56.6579 257.074 56.491 257.056 56.3793 256.954C56.3195 256.9 54.895 255.64 53.6153 256.474C52.1183 257.451 51.495 259.59 52.2238 261.242C52.9463 262.881 54.8241 263.935 56.6878 263.751C57.8447 263.636 58.7168 263.403 59.4833 262.593C59.551 262.52 59.6439 262.484 59.7352 262.484V262.486Z" fill="#3D3D3D"/>
<path d="M58.1671 260.98C58.1419 260.98 58.1151 260.977 58.0884 260.97C57.1046 260.744 56.168 260.361 55.3054 259.839C55.1417 259.74 55.0898 259.526 55.189 259.362C55.2881 259.198 55.5022 259.146 55.6659 259.246C56.4655 259.73 57.3328 260.084 58.2442 260.295C58.4315 260.338 58.548 260.525 58.5039 260.711C58.4677 260.871 58.3245 260.98 58.1655 260.98H58.1671Z" fill="#3D3D3D"/>
<path d="M97.7897 322.191C97.7897 322.191 139.645 348.522 152.672 302.502C145.877 298.613 137.811 293.234 135.592 283.978C135.592 283.978 129.678 296.962 123 294.398C106.789 288.176 94.2654 281.5 72.7386 280.057C72.3136 281.416 71.7045 282.732 70.8025 283.843C69.0601 285.985 66.2771 287.165 63.6076 287.59C61.0434 287.998 58.3455 287.859 55.8428 287.162C53.5919 286.534 51.3976 285.395 49.7323 283.736C48.9673 282.973 48.3424 282.106 47.8702 281.163C32.3123 282.4 22.5154 284.285 14.2972 294.318C3.70545 307.247 -5.12183 331.569 -2.54983 346.925C0.0221663 362.28 7.08179 367.033 16.0932 369.99L15.6997 378.295C15.2621 387.493 24.3633 394.152 33.0001 390.952L104.95 364.302C108.451 363.005 110.284 359.161 109.09 355.626L97.7912 322.194L97.7897 322.191Z" fill="#008BCE"/>
<path d="M97.6211 321.874C97.4763 321.874 97.341 321.782 97.2922 321.636L95.3561 315.843C95.2947 315.662 95.3939 315.465 95.5749 315.404C95.7559 315.343 95.9527 315.442 96.014 315.623L97.9501 321.416C98.0115 321.598 97.9124 321.793 97.7313 321.855C97.6951 321.867 97.6574 321.874 97.6211 321.874Z" fill="#3D3D3D"/>
<path d="M134.878 285.825C139.682 273.829 143.335 261.227 150.269 250.323C150.879 249.363 151.547 248.385 152.526 247.806C153.505 247.227 154.884 247.164 155.696 247.962C156.518 248.769 156.482 250.09 156.315 251.229C155.789 254.811 154.467 258.89 152.581 261.98C152.581 261.98 157.448 260.486 159.274 264.863C159.274 264.863 162.178 264.048 163.456 269.787C163.456 269.787 166.921 273.092 164.399 277.093C162.586 279.969 160.565 280.152 160.565 280.152C160.565 280.152 157.128 295.216 153.267 301.673C149.408 308.132 132.29 292.284 134.876 285.825H134.878Z" fill="#F4EAE2"/>
<path d="M152.889 302.537C152.834 302.537 152.777 302.523 152.723 302.494C152.555 302.403 152.492 302.192 152.583 302.024C155.316 296.974 156.547 292.542 157.85 287.85C158.546 285.343 159.265 282.753 160.238 280.032C160.274 279.931 160.356 279.851 160.458 279.818C165.218 278.277 164.974 274.275 164.971 274.234C165.028 271.792 163.235 270.053 163.216 270.035C163.166 269.988 163.131 269.927 163.117 269.859C162.495 267.066 161.494 265.947 160.762 265.5C160.003 265.035 159.39 265.188 159.364 265.194C159.197 265.238 159.02 265.152 158.954 264.993C157.272 260.964 152.868 262.251 152.681 262.308C152.544 262.349 152.394 262.302 152.305 262.189C152.217 262.075 152.207 261.918 152.283 261.795C154.038 258.918 155.415 254.948 155.969 251.174C156.104 250.25 156.199 248.939 155.451 248.204C154.737 247.502 153.501 247.626 152.701 248.1C151.793 248.637 151.17 249.543 150.559 250.505C145.418 258.592 141.738 268.488 138.179 278.06C137.158 280.806 136.194 283.4 135.198 285.948C135.129 286.126 134.927 286.215 134.748 286.144C134.57 286.075 134.482 285.874 134.551 285.694C135.546 283.151 136.509 280.561 137.528 277.818C141.099 268.213 144.792 258.281 149.972 250.132C150.603 249.139 151.307 248.117 152.346 247.502C153.394 246.882 154.963 246.755 155.936 247.708C156.909 248.664 156.811 250.2 156.654 251.273C156.13 254.847 154.88 258.597 153.268 261.479C154.759 261.257 157.965 261.213 159.482 264.477C159.827 264.453 160.428 264.491 161.094 264.889C162.32 265.622 163.221 267.21 163.77 269.607C164.146 269.996 165.72 271.773 165.662 274.214C165.665 274.225 165.938 278.674 160.833 280.421C159.898 283.06 159.196 285.586 158.517 288.031C157.203 292.762 155.963 297.23 153.192 302.35C153.13 302.466 153.01 302.531 152.887 302.531L152.889 302.537Z" fill="#3D3D3D"/>
<path d="M155.594 278.594C155.41 278.594 155.227 278.576 155.048 278.542C154.308 278.397 153.622 277.868 153.254 277.158C152.931 276.537 152.895 275.879 153.153 275.305C153.232 275.13 153.438 275.051 153.611 275.13C153.786 275.209 153.864 275.413 153.786 275.588C153.617 275.966 153.647 276.409 153.869 276.839C154.141 277.365 154.644 277.755 155.18 277.86C156.299 278.079 157.415 277.361 158.023 276.554C158.717 275.632 159.038 274.436 159.281 273.282C159.6 271.762 159.929 269.763 159.64 267.787C159.539 267.099 159.361 266.438 159.112 265.821C159.04 265.643 159.126 265.442 159.304 265.369C159.484 265.297 159.684 265.384 159.756 265.561C160.025 266.23 160.217 266.945 160.326 267.688C160.631 269.773 160.291 271.85 159.959 273.427C159.701 274.659 159.353 275.942 158.577 276.974C157.806 277.997 156.68 278.597 155.593 278.597L155.594 278.594Z" fill="#3D3D3D"/>
<path d="M146.748 280.12C146.303 280.12 145.863 279.997 145.487 279.71C145.335 279.594 145.305 279.377 145.42 279.224C145.534 279.072 145.752 279.042 145.906 279.157C146.647 279.717 147.831 279.328 148.473 278.614C149.074 277.943 149.391 277.032 149.696 276.151C149.75 275.995 149.805 275.839 149.86 275.683C150.228 274.66 150.795 273.406 151.922 272.775C152.558 272.419 153.271 272.317 153.962 272.218C154.672 272.115 155.341 272.019 155.881 271.662C156.397 271.321 156.728 270.742 156.809 270.032C156.915 269.122 156.606 268.159 156.005 267.52C154.672 266.105 152.523 266.017 151.363 266.091C149.238 266.225 147.195 266.943 145.453 268.165C145.295 268.275 145.08 268.238 144.969 268.08C144.859 267.923 144.897 267.707 145.054 267.597C146.901 266.302 149.068 265.542 151.319 265.399C152.602 265.317 154.983 265.422 156.51 267.045C157.249 267.829 157.628 269.004 157.499 270.112C157.392 271.028 156.954 271.785 156.263 272.241C155.593 272.684 154.813 272.797 154.059 272.904C153.403 272.998 152.784 273.087 152.26 273.379C151.333 273.897 150.839 275.008 150.513 275.918C150.458 276.07 150.405 276.223 150.351 276.377C150.022 277.323 149.682 278.302 148.988 279.076C148.439 279.688 147.578 280.118 146.746 280.118L146.748 280.12Z" fill="#3D3D3D"/>
<path d="M158.101 280.072C157.181 280.072 156.315 279.589 155.921 278.844C155.832 278.674 155.896 278.465 156.066 278.375C156.235 278.285 156.445 278.35 156.535 278.52C156.823 279.063 157.486 279.408 158.186 279.376C158.822 279.348 159.483 279.035 160.047 278.495C160.603 277.963 161.012 277.274 161.339 276.671C162.436 274.645 162.979 272.831 163 271.122C163.001 270.93 163.152 270.771 163.351 270.779C163.543 270.782 163.696 270.938 163.694 271.13C163.672 272.955 163.102 274.875 161.948 277.001C161.596 277.653 161.15 278.399 160.525 278.997C159.839 279.653 159.019 280.034 158.215 280.07C158.177 280.072 158.138 280.073 158.1 280.073L158.101 280.072Z" fill="#3D3D3D"/>
<path d="M160.36 280.354C160.323 280.354 160.283 280.348 160.246 280.335C159.874 280.206 159.536 280.011 159.24 279.755C159.095 279.629 159.078 279.41 159.204 279.265C159.329 279.12 159.548 279.103 159.693 279.229C159.921 279.426 160.19 279.581 160.475 279.681C160.656 279.744 160.752 279.942 160.689 280.123C160.639 280.266 160.505 280.356 160.362 280.356L160.36 280.354Z" fill="#3D3D3D"/>
<path d="M98.886 297.226H62.6246C62.1068 297.226 61.6503 297.566 61.5023 298.063L47.7246 344.472C47.5027 345.222 48.0646 345.975 48.8469 345.975H85.1084C85.6262 345.975 86.0827 345.635 86.2307 345.137L100.007 298.729C100.23 297.978 99.6668 297.226 98.8845 297.226H98.886Z" fill="#3D3D3D"/>
<path d="M80.2664 333.369C81.8248 331.867 82.7755 330.235 81.7807 328.638C80.7859 327.039 78.2847 326.666 76.8665 327.906C77.9164 327.08 78.9962 326.219 79.6353 325.045C80.2743 323.871 80.3609 322.288 79.4794 321.282C78.705 320.398 77.3781 320.177 76.2306 320.432C75.6639 320.558 75.1303 320.78 74.6172 321.051C75.1162 320.303 75.2515 319.247 74.8297 318.429C74.1103 317.033 72.3505 316.438 70.7907 316.613C69.2308 316.789 67.8157 317.577 66.4479 318.35C57.2979 323.501 39.2183 333.962 39.2183 333.962C38.743 336.565 48.2691 357.518 51.8737 361.018C54.2065 360.318 71.6847 346.316 78.3083 340.636C79.4196 339.684 80.5624 338.675 81.1259 337.325C81.6894 335.975 81.4816 334.182 80.2649 333.369H80.2664Z" fill="#F4EAE2"/>
<path d="M63.8849 328.347C63.7684 328.347 63.6551 328.289 63.589 328.182C63.4882 328.018 63.5386 327.805 63.7023 327.705C67.0456 325.648 70.3936 323.496 73.6519 321.312C73.8109 321.205 74.0265 321.247 74.1335 321.406C74.2406 321.565 74.1981 321.781 74.0391 321.888C70.7729 324.079 67.4171 326.233 64.0675 328.295C64.0108 328.329 63.9479 328.347 63.8865 328.347H63.8849Z" fill="#3D3D3D"/>
<path d="M68.1217 334.621C68.0131 334.621 67.9076 334.571 67.8384 334.476C67.7266 334.321 67.7628 334.103 67.9186 333.992L76.5539 327.818C76.7097 327.706 76.9269 327.742 77.0387 327.898C77.1504 328.054 77.1143 328.271 76.9584 328.383L68.3232 334.557C68.2618 334.601 68.1909 334.621 68.1217 334.621Z" fill="#3D3D3D"/>
<path d="M72.1718 339.768C72.0601 339.768 71.9515 339.714 71.8838 339.615C71.7768 339.456 71.8177 339.241 71.9767 339.134C74.5975 337.362 77.1632 335.445 79.6045 333.438C79.7525 333.317 79.9713 333.338 80.0925 333.485C80.2137 333.633 80.1932 333.852 80.0453 333.973C77.5866 335.993 75.0036 337.922 72.3654 339.707C72.3056 339.748 72.238 339.766 72.1718 339.766V339.768Z" fill="#3D3D3D"/>
<path d="M24.2145 371.428C21.7526 371.428 19.2877 371.233 16.84 370.834C16.6511 370.805 16.5221 370.625 16.5536 370.436C16.5835 370.247 16.7629 370.117 16.9518 370.15C29.02 372.112 41.5904 369.083 51.4408 361.839C51.5951 361.726 51.8123 361.759 51.9256 361.913C52.039 362.067 52.0059 362.284 51.8517 362.398C43.8508 368.283 34.0775 371.429 24.2145 371.429V371.428Z" fill="#3D3D3D"/>
<path d="M18.8083 346.159C18.6887 346.159 18.5722 346.096 18.5076 345.986C18.4116 345.821 18.4683 345.609 18.6351 345.513L38.0385 334.303C38.2037 334.207 38.4162 334.263 38.5123 334.43C38.6083 334.595 38.5516 334.808 38.3848 334.904L18.9814 346.114C18.9263 346.145 18.8665 346.161 18.8083 346.161V346.159Z" fill="#3D3D3D"/>
<path d="M25.0227 341.184C24.9991 341.184 24.9755 341.183 24.9534 341.176C24.7661 341.139 24.6449 340.955 24.6827 340.767L29.9054 315.294C29.9432 315.107 30.1289 314.986 30.3146 315.023C30.5019 315.061 30.6231 315.245 30.5854 315.433L25.3627 340.906C25.3296 341.069 25.1848 341.183 25.0227 341.183V341.184Z" fill="#3D3D3D"/>
<path d="M50.7818 166.78C63.8191 166.78 74.3879 156.213 74.3879 143.178C74.3879 130.143 63.8191 119.576 50.7818 119.576C37.7446 119.576 27.1758 130.143 27.1758 143.178C27.1758 156.213 37.7446 166.78 50.7818 166.78Z" fill="#A0D2F4"/>
<path d="M50.7824 167.126C37.5746 167.126 26.8301 156.383 26.8301 143.178C26.8301 129.972 37.5746 119.229 50.7824 119.229C63.9903 119.229 74.7348 129.972 74.7348 143.178C74.7348 156.383 63.9903 167.126 50.7824 167.126ZM50.7824 119.922C37.957 119.922 27.5242 130.354 27.5242 143.176C27.5242 155.997 37.9586 166.43 50.7824 166.43C63.6062 166.43 74.0406 155.997 74.0406 143.176C74.0406 130.354 63.6062 119.922 50.7824 119.922Z" fill="#3D3D3D"/>
<path d="M56.9303 166.78C69.9675 166.78 80.5363 156.213 80.5363 143.178C80.5363 130.143 69.9675 119.576 56.9303 119.576C43.893 119.576 33.3242 130.143 33.3242 143.178C33.3242 156.213 43.893 166.78 56.9303 166.78Z" fill="#A0D2F4"/>
<path d="M56.9309 167.126C43.723 167.126 32.9785 156.383 32.9785 143.178C32.9785 129.972 43.723 119.229 56.9309 119.229C70.1387 119.229 80.8832 129.972 80.8832 143.178C80.8832 156.383 70.1387 167.126 56.9309 167.126ZM56.9309 119.922C44.1055 119.922 33.6727 130.354 33.6727 143.176C33.6727 155.997 44.1071 166.43 56.9309 166.43C69.7547 166.43 80.189 155.997 80.189 143.176C80.189 130.354 69.7547 119.922 56.9309 119.922Z" fill="#3D3D3D"/>
<path d="M62.8697 166.78C75.907 166.78 86.4758 156.213 86.4758 143.178C86.4758 130.143 75.907 119.576 62.8697 119.576C49.8325 119.576 39.2637 130.143 39.2637 143.178C39.2637 156.213 49.8325 166.78 62.8697 166.78Z" fill="#A0D2F4"/>
<path d="M62.8703 167.126C49.6624 167.126 38.918 156.383 38.918 143.178C38.918 129.972 49.6624 119.229 62.8703 119.229C76.0782 119.229 86.8227 129.972 86.8227 143.178C86.8227 156.383 76.0782 167.126 62.8703 167.126ZM62.8703 119.922C50.0449 119.922 39.6121 130.354 39.6121 143.176C39.6121 155.997 50.0465 166.43 62.8703 166.43C75.6941 166.43 86.1285 155.997 86.1285 143.176C86.1285 130.354 75.6941 119.922 62.8703 119.922Z" fill="#3D3D3D"/>
<path d="M75.9926 156.297C83.24 149.051 83.24 137.303 75.9926 130.057C68.7452 122.81 56.9949 122.81 49.7475 130.057C42.5002 137.303 42.5002 149.051 49.7475 156.297C56.9949 163.543 68.7452 163.543 75.9926 156.297Z" fill="#A0D2F4"/>
<path d="M62.8708 162.079C52.4458 162.079 43.9648 153.599 43.9648 143.176C43.9648 132.753 52.4458 124.273 62.8708 124.273C73.2957 124.273 81.7767 132.753 81.7767 143.176C81.7767 153.599 73.2957 162.079 62.8708 162.079ZM62.8708 124.969C52.8283 124.969 44.659 133.137 44.659 143.178C44.659 153.218 52.8283 161.386 62.8708 161.386C72.9132 161.386 81.0826 153.218 81.0826 143.178C81.0826 133.137 72.9132 124.969 62.8708 124.969Z" fill="#3D3D3D"/>
<path d="M67.8683 145.303C67.6794 144.831 67.3898 144.396 67.0073 144.014C66.6264 143.633 66.1384 143.292 65.5576 143.002C64.983 142.716 64.1457 142.382 63.069 142.012C62.0018 141.645 61.1628 141.277 60.5757 140.915C59.9949 140.558 59.5762 140.157 59.3275 139.721C59.0804 139.286 58.9544 138.684 58.9544 137.93C58.9544 136.872 59.3322 135.997 60.0799 135.331C60.8291 134.663 61.8428 134.324 63.0926 134.324C64.3424 134.324 65.4065 134.727 66.1478 135.522C66.8892 136.318 67.267 137.387 67.267 138.698C67.267 138.74 67.3016 138.776 67.3457 138.776H67.9832C68.0257 138.776 68.0619 138.742 68.0619 138.698C68.0619 137.159 67.6574 135.923 66.8609 135.028C66.077 134.145 64.9547 133.652 63.527 133.559V131.425C63.527 131.383 63.4924 131.347 63.4483 131.347H62.7983C62.7558 131.347 62.7196 131.381 62.7196 131.425V133.558C61.3863 133.618 60.2877 134.039 59.4503 134.809C58.5955 135.596 58.1611 136.653 58.1611 137.953C58.1611 138.75 58.3091 139.437 58.6003 139.996C58.8915 140.556 59.3479 141.052 59.954 141.471C60.5552 141.886 61.5012 142.317 62.7652 142.755C64.0182 143.188 64.9768 143.605 65.6142 143.992C66.2454 144.376 66.6988 144.801 66.9632 145.256C67.2261 145.709 67.3599 146.293 67.3599 146.99C67.3599 147.999 66.9632 148.86 66.1825 149.549C65.3986 150.24 64.3865 150.591 63.176 150.591C61.7074 150.591 60.5301 150.202 59.6801 149.434C58.8317 148.668 58.4004 147.59 58.4004 146.23C58.4004 146.187 58.3657 146.151 58.3217 146.151H57.6842C57.6417 146.151 57.6055 146.186 57.6055 146.23C57.6055 147.796 58.0745 149.044 58.9985 149.941C59.9083 150.822 61.2022 151.307 62.8471 151.382V153.515C62.8471 153.557 62.8817 153.594 62.9258 153.594H63.5758C63.6183 153.594 63.6545 153.559 63.6545 153.515V151.368C65.0035 151.277 66.0975 150.841 66.9065 150.07C67.7329 149.283 68.1532 148.241 68.1532 146.973C68.1532 146.337 68.0572 145.775 67.8699 145.303H67.8683Z" fill="#3D3D3D"/>
<path d="M371.987 338.543H258.067C257.875 338.543 257.721 338.387 257.721 338.197V303.19C257.721 302.998 257.877 302.844 258.067 302.844H371.987C372.179 302.844 372.334 303 372.334 303.19V338.197C372.334 338.389 372.178 338.543 371.987 338.543ZM258.413 337.851H371.641V303.538H258.413V337.851Z" fill="#3D3D3D"/>
<path d="M367.969 236.307H279.018V299.453H367.969V236.307Z" fill="#3D3D3D"/>
<path d="M376.565 345.09H248.367C248.22 345.09 248.09 344.999 248.041 344.862L218.871 264.411C218.805 264.231 218.899 264.031 219.079 263.967C219.258 263.901 219.458 263.995 219.522 264.175L248.611 344.398H376.303L401.55 254.068C401.593 253.918 401.728 253.814 401.884 253.814H428.654C428.846 253.814 429 253.97 429 254.161C429 254.351 428.844 254.507 428.654 254.507H402.147L376.899 344.837C376.857 344.986 376.721 345.09 376.565 345.09Z" fill="#3D3D3D"/>
<path d="M398.649 266.075H288.643C288.451 266.075 288.297 265.919 288.297 265.729C288.297 265.539 288.453 265.383 288.643 265.383H398.649C398.841 265.383 398.995 265.539 398.995 265.729C398.995 265.919 398.839 266.075 398.649 266.075Z" fill="#3D3D3D"/>
<path d="M392.145 289.355H313.751C313.559 289.355 313.404 289.199 313.404 289.008C313.404 288.818 313.56 288.662 313.751 288.662H392.145C392.337 288.662 392.491 288.818 392.491 289.008C392.491 289.199 392.335 289.355 392.145 289.355Z" fill="#3D3D3D"/>
<path d="M348.844 345.09C348.652 345.09 348.498 344.934 348.498 344.744V276.691C348.498 276.499 348.654 276.345 348.844 276.345C349.035 276.345 349.191 276.501 349.191 276.691V344.744C349.191 344.936 349.035 345.09 348.844 345.09Z" fill="#3D3D3D"/>
<path d="M277.574 384.502C277.522 384.502 277.47 384.491 277.42 384.466C277.248 384.381 277.178 384.173 277.263 384.002C281.908 374.628 287.344 367.301 293.422 362.221C299.526 357.119 305.98 354.531 312.602 354.531H376.505C376.697 354.531 376.851 354.687 376.851 354.877V384.156C376.851 384.348 376.695 384.502 376.505 384.502C376.314 384.502 376.159 384.346 376.159 384.156V355.225H312.603C299.699 355.225 287.045 365.826 277.884 384.31C277.824 384.433 277.7 384.504 277.573 384.504L277.574 384.502Z" fill="#3D3D3D"/>
<path d="M376.266 388.784C380.848 388.784 384.562 385.07 384.562 380.489C384.562 375.907 380.848 372.193 376.266 372.193C371.683 372.193 367.969 375.907 367.969 380.489C367.969 385.07 371.683 388.784 376.266 388.784Z" fill="#1B1B1B"/>
<path d="M376.266 389.13C371.5 389.13 367.623 385.253 367.623 380.489C367.623 375.725 371.501 371.846 376.266 371.846C381.031 371.846 384.911 375.723 384.911 380.489C384.911 385.254 381.032 389.13 376.266 389.13ZM376.266 372.54C371.882 372.54 368.316 376.106 368.316 380.489C368.316 384.872 371.882 388.438 376.266 388.438C380.65 388.438 384.217 384.872 384.217 380.489C384.217 376.106 380.65 372.54 376.266 372.54Z" fill="#3D3D3D"/>
<path d="M279.021 388.784C283.604 388.784 287.318 385.07 287.318 380.489C287.318 375.907 283.604 372.193 279.021 372.193C274.439 372.193 270.725 375.907 270.725 380.489C270.725 385.07 274.439 388.784 279.021 388.784Z" fill="#1B1B1B"/>
<path d="M279.022 389.13C274.256 389.13 270.379 385.253 270.379 380.489C270.379 375.725 274.257 371.846 279.022 371.846C283.787 371.846 287.665 375.723 287.665 380.489C287.665 385.254 283.787 389.13 279.022 389.13ZM279.022 372.54C274.638 372.54 271.071 376.106 271.071 380.489C271.071 384.872 274.638 388.438 279.022 388.438C283.406 388.438 286.973 384.872 286.973 380.489C286.973 376.106 283.406 372.54 279.022 372.54Z" fill="#3D3D3D"/>
<path d="M292.818 125.575C294.024 123.599 293.401 121.02 291.425 119.814C289.449 118.607 286.87 119.231 285.663 121.206C284.457 123.182 285.08 125.761 287.056 126.967C289.032 128.174 291.611 127.55 292.818 125.575Z" fill="#3D3D3D"/>
<path d="M277.597 127.55C279.889 127.228 281.487 125.109 281.164 122.817C280.842 120.525 278.723 118.928 276.43 119.25C274.138 119.572 272.54 121.691 272.863 123.983C273.185 126.275 275.304 127.872 277.597 127.55Z" fill="#3D3D3D"/>
<path d="M266.998 126.935C268.96 125.707 269.556 123.122 268.328 121.159C267.101 119.197 264.514 118.601 262.552 119.829C260.589 121.057 259.993 123.642 261.221 125.605C262.449 127.567 265.035 128.163 266.998 126.935Z" fill="#3D3D3D"/>
<path d="M309.805 148.683C309.613 148.683 309.459 148.527 309.459 148.337V123.221H299.594C299.402 123.221 299.248 123.065 299.248 122.875C299.248 122.684 299.404 122.528 299.594 122.528H309.805C309.997 122.528 310.152 122.684 310.152 122.875V148.335C310.152 148.527 309.996 148.681 309.805 148.681V148.683Z" fill="#3D3D3D"/>
<path d="M106.853 158.401C108.07 156.432 107.46 153.849 105.491 152.632C103.522 151.415 100.939 152.025 99.7214 153.994C98.5043 155.963 99.1139 158.545 101.083 159.762C103.052 160.979 105.635 160.369 106.853 158.401Z" fill="#3D3D3D"/>
<path d="M104.076 148.075C106.349 147.639 107.839 145.443 107.403 143.17C106.968 140.897 104.771 139.407 102.498 139.843C100.224 140.279 98.7341 142.475 99.1699 144.748C99.6057 147.021 101.802 148.511 104.076 148.075Z" fill="#3D3D3D"/>
<path d="M105.547 135.27C107.497 134.022 108.065 131.43 106.816 129.481C105.568 127.532 102.975 126.964 101.026 128.212C99.0764 129.461 98.5083 132.053 99.7569 134.002C101.006 135.951 103.598 136.519 105.547 135.27Z" fill="#3D3D3D"/>
<path d="M103.805 185.057C103.613 185.057 103.459 184.901 103.459 184.711V166.542C103.459 166.35 103.615 166.195 103.805 166.195C103.996 166.195 104.152 166.351 104.152 166.542V184.711C104.152 184.903 103.996 185.057 103.805 185.057Z" fill="#3D3D3D"/>
<path d="M392.109 162.888C391.522 156.264 387.074 150.675 382.509 145.839C372.61 135.351 361.263 126.294 349.256 118.306C345.755 115.977 342.108 113.698 338.017 112.727C333.925 111.756 329.254 112.292 326.116 115.091C322.406 118.399 321.685 123.923 322.003 128.882C322.917 143.156 330.775 156.824 342.651 164.8C351.784 170.933 363.063 173.551 373.978 172.434C381.847 171.63 393.232 175.561 392.111 162.886L392.109 162.888Z" fill="#151515"/>
<path d="M327.762 199.043L310.238 190.823L267.715 184.927C249.785 182.44 236.924 201.771 246.146 217.345L272.562 261.948V235.418H299.881L285.197 216.992C285.197 216.992 333.112 218.132 327.762 199.043Z" fill="#F4EAE2"/>
<path d="M336.093 202.518L310.238 190.823L267.715 184.927C249.785 182.44 236.924 201.771 246.146 217.345L264.86 248.946V236.313H300.594L285.197 216.992C285.197 216.992 341.442 221.606 336.093 202.518Z" fill="#0D0D0D"/>
<path d="M332.049 204.718L295.868 203.807C278.438 203.368 262.471 213.482 255.411 229.421C243.83 255.568 225.758 293.943 212.967 309.657C211.462 311.505 212.986 314.238 215.349 313.928L251.503 309.188C257.343 308.422 262.482 304.955 265.375 299.826L298.621 240.923C298.621 240.923 365.194 244.135 359.302 230.956C353.409 217.777 332.05 204.718 332.05 204.718H332.049Z" fill="#F4EAE2"/>
<path d="M214.98 314.3C214.097 314.3 213.286 313.92 212.715 313.226C212.058 312.43 211.849 311.342 212.169 310.389C212.18 310.356 212.195 310.324 212.216 310.296C212.279 310.208 218.558 301.458 220.815 297.717C220.914 297.553 221.127 297.5 221.292 297.599C221.456 297.698 221.509 297.91 221.41 298.076C219.222 301.7 213.3 309.973 212.811 310.656C212.59 311.374 212.756 312.184 213.25 312.784C213.755 313.396 214.503 313.689 215.303 313.583L251.457 308.843C257.157 308.096 262.247 304.662 265.072 299.656L266.16 297.728C266.255 297.561 266.466 297.503 266.632 297.596C266.799 297.69 266.857 297.901 266.765 298.068L265.677 299.996C262.744 305.191 257.462 308.755 251.547 309.531L215.392 314.271C215.254 314.29 215.115 314.298 214.978 314.298L214.98 314.3Z" fill="#3D3D3D"/>
<path d="M260.635 297.073C257.768 297.325 254.902 297.563 252.029 297.722C249.153 297.881 246.284 297.908 243.405 297.895C237.635 297.868 231.861 297.815 226.095 297.552C224.557 297.481 223.021 297.394 221.486 297.292C232.963 278.577 246.227 250.156 255.412 229.423C262.471 213.484 278.439 203.37 295.868 203.809L332.049 204.72C332.049 204.72 353.408 217.779 359.301 230.958C365.194 244.137 298.62 240.924 298.62 240.924L267.261 296.485C265.05 296.671 262.84 296.881 260.635 297.077V297.073Z" fill="#0D0D0D"/>
<path d="M255.409 229.768C255.362 229.768 255.315 229.759 255.269 229.739C255.094 229.661 255.014 229.455 255.093 229.281C262.237 213.151 278.244 203.01 295.876 203.46L327.493 204.256C327.685 204.261 327.836 204.42 327.831 204.612C327.827 204.804 327.679 204.967 327.476 204.95L295.859 204.154C278.518 203.726 262.758 213.691 255.729 229.562C255.672 229.691 255.545 229.768 255.411 229.768H255.409Z" fill="#3D3D3D"/>
<path d="M285.196 241.321C285.005 241.321 284.85 241.167 284.85 240.975C284.85 240.783 285.004 240.627 285.196 240.627L296.798 240.583C296.989 240.583 297.145 240.737 297.145 240.929C297.145 241.121 296.99 241.277 296.798 241.277L285.196 241.321Z" fill="#3D3D3D"/>
<path d="M310.238 190.824L328.856 204.405C328.856 204.405 347.515 221.207 348.917 238.893C348.917 238.893 385.155 235.044 375.095 195.016L329.177 193.71L310.238 190.822V190.824Z" fill="#0D0D0D"/>
<path d="M370.693 199.522L357.155 145.005C357.155 145.005 332.148 144.496 323.362 146.481C323.362 146.481 322.386 190.762 321.936 199.522H370.693Z" fill="#008BCE"/>
<path d="M307.146 190.218C307.146 190.218 314.502 146.058 323.361 146.483L321.935 190.218H307.146Z" fill="#008BCE"/>
<path d="M321.936 190.563H307.147C307.045 190.563 306.949 190.518 306.883 190.441C306.817 190.364 306.788 190.26 306.806 190.159C306.825 190.049 308.68 178.976 311.597 168.099C315.554 153.339 319.51 145.949 323.377 146.134C323.566 146.144 323.714 146.303 323.708 146.492L322.282 190.227C322.276 190.414 322.123 190.562 321.936 190.562V190.563ZM307.56 189.869H321.6L323.004 146.836C320.588 147.079 316.858 151.169 312.269 168.279C309.675 177.953 307.922 187.781 307.56 189.869Z" fill="#3D3D3D"/>
<path d="M270.873 191.755H338.66V189.713C338.66 187.918 337.204 186.462 335.408 186.462H266.105L266.661 188.528C267.174 190.431 268.899 191.755 270.87 191.755H270.873Z" fill="#3D3D3D"/>
<path d="M268.94 189.359H309.837C311.584 189.359 312.867 187.72 312.447 186.025L304.718 154.85C304.421 153.651 303.344 152.809 302.109 152.809H261.212C259.464 152.809 258.181 154.448 258.602 156.143L266.33 187.318C266.628 188.517 267.705 189.359 268.94 189.359Z" fill="#3D3D3D"/>
<path d="M282.823 166.189C283.569 166.189 284.174 165.584 284.174 164.839C284.174 164.093 283.569 163.488 282.823 163.488C282.077 163.488 281.473 164.093 281.473 164.839C281.473 165.584 282.077 166.189 282.823 166.189Z" fill="#008BCE"/>
<path d="M376.522 210.256C374.443 211.345 372.256 211.853 370.259 211.89C365.639 211.973 357.281 205.466 350.004 199.424L376.522 210.258V210.256Z" fill="#F4EAE2"/>
<path d="M350.004 199.422C343.733 194.215 338.264 189.355 336.69 189.358L324.869 186.461C324.869 186.461 332.332 173.679 342.525 177.46C352.719 181.242 367.25 190.328 367.25 190.328C367.25 190.328 353.835 153.892 357.155 145.003C357.155 145.003 374.727 150.278 382.856 176.544C389.097 196.712 383.397 206.655 376.522 210.255L350.004 199.421V199.422Z" fill="#008BCE"/>
<path d="M376.524 210.602C376.4 210.602 376.278 210.535 376.217 210.417C376.127 210.247 376.193 210.037 376.363 209.948C380.624 207.716 389.755 200.006 382.527 176.647C375.143 152.787 359.773 146.322 357.374 145.445C354.555 154.642 367.446 189.849 367.579 190.208C367.63 190.346 367.586 190.504 367.472 190.597C367.355 190.691 367.194 190.7 367.069 190.622C366.924 190.53 352.45 181.513 342.406 177.786C333.615 174.525 326.787 184.133 325.421 186.239L336.74 189.012C338.133 189.068 341.434 191.783 347.105 196.542C348.112 197.387 349.159 198.267 350.229 199.155C350.377 199.277 350.398 199.496 350.275 199.643C350.152 199.791 349.933 199.811 349.787 199.688C348.717 198.799 347.668 197.919 346.659 197.073C342.145 193.283 337.879 189.704 336.699 189.704H336.696C336.667 189.704 336.641 189.701 336.614 189.695L324.793 186.797C324.686 186.771 324.599 186.697 324.557 186.596C324.514 186.495 324.522 186.38 324.575 186.286C324.651 186.155 332.306 173.296 342.652 177.136C351.352 180.364 363.325 187.518 366.59 189.511C364.47 183.625 353.768 153.094 356.836 144.882C356.899 144.71 357.086 144.619 357.261 144.671C357.443 144.726 361.786 146.064 367.188 150.659C372.159 154.888 378.97 162.793 383.193 176.44C390.575 200.297 381.103 208.25 376.688 210.561C376.636 210.588 376.581 210.601 376.527 210.601L376.524 210.602Z" fill="#3D3D3D"/>
<path d="M334.034 187.871C333.996 187.871 333.959 187.865 333.921 187.852C333.74 187.789 333.644 187.591 333.707 187.41C334.418 185.361 336.03 183.617 338.015 182.745C338.191 182.668 338.396 182.748 338.473 182.923C338.55 183.099 338.47 183.304 338.295 183.381C336.483 184.177 335.013 185.768 334.363 187.638C334.313 187.781 334.179 187.871 334.036 187.871H334.034Z" fill="#3D3D3D"/>
<path d="M330.318 187.125C330.285 187.125 330.251 187.121 330.218 187.111C330.034 187.056 329.93 186.862 329.985 186.68C330.725 184.204 332.562 182.07 334.901 180.972C335.074 180.89 335.282 180.964 335.362 181.139C335.444 181.312 335.37 181.518 335.196 181.6C333.033 182.616 331.334 184.59 330.65 186.878C330.604 187.029 330.467 187.125 330.318 187.125Z" fill="#3D3D3D"/>
<path d="M338.66 191.755V189.713C338.66 187.918 337.204 186.462 335.408 186.462H321.936L338.66 191.755Z" fill="#3D3D3D"/>
<path d="M341.497 130.199L347.374 145.093C347.374 145.093 344.08 149.439 336.689 150.428C329.299 151.418 335.588 145.238 335.588 145.238L332.018 135.026L341.495 130.201L341.497 130.199Z" fill="#F4EAE2"/>
<path d="M335.267 150.882C333.991 150.882 333.208 150.561 332.89 149.914C332.159 148.419 334.498 145.857 335.189 145.147L331.691 135.141C331.634 134.977 331.707 134.796 331.861 134.718L341.338 129.892C341.425 129.848 341.527 129.842 341.619 129.877C341.71 129.911 341.782 129.982 341.818 130.073L347.696 144.968C347.74 145.081 347.723 145.208 347.65 145.304C347.512 145.487 344.183 149.777 336.736 150.773C336.188 150.847 335.699 150.883 335.266 150.883L335.267 150.882ZM332.448 135.196L335.917 145.122C335.961 145.249 335.928 145.389 335.834 145.484C334.702 146.596 333.071 148.702 333.515 149.609C333.78 150.15 334.893 150.318 336.646 150.084C343.029 149.229 346.325 145.784 346.978 145.029L341.316 130.681L332.448 135.196Z" fill="#3D3D3D"/>
<path d="M324.674 128.999C324.889 131.262 325.522 133.53 326.835 135.387C328.148 137.244 330.2 138.648 332.465 138.847C334.43 139.022 336.41 138.284 337.952 137.055C339.495 135.827 340.627 134.14 341.429 132.34C343.487 132.474 345.544 131.052 346.147 129.082C346.495 127.944 346.35 126.605 345.552 125.724C344.754 124.842 343.244 124.608 342.349 125.39C341.839 125.835 341.58 126.523 341.052 126.948C340.463 127.422 339.616 127.48 338.897 127.247C338.179 127.013 337.57 126.523 337.043 125.982C335.382 124.277 334.371 121.955 334.256 119.578C334.267 119.803 333.238 120.439 333.057 120.562C332.604 120.873 332.122 121.146 331.621 121.375C330.635 121.829 329.572 122.118 328.491 122.233C327.943 122.291 327.39 122.304 326.839 122.268C326.402 122.239 325.782 122.011 325.357 122.126C324.471 122.367 324.664 124.052 324.628 124.737C324.552 126.156 324.532 127.582 324.667 129L324.674 128.999Z" fill="#F4EAE2"/>
<path d="M333.033 139.22C332.833 139.22 332.633 139.212 332.435 139.193C330.208 138.995 328.009 137.648 326.551 135.586C325.325 133.853 324.577 131.647 324.327 129.031C324.209 127.788 324.195 126.417 324.286 124.718C324.292 124.604 324.291 124.461 324.291 124.302C324.288 123.41 324.281 122.06 325.27 121.79C325.622 121.694 326.035 121.775 326.398 121.847C326.571 121.882 326.734 121.913 326.864 121.921C327.39 121.954 327.925 121.943 328.457 121.888C329.507 121.778 330.524 121.499 331.479 121.06C331.966 120.837 332.432 120.572 332.863 120.275C332.89 120.256 332.934 120.228 332.99 120.19C333.631 119.77 333.853 119.581 333.921 119.496C333.955 119.35 334.083 119.236 334.242 119.23C334.426 119.22 334.596 119.368 334.605 119.56C334.716 121.847 335.695 124.099 337.292 125.739C337.897 126.359 338.44 126.734 339.005 126.916C339.677 127.135 340.377 127.044 340.834 126.677C341.068 126.488 341.251 126.225 341.443 125.947C341.638 125.663 341.841 125.371 342.12 125.128C343.119 124.255 344.843 124.423 345.808 125.49C346.637 126.406 346.894 127.823 346.477 129.184C345.846 131.249 343.781 132.72 341.648 132.697C340.744 134.65 339.575 136.206 338.168 137.327C336.636 138.546 334.794 139.218 333.03 139.218L333.033 139.22ZM325.018 128.965C325.256 131.46 325.962 133.553 327.118 135.186C328.459 137.083 330.469 138.323 332.496 138.502C334.259 138.66 336.168 138.033 337.738 136.785C339.107 135.695 340.244 134.152 341.114 132.201C341.172 132.069 341.312 131.985 341.453 131.996C343.345 132.118 345.262 130.796 345.816 128.983C346.156 127.87 345.953 126.683 345.296 125.958C344.588 125.176 343.293 125.029 342.578 125.652C342.366 125.838 342.196 126.084 342.016 126.343C341.804 126.65 341.585 126.968 341.27 127.22C340.632 127.731 339.683 127.868 338.791 127.577C338.116 127.357 337.481 126.927 336.797 126.224C335.26 124.647 334.256 122.541 333.979 120.355C333.815 120.475 333.615 120.612 333.371 120.772L333.258 120.848C332.794 121.167 332.293 121.452 331.771 121.691C330.747 122.162 329.658 122.459 328.531 122.577C327.96 122.637 327.385 122.65 326.822 122.614C326.647 122.603 326.461 122.566 326.266 122.527C325.977 122.47 325.651 122.406 325.452 122.459C324.977 122.588 324.982 123.659 324.985 124.297C324.985 124.472 324.985 124.628 324.979 124.752C324.89 126.417 324.901 127.755 325.018 128.964V128.965Z" fill="#3D3D3D"/>
<path d="M343.598 127.961C342.54 128.205 341.675 129.129 341.5 130.199L343.598 127.961Z" fill="#F4EAE2"/>
<path d="M341.498 130.545C341.479 130.545 341.46 130.545 341.442 130.541C341.253 130.509 341.124 130.331 341.155 130.143C341.353 128.934 342.325 127.898 343.518 127.623C343.704 127.581 343.891 127.697 343.933 127.883C343.976 128.07 343.859 128.256 343.674 128.298C342.746 128.512 341.993 129.316 341.84 130.254C341.812 130.424 341.665 130.545 341.498 130.545Z" fill="#3D3D3D"/>
<path d="M231.334 161.315H220.58V145.406L231.334 161.315Z" fill="#A0D2F4"/>
<path d="M220.58 145.406V134.76H275.817V161.316H231.334L220.58 145.406Z" fill="#A0D2F4"/>
<path d="M275.817 161.663H231.333C231.141 161.663 230.986 161.508 230.986 161.317C230.986 161.127 231.142 160.971 231.333 160.971H275.469V135.107H220.925V145.408C220.925 145.6 220.769 145.754 220.579 145.754C220.388 145.754 220.232 145.598 220.232 145.408V134.761C220.232 134.569 220.388 134.415 220.579 134.415H275.817C276.009 134.415 276.163 134.571 276.163 134.761V161.317C276.163 161.509 276.007 161.663 275.817 161.663Z" fill="#3D3D3D"/>
<path d="M254.751 155.671C254.663 155.671 254.574 155.636 254.506 155.569C254.37 155.433 254.37 155.213 254.506 155.078L260.89 148.694L254.506 142.311C254.37 142.176 254.37 141.956 254.506 141.82C254.641 141.685 254.862 141.685 254.997 141.82L261.627 148.449C261.691 148.514 261.729 148.602 261.729 148.694C261.729 148.787 261.693 148.875 261.627 148.94L254.997 155.569C254.929 155.636 254.841 155.671 254.751 155.671Z" fill="#3D3D3D"/>
<path d="M240.749 155.671C240.661 155.671 240.571 155.636 240.504 155.569L233.874 148.94C233.809 148.875 233.771 148.787 233.771 148.694C233.771 148.602 233.808 148.514 233.874 148.449L240.504 141.82C240.639 141.685 240.859 141.685 240.995 141.82C241.13 141.956 241.13 142.176 240.995 142.311L234.61 148.694L240.995 155.078C241.13 155.213 241.13 155.433 240.995 155.569C240.927 155.636 240.839 155.671 240.749 155.671Z" fill="#3D3D3D"/>
<path d="M244.134 157.688C244.088 157.688 244.044 157.679 244 157.662C243.824 157.588 243.74 157.385 243.814 157.207L251.097 139.916C251.171 139.74 251.374 139.656 251.552 139.73C251.728 139.804 251.812 140.007 251.738 140.185L244.455 157.476C244.4 157.608 244.271 157.688 244.135 157.688H244.134Z" fill="#3D3D3D"/>
<path d="M258.067 361.365H189.921C189.728 361.365 189.574 361.21 189.574 361.019C189.574 360.829 189.73 360.673 189.921 360.673H258.067C258.26 360.673 258.414 360.829 258.414 361.019C258.414 361.21 258.258 361.365 258.067 361.365Z" fill="#3D3D3D"/>
<path d="M223.993 372.541H149.965C149.773 372.541 149.619 372.385 149.619 372.195C149.619 372.004 149.775 371.849 149.965 371.849H223.993C224.185 371.849 224.339 372.004 224.339 372.195C224.339 372.385 224.184 372.541 223.993 372.541Z" fill="#3D3D3D"/>
</g>
</g>
<defs>
<clipPath id="clip0_2447_10094">
<rect width="427" height="425" fill="white"/>
</clipPath>
<clipPath id="clip1_2447_10094">
<rect width="432" height="377" fill="white" transform="translate(-3 15)"/>
</clipPath>
</defs>
</svg>
