<svg width="427" height="425" viewBox="0 0 427 425" fill="none" xmlns="http://www.w3.org/2000/svg">
<g clip-path="url(#clip0_2430_9955)">
<path d="M400.041 382.57C388.531 392.16 338.441 398.94 278.761 401.49C187.021 405.42 72.6009 399.37 40.7909 378.2C25.7309 368.19 15.5509 337.25 9.1009 297.66C-6.9291 199.16 0.220901 47.1301 13.1609 30.6501C31.3109 7.56009 323.301 -15.3099 399.911 13.9301C432.741 26.4601 429.231 358.23 400.031 382.57H400.041Z" fill="white"/>
<path d="M373.314 247.44L375.204 241.883L377.358 247.44C377.358 247.44 381.657 248.14 381.712 248.531C381.757 248.913 377.595 250.095 377.595 250.095C377.595 250.095 375.85 255.488 375.204 254.27C374.568 253.051 373.95 250.35 373.95 250.35C373.95 250.35 368.533 249.268 368.533 248.731C368.533 248.158 373.314 247.449 373.314 247.449V247.44Z" fill="white"/>
<path d="M304.094 233.142L305.566 228.822L307.238 233.142C307.238 233.142 310.574 233.688 310.619 233.988C310.656 234.279 307.429 235.198 307.429 235.198C307.429 235.198 306.075 239.381 305.575 238.435C305.075 237.49 304.594 235.389 304.594 235.389C304.594 235.389 300.395 234.543 300.395 234.134C300.395 233.688 304.103 233.142 304.103 233.142H304.094Z" fill="white"/>
<g clip-path="url(#clip1_2430_9955)">
<path d="M192.541 55.2036L188.801 52.9972C188.198 52.6423 187.847 51.9744 187.914 51.2834C187.985 50.5528 188.026 49.8222 188.035 49.0958C188.043 48.4028 188.465 47.7807 189.1 47.4927L193.048 45.6995C193.826 45.3468 194.252 44.5076 194.074 43.6789L193.351 40.3035C193.174 39.4748 192.441 38.8778 191.584 38.8653L187.228 38.8048C186.524 38.7943 185.885 38.3873 185.593 37.7527C185.29 37.0972 184.958 36.4522 184.603 35.8239C184.258 35.2144 184.3 34.465 184.707 33.8951L187.224 30.3778C187.719 29.6869 187.663 28.7475 187.093 28.1171L184.763 25.5496C184.191 24.9192 183.255 24.7647 182.507 25.178L178.716 27.278C178.102 27.6182 177.345 27.5806 176.771 27.1778C176.178 26.7624 175.565 26.3678 174.932 25.9984C174.325 25.6414 173.982 24.9693 174.047 24.2741L174.45 19.9845C174.529 19.1412 174.007 18.3542 173.194 18.0912L169.883 17.0203C169.071 16.7573 168.181 17.0871 167.744 17.8156L165.521 21.5167C165.162 22.1137 164.489 22.4623 163.792 22.3934C163.054 22.3224 162.317 22.2807 161.584 22.2702C160.884 22.2598 160.255 21.8444 159.963 21.214L158.147 17.3021C157.79 16.5319 156.942 16.1081 156.104 16.2835L152.697 16.9953C151.859 17.1706 151.258 17.897 151.247 18.7425L151.191 23.0551C151.182 23.7481 150.777 24.3827 150.14 24.6708C149.471 24.9734 148.816 25.3033 148.174 25.6602C147.564 25.9984 146.808 25.9504 146.236 25.5475L142.682 23.0509C141.984 22.5604 141.036 22.6146 140.401 23.1803L137.813 25.4849C137.176 26.0506 137.021 26.9774 137.441 27.7184L139.565 31.4758C139.91 32.0832 139.872 32.8347 139.465 33.4025C139.045 33.9891 138.648 34.5965 138.276 35.2206C137.917 35.8218 137.238 36.1621 136.536 36.0953L132.204 35.6924C131.351 35.6131 130.56 36.1287 130.294 36.9344L129.216 40.2117C128.951 41.0174 129.285 41.8983 130.021 42.3304L133.76 44.5368C134.364 44.8938 134.715 45.5597 134.648 46.2506C134.577 46.9812 134.535 47.7118 134.527 48.4362C134.518 49.1292 134.096 49.7513 133.461 50.0393L129.513 51.8324C128.736 52.1852 128.31 53.0243 128.487 53.8531L129.21 57.2284C129.388 58.0571 130.121 58.6541 130.977 58.6667L135.331 58.7272C136.031 58.7376 136.672 59.1384 136.962 59.7688C137.27 60.4326 137.604 61.0818 137.963 61.7164C138.306 62.3218 138.258 63.0712 137.852 63.6348L135.335 67.15C134.84 67.8409 134.896 68.7803 135.467 69.4107L137.796 71.9761C138.368 72.6065 139.304 72.761 140.052 72.3477L143.844 70.2477C144.458 69.9075 145.214 69.9451 145.789 70.3479C146.382 70.7633 146.994 71.1579 147.627 71.5273C148.235 71.8843 148.577 72.5564 148.513 73.2516L148.109 77.5412C148.03 78.3846 148.552 79.1715 149.365 79.4345L152.676 80.5054C153.489 80.7684 154.379 80.4386 154.815 79.7101L157.038 76.0091C157.397 75.412 158.07 75.0634 158.768 75.1323C159.505 75.2033 160.242 75.2451 160.976 75.2555C161.676 75.2659 162.304 75.6813 162.597 76.3117L164.412 80.2236C164.769 80.9938 165.618 81.4176 166.455 81.2422L169.862 80.5304C170.7 80.3551 171.302 79.6287 171.312 78.7833L171.369 74.4706C171.377 73.7734 171.788 73.1409 172.43 72.8508C173.092 72.5502 173.742 72.2245 174.377 71.8718C174.991 71.5315 175.749 71.5733 176.324 71.9782L179.877 74.4748C180.575 74.9653 181.523 74.9111 182.158 74.3454L184.747 72.0409C185.384 71.4752 185.538 70.5483 185.119 69.8073L182.994 66.0499C182.649 65.4425 182.687 64.691 183.094 64.1232C183.514 63.5366 183.911 62.9292 184.283 62.3051C184.642 61.7039 185.321 61.3636 186.023 61.4304L190.356 61.8333C191.208 61.9126 192.002 61.397 192.265 60.5913L193.343 57.314C193.608 56.5083 193.274 55.6295 192.539 55.1953L192.541 55.2036ZM160.422 63.5513C152.177 63.0732 145.876 56.0678 146.35 47.9018C146.825 39.7378 153.892 33.5069 162.137 33.9849C170.383 34.4629 176.683 41.4683 176.209 49.6344C175.735 57.7983 168.667 64.0293 160.422 63.5513Z" fill="white"/>
<path d="M166.067 81.749C165.187 81.749 164.374 81.2459 163.992 80.4235L162.179 76.5116C161.96 76.0378 161.483 75.7289 160.969 75.7205C160.226 75.7101 159.469 75.6683 158.724 75.5953C158.21 75.5472 157.702 75.8019 157.433 76.2507L155.208 79.9517C154.656 80.8681 153.555 81.2793 152.532 80.9474L149.221 79.8766C148.195 79.5447 147.547 78.5698 147.648 77.5032L148.051 73.2135C148.099 72.6958 147.84 72.1927 147.391 71.9276C146.747 71.5498 146.118 71.1469 145.521 70.7274C145.095 70.4268 144.522 70.3976 144.063 70.6522L140.271 72.7522C139.331 73.2719 138.174 73.082 137.453 72.2867L135.124 69.7191C134.401 68.9217 134.332 67.7549 134.959 66.8823L137.476 63.3671C137.779 62.9454 137.813 62.386 137.562 61.9414C137.198 61.3026 136.858 60.6367 136.545 59.9583C136.329 59.4949 135.851 59.1901 135.322 59.1818L130.969 59.1212C129.891 59.1066 128.982 58.3656 128.759 57.3198L128.036 53.9444C127.81 52.8965 128.341 51.8549 129.321 51.4082L133.269 49.6151C133.745 49.398 134.059 48.9304 134.065 48.4232C134.075 47.6863 134.117 46.939 134.188 46.198C134.238 45.6907 133.977 45.1918 133.524 44.9246L129.784 42.7182C128.857 42.1713 128.441 41.0775 128.775 40.0588L129.853 36.7795C130.188 35.7629 131.176 35.1262 132.243 35.2243L136.576 35.6293C137.104 35.6773 137.612 35.4205 137.879 34.9759C138.255 34.3434 138.663 33.7214 139.089 33.1244C139.388 32.7048 139.417 32.1433 139.162 31.6903L137.038 27.9329C136.509 26.9978 136.701 25.8455 137.505 25.1295L140.096 22.825C140.896 22.1132 142.07 22.0464 142.947 22.6643L146.501 25.1608C146.931 25.4635 147.501 25.4969 147.951 25.2464C148.596 24.8895 149.269 24.5492 149.95 24.2403C150.418 24.0294 150.725 23.5556 150.731 23.0379L150.787 18.7253C150.802 17.6544 151.548 16.7526 152.603 16.5335L156.01 15.8216C157.063 15.6004 158.114 16.1264 158.565 17.0971L160.38 21.0089C160.6 21.4828 161.074 21.7917 161.59 21.8001C162.333 21.8105 163.09 21.8522 163.835 21.9253C164.345 21.9754 164.857 21.7166 165.126 21.2698L167.349 17.5709C167.901 16.6524 169.002 16.2433 170.025 16.5752L173.336 17.6461C174.362 17.978 175.01 18.9528 174.909 20.0195L174.506 24.3091C174.458 24.8268 174.717 25.332 175.166 25.595C175.81 25.9728 176.441 26.3757 177.036 26.7953C177.462 27.0959 178.037 27.1251 178.494 26.8704L182.286 24.7705C183.226 24.2507 184.385 24.4407 185.104 25.236L187.433 27.8035C188.156 28.6009 188.225 29.7678 187.598 30.6403L185.081 34.1576C184.778 34.5793 184.747 35.1429 185.001 35.5917C185.363 36.2305 185.701 36.8901 186.008 37.5539C186.226 38.0236 186.706 38.3325 187.232 38.3388L191.588 38.3993C192.666 38.4139 193.575 39.155 193.798 40.2008L194.521 43.5761C194.747 44.624 194.216 45.6657 193.236 46.1124L189.288 47.9055C188.812 48.1226 188.498 48.5902 188.492 49.0974C188.482 49.8343 188.44 50.5816 188.369 51.3226C188.319 51.8298 188.58 52.3287 189.033 52.5959L192.773 54.8023C193.7 55.3493 194.116 56.4431 193.782 57.4617L192.704 60.7411C192.369 61.7577 191.383 62.3964 190.314 62.2962L185.981 61.8913C185.453 61.8433 184.945 62.1 184.678 62.5446C184.297 63.1834 183.89 63.8054 183.468 64.3962C183.169 64.8158 183.14 65.3773 183.395 65.8302L185.519 69.5876C186.048 70.5228 185.856 71.6751 185.052 72.391L182.463 74.6956C181.663 75.4074 180.489 75.4742 179.61 74.8563L176.056 72.3597C175.628 72.0571 175.054 72.0257 174.596 72.2783C173.951 72.6374 173.284 72.9714 172.616 73.274C172.141 73.489 171.832 73.9629 171.824 74.4806L171.767 78.7932C171.753 79.8641 171.007 80.7658 169.952 80.985L166.545 81.6968C166.384 81.7302 166.223 81.7469 166.064 81.7469L166.067 81.749ZM158.596 74.6726C158.667 74.6726 158.74 74.6768 158.811 74.683C159.532 74.7519 160.263 74.7937 160.982 74.8041C161.849 74.8166 162.647 75.3343 163.014 76.1275L164.828 80.0394C165.097 80.6197 165.726 80.9328 166.359 80.8013L169.766 80.0895C170.397 79.958 170.842 79.4215 170.85 78.7849L170.907 74.4722C170.917 73.5997 171.442 72.8023 172.238 72.4411C172.883 72.1489 173.526 71.8254 174.151 71.4788C174.914 71.0572 175.87 71.1073 176.587 71.6103L180.14 74.1069C180.669 74.4785 181.373 74.4388 181.851 74.0109L184.439 71.7064C184.918 71.2826 185.031 70.5979 184.717 70.0427L182.593 66.2853C182.162 65.5234 182.213 64.5736 182.718 63.866C183.125 63.2961 183.518 62.6949 183.886 62.0791C184.333 61.3297 185.189 60.9018 186.065 60.9811L190.397 61.3861C191.041 61.4508 191.628 61.0646 191.828 60.4593L192.906 57.182C193.105 56.5767 192.858 55.9275 192.305 55.6018L188.565 53.3954C187.807 52.9466 187.37 52.1012 187.454 51.2412C187.523 50.5273 187.565 49.8029 187.573 49.0932C187.586 48.2311 188.108 47.44 188.908 47.0768L192.856 45.2837C193.441 45.0186 193.757 44.3986 193.623 43.7765L192.9 40.4012C192.766 39.777 192.221 39.3345 191.576 39.3261L187.22 39.2656C186.343 39.2531 185.538 38.7354 185.173 37.9463C184.876 37.3055 184.548 36.6667 184.199 36.0509C183.769 35.2911 183.821 34.3413 184.331 33.6295L186.848 30.1122C187.22 29.5945 187.178 28.9015 186.748 28.4297L184.419 25.8622C183.986 25.3863 183.291 25.2715 182.729 25.5846L178.937 27.6845C178.172 28.1083 177.216 28.0582 176.503 27.5572C175.927 27.1522 175.319 26.7619 174.696 26.3966C173.94 25.954 173.503 25.1045 173.585 24.2319L173.988 19.9422C174.049 19.3097 173.662 18.7274 173.048 18.529L169.737 17.4582C169.121 17.2599 168.463 17.5041 168.135 18.0531L165.912 21.752C165.461 22.5035 164.61 22.9398 163.744 22.85C163.021 22.7811 162.292 22.7394 161.573 22.729C160.706 22.7164 159.908 22.1988 159.54 21.4055L157.725 17.4937C157.456 16.9134 156.827 16.6003 156.194 16.7318L152.787 17.4436C152.156 17.5751 151.711 18.1116 151.702 18.7482L151.646 23.0588C151.636 23.9334 151.115 24.7287 150.324 25.0878C149.664 25.3863 149.014 25.714 148.391 26.0584C147.635 26.4801 146.68 26.4237 145.966 25.9206L142.413 23.4241C141.884 23.0525 141.18 23.0922 140.702 23.5201L138.111 25.8246C137.635 26.2484 137.52 26.933 137.833 27.4883L139.958 31.2436C140.388 32.0055 140.338 32.9553 139.833 33.665C139.421 34.2411 139.028 34.8423 138.665 35.4519C138.218 36.2012 137.359 36.6292 136.486 36.5498L132.153 36.1449C131.508 36.0781 130.923 36.4663 130.722 37.0717L129.644 40.349C129.446 40.9522 129.693 41.6035 130.246 41.9292L133.985 44.1356C134.744 44.5844 135.18 45.4298 135.097 46.2898C135.028 47.0037 134.986 47.728 134.978 48.4378C134.965 49.2999 134.441 50.091 133.643 50.4542L129.695 52.2473C129.11 52.5124 128.794 53.1324 128.928 53.7545L129.651 57.1298C129.784 57.754 130.33 58.1944 130.975 58.2049L135.329 58.2654C136.208 58.2779 137.01 58.7914 137.372 59.5742C137.675 60.2276 138.005 60.8726 138.356 61.4884C138.782 62.242 138.73 63.1896 138.218 63.9015L135.701 67.4167C135.329 67.9344 135.37 68.6274 135.801 69.0992L138.13 71.6667C138.562 72.1426 139.258 72.2574 139.82 71.9443L143.612 69.8444C144.376 69.4206 145.333 69.4707 146.045 69.9717C146.622 70.3767 147.23 70.767 147.852 71.1323C148.609 71.5749 149.045 72.4244 148.964 73.297L148.561 77.5867C148.5 78.2192 148.886 78.8015 149.501 78.9999L152.812 80.0707C153.428 80.269 154.086 80.0248 154.414 79.4758L156.639 75.7748C157.052 75.0859 157.802 74.6663 158.592 74.6663L158.596 74.6726ZM161.306 64.0351C161.003 64.0351 160.7 64.0267 160.395 64.0079C151.909 63.5153 145.402 56.2782 145.891 47.8742C146.38 39.4702 153.681 33.0283 162.164 33.5231C170.65 34.0157 177.155 41.2528 176.668 49.6568C176.198 57.7602 169.396 64.033 161.306 64.033V64.0351ZM160.449 63.0915C168.421 63.5508 175.292 57.5035 175.751 49.6067C176.209 41.7079 170.092 34.907 162.112 34.4436C154.138 33.9823 147.27 40.0317 146.81 47.9284C146.352 55.8273 152.469 62.6281 160.449 63.0915Z" fill="#008BCE"/>
<path d="M123.22 76.7295L120.567 75.164C120.139 74.9114 119.89 74.4375 119.936 73.947C119.986 73.4293 120.015 72.9116 120.022 72.396C120.028 71.9055 120.327 71.4629 120.778 71.2584L123.579 69.9871C124.131 69.7366 124.434 69.1417 124.306 68.5531L123.794 66.1588C123.669 65.5701 123.149 65.1464 122.541 65.138L119.451 65.0963C118.952 65.09 118.499 64.7999 118.29 64.349C118.075 63.8835 117.841 63.4263 117.588 62.9796C117.343 62.5475 117.373 62.0152 117.663 61.6123L119.449 59.1179C119.8 58.6273 119.76 57.9614 119.355 57.5147L117.703 55.6945C117.297 55.2478 116.633 55.1371 116.103 55.4315L113.412 56.9219C112.977 57.164 112.438 57.1369 112.031 56.8509C111.611 56.5566 111.175 56.2769 110.727 56.0139C110.297 55.7613 110.053 55.2833 110.099 54.7906L110.385 51.7472C110.441 51.1481 110.072 50.5907 109.495 50.4049L107.145 49.6451C106.568 49.4593 105.937 49.6931 105.626 50.2087L104.049 52.8347C103.794 53.2584 103.318 53.5048 102.821 53.4568C102.296 53.4067 101.774 53.3774 101.254 53.3691C100.757 53.3628 100.312 53.0664 100.105 52.6197L98.818 49.8455C98.5652 49.2986 97.9636 49.0001 97.3682 49.1232L94.9512 49.6284C94.3579 49.7516 93.9297 50.2672 93.9213 50.8683L93.8816 53.9264C93.8754 54.4191 93.5871 54.8679 93.1359 55.0724C92.6616 55.2874 92.1958 55.5212 91.7404 55.7738C91.308 56.0139 90.7711 55.9784 90.3658 55.6945L87.8444 53.9223C87.3493 53.5737 86.6766 53.6112 86.2254 54.0141L84.3891 55.6486C83.9379 56.0493 83.8272 56.7069 84.1238 57.2329L85.63 59.8986C85.8744 60.3307 85.8473 60.863 85.559 61.2658C85.2623 61.6812 84.9803 62.1133 84.715 62.5559C84.4602 62.9817 83.9776 63.2238 83.4804 63.1779L80.4075 62.8919C79.8037 62.8356 79.2397 63.2009 79.0517 63.7728L78.2871 66.0982C78.0991 66.6702 78.3372 67.2943 78.8574 67.6012L81.5105 69.1668C81.9387 69.4193 82.1873 69.8932 82.1413 70.3837C82.0912 70.9014 82.062 71.4191 82.0557 71.9347C82.0494 72.4252 81.7507 72.8678 81.2995 73.0724L78.4981 74.3436C77.9466 74.5941 77.6437 75.189 77.7711 75.7777L78.2829 78.1719C78.4083 78.7606 78.9284 79.1843 79.5363 79.1927L82.626 79.2365C83.1232 79.2428 83.5765 79.5288 83.7833 79.9755C84.0006 80.4452 84.2366 80.9065 84.4936 81.3574C84.738 81.7874 84.7025 82.3176 84.4142 82.7184L82.6281 85.2129C82.2771 85.7034 82.3168 86.3693 82.7221 86.816L84.3745 88.6362C84.7798 89.083 85.4441 89.1936 85.9747 88.8993L88.6653 87.4088C89.0999 87.1667 89.6388 87.1938 90.0462 87.4798C90.4661 87.7741 90.9027 88.0539 91.3497 88.3169C91.7801 88.5694 92.0245 89.0475 91.9785 89.5401L91.6923 92.5836C91.6359 93.1827 92.0057 93.74 92.5823 93.9258L94.9324 94.6856C95.509 94.8714 96.1399 94.6376 96.4511 94.122L98.0283 91.496C98.2832 91.0723 98.7595 90.826 99.2567 90.874C99.781 90.9241 100.303 90.9533 100.823 90.9616C101.321 90.9679 101.766 91.2643 101.972 91.711L103.259 94.4852C103.512 95.0321 104.114 95.3327 104.709 95.2075L107.126 94.7023C107.719 94.5792 108.148 94.0636 108.156 93.4624L108.196 90.4022C108.202 89.9075 108.494 89.4587 108.948 89.2541C109.418 89.0412 109.877 88.8095 110.328 88.559C110.765 88.3169 111.302 88.3482 111.709 88.6342L114.231 90.4064C114.726 90.755 115.399 90.7174 115.85 90.3145L117.686 88.6801C118.137 88.2793 118.248 87.6218 117.951 87.0957L116.445 84.4301C116.201 83.998 116.228 83.4657 116.516 83.0628C116.815 82.6474 117.095 82.2153 117.36 81.7728C117.615 81.3469 118.098 81.1048 118.595 81.1507L121.668 81.4367C122.271 81.493 122.835 81.1277 123.023 80.5558L123.788 78.2304C123.976 77.6584 123.738 77.0343 123.218 76.7274L123.22 76.7295ZM100.433 82.6516C94.5835 82.3134 90.113 77.3411 90.4494 71.5506C90.7857 65.758 95.7994 61.3368 101.651 61.6771C107.5 62.0152 111.97 66.9875 111.634 72.778C111.298 78.5706 106.284 82.9918 100.433 82.6516Z" fill="white"/>
<path d="M104.438 95.6956C103.763 95.6956 103.139 95.3094 102.846 94.679L101.559 91.9048C101.426 91.6147 101.135 91.4268 100.82 91.4205C100.293 91.4143 99.7522 91.383 99.2154 91.3308C98.902 91.3016 98.5908 91.4581 98.4257 91.7316L96.8485 94.3576C96.4244 95.0631 95.5784 95.3762 94.795 95.1216L92.4469 94.3617C91.6594 94.1071 91.1622 93.3577 91.2395 92.5394L91.5257 89.4959C91.5549 89.1807 91.3962 88.8718 91.1225 88.7111C90.6629 88.4418 90.2138 88.1537 89.7855 87.8531C89.5244 87.6694 89.1734 87.6527 88.8935 87.8072L86.205 89.2976C85.4842 89.6963 84.5943 89.5502 84.0407 88.9407L82.3883 87.1204C81.8326 86.5088 81.7804 85.6112 82.2609 84.9412L84.047 82.4467C84.2308 82.1899 84.2517 81.8497 84.0992 81.5783C83.836 81.1149 83.5916 80.639 83.3722 80.163C83.2427 79.8812 82.9482 79.6954 82.6265 79.6913L79.5368 79.6474C78.7095 79.637 78.0118 79.0671 77.8405 78.2635L77.3287 75.8692C77.1553 75.0634 77.5627 74.2619 78.3168 73.9216L81.1182 72.6504C81.4106 72.5188 81.6007 72.2329 81.6049 71.926C81.6112 71.4042 81.6404 70.8698 81.6927 70.3354C81.7219 70.0265 81.5631 69.7238 81.2874 69.5589L78.6343 67.9933C77.922 67.5716 77.6024 66.7325 77.8593 65.9497L78.6239 63.6243C78.8808 62.8457 79.6245 62.3572 80.4581 62.4282L83.531 62.7142C83.8464 62.7455 84.1661 62.5889 84.329 62.3155C84.5964 61.8667 84.8868 61.4221 85.1939 60.9941C85.3777 60.7374 85.3944 60.395 85.2377 60.1195L83.7315 57.4539C83.3263 56.7358 83.4746 55.8486 84.0909 55.2996L85.9271 53.6652C86.5413 53.1183 87.4416 53.0661 88.1164 53.542L90.6379 55.3122C90.9011 55.4979 91.2499 55.5188 91.5236 55.3664C91.9853 55.1097 92.4657 54.8675 92.9525 54.6483C93.2366 54.5189 93.4246 54.2309 93.4288 53.9157L93.4685 50.8576C93.4789 50.0351 94.0534 49.3421 94.8639 49.173L97.2809 48.6679C98.0873 48.4967 98.8957 48.9016 99.2425 49.6469L100.529 52.4211C100.663 52.7112 100.953 52.8991 101.269 52.9033C101.804 52.9116 102.343 52.9408 102.873 52.993C103.182 53.0202 103.498 52.8657 103.661 52.5901L105.238 49.9662C105.66 49.2607 106.506 48.9476 107.292 49.2022L109.642 49.9621C110.429 50.2167 110.926 50.9661 110.849 51.7844L110.563 54.8279C110.534 55.1431 110.692 55.452 110.966 55.6127C111.422 55.8799 111.873 56.168 112.301 56.4707C112.562 56.6544 112.913 56.6732 113.195 56.5166L115.886 55.0262C116.606 54.6275 117.496 54.7736 118.05 55.3831L119.702 57.2034C120.258 57.815 120.31 58.7105 119.83 59.3826L118.044 61.8771C117.86 62.1339 117.841 62.4783 117.996 62.7518C118.255 63.2089 118.497 63.6807 118.716 64.1545C118.85 64.4405 119.145 64.6304 119.466 64.6346L122.556 64.6764C123.383 64.6889 124.081 65.2567 124.252 66.0603L124.764 68.4546C124.937 69.2604 124.53 70.0619 123.776 70.4043L120.975 71.6755C120.684 71.807 120.492 72.093 120.488 72.402C120.482 72.928 120.45 73.4624 120.4 73.9926C120.371 74.2994 120.53 74.6042 120.805 74.7691L123.458 76.3326C124.171 76.7543 124.49 77.5934 124.233 78.3762L123.469 80.7016C123.212 81.4802 122.466 81.9707 121.635 81.8977L118.562 81.6117C118.238 81.5804 117.927 81.739 117.764 82.0104C117.49 82.4675 117.2 82.9122 116.899 83.3338C116.717 83.5885 116.698 83.9308 116.855 84.2085L118.361 86.872C118.767 87.5901 118.62 88.4752 118.002 89.0263L116.166 90.6607C115.552 91.2076 114.651 91.2598 113.976 90.786L111.455 89.0137C111.192 88.828 110.841 88.8092 110.561 88.9636C110.097 89.2204 109.623 89.4584 109.147 89.6754C108.856 89.807 108.668 90.095 108.664 90.4102L108.624 93.4704C108.614 94.2929 108.039 94.9859 107.229 95.155L104.812 95.6601C104.689 95.6852 104.565 95.6977 104.444 95.6977L104.438 95.6956ZM99.1381 90.4081C99.1924 90.4081 99.2488 90.4102 99.3031 90.4165C99.8149 90.4645 100.329 90.4937 100.832 90.5C101.499 90.5104 102.111 90.9091 102.393 91.5166L103.68 94.2908C103.845 94.6456 104.229 94.8356 104.618 94.7563L107.035 94.2511C107.421 94.1697 107.693 93.8441 107.697 93.4558L107.736 90.3956C107.745 89.7256 108.146 89.1118 108.76 88.8342C109.213 88.6296 109.667 88.4 110.108 88.1558C110.692 87.8302 111.426 87.8698 111.977 88.256L114.499 90.0282C114.822 90.2558 115.253 90.2307 115.547 89.9698L117.384 88.3353C117.674 88.0765 117.745 87.659 117.553 87.3208L116.047 84.6552C115.717 84.0686 115.754 83.3401 116.143 82.7932C116.429 82.3924 116.707 81.9687 116.966 81.5345C117.308 80.9604 117.964 80.6306 118.639 80.6911L121.712 80.9771C122.113 81.0189 122.466 80.7809 122.587 80.4114L123.352 78.086C123.473 77.7186 123.323 77.322 122.984 77.1216L120.331 75.5561C119.748 75.2116 119.414 74.5604 119.477 73.8986C119.527 73.3956 119.554 72.8862 119.56 72.3853C119.569 71.7215 119.972 71.114 120.586 70.8343L123.387 69.563C123.745 69.4002 123.937 69.0224 123.855 68.6425L123.344 66.2482C123.262 65.8662 122.928 65.5969 122.533 65.5907L119.443 65.5489C118.769 65.5406 118.152 65.1419 117.87 64.5365C117.661 64.0856 117.432 63.6368 117.185 63.2026C116.855 62.6182 116.895 61.8876 117.285 61.3407L119.072 58.8462C119.297 58.531 119.272 58.1072 119.011 57.8192L117.359 55.9989C117.099 55.7129 116.663 55.6399 116.322 55.8277L113.632 57.3182C113.047 57.6438 112.311 57.6042 111.764 57.2201C111.355 56.9341 110.926 56.6585 110.492 56.4039C109.911 56.0636 109.575 55.4103 109.637 54.7402L109.924 51.6967C109.959 51.3105 109.725 50.9557 109.349 50.8346L106.999 50.0748C106.621 49.9516 106.218 50.1019 106.017 50.438L104.44 53.064C104.093 53.6401 103.439 53.9741 102.773 53.9073C102.267 53.8593 101.754 53.8301 101.244 53.8217C100.577 53.8134 99.9653 53.4147 99.6833 52.8051L98.3965 50.031C98.2314 49.6761 97.8471 49.4861 97.4585 49.5655L95.0415 50.0706C94.655 50.1499 94.3835 50.4797 94.3793 50.868L94.3396 53.9261C94.3312 54.5982 93.9322 55.2099 93.3243 55.4854C92.8606 55.6942 92.4031 55.9259 91.9623 56.1701C91.3815 56.4915 90.6504 56.4519 90.0989 56.0657L87.5774 54.2956C87.2599 54.0701 86.8191 54.0973 86.5287 54.354L84.6925 55.9885C84.4021 56.2473 84.3311 56.6648 84.5233 57.003L86.0295 59.6686C86.3595 60.2531 86.3219 60.9837 85.9313 61.5306C85.6409 61.9377 85.3631 62.3614 85.1082 62.7893C84.7635 63.3655 84.1097 63.6932 83.4349 63.6327L80.362 63.3467C79.9692 63.307 79.6078 63.5429 79.4867 63.9124L78.7221 66.2378C78.6009 66.6072 78.7513 67.0018 79.0897 67.2022L81.7428 68.7677C82.3256 69.1122 82.662 69.7634 82.5972 70.4252C82.5471 70.9324 82.5199 71.4417 82.5136 71.9385C82.5053 72.6023 82.1021 73.2098 81.4879 73.4895L78.6887 74.7608C78.3314 74.9236 78.1392 75.3014 78.2186 75.6792L78.7304 78.0735C78.8119 78.4555 79.1461 78.7248 79.541 78.729L82.6306 78.7728C83.3054 78.7811 83.9217 79.1778 84.1995 79.7789C84.4084 80.2319 84.6424 80.687 84.893 81.1274C85.221 81.7077 85.1792 82.4362 84.7865 82.9831L83.0004 85.4776C82.7748 85.7928 82.7998 86.2166 83.061 86.5046L84.7134 88.3249C84.9745 88.6109 85.409 88.6839 85.7495 88.4961L88.4381 87.0056C89.0251 86.6821 89.7584 86.7197 90.3057 87.1037C90.7131 87.3897 91.1413 87.6632 91.5779 87.9199C92.1587 88.2602 92.495 88.9135 92.4323 89.5836L92.1461 92.6271C92.1106 93.0133 92.3467 93.3681 92.7206 93.4892L95.0708 94.249C95.4468 94.3701 95.85 94.2198 96.0526 93.8858L97.6298 91.2598C97.9473 90.7317 98.5239 90.4081 99.1318 90.4081H99.1381ZM101.068 83.1293C100.849 83.1293 100.628 83.123 100.406 83.1105C94.3124 82.7577 89.6393 77.56 89.9903 71.5231C90.1595 68.5987 91.4693 65.9163 93.6774 63.9687C95.8855 62.0232 98.7286 61.0442 101.676 61.2175C104.628 61.3887 107.335 62.687 109.303 64.8747C111.271 67.0644 112.261 69.8803 112.092 72.8048C111.923 75.7293 110.613 78.4138 108.405 80.3592C106.364 82.1586 103.78 83.1293 101.068 83.1293ZM101.016 62.1151C98.5281 62.1151 96.1591 63.0064 94.2874 64.6555C92.2652 66.4382 91.064 68.8951 90.9094 71.5732C90.5877 77.1028 94.8723 81.8664 100.46 82.1899C103.168 82.3465 105.773 81.451 107.797 79.6662C109.819 77.8836 111.02 75.4266 111.175 72.7485C111.33 70.0703 110.423 67.4923 108.62 65.4863C106.815 63.4803 104.331 62.2883 101.624 62.1318C101.421 62.1193 101.219 62.1151 101.016 62.1151Z" fill="#008BCE"/>
<path d="M208.399 24.8398C208.23 24.8398 208.067 24.7459 207.988 24.5852C207.875 24.3576 207.967 24.0821 208.194 23.9673L211.386 22.3704C211.614 22.2577 211.89 22.3495 212.005 22.5771C212.118 22.8046 212.026 23.0801 211.798 23.1949L208.606 24.7918C208.539 24.8252 208.47 24.8398 208.401 24.8398H208.399Z" fill="#008BCE"/>
<path d="M200.964 28.5586C200.794 28.5586 200.631 28.4646 200.552 28.3039C200.439 28.0764 200.531 27.8008 200.759 27.686L203.951 26.0892C204.179 25.9764 204.454 26.0683 204.569 26.2958C204.682 26.5233 204.59 26.7989 204.362 26.9137L201.17 28.5106C201.104 28.544 201.035 28.5586 200.966 28.5586H200.964Z" fill="#008BCE"/>
<path d="M205.214 23.7822C205.045 23.7822 204.882 23.6882 204.803 23.5275L203.204 20.3379C203.092 20.1104 203.184 19.8348 203.411 19.72C203.639 19.6073 203.915 19.6991 204.03 19.9267L205.628 23.1163C205.74 23.3438 205.649 23.6193 205.421 23.7341C205.354 23.7675 205.285 23.7822 205.216 23.7822H205.214Z" fill="#008BCE"/>
<path d="M208.937 31.2119C208.768 31.2119 208.605 31.118 208.525 30.9572L206.927 27.7676C206.814 27.5401 206.906 27.2646 207.134 27.1497C207.362 27.037 207.637 27.1289 207.752 27.3543L209.35 30.5439C209.463 30.7714 209.371 31.047 209.144 31.1618C209.077 31.1952 209.008 31.2098 208.939 31.2098L208.937 31.2119Z" fill="#008BCE"/>
<path d="M259.208 266.735L184.242 267.204C183.755 267.204 183.596 267.655 183.596 268.089V331.823C183.596 337.924 141.001 353.778 140.587 352.973L140.535 359.717C140.533 360.974 141.636 362.086 143.046 362.086H206.857C209.774 362.086 212.654 361.433 215.295 360.329L249.854 345.788C256.075 343.17 260 337.549 260 331.416V267.617C260 267.185 259.695 266.732 259.21 266.732L259.208 266.735Z" fill="#1E1E1E"/>
<path d="M176.004 263.489V327.237C176.004 333.521 171.957 339.246 165.598 341.96L142.285 351.902C140.762 352.552 141.28 354.591 142.97 354.591H207.023C209.904 354.591 212.749 354.023 215.354 352.927L241.185 342.06C247.592 339.365 251.678 333.617 251.678 327.3V263.489C251.678 263.228 251.44 263.018 251.148 263.018H176.536C176.244 263.018 176.006 263.228 176.006 263.489H176.004Z" fill="white"/>
<path d="M207.024 355.051H142.97C141.799 355.051 141.115 354.283 140.959 353.521C140.783 352.667 141.245 351.847 142.106 351.479L165.419 341.537C171.571 338.913 175.547 333.3 175.547 327.238V263.49C175.547 262.976 175.992 262.557 176.537 262.557H251.148C251.694 262.557 252.139 262.974 252.139 263.49V327.3C252.139 333.769 247.908 339.729 241.363 342.484L215.533 353.352C212.888 354.464 209.947 355.053 207.024 355.053V355.051ZM176.464 263.5V327.238C176.464 333.669 172.269 339.614 165.778 342.382L142.465 352.325C141.997 352.525 141.769 352.903 141.859 353.335C141.941 353.731 142.315 354.13 142.968 354.13H207.022C209.823 354.13 212.641 353.567 215.173 352.502L241.004 341.635C247.208 339.026 251.217 333.398 251.217 327.298V263.488C251.217 263.5 251.192 263.475 251.146 263.475H176.535C176.495 263.475 176.472 263.49 176.464 263.498V263.5Z" fill="#1E1E1E"/>
<path d="M36.3555 299.613L344.609 300.285L349.961 300.298L359.913 300.319C362.742 300.319 365.065 298.112 365.424 295.303L391.199 94.0344C391.825 89.1373 388.253 84.5137 383.323 84.5137L63.9514 84.8038L36.3555 299.613Z" fill="#A0D2F4"/>
<path d="M371.343 84.4648C376.902 84.4648 381.422 90.0592 380.71 95.5825L354.752 295.308C354.39 298.116 352.003 300.22 349.176 300.22L346.743 300.312L32.0818 300.22C28.6913 300.22 26.0717 297.235 26.5062 293.868L52.9887 90.078C53.3501 87.2704 55.5123 84.4648 58.3387 84.4648H371.343Z" fill="white"/>
<path d="M346.758 300.773L32.0809 300.681C30.3365 300.681 28.6737 299.93 27.5185 298.619C26.3611 297.304 25.8243 295.55 26.0478 293.809L52.5324 90.0198C52.9126 87.064 55.1896 84.0059 58.3378 84.0059H371.34C373.995 84.0059 376.615 85.25 378.526 87.4209C380.546 89.715 381.532 92.7877 381.164 95.6412L355.206 295.369C354.816 298.398 352.223 300.681 349.175 300.681L346.76 300.773H346.758ZM58.3378 84.9264C55.7286 84.9264 53.767 87.6317 53.4453 90.1387L26.9628 293.928C26.7727 295.406 27.2281 296.895 28.212 298.011C29.1918 299.124 30.6018 299.763 32.083 299.763L346.744 299.857L349.159 299.765C351.764 299.765 353.963 297.826 354.296 295.254L380.254 95.5264C380.588 92.9317 379.683 90.1304 377.837 88.0304C376.101 86.0578 373.734 84.9264 371.342 84.9264H58.3378Z" fill="#A0D2F4"/>
<path d="M357.136 94.7169C362.223 94.7169 366.357 99.7142 365.707 104.647L341.959 283.035C341.629 285.544 339.444 287.42 336.858 287.42L334.631 287.504L46.7578 287.42C43.6556 287.42 41.2595 284.755 41.6564 281.747L65.8848 99.7289C66.2149 97.2198 68.1932 94.7148 70.7794 94.7148H357.138L357.136 94.7169Z" fill="white"/>
<path d="M334.647 287.963L46.7569 287.882C45.1232 287.882 43.5732 287.185 42.5078 285.97C41.4737 284.79 40.9974 283.229 41.2001 281.686L65.4285 99.6686C65.7795 97.0092 67.8769 94.2559 70.7785 94.2559H357.135C359.621 94.2559 362.059 95.4081 363.824 97.4183C365.646 99.4953 366.498 102.151 366.162 104.706L342.414 283.093C342.054 285.822 339.665 287.88 336.857 287.88L334.649 287.961L334.647 287.963ZM70.7764 95.1764C68.4116 95.1764 66.6318 97.5707 66.3372 99.7896L42.1088 281.807C41.9396 283.087 42.3365 284.383 43.1951 285.362C44.0871 286.379 45.3823 286.961 46.7527 286.961L334.626 287.045L336.834 286.963C339.199 286.963 341.196 285.25 341.497 282.976L365.247 104.589C365.55 102.299 364.777 99.9065 363.129 98.0299C361.539 96.218 359.354 95.1806 357.131 95.1806H70.7764V95.1764Z" fill="#A0D2F4"/>
<path d="M297.045 267.111L105.442 263.733C104.761 263.721 104.303 263.212 104.374 262.544L125.808 64.2376C125.893 63.4402 126.689 62.7493 127.502 62.7639L319.105 66.1414C319.786 66.1539 320.243 66.6632 320.172 67.3312L298.739 265.637C298.653 266.435 297.857 267.126 297.045 267.111Z" fill="white"/>
<path d="M297.071 267.572H297.038L105.435 264.195C104.971 264.187 104.56 264.005 104.275 263.684C103.996 263.366 103.87 262.945 103.918 262.496L125.352 64.1898C125.464 63.1503 126.455 62.2882 127.512 62.3069L319.114 65.6844C319.578 65.6928 319.99 65.8744 320.272 66.1958C320.552 66.5131 320.679 66.9348 320.629 67.3836L299.196 265.69C299.085 266.719 298.116 267.572 297.069 267.572H297.071ZM127.478 63.2254C126.912 63.2254 126.325 63.7368 126.267 64.2879L104.833 262.594C104.812 262.786 104.858 262.953 104.967 263.076C105.078 263.201 105.249 263.272 105.452 263.274L297.054 266.652C297.629 266.641 298.222 266.145 298.283 265.589L319.716 67.2834C319.737 67.0913 319.691 66.9243 319.582 66.8033C319.472 66.678 319.3 66.6071 319.098 66.605L127.495 63.2275H127.478V63.2254Z" fill="#1E1E1E"/>
<path d="M285.317 182.902H285.308L141.502 180.368C141.373 180.366 141.252 180.309 141.166 180.211C141.08 180.115 141.041 179.986 141.053 179.858L141.722 173.682C141.747 173.446 141.933 173.256 142.187 173.27L285.993 175.804C286.123 175.807 286.244 175.863 286.33 175.961C286.415 176.057 286.455 176.186 286.443 176.314L285.776 182.491C285.751 182.724 285.553 182.902 285.319 182.902H285.317ZM142.022 179.457L284.905 181.975L285.473 176.717L142.591 174.197L142.022 179.455V179.457Z" fill="#1E1E1E"/>
<path d="M246.442 194.4H246.433L140.188 192.527C140.058 192.525 139.937 192.469 139.851 192.371C139.766 192.275 139.726 192.145 139.739 192.018L140.407 185.841C140.432 185.603 140.629 185.424 140.873 185.43L247.118 187.302C247.248 187.304 247.369 187.361 247.455 187.459C247.54 187.555 247.58 187.684 247.568 187.812L246.899 193.988C246.874 194.222 246.676 194.4 246.442 194.4ZM140.708 191.617L246.03 193.473L246.598 188.214L141.276 186.359L140.708 191.617Z" fill="#1E1E1E"/>
<path d="M281.762 215.799H281.754L137.948 213.265C137.818 213.263 137.697 213.207 137.611 213.109C137.526 213.013 137.486 212.883 137.498 212.756L138.167 206.579C138.192 206.343 138.376 206.168 138.633 206.168L282.439 208.702C282.568 208.704 282.689 208.761 282.775 208.859C282.861 208.955 282.9 209.084 282.888 209.211L282.219 215.388C282.194 215.622 281.996 215.799 281.762 215.799ZM138.468 212.353L281.35 214.87L281.919 209.612L139.036 207.093L138.468 212.351V212.353Z" fill="#1E1E1E"/>
<path d="M242.887 227.294H242.879L136.631 225.421C136.502 225.419 136.38 225.363 136.295 225.265C136.209 225.169 136.169 225.039 136.182 224.912L136.85 218.735C136.876 218.5 137.07 218.333 137.316 218.324L243.562 220.197C243.691 220.199 243.812 220.255 243.898 220.353C243.984 220.449 244.023 220.579 244.011 220.706L243.345 226.883C243.319 227.116 243.121 227.294 242.887 227.294ZM137.151 224.511L242.473 226.367L243.042 221.109L137.719 219.253L137.151 224.511Z" fill="#1E1E1E"/>
<path d="M277.711 244.623H277.703L133.897 242.089C133.767 242.087 133.646 242.031 133.56 241.933C133.475 241.837 133.435 241.707 133.448 241.58L134.116 235.403C134.141 235.167 134.342 234.969 134.582 234.992L278.388 237.526C278.517 237.528 278.639 237.585 278.724 237.683C278.81 237.779 278.85 237.908 278.837 238.036L278.171 244.212C278.146 244.446 277.947 244.623 277.713 244.623H277.711ZM134.417 241.177L277.3 243.697L277.868 238.438L134.985 235.921L134.417 241.179V241.177Z" fill="#1E1E1E"/>
<path d="M238.836 256.119H238.828L132.582 254.246C132.453 254.244 132.332 254.188 132.246 254.09C132.16 253.994 132.121 253.864 132.133 253.737L132.802 247.56C132.827 247.324 133.038 247.137 133.267 247.149L239.513 249.021C239.642 249.024 239.764 249.08 239.849 249.178C239.935 249.274 239.975 249.403 239.962 249.531L239.294 255.707C239.269 255.941 239.07 256.119 238.836 256.119ZM133.1 253.336L238.422 255.192L238.991 249.934L133.669 248.078L133.1 253.336Z" fill="#1E1E1E"/>
<path d="M249.114 118.934H177.496L184.649 150.541C185.167 152.829 187.365 154.451 189.947 154.451H234.735C237.319 154.451 239.605 152.829 240.246 150.541L249.112 118.934H249.114Z" fill="white"/>
<path d="M234.737 154.911H189.948C187.132 154.911 184.77 153.155 184.201 150.644L177.049 119.036C177.017 118.9 177.051 118.756 177.138 118.648C177.226 118.539 177.358 118.475 177.498 118.475H249.116C249.26 118.475 249.396 118.541 249.481 118.656C249.569 118.771 249.596 118.919 249.559 119.059L240.693 150.667C239.991 153.166 237.545 154.913 234.739 154.913L234.737 154.911ZM178.072 119.393L185.1 150.439C185.572 152.531 187.567 153.99 189.948 153.99H234.737C237.131 153.99 239.214 152.521 239.805 150.416L248.508 119.393H178.072Z" fill="#1E1E1E"/>
<path d="M249.423 116.762H177.303C175.808 116.762 174.627 115.55 174.667 114.055C174.707 112.56 175.954 111.348 177.45 111.348H249.569C251.065 111.348 252.245 112.56 252.205 114.055C252.165 115.55 250.918 116.762 249.423 116.762Z" fill="white"/>
<path d="M249.424 117.224H177.304C176.456 117.224 175.666 116.892 175.079 116.293C174.495 115.692 174.183 114.892 174.206 114.045C174.254 112.306 175.708 110.891 177.451 110.891H249.57C250.418 110.891 251.208 111.223 251.795 111.822C252.379 112.423 252.691 113.222 252.668 114.07C252.62 115.809 251.166 117.224 249.426 117.224H249.424ZM177.451 111.807C176.203 111.807 175.161 112.821 175.128 114.068C175.111 114.665 175.328 115.228 175.74 115.65C176.149 116.072 176.705 116.303 177.304 116.303H249.424C250.671 116.303 251.713 115.289 251.747 114.043C251.763 113.446 251.546 112.882 251.134 112.46C250.725 112.039 250.169 111.807 249.57 111.807H177.451Z" fill="#1E1E1E"/>
<path d="M200.226 124.535H192.881C191.506 124.535 190.454 125.664 190.719 126.852L195.344 147.562C195.538 148.428 196.388 149.044 197.391 149.044H199.478C200.663 149.044 201.649 148.192 201.68 147.144L202.313 126.435C202.344 125.385 201.41 124.535 200.226 124.535Z" fill="white"/>
<path d="M199.479 149.505H197.392C196.166 149.505 195.14 148.748 194.898 147.662L190.272 126.953C190.126 126.304 190.293 125.619 190.728 125.076C191.231 124.45 192.036 124.074 192.884 124.074H200.229C200.966 124.074 201.664 124.358 202.144 124.853C202.568 125.291 202.794 125.857 202.775 126.448L202.142 147.157C202.103 148.451 200.908 149.503 199.481 149.503L199.479 149.505ZM192.882 124.997C192.311 124.997 191.774 125.243 191.444 125.654C191.181 125.982 191.083 126.372 191.169 126.754L195.794 147.464C195.94 148.115 196.611 148.587 197.392 148.587H199.479C200.415 148.587 201.196 147.934 201.221 147.132L201.854 126.423C201.864 126.082 201.733 125.755 201.482 125.496C201.173 125.178 200.718 124.997 200.229 124.997H192.884H192.882Z" fill="#1E1E1E"/>
<path d="M236.362 126.852C236.7 125.664 235.712 124.535 234.333 124.535H226.963C225.775 124.535 224.786 125.387 224.753 126.435L224.118 147.144C224.087 148.194 225.023 149.044 226.211 149.044H228.306C229.313 149.044 230.203 148.428 230.45 147.562L236.36 126.852H236.362Z" fill="white"/>
<path d="M228.309 149.505H226.214C225.474 149.505 224.772 149.219 224.292 148.724C223.868 148.288 223.644 147.722 223.661 147.132L224.296 126.424C224.336 125.13 225.533 124.078 226.966 124.078H234.336C235.184 124.078 235.974 124.452 236.446 125.078C236.862 125.629 236.993 126.322 236.805 126.98L230.895 147.689C230.59 148.758 229.527 149.505 228.309 149.505ZM226.966 124.997C226.026 124.997 225.24 125.65 225.217 126.452L224.582 147.161C224.572 147.499 224.703 147.827 224.952 148.086C225.261 148.405 225.721 148.589 226.214 148.589H228.309C229.105 148.589 229.822 148.104 230.012 147.439L235.921 126.729C236.03 126.345 235.957 125.957 235.713 125.633C235.412 125.237 234.898 124.999 234.336 124.999H226.966V124.997Z" fill="#1E1E1E"/>
<path d="M216.487 124.535H210.855C210.009 124.535 209.305 125.387 209.282 126.435L208.831 147.144C208.808 148.194 209.474 149.044 210.322 149.044H215.954C216.8 149.044 217.504 148.192 217.527 147.144L217.978 126.435C218.001 125.385 217.335 124.535 216.487 124.535Z" fill="white"/>
<path d="M215.953 149.505H210.321C209.849 149.505 209.393 149.307 209.04 148.948C208.6 148.497 208.355 147.837 208.37 147.136L208.821 126.427C208.85 125.13 209.761 124.076 210.854 124.076H216.486C216.958 124.076 217.413 124.274 217.766 124.634C218.207 125.084 218.451 125.744 218.437 126.445L217.986 147.155C217.956 148.451 217.045 149.505 215.953 149.505ZM210.856 124.997C210.269 124.997 209.759 125.661 209.742 126.447L209.291 147.157C209.281 147.612 209.429 148.032 209.7 148.305C209.826 148.434 210.037 148.587 210.323 148.587H215.955C216.542 148.587 217.052 147.923 217.068 147.136L217.52 126.427C217.53 125.972 217.382 125.552 217.112 125.276C216.987 125.149 216.776 124.995 216.49 124.995H210.858L210.856 124.997Z" fill="#1E1E1E"/>
<path d="M187.912 113.552C187.854 115.727 186.041 117.489 183.866 117.489C181.691 117.489 179.974 115.727 180.033 113.552C180.091 111.377 181.904 109.615 184.079 109.615C186.254 109.615 187.971 111.377 187.912 113.552Z" fill="#1E1E1E"/>
<path d="M183.929 115.128C183.543 115.128 183.158 114.986 182.862 114.7C182.243 114.103 182.241 113.107 182.856 112.473L210.406 84.046C211.02 83.4135 212.018 83.3822 212.635 83.9792C213.253 84.5762 213.255 85.5719 212.641 86.2065L185.091 114.633C184.771 114.963 184.349 115.128 183.929 115.128Z" fill="white"/>
<path d="M183.929 115.587C183.407 115.587 182.914 115.389 182.542 115.029C182.162 114.662 181.946 114.165 181.936 113.629C181.925 113.078 182.134 112.554 182.523 112.153L210.071 83.7264C210.86 82.9123 212.152 82.8768 212.952 83.6471C213.334 84.0165 213.549 84.5133 213.557 85.0477C213.568 85.5988 213.359 86.1227 212.97 86.5235L185.422 114.95C185.032 115.353 184.487 115.585 183.931 115.585L183.929 115.587ZM211.564 84.0103C211.266 84.0103 210.963 84.1292 210.733 84.3651L183.185 112.792C182.968 113.015 182.851 113.307 182.857 113.612C182.861 113.902 182.978 114.169 183.183 114.366C183.605 114.773 184.34 114.746 184.762 114.309L212.312 85.8827C212.53 85.6593 212.647 85.3671 212.64 85.0623C212.636 84.7722 212.519 84.505 212.314 84.3067C212.108 84.1063 211.838 84.0082 211.564 84.0082V84.0103Z" fill="#1E1E1E"/>
<path d="M238.99 113.55C238.931 115.725 240.646 117.487 242.823 117.487C245 117.487 246.811 115.725 246.87 113.55C246.928 111.375 245.213 109.613 243.036 109.613C240.859 109.613 239.048 111.375 238.99 113.55Z" fill="#1E1E1E"/>
<path d="M242.887 115.128C243.273 115.128 243.666 114.986 243.979 114.7C244.629 114.103 244.687 113.107 244.107 112.473L218.098 84.046C217.52 83.4135 216.523 83.3822 215.872 83.9792C215.222 84.5762 215.163 85.5719 215.744 86.2065L241.752 114.633C242.053 114.963 242.467 115.128 242.887 115.128Z" fill="white"/>
<path d="M242.887 115.586C242.325 115.586 241.788 115.353 241.412 114.941L215.404 86.5147C214.654 85.6964 214.725 84.4063 215.561 83.6403C215.972 83.2624 216.501 83.0725 217.054 83.0933C217.589 83.1163 218.08 83.3459 218.437 83.7363L244.446 112.163C245.196 112.981 245.125 114.271 244.289 115.037C243.903 115.39 243.405 115.586 242.887 115.586ZM216.962 84.0097C216.676 84.0097 216.401 84.1183 216.183 84.3166C215.722 84.7403 215.676 85.448 216.083 85.8947L242.091 114.321C242.484 114.751 243.219 114.77 243.666 114.361C244.128 113.937 244.174 113.23 243.765 112.783L217.756 84.3562C217.564 84.1475 217.299 84.0243 217.011 84.0118C216.994 84.0118 216.977 84.0118 216.96 84.0118L216.962 84.0097Z" fill="#1E1E1E"/>
<path d="M186.476 95.2725C191.861 93.0437 194.418 86.8748 192.188 81.4939C189.957 76.113 183.784 73.5578 178.399 75.7866C173.014 78.0154 170.457 84.1843 172.687 89.5652C174.918 94.9461 181.091 97.5014 186.476 95.2725Z" fill="#1E1E1E"/>
<path d="M181.315 91.8521C180.907 91.8751 180.533 91.6914 180.333 91.3658L176.46 85.9927C176.146 85.4855 176.343 84.7987 176.896 84.4584C177.45 84.1182 178.152 84.2518 178.465 84.759L181.342 88.5185L185.804 80.7261C186.119 80.175 186.823 79.9392 187.375 80.2001C187.926 80.461 188.119 81.1206 187.803 81.6717L182.334 91.2196C182.129 91.5787 181.745 91.8187 181.331 91.8479C181.325 91.8479 181.319 91.8479 181.313 91.8479L181.315 91.8521Z" fill="white"/>
<path d="M400.279 278.889L336.608 290.011L273.448 278.954C273.358 278.939 273.358 278.81 273.448 278.795L337.33 267.617L400.279 278.887V278.889Z" fill="white"/>
<path d="M336.608 290.471C336.581 290.471 336.556 290.469 336.528 290.464L273.369 279.407C273.11 279.361 272.922 279.138 272.922 278.875C272.922 278.612 273.11 278.389 273.369 278.343L337.251 267.164C337.305 267.156 337.358 267.156 337.412 267.164L400.36 278.435C400.58 278.474 400.741 278.664 400.739 278.887C400.739 279.111 400.578 279.301 400.358 279.34L336.687 290.462C336.662 290.466 336.635 290.469 336.608 290.469V290.471ZM275.658 278.875L336.608 289.544L397.638 278.883L337.328 268.085L275.658 278.875Z" fill="#040404"/>
<path d="M336.62 384.276V289.92L273.254 278.836V373.002L336.62 384.276Z" fill="#040404"/>
<path d="M312.653 294.069V285.523L298.594 283.559V292.059L312.653 294.069Z" fill="white"/>
<path d="M312.653 294.531C312.632 294.531 312.609 294.531 312.589 294.526L298.532 292.516C298.306 292.483 298.137 292.289 298.137 292.061V283.561C298.137 283.428 298.195 283.302 298.295 283.215C298.396 283.127 298.529 283.087 298.661 283.106L312.718 285.07C312.946 285.102 313.115 285.296 313.115 285.525V294.071C313.115 294.205 313.057 294.332 312.956 294.418C312.873 294.491 312.764 294.531 312.655 294.531H312.653ZM299.056 291.66L312.194 293.539V285.922L299.056 284.085V291.658V291.66Z" fill="#040404"/>
<path d="M336.619 384.275V289.919L400.539 278.85V372.947L336.619 384.275Z" fill="white"/>
<path d="M336.62 384.735C336.513 384.735 336.407 384.698 336.323 384.629C336.219 384.541 336.158 384.412 336.158 384.276V289.92C336.158 289.697 336.319 289.504 336.541 289.467L400.46 278.397C400.594 278.374 400.732 278.412 400.834 278.5C400.939 278.587 400.999 278.715 400.999 278.85V372.947C400.999 373.171 400.838 373.361 400.619 373.4L336.699 384.729C336.672 384.733 336.645 384.735 336.618 384.735H336.62ZM337.079 290.306V383.727L400.08 372.563V279.397L337.079 290.306Z" fill="#040404"/>
<path d="M390.816 200.825L339.149 209.851L287.974 200.892C287.886 200.877 287.886 200.75 287.974 200.735L339.734 191.68L390.816 200.827V200.825Z" fill="white"/>
<path d="M339.148 210.309C339.121 210.309 339.096 210.307 339.069 210.303L287.894 201.344C287.635 201.298 287.447 201.074 287.447 200.811C287.447 200.548 287.635 200.325 287.894 200.279L339.654 191.224C339.708 191.213 339.763 191.216 339.815 191.224L390.898 200.371C391.117 200.411 391.278 200.601 391.276 200.824C391.276 201.047 391.115 201.237 390.896 201.277L339.226 210.303C339.201 210.307 339.173 210.309 339.146 210.309H339.148ZM290.192 200.814L339.148 209.385L388.178 200.82L339.733 192.147L290.19 200.816L290.192 200.814Z" fill="#008BCE"/>
<path d="M339.158 286.346V209.775L391.029 200.793V277.153L339.158 286.346Z" fill="white"/>
<path d="M339.159 286.806C339.052 286.806 338.946 286.769 338.862 286.7C338.758 286.612 338.697 286.483 338.697 286.347V209.776C338.697 209.552 338.858 209.36 339.08 209.323L390.952 200.341C391.086 200.318 391.224 200.355 391.326 200.443C391.43 200.531 391.491 200.658 391.491 200.794V277.154C391.491 277.377 391.33 277.567 391.111 277.607L339.238 286.8C339.211 286.804 339.184 286.806 339.157 286.806H339.159ZM339.619 210.162V285.796L390.57 276.766V201.336L339.619 210.16V210.162Z" fill="#008BCE"/>
<path d="M339.159 286.345V209.774L287.738 200.779V277.196L339.159 286.345Z" fill="#008BCE"/>
<path d="M320.455 215.032V206.484L309.109 204.52V213.022L320.455 215.032Z" fill="white"/>
<path d="M320.456 215.491C320.428 215.491 320.401 215.489 320.374 215.485L309.029 213.474C308.809 213.437 308.648 213.245 308.648 213.021V204.519C308.648 204.384 308.709 204.254 308.811 204.169C308.916 204.081 309.054 204.045 309.185 204.066L320.531 206.031C320.752 206.068 320.913 206.26 320.913 206.484V215.03C320.913 215.165 320.852 215.295 320.748 215.382C320.664 215.453 320.56 215.489 320.451 215.489L320.456 215.491ZM309.57 212.635L319.994 214.483V206.872L309.57 205.066V212.635Z" fill="#008BCE"/>
<path d="M358.913 195.225L308.453 204.326L319.782 206.305L370.269 197.183L358.913 195.225Z" fill="white"/>
<path d="M319.782 206.764C319.755 206.764 319.73 206.761 319.703 206.757L308.374 204.778C308.155 204.739 307.994 204.549 307.994 204.327C307.994 204.104 308.153 203.912 308.372 203.875L358.83 194.775C358.883 194.765 358.937 194.765 358.991 194.775L370.347 196.733C370.567 196.771 370.727 196.961 370.729 197.184C370.729 197.408 370.571 197.6 370.351 197.639L319.866 206.761C319.839 206.766 319.812 206.768 319.785 206.768L319.782 206.764ZM311.084 204.317L319.78 205.837L367.623 197.193L358.914 195.692L311.084 204.317Z" fill="#008BCE"/>
<path d="M331.989 270.089V228.706L294.33 222.076V263.305L331.989 270.089Z" fill="white"/>
<path d="M331.989 270.548C331.962 270.548 331.935 270.546 331.908 270.542L294.249 263.758C294.03 263.718 293.871 263.528 293.871 263.305V222.076C293.871 221.94 293.932 221.811 294.036 221.723C294.141 221.635 294.276 221.598 294.412 221.623L332.071 228.253C332.29 228.29 332.451 228.482 332.451 228.706V270.089C332.451 270.225 332.391 270.354 332.286 270.442C332.203 270.51 332.098 270.548 331.992 270.548H331.989ZM294.79 262.921L331.53 269.538V229.09L294.79 222.623V262.921Z" fill="#008BCE"/>
<path d="M298.91 252.869V259.234L327.411 264.118V257.891L298.91 252.869Z" fill="#008BCE"/>
<path d="M326.035 238.928L320.152 230.424L314.303 236.851L317.307 237.379V252.465L322.997 253.44V238.383L326.035 238.928Z" fill="#008BCE"/>
<path d="M312.019 236.553L306.134 228.049L300.285 234.476L303.289 235.006V250.09L308.982 251.065V236.008L312.019 236.553Z" fill="#008BCE"/>
<path d="M227.932 325.082L266.875 331.885L305.384 325.145C305.461 325.13 305.461 325.017 305.384 325.005L266.434 318.189L227.934 325.082H227.932Z" fill="white"/>
<path d="M266.865 389.539V331.828L227.771 325.057V382.611L266.865 389.539Z" fill="#008BCE"/>
<path d="M266.865 389.54V331.829L305.623 325.049V382.645L266.865 389.54Z" fill="white"/>
<path d="M266.866 390C266.759 390 266.653 389.962 266.569 389.893C266.465 389.806 266.404 389.676 266.404 389.541V331.829C266.404 331.606 266.565 331.414 266.784 331.376L305.54 324.596C305.674 324.574 305.812 324.611 305.916 324.697C306.02 324.784 306.079 324.914 306.079 325.049V382.646C306.079 382.869 305.918 383.059 305.699 383.099L266.943 389.994C266.916 389.998 266.889 390 266.864 390H266.866ZM267.328 332.216V388.992L305.164 382.26V325.596L267.328 332.214V332.216Z" fill="#008BCE"/>
<path d="M253.808 320.656L292.277 327.417L281.746 329.396L243.281 322.635L253.808 320.656Z" fill="white"/>
<path d="M281.747 329.857C281.72 329.857 281.693 329.855 281.668 329.851L243.202 323.09C242.983 323.05 242.822 322.862 242.822 322.639C242.822 322.418 242.979 322.226 243.198 322.184L253.727 320.205C253.781 320.195 253.838 320.195 253.892 320.205L292.359 326.966C292.579 327.004 292.739 327.194 292.739 327.417C292.739 327.638 292.583 327.83 292.363 327.872L281.833 329.851C281.805 329.857 281.776 329.859 281.747 329.859V329.857ZM245.849 322.62L281.743 328.931L289.706 327.434L253.811 321.124L245.849 322.62Z" fill="#008BCE"/>
<path d="M266.874 332.344C266.847 332.344 266.822 332.342 266.794 332.338L227.851 325.535C227.632 325.497 227.471 325.305 227.471 325.082C227.471 324.859 227.629 324.669 227.849 324.629L266.349 317.736C266.404 317.726 266.456 317.726 266.51 317.736L305.46 324.552C305.713 324.596 305.899 324.815 305.899 325.074C305.899 325.333 305.715 325.552 305.46 325.598L266.951 332.34C266.924 332.344 266.899 332.346 266.872 332.346L266.874 332.344ZM230.571 325.076L266.874 331.417L303.116 325.074L266.433 318.655L230.571 325.076Z" fill="#008BCE"/>
<path d="M266.866 390C266.759 390 266.653 389.962 266.569 389.893C266.465 389.806 266.404 389.676 266.404 389.541V331.829C266.404 331.606 266.565 331.414 266.784 331.376L305.54 324.596C305.674 324.574 305.812 324.611 305.916 324.697C306.02 324.784 306.079 324.914 306.079 325.049V382.646C306.079 382.869 305.918 383.059 305.699 383.099L266.943 389.994C266.916 389.998 266.889 390 266.864 390H266.866ZM267.328 332.216V388.992L305.164 382.26V325.596L267.328 332.214V332.216Z" fill="#008BCE"/>
<path d="M266.866 389.999C266.839 389.999 266.812 389.997 266.785 389.993L227.689 383.065C227.469 383.027 227.309 382.835 227.309 382.612V325.059C227.309 324.924 227.369 324.794 227.474 324.708C227.578 324.621 227.714 324.583 227.848 324.606L266.944 331.376C267.165 331.413 267.326 331.605 267.326 331.829V389.54C267.326 389.676 267.265 389.805 267.161 389.893C267.077 389.962 266.973 389.999 266.864 389.999H266.866ZM228.232 382.226L266.407 388.991V332.215L228.232 325.604V382.226Z" fill="#008BCE"/>
<path d="M279.121 101.315L313.83 107.379L348.153 101.372C348.222 101.359 348.222 101.259 348.153 101.246L313.437 95.1719L279.121 101.315Z" fill="white"/>
<path d="M313.823 158.766V107.33L278.979 101.295V152.591L313.823 158.766Z" fill="black"/>
<path d="M313.824 158.765V107.328L348.368 101.285V152.619L313.824 158.765Z" fill="white"/>
<path d="M302.187 97.3711L336.472 103.398L327.088 105.161L292.803 99.135L302.187 97.3711Z" fill="black"/>
<path d="M313.833 107.838C313.806 107.838 313.78 107.836 313.753 107.832L279.044 101.768C278.825 101.728 278.664 101.539 278.664 101.315C278.664 101.092 278.823 100.902 279.042 100.862L313.359 94.7168C313.413 94.7064 313.465 94.7064 313.519 94.7168L348.235 100.791C348.485 100.835 348.667 101.052 348.667 101.307C348.667 101.561 348.485 101.779 348.233 101.822L313.912 107.83C313.885 107.834 313.86 107.836 313.833 107.836V107.838ZM281.762 101.309L313.833 106.912L345.845 101.307L313.44 95.6374L281.762 101.309Z" fill="black"/>
<path d="M313.827 159.227C313.72 159.227 313.614 159.189 313.53 159.12C313.426 159.032 313.365 158.903 313.365 158.767V107.329C313.365 107.106 313.526 106.913 313.745 106.876L348.289 100.833C348.425 100.81 348.561 100.847 348.665 100.933C348.77 101.021 348.831 101.15 348.831 101.286V152.62C348.831 152.843 348.67 153.033 348.45 153.073L313.906 159.218C313.879 159.222 313.852 159.225 313.825 159.225L313.827 159.227ZM314.286 107.715V158.218L347.909 152.236V101.833L314.286 107.713V107.715Z" fill="black"/>
<path d="M313.826 159.227C313.799 159.227 313.772 159.225 313.745 159.221L278.898 153.044C278.678 153.005 278.518 152.815 278.518 152.591V101.295C278.518 101.159 278.578 101.03 278.681 100.944C278.785 100.856 278.923 100.821 279.054 100.842L313.901 106.877C314.123 106.914 314.284 107.106 314.284 107.329V158.768C314.284 158.904 314.223 159.033 314.119 159.121C314.035 159.19 313.931 159.227 313.822 159.227H313.826ZM279.439 152.205L313.365 158.217V107.714L279.439 101.837V152.203V152.205Z" fill="black"/>
<path d="M373.615 46.8929C362.334 21.5119 334.538 5.27999 303.961 8.37774C273.375 11.4776 249.41 32.9781 243.467 60.1168L243.515 60.0897C249.753 52.8254 258.232 53.6312 266.732 57.662L266.941 57.7163C274.815 48.5858 285.427 50.3831 292.701 55.0736L292.797 55.0965L293.689 55.4556C304.268 48.8927 313.405 46.5151 324.345 51.8986C330.867 46.5527 340.341 43.5781 350.101 49.2705L350.157 49.2831L350.287 49.2183C355.689 43.8891 365.19 42.4968 373.45 46.8491L373.615 46.8929Z" fill="black"/>
<path d="M299.95 9.60352C278.352 16.1601 271.12 34.2164 267.027 57.2429C274.289 50.3022 282.914 48.5842 293.671 55.2056C292.263 36.8675 296.094 22.1239 299.952 9.6056L299.95 9.60352Z" fill="white"/>
<path d="M267.026 57.7017C266.953 57.7017 266.878 57.6829 266.809 57.6474C266.634 57.5535 266.54 57.3572 266.573 57.161C270.273 36.3493 276.862 16.1305 299.816 9.16261C299.979 9.11251 300.156 9.15843 300.275 9.27742C300.396 9.39849 300.438 9.57383 300.39 9.73665C296.613 21.9899 292.703 36.6165 294.127 55.1675C294.14 55.3408 294.056 55.5057 293.908 55.5954C293.76 55.6852 293.574 55.6852 293.427 55.5954C283.599 49.5461 275.067 50.1932 267.344 57.5743C267.256 57.6578 267.141 57.7017 267.026 57.7017ZM299.254 10.3023C277.923 17.2055 271.372 36.1907 267.722 55.9816C275.318 49.3311 283.655 48.7988 293.145 54.3534C291.925 36.4787 295.594 22.2696 299.254 10.3023Z" fill="black"/>
<path d="M309.215 8.67773C334.356 11.859 343.667 28.2829 349.596 48.9839C342.909 45.26 333.884 46.7212 324.344 51.898C321.237 34.3865 316.706 19.7891 309.213 8.67773H309.215Z" fill="white"/>
<path d="M324.345 52.3581C324.276 52.3581 324.209 52.3435 324.146 52.3122C324.013 52.2475 323.919 52.1243 323.894 51.9782C320.493 32.8051 315.707 19.1283 308.836 8.93537C308.736 8.78508 308.732 8.59094 308.826 8.43647C308.92 8.282 309.097 8.20268 309.275 8.22147C335.834 11.5843 344.565 29.7387 350.04 48.8554C350.092 49.0349 350.029 49.227 349.883 49.3418C349.737 49.4566 349.536 49.4733 349.373 49.3835C343.1 45.8892 334.523 46.8995 324.566 52.2997C324.497 52.3372 324.422 52.356 324.347 52.356L324.345 52.3581ZM310.158 9.27145C316.73 19.3663 321.362 32.7384 324.685 51.1954C334.205 46.1605 342.521 45.0939 348.855 48.0893C343.516 29.8953 334.942 12.8263 310.156 9.27145H310.158Z" fill="black"/>
<path d="M312.645 102.25C312.561 102.25 312.477 102.227 312.402 102.181L243.92 59.9749C243.705 59.8413 243.636 59.5574 243.77 59.3424C243.903 59.1274 244.185 59.0585 244.402 59.1921L312.586 101.214L372.338 45.5883C372.524 45.415 372.817 45.4255 372.988 45.6113C373.161 45.797 373.151 46.0872 372.965 46.2604L312.958 102.124C312.87 102.206 312.757 102.247 312.645 102.247V102.25Z" fill="black"/>
<path d="M312.645 102.249C312.526 102.249 312.409 102.203 312.321 102.115L266.802 56.9035C266.622 56.7239 266.62 56.4338 266.802 56.2543C266.981 56.0747 267.272 56.0727 267.451 56.2543L311.402 99.9066L292.946 53.4696C292.852 53.2337 292.967 52.9666 293.203 52.8726C293.439 52.7787 293.706 52.8935 293.8 53.1294L313.073 101.618C313.155 101.821 313.082 102.053 312.9 102.172C312.823 102.222 312.735 102.247 312.647 102.247L312.645 102.249Z" fill="black"/>
<path d="M312.645 102.249C312.582 102.249 312.517 102.237 312.457 102.21C312.256 102.12 312.145 101.899 312.196 101.686L323.896 51.794C323.955 51.5456 324.203 51.3953 324.45 51.4517C324.696 51.5101 324.851 51.7564 324.792 52.0049L313.637 99.5691L350.404 47.0284C350.55 46.8197 350.836 46.7696 351.045 46.9157C351.254 47.0618 351.304 47.3478 351.158 47.5565L313.021 102.055C312.933 102.18 312.791 102.251 312.645 102.251V102.249Z" fill="black"/>
<path d="M68.0352 358.642L69.1026 368.885L75.9881 369.697V357.553L68.0352 358.642Z" fill="#191919"/>
<path d="M75.9872 370.157C75.9684 370.157 75.9516 370.157 75.9328 370.153L69.0474 369.341C68.8344 369.316 68.6651 369.147 68.6443 368.932L67.5747 358.689C67.5496 358.443 67.723 358.219 67.9695 358.186L75.9245 357.096C76.0561 357.078 76.1898 357.117 76.2901 357.205C76.3903 357.293 76.4467 357.418 76.4467 357.551V369.696C76.4467 369.828 76.3903 369.953 76.2922 370.041C76.2086 370.116 76.0979 370.157 75.9872 370.157ZM69.5216 368.473L75.5276 369.181V358.08L68.5377 359.038L69.5216 368.471V368.473Z" fill="#F9F9F9"/>
<path d="M77.0704 387.53C74.2001 387.937 69.4936 388.294 63.9681 387.524C62.1611 387.271 60.962 385.505 61.3986 383.725C62.6144 378.752 64.7097 369.319 68.307 364.946L69.2011 367.317L70.4357 365.086C70.6049 364.781 70.9078 364.575 71.2525 364.531L73.9557 364.186C74.5197 364.115 75.0462 364.491 75.1632 365.051L75.5935 367.107L77.2417 364.41L77.9729 374.482C78.1296 376.64 78.4534 378.782 78.9422 380.888L79.6796 384.065C79.899 385.745 78.7396 387.294 77.0704 387.532V387.53Z" fill="#191919"/>
<path d="M70.5641 388.436C68.5482 388.436 66.3025 388.31 63.9064 387.976C62.9183 387.839 62.0283 387.285 61.4664 386.457C60.9024 385.626 60.7143 384.588 60.9525 383.612L61.2136 382.534C62.4545 377.399 64.5352 368.805 67.9528 364.649C68.0573 364.522 68.2202 364.457 68.3831 364.489C68.5461 364.516 68.6798 364.626 68.7383 364.781L69.2814 366.219L70.0335 364.858C70.2737 364.426 70.7082 364.13 71.195 364.067L73.8982 363.722C74.6941 363.624 75.4482 364.161 75.6132 364.948L75.8054 365.868L76.8478 364.163C76.9523 363.992 77.1549 363.908 77.3492 363.956C77.5435 364.004 77.6855 364.171 77.7002 364.37L78.4313 374.441C78.5859 376.569 78.9097 378.7 79.3902 380.779L80.1276 383.956C80.3887 385.924 79.0413 387.711 77.1361 387.981C75.4461 388.221 73.1983 388.434 70.562 388.434L70.5641 388.436ZM68.1701 365.883C65.1723 370.085 63.2692 377.955 62.1077 382.754L61.8466 383.833C61.669 384.557 61.809 385.327 62.2268 385.943C62.6425 386.557 63.3006 386.966 64.0317 387.068C69.4569 387.824 74.082 387.49 77.0066 387.075C78.4167 386.876 79.4111 385.551 79.2231 384.123L78.494 380.99C78.001 378.867 77.6709 376.688 77.5142 374.512L76.8855 365.87L75.9851 367.344C75.8869 367.505 75.6989 367.591 75.5151 367.557C75.3291 367.526 75.1808 367.382 75.1432 367.198L74.7129 365.142C74.6439 364.814 74.341 364.595 74.0151 364.641L71.3119 364.985C71.1135 365.01 70.9359 365.132 70.8377 365.309L69.6031 367.54C69.5154 367.697 69.3483 367.789 69.1665 367.776C68.9869 367.764 68.8323 367.647 68.7696 367.48L68.168 365.885L68.1701 365.883Z" fill="#F9F9F9"/>
<path d="M70.7765 385.395C69.0676 385.395 67.035 385.217 64.7496 384.693C64.501 384.637 64.3465 384.391 64.4049 384.142C64.4614 383.894 64.7079 383.737 64.9564 383.798C71.6518 385.332 76.1912 383.75 76.2372 383.733C76.4753 383.645 76.7385 383.771 76.8263 384.009C76.9119 384.247 76.7887 384.51 76.5505 384.597C76.421 384.645 74.286 385.395 70.7785 385.395H70.7765Z" fill="#F9F9F9"/>
<path d="M67.452 377.525C67.2055 377.525 67.0008 377.329 66.9924 377.08C66.9841 376.825 67.1825 376.615 67.4374 376.606L73.8904 376.391C74.1473 376.362 74.3562 376.581 74.3646 376.836C74.373 377.091 74.1745 377.301 73.9196 377.31L67.4667 377.525C67.4667 377.525 67.4562 377.525 67.4499 377.525H67.452Z" fill="#F9F9F9"/>
<path d="M100.281 353.189L101.313 368.135H109.598L109.985 353.189H100.281Z" fill="#191919"/>
<path d="M109.598 368.595H101.313C101.071 368.595 100.87 368.407 100.853 368.167L99.8213 353.221C99.813 353.094 99.8568 352.968 99.9446 352.877C100.032 352.783 100.153 352.73 100.281 352.73H109.982C110.106 352.73 110.225 352.781 110.312 352.868C110.4 352.958 110.446 353.077 110.444 353.2L110.06 368.146C110.053 368.395 109.849 368.595 109.6 368.595H109.598ZM101.743 367.677H109.151L109.512 353.649H100.776L101.745 367.677H101.743Z" fill="#F9F9F9"/>
<path d="M99.1488 376.574C99.1279 377.987 100.089 379.229 101.457 379.551C106.22 380.666 116.949 383.148 120.01 383.607C123.981 384.202 128.863 382.978 130.962 380.641C133.062 378.305 126.262 372.723 123.037 370.694C118.244 367.678 113.638 361.718 111.708 361.449C109.778 361.181 106.172 366.815 106.172 366.815L100.281 364.327C100.281 364.327 99.2532 369.406 99.1488 376.576V376.574Z" fill="#191919"/>
<path d="M122.087 384.215C121.362 384.215 120.643 384.165 119.944 384.061C116.846 383.598 105.912 381.065 101.353 379.999C99.7866 379.631 98.6648 378.189 98.6899 376.569C98.7964 369.438 99.8221 364.287 99.8326 364.237C99.8597 364.101 99.9475 363.986 100.069 363.921C100.19 363.857 100.334 363.85 100.463 363.905L105.999 366.245C106.954 364.802 109.839 360.73 111.773 360.997C112.889 361.151 114.46 362.652 116.635 364.727C118.65 366.65 120.934 368.829 123.284 370.309C125.883 371.943 131.381 376.275 131.795 379.224C131.889 379.905 131.726 380.485 131.308 380.951C129.524 382.938 125.749 384.22 122.089 384.22L122.087 384.215ZM99.609 376.58C99.5923 377.772 100.413 378.832 101.562 379.101C106.108 380.166 117.013 382.692 120.079 383.151C124.038 383.744 128.669 382.506 130.621 380.333C130.852 380.076 130.936 379.752 130.88 379.348C130.562 377.074 125.977 373.087 122.791 371.083C120.361 369.553 118.043 367.341 115.995 365.389C114.18 363.656 112.465 362.02 111.644 361.905C110.514 361.755 107.99 364.827 106.559 367.063C106.438 367.253 106.198 367.326 105.993 367.238L100.631 364.973C100.369 366.474 99.6926 370.885 99.609 376.582V376.58Z" fill="#F9F9F9"/>
<path d="M122.027 380.551C114.807 380.551 105.48 377.253 102.079 375.949C101.841 375.857 101.724 375.592 101.813 375.354C101.905 375.118 102.171 374.999 102.409 375.089C105.626 376.322 121.987 382.271 128.12 378.255C128.334 378.115 128.618 378.176 128.758 378.387C128.898 378.6 128.837 378.883 128.626 379.023C126.948 380.123 124.623 380.549 122.029 380.549L122.027 380.551Z" fill="#F9F9F9"/>
<path d="M112.825 372.419C112.706 372.419 112.587 372.373 112.497 372.281C112.319 372.1 112.321 371.809 112.503 371.632L115.935 368.273C116.117 368.096 116.408 368.1 116.585 368.28C116.763 368.461 116.758 368.751 116.579 368.929L113.147 372.287C113.057 372.375 112.942 372.419 112.825 372.419Z" fill="#F9F9F9"/>
<path d="M65.6851 255.751C65.6851 255.751 63.1177 302.476 61.7745 318.605C60.4312 334.735 64.9163 360.663 64.9163 360.663L77.7053 359.987C77.7053 359.987 78.5827 328.462 79.5311 319.708C79.5311 319.708 84.9333 307.841 86.5335 297.255C88.1337 286.67 93.5882 269.952 93.5882 269.952C93.5882 269.952 98.0169 353.397 98.443 359.953C98.443 359.953 108.47 360.402 112.066 358.127C112.066 358.127 118.437 327.7 117.522 311.145C116.607 294.59 117.612 253.461 117.612 253.461L65.683 255.751H65.6851Z" fill="#191919"/>
<path d="M64.9156 361.122C64.6941 361.122 64.4999 360.961 64.4622 360.74C64.4163 360.481 59.9834 334.57 61.3162 318.566C62.6427 302.626 65.1997 256.191 65.2268 255.723C65.2394 255.488 65.4295 255.3 65.6655 255.289L117.594 252.999C117.726 252.989 117.845 253.041 117.937 253.131C118.029 253.221 118.079 253.344 118.075 253.471C118.064 253.882 117.08 294.773 117.985 311.12C118.892 327.544 112.585 357.916 112.52 358.221C112.495 358.342 112.422 358.448 112.315 358.515C108.639 360.84 98.8413 360.429 98.4255 360.412C98.1916 360.402 98.0015 360.216 97.9868 359.982C97.6066 354.146 94.0114 286.528 93.2657 272.506C91.7093 277.523 88.2081 289.275 86.9902 297.324C85.4611 307.433 80.4245 318.839 79.9816 319.828C79.0478 328.564 78.1746 359.684 78.1662 359.999C78.16 360.239 77.9699 360.433 77.7296 360.446L64.9406 361.122C64.9406 361.122 64.9239 361.122 64.9156 361.122ZM66.1209 256.191C65.8619 260.875 63.4929 303.501 62.2312 318.643C60.9987 333.439 64.7443 356.832 65.2999 360.181L77.2554 359.548C77.364 355.757 78.1913 327.775 79.0729 319.657C79.0791 319.609 79.0917 319.561 79.1105 319.515C79.1648 319.396 84.5043 307.582 86.0773 297.184C87.665 286.684 93.0944 269.974 93.1487 269.807C93.2176 269.597 93.4307 269.463 93.6459 269.494C93.8652 269.523 94.0323 269.705 94.0449 269.926C94.0887 270.747 98.3232 350.533 98.8747 359.506C100.751 359.557 108.511 359.65 111.655 357.836C112.196 355.198 117.924 326.786 117.062 311.17C116.209 295.765 117.03 258.654 117.139 253.941L66.1188 256.191H66.1209Z" fill="#F9F9F9"/>
<path d="M77.1767 320.165H73.2682C73.0133 320.165 72.8086 319.958 72.8086 319.705C72.8086 319.453 73.0154 319.246 73.2682 319.246H77.1767C77.4316 319.246 77.6363 319.453 77.6363 319.705C77.6363 319.958 77.4295 320.165 77.1767 320.165Z" fill="#F9F9F9"/>
<path d="M105.02 344.434H105.012C104.757 344.43 104.556 344.219 104.561 343.966C104.703 336.236 113.128 322.393 113.487 321.806C113.619 321.591 113.903 321.52 114.12 321.654C114.337 321.785 114.406 322.069 114.272 322.286C114.187 322.428 105.618 336.502 105.482 343.983C105.478 344.233 105.273 344.434 105.022 344.434H105.02Z" fill="#F9F9F9"/>
<path d="M125.495 181.832C126.203 181.776 132.098 191.887 134.868 196.713C135.656 198.087 137.412 198.531 138.756 197.703L160.425 184.335C162.194 183.243 163.713 181.782 164.856 180.041C166.665 177.286 167.743 174.484 170.164 172.526C172.134 170.934 174.129 169.165 174.727 168.702C175.1 168.412 176.839 169.648 175.529 171.844C175.126 172.518 173.624 173.885 173.212 174.505C172.556 175.495 172.556 176.814 173.285 177.749C174.062 178.747 174.712 180.348 173.839 182.573C172.548 185.867 169.621 186.681 167.964 186.873C167.133 186.969 166.366 187.372 165.815 188.005L145.819 210.902C142.716 214.454 137.529 215.256 133.51 212.803C127.009 208.835 118.638 200.838 112.607 190.729L125.492 181.824L125.495 181.832Z" fill="#FFAB99"/>
<path d="M138.539 214.688C136.734 214.688 134.912 214.202 133.272 213.202C127.346 209.584 118.701 201.844 112.215 190.971C112.092 190.764 112.15 190.495 112.349 190.357L125.234 181.452C125.3 181.406 125.378 181.379 125.459 181.373C125.894 181.343 126.548 181.295 135.269 196.483C135.589 197.039 136.105 197.431 136.721 197.588C137.337 197.744 137.975 197.646 138.516 197.312L160.185 183.944C161.9 182.886 163.383 181.45 164.474 179.79C164.996 178.995 165.464 178.185 165.913 177.402C167.037 175.45 168.098 173.609 169.878 172.171C171.017 171.253 172.14 170.292 173.043 169.52C173.682 168.973 174.188 168.543 174.449 168.341C174.775 168.088 175.278 168.184 175.729 168.583C176.421 169.192 176.887 170.474 175.928 172.081C175.686 172.486 175.138 173.065 174.608 173.622C174.194 174.056 173.768 174.507 173.599 174.762C173.032 175.615 173.055 176.703 173.651 177.469C174.466 178.517 175.234 180.281 174.269 182.744C172.888 186.268 169.759 187.132 168.019 187.332C167.3 187.416 166.642 187.762 166.162 188.309L146.166 211.206C144.175 213.486 141.375 214.684 138.536 214.684L138.539 214.688ZM113.226 190.87C119.599 201.406 127.985 208.899 133.751 212.419C137.582 214.759 142.512 213.997 145.472 210.607L165.47 187.71C166.101 186.99 166.968 186.533 167.914 186.424C169.45 186.247 172.207 185.489 173.415 182.412C174.062 180.759 173.899 179.285 172.926 178.037C172.086 176.958 172.049 175.44 172.832 174.256C173.045 173.935 173.48 173.476 173.941 172.991C174.413 172.493 174.948 171.929 175.138 171.612C175.698 170.674 175.592 170.029 175.406 169.654C175.259 169.357 175.038 169.192 174.921 169.14C174.656 169.353 174.2 169.741 173.64 170.219C172.78 170.954 171.604 171.958 170.457 172.885C168.811 174.215 167.791 175.985 166.711 177.859C166.254 178.655 165.781 179.475 165.242 180.293C164.079 182.066 162.498 183.598 160.668 184.725L138.998 198.093C138.242 198.558 137.352 198.696 136.493 198.479C135.631 198.26 134.912 197.715 134.469 196.941C128.973 187.37 126.278 183.205 125.497 182.385L113.226 190.866V190.87Z" fill="#242424"/>
<path d="M51.1222 200.635C51.1222 200.635 49.6808 174.016 69.8189 166.539C85.4135 160.749 105.326 163.247 111.568 165.41C126.935 170.735 134.497 191.023 134.497 191.023L116.49 193.559C116.49 193.559 121.917 251.846 119.563 264.847C119.563 264.847 105.071 266.546 98.9232 264.112C92.7773 261.678 72.566 258.265 62.9043 262.73L64.6591 200.385L51.1201 200.635H51.1222Z" fill="#008BCE"/>
<path d="M76.222 250.342C76.0027 250.342 75.8084 250.185 75.7687 249.962C75.7248 249.711 75.892 249.473 76.1406 249.429C99.1407 245.34 105.857 229.327 105.922 229.167C106.018 228.931 106.285 228.818 106.521 228.912C106.757 229.006 106.87 229.275 106.776 229.509C106.709 229.676 99.828 246.152 76.3014 250.333C76.2743 250.337 76.2471 250.339 76.2199 250.339L76.222 250.342Z" fill="white"/>
<path d="M119.187 222.078H89.6836L98.9254 188.932H128.429L119.187 222.078Z" fill="white"/>
<path d="M119.187 222.538H89.684C89.5398 222.538 89.404 222.471 89.3184 222.356C89.2306 222.241 89.2035 222.093 89.2411 221.955L98.4829 188.807C98.5372 188.608 98.719 188.471 98.9258 188.471H128.429C128.573 188.471 128.709 188.537 128.795 188.652C128.882 188.767 128.909 188.915 128.872 189.053L119.63 222.202C119.576 222.4 119.394 222.538 119.187 222.538ZM90.2898 221.619H118.838L127.823 189.391H99.2747L90.2898 221.619Z" fill="#008BCE"/>
<path d="M54.6172 200.661L67.5921 200.072C67.5921 200.072 67.6903 211.063 68.8601 211.259C73.0298 211.958 81.764 211.994 87.4503 211.303C89.4307 211.063 90.9975 209.539 91.3693 207.568C91.6513 206.08 92.4514 204.333 94.484 203.074C96.4477 201.859 94.5112 205.683 96.3475 208.146C97.3335 209.47 100.459 208.883 104.718 207.89C108.978 206.898 110.06 211.476 105.286 214.244C100.11 217.243 96.8217 216.907 95.1713 217.258C91.8832 217.957 62.8124 222.541 58.3252 220.087C54.8574 218.191 54.6172 200.659 54.6172 200.659V200.661Z" fill="#FFAB99"/>
<path d="M63.9641 221.27C61.2338 221.27 59.1197 221.049 58.1044 220.494C54.505 218.527 54.1833 202.492 54.1583 200.669C54.1541 200.421 54.3484 200.214 54.597 200.204L67.5719 199.615C67.6951 199.603 67.8184 199.655 67.9082 199.74C67.998 199.826 68.0503 199.945 68.0523 200.07C68.0941 204.738 68.4722 210.104 69.0133 210.818C73.2456 211.511 81.8002 211.526 87.3946 210.848C89.1619 210.633 90.5783 209.282 90.9167 207.485C91.301 205.454 92.45 203.794 94.2403 202.686C94.562 202.487 95.0362 202.247 95.4478 202.479C95.9345 202.753 95.9282 203.393 95.922 204.278C95.9136 205.335 95.9011 206.781 96.7158 207.873C97.5451 208.986 100.783 208.336 104.614 207.445C106.946 206.9 108.245 207.888 108.684 208.992C109.277 210.486 108.538 212.891 105.517 214.645C101.362 217.054 98.4371 217.352 96.5027 217.548C96.016 217.598 95.594 217.64 95.266 217.711C93.622 218.062 74.3424 221.27 63.9641 221.27ZM55.0858 201.101C55.1902 206.203 55.9736 218.281 58.5452 219.686C62.8444 222.034 91.7251 217.523 95.0738 216.809C95.4498 216.73 95.8948 216.684 96.4087 216.632C98.2658 216.442 101.071 216.156 105.055 213.847C107.606 212.369 108.281 210.47 107.829 209.33C107.451 208.374 106.298 207.996 104.823 208.339C100.38 209.374 97.144 209.985 95.9784 208.422C94.9798 207.082 94.9944 205.389 95.0028 204.27C95.0049 203.953 95.0091 203.542 94.9715 203.333C94.9171 203.356 94.8357 203.395 94.725 203.464C93.1373 204.448 92.1596 205.857 91.8212 207.652C91.4076 209.844 89.6737 211.495 87.5053 211.758C81.8085 212.449 73.0597 212.428 68.7856 211.71C68.4075 211.647 67.2669 211.455 67.1394 200.552L55.0879 201.099L55.0858 201.101Z" fill="#0D0D0D"/>
<path d="M99.2951 165.887C99.2951 165.887 95.936 163.82 95.9694 162.614L95.0105 156.414C95.0001 155.846 95.351 155.337 95.8796 155.151L99.8529 153.788C100.358 153.609 100.686 153.11 100.651 152.567L100.342 147.641L101.898 146.263C102.019 146.155 102.036 145.969 101.931 145.843L99.4727 142.848C98.6684 141.717 97.862 139.009 97.2019 139.193C97.2019 139.193 83.1867 137.575 82.5036 144.637C82.4054 145.66 82.7125 146.681 83.3058 147.516L84.5466 149.265C85.7938 151.02 86.4497 153.172 86.2283 155.325C86.1823 155.771 85.5995 158.65 85.2109 160.554C84.9895 161.635 84.39 162.595 83.5188 163.265C82.4242 164.109 81.0914 165.181 81.3087 165.25C81.3087 165.25 82.8608 166.39 85.3112 167.398C89.6626 169.191 94.6115 168.745 98.6308 166.292L99.2972 165.885L99.2951 165.887Z" fill="#FFAB99"/>
<path d="M90.8394 168.945C88.8966 168.945 86.958 168.575 85.1363 167.824C82.6629 166.805 81.1024 165.669 81.0377 165.621C80.9353 165.546 80.8539 165.427 80.833 165.306C80.7786 164.993 80.7473 164.82 83.2395 162.901C84.0229 162.298 84.564 161.432 84.7624 160.461C85.598 156.385 85.7547 155.464 85.7735 155.278C85.9761 153.31 85.4079 151.268 84.1754 149.531L82.9345 147.782C82.2577 146.828 81.9422 145.697 82.0509 144.593C82.1908 143.146 82.8551 141.935 84.025 140.99C87.9273 137.838 96.2562 138.629 97.1858 138.729C97.9065 138.625 98.3891 139.65 98.9865 140.933C99.2727 141.551 99.5715 142.188 99.8514 142.582L102.291 145.551C102.553 145.87 102.517 146.334 102.208 146.607L100.819 147.836L101.115 152.539C101.161 153.285 100.708 153.976 100.01 154.222L96.0348 155.585C95.7047 155.702 95.4812 156.019 95.477 156.378L96.4296 162.542C96.4338 162.57 96.4359 162.597 96.4359 162.626C96.4212 163.19 98.0298 164.563 99.5443 165.494C99.6801 165.578 99.7637 165.726 99.7637 165.886C99.7637 166.047 99.6801 166.195 99.5422 166.279L98.8758 166.684C96.4212 168.181 93.6303 168.942 90.8456 168.942L90.8394 168.945ZM81.9548 165.133C82.546 165.519 83.8035 166.281 85.4852 166.972C89.6507 168.688 94.4743 168.287 98.3912 165.899L98.4309 165.874C97.3195 165.127 95.5313 163.755 95.5104 162.647L94.5578 156.483C94.5536 156.462 94.5536 156.441 94.5516 156.42C94.539 155.654 95.0111 154.967 95.7277 154.715L99.7031 153.349C100.01 153.241 100.213 152.93 100.192 152.592L99.8827 147.665C99.8744 147.523 99.9308 147.386 100.037 147.292L101.483 146.014L99.1182 143.136C98.7693 142.647 98.4538 141.971 98.1509 141.315C97.8919 140.758 97.4636 139.84 97.2297 139.647C97.2046 139.647 97.1775 139.647 97.1524 139.645C97.0646 139.635 88.3513 138.673 84.6015 141.702C83.6176 142.497 83.0807 143.47 82.9638 144.678C82.8781 145.561 83.1351 146.473 83.6824 147.246L84.9233 148.995C86.2853 150.913 86.912 153.176 86.6864 155.368C86.6488 155.727 86.3041 157.501 85.6607 160.641C85.4184 161.826 84.7561 162.887 83.7994 163.624C82.7423 164.438 82.2159 164.887 81.9548 165.129V165.133Z" fill="black"/>
<path d="M97.6684 128.446C94.4743 128.281 98.5124 131.571 86.6822 128.173C81.9715 126.82 84.3906 132.343 83.1685 131.995C78.652 130.711 78.8066 130.749 76.6111 131.348C75.1571 131.744 74.2296 134.462 74.52 136.485C74.9022 139.157 77.9 143.396 80.5865 147.88C81.9778 150.201 84.4386 150.412 87.4176 146.958C87.7351 146.59 86.114 144.423 86.9601 143.49C89.1577 141.063 90.1333 144.73 91.909 143.597C93.6115 142.509 94.3155 141.808 96.1163 140.163C98.2951 138.174 101.951 141.269 103.213 136.794C103.871 134.46 102.043 128.667 97.6705 128.444L97.6684 128.446Z" fill="black"/>
<path d="M93.0046 151.153C90.8153 151.153 88.766 150.005 87.7716 148.093L86.6749 145.984C86.5579 145.759 86.6456 145.481 86.8712 145.364C87.0968 145.247 87.3747 145.335 87.4917 145.56L88.5884 147.669C89.6308 149.673 92.0687 150.675 94.3875 150.053L96.3742 149.458C96.6186 149.385 96.8735 149.522 96.9466 149.767C97.0197 150.011 96.8818 150.266 96.6374 150.339L94.6382 150.936C94.0951 151.082 93.5436 151.153 93.0046 151.153Z" fill="black"/>
<path d="M86.0095 140.792C85.7881 140.792 85.5917 140.631 85.5562 140.406C85.5228 140.193 84.754 135.177 87.5658 131.943C89.1096 130.169 91.4243 129.288 94.4241 129.351C94.6789 129.355 94.8795 129.566 94.8753 129.818C94.8711 130.069 94.6664 130.269 94.4157 130.269H94.4074C91.677 130.213 89.6193 130.983 88.2636 132.542C85.7358 135.448 86.4586 140.212 86.4649 140.26C86.5046 140.51 86.3333 140.746 86.0826 140.786C86.0576 140.79 86.0346 140.792 86.0095 140.792Z" fill="#FFAB99"/>
<path d="M92.4961 143.652C92.7802 141.569 91.3388 139.684 89.277 139.444C89.0513 139.416 88.2116 139.398 87.9922 139.41C86.2019 139.521 85.2807 140.922 85.0258 142.777C84.7521 144.777 85.5752 146.645 87.5076 147.002C87.5869 147.017 88.1593 147.059 88.2429 147.059C90.5032 147.065 92.212 145.735 92.4982 143.652H92.4961Z" fill="#FFAB99"/>
<path d="M88.259 147.517H88.2402C88.142 147.517 87.5404 147.473 87.4234 147.452C85.3803 147.076 84.2335 145.173 84.5698 142.714C84.8811 140.436 86.1178 139.065 87.9624 138.95C88.2172 138.935 89.0863 138.956 89.3286 138.986C90.442 139.115 91.4301 139.674 92.1153 140.555C92.811 141.453 93.1076 142.574 92.951 143.714C92.6397 145.991 90.7533 147.517 88.2569 147.517H88.259ZM88.2193 139.862C88.1316 139.862 88.0626 139.862 88.0188 139.866C86.241 139.977 85.6561 141.543 85.4806 142.837C85.2592 144.45 85.8253 146.223 87.5905 146.546C87.6678 146.557 88.165 146.594 88.2465 146.596H88.2632C90.3083 146.596 91.7916 145.417 92.0422 143.586C92.1634 142.693 91.9336 141.816 91.3905 141.115C90.8598 140.43 90.089 139.996 89.2241 139.896C89.0737 139.879 88.541 139.862 88.2214 139.862H88.2193Z" fill="black"/>
<path d="M90.2569 143.584C90.4971 141.497 89.016 139.639 86.9479 139.434C84.8797 139.23 83.008 140.758 82.7677 142.845C82.5275 144.933 84.0086 146.79 86.0767 146.995C88.1449 147.2 90.0166 145.672 90.2569 143.584Z" fill="#FFAB99"/>
<path d="M86.4464 147.472C86.3085 147.472 86.1706 147.466 86.0306 147.451C84.9151 147.341 83.9145 146.802 83.2126 145.932C82.5002 145.049 82.1785 143.934 82.3101 142.792C82.5796 140.458 84.6791 138.743 86.9916 138.976C88.1071 139.087 89.1078 139.626 89.8097 140.496C90.5241 141.379 90.8437 142.496 90.7121 143.636C90.4594 145.827 88.5897 147.472 86.4443 147.472H86.4464ZM86.578 139.874C84.8942 139.874 83.4235 141.17 83.2251 142.897C83.1227 143.792 83.3713 144.665 83.9291 145.354C84.4764 146.03 85.2535 146.449 86.1226 146.535C87.9379 146.717 89.5882 145.366 89.7992 143.529C89.9016 142.634 89.6509 141.761 89.0952 141.07C88.5479 140.394 87.7708 139.974 86.9018 139.889C86.7931 139.878 86.6845 139.872 86.578 139.872V139.874Z" fill="black"/>
<path d="M95.862 152.187C97.078 152.187 98.0638 151.196 98.0638 149.974C98.0638 148.752 97.078 147.762 95.862 147.762C94.6459 147.762 93.6602 148.752 93.6602 149.974C93.6602 151.196 94.6459 152.187 95.862 152.187Z" fill="black"/>
</g>
</g>
<defs>
<clipPath id="clip0_2430_9955">
<rect width="427" height="425" fill="white"/>
</clipPath>
<clipPath id="clip1_2430_9955">
<rect width="375" height="382" fill="white" transform="translate(26 8)"/>
</clipPath>
</defs>
</svg>
