<svg width="427" height="425" viewBox="0 0 427 425" fill="none" xmlns="http://www.w3.org/2000/svg">
<g clip-path="url(#clip0_2378_9459)">
<path d="M400.041 382.57C388.531 392.16 338.441 398.94 278.761 401.49C187.021 405.42 72.6009 399.37 40.7909 378.2C25.7309 368.19 15.5509 337.25 9.1009 297.66C-6.9291 199.16 0.220901 47.1301 13.1609 30.6501C31.3109 7.56009 323.301 -15.3099 399.911 13.9301C432.741 26.4601 429.231 358.23 400.031 382.57H400.041Z" fill="white"/>
<path d="M373.314 247.44L375.204 241.883L377.358 247.44C377.358 247.44 381.657 248.14 381.712 248.531C381.757 248.913 377.595 250.095 377.595 250.095C377.595 250.095 375.85 255.488 375.204 254.27C374.568 253.051 373.95 250.35 373.95 250.35C373.95 250.35 368.533 249.268 368.533 248.731C368.533 248.158 373.314 247.449 373.314 247.449V247.44Z" fill="white"/>
<path d="M304.094 233.142L305.566 228.822L307.238 233.142C307.238 233.142 310.574 233.688 310.619 233.988C310.656 234.279 307.429 235.198 307.429 235.198C307.429 235.198 306.075 239.381 305.575 238.435C305.075 237.49 304.594 235.389 304.594 235.389C304.594 235.389 300.395 234.543 300.395 234.134C300.395 233.688 304.103 233.142 304.103 233.142H304.094Z" fill="white"/>
<g clip-path="url(#clip1_2378_9459)">
<path d="M368.39 370.693H373.8V357.133H377.58L377.98 352.593H373.8V350.003C373.8 348.933 374.02 348.513 375.05 348.513H377.98V343.803H374.23C370.2 343.803 368.39 345.573 368.39 348.973V352.593H365.57V357.193H368.39V370.693Z" fill="#A0D2F4"/>
<path d="M362.67 335.252C357.05 337.692 348 346.672 348 356.882C348 376.682 370.12 389.542 386.52 375.382C393.24 369.582 397.59 357.642 393.44 347.592C389.41 337.832 377.99 328.612 362.67 335.252Z" stroke="#A0D2F4" stroke-miterlimit="10"/>
<path d="M358.28 342.782C356.18 344.472 354.63 346.842 353.92 349.452" stroke="#A0D2F4" stroke-miterlimit="10"/>
<path d="M353.021 353.162C352.981 354.162 352.941 355.162 352.891 356.162" stroke="#A0D2F4" stroke-miterlimit="10"/>
<path d="M391.599 355.062C391.279 363.153 386.459 370.912 379.359 374.792" stroke="#A0D2F4" stroke-miterlimit="10"/>
<path d="M393.39 222.693H398.8V209.133H402.58L402.98 204.593H398.8V202.003C398.8 200.933 399.02 200.513 400.05 200.513H402.98V195.803H399.23C395.2 195.803 393.39 197.573 393.39 200.973V204.593H390.57V209.193H393.39V222.693Z" fill="#2E2E2E"/>
<path d="M387.67 187.252C382.05 189.692 373 198.672 373 208.882C373 228.682 395.12 241.542 411.52 227.382C418.24 221.582 422.59 209.642 418.44 199.592C414.41 189.832 402.99 180.612 387.67 187.252Z" stroke="#A0D2F4" stroke-miterlimit="10"/>
<path d="M383.28 194.782C381.18 196.472 379.63 198.842 378.92 201.452" stroke="#A0D2F4" stroke-miterlimit="10"/>
<path d="M378.021 205.162C377.981 206.162 377.941 207.162 377.891 208.162" stroke="#A0D2F4" stroke-miterlimit="10"/>
<path d="M416.599 207.062C416.279 215.153 411.459 222.912 404.359 226.792" stroke="#A0D2F4" stroke-miterlimit="10"/>
<g style="mix-blend-mode:multiply">
<path d="M208.768 107.241C225.789 101.212 244.547 98.649 261.822 103.62C264.964 104.525 268.71 107.211 272.478 111.409C276.235 115.596 279.976 121.244 283.12 128.002C289.409 141.518 293.295 159.433 290.188 178.892C287.453 196.014 299.652 213.641 315.815 223.764C319.716 226.206 324.154 227.22 328.659 227.777C330.912 228.056 333.196 228.222 335.441 228.391C337.411 228.539 339.352 228.689 341.238 228.921L342.043 229.025C360.724 231.577 379.232 244.755 381.88 263.147L381.994 264.027C383.048 273.14 379.962 283.107 375.18 292.544C370.402 301.972 363.962 310.813 358.384 317.654C329.69 352.834 278.809 371.831 235.262 352.742C214.139 343.483 195.674 323.858 180.831 306.445C165.364 288.305 158.377 264.013 157.221 240.476C155.775 211.29 162.365 182.505 169.645 154.355C175.178 132.947 187.195 114.878 208.768 107.241Z" stroke="#008BCE"/>
</g>
<g style="mix-blend-mode:multiply" opacity="0.15">
<path d="M161.19 124.209C164.06 124.109 166.59 121.429 166.53 118.559C166.45 115.239 161.08 113.459 158.81 115.699C156.04 118.449 156.45 124.359 161.19 124.209Z" fill="#282828"/>
</g>
<g style="mix-blend-mode:multiply" opacity="0.15">
<path d="M374.541 113.84C382.021 113.59 388.611 106.61 388.441 99.1299C388.241 90.4899 374.241 85.8499 368.351 91.6899C361.131 98.8399 362.201 114.25 374.541 113.84Z" fill="#282828"/>
</g>
<g style="mix-blend-mode:multiply">
<path d="M182.789 384.37C193.189 384.02 202.359 374.32 202.129 363.92C201.849 351.9 182.379 345.45 174.189 353.57C164.159 363.51 165.639 384.94 182.799 384.37H182.789Z" fill="#DFE4F2"/>
</g>
<path d="M169.08 48.3594C176.22 47.0794 181.59 39.4694 180.38 32.3094C178.99 24.0394 164.9 21.5394 160.06 27.9594C154.13 35.8294 157.29 50.4694 169.08 48.3594Z" fill="#A0D2F4"/>
<path d="M167.591 36.7898L165.981 38.5498C165.741 38.8098 165.761 39.2298 166.021 39.4698C166.281 39.7098 166.691 39.6898 166.941 39.4298L168.631 37.5798L170.641 39.0898C170.931 39.2998 171.331 39.2498 171.551 38.9598C171.761 38.6698 171.711 38.2698 171.421 38.0498L169.511 36.6198L171.121 34.8598C171.361 34.5998 171.341 34.1798 171.081 33.9398C170.941 33.8098 170.761 33.7598 170.581 33.7698C170.431 33.7798 170.281 33.8498 170.161 33.9798L168.471 35.8298L166.461 34.3198C166.331 34.2198 166.171 34.1798 166.011 34.1898C165.831 34.2098 165.671 34.2898 165.551 34.4498C165.331 34.7398 165.391 35.1398 165.681 35.3598L167.591 36.7898Z" fill="#FFBFBF"/>
<path d="M333.529 263.85C347.599 251.93 361.809 240.18 376.159 228.6" stroke="#A0D2F4" stroke-miterlimit="10"/>
<path d="M395.279 237.439C389.359 272.899 385.609 295.319 379.689 330.769" stroke="#A0D2F4" stroke-miterlimit="10"/>
<path d="M320.74 342.55C323.16 342.55 343.93 349.94 343.93 349.94" stroke="#A0D2F4" stroke-miterlimit="10"/>
<path d="M41.2397 256.92L19.6797 197.42" stroke="#A0D2F4" stroke-miterlimit="10"/>
<path d="M67.4909 139.7C79.9909 136.94 88.9009 123.13 86.2709 110.6C83.2309 96.1201 58.2109 92.7101 50.1309 104.38C40.2309 118.67 46.8609 144.26 67.4809 139.7H67.4909Z" fill="#008BCE"/>
<path d="M111.54 82.2797C111.54 82.2797 102.53 82.3397 100.51 82.3497C99.3804 82.3497 99.2404 80.5397 99.4004 80.0697C99.4704 79.8497 99.6504 79.6797 99.8204 79.5197C101.42 78.0497 105.64 75.0098 105.82 74.6198C106.14 73.9098 101.77 67.0498 102.19 62.9698C102.65 58.4498 106.59 54.5098 111.55 54.8298H110.96C115.91 54.5098 119.86 58.4498 120.32 62.9698C120.74 67.0498 116.37 73.9098 116.69 74.6198C116.86 75.0098 121.09 78.0497 122.69 79.5197C122.86 79.6797 123.04 79.8497 123.11 80.0697C123.27 80.5397 123.13 82.3497 122 82.3497C119.98 82.3497 110.97 82.2797 110.97 82.2797H111.56H111.54Z" stroke="#A0D2F4" stroke-width="0.91" stroke-miterlimit="10"/>
<path d="M376.479 166.159C376.479 166.159 366.529 166.229 364.309 166.229C363.059 166.229 362.909 164.239 363.079 163.719C363.159 163.479 363.359 163.289 363.549 163.119C365.309 161.499 369.979 158.149 370.169 157.719C370.519 156.929 365.699 149.359 366.159 144.859C366.669 139.869 371.019 135.519 376.489 135.869H375.839C381.309 135.519 385.659 139.859 386.169 144.859C386.629 149.359 381.809 156.929 382.159 157.719C382.349 158.149 387.009 161.509 388.779 163.119C388.969 163.289 389.159 163.479 389.249 163.719C389.419 164.239 389.269 166.239 388.019 166.229C385.789 166.229 375.849 166.159 375.849 166.159H376.499H376.479Z" stroke="#A0D2F4" stroke-miterlimit="10"/>
<path d="M326.79 233.49C325.82 233.54 325.69 231.9 325.61 231.44C325.45 230.49 325.29 229.54 325.13 228.59C325 227.84 324.98 227.03 324.23 226.62C323.01 225.95 320.96 226.28 320.76 225.33C320.51 224.15 322.94 224.28 323.57 224.3C324.19 224.32 325.38 224.28 325.53 223.59C325.66 222.99 325.53 222.5 325.53 221.9C325.54 220.68 325.59 219.33 325.73 218.29C325.87 217.25 326.37 216.17 326.79 216.17C327.28 216.17 327.84 217.13 327.99 218.45C328.11 219.42 328.2 222.99 328.33 223.59C328.48 224.28 329.39 224.31 330 224.3C330.63 224.28 333.06 224.15 332.81 225.33C332.61 226.29 330.56 225.95 329.34 226.62C328.59 227.03 328.57 227.84 328.44 228.59C328.28 229.54 328.12 230.49 327.96 231.44C327.88 231.9 327.75 233.54 326.78 233.49" stroke="#A0D2F4" stroke-miterlimit="10"/>
<path d="M372.61 118.79C371.64 118.84 371.51 117.2 371.43 116.74C371.27 115.79 371.11 114.84 370.95 113.89C370.82 113.14 370.8 112.33 370.05 111.92C368.83 111.25 366.78 111.58 366.58 110.63C366.33 109.45 368.761 109.58 369.391 109.6C370.011 109.62 371.2 109.58 371.35 108.89C371.48 108.29 371.35 107.8 371.35 107.2C371.36 105.98 371.41 104.63 371.55 103.59C371.69 102.55 372.19 101.47 372.61 101.47C373.1 101.47 373.66 102.43 373.81 103.75C373.93 104.72 374.02 108.29 374.15 108.89C374.3 109.58 375.21 109.61 375.82 109.6C376.45 109.58 378.88 109.45 378.63 110.63C378.43 111.59 376.38 111.25 375.16 111.92C374.41 112.33 374.39 113.14 374.26 113.89C374.1 114.84 373.94 115.79 373.78 116.74C373.7 117.2 373.57 118.84 372.6 118.79" stroke="#A0D2F4" stroke-miterlimit="10"/>
<path d="M120.919 120.53C119.949 120.58 119.819 118.94 119.739 118.48C119.579 117.53 119.419 116.58 119.259 115.63C119.129 114.88 119.109 114.07 118.359 113.66C117.139 112.99 115.089 113.32 114.889 112.37C114.639 111.19 117.069 111.32 117.699 111.34C118.319 111.36 119.509 111.32 119.659 110.63C119.789 110.03 119.659 109.54 119.659 108.94C119.669 107.72 119.719 106.37 119.859 105.33C119.999 104.29 120.509 103.21 120.919 103.21C121.409 103.21 121.969 104.17 122.119 105.49C122.239 106.46 122.329 110.03 122.459 110.63C122.609 111.32 123.519 111.35 124.129 111.34C124.759 111.32 127.189 111.19 126.939 112.37C126.739 113.33 124.689 112.99 123.469 113.66C122.719 114.07 122.699 114.88 122.569 115.63C122.409 116.58 122.249 117.53 122.089 118.48C122.009 118.94 121.879 120.58 120.909 120.53" stroke="#A0D2F4" stroke-miterlimit="10"/>
<path d="M47.3702 76.0397C46.4002 76.0897 46.2702 74.4497 46.1902 73.9897C46.0302 73.0397 45.8702 72.0897 45.7102 71.1397C45.5802 70.3897 45.5602 69.5797 44.8102 69.1697C43.5902 68.4997 41.5402 68.8297 41.3402 67.8797C41.0902 66.6997 43.5202 66.8297 44.1502 66.8497C44.7702 66.8697 45.9602 66.8297 46.1102 66.1397C46.2402 65.5397 46.1102 65.0497 46.1102 64.4497C46.1202 63.2297 46.1702 61.8797 46.3102 60.8397C46.4502 59.7997 46.9502 58.7197 47.3702 58.7197C47.8602 58.7197 48.4202 59.6797 48.5702 60.9997C48.6902 61.9697 48.7802 65.5397 48.9102 66.1397C49.0602 66.8297 49.9702 66.8597 50.5802 66.8497C51.2102 66.8297 53.6402 66.6997 53.3902 67.8797C53.1902 68.8397 51.1402 68.4997 49.9202 69.1697C49.1702 69.5797 49.1502 70.3897 49.0202 71.1397C48.8602 72.0897 48.7002 73.0397 48.5402 73.9897C48.4602 74.4497 48.3302 76.0897 47.3602 76.0397" stroke="#A0D2F4" stroke-miterlimit="10"/>
<path d="M64.3097 356.03C63.3397 356.08 63.2097 354.44 63.1297 353.98C62.9697 353.03 62.8097 352.08 62.6497 351.13C62.5197 350.38 62.4997 349.57 61.7497 349.16C60.5297 348.49 58.4797 348.82 58.2797 347.87C58.0297 346.69 60.4597 346.82 61.0897 346.84C61.7097 346.86 62.8997 346.82 63.0497 346.13C63.1797 345.53 63.0497 345.04 63.0497 344.44C63.0597 343.22 63.1097 341.87 63.2497 340.83C63.3897 339.79 63.8997 338.71 64.3097 338.71C64.7997 338.71 65.3597 339.67 65.5097 340.99C65.6297 341.96 65.7197 345.53 65.8497 346.13C65.9997 346.82 66.9097 346.85 67.5197 346.84C68.1497 346.82 70.5797 346.69 70.3297 347.87C70.1297 348.83 68.0797 348.49 66.8597 349.16C66.1097 349.57 66.0897 350.38 65.9597 351.13C65.7997 352.08 65.6397 353.03 65.4797 353.98C65.3997 354.44 65.2697 356.08 64.2997 356.03" stroke="#A0D2F4" stroke-miterlimit="10"/>
<path d="M55.7204 300.67H61.1304V287.11H64.9104L65.3104 282.57H61.1304V279.98C61.1304 278.91 61.3504 278.49 62.3804 278.49H65.3104V273.78H61.5604C57.5304 273.78 55.7204 275.55 55.7204 278.95V282.57H52.9004V287.17H55.7204V300.67Z" fill="#A0D2F4"/>
<path d="M50.0001 265.23C44.3801 267.67 35.3301 276.65 35.3301 286.86C35.3301 306.66 57.4501 319.52 73.8501 305.36C80.5701 299.56 84.9201 287.62 80.7701 277.57C76.7401 267.81 65.3201 258.59 50.0001 265.23Z" stroke="#A0D2F4" stroke-miterlimit="10"/>
<path d="M45.61 272.76C43.51 274.45 41.96 276.82 41.25 279.43" stroke="#A0D2F4" stroke-miterlimit="10"/>
<path d="M40.3507 283.14C40.3107 284.14 40.2707 285.14 40.2207 286.14" stroke="#A0D2F4" stroke-miterlimit="10"/>
<path d="M78.9295 285.04C78.6095 293.13 73.7895 300.89 66.6895 304.77" stroke="#A0D2F4" stroke-miterlimit="10"/>
<path d="M179.951 385H185.624V370.884H189.579L190 366.157H185.624V363.463C185.624 362.348 185.852 361.907 186.933 361.907H190V357H186.074C181.855 357 179.951 358.847 179.951 362.383V366.151H177V370.936H179.951V384.994V385Z" fill="#008BCE"/>
<path d="M91.1406 281.66L122.031 279.43" stroke="#A0D2F4" stroke-miterlimit="10"/>
<path d="M45.0996 167.39L72.9396 173.25" stroke="#A0D2F4" stroke-miterlimit="10"/>
<path d="M275.81 239.07C298.57 257.33 333.81 277.34 337.29 280.51C340.11 283.07 345.63 286.76 345.06 295.52C344.4 305.62 336.27 321.87 316.57 340.85C291.83 364.69 271.84 386.8 256.07 381.5C242.33 376.89 105.5 256.02 105.5 256.02C93.5299 246.09 83.0299 237.24 72.5299 225.77C69.4099 222.36 64.6899 217.24 62.0199 213.46C55.3499 204.02 56.9799 198.59 63.1499 192.87C65.6399 190.56 67.6899 194.07 70.3599 191.96C92.9599 174.17 115.61 156.34 139.85 140.85C142.64 139.07 145.63 137.26 148.94 137.2C152.41 137.15 155.58 139.04 158.46 140.97C163.14 144.09 186.87 164.87 216.08 187.99" fill="#008BCE"/>
<path d="M275.811 239.07C298.571 257.33 333.701 277.46 337.291 280.51C349.191 290.59 351.031 303.93 316.571 340.85C295.721 363.19 268.941 386.47 256.071 381.5C242.551 376.27 105.501 256.02 105.501 256.02C93.5305 246.09 83.0305 237.24 72.5305 225.77C69.4105 222.36 64.8005 217.16 62.0205 213.46C56.7005 206.38 57.0805 201.62 60.0305 196.66C66.6505 185.5 115.621 156.34 139.851 140.85C142.641 139.07 145.631 137.26 148.941 137.2C152.411 137.15 155.581 139.04 158.461 140.97C163.141 144.09 186.871 164.87 216.081 187.99" stroke="#444C73" stroke-width="0.98" stroke-miterlimit="10"/>
<path d="M275.81 233.5C298.57 251.76 330.14 274.35 333.62 277.52C336.65 280.28 342.94 286.64 341.68 295.94C340.41 305.24 331.59 317.49 314 335.35C292.56 357.12 268.95 380.89 256.07 375.93C242.55 370.7 105.5 250.45 105.5 250.45C93.5304 240.52 82.2504 229.77 71.7504 218.31C68.6304 214.9 65.5304 211.36 63.6704 207.13C61.7904 202.91 61.2904 197.84 63.4004 193.72C64.9404 190.69 67.7004 188.49 70.3704 186.39C92.9704 168.6 115.62 150.77 139.86 135.28C142.65 133.5 145.64 131.69 148.95 131.63C152.42 131.58 155.59 133.47 158.47 135.4C163.15 138.52 187.21 161.31 216.43 184.42" fill="#A0D2F4"/>
<g style="mix-blend-mode:overlay" opacity="0.2">
<path d="M260.259 375.93C246.739 370.7 109.689 250.45 109.689 250.45C97.7191 240.52 86.4391 229.77 75.9391 218.31C72.8191 214.9 69.7191 211.36 67.8591 207.13C65.9791 202.91 65.4791 197.84 67.5891 193.72C69.1291 190.69 71.8891 188.49 74.5591 186.39C97.1591 168.6 119.809 150.77 144.049 135.28C146.279 133.85 148.649 132.43 151.199 131.88C150.459 131.72 149.709 131.62 148.939 131.63C145.629 131.69 142.639 133.5 139.849 135.28C115.609 150.77 92.9591 168.6 70.3591 186.39C67.6891 188.49 64.9291 190.69 63.3891 193.72C61.2891 197.83 61.7891 202.9 63.6591 207.13C65.5291 211.36 68.6191 214.9 71.7391 218.31C82.2391 229.78 93.5191 240.53 105.489 250.45C105.489 250.45 242.539 370.7 256.059 375.93C257.869 376.63 259.929 376.76 262.159 376.43C261.499 376.32 260.859 376.16 260.249 375.93H260.259Z" fill="#DFE4F2"/>
</g>
<path d="M271.839 236.979L326.199 280.399C329.049 282.669 330.129 286.519 328.859 289.929C328.359 291.289 327.709 292.959 326.899 294.989C322.149 306.859 272.649 366.369 256.299 360.959C243.349 356.689 200.179 321.379 200.179 321.379L114.869 245.679C102.949 232.869 86.6293 222.879 76.8793 208.039C75.0793 205.929 75.1393 202.729 76.2993 200.219C77.4593 197.699 79.5293 195.729 81.5793 193.849C99.7493 176.999 125.499 159.509 145.949 145.419C149.749 142.799 155.119 141.399 161.879 146.479L216.189 190.099" fill="#DFE4F2"/>
<path d="M262.62 222.83C285.38 241.09 330.15 274.35 333.63 277.52C336.98 280.56 343.89 287.61 341.19 298.8C339 307.88 329.58 319.52 314 335.35C292.56 357.12 268.95 380.89 256.07 375.93C242.55 370.7 105.5 250.45 105.5 250.45C93.5304 240.52 82.2504 229.77 71.7504 218.31C68.6304 214.9 65.5304 211.36 63.6704 207.13C61.7904 202.91 61.2904 197.84 63.4004 193.72C64.9404 190.69 67.7004 188.49 70.3704 186.39C92.9704 168.6 115.62 150.77 139.86 135.28C142.65 133.5 145.64 131.69 148.95 131.63C152.42 131.58 155.59 133.47 158.47 135.4C163.15 138.52 234.01 200.19 263.22 223.31" stroke="#444C73" stroke-width="0.98" stroke-miterlimit="10"/>
<path d="M260 227.159L326.19 280.399C329.04 282.669 330.12 286.519 328.85 289.929C328.35 291.289 327.7 292.959 326.89 294.989C322.14 306.859 272.64 366.369 256.29 360.959C243.34 356.689 200.17 321.379 200.17 321.379L114.86 245.679C102.94 232.869 86.6196 222.879 76.8696 208.039C75.0696 205.929 75.1296 202.729 76.2896 200.219C77.4496 197.699 79.5196 195.729 81.5696 193.849C99.7396 176.999 125.49 159.509 145.94 145.419C149.74 142.799 155.11 141.399 161.87 146.479L216.18 190.099L260.01 227.159H260Z" stroke="#444C73" stroke-width="0.94" stroke-miterlimit="10"/>
<g style="mix-blend-mode:multiply" opacity="0.15">
<path d="M283.92 243.37L215.82 189.59L162.05 146.76C155.99 142.24 149.85 141.86 144.29 145.66L141.17 147.79C121.35 161.31 96.6905 178.15 79.2005 194.22C76.8405 196.38 74.7805 198.39 73.5405 201.05C72.0005 204.35 72.2905 207.99 74.2805 210.37C80.4305 219.62 89.1305 227.04 97.5505 234.22C102.75 238.65 108.12 243.24 112.7 248.12L198.88 323.96C200.67 325.41 242.78 359.5 255.94 363.8C256.76 364.07 257.64 364.2 258.58 364.2C278.41 364.2 324.64 307.65 328.95 296.99C329.7 295.13 330.37 293.42 330.94 291.89C332.44 287.87 331.17 283.38 283.91 243.37H283.92ZM328.22 290.87C327.66 292.37 327 294.06 326.26 295.9C323.97 301.56 310.27 319.44 295.35 334.9C277.56 353.33 263.18 363.11 256.87 361.04C244.21 356.9 201.17 322.06 200.79 321.75L114.81 246.09C110.13 241.11 104.71 236.48 99.4705 232.01C91.1905 224.94 82.6205 217.63 76.6905 208.69L76.5805 208.54C75.1105 206.83 75.3305 204.18 76.2105 202.3C77.2205 200.12 79.0705 198.33 81.2005 196.39C98.5405 180.45 123.1 163.69 142.84 150.22L145.96 148.09C150.52 144.97 155.22 145.31 160.29 149.09L213.91 191.8L326.01 283.01C328.39 284.9 329.29 288.06 328.24 290.88L328.22 290.87Z" fill="#4455B0"/>
</g>
<path d="M105.919 168.41C105.449 168.41 104.979 168.19 104.689 167.77C104.209 167.09 104.379 166.16 105.059 165.68L116.959 157.32C117.629 156.84 118.569 157.01 119.049 157.68C119.529 158.36 119.359 159.29 118.679 159.77L106.779 168.13C106.519 168.31 106.219 168.4 105.919 168.4V168.41Z" fill="#444C73"/>
<path d="M103.109 169.51C103.039 169.26 102.909 169.04 102.719 168.85L102.419 168.62C102.189 168.48 101.929 168.42 101.659 168.42H101.249C101.039 168.42 100.849 168.46 100.669 168.55C100.479 168.61 100.319 168.71 100.189 168.86C100.039 169 99.9393 169.16 99.8793 169.34C99.7893 169.52 99.7393 169.71 99.7493 169.92C99.7693 170.05 99.7893 170.19 99.7993 170.32C99.8693 170.57 99.9993 170.79 100.189 170.98L100.489 171.21C100.719 171.35 100.979 171.41 101.249 171.41H101.659C101.869 171.41 102.059 171.37 102.239 171.28C102.429 171.22 102.589 171.12 102.719 170.97C102.869 170.83 102.969 170.67 103.029 170.49C103.119 170.31 103.169 170.12 103.159 169.91C103.139 169.78 103.119 169.64 103.109 169.51Z" fill="#444C73"/>
<g style="mix-blend-mode:multiply" opacity="0.15">
<path d="M326.909 295.85C327.719 293.81 328.359 292.14 328.859 290.77C330.119 287.35 329.039 283.49 326.199 281.22L264.549 232.32L216.589 190.71L164.479 145.05C157.749 139.96 152.409 142.11 146.619 145.92C134.459 153.92 120.879 163.68 107.869 173.51C107.909 173.48 92.1993 185.74 92.8393 185.38C99.3693 181.7 150.509 150.12 162.719 157.57C176.209 165.8 316.939 281.68 321.919 288.76C326.739 295.62 277.139 346.19 254.159 360.99C255.039 361.4 255.839 361.74 256.549 361.97C272.849 367.38 322.159 307.73 326.889 295.84L326.909 295.85Z" fill="#A0D2F4"/>
</g>
<path d="M154.981 209.51C161.521 203.88 168.061 198.24 174.611 192.61C177.431 190.18 180.341 187.71 183.861 186.4C194.641 182.43 209.791 195.58 217.731 201.41C228.991 209.68 239.371 218.98 250.231 227.72C256.791 233 263.911 237.58 270.161 243.24C271.721 244.65 273.271 246.24 273.811 248.25C274.851 252.16 268.881 256.88 266.561 259.55C256.811 270.74 245.971 281.6 234.471 291.37C228.451 296.48 220.791 303.57 214.321 308.14C208.901 311.96 205.961 317.18 199.241 312.54C192.141 307.65 128.521 252.73 124.671 249.11C120.441 245.14 119.851 239.87 124.671 235.75C134.241 227.58 145.451 217.72 154.991 209.51H154.981Z" stroke="#444C73" stroke-width="0.73" stroke-miterlimit="10" stroke-linecap="round"/>
<path d="M154.981 209.51C161.521 203.88 168.061 198.24 174.611 192.61C177.431 190.18 180.341 187.71 183.861 186.4C194.641 182.43 209.791 195.58 217.731 201.41C228.991 209.68 239.371 218.98 250.231 227.72C256.791 233 263.911 237.58 270.161 243.24C271.721 244.65 273.271 246.24 273.811 248.25C274.851 252.16 268.881 256.88 266.561 259.55C256.811 270.74 245.971 281.6 234.471 291.37C228.451 296.48 220.791 303.57 214.321 308.14C208.901 311.96 205.961 317.18 199.241 312.54C192.141 307.65 128.521 252.73 124.671 249.11C120.441 245.14 119.851 239.87 124.671 235.75C134.241 227.58 145.451 217.72 154.991 209.51H154.981Z" fill="#008BCE"/>
<path d="M229.37 332.81C228.22 332.67 227.06 332 226.19 330.87C224.51 328.68 224.53 325.55 226.24 323.88L269.16 282.15C270.87 280.49 273.62 280.92 275.31 283.11C276.99 285.3 276.97 288.43 275.26 290.1L232.34 331.83C231.51 332.63 230.45 332.95 229.38 332.82L229.37 332.81Z" fill="#282828" stroke="#444C73" stroke-width="0.45" stroke-miterlimit="10" stroke-linecap="round"/>
<path d="M220.609 321.25C220.359 321.22 220.109 321.08 219.919 320.83C219.559 320.36 219.559 319.68 219.929 319.32L258.099 282.21C258.469 281.85 259.059 281.94 259.429 282.42C259.789 282.89 259.789 283.57 259.419 283.93L221.249 321.04C221.069 321.21 220.839 321.28 220.609 321.25Z" fill="#282828" stroke="#444C73" stroke-width="0.45" stroke-miterlimit="10" stroke-linecap="round"/>
<path d="M282.399 258.97C279.549 259.65 279.739 262.99 279.989 264.57C280.049 264.94 279.749 265.26 279.409 265.19C277.979 264.88 274.929 264.6 274.239 267.7C272.229 276.8 285.029 274.13 287.159 273.63C287.339 273.59 287.489 273.43 287.529 273.23C288.039 270.91 290.749 256.97 282.399 258.97Z" fill="#282828" stroke="#444C73" stroke-width="0.48" stroke-miterlimit="10" stroke-linecap="round"/>
<path d="M112.951 234.3C111.431 234.11 109.881 233.31 108.701 231.98C106.431 229.41 106.381 225.8 108.601 223.93L164.221 176.88C166.441 175 170.081 175.57 172.361 178.14C174.631 180.71 174.681 184.32 172.461 186.19L116.841 233.24C115.771 234.14 114.371 234.48 112.951 234.3Z" fill="#282828" stroke="#444C73" stroke-width="0.55" stroke-miterlimit="10" stroke-linecap="round"/>
<path d="M101.11 220.761C100.78 220.721 100.45 220.551 100.19 220.261C99.7002 219.711 99.6902 218.931 100.17 218.521L149.63 176.68C150.11 176.28 150.89 176.401 151.39 176.951C151.88 177.501 151.89 178.281 151.41 178.691L101.95 220.531C101.72 220.731 101.42 220.801 101.11 220.761Z" fill="#282828" stroke="#444C73" stroke-width="0.55" stroke-miterlimit="10" stroke-linecap="round"/>
<path d="M224.649 263.39C224.449 265.74 227.439 266.78 229.299 268.24C232.739 270.94 232.029 277.28 228.069 279.14C223.519 281.29 218.339 277.7 213.309 277.73C209.769 277.76 206.499 279.59 203.019 280.23C198.849 280.99 194.379 279.93 190.989 277.37C184.579 272.52 181.899 262.74 174.119 260.71C171.389 260 168.419 260.43 165.749 259.51C160.859 257.83 158.439 251.54 160.339 246.73C162.249 241.92 167.679 239.02 172.839 239.38C172.839 239.38 193.809 255.67 203.789 257.14C213.769 258.6 224.649 263.38 224.649 263.38V263.39Z" fill="#282828" stroke="#444C73" stroke-width="0.45" stroke-miterlimit="10" stroke-linecap="round"/>
<path d="M216.209 123.33C216.959 121.94 221.489 103.49 223.039 102.68C226.799 100.71 236.219 108.33 236.509 111.2C236.779 113.9 228.899 133.31 227.819 136.77L219.819 140.79L216.199 123.33H216.209Z" fill="#FFBFBF"/>
<path d="M173.95 253.81C173.95 253.81 169.33 249.64 169.47 247.12C169.1 248.62 179.88 227.28 182.94 214.82C185.24 205.46 184.79 200.85 183.43 194.17C182.07 187.48 181.02 181.87 181.42 175.73C181.82 169.59 177.49 157.41 177.49 157.41L175.83 149.05C175.83 149.05 173.74 137.37 178.36 135.6C182.97 133.83 185.14 137.93 185.14 137.93L188.84 142.33L192.43 153.18L197.03 160.31C197.03 160.31 215.64 130.46 216.94 128.1C216.98 128.03 221.69 137.24 221.69 137.24C221.69 137.24 231.39 132.07 235.6 139.86C238.08 144.46 236.95 146.02 236.95 146.02C236.95 146.02 243.44 148.87 249.51 154.9C250.36 156.07 251.55 158.72 251.76 160.59C251.76 160.59 267.51 165.81 271.1 169.74C271.07 169.71 271.94 173.81 272.06 176.96C272.41 185.7 269.63 193.22 269.63 193.22C269.47 196.01 262.48 208.38 262.48 208.38L259.78 214.04C258.49 216.74 257.02 219.36 255.37 221.86L252.23 226.63L246.34 234.3L233.25 249.41C233.25 249.41 223.93 263.21 222.72 268.88C221.51 274.55 220.63 274.95 218.9 274.53C217.17 274.12 192.13 266.63 185.78 261.86" fill="#FFBFBF"/>
<path d="M175.71 144.27C174.84 153.94 180.54 163.78 181.32 173.46C181.59 176.85 181.2 180.28 181.49 183.67C181.8 187.21 182.85 190.65 183.42 194.16C184.38 200.06 184.2 208.97 183.59 212.04C181.98 220.04 175.04 239.24 169.47 247.11C168.93 247.87 169.47 248.59 170 249.36C180.23 264.27 219.21 275.84 220.51 274.23C222.05 272.32 222.42 269.64 223.27 267.4C224.33 264.63 225.55 261.92 226.93 259.29C231.85 249.91 239.12 242.12 245.99 234.16C251.66 227.59 256.28 220.23 260.34 212.58C263.05 207.47 266.08 202.52 268.27 197.15C271.36 189.57 272.67 179.93 272.09 171.75C271.79 167.5 255.85 162.61 252.17 160.78C248.49 158.95 245.69 159.25 243.57 162.06C241.45 164.87 231.62 173.02 232.87 176.05C234.12 179.08 235.79 179.19 241.2 178.98C246.61 178.77 252 171.31 252 171.31" stroke="#444C73" stroke-width="0.69" stroke-miterlimit="10" stroke-linecap="round"/>
<path d="M177.6 136.209C175.85 137.219 175.05 139.389 175.13 141.409C175.2 143.419 177.02 148.859 178.65 149.449C179.58 149.789 180.61 149.669 181.58 149.449C182.43 149.249 183.31 148.949 183.91 148.319C184.74 147.449 184.9 146.159 184.94 144.969C185 143.529 184.94 142.089 184.8 140.659C184.62 138.889 185.1 138.269 183.96 136.899C182.15 134.719 179.2 135.299 177.59 136.219L177.6 136.209Z" stroke="#444C73" stroke-width="0.69" stroke-miterlimit="10" stroke-linecap="round"/>
<path d="M183.961 136.89C185.961 138.63 187.531 140.01 188.831 142.32C190.441 145.18 190.761 148.57 191.831 151.68C193.731 157.2 197.881 161.58 201.471 166.19C212.101 179.86 218.411 197.52 215.851 214.64" stroke="#444C73" stroke-width="0.69" stroke-miterlimit="10" stroke-linecap="round"/>
<g style="mix-blend-mode:multiply" opacity="0.15">
<path d="M272.079 175.59C271.959 172.44 271.059 169.7 271.089 169.73C270.969 169.6 270.839 169.47 270.699 169.34C267.349 188.26 257.309 205.96 242.679 218.44C235.219 224.81 226.329 230.23 222.049 239.05C219.419 244.47 218.479 251.2 213.609 254.75C209.889 257.46 204.679 257.46 200.429 255.7C196.169 253.94 192.719 250.67 189.709 247.19C186.859 243.89 184.019 240.14 179.839 238.9C177.759 238.29 175.689 238.38 173.659 238.92C171.399 243.75 169.619 247.15 169.469 247.17C169.409 249.69 173.949 253.79 173.949 253.79L185.779 261.83C192.119 266.6 217.169 274.08 218.899 274.5C220.629 274.91 221.509 274.51 222.719 268.85C223.929 263.18 233.249 249.38 233.249 249.38L246.339 234.27L252.229 226.6L255.369 221.83C257.019 219.33 258.489 216.71 259.779 214.01L262.479 208.35C262.479 208.35 269.469 195.98 269.629 193.19C269.629 193.19 272.439 184.32 272.089 175.58L272.079 175.59Z" fill="#008BCE"/>
</g>
<g style="mix-blend-mode:multiply" opacity="0.15">
<path d="M169.469 247.179C169.469 247.179 169.469 247.129 169.469 247.109C169.459 247.159 169.469 247.179 169.469 247.179Z" fill="#008BCE"/>
</g>
<g style="mix-blend-mode:multiply" opacity="0.15">
<path d="M215.31 193.88C216.99 201.27 218.21 208.02 216.67 215.439C221 200.819 223.98 186.77 222.78 171.57C222.47 167.65 221.77 163.709 220.03 160.179C219.08 158.249 217.83 156.479 216.59 154.719C213.35 150.119 211.14 141.829 207.9 137.229C206.91 142.359 197.01 160.299 197.01 160.299C197.22 162.189 203.1 167.93 204.13 169.46C209.32 177.18 213.27 184.93 215.3 193.88H215.31Z" fill="#008BCE"/>
</g>
<path d="M175.449 111.81C175.449 111.81 180.649 131.55 192.159 147.13C202.379 160.97 200.449 160.43 200.449 160.43C200.449 160.43 222.999 192.36 231.679 196.06C231.449 196.36 233.499 198.58 235.399 198.03C237.299 197.49 244.339 189.09 244.339 189.09L250.609 182.65L245.979 177.21C245.979 177.21 241.259 179.4 238.469 179.11C235.689 178.81 234.779 179.07 233.499 177.24C232.229 175.41 233.719 173.05 234.859 171.42C235.999 169.78 240.429 165.12 240.429 165.12C240.429 165.12 236.509 159.04 236.289 159.06C236.069 159.08 233.569 160.85 230.829 161.71C228.089 162.57 222.649 163.44 219.909 162C217.169 160.56 217.539 158.77 217.629 157.17C217.719 155.57 220.369 151.09 220.369 151.09C220.369 151.09 218.079 150.15 216.519 148.83C214.959 147.51 214.719 143.39 216.709 141.27C218.699 139.15 221.699 137.24 221.699 137.24C221.699 137.24 214.669 124.18 213.209 113.16C213.089 112.02 190.359 117.55 182.479 110.36C182.359 110.27 180.359 111.32 177.919 111.57L175.469 111.82L175.449 111.81Z" fill="#A0D2F4"/>
<path d="M215.969 123.95C216.719 122.55 220.919 104.37 222.469 103.56C226.229 101.59 236.779 106.76 237.079 109.64C237.349 112.34 229.169 132.35 228.099 135.81" stroke="#444C73" stroke-width="0.69" stroke-miterlimit="10" stroke-linecap="round"/>
<path d="M278.2 0.309805C278.2 0.309805 274.96 -0.150196 273.6 6.4298C272.24 13.0098 268.39 49.7198 269.99 66.4498C270.84 75.3398 271.72 108.8 276.59 119.99C277.6 122.3 278.84 122.61 280.22 122.72C289.62 123.48 289.28 81.8298 289.28 81.8298L288.11 38.3798C288.09 36.4298 287.99 34.4998 287.8 32.5598C287.33 27.7198 287.18 17.6798 286.92 15.8598C286.56 13.3898 285.47 0.329805 278.2 0.299805V0.309805Z" fill="#008BCE"/>
<path d="M175.45 111.81C175.45 111.81 182.69 131.19 192.73 147.76C198.5 157.27 200.75 160.52 200.75 160.52C200.75 160.52 222.6 191.04 231.34 196.1C231.81 196.16 234.2 198.66 235.92 198.04C237.78 197.37 243.79 189.91 243.79 189.91L250.29 182.88L246.23 177.53C246.23 177.53 240.91 179.46 238.13 179.16C235.35 178.86 234.95 179.34 233.68 177.52C232.41 175.69 233.47 173.45 234.6 171.81C235.74 170.17 240.42 165.14 240.42 165.14C240.42 165.14 236.5 159.06 236.28 159.08C236.06 159.1 233.21 160.9 230.47 161.76C227.73 162.62 223.36 163.9 220.61 162.46C217.86 161.02 217.46 158.25 217.55 156.65C217.64 155.05 220.58 151.3 220.58 151.3C220.58 151.3 218.35 150.43 216.78 149.1C215.21 147.77 214.3 143.89 216.29 141.77C218.28 139.65 221.66 137.26 221.66 137.26C221.66 137.26 213.76 124.28 212.31 113.26C212.19 112.12 190.53 117.35 182.65 110.16C182.53 110.07 179.99 111.37 177.54 111.62C176.25 112.1 176.51 112.05 175.43 111.83L175.45 111.81Z" fill="#A0D2F4"/>
<path d="M216.619 53.7497L219.189 83.0897L223.469 110.96C223.469 110.96 234.679 110.36 246.319 114.87C257.959 119.37 269.599 125.23 280.219 122.73C280.349 122.67 276.429 123.5 274.729 112.62C273.029 101.74 269.249 78.8097 269.969 64.6697C270.689 50.5397 270.129 33.4097 270.959 28.8597C271.789 24.3097 273.169 8.88969 273.439 7.28969C273.709 5.68969 274.679 1.05969 277.879 0.309694C281.079 -0.430306 271.729 0.929695 268.059 6.64969C262.729 14.9497 255.019 29.1397 247.639 35.4497C240.259 41.7497 228.239 49.2497 228.239 49.2497L216.619 53.7497Z" fill="#A0D2F4"/>
<path d="M209.109 54.5898C209.109 54.5898 173.779 57.4298 174.989 80.4098C176.369 106.52 182.449 110.75 185.279 111.91C188.109 113.07 196.299 114.6 203.429 114.11C210.559 113.62 216.229 111.87 216.229 111.87C216.229 111.87 210.549 77.5398 210.269 74.6698C209.989 71.7998 209.109 54.5898 209.109 54.5898Z" fill="#282828"/>
<path d="M212.43 50.8692C212.43 50.8692 207.83 50.7592 209.26 63.9492C210.7 77.2092 216.22 111.869 216.22 111.869C216.22 111.869 216.63 114.579 220.08 114.239C225.25 113.729 222.01 101.499 222.01 101.499L216.61 53.7592C216.61 53.7592 215.93 49.7392 212.42 50.8692H212.43Z" fill="#008BCE"/>
<g style="mix-blend-mode:overlay" opacity="0.2">
<path d="M203.54 65.5196C205.58 65.1996 207.63 64.9296 209.68 65.1696C209.39 59.9396 209.11 54.5996 209.11 54.5996C209.11 54.5996 173.81 57.7496 174.99 80.4196C175.15 83.5796 175.42 86.4096 175.72 88.9596C175.88 90.2996 177.82 90.2396 177.93 88.8896C177.93 88.8496 177.93 88.8096 177.93 88.7696C178.35 83.4896 179.83 78.0896 183.33 74.1096C188.26 68.4896 196.15 66.6896 203.53 65.5196H203.54Z" fill="#DFE4F2"/>
</g>
<g style="mix-blend-mode:multiply" opacity="0.15">
<path d="M278.199 0.30957C278.199 0.30957 278.189 0.30957 278.159 0.30957C279.589 4.86957 281.269 10.4096 282.119 13.8196C283.759 20.4196 284.599 102.64 279.779 108.15C277.489 110.76 274.919 106.89 272.789 102.11C273.689 109.46 274.899 116.09 276.599 120C277.609 122.31 278.849 122.62 280.229 122.73C289.629 123.49 289.289 81.8396 289.289 81.8396L288.119 38.3896C288.099 36.4396 287.999 34.5096 287.809 32.5696C287.339 27.7296 287.189 17.6896 286.929 15.8696C286.569 13.3996 285.479 0.33957 278.209 0.30957H278.199Z" fill="#008BCE"/>
</g>
<path d="M223.479 110.96C234.999 109.47 247.109 115.24 257.969 119.37C265.239 122.13 273.589 124.45 281.249 122.6" stroke="#444C73" stroke-width="0.69" stroke-miterlimit="10" stroke-linecap="round"/>
<path d="M278.819 0.349609C274.659 0.999609 270.889 2.94961 268.339 6.29961C265.779 9.64961 264.009 13.5196 261.939 17.1896C252.409 34.0896 234.959 48.8296 216.219 53.8696" stroke="#444C73" stroke-width="0.69" stroke-miterlimit="10" stroke-linecap="round"/>
<path d="M216.23 111.87C209.47 113.7 202.64 114.66 195.64 114.04C190.54 113.58 183.82 112.52 180.65 107.98C179.2 105.9 178.39 103.45 177.71 100.99C175.96 94.6096 175.18 88.0096 174.99 81.3996C174.86 76.4996 176.05 72.4096 178.14 69.0196C184.41 58.8496 198.7 54.9896 209.1 54.5996" stroke="#444C73" stroke-width="0.69" stroke-miterlimit="10" stroke-linecap="round"/>
<path d="M175.7 74.79C170.84 76.14 165.36 77.9 165.32 81.06C165.28 84.22 166.06 87.34 166.84 90.41C167.94 94.8 169.05 99.19 170.15 103.58C171.01 107 172.46 111.02 175.91 111.76C178.05 112.22 180.19 111.18 182.13 110.17" stroke="#444C73" stroke-width="0.69" stroke-miterlimit="10" stroke-linecap="round"/>
<path d="M169.699 102.41C168.469 102.72 167.239 103.02 165.999 103.33C165.159 103.54 164.219 103.73 163.489 103.28C162.809 102.87 162.519 102.04 162.289 101.28C161.719 99.4298 161.149 97.5798 160.579 95.7298C160.179 94.4398 159.779 93.0298 160.219 91.7498C160.599 90.6498 164.849 88.6898 165.999 88.5098" stroke="#444C73" stroke-width="0.69" stroke-miterlimit="10" stroke-linecap="round"/>
<path d="M240.429 165.12L236.889 159.47C236.599 158.98 235.939 158.89 235.529 159.28C233.619 161.1 227.869 163.24 224.289 162.92C219.779 162.51 216.619 160.55 218.069 155.51C219.519 150.47 225.209 147.48 229.699 145.92C238.149 142.98 252.169 156.85 251.749 160.58" stroke="#444C73" stroke-width="0.69" stroke-miterlimit="10" stroke-linecap="round"/>
<path d="M250.139 169.859C251.979 171.189 253.959 172.329 256.039 173.259" stroke="#444C73" stroke-width="0.69" stroke-miterlimit="10" stroke-linecap="round"/>
<path d="M236.94 146.01C236.94 146.01 237.56 141.26 233.99 137.82C232.58 136.46 230.43 135.82 228.1 135.8C226.76 135.79 225.35 135.99 223.99 136.37C223.2 136.59 222.41 136.87 221.67 137.22C220.3 137.85 219.05 138.69 218.05 139.71C217.03 140.74 216.3 141.69 215.8 142.56C212.13 148.91 220.83 151.03 220.83 151.03" stroke="#444C73" stroke-width="0.69" stroke-miterlimit="10" stroke-linecap="round"/>
<path d="M223.989 136.38C224.709 137.02 225.859 138.41 226.249 139.38C226.429 139.8 226.499 140.28 226.389 140.72C226.369 140.82 226.339 140.91 226.299 141.01C226.129 141.39 225.809 141.68 225.499 141.96C223.389 143.84 219.629 146.28 219.499 146.3C219.329 146.32 219.159 146.21 219.029 146.1C217.989 145.27 216.849 143.5 215.799 142.58C215.739 142.52 215.689 142.48 215.629 142.43" stroke="#444C73" stroke-width="0.69" stroke-miterlimit="10" stroke-linecap="round"/>
<path d="M236.93 169.17C237.89 169.81 238.73 170.62 239.4 171.56C239.48 171.67 239.55 171.78 239.58 171.9C239.62 172.11 239.53 172.32 239.43 172.51C238.27 174.79 236.37 176.68 234.09 177.83" stroke="#444C73" stroke-width="0.69" stroke-miterlimit="10" stroke-linecap="round"/>
<path d="M213.08 112.649C213.08 112.649 217.04 131.609 221.66 137.229" stroke="#444C73" stroke-width="0.69" stroke-miterlimit="10" stroke-linecap="round"/>
<path d="M198.38 157.42C197.2 159.93 197.1 160.69 196.66 160.15" stroke="#444C73" stroke-width="0.69" stroke-miterlimit="10" stroke-linecap="round"/>
<path d="M219.43 152.69L223.7 157.17L231.52 152.21C231.52 152.21 229.04 147.2 227.04 146.96" stroke="#444C73" stroke-width="0.69" stroke-miterlimit="10" stroke-linecap="round"/>
<path d="M270.279 49.5297C270.279 49.5297 292.299 46.9797 294.149 65.1497C296.469 87.9097 271.279 85.2397 271.279 85.2397L270.279 49.5297Z" fill="#282828"/>
<g style="mix-blend-mode:multiply" opacity="0.15">
<path d="M294.15 65.15C293.84 62.13 292.97 59.69 291.74 57.71C291.45 61.47 291.98 65.4 290.64 68.93C289.31 72.42 286.22 74.94 282.84 76.22C279.11 77.63 275.02 78.08 271.07 77.52L271.29 85.24C271.29 85.24 296.48 87.91 294.16 65.15H294.15Z" fill="#DD4E2A"/>
</g>
<path d="M269.949 49.6699C276.819 48.1699 286.569 50.8599 290.959 56.3499C295.349 61.8399 295.209 72.2099 291.289 78.0399C286.969 84.4799 279.569 84.7699 271.869 85.6899" stroke="#444C73" stroke-width="0.69" stroke-miterlimit="10" stroke-linecap="round"/>
<g style="mix-blend-mode:multiply" opacity="0.15">
<path d="M221.36 97.1994L223.47 110.959C223.47 110.959 234.68 110.359 246.32 114.869C257.96 119.379 269.6 125.229 280.22 122.729C280.35 122.669 276.43 123.499 274.73 112.619C274.47 110.929 274.15 108.949 273.81 106.759C270.84 107.389 267.75 107.409 264.75 106.909C255.75 105.419 248.07 99.5395 239.27 97.1494C233.51 95.5794 227.18 95.6094 221.35 97.1994H221.36Z" fill="#008BCE"/>
</g>
<path d="M288.83 54.2297C287.3 16.7197 286.75 0.409693 278.83 0.349693C277.2 0.339693 275.64 1.22969 274.8 2.62969C273.96 4.02969 273.69 5.68969 273.45 7.29969C268.13 43.1597 268.74 79.8997 275.27 115.57C275.58 117.27 275.93 119.02 276.88 120.46C277.84 121.9 279.57 122.96 281.26 122.61C283.16 122.22 284.55 120.39 285.1 118.52C288.59 106.7 288.32 92.6797 289.43 80.2497" stroke="#444C73" stroke-width="0.69" stroke-miterlimit="10" stroke-linecap="round"/>
<g style="mix-blend-mode:overlay" opacity="0.2">
<path d="M268.059 6.65923C262.729 14.9592 255.019 29.1492 247.639 35.4592C240.259 41.7592 228.239 49.2592 228.239 49.2592L216.619 53.7592L218.359 73.6192C223.769 75.1092 230.019 73.5992 233.769 69.4192C239.449 63.0792 238.629 52.6692 244.519 46.5392C250.009 40.8192 259.799 40.4892 264.489 34.1092C268.519 28.6292 267.139 20.9892 268.869 14.4092C269.749 11.0492 271.499 7.92923 273.869 5.39923C274.429 3.41923 275.579 0.869226 277.879 0.329226C281.079 -0.410774 271.729 0.949226 268.059 6.66923V6.65923Z" fill="#DFE4F2"/>
</g>
<path d="M216.51 112.809C217.38 115.219 223.89 115.159 222.94 109.169C220.85 95.9793 217.92 73.0393 216.56 56.7493C216.37 54.4493 216.35 50.8393 214.04 50.7793C211.95 50.7193 210.47 51.3493 209.66 52.9393C208.85 54.5293 208.86 56.3893 208.91 58.1693C209.41 75.6793 215.91 111.169 216.5 112.809H216.51Z" stroke="#444C73" stroke-width="0.69" stroke-miterlimit="10" stroke-linecap="round"/>
<g style="mix-blend-mode:multiply" opacity="0.15">
<path d="M198.86 105.91C192.02 106.31 185.75 103.98 180.51 99.6801C179.81 99.1001 178.44 97.9201 177.1 97.3701C179.55 108.6 183.23 111.07 185.29 111.91C188.12 113.07 196.31 114.6 203.44 114.11C210.57 113.62 216.24 111.87 216.24 111.87C216.24 111.87 215.36 106.52 214.27 99.8801C212.68 100.88 211.13 101.97 209.49 102.89C206.24 104.69 202.57 105.7 198.87 105.92L198.86 105.91Z" fill="#DD4E2A"/>
</g>
<g style="mix-blend-mode:multiply" opacity="0.15">
<path d="M208.389 118.91C208.389 118.91 211.079 129 216.299 141.73C216.419 141.56 216.549 141.4 216.689 141.25C218.679 139.13 221.679 137.22 221.679 137.22C221.679 137.22 214.649 124.16 213.189 113.14C213.069 112 190.339 117.53 182.459 110.34C182.349 110.26 180.829 111.05 178.819 111.42C178.659 111.61 178.559 111.73 178.559 111.73C178.559 111.73 184.989 120.86 195.349 120.24C205.709 119.62 208.389 118.91 208.389 118.91Z" fill="#008BCE"/>
<path d="M234.859 171.42C235.999 169.78 240.429 165.12 240.429 165.12C240.429 165.12 236.509 159.04 236.289 159.06C236.069 159.08 233.569 160.85 230.829 161.71C229.699 162.06 228.109 162.42 226.439 162.61C228.629 166.39 231.019 170.08 233.599 173.51C233.959 172.76 234.439 172.04 234.869 171.43L234.859 171.42Z" fill="#008BCE"/>
<path d="M250.609 182.65L245.979 177.21C245.979 177.21 241.259 179.4 238.469 179.11C238.369 179.1 238.279 179.09 238.189 179.08C239.789 180.84 241.439 182.49 243.159 183.98C244.749 185.26 246.349 185.62 247.829 185.5L250.609 182.64V182.65Z" fill="#008BCE"/>
</g>
<g style="mix-blend-mode:overlay" opacity="0.2">
<path d="M237.189 191.14C235.469 190.82 233.509 191.74 232.029 190.81C230.329 189.74 230.629 187.26 230.699 185.25C230.819 181.98 229.389 178.36 226.359 177.14C224.899 176.55 223.269 176.59 221.719 176.33C218.449 175.78 215.449 173.79 213.659 170.99C210.709 166.37 211.269 160.47 210.999 154.99C210.779 150.47 209.929 145.98 208.479 141.69C207.699 139.39 206.739 137.13 205.259 135.21C202.249 131.29 197.389 129.18 192.529 128.27C189.489 127.7 186.359 127.6 183.299 128.02C182.559 128.12 182.559 128.09 181.799 128.27C184.189 133.8 186.809 138.64 191.889 146.7C201.059 161.26 200.439 160.43 200.439 160.43C200.439 160.43 223.359 191.35 231.669 196.06C231.439 196.36 233.489 198.58 235.389 198.03C236.279 197.77 238.299 195.79 240.199 193.75C239.639 192.46 238.549 191.39 237.179 191.13L237.189 191.14Z" fill="#DFE4F2"/>
</g>
<path d="M175.92 111.76C180.33 136.94 220.52 189.47 231.92 196.31C235.04 192.25 243.83 182.88 247.85 179.71" stroke="#444C73" stroke-width="0.69" stroke-miterlimit="10" stroke-linecap="round"/>
<path d="M66.4283 126.226H70.049V117.151H72.5787L72.8464 114.112H70.049V112.379C70.049 111.663 70.1962 111.382 70.8855 111.382H72.8464V108.229H70.3367C67.6397 108.229 66.4283 109.414 66.4283 111.69V114.112H64.541V117.191H66.4283V126.226Z" fill="#FFBFBF"/>
<path d="M62.6011 102.507C58.8399 104.14 52.7832 110.15 52.7832 116.983C52.7832 130.235 67.5871 138.841 78.5628 129.365C83.0602 125.483 85.9715 117.492 83.1941 110.766C80.497 104.234 72.8541 98.0636 62.6011 102.507Z" stroke="#FFBFBF" stroke-miterlimit="10"/>
<path d="M59.6621 107.547C58.2567 108.678 57.2193 110.264 56.7441 112.011" stroke="#FFBFBF" stroke-miterlimit="10"/>
<path d="M56.1436 114.493C56.1169 115.162 56.0901 115.832 56.0566 116.501" stroke="#FFBFBF" stroke-miterlimit="10"/>
<path d="M81.9612 115.766C81.747 121.18 78.5212 126.373 73.7695 128.97" stroke="#FFBFBF" stroke-miterlimit="10"/>
<path d="M14.3903 168.693H19.8003V155.133H23.5803L23.9803 150.593H19.8003V148.003C19.8003 146.933 20.0203 146.513 21.0503 146.513H23.9803V141.803H20.2303C16.2003 141.803 14.3903 143.573 14.3903 146.973V150.593H11.5703V155.193H14.3903V168.693Z" fill="#A0D2F4"/>
<path d="M8.67 133.252C3.05 135.692 -6 144.672 -6 154.882C-6 174.682 16.12 187.542 32.52 173.382C39.24 167.582 43.59 155.642 39.44 145.592C35.41 135.832 23.99 126.612 8.67 133.252Z" stroke="#A0D2F4" stroke-miterlimit="10"/>
<path d="M4.27992 140.782C2.17992 142.472 0.629922 144.842 -0.0800781 147.452" stroke="#A0D2F4" stroke-miterlimit="10"/>
<path d="M37.5994 153.062C37.2794 161.153 32.4594 168.912 25.3594 172.792" stroke="#A0D2F4" stroke-miterlimit="10"/>
</g>
</g>
<defs>
<clipPath id="clip0_2378_9459">
<rect width="427" height="425" fill="white"/>
</clipPath>
<clipPath id="clip1_2378_9459">
<rect width="436.58" height="384.38" fill="white" transform="translate(-10)"/>
</clipPath>
</defs>
</svg>
