<svg width="427" height="425" viewBox="0 0 427 425" fill="none" xmlns="http://www.w3.org/2000/svg">
<g clip-path="url(#clip0_2430_10949)">
<path d="M400.041 382.57C388.531 392.16 338.441 398.94 278.761 401.49C187.021 405.42 72.6009 399.37 40.7909 378.2C25.7309 368.19 15.5509 337.25 9.1009 297.66C-6.9291 199.16 0.220901 47.1301 13.1609 30.6501C31.3109 7.56009 323.301 -15.3099 399.911 13.9301C432.741 26.4601 429.231 358.23 400.031 382.57H400.041Z" fill="white"/>
<path d="M373.314 247.44L375.204 241.883L377.358 247.44C377.358 247.44 381.657 248.14 381.712 248.531C381.757 248.913 377.595 250.095 377.595 250.095C377.595 250.095 375.85 255.488 375.204 254.27C374.568 253.051 373.95 250.35 373.95 250.35C373.95 250.35 368.533 249.268 368.533 248.731C368.533 248.158 373.314 247.449 373.314 247.449V247.44Z" fill="white"/>
<path d="M304.094 233.142L305.566 228.822L307.238 233.142C307.238 233.142 310.574 233.688 310.619 233.988C310.656 234.279 307.429 235.198 307.429 235.198C307.429 235.198 306.075 239.381 305.575 238.435C305.075 237.49 304.594 235.389 304.594 235.389C304.594 235.389 300.395 234.543 300.395 234.134C300.395 233.688 304.103 233.142 304.103 233.142H304.094Z" fill="white"/>
<g clip-path="url(#clip1_2430_10949)">
<path d="M104.523 355.098L97.3954 339.841L87.9288 344.303C85.4777 341.199 82.575 338.57 79.3654 336.465L82.9192 326.582L67.1385 320.857L63.5847 330.74C59.7765 330.299 55.8719 330.459 52.0133 331.272L47.5716 321.762L32.3829 328.922L36.8246 338.431C33.7355 340.894 31.1179 343.809 29.0219 347.031L19.1826 343.462L13.4824 359.313L23.3218 362.883C22.8833 366.707 23.0412 370.631 23.8523 374.508L14.2848 379.521L21.5131 394.228L30.9797 389.766C33.4308 392.87 36.3335 395.5 39.5431 397.604L35.9893 407.487L51.77 413.212L55.3238 403.329C59.132 403.77 63.0366 403.61 66.8952 402.797L71.3369 412.307L86.5256 405.148L82.0839 395.638C85.173 393.176 87.7906 390.261 89.8866 387.038L99.7259 390.608L105.426 374.756L95.5867 371.187C96.0252 367.362 95.8673 363.439 95.0562 359.561L104.523 355.1V355.098ZM68.443 386.274C57.8648 391.26 45.2674 386.689 40.3017 376.063C35.3382 365.438 39.8895 352.782 50.4655 347.796C61.0437 342.809 73.6411 347.381 78.6068 358.006C83.5703 368.632 79.019 381.287 68.443 386.274Z" fill="white"/>
<path d="M51.768 413.695C51.7132 413.695 51.6562 413.686 51.6036 413.666L35.8229 407.942C35.5729 407.852 35.4436 407.575 35.5335 407.322L38.958 397.797C35.8865 395.737 33.157 393.239 30.8396 390.366L21.7172 394.665C21.4782 394.777 21.1954 394.678 21.0792 394.441L13.8509 379.734C13.7347 379.499 13.829 379.213 14.0592 379.09L23.3044 374.246C22.5831 370.613 22.4121 366.903 22.798 363.208L13.316 359.768C13.0661 359.678 12.9367 359.401 13.0266 359.148L18.7268 343.297C18.7706 343.176 18.8605 343.077 18.9767 343.022C19.0929 342.967 19.2266 342.961 19.3472 343.004L28.8292 346.444C30.8813 343.358 33.3674 340.619 36.2285 338.29L31.9468 329.126C31.8328 328.884 31.938 328.596 32.1792 328.482L47.3679 321.323C47.4841 321.268 47.6156 321.261 47.7384 321.305C47.859 321.349 47.9576 321.439 48.0125 321.556L52.2942 330.72C55.905 329.998 59.5926 329.828 63.2648 330.215L66.6893 320.69C66.7331 320.569 66.823 320.47 66.9392 320.416C67.0554 320.361 67.1891 320.354 67.3097 320.398L83.0904 326.123C83.3403 326.213 83.4697 326.489 83.3798 326.742L79.9553 336.267C83.0268 338.328 85.7563 340.825 88.0737 343.699L97.1961 339.397C97.3123 339.343 97.4439 339.336 97.5666 339.38C97.6872 339.424 97.7859 339.514 97.8407 339.63L104.968 354.887C105.082 355.128 104.977 355.416 104.736 355.53L95.611 359.831C96.3301 363.458 96.4989 367.164 96.1131 370.854L105.595 374.295C105.845 374.385 105.974 374.661 105.884 374.914L100.184 390.766C100.14 390.886 100.051 390.985 99.9344 391.04C99.8182 391.095 99.6845 391.102 99.5639 391.058L90.0819 387.618C88.0298 390.704 85.5437 393.443 82.6826 395.772L86.9643 404.937C87.0783 405.178 86.9731 405.466 86.7319 405.58L71.5432 412.739C71.427 412.794 71.2954 412.801 71.1727 412.757C71.0521 412.713 70.9534 412.623 70.8986 412.506L66.6169 403.342C63.0039 404.064 59.3163 404.234 55.6463 403.847L52.2218 413.372C52.178 413.493 52.0881 413.592 51.9719 413.647C51.9061 413.677 51.836 413.693 51.7658 413.693L51.768 413.695ZM36.6056 407.197L51.4786 412.592L54.868 403.164C54.9447 402.953 55.1552 402.821 55.3788 402.848C59.2001 403.291 63.0434 403.113 66.7967 402.322C67.0159 402.276 67.2374 402.388 67.3338 402.591L71.5717 411.661L85.8857 404.912L81.6478 395.84C81.5535 395.638 81.6105 395.396 81.7837 395.256C84.7895 392.861 87.3787 390.005 89.4833 386.77C89.6061 386.581 89.8407 386.502 90.0534 386.579L99.4389 389.984L104.812 375.044L95.4269 371.639C95.2164 371.562 95.0849 371.351 95.1112 371.129C95.5518 367.289 95.3764 363.43 94.5872 359.66C94.5412 359.44 94.653 359.218 94.8547 359.124L103.885 354.867L97.1676 340.487L88.1394 344.744C87.9355 344.841 87.6944 344.784 87.5541 344.606C85.171 341.588 82.3275 338.987 79.1069 336.873C78.9205 336.75 78.8416 336.515 78.9161 336.304L82.3077 326.876L67.4369 321.481L64.0475 330.909C63.9707 331.12 63.7603 331.252 63.5366 331.226C59.7131 330.782 55.8721 330.96 52.1188 331.751C51.8973 331.797 51.6759 331.685 51.5816 331.483L47.3438 322.412L33.0298 329.161L37.2676 338.233C37.3619 338.435 37.3049 338.677 37.1317 338.817C34.126 341.212 31.5368 344.068 29.4321 347.303C29.3093 347.492 29.0748 347.571 28.8621 347.495L19.4766 344.09L14.1031 359.03L23.4886 362.434C23.6991 362.511 23.8306 362.722 23.8043 362.944C23.3636 366.784 23.539 370.644 24.3283 374.413C24.3721 374.624 24.2713 374.842 24.0783 374.94L14.9274 379.734L21.7391 393.591L30.776 389.331C30.9799 389.234 31.2211 389.292 31.3614 389.469C33.7445 392.488 36.588 395.089 39.8108 397.202C39.9972 397.325 40.0761 397.56 40.0015 397.771L36.6099 407.199L36.6056 407.197ZM59.4676 388.782C56.9946 388.782 54.515 388.351 52.1188 387.484C46.6751 385.513 42.3233 381.531 39.8634 376.269C34.7947 365.42 39.4578 352.45 50.2596 347.361C55.4863 344.896 61.3574 344.621 66.7879 346.589C72.2316 348.56 76.5834 352.543 79.0433 357.804C84.112 368.653 79.4489 381.623 68.6471 386.713C65.7246 388.09 62.6027 388.784 59.4676 388.784V388.782ZM59.4413 346.256C56.4465 346.256 53.4627 346.917 50.6718 348.233C40.3523 353.098 35.8952 365.49 40.7382 375.856C43.0862 380.885 47.2451 384.689 52.4454 386.572C57.6348 388.45 63.2429 388.189 68.2349 385.834C78.5544 380.968 83.0115 368.576 78.1685 358.21C75.8205 353.182 71.6616 349.377 66.4613 347.495C64.1724 346.666 61.8025 346.253 59.4413 346.253V346.256Z" fill="black"/>
<path d="M353.468 53.4746H73.3945V238.63H353.468V53.4746Z" fill="white"/>
<path d="M353.468 239.114H73.3944C73.127 239.114 72.9121 238.896 72.9121 238.631V53.4755C72.9121 53.2075 73.1292 52.9922 73.3944 52.9922H353.468C353.735 52.9922 353.95 53.2097 353.95 53.4755V238.631C353.95 238.899 353.733 239.114 353.468 239.114ZM73.8789 238.147H352.985V53.9609H73.8789V238.147Z" fill="black"/>
<path d="M347.268 223.591H79.5976C79.3301 223.591 79.1152 223.374 79.1152 223.108V70.0009C79.1152 69.7329 79.3323 69.5176 79.5976 69.5176H347.268C347.536 69.5176 347.751 69.7351 347.751 70.0009V223.11C347.751 223.378 347.534 223.593 347.268 223.593V223.591ZM80.0799 222.625H346.784V70.4841H80.0799V222.625Z" fill="black"/>
<path d="M353.469 238.629H73.3955L13.6973 292.807H413.169L353.469 238.629Z" fill="white"/>
<path d="M413.169 293.291H13.6971C13.4976 293.291 13.3179 293.168 13.2455 292.981C13.1732 292.794 13.2236 292.583 13.3727 292.449L73.0731 238.272C73.163 238.19 73.277 238.146 73.3976 238.146H353.471C353.591 238.146 353.705 238.19 353.795 238.272L413.496 292.449C413.645 292.583 413.695 292.797 413.623 292.981C413.551 293.168 413.373 293.291 413.173 293.291H413.169ZM14.949 292.322H411.915L353.282 239.113H73.5817L14.949 292.322Z" fill="black"/>
<path d="M270.601 261.641H156.265L131.895 283.757H294.972L270.601 261.641Z" fill="black"/>
<path d="M118.4 79.666H101.957V84.8129H118.4V79.666Z" fill="#008BCE"/>
<path d="M118.4 104.803H101.957V109.95H118.4V104.803Z" fill="#008BCE"/>
<path d="M118.4 117.371H101.957V122.518H118.4V117.371Z" fill="#008BCE"/>
<path d="M118.4 129.939H101.957V135.086H118.4V129.939Z" fill="#008BCE"/>
<path d="M118.4 142.508H101.957V147.655H118.4V142.508Z" fill="#008BCE"/>
<path d="M118.4 192.779H101.957V197.926H118.4V192.779Z" fill="#008BCE"/>
<path d="M118.4 205.35H101.957V210.497H118.4V205.35Z" fill="#008BCE"/>
<path d="M174.36 79.666H143.318V84.8129H174.36V79.666Z" fill="#008BCE"/>
<path d="M214.078 91.8301H157.918V96.977H214.078V91.8301Z" fill="#008BCE"/>
<path d="M214.078 103.992H157.918V109.139H214.078V103.992Z" fill="#008BCE"/>
<path d="M198.713 116.156H143.318V121.303H198.713V116.156Z" fill="#008BCE"/>
<path d="M214.029 168.859H157.869V174.006H214.029V168.859Z" fill="#008BCE"/>
<path d="M198.664 181.023H138.924V186.17H198.664V181.023Z" fill="#008BCE"/>
<path d="M198.714 128.316H169.371V133.463H198.714V128.316Z" fill="#008BCE"/>
<path d="M192.114 193.186H158.908V198.332H192.114V193.186Z" fill="#008BCE"/>
<path d="M214.078 140.48H175.08V145.627H214.078V140.48Z" fill="#008BCE"/>
<path d="M214.078 152.643H175.08V157.789H214.078V152.643Z" fill="#008BCE"/>
<path d="M269.821 79.666H225.914V84.8129H269.821V79.666Z" fill="#008BCE"/>
<path d="M325.997 91.8301H246.561V96.977H325.997V91.8301Z" fill="#008BCE"/>
<path d="M325.997 103.992H246.561V109.139H325.997V103.992Z" fill="#008BCE"/>
<path d="M304.267 116.156H225.914V121.303H304.267V116.156Z" fill="#008BCE"/>
<path d="M304.267 128.316H262.764V133.463H304.267V128.316Z" fill="#008BCE"/>
<path d="M325.998 140.48H284.494V145.627H325.998V140.48Z" fill="#008BCE"/>
<path d="M325.998 152.643H284.494V157.789H325.998V152.643Z" fill="#008BCE"/>
<path d="M269.821 168.859H225.914V174.006H269.821V168.859Z" fill="#008BCE"/>
<path d="M325.997 181.023H246.561V186.17H325.997V181.023Z" fill="#008BCE"/>
<path d="M325.997 193.186H246.561V198.332H325.997V193.186Z" fill="#008BCE"/>
<path d="M174.602 149.233C179.39 157.433 187.445 161.636 192.59 158.617C197.736 155.599 198.025 146.502 193.237 138.302C188.449 130.102 184.924 133.658 179.778 136.676C174.633 139.695 169.812 141.032 174.602 149.235V149.233Z" fill="#D2D2D2"/>
<path d="M188.834 160.086C187.08 160.086 185.179 159.576 183.237 158.563C179.76 156.749 176.544 153.524 174.182 149.48C172.402 146.433 171.812 144.144 172.323 142.279C172.97 139.92 175.243 138.659 177.874 137.198C178.416 136.899 178.97 136.59 179.532 136.26C180.093 135.931 180.632 135.597 181.158 135.272C183.717 133.686 185.927 132.317 188.297 132.908C190.169 133.376 191.87 135.012 193.651 138.059C198.566 146.477 198.2 155.888 192.831 159.038C191.636 159.739 190.283 160.088 188.832 160.088L188.834 160.086ZM187.174 133.738C185.471 133.738 183.686 134.843 181.669 136.093C181.137 136.423 180.591 136.761 180.023 137.095C179.455 137.427 178.892 137.741 178.346 138.044C175.906 139.397 173.796 140.568 173.257 142.534C172.825 144.109 173.402 146.222 175.02 148.99C177.291 152.878 180.369 155.973 183.686 157.704C186.931 159.398 190.007 159.574 192.348 158.201C197.257 155.321 197.47 146.506 192.822 138.547C191.206 135.777 189.65 134.239 188.069 133.846C187.773 133.771 187.477 133.738 187.177 133.738H187.174Z" fill="black"/>
<path d="M178.943 131.219C178.685 131.219 178.472 131.014 178.461 130.755L178.268 125.896C178.257 125.628 178.465 125.404 178.731 125.393C179.002 125.384 179.222 125.591 179.233 125.856L179.426 130.715C179.437 130.983 179.228 131.208 178.963 131.219C178.956 131.219 178.95 131.219 178.943 131.219Z" fill="black"/>
<path d="M157.172 146.299C157.036 146.299 156.898 146.242 156.804 146.128C156.631 145.924 156.657 145.618 156.861 145.447L162.805 140.406C162.919 140.309 163.07 140.269 163.219 140.302L172.802 142.365C173.063 142.422 173.229 142.679 173.172 142.941C173.115 143.202 172.857 143.367 172.598 143.312L163.247 141.3L157.486 146.187C157.396 146.264 157.284 146.302 157.175 146.302L157.172 146.299Z" fill="black"/>
<path d="M163.725 162.167C163.661 162.167 163.595 162.154 163.534 162.127C163.288 162.022 163.176 161.736 163.282 161.492L166.366 154.327C166.426 154.188 166.546 154.087 166.691 154.05L176.188 151.623C176.447 151.557 176.71 151.713 176.776 151.972C176.842 152.231 176.686 152.495 176.427 152.561L167.16 154.929L164.17 161.877C164.091 162.059 163.913 162.169 163.727 162.169L163.725 162.167Z" fill="black"/>
<path d="M174.573 172.561C174.554 172.561 174.536 172.561 174.516 172.557C174.251 172.526 174.062 172.284 174.093 172.021L175.003 164.271C175.02 164.121 175.106 163.99 175.235 163.913L183.643 158.862C183.873 158.724 184.169 158.799 184.305 159.029C184.441 159.258 184.369 159.557 184.139 159.693L175.935 164.62L175.053 172.135C175.025 172.381 174.817 172.563 174.575 172.563L174.573 172.561Z" fill="black"/>
<path d="M188.58 134.001C188.532 134.001 188.483 133.995 188.437 133.979C188.183 133.9 188.04 133.63 188.119 133.373L191.018 123.989C191.062 123.846 191.169 123.732 191.309 123.679L198.606 120.955C198.853 120.861 199.134 120.988 199.226 121.238C199.318 121.489 199.193 121.768 198.943 121.86L191.868 124.503L189.04 133.661C188.977 133.87 188.786 134.001 188.58 134.001Z" fill="black"/>
<path d="M194.864 141.687C194.743 141.687 194.625 141.643 194.53 141.553C194.337 141.369 194.331 141.063 194.513 140.87L201.274 133.759C201.377 133.651 201.524 133.597 201.675 133.612L209.419 134.427C209.684 134.455 209.877 134.693 209.848 134.959C209.82 135.224 209.581 135.415 209.318 135.389L201.811 134.598L195.212 141.538C195.118 141.637 194.991 141.687 194.864 141.687Z" fill="black"/>
<path d="M196.791 152.181C196.624 152.181 196.46 152.093 196.372 151.937C196.241 151.704 196.319 151.41 196.552 151.276L205.672 146.052C205.802 145.977 205.959 145.968 206.097 146.025L213.284 149.026C213.53 149.129 213.646 149.413 213.545 149.659C213.442 149.905 213.159 150.021 212.914 149.92L205.946 147.01L197.032 152.115C196.957 152.159 196.874 152.178 196.793 152.178L196.791 152.181Z" fill="black"/>
<path d="M188.463 152.473C188.294 152.473 188.132 152.385 188.042 152.229L179.358 136.915C179.226 136.683 179.307 136.388 179.54 136.256C179.772 136.125 180.066 136.206 180.198 136.439L188.882 151.752C189.013 151.985 188.932 152.279 188.7 152.411C188.625 152.455 188.542 152.475 188.461 152.475L188.463 152.473Z" fill="black"/>
<path d="M175.202 139.371C174.794 139.061 174.443 138.676 174.176 138.22C172.908 136.047 173.961 133.066 176.53 131.559C179.097 130.052 182.208 130.592 183.476 132.763C183.73 133.2 183.892 133.67 183.964 134.153L175.202 139.371Z" fill="black"/>
<path d="M174.654 133.733C174.551 133.733 174.446 133.7 174.358 133.632L171.021 131.04C170.811 130.875 170.771 130.572 170.936 130.361C171.1 130.151 171.403 130.111 171.613 130.276L174.95 132.868C175.16 133.033 175.2 133.336 175.035 133.547C174.941 133.67 174.796 133.733 174.654 133.733Z" fill="black"/>
<path d="M151.896 346.338L134.43 381.94H162.288L179.656 346.538L151.896 346.338Z" fill="black"/>
<path d="M226.282 378.284H197.086L174.467 360.273H170.692C167.982 360.273 165.625 362.136 164.994 364.779L164.843 365.414C163.615 370.55 160.107 374.84 155.321 377.054L153.333 377.975L139.815 366.624L115.758 413.678H157.851C159.636 410.497 166.538 408.127 174.783 408.127C183.029 408.127 189.928 410.497 191.715 413.678H215.929L233.232 403.131C244.779 396.093 239.802 378.284 226.286 378.284H226.282Z" fill="#008BCE"/>
<path d="M124.052 397.451L115.756 413.676H157.849C159.634 410.495 166.536 408.125 174.781 408.125C183.027 408.125 189.926 410.495 191.713 413.676H215.927L233.23 403.13C235.685 401.634 237.386 399.648 238.423 397.451H124.052Z" fill="black"/>
<path d="M190.68 374.412H178.652C178.385 374.412 178.17 374.194 178.17 373.929C178.17 373.663 178.387 373.445 178.652 373.445H190.68C190.947 373.445 191.162 373.663 191.162 373.929C191.162 374.194 190.945 374.412 190.68 374.412Z" fill="black"/>
<path d="M185.275 369.681H173.248C172.98 369.681 172.766 369.464 172.766 369.198C172.766 368.932 172.983 368.715 173.248 368.715H185.275C185.543 368.715 185.758 368.932 185.758 369.198C185.758 369.464 185.541 369.681 185.275 369.681Z" fill="black"/>
<path d="M267.963 376.955L297.496 365.459L254.263 298.527L234.334 324.895L267.963 376.955Z" fill="black"/>
<path d="M337.838 331.053L311.929 344.539L283.575 339.001L280.014 340.853C277.732 342.041 276.561 344.642 277.182 347.144L277.495 348.41C278.705 353.282 277.62 358.442 274.551 362.412L272.957 364.474L255.74 360.645L256.025 413.516L293.381 394.073C293.504 390.426 298.538 385.135 305.856 381.325C313.174 377.516 320.387 376.433 323.434 378.432L344.924 367.247L355.43 349.895C362.441 338.314 349.837 324.81 337.84 331.051L337.838 331.053Z" fill="#008BCE"/>
<path d="M256.023 413.999C255.935 413.999 255.85 413.975 255.773 413.929C255.628 413.841 255.541 413.685 255.541 413.518L255.258 360.648C255.258 360.5 255.324 360.36 255.438 360.268C255.552 360.175 255.701 360.14 255.845 360.171L272.764 363.934L274.171 362.115C277.168 358.238 278.21 353.286 277.028 348.526L276.715 347.261C276.037 344.53 277.304 341.721 279.795 340.425L283.355 338.573C283.452 338.522 283.564 338.507 283.671 338.527L311.86 344.032L337.621 330.625C343.284 327.679 349.758 328.791 354.116 333.459C358.477 338.129 359.156 344.68 355.846 350.149L345.34 367.501C345.294 367.576 345.228 367.64 345.149 367.679L323.66 378.865C323.506 378.946 323.32 378.935 323.173 378.841C320.229 376.91 313.04 378.138 306.081 381.76C299.123 385.383 293.986 390.569 293.868 394.095C293.861 394.271 293.762 394.427 293.607 394.508L256.251 413.951C256.181 413.988 256.104 414.006 256.027 414.006L256.023 413.999ZM256.225 361.249L256.501 412.721L292.914 393.77C293.282 389.882 298.441 384.638 305.63 380.897C312.816 377.156 320.064 375.941 323.449 377.876L344.577 366.88L355.013 349.644C358.093 344.557 357.462 338.463 353.404 334.118C349.348 329.775 343.323 328.742 338.059 331.482L312.15 344.967C312.053 345.018 311.942 345.033 311.834 345.014L283.645 339.509L280.233 341.283C278.142 342.373 277.076 344.735 277.646 347.028L277.96 348.293C279.212 353.341 278.107 358.596 274.928 362.708L273.334 364.771C273.22 364.918 273.029 364.986 272.847 364.947L256.222 361.249H256.225Z" fill="black"/>
<path d="M255.924 395.286L256.022 413.517L293.378 394.073C293.501 390.427 298.535 385.135 305.853 381.326C313.171 377.517 320.384 376.434 323.431 378.433L344.921 367.247L355.427 349.895C356.918 347.433 357.514 344.884 357.426 342.457L255.926 395.284L255.924 395.286Z" fill="black"/>
<path d="M293.568 349.67C293.393 349.67 293.226 349.576 293.138 349.409C293.016 349.172 293.108 348.88 293.344 348.756L304.017 343.201C304.254 343.078 304.545 343.17 304.668 343.407C304.791 343.645 304.699 343.937 304.462 344.06L293.789 349.615C293.719 349.653 293.643 349.67 293.568 349.67Z" fill="black"/>
<path d="M286.597 347.971C286.422 347.971 286.255 347.877 286.168 347.71C286.045 347.472 286.137 347.18 286.374 347.057L297.046 341.502C297.283 341.379 297.575 341.471 297.697 341.708C297.82 341.946 297.728 342.238 297.491 342.361L286.819 347.916C286.749 347.954 286.672 347.971 286.597 347.971Z" fill="black"/>
<path d="M114.27 220.023H228.981C240.484 220.023 247.888 232.253 242.578 242.478L184.263 354.779H130.491L179.359 260.766C180.661 258.262 178.848 255.265 176.031 255.265H114.27V220.023Z" fill="#242424"/>
<path d="M179.641 258.016C179.643 258.062 180.106 259.323 179.358 260.766L161.596 294.936C182.695 290.43 187.639 294.787 188.799 296.979C194.163 307.119 200.909 309.43 207.94 309.177L230.21 266.291C232.168 262.521 229.439 258.016 225.199 258.016H179.639H179.641Z" fill="black"/>
<path d="M193.293 236.691H53.9219V250.887C53.9219 269.482 68.9615 284.556 87.5134 284.556H180.906C186.749 284.556 192.197 287.517 195.385 292.427L237.796 357.772L280.253 335.676L227.812 255.394C220.189 243.725 207.21 236.694 193.293 236.694V236.691Z" fill="#242424"/>
<path d="M53.9482 251.952C96.5503 258.109 85.8735 242.948 127.283 241.217L125.597 236.691H53.9219C53.9219 236.691 53.9372 251.598 53.9482 251.952Z" fill="black"/>
<path d="M237.796 358.255C237.638 358.255 237.482 358.176 237.39 358.036L194.979 292.69C191.87 287.899 186.608 285.039 180.906 285.039H87.5133C68.7247 285.039 53.4395 269.719 53.4395 250.886V240.876C53.4395 240.608 53.6565 240.393 53.9218 240.393C54.1871 240.393 54.4041 240.61 54.4041 240.876V250.886C54.4041 269.185 69.2574 284.072 87.5133 284.072H180.906C186.937 284.072 192.499 287.097 195.788 292.163L237.96 357.14L279.556 335.491L227.406 255.658C223.898 250.287 218.146 243.804 212.522 241.715C212.272 241.623 212.145 241.344 212.237 241.093C212.329 240.843 212.61 240.715 212.858 240.808C220.213 243.538 226.472 252.459 228.215 255.128L280.657 335.41C280.731 335.524 280.755 335.664 280.72 335.796C280.685 335.928 280.598 336.04 280.475 336.104L238.017 358.201C237.947 358.238 237.87 358.255 237.796 358.255Z" fill="black"/>
<path d="M70.8062 156.977L69.6113 168.905H80.5228L80.8933 160.324L70.8062 156.977Z" fill="#FFBC96"/>
<path d="M80.7038 164.681C80.7674 163.229 80.831 161.775 80.8924 160.323L70.6387 157.498C70.7593 158.245 71.2635 160.762 73.5085 162.709C76.5076 165.307 80.1733 164.769 80.7017 164.681H80.7038Z" fill="black"/>
<path d="M77.802 162.189C82.3256 162.189 85.9927 158.105 85.9927 153.068C85.9927 148.031 82.3256 143.947 77.802 143.947C73.2784 143.947 69.6113 148.031 69.6113 153.068C69.6113 158.105 73.2784 162.189 77.802 162.189Z" fill="#FFBC96"/>
<path d="M75.623 156.301C75.748 156.942 76.0703 157.551 76.5899 158.025C77.7496 159.08 79.4794 159.102 80.6633 158.146L75.623 156.301Z" fill="white"/>
<path d="M83.8562 146.939C82.3588 145.105 80.2037 143.947 77.803 143.947C73.2802 143.947 69.1914 147.277 69.1914 152.315C69.1914 152.919 69.437 154.283 69.7833 154.92C71.8749 154.032 77.0576 151.39 80.0217 146.873C80.0217 146.873 79.9187 149.878 75.694 154.05C75.694 154.05 81.9115 152.187 83.8562 146.939Z" fill="black"/>
<path d="M57.676 163.554C61.8581 163.554 65.2484 160.156 65.2484 155.965C65.2484 151.773 61.8581 148.375 57.676 148.375C53.4938 148.375 50.1035 151.773 50.1035 155.965C50.1035 160.156 53.4938 163.554 57.676 163.554Z" fill="black"/>
<path d="M44.8091 179.186C50.851 179.186 55.749 174.276 55.749 168.22C55.749 162.164 50.851 157.254 44.8091 157.254C38.7671 157.254 33.8691 162.164 33.8691 168.22C33.8691 174.276 38.7671 179.186 44.8091 179.186Z" fill="black"/>
<path d="M29.27 204.939C38.1489 204.939 45.3467 197.725 45.3467 188.826C45.3467 179.927 38.1489 172.713 29.27 172.713C20.3911 172.713 13.1934 179.927 13.1934 188.826C13.1934 197.725 20.3911 204.939 29.27 204.939Z" fill="black"/>
<path d="M67.4409 155.262C67.2414 155.262 67.0529 155.137 66.9849 154.937L65.7769 151.447C65.6892 151.194 65.8229 150.92 66.0751 150.832C66.3272 150.744 66.6012 150.878 66.6889 151.13L67.8969 154.621C67.9846 154.874 67.8509 155.148 67.5988 155.236C67.5462 155.254 67.4935 155.262 67.4409 155.262Z" fill="black"/>
<path d="M123.543 222.916L102.459 195.918H125.689L135.413 207.326C139.157 211.719 144.634 214.247 150.397 214.245L167.097 214.239V230.486L139.061 230.492C133.001 230.492 127.279 227.7 123.543 222.916Z" fill="#FFBC96"/>
<path d="M197.02 222.001L196.415 223.24L190.337 222.858L185.521 217.47H146.062V214.352H159.938C161.935 214.352 167.464 211.121 171.972 211.121H180.18C182.813 211.121 185.409 211.727 187.77 212.894L195.169 216.549C197.18 217.544 198.011 219.983 197.022 222.001H197.02Z" fill="#FFBC96"/>
<path d="M189.754 225.553L196.549 228.881C197.996 229.597 199.747 228.995 200.455 227.541L200.466 227.516C201.319 225.763 200.598 223.646 198.853 222.785L190.971 218.89C188.61 217.723 186.014 217.117 183.381 217.117H146.061V228.54H173.855L176.701 225.821C178.595 224.01 181.231 223.176 183.809 223.617C185.503 223.907 187.551 224.476 189.752 225.553H189.754Z" fill="#FFBC96"/>
<path d="M176.956 225.473C177.577 225.576 178.243 225.636 178.978 225.636C179.249 225.664 180.392 225.655 184.384 225.644C186.381 225.64 188.008 227.263 188.008 229.267V229.317C188.008 231.316 186.392 232.937 184.399 232.937H169.246C158.639 232.937 159.113 224.856 159.113 224.856V220.768H162.504C170.131 220.768 171.929 224.625 176.958 225.471L176.956 225.473Z" fill="#FFBC96"/>
<path d="M197.833 229.665C197.32 229.665 196.809 229.546 196.334 229.311L189.542 225.983C187.672 225.067 185.716 224.43 183.73 224.089C181.34 223.681 179.154 224.283 177.407 225.831C177.207 226.009 176.903 225.99 176.725 225.79C176.547 225.59 176.567 225.284 176.767 225.107C178.711 223.382 181.241 222.681 183.892 223.134C185.968 223.49 188.011 224.155 189.967 225.111L196.761 228.439C197.346 228.729 198.006 228.771 198.622 228.56C199.238 228.349 199.736 227.91 200.021 227.321C200.769 225.785 200.142 223.953 198.64 223.211L190.758 219.316C188.476 218.189 185.926 217.592 183.383 217.592H180.483C180.215 217.592 180 217.374 180 217.108C180 216.842 180.217 216.625 180.483 216.625H183.383C186.075 216.625 188.772 217.255 191.186 218.448L199.067 222.343C201.045 223.321 201.869 225.733 200.903 227.721C200.493 228.564 199.798 229.179 198.936 229.476C198.576 229.599 198.204 229.66 197.835 229.66L197.833 229.665Z" fill="black"/>
<path d="M184.293 233.42H170.308C166.096 233.42 163.189 232.653 161.183 231.008H139.056C132.917 231.008 126.976 228.092 123.163 223.211L102.079 196.214C101.965 196.069 101.945 195.871 102.024 195.704C102.105 195.537 102.274 195.432 102.458 195.432H125.689C125.829 195.432 125.965 195.493 126.055 195.601L135.78 207.008C139.503 211.373 144.828 213.878 150.39 213.878H150.397L159.936 213.867C160.646 213.867 161.997 213.355 163.562 212.762C166.063 211.815 169.177 210.635 171.97 210.635H180.178C182.868 210.635 185.567 211.266 187.983 212.458L195.382 216.114C197.605 217.212 198.539 219.844 197.509 222.102C197.397 222.346 197.112 222.451 196.868 222.341C196.625 222.229 196.52 221.944 196.629 221.7C197.443 219.921 196.706 217.847 194.954 216.981L187.555 213.326C185.273 212.199 182.723 211.602 180.178 211.602H171.97C169.352 211.602 166.331 212.746 163.904 213.667C162.183 214.319 160.824 214.833 159.938 214.833L150.399 214.844H150.392C144.545 214.844 138.953 212.217 135.048 207.634L125.467 196.396H103.451L123.924 222.612C127.554 227.262 133.213 230.037 139.056 230.037H161.359C161.473 230.037 161.584 230.078 161.672 230.153C163.498 231.719 166.243 232.449 170.308 232.449H184.293C185.128 232.449 185.913 232.123 186.503 231.53C187.093 230.937 187.419 230.151 187.419 229.312V229.261C187.419 228.422 187.093 227.633 186.498 227.04C185.907 226.447 185.117 226.129 184.282 226.124L182.322 226.129C179.948 226.135 179.389 226.137 179.13 226.113C178.132 226.113 176.606 225.986 175.543 225.637C175.289 225.553 175.151 225.281 175.234 225.026C175.317 224.771 175.591 224.633 175.844 224.716C176.808 225.032 178.231 225.144 179.154 225.144C179.172 225.144 179.189 225.144 179.204 225.147C179.397 225.166 180.075 225.166 182.318 225.16L184.28 225.155C185.38 225.129 186.406 225.579 187.182 226.355C187.959 227.13 188.386 228.163 188.386 229.261V229.312C188.386 230.408 187.961 231.438 187.187 232.214C186.413 232.989 185.387 233.415 184.293 233.415V233.42Z" fill="black"/>
<path d="M127.281 241.214H46.4961L51.5934 192.875H109.275L127.281 241.214Z" fill="#008BCE"/>
<path d="M127.281 241.7H46.4968C46.3609 241.7 46.2293 241.641 46.1373 241.54C46.0452 241.439 46.0013 241.303 46.0167 241.166L51.1139 192.825C51.1403 192.579 51.3463 192.393 51.5941 192.393H109.278C109.479 192.393 109.659 192.518 109.729 192.707L127.735 241.048C127.79 241.197 127.77 241.362 127.68 241.494C127.59 241.623 127.441 241.702 127.284 241.702L127.281 241.7ZM47.0339 240.731H126.586L108.942 193.359H52.0282L47.0339 240.731Z" fill="black"/>
<path d="M37.0352 220.414V186.559H62.5916V207.676C62.5916 210.395 64.7928 212.601 67.5069 212.599L109.539 212.585V235.668L52.2699 235.679C43.8556 235.679 37.0352 228.845 37.0352 220.412V220.414Z" fill="#FFBC96"/>
<path d="M134.822 219.766L137.321 222.472C138.584 223.839 138.711 225.908 137.623 227.419L135.17 230.835L129.222 224.184H91.8555V216.346H127.012C129.976 216.346 132.809 217.585 134.822 219.766Z" fill="#FFBC96"/>
<path d="M133.67 214.879L135.084 216.41C136.347 217.776 136.474 219.846 135.387 221.357L132.934 224.773L126.986 218.121H91.8574V212.669H97.8207C100.287 212.669 104.687 210.283 110.254 210.283H123.182C127.166 210.283 130.969 211.948 133.675 214.879H133.67Z" fill="#FFBC96"/>
<path d="M135.696 225.036L138.693 228.283C139.956 229.649 140.083 231.719 138.996 233.23L136.542 236.646L130.595 229.994H107.445V222.156H129.119C131.616 222.156 134.001 223.2 135.698 225.038L135.696 225.036Z" fill="#FFBC96"/>
<path d="M134.597 230.744L137.726 234.131C138.886 235.388 139.002 237.288 138.004 238.676C136.665 240.539 133.951 240.684 132.423 238.975L130.726 237.077C129.914 236.17 128.757 235.651 127.542 235.651H108.103C103.021 235.651 99.4427 235.359 94.5449 227.807L127.904 227.813C130.445 227.813 132.872 228.876 134.6 230.746L134.597 230.744Z" fill="#FFBC96"/>
<path d="M37.0354 211.784V186.559H62.5919V206.101C60.8774 206.028 58.5426 205.822 56.7251 205.261C54.0065 204.422 51.3406 204.034 48.7229 207.619C45.2941 212.317 40.8918 212.829 37.0332 211.784H37.0354Z" fill="black"/>
<path d="M137.623 227.906C137.525 227.906 137.426 227.875 137.341 227.813C137.124 227.657 137.075 227.354 137.231 227.139C138.18 225.819 138.069 223.996 136.966 222.803L134.466 220.096C132.55 218.02 129.832 216.83 127.01 216.83H120.133C119.865 216.83 119.65 216.612 119.65 216.347C119.65 216.081 119.867 215.863 120.133 215.863H127.01C130.099 215.863 133.076 217.166 135.175 219.44L137.674 222.146C139.086 223.675 139.23 226.014 138.014 227.706C137.919 227.838 137.773 227.908 137.621 227.908L137.623 227.906Z" fill="black"/>
<path d="M138.039 235.043C137.94 235.043 137.842 235.013 137.756 234.951C137.539 234.795 137.491 234.492 137.647 234.277L138.603 232.948C139.55 231.627 139.438 229.804 138.337 228.611L135.338 225.365C133.738 223.631 131.469 222.638 129.114 222.638H120.068C119.801 222.638 119.586 222.421 119.586 222.155C119.586 221.889 119.803 221.672 120.068 221.672H129.114C131.738 221.672 134.266 222.779 136.046 224.708L139.043 227.955C140.455 229.483 140.6 231.823 139.383 233.514L138.427 234.843C138.333 234.975 138.186 235.046 138.035 235.046L138.039 235.043Z" fill="black"/>
<path d="M135.089 240.653C133.931 240.653 132.839 240.166 132.061 239.296L130.364 237.398C129.645 236.594 128.617 236.133 127.54 236.133H106.04C102.137 236.133 98.5002 234.197 96.3056 230.957C96.1565 230.735 96.2135 230.434 96.435 230.285C96.6564 230.136 96.9568 230.193 97.1058 230.415C99.1184 233.389 102.46 235.166 106.04 235.166H127.54C128.891 235.166 130.182 235.744 131.083 236.752L132.78 238.65C133.412 239.355 134.313 239.729 135.257 239.68C136.2 239.63 137.06 239.16 137.612 238.391C138.472 237.194 138.371 235.539 137.371 234.459L134.242 231.071C132.611 229.305 130.301 228.295 127.902 228.295H120.373C120.106 228.295 119.891 228.077 119.891 227.811C119.891 227.546 120.108 227.328 120.373 227.328H127.902C130.57 227.328 133.14 228.453 134.953 230.417L138.081 233.804C139.392 235.223 139.524 237.391 138.397 238.96C137.673 239.968 136.547 240.583 135.31 240.649C135.236 240.653 135.163 240.656 135.091 240.656L135.089 240.653Z" fill="black"/>
<path d="M52.2676 236.168C48.0715 236.168 44.1252 234.529 41.1567 231.555C38.1882 228.581 36.5527 224.624 36.5527 220.415V186.559C36.5527 186.291 36.7698 186.076 37.0351 186.076H62.5915C62.859 186.076 63.0738 186.294 63.0738 186.559V207.677C63.0738 208.863 63.5342 209.979 64.3717 210.816C65.2092 211.655 66.3208 212.116 67.5024 212.116H96.6982C98.8818 212.116 100.627 211.635 102.473 211.123C104.72 210.502 107.27 209.799 111.111 209.799H123.176C127.28 209.799 131.235 211.53 134.023 214.55L135.437 216.081C136.659 217.404 136.955 219.308 136.189 220.938C136.075 221.18 135.788 221.283 135.547 221.171C135.306 221.057 135.201 220.769 135.315 220.527C135.911 219.258 135.679 217.77 134.727 216.74L133.313 215.209C130.706 212.386 127.012 210.77 123.176 210.77H111.111C107.401 210.77 105.027 211.426 102.729 212.061C100.818 212.588 99.0134 213.089 96.6982 213.089H67.5024C66.0621 213.089 64.7072 212.527 63.6877 211.505C62.6683 210.484 62.107 209.126 62.107 207.681V187.047H37.5152V220.42C37.5152 224.369 39.0498 228.082 41.8363 230.874C44.6229 233.666 48.3258 235.204 52.2633 235.204H113.457C113.724 235.204 113.939 235.421 113.939 235.687C113.939 235.953 113.722 236.17 113.457 236.17H52.2676V236.168Z" fill="black"/>
<path d="M131.309 200.744H112.027C111.76 200.744 111.545 200.526 111.545 200.261C111.545 199.995 111.762 199.777 112.027 199.777H131.309C131.577 199.777 131.791 199.995 131.791 200.261C131.791 200.526 131.574 200.744 131.309 200.744Z" fill="black"/>
<path d="M34.832 200.257V193.025C34.832 179.658 45.6426 168.824 58.9788 168.824H92.1011C102.46 168.824 112.207 173.738 118.381 182.075L131.849 200.257H34.832Z" fill="#008BCE"/>
<path d="M46.4975 201.262H34.8319C34.5645 201.262 34.3496 201.044 34.3496 200.778V193.028C34.3496 179.417 45.3992 168.344 58.9787 168.344H92.101C102.563 168.344 112.532 173.37 118.769 181.79L132.237 199.972C132.346 200.119 132.362 200.315 132.281 200.477C132.2 200.64 132.031 200.743 131.849 200.743H112.028C111.76 200.743 111.545 200.526 111.545 200.26C111.545 199.994 111.762 199.777 112.028 199.777H130.888L117.993 182.365C111.938 174.191 102.258 169.31 92.101 169.31H58.9787C45.9297 169.31 35.3164 179.949 35.3164 193.028V200.295H46.4997C46.7672 200.295 46.9821 200.513 46.9821 200.778C46.9821 201.044 46.765 201.262 46.4997 201.262H46.4975Z" fill="black"/>
<path d="M66.0839 200.697C65.8164 200.697 65.6016 200.48 65.6016 200.214V186.561C65.6016 186.293 65.8186 186.078 66.0839 186.078C66.3492 186.078 66.5662 186.296 66.5662 186.561V200.214C66.5662 200.482 66.3492 200.697 66.0839 200.697Z" fill="black"/>
<path d="M220.433 236.171C220.312 236.171 220.191 236.127 220.099 236.037C219.906 235.852 219.9 235.547 220.084 235.354L255.732 198.027H187.937L151.651 236.024C151.467 236.217 151.16 236.224 150.97 236.039C150.777 235.855 150.77 235.549 150.954 235.356L187.383 197.21C187.475 197.115 187.6 197.061 187.731 197.061H256.863C257.056 197.061 257.232 197.177 257.308 197.355C257.385 197.533 257.346 197.739 257.214 197.88L220.786 236.026C220.691 236.125 220.564 236.175 220.437 236.175L220.433 236.171Z" fill="black"/>
<path d="M220.338 241.666H110.959C110.691 241.666 110.477 241.448 110.477 241.182V235.688C110.477 235.42 110.694 235.205 110.959 235.205H126.639C126.906 235.205 127.121 235.423 127.121 235.688C127.121 235.954 126.904 236.172 126.639 236.172H111.441V240.697H219.854V236.172H138.765C138.497 236.172 138.282 235.954 138.282 235.688C138.282 235.423 138.499 235.205 138.765 235.205H220.336C220.604 235.205 220.819 235.423 220.819 235.688V241.182C220.819 241.45 220.602 241.666 220.336 241.666H220.338Z" fill="black"/>
<path d="M210.672 218.318C208.72 218.318 207.131 216.728 207.131 214.77C207.131 212.813 208.718 211.223 210.672 211.223C212.625 211.223 214.212 212.813 214.212 214.77C214.212 216.728 212.625 218.318 210.672 218.318ZM210.672 212.191C209.253 212.191 208.098 213.349 208.098 214.77C208.098 216.192 209.253 217.349 210.672 217.349C212.09 217.349 213.245 216.192 213.245 214.77C213.245 213.349 212.09 212.191 210.672 212.191Z" fill="black"/>
<path d="M213.878 64.2001H111.31C111.043 64.2001 110.828 63.9826 110.828 63.7168V13.0692C110.828 12.8012 111.045 12.5859 111.31 12.5859H213.878C214.146 12.5859 214.361 12.8034 214.361 13.0692V63.7168C214.361 63.9848 214.144 64.2001 213.878 64.2001ZM111.795 63.2313H213.396V13.5525H111.795V63.2313Z" fill="#242424"/>
<path d="M195.546 23.2068H161.781C161.514 23.2068 161.299 22.9893 161.299 22.7235C161.299 22.4577 161.516 22.2402 161.781 22.2402H195.546C195.813 22.2402 196.028 22.4577 196.028 22.7235C196.028 22.9893 195.811 23.2068 195.546 23.2068Z" fill="#242424"/>
<path d="M176.903 32.4529H158.603C158.336 32.4529 158.121 32.2354 158.121 31.9696C158.121 31.7038 158.338 31.4863 158.603 31.4863H176.903C177.171 31.4863 177.385 31.7038 177.385 31.9696C177.385 32.2354 177.168 32.4529 176.903 32.4529Z" fill="#242424"/>
<path d="M195.672 39.6599H152.18C151.912 39.6599 151.697 39.4424 151.697 39.1766C151.697 38.9108 151.914 38.6934 152.18 38.6934H195.672C195.939 38.6934 196.154 38.9108 196.154 39.1766C196.154 39.4424 195.937 39.6599 195.672 39.6599Z" fill="#242424"/>
<path d="M147.044 39.6599H119.85C119.582 39.6599 119.367 39.4424 119.367 39.1766C119.367 38.9108 119.584 38.6934 119.85 38.6934H147.044C147.311 38.6934 147.526 38.9108 147.526 39.1766C147.526 39.4424 147.309 39.6599 147.044 39.6599Z" fill="#242424"/>
<path d="M205.944 46.865H168.033C167.766 46.865 167.551 46.6475 167.551 46.3817C167.551 46.1159 167.768 45.8984 168.033 45.8984H205.944C206.211 45.8984 206.426 46.1159 206.426 46.3817C206.426 46.6475 206.209 46.865 205.944 46.865Z" fill="#242424"/>
<path d="M162.897 46.865H119.85C119.582 46.865 119.367 46.6475 119.367 46.3817C119.367 46.1159 119.584 45.8984 119.85 45.8984H162.897C163.164 45.8984 163.379 46.1159 163.379 46.3817C163.379 46.6475 163.162 46.865 162.897 46.865Z" fill="#242424"/>
<path d="M180.266 54.0701H152.18C151.912 54.0701 151.697 53.8526 151.697 53.5868C151.697 53.321 151.914 53.1035 152.18 53.1035H180.266C180.534 53.1035 180.748 53.321 180.748 53.5868C180.748 53.8526 180.531 54.0701 180.266 54.0701Z" fill="#242424"/>
<path d="M147.044 54.0701H119.85C119.582 54.0701 119.367 53.8526 119.367 53.5868C119.367 53.321 119.584 53.1035 119.85 53.1035H147.044C147.311 53.1035 147.526 53.321 147.526 53.5868C147.526 53.8526 147.309 54.0701 147.044 54.0701Z" fill="#242424"/>
<path d="M126.66 33.0823C126.538 33.0823 126.413 33.034 126.318 32.9396L120.311 26.9183C120.123 26.7294 120.123 26.4241 120.311 26.2352L126.318 20.214C126.507 20.025 126.812 20.025 127 20.214C127.189 20.4029 127.189 20.7082 127 20.8971L121.333 26.5757L127 32.2542C127.189 32.4431 127.189 32.7506 127 32.9374C126.906 33.0318 126.783 33.0802 126.658 33.0802L126.66 33.0823Z" fill="#6155FF"/>
<path d="M137.278 33.0823C137.156 33.0823 137.031 33.0362 136.936 32.9418C136.748 32.7528 136.748 32.4475 136.936 32.2564L142.604 26.5779L136.936 20.8993C136.748 20.7104 136.748 20.4029 136.936 20.214C137.125 20.025 137.43 20.025 137.618 20.214L143.625 26.2352C143.814 26.4241 143.814 26.7294 143.625 26.9183L137.618 32.9396C137.524 33.034 137.401 33.0823 137.276 33.0823H137.278Z" fill="#6155FF"/>
<path d="M128.587 33.0831C128.511 33.0831 128.43 33.0633 128.357 33.0238C128.123 32.8964 128.037 32.602 128.164 32.367L134.698 20.3245C134.825 20.0895 135.119 20.0038 135.353 20.1312C135.588 20.2586 135.673 20.553 135.546 20.7881L129.013 32.8305C128.925 32.9908 128.758 33.0831 128.587 33.0831Z" fill="#6155FF"/>
<path d="M205.944 32.4529H182.041C181.773 32.4529 181.559 32.2354 181.559 31.9696C181.559 31.7038 181.776 31.4863 182.041 31.4863H205.944C206.212 31.4863 206.427 31.7038 206.427 31.9696C206.427 32.2354 206.21 32.4529 205.944 32.4529Z" fill="#242424"/>
<path d="M318.999 295.685C320.631 297.394 322.38 299 324.233 300.48L351.396 320.389L378.56 300.48C392.407 289.413 400.358 271.431 398.201 255.169L392.155 217.416L351.396 208.4L310.638 217.416L304.591 255.169C302.721 269.254 308.439 284.629 318.999 295.685Z" fill="white"/>
<path d="M351.396 320.874C351.295 320.874 351.196 320.843 351.111 320.782L323.947 300.873C322.081 299.383 320.306 297.756 318.65 296.02C307.835 284.701 302.267 269.023 304.113 255.106L310.159 217.34C310.19 217.145 310.339 216.987 310.532 216.945L351.29 207.93C351.358 207.914 351.431 207.914 351.499 207.93L392.257 216.945C392.45 216.989 392.599 217.145 392.63 217.34L398.676 255.093C400.825 271.281 392.86 289.667 378.859 300.86L351.681 320.782C351.595 320.843 351.494 320.874 351.396 320.874ZM311.062 217.817L305.069 255.245C303.262 268.864 308.732 284.237 319.347 295.35C320.974 297.053 322.719 298.652 324.532 300.102L351.393 319.791L378.272 300.091C392 289.116 399.823 271.083 397.72 255.234L391.729 217.819L351.396 208.898L311.062 217.819V217.817Z" fill="black"/>
<path d="M351.396 216.26L317.013 223.865L311.913 255.711C310.092 269.429 316.802 284.598 328.481 293.934L351.396 310.73V216.26Z" fill="#008BCE"/>
<path d="M351.396 310.73L374.311 293.934C385.992 284.598 392.701 269.429 390.879 255.711L385.779 223.865L351.396 216.26V310.73Z" fill="#2C2B2A"/>
<path d="M336.098 263.882V241.307C336.098 235.955 340.45 231.602 345.801 231.602H355.575C360.924 231.602 365.278 235.955 365.278 241.307V263.882C365.278 265.46 364 266.736 362.424 266.736H338.952C337.376 266.736 336.098 265.457 336.098 263.882ZM359.569 241.304C359.569 239.101 357.778 237.309 355.575 237.309H345.801C343.598 237.309 341.807 239.101 341.807 241.304V261.027H359.571V241.304H359.569Z" fill="white"/>
<path d="M362.424 267.218H338.952C337.113 267.218 335.615 265.72 335.615 263.879V241.304C335.615 235.687 340.184 231.115 345.801 231.115H355.575C361.191 231.115 365.76 235.687 365.76 241.304V263.879C365.76 265.72 364.263 267.218 362.424 267.218ZM345.801 232.084C340.717 232.084 336.58 236.22 336.58 241.306V263.882C336.58 265.189 337.643 266.252 338.95 266.252H362.421C363.728 266.252 364.793 265.189 364.793 263.882V241.306C364.793 236.22 360.657 232.084 355.572 232.084H345.799H345.801ZM359.569 261.511H341.804C341.537 261.511 341.322 261.294 341.322 261.028V241.306C341.322 238.835 343.33 236.827 345.801 236.827H355.575C358.043 236.827 360.054 238.837 360.054 241.306V261.028C360.054 261.296 359.837 261.511 359.571 261.511H359.569ZM342.289 260.543H359.087V241.304C359.087 239.366 357.51 237.791 355.575 237.791H345.801C343.865 237.791 342.289 239.366 342.289 241.304V260.543Z" fill="black"/>
<path d="M372.978 255.705C372.995 256.153 373.004 256.604 373.004 257.058C373.004 272.673 362.939 285.33 350.524 285.33C338.108 285.33 328.043 272.673 328.043 257.058C328.043 256.606 328.054 256.153 328.069 255.705H372.976H372.978Z" fill="white"/>
<path d="M350.523 285.814C337.862 285.814 327.561 272.915 327.561 257.059C327.561 256.6 327.572 256.143 327.589 255.688C327.6 255.429 327.813 255.223 328.071 255.223H372.978C373.236 255.223 373.451 255.429 373.46 255.688C373.478 256.143 373.489 256.6 373.489 257.059C373.489 272.915 363.187 285.814 350.526 285.814H350.523ZM328.538 256.189C328.532 256.477 328.527 256.767 328.527 257.059C328.527 272.381 338.395 284.845 350.526 284.845C362.656 284.845 372.524 272.379 372.524 257.059C372.524 256.769 372.519 256.479 372.513 256.189H328.541H328.538Z" fill="black"/>
<path d="M346.078 275.893L348.332 266.662C347.187 265.962 346.42 264.705 346.42 263.264C346.42 261.063 348.205 259.279 350.404 259.279C352.603 259.279 354.387 261.063 354.387 263.264C354.387 264.705 353.62 265.962 352.475 266.662L354.729 275.893H346.078Z" fill="black"/>
<path d="M354.574 68.5864L413.516 26.796L403.337 12.4844L344.461 54.2243L354.574 68.5864Z" fill="#DFDFDF"/>
<path d="M327.778 149.613C352.965 131.837 358.834 96.7307 340.887 71.2012C322.94 45.6717 287.974 39.3865 262.787 57.1628C237.6 74.9391 231.73 110.045 249.677 135.575C267.624 161.104 302.591 167.39 327.778 149.613Z" fill="#DFDFDF"/>
<path d="M321.327 140.155C341.83 125.691 346.744 97.3066 332.304 76.7576C317.864 56.2087 289.537 51.2764 269.035 65.7411C248.532 80.2057 243.618 108.59 258.058 129.139C272.499 149.688 300.825 154.62 321.327 140.155Z" fill="white"/>
<path d="M281.513 96.9849C279.413 109.445 284.052 120.619 291.872 121.944C299.692 123.269 307.734 114.242 309.832 101.785C311.932 89.3249 305.307 89.9378 297.487 88.611C289.667 87.2864 283.611 84.5251 281.511 96.9849H281.513Z" fill="#D2D2D2"/>
<path d="M293.42 122.559C292.874 122.559 292.333 122.513 291.791 122.423C283.721 121.054 278.896 109.607 281.038 96.9058C281.811 92.3212 283.136 89.516 285.207 88.0771C287.823 86.2627 291.184 86.9151 295.078 87.673C295.884 87.8289 296.717 87.9915 297.57 88.1365C298.423 88.2814 299.263 88.4023 300.076 88.5209C304.001 89.0898 307.39 89.5797 309.264 92.1543C310.751 94.195 311.082 97.2814 310.31 101.866C309.28 107.982 306.811 113.482 303.358 117.357C300.33 120.756 296.858 122.559 293.422 122.559H293.42ZM289.445 87.8772C288.051 87.8772 286.808 88.1387 285.756 88.8702C283.936 90.1333 282.704 92.8133 281.989 97.0639C279.937 109.24 284.407 120.187 291.951 121.467C295.564 122.08 299.357 120.391 302.637 116.711C305.969 112.97 308.357 107.641 309.356 101.703C310.073 97.4528 309.788 94.5135 308.484 92.721C306.848 90.476 303.645 90.0103 299.938 89.4743C299.116 89.3556 298.27 89.2326 297.408 89.0876C296.546 88.9427 295.707 88.7779 294.893 88.6197C292.911 88.2353 291.076 87.8772 289.448 87.8772H289.445Z" fill="black"/>
<path d="M301.696 82.3228C301.593 82.3228 301.49 82.2899 301.403 82.2218C301.192 82.0592 301.153 81.7539 301.315 81.543L305.257 76.4224C305.419 76.2115 305.721 76.172 305.934 76.3345C306.145 76.4971 306.184 76.8024 306.022 77.0133L302.08 82.1339C301.986 82.2569 301.841 82.3228 301.696 82.3228Z" fill="black"/>
<path d="M285.02 89.3141C284.876 89.3141 284.733 89.2504 284.639 89.1274L276.768 79.0115L266.651 79.0664H266.648C266.383 79.0664 266.166 78.8511 266.166 78.5853C266.166 78.3173 266.379 78.0998 266.646 78.0998L277.003 78.0449H277.005C277.154 78.0449 277.294 78.113 277.387 78.2316L285.404 88.5343C285.568 88.7452 285.531 89.0483 285.321 89.2131C285.233 89.2812 285.128 89.3163 285.025 89.3163L285.02 89.3141Z" fill="black"/>
<path d="M280.821 101.84C280.75 101.84 280.68 101.824 280.612 101.791L269.072 96.2424L260.037 100.803C259.798 100.924 259.508 100.827 259.388 100.588C259.267 100.348 259.364 100.058 259.603 99.9373L268.85 95.2693C268.984 95.2012 269.142 95.199 269.275 95.2649L281.031 100.917C281.272 101.033 281.373 101.321 281.257 101.563C281.173 101.736 281 101.837 280.821 101.837V101.84Z" fill="black"/>
<path d="M262.032 120.733C261.903 120.733 261.776 120.682 261.681 120.581C261.497 120.388 261.506 120.08 261.701 119.898L269.23 112.774C269.337 112.671 269.491 112.625 269.637 112.649L282.513 114.694C282.776 114.736 282.956 114.984 282.915 115.248C282.873 115.511 282.627 115.694 282.362 115.65L269.721 113.642L262.365 120.603C262.271 120.691 262.153 120.735 262.034 120.735L262.032 120.733Z" fill="black"/>
<path d="M309.157 93.4075C308.999 93.4075 308.843 93.3284 308.751 93.1856C308.607 92.9616 308.67 92.6606 308.894 92.5156L319.843 85.4268C319.968 85.3455 320.125 85.328 320.266 85.3763L330.028 88.8405C330.28 88.9306 330.412 89.2074 330.322 89.4578C330.232 89.7104 329.958 89.8422 329.706 89.7522L320.167 86.367L309.418 93.3262C309.337 93.379 309.245 93.4031 309.157 93.4031V93.4075Z" fill="black"/>
<path d="M329.177 112.61C329.05 112.61 328.925 112.562 328.831 112.463L321.791 105.177L309.073 106.613C308.806 106.644 308.569 106.453 308.538 106.187C308.508 105.921 308.698 105.682 308.964 105.651L321.916 104.188C322.068 104.173 322.214 104.226 322.317 104.333L329.524 111.789C329.71 111.98 329.704 112.287 329.513 112.472C329.419 112.562 329.298 112.608 329.177 112.608V112.61Z" fill="black"/>
<path d="M320.577 130.654C320.402 130.654 320.235 130.56 320.147 130.393L315.482 121.393L301.966 118.957C301.703 118.909 301.53 118.658 301.576 118.395C301.624 118.131 301.874 117.957 302.137 118.004L315.888 120.481C316.034 120.508 316.162 120.602 316.232 120.734L321.007 129.945C321.13 130.182 321.037 130.474 320.801 130.597C320.731 130.635 320.654 130.652 320.579 130.652L320.577 130.654Z" fill="black"/>
<path d="M293.306 112.139C293.278 112.139 293.249 112.136 293.218 112.13C292.955 112.081 292.782 111.831 292.83 111.567L297.013 88.5239C297.062 88.2602 297.314 88.0867 297.575 88.135C297.838 88.1834 298.011 88.4338 297.963 88.6974L293.78 111.741C293.738 111.974 293.534 112.139 293.306 112.139Z" fill="black"/>
<path d="M290.528 87.4435C290.374 86.7779 290.346 86.0881 290.462 85.3918C291.019 82.0923 294.632 79.9549 298.534 80.6161C302.437 81.2773 305.149 84.4889 304.594 87.7862C304.482 88.4496 304.248 89.0669 303.91 89.6227L290.528 87.4435Z" fill="black"/>
<path d="M295.178 81.2172C294.957 81.2172 294.755 81.0635 294.707 80.8372L293.507 75.3388C293.45 75.0774 293.615 74.8204 293.876 74.7633C294.134 74.7061 294.393 74.8709 294.45 75.1323L295.649 80.6307C295.706 80.8921 295.542 81.1491 295.281 81.2062C295.246 81.2128 295.211 81.2172 295.178 81.2172Z" fill="black"/>
<path d="M295.239 159.941C284.812 159.941 274.269 157.083 264.828 151.088C251.99 142.936 243.1 130.281 239.798 115.453C236.509 100.686 239.16 85.5267 247.265 72.766C264.028 46.3745 299.185 38.5652 325.632 55.3591C338.47 63.5112 347.36 76.1665 350.662 90.9944C353.95 105.761 351.3 120.92 343.195 133.679C332.415 150.651 314.023 159.938 295.239 159.938V159.941ZM295.217 47.4751C276.75 47.4751 258.674 56.6025 248.079 73.2888C240.114 85.8299 237.507 100.73 240.739 115.244C243.985 129.819 252.724 142.259 265.344 150.273C291.343 166.781 325.901 159.106 342.379 133.163C350.344 120.622 352.951 105.723 349.719 91.2074C346.472 76.6322 337.733 64.1922 325.114 56.1785C315.836 50.2869 305.466 47.4751 295.219 47.4751H295.217Z" fill="black"/>
<path d="M308.334 146.666C308.125 146.666 307.932 146.528 307.871 146.317C307.796 146.06 307.943 145.792 308.2 145.717C317.469 143.018 325.482 137.517 331.369 129.813C331.531 129.6 331.834 129.56 332.046 129.723C332.259 129.886 332.298 130.189 332.136 130.402C326.122 138.27 317.938 143.888 308.469 146.647C308.423 146.66 308.38 146.666 308.334 146.666Z" fill="black"/>
<path d="M294.568 148.497C294.568 148.497 294.561 148.497 294.559 148.497C283.639 148.291 273.091 144.172 264.857 136.903C256.539 129.559 251.139 119.456 249.655 108.46C249.62 108.194 249.804 107.95 250.069 107.915C250.334 107.878 250.575 108.064 250.613 108.33C253.57 130.258 272.473 147.111 294.576 147.531C294.844 147.535 295.056 147.757 295.05 148.023C295.046 148.286 294.831 148.497 294.568 148.497Z" fill="black"/>
<path d="M343.24 73.6237C343.089 73.6237 342.94 73.5512 342.846 73.4194C342.692 73.2019 342.745 72.8988 342.962 72.745L352.288 66.1658L346.128 57.4624L336.163 64.4919C335.946 64.6457 335.644 64.593 335.49 64.3755C335.337 64.158 335.389 63.8549 335.607 63.7011L345.965 56.3948C346.183 56.241 346.483 56.2938 346.636 56.5112L353.356 66.0055C353.431 66.1109 353.459 66.2405 353.437 66.3679C353.415 66.4953 353.345 66.6074 353.24 66.6821L343.519 73.5402C343.433 73.5995 343.337 73.6281 343.24 73.6281V73.6237Z" fill="black"/>
<path d="M354.573 69.0694C354.547 69.0694 354.518 69.0672 354.492 69.0628C354.365 69.0409 354.253 68.9706 354.178 68.8651L344.063 54.5052C343.909 54.2877 343.962 53.9845 344.179 53.8308L403.057 12.0909C403.274 11.9371 403.575 11.9876 403.73 12.2051L413.909 26.5167C413.984 26.6222 414.015 26.7518 413.993 26.8792C413.971 27.0066 413.901 27.1186 413.795 27.1933L354.853 68.9816C354.772 69.0409 354.674 69.0694 354.575 69.0694H354.573ZM345.13 54.3404L354.689 67.9095L412.842 26.6815L403.222 13.1585L345.13 54.3404Z" fill="black"/>
</g>
</g>
<defs>
<clipPath id="clip0_2430_10949">
<rect width="427" height="425" fill="white"/>
</clipPath>
<clipPath id="clip1_2430_10949">
<rect width="401" height="402" fill="white" transform="translate(13 12)"/>
</clipPath>
</defs>
</svg>
