<svg width="427" height="425" viewBox="0 0 427 425" fill="none" xmlns="http://www.w3.org/2000/svg">
<g clip-path="url(#clip0_2410_13719)">
<path d="M400.041 382.57C388.531 392.16 338.441 398.94 278.761 401.49C187.021 405.42 72.6009 399.37 40.7909 378.2C25.7309 368.19 15.5509 337.25 9.1009 297.66C-6.9291 199.16 0.220901 47.1301 13.1609 30.6501C31.3109 7.56009 323.301 -15.3099 399.911 13.9301C432.741 26.4601 429.231 358.23 400.031 382.57H400.041Z" fill="white"/>
<path d="M373.314 247.44L375.204 241.883L377.358 247.44C377.358 247.44 381.657 248.14 381.712 248.531C381.757 248.913 377.595 250.095 377.595 250.095C377.595 250.095 375.85 255.488 375.204 254.27C374.568 253.051 373.95 250.35 373.95 250.35C373.95 250.35 368.533 249.268 368.533 248.731C368.533 248.158 373.314 247.449 373.314 247.449V247.44Z" fill="white"/>
<path d="M304.094 233.142L305.566 228.822L307.238 233.142C307.238 233.142 310.574 233.688 310.619 233.988C310.656 234.279 307.429 235.198 307.429 235.198C307.429 235.198 306.075 239.381 305.575 238.435C305.075 237.49 304.594 235.389 304.594 235.389C304.594 235.389 300.395 234.543 300.395 234.134C300.395 233.688 304.103 233.142 304.103 233.142H304.094Z" fill="white"/>
<g clip-path="url(#clip1_2410_13719)">
<path d="M339.985 59.2354H75.0098V234.083H339.985V59.2354Z" fill="white"/>
<path d="M339.985 234.542H75.0091C74.756 234.542 74.5527 234.336 74.5527 234.085V59.2352C74.5527 58.9818 74.7581 58.7783 75.0091 58.7783H339.985C340.238 58.7783 340.441 58.9839 340.441 59.2352V234.083C340.441 234.336 340.236 234.54 339.985 234.54V234.542ZM75.4655 233.626H339.526V59.6941H75.4655V233.626Z" fill="#018BCE"/>
<path d="M334.117 225.075H80.8763C80.6232 225.075 80.4199 224.869 80.4199 224.618V74.8396C80.4199 74.5863 80.6253 74.3828 80.8763 74.3828H334.117C334.37 74.3828 334.573 74.5884 334.573 74.8396V224.618C334.573 224.871 334.368 225.075 334.117 225.075ZM81.3347 224.159H333.661V75.2986H81.3347V224.161V224.159Z" fill="#018BCE"/>
<path d="M396.467 285.705H18.5285C18.3397 285.705 18.1696 285.588 18.1012 285.412C18.0327 285.235 18.0804 285.036 18.2215 284.907L74.7028 233.746C74.7858 233.669 74.8957 233.628 75.0098 233.628H339.985C340.099 233.628 340.207 233.669 340.292 233.746L396.774 284.907C396.915 285.034 396.962 285.235 396.894 285.412C396.825 285.588 396.655 285.705 396.467 285.705ZM19.715 284.789H395.28L339.811 234.542H75.1841L19.715 284.789Z" fill="#018BCE"/>
<path d="M261.583 255.815H153.41L130.352 276.701H284.64L261.583 255.815Z" fill="#018BCE"/>
<path d="M108.243 257.894C108.164 253.462 136.625 229.252 132.192 229.331L121.814 229.514C117.317 229.593 112.888 230.646 108.836 232.596L92.872 240.281C85.8938 243.64 81.5127 250.75 81.6517 258.487L82.1661 287.363C82.2305 290.914 80.6622 294.299 77.9116 296.548L73.1426 300.447L93.7682 337.494L138.585 312.396C143.46 308.313 146.229 302.248 146.117 295.894L145.831 279.701C145.758 275.608 142.379 272.348 138.282 272.421L137.629 272.433C133.532 272.506 130.271 275.882 130.344 279.977L130.516 289.689C130.576 293.04 129.116 296.24 126.545 298.394L118.113 305.167L108.245 257.896L108.243 257.894Z" fill="#A0D2F4"/>
<path d="M82.1258 287.139L81.3188 233.878C81.296 230.11 82.0884 226.382 83.6442 222.95L87.2329 215.03C88.7659 211.647 92.7528 210.146 96.1382 211.677L96.9908 212.063C100.376 213.595 101.878 217.58 100.347 220.963L98.0031 226.135C96.4847 229.487 95.7109 233.127 95.7337 236.806L96.4971 282.766L82.1299 287.141L82.1258 287.139Z" fill="#A0D2F4"/>
<path d="M95.185 298.42L94.6145 266.519C94.4756 258.78 98.8587 251.67 105.835 248.312L121.799 240.627C125.853 238.675 130.279 237.624 134.777 237.545L145.155 237.363C149.588 237.284 153.247 240.812 153.324 245.243L153.344 246.358C153.423 250.789 149.893 254.444 145.46 254.523L138.681 254.643C134.289 254.72 129.966 255.748 126.01 257.652L117.727 261.639C114.091 263.39 111.807 267.096 111.878 271.129L112.355 298.119L95.185 298.422V298.42Z" fill="#A0D2F4"/>
<path d="M106.328 307.245L105.757 275.344C105.618 267.605 110.001 260.495 116.977 257.137L132.942 249.452C136.995 247.5 141.422 246.449 145.919 246.371L156.297 246.188C160.73 246.109 164.39 249.637 164.466 254.068L164.487 255.183C164.566 259.615 161.035 263.269 156.602 263.348L149.823 263.468C145.432 263.545 141.109 264.573 137.153 266.477L128.87 270.464C125.233 272.215 122.95 275.921 123.02 279.954L123.497 306.944L106.328 307.247V307.245Z" fill="#A0D2F4"/>
<path d="M133.837 314.823L18.6855 379.541V316.928L77.6437 283.054C80.3922 280.806 81.9605 277.423 81.8982 273.872L81.6099 271.249L122.956 270.519L123.496 300.946L133.837 314.821V314.823Z" fill="#A0D2F4"/>
<path d="M82.6309 313.604L81.6497 258.489C81.5107 250.75 85.8939 243.64 92.87 240.283L108.834 232.598C112.888 230.646 117.315 229.595 121.812 229.516L132.19 229.333C136.623 229.254 140.282 232.782 140.359 237.214L140.38 238.329C140.458 242.76 136.928 246.415 132.495 246.494L125.716 246.614C121.324 246.691 117.001 247.719 113.045 249.623L104.762 253.61C101.126 255.36 98.8422 259.067 98.9127 263.099L99.8005 313.305L82.6309 313.608V313.604Z" fill="#A0D2F4"/>
<path d="M81.7849 262.703C81.536 262.703 81.3306 262.503 81.3285 262.252L80.8618 233.885C80.839 230.072 81.6563 226.227 83.2287 222.759L86.8153 214.839C88.4499 211.232 92.7169 209.625 96.3263 211.257L97.1789 211.644C98.9297 212.435 100.266 213.861 100.942 215.657C101.618 217.452 101.554 219.401 100.761 221.15L98.4173 226.322C96.9362 229.591 96.1666 233.214 96.1873 236.8L96.2122 238.476C96.2164 238.729 96.0152 238.937 95.7621 238.941C95.4986 238.941 95.3016 238.744 95.2974 238.491L95.2725 236.811C95.2497 233.088 96.0483 229.331 97.5834 225.944L99.9274 220.772C100.618 219.248 100.674 217.547 100.085 215.981C99.4939 214.414 98.3281 213.17 96.8014 212.478L95.9488 212.092C92.7999 210.67 89.0743 212.069 87.6471 215.217L84.0605 223.137C82.5441 226.484 81.7538 230.197 81.7766 233.875L82.2433 262.235C82.2475 262.489 82.0463 262.696 81.7932 262.701H81.7849V262.703Z" fill="black"/>
<path d="M123.387 301.045C123.138 301.045 122.934 300.845 122.93 300.594L122.565 279.958C122.49 275.759 124.888 271.87 128.674 270.049L136.957 266.062C140.946 264.143 145.394 263.086 149.818 263.007L156.597 262.887C158.62 262.852 160.508 262.032 161.912 260.576C163.316 259.122 164.069 257.208 164.034 255.187L164.013 254.072C163.939 249.901 160.497 246.549 156.309 246.64L145.931 246.823C141.529 246.9 137.106 247.951 133.142 249.859L117.178 257.544C110.384 260.815 106.082 267.796 106.217 275.332L106.308 280.467C106.312 280.72 106.111 280.928 105.858 280.932C105.597 280.936 105.397 280.735 105.393 280.481L105.302 275.346C105.161 267.455 109.667 260.142 116.782 256.718L132.746 249.033C136.829 247.066 141.382 245.986 145.914 245.905L156.292 245.723C156.342 245.723 156.394 245.723 156.444 245.723C161.055 245.723 164.845 249.429 164.926 254.054L164.947 255.169C164.986 257.434 164.142 259.579 162.567 261.209C160.993 262.839 158.877 263.759 156.612 263.799L149.833 263.919C145.539 263.996 141.222 265.02 137.351 266.882L129.068 270.869C125.604 272.537 123.409 276.096 123.478 279.937L123.843 300.573C123.847 300.827 123.646 301.034 123.393 301.039H123.384L123.387 301.045Z" fill="black"/>
<path d="M94.7819 276.406C94.533 276.406 94.3297 276.206 94.3255 275.955L94.1575 266.53C94.0165 258.639 98.522 251.326 105.637 247.901L121.602 240.216C125.686 238.25 130.239 237.17 134.77 237.089L145.148 236.906C149.826 236.834 153.701 240.561 153.784 245.237L153.796 245.97C153.8 246.224 153.599 246.431 153.348 246.437H153.34C153.091 246.437 152.887 246.238 152.883 245.989L152.871 245.256C152.796 241.084 149.34 237.737 145.167 237.824L134.788 238.007C130.389 238.084 125.966 239.134 122 241.043L106.035 248.728C99.2418 251.998 94.9396 258.98 95.0744 266.515L95.2424 275.94C95.2466 276.194 95.0454 276.401 94.7923 276.406H94.784H94.7819Z" fill="black"/>
<path d="M18.685 380C18.5253 380 18.3697 379.915 18.2846 379.766C18.1623 379.546 18.239 379.265 18.461 379.143L138.321 312.018C143.094 308.006 145.766 302.134 145.656 295.902L145.37 279.709C145.303 275.916 142.194 272.878 138.412 272.878C138.371 272.878 138.329 272.878 138.288 272.878L137.634 272.89C135.776 272.923 134.039 273.677 132.749 275.014C131.459 276.352 130.764 278.11 130.797 279.967L130.969 289.679C131.032 293.186 129.526 296.49 126.835 298.743L118.396 305.522C118.199 305.68 117.911 305.649 117.753 305.452C117.596 305.254 117.627 304.966 117.824 304.808L126.256 298.034C128.725 295.966 130.113 292.924 130.054 289.695L129.882 279.983C129.845 277.882 130.629 275.891 132.092 274.377C133.552 272.865 135.514 272.012 137.618 271.974L138.271 271.962C138.319 271.962 138.364 271.962 138.412 271.962C142.692 271.962 146.21 275.401 146.284 279.693L146.571 295.885C146.687 302.41 143.882 308.556 138.875 312.747C138.852 312.765 138.829 312.782 138.804 312.794L18.909 379.942C18.8385 379.982 18.7618 380 18.6871 380H18.685Z" fill="black"/>
<path d="M18.6858 317.387C18.5282 317.387 18.3747 317.304 18.2896 317.156C18.1631 316.936 18.2398 316.658 18.4576 316.531L77.6481 282.471C80.2888 280.296 81.7678 277.092 81.7056 273.672L81.1911 258.504C81.0501 250.605 85.5556 243.293 92.6708 239.867L108.635 232.182C112.72 230.215 117.273 229.136 121.803 229.055L132.182 228.872C134.443 228.843 136.594 229.678 138.226 231.249C139.857 232.823 140.778 234.937 140.817 237.203C140.821 237.456 140.62 237.664 140.367 237.668C140.116 237.68 139.907 237.471 139.902 237.217C139.867 235.197 139.046 233.311 137.592 231.908C136.135 230.504 134.231 229.74 132.198 229.785L121.82 229.968C117.42 230.045 112.998 231.096 109.031 233.004L93.067 240.689C86.2734 243.96 81.9711 250.941 82.1059 258.477L82.6204 273.645C82.6868 277.366 81.075 280.847 78.1978 283.199C78.1791 283.216 78.1584 283.228 78.1356 283.241L18.914 317.325C18.8435 317.366 18.7646 317.385 18.6858 317.385V317.387Z" fill="black"/>
<path d="M419.418 308.17L366.814 283.391L340.272 235.216C338.573 231.41 336.111 227.992 333.041 225.174L316.881 210.375C314.265 207.979 310.287 207.871 307.544 210.12L307.059 210.518C303.688 213.284 303.57 218.401 306.812 221.316L319.982 233.163C321.086 234.164 322.109 235.243 323.053 236.388C320.426 233.966 317.394 232.017 314.085 230.64L293.841 222.24C290.566 220.882 286.786 222.137 284.977 225.185L284.656 225.725C282.43 229.475 284.069 234.324 288.112 235.96L304.537 242.603C308.497 244.22 312.077 246.643 315.045 249.721L319.443 254.277L319.395 254.378L315.182 250.076C312.284 247.077 308.804 244.706 304.954 243.103L276.767 231.375C273.342 229.95 269.39 231.261 267.499 234.45C265.24 238.256 266.797 243.14 270.766 244.982L267.675 243.695C264.518 242.38 260.873 243.591 259.128 246.529L258.527 247.54C256.388 251.145 257.954 255.807 261.838 257.391L285.813 267.182C290.41 269.059 294.565 271.873 298.013 275.442L320.626 298.863C321.567 300.18 322.192 301.702 322.426 303.315L322.959 307.009L292.385 294.436C288.28 292.748 283.583 294.704 281.893 298.807L281.615 299.482C279.926 303.583 281.884 308.278 285.99 309.966L317.458 322.909C322.986 325.183 328.85 326.537 334.816 326.917L419.422 366.294V308.166L419.418 308.17ZM295.405 255.066C297.436 255.894 299.365 256.941 301.166 258.174C299.635 257.184 298.017 256.322 296.326 255.618L273.518 246.128L295.405 255.066Z" fill="#A0D2F4"/>
<path d="M322.887 307.229C322.663 307.229 322.468 307.065 322.434 306.837L322.329 306.097C321.802 302.447 320.169 299.114 317.607 296.46L297.575 275.712C294.15 272.163 290.099 269.42 285.531 267.556L261.555 257.765C259.581 256.959 258.058 255.335 257.38 253.315C256.703 251.296 256.938 249.087 258.025 247.256L258.626 246.244C260.475 243.128 264.395 241.83 267.741 243.221L296.395 255.142C300.326 256.778 303.819 259.158 306.777 262.219L319.4 275.28C319.576 275.461 319.57 275.751 319.389 275.928C319.207 276.104 318.918 276.098 318.742 275.918L306.119 262.856C303.248 259.885 299.859 257.576 296.044 255.989L267.391 244.068C264.46 242.849 261.033 243.987 259.413 246.714L258.811 247.725C257.861 249.328 257.656 251.259 258.247 253.024C258.84 254.793 260.172 256.214 261.9 256.92L285.875 266.71C290.559 268.623 294.716 271.439 298.23 275.077L318.263 295.825C320.96 298.618 322.677 302.125 323.233 305.967L323.339 306.706C323.374 306.955 323.202 307.188 322.951 307.225C322.928 307.229 322.907 307.229 322.885 307.229H322.887Z" fill="black"/>
<path d="M325.884 261.667C325.763 261.667 325.645 261.621 325.556 261.528L314.744 250.34C311.873 247.37 308.484 245.059 304.669 243.473L276.482 231.747C273.288 230.416 269.547 231.658 267.782 234.633C266.776 236.328 266.533 238.377 267.116 240.258C267.701 242.144 269.06 243.701 270.844 244.528C271.072 244.634 271.174 244.906 271.066 245.136C270.96 245.367 270.688 245.466 270.458 245.358C268.438 244.422 266.901 242.661 266.241 240.528C265.581 238.4 265.857 236.08 266.994 234.164C268.989 230.8 273.219 229.4 276.831 230.9L305.017 242.626C308.948 244.262 312.442 246.642 315.4 249.702L326.211 260.891C326.388 261.073 326.381 261.362 326.201 261.538C326.112 261.624 325.998 261.667 325.884 261.667Z" fill="black"/>
<path d="M419.31 366.504C419.246 366.504 419.181 366.491 419.119 366.462L334.59 327.318C328.593 326.927 322.733 325.569 317.174 323.283L285.705 310.34C283.606 309.477 281.967 307.849 281.096 305.751C280.225 303.658 280.221 301.353 281.084 299.258L281.362 298.583C283.143 294.256 288.118 292.181 292.449 293.963L331.784 310.139C332.018 310.234 332.128 310.502 332.032 310.737C331.937 310.972 331.667 311.084 331.435 310.986L292.101 294.81C288.236 293.222 283.797 295.07 282.206 298.932L281.928 299.607C281.158 301.476 281.162 303.534 281.938 305.4C282.716 307.269 284.176 308.723 286.052 309.493L317.52 322.436C323.015 324.695 328.805 326.032 334.733 326.41C334.789 326.415 334.845 326.427 334.897 326.452L419.503 365.631C419.731 365.737 419.833 366.009 419.725 366.24C419.648 366.408 419.482 366.506 419.31 366.506V366.504Z" fill="black"/>
<path d="M419.31 308.575C419.245 308.575 419.179 308.56 419.115 308.531L366.51 283.752C366.423 283.711 366.351 283.642 366.305 283.559L339.763 235.384C338.062 231.578 335.664 228.25 332.623 225.459L316.464 210.657C314.033 208.429 310.276 208.328 307.724 210.419L307.239 210.817C305.735 212.051 304.847 213.874 304.802 215.815C304.758 217.759 305.561 219.62 307.007 220.92L322.117 234.994C322.301 235.166 322.312 235.457 322.139 235.642C321.967 235.827 321.679 235.837 321.492 235.665L306.389 221.594C304.75 220.12 303.835 218.004 303.887 215.793C303.937 213.581 304.947 211.509 306.658 210.107L307.144 209.708C310.044 207.331 314.315 207.447 317.08 209.98L333.239 224.78C336.376 227.658 338.846 231.086 340.581 234.973L367.033 282.984L419.503 307.699C419.731 307.807 419.828 308.079 419.722 308.307C419.644 308.473 419.48 308.571 419.308 308.571L419.31 308.575Z" fill="black"/>
<path d="M333.378 247.997C333.256 247.997 333.131 247.948 333.042 247.85L323.867 237.868C321.004 234.907 317.615 232.596 313.8 231.008L293.556 222.608C290.511 221.346 286.945 222.529 285.261 225.364L284.939 225.906C283.948 227.577 283.736 229.591 284.356 231.431C284.979 233.275 286.37 234.751 288.175 235.482L289.424 235.987C289.658 236.08 289.77 236.348 289.677 236.583C289.582 236.818 289.316 236.93 289.082 236.836L287.833 236.332C285.781 235.501 284.199 233.823 283.491 231.726C282.786 229.633 283.027 227.34 284.155 225.44L284.477 224.901C286.389 221.678 290.442 220.328 293.907 221.767L314.153 230.167C318.084 231.803 321.577 234.185 324.535 237.243L333.718 247.233C333.888 247.42 333.878 247.709 333.691 247.881C333.604 247.962 333.492 248.002 333.382 248.002L333.378 247.997Z" fill="black"/>
<path d="M343.371 190.552V43.488C343.371 38.5521 339.374 34.5508 334.443 34.5508L230.23 34.5508C225.299 34.5508 221.302 38.5521 221.302 43.488V190.552C221.302 195.488 225.299 199.489 230.23 199.489H334.443C339.374 199.489 343.371 195.488 343.371 190.552Z" fill="#018BCE"/>
<path d="M326.332 178.893H237.787C232.862 178.893 228.869 182.889 228.869 187.819V187.828C228.869 192.758 232.862 196.755 237.787 196.755H326.332C331.257 196.755 335.25 192.758 335.25 187.828V187.819C335.25 182.889 331.257 178.893 326.332 178.893Z" fill="white"/>
<path d="M326.331 197.211H237.786C232.617 197.211 228.41 193.002 228.41 187.828C228.41 182.653 232.615 178.436 237.786 178.436H326.331C331.501 178.436 335.706 182.645 335.706 187.821C335.706 192.998 331.501 197.213 326.331 197.213V197.211ZM237.786 179.349C233.121 179.349 229.325 183.149 229.325 187.819C229.325 192.489 233.121 196.296 237.786 196.296H326.331C330.997 196.296 334.791 192.496 334.791 187.828C334.791 183.16 330.995 179.351 326.331 179.351H237.786V179.349Z" fill="black"/>
<path d="M254.067 186.623H239.023V191.347H254.067V186.623Z" fill="black"/>
<path d="M272.979 186.623H257.936V191.347H272.979V186.623Z" fill="black"/>
<path d="M326.708 59.3397C329.319 59.3397 331.435 57.2247 331.435 54.6156C331.435 52.0066 329.319 49.8916 326.708 49.8916C324.097 49.8916 321.98 52.0066 321.98 54.6156C321.98 57.2247 324.097 59.3397 326.708 59.3397Z" fill="black"/>
<path d="M326.708 164.573C329.319 164.573 331.435 162.458 331.435 159.849C331.435 157.24 329.319 155.125 326.708 155.125C324.097 155.125 321.98 157.24 321.98 159.849C321.98 162.458 324.097 164.573 326.708 164.573Z" fill="black"/>
<path d="M235.585 59.3397C238.196 59.3397 240.312 57.2247 240.312 54.6156C240.312 52.0066 238.196 49.8916 235.585 49.8916C232.974 49.8916 230.857 52.0066 230.857 54.6156C230.857 57.2247 232.974 59.3397 235.585 59.3397Z" fill="black"/>
<path d="M235.585 164.573C238.196 164.573 240.312 162.458 240.312 159.849C240.312 157.24 238.196 155.125 235.585 155.125C232.974 155.125 230.857 157.24 230.857 159.849C230.857 162.458 232.974 164.573 235.585 164.573Z" fill="black"/>
<path d="M282.338 136.46C301.567 136.46 317.154 120.883 317.154 101.668C317.154 82.4528 301.567 66.876 282.338 66.876C263.109 66.876 247.521 82.4528 247.521 101.668C247.521 120.883 263.109 136.46 282.338 136.46Z" fill="black"/>
<path d="M306.658 117.883C306.563 117.883 306.467 117.854 306.386 117.794C306.183 117.642 306.142 117.355 306.291 117.154C309.701 112.555 311.502 107.087 311.502 101.348C311.502 89.6362 303.991 79.4344 292.81 75.9583C292.569 75.8835 292.434 75.6261 292.509 75.3852C292.584 75.1443 292.839 75.0093 293.081 75.0841C304.646 78.6785 312.417 89.2334 312.417 101.348C312.417 107.286 310.552 112.941 307.025 117.7C306.936 117.821 306.797 117.885 306.658 117.885V117.883Z" fill="white"/>
<path d="M282.337 112.908C288.549 112.908 293.584 107.876 293.584 101.668C293.584 95.4601 288.549 90.4277 282.337 90.4277C276.125 90.4277 271.09 95.4601 271.09 101.668C271.09 107.876 276.125 112.908 282.337 112.908Z" fill="white"/>
<path d="M282.337 136.916C262.888 136.916 247.064 121.104 247.064 101.668C247.064 82.2316 262.888 66.417 282.337 66.417C301.787 66.417 317.61 82.2296 317.61 101.668C317.61 121.106 301.787 136.916 282.337 136.916ZM282.337 67.3327C263.392 67.3327 247.979 82.7341 247.979 101.668C247.979 120.601 263.392 136.001 282.337 136.001C301.283 136.001 316.695 120.599 316.695 101.668C316.695 82.7362 301.283 67.3327 282.337 67.3327Z" fill="black"/>
<path d="M259.815 149.795C256.542 147.137 256.382 142.199 259.475 139.336L285.276 117.352C285.643 117.04 286.17 117.462 285.948 117.888L270.195 147.883C268.063 151.577 263.128 152.486 259.815 149.797V149.795Z" fill="black"/>
<path d="M264.184 151.805C262.501 151.805 260.856 151.23 259.527 150.15C257.863 148.8 256.869 146.796 256.801 144.656C256.73 142.515 257.593 140.453 259.166 138.997L285.249 116.77C285.556 116.509 285.987 116.504 286.301 116.754C286.614 117.005 286.701 117.428 286.514 117.784L270.598 148.092C269.506 149.984 267.662 151.286 265.532 151.68C265.084 151.763 264.632 151.805 264.184 151.805ZM285.492 117.767L259.771 139.684C258.409 140.947 257.653 142.754 257.716 144.629C257.776 146.504 258.647 148.258 260.103 149.442C261.578 150.64 263.495 151.13 265.366 150.783C267.233 150.439 268.849 149.297 269.799 147.654L285.494 117.769L285.492 117.767Z" fill="white"/>
<path d="M334.443 199.948H230.232C225.057 199.948 220.846 195.733 220.846 190.552V43.4899C220.846 38.3091 225.057 34.0938 230.232 34.0938H334.443C339.619 34.0938 343.83 38.3091 343.83 43.4899V190.552C343.83 195.733 339.619 199.948 334.443 199.948ZM230.23 35.0095C225.559 35.0095 221.758 38.8136 221.758 43.4899V190.552C221.758 195.228 225.559 199.032 230.23 199.032H334.441C339.113 199.032 342.913 195.228 342.913 190.552V43.4899C342.913 38.8136 339.113 35.0095 334.441 35.0095H230.23Z" fill="black"/>
<path d="M293.788 22.667H270.887V34.4864H293.788V22.667Z" fill="black"/>
<path d="M380.555 186.96C379.925 186.96 379.412 186.449 379.412 185.818V10.6753C379.412 6.06754 375.662 2.31738 371.05 2.3153L291.415 2.28208H291.411C286.812 2.28208 283.059 6.01978 283.045 10.6151L282.997 25.0343C282.995 25.6635 282.485 26.1722 281.854 26.1722H281.85C281.219 26.1702 280.709 25.6573 280.711 25.026L280.759 10.6068C280.777 4.75727 285.557 0 291.409 0H291.413L371.048 0.033224C376.919 0.0353005 381.694 4.81126 381.694 10.6774V185.82C381.694 186.451 381.182 186.962 380.551 186.962L380.555 186.96Z" fill="black"/>
<path d="M393.738 230.49V203.257H367.618V230.49H393.738Z" fill="white"/>
<path d="M393.739 230.947H367.618C367.365 230.947 367.162 230.741 367.162 230.49V203.257C367.162 203.003 367.367 202.8 367.618 202.8H393.739C393.992 202.8 394.195 203.005 394.195 203.257V230.49C394.195 230.743 393.99 230.947 393.739 230.947ZM368.075 230.031H393.281V203.713H368.075V230.031Z" fill="black"/>
<path d="M390.037 224.252V219.11H383.772V224.252H390.037Z" fill="black"/>
<path d="M377.889 224.331V219.189H371.624V224.331H377.889Z" fill="black"/>
<path d="M374.375 184.477H386.948C392.41 184.477 396.843 188.914 396.843 194.381V210.072H364.48V194.381C364.48 188.914 368.913 184.477 374.375 184.477Z" fill="black"/>
<path d="M80.1996 59.0213L61.9347 58.9756L61.9056 70.3527C57.7257 71.3287 53.7989 72.9671 50.2435 75.1495L43.593 79.5039L29.2631 79.9566L37.2952 88.0238C35.0922 91.5663 33.4347 95.4805 32.4369 99.6543L21.0527 99.6252L27.4647 109.642L32.3913 117.907C33.3683 122.085 35.0071 126.007 37.1914 129.56L29.1179 137.588L40.8486 138.331L50.6874 135.268C54.2325 137.469 69.4128 142.652 73.5886 143.649L75.0406 158.959L79.9486 158.774L79.9777 147.397C84.1575 146.421 88.0843 144.783 91.6398 142.601L99.6718 150.668L112.618 137.793L104.586 129.726C106.789 126.184 108.446 122.269 109.444 118.096L120.828 118.125L120.874 99.8723L109.49 99.8432C108.513 95.6653 106.874 91.7428 104.69 88.1899L112.763 80.1621L99.8793 67.2235L91.8058 75.2512C88.2607 73.0501 84.3442 71.3931 80.1685 70.3964L80.1975 59.0192L80.1996 59.0213ZM93.9756 108.932C93.9445 121.642 83.6078 131.923 70.8877 131.89C58.1676 131.859 43.5639 121.333 43.5971 108.621C43.6282 95.9103 57.3254 79.1488 70.0455 79.182C82.7656 79.2132 94.0067 96.2197 93.9756 108.932Z" fill="black"/>
<path d="M80.1988 59.0213L61.9339 58.9756L61.9048 70.3527C57.7249 71.3287 53.7981 72.9671 50.2426 75.1495L43.4324 75.6354L37.2964 88.0238C35.0934 91.5663 33.436 95.4805 32.4382 99.6543L32.3926 117.907C33.3696 122.085 35.0084 126.007 37.1927 129.56L56.1733 141.392C59.7184 143.593 70.7064 143.136 74.8822 144.131L75.044 158.957L79.952 158.772L79.981 147.395C84.1609 146.419 88.0877 144.781 91.6432 142.598L99.6752 150.666L112.621 137.791L104.589 129.724C106.792 126.182 108.45 122.267 109.448 118.094L120.832 118.123L120.877 99.8702L109.493 99.8412C108.516 95.6632 106.877 91.7407 104.693 88.1878L112.767 80.1601L99.8826 67.2214L91.8091 75.2491C88.264 73.048 84.3476 71.391 80.1718 70.3943L80.2009 59.0171L80.1988 59.0213ZM93.9748 108.932C93.9437 121.642 83.607 131.923 70.8869 131.89C58.1668 131.859 40.7689 123.696 40.8001 110.984C40.8312 98.2734 54.9598 79.1488 67.6799 79.18C80.4 79.2111 94.008 96.2177 93.9769 108.93L93.9748 108.932Z" fill="black"/>
<path d="M204.387 369.897C230.708 369.897 252.044 348.574 252.044 322.272C252.044 295.97 230.708 274.647 204.387 274.647C178.067 274.647 156.73 295.97 156.73 322.272C156.73 348.574 178.067 369.897 204.387 369.897Z" fill="black"/>
<path d="M199.385 369.897C225.706 369.897 247.042 348.574 247.042 322.272C247.042 295.97 225.706 274.647 199.385 274.647C173.065 274.647 151.729 295.97 151.729 322.272C151.729 348.574 173.065 369.897 199.385 369.897Z" fill="#A0D2F4"/>
<path d="M182.065 310.388C184.62 310.388 186.691 308.319 186.691 305.766C186.691 303.213 184.62 301.144 182.065 301.144C179.511 301.144 177.439 303.213 177.439 305.766C177.439 308.319 179.511 310.388 182.065 310.388Z" fill="black"/>
<path d="M198.314 337.089C198.142 337.089 197.978 336.992 197.899 336.825C197.792 336.597 197.889 336.323 198.119 336.217L216.245 327.685L216.268 304.06C216.268 303.807 216.473 303.604 216.724 303.604C216.977 303.604 217.183 303.809 217.181 304.062L217.158 327.978C217.158 328.154 217.054 328.316 216.895 328.391L198.505 337.048C198.443 337.077 198.376 337.091 198.31 337.091L198.314 337.089Z" fill="black"/>
<path d="M198.357 352.265C198.106 352.265 197.9 352.061 197.9 351.808L197.734 294.195C197.734 293.942 197.938 293.736 198.191 293.736C198.442 293.736 198.647 293.94 198.647 294.193L198.813 351.806C198.813 352.059 198.61 352.265 198.357 352.265Z" fill="black"/>
<path d="M198.289 328.486C198.231 328.486 198.172 328.476 198.116 328.453L181.94 321.841C181.768 321.771 181.656 321.605 181.656 321.42L181.623 310.39C181.623 310.136 181.826 309.931 182.079 309.931C182.33 309.931 182.536 310.134 182.536 310.387L182.567 321.111L198.461 327.608C198.695 327.703 198.807 327.971 198.712 328.204C198.639 328.38 198.469 328.488 198.289 328.488V328.486Z" fill="black"/>
<path d="M191.754 294.256L204.561 294.225L198.241 284.824L191.754 294.256Z" fill="black"/>
<path d="M221.33 294.499L211.969 294.521L211.992 303.876L221.353 303.853L221.33 294.499Z" fill="black"/>
<path d="M198.361 360.176C195.936 360.176 193.959 358.207 193.953 355.78C193.951 354.603 194.407 353.494 195.237 352.661C196.067 351.826 197.173 351.367 198.351 351.363H198.361C200.786 351.363 202.763 353.332 202.769 355.759C202.771 356.937 202.315 358.045 201.485 358.878C200.655 359.713 199.55 360.172 198.372 360.176H198.361ZM198.361 352.279H198.353C197.419 352.281 196.542 352.647 195.884 353.307C195.227 353.967 194.864 354.846 194.868 355.778C194.872 357.701 196.438 359.26 198.361 359.26H198.37C199.303 359.258 200.18 358.893 200.838 358.232C201.496 357.572 201.859 356.694 201.854 355.761C201.85 353.838 200.284 352.279 198.361 352.279Z" fill="black"/>
<path d="M199.385 370.353C172.853 370.353 151.271 348.783 151.271 322.272C151.271 295.761 172.855 274.19 199.385 274.19C225.914 274.19 247.498 295.759 247.498 322.272C247.498 348.785 225.914 370.353 199.385 370.353ZM199.385 275.104C173.36 275.104 152.184 296.262 152.184 322.27C152.184 348.278 173.357 369.435 199.385 369.435C225.412 369.435 246.583 348.276 246.583 322.27C246.583 296.264 225.41 275.104 199.385 275.104Z" fill="black"/>
<path d="M77.6475 57.2478L59.3825 57.2021L59.3535 68.5793C55.1736 69.5553 51.2468 71.1936 47.6913 73.376L39.6593 65.3088L26.7131 78.1831L34.7451 86.2503C32.5421 89.7929 30.8847 93.7071 29.8869 97.8808L18.5027 97.8518L18.457 116.104L29.8412 116.133C30.8183 120.311 32.457 124.234 34.6414 127.787L26.5679 135.814L39.4519 148.753L47.5254 140.725C51.0705 142.926 54.9869 144.583 59.1626 145.58L59.6273 157.31L77.4006 157.001L77.4297 145.624C81.6095 144.648 85.5364 143.009 89.0918 140.827L97.1239 148.894L110.07 136.02L102.038 127.953C104.241 124.41 105.898 120.496 106.896 116.322L118.28 116.351L118.326 98.0989L106.942 98.0698C105.965 93.8919 104.326 89.9694 102.142 86.4165L110.215 78.3887L97.3313 65.45L89.2578 73.4778C85.7127 71.2767 81.7962 69.6196 77.6205 68.6229L77.6495 57.2458L77.6475 57.2478ZM91.4235 107.159C91.3923 119.869 81.0557 130.15 68.3356 130.116C55.6155 130.085 45.3307 119.755 45.3618 107.044C45.3929 94.3342 55.7295 84.0534 68.4497 84.0866C81.1698 84.1178 91.4566 94.4484 91.4235 107.159Z" fill="#525252"/>
<path d="M59.6265 157.769C59.3817 157.769 59.1805 157.576 59.1702 157.329L58.72 145.943C54.7974 144.972 51.0572 143.412 47.593 141.304L39.7768 149.077C39.5963 149.255 39.3079 149.253 39.1295 149.077L26.2476 136.138C26.1626 136.051 26.1128 135.935 26.1149 135.814C26.1149 135.694 26.1626 135.575 26.2497 135.49L34.066 127.718C31.9771 124.25 30.4358 120.51 29.4816 116.592L18.4583 116.565C18.338 116.565 18.2218 116.517 18.1347 116.43C18.0497 116.345 18.002 116.227 18.002 116.106L18.0476 97.8536C18.0476 97.6003 18.2384 97.3947 18.506 97.3968L29.5293 97.4238C30.5022 93.5075 32.0621 89.7761 34.1676 86.3208L26.3908 78.5089C26.3057 78.4217 26.2559 78.3054 26.258 78.185C26.258 78.0646 26.3057 77.9462 26.3928 77.8611L39.3391 64.9868C39.5175 64.8082 39.8079 64.8082 39.9863 64.9868L47.7652 72.7986C51.2336 70.7096 54.9778 69.1709 58.9005 68.2178L58.9275 57.202C58.9275 56.9507 59.1328 56.7451 59.3838 56.7451L77.6488 56.7908C77.7691 56.7908 77.8852 56.8386 77.9724 56.9258C78.0574 57.0109 78.1051 57.1293 78.1051 57.2497L78.0782 68.2656C81.9967 69.2374 85.7306 70.7968 89.1906 72.9024L97.009 65.128C97.1874 64.9494 97.4778 64.9515 97.6562 65.128L110.538 78.0646C110.623 78.1518 110.673 78.2681 110.671 78.3885C110.671 78.5089 110.623 78.6273 110.536 78.7124L102.72 86.4848C104.809 89.9505 106.35 93.6903 107.304 97.6107L118.329 97.6377C118.45 97.6377 118.566 97.6854 118.653 97.7727C118.738 97.8578 118.786 97.9762 118.786 98.0966L118.74 116.349C118.74 116.6 118.535 116.806 118.284 116.806L107.261 116.779C106.288 120.695 104.728 124.427 102.622 127.882L110.399 135.694C110.484 135.781 110.534 135.897 110.532 136.018C110.532 136.138 110.484 136.256 110.397 136.342L97.4508 149.216C97.2703 149.395 96.982 149.392 96.8036 149.216L89.0247 141.404C85.5563 143.493 81.8141 145.032 77.8894 145.985L77.8624 157.001C77.8624 157.25 77.6612 157.453 77.4123 157.458L59.641 157.767H59.6327L59.6265 157.769ZM47.5246 140.268C47.6075 140.268 47.6905 140.291 47.7652 140.337C51.329 142.55 55.1998 144.166 59.2677 145.136C59.4668 145.183 59.6099 145.358 59.6182 145.563L60.0663 156.847L76.9435 156.554L76.9704 145.626C76.9704 145.414 77.1177 145.229 77.3231 145.181C81.3972 144.23 85.2742 142.636 88.8484 140.439C89.0288 140.329 89.2632 140.356 89.4105 140.505L97.121 148.248L109.42 136.02L101.71 128.279C101.56 128.127 101.533 127.894 101.645 127.714C103.861 124.153 105.477 120.284 106.447 116.22C106.497 116.015 106.68 115.869 106.891 115.869L117.819 115.896L117.861 98.5597L106.933 98.5327C106.721 98.5327 106.537 98.3852 106.489 98.1797C105.537 94.1097 103.942 90.2329 101.745 86.6613C101.633 86.4806 101.662 86.246 101.811 86.0965L109.559 78.3906L97.3222 66.1018L89.5744 73.8077C89.423 73.9573 89.1906 73.9842 89.0102 73.8721C85.4464 71.6586 81.5756 70.043 77.5077 69.0733C77.3023 69.0235 77.1551 68.8387 77.1571 68.6269L77.1841 57.7086L59.834 57.6671L59.807 68.5853C59.807 68.7971 59.6597 68.9819 59.4523 69.0297C55.3803 69.9807 51.5012 71.5755 47.927 73.7724C47.7465 73.8825 47.5121 73.8555 47.3648 73.706L39.6544 65.9627L27.3574 78.1912L35.0679 85.9324C35.2173 86.084 35.2442 86.3166 35.1322 86.4972C32.9168 90.0584 31.3029 93.9249 30.33 97.9928C30.2802 98.1983 30.0977 98.3437 29.8861 98.3437L18.9603 98.3167L18.9188 115.653L29.8446 115.68C30.0562 115.68 30.2408 115.828 30.2885 116.033C31.2386 120.103 32.8359 123.978 35.0326 127.552C35.1447 127.732 35.1156 127.967 34.9663 128.117L27.2184 135.82L39.4552 148.109L47.203 140.403C47.2922 140.316 47.4084 140.27 47.5246 140.27V140.268ZM68.3908 130.575H68.3327C62.0598 130.559 56.1665 128.104 51.7418 123.658C47.3151 119.215 44.888 113.313 44.9026 107.042C44.9191 100.773 47.3752 94.8842 51.8227 90.4613C56.2556 86.0529 62.1365 83.6275 68.3887 83.6275H68.4489C74.7218 83.6441 80.6151 86.0986 85.0398 90.5444C89.4665 94.9881 91.8935 100.889 91.879 107.161C91.8458 120.085 81.3163 130.575 68.3908 130.575ZM68.3887 84.5453C62.3792 84.5453 56.7286 86.8773 52.4678 91.1133C48.1925 95.3639 45.8319 101.022 45.8174 107.048C45.8028 113.074 48.1365 118.743 52.389 123.015C56.6415 127.286 62.3046 129.647 68.3348 129.662H68.3908C80.8143 129.662 90.9331 119.58 90.9642 107.158C90.9787 101.135 88.6451 95.4636 84.3926 91.1922C80.1401 86.9209 74.475 84.5599 68.4468 84.5453H68.3887Z" fill="black"/>
<path d="M149.007 135.521L136.409 138.878L138.502 146.725C135.801 148.173 133.401 150.031 131.356 152.195L124.321 148.125L117.789 159.4L124.823 163.47C123.962 166.319 123.548 169.326 123.635 172.387L115.783 174.48L119.144 187.068L126.995 184.974C128.445 187.672 130.304 190.072 132.47 192.116L128.398 199.147L139.68 205.673L143.752 198.642C146.604 199.502 149.612 199.917 152.676 199.83L155.176 207.828L167.367 204.319L165.274 196.472C167.975 195.025 170.375 193.166 172.42 191.003L179.454 195.073L185.987 183.797L178.952 179.727C179.813 176.878 180.228 173.871 180.141 170.811L187.992 168.718L184.632 156.13L176.78 158.223C175.33 155.526 173.474 153.125 171.306 151.082L175.378 144.051L164.096 137.524L160.024 144.555C157.171 143.696 154.163 143.28 151.1 143.368L149.007 135.521ZM167.773 167.366C170.113 176.133 164.898 185.134 156.126 187.473C147.353 189.811 138.344 184.599 136.004 175.832C133.664 167.065 138.879 158.063 147.652 155.725C156.425 153.387 165.434 158.599 167.773 167.366Z" fill="black"/>
<path d="M153.832 206.89C153.637 206.89 153.457 206.766 153.397 206.568L151.001 198.898C148.163 198.941 145.356 198.57 142.626 197.785L138.735 204.504C138.608 204.722 138.328 204.797 138.11 204.671L126.828 198.144C126.722 198.084 126.645 197.982 126.614 197.866C126.583 197.75 126.6 197.623 126.66 197.519L130.551 190.802C128.514 188.831 126.793 186.584 125.423 184.113L117.918 186.113C117.678 186.175 117.425 186.032 117.358 185.789L113.998 173.201C113.967 173.085 113.983 172.958 114.043 172.854C114.104 172.748 114.205 172.672 114.321 172.64L121.824 170.641C121.779 167.817 122.152 165.011 122.938 162.289L116.215 158.4C116.11 158.34 116.033 158.238 116.002 158.122C115.971 158.005 115.987 157.879 116.047 157.775L122.58 146.499C122.706 146.281 122.986 146.207 123.204 146.333L129.929 150.223C131.9 148.188 134.148 146.466 136.623 145.1L134.621 137.602C134.59 137.485 134.607 137.359 134.667 137.255C134.727 137.151 134.829 137.072 134.945 137.041L147.541 133.683C147.783 133.619 148.034 133.764 148.101 134.007L150.102 141.505C152.93 141.462 155.736 141.833 158.46 142.618L162.352 135.899C162.478 135.681 162.758 135.606 162.976 135.733L174.259 142.259C174.364 142.319 174.441 142.421 174.472 142.537C174.503 142.654 174.487 142.78 174.427 142.884L170.535 149.602C172.572 151.572 174.294 153.819 175.663 156.29L183.168 154.29C183.409 154.228 183.662 154.371 183.728 154.614L187.089 167.202C187.12 167.318 187.103 167.445 187.043 167.549C186.983 167.653 186.881 167.732 186.765 167.763L179.26 169.762C179.306 172.586 178.932 175.392 178.148 178.114L184.871 182.003C184.977 182.064 185.054 182.165 185.085 182.282C185.116 182.4 185.099 182.525 185.039 182.628L178.507 193.904C178.38 194.122 178.1 194.197 177.883 194.07L171.157 190.181C169.185 192.216 166.936 193.937 164.463 195.303L166.465 202.802C166.529 203.043 166.388 203.292 166.15 203.36L153.959 206.87C153.917 206.882 153.874 206.888 153.832 206.888V206.89ZM151.333 197.976C151.532 197.976 151.708 198.105 151.768 198.298L154.135 205.869L165.465 202.606L163.486 195.193C163.432 194.988 163.526 194.772 163.712 194.672C166.33 193.268 168.695 191.458 170.743 189.292C170.888 189.138 171.12 189.105 171.303 189.211L177.943 193.053L184.017 182.568L177.378 178.729C177.194 178.623 177.109 178.403 177.169 178.199C178.03 175.348 178.424 172.398 178.337 169.428C178.331 169.216 178.472 169.027 178.677 168.971L186.087 166.997L182.963 155.293L175.553 157.268C175.35 157.322 175.134 157.229 175.032 157.042C173.628 154.425 171.815 152.062 169.647 150.017C169.494 149.872 169.458 149.639 169.564 149.454L173.408 142.82L162.918 136.75L159.074 143.385C158.968 143.567 158.751 143.657 158.547 143.592C155.693 142.733 152.739 142.34 149.768 142.425H149.756C149.549 142.425 149.368 142.286 149.314 142.085L147.337 134.68L135.625 137.801L137.6 145.204C137.654 145.409 137.561 145.625 137.374 145.725C134.756 147.129 132.389 148.939 130.344 151.105C130.197 151.259 129.966 151.292 129.784 151.186L123.144 147.345L117.07 157.829L123.708 161.668C123.893 161.774 123.978 161.994 123.917 162.198C123.057 165.051 122.665 168.002 122.75 170.969C122.756 171.181 122.615 171.37 122.409 171.424L115 173.398L118.124 185.102L125.533 183.127C125.739 183.073 125.952 183.166 126.054 183.353C127.461 185.97 129.271 188.335 131.439 190.378C131.593 190.523 131.628 190.756 131.522 190.941L127.678 197.573L138.171 203.643L142.014 197.008C142.12 196.826 142.34 196.74 142.541 196.799C145.396 197.658 148.352 198.055 151.32 197.968H151.333V197.976ZM150.548 187.091C143.081 187.091 136.231 182.099 134.219 174.555C133.055 170.196 133.661 165.647 135.922 161.743C138.183 157.839 141.83 155.05 146.192 153.888C155.193 151.489 164.472 156.857 166.872 165.852C168.035 170.211 167.43 174.761 165.169 178.664C162.908 182.568 159.261 185.357 154.898 186.52C153.446 186.906 151.986 187.091 150.548 187.091ZM150.542 154.23C149.183 154.23 147.802 154.405 146.427 154.772C142.303 155.871 138.853 158.51 136.714 162.202C134.576 165.894 134.003 170.196 135.103 174.318C137.374 182.828 146.147 187.903 154.664 185.633C158.788 184.535 162.24 181.895 164.378 178.203C166.517 174.511 167.09 170.209 165.988 166.087C164.084 158.952 157.605 154.23 150.542 154.23Z" fill="#4ADA85"/>
<path d="M121.611 93.3643H207.605V50.5842L195.381 33.9141H121.611V93.3643Z" fill="black"/>
<path d="M124.309 89.6886H210.302V46.9064L198.078 30.2383H124.309V89.6886Z" fill="white"/>
<path d="M210.301 90.1452H124.31C124.057 90.1452 123.854 89.9396 123.854 89.6884V30.2381C123.854 29.9847 124.059 29.7812 124.31 29.7812H198.079C198.224 29.7812 198.361 29.8498 198.448 29.9681L210.673 46.6383C210.731 46.7172 210.762 46.8127 210.762 46.9082V89.6884C210.762 89.9417 210.557 90.1452 210.305 90.1452H210.301ZM124.766 89.2294H209.845V47.0557L197.847 30.6949H124.768V89.2294H124.766Z" fill="black"/>
<path d="M165.135 43.4723H136.861C136.608 43.4723 136.404 43.2667 136.404 43.0154C136.404 42.7642 136.61 42.5586 136.861 42.5586H165.135C165.388 42.5586 165.591 42.7642 165.591 43.0154C165.591 43.2667 165.386 43.4723 165.135 43.4723Z" fill="black"/>
<path d="M193.299 43.4723H171.46C171.207 43.4723 171.004 43.2667 171.004 43.0154C171.004 42.7642 171.209 42.5586 171.46 42.5586H193.299C193.552 42.5586 193.756 42.7642 193.756 43.0154C193.756 43.2667 193.55 43.4723 193.299 43.4723Z" fill="black"/>
<path d="M148.931 55.7232H136.863C136.61 55.7232 136.406 55.5177 136.406 55.2664C136.406 55.0151 136.612 54.8096 136.863 54.8096H148.931C149.184 54.8096 149.388 55.0151 149.388 55.2664C149.388 55.5177 149.182 55.7232 148.931 55.7232Z" fill="black"/>
<path d="M193.299 55.7232H155.257C155.004 55.7232 154.801 55.5177 154.801 55.2664C154.801 55.0151 155.006 54.8096 155.257 54.8096H193.299C193.552 54.8096 193.756 55.0151 193.756 55.2664C193.756 55.5177 193.55 55.7232 193.299 55.7232Z" fill="black"/>
<path d="M169.358 67.9771H136.861C136.608 67.9771 136.404 67.7716 136.404 67.5203C136.404 67.2691 136.61 67.0635 136.861 67.0635H169.358C169.611 67.0635 169.814 67.2691 169.814 67.5203C169.814 67.7716 169.609 67.9771 169.358 67.9771Z" fill="black"/>
<path d="M193.299 67.9771H175.683C175.43 67.9771 175.227 67.7716 175.227 67.5203C175.227 67.2691 175.432 67.0635 175.683 67.0635H193.299C193.552 67.0635 193.755 67.2691 193.755 67.5203C193.755 67.7716 193.55 67.9771 193.299 67.9771Z" fill="black"/>
<path d="M152.093 80.2281H136.861C136.608 80.2281 136.404 80.0225 136.404 79.7713C136.404 79.52 136.61 79.3145 136.861 79.3145H152.093C152.346 79.3145 152.549 79.52 152.549 79.7713C152.549 80.0225 152.344 80.2281 152.093 80.2281Z" fill="black"/>
<path d="M193.298 80.2281H158.417C158.164 80.2281 157.961 80.0225 157.961 79.7713C157.961 79.52 158.166 79.3145 158.417 79.3145H193.298C193.551 79.3145 193.754 79.52 193.754 79.7713C193.754 80.0225 193.549 80.2281 193.298 80.2281Z" fill="black"/>
<path d="M210.302 47.3654H198.077C197.824 47.3654 197.621 47.1598 197.621 46.9085V30.2384C197.621 30.0411 197.748 29.8646 197.936 29.8044C198.123 29.7421 198.331 29.8085 198.447 29.9684L210.671 46.6386C210.773 46.7777 210.789 46.9625 210.71 47.1162C210.632 47.2698 210.474 47.3674 210.302 47.3674V47.3654ZM198.534 46.4496H209.397L198.534 31.6359V46.4496Z" fill="black"/>
<path d="M111.327 1.45605L116.196 11.2073L124.939 15.3852L110.151 30.4835L105.867 21.5296L96.1074 16.6664L111.327 1.45605Z" fill="#018BCE"/>
<path d="M107.595 12.955C111.802 8.75776 113.377 3.51365 111.115 1.24193C108.853 -1.02979 103.609 0.531146 99.403 4.72837C95.1969 8.9256 93.621 14.1697 95.8833 16.4414C98.1456 18.7131 103.389 17.1522 107.595 12.955Z" fill="#313131"/>
<path d="M119.87 22.1543L116.822 25.1984L129.003 35.9568C129.862 36.7147 131.077 35.5311 130.341 34.6528L119.867 22.1543H119.87Z" fill="white"/>
<path d="M129.6 36.6568C129.297 36.6568 128.982 36.5509 128.698 36.3017L116.517 25.5433C116.422 25.4603 116.366 25.3399 116.362 25.2153C116.357 25.0886 116.407 24.9661 116.496 24.8768L119.544 21.8326C119.635 21.7433 119.764 21.6935 119.886 21.6997C120.015 21.706 120.133 21.7641 120.216 21.8638L130.689 34.3623C131.231 35.006 131.046 35.7992 130.588 36.2477C130.333 36.4969 129.976 36.6568 129.6 36.6568ZM117.49 25.18L129.306 35.6144C129.617 35.8885 129.899 35.6414 129.953 35.5895C130.007 35.5376 130.258 35.2635 129.992 34.9478L119.84 22.8314L117.492 25.1779L117.49 25.18Z" fill="black"/>
<path d="M122.443 27.7939C126.649 23.5966 128.225 18.3525 125.963 16.0808C123.7 13.8091 118.457 15.37 114.251 19.5672C110.045 23.7645 108.469 29.0086 110.731 31.2803C112.993 33.552 118.237 31.9911 122.443 27.7939Z" fill="#018BCE"/>
</g>
</g>
<defs>
<clipPath id="clip0_2410_13719">
<rect width="427" height="425" fill="white"/>
</clipPath>
<clipPath id="clip1_2410_13719">
<rect x="18" width="401" height="380" rx="46" fill="white"/>
</clipPath>
</defs>
</svg>
