<svg width="362" height="419" viewBox="0 0 362 419" fill="none" xmlns="http://www.w3.org/2000/svg">
<g clip-path="url(#clip0_2518_21235)">
<path d="M183.266 83.4382C183.234 83.9023 176.562 82.3652 174.574 80.3556C172.586 78.3459 168.357 73.3294 168.357 73.3294L165.198 78.2562C165.198 78.2562 164.358 75.1321 162.971 74.4093C161.585 73.6865 160.723 72.1754 160.723 72.1754C160.723 72.1754 161.358 69.2928 161.724 67.0761C162.091 64.8577 162.213 58.908 162.172 56.8983C162.13 54.8886 162.053 48.7629 162.054 48.7629C162.058 48.7629 168.068 43.6964 169.904 43.4084C171.74 43.1203 175.21 44.3658 175.174 44.471C175.138 44.5762 173.979 46.3668 174.245 48.3455C174.512 50.3241 173.785 51.0831 174.998 51.9129C176.212 52.7426 176.954 52.9634 178.495 52.2113C180.036 51.4592 182.088 49.9325 183.127 48.6819C184.165 47.4312 185.639 45.8217 185.642 45.8217C185.647 45.8217 185.67 49.9153 185.342 53.0238C185.015 56.1324 184.364 62.2287 183.63 66.0376C182.896 69.8465 182.564 75.1407 182.652 77.6679C182.74 80.1951 183.266 83.44 183.266 83.44V83.4382Z" fill="#E10060"/>
<path d="M204.309 74.4366C204.309 74.4366 203.851 69.22 203.107 64.8091C202.364 60.3981 200.288 50.0237 199.305 47.8346C198.322 45.6455 194.232 34.2446 194.232 34.2446C194.232 34.2446 196.713 33.8271 198.775 34.355C200.835 34.8829 205.034 35.9765 207.884 38.7177C210.732 41.4588 213.713 43.8997 215.307 47.9812C216.901 52.0627 218.946 55.8612 220.299 58.7662C221.651 61.6712 223.157 64.0225 224.211 66.4462C225.264 68.8699 226.902 73.5292 227.534 75.6804C228.168 77.8315 229.185 80.9556 229.945 82.7169C230.707 84.4781 231.859 87.8075 231.902 87.9214C231.947 88.0369 231.833 89.7482 229.945 90.2001C228.057 90.6521 223.959 89.9552 221.876 87.7057C219.793 85.4563 216.884 79.6756 216.953 78.7734C217.022 77.8712 217.475 77.7815 216.953 77.2743C216.432 76.7672 211.545 74.309 208.981 74.0674C207.414 73.9277 205.834 74.0536 204.309 74.4366Z" fill="#E10060"/>
<path d="M130.923 123.059C130.923 123.059 131.169 134.99 131.141 140.494C131.115 146.001 130.751 153.903 130.923 156.834C131.098 159.765 130.823 159.953 131.516 160.914C131.899 161.466 132.353 161.964 132.868 162.399C132.868 162.399 130.252 172.168 129.666 175.39C129.082 178.611 128.353 181.93 128.73 184.261C129.106 186.591 129.3 187.724 129.859 188.656C130.421 189.589 130.763 190.452 131.941 190.855C133.12 191.257 135.652 191.099 137.792 189.413C139.932 187.728 143.222 184.695 144.476 183.213C145.73 181.73 147.606 179.903 148.717 177.158C149.827 174.412 149.606 173.871 150.917 171.626C152.228 169.382 153.801 167.509 154.867 165.801C155.933 164.093 156.225 164.017 156.09 163.113C156.035 162.673 155.948 162.237 155.827 161.809C155.827 161.809 156.634 161.566 156.979 159.071C157.325 156.579 158.021 152.763 158.149 148.645C158.276 144.527 158.903 136.606 158.807 133.382C158.708 130.158 158.413 121.098 157.997 119.053C157.58 117.009 157.477 110.847 157.477 110.847C157.477 110.847 161.632 111.336 161.603 111.544C161.575 111.751 161.39 120.368 161.289 125.248C161.185 130.128 161.366 142.487 161.043 147.056C160.72 151.626 160.601 154.403 161.226 156.477C161.853 158.55 162.643 159.591 162.643 159.591C162.643 159.591 163.166 160.122 161.276 163.07C159.385 166.018 157.138 168.047 155.478 170.282C153.817 172.516 151.679 174.19 150.832 177.704C149.986 181.219 150.012 182.061 150.418 183.427C150.824 184.792 150.929 185.38 152.299 185.967C153.668 186.553 158.413 187.152 161.919 185.799C165.425 184.445 169.417 182.834 172.391 180.581C175.363 178.33 177.9 176.344 179.424 174.819C180.947 173.296 184.006 169.325 185.553 167.81C187.103 166.296 188.467 164.697 188.467 164.697C188.467 164.697 189.175 164.716 189.756 163.441C190.334 162.166 191.821 160.08 192.125 155.958C192.427 151.835 192.787 147.608 192.486 145.257C192.186 142.904 191.636 141.722 192.585 139.133C193.533 136.544 195.189 132.538 195.467 130.218C195.747 127.898 195.902 122.215 195.713 119.578C195.521 116.94 194.384 108.45 194.521 108.467C194.659 108.484 200.878 108.613 203.257 109.405C205.633 110.197 211.081 111.991 215.561 113.521C220.041 115.05 229.908 119.528 232.176 120.922C234.442 122.317 239.893 125.733 243.002 128.098C246.109 130.463 256.18 139.511 257.674 141.417C259.168 143.322 261.569 146.741 263.217 149.32C264.866 151.899 267.578 156.403 269.006 159.539C270.434 162.675 271.865 166.051 272.564 168.031C273.264 170.012 274.654 173.751 275.378 176.962C276.103 180.17 276.264 180.559 276.542 182.836C276.822 185.111 277.35 190.121 277.203 194.173C277.056 198.225 277.293 202.096 276.165 206.91C275.039 211.723 274.83 215.827 273.046 221.137C271.538 225.57 269.797 229.923 267.83 234.171C266.478 237.102 264.538 240.606 262.509 243.143C260.479 245.681 257.192 250.052 254.208 254.325C251.225 258.597 250.679 257.988 248.626 260.982C246.572 263.977 245.202 265.557 242.757 269.162C240.311 272.768 239.147 273.451 237.47 277.01C235.793 280.569 233.976 283.306 232.985 286.718C231.995 290.13 229.974 296.258 229.39 299.046C228.807 301.832 228.585 306.577 228.639 307.886C228.693 309.196 228.832 310.605 228.832 310.605L146.331 310.833C146.331 310.833 146.972 306.681 146.489 304.185C146.005 301.688 144.589 296.08 143.193 292.866C141.796 289.653 138.414 283.028 136.991 280.989C135.568 278.949 131.148 273.075 129.165 270.838C127.182 268.6 121.308 262.207 118.868 259.659C116.427 257.111 109.79 250.056 107.507 246.895C105.223 243.735 100.626 236.412 98.6549 232.843C96.6825 229.276 93.793 222.098 92.8586 218.372C91.9242 214.647 90.1694 205.22 90.3404 201.965C90.5114 198.708 90.0658 193.296 90.4043 190.324C90.7411 187.352 91.3819 181.745 91.8706 179.577C92.3594 177.409 94.071 172.641 94.7118 170.598C95.3526 168.557 97.2162 162.033 98.952 158.3C100.69 154.569 103.527 149.24 105.444 146.601C107.362 143.963 110.759 139.387 113.222 136.832C115.685 134.277 118.403 132.069 120.687 130.258C122.972 128.445 127.752 125.231 128.875 124.315C129.483 123.785 130.176 123.361 130.923 123.061V123.059Z" fill="#008BCE"/>
<path d="M161.863 24.669C161.649 24.6465 158.3 26.2146 158.544 29.1679C158.789 32.1212 161.019 35.2194 161.687 35.1297C162.354 35.04 165.736 34.7002 166.993 33.9084C168.251 33.1166 168.91 31.9539 168.997 30.8498C169.081 29.7458 168.779 27.5032 168.093 26.7252C167.409 25.9455 165.605 24.5862 164.501 24.4827C163.618 24.4464 162.732 24.5085 161.863 24.669Z" fill="#A3BE23"/>
<path d="M176.466 24.4023C175.489 24.9785 173.255 27.9042 173.463 30.1036C173.672 32.3014 175.589 33.6107 176.466 33.935C177.344 34.2593 178.62 34.9562 179.905 34.6854C181.188 34.4146 182.746 33.6555 183.651 32.3876C184.555 31.1197 184.736 29.298 184.059 28.0232C183.382 26.7484 182.44 25.4443 181.342 25.0268C180.244 24.6093 176.466 24.4041 176.466 24.4041V24.4023Z" fill="#A3BE23"/>
<path d="M146.71 327.15C146.71 327.15 145.173 328.517 144.753 331.991C144.325 335.527 144.888 337.213 145.283 338.529C145.681 339.845 146.71 341.135 146.71 341.135H157.567C157.567 341.135 152.508 340.237 149.803 336.221C147.099 332.205 147.864 327.15 147.864 327.15H146.71Z" fill="white"/>
<path d="M146.71 349.207C146.71 349.207 145.173 350.575 144.753 354.048C144.325 357.586 144.888 359.269 145.283 360.587C145.681 361.903 146.71 363.192 146.71 363.192H157.567C157.567 363.192 152.508 362.293 149.803 358.279C147.099 354.263 147.864 349.207 147.864 349.207H146.71Z" fill="white"/>
<path d="M146.352 383.231C146.352 383.231 144.395 379.301 144.599 377.25C144.801 375.197 146.352 371.736 146.352 371.736H147.514C146.906 371.705 147.195 376.104 149.492 379.025C152.157 382.413 158.259 383.231 158.259 383.231H146.352Z" fill="white"/>
<path d="M46.6134 372.748C46.6134 372.748 44.6427 368.922 45.1782 366.198C45.7136 363.474 46.5616 362.173 46.5616 362.173L48.5893 362.111C48.5893 362.111 47.6117 363.257 47.3837 366.129C46.933 371.83 52.3355 372.576 52.3355 372.576L46.6134 372.748Z" fill="white"/>
<path d="M230.843 374.592C230.843 374.592 230.766 375.755 232.707 376.514C234.648 377.274 237.571 376.714 237.571 376.714L233.826 379.776L229.93 383.05C230.36 381.887 230.709 380.693 230.973 379.482C231.389 377.555 230.843 374.592 230.843 374.592Z" fill="white"/>
<path d="M254.123 370.604C254.123 370.604 258.28 371.162 259.6 370.192C260.921 369.223 262.709 366.889 262.709 366.889C262.709 366.889 262.479 369.664 262.99 370.763C263.502 371.862 264.631 373.032 264.631 373.032L254.123 370.604Z" fill="white"/>
<path d="M264.21 364.916C263.811 365.18 263.477 365.535 263.239 365.953C263.002 366.37 262.866 366.836 262.842 367.316C262.755 368.97 262.707 370.98 263.267 371.697C263.59 372.127 263.98 372.499 264.424 372.805L268.51 373.265C267.272 372.658 266.203 371.752 265.401 370.631C264.842 369.853 264.515 368.932 264.458 367.976C264.401 367.021 264.615 366.068 265.078 365.23L264.21 364.916Z" fill="white"/>
<path d="M269.759 359.621L264.434 359.407C264.434 359.407 263.365 357.06 263.268 355.086C263.169 353.113 264.805 350.139 264.805 350.139L266.227 350.194C266.227 350.194 265.249 351.384 265.403 353.565C265.556 355.745 266.501 357.472 267.679 358.305C268.347 358.781 269.042 359.221 269.759 359.621Z" fill="white"/>
<path d="M270.789 344.862L265.018 344.619C264.16 343.411 263.749 341.943 263.854 340.466C264.048 338.024 265.391 335.338 265.391 335.338H266.732C266.732 335.338 265.973 336.266 265.795 338.381C265.409 343.18 270.789 344.862 270.789 344.862Z" fill="white"/>
<path d="M168.699 159.499C168.699 159.499 172.734 158.625 175.173 159.329C177.611 160.032 184.045 162.56 184.045 162.56L180.105 167.792C180.105 167.792 180.717 164.678 175.772 161.544C173.236 159.934 168.699 159.499 168.699 159.499Z" fill="white"/>
<path d="M137.557 160.36C137.557 160.36 140.667 159.758 143.008 160.636C148.142 162.561 148.749 166.513 148.749 166.513C148.749 166.513 150.265 164.141 150.911 163.049C151.557 161.957 151.4 161.286 151.4 161.286C151.4 161.286 148.189 159.32 145.731 159.056C143.274 158.792 141.719 158.645 140.232 159.182C139.315 159.513 138.42 159.908 137.557 160.36Z" fill="white"/>
<path d="M157.335 111.788C157.335 111.788 156.202 110.811 155.866 108.187C155.531 105.564 156.271 105.232 156.271 105.232C156.248 105.821 156.371 106.407 156.626 106.938C156.882 107.47 157.264 107.93 157.737 108.281C159.4 109.573 161.872 109.704 161.872 109.704L161.611 111.525L157.335 111.786V111.788Z" fill="white"/>
<path d="M162.555 81.5775C164.574 81.8518 166.529 82.4814 168.327 83.4388C173.619 86.3559 173.733 90.327 173.733 90.327L184.686 88.9573C184.686 88.9573 183.26 85.6745 183.26 84.5601C183.26 83.4457 183.068 83.4423 183.068 83.4423C183.068 83.4423 180.453 83.3474 178.7 82.5038C176.947 81.662 174.571 80.3613 174.571 80.3613H163.565L162.555 81.5775Z" fill="white"/>
<path d="M168.585 73.028L165.371 77.9721C166.002 76.5334 166.376 74.9981 166.482 73.4317C166.668 70.801 166.297 64.7754 166.297 64.7754C166.297 64.7754 166.945 69.5089 167.639 70.7079C168.057 71.4358 168.376 72.2155 168.585 73.028Z" fill="white"/>
<path d="M162.06 48.3368C162.832 46.8119 163.821 45.4059 164.994 44.1622C166.842 42.2698 170.4 39.8047 170.4 39.8047C170.4 39.8047 170.735 40.5206 172.481 41.6315C173.571 42.3181 174.716 42.9098 175.905 43.3997L174.827 45.9718C174.827 45.9718 174.519 44.3019 171.839 44.069C169.158 43.8361 164.719 47.2448 163.706 48.3351C163.053 49.0527 162.498 49.8531 162.053 50.7139L162.06 48.3351V48.3368Z" fill="white"/>
<path d="M162.972 24.6484C162.972 24.6484 159.576 25.7818 159.367 28.7558C159.191 31.2951 160.061 32.8631 162.058 33.8343C164.364 34.9522 166.982 33.648 166.982 33.648C166.982 33.648 164.172 36.189 160.844 34.357C158.937 33.3065 157.213 31.0449 157.726 29.263C158.239 27.4793 157.989 27.324 159.037 26.3079C160.11 25.3057 161.505 24.7174 162.972 24.6502V24.6484Z" fill="white"/>
<path d="M178.335 24.6484C178.335 24.6484 174.938 25.7818 174.731 28.7558C174.553 31.2951 175.423 32.8631 177.42 33.8343C179.729 34.9522 182.346 33.648 182.346 33.648C182.346 33.648 179.536 36.189 176.207 34.357C174.301 33.3065 172.579 31.0449 173.092 29.263C173.606 27.4793 173.354 27.324 174.403 26.3079C175.475 25.3057 176.869 24.7174 178.335 24.6502V24.6484Z" fill="white"/>
<path d="M188.163 22.053C188.163 22.053 189.36 15.9222 187.787 14.1661C186.215 12.41 185.429 11.8597 181.918 13.89C178.407 15.9204 173.755 17.5368 170.458 17.5368C167.161 17.5368 166.729 16.8951 165.323 15.7376C163.304 14.0695 163.757 11.5129 164.539 10.1053C166.37 6.8294 170.038 7.98347 170.038 7.98347C169.657 7.30897 169.465 6.54477 169.484 5.77022C169.503 4.99567 169.733 4.24182 170.149 3.58803C172.489 -0.105311 177.612 -0.488273 179.788 0.412205C185.98 2.94976 184.579 5.36138 188.275 6.79145C191.973 8.22325 194.02 6.45852 195.916 7.93516C197.811 9.41008 198.231 13.4277 197.305 16.7743C196.378 20.1209 196.029 22.053 196.029 22.053C196.029 22.053 194.576 21.3199 193.467 21.8753C192.36 22.4291 190.289 24.6699 190.289 24.6699L188.163 22.0565V22.053Z" fill="white"/>
<path d="M194.6 34.6743L193.084 31.1915L196.049 28.9316C196.049 28.9316 196.918 29.03 197.599 30.5532C198.278 32.0781 197.599 34.2431 197.599 34.2431L194.6 34.6726V34.6743Z" fill="white"/>
<path d="M203.824 73.3279L204.38 79.4777C204.38 79.4777 205.258 77.7682 206.598 76.7901C207.938 75.8137 210.203 75.1289 211.866 75.291C213.025 75.4273 214.172 75.6653 215.289 76.0035C215.289 76.0035 211.674 73.8765 209.04 73.6005C206.406 73.3244 203.824 73.3262 203.824 73.3262V73.3279Z" fill="white"/>
<path d="M217.155 77.4568C217.155 77.4568 217.781 82.3422 220.689 85.3403C223.6 88.3402 226.19 89.9807 228.548 89.6702C229.223 89.5822 229.864 89.32 230.408 88.9077C230.95 88.4954 231.377 87.9503 231.643 87.3224C231.643 87.3224 234.235 92.727 234.142 93.6464C234.049 94.5642 233.8 96.9723 233.883 98.6111C233.966 100.25 234.144 101.77 234.144 101.77C234.144 101.77 231.783 94.6159 226.698 92.2612C221.615 89.9065 215.919 87.7519 214.684 87.2758L213.447 86.8014C213.447 86.8014 214.684 84.4622 215.561 82.2438C216.44 80.0254 217.155 77.4551 217.155 77.4551V77.4568Z" fill="white"/>
<path d="M217.006 114.04C217.006 114.04 221.246 116.041 224.944 115.117C228.64 114.194 230.673 113.224 231.69 111.47C232.707 109.715 233.854 107.562 233.854 107.562C233.854 107.562 232.348 111.934 230.956 114.401C230.122 115.882 229.048 117.214 227.778 118.346L217.006 114.04Z" fill="white"/>
<path d="M194.304 108.421L193.193 105.002C193.193 105.002 195.043 106.698 196.938 107.557C198.833 108.416 202.235 109.385 202.235 109.385L194.304 108.421Z" fill="white"/>
<path d="M93.7056 174.007C93.7056 174.007 86.1787 172.298 82.3858 171.992C78.593 171.687 74.5117 171.594 74.5117 171.594C74.5117 171.594 82.0922 171.606 86.0768 174.007C90.0596 176.408 90.1511 176.738 91.0682 178.716C91.9854 180.693 91.2962 184.035 91.2962 184.035L93.7073 174.007H93.7056Z" fill="white"/>
<path d="M127.354 268.75C127.354 268.75 130.716 273.879 131.64 277.299C132.564 280.718 132.747 281.916 132.656 284.037C132.545 285.678 132.326 287.31 132.003 288.923C132.003 288.923 135 283.18 135.587 281.769C136.174 280.356 136.343 279.934 136.343 279.934C136.343 279.934 135.502 278.857 132.92 275.269C131.234 272.956 129.374 270.777 127.354 268.75Z" fill="white"/>
<path d="M248.178 276.201C248.055 276.009 246.062 272.872 247.079 268.162C247.793 265.085 248.863 262.099 250.273 259.27L243.744 267.79C243.744 267.79 244.582 270.286 245.508 271.856C246.432 273.425 248.178 276.201 248.178 276.201Z" fill="white"/>
<path d="M274.328 173.214L276.423 181.872C276.423 181.872 275.822 178.342 278.135 175.391C280.449 172.437 285.408 170.723 285.408 170.723C285.408 170.723 281.985 171.083 279.226 171.897C276.468 172.71 274.328 173.214 274.328 173.214Z" fill="white"/>
<path d="M168.729 19.6704C169.623 18.6095 170.516 18.7147 171.356 19.108C172.193 19.5013 172.739 20.5726 172.775 21.411L178.509 18.0506C179.091 16.793 179.977 16.6584 180.895 16.8292C181.812 17 182.606 17.8694 182.872 18.675L168.729 19.6687V19.6704Z" fill="white"/>
<path d="M169.214 16.7754H168.236V19.6838H169.214V16.7754Z" fill="white"/>
<path d="M180.204 41.0898C179.637 41.0915 179.073 41.0484 178.513 40.9604C174.38 40.2963 172.155 38.9559 171.518 36.7358C171.254 35.8267 171.357 35.1263 171.827 34.6571C172.715 33.7652 174.547 34.1982 174.914 34.2948C175.098 34.3362 175.276 34.4001 175.444 34.4846C176.841 35.1298 178.365 35.4575 179.902 35.4472C179.96 35.4472 185.81 35.3885 185.957 30.2617C186.049 27.1497 184.632 25.4384 181.506 24.8709C179.598 24.5241 176.983 24.0497 174.527 26.8254C173.342 28.1709 173.212 30.0961 173.209 30.115L173.173 30.7188L172.591 30.5566C172.484 30.5273 169.939 29.7993 169.696 27.838C169.451 25.9369 170.559 23.132 172.385 22.2212C172.63 22.0935 172.874 21.9762 173.078 21.8624C174.28 21.2276 175.149 20.7687 177.781 20.641C180.84 20.4996 182.774 21.3397 182.853 21.3742L182.458 22.266C182.439 22.266 180.639 21.4846 177.826 21.6157C175.413 21.7278 174.706 22.1039 173.535 22.7197C173.314 22.8336 173.083 22.963 172.824 23.0854C171.395 23.7996 170.473 26.1992 170.663 27.712C170.774 28.5918 171.706 29.1404 172.318 29.4216C172.511 28.233 173.019 27.1152 173.784 26.1854C176.603 22.9906 179.653 23.5443 181.674 23.9117C185.261 24.5621 187.028 26.708 186.926 30.2893C186.781 35.323 181.791 36.4253 179.893 36.4253C178.223 36.4356 176.572 36.0837 175.05 35.3937C174.948 35.3471 174.832 35.2988 174.777 35.2764H174.758L174.691 35.2591C174.162 35.1108 172.936 34.94 172.52 35.3575C172.275 35.6024 172.349 36.1044 172.456 36.4753C172.983 38.2883 174.955 39.4062 178.667 40.0065C182.38 40.6068 186.391 38.7265 186.429 38.7075L186.848 39.5925C186.696 39.6511 183.598 41.0898 180.204 41.0898Z" fill="white"/>
<path d="M204.144 78.2869C204.144 78.1558 203.281 65.1816 200.476 54.0016C197.631 42.6386 194.384 35.164 191.565 29.0504C188.703 22.8488 188.287 22.4365 185.373 20.5855C182.61 18.8294 178.57 18.4068 175.77 19.5798C173.339 20.5976 171.903 23.4698 171.89 23.4992L171.016 23.0696C171.08 22.9385 172.622 19.8403 175.396 18.6742C178.52 17.3631 182.84 17.8065 185.911 19.7541C189.09 21.7793 189.648 22.5262 192.465 28.6346C195.303 34.7896 198.578 42.3126 201.436 53.7601C204.257 65.0264 205.105 78.0885 205.125 78.2179L204.144 78.2886V78.2869Z" fill="black"/>
<path d="M198.188 99.0827C197.592 99.0827 196.998 99.043 196.407 98.9705C196.265 98.9533 196.163 98.9395 196.079 98.9343C192.25 98.7239 188.484 96.1725 186.255 92.2739L186.009 91.8581C184.182 88.6823 182.977 86.5778 182.301 80.1054C181.799 75.2597 182.792 68.3457 183.728 61.6576C184.104 59.0045 184.462 56.5014 184.73 54.1053C185.68 45.6992 184.742 39.9392 184.73 39.8909L185.709 39.7305C185.709 39.7891 186.686 45.6612 185.709 54.2157C185.438 56.6256 185.063 59.2512 184.704 61.787C183.762 68.4164 182.792 75.27 183.282 79.9949C183.939 86.2621 185.103 88.2994 186.864 91.3648L187.11 91.7822C189.179 95.3945 192.638 97.7596 196.141 97.951C196.234 97.951 196.365 97.97 196.535 97.9924C202.082 98.679 206.967 95.912 211.048 89.7691C214.794 84.1299 216.692 79.1963 217.394 73.2724C217.86 69.1754 218.112 65.0577 218.152 60.9348H219.129C219.09 65.0974 218.834 69.2548 218.364 73.3914C217.642 79.4774 215.699 84.5387 211.862 90.3125C207.986 96.138 203.393 99.0809 198.188 99.0809V99.0827Z" fill="black"/>
<path d="M216.795 77.6483C214.912 76.1803 212.762 75.0901 210.466 74.4346C207.48 73.6203 205.285 73.8222 204.682 73.8998C204.62 73.9102 204.554 73.9084 204.492 73.8946C204.428 73.8808 204.37 73.855 204.316 73.817C204.264 73.7791 204.219 73.7325 204.185 73.679C204.15 73.6255 204.128 73.5634 204.117 73.5013C204.105 73.4375 204.107 73.3737 204.121 73.3098C204.136 73.2477 204.162 73.1874 204.199 73.1356C204.237 73.0839 204.283 73.039 204.339 73.0045C204.392 72.97 204.453 72.9476 204.516 72.9355L204.553 73.0873L204.535 72.9355C205.2 72.8475 207.561 72.6319 210.722 73.4927C213.161 74.181 215.437 75.3437 217.425 76.9118L216.795 77.6501V77.6483Z" fill="white"/>
<path d="M188.821 165.167C188.702 165.167 188.584 165.132 188.486 165.067C187.508 164.494 176.878 159.222 171.95 159.607C170.157 159.747 168.734 159.983 167.589 160.175C165.245 160.568 163.829 160.803 162.337 159.723C160.625 158.501 160.641 156.521 160.654 152.942C160.654 151.755 160.654 150.407 160.611 148.82C160.402 142.52 160.879 110.588 161.796 105.447C162.729 100.227 166.352 94.2466 170.05 91.8315C173.663 89.4716 179.242 88.8782 181.342 88.6557L181.496 88.6384C182.664 88.5108 183.836 88.4556 185.009 88.4728L184.981 89.4492C183.852 89.4371 182.722 89.4923 181.6 89.6131L181.448 89.6303C179.411 89.846 174.002 90.4221 170.586 92.6509C167.086 94.9366 163.648 100.634 162.76 105.62C161.85 110.719 161.381 142.502 161.589 148.791C161.641 150.395 161.635 151.753 161.632 152.942C161.618 156.304 161.613 157.989 162.912 158.926C164.072 159.766 165.193 159.581 167.428 159.207C168.592 159.012 170.038 158.772 171.874 158.629C177.026 158.225 187.08 163.237 188.781 164.116C189.009 163.847 189.622 162.895 190.792 159.642C192.372 155.246 192.014 148.458 191.736 143.495C191.557 140.224 192.068 138.938 192.912 136.807C193.636 135.041 194.246 133.228 194.736 131.38C196.491 124.77 194.194 108.889 194.172 108.73L194.13 108.452L194.349 108.278C194.514 108.144 194.861 107.868 202.001 108.866C208.519 109.777 225.139 116.703 227.678 117.775C227.872 117.58 228.167 117.264 228.53 116.853C231.266 113.707 233.243 109.527 233.57 106.212C233.742 104.461 233.625 102.613 233.514 100.838C233.406 99.0629 233.295 97.3482 233.471 95.8026C233.748 93.3875 233.437 92.6009 232.414 89.9926C232.205 89.4578 231.965 88.8472 231.698 88.1382C231.141 86.6719 230.632 85.4971 230.138 84.3672C228.989 81.8503 228.039 79.2472 227.295 76.5837C225.685 70.9238 224.604 67.6842 221.521 62.4349C219.405 58.8174 218.124 55.9745 216.766 52.9626C216.096 51.4773 215.405 49.9437 214.566 48.2101C211.386 41.6152 207.279 38.7844 205.073 37.2629L204.885 37.1335C200.954 34.42 195.061 34.8237 194.555 34.9548C194.576 34.9479 194.595 34.9392 194.614 34.9306L194.177 34.0577C194.614 33.8386 201.165 33.3763 205.441 36.3296L205.628 36.459C207.909 38.0288 212.155 40.9562 215.447 47.7874C216.288 49.5315 216.982 51.0719 217.647 52.5624C219.051 55.6796 220.264 58.3706 222.352 61.9415C225.48 67.2874 226.592 70.5788 228.221 76.3181C228.953 78.9402 229.889 81.5001 231.019 83.9773C231.508 85.1176 232.033 86.2975 232.599 87.7949C232.865 88.5004 233.102 89.1042 233.311 89.6372C234.373 92.3456 234.73 93.2598 234.43 95.9147C234.264 97.3793 234.366 99.0284 234.476 100.779C234.59 102.601 234.72 104.486 234.53 106.317C234.181 109.877 232.159 114.164 229.254 117.505C228.601 118.252 228.127 118.699 228.108 118.727L227.863 118.946L227.571 118.818C227.381 118.741 208.626 110.802 201.838 109.851C197.593 109.258 195.866 109.141 195.185 109.118C195.579 111.985 197.299 125.446 195.655 131.639C195.158 133.528 194.538 135.38 193.8 137.188C192.978 139.265 192.524 140.407 192.69 143.464C192.963 148.51 193.337 155.431 191.691 159.995C189.949 164.837 189.287 165.057 189.002 165.15C188.942 165.164 188.881 165.169 188.821 165.167ZM188.969 164.222L189.028 164.253C189.011 164.241 188.99 164.229 188.969 164.222Z" fill="white"/>
<path d="M171.314 23.6105C170.456 22.6186 167.686 21.6111 165.824 21.6111C164.257 21.6232 162.706 21.9303 161.254 22.5202L160.85 21.6284C162.428 20.9798 164.117 20.6417 165.824 20.6348C167.781 20.6348 170.914 21.656 172.055 22.9722L171.314 23.6122V23.6105Z" fill="white"/>
<path d="M147.434 90.1598C145.321 90.1995 143.269 89.4595 141.672 88.0794C139.537 86.2336 138.592 82.9232 138.789 77.9603C138.903 75.0018 139.556 66.9009 143.107 55.538C146.287 45.3947 152.099 35.9173 152.855 34.7114L152.791 32.5137C152.72 30.1228 153.58 26.2777 156.242 23.3106C158.826 20.428 162.277 19.117 167.085 19.2032C170.22 19.255 171.626 20.3193 172.303 20.8299C172.381 20.8938 172.463 20.9524 172.548 21.0076C172.496 20.9904 172.443 20.9852 172.389 20.9921C172.337 20.999 172.286 21.018 172.242 21.0473L172.767 21.8701C172.379 22.1151 172.033 21.846 171.709 21.6097C171.115 21.1594 169.881 20.2279 167.063 20.1813C162.487 20.1054 159.382 21.2698 156.966 23.9644C154.898 26.3225 153.762 29.3517 153.764 32.4861L153.838 34.9892L153.757 35.1168C153.693 35.2169 147.375 45.1601 144.036 55.8382C140.52 67.0907 139.879 75.0898 139.761 78.0051C139.578 82.6455 140.413 85.7092 142.307 87.3497C143.917 88.7418 145.934 89.3508 148.299 89.1541C153.751 88.7022 159.876 84.0721 162.482 80.9274C166.006 76.6768 167.957 73.4078 168.018 72.8455C168.013 72.8748 168.013 72.9058 168.018 72.9352L168.957 72.6661C169.246 73.6752 165.779 78.4674 163.223 81.5484C160.667 84.6293 154.42 89.6234 148.368 90.1271C148.054 90.1443 147.741 90.1581 147.434 90.1581V90.1598Z" fill="black"/>
<path d="M183.265 83.9278C176.12 83.9278 169.875 77.1725 167.724 72.3734C165.46 67.3224 165.393 59.5752 165.393 58.7109H166.37C166.37 59.5562 166.432 67.1085 168.615 71.9766C170.66 76.5342 176.553 82.9531 183.263 82.9531V83.9295L183.265 83.9278Z" fill="white"/>
<path d="M178.372 44.2718H177.995C176.548 44.1787 175.135 43.7819 173.85 43.1091C172.563 42.4364 171.435 41.5014 170.534 40.3646C169.456 38.9914 168.967 38.0754 168.75 37.4941C166.812 38.5809 164.446 38.6102 162.734 38.4256C161.655 38.3325 160.62 37.9443 159.746 37.306L160.373 36.5539L160.06 36.93L160.371 36.5539C161.1 37.0663 161.952 37.3768 162.839 37.4527C164.536 37.6355 166.928 37.5993 168.693 36.3797C168.788 36.2917 168.912 36.24 169.043 36.2348C169.173 36.2296 169.301 36.2727 169.403 36.3538L169.691 36.5988L169.57 36.8282C169.622 37.0732 169.891 37.9512 171.304 39.7591C173.142 42.0982 176.006 43.2178 178.03 43.2851C179.408 43.292 180.783 43.1333 182.123 42.8159L182.368 43.7629C181.057 44.0752 179.719 44.2459 178.372 44.2718Z" fill="white"/>
<path d="M160.013 75.1675L159.156 74.6966C159.172 74.669 160.583 72.078 161.253 68.0655C161.854 64.4584 161.766 60.2769 161.643 54.4859C161.626 53.6716 161.609 52.8281 161.593 51.9552C161.455 44.7428 162.082 37.9581 162.082 37.8926L163.06 37.9806C163.06 38.0496 162.441 44.7807 162.571 51.9362C162.588 52.816 162.605 53.6458 162.623 54.4634C162.744 60.3079 162.835 64.5291 162.217 68.2259C161.507 72.4144 160.065 75.0571 160.013 75.1675Z" fill="black"/>
<path d="M164.951 78.2201C164.127 76.8176 163.201 75.4772 162.182 74.2093C161.018 72.8275 160.619 72.6516 160.602 72.643C160.645 72.6585 160.69 72.6637 160.735 72.6619L160.707 71.6856C160.871 71.6856 161.32 71.6666 162.93 73.5779C163.987 74.889 164.945 76.2759 165.795 77.7301L164.951 78.2183V78.2201Z" fill="white"/>
<path d="M176.713 53.0403C176.224 53.0507 175.739 52.9454 175.297 52.7333C174.532 52.3503 174.026 51.6327 173.794 50.6011C173.136 47.6892 175.383 43.3645 175.478 43.1816L176.344 43.6353C176.325 43.6767 174.171 47.8272 174.748 50.3855C174.914 51.1186 175.237 51.6068 175.725 51.8518C176.743 52.3624 178.276 51.7862 178.888 51.5154C181.333 50.4269 183.703 47.2355 184.712 45.8727C184.89 45.5984 185.095 45.3449 185.327 45.1137L185.935 45.8779L185.952 45.8624C185.897 45.9176 185.693 46.1901 185.499 46.4541C184.444 47.8772 181.971 51.2152 179.287 52.4055C178.48 52.7867 177.604 53.0024 176.713 53.0403Z" fill="white"/>
<path d="M192.915 31.7457L192.691 30.7952C193.421 30.5985 194.091 30.2276 194.648 29.7153L194.796 29.5669C195.679 28.6854 196.775 27.5918 196.817 25.4147C196.853 23.5655 196.394 22.6305 195.237 22.1854C193.66 21.5851 191.204 24.1865 190.685 24.9386L189.879 24.3849C190.352 23.6966 193.254 20.3845 195.585 21.2763C197.599 22.0457 197.824 23.9019 197.788 25.4285C197.737 27.9937 196.378 29.3513 195.482 30.2501L195.335 30.395C194.654 31.0419 193.824 31.5076 192.915 31.7474V31.7457Z" fill="white"/>
<path d="M192.503 26.7988L191.523 26.6712C191.523 26.5987 191.769 24.8875 193.14 23.8007C194.656 22.5966 195.586 23.1555 195.681 23.2245L195.131 24.0336L195.154 24.0491C195.154 24.0491 194.686 23.8248 193.75 24.5666C193.087 25.1445 192.646 25.9328 192.503 26.7988Z" fill="white"/>
<path d="M133.328 163.048C133.294 163.051 133.257 163.051 133.223 163.048C132.627 162.948 130.409 161.826 130.435 158.131C130.435 157.369 130.463 156.118 130.492 154.535C130.582 149.29 130.736 140.517 130.598 133.04L130.563 131.283C130.363 121.219 130.088 107.437 132.37 98.9912C134.803 89.9813 140.943 86.9521 141.202 86.8262L141.625 87.7077C141.567 87.737 135.625 90.6903 133.311 99.2448C131.066 107.549 131.339 121.258 131.539 131.262L131.572 133.021C131.715 140.518 131.558 149.308 131.468 154.555C131.439 156.139 131.416 157.386 131.411 158.143C131.389 160.972 132.879 161.935 133.321 162.073C133.522 161.994 134.055 161.68 134.52 161.4C136.475 160.239 139.726 158.297 142.729 158.297C145.46 158.297 148.128 159.411 150.275 160.308C151.42 160.796 152.41 161.198 153.175 161.354C154.284 161.573 154.961 161.519 155.434 161.169C156.108 160.681 156.538 159.46 156.754 157.44C156.804 156.972 156.866 156.411 156.938 155.775C157.519 150.632 158.721 139.934 158.23 130.009C157.683 118.986 156.856 111.936 156.845 111.855L156.785 111.343L161.752 111.039L161.811 112.015L157.875 112.26C158.073 114.077 158.742 120.596 159.206 129.966C159.695 139.98 158.491 150.726 157.909 155.889C157.838 156.525 157.774 157.081 157.726 157.55C157.481 159.92 156.945 161.28 156.014 161.964C155.083 162.647 153.975 162.513 152.985 162.316C152.121 162.144 151.092 161.712 149.895 161.214C147.831 160.351 145.265 159.28 142.729 159.28C139.995 159.28 136.881 161.136 135.021 162.242C134.009 162.83 133.629 163.048 133.328 163.048Z" fill="#050505"/>
<path d="M150.286 160.773L149.347 160.498C149.359 160.459 150.492 156.579 151.303 152.944C152.086 149.472 152.602 140.305 152.126 133.235C151.88 129.511 151.146 126.045 150.374 122.375C149.735 119.326 149.075 116.178 148.616 112.588C147.575 104.472 148.927 102.057 150.663 99.9385C153.48 96.497 165.022 97.0197 165.511 97.0438L165.464 98.0202C162.264 97.8632 153.502 98.0202 151.417 100.558C149.832 102.512 148.594 104.734 149.585 112.464C150.039 116.016 150.697 119.147 151.333 122.174C152.11 125.88 152.844 129.378 153.101 133.166C153.544 139.704 153.139 149.23 152.257 153.153C151.452 156.82 150.298 160.731 150.286 160.771V160.773Z" fill="#050505"/>
<path d="M183.553 162.784C183.403 162.66 183.233 162.562 183.048 162.494C182.966 162.472 182.888 162.429 182.824 162.37C182.76 162.31 182.712 162.237 182.682 162.155C182.658 162.072 182.655 161.984 182.67 161.899C182.688 161.815 182.724 161.734 182.777 161.666C183.069 161.256 184 159.165 183.834 149.468C183.712 142.385 183.2 137.257 182.789 133.127C182.271 127.907 181.896 124.136 182.606 119.749C182.713 119.095 182.84 118.528 182.959 117.959C183.384 115.978 183.753 114.269 183.107 110.023C182.301 104.703 183.316 100.986 185.819 100.075C187.042 99.6282 188.676 100.386 190.558 101.262C192.17 102.014 193.983 102.864 195.612 102.908C196.697 102.909 197.774 102.737 198.805 102.395C200.384 101.948 202.02 101.484 204.745 102.573C206.6 103.306 208.312 104.405 209.823 105.367C211.757 106.589 213.427 107.664 214.839 107.707C219.341 107.846 221.535 109.39 222.986 110.41C223.357 110.71 223.768 110.957 224.208 111.143C224.823 111.336 225.974 111.695 226.856 111.026C227.628 110.439 228.519 108.828 228.378 104.431C228.234 99.9336 228.227 97.1027 228.25 95.5191C228.25 94.679 228.281 93.9735 228.309 93.4715C228.348 92.8074 228.369 92.4417 228.797 92.3744L229.226 92.3105L229.352 92.7435L228.88 92.8746V93.3456C228.982 93.3421 229.079 93.3059 229.158 93.2455C229.24 93.1851 229.298 93.1006 229.328 93.004C229.248 93.3749 229.105 96.7595 229.35 104.398C229.474 108.305 228.861 110.748 227.443 111.809C226.158 112.785 224.64 112.297 223.91 112.08C223.369 111.867 222.863 111.574 222.41 111.212C221.055 110.256 219.008 108.816 214.797 108.686C213.12 108.635 211.345 107.505 209.287 106.194C207.74 105.217 206.141 104.189 204.374 103.482C201.959 102.506 200.614 102.899 199.061 103.337C197.938 103.708 196.76 103.894 195.577 103.887C193.757 103.839 191.833 102.942 190.135 102.15C188.52 101.398 186.992 100.686 186.145 100.994C184.575 101.564 183.211 104.196 184.066 109.877C184.736 114.298 184.334 116.177 183.905 118.164C183.788 118.711 183.66 119.275 183.563 119.905C182.872 124.165 183.242 127.885 183.753 133.029C184.166 137.169 184.677 142.311 184.802 149.45C184.881 154.002 184.764 159.664 183.81 161.791C183.905 161.849 184.012 161.92 184.133 162.011L183.553 162.777V162.784Z" fill="#050505"/>
<path d="M155.798 187.246C154.425 187.246 153.169 187.032 152.232 186.472C150.838 185.642 148.715 183.463 150.162 178.214C151.157 174.61 155.639 169.204 158.608 165.628C159.342 164.747 159.971 163.986 160.413 163.413C162.413 160.834 162.152 159.454 162.149 159.44L163.099 159.195C163.146 159.373 163.484 161.034 161.185 164C160.733 164.586 160.097 165.35 159.361 166.239C156.446 169.751 152.043 175.059 151.104 178.452C149.881 182.848 151.321 184.769 152.732 185.611C155.145 187.051 160.912 185.77 165.113 184.233C169.37 182.678 177.382 176.504 180.954 172.539C184.528 168.573 188.074 164.383 188.108 164.341L188.856 164.973C188.82 165.014 185.295 169.182 181.681 173.192C178.035 177.239 169.828 183.551 165.451 185.161C163.828 185.766 159.408 187.246 155.798 187.246Z" fill="white"/>
<path d="M152.591 183.24C151.789 183.247 150.99 183.207 150.193 183.123L150.316 182.147C150.376 182.147 156.56 182.88 162.596 180.333C168.752 177.737 172.778 174.265 176.013 171.475C179.135 168.789 183.593 162.341 183.641 162.277L184.446 162.831C184.26 163.1 179.869 169.438 176.671 172.198C173.538 174.9 169.275 178.577 162.976 181.236C158.99 182.916 155.026 183.24 152.591 183.24Z" fill="white"/>
<path d="M165.849 171.897C164.504 171.897 162.034 170.459 160.917 168.233C160.627 167.65 160.426 167.026 160.324 166.382C159.827 166.393 159.336 166.489 158.872 166.669L158.459 165.782C159.027 165.551 159.635 165.423 160.248 165.408C160.248 164.117 160.659 162.929 161.452 162.208C161.815 161.885 162.228 161.621 162.675 161.426C162.347 160.955 162.16 160.655 162.145 160.622L162.977 160.115C162.977 160.115 163.222 160.509 163.64 161.092C165.292 160.676 167.373 160.816 169.48 161.549C171.926 162.396 173.456 163.817 173.394 165.168C173.366 165.696 173.06 166.634 171.312 167.053C169.516 167.481 166.981 166.417 165.141 164.468C164.476 163.759 163.851 163.013 163.269 162.235C162.844 162.392 162.452 162.627 162.112 162.925C161.521 163.464 161.219 164.392 161.228 165.425C162.226 165.522 163.2 165.794 164.105 166.229C166.423 167.312 167.863 168.873 167.774 170.202C167.746 170.645 167.511 171.445 166.259 171.844C166.126 171.882 165.988 171.901 165.849 171.897ZM161.324 166.412C161.418 166.888 161.575 167.352 161.792 167.787C162.839 169.884 165.35 171.106 165.963 170.907C166.497 170.74 166.779 170.478 166.799 170.134C166.85 169.377 165.794 168.094 163.687 167.107C162.943 166.752 162.145 166.517 161.324 166.412ZM164.283 161.952C164.718 162.513 165.25 163.153 165.851 163.793C167.646 165.696 169.843 166.394 171.084 166.099C171.573 165.984 172.383 165.703 172.413 165.121C172.451 164.39 171.345 163.231 169.16 162.475C167.423 161.861 165.685 161.697 164.283 161.952Z" fill="white"/>
<path d="M138.549 172.104C137.19 172.082 135.846 171.833 134.568 171.371C133.611 171.04 132.751 170.477 132.064 169.734C131.768 169.881 131.482 170.043 131.205 170.224L130.641 169.427C130.914 169.241 131.198 169.072 131.494 168.921C131.426 168.796 131.366 168.666 131.314 168.533C131.14 168.106 131.062 167.647 131.083 167.186C131.102 166.725 131.223 166.275 131.433 165.866C131.919 164.918 132.654 164.122 133.561 163.563C132.979 163.13 132.611 162.808 132.553 162.754L133.205 162.021C133.627 162.382 134.066 162.722 134.522 163.036C135.596 162.554 136.732 162.227 137.896 162.057C141.385 161.514 143.679 162.515 144.142 163.789C144.387 164.474 144.093 165.147 143.352 165.59C140.335 167.393 136.634 165.608 134.44 164.16C133.528 164.636 132.786 165.378 132.309 166.289C132.157 166.574 132.072 166.889 132.057 167.214C132.041 167.536 132.098 167.859 132.223 168.157C132.268 168.276 132.319 168.394 132.38 168.506C133.772 167.917 135.269 167.612 136.781 167.605C139.295 167.605 141.572 168.516 142.078 169.727C142.176 169.943 142.206 170.182 142.161 170.414C142.118 170.645 142.004 170.857 141.834 171.023C141.036 171.83 139.812 172.104 138.549 172.104ZM133.017 169.313C133.563 169.817 134.205 170.207 134.905 170.455C136.639 171.093 139.862 171.625 141.137 170.341C141.171 170.314 141.194 170.276 141.2 170.233C141.207 170.191 141.2 170.148 141.176 170.11C140.917 169.486 139.2 168.587 136.774 168.587C135.489 168.595 134.214 168.842 133.017 169.313ZM135.508 163.695C137.534 164.916 140.518 166.172 142.843 164.776C143.169 164.581 143.296 164.369 143.214 164.147C142.985 163.517 141.235 162.549 138.041 163.049C137.176 163.175 136.328 163.389 135.508 163.689V163.695Z" fill="white"/>
<path d="M133.275 191.561C132.052 191.561 131.111 191.154 130.408 190.34C128.972 188.675 128.188 185.989 128.193 182.767C128.193 176.946 132.237 162.849 132.409 162.251L133.351 162.52C133.309 162.666 129.193 177.084 129.171 182.767C129.171 185.749 129.867 188.209 131.149 189.695C131.966 190.642 133.321 190.818 135.292 190.236C137.353 189.629 142.577 185.156 146.223 180.303C148.094 177.812 148.786 175.875 149.455 174C149.945 172.634 150.406 171.343 151.282 169.951C152.115 168.644 153.013 167.379 153.973 166.161C154.705 165.214 155.275 164.469 155.486 163.902C155.862 162.891 155.31 161.769 155.303 161.757L156.173 161.311C156.204 161.373 156.933 162.815 156.403 164.241C156.141 164.944 155.557 165.708 154.75 166.753C153.807 167.945 152.925 169.187 152.109 170.471C151.289 171.77 150.845 173.013 150.375 174.326C149.712 176.177 148.961 178.278 147 180.886C143.513 185.527 138.062 190.435 135.565 191.171C134.824 191.409 134.052 191.54 133.275 191.561Z" fill="white"/>
<path d="M130.366 188.302C130.13 188.302 129.891 188.288 129.655 188.26H129.555V187.282C129.627 187.286 129.698 187.292 129.769 187.303C131.881 187.546 134.327 186.454 137.04 184.039C141.355 180.197 143.762 177.054 145.089 173.521C145.289 172.987 145.47 172.497 145.638 172.038C146.508 169.661 147.087 168.091 148.514 165.99C150.227 163.487 150.762 162.629 150.911 161.244L151.889 161.349C151.705 163.043 150.959 164.139 149.329 166.54C147.966 168.539 147.438 169.983 146.56 172.372C146.391 172.833 146.211 173.33 146.008 173.866C144.624 177.555 142.137 180.815 137.693 184.767C135.05 187.111 132.588 188.302 130.366 188.302Z" fill="white"/>
<path d="M228.885 311.302H145.655L145.901 310.649C145.901 310.626 146.666 308.401 145.878 303.976C144.412 295.656 141.348 288.421 135.676 279.796C131.864 273.995 122.924 264.488 113.829 255.081C104.292 245.222 92.464 227.137 90.4709 208.613C88.7368 192.479 89.3759 184.433 96.9408 162.227C101.533 148.747 110.464 138.704 117.15 132.652C124.389 126.095 130.636 122.671 130.698 122.638L131.164 123.498C131.104 123.529 124.938 126.917 117.786 133.394C111.183 139.366 102.38 149.27 97.8683 162.542C90.3638 184.573 89.7265 192.543 91.4433 208.512C93.4001 226.787 105.109 244.658 114.532 254.401C123.66 263.844 132.627 273.391 136.493 279.258C142.242 288.012 145.337 295.354 146.842 303.812C147.439 307.166 147.194 309.327 146.992 310.333H228.331C228.039 307.89 227.393 297.98 233.614 284.036C238.341 273.441 245.05 265.04 251.537 256.925C258.383 248.359 265.456 239.5 270.123 228.105C275.727 214.385 279.14 192.281 274.817 176.569C269.391 156.862 261.123 146.056 253.024 137.313C244.309 127.921 227.737 118.854 227.573 118.752L228.039 117.895C228.205 117.984 244.913 127.127 253.742 136.637C261.938 145.47 270.277 156.387 275.752 176.298C280.133 192.21 276.688 214.579 271.019 228.452C266.314 239.97 259.193 248.881 252.307 257.501C245.858 265.576 239.188 273.924 234.512 284.407C227.593 299.919 229.362 310.602 229.377 310.709L229.479 311.28L228.885 311.302Z" fill="white"/>
<path d="M176.283 311.302C175.818 311.302 175.608 311.302 174.062 305.487C173.186 302.194 171.981 297.357 170.485 291.105C167.96 280.582 164.566 265.907 160.395 247.492C153.291 216.132 146.301 184.381 146.234 184.058L145.484 180.664L147.141 183.722C148.602 186.047 150.662 187.936 153.106 189.192C155.55 190.448 158.286 191.024 161.031 190.862C170.604 190.434 179.28 185.071 182.584 180.239C188.586 171.466 187.081 165.983 187.066 165.93L188.004 165.65C188.074 165.895 189.686 171.591 183.394 180.793C179.953 185.82 170.963 191.4 161.074 191.84C160.79 191.856 160.509 191.861 160.233 191.861C157.849 191.883 155.49 191.381 153.32 190.389C151.153 189.399 149.231 187.945 147.688 186.128C155.587 221.975 174.786 307.909 176.601 310.469C176.561 310.424 176.511 310.388 176.457 310.365C176.402 310.341 176.342 310.329 176.283 310.331V311.302Z" fill="white"/>
<path d="M198.531 310.898L197.553 310.745C197.709 309.768 213.108 213.881 215.573 194.729C216.514 187.422 217.006 182.085 217.35 178.019C214.666 180.632 211.716 182.959 208.546 184.96C198.88 190.995 189.776 189.356 183.848 186.915C178.275 184.622 176.199 180.02 175.881 177.907C175.844 177.662 175.798 177.351 176.045 177.149L176.667 177.903C176.76 177.829 176.819 177.72 176.832 177.601C176.819 178.3 178.119 183.503 184.223 186.011C189.947 188.362 198.724 189.942 208.039 184.129C211.471 181.947 214.638 179.377 217.479 176.468C217.495 176.287 217.509 176.111 217.524 175.938C217.972 170.501 218.243 167.222 219.334 163.482C220.46 159.628 222.782 158.755 224.428 159.183C226.074 159.611 227.459 161.426 226.935 163.725C226.065 167.551 222.806 172.438 218.424 176.932C218.073 181.14 217.579 186.798 216.547 194.835C214.089 214.01 198.688 309.922 198.531 310.898ZM223.669 160.075C222.507 160.075 221.087 161.015 220.282 163.768C219.265 167.255 218.977 170.377 218.571 175.357C222.4 171.239 225.234 166.884 225.999 163.523C226.391 161.798 225.391 160.451 224.2 160.14C224.027 160.094 223.849 160.068 223.669 160.065V160.075Z" fill="white"/>
<path d="M229.596 327.64H145.863V310.814H146.841V326.662H228.606L228.395 310.819L229.373 310.807L229.596 327.64Z" fill="white"/>
<path d="M229.591 349.935H145.863V340.652H229.591V349.935ZM146.841 348.957H228.613V341.63H146.841V348.957Z" fill="white"/>
<path d="M229.591 372.226H145.863V362.945H229.591V372.226ZM146.841 371.25H228.613V363.922H146.841V371.25Z" fill="white"/>
<path d="M46.5 366L46 350.5L108.5 348L109 360L110.5 363V367L109 370.5V377L46.5 379V366Z" fill="#91C61F"/>
<path d="M319 362.5L319.5 369L320 372L318.5 374.5L312 371L302.5 368.5L294.5 369.5L275.5 373.5H265.5L262.5 370.5L264 364.5V359L263 357.5V353.5L265 350V345L264 341.5V337.5L266 335L320.5 337.5L321.5 340.5L319 352L320.5 355V359L319 362.5Z" fill="#91C61F"/>
<path d="M163.388 35.618C159.983 35.618 157.215 32.989 157.215 29.7563C157.215 26.5235 159.983 23.8945 163.388 23.8945C166.792 23.8945 169.562 26.5218 169.562 29.7563C169.562 32.9907 166.792 35.618 163.388 35.618ZM163.388 24.8709C160.524 24.8709 158.194 27.0686 158.194 29.7563C158.194 32.4439 160.524 34.6416 163.388 34.6416C166.251 34.6416 168.585 32.4439 168.585 29.7563C168.585 27.0686 166.253 24.8916 163.388 24.8916V24.8726V24.8709Z" fill="white"/>
<path d="M178.683 35.618C175.278 35.618 172.51 32.989 172.51 29.7563C172.51 26.5235 175.278 23.8945 178.683 23.8945C182.087 23.8945 184.857 26.5218 184.857 29.7563C184.857 32.9907 182.087 35.618 178.683 35.618ZM178.683 24.8709C175.819 24.8709 173.489 27.0686 173.489 29.7563C173.489 32.4439 175.819 34.6416 178.683 34.6416C181.546 34.6416 183.878 32.4439 183.878 29.7563C183.878 27.0686 181.548 24.8916 178.683 24.8916V24.8726V24.8709Z" fill="white"/>
<path d="M164.413 35.6806C163.582 35.6806 162.983 35.6219 162.914 35.615L163.018 34.6386C164.17 34.7577 167.439 34.8198 168.747 33.6864C170.32 32.3236 170.596 30.4778 170.481 29.843C170.432 29.6498 170.341 29.4721 170.211 29.3203C169.856 28.8856 169.667 28.337 169.686 27.7746C169.686 26.7827 169.586 26.5533 169.503 26.3756C169.123 25.8201 168.569 25.4079 167.928 25.2026C167.096 24.9576 164.363 24.8834 163.379 24.8748V23.8984C163.753 23.8984 167.083 23.9329 168.201 24.2642C169.108 24.5436 169.881 25.1439 170.379 25.9513C170.533 26.2738 170.671 26.6568 170.657 27.785C170.643 28.1421 170.766 28.4923 170.999 28.7614C171.217 29.027 171.365 29.341 171.434 29.6774C171.615 30.6693 171.217 32.8411 169.381 34.4333C168.172 35.4856 165.919 35.6806 164.413 35.6806Z" fill="white"/>
<path d="M169.408 37.1031L168.738 36.3924C169.047 36.0991 169.914 35.2021 170.205 34.5655C170.892 33.0147 170.305 32.0677 170.279 32.0263L171.094 31.4863C171.132 31.5433 172.015 32.8905 171.094 34.9623C170.673 35.9025 169.459 37.0462 169.408 37.1048V37.1031Z" fill="white"/>
<path d="M146.417 341.526C146.325 341.46 144.184 339.787 144.184 333.659C144.184 328.413 146.334 326.819 146.425 326.754L146.994 327.547L146.71 327.151L146.999 327.546C146.978 327.546 145.161 328.974 145.161 333.652C145.161 339.211 146.989 340.735 147.008 340.735L146.417 341.526Z" fill="white"/>
<path d="M229.396 341.527L228.809 340.745C228.821 340.745 230.65 339.219 230.65 333.662C230.65 328.979 228.831 327.557 228.814 327.557L229.385 326.766C229.479 326.829 231.629 328.423 231.629 333.669C231.629 339.788 229.486 341.461 229.396 341.527Z" fill="white"/>
<path d="M229.396 363.82L228.809 363.038C228.821 363.038 230.65 361.512 230.65 355.955C230.65 351.274 228.831 349.85 228.814 349.85L229.385 349.059C229.479 349.124 231.629 350.72 231.629 355.962C231.629 362.081 229.486 363.753 229.396 363.82Z" fill="white"/>
<path d="M229.36 383.647L228.846 382.816C228.846 382.816 230.651 381.594 230.651 377.087C230.651 373.257 228.873 372.17 228.856 372.16L229.345 371.316C229.438 371.372 231.625 372.705 231.625 377.087C231.63 382.193 229.462 383.59 229.36 383.647Z" fill="white"/>
<path d="M146.403 363.732C146.312 363.665 144.201 362.023 144.201 355.959C144.201 350.775 146.327 349.2 146.417 349.135L146.987 349.93L146.704 349.532L146.992 349.928C146.973 349.928 145.18 351.338 145.18 355.959C145.18 361.445 146.982 362.939 147.003 362.954L146.403 363.732Z" fill="white"/>
<path d="M146.43 383.641C146.34 383.582 144.195 382.131 144.195 376.834C144.195 372.29 146.347 370.908 146.439 370.85L146.959 371.678C146.94 371.69 145.175 372.882 145.175 376.834C145.175 381.533 146.948 382.813 146.969 382.825L146.43 383.641Z" fill="white"/>
<mask id="path-76-inside-1_2518_21235" fill="white">
<path d="M45.8746 362.682L45.334 350.739L46.3116 350.694L46.8072 361.676L108.367 359.809L108.137 348.624L109.114 348.604L109.367 360.758L45.8746 362.682Z"/>
</mask>
<path d="M45.8746 362.682L44.8756 362.727L44.9202 363.711L45.9049 363.681L45.8746 362.682ZM45.334 350.739L45.2882 349.74L44.2898 349.786L44.335 350.784L45.334 350.739ZM46.3116 350.694L47.3105 350.649L47.2654 349.649L46.2657 349.695L46.3116 350.694ZM46.8072 361.676L45.8083 361.721L45.8527 362.705L46.8376 362.676L46.8072 361.676ZM108.367 359.809L108.397 360.809L109.387 360.779L109.366 359.789L108.367 359.809ZM108.137 348.624L108.116 347.624L107.117 347.646L107.137 348.645L108.137 348.624ZM109.114 348.604L110.114 348.583L110.093 347.583L109.093 347.604L109.114 348.604ZM109.367 360.758L109.397 361.758L110.387 361.728L110.366 360.738L109.367 360.758ZM45.8746 362.682L46.8736 362.636L46.333 350.694L45.334 350.739L44.335 350.784L44.8756 362.727L45.8746 362.682ZM45.334 350.739L45.3798 351.738L46.3574 351.693L46.3116 350.694L46.2657 349.695L45.2882 349.74L45.334 350.739ZM46.3116 350.694L45.3126 350.739L45.8083 361.721L46.8072 361.676L47.8062 361.631L47.3105 350.649L46.3116 350.694ZM46.8072 361.676L46.8376 362.676L108.397 360.809L108.367 359.809L108.336 358.81L46.7769 360.676L46.8072 361.676ZM108.367 359.809L109.366 359.789L109.137 348.604L108.137 348.624L107.137 348.645L107.367 359.83L108.367 359.809ZM108.137 348.624L108.158 349.624L109.136 349.603L109.114 348.604L109.093 347.604L108.116 347.624L108.137 348.624ZM109.114 348.604L108.115 348.624L108.367 360.779L109.367 360.758L110.366 360.738L110.114 348.583L109.114 348.604ZM109.367 360.758L109.336 359.759L45.8443 361.682L45.8746 362.682L45.9049 363.681L109.397 361.758L109.367 360.758Z" fill="white" mask="url(#path-76-inside-1_2518_21235)"/>
<path d="M46.3815 379.531L46.1621 372.277L109.664 370.352L109.884 377.605L46.3815 379.531ZM47.169 373.222L47.3314 378.525L108.877 376.658L108.716 371.359L47.169 373.222Z" fill="white"/>
<path d="M46.652 373.14C46.4706 373.013 44.8713 371.762 44.7331 367.151C44.6105 363.128 46.2461 361.836 46.3152 361.777L46.9093 362.554L46.6105 362.165L46.9145 362.55C46.9024 362.55 45.6071 363.651 45.7107 367.115C45.8351 371.238 47.2064 372.326 47.222 372.338L46.652 373.14Z" fill="white"/>
<path d="M109.493 371.225L108.883 370.461C108.883 370.461 110.192 369.283 110.066 365.162C109.962 361.698 108.6 360.689 108.6 360.678L109.151 359.871C109.223 359.919 110.933 361.11 111.054 365.133C111.185 369.761 109.665 371.094 109.493 371.225Z" fill="white"/>
<path d="M45.4398 351.218L45.3465 350.828C45.3102 350.67 41.5658 334.735 37.7418 324.911C34.0043 315.313 25.8814 304.019 25.4773 303.462C9.7498 286.084 0 270.489 0 246.501C0 203.514 32.0353 171.105 74.5113 171.105C81.1366 171.102 87.7361 171.946 94.1473 173.615L93.9021 174.561C87.572 172.912 81.0555 172.078 74.513 172.082C32.5949 172.082 0.979298 204.078 0.979298 246.501C0.979298 270.191 10.6393 285.616 26.2234 302.827L26.258 302.867C26.3409 302.984 34.7953 314.644 38.6555 324.558C42.1703 333.583 45.6056 347.694 46.2101 350.202L108.17 348.141C108.364 345.555 109.528 332.182 113.574 321.106C116.11 314.161 121.86 303.032 121.918 302.931L121.942 302.888C124.355 299.191 126.24 296.517 127.751 294.367C131.259 289.384 133.022 286.881 135.889 279.746L136.796 280.11C133.887 287.35 131.993 290.041 128.552 294.928C127.046 297.069 125.172 299.727 122.773 303.402C122.488 303.955 116.956 314.701 114.493 321.44C110.065 333.562 109.113 348.496 109.113 348.645L109.087 349.09L45.4398 351.218Z" fill="white"/>
<path d="M320.715 338.071L264.898 335.829L265.227 325.107L266.204 325.137L265.907 334.89L319.791 337.057L320.319 327.481L321.297 327.536L320.715 338.071Z" fill="white"/>
<path d="M320.125 352.85L264.297 350.606L264.558 344.123L320.386 346.366L320.125 352.85ZM265.314 349.676L319.188 351.839L319.369 347.309L265.497 345.144L265.314 349.676Z" fill="white"/>
<path d="M319.532 367.625L263.703 365.383L263.964 358.898L319.793 361.143L319.532 367.625ZM264.72 364.45L318.594 366.615L318.775 362.085L264.902 359.92L264.72 364.45Z" fill="white"/>
<path d="M319.92 347.227L319.367 346.421C319.367 346.421 320.561 345.481 320.704 341.902C320.827 338.888 319.726 337.948 319.726 337.937L320.326 337.168C320.386 337.215 321.835 338.389 321.692 341.941C321.519 346.016 320.084 347.115 319.92 347.227Z" fill="white"/>
<path d="M264.719 345.009C264.566 344.885 263.222 343.674 263.389 339.599C263.531 336.041 265.066 334.995 265.132 334.959L265.668 335.777L265.402 335.368L265.674 335.773C265.674 335.773 264.486 336.646 264.365 339.646C264.22 343.224 265.343 344.255 265.343 344.267L264.719 345.009Z" fill="white"/>
<path d="M264.121 359.787C263.971 359.662 262.627 358.453 262.791 354.38C262.936 350.818 264.472 349.773 264.537 349.738L265.073 350.558L264.805 350.149L265.081 350.553C265.068 350.553 263.89 351.427 263.77 354.429C263.625 358.005 264.748 359.038 264.748 359.047L264.121 359.787Z" fill="white"/>
<path d="M263.632 372.936C263.473 372.831 262.092 371.803 262.228 368.384C262.351 365.387 263.914 364.518 263.981 364.477L264.449 365.334C264.403 365.36 263.304 366.019 263.206 368.415C263.092 371.304 264.168 372.112 264.185 372.119L263.632 372.936Z" fill="white"/>
<path d="M319.334 361.946L318.783 361.142C318.783 361.142 319.959 360.212 320.101 356.685C320.22 353.724 319.122 352.777 319.122 352.777L319.728 352.01C319.79 352.058 321.224 353.209 321.08 356.73C320.92 360.749 319.497 361.836 319.334 361.946Z" fill="white"/>
<path d="M318.778 375.149L318.289 374.305C318.289 374.305 319.432 373.524 319.553 370.521C319.655 368.009 318.621 367.228 318.574 367.196L319.13 366.393C319.191 366.434 320.654 367.457 320.527 370.56C320.379 374.102 318.942 375.051 318.778 375.149Z" fill="white"/>
<path d="M321.185 328.012L265.248 325.59L265.226 325.145C265.226 325.014 264.524 311.91 260.745 301.244C258.647 295.32 253.899 285.871 253.636 285.351C251.495 282 250.115 279.961 249.106 278.47C246.88 275.186 246.351 274.404 243.303 267.999L244.185 267.58C247.203 273.918 247.724 274.687 249.918 277.923C250.93 279.421 252.319 281.472 254.476 284.846L254.5 284.889C254.548 284.987 259.498 294.798 261.668 300.918C265.091 310.606 266.018 322.25 266.174 324.652L320.427 327.005C321.009 324.671 324.129 312.428 327.275 304.593C330.75 295.919 338.279 285.752 338.35 285.652L338.384 285.61C352.198 270.652 360.803 257.207 361.008 236.441C361.376 199.244 333.935 170.922 297.185 170.559C291.608 170.502 281.269 170.884 274.663 174.037L274.241 173.156C281.026 169.918 291.537 169.526 297.193 169.583C334.505 169.95 362.361 198.697 361.996 236.448C361.789 257.521 353.093 271.132 339.131 286.252C338.751 286.768 331.55 296.587 328.193 304.957C324.752 313.539 321.331 327.486 321.296 327.624L321.185 328.012Z" fill="white"/>
<path d="M69.1006 350C68.9659 349.184 58.2057 283.592 52.1537 253.8C47.5077 252.356 43.3694 249.577 40.998 245.116C39.3209 241.96 39.1534 238.958 40.5472 236.881C40.9721 236.217 41.5732 235.684 42.2813 235.339C42.9912 234.994 43.7822 234.851 44.5663 234.926C46.708 235.137 48.5941 236.833 49.7409 239.569C50.4421 241.256 51.5924 246.162 52.9983 253.015C57.2281 254.171 61.6652 254.351 65.9727 253.538C70.8018 252.622 75.4531 250.084 78.8487 246.836C78.2372 245.737 77.7968 244.552 77.5429 243.322C76.1543 236.903 78.0317 232.998 80.0473 231.599C81.1803 230.819 82.4515 230.738 83.4481 231.385C85.0578 232.427 85.6174 234.971 84.9835 238.364C84.3911 241.539 82.562 244.485 80.0922 246.981C81.3962 248.898 83.3393 250.119 85.9024 250.623C88.4655 251.125 91.4016 250.812 94.0252 250.066C96.6056 242.717 99.2757 241.444 100.428 241.273C100.853 241.192 101.293 241.245 101.689 241.421C102.084 241.599 102.417 241.894 102.64 242.265C103.341 243.377 103.183 245.044 102.245 246.417C101.141 248.016 98.2481 249.8 94.7903 250.878C94.3741 252.099 93.9682 253.462 93.5675 254.984C88.8092 273.547 85.5863 348.659 85.5535 349.415L84.5759 349.373C84.607 348.618 87.8385 273.414 92.6193 254.742C92.9544 253.441 93.2946 252.267 93.6366 251.204C91.0648 251.863 88.2565 252.108 85.702 251.601C83.6139 251.192 81.1285 250.155 79.3754 247.694C75.6292 251.175 70.6378 253.674 66.1506 254.532C61.8586 255.337 57.4423 255.196 53.2125 254.118C59.2092 283.701 69.5186 346.548 70.0609 349.86L69.0971 350H69.1006ZM44.157 235.892C43.6008 235.896 43.0551 236.037 42.568 236.305C42.0809 236.574 41.6699 236.959 41.3694 237.426C40.1828 239.194 40.3659 241.821 41.8737 244.661C44.0257 248.708 47.7305 251.294 51.9413 252.72C50.601 246.203 49.5129 241.571 48.8479 239.977C47.8445 237.573 46.2555 236.094 44.4834 235.922C44.3729 235.905 44.2606 235.896 44.1484 235.892H44.1587H44.157ZM100.82 242.242C100.737 242.242 100.656 242.249 100.575 242.261C99.1203 242.491 97.0995 244.635 95.1945 249.727C98.0978 248.727 100.49 247.24 101.428 245.879C102.26 244.657 102.215 243.465 101.803 242.812C101.704 242.636 101.559 242.489 101.385 242.387C101.21 242.287 101.012 242.234 100.809 242.235L100.82 242.242ZM81.9904 231.963C81.4964 231.978 81.018 232.142 80.619 232.435C78.8452 233.657 77.2303 237.198 78.5153 243.143C78.7312 244.19 79.0905 245.201 79.581 246.15C81.904 243.728 83.5258 240.968 84.037 238.22C84.588 235.289 84.1735 233.041 82.9334 232.239C82.6484 232.051 82.3151 231.952 81.9748 231.954L81.9904 231.963Z" fill="white"/>
<path d="M299.018 326.7L298.041 326.581C298.122 325.924 306.189 260.879 311.678 244.91C312.046 243.839 312.412 242.866 312.775 241.979C310.505 242.36 308.079 242.369 305.901 241.753C304.113 241.25 302.022 240.177 300.655 237.92C297.139 240.679 292.624 242.498 288.657 242.923C285.669 243.242 281.287 242.373 277.358 240.803C280.51 266.627 285.161 322.965 285.403 325.903L284.425 325.982C284.367 325.249 279.494 266.265 276.313 240.368C273.247 239.017 270.577 237.249 269.245 235.319C268.268 233.89 268.095 232.452 268.757 231.167C268.795 231.094 268.886 230.86 268.983 230.613C270.045 227.927 271.247 225.422 272.834 225.422H272.878C273.895 225.455 274.731 226.518 275.434 228.67C275.902 230.118 276.518 234.106 277.216 239.692C281.009 241.301 285.408 242.3 288.55 241.962C292.814 241.453 296.849 239.754 300.191 237.061C299.742 236.066 299.446 235.01 299.315 233.927C298.55 228.198 300.474 224.891 302.355 223.816C303.419 223.2 304.555 223.223 305.407 223.871C306.756 224.91 307.072 227.194 306.274 230.133C305.542 232.857 303.744 235.3 301.414 237.304C302.409 239.035 303.997 240.211 306.165 240.822C308.331 241.432 310.908 241.374 313.234 240.913C316.012 234.675 318.452 233.749 319.48 233.671C319.868 233.633 320.26 233.715 320.602 233.903C320.944 234.091 321.222 234.377 321.399 234.725C321.944 235.769 321.685 237.237 320.754 238.389C319.678 239.711 317.029 241.077 313.93 241.772C313.488 242.799 313.043 243.951 312.6 245.241C307.155 261.091 299.099 326.041 299.018 326.7ZM319.663 234.641H319.563C318.305 234.736 316.433 236.426 314.45 240.629C316.986 239.959 319.11 238.857 320.005 237.76C320.799 236.782 320.846 235.757 320.54 235.172C320.462 235.008 320.336 234.87 320.181 234.777C320.026 234.682 319.846 234.634 319.663 234.641ZM272.841 226.39C272.085 226.39 271.097 227.927 269.907 230.96C269.783 231.277 269.698 231.487 269.639 231.605C269.15 232.581 269.285 233.633 270.066 234.765C271.156 236.35 273.453 237.941 276.178 239.216C275.524 234.008 274.955 230.309 274.508 228.957C273.76 226.656 273.106 226.39 272.855 226.383L272.841 226.39ZM303.92 224.335C303.543 224.346 303.175 224.454 302.854 224.651C301.108 225.66 299.638 228.874 300.293 233.789C300.405 234.682 300.635 235.557 300.975 236.392C303.13 234.461 304.709 232.198 305.339 229.868C306.02 227.366 305.83 225.41 304.82 224.636C304.561 224.442 304.244 224.339 303.92 224.344V224.335Z" fill="white"/>
<path d="M77.5853 418.999L77.252 418.081C79.4973 417.271 132.326 398.25 139.801 397.972C141.602 397.907 143.347 397.943 145.034 397.972C150.509 398.083 155.679 398.188 162.701 395.042C171.862 390.955 185.445 386.449 193.514 387.191C202.039 387.976 221.841 387.551 227.736 383.972C229.359 382.996 231.059 381.515 232.871 379.958C237.952 375.561 244.285 370.078 254.424 370.332C257.115 370.399 258.764 370.865 260.503 371.358C262.949 372.048 265.718 372.823 272.3 372.894C277.775 372.951 282.431 371.709 286.941 370.513C291.77 369.233 296.767 367.912 302.655 368.219C313.969 368.812 323.137 377.845 323.52 378.233L322.831 378.924C322.738 378.833 313.539 369.773 302.603 369.199C296.863 368.898 292.169 370.144 287.197 371.462C282.625 372.683 277.904 373.925 272.298 373.875C265.583 373.811 262.743 373.009 260.241 372.3C258.491 371.812 256.98 371.379 254.405 371.324C244.639 371.079 238.47 376.416 233.516 380.71C231.684 382.295 229.955 383.794 228.261 384.822C221.658 388.826 200.681 388.845 193.441 388.178C185.54 387.446 172.166 391.911 163.118 395.947C155.895 399.171 150.373 399.059 145.022 398.949C143.349 398.918 141.618 398.882 139.844 398.949C132.511 399.221 78.1328 418.801 77.5853 418.999Z" fill="white"/>
<path d="M145.872 370.005C145.872 370.005 145.559 369.146 142.163 368.05C140.906 367.641 139.112 367.591 137.027 367.533C132.64 367.408 127.184 367.257 122.861 363.639C116.797 358.564 108.677 356.936 108.6 356.918L108.786 355.961C109.128 356.026 117.227 357.648 123.489 362.89C127.552 366.291 132.821 366.437 137.055 366.554C139.207 366.615 141.067 366.667 142.459 367.12C146.407 368.405 146.834 369.518 146.834 369.936H145.854C145.858 369.96 145.863 369.982 145.872 370.005Z" fill="white"/>
<path d="M229.331 366L228.873 365.135C228.916 365.113 233.274 362.826 240.492 359.833C248.01 356.719 262.591 357.026 263.755 357.39L263.47 358.327C262.382 357.995 248.022 357.781 240.865 360.749C233.707 363.716 229.374 365.977 229.331 366Z" fill="white"/>
</g>
<defs>
<clipPath id="clip0_2518_21235">
<rect width="362" height="419" fill="white"/>
</clipPath>
</defs>
</svg>
