<svg width="412" height="454" viewBox="0 0 412 454" fill="none" xmlns="http://www.w3.org/2000/svg">
<g clip-path="url(#clip0_2518_21440)">
<path d="M98.7107 342.292C97.8994 317.989 97.6254 281.704 98.1839 252.541C98.2998 246.723 98.8688 239.685 101.261 238.527L141.976 239.537C143.904 239.59 145.559 240.884 146.075 242.736C146.802 245.313 147.424 249.101 147.508 252.657C148.193 283.156 147.15 313.687 144.41 344.06" fill="white"/>
<path d="M111.388 245.998C111.051 245.64 110.524 245.577 110.039 245.535C109.249 245.472 108.069 245.43 107.026 245.43C106.257 245.43 105.624 246.029 105.582 246.797C105.54 247.702 105.487 248.733 105.466 249.375C105.445 250.627 105.171 251.7 105.972 252.31C106.878 252.994 108.88 252.752 110.018 252.773C110.461 252.773 110.946 252.773 111.262 252.457C111.567 252.163 111.609 251.689 111.631 251.269C111.683 250.006 111.725 248.744 111.736 247.471C111.736 246.955 111.736 246.377 111.367 245.998H111.388Z" fill="#FFE6DE"/>
<path d="M120.966 245.998C120.629 245.64 120.102 245.577 119.618 245.535C118.827 245.472 117.647 245.43 116.604 245.43C115.835 245.43 115.202 246.029 115.16 246.797C115.118 247.702 115.066 248.733 115.044 249.375C115.023 250.627 114.749 251.7 115.55 252.31C116.456 252.994 118.458 252.752 119.596 252.773C120.039 252.773 120.524 252.773 120.84 252.457C121.145 252.163 121.188 251.689 121.209 251.269C121.261 250.006 121.303 248.744 121.314 247.471C121.314 246.955 121.314 246.377 120.945 245.998H120.966Z" fill="#FFE6DE"/>
<path d="M130.542 245.998C130.205 245.64 129.678 245.577 129.194 245.535C128.403 245.472 127.223 245.43 126.18 245.43C125.411 245.43 124.779 246.029 124.737 246.797C124.694 247.702 124.642 248.733 124.621 249.375C124.6 250.627 124.326 251.7 125.126 252.31C126.033 252.994 128.035 252.752 129.173 252.773C129.615 252.773 130.1 252.773 130.416 252.457C130.722 252.163 130.764 251.689 130.785 251.269C130.837 250.006 130.88 248.744 130.89 247.471C130.89 246.955 130.89 246.377 130.521 245.998H130.542Z" fill="#FFE6DE"/>
<path d="M140.121 245.998C139.783 245.64 139.257 245.577 138.772 245.535C137.982 245.472 136.801 245.43 135.758 245.43C134.989 245.43 134.357 246.029 134.315 246.797C134.273 247.702 134.22 248.733 134.199 249.375C134.178 250.627 133.904 251.7 134.705 252.31C135.611 252.994 137.613 252.752 138.751 252.773C139.193 252.773 139.678 252.773 139.994 252.457C140.3 252.163 140.342 251.689 140.363 251.269C140.416 250.006 140.458 248.744 140.468 247.471C140.468 246.955 140.468 246.377 140.1 245.998H140.121Z" fill="#FFE6DE"/>
<path d="M111.388 256.865C111.051 256.507 110.524 256.444 110.039 256.402C109.249 256.339 108.069 256.297 107.026 256.297C106.257 256.297 105.624 256.897 105.582 257.665C105.54 258.569 105.487 259.6 105.466 260.242C105.445 261.494 105.171 262.567 105.972 263.177C106.878 263.861 108.88 263.619 110.018 263.64C110.461 263.64 110.946 263.64 111.262 263.325C111.567 263.03 111.609 262.557 111.631 262.136C111.683 260.873 111.725 259.611 111.736 258.338C111.736 257.822 111.736 257.244 111.367 256.865H111.388Z" fill="#FFE6DE"/>
<path d="M120.966 256.865C120.629 256.507 120.102 256.444 119.618 256.402C118.827 256.339 117.647 256.297 116.604 256.297C115.835 256.297 115.202 256.897 115.16 257.665C115.118 258.569 115.066 259.6 115.044 260.242C115.023 261.494 114.749 262.567 115.55 263.177C116.456 263.861 118.458 263.619 119.596 263.64C120.039 263.64 120.524 263.64 120.84 263.325C121.145 263.03 121.188 262.557 121.209 262.136C121.261 260.873 121.303 259.611 121.314 258.338C121.314 257.822 121.314 257.244 120.945 256.865H120.966Z" fill="#FFE6DE"/>
<path d="M130.542 256.865C130.205 256.507 129.678 256.444 129.194 256.402C128.403 256.339 127.223 256.297 126.18 256.297C125.411 256.297 124.779 256.897 124.737 257.665C124.694 258.569 124.642 259.6 124.621 260.242C124.6 261.494 124.326 262.567 125.126 263.177C126.033 263.861 128.035 263.619 129.173 263.64C129.615 263.64 130.1 263.64 130.416 263.325C130.722 263.03 130.764 262.557 130.785 262.136C130.837 260.873 130.88 259.611 130.89 258.338C130.89 257.822 130.89 257.244 130.521 256.865H130.542Z" fill="#FFE6DE"/>
<path d="M140.121 256.865C139.783 256.507 139.257 256.444 138.772 256.402C137.982 256.339 136.801 256.297 135.758 256.297C134.989 256.297 134.357 256.897 134.315 257.665C134.273 258.569 134.22 259.6 134.199 260.242C134.178 261.494 133.904 262.567 134.705 263.177C135.611 263.861 137.613 263.619 138.751 263.64C139.193 263.64 139.678 263.64 139.994 263.325C140.3 263.03 140.342 262.557 140.363 262.136C140.416 260.873 140.458 259.611 140.468 258.338C140.468 257.822 140.468 257.244 140.1 256.865H140.121Z" fill="#FFE6DE"/>
<path d="M111.388 267.722C111.051 267.365 110.524 267.302 110.039 267.26C109.249 267.196 108.069 267.154 107.026 267.154C106.257 267.154 105.624 267.754 105.582 268.522C105.54 269.427 105.487 270.458 105.466 271.1C105.445 272.351 105.171 273.425 105.972 274.035C106.878 274.719 108.88 274.477 110.018 274.498C110.461 274.498 110.946 274.498 111.262 274.182C111.567 273.887 111.609 273.414 111.631 272.993C111.683 271.731 111.725 270.468 111.736 269.195C111.736 268.68 111.736 268.101 111.367 267.722H111.388Z" fill="#FFE6DE"/>
<path d="M120.966 267.722C120.629 267.365 120.102 267.302 119.618 267.26C118.827 267.196 117.647 267.154 116.604 267.154C115.835 267.154 115.202 267.754 115.16 268.522C115.118 269.427 115.066 270.458 115.044 271.1C115.023 272.351 114.749 273.425 115.55 274.035C116.456 274.719 118.458 274.477 119.596 274.498C120.039 274.498 120.524 274.498 120.84 274.182C121.145 273.887 121.188 273.414 121.209 272.993C121.261 271.731 121.303 270.468 121.314 269.195C121.314 268.68 121.314 268.101 120.945 267.722H120.966Z" fill="#FFE6DE"/>
<path d="M130.542 267.722C130.205 267.365 129.678 267.302 129.194 267.26C128.403 267.196 127.223 267.154 126.18 267.154C125.411 267.154 124.779 267.754 124.737 268.522C124.694 269.427 124.642 270.458 124.621 271.1C124.6 272.351 124.326 273.425 125.126 274.035C126.033 274.719 128.035 274.477 129.173 274.498C129.615 274.498 130.1 274.498 130.416 274.182C130.722 273.887 130.764 273.414 130.785 272.993C130.837 271.731 130.88 270.468 130.89 269.195C130.89 268.68 130.89 268.101 130.521 267.722H130.542Z" fill="#FFE6DE"/>
<path d="M140.121 267.722C139.783 267.365 139.257 267.302 138.772 267.26C137.982 267.196 136.801 267.154 135.758 267.154C134.989 267.154 134.357 267.754 134.315 268.522C134.273 269.427 134.22 270.458 134.199 271.1C134.178 272.351 133.904 273.425 134.705 274.035C135.611 274.719 137.613 274.477 138.751 274.498C139.193 274.498 139.678 274.498 139.994 274.182C140.3 273.887 140.342 273.414 140.363 272.993C140.416 271.731 140.458 270.468 140.468 269.195C140.468 268.68 140.468 268.101 140.1 267.722H140.121Z" fill="#FFE6DE"/>
<path d="M111.388 278.59C111.051 278.232 110.524 278.169 110.039 278.127C109.249 278.064 108.069 278.021 107.026 278.021C106.257 278.021 105.624 278.621 105.582 279.389C105.54 280.294 105.487 281.325 105.466 281.967C105.445 283.219 105.171 284.292 105.972 284.902C106.878 285.586 108.88 285.344 110.018 285.365C110.461 285.365 110.946 285.365 111.262 285.049C111.567 284.755 111.609 284.281 111.631 283.86C111.683 282.598 111.725 281.335 111.736 280.062C111.736 279.547 111.736 278.968 111.367 278.59H111.388Z" fill="#FFE6DE"/>
<path d="M120.966 278.59C120.629 278.232 120.102 278.169 119.618 278.127C118.827 278.064 117.647 278.021 116.604 278.021C115.835 278.021 115.202 278.621 115.16 279.389C115.118 280.294 115.066 281.325 115.044 281.967C115.023 283.219 114.749 284.292 115.55 284.902C116.456 285.586 118.458 285.344 119.596 285.365C120.039 285.365 120.524 285.365 120.84 285.049C121.145 284.755 121.188 284.281 121.209 283.86C121.261 282.598 121.303 281.335 121.314 280.062C121.314 279.547 121.314 278.968 120.945 278.59H120.966Z" fill="#FFE6DE"/>
<path d="M130.542 278.59C130.205 278.232 129.678 278.169 129.194 278.127C128.403 278.064 127.223 278.021 126.18 278.021C125.411 278.021 124.779 278.621 124.737 279.389C124.694 280.294 124.642 281.325 124.621 281.967C124.6 283.219 124.326 284.292 125.126 284.902C126.033 285.586 128.035 285.344 129.173 285.365C129.615 285.365 130.1 285.365 130.416 285.049C130.722 284.755 130.764 284.281 130.785 283.86C130.837 282.598 130.88 281.335 130.89 280.062C130.89 279.547 130.89 278.968 130.521 278.59H130.542Z" fill="#FFE6DE"/>
<path d="M140.121 278.59C139.783 278.232 139.257 278.169 138.772 278.127C137.982 278.064 136.801 278.021 135.758 278.021C134.989 278.021 134.357 278.621 134.315 279.389C134.273 280.294 134.22 281.325 134.199 281.967C134.178 283.219 133.904 284.292 134.705 284.902C135.611 285.586 137.613 285.344 138.751 285.365C139.193 285.365 139.678 285.365 139.994 285.049C140.3 284.755 140.342 284.281 140.363 283.86C140.416 282.598 140.458 281.335 140.468 280.062C140.468 279.547 140.468 278.968 140.1 278.59H140.121Z" fill="#FFE6DE"/>
<path d="M111.388 289.457C111.051 289.099 110.524 289.036 110.039 288.994C109.249 288.931 108.069 288.889 107.026 288.889C106.257 288.889 105.624 289.488 105.582 290.256C105.54 291.161 105.487 292.192 105.466 292.834C105.445 294.086 105.171 295.159 105.972 295.769C106.878 296.453 108.88 296.211 110.018 296.232C110.461 296.232 110.946 296.232 111.262 295.916C111.567 295.622 111.609 295.148 111.631 294.728C111.683 293.465 111.725 292.203 111.736 290.93C111.736 290.414 111.736 289.836 111.367 289.457H111.388Z" fill="#FFE6DE"/>
<path d="M120.966 289.457C120.629 289.099 120.102 289.036 119.618 288.994C118.827 288.931 117.647 288.889 116.604 288.889C115.835 288.889 115.202 289.488 115.16 290.256C115.118 291.161 115.066 292.192 115.044 292.834C115.023 294.086 114.749 295.159 115.55 295.769C116.456 296.453 118.458 296.211 119.596 296.232C120.039 296.232 120.524 296.232 120.84 295.916C121.145 295.622 121.188 295.148 121.209 294.728C121.261 293.465 121.303 292.203 121.314 290.93C121.314 290.414 121.314 289.836 120.945 289.457H120.966Z" fill="#FFE6DE"/>
<path d="M130.542 289.457C130.205 289.099 129.678 289.036 129.194 288.994C128.403 288.931 127.223 288.889 126.18 288.889C125.411 288.889 124.779 289.488 124.737 290.256C124.694 291.161 124.642 292.192 124.621 292.834C124.6 294.086 124.326 295.159 125.126 295.769C126.033 296.453 128.035 296.211 129.173 296.232C129.615 296.232 130.1 296.232 130.416 295.916C130.722 295.622 130.764 295.148 130.785 294.728C130.837 293.465 130.88 292.203 130.89 290.93C130.89 290.414 130.89 289.836 130.521 289.457H130.542Z" fill="#FFE6DE"/>
<path d="M140.121 289.457C139.783 289.099 139.257 289.036 138.772 288.994C137.982 288.931 136.801 288.889 135.758 288.889C134.989 288.889 134.357 289.488 134.315 290.256C134.273 291.161 134.22 292.192 134.199 292.834C134.178 294.086 133.904 295.159 134.705 295.769C135.611 296.453 137.613 296.211 138.751 296.232C139.193 296.232 139.678 296.232 139.994 295.916C140.3 295.622 140.342 295.148 140.363 294.728C140.416 293.465 140.458 292.203 140.468 290.93C140.468 290.414 140.468 289.836 140.1 289.457H140.121Z" fill="#FFE6DE"/>
<path d="M111.388 300.314C111.051 299.957 110.524 299.893 110.039 299.851C109.249 299.788 108.069 299.746 107.026 299.746C106.257 299.746 105.624 300.346 105.582 301.114C105.54 302.019 105.487 303.05 105.466 303.691C105.445 304.943 105.171 306.016 105.972 306.627C106.878 307.31 108.88 307.068 110.018 307.089C110.461 307.089 110.946 307.089 111.262 306.774C111.567 306.479 111.609 306.006 111.631 305.585C111.683 304.323 111.725 303.06 111.736 301.787C111.736 301.272 111.736 300.693 111.367 300.314H111.388Z" fill="#FFE6DE"/>
<path d="M120.966 300.314C120.629 299.957 120.102 299.893 119.618 299.851C118.827 299.788 117.647 299.746 116.604 299.746C115.835 299.746 115.202 300.346 115.16 301.114C115.118 302.019 115.066 303.05 115.044 303.691C115.023 304.943 114.749 306.016 115.55 306.627C116.456 307.31 118.458 307.068 119.596 307.089C120.039 307.089 120.524 307.089 120.84 306.774C121.145 306.479 121.188 306.006 121.209 305.585C121.261 304.323 121.303 303.06 121.314 301.787C121.314 301.272 121.314 300.693 120.945 300.314H120.966Z" fill="#FFE6DE"/>
<path d="M130.542 300.314C130.205 299.957 129.678 299.893 129.194 299.851C128.403 299.788 127.223 299.746 126.18 299.746C125.411 299.746 124.779 300.346 124.737 301.114C124.694 302.019 124.642 303.05 124.621 303.691C124.6 304.943 124.326 306.016 125.126 306.627C126.033 307.31 128.035 307.068 129.173 307.089C129.615 307.089 130.1 307.089 130.416 306.774C130.722 306.479 130.764 306.006 130.785 305.585C130.837 304.323 130.88 303.06 130.89 301.787C130.89 301.272 130.89 300.693 130.521 300.314H130.542Z" fill="#FFE6DE"/>
<path d="M140.121 300.314C139.783 299.957 139.257 299.893 138.772 299.851C137.982 299.788 136.801 299.746 135.758 299.746C134.989 299.746 134.357 300.346 134.315 301.114C134.273 302.019 134.22 303.05 134.199 303.691C134.178 304.943 133.904 306.016 134.705 306.627C135.611 307.31 137.613 307.068 138.751 307.089C139.193 307.089 139.678 307.089 139.994 306.774C140.3 306.479 140.342 306.006 140.363 305.585C140.416 304.323 140.458 303.06 140.468 301.787C140.468 301.272 140.468 300.693 140.1 300.314H140.121Z" fill="#FFE6DE"/>
<path d="M111.388 311.183C111.051 310.826 110.524 310.763 110.039 310.72C109.249 310.657 108.069 310.615 107.026 310.615C106.257 310.615 105.624 311.215 105.582 311.983C105.54 312.888 105.487 313.919 105.466 314.56C105.445 315.812 105.171 316.886 105.972 317.496C106.878 318.18 108.88 317.938 110.018 317.959C110.461 317.959 110.946 317.959 111.262 317.643C111.567 317.348 111.609 316.875 111.631 316.454C111.683 315.192 111.725 313.929 111.736 312.656C111.736 312.141 111.736 311.562 111.367 311.183H111.388Z" fill="#FFE6DE"/>
<path d="M120.966 311.183C120.629 310.826 120.102 310.763 119.618 310.72C118.827 310.657 117.647 310.615 116.604 310.615C115.835 310.615 115.202 311.215 115.16 311.983C115.118 312.888 115.066 313.919 115.044 314.56C115.023 315.812 114.749 316.886 115.55 317.496C116.456 318.18 118.458 317.938 119.596 317.959C120.039 317.959 120.524 317.959 120.84 317.643C121.145 317.348 121.188 316.875 121.209 316.454C121.261 315.192 121.303 313.929 121.314 312.656C121.314 312.141 121.314 311.562 120.945 311.183H120.966Z" fill="#FFE6DE"/>
<path d="M130.542 311.183C130.205 310.826 129.678 310.763 129.194 310.72C128.403 310.657 127.223 310.615 126.18 310.615C125.411 310.615 124.779 311.215 124.737 311.983C124.694 312.888 124.642 313.919 124.621 314.56C124.6 315.812 124.326 316.886 125.126 317.496C126.033 318.18 128.035 317.938 129.173 317.959C129.615 317.959 130.1 317.959 130.416 317.643C130.722 317.348 130.764 316.875 130.785 316.454C130.837 315.192 130.88 313.929 130.89 312.656C130.89 312.141 130.89 311.562 130.521 311.183H130.542Z" fill="#FFE6DE"/>
<path d="M140.121 311.183C139.783 310.826 139.257 310.763 138.772 310.72C137.982 310.657 136.801 310.615 135.758 310.615C134.989 310.615 134.357 311.215 134.315 311.983C134.273 312.888 134.22 313.919 134.199 314.56C134.178 315.812 133.904 316.886 134.705 317.496C135.611 318.18 137.613 317.938 138.751 317.959C139.193 317.959 139.678 317.959 139.994 317.643C140.3 317.348 140.342 316.875 140.363 316.454C140.416 315.192 140.458 313.929 140.468 312.656C140.468 312.141 140.468 311.562 140.1 311.183H140.121Z" fill="#FFE6DE"/>
<path d="M111.388 322.041C111.051 321.683 110.524 321.62 110.039 321.578C109.249 321.515 108.069 321.473 107.026 321.473C106.257 321.473 105.624 322.072 105.582 322.84C105.54 323.745 105.487 324.776 105.466 325.418C105.445 326.67 105.171 327.743 105.972 328.353C106.878 329.037 108.88 328.795 110.018 328.816C110.461 328.816 110.946 328.816 111.262 328.5C111.567 328.206 111.609 327.732 111.631 327.312C111.683 326.049 111.725 324.787 111.736 323.514C111.736 322.998 111.736 322.42 111.367 322.041H111.388Z" fill="#FFE6DE"/>
<path d="M120.966 322.041C120.629 321.683 120.102 321.62 119.618 321.578C118.827 321.515 117.647 321.473 116.604 321.473C115.835 321.473 115.202 322.072 115.16 322.84C115.118 323.745 115.066 324.776 115.044 325.418C115.023 326.67 114.749 327.743 115.55 328.353C116.456 329.037 118.458 328.795 119.596 328.816C120.039 328.816 120.524 328.816 120.84 328.5C121.145 328.206 121.188 327.732 121.209 327.312C121.261 326.049 121.303 324.787 121.314 323.514C121.314 322.998 121.314 322.42 120.945 322.041H120.966Z" fill="#FFE6DE"/>
<path d="M130.542 322.041C130.205 321.683 129.678 321.62 129.194 321.578C128.403 321.515 127.223 321.473 126.18 321.473C125.411 321.473 124.779 322.072 124.737 322.84C124.694 323.745 124.642 324.776 124.621 325.418C124.6 326.67 124.326 327.743 125.126 328.353C126.033 329.037 128.035 328.795 129.173 328.816C129.615 328.816 130.1 328.816 130.416 328.5C130.722 328.206 130.764 327.732 130.785 327.312C130.837 326.049 130.88 324.787 130.89 323.514C130.89 322.998 130.89 322.42 130.521 322.041H130.542Z" fill="#FFE6DE"/>
<path d="M140.121 322.041C139.783 321.683 139.257 321.62 138.772 321.578C137.982 321.515 136.801 321.473 135.758 321.473C134.989 321.473 134.357 322.072 134.315 322.84C134.273 323.745 134.22 324.776 134.199 325.418C134.178 326.67 133.904 327.743 134.705 328.353C135.611 329.037 137.613 328.795 138.751 328.816C139.193 328.816 139.678 328.816 139.994 328.5C140.3 328.206 140.342 327.732 140.363 327.312C140.416 326.049 140.458 324.787 140.468 323.514C140.468 322.998 140.468 322.42 140.1 322.041H140.121Z" fill="#FFE6DE"/>
<path d="M0.537157 91.5227C81.2196 75.1421 163.251 64.7478 245.682 64.7688C268.158 64.7688 290.591 65.6315 312.983 67.4516C314.289 67.5568 314.279 65.5263 312.983 65.4211C231.141 59.1087 148.32 64.853 67.3739 77.7092C44.8667 81.2862 22.507 85.5575 0.305341 90.6916C-0.23205 90.8178 -0.000234392 91.6279 0.537157 91.5227Z" fill="white"/>
<path d="M86.3306 180.201C83.591 176.171 80.9883 172.047 78.2487 168.007C77.5111 166.913 75.7092 167.965 76.4679 169.049C79.2708 173.057 82.2106 176.96 85.0135 180.969C85.572 181.768 86.8785 181.021 86.3306 180.201Z" fill="white"/>
<path d="M90.7877 180.18C89.1544 175.677 88.1745 170.869 87.4263 166.145C87.2261 164.862 85.2452 165.398 85.4664 166.682C86.2883 171.521 87.7846 175.961 89.5443 180.517C89.8393 181.274 91.0616 180.958 90.7771 180.18H90.7877Z" fill="white"/>
<path d="M96.8888 178.191C97.7423 173.141 98.1743 168.06 98.2375 162.936C98.2481 161.821 96.4989 161.821 96.4989 162.936C96.4989 167.986 96.246 173.015 95.7929 178.044C95.7403 178.664 96.7834 178.812 96.8888 178.191Z" fill="white"/>
<path d="M310.506 270.91C307.767 266.88 305.164 262.756 302.424 258.716C301.687 257.622 299.885 258.674 300.644 259.758C303.447 263.766 306.386 267.669 309.189 271.678C309.748 272.477 311.065 271.73 310.506 270.91Z" fill="white"/>
<path d="M314.963 270.889C313.33 266.386 312.35 261.578 311.602 256.854C311.402 255.571 309.421 256.107 309.642 257.391C310.464 262.23 311.96 266.67 313.72 271.226C314.015 271.983 315.237 271.667 314.953 270.889H314.963Z" fill="white"/>
<path d="M321.074 268.9C321.928 263.85 322.36 258.769 322.423 253.645C322.434 252.53 320.684 252.53 320.684 253.645C320.684 258.695 320.432 263.724 319.978 268.753C319.926 269.373 320.969 269.521 321.074 268.9Z" fill="white"/>
<path d="M59.4935 39.418C55.7001 39.176 47.6814 42.5215 44.9734 46.2143C42.2653 49.907 41.4856 55.2094 43.8775 59.1125C45.8795 62.395 49.6624 64.1624 53.382 65.1303C57.6389 66.235 62.1172 66.498 66.4796 65.9404C68.5343 65.6774 70.6101 65.225 72.6543 65.5196C74.8776 65.8247 76.8797 66.9714 78.9871 67.7394C83.0755 69.2439 87.6591 69.3491 91.8107 68.034C94.1499 67.2976 96.3838 66.1087 98.8179 65.8247C101.421 65.5196 104.002 66.2771 106.605 66.5927C112.453 67.3186 118.691 65.6984 123.011 61.7006C127.331 57.6923 129.407 51.2221 127.595 45.6251C125.782 40.0282 119.829 35.883 113.991 36.7142C114.318 31.2014 109.713 26.3619 104.497 24.5418C99.271 22.7218 93.5704 23.2162 88.0595 23.7423C82.7593 19.4709 74.8249 18.7765 68.8715 22.0695C62.9075 25.3624 59.2827 32.4323 60.0835 39.1865" fill="white"/>
<path d="M58.3871 38.8183C68.9664 38.408 79.946 41.722 83.6972 52.6003C83.8131 52.9264 84.1292 53.1474 84.4875 53.0422C88.4073 51.9165 91.8424 53.0316 94.719 55.7775C95.2775 56.3036 95.9834 55.5356 95.5409 54.9569C93.7496 52.6739 91.168 51.3063 88.2281 51.1485C85.7414 51.0117 85.4885 51.8218 84.0238 49.5283C83.3073 48.4026 82.7805 47.2243 81.9375 46.1617C76.258 38.9866 66.9854 37.7136 58.3977 38.6079C58.2607 38.6184 58.2607 38.8288 58.3977 38.8183H58.3871Z" fill="#FFE6DE"/>
<path d="M98.1325 22.942C93.001 24.0361 89.587 28.2549 89.3551 33.4731C89.6502 33.3048 89.9452 33.1364 90.2403 32.9681C86.626 31.1796 82.3374 30.9376 78.9129 33.3153C78.386 33.6835 78.8391 34.4094 79.4081 34.1569C82.9381 32.6314 86.057 32.2106 89.6607 33.9676C90.0611 34.1675 90.5248 33.9255 90.5458 33.4626C90.746 28.6757 93.7175 24.762 98.2063 23.1208C98.3222 23.0787 98.2801 22.8999 98.1536 22.9314L98.1325 22.942Z" fill="#FFE6DE"/>
<path d="M82.7695 64.9834C90.0507 76.2614 92.0106 87.8446 87.1003 100.333C88.9021 99.7014 90.4721 99.6382 92.3688 99.9433C94.255 100.248 96.4361 100.301 97.7638 98.9228C98.6489 98.0075 98.8597 100.427 99.0704 99.1753C101.072 87.2239 99.4708 74.6939 94.5184 63.6367" fill="white"/>
<path d="M109.745 92.0622C106.342 90.9996 102.411 91.8202 99.7244 94.1558C98.4916 91.3678 96.2683 88.9691 93.4233 87.8539C90.5888 86.7388 87.1537 87.0333 84.7407 88.885C82.3172 90.7366 81.1475 94.1874 82.2329 97.0279C77.0381 96.6071 71.7169 99.5003 69.2617 104.087L117.785 97.7538C116.9 94.3031 113.149 93.1353 109.745 92.0727V92.0622Z" fill="white"/>
<path d="M197.898 129.461C192.229 123.664 188.236 116.931 184.685 109.714C184.274 108.872 183.083 109.609 183.441 110.44C186.655 117.857 191.86 124.159 197.698 129.661C197.835 129.787 198.025 129.587 197.898 129.461Z" fill="white"/>
<path d="M200.554 125.169C200.438 125.579 200.322 125.989 200.206 126.41H201.312C198.847 119.95 196.297 113.922 194.927 107.105C194.674 105.832 192.725 106.368 192.978 107.641C194.295 114.238 196.413 121.255 200.259 126.852C200.691 127.473 201.534 126.947 201.249 126.273C201.091 125.894 200.923 125.516 200.765 125.147C200.722 125.053 200.575 125.084 200.543 125.179L200.554 125.169Z" fill="white"/>
<path d="M208.224 126.683C208.118 119.592 207.802 112.607 208.118 105.505C208.16 104.527 206.696 104.558 206.611 105.505C205.948 112.512 206.158 119.897 208.013 126.715C208.044 126.831 208.224 126.809 208.224 126.683Z" fill="white"/>
<path d="M163.252 330.803C157.583 325.006 153.589 318.273 150.038 311.056C149.627 310.214 148.437 310.95 148.795 311.782C152.009 319.199 157.214 325.5 163.052 331.003C163.188 331.129 163.378 330.929 163.252 330.803Z" fill="white"/>
<path d="M165.919 326.51C165.803 326.921 165.687 327.331 165.571 327.752H166.678C164.212 321.292 161.662 315.264 160.292 308.446C160.039 307.173 158.09 307.71 158.343 308.983C159.66 315.579 161.778 322.597 165.624 328.194C166.056 328.814 166.899 328.288 166.614 327.615C166.456 327.236 166.288 326.857 166.13 326.489C166.088 326.395 165.94 326.426 165.909 326.521L165.919 326.51Z" fill="white"/>
<path d="M173.577 328.037C173.472 320.946 173.156 313.96 173.472 306.859C173.514 305.88 172.049 305.912 171.965 306.859C171.301 313.865 171.512 321.251 173.366 328.068C173.398 328.184 173.577 328.163 173.577 328.037Z" fill="white"/>
<path d="M31.8205 137.216C28.6804 133.523 26.0883 129.441 24.16 124.991C23.6753 123.865 21.9788 124.833 22.4951 125.969C24.5709 130.535 27.437 134.533 31.1566 137.889C31.6097 138.3 32.2209 137.679 31.8205 137.226V137.216Z" fill="white"/>
<path d="M35.5404 135.016C33.2539 130.587 32.2739 126.189 31.5785 121.297C31.4099 120.087 29.3657 120.371 29.4394 121.581C29.745 126.6 31.6733 131.481 34.3076 135.732C34.7923 136.51 35.9619 135.826 35.5404 135.016Z" fill="white"/>
<path d="M42.126 136.763C41.1461 132.303 41.7572 127.653 43.0322 123.329C43.4221 122.024 41.42 121.488 41.0091 122.771C39.4285 127.611 39.6814 132.229 40.851 137.111C41.0512 137.942 42.3157 137.584 42.126 136.763Z" fill="white"/>
<path d="M37.1447 249.081C34.0046 245.388 31.4125 241.306 29.4842 236.856C28.9995 235.731 27.303 236.698 27.8194 237.835C29.8952 242.401 32.7612 246.398 36.4808 249.754C36.9339 250.165 37.5451 249.544 37.1447 249.092V249.081Z" fill="white"/>
<path d="M40.8529 246.881C38.5664 242.452 37.5864 238.055 36.891 233.163C36.7224 231.953 34.6782 232.237 34.7519 233.447C35.0575 238.465 36.9858 243.346 39.6201 247.597C40.1048 248.375 41.2744 247.691 40.8529 246.881Z" fill="white"/>
<path d="M47.4502 248.629C46.4703 244.168 47.0814 239.518 48.3564 235.194C48.7463 233.889 46.7443 233.353 46.3333 234.636C44.7527 239.476 45.0056 244.094 46.1753 248.976C46.3755 249.807 47.6399 249.449 47.4502 248.629Z" fill="white"/>
<path d="M37.3965 83.6099C34.9098 80.5905 32.8339 77.266 31.285 73.6785C30.8003 72.5528 29.1038 73.5207 29.6201 74.6569C31.3166 78.3707 33.6664 81.6005 36.7327 84.2833C37.1963 84.6936 37.7864 84.0834 37.3965 83.6205V83.6099Z" fill="white"/>
<path d="M40.4629 81.8223C38.6505 78.2137 37.934 74.6788 37.3334 70.7231C37.1543 69.5132 35.1417 69.7973 35.1944 71.0071C35.4051 75.0891 37.0594 79.108 39.2195 82.5377C39.7148 83.3162 40.8633 82.6324 40.4524 81.8223H40.4629Z" fill="white"/>
<path d="M45.5846 82.1488C44.868 78.8558 45.6583 75.626 46.6067 72.4803C46.9965 71.1758 45.0156 70.6497 44.5835 71.9227C43.3296 75.5839 43.4034 78.7927 44.3096 82.4959C44.5098 83.3271 45.7742 82.9694 45.5846 82.1488Z" fill="white"/>
<path d="M147.572 67.4088C145.086 64.3894 143.01 61.0648 141.461 57.4773C140.976 56.3516 139.28 57.3195 139.796 58.4557C141.492 62.1695 143.842 65.3993 146.908 68.0821C147.372 68.4924 147.962 67.8822 147.572 67.4193V67.4088Z" fill="white"/>
<path d="M151.925 67.5144C149.775 63.3798 148.31 59.0979 147.51 54.5215C147.299 53.3221 145.307 53.5957 145.371 54.8055C145.624 59.4767 148.247 64.3477 150.692 68.2298C151.177 69.0083 152.346 68.3245 151.925 67.5144Z" fill="white"/>
<path d="M155.77 65.9476C155.054 62.6546 155.844 59.4248 156.792 56.2792C157.182 54.9746 155.201 54.4486 154.769 55.7216C153.515 59.3827 153.589 62.5915 154.495 66.2948C154.695 67.1259 155.96 66.7682 155.77 65.9476Z" fill="white"/>
<path d="M206.874 37.2678C209.92 34.564 210.31 29.3984 207.717 26.2633C205.125 23.1281 199.962 22.5495 196.727 25.0218C197.423 21.1923 195.473 17.0262 192.091 15.1009C188.708 13.1756 184.125 13.628 181.174 16.174C178.224 18.72 177.128 23.1807 178.551 26.8103C176.728 26.4 174.757 26.2738 173.019 26.9576C171.28 27.6415 169.815 29.2827 169.784 31.1553C169.752 32.9544 170.838 36.6997 172.397 37.594L206.874 37.2783V37.2678Z" fill="white"/>
<path d="M183.312 301.294C183.312 301.294 178.676 329.857 181.7 331.067C184.724 332.277 221.593 335.496 222.194 333.687C222.795 331.877 225.418 307.943 224.207 305.523C222.995 303.103 184.513 300.094 183.312 301.294Z" fill="#A8FF1D"/>
<path d="M182.764 301.977C185.43 305.817 188.612 309.246 192.068 312.392C194.966 315.022 198.317 318.504 202.437 318.862C206.662 319.23 211.067 316.558 214.544 314.454C218.432 312.097 222.004 309.236 225.165 305.974C225.755 305.364 224.828 304.438 224.238 305.049C221.351 308.015 218.148 310.646 214.649 312.855C212.942 313.928 211.162 314.906 209.339 315.769C207.347 316.716 205.155 317.663 202.901 317.579C200.719 317.494 198.823 316.316 197.147 315.012C195.472 313.707 193.881 312.287 192.321 310.835C189.213 307.942 186.336 304.807 183.902 301.314C183.417 300.619 182.279 301.282 182.764 301.977Z" fill="#323232"/>
<path d="M181.194 329.161C185.715 324.522 190.646 320.303 195.936 316.568C196.621 316.084 195.967 314.937 195.272 315.432C189.887 319.23 184.861 323.512 180.267 328.235C179.677 328.846 180.604 329.771 181.194 329.161Z" fill="#323232"/>
<path d="M208.58 317.536C213.247 322.481 217.42 327.878 221.045 333.633C221.498 334.348 222.636 333.685 222.183 332.97C218.505 327.12 214.259 321.639 209.517 316.61C208.938 315.99 208 316.926 208.59 317.536H208.58Z" fill="#323232"/>
<path d="M382.868 112.809C375.416 109.133 366.1 109.644 359.091 114.132C357.245 107.205 352.955 100.813 346.827 97.2064C340.699 93.5998 332.699 93.0636 326.485 96.5232C320.272 99.9827 316.366 107.602 317.862 114.625C306.067 111.797 292.828 116.649 285.555 126.466L399.355 128.913C398.535 120.567 390.313 116.493 382.86 112.818L382.868 112.809Z" fill="white"/>
<path d="M326.861 120.812C326.861 120.812 315.966 174.677 321.603 177.181C327.251 179.696 396.975 188.512 398.25 185.124C399.536 181.737 406.269 136.498 404.151 131.837C402.033 127.166 329.232 118.613 326.851 120.812H326.861Z" fill="#A8FF1D"/>
<path d="M326.302 121.812C329.885 127.451 334.068 132.68 338.631 137.562C343.067 142.306 347.787 147.125 353.003 151.017C355.343 152.764 357.966 154.247 360.864 154.805C364.141 155.447 367.492 154.921 370.653 153.942C376.796 152.027 382.728 148.955 388.218 145.631C394.467 141.854 400.273 137.372 405.541 132.333C406.152 131.744 405.225 130.818 404.614 131.407C395.657 139.981 385.047 146.956 373.508 151.533C370.379 152.774 367.06 153.837 363.656 153.784C360.379 153.742 357.408 152.469 354.742 150.649C352.213 148.924 349.958 146.799 347.724 144.716C345.438 142.59 343.193 140.413 341.033 138.161C335.986 132.922 331.36 127.293 327.461 121.149C327.008 120.434 325.87 121.097 326.323 121.812H326.302Z" fill="#323232"/>
<path d="M320.401 173.089C329.357 164.588 339.073 156.919 349.43 150.196C350.136 149.733 349.483 148.597 348.767 149.06C338.314 155.846 328.504 163.578 319.474 172.163C318.862 172.752 319.79 173.678 320.401 173.089Z" fill="#323232"/>
<path d="M374.046 153.11C382.57 162.884 390.125 173.457 396.584 184.703C397.006 185.44 398.144 184.777 397.723 184.041C391.2 172.71 383.582 162.042 374.973 152.184C374.414 151.542 373.487 152.479 374.046 153.11Z" fill="#323232"/>
<path d="M311.075 287.5C302.129 285.89 272.667 326.279 272.383 326.395L275.302 325.416C276.587 325.29 354.108 309.414 354.108 309.414C354.108 309.414 320.021 289.11 311.064 287.5H311.075Z" fill="#A8FF1D"/>
<path d="M272.225 326.564C272.225 326.564 281.003 384.795 287.61 385.258C294.216 385.721 367.67 369.109 367.712 365.227C367.755 361.345 357.955 313.329 354.109 309.405C350.263 305.48 273.816 323.471 272.215 326.564H272.225Z" fill="#A8FF1D"/>
<path d="M287.157 384.637C292.626 373.611 297.441 362.249 303.215 351.381C304.164 349.603 305.091 347.709 306.366 346.131C306.893 345.479 305.966 344.543 305.439 345.205C302.71 348.593 300.918 352.917 299.011 356.789C296.092 362.743 293.3 368.751 290.466 374.747C289.011 377.84 287.547 380.923 286.029 383.984C285.65 384.742 286.788 385.405 287.167 384.647L287.157 384.637Z" fill="#323232"/>
<path d="M331.57 341.777C344.109 348.689 356.29 356.474 367.259 365.701C367.902 366.248 368.84 365.322 368.187 364.775C357.133 355.464 344.879 347.616 332.234 340.641C331.497 340.23 330.822 341.367 331.57 341.777Z" fill="#323232"/>
<path d="M283.88 334.875C283.88 334.875 272.521 308.479 275.366 305.912C278.211 303.334 342.571 286.343 344.109 290.278C345.648 294.213 350.189 317.968 350.189 317.968C350.189 317.968 330.738 345.658 318.884 347.678C307.029 349.709 283.88 334.885 283.88 334.885V334.875Z" fill="white"/>
<path d="M316.471 348.383C304.163 348.383 284.491 335.884 283.605 335.316L283.468 335.232L283.405 335.085C281.477 330.624 272.046 308.215 275.018 305.522C278.263 302.576 336.249 287.626 343.498 289.309C344.099 289.446 344.468 289.709 344.615 290.077C346.154 294.012 350.537 316.884 350.727 317.852L350.769 318.073L350.642 318.252C349.842 319.388 330.927 346.142 318.989 348.183C318.199 348.32 317.356 348.383 316.481 348.383H316.471ZM284.301 334.517C286.219 335.716 307.746 349.045 318.799 347.152C329.811 345.269 347.934 320.23 349.641 317.831C349.178 315.422 345.058 294.107 343.625 290.456C343.625 290.456 343.509 290.277 342.423 290.214C331.718 289.583 278.031 304.196 275.713 306.279C273.953 307.878 279.654 323.691 284.301 334.506V334.517Z" fill="#323232"/>
<path d="M272.152 327.793C277.852 332.191 284.017 335.925 290.444 339.176C293.658 340.807 296.935 342.311 300.244 343.732C303.573 345.163 306.935 346.646 310.433 347.603C313.805 348.529 317.367 348.866 320.781 347.929C323.868 347.077 326.608 345.352 329.094 343.385C334.257 339.313 338.841 334.358 342.898 329.203C347.545 323.29 351.465 316.862 354.784 310.118C355.153 309.361 354.025 308.698 353.646 309.456C347.956 320.997 340.443 331.507 330.854 340.155C328.399 342.375 325.754 344.489 322.709 345.836C319.284 347.351 315.607 347.467 311.982 346.635C308.452 345.825 305.091 344.373 301.772 342.964C298.6 341.617 295.46 340.197 292.362 338.661C285.492 335.263 278.885 331.328 272.816 326.646C272.141 326.131 271.488 327.267 272.152 327.783V327.793Z" fill="#323232"/>
<path d="M301.909 313.865C301.477 315.159 307.409 333.57 312.077 334.075C316.745 334.569 332.93 330.34 332.825 326.405C332.719 322.46 329.39 306.09 325.828 306.237C322.267 306.385 302.857 311.056 301.909 313.875V313.865Z" fill="#BFDCEF"/>
<path d="M304.449 322.723C304.449 322.723 313.638 316.348 318.358 318.578C323.079 320.809 324.396 325.764 326.387 323.586C328.379 321.408 331.119 316.59 331.119 316.59C331.119 316.59 333.9 323.986 332.531 328.373C331.856 330.53 314.207 336.505 310.698 333.475C307.189 330.445 304.449 322.734 304.449 322.734V322.723Z" fill="#A8FF1D"/>
<path d="M323.299 311.708C324.226 313.107 324.342 314.664 323.562 315.169C322.783 315.674 321.402 314.969 320.475 313.57C319.548 312.171 319.432 310.614 320.212 310.109C320.991 309.593 322.372 310.309 323.299 311.708Z" fill="#A8FF1D"/>
<path d="M299.096 343.28C313.501 339.86 327.652 335.473 341.466 330.15C342.246 329.845 341.909 328.572 341.118 328.877C327.315 334.211 313.153 338.598 298.749 342.007C297.927 342.207 298.275 343.469 299.096 343.28Z" fill="#323232"/>
<path d="M307.725 346.057C313.584 344.469 319.369 342.659 325.09 340.628C325.881 340.344 325.544 339.071 324.743 339.356C319.032 341.386 313.236 343.206 307.378 344.784C306.556 345.005 306.903 346.278 307.725 346.057Z" fill="#323232"/>
<path d="M285.113 318.525C286.451 316.725 287.231 314.421 287.052 312.16C286.915 310.455 285.703 309.035 283.88 309.635C282.131 310.213 281.688 312.233 282.468 313.759C283.406 315.621 285.64 316.22 287.568 316.336C291.298 316.557 296.872 314.516 297.452 310.255C297.673 308.614 296.714 306.731 295.06 306.247C293.279 305.731 291.519 307.131 291.214 308.877C290.824 311.097 292.71 313.022 294.786 313.411C297.304 313.885 299.591 312.57 301.466 311.044C302.12 310.508 301.192 309.582 300.539 310.119C298.548 311.739 294.333 313.727 292.742 310.466C292.152 309.266 292.794 307.415 294.333 307.457C295.629 307.488 296.324 309.066 296.156 310.182C295.724 312.949 292.194 314.516 289.76 314.916C288.369 315.147 286.841 315.095 285.503 314.632C284.323 314.211 282.689 312.728 283.648 311.349C283.985 310.865 284.849 310.592 285.334 311.023C285.882 311.518 285.798 312.622 285.745 313.285C285.629 314.958 284.986 316.515 283.985 317.851C283.48 318.535 284.618 319.187 285.123 318.514L285.113 318.525Z" fill="#323232"/>
<path d="M332.055 302.354C335.164 301.649 338.262 300.944 341.37 300.24C342.192 300.05 341.844 298.788 341.022 298.967C337.914 299.671 334.816 300.376 331.708 301.081C330.886 301.271 331.233 302.533 332.055 302.354Z" fill="#323232"/>
<path d="M334.309 304.996C336.743 304.438 339.177 303.891 341.611 303.333C342.433 303.144 342.086 301.881 341.264 302.06C338.83 302.618 336.396 303.165 333.962 303.723C333.14 303.912 333.487 305.174 334.309 304.996Z" fill="#323232"/>
<path d="M293.753 339.756C298.021 339.219 302.13 337.957 305.934 335.968C306.682 335.579 306.018 334.443 305.27 334.832C301.677 336.705 297.768 337.936 293.753 338.441C292.921 338.546 292.91 339.861 293.753 339.756Z" fill="#323232"/>
<path d="M322.183 7.41016H193.114C184.519 7.41016 177.551 14.3672 177.551 22.9491V267.217C177.551 275.798 184.519 282.755 193.114 282.755H322.183C330.778 282.755 337.746 275.798 337.746 267.217V22.9491C337.746 14.3672 330.778 7.41016 322.183 7.41016Z" fill="white"/>
<path d="M177.182 266.259H337.756V268.31C337.756 276.285 331.276 282.755 323.289 282.755H192.524C184.062 282.755 177.182 275.895 177.182 267.437V266.248V266.259Z" fill="#E10060"/>
<path d="M177.182 27.2418H337.756V22.0131C337.756 13.9332 331.497 7.37891 323.784 7.37891H190.774C183.325 7.38943 177.266 13.6913 177.224 21.487L177.192 27.2313L177.182 27.2418Z" fill="#E10060"/>
<path d="M326.986 17.32C326.986 18.7614 325.817 19.9292 324.373 19.9292C322.929 19.9292 321.76 18.7614 321.76 17.32C321.76 15.8787 322.929 14.7109 324.373 14.7109C325.817 14.7109 326.986 15.8787 326.986 17.32Z" fill="white"/>
<path d="M319.105 17.32C319.105 18.7614 317.936 19.9292 316.492 19.9292C315.049 19.9292 313.879 18.7614 313.879 17.32C313.879 15.8787 315.049 14.7109 316.492 14.7109C317.936 14.7109 319.105 15.8787 319.105 17.32Z" fill="white"/>
<path d="M311.223 17.32C311.223 18.7614 310.053 19.9292 308.609 19.9292C307.166 19.9292 305.996 18.7614 305.996 17.32C305.996 15.8787 307.166 14.7109 308.609 14.7109C310.053 14.7109 311.223 15.8787 311.223 17.32Z" fill="white"/>
<path d="M257.654 21.0032C259.638 21.0032 261.247 19.397 261.247 17.4157C261.247 15.4343 259.638 13.8281 257.654 13.8281C255.669 13.8281 254.061 15.4343 254.061 17.4157C254.061 19.397 255.669 21.0032 257.654 21.0032Z" fill="white"/>
<path d="M203.471 20.0979H191.08C189.594 20.0979 188.393 18.8986 188.393 17.4152C188.393 15.9318 189.594 14.7324 191.08 14.7324H203.471C204.957 14.7324 206.158 15.9318 206.158 17.4152C206.158 18.8986 204.957 20.0979 203.471 20.0979Z" fill="white"/>
<path d="M243.406 37.9312C243.406 37.9312 241.815 59.1828 244.112 59.8772C246.409 60.5715 273.668 60.6031 273.995 59.2354C274.322 57.8677 274.733 40.1405 273.689 38.4467C272.646 36.7529 244.217 36.9633 243.406 37.9312Z" fill="#E10060"/>
<path d="M242.976 38.647C245.157 41.2666 247.686 43.5601 250.394 45.6327C252.786 47.4632 255.62 49.9461 258.834 49.7778C261.932 49.62 264.903 47.4738 267.316 45.7063C269.993 43.739 272.395 41.4455 274.503 38.8784C275.04 38.2262 274.113 37.2898 273.575 37.9526C271.637 40.3198 269.455 42.466 267.011 44.3071C264.745 46.0219 261.774 48.2944 258.844 48.4627C255.757 48.6416 252.744 45.822 250.478 44.0335C248.086 42.1503 245.863 40.0567 243.913 37.7212C243.376 37.0689 242.449 38.0052 242.986 38.647H242.976Z" fill="#323232"/>
<path d="M243.712 58.6668C246.758 54.9425 250.15 51.5128 253.828 48.4092C254.481 47.8622 253.543 46.9363 252.901 47.4834C249.223 50.587 245.841 54.0167 242.785 57.741C242.248 58.3933 243.175 59.3296 243.712 58.6668Z" fill="#323232"/>
<path d="M262.815 48.3462C266.545 51.6707 269.948 55.3424 272.962 59.3297C273.468 59.9925 274.606 59.3403 274.1 58.6669C271.023 54.5955 267.567 50.8186 263.752 47.4204C263.12 46.8628 262.182 47.7886 262.825 48.3462H262.815Z" fill="#323232"/>
<path d="M279.601 37.4267C279.833 40.162 277.81 42.5607 275.071 42.8027C272.331 43.0342 269.928 41.0142 269.686 38.2789C269.454 35.5435 271.477 33.1448 274.217 32.9028C276.957 32.6714 279.359 34.6913 279.601 37.4267Z" fill="#BFDCEF"/>
<path d="M178.331 73.3014H337.758C338.601 73.3014 338.611 71.9863 337.758 71.9863H178.331C177.489 71.9863 177.478 73.3014 178.331 73.3014Z" fill="#BFDCEF"/>
<path d="M178.331 108.399H336.946C337.789 108.399 337.8 107.084 336.946 107.084H178.331C177.489 107.084 177.478 108.399 178.331 108.399Z" fill="#BFDCEF"/>
<path d="M178.331 146.589H337.262C338.105 146.589 338.116 145.273 337.262 145.273H178.331C177.489 145.273 177.478 146.589 178.331 146.589Z" fill="#BFDCEF"/>
<path d="M178.331 184.766H337.262C338.105 184.766 338.116 183.451 337.262 183.451H178.331C177.489 183.451 177.478 184.766 178.331 184.766Z" fill="#BFDCEF"/>
<path d="M178.331 225.85H337.262C338.105 225.85 338.116 224.535 337.262 224.535H178.331C177.489 224.535 177.478 225.85 178.331 225.85Z" fill="#BFDCEF"/>
<path d="M336.945 71.7031H178.057V107.747H336.945V71.7031Z" fill="#BFDCEF"/>
<path d="M207.454 91.0355C208.703 85.73 205.408 80.4179 200.095 79.1706C194.781 77.9233 189.461 81.2131 188.211 86.5186C186.962 91.8241 190.257 97.1362 195.571 98.3835C200.884 99.6308 206.205 96.341 207.454 91.0355Z" fill="#E10060"/>
<path d="M214.861 89.4284H315.5C316.343 89.4284 316.354 88.1133 315.5 88.1133H214.861C214.018 88.1133 214.007 89.4284 214.861 89.4284Z" fill="#323232"/>
<path d="M214.861 93.9733H315.5C316.343 93.9733 316.354 92.6582 315.5 92.6582H214.861C214.018 92.6582 214.007 93.9733 214.861 93.9733Z" fill="#323232"/>
<path d="M231.649 79.623H214.863V84.2205H231.649V79.623Z" fill="#E10060"/>
<path d="M204.818 133.943C208.678 130.089 208.678 123.841 204.818 119.987C200.958 116.133 194.7 116.133 190.84 119.987C186.981 123.841 186.981 130.089 190.84 133.943C194.7 137.797 200.958 137.797 204.818 133.943Z" fill="#BFDCEF"/>
<path d="M214.863 127.63H315.502C316.345 127.63 316.356 126.314 315.502 126.314H214.863C214.02 126.314 214.009 127.63 214.863 127.63Z" fill="#323232"/>
<path d="M214.863 132.163H315.502C316.345 132.163 316.356 130.848 315.502 130.848H214.863C214.02 130.848 214.009 132.163 214.863 132.163Z" fill="#323232"/>
<path d="M231.649 117.812H214.863V122.41H231.649V117.812Z" fill="#BFDCEF"/>
<path d="M207.456 167.039C208.705 161.734 205.41 156.422 200.097 155.175C194.783 153.927 189.462 157.217 188.213 162.522C186.964 167.828 190.259 173.14 195.573 174.387C200.886 175.635 206.207 172.345 207.456 167.039Z" fill="#E10060"/>
<path d="M214.863 165.43H315.502C316.345 165.43 316.356 164.115 315.502 164.115H214.863C214.02 164.115 214.009 165.43 214.863 165.43Z" fill="#323232"/>
<path d="M214.863 169.975H315.502C316.345 169.975 316.356 168.66 315.502 168.66H214.863C214.02 168.66 214.009 169.975 214.863 169.975Z" fill="#323232"/>
<path d="M231.647 155.625H214.861V160.223H231.647V155.625Z" fill="#E10060"/>
<path d="M204.822 210.695C208.682 206.841 208.682 200.593 204.822 196.739C200.962 192.885 194.704 192.885 190.844 196.739C186.985 200.593 186.985 206.841 190.844 210.695C194.704 214.549 200.962 214.549 204.822 210.695Z" fill="#BFDCEF"/>
<path d="M214.863 204.378H315.502C316.345 204.378 316.356 203.062 315.502 203.062H214.863C214.02 203.062 214.009 204.378 214.863 204.378Z" fill="#323232"/>
<path d="M214.863 208.922H315.502C316.345 208.922 316.356 207.607 315.502 207.607H214.863C214.02 207.607 214.009 208.922 214.863 208.922Z" fill="#323232"/>
<path d="M231.649 194.562H214.863V199.16H231.649V194.562Z" fill="#BFDCEF"/>
<path d="M204.818 249.64C208.678 245.786 208.678 239.538 204.818 235.684C200.958 231.83 194.7 231.83 190.84 235.684C186.981 239.538 186.981 245.786 190.84 249.64C194.7 253.494 200.958 253.494 204.818 249.64Z" fill="#E10060"/>
<path d="M214.863 243.327H315.502C316.345 243.327 316.356 242.012 315.502 242.012H214.863C214.02 242.012 214.009 243.327 214.863 243.327Z" fill="#323232"/>
<path d="M214.863 247.86H315.502C316.345 247.86 316.356 246.545 315.502 246.545H214.863C214.02 246.545 214.009 247.86 214.863 247.86Z" fill="#323232"/>
<path d="M231.649 233.51H214.863V238.107H231.649V233.51Z" fill="#E10060"/>
<path d="M328.842 94.3852C328.821 95.0796 328.505 95.6687 327.788 95.7319C327.346 95.7634 326.829 95.6582 326.429 95.4689C325.86 95.1953 325.649 94.6798 325.554 94.0907C325.365 92.8387 325.365 91.5131 325.301 90.2401C325.27 89.6089 325.249 88.9882 325.238 88.3569C325.238 87.7678 325.175 87.1155 325.365 86.5474C325.649 85.6637 326.524 85.1692 327.377 85.6531C328.484 86.2738 328.305 88.0729 328.336 89.146C328.357 89.7877 328.368 90.4295 328.368 91.0712C328.368 91.5236 328.368 91.9339 328.083 92.3127C328.031 92.3758 327.946 92.3968 327.904 92.3968C327.714 92.4074 327.62 92.4179 327.483 92.3021C326.998 91.8918 327.167 91.0081 327.135 90.4295C327.093 89.8193 327.051 89.1986 327.008 88.5884C326.945 87.7467 325.628 87.7467 325.691 88.5884C325.744 89.3143 325.818 90.0402 325.849 90.7661C325.892 91.734 325.892 92.8071 326.798 93.4068C327.419 93.8171 328.336 93.8276 328.916 93.3332C330.033 92.3863 329.695 90.5242 329.664 89.2407C329.622 87.6836 329.695 85.7268 328.315 84.6852C327.219 83.8646 325.649 83.9698 324.743 85.0114C323.7 86.2002 323.9 87.9256 323.953 89.3879C323.984 90.3348 324.048 91.2817 324.111 92.239C324.163 93.0491 324.163 93.8908 324.343 94.6903C324.711 96.3 326.324 97.1837 327.925 97.0364C329.348 96.9102 330.138 95.7529 330.18 94.3852C330.201 93.5436 328.884 93.5436 328.863 94.3852H328.842Z" fill="#323232"/>
<path d="M328.842 127.946C328.821 128.64 328.505 129.229 327.788 129.292C327.346 129.324 326.829 129.219 326.429 129.029C325.86 128.756 325.649 128.24 325.554 127.651C325.365 126.399 325.365 125.074 325.301 123.801C325.27 123.169 325.249 122.549 325.238 121.917C325.238 121.328 325.175 120.676 325.365 120.108C325.649 119.224 326.524 118.73 327.377 119.214C328.484 119.834 328.305 121.633 328.336 122.707C328.357 123.348 328.368 123.99 328.368 124.632C328.368 125.084 328.368 125.494 328.083 125.873C328.031 125.936 327.946 125.957 327.904 125.957C327.714 125.968 327.62 125.978 327.483 125.863C326.998 125.452 327.167 124.569 327.135 123.99C327.093 123.38 327.051 122.759 327.008 122.149C326.945 121.307 325.628 121.307 325.691 122.149C325.744 122.875 325.818 123.601 325.849 124.327C325.892 125.295 325.892 126.368 326.798 126.967C327.419 127.378 328.336 127.388 328.916 126.894C330.033 125.947 329.695 124.085 329.664 122.801C329.622 121.244 329.695 119.287 328.315 118.246C327.219 117.425 325.649 117.53 324.743 118.572C323.7 119.761 323.9 121.486 323.953 122.948C323.984 123.895 324.048 124.842 324.111 125.8C324.163 126.61 324.163 127.451 324.343 128.251C324.711 129.861 326.324 130.744 327.925 130.597C329.348 130.471 330.138 129.313 330.18 127.946C330.201 127.104 328.884 127.104 328.863 127.946H328.842Z" fill="#323232"/>
<path d="M328.842 208.627C328.821 209.322 328.505 209.911 327.788 209.974C327.346 210.006 326.829 209.9 326.429 209.711C325.86 209.438 325.649 208.922 325.554 208.333C325.365 207.081 325.365 205.755 325.301 204.482C325.27 203.851 325.249 203.23 325.238 202.599C325.238 202.01 325.175 201.358 325.365 200.79C325.649 199.906 326.524 199.411 327.377 199.895C328.484 200.516 328.305 202.315 328.336 203.388C328.357 204.03 328.368 204.672 328.368 205.313C328.368 205.766 328.368 206.176 328.083 206.555C328.031 206.618 327.946 206.639 327.904 206.639C327.714 206.65 327.62 206.66 327.483 206.544C326.998 206.134 327.167 205.25 327.135 204.672C327.093 204.061 327.051 203.441 327.008 202.831C326.945 201.989 325.628 201.989 325.691 202.831C325.744 203.556 325.818 204.282 325.849 205.008C325.892 205.976 325.892 207.049 326.798 207.649C327.419 208.059 328.336 208.07 328.916 207.575C330.033 206.629 329.695 204.766 329.664 203.483C329.622 201.926 329.695 199.969 328.315 198.927C327.219 198.107 325.649 198.212 324.743 199.254C323.7 200.442 323.9 202.168 323.953 203.63C323.984 204.577 324.048 205.524 324.111 206.481C324.163 207.291 324.163 208.133 324.343 208.933C324.711 210.542 326.324 211.426 327.925 211.279C329.348 211.152 330.138 209.995 330.18 208.627C330.201 207.786 328.884 207.786 328.863 208.627H328.842Z" fill="#323232"/>
<path d="M196.528 84.0843C196.539 83.9791 196.581 83.8844 196.655 83.8108C196.728 83.7371 196.865 83.674 197.076 83.653C197.181 83.6425 197.297 83.6214 197.424 83.6109C197.55 83.6004 197.677 83.5898 197.814 83.5898C197.94 83.5898 198.067 83.5898 198.182 83.5898C198.857 83.5898 199.457 83.6951 199.984 83.9055C200.511 84.1159 200.922 84.421 201.228 84.8208C201.533 85.2205 201.681 85.7045 201.681 86.2831C201.681 86.7145 201.575 87.0827 201.375 87.4088C201.175 87.735 200.901 88.0085 200.553 88.2189C200.206 88.4398 199.826 88.5977 199.405 88.7029C198.983 88.8081 198.551 88.8607 198.109 88.8607C197.961 88.8607 197.824 88.8607 197.698 88.8396C197.571 88.8291 197.434 88.8081 197.308 88.787C197.287 89.3236 197.266 89.8601 197.245 90.3967C197.224 90.9437 197.203 91.4908 197.171 92.0379C197.171 92.1957 197.108 92.3114 197.002 92.3851C196.897 92.4587 196.781 92.5008 196.644 92.5008C196.497 92.5008 196.381 92.4587 196.275 92.3851C196.17 92.3114 196.128 92.1852 196.138 92.0274C196.223 90.7018 196.275 89.3762 196.307 88.0401C196.338 86.7039 196.412 85.3784 196.528 84.0633V84.0843ZM197.34 87.8296C197.466 87.8402 197.603 87.8612 197.74 87.8823C197.877 87.9033 198.046 87.9138 198.235 87.9138C198.478 87.9138 198.741 87.8823 199.025 87.8191C199.299 87.756 199.563 87.6508 199.805 87.514C200.048 87.3773 200.248 87.1984 200.406 86.9775C200.564 86.7565 200.638 86.4935 200.638 86.1884C200.638 86.0201 200.595 85.8307 200.522 85.6414C200.448 85.4415 200.311 85.2626 200.121 85.0943C199.932 84.926 199.689 84.7892 199.373 84.6735C199.068 84.5683 198.667 84.5157 198.193 84.5157C198.056 84.5157 197.93 84.5157 197.814 84.5367C197.708 84.5472 197.603 84.5577 197.519 84.5788C197.498 84.926 197.476 85.2837 197.455 85.6414C197.434 85.9991 197.413 86.3673 197.392 86.725C197.371 87.0932 197.361 87.4614 197.34 87.8296Z" fill="white"/>
<path d="M194.441 239.012C194.283 239.012 194.167 238.97 194.083 238.875C194.009 238.791 193.967 238.665 193.967 238.517C193.967 238.381 194.009 238.265 194.083 238.17C194.167 238.076 194.283 238.023 194.441 238.023C194.704 238.023 195.01 238.044 195.347 238.055C195.684 238.065 196.032 238.076 196.38 238.076C196.728 238.076 197.044 238.076 197.318 238.076C197.876 238.076 198.445 238.076 199.004 238.055C199.562 238.044 200.12 238.023 200.668 238.002C200.816 238.002 200.932 238.044 201.016 238.139C201.1 238.244 201.132 238.36 201.132 238.496C201.132 238.633 201.09 238.759 201.016 238.854C200.942 238.949 200.816 238.991 200.658 238.991C200.11 239.012 199.562 239.033 199.014 239.043C198.466 239.054 197.908 239.065 197.349 239.065C196.865 239.065 196.38 239.065 195.885 239.043C195.4 239.033 194.915 239.012 194.43 238.991L194.441 239.012ZM196.864 238.833C196.864 238.759 196.886 238.696 196.917 238.644C196.949 238.591 196.991 238.549 197.044 238.507C197.096 238.465 197.16 238.444 197.223 238.423C197.286 238.402 197.349 238.391 197.402 238.391C197.465 238.391 197.518 238.391 197.581 238.423C197.644 238.444 197.697 238.465 197.75 238.507C197.802 238.549 197.834 238.591 197.866 238.644C197.897 238.696 197.908 238.759 197.908 238.833C197.908 240.127 197.887 241.4 197.844 242.663C197.802 243.925 197.729 245.177 197.634 246.429C197.634 246.534 197.592 246.618 197.539 246.692C197.486 246.755 197.423 246.808 197.349 246.839C197.275 246.871 197.191 246.892 197.117 246.892C197.044 246.892 196.949 246.871 196.864 246.839C196.78 246.808 196.717 246.755 196.664 246.681C196.612 246.608 196.591 246.524 196.601 246.418C196.696 245.209 196.759 243.967 196.801 242.694C196.843 241.421 196.864 240.127 196.864 238.833Z" fill="white"/>
<path d="M195.316 130.355C195.274 130.482 195.221 130.576 195.126 130.639C195.042 130.703 194.937 130.734 194.81 130.734C194.673 130.734 194.547 130.692 194.441 130.608C194.336 130.524 194.283 130.408 194.283 130.282C194.283 130.24 194.283 130.198 194.304 130.145C194.315 130.092 194.357 129.987 194.41 129.85C194.663 129.198 194.937 128.546 195.221 127.904C195.506 127.252 195.811 126.61 196.117 125.958C196.422 125.306 196.749 124.653 197.065 124.001C197.392 123.349 197.708 122.686 198.024 122.023C198.066 121.928 198.14 121.855 198.224 121.802C198.308 121.75 198.403 121.729 198.498 121.729C198.624 121.729 198.74 121.76 198.846 121.834C198.951 121.897 199.014 121.992 199.057 122.107C199.099 122.202 199.172 122.402 199.299 122.728C199.425 123.054 199.583 123.454 199.762 123.927C199.942 124.401 200.142 124.906 200.353 125.453C200.563 126 200.785 126.547 200.995 127.094C201.206 127.641 201.417 128.146 201.606 128.62C201.796 129.093 201.954 129.482 202.081 129.798C202.123 129.871 202.154 129.956 202.197 130.05C202.239 130.145 202.249 130.219 202.249 130.282C202.249 130.45 202.197 130.576 202.102 130.671C201.996 130.766 201.891 130.808 201.754 130.808C201.68 130.808 201.596 130.787 201.491 130.755C201.385 130.724 201.322 130.65 201.269 130.545C201.016 129.935 200.753 129.293 200.5 128.62C200.237 127.946 199.984 127.273 199.741 126.61C199.489 125.947 199.257 125.327 199.046 124.758C198.825 124.19 198.646 123.696 198.487 123.286C198.119 124.106 197.75 124.906 197.381 125.695C197.012 126.484 196.654 127.273 196.306 128.051C195.959 128.83 195.632 129.608 195.337 130.387L195.316 130.355ZM195.674 127.347C195.674 127.252 195.706 127.168 195.779 127.105C195.843 127.041 195.927 126.989 196.022 126.957C196.117 126.915 196.201 126.894 196.285 126.884C196.454 126.842 196.675 126.81 196.97 126.789C197.265 126.768 197.602 126.747 197.992 126.736C198.382 126.736 198.804 126.736 199.267 126.757C199.404 126.757 199.552 126.757 199.71 126.757C199.857 126.757 200.005 126.757 200.142 126.736C200.279 126.736 200.405 126.715 200.521 126.705C200.637 126.694 200.742 126.684 200.816 126.663C200.974 126.642 201.101 126.684 201.196 126.789C201.29 126.894 201.343 127.02 201.343 127.157C201.343 127.283 201.301 127.389 201.227 127.462C201.143 127.536 201.048 127.588 200.922 127.631C200.795 127.673 200.658 127.694 200.521 127.704C200.384 127.715 200.258 127.725 200.131 127.725C199.699 127.725 199.267 127.725 198.825 127.725C198.382 127.725 197.95 127.746 197.518 127.767C197.086 127.788 196.665 127.83 196.243 127.883C196.127 127.883 196.011 127.841 195.874 127.725C195.748 127.61 195.674 127.483 195.674 127.347Z" fill="white"/>
<path d="M196.58 163.263C196.58 163.263 197.465 158.066 198.161 159.223C198.856 160.391 199.151 162.863 199.151 162.863C199.151 162.863 203.714 160.98 203.314 161.874C202.913 162.768 199.952 164.546 199.952 164.546C199.952 164.546 202.818 168.691 201.174 168.207C199.552 167.734 198.203 166.303 198.15 166.219C198.15 166.219 195.948 170.575 195.716 169.491C195.474 168.397 195.927 165.451 195.927 165.451C195.927 165.451 192.429 165.062 192.313 164.231C192.271 163.926 196.57 163.242 196.57 163.242L196.58 163.263Z" fill="white"/>
<path d="M196.58 202.694C196.58 202.694 197.465 197.497 198.161 198.654C198.856 199.822 199.151 202.295 199.151 202.295C199.151 202.295 203.714 200.411 203.314 201.306C202.913 202.2 199.952 203.978 199.952 203.978C199.952 203.978 202.818 208.123 201.174 207.639C199.552 207.166 198.203 205.735 198.15 205.651C198.15 205.651 195.948 210.006 195.716 208.923C195.474 207.828 195.927 204.883 195.927 204.883C195.927 204.883 192.429 204.493 192.313 203.662C192.271 203.357 196.57 202.673 196.57 202.673L196.58 202.694Z" fill="white"/>
<path d="M322.193 283.293H193.114C184.241 283.293 177.023 276.086 177.023 267.228V22.9497C177.023 14.0914 184.241 6.88477 193.114 6.88477H322.193C331.065 6.88477 338.283 14.0914 338.283 22.9497V267.228C338.283 276.086 331.065 283.293 322.193 283.293ZM193.114 7.93683C184.821 7.93683 178.077 14.67 178.077 22.9497V267.228C178.077 275.507 184.821 282.241 193.114 282.241H322.193C330.486 282.241 337.229 275.507 337.229 267.228V22.9497C337.229 14.67 330.486 7.93683 322.193 7.93683H193.114Z" fill="#323232"/>
<path d="M321.043 45.8633H311.939C310.868 45.8633 310 46.73 310 47.7991V52.9647C310 54.0338 310.868 54.9005 311.939 54.9005H321.043C322.114 54.9005 322.982 54.0338 322.982 52.9647V47.7991C322.982 46.73 322.114 45.8633 321.043 45.8633Z" fill="#BFDCEF"/>
<path d="M207.835 44.6641H195.538C194.468 44.6641 193.6 45.5308 193.6 46.5999V57.415C193.6 58.4841 194.468 59.3508 195.538 59.3508H207.835C208.906 59.3508 209.774 58.4841 209.774 57.415V46.5999C209.774 45.5308 208.906 44.6641 207.835 44.6641Z" fill="#BFDCEF"/>
<path d="M338.241 271.52C340.264 267.364 342.276 263.219 344.299 259.063C343.899 259.011 343.499 258.958 343.098 258.905C344.173 263.261 345.248 267.617 346.323 271.972C346.407 272.309 346.797 272.54 347.134 272.435C352.845 270.583 358.546 268.732 364.257 266.88L363.614 265.786C359.22 270.163 355.353 275.034 352.076 280.304C351.855 280.662 352.065 281.167 352.466 281.272C359.315 282.945 365.974 285.27 372.349 288.268V287.132C367.639 290.015 362.592 292.214 357.271 293.676C356.459 293.897 356.796 295.17 357.618 294.949C363.045 293.445 368.219 291.204 373.013 288.268C373.403 288.026 373.477 287.353 373.013 287.132C366.533 284.092 359.778 281.704 352.813 280.01C352.94 280.336 353.077 280.652 353.203 280.978C356.417 275.802 360.21 271.025 364.531 266.722C364.984 266.27 364.531 265.418 363.888 265.628C358.177 267.48 352.476 269.331 346.765 271.183L347.576 271.646C346.502 267.29 345.427 262.935 344.352 258.579C344.226 258.053 343.393 257.906 343.151 258.422C341.128 262.577 339.115 266.722 337.092 270.878C336.723 271.635 337.861 272.309 338.23 271.541L338.241 271.52Z" fill="#323232"/>
<path d="M139.259 429.413C138.469 428.845 137.468 428.488 136.667 427.783C133.032 424.542 129.713 419.724 128.132 415.284C126.204 409.866 132.684 389.13 133.2 388.625L110.187 393.37C110.187 393.37 111.757 412.181 110.914 418.209C110.082 424.237 104.929 439.05 106.763 442.733C108.596 446.415 135.234 451.338 145.244 452.233C160.797 453.621 166.361 447.014 166.455 445.026C166.529 443.658 143.653 432.601 139.249 429.424L139.259 429.413Z" fill="#FFBFBF"/>
<path d="M166.17 444.553C165.695 444.153 165.221 443.848 164.347 443.301C164.009 443.501 153.915 449.339 136.624 448.393C119.037 447.425 105.824 437.451 105.824 437.451C105.497 439.776 105.434 441.775 105.95 442.806C106.013 442.922 106.098 443.038 106.192 443.153C106.403 443.395 106.709 443.637 107.099 443.879C112.725 447.425 135.749 451.601 144.937 452.422C157.055 453.506 163.051 449.834 165.358 447.151C166.517 445.731 166.665 444.963 166.17 444.553Z" fill="#BFDCEF"/>
<path d="M160.658 441.133L139.499 429.413C137.339 428.151 135.169 425.889 132.987 423.153C130.669 417.251 125.517 416.61 122.809 419.955C121.007 422.186 120.743 425.72 120.807 428.077C120.554 428.088 120.301 428.109 120.048 428.098C113.536 428.003 109.195 423.248 109.195 423.248C107.867 428.34 106.56 433.632 106.055 437.146C106.055 437.146 119.858 447.582 137.213 448.54C154.567 449.497 164.63 443.321 164.63 443.321L160.679 441.133H160.658Z" fill="#008BCE"/>
<path d="M126.645 432.948C127.994 431.991 129.016 430.655 130.375 429.676C131.882 428.603 133.515 427.899 135.254 427.299C136.16 426.983 135.791 425.71 134.864 425.879C131.597 426.468 127.003 429.193 126.403 432.77C126.382 432.896 126.508 433.043 126.635 432.948H126.645Z" fill="#323232"/>
<path d="M134.095 436.178C136.339 434.494 138.046 432.232 140.954 431.664C141.903 431.475 141.671 429.991 140.733 430.002C139.037 430.013 137.435 430.98 136.213 432.096C135.117 433.085 133.884 434.494 133.842 436.03C133.842 436.157 134 436.262 134.105 436.178H134.095Z" fill="#323232"/>
<path d="M140.965 439.555C142.03 438.84 142.651 437.62 143.589 436.736C144.664 435.726 145.907 435.305 147.172 434.621C148.152 434.085 147.425 432.812 146.466 432.959C143.937 433.327 140.207 436.41 140.28 439.166C140.28 439.492 140.67 439.766 140.976 439.566L140.965 439.555Z" fill="#323232"/>
<path d="M118.363 436.851C121.06 438.345 124 439.144 127.045 439.555C127.772 439.649 127.952 438.376 127.224 438.261C124.295 437.819 121.461 437.082 118.605 436.293C118.268 436.199 118.057 436.683 118.363 436.851Z" fill="white"/>
<path d="M106.361 437.998C119.648 447.814 136.486 451.507 152.692 448.393C156.928 447.583 161.375 446.488 164.842 443.785C165.505 443.269 164.568 442.343 163.914 442.859C160.827 445.268 156.781 446.225 153.009 446.993C149.152 447.772 145.222 448.182 141.281 448.193C133.483 448.214 125.675 446.646 118.521 443.532C114.443 441.765 110.607 439.503 107.035 436.862C106.35 436.357 105.697 437.504 106.371 437.998H106.361Z" fill="#323232"/>
<path d="M48.9569 403.407C49.2098 404.175 49.7472 414.348 46.7125 421.986C43.6778 429.614 62.7183 431.928 62.7183 431.928C62.7183 431.928 66.1639 411.129 67.8393 404.837C69.5147 398.546 48.9463 403.407 48.9463 403.407H48.9569Z" fill="#FFBFBF"/>
<path d="M26.9129 446.952C26.9129 446.952 26.955 449.393 27.4608 451.581C27.9771 453.77 35.5638 454.79 45.4687 454.022C55.3735 453.254 60.9055 448.499 61.2954 447.983C61.6853 447.468 62.4123 439.914 62.4123 439.914L26.9023 446.952H26.9129Z" fill="#BFDCEF"/>
<path d="M47.1554 421.386C46.7971 421.681 37.5034 435.778 34.416 437.956C31.3287 440.145 26.4395 443.353 26.9558 447.719C27.4721 452.085 46.1227 450.802 53.3301 448.75C60.5375 446.699 60.411 447.593 61.5596 445.026C62.7186 442.459 62.7186 432.054 62.7186 430.634C62.7186 429.214 57.703 412.517 47.1554 421.386Z" fill="#008BCE"/>
<path d="M37.745 434.41C41.2117 433.422 45.3633 433.495 48.4613 435.526C48.9776 435.862 48.6615 436.799 48.0187 436.567C44.6468 435.336 41.6227 434.589 38.019 435.42C37.3657 435.568 37.0917 434.6 37.745 434.41Z" fill="#323232"/>
<path d="M41.4017 430.866C44.5417 429.782 48.1981 430.539 51.159 431.844C51.8545 432.149 51.3487 433.38 50.6322 433.085C47.5659 431.865 44.7314 431.686 41.486 431.455C41.1488 431.434 41.075 430.971 41.4017 430.866Z" fill="#323232"/>
<path d="M44.478 427.025C47.7129 425.994 51.0216 426.089 54.2143 427.246C55.0994 427.562 54.699 428.982 53.8244 428.656C50.874 427.54 47.8077 427.288 44.7204 427.898C44.1514 428.014 43.9196 427.214 44.478 427.035V427.025Z" fill="#323232"/>
<path d="M26.3228 448.298C27.5872 450.465 30.1583 450.833 32.4554 451.075C36.1223 451.454 39.8102 451.622 43.4877 451.401C50.126 450.991 56.7223 449.224 62.191 445.341C62.8759 444.857 62.2226 443.711 61.5272 444.205C56.5326 447.751 50.5581 449.518 44.4887 450.013C41.4013 450.265 38.2929 450.223 35.2055 450.002C32.8241 449.834 28.8517 450.023 27.4608 447.635C27.0288 446.909 25.8907 447.561 26.3228 448.298Z" fill="#323232"/>
<path d="M142.852 252.057C142.136 235.119 138.5 216.435 134.475 202.747C131.83 193.752 123.506 173.5 123.506 173.5L75.7625 173.679C75.7625 173.679 57.4806 200.748 53.8137 211.795C48.4714 227.913 44.5516 253.793 43.1397 282.241C41.7909 309.395 39.399 329.373 38.7141 339.052C37.987 349.247 33.9303 399.272 34.0989 406.658C34.2569 413.77 78.0069 413.138 82.2849 406.658C86.1415 400.808 96.9947 277.686 99.4077 251.9L101.673 250.658C101.136 250.332 97.2371 346.227 97.2371 346.227L95.3404 406.584C97.8271 411.602 142.346 410.898 143.59 406.3C144.833 401.702 143.569 268.996 142.863 252.057H142.852Z" fill="#BFDCEF"/>
<path d="M53.3391 239.328C49.9146 261.516 46.627 283.736 43.9927 306.04C41.4217 327.754 39.5039 349.553 38.5661 371.404C38.0182 384.26 37.8075 397.127 37.9234 409.994C37.9234 410.835 39.251 410.846 39.2405 409.994C39.0298 387.627 39.8517 365.26 41.6219 342.967C43.35 321.126 45.9526 299.37 48.9768 277.666C50.747 264.988 52.6542 252.332 54.6036 239.676C54.73 238.844 53.4656 238.487 53.3286 239.328H53.3391Z" fill="#323232"/>
<path d="M100.188 408.594C100.494 388.132 100.768 367.68 101.021 347.217C101.274 326.965 101.526 306.702 101.79 286.45C101.948 274.867 102.106 263.284 102.275 251.69C102.285 250.848 100.968 250.848 100.957 251.69C100.652 272.152 100.378 292.604 100.125 313.067C99.8722 333.319 99.6193 353.582 99.3559 373.834C99.1978 385.417 99.0397 397 98.8712 408.594C98.8606 409.436 100.178 409.436 100.188 408.594Z" fill="#323232"/>
<path d="M99.1338 195.93C100.43 208.018 101.062 220.17 100.999 232.331C100.999 233.173 102.316 233.184 102.316 232.331C102.369 220.17 101.747 208.018 100.451 195.93C100.367 195.099 99.0389 195.088 99.1338 195.93Z" fill="#323232"/>
<path d="M83.4221 195.279C83.0111 197.246 82.9584 199.245 83.2429 201.244C83.2956 201.591 83.7382 201.791 84.0543 201.707C84.4336 201.601 84.5601 201.254 84.5179 200.897C84.2756 199.15 84.3388 197.362 84.6971 195.636C84.7708 195.289 84.5917 194.921 84.2334 194.826C83.9068 194.731 83.4958 194.931 83.4221 195.289V195.279Z" fill="#323232"/>
<path d="M87.2262 195.478C86.8996 197.424 86.8996 199.381 87.2051 201.338C87.2578 201.685 87.7004 201.885 88.0165 201.801C88.3958 201.696 88.5328 201.349 88.4801 200.991C88.2062 199.287 88.2167 197.53 88.5012 195.836C88.5644 195.489 88.4064 195.131 88.0376 195.026C87.7214 194.942 87.2894 195.131 87.2262 195.489V195.478Z" fill="#323232"/>
<path d="M112.125 195.321C112.936 197.277 113.358 199.35 113.347 201.465C113.347 202.306 114.665 202.317 114.665 201.465C114.665 199.245 114.243 197.025 113.39 194.963C113.253 194.637 112.958 194.405 112.578 194.5C112.273 194.584 111.978 194.973 112.115 195.31L112.125 195.321Z" fill="#323232"/>
<path d="M116.721 195.31C117.985 196.909 118.48 199.097 118.069 201.096C117.996 201.443 118.175 201.812 118.533 201.906C118.86 202.001 119.271 201.801 119.344 201.443C119.861 198.95 119.228 196.372 117.658 194.374C117.437 194.089 116.963 194.142 116.731 194.374C116.457 194.647 116.51 195.026 116.731 195.299L116.721 195.31Z" fill="#323232"/>
<path d="M98.1434 48.82C102.685 48.4623 107.321 49.2303 111.515 51.0189C115.456 52.7021 119.049 55.3428 121.42 58.9093C123.791 62.4758 124.834 66.9997 123.791 71.1448C122.937 74.5534 120.724 77.6886 120.84 81.192C120.977 85.2424 124.149 88.4933 127.299 91.0498C130.45 93.6063 133.232 96.4994 135.371 99.9502C136.983 102.538 136.403 105.81 137.257 108.661C138.005 111.144 140.25 112.88 141.567 115.11C144.865 120.728 143.337 128.03 140.091 133.679C140.091 133.679 129.849 138.235 124.602 140.076C124.602 140.076 124.897 130.66 120.766 127.104C116.636 123.548 98.1328 112.48 98.1328 112.48V48.8095L98.1434 48.82Z" fill="#323232"/>
<path d="M83.308 58.4995C91.8641 47.0215 109.998 48.8942 116.068 61.8555C117.986 65.9586 118.755 71.3556 118.46 78.5517C117.648 98.6145 100.631 98.2989 100.631 98.2989L97.4804 114.68L72.1914 108.315L81.443 88.6094C81.443 88.6094 79.3882 73.6281 80.8213 64.1806C81.1374 62.0765 82.0436 60.1828 83.2975 58.4995H83.308Z" fill="#FFBFBF"/>
<path d="M110.272 68.4416C110.272 69.178 109.734 69.7777 109.07 69.7777C108.407 69.7777 107.869 69.178 107.869 68.4416C107.869 67.7051 108.407 67.1055 109.07 67.1055C109.734 67.1055 110.272 67.7051 110.272 68.4416Z" fill="#323232"/>
<path d="M95.9317 69.7777C96.5951 69.7777 97.1329 69.1795 97.1329 68.4416C97.1329 67.7037 96.5951 67.1055 95.9317 67.1055C95.2683 67.1055 94.7305 67.7037 94.7305 68.4416C94.7305 69.1795 95.2683 69.7777 95.9317 69.7777Z" fill="#323232"/>
<path d="M90.4091 61.6882C91.663 60.9517 93.391 60.5835 94.8346 60.4994C96.1728 60.4152 97.3846 60.815 98.6912 60.9517C99.4499 61.0254 99.6395 59.9418 99.06 59.5946C96.1518 57.8482 92.4533 59.1843 89.9981 61.0043C89.5977 61.2989 89.9454 61.9617 90.3985 61.6987L90.4091 61.6882Z" fill="#323232"/>
<path d="M100.693 78.1731C101.125 80.9189 104.887 81.5923 106.973 80.3929C107.679 79.9931 107.195 78.7201 106.404 79.0357C105.393 79.446 104.402 79.6775 103.328 79.2988C102.495 79.0042 101.821 78.3624 101.136 77.8364C100.904 77.6575 100.662 77.9521 100.704 78.1731H100.693Z" fill="#323232"/>
<path d="M100.177 48.3161C94.6869 46.4014 88.5438 47.9584 83.3596 50.5886C80.4408 52.072 77.6485 53.9341 75.541 56.438C73.7708 58.5421 72.5169 61.0355 71.2946 63.4974C69.0186 68.0633 66.7531 72.6292 64.4771 77.1952C64.4771 77.1952 58.355 86.2639 53.94 88.6626C49.525 91.0613 39.3883 100.688 40.2945 108.999C41.2007 117.31 23.6354 123.223 26.649 134.943C29.6626 146.663 38.5348 141.097 38.5348 141.097C38.5348 141.097 54.2877 112.629 67.4802 114.659C67.4802 114.659 75.4989 116.206 77.3113 111.892C79.1236 107.579 82.8327 99.5725 83.5387 93.5547C84.2447 87.5475 82.8327 72.4925 83.8443 66.7903C84.8453 61.0881 95.7722 53.7237 100.187 50.9463V48.2846L100.177 48.3161Z" fill="#323232"/>
<g opacity="0.2">
<path d="M98.5542 73.5443C98.5542 74.6384 96.8472 75.5222 94.7293 75.5222C92.6113 75.5222 90.9043 74.6384 90.9043 73.5443C90.9043 72.4501 92.6113 71.5664 94.7293 71.5664C96.8472 71.5664 98.5542 72.4501 98.5542 73.5443Z" fill="#323232"/>
</g>
<g opacity="0.2">
<path d="M112.337 75.5222C114.449 75.5222 116.162 74.6366 116.162 73.5443C116.162 72.4519 114.449 71.5664 112.337 71.5664C110.224 71.5664 108.512 72.4519 108.512 73.5443C108.512 74.6366 110.224 75.5222 112.337 75.5222Z" fill="#323232"/>
</g>
<path d="M77.3125 73.5133C74.8574 72.1246 73.2346 72.7769 72.2231 73.5238C71.2115 74.2708 70.5793 75.4596 70.2737 76.68C69.7679 78.7105 70.1684 81.025 71.5909 82.5715C73.0028 84.1181 75.4896 84.6862 77.3125 83.6552V73.5238V73.5133Z" fill="#FFBFBF"/>
<path d="M73.2862 78.8568C73.6339 78.6359 74.4558 78.5201 74.8562 78.5201C75.5306 78.5201 75.9416 78.8568 76.4052 79.2881C76.9426 79.7931 77.8488 79.1514 77.4484 78.478C76.9637 77.668 75.9942 77.1945 75.067 77.2261C74.6244 77.2366 74.1292 77.3734 73.7604 77.6259C73.3284 77.931 73.3178 78.2466 73.1176 78.6885C73.0755 78.7937 73.1703 78.9304 73.2862 78.8568Z" fill="#323232"/>
<path d="M111.695 59.5515C109.451 57.0055 105.52 57.4579 103.866 60.33C101.537 64.3699 103.445 70.9137 105.889 74.4907C106.448 75.3113 107.628 74.6064 107.206 73.7227C105.879 70.8506 104.519 67.9469 104.446 64.7066C104.393 62.4551 104.951 59.825 107.596 59.3305C108.703 59.1201 110.325 59.5304 111.316 60.0354C111.632 60.1932 111.916 59.8145 111.685 59.5515H111.695Z" fill="#323232"/>
<path d="M91.4417 95.3956C94.6134 98.0784 98.7756 99.2462 102.896 98.9201C103.707 98.8569 103.728 97.6471 102.896 97.6365C98.8704 97.605 95.2351 96.7528 91.4944 95.2904C91.4417 95.2694 91.3891 95.3536 91.4417 95.3851V95.3956Z" fill="#323232"/>
<path d="M100.831 49.4102C102.728 48.0426 104.266 46.475 106.563 45.7385C109.155 44.9074 111.494 45.4124 114.044 46.0331C114.582 46.1594 114.908 45.4334 114.424 45.1389C110.135 42.5929 102.411 44.2025 100.704 49.305C100.683 49.3787 100.768 49.4523 100.831 49.4102Z" fill="#323232"/>
<path d="M109.755 40.6777C104.097 40.7619 99.7767 44.6124 98.7757 50.1673C98.6282 50.9879 99.8821 51.3351 100.03 50.5145C100.915 45.5593 104.835 41.814 109.787 40.9302C109.934 40.9092 109.892 40.6777 109.755 40.6777Z" fill="#323232"/>
<path d="M75.8059 58.1735C73.7617 54.5123 69.2624 52.3872 65.1318 53.1236C62.6872 53.5655 60.2637 55.1436 59.642 57.5423C58.9676 60.1619 60.7168 62.9604 63.1192 64.2123C65.5217 65.4643 68.3878 65.4538 71.0642 65.0224C73.7406 64.5911 76.3433 63.781 79.0408 63.5075L75.8164 58.1735H75.8059Z" fill="#323232"/>
<path d="M74.6351 57.5835C72.6436 59.5824 71.1894 62.0758 70.2095 64.7165C70.0198 65.2214 70.8523 65.5791 71.0946 65.0847C72.2853 62.6018 73.6867 60.2978 75.1725 57.9938C75.3832 57.6676 74.909 57.3099 74.6351 57.5835Z" fill="#008BCE"/>
<path d="M123.579 65.2531C127.141 73.1751 118.996 82.0755 124.001 89.5977C126.351 93.1222 130.776 94.1953 133.821 96.9201C139.827 102.275 140.344 110.123 137.046 117.078C136.74 117.73 137.636 118.277 138.026 117.646C142.725 110.008 140.702 100.181 133.431 94.9107C131.029 93.1748 127.815 92.1753 125.834 89.9028C122.663 86.2522 123.674 81.5811 124.464 77.3307C125.255 73.0699 125.876 69.1141 123.758 65.1479C123.695 65.0321 123.527 65.1373 123.579 65.2531Z" fill="#323232"/>
<path d="M70.7997 65.7369C68.1654 72.7016 63.0655 78.4669 56.8486 82.5068C52.286 85.4736 46.596 86.6624 42.4549 90.25C34.2571 97.3619 34.7207 109.261 38.4298 118.508C38.788 119.403 40.2421 119.055 39.9155 118.098C37.5763 111.365 36.2486 104.116 39.2517 97.3724C42.2758 90.5866 47.9026 88.8192 54.0352 85.7366C62.1277 81.6757 68.6817 74.5532 71.5057 65.9263C71.6532 65.4739 70.9683 65.2951 70.7997 65.7369Z" fill="#323232"/>
<path d="M76.6156 110.409C76.6156 110.409 77.6903 99.7306 80.6302 99.2993C83.8545 98.8258 101.81 101.866 103.085 104.086C104.581 106.674 102.484 111.345 102.484 111.345C102.484 111.345 107.658 111.167 110.977 113.271C114.296 115.375 129.217 180.234 125.518 186.399C121.83 192.564 120.776 194.279 120.776 194.279C120.776 194.279 80.8831 197.677 75.172 193.406C69.4609 189.135 74.2026 115.343 74.2026 115.343L76.6156 110.398V110.409Z" fill="white"/>
<path d="M84.1811 99.6353C83.5278 102.56 83.2012 105.548 83.2012 108.536C83.2012 109.377 84.5183 109.388 84.5183 108.536C84.5183 105.653 84.8239 102.791 85.4456 99.9825C85.6247 99.1619 84.3602 98.8042 84.1706 99.6353H84.1811Z" fill="#323232"/>
<path d="M91.5045 101.181C91.6625 103.874 91.5045 106.588 91.0198 109.24C90.8722 110.071 92.1367 110.418 92.2947 109.587C92.8005 106.809 92.9902 103.99 92.8321 101.17C92.7795 100.329 91.4623 100.329 91.515 101.17L91.5045 101.181Z" fill="#323232"/>
<path d="M98.7232 102.708C98.8813 105.401 98.7232 108.116 98.2385 110.767C98.091 111.598 99.3554 111.945 99.5135 111.114C100.019 108.337 100.209 105.517 100.051 102.698C99.9982 101.856 98.6811 101.856 98.7337 102.698L98.7232 102.708Z" fill="#323232"/>
<path d="M133.413 125.591C133.413 125.591 125.742 113.187 115.563 111.893C106.712 110.768 144.476 200.845 144.476 200.845C144.476 200.845 153.854 199.54 154.645 185.495C155.425 171.44 140.188 137.816 133.413 125.581V125.591Z" fill="#008BCE"/>
<path d="M129.892 248.987C129.892 248.987 106.289 114.923 102.906 110.756C102.906 110.756 114.265 110.567 117.384 112.65C120.514 114.733 142.926 195.91 145.529 213.343C148.131 230.776 142.136 239.36 142.136 239.36C142.136 239.36 143.906 244.673 142.336 246.493C140.777 248.313 129.881 248.987 129.881 248.987H129.892Z" fill="#008BCE"/>
<path d="M43.109 191.744C43.109 191.744 36.5971 228.166 44.6685 238.318C44.6685 238.318 42.5822 243.263 47.0183 246.64C51.4439 250.028 69.1673 256.267 74.1197 249.765C79.0721 243.263 78.8087 192.007 80.895 179.256C82.9814 166.505 79.2723 110.682 76.6591 108.336C74.0565 105.99 52.8453 111.23 49.2522 118.92C45.933 126.022 43.0985 191.744 43.0985 191.744H43.109Z" fill="#008BCE"/>
<path d="M109.735 163.39C109.735 163.39 116.837 172.491 117.922 173.09C119.008 173.69 128.828 165.705 128.828 165.705L123.18 158.898C123.18 158.898 127.322 153.848 124.529 153.901C121.242 153.964 110.283 161.097 109.725 163.39H109.735Z" fill="#FFBFBF"/>
<path d="M113.78 132.533C111.556 134.205 88.4381 162.264 90.6825 164.484C92.9269 166.704 108.627 167.871 111.188 165.189C113.422 162.853 135.181 137.298 136.118 135.605C137.32 133.406 116.014 130.86 113.78 132.533Z" fill="#323232"/>
<path d="M68.6602 171.208C68.8182 170.924 81.273 151.808 87.5531 146.148C93.8332 140.487 98.8594 138.92 101.978 140.077C105.097 141.234 105.582 141.971 105.582 141.971L102.421 145.622C102.421 145.622 100.124 144.506 99.7762 144.538C99.4179 144.569 97.4264 146.042 97.4264 146.042C97.4264 146.042 108.501 144.569 109.586 146.937C110.672 149.304 106.552 151.061 106.372 151.071C106.193 151.082 108.954 153.344 106.678 154.774C104.402 156.205 102.516 156.005 102.516 156.005C102.516 156.005 103.97 157.878 101.515 159.235C99.0491 160.592 90.8302 160.761 90.3033 160.813C89.7765 160.855 91.2833 167.662 83.3383 170.44C83.3383 170.44 79.0181 182.244 76.858 181.897C74.6979 181.539 68.6918 171.218 68.6918 171.218L68.6602 171.208Z" fill="#FFBFBF"/>
<path d="M133.222 137.688C133.222 137.688 135.666 136.941 136.003 138.54C136.341 140.139 130.598 147.725 130.598 147.725C130.598 147.725 130.672 151.028 127.953 151.796C127.953 151.796 128.037 154.5 125.919 155.078C125.919 155.078 126.309 156.551 123.844 157.866C121.378 159.182 117.521 162.611 117.521 162.611L115.477 160.318L119.007 156.436C119.007 156.436 114.982 153.742 115.056 152.185C115.129 150.618 117.448 148.829 122.484 152.122C122.484 152.122 115.983 149.176 117.026 146.788C117.026 146.788 118.638 143.611 121.915 146.336C121.915 146.336 120.777 143.117 127.879 145.736C127.879 145.736 130.324 139.782 133.222 137.688Z" fill="#FFBFBF"/>
<path d="M80.4522 168.608C79.683 166.599 75.4155 162.612 72.0226 162.117C70.7687 161.938 69.441 162.117 68.6507 162.612C66.7646 163.779 64.1408 165.252 64.1408 165.252C64.1408 165.252 68.8931 139.74 66.596 130.261C64.2989 120.771 53.8883 115.479 52.0864 115.816C50.2846 116.142 39.621 127.41 32.6982 155.289C28.5466 172.028 22.0557 200.265 42.034 203.695C62.0123 207.124 73.4767 195.194 77.7442 187.019C81.1372 180.507 82.4543 173.848 80.4522 168.629V168.608Z" fill="#008BCE"/>
<g opacity="0.3">
<path d="M123.359 184.788C123.38 184.578 123.443 184.41 123.517 184.262L125.614 186.04C124.286 186.261 123.886 186.009 123.359 184.778V184.788ZM122.084 186.472C119.966 186.693 120.082 189.249 122.21 189.323C122.864 189.06 122.79 188.418 123.043 187.966C122.811 187.264 122.491 186.766 122.084 186.472ZM124.887 192.416C125.677 192.195 125.951 191.49 126.299 190.838C125.487 189.007 123.949 189.775 123.369 191.248C123.805 191.76 124.311 192.146 124.887 192.405V192.416ZM128.828 194.836C129.217 193.626 129.534 193.037 128.058 192.468C126.773 193.026 126.636 193.247 126.699 194.531C127.275 194.888 127.985 194.99 128.828 194.836ZM136.825 213.794C136.678 214.404 136.393 214.783 135.877 215.077C136.751 215.098 137.531 215.014 138.237 214.856C138.1 214.372 137.679 213.952 136.825 213.794ZM134.275 198.76C132.358 199.454 132.041 200.99 134.191 201.527C135.698 200.696 135.698 199.728 134.275 198.76ZM125.867 208.344C125.972 208.523 126.077 208.691 126.183 208.86C126.12 208.66 126.014 208.481 125.867 208.344ZM123.549 203.221C125.551 206.556 127.626 202.316 124.507 201.642C124.202 202.158 123.886 202.673 123.549 203.221ZM123.306 199.654C122.948 199.296 122.569 198.918 122.168 198.528C122.021 198.623 121.852 198.665 121.683 198.707C121.947 199.507 122.221 200.296 122.505 201.085C122.969 200.811 123.338 200.275 123.306 199.654ZM130.924 201.59C128.564 202.389 129.839 205.64 131.873 203.662C131.947 203.399 132.01 203.157 132.073 202.926C131.873 202.337 131.493 201.916 130.914 201.59H130.924ZM140.081 207.597C140.787 207.113 141.651 206.819 141.177 205.724C140.713 205.304 140.092 205.009 139.47 204.904C138.163 205.451 138.954 207.187 140.071 207.597H140.081ZM132.705 206.471C132.927 207.892 135.35 207.46 134.95 205.977C135.181 203.999 132.263 204.893 132.695 206.471H132.705ZM134.908 212.868C136.109 211.122 133.569 210.29 132.579 211.984C132.589 213.205 134.202 213.973 134.908 212.868ZM129.059 199.212C127.711 198.002 127.152 198.96 126.678 200.317C127.669 202.137 129.586 200.654 129.059 199.212ZM135.814 196.393C135.698 197.823 136.646 199.002 137.953 197.823V196.54L137.068 195.782C136.699 195.719 136.435 195.909 135.824 196.393H135.814ZM119.966 184.746C119.797 184.41 119.618 184.084 119.407 183.673C118.67 183.631 118.227 183.631 117.964 183.673C118.111 184.473 118.269 185.336 118.459 186.261C119.313 186.682 119.66 185.588 119.966 184.736V184.746ZM129.923 209.154C129.07 210.396 131.451 210.49 132.01 209.796V208.344C130.777 207.523 130.05 207.629 129.923 209.154ZM129.702 191.248C129.966 192.374 131.409 192.553 132.178 191.711C132.178 191.679 132.178 191.658 132.178 191.627L130.345 190.059C130.082 190.27 129.85 190.659 129.713 191.248H129.702ZM127.795 211.111C128.269 211.69 128.764 212.205 129.27 212.668C129.217 211.458 128.49 210.901 127.795 211.111ZM126.752 187.061V188.365C127.121 189.123 128.311 189.47 128.891 188.828L126.783 187.04C126.783 187.04 126.762 187.05 126.752 187.061ZM120.567 193.478C120.791 194.278 121.195 194.909 121.778 195.372C123.454 194.583 123.38 193.205 121.568 192.647C121.273 192.931 120.893 193.236 120.567 193.478ZM137.89 202.484C136.825 201.969 136.13 201.348 135.772 202.915C135.35 205.661 139.333 203.41 137.89 202.484ZM141.525 212.195C140.65 210.795 139.449 210.48 138.796 212.153C139.607 213.468 140.903 213.878 141.525 212.195ZM132.832 193.794C132.969 194.152 133.106 194.531 133.243 194.899C133.485 195.004 133.717 195.109 133.98 195.214C134.634 194.825 135.129 194.604 135.308 194.299L133.759 192.984C133.306 193.037 132.927 193.215 132.832 193.794ZM119.207 189.681C119.344 190.291 119.492 190.911 119.65 191.543C119.871 191.238 120.008 190.838 120.008 190.364C119.734 189.923 119.471 189.723 119.207 189.67V189.681ZM127.289 204.935C127.1 205.209 126.878 205.504 126.678 205.788C126.847 206.198 126.994 206.566 127.173 207.008C129.428 207.892 129.65 204.052 127.289 204.925V204.935ZM131.483 214.173C131.304 214.046 131.146 213.973 130.998 213.941C131.156 214.025 131.314 214.099 131.483 214.173ZM126.32 196.414C125.414 196.067 124.813 195.32 123.896 196.193C123.485 198.118 125.287 198.171 126.362 197.255C126.351 196.992 126.33 196.708 126.32 196.414ZM129.818 196.298C129.386 197.161 129.786 197.845 130.946 198.255C132.747 196.982 131.62 195.046 129.818 196.298ZM118.227 179.77L117.764 179.381C117.932 179.57 118.08 179.696 118.227 179.77ZM142.241 203.063C141.567 204.052 143.032 204.714 143.706 203.999C143.738 203.936 143.748 203.883 143.78 203.831C143.685 203.2 143.59 202.547 143.516 202.042C142.547 201.569 142.515 201.99 142.252 203.073L142.241 203.063ZM137.057 208.155C135.192 208.965 135.909 211.195 137.995 209.996C138.005 209.238 138.163 207.902 137.057 208.155ZM120.609 181.801C120.682 182.4 121.273 182.779 121.863 182.863L120.609 181.79V181.801ZM143.706 208.449C142.968 207.502 141.82 208.744 142.104 209.691C142.505 210.227 142.968 210.375 143.358 210.29C143.58 209.733 143.738 209.175 143.853 208.66C143.811 208.586 143.769 208.523 143.706 208.449ZM140.503 199.338C140.334 199.307 140.007 199.433 139.976 199.549C139.733 200.096 139.164 200.254 139.038 200.885C140.313 202.221 141.957 200.096 140.503 199.349V199.338Z" fill="#323232"/>
</g>
<path d="M115.994 177.035C116.11 177.593 132.295 204.967 145.192 200.686C158.079 196.404 147.711 168.303 143.717 165.789C139.724 163.274 129.018 164.105 127.501 164.074C125.393 164.021 114.213 168.408 115.994 177.035Z" fill="#008BCE"/>
<path d="M107.101 150.566C102.359 149.325 96.9221 149.809 92.1382 150.619C91.348 150.756 91.5166 152.123 92.3279 152.029C97.2171 151.482 102.148 151.639 107.017 151.134C107.322 151.103 107.438 150.651 107.09 150.566H107.101Z" fill="#323232"/>
<path d="M102.928 155.699C98.7234 154.584 94.3084 154.889 90.0725 155.699C89.1347 155.878 89.5245 157.319 90.4729 157.14C94.6139 156.351 98.6496 156.383 102.843 156.33C103.202 156.33 103.286 155.794 102.928 155.699Z" fill="#323232"/>
<path d="M93.7605 147.358C97.5854 146.621 101.252 145.906 105.162 145.811C105.783 145.801 105.773 144.896 105.162 144.854C101.242 144.58 97.0586 145.012 93.4549 146.621C93.0123 146.821 93.3495 147.431 93.7605 147.347V147.358Z" fill="#323232"/>
<path d="M119.482 145.716C121.147 146.063 122.674 147.031 124.034 148.03C125.393 149.03 126.742 150.208 127.701 151.608C128.175 152.302 129.323 151.639 128.839 150.945C127.764 149.388 126.31 148.094 124.803 146.968C123.338 145.874 121.642 144.832 119.829 144.443C119.008 144.264 118.649 145.537 119.482 145.716Z" fill="#323232"/>
<path d="M127.12 146.095C127.12 146.095 127.204 146.126 127.246 146.147C127.341 146.189 127.109 146.084 127.267 146.147C127.341 146.179 127.415 146.221 127.499 146.252C127.657 146.326 127.815 146.41 127.963 146.494C128.268 146.673 128.563 146.863 128.837 147.073C128.784 147.031 128.784 147.031 128.837 147.073C128.869 147.105 128.911 147.136 128.942 147.157C129.006 147.21 129.069 147.262 129.132 147.315C129.259 147.431 129.396 147.557 129.511 147.673C129.638 147.799 129.754 147.925 129.87 148.062C129.933 148.136 129.986 148.199 130.049 148.272C130.08 148.314 130.091 148.325 130.049 148.272C130.08 148.314 130.112 148.357 130.144 148.409C130.344 148.683 130.723 148.851 131.05 148.641C131.324 148.462 131.503 148.041 131.282 147.736C130.302 146.4 129.006 145.4 127.467 144.79C127.151 144.664 126.73 144.927 126.656 145.253C126.572 145.632 126.772 145.926 127.12 146.063V146.095Z" fill="#323232"/>
<path d="M119.356 151.25C120.6 151.755 121.769 152.512 122.781 153.396C123.624 154.132 124.393 154.932 124.857 155.931C125.004 156.257 125.468 156.331 125.763 156.163C126.09 155.973 126.153 155.584 125.995 155.258C125.479 154.143 124.562 153.185 123.645 152.396C122.465 151.376 121.148 150.555 119.704 149.977C119.378 149.84 118.977 150.124 118.893 150.44C118.787 150.818 119.019 151.113 119.356 151.25Z" fill="#323232"/>
<path d="M116.532 155.962C117.101 156.341 117.68 156.709 118.239 157.088C118.534 157.288 118.829 157.488 119.113 157.709C119.145 157.73 119.177 157.761 119.208 157.782C119.229 157.803 119.366 157.887 119.229 157.793C119.292 157.835 119.356 157.887 119.408 157.94C119.524 158.035 119.651 158.14 119.767 158.245C120.019 158.477 120.452 158.508 120.694 158.245C120.926 157.993 120.957 157.572 120.694 157.319C119.651 156.341 118.365 155.615 117.185 154.826C116.901 154.637 116.447 154.763 116.279 155.057C116.1 155.384 116.205 155.752 116.511 155.962H116.532Z" fill="#323232"/>
<path d="M119.156 162.39C120.537 161.243 121.97 160.17 123.466 159.181C124.14 158.729 124.889 158.318 125.405 157.677C125.921 157.035 126.206 156.141 125.89 155.351C125.763 155.025 125.447 154.794 125.078 154.889C124.762 154.973 124.488 155.362 124.615 155.699C124.857 156.298 124.478 156.814 124.035 157.193C123.477 157.677 122.792 158.034 122.191 158.445C120.821 159.381 119.504 160.38 118.229 161.443C117.955 161.674 117.997 162.137 118.229 162.369C118.503 162.642 118.882 162.6 119.156 162.369V162.39Z" fill="#323232"/>
<path d="M44.0468 176.088C53.8463 170.333 61.7702 163.821 73.6034 162.748C74.4358 162.674 74.4674 161.401 73.6034 161.422C62.4867 161.748 51.7389 168.345 43.7413 175.688C43.5305 175.888 43.8045 176.225 44.0468 176.088Z" fill="#323232"/>
<path d="M35.6083 201.296C49.3697 210.249 67.072 203.253 75.9653 190.459C79.1159 185.936 82.8671 177.866 82.0347 172.28C81.4657 168.471 78.1149 161.538 73.584 161.549C72.8569 161.549 72.8885 162.58 73.584 162.654C79.3372 163.264 81.1074 173.153 80.0221 177.298C78.5996 182.737 75.9548 188.587 72.0561 192.658C62.4779 202.642 48.6111 208.071 35.7347 201.075C35.5872 200.991 35.4608 201.212 35.5978 201.306L35.6083 201.296Z" fill="#323232"/>
<path d="M116.13 171.595C114.613 175.614 116.509 178.486 118.996 181.664C122.969 186.735 127.078 191.837 131.377 196.624C136.582 202.421 144.159 204.115 150.291 198.581C150.839 198.086 150.038 197.329 149.49 197.781C142.03 204.062 134.96 199.202 129.881 192.921C125.887 187.997 115.234 178.581 116.973 171.827C117.12 171.269 116.32 171.069 116.13 171.595Z" fill="#323232"/>
<path d="M48.0406 125.001C54.5947 131.429 59.8211 139.078 63.4142 147.515C63.7409 148.294 64.8789 147.621 64.5522 146.853C60.9064 138.32 55.6063 130.567 48.9679 124.075C48.3673 123.486 47.4295 124.412 48.0406 125.001Z" fill="#323232"/>
<path d="M127.11 164.221C135.14 164.453 141.272 168.051 148.248 171.544C148.975 171.901 149.554 170.912 148.88 170.46C142.537 166.262 134.866 162.506 127.089 164.042C126.984 164.063 127.015 164.221 127.11 164.221Z" fill="#323232"/>
<path d="M132.927 164.483C136.436 163.715 139.755 163.947 143.274 164.431C143.833 164.504 144.054 163.779 143.506 163.579C139.997 162.285 136.193 162.832 132.874 164.357C132.79 164.389 132.853 164.504 132.927 164.494V164.483Z" fill="#323232"/>
<g opacity="0.3">
<path d="M65.0691 203.433C65.0902 203.717 65.2167 204.054 64.8689 204.212C63.3832 204.874 62.3506 203.465 62.6456 202.034C63.183 202.129 63.7099 201.95 64.1524 201.624C64.9954 201.792 65.7224 202.676 65.0691 203.433ZM47.1666 216.047C47.2509 214.343 47.1666 214.185 45.9759 213.712C45.5018 214.133 45.0171 214.553 44.5429 214.974C44.7852 215.5 44.9854 215.932 45.1751 216.331C45.9549 216.142 46.5344 216.668 47.1666 216.058V216.047ZM47.5249 212.165C47.6829 212.828 48.0728 213.207 48.7999 213.375C52.5932 212.649 48.979 209.251 47.5249 212.165ZM52.0769 207.873C50.5174 207.673 50.2435 210.019 51.5817 210.366C53.1622 210.882 54.1211 207.768 52.0769 207.873ZM41.4134 209.062C41.2975 208.841 41.15 208.662 40.9814 208.515L40.9076 209.882C41.1394 209.703 41.3291 209.44 41.4028 209.072L41.4134 209.062ZM52.825 216.437C53.0779 216.1 53.2992 215.805 53.5416 215.49C52.6881 211.281 48.7893 216.889 52.825 216.437ZM46.7768 204.275C46.8294 204.222 46.8821 204.159 46.9243 204.106C46.3763 204.054 45.8179 203.991 45.27 203.917C45.3542 204.033 45.428 204.148 45.5123 204.275H46.7873H46.7768ZM55.7544 207.294C55.944 206.8 56.1231 206.337 56.3128 205.842C54.1843 202.676 52.1717 208.073 55.7544 207.294ZM73.3091 192.555C72.0552 192.713 71.5178 194.585 72.5926 195.132C75.0161 195.458 74.8792 193.807 73.3091 192.555ZM62.182 206.915C63.046 204.895 61.2336 203.917 59.8954 205.769C60.2115 206.936 61.0861 207.957 62.182 206.915ZM57.1031 215.605C57.9777 217.341 59.7479 216.089 59.4845 214.406C58.6099 213.333 56.924 214.311 57.1031 215.605ZM59.3053 203.633C59.3686 203.402 59.4318 203.16 59.5056 202.928C59.3896 202.718 59.2421 202.549 59.0946 202.423C58.3254 202.739 57.5667 203.023 56.8186 203.244C56.8186 203.37 56.8186 203.486 56.8186 203.633C57.7142 204.022 58.5994 204.138 59.3053 203.633ZM55.7122 213.375C57.2928 212.439 56.1653 211.071 54.6269 210.955C54.2792 211.397 53.7839 211.66 53.5837 212.165C54.1527 212.954 54.7428 213.291 55.7122 213.386V213.375ZM74.8581 197.142C75.0794 197.331 75.248 197.489 75.406 197.636C75.4903 197.205 75.5641 196.784 75.6273 196.363C75.406 196.637 75.1953 196.942 74.8581 197.142ZM70.0321 207.862C69.7265 208.041 69.3683 208.23 68.8836 208.504C69.2524 209.219 69.5474 209.882 69.853 210.261C70.3166 209.693 70.7486 209.114 71.1385 208.536C70.8645 208.209 70.6538 208.115 70.0321 207.862ZM71.7286 197.257C71.5389 196.784 71.3387 196.3 71.1596 195.837C70.3377 195.669 69.6633 195.648 69.305 196.447C69.3893 196.921 69.4631 197.363 69.5579 197.889C70.7276 198.478 70.8645 198.436 71.7286 197.257ZM49.1581 204.748C48.4416 205.169 47.1561 205.695 48.0412 206.537C48.5048 206.873 49.0001 207.61 49.5902 207.199C50.9705 206.379 50.4647 205.327 49.1581 204.759V204.748ZM42.9729 207.568C43.9107 206.779 43.9634 206.631 43.8474 205.211C43.3733 205.095 42.8675 204.969 42.3723 204.843C42.1088 205.211 41.8981 205.516 41.7506 205.727C41.8138 206.305 41.8665 206.779 41.9192 207.263C42.2774 207.368 42.6251 207.462 42.9729 207.568ZM41.2448 203.338C41.2448 203.338 41.2975 203.286 41.3185 203.244C41.2975 203.244 41.2764 203.244 41.2448 203.233V203.338ZM48.0412 217.31C48.6207 217.394 49.2108 217.468 49.8114 217.531C49.4426 216.91 48.5997 216.889 48.0412 217.31ZM63.5834 214.248C62.751 215.29 62.7615 215.5 63.2673 215.847C64.0892 215.479 64.8268 215.069 65.4379 214.595C64.9216 213.996 64.2262 214.164 63.5834 214.248ZM71.6232 203.528C71.149 201.844 70.2323 201.329 69.0311 202.802C69.0732 204.369 70.7802 204.843 71.6232 203.528ZM57.6299 208.052C57.2612 208.304 56.9134 208.546 56.5552 208.799C57.4719 210.208 58.3781 210.955 59.5688 209.482C59.3159 208.462 58.6942 208.02 57.6194 208.062L57.6299 208.052ZM42.6884 213.649C43.6262 213.491 44.0055 212.681 44.1425 211.702C43.9212 211.471 43.6367 211.176 43.3522 210.882C42.6041 211.25 41.719 211.124 41.5293 212.039C41.9297 212.597 42.288 213.08 42.6884 213.649ZM62.3295 200.792C62.0661 200.95 61.7921 201.098 61.5287 201.234C61.8342 201.213 62.1187 201.098 62.34 200.834C62.34 200.824 62.34 200.803 62.3295 200.792ZM72.4346 201.445C73.0457 201.255 73.6147 201.066 74.2153 200.877C74.2364 200.445 74.3628 200.119 74.6579 199.772C74.2575 199.404 73.8992 199.067 73.562 198.751C72.3186 198.899 71.7075 199.635 72.6558 200.635C72.6031 200.982 72.1395 201.129 72.4346 201.445ZM46.6292 210.282C47.5038 208.136 46.3658 207.042 44.5007 208.746C44.722 208.967 44.9222 209.156 45.1119 209.346C45.0803 209.619 45.0592 209.882 45.0171 210.219C45.5755 210.24 46.0286 210.492 46.6187 210.282H46.6292ZM53.9525 217.657C54.6163 217.636 55.2802 217.604 55.9335 217.541C55.4277 216.773 54.3635 216.71 53.9525 217.657ZM72.2344 206.779C72.5399 206.242 72.8139 205.695 73.0668 205.158C72.3924 205.337 71.8761 205.958 72.2344 206.779ZM68.6834 200.34C67.8931 198.552 65.5855 198.857 66.0491 200.708C66.3547 200.866 66.7235 201.066 67.0817 201.245C67.6613 200.961 68.3672 200.982 68.6834 200.33V200.34ZM62.9301 209.409C63.32 210.482 64.5634 210.713 65.0375 209.756C64.7214 209.283 65.3747 209.03 65.301 208.641C64.2156 207.736 63.6677 207.915 62.9301 209.409ZM66.5865 205.148C66.1861 205.832 65.7857 206.463 66.4706 207.294C66.7761 207.157 67.029 207.042 67.2503 206.936C67.5137 207.084 67.577 207.336 67.8509 207.242C68.9152 205.948 68.1986 204.853 66.5865 205.148ZM40.6969 214.206L40.6758 214.543C40.7917 214.648 40.9497 214.732 41.0762 214.837C41.0446 214.627 40.9287 214.417 40.6969 214.217V214.206ZM67.2292 211.355C66.9658 211.408 66.7129 210.997 66.4495 211.334C66.6813 211.913 66.5338 212.481 66.2388 212.986C66.4073 213.291 66.6286 213.386 66.8604 213.417C67.3241 212.996 67.7666 212.575 68.1881 212.144C68.146 211.807 68.0827 211.46 68.0827 211.176C67.7666 211.25 67.5032 211.302 67.2292 211.366V211.355ZM61.0229 213.585C61.4655 213.165 61.908 212.744 62.4138 212.26C61.9185 210.387 60.6857 211.881 59.8849 212.639C60.1167 213.175 60.5066 213.438 61.0229 213.585ZM75.1004 190.977C75.3428 191.261 75.5325 191.482 75.701 191.671C75.8802 191.671 76.0698 191.682 76.2384 191.692C76.3227 190.998 76.4176 190.335 76.5124 189.704C75.6168 189.493 75.2163 190.198 75.0899 190.977H75.1004Z" fill="#323232"/>
</g>
<path d="M44.6891 238.203C52.3917 244.516 64.9519 246.978 74.6987 246.367C75.5627 246.315 75.5522 245.094 74.6987 245.031C69.2405 244.642 63.9298 244.19 58.6296 242.738C53.909 241.444 49.5994 239.203 44.9841 237.688C44.6996 237.593 44.4467 238.003 44.6891 238.203Z" fill="#323232"/>
<path d="M128.974 242.568C133.547 242.926 137.984 241.674 141.861 239.265C142.567 238.823 141.935 237.718 141.208 238.139C137.383 240.327 133.368 241.337 128.974 241.547C128.311 241.579 128.321 242.515 128.974 242.568Z" fill="#323232"/>
</g>
<defs>
<clipPath id="clip0_2518_21440">
<rect width="412" height="454" fill="white"/>
</clipPath>
</defs>
</svg>
