<svg width="410" height="448" viewBox="0 0 410 448" fill="none" xmlns="http://www.w3.org/2000/svg">
<g clip-path="url(#clip0_2518_21332)">
<path d="M259.984 63.0781H70.5597C64.2596 63.0781 59.1523 68.1896 59.1523 74.4949V290.272C59.1523 296.578 64.2596 301.689 70.5597 301.689H259.984C266.284 301.689 271.391 296.578 271.391 290.272V74.4949C271.391 68.1896 266.284 63.0781 259.984 63.0781Z" fill="white"/>
<path d="M259.985 302.092H70.5605C64.0493 302.092 58.75 296.788 58.75 290.272V74.494C58.75 67.9774 64.0493 62.6738 70.5605 62.6738H259.985C266.496 62.6738 271.795 67.9774 271.795 74.494V290.272C271.795 296.788 266.496 302.092 259.985 302.092ZM70.5605 63.4807C64.4927 63.4807 59.5562 68.4212 59.5562 74.494V290.272C59.5562 296.344 64.4927 301.285 70.5605 301.285H259.985C266.053 301.285 270.989 296.344 270.989 290.272V74.494C270.989 68.4212 266.053 63.4807 259.985 63.4807H70.5605Z" fill="#292929"/>
<path d="M271.392 87.2834H59.1531C58.93 87.2834 58.75 87.1032 58.75 86.88C58.75 86.6568 58.93 86.4766 59.1531 86.4766H271.392C271.615 86.4766 271.795 86.6568 271.795 86.88C271.795 87.1032 271.615 87.2834 271.392 87.2834Z" fill="#292929"/>
<path d="M74.7277 75.931C75.7132 75.931 76.512 75.1314 76.512 74.1452C76.512 73.1589 75.7132 72.3594 74.7277 72.3594C73.7422 72.3594 72.9434 73.1589 72.9434 74.1452C72.9434 75.1314 73.7422 75.931 74.7277 75.931Z" fill="#292929"/>
<path d="M82.339 75.931C83.3245 75.931 84.1234 75.1314 84.1234 74.1452C84.1234 73.1589 83.3245 72.3594 82.339 72.3594C81.3536 72.3594 80.5547 73.1589 80.5547 74.1452C80.5547 75.1314 81.3536 75.931 82.339 75.931Z" fill="#292929"/>
<path d="M89.9484 75.931C90.9339 75.931 91.7327 75.1314 91.7327 74.1452C91.7327 73.1589 90.9339 72.3594 89.9484 72.3594C88.9629 72.3594 88.1641 73.1589 88.1641 74.1452C88.1641 75.1314 88.9629 75.931 89.9484 75.931Z" fill="#292929"/>
<path d="M210.417 301.689H120.125V310.594H210.417V301.689Z" fill="#292929"/>
<path d="M165.272 419C165.049 419 164.869 418.819 164.869 418.596V309.13C164.869 308.907 165.049 308.727 165.272 308.727C165.495 308.727 165.675 308.907 165.675 309.13V418.596C165.675 418.819 165.495 419 165.272 419Z" fill="#292929"/>
<path d="M119.411 418.999C119.379 418.999 119.349 418.997 119.317 418.989C119.099 418.938 118.968 418.72 119.019 418.502L144.83 310.41C144.881 310.192 145.099 310.058 145.316 310.111C145.534 310.163 145.666 310.38 145.615 310.598L119.803 418.69C119.76 418.876 119.594 418.999 119.411 418.999Z" fill="#292929"/>
<path d="M211.13 419C210.948 419 210.784 418.877 210.738 418.691L184.927 310.599C184.876 310.381 185.008 310.164 185.225 310.112C185.443 310.061 185.658 310.196 185.712 310.411L211.523 418.503C211.574 418.721 211.442 418.938 211.224 418.99C211.192 418.998 211.163 419 211.13 419Z" fill="#292929"/>
<path d="M221.904 222.137C221.904 249.618 199.642 271.895 172.187 271.895C163.862 271.895 156.01 269.845 149.111 266.223C157.496 251.587 165.88 236.948 174.264 222.309C174.256 222.282 174.248 222.25 174.24 222.223C169.723 206.052 165.211 189.888 160.693 173.716C164.383 172.84 168.228 172.377 172.187 172.377C199.645 172.377 221.904 194.656 221.904 222.135V222.137Z" fill="#E10060"/>
<path d="M172.184 272.298C164.09 272.298 156.044 270.321 148.923 266.58C148.826 266.529 148.754 266.44 148.724 266.336C148.695 266.231 148.708 266.118 148.762 266.021L173.831 222.255C171.571 214.163 169.309 206.065 167.049 197.964C164.802 189.917 162.556 181.873 160.306 173.824C160.277 173.719 160.293 173.606 160.347 173.509C160.403 173.415 160.494 173.348 160.602 173.321C164.367 172.425 168.266 171.971 172.187 171.971C199.822 171.971 222.307 194.473 222.307 222.132C222.307 249.79 199.822 272.293 172.187 272.293L172.184 272.298ZM149.67 266.059C156.585 269.614 164.361 271.491 172.187 271.491C199.379 271.491 221.5 249.352 221.5 222.137C221.5 194.923 199.379 172.783 172.187 172.783C168.47 172.783 164.775 173.197 161.196 174.015C163.407 181.927 165.616 189.837 167.825 197.749C170.093 205.871 172.361 213.993 174.629 222.116L174.64 222.153C174.646 222.175 174.654 222.196 174.656 222.215C174.681 222.315 174.667 222.422 174.613 222.511L149.67 266.059Z" fill="#292929"/>
<path d="M166.616 217.368C152.901 227.588 139.18 237.803 125.464 248.017C118.813 239.556 114.844 228.885 114.844 217.282C114.844 193.763 131.153 174.052 153.07 168.861C157.587 185.033 162.099 201.197 166.616 217.368Z" fill="white"/>
<path d="M125.465 248.422C125.346 248.422 125.228 248.368 125.147 248.268C118.144 239.361 114.441 228.646 114.441 217.283C114.441 205.92 118.238 194.923 125.424 185.948C132.4 177.235 142.185 171.027 152.977 168.472C153.186 168.421 153.398 168.548 153.458 168.757C155.763 177.014 158.069 185.268 160.375 193.522C162.584 201.434 164.792 209.347 167.004 217.262C167.05 217.423 166.991 217.595 166.856 217.695C157.4 224.741 147.941 231.785 138.482 238.828L125.704 248.344C125.631 248.397 125.548 248.424 125.465 248.424V248.422ZM152.788 169.346C130.664 174.766 115.25 194.42 115.25 217.283C115.25 228.331 118.808 238.758 125.542 247.462L138.003 238.18C147.387 231.19 156.774 224.203 166.158 217.213C163.97 209.387 161.785 201.563 159.601 193.74C157.33 185.609 155.062 177.482 152.788 169.349V169.346Z" fill="#292929"/>
<path d="M168.72 220.231C160.335 234.867 151.951 249.505 143.567 264.144C137.327 260.863 131.867 256.296 127.543 250.794C141.259 240.579 154.98 230.362 168.696 220.145C168.704 220.171 168.712 220.204 168.72 220.231Z" fill="#292929"/>
<path d="M143.568 264.545C143.504 264.545 143.442 264.529 143.38 264.5C137.162 261.229 131.575 256.576 127.227 251.041C127.16 250.955 127.13 250.848 127.144 250.74C127.157 250.633 127.216 250.536 127.302 250.471L139.857 241.123C149.389 234.023 158.923 226.925 168.455 219.822C168.562 219.742 168.705 219.72 168.831 219.766C168.957 219.812 169.054 219.916 169.086 220.048L169.111 220.134C169.135 220.236 169.121 220.341 169.07 220.433L143.918 264.346C143.842 264.475 143.708 264.548 143.568 264.548V264.545ZM128.119 250.867C132.279 256.068 137.554 260.46 143.412 263.601L167.514 221.527C158.456 228.275 149.4 235.02 140.341 241.766L128.119 250.867Z" fill="#292929"/>
<path d="M179.457 225.647L180.443 224.577C181.376 225.491 182.671 226.097 184.015 226.097C185.713 226.097 186.721 225.295 186.721 224.104C186.721 222.85 185.783 222.452 184.56 221.947L182.701 221.169C181.494 220.683 180.078 219.817 180.078 218.012C180.078 216.207 181.8 214.758 184.154 214.758C185.689 214.758 187.057 215.387 187.968 216.277L187.094 217.281C186.301 216.571 185.353 216.132 184.154 216.132C182.703 216.132 181.741 216.826 181.741 217.923C181.741 219.104 182.87 219.545 183.886 219.951L185.732 220.707C187.231 221.317 188.4 222.162 188.4 223.985C188.4 225.922 186.71 227.471 183.988 227.471C182.171 227.471 180.591 226.769 179.457 225.65V225.647Z" fill="white"/>
<path d="M191.328 214.98H198.791V216.301H192.975V220.144H197.882V221.465H192.975V225.921H198.989V227.242H191.328V214.98Z" fill="white"/>
<path d="M201.371 221.067C201.371 217.141 203.653 214.758 206.907 214.758C210.161 214.758 212.44 217.149 212.44 221.067C212.44 224.986 210.158 227.465 206.907 227.465C203.655 227.465 201.371 224.994 201.371 221.067ZM210.736 221.067C210.736 218.012 209.215 216.129 206.904 216.129C204.593 216.129 203.072 218.015 203.072 221.067C203.072 224.12 204.593 226.094 206.904 226.094C209.215 226.094 210.736 224.12 210.736 221.067Z" fill="white"/>
<path d="M120.91 193.238C120.791 193.238 120.673 193.187 120.595 193.088L115.172 186.305H98.0437C97.8207 186.305 97.6406 186.125 97.6406 185.901C97.6406 185.678 97.8207 185.498 98.0437 185.498H115.366C115.489 185.498 115.605 185.555 115.68 185.649L121.224 192.585C121.364 192.76 121.334 193.012 121.162 193.152C121.087 193.211 120.998 193.241 120.91 193.241V193.238Z" fill="#292929"/>
<path d="M120.215 274.723H102.893C102.67 274.723 102.49 274.543 102.49 274.32C102.49 274.097 102.67 273.916 102.893 273.916H120.022L125.445 267.134C125.584 266.959 125.837 266.932 126.012 267.072C126.186 267.212 126.213 267.464 126.074 267.639L120.53 274.575C120.455 274.672 120.336 274.726 120.215 274.726V274.723Z" fill="#292929"/>
<path d="M220.346 194.973C220.203 194.973 220.064 194.898 219.991 194.764C219.884 194.567 219.956 194.322 220.152 194.215L227.773 190.054C227.833 190.022 227.9 190.006 227.967 190.006H245.289C245.512 190.006 245.692 190.186 245.692 190.409C245.692 190.633 245.512 190.813 245.289 190.813H228.069L220.537 194.925C220.475 194.957 220.41 194.973 220.343 194.973H220.346Z" fill="#292929"/>
<path d="M108.952 196.477H100.984V199.943H108.952V196.477Z" fill="#292929"/>
<path d="M108.952 263.398H100.984V266.865H108.952V263.398Z" fill="#292929"/>
<path d="M236.8 196.131H228.832V199.598H236.8V196.131Z" fill="#292929"/>
<path d="M160.753 98.5195H139.965V102.333H160.753V98.5195Z" fill="#292929"/>
<path d="M176.862 98.6934H164.734V102.507H176.862V98.6934Z" fill="#292929"/>
<path d="M93.7094 160.123C93.5643 160.123 93.4246 160.045 93.352 159.911C93.2472 159.715 93.3225 159.47 93.5186 159.365L146.181 131.279C146.345 131.19 146.549 131.228 146.672 131.368L166.55 154.005L220.658 122.616C220.849 122.506 221.096 122.57 221.209 122.764C221.322 122.958 221.254 123.202 221.061 123.315L166.666 154.871C166.499 154.968 166.287 154.933 166.16 154.787L146.277 132.142L93.8975 160.078C93.8384 160.11 93.7712 160.126 93.7094 160.126V160.123Z" fill="#292929"/>
<path d="M221.296 129.527C221.296 129.527 221.28 129.527 221.269 129.527C221.046 129.513 220.88 129.319 220.893 129.099L221.307 122.674L214.68 120.91C214.465 120.853 214.336 120.63 214.395 120.415C214.452 120.2 214.675 120.07 214.89 120.13L221.836 121.98C222.022 122.028 222.148 122.203 222.134 122.397L221.699 129.153C221.686 129.365 221.508 129.529 221.296 129.529V129.527Z" fill="#292929"/>
<path d="M168.754 155.767C169.633 154.887 169.633 153.46 168.754 152.58C167.874 151.7 166.448 151.7 165.569 152.58C164.689 153.46 164.689 154.887 165.569 155.767C166.448 156.648 167.874 156.648 168.754 155.767Z" fill="white"/>
<path d="M167.161 156.832C165.696 156.832 164.506 155.641 164.506 154.175C164.506 152.709 165.696 151.518 167.161 151.518C168.625 151.518 169.816 152.709 169.816 154.175C169.816 155.641 168.625 156.832 167.161 156.832ZM167.161 152.324C166.142 152.324 165.312 153.155 165.312 154.175C165.312 155.194 166.142 156.025 167.161 156.025C168.179 156.025 169.01 155.194 169.01 154.175C169.01 153.155 168.179 152.324 167.161 152.324Z" fill="#292929"/>
<path d="M146.373 134.236C147.617 134.236 148.625 133.227 148.625 131.982C148.625 130.738 147.617 129.729 146.373 129.729C145.129 129.729 144.121 130.738 144.121 131.982C144.121 133.227 145.129 134.236 146.373 134.236Z" fill="white"/>
<path d="M146.374 134.639C144.909 134.639 143.719 133.447 143.719 131.981C143.719 130.516 144.909 129.324 146.374 129.324C147.838 129.324 149.029 130.516 149.029 131.981C149.029 133.447 147.838 134.639 146.374 134.639ZM146.374 130.131C145.355 130.131 144.525 130.962 144.525 131.981C144.525 133.001 145.355 133.832 146.374 133.832C147.392 133.832 148.223 133.001 148.223 131.981C148.223 130.962 147.392 130.131 146.374 130.131Z" fill="#292929"/>
<path d="M216.769 137.01C200.087 110.896 190.896 98.309 189.198 99.2503C188.365 99.7129 189.332 103.424 192.1 110.385C191.912 110.331 190.501 109.962 189.198 110.869C187.959 111.732 187.771 113.079 187.747 113.289C187.599 113.219 186.462 112.711 185.328 113.289C184.321 113.803 183.729 114.967 183.877 116.194C183.549 116.067 182.612 115.758 181.942 116.194C181.023 116.791 180.763 118.684 181.942 120.551C187.908 129.749 193.874 138.947 199.839 148.145C205.483 144.433 211.126 140.722 216.769 137.01Z" fill="white"/>
<path d="M375.554 219.246C376.319 221.527 377.085 223.805 377.851 226.085C371.079 226.247 364.307 226.408 357.536 226.569C356.907 234.286 355.407 240.033 353.666 240.124C351.903 240.216 349.772 234.528 348.345 226.569C347.964 224.289 347.582 222.008 347.203 219.728C356.654 219.566 366.105 219.407 375.554 219.246Z" fill="white"/>
<path d="M353.629 240.53C351.28 240.53 349.16 233.378 347.951 226.641L346.806 219.794C346.787 219.678 346.819 219.56 346.895 219.468C346.97 219.377 347.08 219.326 347.198 219.323L375.549 218.842C375.721 218.839 375.882 218.949 375.939 219.116L378.236 225.955C378.276 226.076 378.258 226.211 378.185 226.316C378.113 226.421 377.992 226.485 377.865 226.488L357.912 226.964C357.603 230.549 356.496 240.379 353.693 240.527C353.672 240.527 353.653 240.527 353.632 240.527L353.629 240.53ZM347.679 220.122L348.746 226.501C350.291 235.11 352.404 239.72 353.624 239.72C353.632 239.72 353.64 239.72 353.648 239.72C354.825 239.658 356.448 235.016 357.136 226.536C357.152 226.332 357.321 226.171 357.528 226.165L377.298 225.695L375.269 219.654L347.679 220.122Z" fill="#292929"/>
<path d="M222.024 149.675C221.911 149.675 221.801 149.629 221.72 149.538C221.573 149.371 221.589 149.116 221.755 148.968L225.84 145.361C226.007 145.213 226.262 145.229 226.41 145.396C226.557 145.563 226.541 145.818 226.375 145.966L222.29 149.573C222.212 149.64 222.118 149.675 222.024 149.675Z" fill="#292929"/>
<path d="M197.276 120.096C197.134 120.096 196.997 120.021 196.922 119.886L191.636 110.269C191.528 110.073 191.601 109.828 191.794 109.72C191.99 109.613 192.235 109.683 192.343 109.879L197.628 119.497C197.736 119.693 197.663 119.938 197.47 120.045C197.408 120.08 197.341 120.096 197.276 120.096Z" fill="#292929"/>
<path d="M193.431 122.502C193.299 122.502 193.173 122.44 193.095 122.322L187.068 113.25C186.944 113.064 186.995 112.814 187.18 112.691C187.366 112.567 187.616 112.618 187.739 112.804L193.767 121.875C193.89 122.061 193.839 122.311 193.654 122.435C193.584 122.48 193.509 122.502 193.431 122.502Z" fill="#292929"/>
<path d="M189.589 125.387C189.457 125.387 189.331 125.325 189.253 125.206L183.226 116.135C183.102 115.949 183.153 115.699 183.339 115.575C183.524 115.452 183.774 115.503 183.898 115.688L189.925 124.76C190.049 124.945 189.998 125.196 189.812 125.319C189.742 125.365 189.667 125.387 189.589 125.387Z" fill="#292929"/>
<path d="M294.139 142.281L299.967 165.975H284.948L282.092 146.689L294.139 142.281Z" fill="white"/>
<path d="M299.969 166.378H284.95C284.751 166.378 284.579 166.232 284.552 166.033L281.696 146.745C281.669 146.556 281.776 146.374 281.956 146.306L294.003 141.898C294.111 141.858 294.229 141.866 294.331 141.922C294.433 141.976 294.506 142.07 294.533 142.183L300.361 165.88C300.391 166.001 300.361 166.128 300.286 166.224C300.211 166.321 300.092 166.378 299.969 166.378ZM285.296 165.571H299.453L293.855 142.813L282.539 146.954L285.296 165.574V165.571Z" fill="#292929"/>
<path d="M290.533 146.738C289.302 146.738 288.192 146.205 287.617 145.213C286.682 143.591 287.529 141.343 289.504 140.2C290.447 139.654 291.508 139.439 292.492 139.586C293.51 139.742 294.325 140.27 294.784 141.068C295.246 141.87 295.295 142.838 294.921 143.798C294.558 144.726 293.841 145.538 292.898 146.082C292.132 146.523 291.307 146.735 290.53 146.735L290.533 146.738ZM289.909 140.896C288.319 141.816 287.604 143.57 288.316 144.807C289.031 146.044 290.904 146.302 292.497 145.382C293.282 144.928 293.879 144.261 294.174 143.502C294.456 142.776 294.427 142.055 294.091 141.469C293.755 140.885 293.145 140.498 292.374 140.38C291.57 140.256 290.697 140.439 289.909 140.894V140.896Z" fill="#292929"/>
<path d="M290.364 144.265C293.288 137.14 292.265 129.968 288.078 128.247C283.89 126.526 278.125 130.907 275.201 138.032C272.277 145.157 273.301 152.329 277.488 154.05C281.675 155.771 287.44 151.391 290.364 144.265Z" fill="white"/>
<path d="M344.802 234.268C335.633 238.762 320.128 244.865 300.113 245.811C286.561 246.451 275.167 244.528 266.955 242.444C268.108 239.456 269.255 235.825 270.078 231.624C271.069 226.563 271.325 222.053 271.279 218.398C293.623 216.394 315.968 214.39 338.315 212.387L344.802 234.268Z" fill="#E7ECF2"/>
<path d="M347.372 266.958C347.214 266.958 347.068 266.864 347.004 266.718L321.951 210.299L262.831 205.969L234.868 224.131C230.2 227.162 224.651 228.114 219.241 226.815C213.832 225.516 209.32 222.143 206.536 217.324L191.753 191.72C191.697 191.623 191.683 191.505 191.718 191.397C191.753 191.29 191.829 191.201 191.931 191.153L217.567 179.05C217.758 178.961 217.984 179.031 218.088 179.214L225.578 192.333L241.177 178.179C247.694 172.265 255.189 167.744 263.457 164.74C271.723 161.735 280.371 160.388 289.161 160.738L310.019 161.566C325.234 162.171 338.878 171.643 344.771 185.696L378.216 265.43C378.267 265.554 378.257 265.694 378.184 265.804C378.112 265.917 377.991 265.984 377.859 265.989L347.386 266.958C347.386 266.958 347.377 266.958 347.372 266.958ZM262.724 205.154C262.724 205.154 262.742 205.154 262.753 205.154L322.249 209.511C322.397 209.522 322.528 209.613 322.588 209.75L347.63 266.143L377.246 265.201L344.026 186.008C338.252 172.243 324.891 162.965 309.987 162.373L289.129 161.544C271.573 160.845 254.734 166.966 241.717 178.779L225.747 193.269C225.656 193.35 225.532 193.388 225.414 193.369C225.293 193.35 225.188 193.277 225.126 193.17L217.572 179.938L192.67 191.693L207.232 216.918C209.903 221.546 214.235 224.782 219.427 226.03C224.621 227.277 229.947 226.363 234.427 223.453L262.506 205.219C262.57 205.175 262.648 205.154 262.726 205.154H262.724Z" fill="#292929"/>
<path d="M297.14 232.703C286.523 232.703 275.919 231.525 265.536 229.19C265.38 229.155 265.259 229.031 265.229 228.875L257.49 189.663C257.447 189.445 257.589 189.233 257.807 189.19C258.028 189.147 258.237 189.289 258.28 189.507L265.968 228.461C278.074 231.161 290.481 232.278 302.854 231.783C313.968 231.336 325.039 229.585 335.767 226.576L326.845 187.036C326.088 183.682 326.749 180.118 328.654 177.259C328.777 177.074 329.027 177.025 329.213 177.146C329.398 177.27 329.449 177.52 329.326 177.706C327.541 180.382 326.926 183.719 327.633 186.858L336.638 226.772C336.686 226.982 336.56 227.192 336.356 227.248C325.453 230.338 314.191 232.135 302.886 232.59C300.972 232.668 299.056 232.705 297.14 232.705V232.703Z" fill="#292929"/>
<path d="M303.954 327.971C303.933 327.971 303.909 327.971 303.887 327.966C303.667 327.928 303.519 327.721 303.557 327.5L311.011 283.563C311.798 278.929 314.204 274.704 317.791 271.667L318.589 270.99C318.758 270.847 319.014 270.866 319.156 271.038C319.301 271.208 319.28 271.463 319.108 271.606L318.31 272.283C314.87 275.196 312.559 279.252 311.804 283.697L304.349 327.635C304.317 327.831 304.145 327.971 303.952 327.971H303.954Z" fill="#292929"/>
<path d="M199.84 195.31C199.814 195.31 199.784 195.307 199.757 195.302C199.652 195.28 199.561 195.216 199.502 195.127L181.605 167.533C180.307 165.479 180.619 163.335 181.723 162.617C182.271 162.262 182.932 162.289 183.456 162.407C183.515 161.248 184.15 160.199 185.144 159.691C186.025 159.242 186.907 159.36 187.441 159.511C187.603 158.906 187.998 157.972 188.965 157.297C189.868 156.671 190.817 156.587 191.462 156.633C187.971 147.744 188.21 146.096 189 145.657C189.825 145.2 191.443 145.956 197.688 154.506C202.267 160.777 208.8 170.548 217.106 183.552C217.224 183.737 217.173 183.985 216.988 184.106L200.058 195.24C199.991 195.283 199.916 195.307 199.838 195.307L199.84 195.31ZM182.782 163.136C182.561 163.136 182.344 163.179 182.161 163.295C181.5 163.725 181.161 165.325 182.282 167.098L199.956 194.347L216.214 183.654C208.152 171.043 201.778 161.501 197.263 155.294C190.881 146.518 189.586 146.316 189.387 146.367C189.258 146.494 188.75 147.629 192.475 156.996C192.531 157.139 192.502 157.3 192.399 157.416C192.297 157.529 192.139 157.574 191.991 157.534C191.76 157.469 190.545 157.182 189.427 157.962C188.393 158.682 188.186 159.78 188.146 160.1C188.129 160.229 188.054 160.342 187.941 160.404C187.828 160.466 187.691 160.471 187.576 160.417C187.396 160.334 186.445 159.936 185.512 160.412C184.647 160.853 184.152 161.856 184.279 162.908C184.295 163.047 184.238 163.187 184.125 163.273C184.013 163.359 183.865 163.384 183.733 163.332C183.537 163.257 183.158 163.133 182.782 163.133V163.136Z" fill="#292929"/>
<path d="M279.413 154.831C278.701 154.831 278.007 154.702 277.352 154.433C275.188 153.543 273.748 151.308 273.296 148.135C272.856 145.039 273.407 141.4 274.847 137.888C276.287 134.376 278.453 131.401 280.942 129.51C283.492 127.571 286.088 126.996 288.251 127.883C290.414 128.773 291.855 131.008 292.306 134.182C292.747 137.277 292.196 140.916 290.756 144.429C288.2 150.655 283.468 154.831 279.413 154.831ZM286.152 128.287C284.674 128.287 283.051 128.921 281.428 130.156C279.053 131.96 276.981 134.817 275.591 138.197C274.205 141.578 273.673 145.066 274.095 148.022C274.506 150.9 275.771 152.911 277.658 153.688C278.228 153.922 278.832 154.035 279.456 154.035C283.169 154.035 287.582 150.039 290.009 144.125C291.395 140.744 291.927 137.256 291.505 134.3C291.094 131.422 289.828 129.411 287.942 128.634C287.38 128.402 286.778 128.287 286.152 128.287Z" fill="#292929"/>
<path d="M274.091 226.133L223.785 450.272H286.183C291.265 406.326 297.94 360.283 306.601 312.419C311.669 284.4 317.151 257.244 322.945 230.974C306.66 229.36 290.375 227.746 274.091 226.133Z" fill="#008BCE"/>
<path d="M320.283 449.062H380.746L329.957 222.502L299 231.7C306.094 304.154 313.189 376.608 320.283 449.062Z" fill="#008BCE"/>
<path d="M262.721 205.557L234.642 223.791C225.186 229.931 212.521 226.89 206.88 217.122L192.098 191.518L217.734 179.415L225.473 192.97L241.444 178.48C254.458 166.67 271.587 160.444 289.14 161.141C296.092 161.418 303.046 161.695 309.998 161.969C325.125 162.571 338.534 171.882 344.395 185.851C355.544 212.429 366.691 239.008 377.84 265.586L347.367 266.554L322.214 209.914L262.719 205.557H262.721Z" fill="white"/>
<path d="M328.991 177.48C327.137 180.261 326.506 183.682 327.242 186.945L336.247 226.859C327.621 229.304 316.283 231.646 302.871 232.184C287.785 232.789 275.029 230.912 265.626 228.795C263.046 215.724 260.466 202.654 257.887 189.583L328.991 177.48Z" fill="white"/>
<path d="M334.832 275.269L344.759 311.225C345.044 312.257 345.984 312.975 347.056 312.975H408.1C409.355 312.975 410.266 311.779 409.933 310.568L400.027 274.688C399.742 273.656 398.802 272.938 397.73 272.938H336.608C335.394 272.938 334.512 274.097 334.835 275.269H334.832Z" fill="#292929"/>
<path d="M307.077 133.031C306.19 126.571 301.208 122.766 298.908 121.007C296.285 119.003 290.464 114.555 283.977 116.467C279.898 117.669 275.185 121.499 275.271 126.149C275.359 130.926 280.471 134.08 281.129 134.473C285.34 136.993 287.508 135.137 289.779 137.359C293.837 141.326 289.908 149.754 293.144 151.306C294.278 151.849 296.086 151.441 296.989 150.343C298.037 149.071 297.548 147.253 297.47 146.976C298.317 147.576 299.332 148.039 300.429 147.931C304.454 147.544 307.996 139.672 307.082 133.029L307.077 133.031Z" fill="#292929"/>
<path d="M289.708 140.277C287.921 141.31 287.142 143.309 287.969 144.739C288.794 146.17 290.915 146.496 292.702 145.463C294.489 144.43 295.268 142.432 294.44 141.001C293.615 139.57 291.495 139.245 289.708 140.277Z" fill="white"/>
<path d="M105.5 281.438H44.0288C39.8168 281.438 36.4023 284.855 36.4023 289.07V341.125C36.4023 345.34 39.8168 348.757 44.0288 348.757H105.5C109.712 348.757 113.126 345.34 113.126 341.125V289.07C113.126 284.855 109.712 281.438 105.5 281.438Z" fill="white"/>
<path d="M105.503 349.16H44.0295C39.6036 349.16 36 345.557 36 341.124V289.067C36 284.638 39.6009 281.031 44.0295 281.031H105.503C109.929 281.031 113.533 284.635 113.533 289.067V341.124C113.533 345.554 109.932 349.16 105.503 349.16ZM44.0295 281.841C40.047 281.841 36.8062 285.084 36.8062 289.07V341.127C36.8062 345.113 40.047 348.356 44.0295 348.356H105.503C109.486 348.356 112.726 345.113 112.726 341.127V289.07C112.726 285.084 109.486 281.841 105.503 281.841H44.0295Z" fill="#292929"/>
<path d="M113.127 302.35H36.4031C36.18 302.35 36 302.17 36 301.946C36 301.723 36.18 301.543 36.4031 301.543H113.127C113.35 301.543 113.53 301.723 113.53 301.946C113.53 302.17 113.35 302.35 113.127 302.35Z" fill="#292929"/>
<path d="M62.5151 276.965H52.5293V284.329H62.5151V276.965Z" fill="white"/>
<path d="M96.6733 276.965H86.6875V284.329H96.6733V276.965Z" fill="white"/>
<path d="M60.1859 272.494H54.9297V286.167H60.1859V272.494Z" fill="#008BCE"/>
<path d="M94.6039 272.758H89.3477V286.431H94.6039V272.758Z" fill="#008BCE"/>
<path d="M67.9326 314.834H62.1523V320.619H67.9326V314.834Z" fill="#292929"/>
<path d="M77.3916 314.834H71.6113V320.619H77.3916V314.834Z" fill="#292929"/>
<path d="M86.8506 314.834H81.0703V320.619H86.8506V314.834Z" fill="#292929"/>
<path d="M96.3115 314.834H90.5312V320.619H96.3115V314.834Z" fill="#292929"/>
<path d="M105.772 314.834H99.9922V320.619H105.772V314.834Z" fill="#292929"/>
<path d="M67.9326 323.246H62.1523V329.031H67.9326V323.246Z" fill="#292929"/>
<path d="M77.3916 323.246H71.6113V329.031H77.3916V323.246Z" fill="#292929"/>
<path d="M49.542 323.246H43.7617V329.031H49.542V323.246Z" fill="#292929"/>
<path d="M58.999 323.246H53.2188V329.031H58.999V323.246Z" fill="#292929"/>
<path d="M86.8506 323.246H81.0703V329.031H86.8506V323.246Z" fill="#292929"/>
<path d="M96.3115 323.246H90.5312V329.031H96.3115V323.246Z" fill="#292929"/>
<path d="M105.772 323.246H99.9922V329.031H105.772V323.246Z" fill="#292929"/>
<path d="M159.671 59.382H5.24551C2.35403 59.382 0 57.026 0 54.1322V13.2498C0 10.356 2.35134 8 5.24551 8H159.671C162.563 8 164.917 10.356 164.917 13.2498V54.1322C164.917 57.026 162.565 59.382 159.671 59.382ZM5.24551 8.80952C2.79743 8.80952 0.806175 10.8024 0.806175 13.2525V54.1349C0.806175 56.585 2.79743 58.5779 5.24551 58.5779H159.671C162.119 58.5779 164.11 56.585 164.11 54.1349V13.2525C164.11 10.8024 162.119 8.80952 159.671 8.80952H5.24551Z" fill="#292929"/>
<path d="M160.265 8.35547H5.84243C3.16803 8.35547 1 10.5253 1 13.2019V54.0816C1 56.7582 3.16803 58.928 5.84243 58.928H160.265C162.94 58.928 165.108 56.7582 165.108 54.0816V13.2019C165.108 10.5253 162.94 8.35547 160.265 8.35547Z" fill="white"/>
<path d="M140.485 52.0295H111.13C110.907 52.0295 110.727 51.8493 110.727 51.6261C110.727 51.4028 110.907 51.2227 111.13 51.2227H140.485C140.708 51.2227 140.888 51.4028 140.888 51.6261C140.888 51.8493 140.708 52.0295 140.485 52.0295Z" fill="#292929"/>
<path d="M94.7636 28.3457H84.1758V51.6256H94.7636V28.3457Z" fill="#292929"/>
<path d="M152.515 19.9162H111.126C110.903 19.9162 110.723 19.736 110.723 19.5128C110.723 19.2896 110.903 19.1094 111.126 19.1094H152.515C152.738 19.1094 152.918 19.2896 152.918 19.5128C152.918 19.736 152.738 19.9162 152.515 19.9162Z" fill="#292929"/>
<path d="M144.655 26.34H111.126C110.903 26.34 110.723 26.1598 110.723 25.9366C110.723 25.7134 110.903 25.5332 111.126 25.5332H144.655C144.878 25.5332 145.058 25.7134 145.058 25.9366C145.058 26.1598 144.878 26.34 144.655 26.34Z" fill="#292929"/>
<path d="M127.007 32.7619H111.126C110.903 32.7619 110.723 32.5817 110.723 32.3585C110.723 32.1353 110.903 31.9551 111.126 31.9551H127.007C127.23 31.9551 127.41 32.1353 127.41 32.3585C127.41 32.5817 127.23 32.7619 127.007 32.7619Z" fill="#292929"/>
<path d="M152.515 39.1838H111.126C110.903 39.1838 110.723 39.0036 110.723 38.7804C110.723 38.5571 110.903 38.377 111.126 38.377H152.515C152.738 38.377 152.918 38.5571 152.918 38.7804C152.918 39.0036 152.738 39.1838 152.515 39.1838Z" fill="#292929"/>
<path d="M152.515 45.6057H111.126C110.903 45.6057 110.723 45.4255 110.723 45.2022C110.723 44.979 110.903 44.7988 111.126 44.7988H152.515C152.738 44.7988 152.918 44.979 152.918 45.2022C152.918 45.4255 152.738 45.6057 152.515 45.6057Z" fill="#292929"/>
<path d="M80.6464 39.1016H70.0586V51.6237H80.6464V39.1016Z" fill="#A3BE23"/>
<path d="M80.8085 32.3574H70.2207V36.8542H80.8085V32.3574Z" fill="#A3BE23"/>
<path d="M66.5311 34.6074H55.9434V51.6263H66.5311V34.6074Z" fill="#A3BE23"/>
<path d="M66.6932 26.5781H56.1055V32.3578H66.6932V26.5781Z" fill="#A3BE23"/>
<path d="M52.4159 41.9922H41.8281V51.6258H52.4159V41.9922Z" fill="#292929"/>
<path d="M52.5721 36.2129H41.9844V39.4241H52.5721V36.2129Z" fill="#292929"/>
<path d="M38.2948 39.1016H27.707V51.6237H38.2948V39.1016Z" fill="#A3BE23"/>
<path d="M24.1796 43.5977H13.5918V51.6257H24.1796V43.5977Z" fill="#A3BE23"/>
<path d="M24.3417 38.1387H13.7539V41.0298H24.3417V38.1387Z" fill="#A3BE23"/>
<path d="M38.2948 33.9629H27.707V37.1741H38.2948V33.9629Z" fill="#A3BE23"/>
<path d="M94.7636 15.6621H84.1758V23.6901H94.7636V15.6621Z" fill="#292929"/>
<path d="M38.4359 231.797H13.2429C13.0199 231.797 12.8398 231.617 12.8398 231.394V185.273C12.8398 185.049 13.0199 184.869 13.2429 184.869C13.466 184.869 13.646 185.049 13.646 185.273V230.991H38.4359C38.6589 230.991 38.839 231.171 38.839 231.394C38.839 231.617 38.6589 231.797 38.4359 231.797Z" fill="#625EF3"/>
</g>
<defs>
<clipPath id="clip0_2518_21332">
<rect width="410" height="448" fill="white"/>
</clipPath>
</defs>
</svg>
