<svg width="2898" height="2445" viewBox="0 0 2898 2445" fill="none" xmlns="http://www.w3.org/2000/svg">
<g clip-path="url(#clip0_2461_10357)">
<path d="M789.929 2598.53H1848.51C1903.08 2598.53 1947.31 2551.32 1947.31 2493.09L1947.31 261.625C1947.31 203.396 1903.08 156.191 1848.51 156.191H789.929C735.363 156.191 691.13 203.396 691.13 261.625L691.13 2493.09C691.13 2551.32 735.363 2598.53 789.929 2598.53Z" fill="#F4EAE2"/>
<path d="M1848.51 2601.47H789.929C733.929 2601.47 688.372 2552.85 688.372 2493.09V261.625C688.372 201.865 733.929 153.248 789.929 153.248H1848.51C1904.51 153.248 1950.07 201.865 1950.07 261.625V2493.09C1950.07 2552.85 1904.51 2601.47 1848.51 2601.47ZM789.941 159.134C736.988 159.134 693.9 205.116 693.9 261.625V2493.09C693.9 2549.6 736.988 2595.58 789.941 2595.58H1848.52C1901.48 2595.58 1944.57 2549.6 1944.57 2493.09V261.625C1944.57 205.116 1901.48 159.134 1848.52 159.134H789.941Z" fill="#3D3D3D"/>
<path d="M752.759 741.878V2423.95C752.759 2477.32 793.678 2520.99 843.685 2520.99H1794.74C1844.75 2520.99 1885.67 2477.32 1885.67 2423.95V324.022C1885.67 270.656 1844.75 226.989 1794.74 226.989H843.685C793.678 226.989 752.759 270.656 752.759 324.022V741.878Z" fill="#50AFDD"/>
<path d="M1436.94 299.031H1187.29C1185.76 299.031 1184.53 297.72 1184.53 296.088C1184.53 294.456 1185.76 293.145 1187.29 293.145H1436.94C1438.47 293.145 1439.7 294.456 1439.7 296.088C1439.7 297.72 1438.47 299.031 1436.94 299.031Z" fill="#3D3D3D"/>
<path d="M1711.18 1169.58C1709.85 1169.58 1708.68 1168.56 1708.46 1167.12C1676.64 963.757 1513 816.155 1319.36 816.155C1125.73 816.155 966.14 960.613 931.514 1159.63C931.238 1161.22 929.797 1162.28 928.305 1161.98C926.813 1161.69 925.823 1160.15 926.098 1158.56C961.213 956.747 1126.61 810.268 1319.38 810.268C1414.62 810.268 1506.88 846.563 1579.18 912.478C1650.68 977.67 1698.53 1067.76 1713.92 1166.16C1714.17 1167.76 1713.16 1169.27 1711.65 1169.54C1711.5 1169.57 1711.35 1169.58 1711.19 1169.58H1711.18Z" fill="#3D3D3D"/>
<path d="M1711.1 1174.13C1710.43 1174.13 1709.78 1173.88 1709.28 1173.39L1608.96 1079.24C1607.82 1078.17 1607.71 1076.31 1608.71 1075.09C1609.73 1073.87 1611.47 1073.75 1612.6 1074.82L1709.86 1166.12L1753.06 1035.87C1753.56 1034.34 1755.14 1033.52 1756.58 1034.07C1758.01 1034.61 1758.76 1036.29 1758.26 1037.83L1713.71 1172.19C1713.41 1173.11 1712.69 1173.81 1711.8 1174.05C1711.58 1174.12 1711.34 1174.14 1711.11 1174.14L1711.1 1174.13Z" fill="#3D3D3D"/>
<path d="M1319.36 1663.44C1224.11 1663.44 1131.85 1627.14 1059.56 1561.23C988.062 1496.04 940.211 1405.95 924.816 1307.55C924.566 1305.95 925.581 1304.43 927.085 1304.17C928.59 1303.9 930.006 1304.98 930.257 1306.59C962.074 1509.95 1125.71 1657.55 1319.35 1657.55C1512.98 1657.55 1676.62 1509.95 1708.44 1306.59C1708.69 1304.98 1710.11 1303.9 1711.61 1304.17C1713.12 1304.43 1714.13 1305.95 1713.88 1307.55C1698.49 1405.95 1650.63 1496.04 1579.14 1561.23C1506.85 1627.14 1414.59 1663.44 1319.34 1663.44H1319.36Z" fill="#3D3D3D"/>
<path d="M882.785 1442.69C882.484 1442.69 882.171 1442.63 881.87 1442.51C880.441 1441.96 879.689 1440.29 880.19 1438.75L924.757 1304.39C925.058 1303.47 925.772 1302.78 926.662 1302.53C927.54 1302.28 928.493 1302.53 929.182 1303.18L1029.5 1397.33C1030.64 1398.4 1030.75 1400.26 1029.75 1401.48C1028.73 1402.7 1026.99 1402.82 1025.86 1401.75L928.605 1310.45L885.405 1440.7C885.004 1441.91 883.939 1442.67 882.81 1442.67L882.785 1442.69Z" fill="#3D3D3D"/>
<path d="M1400.01 1101.98C1355.57 1101.98 1319.53 1143.07 1319.53 1193.73C1319.53 1194.17 1319.41 1194.97 1319.21 1196.03C1319.03 1194.97 1318.9 1194.17 1318.9 1193.73C1318.9 1143.05 1282.87 1101.98 1238.42 1101.98C1193.96 1101.98 1157.93 1143.07 1157.93 1193.73C1157.93 1324.93 1318.89 1371.73 1318.89 1371.73C1318.89 1371.73 1319 1371.55 1319.2 1371.25C1319.4 1371.55 1319.51 1371.73 1319.51 1371.73C1319.51 1371.73 1480.47 1324.93 1480.47 1193.73C1480.47 1143.05 1444.44 1101.98 1399.99 1101.98H1400.01Z" fill="#F4EAE2"/>
<path d="M1849.49 841.359L2100.78 837.131C2148.39 836.328 2186.27 792.354 2185.38 738.895L2182.79 584.871C2181.89 531.424 2142.56 488.734 2094.95 489.537L1843.66 493.765C1796.05 494.567 1758.18 538.542 1759.07 592.001L1761.65 746.025C1762.55 799.471 1801.88 842.161 1849.49 841.359Z" fill="#F4EAE2"/>
<path d="M1881.27 843.767C1879.76 843.767 1878.54 842.483 1878.51 840.878C1878.49 839.259 1879.7 837.908 1881.23 837.894L2100.74 834.202C2122.22 833.841 2142.46 824.342 2157.75 807.472C2174.22 789.291 2183.06 764.956 2182.62 738.962L2180.02 584.938C2179.16 533.191 2141.05 491.705 2094.98 492.494L1885.72 496.013C1885.72 496.013 1885.69 496.013 1885.68 496.013C1884.18 496.013 1882.95 494.728 1882.92 493.123C1882.9 491.504 1884.11 490.166 1885.64 490.14L2094.9 486.621C2095.35 486.621 2095.8 486.621 2096.26 486.621C2144.71 486.621 2184.62 530.381 2185.54 584.858L2188.13 738.882C2188.6 766.454 2179.21 792.274 2161.71 811.579C2145.4 829.586 2123.77 839.714 2100.82 840.102L1881.31 843.794H1881.27V843.767Z" fill="#3D3D3D"/>
<path d="M1902.07 663.575C1901.73 644.899 1887.26 630.049 1869.76 630.41C1852.26 630.771 1838.34 646.21 1838.68 664.899C1839.02 683.575 1853.49 698.425 1870.99 698.064C1888.49 697.703 1902.4 682.264 1902.07 663.575Z" fill="#F4EAE2"/>
<path d="M1870.36 701.007C1861.41 701.007 1852.96 697.382 1846.51 690.733C1839.88 683.923 1836.13 674.759 1835.95 664.94C1835.59 644.672 1850.73 627.855 1869.72 627.454C1879.04 627.253 1887.65 630.905 1894.28 637.715C1900.91 644.524 1904.66 653.688 1904.84 663.508C1905.2 683.776 1890.05 700.593 1871.07 700.994C1870.84 700.994 1870.6 700.994 1870.38 700.994L1870.36 701.007ZM1870.4 633.34C1870.21 633.34 1870.01 633.34 1869.82 633.34C1853.88 633.675 1841.14 647.802 1841.45 664.833C1841.61 673.087 1844.75 680.779 1850.33 686.492C1855.9 692.218 1863.22 695.268 1870.95 695.108C1886.9 694.773 1899.64 680.646 1899.32 663.615C1899.17 655.361 1896.03 647.668 1890.45 641.956C1885.02 636.377 1877.92 633.327 1870.4 633.327V633.34Z" fill="#3D3D3D"/>
<path d="M2087.32 747.163C2086.98 728.487 2072.51 713.637 2055.03 713.999C2037.52 714.36 2023.61 729.798 2023.95 748.488C2024.29 767.164 2038.75 782.014 2056.24 781.653C2073.74 781.291 2087.66 765.853 2087.32 747.163Z" fill="#F4EAE2"/>
<path d="M2055.6 784.596C2046.65 784.596 2038.2 780.97 2031.73 774.321C2025.1 767.512 2021.35 758.348 2021.18 748.528C2020.81 728.26 2035.96 711.443 2054.95 711.042C2064.14 710.855 2072.86 714.494 2079.49 721.303C2086.13 728.113 2089.87 737.277 2090.05 747.096C2090.41 767.365 2075.27 784.181 2056.28 784.582C2056.05 784.582 2055.81 784.582 2055.59 784.582L2055.6 784.596ZM2055.65 716.928C2055.46 716.928 2055.26 716.928 2055.07 716.928C2039.13 717.263 2026.39 731.39 2026.7 748.421C2026.85 756.675 2030 764.368 2035.57 770.08C2041.15 775.806 2048.49 778.856 2056.19 778.696C2072.14 778.361 2084.87 764.234 2084.56 747.203C2084.41 738.949 2081.26 731.257 2075.68 725.544C2070.26 719.965 2063.16 716.915 2055.64 716.915L2055.65 716.928Z" fill="#3D3D3D"/>
<path d="M2026.45 737.584C2026.09 737.584 2025.73 737.504 2025.37 737.357L1899.91 680.713C1898.51 680.084 1897.85 678.359 1898.44 676.86C1899.03 675.362 1900.66 674.666 1902.05 675.295L2027.52 731.938C2028.92 732.567 2029.57 734.293 2028.99 735.791C2028.55 736.915 2027.52 737.584 2026.44 737.584H2026.45Z" fill="#3D3D3D"/>
<path d="M2085.44 576.256C2085.51 594.945 2071.37 610.156 2053.87 610.236C2036.37 610.317 2022.12 595.226 2022.05 576.55C2021.98 557.861 2036.12 542.649 2053.62 542.569C2071.12 542.489 2085.38 557.58 2085.44 576.256Z" fill="#F4EAE2"/>
<path d="M2053.73 613.179C2044.58 613.179 2035.98 609.393 2029.49 602.517C2022.96 595.6 2019.33 586.383 2019.3 576.563C2019.22 556.281 2034.61 539.719 2053.61 539.639C2062.9 539.545 2071.47 543.385 2078 550.301C2084.53 557.218 2088.16 566.436 2088.2 576.255C2088.27 596.537 2072.88 613.099 2053.88 613.179C2053.83 613.179 2053.78 613.179 2053.73 613.179ZM2053.76 545.512C2053.76 545.512 2053.67 545.512 2053.63 545.512C2037.67 545.579 2024.75 559.506 2024.81 576.536C2024.85 584.791 2027.88 592.537 2033.37 598.343C2038.83 604.122 2046.06 607.293 2053.75 607.293C2053.78 607.293 2053.83 607.293 2053.87 607.293C2069.83 607.226 2082.75 593.299 2082.69 576.269C2082.67 568.014 2079.62 560.268 2074.13 554.462C2068.68 548.683 2061.44 545.512 2053.76 545.512Z" fill="#3D3D3D"/>
<path d="M1900.67 653.06C1899.62 653.06 1898.62 652.418 1898.16 651.321C1897.53 649.836 1898.16 648.097 1899.53 647.428L2023.73 587.613C2025.11 586.945 2026.75 587.613 2027.38 589.085C2028.01 590.57 2027.38 592.309 2026 592.978L1901.8 652.792C1901.44 652.966 1901.05 653.06 1900.67 653.06Z" fill="#3D3D3D"/>
<path d="M2578.63 1219.02C2670.64 1219.02 2745.23 1147.9 2745.23 1060.17C2745.23 972.439 2670.64 901.32 2578.63 901.32C2486.62 901.32 2412.04 972.439 2412.04 1060.17C2412.04 1147.9 2486.62 1219.02 2578.63 1219.02Z" fill="#A3BE23"/>
<path d="M2655.93 995.298L2483.33 1050.05L2546.35 1083.15L2589.32 1054.27L2560.23 1093.84L2598.34 1161.47L2655.93 995.298Z" fill="#F4EAE2"/>
<path d="M1606.12 642.999L1280.6 639.106C1251.96 638.759 1228.99 613.701 1229.31 583.132L1231.76 349.908C1232.09 319.339 1255.57 294.83 1284.21 295.178L1609.73 299.071C1638.38 299.419 1661.34 324.476 1661.02 355.046L1658.57 588.269C1658.25 618.838 1634.77 643.347 1606.12 642.999Z" fill="#F4EAE2"/>
<path d="M1541.12 477.537L1384.5 379.3L1382.41 572.67L1541.12 477.537Z" fill="#E10060"/>
<path d="M1445.72 2278.23C1535.06 2244.21 1581.59 2139.22 1549.66 2043.73C1517.73 1948.24 1419.42 1898.41 1330.09 1932.44C1240.75 1966.46 1194.22 2071.45 1226.15 2166.93C1258.08 2262.42 1356.39 2312.25 1445.72 2278.23Z" fill="#F4EAE2"/>
<path d="M1416.86 2017.78C1389.09 2027.22 1374.27 2060.64 1383.76 2092.44C1383.85 2092.72 1383.92 2093.24 1384 2093.95C1383.67 2093.32 1383.46 2092.84 1383.37 2092.57C1373.88 2060.77 1343.67 2042.66 1315.9 2052.09C1288.13 2061.54 1273.32 2094.96 1282.81 2126.76C1307.39 2209.09 1416.72 2204.26 1416.72 2204.26C1416.72 2204.26 1416.76 2204.12 1416.82 2203.89C1417 2204.04 1417.11 2204.14 1417.11 2204.14C1417.11 2204.14 1508.9 2140.59 1484.32 2058.27C1474.83 2026.47 1444.61 2008.36 1416.85 2017.79L1416.86 2017.78Z" fill="#E10060"/>
<path d="M2649.89 2508.46C2905.17 2192.94 2987.64 1710.63 2781.48 1660.15C2588.32 1612.86 2275.5 2088.28 2275.5 2088.28L2261.56 2038.1L1607.84 2050.42C1574.38 2259 1626.99 2402.56 1682.13 2490.28C1724.73 2558.03 1796.28 2598.53 1872.72 2598.53H2664.67C2686.06 2598.53 2697.92 2572.08 2684.5 2554.31L2649.9 2508.48L2649.89 2508.46Z" fill="#2E2E2E"/>
<path d="M2464.7 2311.62C2464.35 2311.62 2463.99 2311.55 2463.65 2311.39C2462.24 2310.76 2461.57 2309.05 2462.16 2307.55C2566.2 2039.8 2654.53 1900.15 2655.4 1898.78C2656.26 1897.44 2657.97 1897.08 2659.23 1898C2660.49 1898.91 2660.82 1900.74 2659.95 1902.09C2659.08 1903.47 2571.05 2042.69 2467.25 2309.81C2466.81 2310.95 2465.78 2311.63 2464.7 2311.63V2311.62Z" fill="#3D3D3D"/>
<path d="M2649.89 2511.41C2649.22 2511.41 2648.55 2511.15 2648.02 2510.63L2193.16 2065.07C2192.04 2063.97 2191.96 2062.11 2193 2060.91C2194.03 2059.7 2195.77 2059.64 2196.9 2060.73L2651.76 2506.3C2652.88 2507.39 2652.96 2509.25 2651.92 2510.46C2651.38 2511.09 2650.64 2511.41 2649.89 2511.41Z" fill="#3D3D3D"/>
<path d="M2299.57 2601.47C2298.92 2601.47 2298.28 2601.23 2297.75 2600.73L1851.35 2182.2C1850.21 2181.13 1850.09 2179.27 1851.1 2178.05C1852.1 2176.83 1853.84 2176.71 1854.98 2177.78L2301.39 2596.32C2302.53 2597.39 2302.64 2599.25 2301.64 2600.47C2301.1 2601.14 2300.34 2601.47 2299.57 2601.47Z" fill="#3D3D3D"/>
<path d="M2228.24 2500.32C2226.96 2500.32 2225.82 2499.37 2225.54 2497.98C2225.23 2496.38 2226.18 2494.82 2227.68 2494.5L2529.81 2426.8C2531.31 2426.48 2532.76 2427.49 2533.07 2429.08C2533.39 2430.67 2532.43 2432.24 2530.94 2432.56L2228.8 2500.25C2228.62 2500.29 2228.43 2500.32 2228.24 2500.32Z" fill="#3D3D3D"/>
<path d="M1885.96 1349.44C1885.96 1349.44 1587.41 1904.48 1574.71 2062.74L2275.5 2050.42C2275.5 2050.42 2254.18 1930.8 2314.85 1780.94C2314.85 1780.94 2449.39 2040.85 2602.2 1932.99C2755.01 1825.12 2615.45 1610.07 2565.07 1523.73C2514.7 1437.39 2481.95 1385.52 2481.95 1385.52L2327.5 1495.01C2327.5 1495.01 2356.27 1271.58 1885.95 1349.43L1885.96 1349.44Z" fill="#F4EAE2"/>
<path d="M1659.58 1813.78C1659.19 1813.78 1658.8 1813.69 1658.42 1813.5C1657.05 1812.82 1656.44 1811.07 1657.08 1809.6C1748.36 1599.83 1882.24 1350.47 1883.58 1347.97C1883.99 1347.19 1884.72 1346.66 1885.55 1346.52C2140.99 1304.25 2248.46 1351.85 2293.63 1399.23C2328.05 1435.34 2330.96 1474.42 2330.65 1489.28L2480.45 1383.08C2481.71 1382.19 2483.42 1382.55 2484.26 1383.89C2484.58 1384.41 2517.6 1436.79 2567.42 1522.19C2570.14 1526.85 2573.11 1531.86 2576.29 1537.23C2599.34 1576.2 2634.17 1635.08 2655.39 1696.85C2655.92 1698.37 2655.18 1700.06 2653.75 1700.62C2652.33 1701.18 2650.74 1700.39 2650.21 1698.87C2629.2 1637.69 2594.55 1579.12 2571.62 1540.36C2568.44 1534.98 2565.47 1529.95 2562.75 1525.28C2519 1450.3 2488.24 1400.82 2481.21 1389.59L2329.06 1497.46C2328.15 1498.1 2326.99 1498.11 2326.07 1497.5C2325.16 1496.88 2324.66 1495.76 2324.81 1494.61C2324.87 1494.12 2330.42 1445.94 2289.64 1403.29C2245.4 1357.01 2139.77 1310.61 1887.71 1352.11C1877.41 1371.37 1749.97 1610.1 1662.1 1812.06C1661.63 1813.13 1660.63 1813.76 1659.59 1813.76L1659.58 1813.78Z" fill="#3D3D3D"/>
<path d="M2275.5 2053.36C2274.2 2053.36 2273.05 2052.39 2272.79 2050.97C2272.58 2049.76 2252.01 1928.74 2312.32 1779.78C2312.74 1778.75 2313.66 1778.06 2314.72 1778.01C2315.87 1777.97 2316.76 1778.55 2317.26 1779.52C2317.64 1780.26 2355.87 1853.41 2413.55 1905.05C2414.72 1906.09 2414.87 1907.95 2413.89 1909.2C2412.91 1910.44 2411.18 1910.6 2410.01 1909.56C2360.45 1865.18 2325.1 1805.24 2315.22 1787.5C2258.25 1932.24 2277.99 2048.69 2278.2 2049.86C2278.49 2051.45 2277.5 2052.99 2276 2053.3C2275.83 2053.34 2275.65 2053.35 2275.49 2053.35L2275.5 2053.36Z" fill="#3D3D3D"/>
<path d="M2463.72 1832.78C2462.68 1832.78 2461.69 1832.15 2461.23 1831.1L2333.29 1540.81C2332.64 1539.34 2333.23 1537.59 2334.61 1536.9C2335.99 1536.2 2337.63 1536.84 2338.28 1538.3L2466.22 1828.58C2466.87 1830.05 2466.28 1831.81 2464.9 1832.5C2464.52 1832.69 2464.12 1832.78 2463.73 1832.78H2463.72Z" fill="#3D3D3D"/>
<path d="M1885.96 1349.44C1885.96 1349.44 1697.44 1390.13 1654.64 1640.56C1609.03 1907.34 1682.6 1969.37 1834.49 1951.77C1986.38 1934.16 2123.2 1722.99 2123.2 1722.99L1972.05 1543.64L1841.85 1656.86L1885.96 1349.45V1349.44Z" fill="#F4EAE2"/>
<path d="M1791.11 1957.41C1705.04 1957.41 1659.07 1920.6 1643.98 1841.48C1643.68 1839.89 1644.63 1838.33 1646.14 1838.01C1647.63 1837.69 1649.08 1838.72 1649.38 1840.31C1658.3 1886.98 1678.29 1917.97 1710.51 1935.09C1739.76 1950.6 1780.21 1955.11 1834.18 1948.85C1975.44 1932.48 2105.56 1744.24 2119.67 1723.21L1971.76 1547.69L1843.6 1659.13C1842.72 1659.91 1841.48 1660.01 1840.49 1659.4C1839.5 1658.8 1838.96 1657.61 1839.13 1656.4L1855.02 1545.7C1855.24 1544.09 1856.61 1542.98 1858.16 1543.24C1859.67 1543.48 1860.71 1544.99 1860.47 1546.59L1845.67 1649.75L1970.31 1541.36C1971.46 1540.37 1973.12 1540.51 1974.1 1541.67L2125.25 1721.02C2126.1 1722.04 2126.19 1723.53 2125.46 1724.66C2124.09 1726.79 1986.17 1937.16 1834.77 1954.7C1819.2 1956.5 1804.65 1957.41 1791.11 1957.41Z" fill="#3D3D3D"/>
<path d="M1642.84 2104.55C1642.84 2104.55 1664.41 1890.58 1874.8 1886.4C2063.36 1882.67 2195.03 2062.9 2195.03 2062.9L1642.84 2104.55Z" fill="#2E2E2E"/>
<path d="M1972.04 1543.64C1972.04 1543.64 2039.48 1706.12 2123.19 1722.99L2272.14 1514.3L2383.49 1447.21C2383.49 1447.21 2405.21 1385.08 2322.57 1370.98C2271.9 1362.34 2231.18 1369.77 2161.14 1413.72L1972.06 1543.65L1972.04 1543.64Z" fill="#F4EAE2"/>
<path d="M2123.2 1725.93C2123.02 1725.93 2122.86 1725.92 2122.68 1725.88C2038.5 1708.91 1972.3 1551.52 1969.53 1544.82C1968.97 1543.49 1969.41 1541.94 1970.55 1541.15L2159.64 1411.22C2234.11 1364.49 2275.91 1360.02 2322.99 1368.05C2352.5 1373.08 2372.43 1384.72 2382.22 1402.64C2394.13 1424.46 2386.4 1447.25 2386.06 1448.21C2385.83 1448.87 2385.39 1449.4 2384.83 1449.75L2273.98 1516.55L2125.39 1724.75C2124.86 1725.49 2124.05 1725.92 2123.2 1725.92V1725.93ZM1975.54 1544.72C1984.07 1564.29 2046.8 1702.73 2122.04 1719.74L2269.93 1512.51C2270.16 1512.19 2270.45 1511.92 2270.77 1511.73L2381.18 1445.2C2382.42 1440.83 2386.74 1422.56 2377.42 1405.56C2368.5 1389.27 2349.89 1378.62 2322.12 1373.87C2275.19 1365.85 2235.85 1370.24 2162.54 1416.24L1975.54 1544.72Z" fill="#3D3D3D"/>
<path d="M2383.04 1595.18H2197.65L2354.29 1317.76H2539.68L2383.04 1595.18Z" fill="#E47C7C"/>
<path d="M2497.22 1291.28C2494.36 1295.44 2489.16 1309.14 2494.92 1323.57C2480.83 1321 2468.6 1321.95 2463.2 1330.37C2447.68 1354.64 2483.6 1370.55 2488.9 1372.73C2483.36 1370.54 2443.55 1355.66 2433.93 1377.6C2423.6 1401.19 2465.44 1413.57 2465.44 1413.57C2465.44 1413.57 2428.33 1403.62 2419.55 1422.64C2410.78 1441.67 2460.12 1459.61 2460.12 1459.61L2424.35 1522.95C2424.35 1522.95 2471.58 1525.62 2500.02 1476.51C2512.57 1454.83 2526.21 1427.66 2537.55 1404.05L2553.49 1370.86C2563.62 1349.77 2560.14 1324.11 2544.74 1307.03C2528.87 1289.42 2508.94 1274.24 2497.22 1291.28Z" fill="#F4EAE2"/>
<path d="M2425.32 1525.91C2424.63 1525.91 2424.26 1525.9 2424.21 1525.88C2423.24 1525.83 2422.38 1525.24 2421.91 1524.32C2421.46 1523.41 2421.49 1522.31 2421.99 1521.42L2456.02 1461.13C2447.02 1457.49 2422.1 1446.38 2416.81 1432.73C2415.29 1428.83 2415.38 1424.99 2417.07 1421.32C2422.13 1410.39 2434.89 1407.87 2446.08 1408.01C2439.93 1404.22 2433.94 1399.13 2431.18 1392.7C2428.91 1387.43 2429 1381.93 2431.44 1376.33C2437.68 1362.08 2454.39 1361.43 2468.56 1363.89C2463.63 1359.73 2459.26 1354.52 2457.47 1348.38C2455.57 1341.88 2456.74 1335.24 2460.93 1328.69C2465.88 1320.94 2475.92 1318 2490.81 1319.93C2487.11 1305.64 2492.52 1293.1 2494.98 1289.53C2498.64 1284.21 2503.26 1281.32 2508.75 1280.92C2518.81 1280.19 2531.67 1288.29 2546.71 1304.97C2562.91 1322.94 2566.62 1349.95 2555.93 1372.18L2539.98 1405.37C2525.71 1435.13 2513.05 1459.57 2502.36 1478.03C2475.83 1523.84 2432.74 1525.9 2425.31 1525.9L2425.32 1525.91ZM2444.87 1413.88C2435.55 1413.88 2425.71 1415.97 2422.03 1423.94C2421.05 1426.04 2421.01 1428.2 2421.91 1430.5C2426.39 1442.04 2451.66 1453.41 2461.01 1456.81C2461.8 1457.09 2462.43 1457.75 2462.72 1458.59C2463.01 1459.42 2462.92 1460.36 2462.49 1461.12L2429.32 1519.88C2441.8 1518.95 2475.72 1512.89 2497.7 1474.95C2508.31 1456.63 2520.9 1432.32 2535.1 1402.71L2551.05 1369.52C2560.67 1349.52 2557.33 1325.24 2542.76 1309.08C2529.1 1293.92 2517.48 1286.21 2509.14 1286.81C2505.31 1287.08 2502.13 1289.13 2499.45 1293.04C2496.62 1297.16 2492.41 1309.76 2497.47 1322.41C2497.87 1323.4 2497.72 1324.54 2497.09 1325.4C2496.47 1326.24 2495.45 1326.66 2494.46 1326.48C2479.37 1323.73 2469.61 1325.6 2465.49 1332.05C2462.24 1337.12 2461.34 1341.91 2462.73 1346.67C2466.64 1360.07 2487.53 1369.02 2489.9 1370C2491.31 1370.59 2492.02 1372.28 2491.49 1373.79C2490.95 1375.3 2489.36 1376.06 2487.95 1375.5C2483.59 1373.77 2445.06 1359.18 2436.44 1378.86C2434.69 1382.87 2434.6 1386.6 2436.19 1390.27C2441.86 1403.41 2465.94 1410.67 2466.19 1410.74C2467.65 1411.17 2468.51 1412.77 2468.12 1414.32C2467.73 1415.87 2466.24 1416.82 2464.79 1416.42C2464.6 1416.37 2455.06 1413.88 2444.88 1413.88H2444.87Z" fill="#3D3D3D"/>
<path d="M2039.63 1167.92C2041.05 1145.19 2046.89 1121.91 2061 1104.83C2075.12 1087.75 2098.81 1078.46 2118.67 1086.81C2125.32 1061.23 2142.73 1039.72 2163.97 1025.91C2185.2 1012.09 2210.02 1005.48 2234.81 1003.4C2262.88 1001.03 2291.85 1004.43 2317.3 1017.28C2342.75 1030.14 2364.33 1053.18 2372.81 1081.82C2381.28 1110.48 2375.05 1144.48 2354.49 1165.01C2368.81 1170.68 2373.87 1191.19 2368.25 1206.34C2362.62 1221.49 2349.44 1231.9 2335.99 1239.63C2313.86 1252.35 2289.24 1260.1 2264.19 1262.23C2246.32 1263.74 2228.18 1262.45 2210.6 1266.23C2184.06 1271.91 2160.83 1288.67 2135.18 1297.88C2109.09 1307.24 2073.19 1308.39 2062.08 1277.36C2049.26 1241.5 2037.18 1207.15 2039.63 1167.94V1167.92Z" fill="#3D3D3D"/>
<path d="M2088.89 1248.79L2044.55 1351.38C2044.55 1351.38 2097.86 1414.14 2179.04 1380.07L2231.16 1303.67L2088.89 1248.79Z" fill="#F4EAE2"/>
<path d="M2131.46 1393.05C2077.02 1393.05 2042.95 1353.85 2042.51 1353.35C2041.77 1352.48 2041.58 1351.2 2042.05 1350.13L2086.39 1247.55C2086.99 1246.16 2088.48 1245.49 2089.84 1246.01L2232.1 1300.89C2232.91 1301.21 2233.54 1301.91 2233.8 1302.79C2234.05 1303.67 2233.9 1304.63 2233.4 1305.38L2181.29 1381.79C2180.98 1382.24 2180.56 1382.59 2180.07 1382.79C2162.56 1390.15 2146.25 1393.04 2131.47 1393.04L2131.46 1393.05ZM2047.85 1350.76C2056.26 1359.59 2106 1407.09 2177.29 1377.64L2226.77 1305.1L2090.35 1252.47L2047.86 1350.76H2047.85Z" fill="#3D3D3D"/>
<path d="M2144.51 1234.31C2144.51 1234.31 2122.24 1152.62 2088.91 1184.98C2045.86 1226.79 2103.44 1260.42 2103.44 1260.42C2103.44 1260.42 2103.7 1375.38 2179.06 1380.06C2254.42 1384.74 2301.04 1271.27 2291.1 1171.03C2291.1 1171.03 2181.62 1113.17 2175.59 1175.91C2170.46 1229.25 2144.52 1234.29 2144.52 1234.29L2144.51 1234.31Z" fill="#F4EAE2"/>
<path d="M2183.47 1383.14C2181.95 1383.14 2180.42 1383.09 2178.9 1382.99C2106.99 1378.52 2101.17 1276.67 2100.72 1262.13C2094.85 1258.39 2072.88 1242.93 2070.41 1220.79C2068.95 1207.72 2074.56 1194.95 2087.07 1182.79C2094.59 1175.48 2102.29 1172.94 2109.97 1175.25C2130 1181.27 2142.95 1219.48 2146.31 1230.53C2152.44 1227.71 2168.92 1216.41 2172.84 1175.6C2174.03 1163.21 2179.12 1154.29 2187.97 1149.07C2219.68 1130.4 2289.37 1166.83 2292.31 1168.38C2293.16 1168.82 2293.73 1169.7 2293.83 1170.71C2300.66 1239.5 2281.33 1312.47 2245.75 1352.29C2227.66 1372.53 2206.21 1383.13 2183.47 1383.13V1383.14ZM2104.45 1180.34C2099.98 1180.34 2095.47 1182.6 2090.77 1187.16C2079.65 1197.96 2074.63 1209.05 2075.87 1220.11C2078.34 1242.17 2104.49 1257.69 2104.76 1257.84C2105.63 1258.36 2106.18 1259.34 2106.18 1260.41C2106.18 1261.53 2107.34 1372.65 2179.21 1377.12C2201.95 1378.52 2223.6 1368.54 2241.75 1348.23C2276 1309.91 2294.71 1239.66 2288.5 1172.97C2278.6 1167.96 2217.55 1138.38 2190.63 1154.24C2183.36 1158.52 2179.33 1165.72 2178.32 1176.22C2173.04 1231.12 2146.14 1236.97 2145 1237.2C2143.62 1237.46 2142.25 1236.57 2141.85 1235.12C2141.71 1234.64 2128.49 1186.95 2108.44 1180.93C2107.11 1180.52 2105.77 1180.32 2104.44 1180.32L2104.45 1180.34Z" fill="#3D3D3D"/>
<path d="M2114.97 1250.2C2113.45 1250.2 2112.22 1248.89 2112.21 1247.27C2112.17 1237.33 2106.57 1227.62 2098.3 1223.08C2096.94 1222.35 2096.4 1220.57 2097.11 1219.12C2097.8 1217.68 2099.48 1217.1 2100.82 1217.85C2110.88 1223.36 2117.68 1235.18 2117.74 1247.24C2117.74 1248.86 2116.51 1250.19 2115 1250.2H2114.98H2114.97Z" fill="#3D3D3D"/>
<path d="M2828.36 1653.46C2827.95 1653.46 2827.54 1653.37 2827.16 1653.17C2825.8 1652.46 2825.22 1650.7 2825.89 1649.23C2870.1 1551.48 2892.52 1446.46 2892.52 1337.09C2892.52 940.599 2590.25 618.036 2218.71 618.036C2217.18 618.036 2215.95 616.725 2215.95 615.093C2215.95 613.461 2217.18 612.149 2218.71 612.149C2400.16 612.149 2570.76 687.563 2699.07 824.476C2827.38 961.402 2898.03 1143.45 2898.03 1337.09C2898.03 1447.35 2875.43 1553.23 2830.86 1651.79C2830.39 1652.84 2829.41 1653.45 2828.38 1653.45L2828.36 1653.46Z" fill="#3D3D3D"/>
<path d="M552.207 822.79H359.937C359.937 822.79 512.793 620.711 607.981 600.042L552.207 822.79Z" fill="#F4EAE2"/>
<path d="M552.206 825.733H359.936C358.87 825.733 357.905 825.078 357.454 824.061C356.99 823.044 357.128 821.827 357.792 820.944C364.06 812.663 512.366 617.808 607.429 597.152C608.369 596.952 609.334 597.273 609.986 598.022C610.638 598.758 610.889 599.815 610.638 600.805L554.864 823.553C554.538 824.837 553.447 825.733 552.206 825.733ZM365.778 819.847H550.088L604.132 604.002C518.997 627.066 389.246 789.692 365.778 819.847Z" fill="#3D3D3D"/>
<path d="M754.656 1361.75H210.44L-2.89111 794.923H754.656V1361.75Z" fill="#F4EAE2"/>
<path d="M757.413 1364.68H208.584L-6.96631 791.98H757.413V1364.69V1364.68ZM212.307 1358.8H751.897V797.866H1.19486L212.307 1358.8Z" fill="#3D3D3D"/>
<path d="M234.822 1361.92C235.549 1365.05 263.455 1387.1 285.569 1368.53C285.569 1368.53 303.333 1388.24 322.551 1368.9C322.551 1368.9 333.157 1390.14 356.5 1369.65C356.5 1369.65 359.533 1384.73 373.311 1378.56C387.088 1372.4 412.098 1321.33 412.462 1296.57C412.826 1271.8 389.257 1301.99 389.257 1301.99C389.257 1301.99 396.867 1259.82 388.53 1257.12C380.193 1254.41 361.439 1274.91 356.5 1288.06C356.5 1288.06 360.261 1252.47 350.106 1248.59C339.952 1244.73 313.487 1279.54 310.228 1288.82C310.228 1288.82 320.019 1254.96 307.332 1248.29C294.645 1241.62 256.585 1312.74 247.885 1361.89H234.834L234.822 1361.92Z" fill="#F4EAE2"/>
<path d="M367.166 1383C365.085 1383 363.155 1382.51 361.387 1381.52C358.265 1379.78 356.36 1376.85 355.232 1374.42C347.622 1380.25 340.451 1382.5 333.895 1381.11C328.065 1379.86 324.179 1376.02 322.073 1373.27C305.713 1387.37 290.557 1376.78 285.429 1372.3C273.269 1381.29 260.206 1379.41 251.205 1376.1C242.43 1372.88 232.99 1366.2 232.162 1362.62C231.962 1361.73 232.15 1360.81 232.664 1360.1C233.19 1359.39 233.98 1358.98 234.833 1358.98H245.614C253.8 1316.72 283.762 1255.39 300.999 1246.2C303.82 1244.7 306.365 1244.51 308.559 1245.66C316.883 1250.04 317.372 1262.85 316.106 1273.58C326.035 1259.67 342.018 1242.37 351.045 1245.82C358.892 1248.82 360.184 1264.29 359.996 1275.98C368.081 1264.21 381.207 1251.66 389.343 1254.29C397.103 1256.81 395.674 1277.68 393.543 1292.78C398.62 1287.6 405.327 1282.36 410.216 1284.3C415.369 1286.35 415.268 1294.07 415.231 1296.61C414.855 1322.21 389.669 1374.43 374.387 1381.27C371.83 1382.42 369.423 1382.98 367.179 1382.98L367.166 1383ZM356.498 1366.72C356.799 1366.72 357.112 1366.78 357.4 1366.88C358.303 1367.22 358.993 1368.05 359.193 1369.05C359.193 1369.09 360.334 1374.32 363.957 1376.33C366.113 1377.52 368.896 1377.36 372.231 1375.86C384.492 1370.38 409.326 1321.24 409.69 1296.54C409.765 1291.73 408.837 1290.07 408.273 1289.84C405.64 1288.8 397.216 1296.39 391.361 1303.89C390.547 1304.92 389.205 1305.24 388.064 1304.66C386.924 1304.09 386.297 1302.76 386.535 1301.45C390.559 1279.16 390.471 1260.85 387.713 1259.95C381.633 1257.99 363.982 1276.02 359.043 1289.18C358.529 1290.55 357.175 1291.31 355.808 1290.94C354.467 1290.57 353.589 1289.22 353.74 1287.75C355.156 1274.33 354.68 1253.49 349.164 1251.39C341.893 1248.62 316.168 1280.29 312.796 1289.88C312.27 1291.36 310.728 1292.14 309.324 1291.63C307.907 1291.12 307.142 1289.5 307.581 1287.98C309.938 1279.82 314.714 1255.48 306.102 1250.95C305.362 1250.56 304.121 1251.11 303.444 1251.47C288.626 1259.38 258.225 1319.2 250.566 1362.47C250.315 1363.86 249.187 1364.86 247.858 1364.86H242.053C246.153 1367.71 252.521 1371.11 259.792 1372.41C268.944 1374.04 277.017 1371.95 283.85 1366.22C284.965 1365.28 286.558 1365.4 287.535 1366.48C288.175 1367.19 303.682 1383.81 320.631 1366.75C321.258 1366.12 322.098 1365.84 322.963 1365.99C323.816 1366.13 324.543 1366.7 324.956 1367.51C324.981 1367.57 328.316 1373.97 334.985 1375.35C340.702 1376.54 347.334 1373.85 354.705 1367.38C355.207 1366.94 355.821 1366.71 356.46 1366.71L356.498 1366.72Z" fill="#3D3D3D"/>
<path d="M285.582 1371.47C285.169 1371.47 284.742 1371.37 284.341 1371.15C282.987 1370.42 282.436 1368.65 283.125 1367.19C293.856 1344.58 303.121 1311.24 307.533 1288.23C307.834 1286.64 309.301 1285.61 310.78 1285.95C312.272 1286.27 313.237 1287.83 312.924 1289.42C308.436 1312.81 298.996 1346.76 288.027 1369.85C287.538 1370.88 286.573 1371.47 285.57 1371.47H285.582Z" fill="#3D3D3D"/>
<path d="M322.55 1371.85C322.011 1371.85 321.459 1371.67 320.983 1371.33C319.729 1370.4 319.416 1368.57 320.281 1367.23C336.653 1342.03 348.951 1311.94 354.029 1284.69C354.329 1283.1 355.759 1282.05 357.275 1282.37C358.767 1282.7 359.745 1284.23 359.444 1285.84C354.229 1313.85 341.605 1344.74 324.819 1370.58C324.28 1371.41 323.427 1371.85 322.55 1371.85Z" fill="#3D3D3D"/>
<path d="M356.5 1372.61C355.961 1372.61 355.422 1372.45 354.945 1372.09C353.692 1371.17 353.366 1369.33 354.231 1367.99C367.319 1347.63 379.68 1326.95 387.139 1298.05C387.54 1296.49 389.057 1295.56 390.524 1295.99C391.99 1296.42 392.855 1298.04 392.454 1299.6C384.769 1329.38 372.145 1350.51 358.781 1371.31C358.242 1372.14 357.377 1372.6 356.5 1372.6V1372.61Z" fill="#3D3D3D"/>
<path d="M1103.24 652.846C1106.26 652.538 1226.5 808.917 1243.27 831.218C1243.27 831.218 1310.47 691.456 1315.55 684.191C1320.62 676.927 1334.74 587.172 1352.82 576.924C1370.88 566.677 1369.75 600.042 1369.75 600.042C1369.75 600.042 1426.78 532.937 1446.55 531.13C1466.31 529.324 1462.21 552.937 1459.95 559.573C1459.95 559.573 1487.46 531.037 1500.76 539.572C1517.44 550.275 1506.4 573.312 1506.4 573.312C1506.4 573.312 1524.2 555.72 1535.76 564.87C1549.04 575.399 1535.2 605.246 1526.72 614.276C1526.72 614.276 1549.04 609.581 1541.14 633.554C1534.97 652.257 1503.58 702.252 1490.59 740.821C1481.64 767.391 1413.19 906.953 1353.37 1011.5C1317.75 1073.77 1240.79 1091.96 1183.66 1051.93C1104.96 996.788 1001.27 916.144 955.289 845.68C955.289 845.68 946.413 669.127 1103.23 652.846H1103.24Z" fill="#F4EAE2"/>
<path d="M1250.18 1076.13C1226.27 1076.13 1202.64 1068.74 1182.16 1054.39C1103.14 999.022 999.253 918.164 953.031 847.366C952.743 846.911 952.567 846.39 952.542 845.841C952.454 844.008 950.499 800.516 967.899 754.28C984.046 711.39 1020.59 658.479 1102.97 649.93C1105.07 649.716 1106.35 649.528 1170.21 731.684C1201.08 771.378 1231.68 811.272 1242.75 825.854C1248.85 813.158 1268.31 772.796 1285.13 738.4C1285.83 736.955 1287.49 736.407 1288.86 737.156C1290.21 737.905 1290.72 739.685 1290.02 741.129C1269.87 782.334 1245.96 832.075 1245.72 832.583C1245.29 833.466 1244.48 834.068 1243.55 834.162C1242.61 834.269 1241.71 833.854 1241.12 833.078C1223.1 809.131 1113.33 666.546 1102.48 655.91C1039.17 662.786 995.642 696.566 973.077 756.3C957.356 797.96 957.832 838.496 958.008 844.717C1003.94 914.579 1106.83 994.594 1185.17 1049.49C1214.48 1070.02 1250.56 1075.65 1284.17 1064.95C1285.62 1064.48 1287.16 1065.37 1287.6 1066.93C1288.04 1068.48 1287.21 1070.13 1285.75 1070.6C1274.05 1074.33 1262.06 1076.16 1250.16 1076.16L1250.18 1076.13Z" fill="#3D3D3D"/>
<path d="M1503.11 713.369C1502.7 713.369 1502.27 713.275 1501.89 713.061C1500.52 712.339 1499.97 710.573 1500.65 709.115C1507.19 695.121 1514.61 681.007 1521.14 668.552C1529.15 653.301 1536.07 640.123 1538.54 632.591C1539.95 628.337 1541.1 622.624 1538.63 619.574C1535.91 616.23 1529.35 616.738 1527.26 617.166C1526.07 617.42 1524.87 616.805 1524.3 615.668C1523.72 614.531 1523.93 613.112 1524.78 612.203C1530.9 605.674 1539.27 588.59 1538.45 576.71C1538.15 572.416 1536.74 569.312 1534.12 567.238C1524.66 559.747 1508.43 575.305 1508.28 575.466C1507.3 576.443 1505.81 576.509 1504.74 575.653C1503.68 574.797 1503.34 573.245 1503.94 571.974C1504.34 571.131 1513.6 551.225 1499.33 542.087C1489.95 536.067 1468.6 554.69 1461.87 561.673C1460.94 562.636 1459.53 562.783 1458.45 562.034C1457.37 561.285 1456.92 559.854 1457.36 558.556C1458.89 554.074 1460.74 543.037 1456.77 537.498C1454.79 534.743 1451.52 533.619 1446.78 534.047C1444.43 534.261 1439.82 535.88 1431.23 542.368C1429.99 543.305 1428.27 542.997 1427.38 541.659C1426.51 540.335 1426.79 538.502 1428.05 537.552C1435.87 531.652 1441.84 528.575 1446.31 528.174C1452.96 527.558 1457.98 529.485 1461.16 533.913C1464.62 538.729 1465.02 545.592 1464.43 551.345C1473.89 542.943 1491.28 530.047 1502.17 537.03C1512.92 543.92 1513.85 555.773 1511.95 565.178C1518.84 560.576 1529.19 555.987 1537.4 562.502C1541.33 565.62 1543.53 570.248 1543.95 576.269C1544.71 587.413 1538.78 601.968 1532.76 611.052C1536.16 611.333 1540.13 612.457 1542.78 615.721C1546.15 619.882 1546.47 626.21 1543.72 634.544C1541.07 642.545 1534.05 655.936 1525.92 671.428C1519.41 683.83 1512.03 697.877 1505.55 711.75C1505.07 712.78 1504.09 713.383 1503.08 713.383L1503.11 713.369Z" fill="#3D3D3D"/>
<path d="M1406.17 625.769C1405.6 625.769 1405.02 625.581 1404.53 625.18C1403.31 624.203 1403.06 622.37 1403.97 621.059C1420.36 597.554 1438.8 575.453 1458.77 555.345C1459.89 554.235 1461.62 554.288 1462.67 555.466C1463.71 556.643 1463.66 558.516 1462.56 559.626C1442.82 579.493 1424.59 601.353 1408.38 624.578C1407.84 625.354 1407.01 625.769 1406.16 625.769H1406.17Z" fill="#3D3D3D"/>
<path d="M1448.64 653.288C1448.09 653.288 1447.54 653.114 1447.07 652.753C1445.82 651.816 1445.51 649.983 1446.39 648.659C1464.44 621.207 1484.29 594.651 1505.37 569.754C1506.4 568.55 1508.14 568.456 1509.27 569.54C1510.4 570.624 1510.49 572.496 1509.47 573.701C1488.54 598.424 1468.84 624.779 1450.91 652.03C1450.37 652.846 1449.52 653.288 1448.66 653.288H1448.64Z" fill="#3D3D3D"/>
<path d="M1485.16 671.174C1484.6 671.174 1484.02 670.987 1483.53 670.599C1482.31 669.635 1482.04 667.789 1482.96 666.478C1496.53 646.866 1511.23 627.802 1526.65 609.821C1527.68 608.617 1529.42 608.537 1530.55 609.634C1531.67 610.731 1531.75 612.591 1530.72 613.795C1515.44 631.628 1500.86 650.518 1487.41 669.97C1486.87 670.746 1486.03 671.161 1485.19 671.161L1485.16 671.174Z" fill="#3D3D3D"/>
<path d="M1340.33 646.946C1339.82 646.946 1339.29 646.786 1338.83 646.465C1337.55 645.569 1337.2 643.749 1338.04 642.384C1347.57 626.866 1357.92 611.628 1368.79 597.126C1369.74 595.855 1371.47 595.654 1372.66 596.671C1373.85 597.688 1374.04 599.534 1373.09 600.805C1362.32 615.16 1352.08 630.237 1342.64 645.609C1342.11 646.465 1341.23 646.933 1340.33 646.933V646.946Z" fill="#3D3D3D"/>
<path d="M1278.13 894.939C1277.14 894.939 1276.18 894.364 1275.68 893.374C1265.13 872.022 1253.04 851.259 1239.76 831.687C1238.87 830.376 1239.15 828.53 1240.38 827.58C1241.61 826.63 1243.34 826.924 1244.23 828.235C1257.65 848.035 1269.86 869.026 1280.55 890.618C1281.26 892.05 1280.73 893.829 1279.39 894.591C1278.98 894.819 1278.54 894.926 1278.11 894.926L1278.13 894.939Z" fill="#3D3D3D"/>
<path d="M881.586 1073.19L971.108 867.513C971.108 867.513 1026 722.667 1110.83 650.344C1110.83 650.344 1074.03 590.155 1014.75 571.733C983.644 562.061 694.505 545.9 613.057 571.733L560.228 598.971L565.732 676.913C565.732 676.913 458.433 889.4 449.081 982.767C449.081 982.767 449.081 1026.22 507.413 1032.09C563.074 1037.7 881.586 1073.19 881.586 1073.19Z" fill="#2E2E2E"/>
<path d="M526.529 2182.19C524.862 2183.39 458.068 2260.43 458.068 2260.43C458.068 2260.43 472.51 2434.48 480.283 2543.39C482.502 2574.51 506.822 2598.53 536.057 2598.53H871.367C888.73 2598.53 898.07 2576.76 886.724 2562.73L837.005 2501.29L779.939 2218.44L526.529 2182.18V2182.19Z" fill="#F4EAE2"/>
<path d="M871.382 2601.47H536.072C505.571 2601.47 479.859 2576.05 477.54 2543.62C469.855 2435.97 455.476 2262.44 455.326 2260.69C455.25 2259.86 455.514 2259.04 456.053 2258.42C481.088 2229.55 523.323 2180.94 525.015 2179.73C525.567 2179.33 526.244 2179.17 526.908 2179.27L780.318 2215.52C781.472 2215.68 782.399 2216.6 782.65 2217.82L839.565 2499.94L888.82 2560.8C894.788 2568.17 896.129 2578.26 892.331 2587.11C888.532 2595.97 880.509 2601.47 871.382 2601.47ZM460.929 2261.46C462.271 2277.68 475.71 2440.41 483.043 2543.17C485.15 2572.56 508.442 2595.58 536.072 2595.58H871.382C878.328 2595.58 884.433 2591.4 887.316 2584.67C890.199 2577.92 889.184 2570.26 884.646 2564.65L834.927 2503.22C834.626 2502.85 834.413 2502.4 834.312 2501.92L777.648 2221.09L527.472 2185.3C521.417 2191.84 485.513 2233.1 460.917 2261.47L460.929 2261.46Z" fill="#3D3D3D"/>
<path d="M520.902 955.569C520.902 955.569 796.827 982.7 862.229 1026.51C862.229 1026.51 1202.6 1507.92 1241.99 1583.69C1291.35 1678.64 1260.06 1956.18 1190.64 2170.07L843.563 2030.18L939.478 1776.77L724.267 1404.22L810.304 2234.76L458.057 2260.42C458.057 2260.42 411.046 1501.03 441.797 1108.47C446.035 1054.37 468.625 1003.53 506.284 967.008C512.076 961.402 517.178 957.228 520.889 955.556L520.902 955.569Z" fill="#A0D2F4"/>
<path d="M458.071 2263.37C457.407 2263.37 456.755 2263.12 456.253 2262.65C455.702 2262.14 455.363 2261.41 455.313 2260.63C454.849 2253.03 408.64 1496.52 439.066 1108.24C441.598 1075.96 450.775 1044.25 465.606 1016.57C466.358 1015.17 468.05 1014.67 469.366 1015.48C470.683 1016.28 471.147 1018.09 470.394 1019.49C455.953 1046.43 447.027 1077.3 444.557 1108.72C415.134 1484.28 457.495 2205.1 460.641 2257.29L807.259 2232.04L721.535 1404.56C721.397 1403.19 722.162 1401.89 723.378 1401.45C724.607 1401.01 725.948 1401.52 726.625 1402.7L941.837 1775.24C942.301 1776.03 942.376 1777.02 942.05 1777.89L847.2 2028.51L1188.99 2166.28C1254.32 1963.38 1290.18 1682.44 1239.61 1585.14C1206.92 1522.25 962.271 1173.43 888.056 1068.03C887.141 1066.73 887.391 1064.88 888.607 1063.91C889.823 1062.93 891.554 1063.2 892.469 1064.5C987.645 1199.7 1212.47 1520.8 1244.43 1582.29C1295.96 1681.42 1259.58 1966.77 1193.28 2171.06C1193.03 2171.81 1192.51 2172.43 1191.84 2172.76C1191.17 2173.1 1190.4 2173.14 1189.69 2172.86L842.612 2032.96C841.922 2032.68 841.358 2032.12 841.057 2031.4C840.756 2030.67 840.744 2029.84 841.032 2029.11L936.421 1777.09L728.38 1416.95L813.076 2234.48C813.151 2235.28 812.938 2236.07 812.449 2236.69C811.973 2237.3 811.271 2237.68 810.518 2237.73L458.272 2263.39C458.209 2263.39 458.146 2263.39 458.084 2263.39L458.071 2263.37Z" fill="#A0D2F4"/>
<path d="M715.469 1396.3C714.542 1396.3 713.626 1395.79 713.112 1394.88L622.424 1235.6C616.896 1225.9 611.179 1215.86 603.143 1208.39C594.531 1200.4 584.088 1196.85 575.212 1198.87C573.721 1199.2 572.254 1198.2 571.94 1196.61C571.614 1195.01 572.567 1193.45 574.059 1193.11C584.64 1190.71 596.85 1194.75 606.754 1203.95C615.442 1212.02 621.384 1222.45 627.125 1232.54L717.814 1391.82C718.603 1393.21 718.19 1395.02 716.886 1395.86C716.435 1396.16 715.946 1396.29 715.457 1396.29L715.469 1396.3Z" fill="#F4EAE2"/>
<path d="M843.563 2030.18C843.563 2030.18 766.577 2201.22 723.828 2300.78C711.555 2329.36 713.56 2362.6 729.156 2389.28L821.574 2547.5C840.115 2579.24 872.672 2598.53 907.711 2598.53H1065.03C1090.55 2598.53 1105.11 2567.4 1089.74 2545.63L1017.58 2443.45C1017.58 2443.45 1102.28 2236.81 1133.57 2147.08L843.55 2030.18H843.563Z" fill="#F4EAE2"/>
<path d="M1065.04 2601.47H907.725C871.482 2601.47 838.411 2581.88 819.243 2549.07L726.825 2390.84C710.703 2363.23 708.647 2329.12 721.334 2299.56C763.607 2201.11 840.329 2030.62 841.094 2028.91C841.708 2027.53 843.213 2026.89 844.554 2027.42L1134.57 2144.32C1135.99 2144.9 1136.71 2146.58 1136.17 2148.11C1106.65 2232.76 1028.69 2423.69 1020.77 2443.06L1091.96 2543.86C1099.69 2554.82 1100.95 2569.27 1095.21 2581.55C1089.46 2593.83 1077.92 2601.47 1065.04 2601.47ZM844.955 2033.88C835.403 2055.14 765.826 2210.05 726.336 2302.01C714.427 2329.76 716.345 2361.8 731.489 2387.73L823.907 2545.95C842.059 2577.03 873.388 2595.58 907.712 2595.58H1065.03C1075.95 2595.58 1085.38 2589.36 1090.25 2578.93C1095.13 2568.49 1094.12 2556.71 1087.53 2547.41L1015.37 2445.22C1014.77 2444.38 1014.65 2443.25 1015.05 2442.27C1015.89 2440.22 1098.37 2238.84 1130.02 2148.79L844.943 2033.88H844.955Z" fill="#3D3D3D"/>
<path d="M982.392 2444.36H982.354C883.241 2442.76 785.709 2378.76 739.637 2285.11C738.935 2283.67 739.449 2281.89 740.803 2281.14C742.157 2280.38 743.825 2280.94 744.527 2282.38C789.683 2374.19 885.297 2436.92 982.442 2438.48C983.971 2438.51 985.175 2439.85 985.162 2441.47C985.137 2443.07 983.908 2444.37 982.404 2444.37L982.392 2444.36Z" fill="#3D3D3D"/>
<path d="M955.209 490.728L934.286 532.375C928.018 544.843 934.875 560.215 947.888 562.89L955.209 564.402C955.209 564.402 879.816 618.45 779.951 564.402L846.08 539.572C846.08 539.572 890.522 429.683 893.067 430.767C895.624 431.85 955.209 490.728 955.209 490.728Z" fill="#F4EAE2"/>
<path d="M955.212 567.345C955.036 567.345 954.861 567.332 954.685 567.292L947.364 565.78C940.294 564.322 934.452 559.505 931.368 552.562C928.271 545.619 928.447 537.752 931.857 530.97L952.78 489.323C953.494 487.892 955.174 487.356 956.516 488.119C957.857 488.882 958.359 490.674 957.644 492.106L936.721 533.752C934.151 538.863 934.025 544.789 936.357 550.034C938.689 555.265 943.089 558.903 948.43 560L955.751 561.512C957.243 561.82 958.221 563.358 957.932 564.964C957.682 566.368 956.528 567.345 955.225 567.345H955.212Z" fill="#3D3D3D"/>
<path d="M980.221 365.641C989.022 350.484 998.148 333.828 995.954 316.275C993.635 297.64 978.441 282.602 961.216 276.007C944.004 269.411 925.036 269.893 906.796 271.873C807.056 282.696 714.137 335.42 613.808 337.507C523.597 339.38 431.48 300.141 345.041 326.149C311.456 336.249 278.762 358.778 268.457 393C260.371 419.837 267.466 449.523 280.905 474.139C308.836 525.324 360.988 557.593 413.39 581.286C480.359 611.561 551.641 631.722 624.201 640.926C690.531 649.341 762.339 647.28 817.562 609.179C848.188 588.055 870.942 557.526 889.596 525.351C907.648 494.233 924.133 462.259 942.211 431.115C954.885 409.281 967.547 387.461 980.221 365.628V365.641Z" fill="#3D3D3D"/>
<path d="M908.387 467.837C912.512 506.875 953.393 519.892 978.867 516.895C1024.67 511.504 1019.72 425.87 978.867 350.108C978.867 350.108 943.113 355.553 934.426 374.096C929.875 383.808 971.195 430.779 930.853 433.562C930.853 433.562 924.108 399.166 901.116 402.431C878.137 405.695 879.805 462.901 908.375 467.837H908.387Z" fill="#F4EAE2"/>
<path d="M971.556 520.24C945.33 520.24 910.917 505.738 905.903 470.299C889.543 466.085 882.297 446.66 882.523 429.776C882.748 412.933 889.907 401.04 900.763 399.501C919.68 396.799 929.722 417.254 932.994 430.392C939.074 429.629 943.036 427.622 944.766 424.398C948.602 417.294 942.421 404.023 937.444 393.361C933.069 383.956 929.898 377.173 931.966 372.772C941.193 353.092 976.959 347.42 978.476 347.192C979.604 347.018 980.695 347.594 981.259 348.637C1011.73 405.16 1022.49 466.807 1007.4 498.554C1001.49 510.982 991.727 518.34 979.165 519.812C976.733 520.093 974.189 520.24 971.556 520.24ZM904.048 405.147C903.22 405.147 902.368 405.2 901.478 405.334C892.389 406.632 888.177 418.579 888.026 429.857C887.826 445.456 894.896 462.513 908.811 464.921C910.027 465.135 910.968 466.179 911.106 467.503C914.979 504.16 953.629 516.896 978.551 513.966C989.32 512.695 997.368 506.621 1002.47 495.892C1016.39 466.62 1005.83 406.926 977.41 353.346C970.177 354.738 943.75 360.758 936.88 375.407C936.053 377.2 939.851 385.361 942.371 390.752C947.925 402.672 954.832 417.509 949.529 427.342C946.558 432.84 940.503 435.837 931.026 436.492C929.709 436.573 928.431 435.596 928.155 434.164C928.092 433.857 922.188 405.16 904.048 405.16V405.147Z" fill="#3D3D3D"/>
<path d="M926.303 460.733C925.162 460.733 924.096 459.971 923.708 458.767C921.251 451.302 915.384 445.001 908.413 442.325C906.984 441.776 906.232 440.091 906.759 438.566C907.273 437.041 908.852 436.238 910.281 436.8C918.906 440.118 925.877 447.609 928.91 456.827C929.412 458.365 928.66 460.038 927.231 460.573C926.93 460.68 926.616 460.747 926.315 460.747L926.303 460.733Z" fill="#3D3D3D"/>
<path d="M568.568 2137.75C673.635 2137.75 758.808 2046.72 758.808 1934.42C758.808 1822.12 673.635 1731.08 568.568 1731.08C463.502 1731.08 378.329 1822.12 378.329 1934.42C378.329 2046.72 463.502 2137.75 568.568 2137.75Z" fill="#F4EAE2"/>
<path d="M568.744 2140.82C547.821 2140.82 526.823 2137.14 506.438 2129.73C405.684 2093.11 351.589 1975.7 385.851 1868.02C402.449 1815.86 437.05 1773.72 483.296 1749.37C529.543 1725.02 581.895 1721.38 630.699 1739.12C731.454 1775.74 785.548 1893.15 751.286 2000.83C734.688 2052.99 700.088 2095.13 653.841 2119.48C626.913 2133.66 597.904 2140.8 568.744 2140.82ZM568.406 1733.92C540.074 1733.92 511.904 1740.86 485.741 1754.64C440.823 1778.29 407.201 1819.22 391.079 1869.91C357.795 1974.52 410.347 2088.57 508.219 2124.15C555.631 2141.38 606.479 2137.85 651.409 2114.19C696.327 2090.54 729.949 2049.62 746.071 1998.93C779.355 1894.31 726.803 1780.26 628.931 1744.69C609.136 1737.49 588.727 1733.92 568.406 1733.92Z" fill="#3D3D3D"/>
<path d="M568.719 1865.79L558.477 1825.84C555.017 1812.18 543.095 1796.86 530.308 1800.54C517.521 1804.23 514.988 1816.47 517.984 1836.34L520.918 1876.46C522.322 1897.35 513.735 1918.26 504.759 1928.4C498.052 1935.98 496.811 1947.37 501.813 1956.33L536.012 2017.6C541.127 2026.77 549.99 2032.83 559.919 2033.95C580.14 2031.28 599.621 2024.15 617.135 2013C617.135 2013 652.587 1989.84 672.144 1977.52C681.258 1971.78 684.492 1959.05 678.839 1949.48C676.519 1945.55 673.109 1942.78 669.286 1941.35C668.145 1940.92 667.606 1938.75 668.584 1937.99L670.778 1936.52C678.237 1930.59 679.139 1919.85 676.833 1912.66C675.228 1907.67 672.219 1903.33 664.184 1900.98C667.731 1894.54 668.897 1883.19 664.898 1876.25C660.987 1869.47 654.368 1868.34 648.501 1869.04C645.392 1869.4 642.909 1866.34 643.799 1863.14C644.903 1859.15 644.652 1854.11 641.58 1848.1C636.303 1838.64 627.465 1837.22 616.771 1842.44C597.641 1851.78 568.707 1865.79 568.707 1865.79H568.719Z" fill="#F4EAE2"/>
<path d="M559.93 2036.89C559.83 2036.89 559.742 2036.89 559.642 2036.88C548.898 2035.66 539.182 2029.03 533.654 2019.11L499.455 1957.84C493.876 1947.84 495.23 1934.9 502.764 1926.38C511.427 1916.58 519.5 1896.37 518.184 1876.68L515.25 1836.58C512.919 1821.21 512.417 1802.67 529.605 1797.72C536.349 1795.78 543.52 1798.2 549.801 1804.57C554.978 1809.83 559.228 1817.49 561.146 1825.09L570.536 1861.69C578.371 1857.89 600.197 1847.32 615.642 1839.78C628.065 1833.72 638.132 1836.14 643.974 1846.6C647.146 1852.78 647.96 1858.6 646.469 1863.98C646.268 1864.72 646.569 1865.25 646.757 1865.51C646.932 1865.72 647.409 1866.21 648.211 1866.12C656.849 1865.1 663.43 1868.07 667.254 1874.71C671.228 1881.6 670.751 1891.94 668.044 1899.23C673.911 1901.65 677.484 1905.6 679.452 1911.71C682.122 1920.01 681.069 1932.04 672.444 1938.89L671.867 1939.27C675.728 1941.11 678.925 1944.08 681.207 1947.93C684.266 1953.11 685.193 1959.29 683.814 1965.32C682.423 1971.47 678.687 1976.85 673.572 1980.08C654.266 1992.24 618.951 2015.3 618.6 2015.53C600.623 2026.97 581.016 2034.14 560.281 2036.88C560.168 2036.89 560.055 2036.91 559.943 2036.91L559.93 2036.89ZM534.231 1802.92C533.19 1802.92 532.124 1803.07 531.034 1803.38C520.666 1806.36 517.683 1815.78 520.716 1835.87L523.675 1876.24C525.179 1898.64 515.965 1920.02 506.776 1930.42C500.921 1937.03 499.856 1947.07 504.193 1954.83L538.393 2016.1C542.981 2024.33 551.017 2029.88 559.918 2030.99C579.763 2028.32 598.542 2021.43 615.742 2010.49C616.068 2010.27 651.42 1987.18 670.764 1975.01C674.6 1972.59 677.396 1968.56 678.449 1963.94C679.464 1959.46 678.787 1954.9 676.531 1951.07C674.613 1947.82 671.792 1945.43 668.382 1944.14C666.84 1943.57 665.662 1941.95 665.386 1940.05C665.135 1938.27 665.712 1936.62 666.953 1935.65L669.322 1934.04C675.265 1929.32 676.33 1920.16 674.237 1913.63C673.008 1909.81 670.852 1905.97 663.468 1903.83C662.64 1903.59 661.964 1902.95 661.638 1902.11C661.312 1901.27 661.374 1900.3 661.813 1899.51C664.872 1893.95 665.938 1883.67 662.553 1877.81C659.882 1873.18 655.257 1871.22 648.813 1871.99C646.406 1872.27 644.062 1871.27 642.52 1869.31C641.003 1867.37 640.489 1864.76 641.166 1862.33C642.231 1858.51 641.554 1854.2 639.172 1849.55C634.897 1841.88 627.727 1840.37 617.923 1845.16C598.78 1854.5 569.846 1868.5 569.846 1868.5C569.119 1868.86 568.267 1868.85 567.54 1868.49C566.813 1868.13 566.261 1867.43 566.048 1866.6L555.806 1826.66C554.138 1820.05 550.465 1813.4 545.977 1808.86C543.169 1806.01 539.032 1802.96 534.218 1802.96L534.231 1802.92Z" fill="#3D3D3D"/>
<path d="M512.467 2067.13L532.375 2054.35C537.728 2050.91 539.458 2043.5 536.249 2037.79L487.495 1951.02C484.286 1945.29 477.328 1943.45 471.975 1946.89L452.067 1959.66C446.714 1963.1 444.984 1970.51 448.193 1976.22L496.947 2063C500.157 2068.72 507.114 2070.57 512.467 2067.13Z" fill="#F4EAE2"/>
<path d="M506.676 2071.8C505.535 2071.8 504.382 2071.65 503.253 2071.34C499.605 2070.37 496.534 2067.95 494.591 2064.49L445.837 1977.72C441.85 1970.63 444.007 1961.39 450.651 1957.12L470.559 1944.34C473.78 1942.27 477.566 1941.67 481.215 1942.64C484.863 1943.62 487.934 1946.04 489.877 1949.49L538.631 2036.27C542.618 2043.36 540.461 2052.6 533.817 2056.87L513.909 2069.64C511.69 2071.06 509.208 2071.8 506.688 2071.8H506.676ZM477.792 1948.08C476.263 1948.08 474.746 1948.52 473.404 1949.39L453.497 1962.16C449.46 1964.76 448.144 1970.38 450.563 1974.7L499.317 2061.47C500.495 2063.56 502.363 2065.04 504.582 2065.63C506.801 2066.22 509.095 2065.86 511.051 2064.6L530.959 2051.82C534.996 2049.23 536.312 2043.61 533.88 2039.3L485.126 1952.53C483.947 1950.44 482.08 1948.96 479.861 1948.37C479.171 1948.18 478.469 1948.09 477.78 1948.09L477.792 1948.08Z" fill="#3D3D3D"/>
</g>
<defs>
<clipPath id="clip0_2461_10357">
<rect width="2898" height="2445" fill="white"/>
</clipPath>
</defs>
</svg>
