<svg width="411" height="274" viewBox="0 0 411 274" fill="none" xmlns="http://www.w3.org/2000/svg">
<g clip-path="url(#clip0_2448_10742)">
<path d="M181.195 251.087L296.046 251.087C302.368 251.087 307.494 245.965 307.494 239.648L307.494 11.7681C307.494 5.45047 302.368 0.328995 296.046 0.328995L181.195 0.328995C174.872 0.328995 169.746 5.45047 169.746 11.7681L169.746 239.648C169.746 245.965 174.872 251.087 181.195 251.087Z" fill="white"/>
<path d="M296.046 251.417H181.194C174.7 251.417 169.416 246.137 169.416 239.648V11.7685C169.416 5.27937 174.7 0 181.194 0H296.046C302.541 0 307.825 5.27937 307.825 11.7685V239.65C307.825 246.139 302.541 251.418 296.046 251.418V251.417ZM181.194 0.658798C175.064 0.658798 170.077 5.6417 170.077 11.767V239.648C170.077 245.773 175.064 250.756 181.194 250.756H296.046C302.177 250.756 307.164 245.773 307.164 239.648V11.7685C307.164 5.6432 302.177 0.660295 296.046 0.660295H181.194V0.658798Z" fill="black"/>
<path d="M274.699 243.456H187.683C187.5 243.456 187.354 243.309 187.354 243.126C187.354 242.944 187.5 242.797 187.683 242.797H274.699C274.882 242.797 275.029 242.944 275.029 243.126C275.029 243.309 274.882 243.456 274.699 243.456Z" fill="black"/>
<path d="M280.277 243.448H184.462C179.892 243.448 176.174 239.733 176.174 235.167V15.549C176.174 10.9823 179.892 7.26758 184.462 7.26758H292.778C297.348 7.26758 301.066 10.9823 301.066 15.549V210.576C301.066 210.758 300.919 210.905 300.736 210.905C300.553 210.905 300.407 210.758 300.407 210.576V15.549C300.407 11.3461 296.984 7.92638 292.778 7.92638H184.462C180.256 7.92638 176.833 11.3461 176.833 15.549V235.167C176.833 239.37 180.256 242.789 184.462 242.789H280.277C280.46 242.789 280.607 242.936 280.607 243.119C280.607 243.301 280.46 243.448 280.277 243.448Z" fill="black"/>
<path d="M251.53 15.0221H224.154C223.971 15.0221 223.824 14.8753 223.824 14.6927C223.824 14.51 223.971 14.3633 224.154 14.3633H251.53C251.713 14.3633 251.86 14.51 251.86 14.6927C251.86 14.8753 251.713 15.0221 251.53 15.0221Z" fill="black"/>
<path d="M194.255 225.921H282.987C287.778 225.921 291.662 222.04 291.662 217.253V33.4726C291.662 28.6856 287.778 24.8049 282.987 24.8049H194.255C189.464 24.8049 185.581 28.6856 185.581 33.4726L185.581 217.253C185.581 222.04 189.464 225.921 194.255 225.921Z" fill="#060607"/>
<path d="M237.84 142.525C256.047 142.525 270.806 127.773 270.806 109.576C270.806 91.3787 256.047 76.627 237.84 76.627C219.634 76.627 204.875 91.3787 204.875 109.576C204.875 127.773 219.634 142.525 237.84 142.525Z" fill="white"/>
<path d="M247.961 127.8H228.458C225.943 127.8 223.781 126.021 223.3 123.555L220.336 108.379H256.083L253.119 123.555C252.638 126.021 250.475 127.8 247.961 127.8Z" fill="#008BCE"/>
<path d="M258.564 104.78H217.853C217.177 104.78 216.629 105.328 216.629 106.004V107.156C216.629 107.832 217.177 108.38 217.853 108.38H258.564C259.24 108.38 259.789 107.832 259.789 107.156V106.004C259.789 105.328 259.24 104.78 258.564 104.78Z" fill="#008BCE"/>
<path d="M238.455 107.032C239.371 107.032 240.276 106.481 240.466 105.807L244.226 92.5744C244.418 91.9006 243.826 91.3496 242.91 91.3496C241.995 91.3496 241.09 91.9006 240.899 92.5744L237.14 105.807C236.948 106.481 237.54 107.032 238.455 107.032Z" fill="#008BCE"/>
<path d="M238.455 107.361C237.831 107.361 237.303 107.138 237.008 106.747C236.783 106.451 236.717 106.084 236.822 105.717L240.582 92.4843C240.816 91.6638 241.838 91.0215 242.91 91.0215C243.535 91.0215 244.063 91.2446 244.358 91.6354C244.583 91.9318 244.649 92.2972 244.544 92.6655L240.784 105.898C240.55 106.719 239.528 107.361 238.455 107.361ZM242.91 91.6803C242.143 91.6803 241.369 92.131 241.216 92.664L237.456 105.897C237.408 106.066 237.433 106.219 237.534 106.349C237.7 106.569 238.045 106.701 238.455 106.701C239.223 106.701 239.997 106.25 240.15 105.716L243.91 92.4828C243.958 92.3136 243.932 92.1624 243.832 92.0306C243.666 91.8105 243.321 91.6788 242.91 91.6788V91.6803Z" fill="white"/>
<path d="M239.742 125.122C239.068 125.122 238.413 124.571 238.284 123.897L235.77 110.664C235.642 109.99 236.089 109.439 236.762 109.439C237.435 109.439 238.091 109.99 238.22 110.664L240.734 123.897C240.862 124.571 240.415 125.122 239.742 125.122Z" fill="white"/>
<path d="M248.555 125.122C247.88 125.122 247.226 124.571 247.097 123.897L244.582 110.664C244.455 109.99 244.901 109.439 245.574 109.439C246.247 109.439 246.903 109.99 247.032 110.664L249.547 123.897C249.674 124.571 249.228 125.122 248.555 125.122Z" fill="white"/>
<path d="M230.932 125.122C230.257 125.122 229.603 124.571 229.474 123.897L226.959 110.664C226.832 109.99 227.278 109.439 227.951 109.439C228.624 109.439 229.28 109.99 229.409 110.664L231.924 123.897C232.051 124.571 231.605 125.122 230.932 125.122Z" fill="white"/>
<path d="M264.035 217.747H213.209C213.026 217.747 212.879 217.6 212.879 217.417C212.879 217.235 213.026 217.088 213.209 217.088H264.035C264.217 217.088 264.364 217.235 264.364 217.417C264.364 217.6 264.217 217.747 264.035 217.747Z" fill="white"/>
<path d="M237.842 194.137C247.008 194.137 254.438 186.713 254.438 177.555C254.438 168.397 247.008 160.973 237.842 160.973C228.676 160.973 221.246 168.397 221.246 177.555C221.246 186.713 228.676 194.137 237.842 194.137Z" fill="white"/>
<path d="M232.938 167.417H234.231C234.93 167.417 235.498 167.984 235.498 168.682V186.357C235.498 187.055 234.93 187.623 234.231 187.623H232.938C232.24 187.623 231.672 187.055 231.672 186.357V168.682C231.672 167.984 232.24 167.417 232.938 167.417Z" fill="black"/>
<path d="M243.091 167.487H241.797C241.098 167.487 240.531 168.054 240.531 168.752V186.426C240.531 187.125 241.098 187.691 241.797 187.691H243.091C243.79 187.691 244.357 187.125 244.357 186.426V168.752C244.357 168.054 243.79 167.487 243.091 167.487Z" fill="black"/>
<path d="M212.429 36.8854H197.242C197.059 36.8854 196.912 36.7386 196.912 36.556C196.912 36.3733 197.059 36.2266 197.242 36.2266H212.429C212.612 36.2266 212.759 36.3733 212.759 36.556C212.759 36.7386 212.612 36.8854 212.429 36.8854Z" fill="white"/>
<path d="M212.429 40.483H197.242C197.059 40.483 196.912 40.3363 196.912 40.1536C196.912 39.9709 197.059 39.8242 197.242 39.8242H212.429C212.612 39.8242 212.759 39.9709 212.759 40.1536C212.759 40.3363 212.612 40.483 212.429 40.483Z" fill="white"/>
<path d="M212.429 44.4508H197.242C197.059 44.4508 196.912 44.3041 196.912 44.1214C196.912 43.9387 197.059 43.792 197.242 43.792H212.429C212.612 43.792 212.759 43.9387 212.759 44.1214C212.759 44.3041 212.612 44.4508 212.429 44.4508Z" fill="white"/>
<path d="M279.291 43.0859C279.864 43.0859 280.327 43.5501 280.327 44.1206C280.327 44.691 279.862 45.1552 279.291 45.1552C278.72 45.1552 278.256 44.691 278.256 44.1206C278.256 43.5501 278.72 43.0859 279.291 43.0859Z" fill="white"/>
<path d="M279.291 39.3037C279.864 39.3037 280.327 39.7679 280.327 40.3383C280.327 40.9088 279.862 41.3729 279.291 41.3729C278.72 41.3729 278.256 40.9088 278.256 40.3383C278.256 39.7679 278.72 39.3037 279.291 39.3037Z" fill="white"/>
<path d="M279.291 35.5215C279.864 35.5215 280.327 35.9856 280.327 36.5561C280.327 37.1266 279.862 37.5907 279.291 37.5907C278.72 37.5907 278.256 37.1266 278.256 36.5561C278.256 35.9856 278.72 35.5215 279.291 35.5215Z" fill="white"/>
<path d="M115.852 171.243C116.389 171.348 110.293 135.496 128.592 111.318L165.082 103.9L210.068 260.895L215.352 267.29C217.426 269.799 215.64 273.589 212.382 273.589H177.941C173.42 273.589 169.519 270.416 168.602 265.993L152.729 189.459L157.994 260.805L163.552 267.221C165.712 269.714 163.94 273.589 160.639 273.589H128.198C123.043 273.589 118.821 269.495 118.665 264.346L115.851 171.242L115.852 171.243Z" fill="#111111"/>
<path d="M212.382 273.918H177.94C173.286 273.918 169.222 270.614 168.278 266.061L153.428 194.455L158.314 260.672L163.8 267.005C164.885 268.257 165.131 269.97 164.443 271.476C163.754 272.982 162.297 273.918 160.64 273.918H128.201C122.831 273.918 118.499 269.718 118.337 264.357L115.523 171.252C115.522 171.197 115.534 171.143 115.558 171.095C115.567 170.876 115.51 170.164 115.445 169.351C115.134 165.401 114.404 156.152 115.72 145.186C117.366 131.459 121.609 119.998 128.328 111.119C128.376 111.054 128.446 111.011 128.526 110.995L165.016 103.577C165.185 103.543 165.351 103.643 165.398 103.809L210.366 260.738L215.606 267.08C216.648 268.341 216.862 270.042 216.164 271.521C215.465 273 214.016 273.918 212.38 273.918H212.382ZM152.728 189.128C152.882 189.128 153.019 189.236 153.05 189.39L168.924 265.924C169.805 270.174 173.597 273.258 177.94 273.258H212.382C213.76 273.258 214.98 272.484 215.567 271.238C216.155 269.992 215.975 268.559 215.097 267.498L209.812 261.103C209.783 261.069 209.761 261.027 209.749 260.983L164.846 104.282L128.777 111.614C118.429 125.353 114.164 144.758 116.1 169.297C116.213 170.715 116.246 171.144 116.183 171.336L118.994 264.334C119.145 269.337 123.188 273.256 128.198 273.256H160.637C162.034 273.256 163.261 272.469 163.841 271.199C164.421 269.931 164.214 268.488 163.3 267.434L157.742 261.018C157.695 260.964 157.667 260.896 157.662 260.826L152.397 189.48C152.383 189.306 152.508 189.153 152.68 189.129C152.695 189.126 152.711 189.126 152.726 189.126L152.728 189.128Z" fill="black"/>
<path d="M121.289 263.913C121.145 263.913 121.013 263.817 120.971 263.672C120.922 263.497 121.024 263.314 121.201 263.266C121.369 263.22 138.195 258.583 155.134 259.909C155.315 259.923 155.452 260.082 155.437 260.264C155.423 260.445 155.26 260.58 155.082 260.567C138.263 259.251 121.544 263.855 121.378 263.901C121.348 263.91 121.318 263.913 121.288 263.913H121.289Z" fill="black"/>
<path d="M171.849 266.924C171.712 266.924 171.583 266.838 171.536 266.7C171.479 266.528 171.572 266.34 171.745 266.284C171.926 266.224 190.074 260.247 206.687 260.914C206.868 260.922 207.01 261.075 207.003 261.257C206.995 261.438 206.838 261.59 206.66 261.573C190.17 260.917 172.134 266.85 171.953 266.909C171.918 266.921 171.882 266.926 171.848 266.926L171.849 266.924Z" fill="black"/>
<path d="M152.763 189.974C152.589 189.974 152.444 189.84 152.435 189.664L149.618 142.062C149.431 139.024 151.097 136.193 153.763 135.019L157.654 133.304C157.822 133.231 158.015 133.307 158.089 133.473C158.162 133.64 158.087 133.834 157.919 133.908L154.028 135.622C151.614 136.685 150.106 139.257 150.276 142.021L153.093 189.626C153.103 189.807 152.965 189.962 152.783 189.974C152.777 189.974 152.769 189.974 152.763 189.974Z" fill="black"/>
<path d="M155.86 39.7498C159.803 35.27 162.073 28.8273 160.04 23.2185C157.737 16.8656 150.262 13.3216 143.568 14.2843C136.876 15.2486 131.155 19.959 127.576 25.692C127.193 26.3059 126.832 26.9317 126.488 27.5666C122.628 34.731 111.427 41.1333 104.216 44.5216C93.4451 49.5824 96.8437 62.694 100.918 67.87C104.467 72.3783 109.445 75.6528 115.136 76.3955C121.262 77.195 127.759 75.9628 132.784 72.3708C135.147 70.6804 137.131 61.6085 138.544 59.0706C139.999 56.4534 139.636 52.9632 140.929 50.6005C142.002 48.6391 145.837 43.1262 147.718 41.9568C150.686 40.1107 153.541 42.3865 155.86 39.7513V39.7498Z" fill="black"/>
<path d="M140.941 37.8848L131.941 56.0945C131.941 56.0945 142.256 68.7959 150.027 68.2943C157.798 67.7942 156.35 59.0037 150.559 56.2742L146.408 55.6394L151.69 41.4363L140.94 37.8848H140.941Z" fill="#FFCFC5"/>
<path d="M146.095 57.1564C146.057 57.1564 146.02 57.1504 145.982 57.1369C145.812 57.0755 145.723 56.8854 145.785 56.7147L151.266 41.6432L141.111 38.2893L133.425 53.8399C133.344 54.0031 133.146 54.0705 132.983 53.9897C132.82 53.9088 132.752 53.7112 132.833 53.548L140.646 37.7398C140.72 37.5916 140.89 37.5212 141.045 37.5721L151.795 41.1236C151.88 41.1521 151.949 41.212 151.988 41.2928C152.027 41.3737 152.032 41.465 152.002 41.5489L146.405 56.9393C146.357 57.0725 146.23 57.1564 146.095 57.1564Z" fill="black"/>
<path d="M149.795 56.4866C149.779 56.4866 149.762 56.4866 149.744 56.4821L146.659 56.0105C146.479 55.9835 146.354 55.8143 146.383 55.6347C146.41 55.455 146.575 55.3322 146.759 55.3592L149.844 55.8308C150.024 55.8578 150.149 56.027 150.12 56.2066C150.095 56.3698 149.955 56.4866 149.795 56.4866Z" fill="black"/>
<path d="M157.123 32.0496C157.514 34.1817 157.525 36.4276 156.804 38.4729C156.083 40.5182 154.564 42.3403 152.538 43.1144C150.78 43.7852 148.769 43.625 147.032 42.9003C145.295 42.1756 143.818 40.9239 142.612 39.4805C140.758 40.1393 138.5 39.3712 137.431 37.7198C136.815 36.7675 136.598 35.5008 137.102 34.4827C137.605 33.466 138.928 32.8581 139.955 33.3432C140.539 33.6187 140.956 34.1832 141.552 34.4348C142.216 34.7147 143.009 34.55 143.608 34.1473C144.206 33.746 144.636 33.1366 144.979 32.5033C146.06 30.5074 146.38 28.1133 145.866 25.9033C145.914 26.1114 147.026 26.4274 147.224 26.4932C147.722 26.6609 148.234 26.7852 148.754 26.8661C149.779 27.0248 150.829 27.0143 151.851 26.8376C152.37 26.7478 152.881 26.6145 153.375 26.4393C153.769 26.3001 154.279 25.9273 154.699 25.9228C155.575 25.9138 155.836 27.5099 156.049 28.1283C156.488 29.4114 156.879 30.714 157.123 32.0496Z" fill="#FFCFC5"/>
<path d="M150.148 43.8678C149.073 43.8678 147.963 43.6447 146.905 43.2045C145.321 42.5442 143.842 41.4197 142.502 39.8626C140.536 40.445 138.272 39.6275 137.154 37.8997C136.417 36.7587 136.284 35.3947 136.805 34.3377C137.413 33.1099 138.949 32.505 140.094 33.0455C140.413 33.1967 140.676 33.4123 140.929 33.6205C141.178 33.8256 141.414 34.0202 141.68 34.131C142.194 34.3481 142.862 34.2493 143.422 33.8735C143.893 33.5576 144.294 33.0725 144.687 32.3463C145.726 30.4253 146.039 28.1045 145.543 25.9784C145.501 25.8002 145.612 25.6236 145.788 25.5816C145.935 25.5457 146.082 25.6161 146.151 25.7418C146.235 25.8017 146.487 25.9185 147.185 26.1356C147.246 26.1551 147.296 26.1701 147.326 26.1805C147.801 26.3408 148.297 26.462 148.8 26.5399C149.792 26.6941 150.798 26.6836 151.79 26.5114C152.293 26.4246 152.788 26.2958 153.261 26.1281C153.378 26.0862 153.519 26.0143 153.669 25.9395C153.984 25.7793 154.342 25.5981 154.691 25.5936H154.703C155.67 25.5936 156.014 26.8244 156.243 27.6404C156.284 27.7871 156.321 27.9174 156.356 28.0207C156.882 29.5569 157.228 30.8176 157.442 31.9884C157.895 34.4529 157.782 36.6719 157.11 38.5809C156.309 40.8508 154.642 42.6595 152.65 43.4216C151.871 43.7195 151.018 43.8678 150.143 43.8678H150.148ZM142.612 39.1514C142.708 39.1514 142.8 39.1933 142.865 39.2697C144.173 40.8343 145.618 41.9528 147.16 42.5966C148.925 43.3332 150.841 43.4096 152.419 42.8077C154.232 42.1145 155.756 40.4525 156.492 38.3638C157.126 36.5641 157.229 34.4604 156.798 32.1097C156.59 30.9718 156.251 29.741 155.735 28.2363C155.697 28.124 155.656 27.9803 155.611 27.8186C155.448 27.2331 155.174 26.2539 154.705 26.2539H154.7C154.505 26.2554 154.221 26.4006 153.97 26.5279C153.801 26.6133 153.642 26.6956 153.483 26.751C152.975 26.9307 152.445 27.0699 151.904 27.1628C150.84 27.3469 149.762 27.3574 148.7 27.1927C148.159 27.1089 147.626 26.9786 147.115 26.8064L146.989 26.766C146.722 26.6836 146.502 26.6088 146.32 26.5414C146.637 28.6196 146.265 30.8131 145.265 32.6607C144.82 33.4842 144.35 34.0442 143.788 34.4215C143.045 34.9201 142.138 35.0414 141.42 34.7389C141.067 34.5892 140.782 34.3556 140.508 34.1295C140.275 33.9379 140.055 33.7567 139.811 33.6414C138.991 33.2536 137.84 33.7268 137.394 34.6296C136.98 35.4666 137.102 36.609 137.706 37.5418C138.689 39.06 140.792 39.7757 142.498 39.1708C142.534 39.1574 142.571 39.1514 142.609 39.1514H142.612Z" fill="black"/>
<path d="M141.99 37.862C141.866 37.862 141.748 37.7916 141.692 37.6719C141.307 36.8514 140.401 36.3049 139.497 36.3543C139.313 36.3618 139.16 36.224 139.151 36.0413C139.142 35.8602 139.281 35.7045 139.464 35.6955C140.631 35.6401 141.793 36.3348 142.289 37.3904C142.367 37.5551 142.295 37.7512 142.13 37.8291C142.085 37.85 142.037 37.8605 141.99 37.8605V37.862Z" fill="black"/>
<path d="M123.247 115.434C119.445 113.453 117.042 109.571 115.221 105.693C110.943 96.576 108.866 86.474 108.899 76.4049C108.915 71.4115 109.536 66.159 112.456 62.1074C115.618 57.7234 121.022 55.4461 126.37 54.6406C128.525 54.3172 130.811 54.2138 132.797 55.1092C135.377 56.2726 136.949 58.8584 138.894 60.9141C141.155 63.3053 144.073 65.0705 147.242 65.9644C149.265 66.5349 151.708 66.6771 153.031 64.7381C153.623 63.8712 153.806 62.7962 153.668 61.7556C153.377 59.5711 151.948 57.8866 150.56 56.2741C153.223 55.8429 155.962 56.9074 158.064 58.5949C160.167 60.2838 161.722 62.5476 163.14 64.84C167.472 71.8487 170.8 79.4443 173.465 87.2391C174.407 89.9971 175.279 92.8778 174.98 95.7765C174.639 99.0555 174.031 102.186 171.608 104.423C170.824 105.148 170.078 105.795 169.428 106.341C168.191 107.379 166.573 107.812 164.974 107.591C156.173 106.382 134.886 113.277 133.085 114.735C130.372 116.931 126.278 117.011 123.247 115.431V115.434Z" fill="#008BCE"/>
<path d="M131.941 88.7494C131.802 88.7494 131.671 88.6596 131.626 88.5203L127.42 75.3279C127.365 75.1542 127.46 74.9686 127.634 74.9132C127.808 74.8578 127.994 74.9536 128.049 75.1273L132.256 88.3197C132.311 88.4934 132.215 88.679 132.041 88.7344C132.008 88.7449 131.974 88.7494 131.941 88.7494Z" fill="black"/>
<path d="M161.662 83.6905C161.5 83.6905 161.359 83.5722 161.335 83.4075C160.811 79.7557 159.909 76.1458 158.654 72.6751C158.593 72.5044 158.681 72.3158 158.852 72.2529C159.023 72.1915 159.213 72.2799 159.275 72.4505C160.544 75.9616 161.458 79.6165 161.988 83.3132C162.014 83.4929 161.89 83.6606 161.708 83.686C161.692 83.6875 161.677 83.689 161.66 83.689L161.662 83.6905Z" fill="black"/>
<path d="M133.363 111.613C133.51 112.095 133.721 112.64 134.201 112.797C134.58 112.922 135.039 112.836 135.347 112.585C141.969 107.186 147.251 103.707 155.094 100.336C156.091 99.9073 154.516 104.258 160.189 100.373C161.084 99.7606 160.336 97.9309 159.266 97.7527C160.152 97.6285 160.907 96.8634 161.02 95.977C161.132 95.0906 160.592 94.1623 159.767 93.8194C160.624 93.9796 161.421 93.1262 161.463 92.2548C161.505 91.3849 160.99 90.5778 160.368 89.9669C162.74 91.1183 166.066 94.4722 167.947 92.2113C168.451 89.9205 166.847 88.7018 165.068 87.1715C163.29 85.6413 160.972 84.8837 158.665 84.4495C153.536 83.4853 148.194 83.9644 143.181 85.4167C138.77 86.6939 134.571 88.7003 130.675 91.1183C129.717 91.7128 129.398 91.8415 129.383 92.945C129.368 94.1279 129.714 95.4305 129.899 96.5983C130.284 99.0284 130.748 101.446 131.295 103.845C131.89 106.458 132.58 109.051 133.363 111.614V111.613Z" fill="#FFCFC5"/>
<path d="M155.233 100.577C155.093 100.577 154.963 100.487 154.918 100.348C154.863 100.174 154.959 99.9886 155.132 99.9332L157.401 99.21C157.573 99.1546 157.761 99.2505 157.816 99.4242C157.872 99.5978 157.776 99.7835 157.602 99.8389L155.333 100.562C155.3 100.573 155.266 100.577 155.233 100.577Z" fill="black"/>
<path d="M121.263 97.1475C121.168 97.1475 121.073 97.1055 121.009 97.0277C120.893 96.8869 120.913 96.6788 121.054 96.5635C123.339 94.6889 125.853 93.1033 128.527 91.8471C128.69 91.7693 128.888 91.8396 128.966 92.0058C129.044 92.1705 128.972 92.3667 128.807 92.4445C126.183 93.6768 123.715 95.2339 121.472 97.0726C121.41 97.1235 121.337 97.1475 121.263 97.1475Z" fill="black"/>
<path d="M162.258 102.478C162.294 103.974 162.721 105.575 163.902 106.494C165.422 107.675 167.597 107.341 169.448 106.808C178.231 104.286 186.15 99.4194 190.703 91.5034C190.89 91.177 192.562 87.1748 191.878 86.2719C191.233 85.4215 189.636 87.0355 188.591 87.2556C184.069 88.2034 179.606 89.4371 175.238 90.9419C172.994 91.716 170.773 92.5619 168.582 93.4783C166.907 94.179 165.482 94.3677 164.362 95.8859C162.97 97.7739 162.2 100.131 162.257 102.478H162.258Z" fill="#FFCFC5"/>
<path d="M169.45 107.139C169.307 107.139 169.175 107.045 169.134 106.901C169.083 106.726 169.185 106.543 169.36 106.494C179.035 103.714 186.317 98.4746 190.42 91.3417C190.737 90.7907 192.117 87.1314 191.619 86.4726C191.51 86.3273 191.538 86.1207 191.684 86.0114C191.829 85.9006 192.036 85.9305 192.145 86.0758C193.029 87.2421 191.017 91.6306 190.993 91.6711C186.803 98.9553 179.385 104.301 169.542 107.129C169.512 107.138 169.48 107.142 169.45 107.142V107.139Z" fill="black"/>
<path d="M196.561 78.6182H180.416C180.072 78.6182 179.746 78.7754 179.534 79.0464L166.519 95.5927C165.941 96.3278 166.465 97.4059 167.402 97.4059H182.988C183.323 97.4059 183.642 97.2547 183.855 96.9956L197.429 80.4493C198.03 79.7172 197.508 78.6182 196.561 78.6182Z" fill="black"/>
<path d="M189.695 80.7472C189.5 80.569 189.224 80.3953 188.992 80.5196C188.79 80.6289 188.754 80.8969 188.74 81.126C188.612 83.3659 188.483 85.6058 188.355 87.8457C188.382 85.8424 187.861 83.7702 186.563 82.243C186.244 81.8671 185.679 81.5138 185.301 81.8297C185.074 82.0214 185.056 82.3597 185.069 82.6562C185.18 85.1716 186.188 87.7709 185.303 90.1276C185.146 88.6288 184.789 87.1525 184.245 85.7466C184.022 85.1701 183.746 84.5787 183.244 84.2208C182.74 83.863 181.948 83.842 181.572 84.3316C181.172 84.8512 181.419 85.5923 181.639 86.2092C182.276 87.9985 182.546 89.9179 182.427 91.815C182.183 90.3342 181.879 88.7366 180.773 87.72C180.449 87.422 180.049 87.1824 179.61 87.1465C179.171 87.1106 178.696 87.3172 178.506 87.714C178.297 88.1512 178.47 88.6632 178.609 89.1259C179.149 90.9121 179.137 92.8541 178.612 94.6418C178.219 95.9834 176.538 97.7876 178.317 98.8357C178.927 99.195 179.681 99.2235 180.382 99.1217C182.363 98.8372 184.086 97.6423 185.636 96.3757C187.216 95.082 188.719 93.6611 189.873 91.9752C191.027 90.2893 191.821 88.3144 191.88 86.2736C191.938 84.2313 191.204 82.1277 189.696 80.7472H189.695Z" fill="#FFCFC5"/>
<path d="M81.8982 182.678C82.5636 181.943 83.2334 181.164 83.5166 180.215C83.7998 179.266 83.587 178.095 82.7644 177.543C82.1814 177.15 81.4022 177.126 80.8433 176.703C80.0805 176.125 79.9831 174.97 80.3398 174.084C80.6979 173.197 81.4022 172.506 82.0571 171.81C83.8358 169.917 85.3897 167.734 86.094 165.235C86.7983 162.736 86.554 159.879 85.0076 157.792C83.4612 155.705 80.4866 154.634 78.1055 155.673C76.3478 156.44 75.1954 158.123 74.1405 159.724C71.4777 163.757 68.8044 167.812 66.7844 172.202C64.7644 176.592 63.4083 181.37 63.5312 186.2C63.5761 187.958 63.8309 189.756 64.6745 191.298C65.5197 192.84 67.0406 194.095 68.7939 194.249C71.629 194.498 72.7154 191.526 74.5166 189.949C77.1165 187.673 79.5815 185.245 81.8982 182.681V182.678Z" fill="#A0D2F4"/>
<path d="M69.1322 194.591C69.0123 194.591 68.8909 194.585 68.7651 194.574C67.0343 194.422 65.356 193.227 64.385 191.454C63.6327 190.079 63.2566 188.413 63.2011 186.206C63.0888 181.8 64.1932 177.041 66.4844 172.061C68.5193 167.638 71.2361 163.521 73.8644 159.54C74.846 158.051 76.0687 156.201 77.9733 155.37C80.4069 154.308 83.5462 155.265 85.2725 157.595C86.777 159.625 87.2026 162.513 86.4114 165.322C85.779 167.564 84.4333 169.759 82.2965 172.033L82.1062 172.235C81.5352 172.838 80.9448 173.463 80.6451 174.205C80.3484 174.942 80.3889 175.945 81.0407 176.439C81.288 176.627 81.6042 176.727 81.9383 176.835C82.2785 176.944 82.6291 177.056 82.9468 177.27C83.9718 177.959 84.1231 179.329 83.8309 180.31C83.5342 181.302 82.8629 182.102 82.1406 182.9C79.8165 185.471 77.3245 187.925 74.7321 190.195C74.2181 190.644 73.767 191.21 73.2905 191.807C72.1981 193.177 71.0697 194.591 69.1307 194.591H69.1322ZM80.0682 155.606C79.4314 155.606 78.808 155.725 78.2386 155.973C76.5123 156.726 75.3495 158.487 74.4159 159.902C71.801 163.864 69.0977 167.959 67.0838 172.337C64.836 177.224 63.7511 181.885 63.8605 186.19C63.9129 188.287 64.2636 189.859 64.9634 191.138C65.8295 192.719 67.3085 193.785 68.822 193.918C70.6322 194.082 71.6751 192.776 72.775 191.397C73.2501 190.803 73.7401 190.187 74.2975 189.699C76.8704 187.446 79.3444 185.01 81.6506 182.458C82.319 181.719 82.9408 180.982 83.1986 180.121C83.4323 179.34 83.2945 178.296 82.5782 177.815C82.3384 177.654 82.0462 177.561 81.736 177.462C81.3644 177.342 80.9778 177.219 80.6421 176.965C79.7266 176.272 79.6411 174.929 80.0323 173.96C80.3784 173.1 81.0138 172.431 81.6267 171.783L81.8155 171.582C83.8774 169.387 85.1736 167.281 85.776 165.144C86.5133 162.531 86.1266 159.856 84.742 157.987C83.6286 156.484 81.8005 155.606 80.0682 155.606Z" fill="black"/>
<path d="M50.8716 184.992C48.5864 181.498 48.3901 176.353 51.4021 173.459C52.6339 172.275 54.468 171.165 54.2612 169.47C54.1803 168.808 53.7757 168.233 53.3382 167.73C51.7707 165.929 49.6653 164.688 47.9406 163.036C46.2158 161.386 44.8282 159.03 45.3557 156.703C45.8097 154.698 47.6574 153.199 49.6653 152.756C51.6733 152.313 53.7937 152.791 55.6578 153.658C61.2562 156.263 64.7402 162.186 65.9165 168.244C67.0928 174.302 66.2927 180.551 65.3561 186.65C65.1463 188.018 64.9095 189.438 64.1243 190.58C60.9355 195.22 52.8212 187.967 50.8731 184.991L50.8716 184.992Z" fill="#A0D2F4"/>
<path d="M61.2527 192.422C61.2348 192.422 61.2168 192.422 61.1973 192.422C57.3761 192.378 52.1898 187.609 50.5954 185.173C48.3462 181.733 47.9461 176.323 51.1739 173.224C51.4286 172.978 51.7118 172.735 51.9845 172.499C53.014 171.61 54.0779 170.692 53.9341 169.512C53.8592 168.901 53.4426 168.356 53.0889 167.949C52.1988 166.926 51.1004 166.064 50.0365 165.228C49.2543 164.614 48.4451 163.979 47.7108 163.277C46.6769 162.288 44.3452 159.658 45.033 156.632C45.4886 154.625 47.3212 152.939 49.5929 152.437C51.9591 151.914 54.2713 152.653 55.7952 153.361C61.004 155.783 64.9076 161.325 66.2382 168.182C67.4161 174.255 66.6458 180.407 65.6793 186.702C65.486 187.963 65.2447 189.53 64.3936 190.769C63.6384 191.866 62.5819 192.423 61.2527 192.423V192.422ZM51.1469 184.812C52.7353 187.241 57.7598 191.724 61.2048 191.763H61.2527C62.3661 191.763 63.2158 191.315 63.8496 190.394C64.6169 189.28 64.8342 187.856 65.0275 186.6C65.985 180.366 66.7492 174.275 65.5909 168.307C64.2992 161.656 60.5335 156.291 55.5165 153.957C54.0839 153.29 51.9186 152.597 49.7338 153.079C47.7063 153.527 46.076 155.012 45.6744 156.776C45.063 159.474 47.2133 161.888 48.1664 162.8C48.8767 163.479 49.6724 164.104 50.4426 164.709C51.5305 165.562 52.6544 166.445 53.5849 167.515C54.0015 167.992 54.4915 168.642 54.5874 169.431C54.7733 170.958 53.5205 172.041 52.4146 172.996C52.1359 173.237 51.8722 173.465 51.6309 173.697C48.6504 176.56 49.0445 181.596 51.1469 184.812Z" fill="black"/>
<path d="M59.3532 188.522C59.2738 188.522 59.1944 188.494 59.1314 188.437C56.0415 185.631 56.085 180.873 56.3862 178.287C56.5195 177.137 56.7263 175.977 56.9256 174.855C57.3347 172.551 57.7588 170.169 57.555 167.83C57.2703 164.557 55.1484 160.844 51.7798 160.404C51.5985 160.38 51.4711 160.215 51.4951 160.034C51.5191 159.853 51.6824 159.724 51.8652 159.749C55.616 160.237 57.8967 164.154 58.2128 167.772C58.4241 170.197 57.9926 172.623 57.576 174.969C57.3782 176.082 57.1744 177.231 57.0425 178.362C56.7563 180.822 56.7039 185.339 59.5765 187.947C59.7113 188.07 59.7218 188.278 59.599 188.413C59.5345 188.485 59.4446 188.521 59.3547 188.521L59.3532 188.522Z" fill="black"/>
<path d="M60.9234 175.476C61.8045 173.456 63.1277 171.507 63.1232 169.303C63.1187 166.111 60.4199 163.694 58.5138 161.132C55.0988 156.542 53.9974 150.124 56.3605 144.915C58.7236 139.706 64.7761 136.222 70.3669 137.446C72.3944 137.889 74.3904 138.995 75.3479 140.835C76.4508 142.951 75.9698 145.526 75.2565 147.804C74.5433 150.081 73.6112 152.399 73.8899 154.769C74.3859 158.972 78.4978 161.963 79.3579 166.106C80.2525 170.409 77.4339 174.555 74.5088 177.836C72.8604 179.685 71.1192 181.489 69.769 183.578C68.2226 185.971 68.0413 188.107 67.5003 190.799C66.9249 193.665 64.9963 193.996 63.1157 191.939C61.3355 189.991 60.3225 187.216 59.8835 184.656C59.356 181.581 59.6692 178.346 60.9204 175.478L60.9234 175.476Z" fill="#A0D2F4"/>
<path d="M65.4342 193.586C64.619 193.586 63.7304 193.095 62.8763 192.161C60.696 189.776 59.8643 186.47 59.5616 184.71C59.0102 181.5 59.3863 178.175 60.6211 175.345C60.8413 174.839 61.0916 174.333 61.3343 173.843C62.0866 172.322 62.7969 170.886 62.7939 169.303C62.7909 166.915 61.15 164.915 59.5646 162.982C59.1226 162.443 58.6655 161.886 58.2504 161.329C54.5911 156.409 53.7325 149.914 56.0611 144.78C58.5606 139.27 64.8783 135.905 70.4392 137.124C72.8428 137.65 74.7384 138.946 75.642 140.683C76.8558 143.011 76.2429 145.765 75.573 147.901C75.4697 148.229 75.3633 148.559 75.2554 148.888C74.6335 150.797 73.9891 152.772 74.2199 154.729C74.4702 156.852 75.669 158.64 76.9367 160.532C78.08 162.238 79.2608 164.003 79.6849 166.038C80.6649 170.757 77.3428 175.156 74.7594 178.053C74.4791 178.368 74.1974 178.679 73.9142 178.992C72.5581 180.492 71.157 182.044 70.0496 183.755C68.7894 185.704 68.4567 187.503 68.0701 189.585C67.9937 189.999 67.9142 190.422 67.8273 190.863C67.5351 192.319 66.8698 193.261 65.9527 193.516C65.7849 193.562 65.611 193.586 65.4342 193.586ZM68.0956 137.533C63.4502 137.533 58.712 140.533 56.6635 145.052C54.4308 149.971 55.2624 156.207 58.7809 160.937C59.1855 161.482 59.638 162.033 60.0756 162.566C61.7359 164.589 63.4517 166.68 63.4547 169.303C63.4577 171.04 62.68 172.614 61.9262 174.137C61.688 174.62 61.4407 175.119 61.2264 175.61C60.0426 178.323 59.6815 181.517 60.212 184.601C60.5012 186.288 61.2954 189.457 63.3633 191.718C64.2129 192.649 65.0926 193.073 65.7759 192.882C66.4412 192.698 66.9387 191.935 67.18 190.735C67.2669 190.3 67.3448 189.879 67.4212 189.469C67.8198 187.317 68.1645 185.459 69.4951 183.4C70.6295 181.644 72.0501 180.073 73.4242 178.554C73.7059 178.242 73.9876 177.931 74.2664 177.618C76.7554 174.825 79.9591 170.602 79.0391 166.174C78.642 164.265 77.4971 162.555 76.3897 160.901C75.134 159.026 73.8363 157.089 73.5666 154.807C73.3193 152.706 73.9846 150.662 74.6305 148.685C74.7369 148.357 74.8433 148.03 74.9467 147.704C75.5775 145.687 76.162 143.101 75.0606 140.986C74.2469 139.424 72.5116 138.25 70.3013 137.766C69.5776 137.608 68.8388 137.531 68.0985 137.531L68.0956 137.533Z" fill="black"/>
<path d="M65.5039 190.894C65.4125 190.894 65.3196 190.856 65.2552 190.781C62.964 188.145 63.2023 184.212 64.1883 181.409C64.8806 179.443 65.946 177.626 66.9755 175.868C67.5359 174.911 68.1158 173.923 68.6253 172.926C70.383 169.488 70.8641 166.484 70.0579 163.999C69.5289 162.367 68.4815 161.021 67.3741 159.594C66.6518 158.666 65.9055 157.705 65.3211 156.661C63.0869 152.68 63.424 147.337 66.1423 143.668C66.2502 143.521 66.457 143.491 66.6038 143.599C66.7507 143.707 66.7807 143.913 66.6728 144.06C64.1043 147.528 63.7852 152.576 65.8966 156.338C66.4585 157.338 67.1883 158.279 67.8955 159.19C68.9894 160.599 70.1208 162.054 70.6857 163.795C71.5489 166.455 71.0529 169.627 69.2127 173.225C68.6942 174.239 68.1098 175.236 67.5449 176.2C66.5304 177.931 65.4815 179.722 64.8101 181.628C63.8856 184.257 63.6473 187.927 65.7527 190.348C65.8726 190.486 65.8576 190.694 65.7197 190.814C65.6568 190.868 65.5804 190.894 65.5039 190.894Z" fill="black"/>
<path d="M85.219 188.528H45.7441L48.4339 218.685H82.5292L85.219 188.528Z" fill="#E2EAFF"/>
<path d="M167.246 273.917H40.3297C40.1469 273.917 40 273.771 40 273.588V218.7C40 218.517 40.1484 218.37 40.3297 218.37H86.308C86.4908 218.37 86.6377 218.517 86.6377 218.7C86.6377 218.882 86.4908 219.029 86.308 219.029H40.6593V273.258H167.246C167.429 273.258 167.576 273.405 167.576 273.588C167.576 273.771 167.429 273.917 167.246 273.917Z" fill="black"/>
<path d="M384.028 190.145C383.846 190.145 383.699 189.999 383.699 189.816V165.824C383.699 158.965 378.117 153.384 371.255 153.384C364.394 153.384 358.812 158.965 358.812 165.824V189.816C358.812 189.999 358.665 190.145 358.482 190.145C358.299 190.145 358.152 189.999 358.152 189.816V165.824C358.152 158.601 364.031 152.726 371.255 152.726C378.479 152.726 384.358 158.601 384.358 165.824V189.816C384.358 189.999 384.211 190.145 384.028 190.145Z" fill="black"/>
<path d="M409.766 262.242H345.758L351.503 185.54H404.021L409.766 262.242Z" fill="#008BCE"/>
<path d="M392.532 262.242H328.523L334.269 185.54H386.786L392.532 262.242Z" fill="#E2EAFF"/>
<path d="M374.05 195.09C373.867 195.09 373.72 194.943 373.72 194.76V170.768C373.72 163.909 368.138 158.329 361.277 158.329C354.415 158.329 348.833 163.909 348.833 170.768V194.76C348.833 194.943 348.686 195.09 348.504 195.09C348.321 195.09 348.174 194.943 348.174 194.76V170.768C348.174 163.545 354.052 157.67 361.277 157.67C368.501 157.67 374.38 163.545 374.38 170.768V194.76C374.38 194.943 374.233 195.09 374.05 195.09Z" fill="black"/>
<path d="M377.608 268.015L371.118 273.658L290.611 229.463L297.113 223.891H377.608V268.015Z" fill="white"/>
<path d="M371.118 273.988C371.064 273.988 371.008 273.975 370.959 273.948L290.452 229.753C290.358 229.7 290.293 229.606 290.283 229.498C290.272 229.39 290.314 229.284 290.397 229.214L296.899 223.641C296.959 223.59 297.035 223.562 297.113 223.562H377.608C377.791 223.562 377.937 223.708 377.937 223.891V268.015C377.937 268.111 377.895 268.201 377.823 268.264L371.333 273.906C371.272 273.96 371.196 273.987 371.118 273.987V273.988ZM291.186 229.404L371.074 273.259L377.278 267.866V224.22H297.234L291.186 229.404Z" fill="black"/>
<path d="M371.106 229.453H290.611V273.67H371.106V229.453Z" fill="white"/>
<path d="M371.106 274H290.611C290.428 274 290.281 273.853 290.281 273.671V229.453C290.281 229.271 290.428 229.124 290.611 229.124H371.106C371.288 229.124 371.435 229.271 371.435 229.453V273.671C371.435 273.853 371.288 274 371.106 274ZM290.941 273.341H370.776V229.783H290.941V273.341Z" fill="black"/>
<path d="M331.436 255.091C326.026 255.091 321.625 250.697 321.625 245.296V232.472C321.625 232.289 321.772 232.143 321.955 232.143C322.137 232.143 322.284 232.289 322.284 232.472V245.296C322.284 250.333 326.389 254.432 331.436 254.432C336.483 254.432 340.587 250.334 340.587 245.296V232.472C340.587 232.289 340.734 232.143 340.917 232.143C341.099 232.143 341.246 232.289 341.246 232.472V245.296C341.246 250.697 336.845 255.091 331.436 255.091Z" fill="black"/>
<path d="M371.105 229.782C371.012 229.782 370.919 229.743 370.855 229.667C370.736 229.529 370.753 229.321 370.89 229.203L377.392 223.64C377.53 223.524 377.739 223.537 377.857 223.676C377.975 223.814 377.959 224.022 377.821 224.141L371.319 229.703C371.258 229.755 371.181 229.782 371.105 229.782Z" fill="black"/>
</g>
<defs>
<clipPath id="clip0_2448_10742">
<rect width="411" height="274" fill="white"/>
</clipPath>
</defs>
</svg>
