<svg width="427" height="425" viewBox="0 0 427 425" fill="none" xmlns="http://www.w3.org/2000/svg">
<g clip-path="url(#clip0_2448_10861)">
<path d="M400.041 382.57C388.531 392.16 338.441 398.94 278.761 401.49C187.021 405.42 72.6009 399.37 40.7909 378.2C25.7309 368.19 15.5509 337.25 9.1009 297.66C-6.9291 199.16 0.220901 47.1301 13.1609 30.6501C31.3109 7.56009 323.301 -15.3099 399.911 13.9301C432.741 26.4601 429.231 358.23 400.031 382.57H400.041Z" fill="white"/>
<path d="M373.314 247.44L375.204 241.883L377.358 247.44C377.358 247.44 381.657 248.14 381.712 248.531C381.757 248.913 377.595 250.095 377.595 250.095C377.595 250.095 375.85 255.488 375.204 254.27C374.568 253.051 373.95 250.35 373.95 250.35C373.95 250.35 368.533 249.268 368.533 248.731C368.533 248.158 373.314 247.449 373.314 247.449V247.44Z" fill="white"/>
<path d="M304.094 233.142L305.566 228.822L307.238 233.142C307.238 233.142 310.574 233.688 310.619 233.988C310.656 234.279 307.429 235.198 307.429 235.198C307.429 235.198 306.075 239.381 305.575 238.435C305.075 237.49 304.594 235.389 304.594 235.389C304.594 235.389 300.395 234.543 300.395 234.134C300.395 233.688 304.103 233.142 304.103 233.142H304.094Z" fill="white"/>
<g clip-path="url(#clip1_2448_10861)">
<path d="M243.442 363.999H-14.6564C-14.8465 363.999 -15 363.846 -15 363.656C-15 363.466 -14.8465 363.312 -14.6564 363.312H243.442C243.632 363.312 243.786 363.466 243.786 363.656C243.786 363.846 243.632 363.999 243.442 363.999Z" fill="#292929"/>
<path d="M426.656 363.999H303.484C303.294 363.999 303.141 363.846 303.141 363.656C303.141 363.466 303.294 363.312 303.484 363.312H426.656C426.846 363.312 427 363.466 427 363.656C427 363.846 426.846 363.999 426.656 363.999Z" fill="#292929"/>
<path d="M362.115 70.8057H120.222C115.992 70.8057 112.562 74.2333 112.562 78.4616V263.363C112.562 267.591 115.992 271.019 120.222 271.019H362.115C366.346 271.019 369.775 267.591 369.775 263.363V78.4616C369.775 74.2333 366.346 70.8057 362.115 70.8057Z" fill="#292929"/>
<path d="M361.998 77.0527H120.105C115.875 77.0527 112.445 80.4804 112.445 84.7087V269.61C112.445 273.838 115.875 277.266 120.105 277.266H361.998C366.228 277.266 369.658 273.838 369.658 269.61V84.7087C369.658 80.4804 366.228 77.0527 361.998 77.0527Z" fill="white"/>
<path d="M361.996 277.609H120.104C115.691 277.609 112.102 274.02 112.102 269.61V84.7113C112.102 80.2995 115.693 76.7119 120.104 76.7119H361.996C366.41 76.7119 369.999 80.3018 369.999 84.7113V269.61C369.999 274.022 366.407 277.609 361.996 277.609ZM120.104 77.3965C116.071 77.3965 112.789 80.6773 112.789 84.709V269.608C112.789 273.64 116.071 276.92 120.104 276.92H361.996C366.029 276.92 369.312 273.64 369.312 269.608V84.7113C369.312 80.6795 366.029 77.3988 361.996 77.3988H120.104V77.3965Z" fill="#292929"/>
<path d="M350.903 111.243H132.109C131.919 111.243 131.766 111.09 131.766 110.9C131.766 110.71 131.919 110.557 132.109 110.557H350.903C351.094 110.557 351.247 110.71 351.247 110.9C351.247 111.09 351.094 111.243 350.903 111.243Z" fill="#292929"/>
<path d="M194.363 258.214C194.173 258.214 194.02 258.06 194.02 257.87V93.5856C194.02 93.3956 194.173 93.2422 194.363 93.2422C194.553 93.2422 194.707 93.3956 194.707 93.5856V257.868C194.707 258.058 194.553 258.211 194.363 258.211V258.214Z" fill="#292929"/>
<path d="M288.39 258.341C288.2 258.341 288.047 258.188 288.047 257.998V93.7155C288.047 93.5255 288.2 93.3721 288.39 93.3721C288.581 93.3721 288.734 93.5255 288.734 93.7155V257.998C288.734 258.188 288.581 258.341 288.39 258.341Z" fill="#292929"/>
<path d="M322.253 104.213C322.17 104.213 322.085 104.183 322.021 104.124L316.029 98.6567C315.89 98.5285 315.881 98.311 316.007 98.1714C316.135 98.0317 316.352 98.0226 316.492 98.1485L322.264 103.417L334.797 93.1895C334.944 93.0705 335.162 93.0911 335.281 93.2376C335.4 93.3841 335.379 93.6016 335.233 93.7207L322.47 104.135C322.406 104.188 322.33 104.213 322.253 104.213Z" fill="#292929"/>
<path d="M168.576 102.129H146.697C146.507 102.129 146.354 101.976 146.354 101.786C146.354 101.596 146.507 101.442 146.697 101.442H168.576C168.766 101.442 168.919 101.596 168.919 101.786C168.919 101.976 168.766 102.129 168.576 102.129Z" fill="#292929"/>
<path d="M164.409 105.516C164.302 105.516 164.198 105.465 164.13 105.374C164.018 105.22 164.054 105.005 164.208 104.895L168.896 101.512C169.05 101.402 169.265 101.436 169.375 101.589C169.487 101.743 169.45 101.958 169.297 102.068L164.608 105.452C164.547 105.495 164.478 105.516 164.407 105.516H164.409Z" fill="#292929"/>
<path d="M169.097 102.13C169.028 102.13 168.957 102.109 168.895 102.066L164.207 98.6821C164.053 98.5722 164.019 98.357 164.129 98.2036C164.239 98.0502 164.454 98.0159 164.607 98.1258L169.296 101.51C169.449 101.62 169.484 101.835 169.374 101.988C169.307 102.082 169.202 102.13 169.094 102.13H169.097Z" fill="#292929"/>
<path d="M155.683 171.432H133.021V174.035H155.683V171.432Z" fill="#292929"/>
<path d="M170.53 171.432H158.287V174.035H170.53V171.432Z" fill="#292929"/>
<path d="M147.867 182.107H170.529V179.504H147.867V182.107Z" fill="#292929"/>
<path d="M133.021 182.107H145.264V179.504H133.021V182.107Z" fill="#292929"/>
<path d="M147.868 196.686H133.021V199.289H147.868V196.686Z" fill="#292929"/>
<path d="M169.227 196.686H150.473V199.289H169.227V196.686Z" fill="#292929"/>
<path d="M178.342 196.686H172.092V199.289H178.342V196.686Z" fill="#292929"/>
<path d="M159.069 207.359H181.209V204.756H159.069V207.359Z" fill="#292929"/>
<path d="M133.024 207.359H154.383V204.756H133.024V207.359Z" fill="#292929"/>
<path d="M259.611 175.857H236.949V178.461H259.611V175.857Z" fill="#292929"/>
<path d="M274.457 175.857H262.215V178.461H274.457V175.857Z" fill="#292929"/>
<path d="M251.793 186.531H274.455V183.928H251.793V186.531Z" fill="#292929"/>
<path d="M236.949 186.531H249.191V183.928H236.949V186.531Z" fill="#292929"/>
<path d="M319.257 226.887H301.545V229.49H319.257V226.887Z" fill="#292929"/>
<path d="M330.715 226.887H323.684V229.49H330.715V226.887Z" fill="#292929"/>
<path d="M148.568 84.9839C148.568 84.9839 148.559 84.9839 148.554 84.9839C142.354 84.748 137.496 79.7021 137.496 73.4954C137.496 67.2886 142.657 62 148.999 62C155.341 62 160.499 67.1581 160.499 73.4954C160.499 73.6854 160.346 73.8388 160.156 73.8388C159.966 73.8388 159.812 73.6854 159.812 73.4954C159.812 67.5359 154.961 62.6868 148.999 62.6868C143.037 62.6868 138.186 67.5359 138.186 73.4954C138.186 79.4548 142.753 84.0749 148.582 84.297C148.772 84.3039 148.919 84.4642 148.912 84.6542C148.905 84.8396 148.751 84.9839 148.568 84.9839Z" fill="#292929"/>
<path d="M181.678 84.9839C181.678 84.9839 181.668 84.9839 181.664 84.9839C175.464 84.748 170.605 79.7021 170.605 73.4954C170.605 67.2886 175.766 62 182.108 62C188.45 62 193.609 67.1581 193.609 73.4954C193.609 73.6854 193.455 73.8388 193.265 73.8388C193.075 73.8388 192.921 73.6854 192.921 73.4954C192.921 67.5359 188.07 62.6868 182.108 62.6868C176.146 62.6868 171.295 67.5359 171.295 73.4954C171.295 79.4548 175.862 84.0749 181.691 84.297C181.881 84.3039 182.028 84.4642 182.021 84.6542C182.014 84.8396 181.861 84.9839 181.678 84.9839Z" fill="#292929"/>
<path d="M150.74 84.6457C151.051 82.876 149.868 81.1895 148.097 80.8787C146.327 80.568 144.639 81.7506 144.329 83.5203C144.018 85.29 145.201 86.9765 146.971 87.2873C148.742 87.5981 150.429 86.4154 150.74 84.6457Z" fill="#292929"/>
<path d="M185.138 84.6057C185.426 82.8321 184.221 81.161 182.447 80.8731C180.673 80.5852 179.001 81.7896 178.713 83.5631C178.425 85.3367 179.63 87.0078 181.404 87.2957C183.178 87.5836 184.85 86.3792 185.138 84.6057Z" fill="#292929"/>
<path d="M301.984 84.9839C301.984 84.9839 301.975 84.9839 301.97 84.9839C295.77 84.748 290.912 79.7021 290.912 73.4954C290.912 67.2886 296.073 62 302.415 62C308.757 62 313.915 67.1581 313.915 73.4954C313.915 73.6854 313.762 73.8388 313.572 73.8388C313.382 73.8388 313.228 73.6854 313.228 73.4954C313.228 67.5359 308.377 62.6868 302.415 62.6868C296.453 62.6868 291.602 67.5359 291.602 73.4954C291.602 79.4548 296.169 84.0749 301.998 84.297C302.188 84.3039 302.335 84.4642 302.328 84.6542C302.321 84.8396 302.167 84.9839 301.984 84.9839Z" fill="#292929"/>
<path d="M335.094 84.9839C335.094 84.9839 335.084 84.9839 335.08 84.9839C328.88 84.748 324.021 79.7021 324.021 73.4954C324.021 67.2886 329.182 62 335.524 62C341.866 62 347.025 67.1581 347.025 73.4954C347.025 73.6854 346.871 73.8388 346.681 73.8388C346.491 73.8388 346.337 73.6854 346.337 73.4954C346.337 67.5359 341.486 62.6868 335.524 62.6868C329.562 62.6868 324.711 67.5359 324.711 73.4954C324.711 79.4548 329.278 84.0749 335.107 84.297C335.297 84.3039 335.444 84.4642 335.437 84.6542C335.43 84.8396 335.277 84.9839 335.094 84.9839Z" fill="#292929"/>
<path d="M304.175 84.6066C304.463 82.8331 303.259 81.162 301.484 80.8741C299.71 80.5862 298.038 81.7905 297.75 83.5641C297.462 85.3376 298.667 87.0088 300.441 87.2967C302.216 87.5845 303.887 86.3802 304.175 84.6066Z" fill="#292929"/>
<path d="M338.56 84.6066C338.848 82.8331 337.643 81.162 335.869 80.8741C334.095 80.5862 332.423 81.7905 332.135 83.5641C331.847 85.3376 333.052 87.0088 334.826 87.2967C336.6 87.5845 338.272 86.3802 338.56 84.6066Z" fill="#292929"/>
<path d="M168.561 132.955L163.442 150.719L145.67 145.6L149.529 132.216L153.909 133.477L155.171 129.1L168.561 132.955Z" fill="#008BCE"/>
<path d="M155.171 129.1L153.909 133.477L149.529 132.216C151.41 131.176 153.29 130.137 155.171 129.1Z" fill="#292929"/>
<path d="M330.72 132.871L333.61 151.13L315.344 154.019L313.168 140.259L317.669 139.547L316.956 135.048L330.72 132.871Z" fill="#008BCE"/>
<path d="M316.957 135.047L317.669 139.548L313.166 140.26C314.43 138.522 315.692 136.785 316.957 135.047Z" fill="#292929"/>
<path d="M208.494 185.408L212.631 184.6C212.72 184.582 212.798 184.531 212.851 184.456C212.901 184.38 212.919 184.289 212.903 184.199L212.095 180.065L225.095 177.523L228.513 194.992L211.037 198.408L208.494 185.411V185.408Z" fill="white"/>
<path d="M224.824 177.927L228.108 194.72L211.308 198.003L208.898 185.681L212.698 184.94C212.877 184.905 213.035 184.8 213.135 184.649C213.236 184.498 213.275 184.312 213.241 184.134L212.499 180.335L224.826 177.927H224.824ZM225.366 177.121L211.69 179.793L212.565 184.264L208.092 185.139L210.765 198.809L228.914 195.263L225.366 177.121Z" fill="#292929"/>
<path d="M211.69 179.793L212.565 184.264L208.092 185.139C209.292 183.358 210.492 181.574 211.69 179.793Z" fill="#292929"/>
<path d="M344.698 144.814L343.8 163.276L325.33 162.381L326.006 148.468L330.559 148.69L330.779 144.139L344.698 144.814Z" fill="#E7ECF2"/>
<path d="M330.78 144.139L330.557 148.69L326.004 148.468C327.596 147.026 329.188 145.581 330.777 144.139H330.78Z" fill="#292929"/>
<path d="M166.798 221.619L165.902 240.081L147.43 239.186L148.105 225.273L152.659 225.493L152.881 220.943L166.798 221.619Z" fill="#E7ECF2"/>
<path d="M152.881 220.943L152.659 225.495L148.105 225.273C149.697 223.83 151.287 222.386 152.879 220.943H152.881Z" fill="#292929"/>
<path d="M242.288 106.036C239.093 106.036 236.39 103.65 236.001 100.486C235.978 100.298 236.111 100.127 236.301 100.104C236.488 100.078 236.66 100.214 236.683 100.404C237.031 103.224 239.441 105.351 242.288 105.351C245.135 105.351 247.46 103.288 247.872 100.555C247.9 100.367 248.074 100.239 248.264 100.266C248.452 100.294 248.58 100.47 248.552 100.658C248.09 103.726 245.396 106.038 242.29 106.038L242.288 106.036Z" fill="#292929"/>
<path d="M248.248 99.4346C248.073 99.4346 247.925 99.3018 247.906 99.1255C247.613 96.2362 245.197 94.0589 242.288 94.0589C239.624 94.0589 237.299 95.9477 236.759 98.5485C236.72 98.734 236.539 98.853 236.353 98.8141C236.168 98.7752 236.049 98.5943 236.087 98.4089C236.694 95.4898 239.303 93.3721 242.29 93.3721C245.554 93.3721 248.264 95.8149 248.591 99.0568C248.609 99.2445 248.472 99.4139 248.284 99.4323C248.273 99.4323 248.261 99.4323 248.25 99.4323L248.248 99.4346Z" fill="#292929"/>
<path d="M245.935 102.39C245.813 102.39 245.697 102.326 245.635 102.214C245.543 102.049 245.603 101.839 245.768 101.747L248.111 100.444C248.276 100.353 248.486 100.412 248.578 100.577C248.67 100.742 248.61 100.953 248.445 101.044L246.102 102.347C246.049 102.377 245.992 102.39 245.935 102.39Z" fill="#292929"/>
<path d="M249.074 103.538C248.927 103.538 248.792 103.444 248.746 103.297L247.938 100.742C247.881 100.562 247.981 100.369 248.162 100.312C248.343 100.255 248.536 100.355 248.593 100.536L249.402 103.091C249.459 103.272 249.358 103.465 249.177 103.522C249.143 103.533 249.108 103.538 249.074 103.538Z" fill="#292929"/>
<path d="M236.312 99.0066C236.19 99.0066 236.074 98.9425 236.012 98.8303C235.92 98.6655 235.98 98.4549 236.145 98.3633L238.488 97.0606C238.653 96.969 238.863 97.0285 238.955 97.1934C239.047 97.3582 238.987 97.5688 238.822 97.6604L236.479 98.9631C236.426 98.9929 236.369 99.0066 236.312 99.0066Z" fill="#292929"/>
<path d="M236.324 99.112C236.177 99.112 236.042 99.0181 235.996 98.8716L235.188 96.3166C235.131 96.1357 235.231 95.9434 235.412 95.8862C235.593 95.8289 235.786 95.9297 235.843 96.1105L236.652 98.6656C236.709 98.8464 236.608 99.0388 236.427 99.096C236.393 99.1074 236.358 99.112 236.324 99.112Z" fill="#292929"/>
<path d="M271.33 242.851H214.808C214.618 242.851 214.465 242.697 214.465 242.507V217.905C214.465 217.715 214.618 217.561 214.808 217.561H221.627V211.265C221.627 211.075 221.781 210.922 221.971 210.922H271.33C271.52 210.922 271.674 211.075 271.674 211.265V242.507C271.674 242.697 271.52 242.851 271.33 242.851ZM215.152 242.164H270.987V211.609H222.314V217.905C222.314 218.095 222.161 218.248 221.971 218.248H215.152V242.164Z" fill="#292929"/>
<path d="M238.511 218.249H228.744C228.554 218.249 228.4 218.096 228.4 217.906C228.4 217.716 228.554 217.562 228.744 217.562H238.511C238.701 217.562 238.854 217.716 238.854 217.906C238.854 218.096 238.701 218.249 238.511 218.249Z" fill="#292929"/>
<path d="M265.731 218.249H243.461C243.271 218.249 243.117 218.096 243.117 217.906C243.117 217.716 243.271 217.562 243.461 217.562H265.731C265.921 217.562 266.075 217.716 266.075 217.906C266.075 218.096 265.921 218.249 265.731 218.249Z" fill="#292929"/>
<path d="M249.972 222.673H228.744C228.554 222.673 228.4 222.52 228.4 222.33C228.4 222.14 228.554 221.986 228.744 221.986H249.972C250.162 221.986 250.316 222.14 250.316 222.33C250.316 222.52 250.162 222.673 249.972 222.673Z" fill="#292929"/>
<path d="M265.73 222.673H254.14C253.95 222.673 253.797 222.52 253.797 222.33C253.797 222.14 253.95 221.986 254.14 221.986H265.73C265.92 221.986 266.074 222.14 266.074 222.33C266.074 222.52 265.92 222.673 265.73 222.673Z" fill="#292929"/>
<path d="M245.153 227.099H228.744C228.554 227.099 228.4 226.946 228.4 226.756C228.4 226.566 228.554 226.412 228.744 226.412H245.153C245.343 226.412 245.496 226.566 245.496 226.756C245.496 226.946 245.343 227.099 245.153 227.099Z" fill="#292929"/>
<path d="M265.731 227.099H249.322C249.132 227.099 248.979 226.946 248.979 226.756C248.979 226.566 249.132 226.412 249.322 226.412H265.731C265.921 226.412 266.075 226.566 266.075 226.756C266.075 226.946 265.921 227.099 265.731 227.099Z" fill="#292929"/>
<path d="M237.729 231.525H228.744C228.554 231.525 228.4 231.371 228.4 231.181C228.4 230.991 228.554 230.838 228.744 230.838H237.729C237.92 230.838 238.073 230.991 238.073 231.181C238.073 231.371 237.92 231.525 237.729 231.525Z" fill="#292929"/>
<path d="M265.731 231.525H242.16C241.97 231.525 241.816 231.371 241.816 231.181C241.816 230.991 241.97 230.838 242.16 230.838H265.731C265.921 230.838 266.075 230.991 266.075 231.181C266.075 231.371 265.921 231.525 265.731 231.525Z" fill="#292929"/>
<path d="M245.153 235.952H228.744C228.554 235.952 228.4 235.799 228.4 235.609C228.4 235.419 228.554 235.266 228.744 235.266H245.153C245.343 235.266 245.496 235.419 245.496 235.609C245.496 235.799 245.343 235.952 245.153 235.952Z" fill="#292929"/>
<path d="M265.731 235.952H249.322C249.132 235.952 248.979 235.799 248.979 235.609C248.979 235.419 249.132 235.266 249.322 235.266H265.731C265.921 235.266 266.075 235.419 266.075 235.609C266.075 235.799 265.921 235.952 265.731 235.952Z" fill="#292929"/>
<path d="M214.94 217.987C214.849 217.987 214.755 217.95 214.688 217.877C214.56 217.737 214.569 217.52 214.707 217.391L221.48 211.143C221.619 211.015 221.837 211.024 221.965 211.162C222.093 211.301 222.084 211.519 221.947 211.647L215.174 217.895C215.108 217.957 215.025 217.987 214.94 217.987Z" fill="#292929"/>
<path d="M358.067 211.87H301.545C301.355 211.87 301.201 211.717 301.201 211.527V186.924C301.201 186.734 301.355 186.581 301.545 186.581H308.363V180.285C308.363 180.095 308.517 179.941 308.707 179.941H358.067C358.257 179.941 358.41 180.095 358.41 180.285V211.527C358.41 211.717 358.257 211.87 358.067 211.87ZM301.888 211.183H357.723V180.628H309.051V186.924C309.051 187.114 308.897 187.268 308.707 187.268H301.888V211.183Z" fill="#292929"/>
<path d="M327.853 187.265H315.48C315.29 187.265 315.137 187.112 315.137 186.922C315.137 186.732 315.29 186.578 315.48 186.578H327.853C328.043 186.578 328.197 186.732 328.197 186.922C328.197 187.112 328.043 187.265 327.853 187.265Z" fill="#292929"/>
<path d="M352.466 187.265H334.103C333.913 187.265 333.76 187.112 333.76 186.922C333.76 186.732 333.913 186.578 334.103 186.578H352.466C352.656 186.578 352.81 186.732 352.81 186.922C352.81 187.112 352.656 187.265 352.466 187.265Z" fill="#292929"/>
<path d="M340.877 191.693H315.48C315.29 191.693 315.137 191.539 315.137 191.349C315.137 191.159 315.29 191.006 315.48 191.006H340.877C341.067 191.006 341.221 191.159 341.221 191.349C341.221 191.539 341.067 191.693 340.877 191.693Z" fill="#292929"/>
<path d="M352.467 191.693H340.877C340.687 191.693 340.533 191.539 340.533 191.349C340.533 191.159 340.687 191.006 340.877 191.006H352.467C352.657 191.006 352.81 191.159 352.81 191.349C352.81 191.539 352.657 191.693 352.467 191.693Z" fill="#292929"/>
<path d="M338.532 196.118H315.48C315.29 196.118 315.137 195.965 315.137 195.775C315.137 195.585 315.29 195.432 315.48 195.432H338.532C338.722 195.432 338.875 195.585 338.875 195.775C338.875 195.965 338.722 196.118 338.532 196.118Z" fill="#292929"/>
<path d="M352.467 196.118H342.439C342.249 196.118 342.096 195.965 342.096 195.775C342.096 195.585 342.249 195.432 342.439 195.432H352.467C352.657 195.432 352.81 195.585 352.81 195.775C352.81 195.965 352.657 196.118 352.467 196.118Z" fill="#292929"/>
<path d="M324.466 200.544H315.48C315.29 200.544 315.137 200.391 315.137 200.201C315.137 200.011 315.29 199.857 315.48 199.857H324.466C324.656 199.857 324.809 200.011 324.809 200.201C324.809 200.391 324.656 200.544 324.466 200.544Z" fill="#292929"/>
<path d="M352.465 200.544H328.894C328.704 200.544 328.551 200.391 328.551 200.201C328.551 200.011 328.704 199.857 328.894 199.857H352.465C352.656 199.857 352.809 200.011 352.809 200.201C352.809 200.391 352.656 200.544 352.465 200.544Z" fill="#292929"/>
<path d="M331.889 204.97H315.48C315.29 204.97 315.137 204.817 315.137 204.627C315.137 204.437 315.29 204.283 315.48 204.283H331.889C332.079 204.283 332.233 204.437 332.233 204.627C332.233 204.817 332.079 204.97 331.889 204.97Z" fill="#292929"/>
<path d="M352.465 204.97H336.056C335.866 204.97 335.713 204.817 335.713 204.627C335.713 204.437 335.866 204.283 336.056 204.283H352.465C352.655 204.283 352.809 204.437 352.809 204.627C352.809 204.817 352.655 204.97 352.465 204.97Z" fill="#292929"/>
<path d="M301.675 187.006C301.583 187.006 301.489 186.97 301.423 186.896C301.294 186.757 301.304 186.539 301.441 186.411L308.214 180.163C308.354 180.035 308.571 180.044 308.7 180.181C308.828 180.321 308.819 180.538 308.681 180.667L301.908 186.915C301.842 186.976 301.759 187.006 301.675 187.006Z" fill="#292929"/>
<path d="M271.33 155.894H214.808C214.618 155.894 214.465 155.74 214.465 155.55V130.948C214.465 130.758 214.618 130.604 214.808 130.604H221.627V124.308C221.627 124.118 221.781 123.965 221.971 123.965H271.33C271.52 123.965 271.674 124.118 271.674 124.308V155.55C271.674 155.74 271.52 155.894 271.33 155.894ZM215.152 155.207H270.987V124.652H222.314V130.948C222.314 131.138 222.161 131.291 221.971 131.291H215.152V155.207Z" fill="#292929"/>
<path d="M246.587 131.29H228.744C228.554 131.29 228.4 131.137 228.4 130.947C228.4 130.757 228.554 130.604 228.744 130.604H246.587C246.777 130.604 246.93 130.757 246.93 130.947C246.93 131.137 246.777 131.29 246.587 131.29Z" fill="#292929"/>
<path d="M265.73 131.29H251.795C251.605 131.29 251.451 131.137 251.451 130.947C251.451 130.757 251.605 130.604 251.795 130.604H265.73C265.92 130.604 266.073 130.757 266.073 130.947C266.073 131.137 265.92 131.29 265.73 131.29Z" fill="#292929"/>
<path d="M243.199 135.716H228.744C228.554 135.716 228.4 135.563 228.4 135.373C228.4 135.183 228.554 135.029 228.744 135.029H243.199C243.389 135.029 243.543 135.183 243.543 135.373C243.543 135.563 243.389 135.716 243.199 135.716Z" fill="#292929"/>
<path d="M265.73 135.716H248.93C248.739 135.716 248.586 135.563 248.586 135.373C248.586 135.183 248.739 135.029 248.93 135.029H265.73C265.92 135.029 266.074 135.183 266.074 135.373C266.074 135.563 265.92 135.716 265.73 135.716Z" fill="#292929"/>
<path d="M237.991 140.142H228.744C228.554 140.142 228.4 139.989 228.4 139.798C228.4 139.608 228.554 139.455 228.744 139.455H237.991C238.181 139.455 238.334 139.608 238.334 139.798C238.334 139.989 238.181 140.142 237.991 140.142Z" fill="#292929"/>
<path d="M265.731 140.142H245.023C244.833 140.142 244.68 139.989 244.68 139.798C244.68 139.608 244.833 139.455 245.023 139.455H265.731C265.921 139.455 266.075 139.608 266.075 139.798C266.075 139.989 265.921 140.142 265.731 140.142Z" fill="#292929"/>
<path d="M237.729 144.568H228.744C228.554 144.568 228.4 144.414 228.4 144.224C228.4 144.034 228.554 143.881 228.744 143.881H237.729C237.92 143.881 238.073 144.034 238.073 144.224C238.073 144.414 237.92 144.568 237.729 144.568Z" fill="#292929"/>
<path d="M265.731 144.568H242.16C241.97 144.568 241.816 144.414 241.816 144.224C241.816 144.034 241.97 143.881 242.16 143.881H265.731C265.921 143.881 266.075 144.034 266.075 144.224C266.075 144.414 265.921 144.568 265.731 144.568Z" fill="#292929"/>
<path d="M245.153 148.995H228.744C228.554 148.995 228.4 148.842 228.4 148.652C228.4 148.462 228.554 148.309 228.744 148.309H245.153C245.343 148.309 245.496 148.462 245.496 148.652C245.496 148.842 245.343 148.995 245.153 148.995Z" fill="#292929"/>
<path d="M265.731 148.995H249.322C249.132 148.995 248.979 148.842 248.979 148.652C248.979 148.462 249.132 148.309 249.322 148.309H265.731C265.921 148.309 266.075 148.462 266.075 148.652C266.075 148.842 265.921 148.995 265.731 148.995Z" fill="#292929"/>
<path d="M214.94 131.03C214.849 131.03 214.755 130.993 214.688 130.92C214.56 130.78 214.569 130.563 214.707 130.434L221.48 124.186C221.619 124.058 221.837 124.067 221.965 124.205C222.093 124.344 222.084 124.562 221.947 124.69L215.174 130.938C215.108 131 215.025 131.03 214.94 131.03Z" fill="#292929"/>
<path d="M88.9709 363.419H54.3253C50.9606 363.419 48.18 360.793 47.9945 357.435L47.77 353.451L46.4438 329.803L38.9746 196.582L88.2104 202.242L88.3616 206.019L91.8797 294.623L93.1784 327.37L94.1588 352.025L94.3878 357.787C94.5115 360.864 92.0492 363.422 88.9709 363.422V363.419Z" fill="#262424"/>
<path d="M88.971 363.763H54.3255C50.7798 363.763 47.8481 360.992 47.6511 357.453L46.1004 329.821L38.6312 196.6C38.6266 196.499 38.6656 196.401 38.7389 196.33C38.8122 196.261 38.913 196.227 39.0137 196.238L88.2495 201.898C88.4168 201.916 88.5473 202.056 88.5542 202.225L94.7316 357.769C94.7957 359.351 94.2254 360.85 93.1282 361.991C92.0311 363.133 90.556 363.76 88.971 363.76V363.763ZM39.3413 196.971L46.7876 329.785L48.3382 357.416C48.5146 360.589 51.1463 363.076 54.3278 363.076H88.9733C90.3682 363.076 91.6669 362.522 92.6335 361.517C93.6001 360.512 94.1017 359.191 94.0444 357.799L87.8785 202.551L39.339 196.971H39.3413Z" fill="#292929"/>
<path d="M175.365 363.418H123.511C120.929 363.418 118.607 361.84 117.659 359.437L114.292 350.906L104.571 326.278L91.8795 294.13L62.1172 218.729L88.3636 205.528L99.7839 199.781L152.627 323.776L162.973 348.053C163.175 348.532 163.44 348.978 163.763 349.381C164.029 349.725 164.336 350.036 164.675 350.313L176.583 360.004C177.987 361.149 177.179 363.42 175.367 363.42L175.365 363.418Z" fill="#262424"/>
<path d="M175.365 363.762H123.511C120.767 363.762 118.346 362.113 117.341 359.563L61.797 218.853C61.7328 218.688 61.8038 218.5 61.9619 218.42L99.6285 199.472C99.7133 199.429 99.8118 199.424 99.9011 199.456C99.9904 199.488 100.061 199.557 100.098 199.644L152.941 323.639L163.287 347.916C163.478 348.367 163.727 348.789 164.03 349.166C164.272 349.482 164.561 349.778 164.891 350.048L176.797 359.737C177.55 360.353 177.827 361.339 177.5 362.255C177.174 363.171 176.334 363.762 175.363 363.762H175.365ZM62.5505 218.894L117.98 359.311C118.882 361.598 121.054 363.075 123.511 363.075H175.365C176.187 363.075 176.673 362.532 176.854 362.024C177.035 361.516 177 360.788 176.364 360.268L164.456 350.577C164.084 350.272 163.762 349.94 163.489 349.588C163.152 349.166 162.871 348.692 162.655 348.182L152.309 323.904L99.6102 200.246L62.5528 218.889L62.5505 218.894Z" fill="#292929"/>
<path d="M47.7696 353.301C47.5841 353.301 47.4329 353.155 47.426 352.969C47.4191 352.779 47.568 352.621 47.7581 352.617C63.2211 352.14 78.684 351.662 94.1469 351.188C94.337 351.179 94.495 351.33 94.5019 351.52C94.5088 351.71 94.3576 351.868 94.1698 351.872C78.7069 352.346 63.244 352.825 47.781 353.301C47.7765 353.301 47.7742 353.301 47.7696 353.301Z" fill="#292929"/>
<path d="M114.293 351.249C114.107 351.249 113.956 351.103 113.949 350.917C113.943 350.727 114.091 350.569 114.282 350.565C130.771 350.056 147.262 349.546 163.751 349.04C163.941 349.026 164.099 349.184 164.106 349.372C164.113 349.562 163.962 349.72 163.774 349.724C147.285 350.23 130.794 350.741 114.304 351.249C114.3 351.249 114.298 351.249 114.293 351.249Z" fill="#292929"/>
<path d="M46.4436 329.656C46.2626 329.656 46.1115 329.515 46.1 329.331C46.0909 329.141 46.2352 328.981 46.4253 328.97L93.1599 326.534C93.3454 326.524 93.5103 326.669 93.5218 326.859C93.5309 327.049 93.3867 327.209 93.1965 327.22L46.4619 329.656C46.4619 329.656 46.4505 329.656 46.4436 329.656Z" fill="#292929"/>
<path d="M15.5901 171.1C15.5443 182.847 21.8339 193.23 31.4997 197.429C40.3683 201.282 48.8018 198.505 51.0694 197.674L43.1627 167.652L15.5901 171.098V171.1Z" fill="white"/>
<path d="M41.2683 199.755C38.2266 199.755 34.8161 199.244 31.3621 197.745C21.5245 193.47 15.1983 183.01 15.2464 171.098C15.2464 170.926 15.3769 170.779 15.5464 170.759L43.119 167.313C43.2885 167.292 43.4511 167.4 43.4947 167.567L51.4013 197.589C51.4471 197.761 51.3532 197.937 51.1883 197.999C49.3285 198.679 45.6889 199.755 41.2706 199.755H41.2683ZM15.9335 171.402C15.9953 182.913 22.1338 192.985 31.6369 197.115C39.6261 200.586 47.3999 198.605 50.6569 197.458L42.906 168.032L15.9335 171.402Z" fill="#292929"/>
<path d="M104.569 326.621C104.388 326.621 104.236 326.479 104.225 326.296C104.216 326.106 104.36 325.946 104.55 325.935L152.604 323.43C152.79 323.423 152.955 323.565 152.966 323.755C152.975 323.945 152.831 324.105 152.641 324.117L104.587 326.621C104.587 326.621 104.575 326.621 104.569 326.621Z" fill="#292929"/>
<path d="M38.7613 111.18C35.1928 113.139 20.9163 121.51 14.5122 139.601C8.7723 155.815 12.9272 169.744 14.3587 173.943L45.8709 172.958C54.4167 153.104 62.9601 133.25 71.5058 113.394C60.5918 112.656 49.6777 111.917 38.7636 111.18H38.7613Z" fill="#008BCE"/>
<path d="M48.407 190.02C42.1219 189.953 35.8346 189.887 29.5496 189.821C28.3837 189.809 27.3805 188.996 27.124 187.858C24.2174 174.925 21.3085 161.992 18.4019 149.061C18.0492 147.491 19.2448 145.998 20.855 145.998H48.4368C49.8248 145.998 50.9494 147.122 50.9494 148.51V187.506C50.9494 188.902 49.8087 190.033 48.4093 190.017L48.407 190.02Z" fill="#292929"/>
<path d="M134.498 147.507C135.004 142.447 135.513 137.389 136.019 132.33C143.502 126.148 146.793 122.219 145.891 120.544C145.568 119.941 144.704 119.63 143.302 119.61C143.305 119.49 143.321 118.087 142.127 117.222C140.941 116.361 139.619 116.796 139.505 116.837C139.532 116.603 139.622 115.626 138.969 114.818C138.254 113.934 136.94 113.616 135.707 114.062C142.547 108.263 143.286 106.576 142.938 106.024C142.253 104.934 136.337 106.631 131.775 110.232C126.452 114.433 124.273 120.081 123.348 123.268C122.088 126.846 120.828 130.425 119.566 134.003C120.686 136.002 122.429 138.61 125.075 141.183C128.536 144.553 132.088 146.456 134.498 147.504V147.507Z" fill="white"/>
<path d="M134.498 147.851C134.452 147.851 134.404 147.841 134.361 147.823C130.801 146.271 127.597 144.121 124.837 141.433C122.645 139.299 120.771 136.857 119.269 134.176C119.221 134.089 119.211 133.988 119.243 133.894L123.025 123.159C124.615 117.687 127.569 113.119 131.562 109.967C135.398 106.94 140.467 105.056 142.437 105.397C142.815 105.461 143.08 105.612 143.227 105.846C143.671 106.551 143.231 108.03 136.871 113.522C137.803 113.532 138.671 113.912 139.235 114.608C139.727 115.217 139.851 115.91 139.865 116.403C140.435 116.309 141.415 116.286 142.327 116.95C143.328 117.678 143.57 118.736 143.628 119.283C144.988 119.349 145.829 119.713 146.191 120.386C146.825 121.568 146.493 124.109 136.344 132.511L134.837 147.548C134.825 147.658 134.764 147.754 134.67 147.812C134.617 147.844 134.555 147.86 134.496 147.86L134.498 147.851ZM119.944 133.972C121.401 136.543 123.208 138.885 125.315 140.939C127.906 143.462 130.893 145.497 134.205 146.999L135.68 132.294C135.689 132.204 135.733 132.122 135.804 132.062C145.38 124.15 146.046 121.549 145.591 120.702C145.336 120.228 144.544 119.967 143.298 119.949C143.206 119.949 143.119 119.91 143.055 119.844C142.991 119.777 142.957 119.688 142.959 119.596C142.959 119.541 142.984 118.264 141.926 117.495C140.891 116.744 139.745 117.112 139.617 117.156C139.505 117.195 139.381 117.174 139.29 117.099C139.198 117.025 139.15 116.909 139.164 116.789C139.2 116.478 139.23 115.681 138.701 115.029C138.066 114.246 136.912 113.985 135.824 114.381C135.668 114.438 135.494 114.374 135.41 114.23C135.327 114.086 135.357 113.902 135.485 113.795C142.895 107.51 142.753 106.366 142.647 106.201C142.62 106.157 142.519 106.098 142.322 106.063C140.744 105.791 135.934 107.382 131.99 110.496C128.11 113.559 125.235 118.007 123.68 123.358L119.944 133.965V133.972Z" fill="#292929"/>
<path d="M68.3751 113.904C67.8712 111.587 67.4108 109.144 67.0146 106.583C66.3481 102.276 65.9541 98.2192 65.748 94.4644C63.233 92.4932 60.7204 90.522 58.2054 88.5508C56.1624 97.8185 54.1193 107.084 52.0762 116.352C57.5092 115.537 62.9421 114.719 68.3751 113.904Z" fill="white"/>
<path d="M52.0756 116.695C51.9817 116.695 51.8901 116.656 51.8237 116.586C51.7458 116.503 51.7137 116.389 51.7389 116.276L57.8682 88.4755C57.8934 88.3611 57.9758 88.2649 58.0881 88.226C58.198 88.1871 58.324 88.2054 58.4156 88.2787L65.9581 94.1923C66.036 94.2541 66.0841 94.3457 66.0887 94.4442C66.3108 98.4759 66.7346 102.542 67.3507 106.528C67.7263 108.964 68.1844 111.42 68.7067 113.829C68.7273 113.921 68.7067 114.019 68.654 114.097C68.599 114.175 68.5166 114.227 68.4226 114.241L52.1237 116.689C52.1077 116.691 52.0893 116.693 52.0733 116.693L52.0756 116.695ZM58.4248 89.1601L52.52 115.94L67.9623 113.621C67.4675 111.313 67.0369 108.966 66.675 106.636C66.0635 102.679 65.6397 98.643 65.4153 94.6388L58.4248 89.1601Z" fill="#292929"/>
<path d="M67.5895 110.023C69.9098 110.092 72.2873 110.319 74.7083 110.735C96.5616 114.497 110.527 131.773 116.665 140.714C117.659 138.165 118.653 135.617 119.645 133.069L140.619 146.95L137.593 157.056C133.779 169.792 119.022 175.571 107.57 168.814L61.0273 141.359C63.2147 130.915 65.4021 120.468 67.5872 110.023H67.5895Z" fill="#008BCE"/>
<path d="M89.2274 132.589C95.9041 156.623 102.583 180.66 109.26 204.695C103.096 210.22 86.4559 223.595 61.7785 225.728C49.6963 226.772 39.593 224.785 32.7285 222.775C33.5806 192.637 34.4303 162.496 35.2824 132.357C53.2648 132.435 71.245 132.511 89.2274 132.589Z" fill="#008BCE"/>
<path d="M60.6289 78.0791C58.1185 80.016 54.6004 83.0106 50.9883 87.1957C39.9322 100.001 29.3457 122.376 36.8287 130.913C43.1526 138.132 61.8726 134.883 64.0692 128.539C65.5557 124.244 58.6339 120.954 56.8496 112.645C54.8019 103.112 60.9381 93.6108 66.8658 86.7561C64.7884 83.8646 62.7086 80.973 60.6312 78.0814L60.6289 78.0791Z" fill="#292929"/>
<path d="M32.7286 212.963C32.7286 212.963 32.7217 212.963 32.7195 212.963C32.5293 212.958 32.3805 212.8 32.385 212.61L34.2747 144.684C34.3251 142.903 33.7799 141.122 32.7446 139.673L31.9567 138.571C31.8468 138.418 31.8811 138.203 32.0369 138.093C32.1904 137.983 32.4057 138.02 32.5156 138.173L33.3035 139.274C34.4259 140.845 35.0145 142.775 34.9618 144.705L33.0722 212.631C33.0676 212.816 32.9141 212.965 32.7286 212.965V212.963Z" fill="#292929"/>
<path d="M112.548 151.33C112.507 151.33 112.463 151.323 112.422 151.305C112.246 151.236 112.159 151.035 112.23 150.859L119.328 132.944C119.397 132.767 119.598 132.68 119.775 132.751C119.951 132.82 120.038 133.021 119.967 133.198L112.869 151.113C112.816 151.248 112.686 151.33 112.548 151.33Z" fill="#292929"/>
<path d="M74.6696 81.8676C74.3283 81.5768 71.4309 79.1912 67.702 79.7453C63.8403 80.3176 61.0368 83.7678 60.1733 86.8678C59.7976 88.2162 59.761 89.6014 59.99 90.9682C59.4518 91.1261 58.9777 91.4215 58.6158 91.8565C57.4453 93.2691 57.9378 95.6089 59.7175 97.0833C60.92 98.0815 62.4042 98.4226 63.5998 98.1067C66.1102 100.969 69.4955 103.031 72.5166 103.345C73.6183 103.459 74.1749 103.29 74.4704 103.176C79.3032 101.275 81.0005 87.2524 74.6673 81.8699L74.6696 81.8676Z" fill="white"/>
<path d="M73.2134 103.726C72.9981 103.726 72.7576 103.714 72.4851 103.684C69.5212 103.375 66.0878 101.39 63.4813 98.4851C62.1826 98.7484 60.6777 98.3226 59.5004 97.345C57.5787 95.7515 57.0634 93.1896 58.3529 91.6351C58.6804 91.239 59.1111 90.9322 59.6081 90.7353C59.4157 89.3594 59.4936 88.0269 59.844 86.7723C60.7144 83.6517 63.5294 80.0138 67.6545 79.4025C71.4223 78.8439 74.3472 81.1379 74.8946 81.6027C78.7541 84.8835 79.668 91.2482 78.8594 96.1018C78.2227 99.9298 76.6308 102.693 74.6015 103.49C74.3289 103.597 73.9097 103.723 73.2134 103.723V103.726ZM63.6027 97.764C63.7011 97.764 63.7951 97.8052 63.8615 97.8807C66.3741 100.745 69.7045 102.707 72.5561 103.005C73.5593 103.108 74.0609 102.97 74.3495 102.856C76.1246 102.157 77.5905 99.5291 78.1792 95.9942C78.9556 91.3329 78.1036 85.2383 74.448 82.1315C73.9395 81.6988 71.2276 79.5696 67.7553 80.0871C64.1043 80.6297 61.3443 83.9562 60.5059 86.9623C60.1601 88.2078 60.1005 89.5356 60.3296 90.9139C60.3571 91.0856 60.254 91.2504 60.0891 91.3008C59.5943 91.4473 59.1889 91.7083 58.882 92.0792C57.833 93.343 58.3071 95.4722 59.9379 96.823C61.0121 97.7136 62.3818 98.0776 63.5133 97.7777C63.5431 97.7708 63.5729 97.7662 63.6027 97.7662V97.764Z" fill="#292929"/>
<path d="M57.2857 82.5615C55.4877 86.9824 57.4254 91.0073 57.7507 91.6552C59.8281 91.6873 63.2203 91.4721 67.0317 89.9496C71.8462 88.0241 74.8582 84.9952 76.3057 83.317C74.9383 78.8938 70.9277 75.8992 66.5621 75.9289C62.0888 75.961 58.6715 79.1571 57.288 82.5615H57.2857Z" fill="#292929"/>
<path d="M57.9251 85.4144C59.9112 83.8499 60.2252 80.9377 58.6264 78.9098C57.0275 76.8818 54.1213 76.5061 52.1352 78.0706C50.1491 79.6351 49.8352 82.5473 51.434 84.5752C53.0328 86.6032 55.939 86.9789 57.9251 85.4144Z" fill="#292929"/>
<path d="M62.6713 96.6764C62.6278 96.6764 62.582 96.6672 62.5385 96.6489C62.085 96.4589 61.4253 96.0857 60.8664 95.3943C60.2526 94.6342 60.0327 93.8352 59.9548 93.2972C59.9273 93.1094 60.0579 92.9354 60.2457 92.9079C60.4312 92.8805 60.6076 93.011 60.6351 93.1987C60.6992 93.6497 60.8848 94.3228 61.4001 94.9593C61.8697 95.5385 62.4217 95.8522 62.8042 96.0125C62.9782 96.0857 63.0607 96.2872 62.9874 96.4612C62.9324 96.5917 62.8042 96.6718 62.6713 96.6718V96.6764Z" fill="#292929"/>
<path d="M98.0916 164.676C97.945 164.676 97.8075 164.58 97.7617 164.431L86.6828 127.765C86.6278 127.584 86.7309 127.392 86.9118 127.337C87.0928 127.282 87.2852 127.385 87.3401 127.566L98.4191 164.232C98.4741 164.413 98.371 164.605 98.1901 164.66C98.158 164.669 98.1236 164.674 98.0916 164.674V164.676Z" fill="#292929"/>
<path d="M136.887 119.871C137.759 118.859 138.632 117.848 139.502 116.838L136.887 119.871Z" fill="white"/>
<path d="M136.887 120.213C136.807 120.213 136.727 120.186 136.663 120.131C136.518 120.007 136.502 119.79 136.626 119.645L139.242 116.612C139.365 116.468 139.583 116.452 139.727 116.575C139.872 116.699 139.888 116.916 139.764 117.061L137.148 120.094C137.08 120.172 136.983 120.213 136.887 120.213Z" fill="#292929"/>
<path d="M140.686 122.643C141.558 121.631 142.431 120.619 143.301 119.609L140.686 122.643Z" fill="white"/>
<path d="M140.686 122.987C140.606 122.987 140.526 122.959 140.462 122.904C140.317 122.781 140.301 122.563 140.425 122.419L143.041 119.385C143.164 119.241 143.382 119.225 143.526 119.349C143.671 119.472 143.687 119.69 143.563 119.834L140.947 122.868C140.878 122.945 140.782 122.987 140.686 122.987Z" fill="#292929"/>
<path d="M389.454 182.241C391.354 182.241 392.894 180.701 392.894 178.802C392.894 176.903 391.354 175.363 389.454 175.363C387.554 175.363 386.014 176.903 386.014 178.802C386.014 180.701 387.554 182.241 389.454 182.241Z" fill="#008BCE"/>
<path d="M389.454 194.338C391.354 194.338 392.894 192.799 392.894 190.9C392.894 189.001 391.354 187.461 389.454 187.461C387.554 187.461 386.014 189.001 386.014 190.9C386.014 192.799 387.554 194.338 389.454 194.338Z" fill="#008BCE"/>
<path d="M392.866 205.219C393.171 203.345 391.897 201.578 390.022 201.274C388.146 200.97 386.379 202.243 386.075 204.117C385.77 205.992 387.044 207.758 388.919 208.063C390.795 208.367 392.562 207.094 392.866 205.219Z" fill="#008BCE"/>
<path d="M389.455 246.613H351.195C351.005 246.613 350.852 246.46 350.852 246.27C350.852 246.08 351.005 245.926 351.195 245.926H389.111V216.033C389.111 215.843 389.265 215.689 389.455 215.689C389.645 215.689 389.799 215.843 389.799 216.033V246.27C389.799 246.46 389.645 246.613 389.455 246.613Z" fill="#292929"/>
<path d="M381.308 257.926H221.352V330.277H381.308V257.926Z" fill="white"/>
<path d="M381.308 330.62H221.351C221.161 330.62 221.008 330.467 221.008 330.277V257.925C221.008 257.735 221.161 257.582 221.351 257.582H381.308C381.498 257.582 381.652 257.735 381.652 257.925V330.277C381.652 330.467 381.498 330.62 381.308 330.62ZM221.695 329.933H380.965V258.269H221.695V329.933Z" fill="#292929"/>
<path d="M230.389 262.293C230.389 263.038 229.787 263.64 229.042 263.64C228.298 263.64 227.695 263.038 227.695 262.293C227.695 261.549 228.298 260.947 229.042 260.947C229.787 260.947 230.389 261.549 230.389 262.293Z" fill="#292929"/>
<path d="M235.067 262.374C235.067 263.118 234.464 263.72 233.72 263.72C232.975 263.72 232.373 263.118 232.373 262.374C232.373 261.629 232.975 261.027 233.72 261.027C234.464 261.027 235.067 261.629 235.067 262.374Z" fill="#292929"/>
<path d="M239.742 262.452C239.742 263.196 239.14 263.798 238.396 263.798C237.651 263.798 237.049 263.196 237.049 262.452C237.049 261.708 237.651 261.105 238.396 261.105C239.14 261.105 239.742 261.708 239.742 262.452Z" fill="#292929"/>
<path d="M238.005 286.741C239.64 286.064 240.416 284.191 239.739 282.557C239.062 280.922 237.187 280.146 235.552 280.823C233.917 281.5 233.141 283.374 233.818 285.008C234.495 286.642 236.37 287.418 238.005 286.741Z" fill="white"/>
<path d="M236.776 287.329C234.82 287.329 233.229 285.738 233.229 283.783C233.229 281.828 234.82 280.236 236.776 280.236C238.732 280.236 240.324 281.828 240.324 283.783C240.324 285.738 238.732 287.329 236.776 287.329ZM236.776 280.923C235.198 280.923 233.916 282.205 233.916 283.783C233.916 285.36 235.198 286.642 236.776 286.642C238.355 286.642 239.637 285.36 239.637 283.783C239.637 282.205 238.355 280.923 236.776 280.923Z" fill="#292929"/>
<path d="M238.003 298.603C239.638 297.926 240.414 296.052 239.737 294.418C239.06 292.784 237.185 292.007 235.55 292.684C233.915 293.361 233.139 295.235 233.816 296.869C234.493 298.504 236.368 299.28 238.003 298.603Z" fill="white"/>
<path d="M236.776 299.188C234.82 299.188 233.229 297.597 233.229 295.642C233.229 293.687 234.82 292.096 236.776 292.096C238.732 292.096 240.324 293.687 240.324 295.642C240.324 297.597 238.732 299.188 236.776 299.188ZM236.776 292.785C235.198 292.785 233.916 294.067 233.916 295.644C233.916 297.222 235.198 298.504 236.776 298.504C238.355 298.504 239.637 297.222 239.637 295.644C239.637 294.067 238.355 292.785 236.776 292.785Z" fill="#292929"/>
<path d="M239.947 308.029C240.23 306.283 239.044 304.638 237.297 304.354C235.55 304.071 233.904 305.256 233.621 307.002C233.337 308.749 234.524 310.394 236.27 310.677C238.017 310.961 239.663 309.775 239.947 308.029Z" fill="white"/>
<path d="M236.776 311.05C234.82 311.05 233.229 309.459 233.229 307.503C233.229 305.548 234.82 303.957 236.776 303.957C238.732 303.957 240.324 305.548 240.324 307.503C240.324 309.459 238.732 311.05 236.776 311.05ZM236.776 304.646C235.198 304.646 233.916 305.928 233.916 307.506C233.916 309.083 235.198 310.365 236.776 310.365C238.355 310.365 239.637 309.083 239.637 307.506C239.637 305.928 238.355 304.646 236.776 304.646Z" fill="#292929"/>
<path d="M264.189 281.529H248.051V284.375H264.189V281.529Z" fill="#292929"/>
<path d="M277.24 281.529H267.51V284.375H277.24V281.529Z" fill="#292929"/>
<path d="M307.858 281.529H280.564V284.375H307.858V281.529Z" fill="#292929"/>
<path d="M258.255 294.338H248.051V297.184H258.255V294.338Z" fill="#292929"/>
<path d="M284.123 294.338H261.578V297.184H284.123V294.338Z" fill="#292929"/>
<path d="M270.596 306.201H248.051V309.047H270.596V306.201Z" fill="#292929"/>
<path d="M293.378 306.201H274.154V309.047H293.378V306.201Z" fill="#292929"/>
<path d="M172.668 262.891C173.577 262.515 174.008 261.475 173.632 260.567C173.255 259.659 172.214 259.228 171.306 259.604C170.398 259.98 169.967 261.021 170.343 261.929C170.719 262.836 171.76 263.267 172.668 262.891Z" fill="#292929"/>
<path d="M194.65 307.018H177.669C174.412 307.018 171.762 304.369 171.762 301.113V262.078C171.762 261.888 171.915 261.734 172.105 261.734C172.295 261.734 172.449 261.888 172.449 262.078V301.113C172.449 303.991 174.792 306.331 177.669 306.331H194.65C194.84 306.331 194.994 306.484 194.994 306.674C194.994 306.864 194.84 307.018 194.65 307.018Z" fill="#292929"/>
<path d="M204.239 311.987C207.437 308.79 207.437 303.608 204.239 300.412C201.042 297.215 195.857 297.215 192.659 300.412C189.461 303.608 189.461 308.79 192.659 311.987C195.857 315.183 201.042 315.183 204.239 311.987Z" fill="white"/>
<path d="M198.448 314.726C193.743 314.726 189.916 310.901 189.916 306.198C189.916 301.496 193.743 297.67 198.448 297.67C203.153 297.67 206.98 301.496 206.98 306.198C206.98 310.901 203.153 314.726 198.448 314.726ZM198.448 298.359C194.124 298.359 190.603 301.876 190.603 306.2C190.603 310.525 194.121 314.042 198.448 314.042C202.775 314.042 206.293 310.525 206.293 306.2C206.293 301.876 202.775 298.359 198.448 298.359Z" fill="#292929"/>
<path d="M197.381 309.27H197.374C197.278 309.27 197.186 309.226 197.124 309.153L193.565 305.121C193.439 304.979 193.453 304.762 193.595 304.636C193.737 304.51 193.954 304.524 194.08 304.666L197.392 308.418L202.83 302.756C202.96 302.619 203.178 302.614 203.315 302.747C203.453 302.878 203.457 303.095 203.324 303.233L197.628 309.162C197.564 309.229 197.475 309.268 197.381 309.268V309.27Z" fill="#292929"/>
<path d="M381.278 267.087H221.351C221.161 267.087 221.008 266.934 221.008 266.744C221.008 266.554 221.161 266.4 221.351 266.4H381.278C381.469 266.4 381.622 266.554 381.622 266.744C381.622 266.934 381.469 267.087 381.278 267.087Z" fill="#292929"/>
<path d="M314.856 296.946C315.839 296.946 316.636 296.15 316.636 295.168C316.636 294.185 315.839 293.389 314.856 293.389C313.873 293.389 313.076 294.185 313.076 295.168C313.076 296.15 313.873 296.946 314.856 296.946Z" fill="#292929"/>
<path d="M397.64 320.301H340.905C338.26 320.301 336.109 318.152 336.109 315.507V301.214C336.109 298.068 333.551 295.511 330.404 295.511H315.687C315.497 295.511 315.344 295.358 315.344 295.168C315.344 294.978 315.497 294.824 315.687 294.824H330.404C333.929 294.824 336.796 297.691 336.796 301.214V315.507C336.796 317.771 338.64 319.614 340.905 319.614H397.64C398.994 319.614 400.093 318.513 400.093 317.162V306.858C400.093 305.312 398.833 304.053 397.287 304.053H390.088C389.898 304.053 389.745 303.9 389.745 303.71C389.745 303.52 389.898 303.366 390.088 303.366H397.287C399.214 303.366 400.78 304.932 400.78 306.858V317.162C400.78 318.893 399.372 320.301 397.64 320.301Z" fill="#292929"/>
<path d="M389.136 291.254H351.941C349.826 291.254 348.111 292.968 348.111 295.082V309.961C348.111 312.075 349.826 313.789 351.941 313.789H389.136C391.251 313.789 392.965 312.075 392.965 309.961V295.082C392.965 292.968 391.251 291.254 389.136 291.254Z" fill="white"/>
<path d="M389.136 314.134H351.941C349.639 314.134 347.768 312.264 347.768 309.963V295.084C347.768 292.783 349.639 290.912 351.941 290.912H389.136C391.438 290.912 393.309 292.783 393.309 295.084V309.963C393.309 312.264 391.438 314.134 389.136 314.134ZM351.941 291.599C350.019 291.599 348.455 293.163 348.455 295.084V309.963C348.455 311.884 350.019 313.447 351.941 313.447H389.136C391.057 313.447 392.622 311.884 392.622 309.963V295.084C392.622 293.163 391.057 291.599 389.136 291.599H351.941Z" fill="#292929"/>
<path d="M381.278 307.136H354.816C354.626 307.136 354.473 306.983 354.473 306.793C354.473 306.603 354.626 306.449 354.816 306.449H381.278C381.468 306.449 381.622 306.603 381.622 306.793C381.622 306.983 381.468 307.136 381.278 307.136Z" fill="#292929"/>
<path d="M361.699 297.409H354.816C354.626 297.409 354.473 297.256 354.473 297.066C354.473 296.876 354.626 296.723 354.816 296.723H361.699C361.889 296.723 362.043 296.876 362.043 297.066C362.043 297.256 361.889 297.409 361.699 297.409Z" fill="#292929"/>
<path d="M386.262 297.409H365.971C365.78 297.409 365.627 297.256 365.627 297.066C365.627 296.876 365.78 296.723 365.971 296.723H386.262C386.452 296.723 386.605 296.876 386.605 297.066C386.605 297.256 386.452 297.409 386.262 297.409Z" fill="#292929"/>
<path d="M358.969 302.271H354.816C354.626 302.271 354.473 302.117 354.473 301.927C354.473 301.737 354.626 301.584 354.816 301.584H358.969C359.159 301.584 359.312 301.737 359.312 301.927C359.312 302.117 359.159 302.271 358.969 302.271Z" fill="#292929"/>
<path d="M375.581 302.271H362.527C362.337 302.271 362.184 302.117 362.184 301.927C362.184 301.737 362.337 301.584 362.527 301.584H375.581C375.771 301.584 375.924 301.737 375.924 301.927C375.924 302.117 375.771 302.271 375.581 302.271Z" fill="#292929"/>
</g>
</g>
<defs>
<clipPath id="clip0_2448_10861">
<rect width="427" height="425" fill="white"/>
</clipPath>
<clipPath id="clip1_2448_10861">
<rect width="442" height="302" fill="white" transform="translate(-15 62)"/>
</clipPath>
</defs>
</svg>
