<svg width="411" height="401" viewBox="0 0 411 401" fill="none" xmlns="http://www.w3.org/2000/svg">
<g clip-path="url(#clip0_2518_21696)">
<path d="M245.052 159.686H12C5.37258 159.686 0 165.058 0 171.686V334.862C0 341.489 5.37257 346.862 12 346.862H245.052C251.679 346.862 257.052 341.489 257.052 334.862V171.686C257.052 165.058 251.679 159.686 245.052 159.686Z" fill="#A8FF1D"/>
<path d="M348.513 320.275C328.522 320.275 312.32 336.475 312.32 356.464C312.32 376.452 328.522 392.652 348.513 392.652C368.503 392.652 384.705 376.452 384.705 356.464C384.705 336.475 368.503 320.275 348.513 320.275Z" fill="#057AFF"/>
<path d="M348.512 319.955C328.381 319.955 312 336.334 312 356.463C312 376.592 328.381 392.971 348.512 392.971C368.643 392.971 385.024 376.592 385.024 356.463C385.024 336.334 368.643 319.955 348.512 319.955ZM348.512 392.325C328.732 392.325 312.639 376.234 312.639 356.456C312.639 336.679 328.732 320.587 348.512 320.587C368.291 320.587 384.385 336.679 384.385 356.456C384.385 376.234 368.291 392.325 348.512 392.325Z" fill="#060004"/>
<path d="M69.4576 92.0923H380.769C397.278 92.0923 410.688 105.494 410.688 122.008V333.676C410.688 350.183 397.284 363.591 380.769 363.591H69.4576C52.9491 363.591 39.5391 350.189 39.5391 333.676V122.001C39.5391 105.494 52.9427 92.0859 69.4576 92.0859V92.0923Z" fill="#008BCE"/>
<path d="M139.115 124.301H138.477V362.818H139.115V124.301Z" fill="#060004"/>
<path d="M371.021 98.7051H126.695C123.086 98.7051 120.141 101.644 120.141 105.259V111.175C120.141 114.79 123.079 117.729 126.695 117.729H371.021C374.631 117.729 377.569 114.79 377.569 111.175V105.259C377.569 101.644 374.631 98.7051 371.021 98.7051ZM376.937 111.175C376.937 114.432 374.286 117.09 371.027 117.09H126.702C123.444 117.09 120.786 114.439 120.786 111.175V105.259C120.786 102.001 123.437 99.3439 126.702 99.3439H371.027C374.286 99.3439 376.937 101.995 376.937 105.259V111.175Z" fill="#060004"/>
<path d="M371.021 99.0254H360.314C356.87 99.0254 354.078 101.817 354.078 105.26V111.169C354.078 114.612 356.87 117.404 360.314 117.404H371.021C374.465 117.404 377.257 114.612 377.257 111.169V105.26C377.257 101.817 374.465 99.0254 371.021 99.0254Z" fill="white"/>
<path d="M371.02 98.7051H360.313C356.697 98.7051 353.758 101.644 353.758 105.259V111.175C353.758 114.79 356.697 117.729 360.313 117.729H371.02C374.63 117.729 377.569 114.79 377.569 111.175V105.259C377.569 101.644 374.63 98.7051 371.02 98.7051ZM376.936 111.175C376.936 114.432 374.285 117.09 371.027 117.09H360.319C357.061 117.09 354.403 114.439 354.403 111.175V105.259C354.403 102.001 357.054 99.3439 360.319 99.3439H371.027C374.285 99.3439 376.936 101.995 376.936 105.259V111.175Z" fill="#060004"/>
<path d="M364.62 110.16C366.288 110.16 367.641 108.807 367.641 107.139C367.641 105.47 366.288 104.117 364.62 104.117C362.951 104.117 361.598 105.47 361.598 107.139C361.598 108.807 362.951 110.16 364.62 110.16Z" fill="white"/>
<path d="M364.619 103.797C362.779 103.797 361.277 105.298 361.277 107.138C361.277 108.978 362.779 110.479 364.619 110.479C366.459 110.479 367.96 108.978 367.96 107.138C367.96 105.298 366.459 103.797 364.619 103.797ZM364.619 109.84C363.13 109.84 361.916 108.626 361.916 107.138C361.916 105.649 363.13 104.436 364.619 104.436C366.107 104.436 367.321 105.649 367.321 107.138C367.321 108.626 366.107 109.84 364.619 109.84Z" fill="#060004"/>
<path d="M367.046 109.171L366.594 109.623L369.489 112.518L369.941 112.067L367.046 109.171Z" fill="#060004"/>
<path d="M72.7102 137.787H58.1055V140.77H72.7102V137.787Z" fill="white"/>
<path d="M57.7852 141.089H73.0287V137.467H57.7852V141.089ZM58.424 138.106H72.3899V140.45H58.424V138.106Z" fill="#060004"/>
<path d="M72.7102 144.348H58.1055V147.331H72.7102V144.348Z" fill="white"/>
<path d="M57.7852 147.644H73.0287V144.021H57.7852V147.644ZM58.424 144.667H72.3899V147.011H58.424V144.667Z" fill="#060004"/>
<path d="M72.7102 150.902H58.1055V153.886H72.7102V150.902Z" fill="white"/>
<path d="M57.7852 154.204H73.0287V150.582H57.7852V154.204ZM58.424 151.221H72.3899V153.565H58.424V151.221Z" fill="#060004"/>
<path d="M380.866 91.7734H69.3629C52.7393 91.7734 39.2207 105.291 39.2207 121.912V124.34C39.2207 124.519 39.3613 124.659 39.5401 124.659H410.689C410.868 124.659 411.008 124.519 411.008 124.34V121.912C411.008 105.291 397.49 91.7734 380.866 91.7734ZM410.363 124.02H39.8596V121.912C39.8596 105.648 53.0971 92.4122 69.3629 92.4122H380.866C397.132 92.4122 410.369 105.648 410.369 121.912V124.02H410.363Z" fill="#060004"/>
<path d="M62.2395 107.482C59.7863 107.482 57.793 109.475 57.793 111.929C57.793 114.382 59.7863 116.375 62.2395 116.375C64.6928 116.375 66.6861 114.382 66.6861 111.929C66.6861 109.475 64.6928 107.482 62.2395 107.482ZM62.2395 115.736C60.1376 115.736 58.4318 114.024 58.4318 111.929C58.4318 109.833 60.144 108.121 62.2395 108.121C64.3351 108.121 66.0472 109.833 66.0472 111.929C66.0472 114.024 64.3351 115.736 62.2395 115.736Z" fill="#060004"/>
<path d="M75.8333 107.482C73.38 107.482 71.3867 109.475 71.3867 111.929C71.3867 114.382 73.38 116.375 75.8333 116.375C78.2866 116.375 80.2799 114.382 80.2799 111.929C80.2799 109.475 78.2866 107.482 75.8333 107.482ZM75.8333 115.736C73.7314 115.736 72.0256 114.024 72.0256 111.929C72.0256 109.833 73.7378 108.121 75.8333 108.121C77.9288 108.121 79.641 109.833 79.641 111.929C79.641 114.024 77.9288 115.736 75.8333 115.736Z" fill="#060004"/>
<path d="M91.9018 115.734H83.5645V116.373H91.9018V115.734Z" fill="#060004"/>
<path d="M383.863 137.123H166.262C161.259 137.123 157.189 141.192 157.189 146.194V336.961C157.189 341.962 161.259 346.032 166.262 346.032H383.863C388.865 346.032 392.935 341.962 392.935 336.961V146.194C392.935 141.192 388.865 137.123 383.863 137.123ZM392.296 336.961C392.296 341.611 388.514 345.393 383.863 345.393H166.262C161.61 345.393 157.828 341.611 157.828 336.961V146.194C157.828 141.544 161.61 137.762 166.262 137.762H383.863C388.514 137.762 392.296 141.544 392.296 146.194V336.961Z" fill="#060004"/>
<path d="M344.294 148.494L343.842 148.945L377.619 182.719L378.071 182.268L344.294 148.494Z" fill="#060004"/>
<path d="M377.616 148.494L343.838 182.268L344.29 182.719L378.067 148.945L377.616 148.494Z" fill="#060004"/>
<path d="M172.628 148.494L172.176 148.945L205.953 182.719L206.405 182.268L172.628 148.494Z" fill="#060004"/>
<path d="M205.961 148.519L172.184 182.293L172.635 182.745L206.413 148.971L205.961 148.519Z" fill="#060004"/>
<path d="M225.676 153.476C222.456 151.827 215.945 166.82 219.44 171.177C220.028 171.912 220.852 171.375 220.986 172.301C221.229 173.949 219.523 175.061 219.664 176.722C219.823 178.581 221.363 187.019 222.411 188.75L241.43 179.264C240.376 175.649 237.06 159.314 225.676 153.476Z" fill="#F68D76"/>
<path d="M241.393 177.885C240 172.602 236.294 158.555 225.823 153.189C225.612 153.08 225.389 153.029 225.152 153.029C223.798 153.029 222.073 154.927 220.546 158.108C218.316 162.758 217.134 168.808 219.192 171.376C219.524 171.791 219.926 171.887 220.214 171.957C220.54 172.034 220.623 172.053 220.667 172.353C220.776 173.088 220.425 173.727 220.054 174.404C219.664 175.113 219.262 175.847 219.345 176.755C219.492 178.479 221.012 187.065 222.137 188.924L222.29 189.173L241.814 179.438L241.738 179.182C241.642 178.85 241.527 178.415 241.386 177.892L241.393 177.885ZM222.546 188.33C221.555 186.215 220.137 178.492 219.977 176.697C219.914 175.982 220.252 175.362 220.616 174.71C221.019 173.969 221.44 173.209 221.3 172.264C221.191 171.535 220.712 171.427 220.361 171.337C220.105 171.274 219.882 171.222 219.69 170.98C217.818 168.642 219.026 162.746 221.121 158.389C222.495 155.527 224.079 153.674 225.152 153.674C225.286 153.674 225.414 153.706 225.529 153.764C235.745 159.002 239.399 172.845 240.773 178.051C240.881 178.454 240.971 178.805 241.054 179.099L222.552 188.33H222.546Z" fill="#060004"/>
<path d="M216.131 156.536C216.476 159.111 218.31 159.826 219.786 159.59L228.941 155.604C228.941 155.604 225.076 152.077 221.747 151.752C218.993 151.483 215.55 152.173 216.131 156.543V156.536Z" fill="#F68D76"/>
<path d="M216.783 152.716C215.921 153.61 215.595 154.907 215.818 156.575C215.978 157.782 216.476 158.721 217.262 159.302C217.824 159.717 218.534 159.941 219.262 159.941C219.454 159.941 219.645 159.928 219.843 159.896L219.741 159.264C218.981 159.385 218.214 159.213 217.639 158.785C216.987 158.299 216.591 157.526 216.451 156.485C216.253 155.022 216.521 153.898 217.243 153.157C218.419 151.937 220.552 151.95 221.715 152.058C224.897 152.371 228.685 155.795 228.724 155.827L229.152 155.354C228.992 155.207 225.171 151.752 221.779 151.419C220.501 151.292 218.144 151.292 216.783 152.71V152.716Z" fill="#060004"/>
<path d="M220.604 154.115C217.537 153.815 213.052 154.805 213.557 159.52C213.863 162.394 215.984 163.187 217.633 162.918L227.222 158.102C227.222 158.102 224.315 154.48 220.604 154.115Z" fill="#F68D76"/>
<path d="M220.636 153.795C219.678 153.699 216.394 153.546 214.471 155.488C213.474 156.497 213.059 157.858 213.244 159.551C213.385 160.86 213.909 161.895 214.758 162.541C215.391 163.026 216.196 163.282 217.033 163.282C217.25 163.282 217.467 163.262 217.684 163.23L217.582 162.598C216.694 162.739 215.8 162.534 215.142 162.029C214.426 161.48 213.998 160.624 213.877 159.474C213.717 157.986 214.068 156.791 214.924 155.929C216.298 154.543 218.745 154.242 220.578 154.421C224.105 154.766 226.948 158.254 226.98 158.292L227.478 157.89C227.357 157.737 224.444 154.159 220.642 153.782L220.636 153.795Z" fill="#060004"/>
<path d="M220.189 159.187C217.442 158.919 213.053 159.833 213.634 164.189C213.979 166.751 215.807 167.466 217.282 167.23L225.907 162.829C225.907 162.829 223.511 159.513 220.189 159.194V159.187Z" fill="#F68D76"/>
<path d="M220.221 158.868C218.343 158.683 215.826 159.022 214.376 160.523C213.475 161.456 213.117 162.708 213.321 164.228C213.481 165.429 213.98 166.368 214.759 166.949C215.321 167.364 216.024 167.588 216.759 167.588C216.95 167.588 217.142 167.575 217.334 167.543L217.231 166.911C216.471 167.032 215.711 166.86 215.142 166.438C214.497 165.959 214.095 165.186 213.954 164.145C213.781 162.823 214.075 161.756 214.836 160.97C216.126 159.635 218.516 159.347 220.164 159.507C223.294 159.814 225.626 162.982 225.652 163.014L226.169 162.637C226.067 162.497 223.646 159.201 220.228 158.868H220.221Z" fill="#060004"/>
<path d="M219.422 164.93C217.02 164.859 213.762 165.734 213.576 169.497C213.468 171.746 214.464 173.809 216.49 174.633C218.496 175.444 223.249 173.764 220.323 170.481L224.15 168.532C224.15 168.532 222.565 165.025 219.428 164.936L219.422 164.93Z" fill="#F68D76"/>
<path d="M219.435 164.61C216.566 164.521 213.448 165.76 213.263 169.485C213.135 172.014 214.33 174.103 216.375 174.927C216.745 175.08 217.205 175.151 217.691 175.151C218.988 175.151 220.495 174.627 221.192 173.637C221.588 173.081 222.029 171.899 220.572 170.264L220.093 170.685C220.706 171.369 221.3 172.372 220.668 173.266C219.908 174.346 217.742 174.78 216.617 174.327C214.835 173.605 213.793 171.759 213.908 169.504C214.113 165.403 218.183 165.198 219.422 165.236C222.322 165.32 223.849 168.616 223.862 168.648L224.444 168.386C224.373 168.232 222.738 164.693 219.441 164.598L219.435 164.61Z" fill="#060004"/>
<path d="M269.663 183.735L252.976 202.095C252.286 202.689 251.219 202.452 250.848 201.628L241.431 179.264L222.412 188.75L231.574 227.998C235.004 240.455 249.04 242.787 259.556 234.801L280.122 215.727L280.173 181.404C280.173 181.404 274.199 178.459 269.663 183.735Z" fill="#D7D7D7"/>
<path d="M259.364 234.547C253.748 238.814 246.995 240.219 241.316 238.29C236.639 236.712 233.291 233.02 231.886 227.922L222.776 188.923L241.265 179.699L250.554 201.757C250.777 202.242 251.199 202.587 251.723 202.702C252.24 202.817 252.777 202.683 253.212 202.306L269.905 183.934C274.218 178.92 279.795 181.571 280.032 181.686L280.313 181.111C280.249 181.079 274.064 178.121 269.426 183.513L252.771 201.846C252.522 202.064 252.189 202.147 251.864 202.076C251.538 202.006 251.276 201.789 251.142 201.495L241.725 179.13C241.693 179.047 241.622 178.984 241.539 178.958C241.456 178.926 241.367 178.932 241.284 178.971L222.264 188.457C222.13 188.521 222.06 188.674 222.098 188.815L231.266 228.076C232.736 233.397 236.23 237.243 241.111 238.891C242.855 239.478 244.689 239.772 246.567 239.772C251.02 239.772 255.684 238.143 259.779 235.032L280.345 215.958L279.91 215.491L259.37 234.547H259.364Z" fill="#060004"/>
<path d="M336.885 173.98C308.749 161.715 289.991 173.623 276.288 209.325C262.577 245.035 196.569 236.737 189.356 264.505C182.143 292.274 176.367 346.017 214.604 346.017H356.722C356.722 346.017 383.414 326.54 383.057 275.685C382.699 224.829 365.021 186.239 336.885 173.974V173.98Z" fill="#160116"/>
<path d="M337.013 173.694C329.858 170.576 323.182 168.992 317.176 168.992C299.613 168.992 286.523 181.775 275.988 209.218C268.832 227.858 247.717 234.291 227.299 240.506C209.404 245.955 192.506 251.104 189.043 264.436C182.693 288.89 180.22 320.6 192.34 336.27C197.515 342.958 205.002 346.35 214.605 346.35H356.723C356.793 346.35 356.857 346.331 356.908 346.286C356.978 346.235 363.712 341.246 370.299 330.093C376.368 319.814 383.562 302.036 383.376 275.692C383.198 250.74 378.808 228.101 370.676 210.233C362.555 192.385 350.915 179.75 337.013 173.687V173.694ZM356.62 345.705H214.605C205.213 345.705 197.892 342.396 192.844 335.874C180.865 320.389 183.344 288.902 189.663 264.596C193.036 251.609 209.768 246.511 227.484 241.12C247.091 235.147 269.311 228.382 276.582 209.448C287.008 182.286 299.907 169.631 317.176 169.631C323.098 169.631 329.685 171.196 336.758 174.275C364.76 186.483 382.38 225.341 382.738 275.692C383.083 324.388 358.237 344.447 356.62 345.699V345.705Z" fill="#060004"/>
<path d="M324.286 156.766C323.13 154.632 323.705 152.019 323.481 149.598C323.187 146.43 321.392 143.44 318.728 141.69C315.003 139.243 309.918 139.224 306.647 136.202C303.612 133.392 302.916 128.639 299.728 126.001C297.313 124.001 293.946 122.634 290.816 122.756C289.947 122.787 286.682 123.42 286.12 123.599C283.143 124.57 280.108 127.087 278.536 129.795C276.46 133.372 277.45 138.074 275.578 141.766C273.566 145.733 268.794 147.522 266.155 151.099C264.264 153.655 263.619 157.091 264.443 160.164C265.069 162.508 266.513 164.763 266.174 167.165C265.919 168.967 264.692 170.468 264.047 172.174C262.68 175.789 264.13 179.986 266.685 182.893C269.241 185.793 285.864 190.833 299.996 188.476C308.423 187.07 320.836 186.892 322.676 181.155C323.858 177.476 327.877 175.297 329.263 171.688C330.65 168.079 330.56 163.639 328.024 160.72C326.829 159.346 325.162 158.363 324.293 156.759L324.286 156.766Z" fill="#492225"/>
<path d="M326.733 159.033C325.883 158.273 325.078 157.558 324.567 156.612C323.82 155.226 323.832 153.623 323.852 151.93C323.858 151.151 323.871 150.352 323.8 149.573C323.494 146.283 321.667 143.242 318.907 141.428C317.22 140.323 315.252 139.697 313.342 139.096C310.921 138.33 308.634 137.608 306.864 135.973C305.439 134.657 304.519 132.842 303.631 131.092C302.647 129.163 301.631 127.163 299.932 125.758C297.3 123.58 293.856 122.328 290.802 122.436C289.908 122.468 286.637 123.094 286.024 123.299C283.015 124.282 279.89 126.831 278.261 129.636C277.15 131.546 276.894 133.769 276.639 135.921C276.409 137.876 276.172 139.888 275.297 141.62C274.211 143.766 272.313 145.235 270.307 146.794C268.729 148.02 267.1 149.285 265.899 150.908C263.938 153.565 263.28 157.053 264.136 160.241C264.34 160.995 264.628 161.748 264.902 162.47C265.509 164.054 266.078 165.549 265.854 167.108C265.701 168.175 265.196 169.127 264.66 170.129C264.334 170.743 263.995 171.382 263.746 172.046C262.468 175.432 263.522 179.769 266.442 183.084C268.672 185.62 280.472 189.389 292.202 189.389C294.962 189.389 297.6 189.185 300.047 188.776C301.734 188.495 303.554 188.265 305.477 188.022C313.329 187.039 321.449 186.017 322.983 181.238C323.57 179.399 324.88 177.968 326.266 176.447C327.551 175.042 328.873 173.585 329.569 171.79C331.154 167.664 330.649 163.23 328.273 160.503C327.806 159.966 327.269 159.487 326.752 159.027L326.733 159.033ZM328.963 171.573C328.311 173.26 327.027 174.671 325.787 176.032C324.414 177.533 323.002 179.086 322.369 181.059C320.964 185.448 312.69 186.489 305.394 187.403C303.465 187.646 301.638 187.875 299.938 188.157C297.53 188.559 294.93 188.763 292.202 188.763C280.836 188.763 269.03 185.071 266.921 182.676C264.155 179.533 263.145 175.451 264.34 172.282C264.577 171.656 264.902 171.037 265.222 170.442C265.759 169.433 266.314 168.386 266.487 167.21C266.73 165.485 266.104 163.844 265.497 162.253C265.228 161.544 264.947 160.809 264.749 160.081C263.957 157.123 264.596 153.757 266.41 151.291C267.554 149.739 269.151 148.499 270.697 147.299C272.671 145.765 274.709 144.181 275.866 141.907C276.792 140.074 277.035 138.004 277.271 135.992C277.527 133.807 277.769 131.744 278.811 129.949C280.37 127.266 283.347 124.832 286.215 123.893C286.765 123.714 290.004 123.094 290.822 123.062C290.943 123.062 291.071 123.056 291.192 123.056C293.997 123.056 297.115 124.244 299.523 126.237C301.12 127.559 302.066 129.412 303.063 131.367C303.982 133.168 304.928 135.027 306.436 136.426C308.308 138.157 310.767 138.937 313.15 139.69C315.016 140.278 316.939 140.891 318.555 141.945C321.117 143.625 322.88 146.564 323.162 149.611C323.232 150.358 323.219 151.144 323.213 151.904C323.193 153.604 323.174 155.367 324.005 156.9C324.567 157.941 325.455 158.733 326.311 159.493C326.816 159.94 327.34 160.407 327.774 160.911C329.998 163.467 330.464 167.644 328.956 171.554L328.963 171.573Z" fill="#060004"/>
<path d="M340.234 199.023C338.777 185.525 327.38 175.291 313.797 175.291H288.364C274.781 175.291 263.384 185.525 261.927 199.023L253.475 287.996H317.707C334.324 287.996 347.332 273.693 345.76 257.16L340.234 199.029V199.023Z" fill="#D7D7D7"/>
<path d="M340.553 198.99C339.077 185.3 327.571 174.971 313.803 174.971H288.37C274.595 174.971 263.096 185.294 261.613 198.99L253.161 287.963C253.155 288.052 253.18 288.142 253.244 288.205C253.302 288.269 253.391 288.308 253.481 288.308H317.713C325.725 288.308 333.404 284.909 338.796 278.987C344.182 273.066 346.84 265.093 346.086 257.121L340.559 198.983L340.553 198.99ZM338.317 278.559C333.046 284.353 325.539 287.675 317.707 287.675H253.826L262.246 199.06C263.69 185.69 274.915 175.61 288.363 175.61H313.797C327.245 175.61 338.47 185.69 339.914 199.054L345.44 257.185C346.181 264.978 343.588 272.772 338.317 278.559Z" fill="#060004"/>
<path d="M252.22 163.845L207.192 167.69C205.614 167.824 204.451 169.211 204.592 170.788L207.907 208.254L259.037 208.97L255.312 166.438C255.171 164.867 253.791 163.71 252.226 163.845H252.22Z" fill="white"/>
<path d="M252.195 163.531L207.167 167.377C206.317 167.447 205.55 167.849 205.007 168.501C204.458 169.152 204.202 169.976 204.279 170.82L207.595 208.286C207.608 208.452 207.742 208.573 207.908 208.58L259.037 209.295C259.126 209.295 259.209 209.257 259.273 209.193C259.337 209.129 259.363 209.039 259.356 208.95L255.632 166.418C255.478 164.674 253.983 163.384 252.201 163.531H252.195ZM208.195 207.941L204.905 170.762C204.848 170.085 205.052 169.427 205.486 168.91C205.921 168.392 206.534 168.073 207.211 168.015L252.239 164.17C253.632 164.048 254.859 165.102 254.98 166.476L258.679 208.656L208.189 207.947L208.195 207.941Z" fill="#060004"/>
<path d="M207.908 208.262L228.71 226.027L282.561 226.966L259.037 208.977L207.908 208.262Z" fill="white"/>
<path d="M259.229 208.721C259.178 208.676 259.107 208.657 259.037 208.657L207.908 207.941C207.793 207.941 207.652 208.024 207.608 208.146C207.563 208.274 207.595 208.414 207.697 208.504L228.505 226.269C228.563 226.32 228.633 226.345 228.71 226.345L282.554 227.284C282.688 227.284 282.81 227.201 282.854 227.067C282.899 226.939 282.854 226.793 282.746 226.71L259.222 208.721H259.229ZM228.831 225.707L208.783 208.587L258.922 209.289L281.589 226.62L228.831 225.7V225.707Z" fill="#060004"/>
<path d="M208.97 211.306C205.628 213.011 199.367 218.582 200.786 234.75C202.773 257.466 218.757 288.991 221.805 315.929C221.805 315.929 229.299 317.897 247.686 315.144C245.322 309.976 248.35 298.509 251.436 284.883C254.209 286.334 257.052 287.432 259.939 288.077C287.085 294.178 303.728 262.627 290.612 249.436C233.17 191.669 213.008 209.242 208.97 211.306Z" fill="#F68D76"/>
<path d="M222.814 206.879C215.818 206.879 211.659 209.352 209.666 210.54C209.334 210.738 209.053 210.904 208.829 211.019C205.826 212.552 198.997 217.944 200.466 234.776C201.45 246.006 205.794 259.236 210.388 273.239C215.084 287.541 219.939 302.33 221.485 315.962L221.511 316.179L221.722 316.237C221.83 316.262 224.418 316.926 230.263 316.926C235.33 316.926 241.207 316.428 247.73 315.457L248.152 315.393L247.973 315.01C245.89 310.455 248.184 300.49 250.829 288.947C251.097 287.765 251.378 286.57 251.653 285.35C254.413 286.762 257.173 287.778 259.869 288.385C262.175 288.902 264.488 289.164 266.737 289.164C280.862 289.164 289.966 279.333 293.467 270.913C296.917 262.622 295.908 254.304 290.842 249.2C262.91 221.112 240.025 206.873 222.82 206.873L222.814 206.879ZM292.873 270.677C289.449 278.911 280.543 288.532 266.737 288.532C264.533 288.532 262.271 288.276 260.009 287.765C257.25 287.145 254.419 286.079 251.583 284.597L251.212 284.405L251.123 284.807C250.816 286.162 250.509 287.497 250.209 288.8C247.494 300.611 245.341 310.002 247.226 314.882C240.901 315.815 235.196 316.288 230.263 316.288C225.331 316.288 222.821 315.821 222.092 315.668C220.514 302.036 215.678 287.292 210.995 273.041C206.408 259.07 202.076 245.879 201.099 234.719C199.661 218.269 206.222 213.063 209.11 211.587C209.347 211.466 209.634 211.294 209.985 211.089C211.934 209.933 215.991 207.518 222.808 207.518C239.597 207.518 262.961 222.089 290.375 249.66C295.263 254.573 296.215 262.628 292.867 270.677H292.873Z" fill="#060004"/>
<path d="M242.701 223.688L242.279 224.167C242.337 224.218 247.831 229.156 249.626 235.071L250.24 234.886C248.387 228.798 242.931 223.898 242.701 223.688Z" fill="#060004"/>
<path d="M216.921 303.448C216.921 303.448 219.042 308.629 217.087 314.735C215.133 320.842 208.571 323.57 200.196 323.545C191.82 323.519 192.51 336.187 192.51 336.187C217.509 343.961 252.839 332.066 252.839 332.066L249.772 303.441H216.915L216.921 303.448Z" fill="#6C6C6C"/>
<path d="M216.449 303.129L216.628 303.57C216.647 303.621 218.679 308.718 216.788 314.64C215.018 320.179 209.166 323.232 200.311 323.232H200.177C198.196 323.232 196.542 323.922 195.251 325.276C191.84 328.879 192.178 335.912 192.197 336.213L192.21 336.436L192.421 336.5C198.075 338.257 204.732 339.151 212.188 339.151C232.594 339.151 252.744 332.45 252.948 332.38L253.191 332.297L250.067 303.129H216.449ZM212.194 338.506C204.892 338.506 198.382 337.644 192.83 335.951C192.804 334.731 192.817 328.771 195.718 325.711C196.88 324.484 198.375 323.865 200.202 323.865H200.311C209.466 323.865 215.529 320.658 217.395 314.832C219.056 309.638 217.848 305.16 217.382 303.768H249.498L252.507 331.85C250.156 332.61 231.284 338.506 212.194 338.506Z" fill="#060004"/>
<path d="M235.845 333.542C227.285 337.1 220.442 333.644 211.504 332.169C202.573 330.7 196.075 330.738 193.137 334.405C190.198 338.071 196.58 341.764 205.409 343.706C214.341 345.667 226.837 347.922 239.442 342.434C252.047 336.953 254.296 333.338 252.162 330.201C249.939 326.943 244.406 329.978 235.845 333.542Z" fill="#BFE9FC"/>
<path d="M249.275 328.496C246.854 328.496 243.411 329.972 239.053 331.837C237.999 332.291 236.888 332.763 235.725 333.249C233.246 334.277 230.742 334.782 228.065 334.782C224.717 334.782 221.433 334.015 217.958 333.198C215.92 332.719 213.811 332.227 211.563 331.856C207.838 331.243 204.829 330.943 202.363 330.943C197.75 330.943 194.652 332.01 192.888 334.207C192.109 335.178 191.904 336.187 192.262 337.216C193.201 339.88 198.089 342.422 205.334 344.019C210.483 345.15 216.079 346.197 222.162 346.197C228.512 346.197 234.204 345.067 239.565 342.735C247.953 339.087 252.233 336.085 253.045 333.281C253.364 332.176 253.16 331.115 252.419 330.029C251.716 329.001 250.687 328.502 249.269 328.502L249.275 328.496ZM252.438 333.095C251.697 335.663 247.404 338.621 239.322 342.141C234.045 344.434 228.435 345.552 222.174 345.552C215.913 345.552 210.598 344.511 205.48 343.387C198.555 341.866 193.725 339.413 192.869 336.999C192.582 336.181 192.748 335.395 193.387 334.597C195.016 332.565 197.948 331.575 202.363 331.575C204.797 331.575 207.768 331.869 211.454 332.476C213.677 332.84 215.779 333.332 217.804 333.811C221.318 334.635 224.634 335.408 228.058 335.408C230.825 335.408 233.406 334.891 235.968 333.83C237.137 333.345 238.248 332.866 239.303 332.418C243.589 330.579 246.982 329.129 249.269 329.129C250.477 329.129 251.313 329.525 251.895 330.381C252.521 331.294 252.693 332.182 252.431 333.095H252.438Z" fill="#060004"/>
<path d="M335.684 250.09C321.808 237.703 271.669 223.094 250.094 223.094C240.856 223.094 225.67 289.312 212.4 312.955L229.663 329.698C229.663 329.698 266.155 300.523 278.658 275.329C290.273 283.033 303.485 291.695 315.202 291.695C343.019 291.695 349.567 262.483 335.684 250.096V250.09Z" fill="#F68D76"/>
<path d="M335.895 249.847C321.827 237.294 271.994 222.768 250.094 222.768C244.612 222.768 237.712 243.337 229.726 267.165C223.881 284.591 217.837 302.606 212.125 312.788L212.004 312.999L229.643 330.106L229.861 329.927C230.225 329.64 266.238 300.67 278.779 275.769C289.762 283.052 303.35 291.989 315.195 291.989C327.679 291.989 337.466 285.869 341.376 275.622C344.935 266.296 342.731 255.934 335.895 249.834V249.847ZM340.782 275.412C336.974 285.402 327.411 291.369 315.202 291.369C302.993 291.369 289.8 282.323 278.837 275.054L278.536 274.856L278.377 275.182C266.551 299.015 232.742 326.791 229.688 329.269L212.809 312.897C218.514 302.625 224.526 284.706 230.34 267.375C237.591 245.765 245.085 223.419 250.106 223.419C271.407 223.419 321.788 238.118 335.48 250.338C342.117 256.267 344.251 266.347 340.789 275.424L340.782 275.412Z" fill="#060004"/>
<path d="M335.684 250.089C321.808 237.702 293.435 228.171 270.033 225.322L286.625 282.764C296.087 288.027 306.053 291.681 315.195 291.681C343.012 291.681 349.561 262.469 335.678 250.082L335.684 250.089Z" fill="white"/>
<path d="M335.894 249.846C320.894 236.457 291.256 227.577 270.071 225.003L269.592 224.945L286.318 282.853L286.356 282.981L286.471 283.045C297.153 288.992 306.813 292.007 315.195 292.007C327.678 292.007 337.466 285.887 341.376 275.641C344.934 266.314 342.73 255.953 335.894 249.852V249.846ZM340.782 275.411C336.974 285.402 327.41 291.368 315.201 291.368C306.96 291.368 297.44 288.404 286.899 282.553L270.48 225.699C291.537 228.344 320.689 237.127 335.473 250.325C342.111 256.253 344.244 266.334 340.782 275.411Z" fill="#060004"/>
<path d="M189.12 313.246C178.144 303.996 167.539 315.214 167.539 315.214L212.228 354.06C222.284 343.538 233.586 326.214 233.586 326.214L213.909 309.688C205.974 319.168 196.742 319.666 189.12 313.246Z" fill="#6C6C6C"/>
<path d="M213.659 309.484C209.429 314.537 204.625 317.208 199.757 317.208C196.147 317.208 192.64 315.796 189.33 313.004C186.391 310.526 183.203 309.274 179.856 309.274C172.796 309.274 167.525 314.767 167.308 314.997L167.078 315.24L212.023 354.303L212.253 354.501L212.464 354.284C222.424 343.865 233.745 326.566 233.853 326.394L234.007 326.157L213.869 309.248L213.665 309.491L213.659 309.484ZM233.157 326.279C231.771 328.38 221.434 343.89 212.202 353.619L167.998 315.202C169.097 314.148 173.876 309.912 179.849 309.912C183.044 309.912 186.091 311.12 188.909 313.496C192.288 316.345 196.038 317.853 199.75 317.853C204.733 317.853 209.634 315.189 213.94 310.142L233.157 326.279Z" fill="#060004"/>
<path d="M197.444 332.31C183.453 319.994 169.972 312.437 167.334 315.433C164.702 318.422 173.908 330.834 187.899 343.151C201.891 355.467 209.589 357.057 212.228 354.061C214.86 351.065 211.436 344.626 197.444 332.31Z" fill="#BFE9FC"/>
<path d="M197.655 332.067C185.874 321.699 174.163 314.455 169.18 314.455C168.241 314.455 167.538 314.711 167.091 315.215C165.315 317.227 168.305 322.178 171.122 325.979C175.019 331.23 180.903 337.414 187.688 343.38C199.233 353.544 205.577 355.677 208.867 355.677C210.432 355.677 211.64 355.204 212.464 354.265C215.524 350.79 210.675 343.527 197.648 332.067H197.655ZM211.991 353.85C211.295 354.642 210.247 355.045 208.873 355.045C204.382 355.045 197.009 350.733 188.116 342.907C181.363 336.967 175.511 330.821 171.64 325.602C167.909 320.575 166.426 316.946 167.576 315.643C167.896 315.279 168.439 315.1 169.186 315.1C173.946 315.1 185.746 322.44 197.233 332.552C209.761 343.578 214.725 350.746 211.991 353.85Z" fill="#060004"/>
<path d="M295.213 149.24C294.325 153.693 289.055 163.134 289.055 163.134C291.668 171.867 284.602 175.495 284.602 175.495C284.103 177.348 284.346 179.072 284.998 180.625C287.227 185.984 293.808 187.952 298.88 185.135C303.819 182.394 309.652 178.434 308.662 175.495C303.915 161.403 295.207 149.24 295.207 149.24H295.213Z" fill="#F68D76"/>
<path d="M295.468 149.056L295.04 148.455L294.893 149.177C294.024 153.527 288.824 162.886 288.773 162.975L288.709 163.09L288.747 163.218C291.251 171.58 284.735 175.061 284.454 175.202L284.326 175.266L284.288 175.4C283.815 177.157 283.956 178.952 284.697 180.734C286.211 184.375 289.833 186.726 293.928 186.726C295.711 186.726 297.474 186.266 299.033 185.404C306.47 181.271 309.811 177.898 308.961 175.381C304.253 161.404 295.551 149.164 295.468 149.043V149.056ZM298.726 184.854C297.263 185.666 295.609 186.094 293.935 186.094C290.095 186.094 286.703 183.896 285.291 180.498C284.62 178.894 284.486 177.278 284.875 175.7C285.834 175.138 291.75 171.292 289.392 163.167C289.993 162.081 294.19 154.409 295.353 150.007C297.123 152.601 304.259 163.435 308.354 175.592C309.07 177.712 305.645 181.002 298.72 184.854H298.726Z" fill="#060004"/>
<path d="M287.883 164.201C291.787 165.172 297.377 163.256 301.485 159.87C299.064 155.405 296.432 150.275 296.432 150.275C295.543 154.728 287.877 164.201 287.877 164.201H287.883Z" fill="#060004"/>
<path d="M296.725 150.128L296.31 149.311L296.131 150.211C295.269 154.536 287.724 163.901 287.647 163.997L287.334 164.386L287.819 164.508C288.516 164.68 289.283 164.77 290.094 164.77C293.767 164.77 298.214 162.987 301.702 160.113L301.907 159.947L301.779 159.717C299.383 155.303 296.757 150.179 296.732 150.128H296.725ZM290.088 164.131C289.513 164.131 288.969 164.086 288.458 163.99C289.851 162.227 295.192 155.315 296.534 151.15C297.332 152.696 299.262 156.414 301.083 159.781C297.735 162.464 293.544 164.124 290.088 164.124V164.131Z" fill="#060004"/>
<path d="M293.103 146.219L292.113 143.255C290.727 138.7 287.251 136.739 282.843 137.774C279.636 138.528 278.237 138.962 276.128 140.879C274.665 142.207 272.557 144.903 274.327 148.289C275.285 150.129 276.173 152.256 276.671 153.482C277.17 154.709 277.534 158.35 279.336 161.352C280.3 162.949 283.265 165.773 288.216 164.572C292.305 163.575 298.003 160.088 296.355 153.412C296.355 153.412 297.39 152.812 297.805 150.927C298.732 146.724 294.566 142.354 293.097 146.219H293.103Z" fill="#F68D76"/>
<path d="M294.745 144.404C294.356 144.404 293.691 144.551 293.161 145.388L292.42 143.165C291.244 139.313 288.631 137.186 285.066 137.186C284.332 137.186 283.559 137.281 282.773 137.467C279.483 138.24 278.045 138.712 275.918 140.641C274.41 142.009 272.168 144.838 274.046 148.435C274.755 149.796 275.541 151.533 276.378 153.603C276.518 153.954 276.659 154.561 276.825 155.264C277.227 157.008 277.783 159.39 279.067 161.524C280.083 163.217 282.485 165.184 285.891 165.184C286.664 165.184 287.475 165.082 288.293 164.884C289.526 164.584 293.704 163.332 295.819 159.838C296.943 157.985 297.243 155.871 296.713 153.545C297.065 153.258 297.787 152.51 298.119 150.997C298.604 148.799 297.755 146.755 296.886 145.669C296.228 144.851 295.467 144.404 294.745 144.404ZM297.499 150.856C297.122 152.562 296.234 153.111 296.196 153.13L295.985 153.252L296.042 153.488C296.592 155.724 296.336 157.749 295.269 159.505C293.282 162.789 289.309 163.977 288.133 164.258C287.366 164.443 286.606 164.539 285.878 164.539C282.735 164.539 280.53 162.731 279.598 161.185C278.365 159.141 277.828 156.81 277.432 155.11C277.253 154.35 277.119 153.756 276.953 153.354C276.103 151.265 275.311 149.508 274.595 148.135C272.915 144.921 274.959 142.353 276.327 141.108C278.352 139.268 279.662 138.84 282.901 138.08C283.642 137.907 284.364 137.818 285.054 137.818C288.318 137.818 290.708 139.779 291.8 143.35L293.072 147.164L293.391 146.327C293.615 145.739 294.03 145.036 294.739 145.036C295.257 145.036 295.857 145.413 296.381 146.065C297.167 147.036 297.927 148.876 297.493 150.856H297.499Z" fill="#060004"/>
<path d="M282.632 136.932C279.348 137.13 274.971 137.947 274.02 143.799C275.201 144.463 276.447 145.006 277.789 145.357C283.411 146.833 289.883 146.054 294.042 143.307C292.656 138.752 287.883 136.612 282.632 136.932Z" fill="#492225"/>
<path d="M283.654 136.586C283.309 136.586 282.964 136.599 282.612 136.618C278.971 136.841 274.665 137.851 273.706 143.753L273.668 143.971L273.86 144.079C275.163 144.814 276.422 145.331 277.706 145.67C279.59 146.162 281.571 146.417 283.59 146.417C287.666 146.417 291.441 145.408 294.214 143.581L294.412 143.447L294.342 143.217C293.096 139.128 288.995 136.586 283.647 136.586H283.654ZM283.596 145.772C281.628 145.772 279.705 145.529 277.872 145.05C276.703 144.743 275.559 144.277 274.371 143.632C275.316 138.407 279.079 137.474 282.644 137.25C282.983 137.231 283.315 137.218 283.647 137.218C288.605 137.218 292.413 139.493 293.658 143.172C291.039 144.827 287.391 145.772 283.59 145.772H283.596Z" fill="#060004"/>
<path d="M282.748 148.825L283.253 149.221C283.31 149.144 284.703 147.426 286.83 148.346L287.086 147.758C284.499 146.64 282.774 148.805 282.754 148.825H282.748Z" fill="#060004"/>
<path d="M275.688 151.592L276.192 151.988C276.237 151.931 277.368 150.532 279.106 151.292L279.361 150.704C277.163 149.739 275.7 151.573 275.688 151.592Z" fill="#060004"/>
<path d="M279.407 155.387C278.915 156.735 281.062 157.636 283.138 155.975L280.04 151.299C280.04 151.299 279.899 154.039 279.407 155.394V155.387Z" fill="#F68D76"/>
<path d="M279.956 156.307C279.758 156.166 279.553 155.911 279.707 155.495C280.205 154.116 280.352 151.426 280.358 151.311L279.719 151.279C279.719 151.279 279.573 153.988 279.106 155.278C278.889 155.879 279.068 156.454 279.585 156.824C279.905 157.054 280.346 157.195 280.863 157.195C281.591 157.195 282.467 156.92 283.336 156.224L282.939 155.725C281.758 156.671 280.544 156.735 279.956 156.307Z" fill="#060004"/>
<path d="M286.102 157.641C286.114 157.711 286.357 159.302 283.885 160.094L284.083 160.701C287.105 159.723 286.734 157.545 286.734 157.52L286.108 157.635L286.102 157.641Z" fill="#060004"/>
<path d="M295.352 146.34C295.071 146.2 294.758 146.2 294.464 146.321C293.397 146.775 294.177 150.02 294.273 150.384L294.892 150.231C294.503 148.685 294.464 147.049 294.713 146.909C294.841 146.851 294.956 146.851 295.071 146.909C295.499 147.12 295.819 147.982 295.895 148.263L296.509 148.097C296.47 147.957 296.119 146.711 295.352 146.334V146.34Z" fill="#060004"/>
<path d="M295.084 148.967C294.847 148.903 294.687 148.609 294.598 148.379L294.004 148.615C294.221 149.152 294.528 149.478 294.917 149.586C295.013 149.612 295.103 149.625 295.192 149.625C295.607 149.625 295.927 149.382 295.972 149.35L295.576 148.845C295.576 148.845 295.326 149.03 295.084 148.967Z" fill="#060004"/>
<path d="M259.083 222.135C255.991 224.019 265.376 237.402 270.921 236.7C271.854 236.585 271.829 235.601 272.691 235.971C274.224 236.623 274.282 238.661 275.77 239.408C277.444 240.245 285.437 243.337 287.462 243.35L289.315 222.18C285.679 221.189 270.021 215.479 259.089 222.135H259.083Z" fill="#F68D76"/>
<path d="M288.114 221.496C285.028 220.57 278.607 218.641 271.848 218.641C266.782 218.641 262.431 219.727 258.917 221.867C258.374 222.192 257.844 222.984 258.368 224.856C259.671 229.494 266.552 237.575 270.953 237.019C271.477 236.955 271.771 236.661 271.982 236.451C272.25 236.182 272.308 236.163 272.557 236.272C273.241 236.566 273.605 237.198 273.982 237.862C274.384 238.565 274.799 239.293 275.611 239.696C277.157 240.469 285.277 243.656 287.443 243.675H287.737L289.634 221.943L289.379 221.873C289.046 221.784 288.618 221.656 288.101 221.496H288.114ZM287.168 243.011C284.849 242.749 277.521 239.926 275.911 239.121C275.272 238.801 274.921 238.188 274.55 237.536C274.135 236.808 273.701 236.048 272.819 235.671C272.646 235.601 272.493 235.563 272.346 235.563C271.963 235.563 271.733 235.799 271.541 235.991C271.356 236.176 271.196 236.342 270.883 236.38C266.801 236.898 260.208 229.015 258.987 224.677C258.757 223.853 258.617 222.793 259.249 222.403C262.661 220.327 266.903 219.267 271.848 219.267C278.511 219.267 284.868 221.177 287.928 222.097C288.324 222.218 288.676 222.32 288.963 222.403L287.162 242.998L287.168 243.011Z" fill="#060004"/>
<path d="M255.556 224.581C253.888 226.785 252.681 230.087 256.706 231.869C259.076 232.924 260.648 231.729 261.216 230.349L262.596 220.467C262.596 220.467 257.568 221.917 255.556 224.581Z" fill="#F68D76"/>
<path d="M262.686 220.773L262.507 220.16C262.296 220.218 257.351 221.674 255.301 224.389C254.528 225.418 253.295 227.423 253.786 229.321C254.099 230.522 255.039 231.48 256.572 232.163C257.211 232.451 257.843 232.591 258.431 232.591C258.859 232.591 259.274 232.515 259.651 232.361C260.469 232.036 261.146 231.346 261.504 230.47L260.916 230.228C260.622 230.943 260.073 231.505 259.415 231.767C258.661 232.067 257.792 232.004 256.834 231.576C255.486 230.975 254.668 230.164 254.406 229.161C253.978 227.519 255.103 225.705 255.812 224.772C257.741 222.223 262.641 220.786 262.686 220.767V220.773Z" fill="#060004"/>
<path d="M256.973 226.792C255.114 229.251 253.613 233.595 257.9 235.627C260.513 236.866 262.295 235.467 262.928 233.934L263.829 223.24C263.829 223.24 259.216 223.828 256.973 226.798V226.792Z" fill="#F68D76"/>
<path d="M263.874 223.552L263.791 222.92C263.599 222.945 259.018 223.559 256.718 226.599C256.137 227.366 254.29 230.087 254.942 232.745C255.281 234.118 256.226 235.185 257.766 235.913C258.475 236.252 259.171 236.418 259.829 236.418C260.277 236.418 260.705 236.341 261.107 236.182C262.04 235.817 262.813 235.044 263.222 234.048L262.634 233.805C262.289 234.636 261.65 235.287 260.877 235.587C260.034 235.913 259.082 235.83 258.041 235.332C256.686 234.693 255.856 233.767 255.568 232.591C255.102 230.694 256.124 228.452 257.236 226.983C259.369 224.159 263.835 223.552 263.88 223.546L263.874 223.552Z" fill="#060004"/>
<path d="M261.084 229.801C259.423 231.998 257.908 236.221 261.921 238.003C264.284 239.05 265.85 237.862 266.418 236.482L267.172 226.83C267.172 226.83 263.096 227.143 261.084 229.801Z" fill="#F68D76"/>
<path d="M267.197 227.143L267.146 226.504C266.973 226.517 262.897 226.862 260.827 229.602C259.69 231.11 258.662 233.435 259.185 235.454C259.511 236.712 260.386 237.664 261.792 238.29C262.431 238.571 263.057 238.718 263.645 238.718C264.073 238.718 264.482 238.641 264.865 238.488C265.683 238.162 266.354 237.472 266.718 236.603L266.13 236.361C265.836 237.07 265.293 237.632 264.635 237.894C263.888 238.194 263.019 238.13 262.06 237.709C260.846 237.172 260.086 236.361 259.812 235.3C259.345 233.499 260.348 231.314 261.345 229.992C263.242 227.481 267.165 227.149 267.203 227.149L267.197 227.143Z" fill="#060004"/>
<path d="M270.781 235.581L271.119 231.301C271.119 231.301 267.305 230.815 265.587 233.447C264.27 235.46 263.319 238.692 266.43 240.819C268.289 242.09 270.57 242.32 272.327 241.017C274.064 239.733 275.119 234.802 270.787 235.581H270.781Z" fill="#F68D76"/>
<path d="M270.722 235.268L270.837 235.894C271.738 235.735 272.907 235.747 273.342 236.75C273.866 237.964 273.105 240.04 272.134 240.756C270.588 241.899 268.467 241.822 266.608 240.545C263.216 238.232 265.171 234.655 265.854 233.614C267.439 231.186 271.048 231.601 271.08 231.608L271.157 230.975C270.997 230.956 267.119 230.496 265.311 233.262C263.746 235.658 263.164 238.967 266.244 241.069C267.343 241.816 268.525 242.193 269.655 242.193C270.684 242.193 271.668 241.88 272.511 241.26C273.7 240.385 274.588 238.009 273.929 236.482C273.661 235.856 272.888 234.859 270.729 235.249L270.722 235.268Z" fill="#060004"/>
<path d="M340.616 208.247L311.375 190.271C311.375 190.271 305.746 193.83 307.874 200.448L314.812 224.269C314.959 225.163 314.198 225.949 313.298 225.84L289.308 222.18L287.455 243.35L325.711 256.043C338.124 259.627 347.446 248.876 346.136 235.742L340.616 208.247Z" fill="#D7D7D7"/>
<path d="M340.929 208.183L340.303 208.311L345.816 235.779C346.519 242.8 344.187 249.284 339.581 253.123C335.792 256.279 330.898 257.211 325.813 255.742L287.8 243.126L289.602 222.543L313.265 226.152C313.802 226.223 314.313 226.038 314.684 225.648C315.054 225.265 315.22 224.741 315.125 224.172L308.18 200.345C306.155 194.046 311.33 190.68 311.547 190.539L311.208 189.996C311.151 190.034 305.395 193.765 307.567 200.53L314.499 224.313C314.55 224.639 314.447 224.964 314.217 225.201C313.987 225.437 313.668 225.552 313.349 225.514L289.359 221.853C289.276 221.841 289.18 221.866 289.116 221.917C289.046 221.975 289.001 222.051 288.995 222.141L287.142 243.311C287.129 243.458 287.219 243.598 287.359 243.643L325.628 256.342C327.27 256.815 328.886 257.052 330.464 257.052C333.978 257.052 337.262 255.883 339.996 253.602C344.768 249.629 347.183 242.934 346.455 235.671L340.935 208.177L340.929 208.183Z" fill="#060004"/>
<path d="M270.174 292.216L326.938 297.091C298.904 262.378 270.174 292.216 270.174 292.216Z" fill="#160116"/>
<path d="M298.52 279.997C282.376 279.275 270.065 291.866 269.943 291.993L270.403 292.434C270.518 292.313 281.973 280.604 297.204 280.604C297.632 280.604 298.06 280.61 298.488 280.629C308.634 281.07 318.121 286.672 326.688 297.283L327.187 296.88C318.498 286.123 308.857 280.444 298.52 279.99V279.997Z" fill="#060004"/>
<path d="M121.226 185.346H57.7539V192.986H121.226V185.346Z" fill="white"/>
<path d="M80.1657 202.051H57.7539V209.691H80.1657V202.051Z" fill="white"/>
<path d="M57.4336 225.091H75.5585V220.92H57.4336V225.091ZM58.0725 221.559H74.9196V224.453H58.0725V221.559Z" fill="#060004"/>
<path d="M82.541 225.091H118.638V220.92H82.541V225.091ZM83.1799 221.559H117.999V224.453H83.1799V221.559Z" fill="#060004"/>
<path d="M95.6895 234.789H104.653V230.617H95.6895V234.789ZM96.3283 231.262H104.014V234.156H96.3283V231.262Z" fill="#060004"/>
<path d="M57.4336 234.789H92.1948V230.617H57.4336V234.789ZM58.0725 231.262H91.556V234.156H58.0725V231.262Z" fill="#060004"/>
<path d="M57.4336 244.494H118.632V240.322H57.4336V244.494ZM58.0725 240.961H117.993V243.855H58.0725V240.961Z" fill="#060004"/>
<path d="M71.8652 254.197H112.025V250.025H71.8652V254.197ZM72.5041 250.664H111.386V253.558H72.5041V250.664Z" fill="#060004"/>
<path d="M57.4336 254.197H67.7195V250.025H57.4336V254.197ZM58.0725 250.664H67.0806V253.558H58.0725V250.664Z" fill="#060004"/>
<path d="M57.4336 263.9H75.5585V259.729H57.4336V263.9ZM58.0725 260.367H74.9196V263.261H58.0725V260.367Z" fill="#060004"/>
<path d="M82.541 263.9H118.638V259.729H82.541V263.9ZM83.1799 260.367H117.999V263.261H83.1799V260.367Z" fill="#060004"/>
<path d="M18.7668 301.889H107.404C118.31 301.889 127.171 310.743 127.171 321.653V381.241C127.171 392.146 118.317 401.006 107.404 401.006H18.7668C7.8612 401.006 -1 392.152 -1 381.241V321.653C-1 310.749 7.85481 301.889 18.7668 301.889Z" fill="#E10060"/>
<path d="M63.0871 325.615C44.2722 325.615 27.5017 335.708 16.6855 351.449C27.5081 367.182 44.2722 377.275 63.0871 377.275C81.902 377.275 98.6598 367.182 109.482 351.449C98.6661 335.708 81.902 325.615 63.0871 325.615Z" fill="white"/>
<path d="M63.0862 325.295C44.7761 325.295 27.7692 334.762 16.4227 351.269C16.3461 351.377 16.3461 351.524 16.4227 351.633C27.7756 368.133 44.7824 377.6 63.0862 377.6C81.39 377.6 98.3905 368.133 109.743 351.633C109.82 351.524 109.82 351.377 109.743 351.269C98.3969 334.762 81.39 325.295 63.0862 325.295ZM63.0862 376.955C45.0635 376.955 28.3058 367.661 17.0744 351.448C28.2994 335.228 45.0572 325.934 63.0862 325.934C81.1153 325.934 97.8667 335.228 109.092 351.448C97.8603 367.661 81.1025 376.955 63.0862 376.955Z" fill="#060004"/>
<path d="M100.096 383.957H95.6875V389.374H100.096V383.957Z" fill="white"/>
<path d="M100.089 383.637H95.6808C95.5019 383.637 95.3613 383.777 95.3613 383.956V389.373C95.3613 389.552 95.5019 389.693 95.6808 389.693H100.089C100.268 389.693 100.408 389.552 100.408 389.373V383.956C100.408 383.777 100.268 383.637 100.089 383.637ZM99.7696 389.047H96.0002V384.269H99.7696V389.047Z" fill="#060004"/>
<path d="M106.152 380.092H101.744V389.367H106.152V380.092Z" fill="white"/>
<path d="M106.152 379.771H101.743C101.564 379.771 101.424 379.912 101.424 380.091V389.366C101.424 389.545 101.564 389.686 101.743 389.686H106.152C106.33 389.686 106.471 389.545 106.471 389.366V380.091C106.471 379.912 106.33 379.771 106.152 379.771ZM105.832 389.047H102.063V380.41H105.832V389.047Z" fill="#060004"/>
<path d="M112.215 376.1H107.807V389.368H112.215V376.1Z" fill="white"/>
<path d="M112.214 375.779H107.806C107.627 375.779 107.486 375.92 107.486 376.099V389.367C107.486 389.546 107.627 389.686 107.806 389.686H112.214C112.393 389.686 112.533 389.546 112.533 389.367V376.099C112.533 375.92 112.393 375.779 112.214 375.779ZM111.895 389.047H108.125V376.418H111.895V389.047Z" fill="#060004"/>
<path d="M63.0868 329.99C51.2356 329.99 41.627 339.598 41.627 351.448C41.627 363.298 51.2356 372.905 63.0868 372.905C74.938 372.905 84.5466 363.298 84.5466 351.448C84.5466 339.598 74.938 329.99 63.0868 329.99Z" fill="#060004"/>
<path d="M63.0859 329.67C51.0751 329.67 41.3066 339.437 41.3066 351.447C41.3066 363.456 51.0751 373.224 63.0859 373.224C75.0968 373.224 84.8652 363.456 84.8652 351.447C84.8652 339.437 75.0968 329.67 63.0859 329.67ZM63.0859 372.578C51.4328 372.578 41.9455 363.099 41.9455 351.44C41.9455 339.782 51.4264 330.302 63.0859 330.302C74.7454 330.302 84.2263 339.782 84.2263 351.44C84.2263 363.099 74.7454 372.578 63.0859 372.578Z" fill="#060004"/>
<path d="M79.6905 335.496C75.7933 335.496 72.6309 338.658 72.6309 342.555C72.6309 346.452 75.7933 349.614 79.6905 349.614C83.5876 349.614 86.75 346.452 86.75 342.555C86.75 338.658 83.5876 335.496 79.6905 335.496Z" fill="white"/>
<path d="M381.251 16.3334L363.497 4.7582C361.606 3.52531 359.319 3.05898 357.095 3.46143L193.613 32.821C188.803 33.6833 185.595 38.2891 186.464 43.0993L191.403 70.6063C192.265 75.4229 196.872 78.6233 201.682 77.7545L365.337 48.3695C367.458 47.9862 369.362 46.8491 370.703 45.1691L383.347 29.2756C386.592 25.1936 385.628 19.2016 381.251 16.3461V16.3334Z" fill="white"/>
<path d="M381.424 16.0645L363.67 4.48939C361.721 3.21816 359.325 2.73266 357.038 3.1415L193.556 32.4946C188.579 33.389 185.251 38.1672 186.145 43.1435L191.084 70.6505C191.87 75.0263 195.665 78.2076 200.105 78.2076C200.648 78.2076 201.197 78.1564 201.734 78.0606L365.388 48.6756C367.586 48.2795 369.56 47.1041 370.947 45.3538L383.59 29.4603C385.194 27.4417 385.877 24.8289 385.468 22.2865C385.059 19.7441 383.584 17.4763 381.424 16.0709V16.0645ZM383.092 29.0578L370.448 44.9513C369.158 46.5739 367.318 47.6726 365.273 48.0368L201.619 77.4218C201.114 77.5113 200.603 77.556 200.098 77.556C195.965 77.556 192.438 74.5983 191.71 70.5291L186.771 43.0221C185.941 38.3908 189.033 33.9447 193.665 33.1143L357.147 3.75476C357.645 3.66533 358.15 3.6206 358.655 3.6206C360.316 3.6206 361.926 4.09971 363.318 5.00682L381.073 16.582C383.079 17.8915 384.452 19.9996 384.836 22.3632C385.219 24.7331 384.58 27.1606 383.092 29.0387V29.0578Z" fill="#060004"/>
<path d="M256.908 42.3059C254.633 42.7594 251.439 43.5579 251.209 42.3186C251.004 41.2199 252.972 40.2298 256.575 39.5654C259.431 39.0352 262.849 38.7924 265.417 38.9458L264.421 33.5478C262.134 33.4329 258.633 33.7267 255.112 34.3783C246.775 35.9242 243.491 38.5305 244.341 43.0852C245.255 48.0168 248.117 48.9494 256.946 47.3141C258.735 46.9819 260.773 46.5475 260.965 47.5824C261.163 48.6492 259.137 49.6521 255.24 50.374C252.154 50.9489 248.474 51.2364 246.258 51.0256L247.254 56.4235C249.311 56.5768 253.477 56.1679 256.85 55.5419C265.245 53.9896 268.631 51.1533 267.749 46.3878C266.938 41.9992 264.076 40.8877 256.908 42.3059Z" fill="black"/>
<path d="M278.112 45.9281L277.608 43.1876L289.005 41.0732L288.149 36.461L276.752 38.5691L276.298 36.1161L290.232 33.5353L289.274 28.3418L268.695 32.1555L272.439 52.3481L293.011 48.5408L292.053 43.3473L278.112 45.9281Z" fill="black"/>
<path d="M306.082 25.0967C297.426 26.7001 293.81 31.67 294.96 37.8984C296.116 44.1331 301.272 47.4741 309.928 45.8707C318.617 44.2609 322.201 39.2974 321.045 33.069C319.889 26.8343 314.765 23.4869 306.076 25.0967H306.082ZM308.957 40.5878C304.945 41.3288 302.345 39.8404 301.751 36.64C301.157 33.4395 303.054 31.1143 307.066 30.3733C311.078 29.6323 313.679 31.1207 314.273 34.3211C314.867 37.5215 312.969 39.8468 308.957 40.5878Z" fill="black"/>
<path d="M184.126 0.320312C147.378 0.320312 117.594 30.1078 117.594 66.8455C117.594 103.583 147.385 133.371 184.126 133.371C220.868 133.371 250.659 103.583 250.659 66.8455C250.659 30.1078 220.868 0.320312 184.126 0.320312ZM184.126 122.818C153.211 122.818 128.148 97.7573 128.148 66.8455C128.148 35.9337 153.211 10.8734 184.126 10.8734C215.042 10.8734 240.105 35.9337 240.105 66.8455C240.105 97.7573 215.042 122.818 184.126 122.818Z" fill="#BFE9FC"/>
<path d="M184.126 10.5527C153.083 10.5527 127.828 35.8047 127.828 66.8443C127.828 97.8839 153.083 123.136 184.126 123.136C215.169 123.136 240.424 97.8839 240.424 66.8443C240.424 35.8047 215.169 10.5527 184.126 10.5527ZM184.126 122.497C153.434 122.497 128.467 97.5325 128.467 66.8443C128.467 36.1561 153.434 11.1915 184.126 11.1915C214.817 11.1915 239.785 36.1561 239.785 66.8443C239.785 97.5325 214.817 122.497 184.126 122.497Z" fill="#060004"/>
<path d="M184.125 0C147.262 0 117.273 29.9855 117.273 66.8446C117.273 103.704 147.262 133.689 184.125 133.689C220.989 133.689 250.977 103.704 250.977 66.8446C250.977 29.9855 220.989 0 184.125 0ZM184.125 133.05C147.614 133.05 117.912 103.352 117.912 66.8446C117.912 30.3369 147.614 0.638806 184.125 0.638806C220.637 0.638806 250.339 30.3369 250.339 66.8446C250.339 103.352 220.637 133.05 184.125 133.05Z" fill="#060004"/>
<path d="M184.125 3.25781C149.057 3.25781 120.531 31.7805 120.531 66.8445C120.531 101.909 149.057 130.431 184.125 130.431C219.193 130.431 247.719 101.909 247.719 66.8445C247.719 31.7805 219.187 3.25781 184.125 3.25781ZM184.125 129.792C149.408 129.792 121.17 101.557 121.17 66.8445C121.17 32.1318 149.408 3.89662 184.125 3.89662C218.842 3.89662 247.08 32.1318 247.08 66.8445C247.08 101.557 218.835 129.792 184.125 129.792Z" fill="#060004"/>
<path d="M120.294 123.89L97.6523 146.529L104.605 153.481L127.247 130.842L120.294 123.89Z" fill="white"/>
<path d="M120.517 123.659C120.396 123.538 120.185 123.538 120.064 123.659L97.422 146.299C97.2942 146.426 97.2942 146.624 97.422 146.752L104.373 153.702C104.437 153.766 104.52 153.798 104.597 153.798C104.673 153.798 104.763 153.766 104.82 153.702L127.462 131.063C127.59 130.935 127.59 130.737 127.462 130.61L120.511 123.659H120.517ZM104.603 153.025L98.1056 146.529L120.294 124.343L126.791 130.84L104.603 153.025Z" fill="#060004"/>
<path d="M99.8318 144.35L97.3722 141.884C96.5289 141.041 95.1617 141.041 94.3184 141.884L18.4263 217.768C17.9982 218.196 17.6149 218.65 17.2763 219.129C14.3502 223.249 14.7336 229.005 18.4263 232.697C22.547 236.817 29.2297 236.817 33.3504 232.697L109.242 156.813C110.086 155.97 110.086 154.603 109.242 153.76L99.8318 144.35Z" fill="#4A4A4A"/>
<path d="M97.595 141.661C96.6558 140.722 95.0267 140.722 94.0876 141.661L18.1955 217.545C17.7546 217.986 17.3585 218.459 17.0135 218.944C13.9342 223.282 14.4325 229.159 18.1955 232.921C20.2462 234.972 22.9806 236.102 25.8811 236.102C28.7816 236.102 31.516 234.972 33.5668 232.921L109.459 157.037C110.424 156.073 110.424 154.501 109.459 153.53L97.5886 141.655L97.595 141.661ZM109.012 156.59L33.1196 232.474C31.1838 234.41 28.6155 235.47 25.8811 235.47C23.1467 235.47 20.5785 234.403 18.6427 232.474C15.0969 228.929 14.6305 223.397 17.5246 219.315C17.8505 218.855 18.2274 218.407 18.6427 217.999L94.5348 142.115C94.8798 141.77 95.3461 141.578 95.8381 141.578C96.33 141.578 96.79 141.77 97.1414 142.115L109.012 153.99C109.727 154.706 109.727 155.875 109.012 156.59Z" fill="#060004"/>
<path d="M118.812 115.202C115.138 118.876 115.138 124.829 118.812 128.496L122.639 132.322C126.312 135.996 132.267 135.996 135.934 132.322L146.405 121.852L129.283 104.732L118.812 115.202Z" fill="#057AFF"/>
<path d="M118.582 114.979C116.748 116.813 115.732 119.259 115.732 121.853C115.732 124.446 116.742 126.893 118.582 128.726L122.409 132.553C124.242 134.386 126.689 135.402 129.283 135.402C131.877 135.402 134.324 134.393 136.157 132.553L146.858 121.853L129.283 104.279L118.582 114.979ZM135.704 132.099C133.985 133.818 131.704 134.757 129.283 134.757C126.862 134.757 124.574 133.811 122.862 132.099L119.035 128.273C117.317 126.554 116.378 124.274 116.378 121.853C116.378 119.432 117.323 117.145 119.035 115.433L129.283 105.186L145.951 121.853L135.704 132.099Z" fill="#060004"/>
<path d="M76.5244 167.743C75.4192 168.491 74.9081 168.727 74.6845 168.797C74.8761 168.248 75.8664 166.855 76.55 165.897C78.2622 163.489 78.8244 162.614 78.4027 162.173C78.1024 161.86 77.5658 162.019 76.3455 162.799C74.2628 164.121 67.2799 172.106 59.1853 181.356C47.0083 195.269 28.6151 216.299 25.9829 214.753C25.7402 214.612 25.3249 213.897 26.609 210.332L26.0085 210.115C24.8968 213.194 24.7882 214.791 25.6571 215.302C25.8104 215.392 25.9893 215.436 26.1938 215.436C29.912 215.436 42.5107 201.376 59.6645 181.778C67.7207 172.566 74.6781 164.613 76.6841 163.342C77.323 162.933 77.6744 162.773 77.8533 162.709C77.6424 163.259 76.6905 164.607 76.0261 165.533C74.282 167.986 73.7134 168.88 74.1478 169.327C74.4545 169.64 74.9783 169.564 76.8758 168.28C84.4529 163.169 97.0962 142.926 97.6329 142.063L97.0898 141.725C96.9621 141.935 83.9801 162.709 76.518 167.75L76.5244 167.743Z" fill="#060004"/>
<path d="M105.714 153.785C104.29 153.012 102.411 153.287 100.118 154.609C96.8978 156.475 94.0356 160.071 90.4132 164.626C85.9283 170.26 80.3509 177.274 71.9497 183.336C66.5959 187.195 60.2518 195.908 53.5309 205.132C43.6091 218.752 33.3488 232.831 24.6281 234.077C22.4112 234.396 20.4435 233.859 18.6163 232.448L18.2266 232.952C19.8174 234.179 21.5743 234.798 23.4462 234.798C23.8615 234.798 24.2895 234.767 24.7175 234.709C33.7065 233.425 44.0435 219.231 54.0483 205.509C60.7374 196.33 67.0559 187.661 72.3266 183.86C80.7981 177.747 86.4074 170.694 90.9179 165.028C94.502 160.525 97.3258 156.966 100.444 155.165C102.526 153.964 104.194 153.683 105.408 154.347C107.388 155.427 107.567 158.678 107.567 158.71L108.206 158.678C108.199 158.531 108.008 155.037 105.714 153.785Z" fill="#060004"/>
<path d="M99.1993 160.11C97.0143 161.106 94.8102 164.792 92.2611 169.066C89.7887 173.205 86.9904 177.901 83.7002 180.909C82.0199 182.443 80.1608 184.078 78.0014 185.969C71.6126 191.565 63.665 198.534 54.4077 208.295C43.8599 219.41 40.3333 225.025 40.2949 225.076L40.838 225.415C40.8699 225.357 44.3646 219.8 54.8677 208.736C64.1058 199 72.0407 192.044 78.4167 186.454C80.4866 184.64 82.4416 182.928 84.1218 181.389C87.4759 178.322 90.3061 173.582 92.7978 169.405C95.2894 165.227 97.4424 161.617 99.4485 160.704C99.934 160.48 100.305 160.429 100.426 160.563C101.001 161.196 99.3654 165.041 97.5191 168.242L98.0749 168.561C98.7521 167.386 102.087 161.445 100.899 160.135C100.56 159.765 99.9851 159.759 99.1865 160.123L99.1993 160.11Z" fill="#060004"/>
<path d="M80.0704 168.499C76.9527 171.495 75.6494 170.76 74.493 170.115C73.5091 169.565 72.4933 168.991 70.8961 171.047C67.9892 174.785 36.6907 211.426 29.1264 217.15C21.7218 222.759 15.6908 224.707 15.627 224.726L15.8186 225.333C15.8825 225.314 22.0093 223.34 29.5097 217.655C37.106 211.899 68.4812 175.174 71.3944 171.431C72.653 169.808 73.228 170.128 74.1736 170.664C75.3874 171.348 77.0485 172.28 80.5048 168.952C86.4016 163.286 99.9458 144.722 100.08 144.537L99.5625 144.16C99.4283 144.345 85.9161 162.864 80.0576 168.492L80.0704 168.499Z" fill="#060004"/>
<path d="M47.5076 204.073C45.8273 203.945 42.5563 207.248 38.0458 211.821C31.4526 218.503 22.4317 227.651 15.5957 227.932L15.6213 228.571C22.7064 228.277 31.8359 219.027 38.4994 212.275C42.5563 208.161 46.0509 204.616 47.4565 204.712C47.6098 204.724 47.712 204.782 47.8014 204.903C48.172 205.414 47.8014 207.318 45.5462 210.985C39.7836 220.35 27.236 232.832 17.3909 231.28L17.2887 231.912C17.902 232.008 18.5154 232.052 19.1351 232.052C29.8043 232.052 41.7385 218.382 46.0893 211.317C47.3159 209.324 49.2325 205.798 48.3189 204.526C48.1209 204.252 47.8398 204.098 47.5076 204.066V204.073Z" fill="#060004"/>
<path d="M109.198 41.2599L99.1738 58.0157L165.374 66.7227L105.435 33.4473L109.198 41.2599Z" fill="white"/>
<path d="M165.527 66.4407L105.587 33.1653C105.466 33.095 105.313 33.1142 105.21 33.21C105.108 33.3058 105.083 33.4527 105.14 33.5805L108.833 41.2334L98.8984 57.8423C98.8409 57.9318 98.8409 58.0467 98.8856 58.1426C98.9303 58.2384 99.0262 58.3087 99.1284 58.3214L165.329 67.0284C165.329 67.0284 165.354 67.0284 165.373 67.0284C165.508 67.0284 165.635 66.9389 165.674 66.8112C165.725 66.6642 165.661 66.5045 165.527 66.4343V66.4407ZM99.697 57.7593L109.472 41.4186C109.529 41.3292 109.529 41.2142 109.485 41.1184L106.156 34.2129L163.751 66.1851L99.697 57.7593Z" fill="#060004"/>
<path d="M105.434 33.4466L165.373 66.722L115.783 18.4922L105.434 33.4466Z" fill="#BFE9FC"/>
<path d="M115.732 18L104.967 33.5485L167.315 68.159L116 18.2619L115.732 18ZM105.893 33.3377L115.828 18.9902L163.43 65.278L105.893 33.3377Z" fill="#060004"/>
<path d="M109.338 40.9651L109.074 41.5469L165.247 67.0133L165.511 66.4316L109.338 40.9651Z" fill="black"/>
<path d="M141.274 214.259C135.773 211.429 132.183 206.836 130.599 200.608C126.765 185.551 134.783 179.757 149.337 169.243C157.189 163.57 166.957 156.511 177.55 145.92C193.879 129.592 190.755 112.491 188.653 105.899C187.535 102.398 185.925 99.1849 184.015 96.4892C186.053 92.2986 186.372 88.14 184.973 84.1155C181.715 74.757 170.049 69.2313 169.934 69.1738L169.666 69.7551C169.781 69.8062 181.204 75.2297 184.373 84.3263C185.682 88.0825 185.414 91.9728 183.587 95.8951C180.501 91.762 176.706 88.9385 172.969 88.3061C169.698 87.7503 166.848 88.9385 164.727 91.7492C162.619 94.5472 162.197 97.7284 163.571 100.488C165.079 103.522 168.426 105.484 172.087 105.49H172.1C176.693 105.49 180.897 102.449 183.696 97.1344C185.484 99.7215 186.992 102.775 188.046 106.097C190.11 112.581 193.176 129.394 177.096 145.473C166.542 156.026 156.792 163.072 148.96 168.732C134.668 179.061 126.037 185.29 129.979 200.768C131.608 207.181 135.313 211.909 140.98 214.828C145.983 217.402 152.122 218.348 158.46 218.348C176.035 218.348 195.099 211.046 195.361 210.95L195.131 210.356C194.78 210.49 159.904 223.848 141.281 214.259H141.274ZM172.1 104.851H172.094C168.669 104.851 165.551 103.024 164.146 100.207C162.868 97.639 163.258 94.7708 165.245 92.1389C166.893 89.9478 169.021 88.8171 171.448 88.8171C171.908 88.8171 172.387 88.8554 172.867 88.9385C176.527 89.5645 180.265 92.3944 183.28 96.5403C180.603 101.823 176.534 104.845 172.106 104.845L172.1 104.851Z" fill="#060004"/>
<path d="M349.435 349.32C347.595 349.32 346.1 350.815 346.1 352.655C346.1 354.495 347.595 355.989 349.435 355.989C351.275 355.989 352.769 354.495 352.769 352.655C352.769 350.815 351.275 349.32 349.435 349.32Z" fill="white"/>
<path d="M349.434 349C347.415 349 345.779 350.642 345.779 352.654C345.779 354.666 347.421 356.308 349.434 356.308C351.446 356.308 353.088 354.666 353.088 352.654C353.088 350.642 351.446 349 349.434 349ZM349.434 355.669C347.773 355.669 346.418 354.315 346.418 352.654C346.418 350.993 347.773 349.639 349.434 349.639C351.095 349.639 352.449 350.993 352.449 352.654C352.449 354.315 351.095 355.669 349.434 355.669Z" fill="#060004"/>
<path d="M349.435 371.582C346.401 371.582 343.947 374.041 343.947 377.069C343.947 380.097 346.407 382.557 349.435 382.557C352.464 382.557 354.923 380.097 354.923 377.069C354.923 374.041 352.464 371.582 349.435 371.582Z" fill="white"/>
<path d="M349.434 371.262C346.234 371.262 343.627 373.868 343.627 377.068C343.627 380.269 346.234 382.875 349.434 382.875C352.635 382.875 355.242 380.269 355.242 377.068C355.242 373.868 352.635 371.262 349.434 371.262ZM349.434 382.236C346.585 382.236 344.266 379.918 344.266 377.068C344.266 374.219 346.585 371.901 349.434 371.901C352.284 371.901 354.603 374.219 354.603 377.068C354.603 379.918 352.284 382.236 349.434 382.236Z" fill="#060004"/>
<path d="M363.087 372.654C362.812 372.168 362.294 371.868 361.732 371.868C360.87 371.868 360.173 371.172 360.173 370.309V363.391C360.173 357.457 355.363 352.646 349.427 352.646C343.492 352.646 338.681 357.457 338.681 363.391V370.309C338.681 371.172 337.985 371.868 337.123 371.868C336.56 371.868 336.049 372.168 335.768 372.654L334.516 374.851C333.922 375.886 334.676 377.177 335.87 377.177H362.978C364.173 377.177 364.92 375.886 364.332 374.851L363.08 372.654H363.087Z" fill="white"/>
<path d="M363.368 372.501C363.036 371.92 362.41 371.556 361.739 371.556C361.068 371.556 360.5 371 360.5 370.316V363.398C360.5 357.298 355.536 352.334 349.434 352.334C343.333 352.334 338.369 357.298 338.369 363.398V370.316C338.369 371 337.813 371.556 337.13 371.556C336.446 371.556 335.833 371.92 335.501 372.501L334.248 374.705C333.916 375.293 333.916 375.989 334.255 376.577C334.593 377.158 335.2 377.509 335.877 377.509H362.985C363.662 377.509 364.269 377.158 364.608 376.577C364.946 375.989 364.953 375.293 364.614 374.705L363.362 372.501H363.368ZM364.058 376.251C363.835 376.634 363.432 376.864 362.991 376.864H335.884C335.437 376.864 335.041 376.634 334.817 376.251C334.593 375.868 334.593 375.401 334.817 375.018L336.069 372.82C336.286 372.437 336.702 372.194 337.142 372.194C338.177 372.194 339.021 371.351 339.021 370.316V363.398C339.021 357.649 343.697 352.973 349.447 352.973C355.197 352.973 359.874 357.649 359.874 363.398V370.316C359.874 371.351 360.717 372.194 361.752 372.194C362.193 372.194 362.608 372.431 362.825 372.82L364.077 375.018C364.301 375.408 364.295 375.868 364.077 376.251H364.058Z" fill="#060004"/>
<path d="M363.202 372.859H335.667L334.53 374.859C333.936 375.894 334.689 377.184 335.884 377.184H362.992C364.186 377.184 364.934 375.894 364.346 374.859L363.209 372.859H363.202Z" fill="white"/>
<path d="M363.484 372.699C363.427 372.597 363.325 372.539 363.21 372.539H335.674C335.559 372.539 335.45 372.603 335.399 372.699L334.262 374.698C333.93 375.286 333.93 375.982 334.268 376.57C334.607 377.151 335.214 377.503 335.891 377.503H362.999C363.676 377.503 364.283 377.151 364.621 376.57C364.96 375.982 364.966 375.286 364.628 374.698L363.491 372.699H363.484ZM364.059 376.251C363.836 376.634 363.433 376.864 362.986 376.864H335.878C335.431 376.864 335.035 376.634 334.811 376.251C334.588 375.867 334.588 375.401 334.811 375.018L335.859 373.178H363.024L364.072 375.018C364.296 375.407 364.289 375.867 364.072 376.251H364.059Z" fill="#060004"/>
</g>
<defs>
<clipPath id="clip0_2518_21696">
<rect width="411" height="401" fill="white"/>
</clipPath>
</defs>
</svg>
