<svg width="427" height="425" viewBox="0 0 427 425" fill="none" xmlns="http://www.w3.org/2000/svg">
<g clip-path="url(#clip0_2422_11133)">
<path d="M400.041 382.57C388.531 392.16 338.441 398.94 278.761 401.49C187.021 405.42 72.6009 399.37 40.7909 378.2C25.7309 368.19 15.5509 337.25 9.1009 297.66C-6.9291 199.16 0.220901 47.1301 13.1609 30.6501C31.3109 7.56009 323.301 -15.3099 399.911 13.9301C432.741 26.4601 429.231 358.23 400.031 382.57H400.041Z" fill="white"/>
<path d="M373.314 247.44L375.204 241.883L377.358 247.44C377.358 247.44 381.657 248.14 381.712 248.531C381.757 248.913 377.595 250.095 377.595 250.095C377.595 250.095 375.85 255.488 375.204 254.27C374.568 253.051 373.95 250.35 373.95 250.35C373.95 250.35 368.533 249.268 368.533 248.731C368.533 248.158 373.314 247.449 373.314 247.449V247.44Z" fill="white"/>
<path d="M304.094 233.142L305.566 228.822L307.238 233.142C307.238 233.142 310.574 233.688 310.619 233.988C310.656 234.279 307.429 235.198 307.429 235.198C307.429 235.198 306.075 239.381 305.575 238.435C305.075 237.49 304.594 235.389 304.594 235.389C304.594 235.389 300.395 234.543 300.395 234.134C300.395 233.688 304.103 233.142 304.103 233.142H304.094Z" fill="white"/>
<g clip-path="url(#clip1_2422_11133)">
<path d="M122.224 114.434C159.043 77.4504 148.5 54.273 173.693 37.1501C212.457 10.8021 284.805 33.4697 327.488 69.7105C379.765 114.097 406.735 195.14 376.012 268.457C343.291 346.537 257.199 387.068 180.376 374.853C111.776 363.946 44.3395 309.986 37.581 245.268C36.8485 238.253 33.6157 200.333 56.2911 167.64C75.034 140.616 93.0386 143.75 122.224 114.434Z" fill="#DCDCDC"/>
<path d="M216.346 288.505L153.711 347.569C151.406 349.745 151.523 353.609 153.977 356.198C156.429 358.79 160.289 359.126 162.594 356.95L225.229 297.886C227.534 295.712 227.416 291.847 224.962 289.258C222.51 286.666 218.651 286.329 216.346 288.505Z" fill="#A0D2F4"/>
<path d="M160.752 312.648L126.158 345.27C124.016 347.29 124.126 350.876 126.405 353.283C128.681 355.688 132.265 356.002 134.407 353.982L168.999 321.36C171.141 319.34 171.031 315.753 168.752 313.347C166.476 310.942 162.892 310.628 160.75 312.648H160.752Z" fill="#A0D2F4"/>
<path d="M180.632 302.145C182.908 304.55 183.02 308.138 180.879 310.159C178.737 312.179 175.155 311.865 172.877 309.46C170.6 307.055 170.488 303.467 172.63 301.447C174.772 299.427 178.353 299.741 180.632 302.145Z" fill="#A0D2F4"/>
<path d="M158.333 153.763L165.646 153.723C165.646 153.723 183.167 131.602 195.007 130.378L196.104 68.0508C150.757 68.2028 110.736 93.7023 92.5098 131.39L158.333 153.763Z" fill="#DCDCDC"/>
<path d="M245.813 181.385C242.094 201.863 223.403 217.964 200.503 218.674C194.866 218.849 188.293 215.477 188.293 215.477C188.293 215.477 182.263 215.807 181.231 215.405L145.486 270.641C162.101 278.127 180.871 281.794 200.503 280.668C257.597 277.394 302.487 234.498 307.472 182.858L245.813 181.385Z" fill="white"/>
<path d="M193.652 281.504C176.858 281.504 160.245 277.992 145.224 271.224C145.055 271.147 144.928 271.001 144.874 270.824C144.822 270.645 144.849 270.453 144.949 270.297L180.694 215.061C180.858 214.807 181.18 214.703 181.463 214.813C182.028 215.032 185.361 215 188.258 214.842C188.374 214.836 188.484 214.859 188.586 214.911C188.649 214.944 195.078 218.207 200.483 218.037C222.642 217.351 241.441 201.888 245.185 181.271C245.241 180.962 245.495 180.744 245.828 180.748L307.487 182.222C307.665 182.226 307.833 182.305 307.95 182.435C308.068 182.568 308.126 182.743 308.108 182.92C305.66 208.283 293.533 232.236 273.963 250.369C254.135 268.74 228.059 279.728 200.539 281.305C198.242 281.436 195.944 281.504 193.65 281.504H193.652ZM146.427 270.362C163.14 277.758 181.808 281.101 200.466 280.032C255.822 276.857 301.394 235.408 306.767 183.48L246.339 182.035C242.262 202.969 223.086 218.611 200.522 219.311C195.2 219.475 189.22 216.648 188.156 216.123C186.982 216.185 183.148 216.36 181.527 216.123L146.425 270.364L146.427 270.362Z" fill="black"/>
<path d="M134.298 264.83L141.45 265.076L170.371 209.43C159.58 201.458 152.646 189.048 152.646 174.977C152.646 171.577 153.054 168.26 153.824 165.069L95.939 143.906L87.7502 142.965C84.2013 153.348 82.2852 164.395 82.2852 175.839C82.2852 213.734 103.118 246.362 134.298 264.83Z" fill="white"/>
<path d="M141.449 265.715C141.449 265.715 141.434 265.715 141.426 265.715L134.274 265.469C134.166 265.465 134.062 265.434 133.97 265.38C101.205 245.972 81.6445 212.5 81.6445 175.841C81.6445 164.567 83.4951 153.437 87.1442 142.761C87.2406 142.477 87.5259 142.3 87.8228 142.334L96.0116 143.275C96.0617 143.281 96.1118 143.292 96.1581 143.31L154.043 164.473C154.347 164.584 154.521 164.906 154.444 165.221C153.674 168.417 153.283 171.699 153.283 174.979C153.283 188.347 159.648 200.719 170.75 208.921C171.002 209.108 171.082 209.45 170.937 209.727L142.016 265.373C141.906 265.584 141.686 265.717 141.449 265.717V265.715ZM134.484 264.199L141.067 264.426L169.553 209.619C158.393 201.173 152.005 188.58 152.005 174.979C152.005 171.788 152.364 168.594 153.071 165.477L95.788 144.533L88.189 143.66C84.6941 154.055 82.9226 164.879 82.9226 175.841C82.9226 211.992 102.194 245.012 134.481 264.201L134.484 264.199Z" fill="black"/>
<path d="M158.332 154.4C158.262 154.4 158.193 154.388 158.125 154.365L105.06 136.329C104.727 136.215 104.547 135.853 104.661 135.519C104.775 135.186 105.139 135.007 105.473 135.12L158.436 153.123L165.337 153.084C167.347 150.585 182.981 131.557 194.377 129.814L195.453 68.6915C155.479 69.0455 118.213 89.6276 98.0837 122.517C97.9006 122.817 97.5054 122.913 97.2047 122.729C96.904 122.546 96.8076 122.151 96.9926 121.851C106.949 105.585 121.27 91.9401 138.405 82.3956C155.882 72.6605 175.833 67.4794 196.101 67.4121C196.261 67.4121 196.438 67.4794 196.558 67.6026C196.677 67.7238 196.745 67.8892 196.741 68.0624L195.644 130.39C195.638 130.713 195.391 130.98 195.071 131.013C183.636 132.194 166.32 153.9 166.146 154.119C166.027 154.271 165.842 154.36 165.649 154.362L158.336 154.402H158.332V154.4Z" fill="black"/>
<path d="M207.506 130.649C228.36 133.747 244.394 149.875 246.299 169.809L347.126 172.725C347.126 172.704 347.126 172.683 347.126 172.662C347.126 172.662 347.126 172.629 347.126 172.598C347.126 172.523 362.326 170.159 362.326 170.149C362.322 169.459 224.587 24.9609 224.587 24.9609L209.31 27.4659C209.31 27.4659 208.105 96.2555 207.504 130.651L207.506 130.649Z" fill="#A0D2F4"/>
<path d="M347.121 173.36C347.121 173.36 347.115 173.36 347.112 173.36L305.412 172.477C305.059 172.469 304.78 172.179 304.787 171.825C304.795 171.477 305.08 171.2 305.425 171.2C305.429 171.2 305.435 171.2 305.439 171.2L346.738 172.073C346.98 171.95 347.457 171.871 348.38 171.717C349.222 171.577 350.392 171.388 351.698 171.178C354.306 170.761 357.456 170.266 359.628 169.924C360.179 169.837 360.686 169.759 361.103 169.691C352.6 160.302 269.318 72.8028 224.36 25.6361L209.943 28.0006C209.837 33.3395 208.972 77.4183 208.534 102.435C208.528 102.787 208.245 103.07 207.884 103.062C207.532 103.056 207.25 102.766 207.256 102.414C207.721 75.8869 208.667 27.9275 208.677 27.4446C208.682 27.1368 208.908 26.877 209.213 26.827L224.489 24.3221C224.698 24.2875 224.91 24.3586 225.056 24.5125C225.401 24.8742 259.884 61.0515 293.925 96.8498C313.917 117.874 329.847 134.657 341.273 146.727C348.056 153.896 353.307 159.462 356.879 163.269C362.969 169.764 362.969 169.791 362.971 170.138C362.996 170.684 362.645 170.74 361.712 170.888L359.83 171.184C356.239 171.75 349.074 172.875 347.572 173.15C347.453 173.264 347.293 173.358 347.127 173.358L347.121 173.36Z" fill="black"/>
<path d="M289.027 171.681C289.027 171.681 289.016 171.681 289.008 171.681L246.279 170.446C245.957 170.436 245.691 170.19 245.66 169.869C244.031 152.826 231.872 138.334 214.678 132.947C214.341 132.841 214.154 132.483 214.26 132.146C214.366 131.81 214.723 131.623 215.062 131.729C232.558 137.212 244.989 151.876 246.877 169.187L289.045 170.407C289.398 170.417 289.675 170.711 289.665 171.063C289.656 171.41 289.372 171.683 289.027 171.683V171.681Z" fill="black"/>
<path d="M165.547 153.762C172.85 141.012 186.436 132.008 202.224 130.377L203.32 68.0498C157.974 68.2018 117.953 93.7014 99.7266 131.389L165.549 153.762H165.547Z" fill="#A0D2F4"/>
<path d="M162.448 85.6305C162.195 85.6305 161.956 85.4804 161.854 85.2323C161.721 84.9052 161.879 84.5339 162.207 84.4011C172.404 80.282 183.149 77.7117 194.141 76.7613C194.497 76.7305 194.802 76.9902 194.833 77.3423C194.864 77.6924 194.603 78.0022 194.25 78.033C183.384 78.9718 172.764 81.5114 162.685 85.5843C162.606 85.6151 162.525 85.6305 162.446 85.6305H162.448Z" fill="black"/>
<path d="M126.323 109.664C126.161 109.664 125.999 109.602 125.876 109.481C125.623 109.235 125.619 108.831 125.866 108.579C133.561 100.737 142.488 94.1282 152.404 88.9336C152.717 88.7701 153.104 88.8894 153.268 89.201C153.432 89.5127 153.312 89.8994 153 90.063C143.204 95.196 134.383 101.726 126.782 109.471C126.656 109.598 126.491 109.664 126.325 109.664H126.323Z" fill="black"/>
<path d="M253.028 181.383C249.309 201.861 230.618 217.962 207.717 218.672C200.889 218.884 194.364 217.708 188.446 215.405L152.701 270.641C169.316 278.127 188.086 281.794 207.717 280.668C264.812 277.394 309.702 234.498 314.687 182.858L253.028 181.385V181.383Z" fill="white"/>
<path d="M200.865 281.502C184.071 281.502 167.458 277.99 152.437 271.222C152.268 271.145 152.14 270.999 152.086 270.822C152.034 270.643 152.061 270.453 152.163 270.295L187.909 215.059C188.072 214.805 188.394 214.701 188.678 214.811C194.704 217.154 201.107 218.241 207.698 218.035C229.857 217.349 248.656 201.886 252.399 181.269C252.453 180.965 252.719 180.746 253.028 180.746C253.034 180.746 253.037 180.746 253.043 180.746L314.702 182.22C314.88 182.224 315.047 182.303 315.165 182.433C315.282 182.564 315.34 182.741 315.323 182.918C312.875 208.281 300.748 232.234 281.178 250.367C261.35 268.738 235.274 279.726 207.754 281.303C205.456 281.434 203.159 281.502 200.865 281.502ZM153.642 270.36C170.355 277.756 189.023 281.099 207.681 280.03C263.036 276.855 308.609 235.406 313.981 183.478L253.554 182.033C249.479 202.967 230.3 218.609 207.737 219.309C201.146 219.513 194.744 218.463 188.701 216.185L153.642 270.36Z" fill="black"/>
<path d="M200.753 272.569C188.753 272.569 177.043 270.674 165.945 266.935C165.609 266.822 165.43 266.46 165.544 266.127C165.658 265.795 166.02 265.614 166.354 265.727C177.318 269.421 188.892 271.293 200.753 271.293C202.881 271.293 205.04 271.232 207.167 271.108C207.512 271.087 207.82 271.357 207.841 271.709C207.861 272.061 207.593 272.363 207.24 272.382C205.089 272.505 202.906 272.569 200.753 272.569Z" fill="black"/>
<path d="M229.776 268.711C229.495 268.711 229.236 268.524 229.159 268.241C229.067 267.901 229.267 267.551 229.608 267.458C267.27 257.209 296.358 227.364 303.711 191.423C303.782 191.077 304.121 190.856 304.464 190.925C304.811 190.996 305.033 191.333 304.964 191.677C301.278 209.685 292.241 226.446 278.824 240.144C265.515 253.737 248.612 263.606 229.944 268.686C229.888 268.701 229.832 268.709 229.776 268.709V268.711Z" fill="black"/>
<path d="M141.513 264.829L177.586 209.43C166.794 201.458 159.861 189.048 159.861 174.977C159.861 171.577 160.269 168.26 161.038 165.069L94.965 142.963C91.4161 153.346 89.5 164.393 89.5 175.837C89.5 213.732 110.333 246.36 141.513 264.828V264.829Z" fill="#DCDCDC"/>
<path d="M165.547 154.399C165.477 154.399 165.408 154.387 165.34 154.364L99.5175 131.991C99.344 131.932 99.2052 131.803 99.1339 131.633C99.0625 131.464 99.0683 131.274 99.1473 131.11C108.227 112.335 122.704 96.4257 141.013 85.0996C159.6 73.6004 181.143 67.4842 203.316 67.4111C203.47 67.4111 203.653 67.4785 203.773 67.6016C203.892 67.7228 203.96 67.8883 203.956 68.0614L203.385 100.47C203.379 100.822 203.086 101.103 202.735 101.097C202.383 101.091 202.101 100.801 202.107 100.449L202.666 68.6944C159.019 69.0811 119.095 93.4667 100.614 131.022L165.254 152.993C171.993 141.538 183.536 133.369 197.006 130.548C197.351 130.477 197.691 130.696 197.764 131.041C197.837 131.385 197.616 131.724 197.27 131.797C183.979 134.581 172.617 142.704 166.1 154.082C165.984 154.286 165.768 154.403 165.545 154.403L165.547 154.399Z" fill="black"/>
<path d="M138.063 157.806C137.997 157.806 137.93 157.796 137.862 157.773L102.535 146.17C102.2 146.06 102.017 145.699 102.129 145.364C102.238 145.029 102.601 144.848 102.936 144.958L138.263 156.561C138.598 156.671 138.782 157.032 138.67 157.367C138.581 157.636 138.331 157.806 138.063 157.806Z" fill="black"/>
<path d="M141.512 265.469C141.4 265.469 141.289 265.44 141.186 265.379C108.422 245.97 88.8613 212.498 88.8613 175.84C88.8613 169.079 89.5341 162.305 90.8623 155.702C90.9317 155.356 91.2671 155.133 91.6141 155.202C91.961 155.271 92.1847 155.608 92.1153 155.952C90.8044 162.473 90.1394 169.162 90.1394 175.838C90.1394 211.846 109.256 244.745 141.312 263.967L176.723 209.583C165.591 201.137 159.22 188.559 159.22 174.976C159.22 173.637 159.284 172.283 159.409 170.953C159.442 170.603 159.758 170.345 160.105 170.378C160.456 170.411 160.714 170.722 160.681 171.072C160.56 172.363 160.498 173.677 160.498 174.976C160.498 188.343 166.863 200.716 177.965 208.918C178.237 209.118 178.304 209.495 178.121 209.778L142.048 265.177C141.927 265.364 141.72 265.467 141.512 265.467V265.469Z" fill="black"/>
<path d="M222.707 128.02C243.561 131.118 259.595 147.246 261.5 167.18L362.327 170.096C362.327 170.054 362.327 170.012 362.327 169.969C362.327 96.1468 303.392 32.9693 224.511 24.8369L222.705 128.022L222.707 128.02Z" fill="#008BCE"/>
<path d="M313.907 168.81C313.907 168.81 313.9 168.81 313.896 168.81L261.486 167.817C261.16 167.811 260.892 167.563 260.861 167.24C258.984 147.585 243.254 131.717 222.61 128.652C222.29 128.604 222.055 128.325 222.065 128.004L223.364 82.6626C223.374 82.3106 223.674 82.0354 224.021 82.0431C224.374 82.0527 224.652 82.3471 224.642 82.6992L223.358 127.478C244.11 130.801 259.915 146.756 262.074 166.555L313.917 167.538C314.27 167.544 314.551 167.836 314.544 168.188C314.538 168.537 314.253 168.814 313.906 168.814L313.907 168.81Z" fill="black"/>
<path d="M362.327 170.732C362.327 170.732 362.316 170.732 362.31 170.732L322.939 169.593C322.586 169.583 322.309 169.289 322.318 168.937C322.328 168.584 322.615 168.305 322.976 168.317L361.689 169.437C361.41 95.5796 302.854 33.8796 225.142 25.5414L224.411 67.3153C224.405 67.6674 224.108 67.9483 223.761 67.9425C223.409 67.9368 223.127 67.6462 223.133 67.2942L223.877 24.8257C223.881 24.6467 223.958 24.4774 224.093 24.3601C224.226 24.2408 224.401 24.185 224.583 24.2023C262.753 28.1386 297.871 45.2307 323.469 72.331C348.941 99.3004 362.971 133.975 362.971 169.968V170.101C362.969 170.272 362.898 170.435 362.775 170.555C362.655 170.67 362.497 170.733 362.331 170.733L362.327 170.732Z" fill="black"/>
<path d="M346.365 374.893H326.383V240.288L343.273 223.875L346.365 374.893Z" fill="white"/>
<path d="M346.365 375.532H326.382C326.029 375.532 325.742 375.247 325.742 374.893V240.288C325.742 240.115 325.812 239.952 325.935 239.83L342.825 223.416C343.08 223.169 343.483 223.175 343.729 223.427C343.976 223.679 343.97 224.083 343.718 224.329L327.02 240.556V374.252H346.363C346.715 374.252 347.003 374.537 347.003 374.891C347.003 375.245 346.715 375.53 346.363 375.53L346.365 375.532Z" fill="black"/>
<path d="M389.193 374.893H343.445C343.351 374.893 343.273 374.816 343.273 374.722V224.05C343.273 223.954 343.354 223.875 343.451 223.879L389.199 225.609C389.291 225.612 389.363 225.688 389.363 225.78V374.722C389.363 374.816 389.285 374.893 389.191 374.893H389.193Z" fill="#A0D2F4"/>
<path d="M389.192 375.532H343.444C342.997 375.532 342.635 375.169 342.635 374.724V224.053C342.635 223.833 342.725 223.622 342.883 223.47C343.042 223.318 343.255 223.237 343.475 223.245L389.223 224.974C389.661 224.992 390.002 225.346 390.002 225.782V374.724C390.002 375.17 389.639 375.532 389.192 375.532ZM343.913 374.257H388.724V226.232L343.913 224.539V374.259V374.257Z" fill="black"/>
<path d="M287.152 374.893H268.635V291.547L285.525 281.383L287.152 374.893Z" fill="white"/>
<path d="M287.152 375.532H268.636C268.283 375.532 267.996 375.248 267.996 374.894V291.548C267.996 291.325 268.114 291.117 268.305 291.001L285.195 280.837C285.498 280.656 285.891 280.753 286.072 281.055C286.255 281.357 286.157 281.749 285.854 281.93L269.272 291.907V374.257H287.15C287.502 374.257 287.79 374.542 287.79 374.896C287.79 375.25 287.502 375.534 287.15 375.534L287.152 375.532Z" fill="black"/>
<path d="M331.616 374.893H285.527V281.579C285.527 281.471 285.616 281.387 285.724 281.389L331.616 282.922V374.891V374.893Z" fill="#A0D2F4"/>
<path d="M331.616 375.532H285.527C285.174 375.532 284.887 375.247 284.887 374.893V281.58C284.887 281.356 284.979 281.139 285.139 280.985C285.299 280.829 285.521 280.746 285.743 280.752L331.635 282.286C331.98 282.297 332.254 282.58 332.254 282.922V374.891C332.254 375.243 331.967 375.53 331.614 375.53L331.616 375.532ZM286.165 374.256H330.976V283.542L286.165 282.043V374.256Z" fill="black"/>
<path d="M231.494 374.892H212.383V332.228L229.275 327.023L231.494 374.892Z" fill="white"/>
<path d="M231.493 375.531H212.384C212.031 375.531 211.744 375.246 211.744 374.892V332.227C211.744 331.948 211.927 331.7 212.195 331.618L229.086 326.415C229.423 326.311 229.782 326.5 229.886 326.837C229.99 327.173 229.801 327.531 229.463 327.635L213.024 332.699V374.255H231.495C231.848 374.255 232.135 374.54 232.135 374.894C232.135 375.248 231.848 375.533 231.495 375.533L231.493 375.531Z" fill="black"/>
<path d="M275.204 374.892H229.435C229.347 374.892 229.275 374.821 229.275 374.733V327.187C229.275 327.097 229.349 327.025 229.439 327.027L275.208 327.772C275.297 327.772 275.366 327.845 275.366 327.932V374.731C275.366 374.819 275.295 374.891 275.206 374.891L275.204 374.892Z" fill="#A0D2F4"/>
<path d="M275.202 375.532H229.435C228.993 375.532 228.635 375.174 228.635 374.733V327.188C228.635 326.972 228.72 326.77 228.874 326.618C229.026 326.468 229.25 326.381 229.448 326.389L275.217 327.134C275.651 327.139 276.004 327.499 276.004 327.932V374.731C276.004 375.172 275.645 375.53 275.204 375.53L275.202 375.532ZM229.913 374.256H274.724V328.403L229.913 327.674V374.256Z" fill="black"/>
<path d="M297.777 348.904C297.424 348.904 297.137 348.62 297.137 348.266V292.555C297.137 292.203 297.424 291.916 297.777 291.916C298.129 291.916 298.417 292.201 298.417 292.555V348.266C298.417 348.618 298.129 348.904 297.777 348.904Z" fill="#DCDCDC"/>
<path d="M321.931 355.42C321.578 355.42 321.291 355.135 321.291 354.781V299.07C321.291 298.718 321.578 298.432 321.931 298.432C322.284 298.432 322.571 298.716 322.571 299.07V354.781C322.571 355.133 322.284 355.42 321.931 355.42Z" fill="#DCDCDC"/>
<path d="M366.328 291.891C365.975 291.891 365.688 291.606 365.688 291.252V235.541C365.688 235.189 365.975 234.902 366.328 234.902C366.68 234.902 366.967 235.187 366.967 235.541V291.252C366.967 291.604 366.68 291.891 366.328 291.891Z" fill="#DCDCDC"/>
<path d="M261.433 364.216C261.08 364.216 260.793 363.932 260.793 363.578V335.232C260.793 334.88 261.08 334.594 261.433 334.594C261.786 334.594 262.073 334.878 262.073 335.232V363.578C262.073 363.93 261.786 364.216 261.433 364.216Z" fill="#DCDCDC"/>
<path d="M309.855 333.591C309.502 333.591 309.215 333.306 309.215 332.952V321.549C309.215 321.197 309.502 320.91 309.855 320.91C310.208 320.91 310.495 321.195 310.495 321.549V332.952C310.495 333.304 310.208 333.591 309.855 333.591Z" fill="#DCDCDC"/>
<path d="M354.249 258.009C353.897 258.009 353.609 257.724 353.609 257.37V245.967C353.609 245.615 353.897 245.328 354.249 245.328C354.602 245.328 354.889 245.613 354.889 245.967V257.37C354.889 257.722 354.602 258.009 354.249 258.009Z" fill="#DCDCDC"/>
<path d="M378.406 280.487C378.053 280.487 377.766 280.202 377.766 279.848V268.445C377.766 268.093 378.053 267.807 378.406 267.807C378.758 267.807 379.046 268.091 379.046 268.445V279.848C379.046 280.2 378.758 280.487 378.406 280.487Z" fill="#DCDCDC"/>
<path d="M246.96 354.117C246.608 354.117 246.32 353.833 246.32 353.479V345.117C246.32 344.765 246.608 344.479 246.96 344.479C247.313 344.479 247.6 344.763 247.6 345.117V353.479C247.6 353.831 247.313 354.117 246.96 354.117Z" fill="#DCDCDC"/>
<path d="M297.777 348.904C297.424 348.904 297.137 348.62 297.137 348.266V292.555C297.137 292.203 297.424 291.916 297.777 291.916C298.129 291.916 298.417 292.201 298.417 292.555V348.266C298.417 348.618 298.129 348.904 297.777 348.904Z" fill="#DCDCDC"/>
<path d="M321.933 355.42C321.58 355.42 321.293 355.135 321.293 354.781V299.07C321.293 298.718 321.58 298.432 321.933 298.432C322.286 298.432 322.573 298.716 322.573 299.07V354.781C322.573 355.133 322.286 355.42 321.933 355.42Z" fill="#DCDCDC"/>
<path d="M309.855 333.593C309.502 333.593 309.215 333.308 309.215 332.954V321.551C309.215 321.199 309.502 320.912 309.855 320.912C310.208 320.912 310.495 321.197 310.495 321.551V332.954C310.495 333.306 310.208 333.593 309.855 333.593Z" fill="#DCDCDC"/>
<path d="M366.328 291.891C365.975 291.891 365.688 291.606 365.688 291.252V235.541C365.688 235.189 365.975 234.902 366.328 234.902C366.68 234.902 366.967 235.187 366.967 235.541V291.252C366.967 291.604 366.68 291.891 366.328 291.891Z" fill="#DCDCDC"/>
<path d="M354.251 258.009C353.899 258.009 353.611 257.724 353.611 257.37V245.967C353.611 245.615 353.899 245.328 354.251 245.328C354.604 245.328 354.891 245.613 354.891 245.967V257.37C354.891 257.722 354.604 258.009 354.251 258.009Z" fill="#DCDCDC"/>
<path d="M378.408 280.487C378.055 280.487 377.768 280.202 377.768 279.848V268.445C377.768 268.093 378.055 267.807 378.408 267.807C378.76 267.807 379.048 268.091 379.048 268.445V279.848C379.048 280.2 378.76 280.487 378.408 280.487Z" fill="#DCDCDC"/>
<path d="M261.433 364.218C261.08 364.218 260.793 363.933 260.793 363.579V335.234C260.793 334.882 261.08 334.596 261.433 334.596C261.786 334.596 262.073 334.88 262.073 335.234V363.579C262.073 363.932 261.786 364.218 261.433 364.218Z" fill="#DCDCDC"/>
<path d="M246.96 354.119C246.608 354.119 246.32 353.835 246.32 353.481V345.119C246.32 344.767 246.608 344.48 246.96 344.48C247.313 344.48 247.6 344.765 247.6 345.119V353.481C247.6 353.833 247.313 354.119 246.96 354.119Z" fill="#DCDCDC"/>
<path d="M43.1567 106.071C44.9321 96.3532 54.2737 89.8657 64.022 91.5819C73.7703 93.298 80.2339 102.567 78.4585 112.285C76.6831 122.003 67.3415 128.49 57.5932 126.774C47.8449 125.058 41.3813 115.789 43.1567 106.071Z" fill="white"/>
<path d="M60.7196 127.686C59.6497 127.686 58.5683 127.594 57.4811 127.403C52.5963 126.543 48.3515 123.838 45.5275 119.786C42.7034 115.737 41.6374 110.823 42.5261 105.955C44.3612 95.9087 54.0517 89.1788 64.1316 90.9526C69.0144 91.8126 73.2611 94.5177 76.0852 98.5694C78.9092 102.621 79.9752 107.533 79.0866 112.4C77.45 121.364 69.558 127.686 60.7196 127.686ZM43.7848 106.184C42.9579 110.715 43.9487 115.288 46.5761 119.057C49.2055 122.828 53.1573 125.345 57.7027 126.145C67.0906 127.798 76.1179 121.529 77.8278 112.17C78.6548 107.639 77.6639 103.066 75.0365 99.2967C72.4071 95.5258 68.4554 93.0093 63.9099 92.209C54.524 90.5563 45.4947 96.8244 43.7848 106.184Z" fill="black"/>
<path d="M71.7258 102.293L65.4936 104.58C65.1717 104.699 65.0868 105.115 65.3374 105.35L66.0738 106.035C66.2608 106.208 66.2704 106.498 66.0969 106.685L62.7486 110.279C62.5751 110.465 62.284 110.475 62.097 110.302L57.8137 106.325C57.6267 106.152 57.3356 106.162 57.1621 106.348L49.6981 114.313C49.5246 114.5 49.5343 114.79 49.7212 114.963L51.2865 116.418C51.4735 116.591 51.7646 116.581 51.9381 116.395L57.3202 110.667C57.4937 110.481 57.7848 110.471 57.9717 110.644L62.2551 114.619C62.442 114.792 62.7331 114.783 62.9066 114.596L68.335 108.77C68.5085 108.584 68.8015 108.574 68.9885 108.747L69.7827 109.486C70.0352 109.723 70.4497 109.605 70.5422 109.273L72.333 102.849C72.4333 102.487 72.0824 102.164 71.7296 102.293H71.7258Z" fill="#008BCE"/>
<path d="M367.837 102.709C367.586 102.709 367.347 102.561 367.245 102.315C357.422 78.6604 334.174 47.1428 300.985 36.163C300.649 36.0514 300.468 35.6917 300.58 35.3569C300.692 35.0222 301.052 34.8413 301.388 34.9529C317.372 40.2398 332.03 50.2846 344.957 64.8063C354.601 75.6399 363.157 89.1342 368.427 101.828C368.562 102.153 368.408 102.527 368.082 102.661C368.003 102.694 367.92 102.709 367.837 102.709Z" fill="black"/>
<path d="M357.587 68.3618C357.369 68.3618 357.157 68.2502 357.038 68.0501C356.864 67.7596 339.397 38.9759 307.363 30.8358C307.022 30.7492 306.814 30.401 306.901 30.0605C306.987 29.72 307.334 29.5122 307.677 29.5987C324.697 33.9237 337.508 43.9685 345.258 51.6314C353.651 59.9312 358.092 67.3248 358.135 67.3979C358.316 67.7 358.216 68.0924 357.913 68.2714C357.811 68.3329 357.697 68.3618 357.587 68.3618Z" fill="black"/>
<path d="M61.6296 74.0991C61.4503 74.0991 61.2729 74.024 61.1457 73.8778C60.9144 73.6104 60.9452 73.2083 61.2113 72.9774L92.5285 45.9791C94.2499 44.4939 96.4474 43.7685 98.7163 43.934C100.985 44.0995 103.054 45.1364 104.542 46.8564C107.15 49.8712 111.732 50.206 114.753 47.601L141.951 24.1562C142.217 23.9253 142.621 23.9561 142.853 24.2216C143.084 24.489 143.053 24.8911 142.787 25.122L115.589 48.5687C113.868 50.054 111.668 50.7793 109.402 50.6138C107.133 50.4484 105.064 49.4114 103.576 47.6933C100.966 44.6786 96.3858 44.3438 93.3651 46.9488L62.0479 73.9471C61.9264 74.051 61.778 74.1029 61.6296 74.1029V74.0991Z" fill="black"/>
<path d="M378.702 190.786C378.54 190.786 378.376 190.725 378.253 190.602L377.013 189.376C376.763 189.128 376.761 188.724 377.01 188.474C377.258 188.224 377.663 188.222 377.914 188.47L379.153 189.696C379.404 189.944 379.406 190.348 379.157 190.598C379.032 190.723 378.868 190.786 378.702 190.786Z" fill="black"/>
<path d="M384.636 196.654C384.474 196.654 384.31 196.592 384.186 196.469L382.947 195.243C382.696 194.995 382.694 194.591 382.943 194.341C383.192 194.091 383.597 194.089 383.847 194.337L385.087 195.563C385.337 195.811 385.339 196.215 385.091 196.465C384.965 196.59 384.801 196.654 384.636 196.654Z" fill="black"/>
<path d="M377.463 196.654C377.299 196.654 377.133 196.59 377.008 196.465C376.759 196.215 376.761 195.811 377.011 195.563L378.251 194.337C378.502 194.089 378.906 194.091 379.155 194.341C379.404 194.591 379.402 194.995 379.151 195.243L377.912 196.469C377.786 196.592 377.624 196.654 377.463 196.654Z" fill="black"/>
<path d="M383.396 190.786C383.232 190.786 383.066 190.723 382.941 190.598C382.692 190.348 382.694 189.944 382.945 189.696L384.185 188.47C384.435 188.222 384.84 188.224 385.089 188.474C385.337 188.724 385.335 189.128 385.085 189.376L383.845 190.602C383.72 190.725 383.558 190.786 383.396 190.786Z" fill="black"/>
<path d="M375.762 176.383C373.58 176.383 371.803 174.624 371.803 172.462C371.803 170.299 373.578 168.541 375.762 168.541C377.946 168.541 379.722 170.299 379.722 172.462C379.722 174.624 377.946 176.383 375.762 176.383ZM375.762 169.817C374.284 169.817 373.083 171.004 373.083 172.462C373.083 173.92 374.286 175.107 375.762 175.107C377.239 175.107 378.442 173.92 378.442 172.462C378.442 171.004 377.239 169.817 375.762 169.817Z" fill="black"/>
<path d="M187.852 46.0258C187.69 46.0258 187.527 45.9642 187.403 45.8411L186.164 44.6155C185.913 44.3673 185.911 43.9633 186.16 43.7132C186.409 43.4631 186.813 43.4612 187.064 43.7094L188.304 44.9349C188.554 45.1831 188.556 45.5871 188.307 45.8372C188.182 45.9623 188.018 46.0258 187.852 46.0258Z" fill="black"/>
<path d="M193.786 51.8939C193.624 51.8939 193.46 51.8323 193.337 51.7092L192.097 50.4837C191.847 50.2355 191.845 49.8315 192.094 49.5814C192.342 49.3313 192.747 49.3293 192.998 49.5775L194.237 50.8031C194.488 51.0512 194.49 51.4553 194.241 51.7054C194.116 51.8304 193.952 51.8939 193.786 51.8939Z" fill="black"/>
<path d="M186.613 51.8939C186.449 51.8939 186.283 51.8304 186.158 51.7054C185.909 51.4553 185.911 51.0512 186.162 50.8031L187.401 49.5775C187.652 49.3293 188.057 49.3313 188.305 49.5814C188.554 49.8315 188.552 50.2355 188.302 50.4837L187.062 51.7092C186.937 51.8323 186.775 51.8939 186.613 51.8939Z" fill="black"/>
<path d="M192.546 46.0258C192.383 46.0258 192.217 45.9623 192.092 45.8372C191.843 45.5871 191.845 45.1831 192.095 44.9349L193.335 43.7094C193.586 43.4612 193.99 43.4631 194.239 43.7132C194.488 43.9633 194.486 44.3673 194.235 44.6155L192.996 45.8411C192.87 45.9642 192.708 46.0258 192.546 46.0258Z" fill="black"/>
<path d="M69.5628 199.12C67.4154 199.268 55.4676 200.097 46.5616 190.529C36.528 179.75 35.2345 161.013 41.9121 151.603C46.0065 145.831 49.2681 148.969 62.7118 140.596C74.5439 133.227 77.6861 127.267 83.7564 128.516C88.4753 129.487 91.2666 134.057 94.2777 138.986C96.8531 143.201 103.775 154.531 101.373 168.783C98.5745 185.402 84.433 198.086 69.5628 199.118V199.12Z" fill="black"/>
<path d="M67.3184 199.409C61.7319 199.409 53.2135 197.989 46.403 190.672C41.6339 185.549 38.5631 178.411 37.7554 170.573C36.9843 163.089 38.4358 156.13 41.736 151.48C43.8796 148.459 45.7996 147.832 48.9822 146.793C51.9759 145.816 56.078 144.477 62.5975 140.416C66.902 137.736 70.0711 135.227 72.6176 133.211C77.1245 129.645 79.8425 127.493 83.7982 128.306C88.6077 129.297 91.4511 133.949 94.4583 138.875C97.0664 143.146 103.996 154.489 101.583 168.818C98.8341 185.139 85.0743 198.256 69.5757 199.33C68.8971 199.376 68.1396 199.407 67.3184 199.407V199.409ZM82.1963 128.564C79.1775 128.564 76.6773 130.542 72.8836 133.545C70.3275 135.567 67.1487 138.084 62.8249 140.777C56.2612 144.866 52.132 146.214 49.1171 147.199C46.0194 148.211 44.1476 148.821 42.0869 151.728C38.8445 156.296 37.4219 163.15 38.1833 170.533C38.9814 178.28 42.0136 185.331 46.7191 190.387C54.4086 198.649 64.3227 199.272 69.5506 198.91C84.8565 197.848 98.4486 184.883 101.167 168.753C103.553 154.579 96.6848 143.334 94.0997 139.102C91.1407 134.257 88.3456 129.682 83.7172 128.73C83.1929 128.622 82.6897 128.57 82.202 128.57L82.1963 128.564Z" fill="black"/>
<path d="M49.5032 217.178C49.5032 217.178 47.1784 225.135 81.8787 227.073C116.579 229.01 110.773 219.171 110.773 219.171L74.3414 208.578L49.5012 217.178H49.5032Z" fill="black"/>
<path d="M84.2024 341.946L83.7629 358.287L77.9798 358.911L75.1172 341.324L84.2024 341.946Z" fill="white"/>
<path d="M77.9777 359.549C77.6673 359.549 77.3975 359.326 77.3473 359.014L74.4866 341.428C74.4558 341.235 74.5136 341.039 74.6447 340.895C74.7758 340.751 74.9666 340.676 75.1613 340.689L84.2465 341.31C84.5877 341.334 84.8518 341.622 84.8422 341.965L84.4027 358.308C84.395 358.628 84.1501 358.891 83.8321 358.926L78.049 359.549C78.0259 359.551 78.0027 359.553 77.9796 359.553L77.9777 359.549ZM75.8784 342.015L78.5136 358.212L83.14 357.714L83.5487 342.54L75.8784 342.017V342.015Z" fill="black"/>
<path d="M117.02 347.311L117.941 360.328L110.3 360.953L107.57 347.311H117.02Z" fill="white"/>
<path d="M110.298 361.59C109.995 361.59 109.731 361.376 109.671 361.076L106.944 347.436C106.907 347.249 106.955 347.055 107.077 346.907C107.198 346.758 107.379 346.674 107.57 346.674H117.018C117.353 346.674 117.633 346.934 117.656 347.266L118.579 360.284C118.604 360.632 118.342 360.936 117.993 360.965L110.35 361.588C110.332 361.588 110.315 361.59 110.298 361.59ZM108.351 347.949L110.814 360.27L117.259 359.745L116.422 347.949H108.349H108.351Z" fill="black"/>
<path d="M108.257 366.558C107.727 366.206 107.405 365.614 107.388 364.979C107.338 363.068 107.332 359.001 108.103 357.472C109.127 355.444 113.352 358.27 113.352 358.27C113.352 358.27 115.826 354.849 117.273 354.13C118.023 353.757 122.409 356.671 126.829 360.644C131.673 364.996 133.861 366.385 134.906 370.139C135.395 371.899 134.1 373.671 132.273 373.802C127.823 374.119 118.842 373.588 108.256 366.56L108.257 366.558Z" fill="#008BCE"/>
<path d="M130.317 374.507C125.39 374.507 117.252 373.295 107.904 367.09C107.205 366.624 106.773 365.841 106.75 364.995C106.692 362.773 106.717 358.802 107.534 357.184C107.792 356.674 108.222 356.328 108.779 356.181C110.204 355.808 112.23 356.849 113.192 357.417C113.963 356.401 115.74 354.18 116.989 353.559C118.84 352.639 127.173 360.095 127.258 360.17C128.022 360.855 128.718 361.466 129.356 362.026C132.843 365.087 134.593 366.624 135.524 369.968C135.806 370.978 135.615 372.056 135.002 372.923C134.375 373.808 133.398 374.36 132.32 374.437C131.73 374.48 131.06 374.507 130.317 374.507ZM108.612 366.028C119.052 372.96 127.889 373.475 132.23 373.166C132.924 373.116 133.552 372.76 133.957 372.188C134.348 371.634 134.47 370.949 134.292 370.311C133.463 367.332 131.912 365.97 128.511 362.986C127.871 362.424 127.172 361.809 126.404 361.12C121.845 357.024 118.252 354.837 117.489 354.742C116.403 355.346 114.522 357.751 113.872 358.646C113.672 358.925 113.284 358.994 112.999 358.802C111.999 358.134 110.058 357.166 109.105 357.418C108.901 357.472 108.77 357.578 108.677 357.761C108.18 358.746 107.937 361.439 108.03 364.964C108.041 365.397 108.259 365.795 108.614 366.03L108.612 366.028Z" fill="black"/>
<path d="M128.104 371.021C123.449 371.021 115.975 369.891 108.6 364.018C108.324 363.798 108.278 363.396 108.5 363.121C108.72 362.846 109.122 362.8 109.398 363.021C120.642 371.975 132.392 369.37 132.509 369.343C132.852 369.262 133.197 369.476 133.276 369.818C133.355 370.161 133.143 370.505 132.8 370.584C132.613 370.628 130.849 371.019 128.106 371.019L128.104 371.021Z" fill="black"/>
<path d="M86.4848 362.262L86.3999 353.314C86.3999 353.314 84.6014 350.599 82.1378 352.806C82.1378 352.806 79.8593 349.616 75.6299 353.593C75.6299 353.593 69.6772 364.665 67.044 371.251C66.3385 373.013 67.5992 374.947 69.4999 374.991C72.2314 375.054 75.7649 374.908 77.3032 373.869C79.707 372.247 83.8245 367.13 85.6192 364.825C86.1898 364.092 86.4944 363.19 86.4848 362.262Z" fill="#008BCE"/>
<path d="M70.5912 375.641C70.2345 375.641 69.8663 375.637 69.4866 375.627C68.3743 375.602 67.3835 375.054 66.7705 374.126C66.1594 373.205 66.0418 372.041 66.4524 371.013C69.0702 364.47 75.0094 353.402 75.0692 353.29C75.1019 353.229 75.1443 353.175 75.1945 353.127C76.8716 351.551 78.4889 350.828 80.0079 350.976C81.0315 351.076 81.7679 351.561 82.1997 351.944C82.9283 351.436 83.6782 351.228 84.4416 351.326C85.9664 351.522 86.8975 352.904 86.936 352.961C87.0035 353.063 87.0401 353.185 87.042 353.308L87.1269 362.256C87.1365 363.324 86.7818 364.376 86.1264 365.217C84.0001 367.947 80.0734 372.77 77.6638 374.398C76.4398 375.223 74.0629 375.641 70.5931 375.641H70.5912ZM76.1448 353.985C75.5665 355.068 70.1015 365.326 67.6379 371.485C67.3777 372.133 67.4509 372.839 67.8365 373.422C68.2162 373.996 68.8292 374.334 69.5174 374.352C73.2128 374.436 75.8537 374.078 76.9467 373.34C79.2947 371.754 83.443 366.583 85.1163 364.434C85.5963 363.818 85.8546 363.048 85.8488 362.267L85.7659 353.529C85.5461 353.26 84.9948 352.681 84.2719 352.59C83.7283 352.523 83.1539 352.756 82.5659 353.279C82.431 353.4 82.2498 353.458 82.0686 353.439C81.8874 353.419 81.7235 353.323 81.6195 353.175C81.5963 353.144 80.993 352.346 79.8614 352.244C78.7549 352.144 77.5038 352.731 76.1448 353.985Z" fill="black"/>
<path d="M82.14 352.168C82.4928 352.168 82.78 352.455 82.78 352.807V357.63C82.78 357.982 82.4928 358.269 82.14 358.269C81.7872 358.269 81.5 357.982 81.5 357.63V352.807C81.5 352.455 81.7872 352.168 82.14 352.168Z" fill="black"/>
<path d="M119.339 348.05C119.339 348.05 121.519 315.192 117.942 285.637C114.364 256.082 101.053 213.877 101.053 213.877C101.053 213.877 86.7323 213.228 76.3093 214.627C65.8863 216.026 61.761 214.587 61.761 214.587C61.761 214.587 53.979 223.479 54.6151 240.198C55.2493 256.917 73.4081 327.436 72.7199 343.987C72.7199 343.987 78.8269 347.05 86.7362 345.528L83.4572 250.487C83.4572 250.487 90.2407 270.051 93.4252 283.455C96.0218 294.383 100.525 301.451 100.525 301.451C100.525 301.451 100.334 326.853 106.175 347.935C106.175 347.935 113.074 350.09 119.341 348.052L119.339 348.05Z" fill="black"/>
<path d="M107.891 312.99C107.687 312.99 107.488 312.894 107.363 312.713L102.363 305.45C102.162 305.16 102.237 304.764 102.526 304.563C102.817 304.363 103.215 304.438 103.415 304.727L108.415 311.99C108.616 312.28 108.541 312.677 108.252 312.877C108.142 312.952 108.014 312.988 107.891 312.988V312.99Z" fill="white"/>
<path d="M74.2627 295.331C72.4912 295.331 70.2416 294.987 68.3621 293.596C68.0787 293.386 68.019 292.986 68.2291 292.703C68.4392 292.421 68.8402 292.361 69.1235 292.571C72.2907 294.916 76.9152 293.775 76.9615 293.762C77.3046 293.675 77.6516 293.881 77.7384 294.221C77.8251 294.562 77.6188 294.91 77.2776 294.997C77.1736 295.024 75.9321 295.33 74.2627 295.33V295.331Z" fill="white"/>
<path d="M98.0449 186.865C98.0449 186.865 106.076 204.896 119.172 208.58C132.269 212.263 141.391 201.133 141.331 189.643L136.88 188.169C136.88 188.169 132.311 199.944 122.122 196.881C111.932 193.816 107.203 169.865 107.203 169.865L98.0449 186.865Z" fill="white"/>
<path d="M124.205 209.944C122.612 209.944 120.877 209.721 119 209.193C105.766 205.473 97.7934 187.871 97.4619 187.124C97.3809 186.943 97.3886 186.738 97.4831 186.562L106.642 169.563C106.769 169.326 107.033 169.193 107.299 169.234C107.567 169.274 107.779 169.476 107.831 169.742C107.877 169.978 112.602 193.352 122.306 196.271C131.821 199.131 136.106 188.398 136.284 187.94C136.407 187.623 136.758 187.457 137.082 187.565L141.533 189.039C141.793 189.125 141.968 189.368 141.97 189.641C142.005 196.371 138.977 202.87 134.067 206.598C131.871 208.266 128.575 209.946 124.203 209.946L124.205 209.944ZM98.7592 186.886C99.8426 189.169 107.575 204.655 119.345 207.964C125.866 209.798 130.529 207.679 133.292 205.58C137.778 202.173 140.586 196.274 140.688 190.101L137.228 188.956C136.12 191.324 131.241 200.288 121.936 197.49C113.003 194.805 108.253 177.301 106.946 171.687L98.7573 186.886H98.7592Z" fill="black"/>
<path d="M49.5 169.464C49.5 169.464 57.5539 158.975 80.3044 160.933C107.471 163.273 109.544 168.631 109.544 168.631L102.452 182.972L110.773 219.168C110.773 219.168 105.087 223.868 91.7664 221.229C78.4461 218.589 55.5548 215.351 49.5019 217.175L57.9394 182.635L49.498 169.462L49.5 169.464Z" fill="#008BCE"/>
<path d="M136.874 203.378H101.871L124.828 161.896H159.831L136.874 203.378Z" fill="black"/>
<path d="M136.998 203.59H101.51L124.702 161.686H160.19L136.998 203.59ZM102.233 203.165H136.748L159.47 162.111H124.954L102.233 203.165Z" fill="black"/>
<path d="M137.677 202.071C137.677 202.071 137.02 198.632 137.677 196.336C138.334 194.041 142.413 187.215 143.578 185.787C144.744 184.36 145.731 199.609 137.677 202.071Z" fill="white"/>
<path d="M137.676 202.71C137.561 202.71 137.447 202.679 137.347 202.618C137.191 202.523 137.083 202.369 137.048 202.19C137.021 202.044 136.369 198.574 137.061 196.161C137.728 193.833 141.838 186.907 143.082 185.385C143.369 185.033 143.745 185.01 144.001 185.104C144.917 185.445 145.042 187.771 144.986 189.66C144.828 194.951 142.873 201.15 137.863 202.679C137.802 202.698 137.74 202.708 137.676 202.708V202.71ZM143.569 186.876C142.035 189.104 138.839 194.599 138.291 196.511C137.86 198.016 138.043 200.101 138.189 201.202C140.13 200.353 141.607 198.554 142.586 195.843C143.878 192.267 143.828 188.456 143.571 186.874L143.569 186.876Z" fill="black"/>
<path d="M64.4294 193.16L91.3804 180.197L105.383 182.671C105.383 182.671 104.402 184.126 102.413 183.787C100.423 183.447 97.7765 184.014 96.1091 185.846C94.4416 187.675 91.633 186.511 91.633 186.511C91.633 186.511 76.3888 206.058 62.7022 208.581C51.5737 210.63 50.3496 170.793 50.3496 170.793L63.7355 182.64L64.4294 193.162V193.16Z" fill="white"/>
<path d="M61.8788 209.293C60.7164 209.293 59.6176 208.88 58.5978 208.058C50.7483 201.738 49.7478 172.069 49.7093 170.809C49.7016 170.555 49.8461 170.32 50.0775 170.213C50.3088 170.105 50.5825 170.143 50.7734 170.313L64.1592 182.16C64.2845 182.272 64.3616 182.428 64.3732 182.595L65.0055 192.174L91.1025 179.621C91.2239 179.563 91.3608 179.544 91.4919 179.567L105.495 182.041C105.709 182.079 105.888 182.222 105.971 182.42C106.056 182.618 106.034 182.847 105.913 183.026C105.865 183.099 104.675 184.819 102.304 184.415C100.567 184.119 98.1251 184.579 96.581 186.274C95.0581 187.947 92.8181 187.541 91.8524 187.259C89.6413 190.019 75.7215 206.829 62.8156 209.207C62.4995 209.264 62.1872 209.293 61.8788 209.293ZM51.0529 172.267C51.3652 178.449 52.9632 201.884 59.3998 207.067C60.4002 207.873 61.445 208.162 62.5843 207.952C75.8738 205.505 90.9772 186.312 91.1276 186.12C91.3049 185.893 91.6114 185.812 91.8774 185.921C91.9006 185.931 94.2967 186.885 95.6364 185.415C97.5063 183.363 100.442 182.803 102.52 183.157C103.056 183.249 103.498 183.178 103.848 183.047L91.4726 180.862L64.7086 193.736C64.5158 193.829 64.2922 193.819 64.1091 193.713C63.926 193.607 63.8065 193.415 63.793 193.203L63.1163 182.943L51.0548 172.267H51.0529Z" fill="black"/>
<path d="M94.7519 149.264C95.0546 148.787 93.6204 146.199 93.5703 145.258C93.5201 144.315 94.2584 143.527 94.5669 142.538C94.8772 141.549 94.5302 139.786 94.5302 139.786C94.11 127.985 81.2273 130.786 81.2273 130.786C78.2683 131.679 76.5276 134.996 75.957 137.201C74.8543 141.47 76.8861 146.634 76.8861 146.634C76.7994 146.828 74.6866 160.647 74.5941 160.826C73.2563 163.393 82.2258 165.072 85.048 162.489C86.0022 161.615 84.7819 155.195 85.048 155.187C86.1043 155.159 87.3997 156.292 88.7318 155.938C90.6941 155.418 92.1727 150.512 92.4541 150.149C92.5871 149.976 93.044 149.875 93.5201 149.766C94.0464 149.647 94.5939 149.516 94.7519 149.266V149.264Z" fill="white"/>
<path d="M80.5076 164.422C78.2291 164.422 75.9081 163.829 74.7438 162.939C73.8744 162.273 73.6026 161.426 73.992 160.603C74.1019 160.064 74.6937 156.297 75.1737 153.252C75.8946 148.665 76.1298 147.199 76.2262 146.685C75.8676 145.706 74.3024 141.056 75.3395 137.039C75.8754 134.967 77.6797 131.188 81.0435 130.172C81.0589 130.167 81.0763 130.163 81.0917 130.159C81.3538 130.101 87.5706 128.797 91.6997 131.998C93.8684 133.68 95.0366 136.275 95.1696 139.711C95.2351 140.063 95.5069 141.677 95.1792 142.724C95.0443 143.153 94.8515 143.526 94.6665 143.888C94.4101 144.382 94.1903 144.809 94.2115 145.221C94.2289 145.539 94.5392 146.316 94.7879 146.939C95.3604 148.374 95.6226 149.086 95.2949 149.602C94.9903 150.081 94.3175 150.235 93.666 150.383C93.4115 150.441 93.0896 150.514 92.947 150.574C92.9026 150.677 92.8005 150.935 92.706 151.168C92.0217 152.878 90.7475 156.059 88.9007 156.549C87.9196 156.809 86.9923 156.445 86.2463 156.151C86.0555 156.076 85.8685 156.003 85.6911 155.943C85.7162 156.214 85.7509 156.534 85.7837 156.836C86.1711 160.437 86.2251 162.273 85.4849 162.95C84.3514 163.989 82.4468 164.416 80.5114 164.416L80.5076 164.422ZM77.5004 146.812C77.4233 147.164 76.899 150.502 76.4344 153.45C75.2585 160.934 75.2431 160.961 75.1621 161.119C75.0966 161.242 74.9636 161.499 75.5207 161.927C77.2614 163.258 82.6955 163.775 84.6155 162.015C84.9933 161.496 84.6406 158.213 84.5075 156.976C84.3283 155.314 84.3013 155.058 84.5538 154.772C84.6714 154.637 84.8526 154.552 85.0319 154.546C85.6044 154.531 86.1654 154.752 86.7109 154.968C87.3702 155.227 87.9928 155.472 88.5692 155.32C89.7952 154.995 91.0443 151.874 91.5166 150.699C91.7576 150.096 91.8385 149.9 91.9484 149.758C92.2183 149.408 92.7118 149.294 93.3383 149.152C93.5657 149.1 93.9378 149.015 94.1383 148.934C94.0689 148.592 93.7913 147.897 93.5966 147.414C93.2689 146.593 92.9585 145.82 92.9315 145.29C92.8911 144.534 93.2149 143.909 93.5272 143.303C93.6968 142.976 93.8549 142.668 93.9571 142.345C94.171 141.664 93.9898 140.354 93.9031 139.907C93.8973 139.875 93.8935 139.842 93.8915 139.807C93.7816 136.744 92.7812 134.459 90.9171 133.012C87.3817 130.267 81.7895 131.321 81.3847 131.404C78.5799 132.267 77.0416 135.55 76.5751 137.358C75.5361 141.381 77.4618 146.349 77.4811 146.399C77.5332 146.531 77.539 146.676 77.5004 146.812Z" fill="black"/>
<path d="M97.9913 131.239C96.6978 129.931 95.3792 131.239 90.2343 130.516C85.9529 129.915 84.7172 128.711 81.4787 129.244C80.5688 129.394 78.9419 129.662 77.3342 130.835C74.9554 132.572 74.0706 135.012 73.6002 136.832C72.6827 140.384 73.8316 144.524 74.3501 146.09C74.4773 146.475 74.8532 146.719 75.26 146.686C76.3414 146.596 77.2956 146.453 78.1477 146.271C78.5525 146.184 78.7819 145.759 78.6277 145.376C78.5852 145.27 78.5486 145.163 78.5158 145.051C78.0879 143.552 78.8069 142.036 80.1197 141.663C81.4324 141.29 82.8454 142.202 83.2714 143.698C83.3004 143.802 83.3235 143.906 83.3428 144.01C85.2319 142.583 86.2035 140.965 87.9519 140.095C88.162 139.991 89.0815 139.572 90.481 139.524C93.519 139.416 94.5291 141.213 95.9653 140.864C98.4751 140.257 100.32 133.592 97.9932 131.239H97.9913Z" fill="black"/>
<path d="M85.3576 155.82C85.294 155.82 85.2284 155.811 85.1648 155.792C80.4246 154.302 79.6921 151.153 79.6632 151.018C79.588 150.674 79.8078 150.335 80.1528 150.26C80.4959 150.187 80.8352 150.403 80.9123 150.745C80.9393 150.863 81.5697 153.325 85.5503 154.576C85.8877 154.681 86.0747 155.039 85.9686 155.376C85.8838 155.649 85.6313 155.822 85.3595 155.822L85.3576 155.82Z" fill="black"/>
<path d="M202.439 111.485C194.119 146.45 215.775 181.529 250.809 189.833C285.843 198.136 320.99 176.523 329.31 141.558C337.63 106.593 315.974 71.5138 280.94 63.2102C245.907 54.9065 210.759 76.5198 202.439 111.485ZM320.125 138.991C313.021 168.845 283.013 187.299 253.099 180.209C223.187 173.12 204.697 143.17 211.8 113.315C218.904 83.4613 248.912 65.0071 278.826 72.0967C308.738 79.1863 327.228 109.136 320.125 138.991Z" fill="black"/>
<path d="M265.878 191.816C260.887 191.816 255.825 191.243 250.761 190.042C215.667 181.723 193.898 146.462 202.233 111.439C210.569 76.414 245.899 54.6872 280.991 63.0062C316.084 71.3252 337.854 106.587 329.518 141.61C322.386 171.58 295.481 191.816 265.878 191.816ZM202.44 111.485L202.646 111.535C194.366 146.331 215.993 181.364 250.857 189.627C285.723 197.89 320.823 176.306 329.102 141.51C337.382 106.714 315.755 71.6811 280.891 63.4179C246.025 55.1528 210.925 76.7391 202.644 111.535L202.438 111.485H202.44ZM265.965 181.931C261.701 181.931 257.375 181.44 253.051 180.415C223.072 173.308 204.475 143.185 211.594 113.265C215.043 98.7698 223.941 86.4837 236.648 78.6707C249.356 70.8558 264.353 68.4489 278.874 71.8908C308.854 78.9978 327.45 109.121 320.331 139.041C314.238 164.645 291.252 181.933 265.965 181.933V181.931ZM265.86 70.7846C255.711 70.7846 245.732 73.5839 236.874 79.0324C224.263 86.7877 215.432 98.9796 212.011 113.363C204.946 143.055 223.399 172.948 253.151 180.001C282.901 187.054 312.854 168.635 319.921 138.941C326.985 109.249 308.532 79.3556 278.78 72.3025C274.491 71.2867 270.161 70.7826 265.862 70.7826L265.86 70.7846Z" fill="black"/>
<path d="M360.221 300.821L354.31 303.916C351.825 305.217 348.757 304.263 347.452 301.785L285.611 184.21L301.147 176.072L362.655 293.017C364.141 295.844 363.05 299.338 360.219 300.821H360.221Z" fill="black"/>
<path d="M353.271 303.625C352.431 303.625 351.587 303.498 350.76 303.241C348.614 302.573 346.858 301.113 345.813 299.127L285.324 184.12L301.237 175.783L361.192 289.775C363.642 294.433 361.838 300.212 357.171 302.658C355.947 303.298 354.615 303.624 353.271 303.624V303.625ZM285.901 184.3L346.193 298.931C347.184 300.817 348.851 302.202 350.889 302.837C352.924 303.47 355.087 303.273 356.976 302.284C361.435 299.949 363.158 294.425 360.818 289.975L301.06 176.36L285.903 184.302L285.901 184.3Z" fill="black"/>
</g>
</g>
<defs>
<clipPath id="clip0_2422_11133">
<rect width="427" height="425" fill="white"/>
</clipPath>
<clipPath id="clip1_2422_11133">
<rect width="353" height="353" fill="white" transform="translate(37 24)"/>
</clipPath>
</defs>
</svg>
