<svg width="427" height="425" viewBox="0 0 427 425" fill="none" xmlns="http://www.w3.org/2000/svg">
<g clip-path="url(#clip0_2435_11715)">
<path d="M400.041 382.57C388.531 392.16 338.441 398.94 278.761 401.49C187.021 405.42 72.6009 399.37 40.7909 378.2C25.7309 368.19 15.5509 337.25 9.1009 297.66C-6.9291 199.16 0.220901 47.1301 13.1609 30.6501C31.3109 7.56009 323.301 -15.3099 399.911 13.9301C432.741 26.4601 429.231 358.23 400.031 382.57H400.041Z" fill="white"/>
<path d="M373.314 247.44L375.204 241.883L377.358 247.44C377.358 247.44 381.657 248.14 381.712 248.531C381.757 248.913 377.595 250.095 377.595 250.095C377.595 250.095 375.85 255.488 375.204 254.27C374.568 253.051 373.95 250.35 373.95 250.35C373.95 250.35 368.533 249.268 368.533 248.731C368.533 248.158 373.314 247.449 373.314 247.449V247.44Z" fill="white"/>
<path d="M304.094 233.142L305.566 228.822L307.238 233.142C307.238 233.142 310.574 233.688 310.619 233.988C310.656 234.279 307.429 235.198 307.429 235.198C307.429 235.198 306.075 239.381 305.575 238.435C305.075 237.49 304.594 235.389 304.594 235.389C304.594 235.389 300.395 234.543 300.395 234.134C300.395 233.688 304.103 233.142 304.103 233.142H304.094Z" fill="white"/>
<path d="M319.112 212.605L315.152 198.144L298.793 198.887C297.277 195.702 295.521 192.684 293.537 189.859L302.198 175.985L291.539 165.442L277.74 174.268C274.867 172.297 271.836 170.57 268.677 169.1L269.242 152.731L254.74 148.93L247.214 163.452C243.773 163.182 240.281 163.21 236.769 163.527L229.075 149.072L214.615 153.032L215.358 169.392C212.175 170.907 209.154 172.664 206.332 174.648L192.458 165.987L181.914 176.647L190.74 190.446C188.77 193.32 187.041 196.35 185.573 199.509L169.204 198.945L165.402 213.449L179.922 220.975C179.653 224.417 179.68 227.909 179.998 231.421L165.543 239.116L169.503 253.576L185.862 252.834C187.378 256.018 189.134 259.037 191.118 261.861L182.457 275.736L193.116 286.279L206.915 277.453C209.787 279.424 212.819 281.151 215.978 282.62L215.413 298.99L229.915 302.791L237.441 288.269C240.882 288.538 244.374 288.511 247.886 288.194L255.58 302.648L270.04 298.689L269.297 282.331C272.482 280.814 275.501 279.059 278.325 277.075L292.199 285.736L302.743 275.076L293.917 261.277C295.887 258.403 297.616 255.373 299.084 252.214L315.453 252.778L319.255 238.274L304.735 230.748C305.004 227.307 304.977 223.813 304.66 220.302L319.114 212.607L319.112 212.605ZM252.52 263.085C231.961 268.714 210.73 256.611 205.101 236.052C199.472 215.491 211.574 194.26 232.133 188.631C252.692 183.002 273.923 195.106 279.552 215.665C285.181 236.224 273.079 257.456 252.52 263.085Z" fill="#C8C8C8"/>
<path d="M150.03 221.524L147.919 213.817L139.201 214.213C138.392 212.516 137.457 210.908 136.398 209.403L141.014 202.009L135.334 196.39L127.979 201.094C126.447 200.044 124.831 199.123 123.149 198.341L123.45 189.616L115.72 187.59L111.709 195.328C109.876 195.184 108.014 195.199 106.141 195.368L102.041 187.663L94.3329 189.774L94.7293 198.493C93.0327 199.301 91.4234 200.236 89.9191 201.296L82.5243 196.679L76.9054 202.359L81.6087 209.713C80.5582 211.245 79.6366 212.861 78.8537 214.544L70.1291 214.243L68.1035 221.974L75.8431 225.984C75.6984 227.818 75.7143 229.68 75.8827 231.552L68.1788 235.652L70.2896 243.358L79.0083 242.962C79.817 244.66 80.7524 246.268 81.8108 247.773L77.1948 255.167L82.8751 260.786L90.2282 256.082C91.7583 257.132 93.3756 258.053 95.0583 258.835L94.7571 267.56L102.487 269.586L106.498 261.848C108.332 261.992 110.193 261.976 112.066 261.808L116.166 269.513L123.874 267.401L123.478 258.683C125.174 257.875 126.784 256.94 128.288 255.88L135.683 260.497L141.302 254.816L136.598 247.462C137.649 245.931 138.57 244.315 139.351 242.632L148.076 242.933L150.102 235.202L142.362 231.191C142.505 229.357 142.491 227.496 142.322 225.624L150.026 221.524H150.03ZM114.539 248.429C103.581 251.43 92.2677 244.979 89.267 234.022C86.2663 223.065 92.7176 211.75 103.674 208.749C114.63 205.748 125.945 212.199 128.946 223.156C131.947 234.113 125.495 245.428 114.539 248.429Z" fill="#A0D2F4"/>
<path d="M334.039 335.127H192.118C187.829 335.127 185.364 331.651 186.614 327.365L213.942 233.62C215.19 229.333 219.682 225.857 223.973 225.857H365.893C370.182 225.857 372.648 229.333 371.397 233.62L344.07 327.365C342.821 331.651 338.33 335.127 334.039 335.127Z" fill="white"/>
<path d="M334.04 335.782H192.119C189.891 335.782 188.02 334.92 186.847 333.358C185.61 331.71 185.305 329.517 185.985 327.18L213.312 233.435C214.636 228.895 219.419 225.199 223.971 225.199H365.892C368.12 225.199 369.993 226.061 371.166 227.624C372.403 229.269 372.708 231.464 372.029 233.801L344.701 327.546C343.377 332.086 338.597 335.782 334.042 335.782H334.04ZM223.971 226.512C219.96 226.512 215.742 229.782 214.571 233.803L187.244 327.548C186.681 329.479 186.913 331.264 187.896 332.571C188.815 333.797 190.316 334.471 192.119 334.471H334.04C338.052 334.471 342.269 331.201 343.441 327.18L370.768 233.435C371.331 231.504 371.099 229.721 370.118 228.412C369.198 227.186 367.698 226.512 365.894 226.512H223.973H223.971Z" fill="black"/>
<path d="M192.12 329.462C192.06 329.462 192.007 329.46 191.961 329.456C191.969 329.333 191.995 329.163 192.056 328.949L219.383 235.203C219.925 233.346 222.198 231.521 223.97 231.521H365.891C365.95 231.521 366.004 231.523 366.049 231.527C366.041 231.65 366.016 231.821 365.954 232.034L338.627 325.78C338.086 327.638 335.812 329.462 334.038 329.462H192.118H192.12Z" fill="white"/>
<path d="M256.284 211.697H207.825C204.943 211.697 201.925 214.032 201.084 216.912L192.183 247.45C191.343 250.329 193 252.665 195.882 252.665H244.341C247.223 252.665 250.241 250.329 251.082 247.45L259.983 216.912C260.823 214.032 259.166 211.697 256.284 211.697Z" fill="white"/>
<path d="M220.097 248.615H192.544C190.978 248.615 189.658 248.004 188.827 246.899C187.967 245.754 187.743 244.172 188.215 242.56L189.24 239.042C189.341 238.696 189.705 238.496 190.052 238.597C190.401 238.698 190.599 239.062 190.498 239.409L189.473 242.926C189.115 244.156 189.257 245.289 189.876 246.113C190.453 246.881 191.4 247.303 192.542 247.303H220.095C220.458 247.303 220.751 247.596 220.751 247.959C220.751 248.321 220.458 248.615 220.095 248.615H220.097Z" fill="black"/>
<path d="M194.393 224.368C194.331 224.368 194.27 224.361 194.208 224.343C193.862 224.242 193.661 223.877 193.763 223.531L194.504 220.986C194.605 220.639 194.97 220.439 195.316 220.54C195.665 220.641 195.863 221.005 195.762 221.352L195.021 223.897C194.938 224.184 194.676 224.37 194.391 224.37L194.393 224.368Z" fill="black"/>
<path d="M254.413 220.515C254.351 220.515 254.29 220.507 254.228 220.49C253.881 220.389 253.681 220.024 253.782 219.677L256.014 212.024C256.373 210.794 256.23 209.661 255.612 208.837C255.035 208.069 254.088 207.647 252.946 207.647H204.487C201.881 207.647 199.139 209.774 198.376 212.391L196.787 217.845C196.686 218.192 196.321 218.392 195.974 218.291C195.625 218.19 195.427 217.826 195.528 217.479L197.118 212.024C198.032 208.887 201.337 206.336 204.487 206.336H252.946C254.512 206.336 255.832 206.944 256.662 208.051C257.534 209.214 257.752 210.755 257.275 212.391L255.043 220.044C254.96 220.331 254.698 220.517 254.413 220.517V220.515Z" fill="black"/>
<path d="M250.821 232.837C250.759 232.837 250.698 232.829 250.636 232.812C250.289 232.711 250.089 232.346 250.19 232L252.285 224.81C252.386 224.461 252.751 224.263 253.098 224.364C253.445 224.465 253.645 224.83 253.544 225.176L251.449 232.366C251.366 232.653 251.104 232.839 250.819 232.839L250.821 232.837Z" fill="black"/>
<path d="M244.247 270.423L236.236 269.26L232.653 262.005C231.882 260.446 229.656 260.446 228.887 262.005L225.303 269.26L217.292 270.423C215.57 270.672 214.882 272.788 216.129 274.002L221.926 279.648L220.557 287.622C220.263 289.336 222.063 290.643 223.603 289.835L230.768 286.07L237.933 289.835C239.473 290.645 241.274 289.338 240.979 287.622L239.611 279.648L245.409 274.002C246.655 272.788 245.967 270.672 244.245 270.423H244.247Z" fill="#242424"/>
<path d="M281.235 270.423L273.224 269.26L269.641 262.005C268.87 260.446 266.644 260.446 265.875 262.005L262.292 269.26L254.281 270.423C252.558 270.672 251.87 272.788 253.117 274.002L258.914 279.648L257.547 287.622C257.254 289.336 259.053 290.643 260.593 289.835L267.758 286.07L274.923 289.835C276.463 290.645 278.264 289.338 277.969 287.622L276.602 279.648L282.399 274.002C283.645 272.788 282.958 270.672 281.235 270.423Z" fill="#242424"/>
<path d="M318.222 270.423L310.211 269.26L306.627 262.005C305.856 260.446 303.63 260.446 302.861 262.005L299.278 269.26L291.267 270.423C289.545 270.672 288.857 272.788 290.103 274.002L295.901 279.648L294.533 287.622C294.24 289.336 296.039 290.643 297.579 289.835L304.744 286.07L311.909 289.835C313.449 290.645 315.251 289.338 314.955 287.622L313.586 279.648L319.383 274.002C320.63 272.788 319.942 270.672 318.22 270.423H318.222Z" fill="#242424"/>
<path d="M355.212 270.423L347.201 269.26L343.617 262.005C342.846 260.446 340.621 260.446 339.852 262.005L336.268 269.26L328.257 270.423C326.535 270.672 325.847 272.788 327.094 274.002L332.891 279.648L331.523 287.622C331.23 289.336 333.03 290.643 334.57 289.835L341.735 286.07L348.899 289.835C350.439 290.645 352.241 289.338 351.946 287.622L350.578 279.648L356.375 274.002C357.622 272.788 356.934 270.672 355.212 270.423Z" fill="#242424"/>
<path d="M392.198 270.423L384.187 269.26L380.604 262.005C379.833 260.446 377.607 260.446 376.838 262.005L373.255 269.26L365.243 270.423C363.521 270.672 362.833 272.788 364.08 274.002L369.877 279.648L368.508 287.622C368.214 289.336 370.014 290.643 371.554 289.835L378.719 286.07L385.884 289.835C387.424 290.645 389.225 289.338 388.93 287.622L387.56 279.648L393.358 274.002C394.604 272.788 393.917 270.672 392.194 270.423H392.198Z" fill="#A0D2F4"/>
<path d="M357.872 176.72L340.403 182.361L325.849 171.178C322.72 168.774 318.191 171 318.185 174.944L318.157 193.288L303.019 203.665C299.764 205.895 300.482 210.888 304.234 212.112L321.685 217.808L326.882 235.404C328 239.187 332.972 240.047 335.297 236.86L346.111 222.035L364.462 222.534C368.408 222.641 370.762 218.181 368.448 214.986L357.68 200.127L363.824 182.84C365.144 179.125 361.628 175.508 357.872 176.72Z" fill="#242424"/>
<path d="M334.628 236.612C334.317 236.612 334.002 236.586 333.689 236.531C331.641 236.176 330.004 234.721 329.418 232.73L324.318 215.465L307.196 209.876C305.222 209.232 303.811 207.554 303.515 205.498C303.22 203.445 304.1 201.438 305.814 200.264L320.669 190.083L320.697 172.083C320.701 170.008 321.86 168.15 323.725 167.233C325.589 166.318 327.771 166.533 329.418 167.799L343.698 178.772L360.838 173.236C362.814 172.598 364.943 173.125 366.389 174.614C367.836 176.104 368.304 178.243 367.608 180.2L361.579 197.162L372.143 211.741C373.362 213.423 373.517 215.608 372.545 217.444C371.576 219.28 369.699 220.383 367.606 220.329L349.6 219.84L338.989 234.386C337.954 235.806 336.339 236.612 334.626 236.612H334.628ZM326.13 167.973C325.515 167.973 324.893 168.116 324.3 168.407C322.865 169.112 322.007 170.485 322.005 172.083L321.977 190.428C321.977 190.644 321.87 190.846 321.692 190.967L306.554 201.343C305.236 202.246 304.584 203.73 304.812 205.31C305.039 206.891 306.082 208.131 307.6 208.628L325.051 214.324C325.258 214.391 325.416 214.554 325.478 214.762L330.674 232.358C331.126 233.889 332.337 234.966 333.913 235.24C335.488 235.513 336.989 234.905 337.93 233.614L348.744 218.788C348.871 218.614 349.081 218.517 349.291 218.519L367.642 219.018C369.239 219.062 370.639 218.244 371.384 216.832C372.129 215.419 372.016 213.803 371.079 212.51L360.311 197.651C360.184 197.477 360.152 197.251 360.223 197.047L366.368 179.76C366.903 178.255 366.556 176.672 365.444 175.528C364.33 174.383 362.756 173.993 361.236 174.482L343.769 180.123C343.565 180.19 343.339 180.15 343.169 180.018L328.615 168.835C327.87 168.263 327.008 167.971 326.13 167.971V167.973Z" fill="black"/>
<path d="M384.746 265.818C384.663 265.818 384.576 265.802 384.492 265.767C384.159 265.626 384.001 265.244 384.14 264.909C384.82 263.287 385.446 261.653 386.007 260.053C386.126 259.71 386.502 259.53 386.841 259.651C387.184 259.769 387.364 260.144 387.243 260.486C386.675 262.112 386.038 263.772 385.349 265.418C385.244 265.67 385 265.82 384.742 265.82L384.746 265.818ZM388.189 255.921C388.131 255.921 388.072 255.913 388.014 255.897C387.666 255.802 387.459 255.44 387.557 255.091C388.02 253.402 388.423 251.7 388.746 250.037C388.815 249.68 389.162 249.45 389.515 249.518C389.87 249.587 390.101 249.932 390.034 250.286C389.703 251.983 389.295 253.717 388.821 255.438C388.742 255.729 388.476 255.919 388.189 255.919V255.921ZM390.179 245.636C390.155 245.636 390.131 245.636 390.107 245.632C389.747 245.592 389.487 245.269 389.527 244.909C389.715 243.174 389.824 241.433 389.85 239.737C389.856 239.379 390.147 239.092 390.506 239.092C390.51 239.092 390.512 239.092 390.516 239.092C390.878 239.098 391.168 239.395 391.162 239.757C391.134 241.492 391.023 243.273 390.831 245.049C390.795 245.386 390.51 245.634 390.179 245.634V245.636ZM390.325 235.168C389.988 235.168 389.701 234.91 389.673 234.568C389.527 232.843 389.287 231.122 388.964 229.448C388.894 229.093 389.128 228.749 389.483 228.679C389.84 228.61 390.183 228.844 390.252 229.198C390.585 230.916 390.829 232.684 390.979 234.455C391.011 234.815 390.742 235.132 390.381 235.164C390.363 235.164 390.343 235.166 390.325 235.166V235.168ZM388.334 224.898C388.054 224.898 387.794 224.718 387.707 224.437C387.2 222.801 386.595 221.171 385.908 219.592C385.763 219.259 385.916 218.873 386.247 218.731C386.581 218.586 386.966 218.739 387.109 219.069C387.814 220.692 388.437 222.367 388.958 224.049C389.065 224.395 388.871 224.762 388.526 224.869C388.46 224.888 388.395 224.898 388.332 224.898H388.334ZM384.16 215.302C383.932 215.302 383.71 215.183 383.589 214.971C382.742 213.488 381.801 212.024 380.792 210.616C380.58 210.321 380.649 209.913 380.943 209.701C381.236 209.491 381.646 209.558 381.858 209.852C382.895 211.295 383.86 212.799 384.728 214.322C384.909 214.637 384.798 215.037 384.485 215.215C384.381 215.274 384.27 215.302 384.16 215.302ZM378.059 206.785C377.877 206.785 377.696 206.71 377.565 206.564C376.43 205.274 375.217 204.023 373.956 202.84C373.693 202.592 373.679 202.179 373.927 201.913C374.174 201.65 374.589 201.636 374.854 201.883C376.144 203.094 377.389 204.377 378.551 205.696C378.79 205.967 378.763 206.381 378.491 206.621C378.366 206.73 378.212 206.784 378.059 206.784V206.785ZM370.405 199.614C370.266 199.614 370.125 199.57 370.004 199.477C367.497 197.55 365.753 196.587 365.735 196.577C365.418 196.403 365.301 196.005 365.475 195.688C365.65 195.371 366.048 195.254 366.365 195.429C366.441 195.468 368.209 196.443 370.805 198.439C371.092 198.661 371.146 199.071 370.924 199.358C370.795 199.526 370.601 199.614 370.405 199.614Z" fill="#A0D2F4"/>
<path d="M173.377 191.016C173.698 187.213 173.833 179.138 169.324 170.91C164.466 162.049 153.194 151.145 139.081 153.059C130.653 154.202 120.201 160.048 117.378 170.968C114.661 181.489 120.712 190.198 121.687 191.552C116.363 191.768 114.556 193.596 113.854 194.698C110.659 199.709 117.029 210.554 124.91 215.659C136.187 222.965 153.85 220.638 164.24 210.255C171.21 203.288 172.889 194.707 173.381 191.016H173.377Z" fill="black"/>
<path d="M115.246 187.165C115.424 183.933 115.662 172.425 107.554 164.44C105.554 162.469 99.3921 156.4 93.1588 158.438C89.2563 159.714 87.2961 163.524 86.6183 165.042C85.8513 163.964 83.8277 161.449 80.6863 160.987C75.5966 160.241 71.1946 165.41 69.6308 169.484C67.1118 176.056 69.6546 185.85 75.8661 187.33C81.372 188.641 86.6262 182.671 86.8978 182.352C86.8026 182.796 85.7799 187.882 88.9035 190.728C92.1797 193.715 97.4854 191.933 98.5399 191.578C102.742 190.166 103.245 187.585 107.042 186.48C110.218 185.555 113.246 186.375 115.24 187.163L115.246 187.165Z" fill="black"/>
<path d="M172.103 177.65C172.103 177.65 165.297 181.95 164.022 195.547C163.172 204.619 150.012 200.275 150.012 200.275C150.012 200.275 142.764 196.68 143.261 204.446C143.759 212.212 152.765 208.447 152.765 208.447L130.008 249.165L156.913 263.558L166.07 221.286C168.591 222.203 170.771 222.577 172.551 222.666C175.803 222.829 178.731 220.781 179.793 217.703C186.775 197.486 172.103 177.65 172.103 177.65Z" fill="white"/>
<path d="M156.914 264.214C156.807 264.214 156.7 264.189 156.604 264.137L129.699 249.744C129.545 249.661 129.43 249.518 129.38 249.35C129.331 249.181 129.35 248.999 129.438 248.847L151.38 209.588C149.676 210.034 146.99 210.414 145.012 209.188C143.559 208.287 142.751 206.707 142.608 204.488C142.449 201.999 143.036 200.291 144.352 199.416C146.52 197.974 149.804 199.45 150.256 199.664C150.829 199.844 157.564 201.888 161.159 199.537C162.473 198.677 163.197 197.352 163.371 195.486C164.661 181.727 171.465 177.28 171.755 177.096C172.046 176.912 172.429 176.983 172.633 177.261C172.781 177.463 187.428 197.61 180.416 217.917C179.256 221.272 176.01 223.494 172.522 223.32C170.609 223.225 168.605 222.831 166.556 222.148L157.556 263.697C157.512 263.897 157.377 264.068 157.189 264.153C157.102 264.192 157.007 264.214 156.914 264.214ZM130.908 248.904L156.458 262.572L165.432 221.147C165.472 220.963 165.591 220.803 165.757 220.712C165.924 220.621 166.12 220.605 166.298 220.67C168.469 221.46 170.585 221.912 172.589 222.013C175.501 222.156 178.208 220.298 179.177 217.491C185.327 199.681 174.2 181.901 171.961 178.59C170.407 179.893 165.704 184.69 164.681 195.611C164.469 197.869 163.528 199.561 161.88 200.638C157.613 203.427 150.129 201.004 149.812 200.899C149.783 200.89 149.755 200.878 149.727 200.864C148.899 200.456 146.453 199.598 145.081 200.511C144.183 201.109 143.795 202.421 143.922 204.407C144.035 206.176 144.635 207.412 145.706 208.075C148.189 209.618 152.476 207.863 152.52 207.845C152.777 207.739 153.077 207.806 153.261 208.014C153.447 208.222 153.481 208.525 153.344 208.77L130.912 248.906L130.908 248.904Z" fill="black"/>
<path d="M271.149 306.055C271.149 306.055 268.988 289.897 276.767 284.282C282.662 280.028 291.236 277.381 294.564 276.395C295.529 276.11 297.326 276.314 297.743 277.231C297.743 277.231 298.49 278.974 295.996 280.148L288.802 283.149C288.126 283.466 288.025 284.383 288.616 284.838C290.429 286.241 293.725 290.135 294.254 292.256C295.14 295.797 293.247 298.941 289.866 301.836C286.485 304.732 285.601 305.283 285.44 306.053C285.28 306.823 279.669 313.377 279.669 313.377L271.149 306.053V306.055Z" fill="white"/>
<path d="M279.669 314.034C279.512 314.034 279.359 313.978 279.24 313.875L270.72 306.551C270.599 306.446 270.52 306.299 270.498 306.141C270.407 305.466 268.377 289.527 276.382 283.75C280.517 280.765 286.572 278.079 294.377 275.766C295.608 275.402 297.762 275.685 298.339 276.96C298.69 277.776 298.699 279.599 296.275 280.741L289.053 283.756C288.922 283.817 288.891 283.958 288.885 284.015C288.879 284.073 288.879 284.217 289.016 284.322C290.932 285.804 294.317 289.811 294.89 292.098C295.764 295.588 294.26 298.937 290.294 302.336C289.507 303.01 288.855 303.558 288.314 304.01C286.79 305.289 286.16 305.818 286.082 306.189C285.92 306.961 282.776 310.756 280.168 313.804C280.055 313.937 279.892 314.018 279.72 314.032C279.704 314.032 279.686 314.032 279.671 314.032L279.669 314.034ZM271.77 305.725L279.599 312.453C282.049 309.571 284.56 306.464 284.806 305.891C284.984 305.097 285.573 304.602 287.472 303.008C288.009 302.558 288.657 302.013 289.44 301.342C292.991 298.3 294.359 295.38 293.618 292.417C293.132 290.48 289.953 286.705 288.213 285.36C287.753 285.006 287.517 284.449 287.581 283.873C287.644 283.296 287.997 282.805 288.522 282.56L295.742 279.547C297.613 278.664 297.157 277.539 297.138 277.491C296.933 277.044 295.59 276.776 294.749 277.026C287.087 279.297 281.165 281.918 277.149 284.816C270.286 289.769 271.546 303.709 271.768 305.727L271.77 305.725ZM284.8 305.913C284.8 305.913 284.8 305.919 284.798 305.921C284.798 305.919 284.798 305.915 284.8 305.913Z" fill="black"/>
<path d="M56.9832 351.97C57.445 350.21 30.9262 331.709 33.1302 312.35C35.3341 292.991 75.465 249.546 101.813 244.23C128.162 238.914 97.6829 331.615 97.6829 331.615L56.9832 351.97Z" fill="#008BCE"/>
<path d="M40.5195 382H148.113L177.696 275.19C177.696 275.19 160.135 242.486 134.178 239.41C125.322 238.36 117.541 238.923 111.129 240.117C99.7507 242.239 90.3245 250.175 86.2356 260.995L40.5195 382Z" fill="#008BCE"/>
<path d="M150.012 330.327L192.971 356.087C216.009 371.375 246.33 374.804 261.561 355.596C269.33 345.8 277.318 331.965 283.757 313.379L269.013 299.962L240.647 324.448C236.188 328.297 229.483 327.93 225.473 323.616C209.927 306.888 173.984 268.137 166.686 259.618C157.315 248.677 150.012 330.329 150.012 330.329V330.327Z" fill="#008BCE"/>
<path d="M55.9558 341.793C55.8726 341.793 55.7893 341.777 55.708 341.743C55.3731 341.607 55.2106 341.225 55.3473 340.89L78.4036 284.264C78.5403 283.929 78.9229 283.768 79.2578 283.903C79.5928 284.04 79.7553 284.422 79.6185 284.757L56.5623 341.383C56.4592 341.637 56.2135 341.791 55.9538 341.791L55.9558 341.793Z" fill="black"/>
<path d="M120.327 367.075C120.266 367.075 120.204 367.067 120.141 367.047C119.794 366.944 119.594 366.58 119.697 366.233C119.764 366.007 126.668 343.454 152.291 330.911C152.616 330.752 153.008 330.885 153.169 331.212C153.327 331.536 153.192 331.929 152.867 332.089C127.756 344.383 121.021 366.384 120.956 366.605C120.872 366.891 120.611 367.077 120.327 367.077V367.075Z" fill="black"/>
<path d="M261.266 363.949H360.632C364.291 363.949 367.258 366.914 367.258 370.57C367.258 374.227 364.291 377.192 360.632 377.192H261.266C257.608 377.192 254.641 374.227 254.641 370.57C254.641 366.914 257.608 363.949 261.266 363.949Z" fill="#A0D2F4"/>
<path d="M327.021 342.863H381.902C385.299 342.863 388.054 345.616 388.054 349.011C388.054 352.406 385.299 355.159 381.902 355.159H327.021C323.624 355.159 320.869 352.406 320.869 349.011C320.869 345.616 323.624 342.863 327.021 342.863Z" fill="#A0D2F4"/>
<path d="M309.334 355.052C312.671 354.41 314.855 351.187 314.212 347.853C313.57 344.518 310.344 342.336 307.008 342.978C303.671 343.62 301.488 346.843 302.13 350.178C302.773 353.512 305.998 355.694 309.334 355.052Z" fill="#A0D2F4"/>
<path d="M264.301 141.683L236.092 141.938C232.616 141.969 228.885 144.018 226.538 147.181L214.618 163.256L210.168 146.755C209.408 143.936 206.921 142.202 203.676 142.231L177.733 142.466C172.818 142.511 169.961 138.572 171.352 133.669L186.943 78.7416C188.334 73.8392 193.447 69.8278 198.362 69.7841L284.931 69.0004C289.846 68.9556 292.703 72.8942 291.312 77.7976L275.721 132.726C274.329 137.628 269.216 141.64 264.301 141.683Z" fill="#008BCE"/>
<path d="M248.448 94.8179C247.134 92.7268 244.828 91.5746 241.953 91.5736C239.804 91.5736 237.637 92.2522 235.512 93.5907C234.439 94.2673 233.405 95.0937 232.423 96.0596C232.008 95.0937 231.458 94.2662 230.782 93.5897C229.443 92.2491 227.674 91.5694 225.526 91.5684C222.651 91.5684 219.669 92.7185 217.129 94.8075C214.619 96.8725 212.743 99.6952 211.846 102.754C210.923 105.903 211.251 108.786 212.878 111.826C214.334 114.546 216.763 117.307 219.576 120.505C220.537 121.597 221.626 122.834 222.747 124.153C223.043 124.502 223.498 124.694 224.027 124.694C224.557 124.694 225.124 124.503 225.624 124.154C227.517 122.836 229.333 121.599 230.934 120.507C235.621 117.312 239.669 114.553 242.72 111.833C246.13 108.794 248.148 105.912 249.071 102.764C249.968 99.7046 249.747 96.8818 248.448 94.8158V94.8179Z" fill="white"/>
<path d="M372.438 90.1984L352.956 90.3745C350.555 90.3961 347.978 91.8108 346.357 93.9954L338.124 105.097L335.051 93.7014C334.526 91.754 332.809 90.5564 330.568 90.5765L312.65 90.739C309.255 90.7699 307.282 88.0498 308.243 84.6633L319.011 46.728C319.972 43.3422 323.503 40.5717 326.898 40.5416L386.686 40.0003C390.081 39.9694 392.054 42.6895 391.093 46.076L380.325 84.012C379.364 87.3978 375.833 90.1682 372.438 90.1984Z" fill="#008BCE"/>
<path d="M361.489 57.8302C360.582 56.386 358.989 55.5902 357.004 55.5895C355.52 55.5895 354.023 56.0582 352.555 56.9827C351.814 57.4499 351.1 58.0207 350.422 58.6878C350.135 58.0207 349.755 57.4492 349.289 56.9819C348.364 56.0561 347.142 55.5867 345.658 55.5859C343.673 55.5859 341.613 56.3803 339.859 57.823C338.125 59.2492 336.83 61.1987 336.21 63.3114C335.573 65.486 335.8 67.4772 336.923 69.577C337.929 71.4553 339.606 73.3624 341.549 75.5707C342.213 76.3248 342.965 77.1795 343.739 78.0903C343.943 78.3311 344.258 78.4641 344.623 78.4641C344.989 78.4641 345.38 78.3319 345.726 78.091C347.034 77.181 348.287 76.3263 349.394 75.5722C352.631 73.366 355.426 71.4603 357.533 69.582C359.888 67.4829 361.282 65.4924 361.92 63.3179C362.539 61.2052 362.386 59.2557 361.489 57.8288V57.8302Z" fill="white"/>
<path d="M208.46 75.8242C211.457 75.8242 213.176 78.2525 212.3 81.2472L201.377 118.562C200.501 121.557 197.359 123.985 194.363 123.985H91.4251C88.4284 123.985 86.71 121.557 87.5861 118.562L98.5087 81.2472C99.3847 78.2525 102.526 75.8242 105.523 75.8242H208.46Z" fill="white"/>
<path d="M95.4045 92.5044C95.3431 92.5044 95.2816 92.4965 95.2202 92.4787C94.8734 92.3777 94.6732 92.0132 94.7743 91.6646L97.878 81.0623C98.8294 77.8121 102.258 75.168 105.521 75.168H125.828C126.19 75.168 126.484 75.4611 126.484 75.8236C126.484 76.186 126.19 76.4791 125.828 76.4791H105.521C102.799 76.4791 99.9353 78.6994 99.1366 81.4307L96.0328 92.033C95.9496 92.3183 95.688 92.5044 95.4045 92.5044Z" fill="black"/>
<path d="M95.4046 124.639H91.4248C89.8055 124.639 88.4419 124.01 87.5857 122.867C86.6839 121.665 86.4619 120.07 86.9574 118.377L90.1385 107.509C90.2396 107.162 90.6023 106.962 90.9531 107.063C91.2999 107.164 91.5001 107.529 91.399 107.877L88.218 118.745C87.8414 120.032 87.99 121.217 88.6381 122.08C89.2407 122.885 90.2316 123.328 91.4288 123.328H95.4086C95.7713 123.328 96.0646 123.621 96.0646 123.984C96.0646 124.346 95.7713 124.639 95.4086 124.639H95.4046Z" fill="black"/>
<path d="M104.957 124.639H99.0545C98.6918 124.639 98.3984 124.346 98.3984 123.984C98.3984 123.621 98.6918 123.328 99.0545 123.328H104.957C105.319 123.328 105.613 123.621 105.613 123.984C105.613 124.346 105.319 124.639 104.957 124.639Z" fill="black"/>
<path d="M152.758 124.639H138.629C138.266 124.639 137.973 124.346 137.973 123.984C137.973 123.621 138.266 123.328 138.629 123.328H152.758C153.121 123.328 153.414 123.621 153.414 123.984C153.414 124.346 153.121 124.639 152.758 124.639Z" fill="black"/>
<path d="M194.363 124.639H177.328C176.965 124.639 176.672 124.346 176.672 123.984C176.672 123.621 176.965 123.328 177.328 123.328H194.363C197.084 123.328 199.948 121.108 200.747 118.377L201.248 116.661C201.349 116.315 201.716 116.115 202.061 116.216C202.408 116.317 202.608 116.681 202.507 117.03L202.005 118.745C201.054 121.995 197.625 124.639 194.363 124.639Z" fill="black"/>
<path d="M193.665 94.2409H111.855C111.493 94.2409 111.199 93.9477 111.199 93.5853C111.199 93.2228 111.493 92.9297 111.855 92.9297H193.665C194.028 92.9297 194.321 93.2228 194.321 93.5853C194.321 93.9477 194.028 94.2409 193.665 94.2409Z" fill="black"/>
<path d="M190.466 105.167H173.359C172.996 105.167 172.703 104.874 172.703 104.511C172.703 104.149 172.996 103.855 173.359 103.855H190.466C190.828 103.855 191.122 104.149 191.122 104.511C191.122 104.874 190.828 105.167 190.466 105.167Z" fill="black"/>
<path d="M162.427 105.167H108.654C108.291 105.167 107.998 104.874 107.998 104.511C107.998 104.149 108.291 103.855 108.654 103.855H162.427C162.79 103.855 163.083 104.149 163.083 104.511C163.083 104.874 162.79 105.167 162.427 105.167Z" fill="black"/>
<path d="M59.7487 261.18C59.4752 261.18 59.2175 261.006 59.1263 260.733L58.9955 260.339C58.8806 259.996 59.0669 259.624 59.4117 259.511C59.7546 259.396 60.1272 259.582 60.2402 259.927L60.371 260.317C60.486 260.659 60.2997 261.032 59.9568 261.147C59.8874 261.17 59.8181 261.18 59.7487 261.18ZM58.0164 255.795C57.737 255.795 57.4773 255.615 57.3901 255.332C56.8728 253.656 56.3714 251.959 55.8977 250.289C55.7986 249.94 56.0008 249.578 56.3496 249.479C56.6964 249.38 57.0611 249.582 57.1602 249.93C57.63 251.59 58.1294 253.278 58.6447 254.943C58.7517 255.29 58.5575 255.656 58.2107 255.763C58.1472 255.783 58.0818 255.793 58.0164 255.793V255.795ZM55.1584 245.706C54.8671 245.706 54.5995 245.51 54.5242 245.214C54.0862 243.511 53.664 241.792 53.2756 240.104C53.1943 239.752 53.4143 239.399 53.7671 239.318C54.1179 239.237 54.4727 239.457 54.5539 239.809C54.9424 241.485 55.3586 243.194 55.7947 244.888C55.8858 245.238 55.6738 245.595 55.3229 245.686C55.2674 245.7 55.2139 245.706 55.1584 245.706ZM52.7979 235.488C52.4927 235.488 52.2192 235.274 52.1558 234.963C51.8049 233.24 51.474 231.501 51.1747 229.793C51.1113 229.437 51.3511 229.096 51.7078 229.035C52.0646 228.973 52.4055 229.211 52.4669 229.567C52.7642 231.263 53.0912 232.99 53.4401 234.701C53.5134 235.056 53.2835 235.402 52.9287 235.474C52.8851 235.484 52.8415 235.488 52.7979 235.488ZM50.9884 225.159C50.6673 225.159 50.3878 224.925 50.3403 224.598C50.0866 222.859 49.8567 221.102 49.6565 219.379C49.6149 219.019 49.8725 218.694 50.2332 218.652C50.592 218.611 50.919 218.868 50.9606 219.229C51.1588 220.938 51.3867 222.681 51.6385 224.408C51.69 224.766 51.4422 225.099 51.0835 225.151C51.0518 225.155 51.0201 225.157 50.9884 225.157V225.159ZM49.7853 214.742C49.4484 214.742 49.161 214.485 49.1332 214.142C48.9846 212.388 48.8657 210.621 48.7745 208.89C48.7567 208.527 49.0342 208.22 49.3949 208.2C49.7536 208.185 50.0648 208.46 50.0846 208.82C50.1738 210.538 50.2927 212.29 50.4394 214.029C50.4691 214.39 50.2015 214.707 49.8408 214.739C49.823 214.739 49.8032 214.74 49.7853 214.74V214.742ZM49.2462 204.271C48.8895 204.271 48.5961 203.986 48.5902 203.627C48.5743 202.716 48.5664 201.813 48.5664 200.918C48.5664 200.058 48.5743 199.204 48.5882 198.361C48.5942 197.998 48.8835 197.705 49.2561 197.717C49.6188 197.723 49.9062 198.022 49.9003 198.384C49.8864 199.22 49.8785 200.066 49.8785 200.918C49.8785 201.805 49.8864 202.7 49.9023 203.603C49.9082 203.966 49.6208 204.265 49.2581 204.271C49.2541 204.271 49.2502 204.271 49.2462 204.271ZM49.4305 193.789C49.4187 193.789 49.4068 193.789 49.3949 193.789C49.0342 193.77 48.7547 193.461 48.7745 193.1C48.8696 191.345 48.9985 189.579 49.157 187.847C49.1907 187.487 49.5118 187.222 49.8705 187.255C50.2313 187.289 50.4968 187.608 50.4632 187.968C50.3046 189.682 50.1777 191.432 50.0846 193.171C50.0648 193.52 49.7754 193.791 49.4305 193.791V193.789ZM50.3958 183.351C50.368 183.351 50.3383 183.351 50.3086 183.346C49.9498 183.298 49.6961 182.969 49.7437 182.609C49.9736 180.864 50.2432 179.113 50.5404 177.4C50.6019 177.043 50.9428 176.803 51.2995 176.867C51.6563 176.928 51.8961 177.269 51.8327 177.625C51.5374 179.319 51.2718 181.054 51.0439 182.781C51.0003 183.11 50.7188 183.351 50.3938 183.351H50.3958ZM52.1974 173.026C52.1518 173.026 52.1042 173.022 52.0567 173.011C51.7019 172.933 51.4779 172.585 51.5552 172.23C51.9298 170.511 52.348 168.788 52.792 167.106C52.8851 166.756 53.2439 166.548 53.5947 166.641C53.9455 166.734 54.1536 167.092 54.0604 167.443C53.6204 169.107 53.2082 170.812 52.8356 172.511C52.7682 172.818 52.4967 173.026 52.1954 173.026H52.1974ZM54.8869 162.894C54.8215 162.894 54.7561 162.884 54.6907 162.864C54.3458 162.755 54.1536 162.386 54.2626 162.042C54.7918 160.36 55.3646 158.681 55.9651 157.049C56.09 156.708 56.4665 156.534 56.8074 156.66C57.1483 156.785 57.3228 157.162 57.1959 157.502C56.6033 159.114 56.0365 160.774 55.5132 162.436C55.426 162.715 55.1664 162.895 54.8869 162.895V162.894ZM58.51 153.056C58.4247 153.056 58.3375 153.038 58.2543 153.002C57.9213 152.86 57.7647 152.475 57.9074 152.143C58.6011 150.515 59.3384 148.898 60.0995 147.34C60.258 147.015 60.6525 146.88 60.9775 147.039C61.3025 147.197 61.4373 147.589 61.2788 147.916C60.5276 149.455 59.8002 151.049 59.1164 152.656C59.0094 152.905 58.7676 153.056 58.5119 153.056H58.51ZM63.118 143.634C63.009 143.634 62.9 143.606 62.7989 143.551C62.4818 143.374 62.3688 142.974 62.5452 142.659C63.4173 141.101 64.331 139.576 65.2625 138.124C65.4587 137.819 65.8631 137.73 66.1683 137.926C66.4735 138.122 66.5627 138.526 66.3665 138.831C65.4488 140.259 64.549 141.762 63.6908 143.297C63.5699 143.511 63.3479 143.634 63.118 143.634ZM68.7984 134.818C68.6616 134.818 68.5248 134.776 68.4059 134.687C68.1166 134.471 68.0571 134.059 68.2731 133.77C70.2987 131.061 71.6326 129.712 71.6881 129.655C71.9437 129.397 72.358 129.397 72.6156 129.651C72.8733 129.906 72.8753 130.32 72.6196 130.578C72.6057 130.591 71.2897 131.926 69.3256 134.555C69.1967 134.727 68.9985 134.818 68.8003 134.818H68.7984Z" fill="#A0D2F4"/>
<path d="M68.1172 255.33C67.8635 255.33 67.6217 255.181 67.5146 254.934C66.9637 253.662 66.4325 252.363 65.937 251.074C65.8062 250.735 65.9747 250.357 66.3136 250.226C66.6525 250.095 67.031 250.264 67.1619 250.602C67.6514 251.874 68.1766 253.157 68.7197 254.411C68.8644 254.744 68.7098 255.13 68.3788 255.273C68.2936 255.31 68.2064 255.326 68.1191 255.326L68.1172 255.33ZM64.7934 246.554C64.5179 246.554 64.2603 246.378 64.1691 246.1C63.624 244.429 63.1206 242.725 62.6687 241.04C62.5756 240.689 62.7837 240.331 63.1325 240.238C63.4833 240.144 63.8421 240.352 63.9352 240.701C64.3792 242.365 64.8786 244.044 65.4157 245.694C65.5287 246.039 65.3404 246.409 64.9956 246.52C64.9282 246.542 64.8588 246.552 64.7914 246.552L64.7934 246.554ZM62.088 236.427C61.7848 236.427 61.5113 236.215 61.4459 235.906C61.0851 234.181 60.77 232.432 60.5084 230.709C60.4549 230.35 60.7006 230.017 61.0594 229.962C61.4181 229.909 61.7511 230.154 61.8066 230.513C62.0642 232.212 62.3754 233.935 62.7302 235.637C62.8035 235.991 62.5776 236.338 62.2228 236.413C62.1772 236.423 62.1316 236.427 62.088 236.427ZM60.5223 226.06C60.1873 226.06 59.9019 225.805 59.8702 225.464C59.7077 223.691 59.5987 221.917 59.5471 220.19C59.5372 219.827 59.8206 219.526 60.1833 219.514C60.554 219.502 60.8473 219.788 60.8592 220.15C60.9107 221.851 61.0177 223.598 61.1783 225.343C61.212 225.704 60.9464 226.023 60.5857 226.056C60.5659 226.056 60.5441 226.058 60.5242 226.058L60.5223 226.06ZM60.225 215.583C60.225 215.583 60.2071 215.583 60.1972 215.583C59.8345 215.569 59.5531 215.264 59.5689 214.901C59.7057 211.556 60.0287 209.672 60.0426 209.593C60.1041 209.237 60.441 208.999 60.8017 209.06C61.1585 209.122 61.3983 209.463 61.3349 209.819C61.3309 209.837 61.0118 211.707 60.879 214.955C60.8651 215.307 60.5738 215.583 60.225 215.583Z" fill="#A0D2F4"/>
<path d="M267.183 202.841C266.821 202.841 266.527 202.548 266.527 202.185V198.794C266.527 198.432 266.821 198.139 267.183 198.139C267.546 198.139 267.839 198.432 267.839 198.794V202.185C267.839 202.548 267.546 202.841 267.183 202.841Z" fill="black"/>
<path d="M267.183 210.737C266.821 210.737 266.527 210.444 266.527 210.082V206.691C266.527 206.328 266.821 206.035 267.183 206.035C267.546 206.035 267.839 206.328 267.839 206.691V210.082C267.839 210.444 267.546 210.737 267.183 210.737Z" fill="black"/>
<path d="M264.928 205.092H261.537C261.174 205.092 260.881 204.799 260.881 204.437C260.881 204.074 261.174 203.781 261.537 203.781H264.928C265.291 203.781 265.584 204.074 265.584 204.437C265.584 204.799 265.291 205.092 264.928 205.092Z" fill="black"/>
<path d="M272.832 205.092H269.439C269.077 205.092 268.783 204.799 268.783 204.437C268.783 204.074 269.077 203.781 269.439 203.781H272.832C273.195 203.781 273.488 204.074 273.488 204.437C273.488 204.799 273.195 205.092 272.832 205.092Z" fill="black"/>
<path d="M165.401 60.6513C162.356 60.6513 159.879 58.1755 159.879 55.1333C159.879 52.091 162.356 49.6152 165.401 49.6152C168.445 49.6152 170.922 52.091 170.922 55.1333C170.922 58.1755 168.445 60.6513 165.401 60.6513ZM165.401 50.9264C163.08 50.9264 161.191 52.814 161.191 55.1333C161.191 57.4526 163.08 59.3401 165.401 59.3401C167.722 59.3401 169.61 57.4526 169.61 55.1333C169.61 52.814 167.722 50.9264 165.401 50.9264Z" fill="white"/>
<path d="M84.4837 137.981C84.6932 136.28 83.4838 134.732 81.7825 134.523C80.0812 134.314 78.5322 135.522 78.3227 137.222C78.1132 138.923 79.3225 140.47 81.0239 140.68C82.7252 140.889 84.2742 139.681 84.4837 137.981Z" fill="white"/>
</g>
<defs>
<clipPath id="clip0_2435_11715">
<rect width="427" height="425" fill="white"/>
</clipPath>
</defs>
</svg>
