<svg width="427" height="425" viewBox="0 0 427 425" fill="none" xmlns="http://www.w3.org/2000/svg">
<g clip-path="url(#clip0_2449_11313)">
<path d="M400.041 382.57C388.531 392.16 338.441 398.94 278.761 401.49C187.021 405.42 72.6009 399.37 40.7909 378.2C25.7309 368.19 15.5509 337.25 9.1009 297.66C-6.9291 199.16 0.220901 47.1301 13.1609 30.6501C31.3109 7.56009 323.301 -15.3099 399.911 13.9301C432.741 26.4601 429.231 358.23 400.031 382.57H400.041Z" fill="white"/>
<path d="M373.314 247.44L375.204 241.883L377.358 247.44C377.358 247.44 381.657 248.14 381.712 248.531C381.757 248.913 377.595 250.095 377.595 250.095C377.595 250.095 375.85 255.488 375.204 254.27C374.568 253.051 373.95 250.35 373.95 250.35C373.95 250.35 368.533 249.268 368.533 248.731C368.533 248.158 373.314 247.449 373.314 247.449V247.44Z" fill="white"/>
<path d="M304.094 233.142L305.566 228.822L307.238 233.142C307.238 233.142 310.574 233.688 310.619 233.988C310.656 234.279 307.429 235.198 307.429 235.198C307.429 235.198 306.075 239.381 305.575 238.435C305.075 237.49 304.594 235.389 304.594 235.389C304.594 235.389 300.395 234.543 300.395 234.134C300.395 233.688 304.103 233.142 304.103 233.142H304.094Z" fill="white"/>
<g clip-path="url(#clip1_2449_11313)">
<path d="M398.173 66H29.8262V336H398.173V66Z" fill="white"/>
<path d="M109.105 318.965H233.435C238.079 318.965 242.065 315.656 242.92 311.089L286.771 76.7707C287.782 71.3678 283.637 66.375 278.141 66.375H153.812C149.167 66.375 145.181 69.6843 144.327 74.2507L100.475 308.569C99.4639 313.972 103.609 318.965 109.105 318.965Z" fill="white"/>
<path d="M233.434 319.29H109.105C106.386 319.29 103.831 318.089 102.095 315.996C100.363 313.906 99.6552 311.177 100.155 308.508L144.007 74.1906C144.889 69.4737 149.012 66.0508 153.811 66.0508H278.141C280.86 66.0508 283.415 67.2518 285.15 69.3454C286.883 71.4346 287.591 74.1641 287.091 76.8316L243.239 311.15C242.357 315.867 238.234 319.29 233.434 319.29ZM153.811 66.7C149.325 66.7 145.47 69.9001 144.645 74.3101L100.793 308.629C100.329 311.106 100.986 313.641 102.595 315.581C104.207 317.526 106.579 318.641 109.105 318.641H233.434C237.921 318.641 241.776 315.441 242.601 311.031L286.451 76.7106C286.916 74.2334 286.258 71.6986 284.649 69.7585C283.037 67.8139 280.665 66.6985 278.139 66.6985H153.81L153.811 66.7Z" fill="black"/>
<path d="M110.955 300.582L152.115 81.6133C152.862 77.6223 156.345 74.7305 160.405 74.7305H174.049L176.447 85.2796C177.066 88.0062 179.49 89.9419 182.286 89.9419H237.665C240.844 89.9419 243.789 88.2762 245.426 85.5526L251.936 74.7305H269.065C273.868 74.7305 277.49 79.0947 276.608 83.816L235.446 302.785C234.699 306.776 231.216 309.667 227.156 309.667H118.496C113.693 309.667 110.071 305.303 110.953 300.582H110.955Z" fill="white"/>
<path d="M227.157 309.991H118.496C116.108 309.991 113.864 308.936 112.34 307.098C110.818 305.263 110.198 302.865 110.635 300.521L151.796 81.5522C152.572 77.4107 156.192 74.4038 160.406 74.4038H174.051C174.203 74.4038 174.334 74.5086 174.368 74.6561L176.765 85.2053C177.355 87.802 179.627 89.6153 182.288 89.6153H237.667C240.713 89.6153 243.58 87.9938 245.151 85.3838L251.661 74.5602C251.72 74.4628 251.825 74.4023 251.94 74.4023H269.068C271.456 74.4023 273.701 75.4573 275.226 77.2956C276.748 79.131 277.368 81.5286 276.93 83.873L235.769 302.842C234.994 306.983 231.374 309.99 227.161 309.99L227.157 309.991ZM111.273 300.64C110.871 302.794 111.441 304.996 112.84 306.682C114.241 308.371 116.302 309.341 118.496 309.341H227.157C231.058 309.341 234.411 306.558 235.127 302.722L276.288 83.755C276.692 81.6023 276.12 79.3996 274.722 77.7132C273.32 76.0238 271.259 75.0545 269.063 75.0545H252.118L245.702 85.7202C244.015 88.525 240.935 90.2674 237.663 90.2674H182.284C179.316 90.2674 176.784 88.2461 176.127 85.3528L173.787 75.056H160.402C156.501 75.056 153.148 77.8386 152.43 81.6746L111.269 300.643L111.273 300.64Z" fill="black"/>
<path d="M230.971 75.0535H195.629C195.449 75.0535 195.305 74.9089 195.305 74.7289C195.305 74.5489 195.451 74.4043 195.629 74.4043H230.971C231.151 74.4043 231.295 74.5489 231.295 74.7289C231.295 74.9089 231.149 75.0535 230.971 75.0535Z" fill="black"/>
<path d="M126.26 272.827L130.19 253.852C130.585 251.947 132.263 250.584 134.208 250.59L227.264 250.855C229.845 250.863 231.774 253.231 231.261 255.761L227.436 274.642C227.049 276.553 225.367 277.926 223.419 277.922L130.259 277.751C127.669 277.746 125.736 275.365 126.26 272.827Z" fill="#E2EAFF"/>
<path d="M143.667 194.197L147.08 175.222C147.432 173.268 149.134 171.848 151.117 171.854L243.578 172.118C246.122 172.125 248.044 174.43 247.593 176.936L244.196 195.819C243.846 197.771 242.145 199.19 240.162 199.187L147.684 199.017C145.138 199.013 143.213 196.707 143.666 194.199L143.667 194.197Z" fill="#E2EAFF"/>
<path d="M135.931 233.564L139.344 214.589C139.696 212.636 141.398 211.215 143.381 211.221L235.841 211.485C238.386 211.492 240.307 213.797 239.857 216.304L236.46 235.186C236.109 237.138 234.409 238.557 232.426 238.554L139.948 238.384C137.401 238.38 135.477 236.074 135.929 233.566L135.931 233.564Z" fill="#E2EAFF"/>
<path d="M193.137 199.837C193.107 199.837 193.078 199.834 193.048 199.83C192.783 199.781 192.609 199.527 192.656 199.263L197.644 171.9C197.693 171.635 197.948 171.461 198.21 171.508C198.475 171.556 198.649 171.81 198.602 172.074L193.614 199.437C193.571 199.672 193.366 199.837 193.135 199.837H193.137Z" fill="white"/>
<path d="M186.051 239.056C186.021 239.056 185.992 239.053 185.962 239.049C185.698 239 185.523 238.746 185.57 238.482L190.558 211.119C190.607 210.854 190.86 210.678 191.124 210.727C191.388 210.776 191.563 211.029 191.516 211.293L186.528 238.656C186.485 238.891 186.28 239.056 186.049 239.056H186.051Z" fill="white"/>
<path d="M178.758 278.425C178.728 278.425 178.699 278.422 178.669 278.418C178.404 278.369 178.23 278.116 178.277 277.851L183.265 250.488C183.314 250.223 183.569 250.047 183.831 250.096C184.096 250.145 184.272 250.398 184.223 250.663L179.235 278.026C179.192 278.26 178.987 278.425 178.756 278.425H178.758Z" fill="white"/>
<path d="M236.951 181.105H204.884C204.128 181.105 203.605 180.496 203.719 179.745L203.739 179.61C203.853 178.859 204.557 178.25 205.313 178.25H237.38C238.136 178.25 238.659 178.859 238.545 179.61L238.525 179.745C238.411 180.496 237.707 181.105 236.951 181.105Z" fill="white"/>
<path d="M218.83 186.458H204.154C203.398 186.458 202.875 185.849 202.988 185.098L203.009 184.964C203.122 184.213 203.827 183.604 204.582 183.604H219.259C220.015 183.604 220.538 184.213 220.424 184.964L220.404 185.098C220.29 185.849 219.586 186.458 218.83 186.458Z" fill="white"/>
<path d="M225.652 191.814H203.421C202.665 191.814 202.142 191.205 202.256 190.454L202.276 190.319C202.39 189.568 203.094 188.959 203.85 188.959H226.081C226.837 188.959 227.36 189.568 227.247 190.319L227.226 190.454C227.112 191.205 226.408 191.814 225.652 191.814Z" fill="white"/>
<path d="M216.572 220.71H197.495C196.74 220.71 196.216 220.101 196.33 219.35L196.351 219.216C196.464 218.465 197.168 217.855 197.924 217.855H217C217.756 217.855 218.279 218.465 218.166 219.216L218.145 219.35C218.032 220.101 217.328 220.71 216.572 220.71Z" fill="white"/>
<path d="M230.928 226.064H196.765C196.009 226.064 195.486 225.455 195.599 224.704L195.62 224.569C195.734 223.818 196.438 223.209 197.194 223.209H231.357C232.113 223.209 232.636 223.818 232.523 224.569L232.502 224.704C232.389 225.455 231.684 226.064 230.928 226.064Z" fill="white"/>
<path d="M221.513 231.421H196.035C195.279 231.421 194.756 230.812 194.869 230.061L194.89 229.927C195.003 229.176 195.707 228.566 196.463 228.566H221.942C222.698 228.566 223.221 229.176 223.107 229.927L223.087 230.061C222.973 230.812 222.269 231.421 221.513 231.421Z" fill="white"/>
<path d="M216.075 260.328H190.503C189.747 260.328 189.224 259.718 189.338 258.967L189.358 258.833C189.472 258.082 190.176 257.473 190.932 257.473H216.503C217.259 257.473 217.783 258.082 217.669 258.833L217.648 258.967C217.535 259.718 216.831 260.328 216.075 260.328Z" fill="white"/>
<path d="M220.687 265.683H189.771C189.015 265.683 188.492 265.074 188.605 264.323L188.626 264.188C188.739 263.437 189.444 262.828 190.2 262.828H221.116C221.871 262.828 222.395 263.437 222.281 264.188L222.26 264.323C222.147 265.074 221.443 265.683 220.687 265.683Z" fill="white"/>
<path d="M208.024 271.039H189.04C188.284 271.039 187.761 270.429 187.875 269.678L187.895 269.544C188.009 268.793 188.713 268.184 189.469 268.184H208.453C209.208 268.184 209.732 268.793 209.618 269.544L209.597 269.678C209.484 270.429 208.78 271.039 208.024 271.039Z" fill="white"/>
<path d="M171.799 189.879L163.347 192.042C161.125 192.62 159.031 191.22 158.454 188.997L158.059 187.478C157.481 185.255 158.812 183.068 161.034 182.49L170.889 179.721L171.799 189.879Z" fill="white"/>
<path d="M178.695 188.15L171.205 190.044L168.672 180.293L176.148 178.349C178.484 177.741 180.868 179.143 181.475 181.48L181.823 182.819C182.43 185.155 181.029 187.542 178.695 188.149V188.15Z" fill="#2A2A2A"/>
<path d="M162.827 232.413C167.118 232.413 170.596 228.933 170.596 224.639C170.596 220.346 167.118 216.865 162.827 216.865C158.535 216.865 155.057 220.346 155.057 224.639C155.057 228.933 158.535 232.413 162.827 232.413Z" fill="white"/>
<path d="M159.692 232.241C159.626 232.241 159.559 232.228 159.495 232.2C159.249 232.091 159.138 231.803 159.247 231.556L165.557 217.348C165.666 217.103 165.955 216.991 166.199 217.1C166.445 217.21 166.556 217.497 166.447 217.744L160.137 231.952C160.056 232.133 159.879 232.241 159.692 232.241Z" fill="#E2EAFF"/>
<path d="M167.033 263.968C166.46 266.636 161.636 268.91 154.977 268.91C148.318 268.91 142.334 267.285 142.921 263.968C143.463 260.901 148.318 259.027 154.977 259.027C161.636 259.027 167.754 260.613 167.033 263.968Z" fill="white"/>
<path d="M153.889 269.55C153.853 269.55 153.818 269.546 153.783 269.538C153.52 269.479 153.355 269.22 153.414 268.957L155.701 258.71C155.76 258.448 156.019 258.284 156.282 258.342C156.544 258.401 156.709 258.66 156.65 258.923L154.363 269.17C154.313 269.397 154.111 269.55 153.889 269.55Z" fill="#E2EAFF"/>
<path d="M249.978 160.281H148.764L160.855 98.7832H262.07L249.978 160.281Z" fill="white"/>
<path d="M249.978 160.606H153.334C153.154 160.606 153.01 160.462 153.01 160.282C153.01 160.102 153.156 159.957 153.334 159.957H249.711L261.674 99.1096H161.121L158.381 113.051C158.347 113.226 158.176 113.341 157.999 113.308C157.824 113.272 157.709 113.102 157.744 112.925L160.536 98.7216C160.566 98.5696 160.7 98.459 160.855 98.459H262.069C262.166 98.459 262.258 98.5018 262.32 98.577C262.382 98.6523 262.407 98.7511 262.387 98.8455L250.296 160.344C250.266 160.496 250.132 160.606 249.978 160.606Z" fill="black"/>
<path d="M179.428 129.813H162.291C162.194 129.813 162.103 129.771 162.041 129.695C161.979 129.62 161.954 129.521 161.973 129.427L165.33 112.356C165.359 112.204 165.493 112.094 165.648 112.094H182.785C182.882 112.094 182.974 112.137 183.036 112.212C183.097 112.287 183.122 112.386 183.103 112.48L179.747 129.551C179.717 129.703 179.583 129.813 179.428 129.813ZM162.686 129.164H179.162L182.39 112.744H165.915L162.686 129.164Z" fill="black"/>
<path d="M202.399 129.488H185.262L188.618 112.418H205.754L202.399 129.488Z" fill="#008BCE"/>
<path d="M225.368 129.813H208.231C208.134 129.813 208.042 129.771 207.98 129.695C207.918 129.62 207.893 129.521 207.913 129.427L211.269 112.356C211.299 112.204 211.433 112.094 211.587 112.094H228.725C228.822 112.094 228.913 112.137 228.975 112.212C229.037 112.287 229.062 112.386 229.043 112.48L225.686 129.551C225.657 129.703 225.523 129.813 225.368 129.813ZM208.626 129.164H225.101L228.33 112.744H211.854L208.626 129.164Z" fill="black"/>
<path d="M248.339 129.813H231.202C231.104 129.813 231.013 129.771 230.951 129.695C230.889 129.62 230.864 129.521 230.883 129.427L234.24 112.356C234.269 112.204 234.403 112.094 234.558 112.094H251.695C251.792 112.094 251.884 112.137 251.946 112.212C252.008 112.287 252.033 112.386 252.013 112.48L248.657 129.551C248.627 129.703 248.493 129.813 248.339 129.813ZM231.596 129.164H248.072L251.3 112.744H234.825L231.596 129.164Z" fill="black"/>
<path d="M175.003 152.317H157.866C157.768 152.317 157.677 152.275 157.615 152.199C157.553 152.124 157.528 152.025 157.547 151.931L160.904 134.86C160.933 134.708 161.068 134.598 161.222 134.598H178.359C178.457 134.598 178.548 134.64 178.61 134.716C178.672 134.791 178.697 134.89 178.678 134.984L175.321 152.055C175.291 152.207 175.157 152.317 175.003 152.317ZM158.26 151.668H174.736L177.964 135.248H161.489L158.26 151.668Z" fill="black"/>
<path d="M197.973 152.317H180.836C180.739 152.317 180.648 152.275 180.586 152.199C180.524 152.124 180.499 152.025 180.518 151.931L183.875 134.86C183.904 134.708 184.038 134.598 184.193 134.598H201.33C201.427 134.598 201.519 134.64 201.58 134.716C201.642 134.791 201.667 134.89 201.648 134.984L198.292 152.055C198.262 152.207 198.128 152.317 197.973 152.317ZM181.231 151.668H197.707L200.935 135.248H184.46L181.231 151.668Z" fill="black"/>
<path d="M220.944 151.992H203.807L207.163 134.922H224.299L220.944 151.992Z" fill="#E2EAFF"/>
<path d="M391.282 156.775C387.778 161.487 385.905 167.188 385.786 173.061C385.727 175.917 385.12 178.701 383.178 179.715C376.436 183.233 373.492 168.838 373.492 168.838L379.314 152.633L383.211 148.998L391.282 156.773V156.775Z" fill="white"/>
<path d="M381.109 180.596C380.51 180.596 379.923 180.461 379.353 180.189C375.114 178.169 373.253 169.283 373.174 168.905C373.163 168.846 373.167 168.786 373.186 168.73L379.008 152.525C379.026 152.476 379.054 152.432 379.092 152.398L382.99 148.763C383.116 148.645 383.312 148.648 383.436 148.766L391.506 156.541C391.624 156.655 391.639 156.838 391.542 156.969C388.109 161.584 386.231 167.151 386.11 173.067C386.035 176.745 385.1 179.078 383.327 180.003C382.573 180.397 381.83 180.595 381.108 180.595L381.109 180.596ZM373.83 168.862C374.035 169.795 375.896 177.823 379.633 179.602C380.711 180.115 381.823 180.058 383.029 179.428C384.575 178.621 385.394 176.477 385.464 173.054C385.584 167.099 387.448 161.49 390.854 156.811L383.211 149.446L379.596 152.817L373.832 168.859L373.83 168.862Z" fill="black"/>
<path d="M378.242 156.518L384.936 304.352C385.038 305.996 385.639 307.558 386.645 308.799L392.265 315.728C393.238 316.927 392.446 318.802 390.969 318.802H353.942C351.083 318.802 348.792 316.257 348.879 313.18L351.995 202.924L319.419 314.977C318.757 317.253 316.799 318.802 314.584 318.802H275.899C274.192 318.802 273.525 316.415 274.95 315.402L285.434 307.939C286.671 307.058 287.616 305.774 288.132 304.277L334.049 161.62L378.242 156.518Z" fill="#202020"/>
<path d="M390.968 319.128H353.942C352.543 319.128 351.217 318.555 350.208 317.517C349.11 316.387 348.507 314.802 348.553 313.17L351.599 205.448L319.729 315.068C319.024 317.496 316.955 319.128 314.584 319.128H275.898C275.008 319.128 274.248 318.55 273.962 317.652C273.66 316.704 273.98 315.692 274.761 315.135L285.245 307.673C286.435 306.826 287.327 305.615 287.825 304.17L333.74 161.519C333.778 161.398 333.886 161.311 334.011 161.296L378.203 156.194C378.293 156.182 378.381 156.212 378.451 156.269C378.518 156.328 378.56 156.412 378.564 156.502L385.258 304.337C385.356 305.898 385.936 307.413 386.895 308.593L392.515 315.522C393.068 316.204 393.174 317.129 392.791 317.934C392.436 318.681 391.754 319.126 390.967 319.126L390.968 319.128ZM351.995 202.599C352.011 202.599 352.029 202.599 352.045 202.603C352.206 202.628 352.324 202.77 352.319 202.933L349.203 313.191C349.162 314.647 349.698 316.061 350.675 317.065C351.56 317.977 352.72 318.479 353.943 318.479H390.97C391.5 318.479 391.963 318.172 392.207 317.657C392.423 317.204 392.484 316.515 392.014 315.934L386.394 309.005C385.351 307.719 384.719 306.075 384.614 304.374L377.935 156.882L334.297 161.92L288.444 304.378C287.9 305.958 286.926 307.279 285.625 308.205L275.141 315.668C274.463 316.151 274.417 316.934 274.584 317.456C274.742 317.951 275.17 318.479 275.903 318.479H314.588C316.669 318.479 318.487 317.036 319.111 314.888L351.687 202.835C351.728 202.694 351.857 202.6 351.998 202.6L351.995 202.599Z" fill="black"/>
<path d="M351.996 203.247C351.817 203.247 351.672 203.103 351.672 202.924L351.646 195.971C351.646 195.791 351.791 195.645 351.969 195.645C352.147 195.645 352.293 195.789 352.293 195.968L352.318 202.92C352.318 203.1 352.174 203.246 351.996 203.246V203.247Z" fill="black"/>
<path d="M350.11 310.777C349.936 310.777 349.793 310.64 349.785 310.464C349.778 310.284 349.918 310.134 350.098 310.126C360.894 309.707 371.828 309.017 382.595 308.072C382.775 308.052 382.931 308.189 382.947 308.367C382.963 308.546 382.831 308.704 382.652 308.719C371.875 309.664 360.931 310.356 350.124 310.775C350.12 310.775 350.116 310.775 350.111 310.775L350.11 310.777Z" fill="black"/>
<path d="M319.223 310.177H319.219C309.047 310.021 298.795 309.075 288.747 307.365C288.57 307.336 288.451 307.167 288.481 306.99C288.511 306.813 288.68 306.697 288.856 306.725C298.871 308.43 309.09 309.373 319.229 309.528C319.409 309.531 319.552 309.679 319.549 309.859C319.546 310.036 319.402 310.179 319.225 310.179L319.223 310.177Z" fill="black"/>
<path d="M344.463 110.717C360.564 110.321 362.218 109.204 367.927 110.653C381.964 114.214 413.898 121.419 415.952 135.76C417.194 144.436 393.809 158.77 393.809 158.77L378.353 149.839L386.098 141.387L370.461 135.863C370.461 135.863 328.361 111.114 344.463 110.717Z" fill="#008BCE"/>
<path d="M313.669 140.128C313.669 140.128 322.606 115.857 328.771 113.439C337.906 109.855 350.095 110.996 363.327 109.892C371.928 109.175 378.457 160.154 378.457 160.154C378.983 162.144 377.483 164.091 375.426 164.091L334.355 168.951C332.69 169.149 331.232 167.832 331.259 166.154L331.655 140.939C331.655 140.939 326.625 160.996 315.712 160.432C305.751 159.918 291.605 149.178 290.921 144.367C289.859 136.898 313.671 140.129 313.671 140.129L313.669 140.128Z" fill="#008BCE"/>
<path d="M287.33 137.303C287.33 137.303 296.45 138.727 304.37 139.265C312.137 139.795 306.922 152.277 300.839 154.027L289.86 149.624L287.332 137.303H287.33Z" fill="white"/>
<path d="M300.839 154.351C300.796 154.351 300.753 154.342 300.712 154.324L289.926 149.709C289.83 149.668 289.759 149.584 289.737 149.482L287.014 137.375C286.99 137.272 287.018 137.164 287.089 137.087C287.16 137.009 287.265 136.968 287.368 136.981L306.582 139.194C306.761 139.215 306.889 139.376 306.868 139.554C306.848 139.733 306.686 139.859 306.509 139.84L287.748 137.679L290.334 149.178L300.967 153.728C301.132 153.799 301.208 153.989 301.138 154.155C301.085 154.279 300.965 154.352 300.839 154.352V154.351Z" fill="black"/>
<path d="M290.536 165.38L290.555 147.399C290.557 145.782 289.247 144.471 287.63 144.471H287.487C285.865 144.471 284.552 145.793 284.563 147.417L284.683 165.398C284.683 165.575 284.829 165.718 285.006 165.718L290.213 165.703C290.39 165.703 290.535 165.559 290.535 165.382L290.536 165.38Z" fill="black"/>
<path d="M287.56 152.559C285.941 152.559 284.579 151.252 284.579 149.632L284.56 145.101C284.56 144.37 284.034 143.668 283.303 143.668H278.374C277.645 143.668 277.051 144.263 277.051 144.993V145.89C277.051 147.511 275.738 148.825 274.117 148.825C272.497 148.825 271.184 147.51 271.184 145.89V144.993C271.184 141.026 274.409 137.799 278.374 137.799H283.303C287.269 137.799 290.556 141.085 290.556 145.052L290.553 149.627C290.553 151.249 289.18 152.56 287.559 152.56L287.56 152.559Z" fill="black"/>
<path d="M290.123 165.373H285.129V318.46H290.123V165.373Z" fill="white"/>
<path d="M290.123 318.783H285.129C284.949 318.783 284.805 318.637 284.805 318.459V165.371C284.805 165.191 284.951 165.047 285.129 165.047H290.123C290.302 165.047 290.447 165.191 290.447 165.371V318.459C290.447 318.639 290.301 318.783 290.123 318.783ZM285.453 318.134H289.797V165.698H285.453V318.134Z" fill="black"/>
<path d="M287.968 138.991L290.832 138.771C290.832 138.771 289.871 136.226 286.185 135.964C283.736 135.79 280.052 135.528 277.04 135.447C275.443 135.405 274.339 136.04 273.568 137.442C272.715 138.993 272.258 140.214 272.061 141.433C271.753 143.329 273.153 143.766 274.106 141.898C274.106 141.898 273.43 144.505 275.151 144.815C277.161 145.176 276.853 140.822 279.291 139.514C279.291 139.514 275.729 145.322 277.784 145.974C279.566 146.539 280.38 142.032 282.427 140.396C282.427 140.396 279.667 145.187 281.581 146.115C283.361 146.978 284.499 140.253 287.966 138.988L287.968 138.991Z" fill="white"/>
<path d="M281.907 146.527C281.757 146.527 281.602 146.49 281.44 146.412C281.064 146.23 280.809 145.923 280.678 145.5C280.467 144.814 280.634 143.88 280.921 142.989C280.805 143.203 280.693 143.415 280.584 143.622C279.748 145.2 278.96 146.692 277.687 146.288C277.324 146.173 277.062 145.922 276.93 145.562C276.76 145.108 276.81 144.485 276.98 143.809C276.569 144.66 276.038 145.307 275.094 145.137C274.615 145.051 274.246 144.811 273.997 144.423C273.739 144.019 273.657 143.513 273.651 143.052C273.222 143.421 272.796 143.485 272.474 143.378C271.989 143.219 271.541 142.611 271.74 141.384C271.945 140.119 272.421 138.856 273.283 137.288C274.108 135.786 275.338 135.082 277.047 135.125C280.081 135.206 283.767 135.469 286.207 135.641C290.057 135.914 291.093 138.546 291.136 138.657C291.173 138.753 291.161 138.861 291.106 138.946C291.052 139.032 290.959 139.088 290.857 139.095L288.038 139.312C286.35 139.954 285.202 142.076 284.278 143.783C283.49 145.239 282.794 146.525 281.907 146.525V146.527ZM282.429 140.075C282.504 140.075 282.579 140.101 282.641 140.153C282.759 140.255 282.788 140.426 282.71 140.562C282.19 141.465 280.923 144.079 281.301 145.308C281.378 145.555 281.517 145.724 281.726 145.826C282.29 146.102 282.98 144.824 283.709 143.474C284.692 141.657 285.916 139.395 287.859 138.687C287.887 138.676 287.916 138.67 287.944 138.667L290.319 138.484C289.892 137.801 288.74 136.47 286.163 136.288C283.73 136.115 280.052 135.854 277.033 135.773C275.547 135.731 274.57 136.296 273.854 137.599C273.029 139.1 272.577 140.298 272.384 141.485C272.258 142.253 272.45 142.683 272.678 142.759C272.945 142.844 273.423 142.528 273.819 141.751C273.894 141.603 274.068 141.536 274.223 141.595C274.377 141.654 274.463 141.819 274.422 141.98C274.324 142.356 274.159 143.464 274.547 144.07C274.696 144.302 274.912 144.442 275.21 144.495C275.945 144.629 276.278 143.887 276.801 142.567C277.293 141.326 277.85 139.92 279.14 139.228C279.269 139.159 279.429 139.185 279.529 139.291C279.629 139.398 279.645 139.56 279.569 139.684C278.854 140.851 277.093 144.14 277.538 145.333C277.603 145.507 277.71 145.611 277.884 145.667C278.64 145.906 279.277 144.706 280.011 143.316C280.612 142.179 281.294 140.889 282.225 140.144C282.284 140.097 282.356 140.073 282.427 140.073L282.429 140.075Z" fill="black"/>
<path d="M274.107 142.226C274.078 142.226 274.047 142.221 274.017 142.212C273.845 142.162 273.746 141.982 273.796 141.809C273.823 141.717 274.467 139.52 275.613 138.413C275.743 138.289 275.948 138.292 276.071 138.422C276.195 138.552 276.192 138.757 276.063 138.881C275.041 139.868 274.425 141.969 274.42 141.989C274.378 142.131 274.249 142.224 274.109 142.224L274.107 142.226Z" fill="black"/>
<path d="M291.036 138.096C289.353 137.511 286.691 138.9 286.574 139.472C286.458 140.045 286.742 141.008 286.847 141.579C286.951 142.15 287 142.777 286.708 143.283C286.35 143.904 285.562 144.191 285.25 144.835C284.85 145.659 285.499 146.693 286.364 146.938C287.229 147.183 288.166 146.827 288.914 146.308C289.832 145.669 290.607 144.726 291.169 143.754C292.087 142.168 291.705 140.467 291.705 140.467L291.036 138.096Z" fill="white"/>
<path d="M286.946 147.342C286.715 147.342 286.491 147.313 286.276 147.251C285.716 147.093 285.215 146.651 284.967 146.099C284.754 145.622 284.751 145.122 284.958 144.694C285.153 144.293 285.478 144.027 285.794 143.769C286.047 143.562 286.286 143.366 286.427 143.121C286.678 142.688 286.613 142.1 286.528 141.639C286.416 141.031 286.304 140.252 286.43 139.631C286.466 139.455 286.637 139.344 286.813 139.377C286.989 139.412 287.102 139.585 287.067 139.76C286.962 140.272 287.067 140.97 287.167 141.522C287.272 142.094 287.347 142.829 286.99 143.447C286.788 143.796 286.492 144.038 286.205 144.274C285.932 144.496 285.674 144.707 285.543 144.979C285.421 145.231 285.427 145.535 285.561 145.835C285.732 146.217 286.074 146.521 286.454 146.628C287.341 146.879 288.262 146.37 288.732 146.044C288.875 145.945 289.021 145.846 289.17 145.748C289.939 145.233 290.733 144.701 291.087 143.92C291.16 143.756 291.352 143.683 291.515 143.757C291.679 143.831 291.751 144.024 291.678 144.187C291.249 145.137 290.375 145.722 289.531 146.288C289.386 146.385 289.242 146.481 289.102 146.578C288.375 147.083 287.631 147.345 286.948 147.345L286.946 147.342Z" fill="black"/>
<path d="M381.367 150.75C381.367 150.75 375.333 155.455 374.674 158.917C373.971 162.609 376.974 169.009 377.929 170.057C378.918 171.141 381.723 170.84 380.743 167.515C379.956 164.844 379.335 162.674 381.235 161.482L381.368 150.748L381.367 150.75Z" fill="white"/>
<path d="M379.29 170.943C378.691 170.943 378.084 170.708 377.69 170.277C376.778 169.277 373.607 162.789 374.356 158.857C375.03 155.315 380.917 150.69 381.168 150.495C381.308 150.384 381.512 150.409 381.623 150.551C381.733 150.693 381.708 150.896 381.567 151.007C381.508 151.052 375.623 155.676 374.994 158.978C374.295 162.642 377.331 168.917 378.169 169.839C378.595 170.307 379.421 170.436 379.976 170.125C380.637 169.752 380.799 168.858 380.431 167.608C379.663 165.002 378.937 162.542 381.061 161.208C381.213 161.112 381.414 161.159 381.509 161.311C381.605 161.463 381.558 161.664 381.406 161.76C379.782 162.779 380.214 164.576 381.054 167.425C381.701 169.622 380.739 170.441 380.294 170.692C379.993 170.861 379.643 170.943 379.289 170.943H379.29Z" fill="black"/>
<path d="M347.198 96.8984L353.951 109.836C354.555 110.995 354.166 112.435 353.086 113.045C349.13 115.279 340.659 119.491 342.533 113.43L338.248 103.735L347.198 96.8999V96.8984Z" fill="#FFE6DE"/>
<path d="M341.3 110.97C341.175 110.97 341.057 110.898 341.003 110.777L337.949 103.868C337.889 103.73 337.93 103.57 338.05 103.478L347 96.641C347.076 96.582 347.174 96.5614 347.266 96.582C347.359 96.6027 347.439 96.6632 347.483 96.7487L354.236 109.687C354.319 109.846 354.258 110.042 354.099 110.125C353.94 110.207 353.744 110.147 353.662 109.988L347.087 97.392L338.646 103.84L341.596 110.514C341.669 110.678 341.595 110.87 341.431 110.942C341.389 110.961 341.344 110.97 341.3 110.97Z" fill="black"/>
<path d="M338.639 90.034C334.686 90.9089 333.081 90.4279 333.081 90.4279C333.081 90.4279 330.136 88.8994 329.442 86.3189C328.748 83.7384 334.07 81.8986 341.961 81.8499C349.548 81.8027 352.669 88.2 348.83 94.3672L347.779 98.2077C347.779 98.2077 347.623 106.467 341.046 107.301C334.468 108.134 335.156 104.961 334.788 102.38C334.68 101.625 334.488 100.285 334.272 98.7699C335.71 98.6769 337.581 98.7182 340.033 98.8643C345.345 99.1815 342.591 89.1605 338.638 90.0354L338.639 90.034Z" fill="#242120"/>
<path d="M339.095 107.763C337.637 107.763 336.592 107.478 335.873 106.898C334.804 106.035 334.687 104.702 334.573 103.412C334.544 103.085 334.514 102.745 334.468 102.427L333.953 98.8162C333.939 98.7262 333.964 98.6362 334.022 98.5654C334.079 98.4946 334.162 98.4518 334.253 98.4459C335.635 98.3573 337.479 98.3869 340.056 98.5403C341.108 98.6008 341.857 98.2334 342.28 97.4411C343.046 96.0055 342.596 93.3439 341.298 91.6295C340.85 91.0378 339.918 90.0847 338.711 90.3518C334.72 91.2341 333.058 90.7605 332.989 90.7398C332.97 90.7339 332.951 90.7265 332.933 90.7177C332.808 90.6528 329.853 89.0918 329.13 86.405C328.96 85.778 329.095 85.1539 329.516 84.6006C330.928 82.7431 335.697 81.5657 341.961 81.5273C341.989 81.5273 342.017 81.5273 342.045 81.5273C345.629 81.5273 348.486 82.9673 349.893 85.4873C351.324 88.0487 351.038 91.4155 349.134 94.5006L348.106 98.2585C348.079 98.918 347.617 106.797 341.089 107.624C340.352 107.717 339.691 107.765 339.097 107.765L339.095 107.763ZM334.645 99.0729L335.111 102.332C335.16 102.668 335.189 103.017 335.22 103.353C335.326 104.561 335.428 105.702 336.281 106.391C337.134 107.08 338.681 107.272 341.008 106.977C347.228 106.189 347.452 98.527 347.458 98.201C347.458 98.1744 347.462 98.1478 347.469 98.1213L348.52 94.2808C348.529 94.2513 348.541 94.2218 348.557 94.1952C350.357 91.3034 350.645 88.1652 349.326 85.8016C348.038 83.4941 345.386 82.1736 342.044 82.1736C342.017 82.1736 341.991 82.1736 341.964 82.1736C335.989 82.2105 331.305 83.317 330.032 84.9916C329.73 85.39 329.638 85.7957 329.756 86.2339C330.369 88.5119 332.895 89.9549 333.201 90.1231C333.421 90.1747 335.043 90.4964 338.571 89.7173C339.726 89.4621 340.88 90.0006 341.815 91.237C343.089 92.9175 343.846 95.8846 342.851 97.7465C342.471 98.4591 341.671 99.2854 340.016 99.188C337.679 99.0493 335.957 99.011 334.645 99.0744V99.0729Z" fill="black"/>
<path d="M335.879 87.6661C339.832 86.7912 345.336 88.7122 345.547 92.4892C345.758 96.2663 345.417 99.6287 340.105 99.3115C337.652 99.1655 335.558 99.9799 334.12 100.073C333.598 96.4168 332.427 90.0194 332.427 90.0194C332.427 90.0194 331.927 88.541 335.879 87.6661Z" fill="#FFE6DE"/>
<path d="M337.877 87.4585V88.1077C341.135 88.1077 344.745 89.797 344.899 92.5265C345.011 94.5419 344.972 96.5588 343.935 97.6565C343.282 98.347 342.249 98.6819 340.776 98.6819C340.574 98.6819 340.36 98.676 340.142 98.6628C339.934 98.6495 339.721 98.6436 339.507 98.6436C338.106 98.6436 336.816 98.9151 335.779 99.1334C335.374 99.219 335.004 99.2972 334.668 99.3518C334.115 95.6633 333.074 89.9623 333.063 89.9018C333.06 89.8856 333.057 89.8708 333.053 89.856C333.038 89.617 333.542 88.8483 336.018 88.301C336.598 88.1726 337.223 88.1077 337.876 88.1077V87.4585H337.877ZM337.877 87.4585C337.191 87.4585 336.514 87.5264 335.879 87.6665C331.926 88.54 332.427 90.0198 332.427 90.0198C332.427 90.0198 333.598 96.4172 334.12 100.073C335.44 99.9877 337.313 99.2942 339.508 99.2942C339.704 99.2942 339.903 99.3001 340.105 99.312C340.338 99.3252 340.562 99.3326 340.777 99.3326C345.447 99.3326 345.749 96.1 345.547 92.4897C345.37 89.3205 341.465 87.457 337.877 87.457V87.4585Z" fill="black"/>
<path d="M346.611 95.7152C346.611 95.7152 348.121 91.4232 350.143 92.9429C352.166 94.464 350.065 98.7412 346.978 97.2879L346.609 95.7152H346.611Z" fill="#FFE6DE"/>
<path d="M348.231 97.9166C347.802 97.9166 347.335 97.8162 346.839 97.5831C346.749 97.5403 346.684 97.4592 346.66 97.3633L346.292 95.7905C346.277 95.73 346.282 95.6666 346.302 95.609C346.342 95.4954 347.298 92.822 348.809 92.3631C349.329 92.2052 349.842 92.3144 350.335 92.6848C351.533 93.5862 351.458 95.2254 350.764 96.3807C350.282 97.1818 349.392 97.918 348.23 97.918L348.231 97.9166ZM347.257 97.0564C348.636 97.6303 349.682 96.9221 350.21 96.0443C350.754 95.1398 350.839 93.8725 349.948 93.2041C349.624 92.9607 349.314 92.8884 348.999 92.9843C348.044 93.2734 347.226 94.9908 346.948 95.7359L347.257 97.0564Z" fill="black"/>
<path d="M347.951 96.3904C347.9 96.3904 347.85 96.3786 347.803 96.355C347.644 96.2738 347.581 96.0776 347.663 95.9168C347.993 95.275 348.538 94.7615 349.199 94.4709C349.364 94.3986 349.554 94.4738 349.626 94.6376C349.698 94.8014 349.623 94.9932 349.459 95.0655C348.942 95.2927 348.499 95.7102 348.241 96.2133C348.183 96.3255 348.07 96.3904 347.952 96.3904H347.951Z" fill="black"/>
<path d="M127.371 335.675V319.427L156.995 293.002H329.564V311.034L299.999 335.675H127.371Z" fill="white"/>
<path d="M299.999 336H127.371C127.191 336 127.047 335.854 127.047 335.675V319.426C127.047 319.333 127.087 319.245 127.156 319.183L156.779 292.758C156.838 292.705 156.915 292.676 156.995 292.676H329.564C329.744 292.676 329.888 292.82 329.888 293V311.034C329.888 311.13 329.846 311.222 329.772 311.284L300.207 335.923C300.148 335.972 300.076 335.998 299.999 335.998V336ZM127.695 335.351H299.882L329.238 310.884V293.328H157.118L127.695 319.574V335.352V335.351Z" fill="black"/>
<path d="M300.029 335.999C299.849 335.999 299.705 335.853 299.705 335.675V319.426C299.705 319.246 299.851 319.102 300.029 319.102C300.208 319.102 300.353 319.246 300.353 319.426V335.675C300.353 335.855 300.208 335.999 300.029 335.999Z" fill="black"/>
<path d="M299.96 328.887H127.371C127.191 328.887 127.047 328.743 127.047 328.563C127.047 328.383 127.193 328.238 127.371 328.238H299.961C300.141 328.238 300.285 328.384 300.285 328.563C300.285 328.741 300.139 328.887 299.961 328.887H299.96Z" fill="black"/>
<path d="M299.999 319.751H127.371C127.191 319.751 127.047 319.606 127.047 319.426C127.047 319.246 127.193 319.102 127.371 319.102H299.999C300.179 319.102 300.324 319.246 300.324 319.426C300.324 319.606 300.178 319.751 299.999 319.751Z" fill="black"/>
<path d="M200.986 293.002L178.737 273.42H133.082L156.996 293.002H200.986Z" fill="white"/>
<path d="M200.986 293.327H156.995C156.92 293.327 156.848 293.3 156.79 293.253L132.877 273.673C132.771 273.586 132.731 273.441 132.777 273.311C132.822 273.181 132.944 273.096 133.082 273.096H178.737C178.817 273.096 178.892 273.125 178.951 273.177L201.198 292.758C201.299 292.847 201.335 292.99 201.288 293.117C201.241 293.244 201.12 293.328 200.984 293.328L200.986 293.327ZM157.11 292.677H200.124L178.615 273.746H133.991L157.11 292.677Z" fill="black"/>
<path d="M133.08 273.42L128.916 282.228H174.81L178.736 273.42H133.08Z" fill="white"/>
<path d="M174.81 282.555H128.916C128.805 282.555 128.701 282.497 128.642 282.405C128.583 282.31 128.575 282.192 128.623 282.092L132.787 273.284C132.84 273.17 132.955 273.098 133.08 273.098H178.735C178.846 273.098 178.948 273.154 179.008 273.245C179.068 273.338 179.077 273.455 179.032 273.554L175.106 282.362C175.055 282.478 174.938 282.555 174.81 282.555ZM129.429 281.904H174.599L178.236 273.745H133.286L129.43 281.904H129.429Z" fill="black"/>
<path d="M171.672 336C171.492 336 171.348 335.854 171.348 335.676V319.427C171.348 319.334 171.387 319.245 171.457 319.184L201.275 292.759C201.409 292.641 201.614 292.653 201.733 292.787C201.852 292.921 201.839 293.126 201.705 293.246L171.997 319.574V335.676C171.997 335.856 171.852 336 171.673 336H171.672Z" fill="black"/>
<path d="M214.34 336C214.16 336 214.016 335.853 214.016 335.675V319.426C214.016 319.333 214.055 319.245 214.125 319.183L243.748 292.758C243.882 292.639 244.087 292.65 244.207 292.785C244.326 292.919 244.314 293.124 244.18 293.244L214.664 319.572V335.675C214.664 335.855 214.518 336 214.34 336Z" fill="black"/>
<path d="M257.205 336C257.025 336 256.881 335.853 256.881 335.675V319.426C256.881 319.333 256.921 319.245 256.99 319.183L286.613 292.758C286.748 292.639 286.952 292.65 287.072 292.785C287.191 292.919 287.179 293.124 287.045 293.244L257.529 319.572V335.675C257.529 335.855 257.383 336 257.205 336Z" fill="black"/>
<path d="M300.073 319.751C299.984 319.751 299.895 319.714 299.83 319.642C299.711 319.507 299.723 319.302 299.857 319.183L329.48 292.758C329.615 292.639 329.819 292.65 329.939 292.785C330.058 292.919 330.046 293.124 329.912 293.244L300.289 319.668C300.227 319.723 300.15 319.751 300.073 319.751Z" fill="black"/>
<path d="M194.478 326.536C190.56 326.536 187.373 323.346 187.373 319.426C187.373 319.246 187.519 319.102 187.697 319.102H201.259C201.439 319.102 201.584 319.246 201.584 319.426C201.584 323.346 198.396 326.536 194.478 326.536ZM188.029 319.751C188.198 323.162 191.026 325.885 194.477 325.885C197.928 325.885 200.756 323.162 200.925 319.751H188.027H188.029Z" fill="black"/>
<path d="M158.432 273.42C158.432 276.924 155.398 280.078 151.653 280.078C147.907 280.078 144.873 277.19 144.873 273.442L158.432 273.42Z" fill="white"/>
<path d="M151.653 280.403C147.67 280.403 144.549 277.346 144.549 273.442C144.549 273.262 144.693 273.118 144.873 273.118L158.432 273.096C158.524 273.099 158.6 273.13 158.662 273.19C158.723 273.251 158.758 273.333 158.758 273.42C158.758 277.205 155.504 280.403 151.654 280.403H151.653ZM145.206 273.767C145.374 277.15 148.144 279.754 151.653 279.754C155.161 279.754 157.92 277.035 158.099 273.746L145.206 273.767Z" fill="black"/>
<path d="M236.549 326.536C232.631 326.536 229.443 323.346 229.443 319.426C229.443 319.246 229.589 319.102 229.768 319.102H243.33C243.51 319.102 243.654 319.246 243.654 319.426C243.654 323.346 240.467 326.536 236.549 326.536ZM230.099 319.751C230.269 323.162 233.096 325.885 236.547 325.885C239.998 325.885 242.826 323.162 242.995 319.751H230.098H230.099Z" fill="black"/>
<path d="M280.14 326.536C276.222 326.536 273.035 323.346 273.035 319.426C273.035 319.246 273.181 319.102 273.359 319.102H286.922C287.101 319.102 287.246 319.246 287.246 319.426C287.246 323.346 284.059 326.536 280.14 326.536ZM273.691 319.751C273.86 323.162 276.688 325.885 280.139 325.885C283.59 325.885 286.418 323.162 286.587 319.751H273.689H273.691Z" fill="black"/>
<path d="M95.9198 128.369C99.4032 129.954 106.139 138.256 103.059 141.167C94.6585 149.113 56.9748 165.104 54.9133 161.827C41.9154 141.167 63.8841 142.812 64.8551 136.779C66.7854 124.79 73.0405 124.899 77.1443 124.031C78.8049 123.68 79.913 122.157 79.829 120.461C79.4282 112.288 90.1009 103.687 102.875 114.496C106.043 118.984 95.1108 125.51 95.9198 128.367V128.369Z" fill="black"/>
<path d="M60.7082 328.995C60.2264 332.469 62.9229 335.567 66.4284 335.568L98.193 335.58C99.7461 335.58 100.604 333.779 99.6267 332.573L93.7739 325.356L93.7887 325.217L61.2343 325.205L60.7082 328.995Z" fill="white"/>
<path d="M98.191 335.905L66.4264 335.893C64.6611 335.893 62.9828 335.127 61.8246 333.794C60.6679 332.463 60.1433 330.697 60.3864 328.95L60.9125 325.159C60.9375 324.982 61.1026 324.857 61.2779 324.882C61.4547 324.907 61.58 325.071 61.5549 325.248L61.0289 329.038C60.8123 330.599 61.2808 332.177 62.3138 333.366C63.3497 334.558 64.8482 335.241 66.4264 335.241L98.191 335.253C98.7922 335.253 99.305 334.928 99.5643 334.385C99.8222 333.842 99.75 333.242 99.3727 332.776L93.5214 325.558C93.4079 325.419 93.43 325.214 93.5686 325.1C93.7085 324.988 93.9119 325.009 94.0253 325.148L99.8767 332.365C100.409 333.02 100.513 333.901 100.151 334.664C99.7883 335.427 99.0368 335.902 98.1924 335.902L98.191 335.905Z" fill="black"/>
<path d="M101.405 197.699L72.8884 191.758L70.4498 200.619L76.5059 215.227L61.2344 325.204L93.7888 325.216L107.025 205.444C107.428 201.799 104.995 198.444 101.405 197.696V197.699Z" fill="#202020"/>
<path d="M75.2831 200.725L72.8886 191.758C72.8886 191.758 56.6151 207.195 53.4249 230.796C50.5 252.421 44.2847 275.8 18.3125 295.504C19.621 302.353 23.5715 308.91 27.6664 314.08C30.0329 317.066 35.0959 321.799 39.1053 325.119C40.5434 323.631 62.1599 301.137 73.1745 280.247C84.5721 258.631 83.6232 219.997 94.592 219.345L75.2846 200.727L75.2831 200.725Z" fill="#202020"/>
<path d="M65.6579 292.941C65.5946 292.941 65.5312 292.923 65.4767 292.885C65.3279 292.784 65.2896 292.582 65.3897 292.433C68.3456 288.073 70.8698 283.922 72.8885 280.093C77.953 270.486 80.5788 257.456 82.8966 245.959C85.8878 231.117 88.2499 219.393 94.5742 219.018C94.7496 219.006 94.9072 219.144 94.9176 219.324C94.9279 219.504 94.7923 219.657 94.6125 219.667C88.7877 220.014 86.3535 232.098 83.5332 246.089C81.208 257.63 78.5718 270.709 73.4632 280.398C71.4326 284.248 68.8982 288.422 65.9276 292.801C65.8642 292.894 65.7626 292.944 65.6594 292.944L65.6579 292.941Z" fill="black"/>
<path d="M27.6666 314.077C23.5717 308.908 19.6212 302.352 18.3127 295.502C17.6615 295.996 17.0013 296.489 16.325 296.977C12.9153 299.444 11.483 303.834 12.8342 307.82C14.6231 313.099 17.4949 320.43 21.3114 326.471C24.8964 332.145 31.1692 335.553 37.8796 335.556H42.5948C43.5747 335.558 44.1302 334.434 43.5335 333.656L39.0274 325.196C39.0274 325.196 39.0554 325.168 39.1055 325.116C35.0976 321.797 30.0331 317.065 27.6666 314.077Z" fill="white"/>
<path d="M42.5942 335.883H37.8789C30.9843 335.879 24.688 332.427 21.0366 326.646C17.1716 320.529 14.2761 313.09 12.527 307.926C11.1272 303.795 12.5786 299.29 16.1357 296.716C16.2816 296.611 16.4834 296.643 16.5895 296.788C16.6941 296.934 16.6617 297.136 16.5173 297.242C13.1916 299.649 11.836 303.858 13.143 307.718C14.8802 312.848 17.7566 320.237 21.5862 326.299C25.1182 331.891 31.2098 335.23 37.8804 335.233H42.5956V335.234C42.9301 335.234 43.2175 335.056 43.3648 334.755C43.5122 334.455 43.4797 334.119 43.2764 333.855C43.2661 333.84 43.2558 333.825 43.2469 333.809L38.7409 325.349C38.6569 325.191 38.7159 324.993 38.875 324.909C39.0327 324.827 39.2301 324.886 39.3141 325.044L43.8083 333.481C44.1443 333.937 44.1988 334.532 43.9468 335.042C43.6919 335.562 43.1732 335.883 42.5956 335.883H42.5942Z" fill="black"/>
<path d="M162.188 116.166C161.675 115.188 154.683 114.465 142.306 128.562C141.653 129.306 141.018 130.016 140.395 130.706C141.715 134.969 144.587 140.779 150.75 143.811C153.655 139.055 157.807 132.002 159.452 130.443C161.432 128.565 159.988 126.678 159.988 126.678C161.025 125.036 159.254 123.665 159.254 123.665C159.964 120.67 155.862 121.868 155.862 121.868C155.964 119.868 163.194 118.085 162.188 116.166Z" fill="#FFE6DE"/>
<path d="M150.75 144.135C150.693 144.135 150.634 144.121 150.581 144.088C150.428 143.995 150.381 143.795 150.473 143.641C150.908 142.93 151.369 142.167 151.847 141.381C154.636 136.779 157.797 131.563 159.228 130.207C160.965 128.561 159.78 126.942 159.729 126.875C159.648 126.767 159.64 126.618 159.712 126.504C160.582 125.128 159.117 123.971 159.055 123.922C158.955 123.844 158.909 123.714 158.937 123.59C159.079 122.993 159.015 122.559 158.749 122.305C158.131 121.717 156.521 122.016 155.952 122.181C155.837 122.217 155.712 122.181 155.628 122.094C155.544 122.007 155.516 121.88 155.554 121.767C156.023 120.362 157.748 119.492 159.272 118.723C160.738 117.984 162.122 117.286 161.917 116.376C161.904 116.317 161.803 116.227 161.563 116.165C159.957 115.741 153.014 117.159 142.546 128.782C142.223 129.139 141.911 129.493 141.601 129.842C141.276 130.209 140.955 130.572 140.633 130.926C140.512 131.059 140.308 131.069 140.175 130.948C140.042 130.827 140.032 130.622 140.151 130.489C140.471 130.137 140.79 129.775 141.115 129.409C141.425 129.06 141.74 128.706 142.063 128.346C152.799 116.424 159.895 115.057 161.725 115.535C162.341 115.695 162.505 116.041 162.547 116.231C162.866 117.636 161.261 118.444 159.562 119.301C158.398 119.888 157.106 120.541 156.474 121.396C157.265 121.259 158.509 121.179 159.194 121.833C159.605 122.224 159.745 122.798 159.609 123.542C160.259 124.127 161.061 125.352 160.365 126.669C160.695 127.236 161.464 128.98 159.673 130.678C158.307 131.974 155.033 137.375 152.401 141.716C151.923 142.504 151.461 143.266 151.026 143.979C150.966 144.079 150.858 144.134 150.749 144.134L150.75 144.135Z" fill="black"/>
<path d="M148.771 131.561C148.719 131.561 148.668 131.549 148.619 131.522C148.462 131.438 148.401 131.242 148.485 131.083C149.091 129.941 150.361 129.442 151.524 129.104L151.778 129.03C152.776 128.744 153.807 128.449 154.466 127.728C154.725 127.443 154.972 126.977 154.812 126.595C154.658 126.223 154.169 126.015 153.361 125.976C152.12 125.919 150.872 126.006 149.651 126.237C149.475 126.271 149.304 126.155 149.272 125.979C149.238 125.802 149.355 125.633 149.53 125.6C150.8 125.36 152.098 125.268 153.39 125.329C154.471 125.379 155.15 125.721 155.411 126.345C155.688 127.008 155.352 127.722 154.944 128.167C154.161 129.025 153.04 129.346 151.955 129.657L151.703 129.73C150.672 130.029 149.549 130.462 149.057 131.39C148.998 131.5 148.886 131.562 148.77 131.562L148.771 131.561Z" fill="black"/>
<path d="M154.602 125.936C154.569 125.936 154.535 125.931 154.501 125.92C154.33 125.865 154.238 125.681 154.294 125.511C154.568 124.665 154.982 123.879 155.526 123.177C155.635 123.035 155.839 123.009 155.981 123.119C156.122 123.23 156.149 123.433 156.038 123.575C155.54 124.218 155.162 124.938 154.911 125.713C154.867 125.85 154.739 125.937 154.603 125.937L154.602 125.936Z" fill="black"/>
<path d="M155.365 127.264C155.214 127.264 155.078 127.156 155.047 127.001C155.013 126.826 155.127 126.654 155.303 126.619C156.659 126.352 157.861 125.468 158.519 124.254C158.604 124.096 158.802 124.038 158.958 124.123C159.115 124.208 159.174 124.406 159.089 124.562C158.34 125.945 156.971 126.952 155.429 127.256C155.408 127.261 155.386 127.262 155.365 127.262V127.264Z" fill="black"/>
<path d="M156.401 130.006C156.23 130.006 156.06 129.99 155.897 129.957C154.983 129.773 154.263 129.053 154.148 128.207C154.123 128.03 154.248 127.865 154.425 127.842C154.6 127.816 154.765 127.942 154.79 128.119C154.868 128.687 155.387 129.192 156.025 129.32C156.613 129.438 157.292 129.268 157.89 128.855C158.512 128.426 158.976 127.8 159.311 127.303C159.411 127.154 159.613 127.116 159.762 127.216C159.911 127.316 159.949 127.518 159.849 127.667C159.482 128.212 158.969 128.899 158.26 129.391C157.678 129.794 157.023 130.007 156.401 130.007V130.006Z" fill="black"/>
<path d="M157.049 131.565C156.502 131.565 155.999 131.292 155.777 130.866C155.556 130.446 155.627 129.969 155.678 129.621C155.705 129.444 155.871 129.324 156.047 129.346C156.223 129.373 156.346 129.538 156.319 129.715C156.269 130.052 156.238 130.347 156.35 130.562C156.468 130.788 156.779 130.93 157.105 130.912C157.468 130.89 157.819 130.704 158.115 130.525C158.269 130.432 158.469 130.482 158.56 130.634C158.653 130.788 158.605 130.987 158.451 131.08C158.109 131.288 157.651 131.53 157.143 131.559C157.11 131.561 157.079 131.562 157.047 131.562L157.049 131.565Z" fill="black"/>
<path d="M46.3652 247.577C46.7778 232.17 50.9921 213.144 56.086 195.404C55.6027 195.224 55.1223 195.007 54.6493 194.75C44.6059 189.293 47.1285 178.894 56.2142 160.041C64.5263 142.794 73.8375 140.399 75.3626 140.116C75.1828 140.133 75.0502 140.113 88.9337 138.081C91.5344 137.7 93.8803 137.631 95.9815 137.808C100.62 137.587 104.886 137.696 107.288 138.519C114.574 141.014 122.748 147.012 122.748 147.012C122.748 147.012 129.193 143.102 140.393 130.707C141.714 134.969 144.585 140.78 150.749 143.812C150.154 144.787 149.61 145.668 149.152 146.382C146.464 150.573 139.814 166.627 109.046 170.19C107.969 192.438 106.557 226.755 106.41 236.24C94.3267 236.606 67.6001 238.434 46.3652 247.576V247.577Z" fill="#008BCE"/>
<path d="M81.6391 206.827C81.4711 206.827 81.3296 206.698 81.3164 206.528L80.7977 200.137L59.1945 204.991C59.0206 205.029 58.8467 204.92 58.8069 204.745C58.7672 204.569 58.8777 204.397 59.053 204.357L81.0202 199.42C81.1116 199.399 81.2073 199.42 81.284 199.475C81.3591 199.531 81.4077 199.616 81.4151 199.711L81.9647 206.475C81.9795 206.654 81.8468 206.812 81.6671 206.825C81.6582 206.825 81.6494 206.825 81.6406 206.825L81.6391 206.827Z" fill="black"/>
<path d="M86.3378 174.994C86.3378 174.994 78.4059 191.154 70.1056 194.739C61.5017 198.457 56.0703 195.409 56.0703 195.409L86.3363 174.992L86.3378 174.994Z" fill="#008BCE"/>
<path d="M61.796 196.922C58.1697 196.922 56.0523 195.771 55.9123 195.693C55.7561 195.606 55.7001 195.408 55.787 195.252C55.874 195.095 56.0729 195.039 56.2276 195.126C56.2807 195.156 61.6369 198.045 69.9755 194.442C78.071 190.943 85.9661 175.011 86.0442 174.851C86.1238 174.69 86.3183 174.624 86.4789 174.704C86.6395 174.783 86.7058 174.978 86.6278 175.139C86.3021 175.803 78.547 191.448 70.2334 195.039C66.9091 196.476 64.0579 196.923 61.7946 196.923L61.796 196.922Z" fill="black"/>
<path d="M46.3648 247.901C46.3015 247.901 46.2366 247.882 46.1821 247.845C46.0907 247.783 46.0362 247.678 46.0392 247.568C46.3972 234.189 49.6449 216.703 55.6907 195.599C55.284 195.435 54.8818 195.247 54.4942 195.036C49.4843 192.313 47.3992 188.294 47.9341 182.39C48.3968 177.282 50.7854 170.557 55.9206 159.9C64.2371 142.644 73.5247 140.127 75.3032 139.796L75.3062 139.814C75.3062 139.814 75.3135 139.812 75.3165 139.811V139.795C75.3371 139.793 75.3563 139.795 75.3769 139.796C75.7114 139.715 76.3258 139.622 77.4428 139.452C79.7002 139.11 83.5505 138.541 88.8861 137.76C91.394 137.393 93.7826 137.3 95.987 137.483C101.392 137.226 105.229 137.471 107.392 138.212C114.045 140.49 121.51 145.726 122.758 146.62C123.873 145.89 130.139 141.573 140.151 130.489C140.229 130.402 140.349 130.365 140.462 130.391C140.576 130.416 140.667 130.5 140.702 130.612C142.018 134.861 144.853 140.55 150.892 143.52C150.974 143.56 151.035 143.634 151.06 143.721C151.085 143.809 151.073 143.904 151.024 143.981C150.336 145.108 149.826 145.927 149.423 146.557C149.197 146.909 148.939 147.352 148.642 147.864C146.984 150.716 144.209 155.49 138.247 160.054C131.068 165.55 121.349 169.057 109.355 170.482C108.283 192.654 106.879 226.812 106.732 236.247C106.729 236.421 106.59 236.561 106.417 236.567C105.543 236.593 104.594 236.627 103.574 236.672C103.39 236.689 103.244 236.54 103.237 236.36C103.229 236.18 103.368 236.03 103.548 236.022C104.451 235.984 105.3 235.952 106.088 235.927C106.26 226.027 107.657 192.11 108.72 170.176C108.727 170.017 108.849 169.887 109.007 169.87C136.985 166.63 144.76 153.251 148.082 147.539C148.384 147.02 148.643 146.573 148.877 146.208C149.243 145.639 149.694 144.914 150.288 143.945C144.508 140.962 141.653 135.571 140.256 131.345C129.381 143.308 122.98 147.253 122.915 147.293C122.804 147.361 122.662 147.355 122.556 147.277C122.475 147.218 114.338 141.279 107.183 138.83C105.093 138.114 101.33 137.88 95.9973 138.135C95.9826 138.135 95.9693 138.135 95.9546 138.135C93.7944 137.953 91.4471 138.045 88.9804 138.406C78.2134 139.982 75.9206 140.342 75.4889 140.419C75.4668 140.428 75.4447 140.435 75.4211 140.44C73.6971 140.76 64.6851 143.212 56.5056 160.186C47.5878 178.691 44.8766 189.073 54.8037 194.468C55.2545 194.712 55.7231 194.926 56.1976 195.102C56.3567 195.161 56.4437 195.334 56.3965 195.496C50.389 216.411 47.1296 233.762 46.7023 247.082C47.9474 246.554 49.2426 246.038 50.5599 245.545C50.7279 245.483 50.915 245.567 50.9769 245.735C51.0403 245.903 50.9548 246.091 50.7868 246.153C49.3133 246.704 47.8678 247.284 46.4901 247.879C46.4488 247.897 46.4046 247.905 46.3619 247.905L46.3648 247.901Z" fill="black"/>
<path d="M101.533 162.256L81.2969 139.486L89.1684 138.335L97.5733 138.029L101.533 162.256Z" fill="#BDBDBD"/>
<path d="M112.967 167.863L93.6314 171.182C92.5292 171.37 91.5699 170.414 91.7556 169.311L95.8004 145.293C95.9153 144.612 96.4458 144.08 97.1265 143.963L116.462 140.645C117.564 140.456 118.523 141.412 118.338 142.516L114.293 166.534C114.178 167.214 113.648 167.747 112.968 167.863H112.967Z" fill="black"/>
<path d="M107.1 146.633C107.532 146.939 107.635 147.536 107.33 147.968C107.025 148.401 106.427 148.502 105.995 148.197C105.563 147.892 105.46 147.294 105.765 146.862C106.07 146.429 106.668 146.328 107.1 146.633Z" fill="#008BCE"/>
<path d="M98.8426 157.709C98.8426 157.709 100.122 157.193 99.3672 155.974C98.6879 154.878 91.3395 153.221 80.6019 161.345C79.5057 162.174 78.5213 162.931 77.6328 163.624C79.0297 166.486 82.0534 171.891 86.2632 175.079C88.4882 171.46 90.9357 168.21 94.484 167.313C96.8652 166.711 98.57 166.296 98.4801 164.967C98.3888 163.596 95.0513 164.498 95.0513 164.498C95.0513 164.498 100.188 164.114 99.8534 162.286C99.5897 160.847 95.4933 161.652 93.8798 161.944C93.4436 162.034 93.1696 162.084 93.1696 162.084C93.1696 162.084 93.4451 162.022 93.8798 161.944C95.6598 161.575 100.201 160.524 100.444 159.345C100.748 157.877 98.8411 157.709 98.8411 157.709H98.8426Z" fill="#FFE6DE"/>
<path d="M86.264 175.405C86.1933 175.405 86.1255 175.383 86.0681 175.338C81.8184 172.12 78.7771 166.707 77.3419 163.767C77.2741 163.628 77.3124 163.463 77.4332 163.368C78.3645 162.641 79.365 161.872 80.4053 161.084C89.6811 154.066 95.9745 154.562 97.6823 154.882C98.6814 155.068 99.3945 155.404 99.6421 155.802C99.9221 156.254 99.9987 156.686 99.8675 157.085C99.8071 157.27 99.7069 157.427 99.5949 157.554C99.9206 157.672 100.286 157.87 100.529 158.196C100.781 158.535 100.861 158.944 100.763 159.411C100.641 160.003 99.7865 160.581 98.2113 161.139C99.2383 161.197 100.037 161.484 100.174 162.226C100.239 162.579 100.152 162.924 99.9206 163.224C99.6023 163.637 99.0203 163.948 98.3675 164.18C98.3749 164.184 98.3808 164.189 98.3881 164.195C98.6401 164.375 98.7845 164.634 98.8051 164.946C98.9112 166.53 97.1224 166.982 94.6469 167.607L94.5644 167.628C91.0913 168.506 88.6555 171.809 86.541 175.25C86.4924 175.328 86.4143 175.381 86.3244 175.399C86.3053 175.403 86.2847 175.405 86.264 175.405ZM78.0403 163.719C79.4593 166.585 82.2914 171.53 86.1771 174.604C88.3211 171.16 90.8128 167.908 94.4052 166.999L94.4877 166.979C96.8763 166.375 98.2231 165.986 98.1568 164.99C98.1494 164.873 98.1037 164.792 98.0094 164.724C97.8164 164.587 97.479 164.534 97.0885 164.532C96.1233 164.738 95.2598 164.81 95.0757 164.823C94.9106 164.833 94.7603 164.718 94.7323 164.553C94.7043 164.388 94.806 164.229 94.9681 164.184C95.1272 164.141 96.0791 163.895 96.9912 163.883C97.9917 163.668 99.0217 163.327 99.4063 162.828C99.5257 162.672 99.5669 162.52 99.536 162.346C99.4063 161.638 97.5836 161.599 94.1193 162.232L93.9396 162.265C93.5064 162.355 93.2308 162.405 93.2308 162.405C93.0584 162.439 92.889 162.324 92.8551 162.15C92.8197 161.976 92.9302 161.806 93.1026 161.768C93.1026 161.768 93.3826 161.704 93.8246 161.624C98.0227 160.757 100.018 159.821 100.13 159.281C100.187 159 100.149 158.772 100.012 158.587C99.7246 158.197 99.0512 158.055 98.8154 158.035C98.6666 158.021 98.5458 157.906 98.5237 157.759C98.5016 157.611 98.5841 157.467 98.7211 157.411C98.7329 157.406 99.144 157.228 99.2545 156.882C99.3209 156.676 99.2663 156.428 99.0925 156.148C98.9967 155.993 98.5119 155.701 97.5659 155.524C95.9244 155.218 89.8624 154.749 80.7988 161.607C79.8365 162.334 78.9112 163.044 78.0418 163.721L78.0403 163.719Z" fill="black"/>
<path d="M91.958 159.433C91.8253 159.433 91.7016 159.352 91.6529 159.221C91.5911 159.052 91.6765 158.865 91.846 158.803C94.127 157.962 96.6865 157.611 98.4326 157.465C98.6138 157.444 98.7686 157.583 98.7833 157.761C98.798 157.94 98.6654 158.098 98.4871 158.113C96.0411 158.319 93.822 158.769 92.0699 159.414C92.0331 159.427 91.9948 159.435 91.958 159.435V159.433Z" fill="black"/>
<path d="M58.2695 182.388C58.187 182.388 58.1045 182.357 58.0411 182.294C57.9144 182.167 57.9129 181.962 58.0396 181.835C58.1752 181.698 71.8362 167.965 77.4282 163.376C77.5667 163.263 77.7715 163.283 77.8849 163.422C77.9984 163.561 77.9778 163.766 77.8393 163.879C72.2723 168.449 58.6349 182.157 58.4994 182.294C58.436 182.357 58.352 182.39 58.2695 182.39V182.388Z" fill="black"/>
<path d="M99.0174 126.971L95.3233 138.059L97.5734 138.028C97.5734 138.028 93.1882 145.793 82.3711 139.338L84.6595 138.31L90.748 125.277L99.0174 126.97V126.971Z" fill="#FFE6DE"/>
<path d="M88.9752 121.27C89.7975 120.857 90.8304 121.15 91.6261 121.919C91.7351 121.649 91.8162 121.49 91.8501 121.504C95.2009 123.003 99.2029 117.35 99.2029 117.35C99.2029 117.35 100.097 117.904 101.132 119.628C102.166 121.349 103.747 126.667 99.2781 129.092C95.2686 131.269 91.0323 127.587 90.2027 126.807C89.463 126.55 88.7527 125.925 88.3063 125.039C87.5445 123.526 87.8436 121.839 88.9752 121.27Z" fill="#FFE6DE"/>
<path d="M96.6102 130.095C93.5011 130.095 90.7633 127.77 90.0295 127.09C89.2029 126.781 88.472 126.091 88.0167 125.185C87.5393 124.236 87.4288 123.195 87.7146 122.327C87.9194 121.709 88.304 121.243 88.8286 120.979C89.6346 120.574 90.6528 120.741 91.5119 121.395C91.5782 121.287 91.6386 121.235 91.7182 121.203C91.8007 121.17 91.9024 121.172 91.9834 121.209C95.0527 122.584 98.8986 117.218 98.9369 117.163C99.0357 117.023 99.2257 116.983 99.3731 117.075C99.4129 117.1 100.346 117.691 101.408 119.46C102.148 120.691 103.011 123.391 102.36 125.781C101.934 127.343 100.948 128.555 99.4306 129.378C98.486 129.891 97.5297 130.095 96.6073 130.095H96.6102ZM89.1204 121.56C88.7535 121.744 88.4794 122.081 88.3306 122.532C88.1007 123.227 88.2009 124.109 88.5958 124.893C88.9892 125.673 89.614 126.259 90.308 126.499C90.3507 126.514 90.3905 126.538 90.4244 126.57C91.2083 127.308 95.3077 130.877 99.1241 128.807C100.48 128.071 101.358 126.995 101.735 125.61C102.333 123.416 101.535 120.93 100.853 119.795C100.182 118.678 99.5823 118.079 99.267 117.808C98.4153 118.925 95.0645 122.975 91.9819 121.905C91.9657 121.942 91.9466 121.986 91.9259 122.039C91.8862 122.14 91.7977 122.213 91.6931 122.236C91.5885 122.258 91.478 122.227 91.3999 122.151C90.6808 121.457 89.7849 121.223 89.1189 121.558L89.1204 121.56Z" fill="black"/>
<path d="M90.1627 124.717C90.1435 124.717 90.1243 124.715 90.1052 124.712C89.9284 124.68 89.812 124.512 89.8429 124.334C89.9416 123.789 89.8915 123.364 89.7015 123.108C89.5246 122.872 89.2741 122.843 89.2638 122.841C89.087 122.822 88.9558 122.664 88.9721 122.489C88.9883 122.312 89.1415 122.186 89.3169 122.194C89.3714 122.198 89.8562 122.247 90.2069 122.703C90.5237 123.113 90.615 123.7 90.4809 124.45C90.4529 124.607 90.3159 124.717 90.1612 124.717H90.1627Z" fill="black"/>
<path d="M43.2549 118.129C57.5534 118.129 69.1446 106.532 69.1446 92.2265C69.1446 77.9211 57.5534 66.3242 43.2549 66.3242C28.9564 66.3242 17.3652 77.9211 17.3652 92.2265C17.3652 106.532 28.9564 118.129 43.2549 118.129Z" fill="white"/>
<path d="M43.2549 118.455C28.8012 118.455 17.041 106.69 17.041 92.2284C17.041 77.7664 28.7997 66 43.2549 66C57.7101 66 69.4687 77.7649 69.4687 92.2269C69.4687 106.689 57.7101 118.454 43.2549 118.454V118.455ZM43.2549 66.6492C29.1577 66.6492 17.6894 78.1234 17.6894 92.2269C17.6894 106.33 29.1577 117.805 43.2534 117.805C57.3491 117.805 68.8175 106.33 68.8175 92.2269C68.8175 78.1234 57.3505 66.6492 43.2549 66.6492Z" fill="black"/>
<path d="M43.2558 76.9547C43.076 76.9547 42.9316 76.8101 42.9316 76.6301V71.4691C42.9316 71.2891 43.0775 71.1445 43.2558 71.1445C43.4341 71.1445 43.58 71.2891 43.58 71.4691V76.6301C43.58 76.8101 43.4341 76.9547 43.2558 76.9547Z" fill="black"/>
<path d="M43.2558 113.31C43.076 113.31 42.9316 113.164 42.9316 112.986V107.825C42.9316 107.645 43.0775 107.5 43.2558 107.5C43.4341 107.5 43.58 107.645 43.58 107.825V112.986C43.58 113.166 43.4341 113.31 43.2558 113.31Z" fill="black"/>
<path d="M27.6646 92.5515H22.5058C22.326 92.5515 22.1816 92.4069 22.1816 92.2269C22.1816 92.0469 22.3275 91.9023 22.5058 91.9023H27.6646C27.8444 91.9023 27.9888 92.0469 27.9888 92.2269C27.9888 92.4069 27.8429 92.5515 27.6646 92.5515Z" fill="black"/>
<path d="M64.0025 92.5515H58.8437C58.6639 92.5515 58.5195 92.4069 58.5195 92.2269C58.5195 92.0469 58.6654 91.9023 58.8437 91.9023H64.0025C64.1823 91.9023 64.3267 92.0469 64.3267 92.2269C64.3267 92.4069 64.1808 92.5515 64.0025 92.5515Z" fill="black"/>
<path d="M63.139 82.7325C60.8831 78.0126 56.9974 74.2267 52.2114 72.0918L43.2539 92.2267L63.1375 82.7325H63.139Z" fill="#E2EAFF"/>
<path d="M39.0309 102.122C38.9867 102.122 38.9425 102.113 38.8998 102.094C38.7362 102.021 38.6625 101.83 38.7347 101.664L42.9578 92.0963C42.9696 92.0697 42.9858 92.0432 43.005 92.0196L54.8418 77.7228C54.9567 77.5841 55.1615 77.5664 55.2985 77.68C55.4371 77.7951 55.4562 77.9987 55.3413 78.1374L43.534 92.3987L39.3301 101.925C39.277 102.046 39.1576 102.119 39.0324 102.119L39.0309 102.122Z" fill="black"/>
<path d="M130.608 94.7243C132.668 94.7243 134.338 93.0538 134.338 90.993C134.338 88.9323 132.668 87.2617 130.608 87.2617C128.549 87.2617 126.879 88.9323 126.879 90.993C126.879 93.0538 128.549 94.7243 130.608 94.7243Z" fill="#E2EAFF"/>
<path d="M119.724 94.7243C121.783 94.7243 123.453 93.0538 123.453 90.993C123.453 88.9323 121.783 87.2617 119.724 87.2617C117.664 87.2617 115.994 88.9323 115.994 90.993C115.994 93.0538 117.664 94.7243 119.724 94.7243Z" fill="#E2EAFF"/>
<path d="M112.563 91.0005C112.568 88.9397 110.902 87.2654 108.842 87.2607C106.782 87.256 105.109 88.9228 105.104 90.9835C105.099 93.0443 106.765 94.7186 108.825 94.7233C110.885 94.728 112.558 93.0612 112.563 91.0005Z" fill="#E2EAFF"/>
<path d="M101.211 91.3191H71.5195C71.3397 91.3191 71.1953 91.1745 71.1953 90.9945C71.1953 90.8145 71.3412 90.6699 71.5195 90.6699H101.211C101.391 90.6699 101.535 90.8145 101.535 90.9945C101.535 91.1745 101.389 91.3191 101.211 91.3191Z" fill="black"/>
</g>
</g>
<defs>
<clipPath id="clip0_2449_11313">
<rect width="427" height="425" fill="white"/>
</clipPath>
<clipPath id="clip1_2449_11313">
<rect width="404" height="270" fill="white" transform="translate(12 66)"/>
</clipPath>
</defs>
</svg>
