<svg width="427" height="425" viewBox="0 0 427 425" fill="none" xmlns="http://www.w3.org/2000/svg">
<g clip-path="url(#clip0_2414_15521)">
<path d="M400.041 382.57C388.531 392.16 338.441 398.94 278.761 401.49C187.021 405.42 72.6009 399.37 40.7909 378.2C25.7309 368.19 15.5509 337.25 9.1009 297.66C-6.9291 199.16 0.220901 47.1301 13.1609 30.6501C31.3109 7.56009 323.301 -15.3099 399.911 13.9301C432.741 26.4601 429.231 358.23 400.031 382.57H400.041Z" fill="white"/>
<path d="M373.314 247.44L375.204 241.883L377.358 247.44C377.358 247.44 381.657 248.14 381.712 248.531C381.757 248.913 377.595 250.095 377.595 250.095C377.595 250.095 375.85 255.488 375.204 254.27C374.568 253.051 373.95 250.35 373.95 250.35C373.95 250.35 368.533 249.268 368.533 248.731C368.533 248.158 373.314 247.449 373.314 247.449V247.44Z" fill="white"/>
<path d="M304.094 233.142L305.566 228.822L307.238 233.142C307.238 233.142 310.574 233.688 310.619 233.988C310.656 234.279 307.429 235.198 307.429 235.198C307.429 235.198 306.075 239.381 305.575 238.435C305.075 237.49 304.594 235.389 304.594 235.389C304.594 235.389 300.395 234.543 300.395 234.134C300.395 233.688 304.103 233.142 304.103 233.142H304.094Z" fill="white"/>
<g clip-path="url(#clip1_2414_15521)">
<path d="M247.586 152.768H304.334V213.768H299.472L298.799 213.194H247.586V152.768Z" fill="#008BCE"/>
<path d="M299.616 152.912H243.154V212.971H299.616V152.912Z" fill="white"/>
<path d="M299.472 213.608H243.298C243.046 213.608 242.844 213.404 242.844 213.154V153.056C242.844 152.804 243.048 152.602 243.298 152.602H299.472C299.724 152.602 299.927 152.806 299.927 153.056V213.154C299.927 213.406 299.722 213.608 299.472 213.608ZM243.752 212.697H299.016V153.51H243.752V212.697Z" fill="black"/>
<path d="M304.335 213.488H237.838V218.367H304.335V213.488Z" fill="#008BCE"/>
<path d="M282.054 213.01H215.844V218.225H282.054V213.01Z" fill="white"/>
<path d="M281.91 218.537H215.986C215.734 218.537 215.531 218.332 215.531 218.082V213.154C215.531 212.902 215.736 212.699 215.986 212.699H281.91C282.162 212.699 282.365 212.904 282.365 213.154V218.082C282.365 218.334 282.16 218.537 281.91 218.537ZM216.442 217.626H281.456V213.608H216.442V217.626Z" fill="black"/>
<path d="M364.166 18.4551H353.988V164.652H364.166C369.402 164.652 373.644 160.408 373.644 155.173V27.9361C373.644 22.6998 369.4 18.4571 364.166 18.4571V18.4551Z" fill="#008BCE"/>
<path d="M357.987 18.584H157.869C152.634 18.584 148.391 22.8278 148.391 28.0629V155.302C148.391 160.537 152.634 164.781 157.869 164.781H357.987C363.222 164.781 367.465 160.537 367.465 155.302V28.0629C367.465 22.8278 363.222 18.584 357.987 18.584Z" fill="white"/>
<path d="M357.987 165.108H157.87C152.393 165.108 147.936 160.651 147.936 155.173V27.9354C147.936 22.4575 152.393 18 157.87 18H357.987C363.464 18 367.921 22.4575 367.921 27.9354V155.173C367.921 160.651 363.464 165.108 357.987 165.108ZM157.87 18.9109C152.895 18.9109 148.846 22.9594 148.846 27.9354V155.173C148.846 160.149 152.895 164.197 157.87 164.197H357.987C362.962 164.197 367.01 160.149 367.01 155.173V27.9354C367.01 22.9594 362.962 18.9109 357.987 18.9109H157.87Z" fill="black"/>
<path d="M355.477 154.71H160.377C159.784 154.71 159.301 154.239 159.301 153.661V29.4477C159.301 28.8694 159.784 28.3984 160.377 28.3984H355.477C356.07 28.3984 356.553 28.8694 356.553 29.4477V153.663C356.553 154.241 356.07 154.712 355.477 154.712V154.71ZM160.377 29.3094C160.288 29.3094 160.212 29.3734 160.212 29.4477V153.663C160.212 153.737 160.286 153.801 160.377 153.801H355.477C355.568 153.801 355.642 153.74 355.642 153.663V29.4477C355.642 29.3713 355.568 29.3094 355.477 29.3094H160.377Z" fill="black"/>
<path d="M265.13 136.818H171.756V144.845H265.13V136.818Z" fill="#FF7DCE"/>
<path d="M183.759 143.062C183.507 143.062 183.305 142.858 183.305 142.608V138.029C183.305 137.777 183.509 137.574 183.759 137.574C184.009 137.574 184.213 137.779 184.213 138.029V142.608C184.213 142.86 184.009 143.062 183.759 143.062Z" fill="black"/>
<path d="M187.224 141.179C186.972 141.179 186.77 140.974 186.77 140.724V138.031C186.77 137.779 186.974 137.576 187.224 137.576C187.474 137.576 187.678 137.781 187.678 138.031V140.724C187.678 140.976 187.474 141.179 187.224 141.179Z" fill="black"/>
<path d="M190.691 143.062C190.439 143.062 190.236 142.858 190.236 142.608V138.029C190.236 137.777 190.441 137.574 190.691 137.574C190.941 137.574 191.145 137.779 191.145 138.029V142.608C191.145 142.86 190.941 143.062 190.691 143.062Z" fill="black"/>
<path d="M194.158 141.179C193.906 141.179 193.703 140.974 193.703 140.724V138.031C193.703 137.779 193.908 137.576 194.158 137.576C194.407 137.576 194.612 137.781 194.612 138.031V140.724C194.612 140.976 194.407 141.179 194.158 141.179Z" fill="black"/>
<path d="M197.624 143.062C197.372 143.062 197.17 142.858 197.17 142.608V138.029C197.17 137.777 197.374 137.574 197.624 137.574C197.874 137.574 198.079 137.779 198.079 138.029V142.608C198.079 142.86 197.874 143.062 197.624 143.062Z" fill="black"/>
<path d="M201.091 141.179C200.839 141.179 200.637 140.974 200.637 140.724V138.031C200.637 137.779 200.841 137.576 201.091 137.576C201.341 137.576 201.545 137.781 201.545 138.031V140.724C201.545 140.976 201.341 141.179 201.091 141.179Z" fill="black"/>
<path d="M204.558 143.062C204.306 143.062 204.104 142.858 204.104 142.608V138.029C204.104 137.777 204.308 137.574 204.558 137.574C204.808 137.574 205.012 137.779 205.012 138.029V142.608C205.012 142.86 204.808 143.062 204.558 143.062Z" fill="black"/>
<path d="M208.023 141.179C207.771 141.179 207.568 140.974 207.568 140.724V138.031C207.568 137.779 207.773 137.576 208.023 137.576C208.273 137.576 208.477 137.781 208.477 138.031V140.724C208.477 140.976 208.273 141.179 208.023 141.179Z" fill="black"/>
<path d="M211.491 143.062C211.24 143.062 211.037 142.858 211.037 142.608V138.029C211.037 137.777 211.242 137.574 211.491 137.574C211.741 137.574 211.946 137.779 211.946 138.029V142.608C211.946 142.86 211.741 143.062 211.491 143.062Z" fill="black"/>
<path d="M214.956 141.179C214.704 141.179 214.502 140.974 214.502 140.724V138.031C214.502 137.779 214.706 137.576 214.956 137.576C215.206 137.576 215.411 137.781 215.411 138.031V140.724C215.411 140.976 215.206 141.179 214.956 141.179Z" fill="black"/>
<path d="M218.425 143.062C218.173 143.062 217.971 142.858 217.971 142.608V138.029C217.971 137.777 218.175 137.574 218.425 137.574C218.675 137.574 218.879 137.779 218.879 138.029V142.608C218.879 142.86 218.675 143.062 218.425 143.062Z" fill="black"/>
<path d="M221.89 141.179C221.638 141.179 221.436 140.974 221.436 140.724V138.031C221.436 137.779 221.64 137.576 221.89 137.576C222.14 137.576 222.344 137.781 222.344 138.031V140.724C222.344 140.976 222.14 141.179 221.89 141.179Z" fill="black"/>
<path d="M225.357 143.062C225.105 143.062 224.902 142.858 224.902 142.608V138.029C224.902 137.777 225.107 137.574 225.357 137.574C225.607 137.574 225.811 137.779 225.811 138.029V142.608C225.811 142.86 225.607 143.062 225.357 143.062Z" fill="black"/>
<path d="M228.824 141.179C228.572 141.179 228.369 140.974 228.369 140.724V138.031C228.369 137.779 228.574 137.576 228.824 137.576C229.073 137.576 229.278 137.781 229.278 138.031V140.724C229.278 140.976 229.073 141.179 228.824 141.179Z" fill="black"/>
<path d="M232.288 143.062C232.036 143.062 231.834 142.858 231.834 142.608V138.029C231.834 137.777 232.038 137.574 232.288 137.574C232.538 137.574 232.743 137.779 232.743 138.029V142.608C232.743 142.86 232.538 143.062 232.288 143.062Z" fill="black"/>
<path d="M235.755 141.179C235.503 141.179 235.301 140.974 235.301 140.724V138.031C235.301 137.779 235.505 137.576 235.755 137.576C236.005 137.576 236.21 137.781 236.21 138.031V140.724C236.21 140.976 236.005 141.179 235.755 141.179Z" fill="black"/>
<path d="M239.222 143.062C238.97 143.062 238.768 142.858 238.768 142.608V138.029C238.768 137.777 238.972 137.574 239.222 137.574C239.472 137.574 239.676 137.779 239.676 138.029V142.608C239.676 142.86 239.472 143.062 239.222 143.062Z" fill="black"/>
<path d="M242.689 141.179C242.437 141.179 242.234 140.974 242.234 140.724V138.031C242.234 137.779 242.439 137.576 242.689 137.576C242.939 137.576 243.143 137.781 243.143 138.031V140.724C243.143 140.976 242.939 141.179 242.689 141.179Z" fill="black"/>
<path d="M246.156 143.062C245.904 143.062 245.701 142.858 245.701 142.608V138.029C245.701 137.777 245.906 137.574 246.156 137.574C246.405 137.574 246.61 137.779 246.61 138.029V142.608C246.61 142.86 246.405 143.062 246.156 143.062Z" fill="black"/>
<path d="M249.622 141.179C249.37 141.179 249.168 140.974 249.168 140.724V138.031C249.168 137.779 249.372 137.576 249.622 137.576C249.872 137.576 250.077 137.781 250.077 138.031V140.724C250.077 140.976 249.872 141.179 249.622 141.179Z" fill="black"/>
<path d="M253.087 143.062C252.835 143.062 252.633 142.858 252.633 142.608V138.029C252.633 137.777 252.837 137.574 253.087 137.574C253.337 137.574 253.542 137.779 253.542 138.029V142.608C253.542 142.86 253.337 143.062 253.087 143.062Z" fill="black"/>
<path d="M256.556 141.179C256.304 141.179 256.102 140.974 256.102 140.724V138.031C256.102 137.779 256.306 137.576 256.556 137.576C256.806 137.576 257.01 137.781 257.01 138.031V140.724C257.01 140.976 256.806 141.179 256.556 141.179Z" fill="black"/>
<path d="M260.021 143.062C259.769 143.062 259.566 142.858 259.566 142.608V138.029C259.566 137.777 259.771 137.574 260.021 137.574C260.271 137.574 260.475 137.779 260.475 138.029V142.608C260.475 142.86 260.271 143.062 260.021 143.062Z" fill="black"/>
<path d="M263.488 141.179C263.236 141.179 263.033 140.974 263.033 140.724V138.031C263.033 137.779 263.238 137.576 263.488 137.576C263.737 137.576 263.942 137.781 263.942 138.031V140.724C263.942 140.976 263.737 141.179 263.488 141.179Z" fill="black"/>
<path d="M266.954 143.062C266.702 143.062 266.5 142.858 266.5 142.608V138.029C266.5 137.777 266.704 137.574 266.954 137.574C267.204 137.574 267.409 137.779 267.409 138.029V142.608C267.409 142.86 267.204 143.062 266.954 143.062Z" fill="black"/>
<path d="M270.421 141.179C270.169 141.179 269.967 140.974 269.967 140.724V138.031C269.967 137.779 270.171 137.576 270.421 137.576C270.671 137.576 270.876 137.781 270.876 138.031V140.724C270.876 140.976 270.671 141.179 270.421 141.179Z" fill="black"/>
<path d="M273.888 143.062C273.636 143.062 273.434 142.858 273.434 142.608V138.029C273.434 137.777 273.638 137.574 273.888 137.574C274.138 137.574 274.342 137.779 274.342 138.029V142.608C274.342 142.86 274.138 143.062 273.888 143.062Z" fill="black"/>
<path d="M277.355 141.179C277.103 141.179 276.9 140.974 276.9 140.724V138.031C276.9 137.779 277.105 137.576 277.355 137.576C277.605 137.576 277.809 137.781 277.809 138.031V140.724C277.809 140.976 277.605 141.179 277.355 141.179Z" fill="black"/>
<path d="M280.82 143.062C280.568 143.062 280.365 142.858 280.365 142.608V138.029C280.365 137.777 280.57 137.574 280.82 137.574C281.07 137.574 281.274 137.779 281.274 138.029V142.608C281.274 142.86 281.07 143.062 280.82 143.062Z" fill="black"/>
<path d="M284.286 141.179C284.034 141.179 283.832 140.974 283.832 140.724V138.031C283.832 137.779 284.036 137.576 284.286 137.576C284.536 137.576 284.741 137.781 284.741 138.031V140.724C284.741 140.976 284.536 141.179 284.286 141.179Z" fill="black"/>
<path d="M287.753 143.062C287.501 143.062 287.299 142.858 287.299 142.608V138.029C287.299 137.777 287.503 137.574 287.753 137.574C288.003 137.574 288.208 137.779 288.208 138.029V142.608C288.208 142.86 288.003 143.062 287.753 143.062Z" fill="black"/>
<path d="M291.218 141.179C290.966 141.179 290.764 140.974 290.764 140.724V138.031C290.764 137.779 290.968 137.576 291.218 137.576C291.468 137.576 291.672 137.781 291.672 138.031V140.724C291.672 140.976 291.468 141.179 291.218 141.179Z" fill="black"/>
<path d="M294.687 143.062C294.435 143.062 294.232 142.858 294.232 142.608V138.029C294.232 137.777 294.437 137.574 294.687 137.574C294.937 137.574 295.141 137.779 295.141 138.029V142.608C295.141 142.86 294.937 143.062 294.687 143.062Z" fill="black"/>
<path d="M298.152 141.179C297.9 141.179 297.697 140.974 297.697 140.724V138.031C297.697 137.779 297.902 137.576 298.152 137.576C298.402 137.576 298.606 137.781 298.606 138.031V140.724C298.606 140.976 298.402 141.179 298.152 141.179Z" fill="black"/>
<path d="M301.62 143.062C301.368 143.062 301.166 142.858 301.166 142.608V138.029C301.166 137.777 301.37 137.574 301.62 137.574C301.87 137.574 302.075 137.779 302.075 138.029V142.608C302.075 142.86 301.87 143.062 301.62 143.062Z" fill="black"/>
<path d="M305.085 141.179C304.833 141.179 304.631 140.974 304.631 140.724V138.031C304.631 137.779 304.835 137.576 305.085 137.576C305.335 137.576 305.54 137.781 305.54 138.031V140.724C305.54 140.976 305.335 141.179 305.085 141.179Z" fill="black"/>
<path d="M308.552 143.062C308.3 143.062 308.098 142.858 308.098 142.608V138.029C308.098 137.777 308.302 137.574 308.552 137.574C308.802 137.574 309.006 137.779 309.006 138.029V142.608C309.006 142.86 308.802 143.062 308.552 143.062Z" fill="black"/>
<path d="M312.019 141.179C311.767 141.179 311.564 140.974 311.564 140.724V138.031C311.564 137.779 311.769 137.576 312.019 137.576C312.269 137.576 312.473 137.781 312.473 138.031V140.724C312.473 140.976 312.269 141.179 312.019 141.179Z" fill="black"/>
<path d="M315.486 143.062C315.234 143.062 315.031 142.858 315.031 142.608V138.029C315.031 137.777 315.236 137.574 315.486 137.574C315.736 137.574 315.94 137.779 315.94 138.029V142.608C315.94 142.86 315.736 143.062 315.486 143.062Z" fill="black"/>
<path d="M318.952 141.179C318.7 141.179 318.498 140.974 318.498 140.724V138.031C318.498 137.779 318.703 137.576 318.952 137.576C319.202 137.576 319.407 137.781 319.407 138.031V140.724C319.407 140.976 319.202 141.179 318.952 141.179Z" fill="black"/>
<path d="M322.419 143.062C322.167 143.062 321.965 142.858 321.965 142.608V138.029C321.965 137.777 322.169 137.574 322.419 137.574C322.669 137.574 322.874 137.779 322.874 138.029V142.608C322.874 142.86 322.669 143.062 322.419 143.062Z" fill="black"/>
<path d="M325.884 141.179C325.632 141.179 325.43 140.974 325.43 140.724V138.031C325.43 137.779 325.634 137.576 325.884 137.576C326.134 137.576 326.338 137.781 326.338 138.031V140.724C326.338 140.976 326.134 141.179 325.884 141.179Z" fill="black"/>
<path d="M329.351 143.062C329.099 143.062 328.896 142.858 328.896 142.608V138.029C328.896 137.777 329.101 137.574 329.351 137.574C329.601 137.574 329.805 137.779 329.805 138.029V142.608C329.805 142.86 329.601 143.062 329.351 143.062Z" fill="black"/>
<path d="M332.818 141.179C332.566 141.179 332.363 140.974 332.363 140.724V138.031C332.363 137.779 332.568 137.576 332.818 137.576C333.068 137.576 333.272 137.781 333.272 138.031V140.724C333.272 140.976 333.068 141.179 332.818 141.179Z" fill="black"/>
<path d="M336.284 143.062C336.032 143.062 335.83 142.858 335.83 142.608V138.029C335.83 137.777 336.035 137.574 336.284 137.574C336.534 137.574 336.739 137.779 336.739 138.029V142.608C336.739 142.86 336.534 143.062 336.284 143.062Z" fill="black"/>
<path d="M339.751 141.179C339.499 141.179 339.297 140.974 339.297 140.724V138.031C339.297 137.779 339.501 137.576 339.751 137.576C340.001 137.576 340.206 137.781 340.206 138.031V140.724C340.206 140.976 340.001 141.179 339.751 141.179Z" fill="black"/>
<path d="M343.216 143.062C342.964 143.062 342.762 142.858 342.762 142.608V138.029C342.762 137.777 342.966 137.574 343.216 137.574C343.466 137.574 343.67 137.779 343.67 138.029V142.608C343.67 142.86 343.466 143.062 343.216 143.062Z" fill="black"/>
<path d="M346.685 141.179C346.433 141.179 346.23 140.974 346.23 140.724V138.031C346.23 137.779 346.435 137.576 346.685 137.576C346.935 137.576 347.139 137.781 347.139 138.031V140.724C347.139 140.976 346.935 141.179 346.685 141.179Z" fill="black"/>
<path d="M300.138 125.596H171.756V133.623H300.138V125.596Z" fill="#FF7DCE"/>
<path d="M183.759 131.842C183.507 131.842 183.305 131.637 183.305 131.387V126.808C183.305 126.556 183.509 126.354 183.759 126.354C184.009 126.354 184.213 126.558 184.213 126.808V131.387C184.213 131.639 184.009 131.842 183.759 131.842Z" fill="black"/>
<path d="M187.224 129.956C186.972 129.956 186.77 129.751 186.77 129.501V126.808C186.77 126.556 186.974 126.354 187.224 126.354C187.474 126.354 187.678 126.558 187.678 126.808V129.501C187.678 129.753 187.474 129.956 187.224 129.956Z" fill="black"/>
<path d="M190.691 131.842C190.439 131.842 190.236 131.637 190.236 131.387V126.808C190.236 126.556 190.441 126.354 190.691 126.354C190.941 126.354 191.145 126.558 191.145 126.808V131.387C191.145 131.639 190.941 131.842 190.691 131.842Z" fill="black"/>
<path d="M194.158 129.956C193.906 129.956 193.703 129.751 193.703 129.501V126.808C193.703 126.556 193.908 126.354 194.158 126.354C194.407 126.354 194.612 126.558 194.612 126.808V129.501C194.612 129.753 194.407 129.956 194.158 129.956Z" fill="black"/>
<path d="M197.624 131.842C197.372 131.842 197.17 131.637 197.17 131.387V126.808C197.17 126.556 197.374 126.354 197.624 126.354C197.874 126.354 198.079 126.558 198.079 126.808V131.387C198.079 131.639 197.874 131.842 197.624 131.842Z" fill="black"/>
<path d="M201.091 129.956C200.839 129.956 200.637 129.751 200.637 129.501V126.808C200.637 126.556 200.841 126.354 201.091 126.354C201.341 126.354 201.545 126.558 201.545 126.808V129.501C201.545 129.753 201.341 129.956 201.091 129.956Z" fill="black"/>
<path d="M204.558 131.842C204.306 131.842 204.104 131.637 204.104 131.387V126.808C204.104 126.556 204.308 126.354 204.558 126.354C204.808 126.354 205.012 126.558 205.012 126.808V131.387C205.012 131.639 204.808 131.842 204.558 131.842Z" fill="black"/>
<path d="M208.023 129.956C207.771 129.956 207.568 129.751 207.568 129.501V126.808C207.568 126.556 207.773 126.354 208.023 126.354C208.273 126.354 208.477 126.558 208.477 126.808V129.501C208.477 129.753 208.273 129.956 208.023 129.956Z" fill="black"/>
<path d="M211.491 131.842C211.24 131.842 211.037 131.637 211.037 131.387V126.808C211.037 126.556 211.242 126.354 211.491 126.354C211.741 126.354 211.946 126.558 211.946 126.808V131.387C211.946 131.639 211.741 131.842 211.491 131.842Z" fill="black"/>
<path d="M214.956 129.956C214.704 129.956 214.502 129.751 214.502 129.501V126.808C214.502 126.556 214.706 126.354 214.956 126.354C215.206 126.354 215.411 126.558 215.411 126.808V129.501C215.411 129.753 215.206 129.956 214.956 129.956Z" fill="black"/>
<path d="M218.425 131.842C218.173 131.842 217.971 131.637 217.971 131.387V126.808C217.971 126.556 218.175 126.354 218.425 126.354C218.675 126.354 218.879 126.558 218.879 126.808V131.387C218.879 131.639 218.675 131.842 218.425 131.842Z" fill="black"/>
<path d="M221.89 129.956C221.638 129.956 221.436 129.751 221.436 129.501V126.808C221.436 126.556 221.64 126.354 221.89 126.354C222.14 126.354 222.344 126.558 222.344 126.808V129.501C222.344 129.753 222.14 129.956 221.89 129.956Z" fill="black"/>
<path d="M225.357 131.842C225.105 131.842 224.902 131.637 224.902 131.387V126.808C224.902 126.556 225.107 126.354 225.357 126.354C225.607 126.354 225.811 126.558 225.811 126.808V131.387C225.811 131.639 225.607 131.842 225.357 131.842Z" fill="black"/>
<path d="M228.824 129.956C228.572 129.956 228.369 129.751 228.369 129.501V126.808C228.369 126.556 228.574 126.354 228.824 126.354C229.073 126.354 229.278 126.558 229.278 126.808V129.501C229.278 129.753 229.073 129.956 228.824 129.956Z" fill="black"/>
<path d="M232.288 131.842C232.036 131.842 231.834 131.637 231.834 131.387V126.808C231.834 126.556 232.038 126.354 232.288 126.354C232.538 126.354 232.743 126.558 232.743 126.808V131.387C232.743 131.639 232.538 131.842 232.288 131.842Z" fill="black"/>
<path d="M235.755 129.956C235.503 129.956 235.301 129.751 235.301 129.501V126.808C235.301 126.556 235.505 126.354 235.755 126.354C236.005 126.354 236.21 126.558 236.21 126.808V129.501C236.21 129.753 236.005 129.956 235.755 129.956Z" fill="black"/>
<path d="M239.222 131.842C238.97 131.842 238.768 131.637 238.768 131.387V126.808C238.768 126.556 238.972 126.354 239.222 126.354C239.472 126.354 239.676 126.558 239.676 126.808V131.387C239.676 131.639 239.472 131.842 239.222 131.842Z" fill="black"/>
<path d="M242.689 129.956C242.437 129.956 242.234 129.751 242.234 129.501V126.808C242.234 126.556 242.439 126.354 242.689 126.354C242.939 126.354 243.143 126.558 243.143 126.808V129.501C243.143 129.753 242.939 129.956 242.689 129.956Z" fill="black"/>
<path d="M246.156 131.842C245.904 131.842 245.701 131.637 245.701 131.387V126.808C245.701 126.556 245.906 126.354 246.156 126.354C246.405 126.354 246.61 126.558 246.61 126.808V131.387C246.61 131.639 246.405 131.842 246.156 131.842Z" fill="black"/>
<path d="M249.622 129.956C249.37 129.956 249.168 129.751 249.168 129.501V126.808C249.168 126.556 249.372 126.354 249.622 126.354C249.872 126.354 250.077 126.558 250.077 126.808V129.501C250.077 129.753 249.872 129.956 249.622 129.956Z" fill="black"/>
<path d="M253.087 131.842C252.835 131.842 252.633 131.637 252.633 131.387V126.808C252.633 126.556 252.837 126.354 253.087 126.354C253.337 126.354 253.542 126.558 253.542 126.808V131.387C253.542 131.639 253.337 131.842 253.087 131.842Z" fill="black"/>
<path d="M256.556 129.956C256.304 129.956 256.102 129.751 256.102 129.501V126.808C256.102 126.556 256.306 126.354 256.556 126.354C256.806 126.354 257.01 126.558 257.01 126.808V129.501C257.01 129.753 256.806 129.956 256.556 129.956Z" fill="black"/>
<path d="M260.021 131.842C259.769 131.842 259.566 131.637 259.566 131.387V126.808C259.566 126.556 259.771 126.354 260.021 126.354C260.271 126.354 260.475 126.558 260.475 126.808V131.387C260.475 131.639 260.271 131.842 260.021 131.842Z" fill="black"/>
<path d="M263.488 129.956C263.236 129.956 263.033 129.751 263.033 129.501V126.808C263.033 126.556 263.238 126.354 263.488 126.354C263.737 126.354 263.942 126.558 263.942 126.808V129.501C263.942 129.753 263.737 129.956 263.488 129.956Z" fill="black"/>
<path d="M266.954 131.842C266.702 131.842 266.5 131.637 266.5 131.387V126.808C266.5 126.556 266.704 126.354 266.954 126.354C267.204 126.354 267.409 126.558 267.409 126.808V131.387C267.409 131.639 267.204 131.842 266.954 131.842Z" fill="black"/>
<path d="M270.421 129.956C270.169 129.956 269.967 129.751 269.967 129.501V126.808C269.967 126.556 270.171 126.354 270.421 126.354C270.671 126.354 270.876 126.558 270.876 126.808V129.501C270.876 129.753 270.671 129.956 270.421 129.956Z" fill="black"/>
<path d="M273.888 131.842C273.636 131.842 273.434 131.637 273.434 131.387V126.808C273.434 126.556 273.638 126.354 273.888 126.354C274.138 126.354 274.342 126.558 274.342 126.808V131.387C274.342 131.639 274.138 131.842 273.888 131.842Z" fill="black"/>
<path d="M277.355 129.956C277.103 129.956 276.9 129.751 276.9 129.501V126.808C276.9 126.556 277.105 126.354 277.355 126.354C277.605 126.354 277.809 126.558 277.809 126.808V129.501C277.809 129.753 277.605 129.956 277.355 129.956Z" fill="black"/>
<path d="M280.82 131.842C280.568 131.842 280.365 131.637 280.365 131.387V126.808C280.365 126.556 280.57 126.354 280.82 126.354C281.07 126.354 281.274 126.558 281.274 126.808V131.387C281.274 131.639 281.07 131.842 280.82 131.842Z" fill="black"/>
<path d="M284.286 129.956C284.034 129.956 283.832 129.751 283.832 129.501V126.808C283.832 126.556 284.036 126.354 284.286 126.354C284.536 126.354 284.741 126.558 284.741 126.808V129.501C284.741 129.753 284.536 129.956 284.286 129.956Z" fill="black"/>
<path d="M287.753 131.842C287.501 131.842 287.299 131.637 287.299 131.387V126.808C287.299 126.556 287.503 126.354 287.753 126.354C288.003 126.354 288.208 126.558 288.208 126.808V131.387C288.208 131.639 288.003 131.842 287.753 131.842Z" fill="black"/>
<path d="M291.218 129.956C290.966 129.956 290.764 129.751 290.764 129.501V126.808C290.764 126.556 290.968 126.354 291.218 126.354C291.468 126.354 291.672 126.558 291.672 126.808V129.501C291.672 129.753 291.468 129.956 291.218 129.956Z" fill="black"/>
<path d="M294.687 131.842C294.435 131.842 294.232 131.637 294.232 131.387V126.808C294.232 126.556 294.437 126.354 294.687 126.354C294.937 126.354 295.141 126.558 295.141 126.808V131.387C295.141 131.639 294.937 131.842 294.687 131.842Z" fill="black"/>
<path d="M298.152 129.956C297.9 129.956 297.697 129.751 297.697 129.501V126.808C297.697 126.556 297.902 126.354 298.152 126.354C298.402 126.354 298.606 126.558 298.606 126.808V129.501C298.606 129.753 298.402 129.956 298.152 129.956Z" fill="black"/>
<path d="M301.62 131.842C301.368 131.842 301.166 131.637 301.166 131.387V126.808C301.166 126.556 301.37 126.354 301.62 126.354C301.87 126.354 302.075 126.558 302.075 126.808V131.387C302.075 131.639 301.87 131.842 301.62 131.842Z" fill="black"/>
<path d="M305.085 129.956C304.833 129.956 304.631 129.751 304.631 129.501V126.808C304.631 126.556 304.835 126.354 305.085 126.354C305.335 126.354 305.54 126.558 305.54 126.808V129.501C305.54 129.753 305.335 129.956 305.085 129.956Z" fill="black"/>
<path d="M308.552 131.842C308.3 131.842 308.098 131.637 308.098 131.387V126.808C308.098 126.556 308.302 126.354 308.552 126.354C308.802 126.354 309.006 126.558 309.006 126.808V131.387C309.006 131.639 308.802 131.842 308.552 131.842Z" fill="black"/>
<path d="M312.019 129.956C311.767 129.956 311.564 129.751 311.564 129.501V126.808C311.564 126.556 311.769 126.354 312.019 126.354C312.269 126.354 312.473 126.558 312.473 126.808V129.501C312.473 129.753 312.269 129.956 312.019 129.956Z" fill="black"/>
<path d="M315.486 131.842C315.234 131.842 315.031 131.637 315.031 131.387V126.808C315.031 126.556 315.236 126.354 315.486 126.354C315.736 126.354 315.94 126.558 315.94 126.808V131.387C315.94 131.639 315.736 131.842 315.486 131.842Z" fill="black"/>
<path d="M318.952 129.956C318.7 129.956 318.498 129.751 318.498 129.501V126.808C318.498 126.556 318.703 126.354 318.952 126.354C319.202 126.354 319.407 126.558 319.407 126.808V129.501C319.407 129.753 319.202 129.956 318.952 129.956Z" fill="black"/>
<path d="M322.419 131.842C322.167 131.842 321.965 131.637 321.965 131.387V126.808C321.965 126.556 322.169 126.354 322.419 126.354C322.669 126.354 322.874 126.558 322.874 126.808V131.387C322.874 131.639 322.669 131.842 322.419 131.842Z" fill="black"/>
<path d="M325.884 129.956C325.632 129.956 325.43 129.751 325.43 129.501V126.808C325.43 126.556 325.634 126.354 325.884 126.354C326.134 126.354 326.338 126.558 326.338 126.808V129.501C326.338 129.753 326.134 129.956 325.884 129.956Z" fill="black"/>
<path d="M329.351 131.842C329.099 131.842 328.896 131.637 328.896 131.387V126.808C328.896 126.556 329.101 126.354 329.351 126.354C329.601 126.354 329.805 126.558 329.805 126.808V131.387C329.805 131.639 329.601 131.842 329.351 131.842Z" fill="black"/>
<path d="M332.818 129.956C332.566 129.956 332.363 129.751 332.363 129.501V126.808C332.363 126.556 332.568 126.354 332.818 126.354C333.068 126.354 333.272 126.558 333.272 126.808V129.501C333.272 129.753 333.068 129.956 332.818 129.956Z" fill="black"/>
<path d="M336.284 131.842C336.032 131.842 335.83 131.637 335.83 131.387V126.808C335.83 126.556 336.035 126.354 336.284 126.354C336.534 126.354 336.739 126.558 336.739 126.808V131.387C336.739 131.639 336.534 131.842 336.284 131.842Z" fill="black"/>
<path d="M339.751 129.956C339.499 129.956 339.297 129.751 339.297 129.501V126.808C339.297 126.556 339.501 126.354 339.751 126.354C340.001 126.354 340.206 126.558 340.206 126.808V129.501C340.206 129.753 340.001 129.956 339.751 129.956Z" fill="black"/>
<path d="M343.216 131.842C342.964 131.842 342.762 131.637 342.762 131.387V126.808C342.762 126.556 342.966 126.354 343.216 126.354C343.466 126.354 343.67 126.558 343.67 126.808V131.387C343.67 131.639 343.466 131.842 343.216 131.842Z" fill="black"/>
<path d="M346.685 129.956C346.433 129.956 346.23 129.751 346.23 129.501V126.808C346.23 126.556 346.435 126.354 346.685 126.354C346.935 126.354 347.139 126.558 347.139 126.808V129.501C347.139 129.753 346.935 129.956 346.685 129.956Z" fill="black"/>
<path d="M289.595 38.8984H172.203V117.425H289.595V38.8984Z" fill="#008BCE"/>
<path d="M289.729 117.88H171.74C171.488 117.88 171.285 117.676 171.285 117.426V38.9134C171.285 38.6614 171.49 38.459 171.74 38.459H289.729C289.98 38.459 290.183 38.6635 290.183 38.9134V117.426C290.183 117.678 289.978 117.88 289.729 117.88ZM172.194 116.969H289.272V39.3678H172.194V116.969Z" fill="black"/>
<path d="M232.256 92.5899C240.91 92.5899 247.926 85.5864 247.926 76.9473C247.926 68.3081 240.91 61.3047 232.256 61.3047C223.602 61.3047 216.586 68.3081 216.586 76.9473C216.586 85.5864 223.602 92.5899 232.256 92.5899Z" fill="white"/>
<path d="M239.056 77.1687L229.262 71.5234V82.8118L239.056 77.1687Z" fill="black"/>
<path d="M186.858 43.4805H177.463V50.2287H186.858V43.4805Z" fill="white"/>
<path d="M203.188 43.4805H193.793V50.2287H203.188V43.4805Z" fill="white"/>
<path d="M219.442 43.4805H210.047V50.2287H219.442V43.4805Z" fill="white"/>
<path d="M235.772 43.4805H226.377V50.2287H235.772V43.4805Z" fill="white"/>
<path d="M251.675 43.4805H242.279V50.2287H251.675V43.4805Z" fill="white"/>
<path d="M268.003 43.4805H258.607V50.2287H268.003V43.4805Z" fill="white"/>
<path d="M284.335 43.4805H274.939V50.2287H284.335V43.4805Z" fill="white"/>
<path d="M186.858 106.66H177.463V113.408H186.858V106.66Z" fill="white"/>
<path d="M203.188 106.66H193.793V113.408H203.188V106.66Z" fill="white"/>
<path d="M219.442 106.66H210.047V113.408H219.442V106.66Z" fill="white"/>
<path d="M235.772 106.66H226.377V113.408H235.772V106.66Z" fill="white"/>
<path d="M251.675 106.66H242.279V113.408H251.675V106.66Z" fill="white"/>
<path d="M268.003 106.66H258.607V113.408H268.003V106.66Z" fill="white"/>
<path d="M284.335 106.66H274.939V113.408H284.335V106.66Z" fill="white"/>
<path d="M304.559 74.4328H300.478C300.226 74.4328 300.023 74.2283 300.023 73.9784V64.0306C300.023 63.7786 300.228 63.5762 300.478 63.5762H304.559C304.811 63.5762 305.013 63.7807 305.013 64.0306V73.9784C305.013 74.2304 304.809 74.4328 304.559 74.4328ZM300.932 73.5219H304.103V64.485H300.932V73.5219Z" fill="#008BCE"/>
<path d="M312.27 74.4324H308.189C307.937 74.4324 307.734 74.2279 307.734 73.9779V56.2533C307.734 56.0013 307.939 55.7988 308.189 55.7988H312.27C312.522 55.7988 312.724 56.0033 312.724 56.2533V73.9779C312.724 74.2299 312.52 74.4324 312.27 74.4324ZM308.645 73.5214H311.816V56.7077H308.645V73.5214Z" fill="#008BCE"/>
<path d="M319.981 74.4334H315.9C315.648 74.4334 315.445 74.2289 315.445 73.9789V59.429C315.445 59.177 315.65 58.9746 315.9 58.9746H319.981C320.233 58.9746 320.435 59.1791 320.435 59.429V73.9789C320.435 74.2309 320.231 74.4334 319.981 74.4334ZM316.354 73.5224H319.524V59.8835H316.354V73.5224Z" fill="#008BCE"/>
<path d="M327.692 74.4326H323.611C323.359 74.4326 323.156 74.2281 323.156 73.9782V55.89C323.156 55.638 323.361 55.4355 323.611 55.4355H327.692C327.944 55.4355 328.146 55.64 328.146 55.89V73.9782C328.146 74.2302 327.942 74.4326 327.692 74.4326ZM324.067 73.5217H327.237V56.3444H324.067V73.5217Z" fill="#008BCE"/>
<path d="M335.403 74.433H331.322C331.07 74.433 330.867 74.2285 330.867 73.9785V51.7943C330.867 51.5423 331.072 51.3398 331.322 51.3398H335.403C335.655 51.3398 335.857 51.5443 335.857 51.7943V73.9785C335.857 74.2305 335.653 74.433 335.403 74.433ZM331.776 73.522H334.946V52.2487H331.776V73.522Z" fill="#008BCE"/>
<path d="M343.114 74.4332H339.033C338.781 74.4332 338.578 74.2287 338.578 73.9788V46.5521C338.578 46.3001 338.783 46.0977 339.033 46.0977H343.114C343.366 46.0977 343.568 46.3021 343.568 46.5521V73.9788C343.568 74.2308 343.364 74.4332 343.114 74.4332ZM339.489 73.5223H342.659V47.0065H339.489V73.5223Z" fill="#008BCE"/>
<path d="M348.703 79.2912H295.8C295.548 79.2912 295.346 79.0868 295.346 78.8368V38.9134C295.346 38.6614 295.55 38.459 295.8 38.459H348.703C348.955 38.459 349.157 38.6635 349.157 38.9134V78.8368C349.157 79.0888 348.953 79.2912 348.703 79.2912ZM296.254 78.3803H348.246V39.3678H296.254V78.3803Z" fill="#008BCE"/>
<path d="M348.703 98.4626H295.8C295.548 98.4626 295.346 98.2581 295.346 98.0082V82.8138C295.346 82.5618 295.55 82.3594 295.8 82.3594H348.703C348.955 82.3594 349.157 82.5639 349.157 82.8138V98.0082C349.157 98.2602 348.953 98.4626 348.703 98.4626ZM296.254 97.5517H348.246V83.2662H296.254V97.5517Z" fill="#008BCE"/>
<path d="M348.703 117.881H295.8C295.548 117.881 295.346 117.676 295.346 117.426V102.232C295.346 101.98 295.55 101.777 295.8 101.777H348.703C348.955 101.777 349.157 101.982 349.157 102.232V117.426C349.157 117.678 348.953 117.881 348.703 117.881ZM296.254 116.97H348.246V102.684H296.254V116.97Z" fill="#008BCE"/>
<path d="M92.9253 263.703H81.5781V369.944H92.9253V263.703Z" fill="black"/>
<path d="M33.8522 393.604C36.2308 391.225 36.2308 387.368 33.8522 384.99C31.4736 382.611 27.6171 382.611 25.2385 384.99C22.8599 387.368 22.8599 391.225 25.2385 393.604C27.6171 395.983 31.4736 395.983 33.8522 393.604Z" fill="white"/>
<path d="M29.5452 395.842C25.9349 395.842 23 392.904 23 389.296C23 385.687 25.937 382.75 29.5452 382.75C33.1534 382.75 36.0904 385.687 36.0904 389.296C36.0904 392.904 33.1534 395.842 29.5452 395.842ZM29.5452 383.661C26.4389 383.661 23.9108 386.189 23.9108 389.296C23.9108 392.402 26.4389 394.931 29.5452 394.931C32.6515 394.931 35.1795 392.402 35.1795 389.296C35.1795 386.189 32.6515 383.661 29.5452 383.661Z" fill="black"/>
<path d="M50.8483 393.602C53.2269 391.223 53.2269 387.366 50.8483 384.988C48.4697 382.609 44.6132 382.609 42.2346 384.988C39.856 387.366 39.856 391.223 42.2346 393.602C44.6132 395.981 48.4697 395.981 50.8483 393.602Z" fill="white"/>
<path d="M46.5413 395.842C42.931 395.842 39.9961 392.904 39.9961 389.296C39.9961 385.687 42.9331 382.75 46.5413 382.75C50.1495 382.75 53.0865 385.687 53.0865 389.296C53.0865 392.904 50.1495 395.842 46.5413 395.842ZM46.5413 383.661C43.435 383.661 40.9069 386.189 40.9069 389.296C40.9069 392.402 43.435 394.931 46.5413 394.931C49.6476 394.931 52.1756 392.402 52.1756 389.296C52.1756 386.189 49.6476 383.661 46.5413 383.661Z" fill="black"/>
<path d="M133.757 390.677C134.53 387.402 132.502 384.122 129.228 383.349C125.954 382.576 122.674 384.604 121.901 387.878C121.128 391.152 123.156 394.433 126.43 395.206C129.704 395.979 132.984 393.951 133.757 390.677Z" fill="white"/>
<path d="M127.83 395.842C124.22 395.842 121.285 392.904 121.285 389.296C121.285 385.687 124.222 382.75 127.83 382.75C131.439 382.75 134.376 385.687 134.376 389.296C134.376 392.904 131.439 395.842 127.83 395.842ZM127.83 383.661C124.724 383.661 122.196 386.189 122.196 389.296C122.196 392.402 124.724 394.931 127.83 394.931C130.937 394.931 133.465 392.402 133.465 389.296C133.465 386.189 130.937 383.661 127.83 383.661Z" fill="black"/>
<path d="M150.751 390.679C151.524 387.404 149.496 384.124 146.222 383.351C142.948 382.578 139.668 384.606 138.895 387.88C138.123 391.154 140.15 394.435 143.424 395.208C146.698 395.981 149.978 393.953 150.751 390.679Z" fill="white"/>
<path d="M144.824 395.842C141.214 395.842 138.279 392.904 138.279 389.296C138.279 385.687 141.216 382.75 144.824 382.75C148.433 382.75 151.37 385.687 151.37 389.296C151.37 392.904 148.433 395.842 144.824 395.842ZM144.824 383.661C141.718 383.661 139.19 386.189 139.19 389.296C139.19 392.402 141.718 394.931 144.824 394.931C147.931 394.931 150.459 392.402 150.459 389.296C150.459 386.189 147.931 383.661 144.824 383.661Z" fill="black"/>
<path d="M127.926 389.869C127.674 389.869 127.472 389.665 127.472 389.415C127.472 378.93 118.944 370.401 108.46 370.401H49.0143C38.5305 370.401 30.0025 378.93 30.0025 389.415C30.0025 389.667 29.798 389.869 29.5481 389.869C29.2982 389.869 29.0938 389.665 29.0938 389.415C29.0938 378.428 38.0306 369.49 49.0164 369.49H108.46C119.446 369.49 128.383 378.428 128.383 389.415C128.383 389.667 128.178 389.869 127.928 389.869H127.926Z" fill="black"/>
<path d="M144.919 389.869C144.667 389.869 144.464 389.665 144.464 389.415C144.464 378.93 135.934 370.401 125.452 370.401H66.0065C55.5227 370.401 46.9947 378.93 46.9947 389.415C46.9947 389.667 46.7902 389.869 46.5403 389.869C46.2904 389.869 46.0859 389.665 46.0859 389.415C46.0859 378.428 55.0228 369.49 66.0086 369.49H125.452C136.438 369.49 145.375 378.428 145.375 389.415C145.375 389.667 145.17 389.869 144.921 389.869H144.919Z" fill="black"/>
<path d="M104.16 326.605L87.168 362.073H114.268L131.163 326.806L104.16 326.605Z" fill="#FFBFBF"/>
<path d="M176.515 358.432H148.116L126.116 340.49H122.444C119.808 340.49 117.516 342.347 116.9 344.979L116.751 345.611C115.558 350.727 112.143 355.001 107.49 357.207L105.555 358.124L92.4047 346.817L69.0039 393.689H109.948C111.685 390.52 118.395 388.16 126.417 388.16C134.439 388.16 141.15 390.52 142.887 393.689H166.44L183.269 383.184C194.503 376.171 189.659 358.432 176.513 358.432H176.515Z" fill="#008BCE"/>
<path d="M77.0733 377.525L69.0039 393.689H109.948C111.685 390.52 118.395 388.159 126.417 388.159C134.439 388.159 141.15 390.52 142.887 393.689H166.44L183.269 383.183C185.657 381.692 187.313 379.713 188.323 377.525H77.0733Z" fill="black"/>
<path d="M141.885 354.549H130.187C129.935 354.549 129.732 354.345 129.732 354.095C129.732 353.845 129.937 353.641 130.187 353.641H141.885C142.137 353.641 142.339 353.845 142.339 354.095C142.339 354.345 142.135 354.549 141.885 354.549Z" fill="black"/>
<path d="M136.629 349.835H124.931C124.679 349.835 124.477 349.63 124.477 349.38C124.477 349.13 124.681 348.926 124.931 348.926H136.629C136.881 348.926 137.084 349.13 137.084 349.38C137.084 349.63 136.879 349.835 136.629 349.835Z" fill="black"/>
<path d="M247.111 351.839L275.167 340.654L234.095 275.537L215.166 301.192L247.111 351.839Z" fill="#FFBFBF"/>
<path d="M313.491 307.185L288.878 320.303L261.943 314.916L258.562 316.72C256.393 317.874 255.28 320.407 255.871 322.84L256.168 324.071C257.316 328.811 256.286 333.831 253.372 337.691L251.858 339.697L235.502 335.973L235.773 387.408L271.26 368.493C271.376 364.944 276.157 359.797 283.109 356.091C290.061 352.386 296.914 351.332 299.808 353.276L320.222 342.395L330.202 325.515C336.863 314.247 324.887 301.11 313.493 307.183L313.491 307.185Z" fill="#008BCE"/>
<path d="M235.768 387.863C235.687 387.863 235.607 387.843 235.535 387.799C235.398 387.719 235.314 387.57 235.314 387.411L235.043 335.976C235.043 335.838 235.105 335.706 235.212 335.619C235.322 335.532 235.462 335.497 235.599 335.53L251.667 339.19L253.004 337.418C255.854 333.642 256.845 328.817 255.722 324.178L255.424 322.947C254.782 320.301 255.984 317.576 258.345 316.318L261.728 314.515C261.821 314.465 261.928 314.451 262.031 314.469L288.807 319.823L313.277 306.781C318.526 303.985 324.588 304.97 328.722 309.293C333.076 313.846 333.809 320.303 330.592 325.747L320.612 342.627C320.57 342.7 320.508 342.758 320.434 342.797L300.02 353.678C299.871 353.757 299.691 353.748 299.551 353.653C296.754 351.776 289.928 352.97 283.321 356.494C276.708 360.019 271.825 365.072 271.712 368.507C271.706 368.67 271.615 368.817 271.472 368.893L235.985 387.808C235.917 387.843 235.844 387.861 235.77 387.861L235.768 387.863ZM235.956 336.544L236.218 386.651L270.815 368.209C271.156 364.432 276.057 359.33 282.89 355.688C289.718 352.048 296.604 350.867 299.822 352.749L319.891 342.051L329.807 325.281C333.458 319.105 331.149 313.147 328.064 309.921C324.22 305.901 318.583 304.984 313.705 307.585L289.092 320.703C288.999 320.753 288.892 320.767 288.788 320.749L262.013 315.395L258.774 317.122C256.781 318.183 255.767 320.491 256.31 322.732L256.608 323.963C257.795 328.867 256.748 333.971 253.731 337.965L252.217 339.971C252.109 340.114 251.925 340.182 251.752 340.14L235.956 336.542V336.544Z" fill="black"/>
<path d="M235.676 369.671L235.769 387.406L271.256 368.492C271.372 364.943 276.153 359.796 283.105 356.09C290.057 352.384 296.91 351.331 299.804 353.274L320.218 342.393L330.198 325.513C331.615 323.117 332.181 320.638 332.098 318.275L235.676 369.669V369.671Z" fill="black"/>
<path d="M271.435 325.281C271.272 325.281 271.115 325.194 271.032 325.039C270.914 324.818 270.997 324.541 271.22 324.423L281.359 319.02C281.582 318.902 281.857 318.987 281.974 319.208C282.092 319.429 282.01 319.706 281.786 319.823L271.648 325.227C271.579 325.262 271.505 325.281 271.433 325.281H271.435Z" fill="black"/>
<path d="M264.814 323.626C264.651 323.626 264.494 323.54 264.411 323.385C264.293 323.164 264.376 322.887 264.599 322.769L274.738 317.366C274.961 317.248 275.236 317.333 275.353 317.554C275.471 317.775 275.388 318.051 275.165 318.169L265.026 323.573C264.958 323.608 264.884 323.626 264.812 323.626H264.814Z" fill="black"/>
<path d="M75.3105 191.723H186.893C198.083 191.723 205.285 203.903 200.117 214.093L139.073 334.576H86.7672L138.623 232.309C139.889 229.814 138.125 226.829 135.384 226.829H75.3105V191.721V191.723Z" fill="white"/>
<path d="M139.351 335.031H86.0252L138.217 232.104C138.752 231.051 138.703 229.822 138.085 228.818C137.496 227.859 136.487 227.287 135.386 227.287H74.8535V191.268H186.892C192.202 191.268 197.062 194.017 199.89 198.623C202.833 203.415 203.07 209.275 200.524 214.297L139.351 335.029V335.031ZM87.5081 334.121H138.791L199.71 213.888C202.112 209.149 201.889 203.622 199.113 199.102C196.451 194.769 191.882 192.181 186.89 192.181H75.7643V226.378H135.386C136.807 226.378 138.106 227.114 138.862 228.345C139.644 229.621 139.709 231.183 139.029 232.519L87.5081 334.125V334.121Z" fill="black"/>
<path d="M138.899 229.57C138.901 229.618 139.352 230.874 138.623 232.309L121.346 266.348C141.869 261.859 146.678 266.199 147.807 268.383C153.027 278.485 159.588 280.784 166.427 280.534L192.269 229.568H138.899V229.57Z" fill="black"/>
<path d="M171.441 276.157H32.6992V255.793H113.794C139.044 255.793 161.8 263.832 171.441 276.157Z" fill="#008BCE"/>
<path d="M171.44 276.611H32.6985C32.4465 276.611 32.2441 276.407 32.2441 276.157V255.792C32.2441 255.54 32.4486 255.338 32.6985 255.338H113.794C139.27 255.338 162.039 263.4 171.8 275.876C171.907 276.012 171.926 276.2 171.851 276.357C171.775 276.514 171.616 276.613 171.442 276.613L171.44 276.611ZM33.155 275.7H170.488C160.583 263.856 138.496 256.247 113.796 256.247H33.155V275.7Z" fill="black"/>
<path d="M179.449 208.327H113.6L113.871 192.749L60.9972 191.623L52.2462 208.495C41.0807 230.024 56.2819 256.007 80.0441 256.007H167.399C173.083 256.007 178.383 258.957 181.481 263.848L222.737 328.942L264.036 306.93L213.026 226.957C205.611 215.332 192.985 208.327 179.449 208.327Z" fill="white"/>
<path d="M222.579 329.544L222.352 329.186L181.096 264.092C178.068 259.314 172.948 256.462 167.398 256.462H80.0427C68.9433 256.462 58.8127 250.697 52.9408 241.038C46.8293 230.983 46.4183 218.738 51.8399 208.284C51.9556 208.061 52.2303 207.972 52.4534 208.09C52.6764 208.206 52.7632 208.48 52.6475 208.703C47.3725 218.874 47.7732 230.784 53.7174 240.565C59.4199 249.949 69.2614 255.551 80.0406 255.551H167.396C173.259 255.551 178.667 258.562 181.864 263.604L222.893 328.341L263.386 306.758L212.64 227.201C205.283 215.666 192.874 208.782 179.447 208.782H113.597C113.345 208.782 113.142 208.577 113.142 208.327C113.142 208.078 113.347 207.873 113.597 207.873H179.447C193.186 207.873 205.882 214.917 213.408 226.713L264.686 307.101L222.579 329.544Z" fill="black"/>
<path d="M94.506 87.6699C91.5752 95.6905 83.8032 101.284 74.8621 100.98C69.17 100.786 64.1098 98.2374 60.5615 94.2963C59.1405 97.1013 58.2895 100.258 58.1801 103.614C57.7815 115.826 67.2801 126.061 79.3977 126.474C91.5153 126.887 101.66 117.323 102.061 105.112C102.288 98.1837 99.3245 91.894 94.508 87.6699H94.506Z" fill="black"/>
<path d="M95.4297 96.5312L95.438 110.019L106.391 126.808L106.812 100.797L95.4297 96.5312Z" fill="#FFBFBF"/>
<path d="M106.595 106.352C106.667 104.499 106.74 102.649 106.812 100.796L95.0723 97.1934C95.2106 98.1477 95.7889 101.355 98.3583 103.836C101.793 107.151 105.988 106.464 106.595 106.352Z" fill="black"/>
<path d="M103.69 103.174C109.415 103.174 114.057 97.9685 114.057 91.547C114.057 85.1256 109.415 79.9199 103.69 79.9199C97.9653 79.9199 93.3242 85.1256 93.3242 91.547C93.3242 97.9685 97.9653 103.174 103.69 103.174Z" fill="#FFBFBF"/>
<path d="M100.934 95.668C101.093 96.4859 101.5 97.2626 102.158 97.8657C103.627 99.2104 105.816 99.2373 107.316 98.0207L100.936 95.668H100.934Z" fill="white"/>
<path d="M111.353 83.735C109.457 81.3968 106.73 79.9199 103.69 79.9199C97.9649 79.9199 92.7891 84.1647 92.7891 90.5865C92.7891 91.3549 93.1237 93.3069 93.2496 94.034C95.8954 92.9041 102.744 89.4071 106.497 83.6524C106.497 83.6524 106.367 87.4841 101.02 92.8008C101.02 92.8008 108.889 90.4254 111.353 83.735Z" fill="black"/>
<path d="M115.875 86.0791C115.643 86.0791 115.445 85.9035 115.422 85.6681C114.761 78.9673 109.718 73.9149 103.691 73.9149C97.6641 73.9149 92.639 78.9529 91.9636 85.6329C91.9389 85.8829 91.7199 86.0626 91.4638 86.0399C91.2139 86.0151 91.0322 85.792 91.0569 85.54C91.7798 78.3931 97.2097 73.002 103.691 73.002C110.172 73.002 115.621 78.4076 116.327 85.5751C116.352 85.825 116.168 86.0481 115.918 86.0729C115.903 86.0729 115.887 86.075 115.872 86.075L115.875 86.0791Z" fill="black"/>
<path d="M94.6142 83.7695C90.4173 83.7695 87.0156 87.2046 87.0156 91.4411C87.0156 95.6776 90.4173 99.1126 94.6142 99.1126V83.7695Z" fill="white"/>
<path d="M95.0699 99.5665H94.6155C90.175 99.5665 86.5605 95.9208 86.5605 91.4405C86.5605 86.9603 90.1729 83.3125 94.6155 83.3125H95.0699V99.5665ZM94.1591 84.2379C90.4311 84.4754 87.4714 87.6151 87.4714 91.4405C87.4714 95.266 90.4311 98.4036 94.1591 98.6411V84.2379Z" fill="black"/>
<path d="M112.77 83.7695C116.966 83.7695 120.368 87.2046 120.368 91.4411C120.368 95.6776 116.966 99.1126 112.77 99.1126V83.7695Z" fill="white"/>
<path d="M112.769 99.5665H112.314V83.3125H112.769C117.211 83.3125 120.824 86.9582 120.824 91.4405C120.824 95.9228 117.211 99.5665 112.769 99.5665ZM113.223 84.2379V98.6411C116.951 98.4036 119.913 95.2639 119.913 91.4405C119.913 87.6172 116.951 84.4775 113.223 84.2379Z" fill="black"/>
<path d="M220.689 195.131H200.043C190.949 195.131 183.58 202.503 183.58 211.596C183.58 215.605 186.829 218.854 190.838 218.854H227.253C231.261 218.854 234.51 215.605 234.51 211.596V208.952C234.51 201.319 228.322 195.131 220.691 195.131H220.689Z" fill="black"/>
<path d="M116.919 126.623C117.687 130.573 120.296 133.82 123.817 135.708C127.76 137.823 130.432 142.018 130.401 146.837C130.381 150.131 129.1 153.116 127.023 155.337C124.651 157.871 123.825 161.505 124.618 164.898L130.432 189.799H66.2363L67.0749 140.198C67.2959 127.142 77.9429 116.432 91.0023 116.432L106.947 116.578C112.462 116.63 116.908 121.108 116.921 126.623H116.919Z" fill="#A0D2F4"/>
<path d="M90.8337 117.555H110.783V108.481H90.8337V117.555Z" fill="#A0D2F4"/>
<path d="M111.545 158.712C111.4 158.712 111.26 158.643 111.171 158.515C111.026 158.309 111.078 158.026 111.285 157.881C114.624 155.555 116.557 151.732 116.456 147.65C116.293 141.067 111.053 135.906 104.527 135.897C104.275 135.897 104.072 135.693 104.072 135.441C104.072 135.189 104.277 134.986 104.527 134.986C111.551 134.995 117.189 140.547 117.365 147.628C117.475 152.015 115.395 156.127 111.803 158.629C111.725 158.685 111.634 158.712 111.543 158.712H111.545Z" fill="black"/>
<path d="M130.432 190.251H66.2357C66.1138 190.251 65.9961 190.201 65.9114 190.114C65.8268 190.028 65.7792 189.91 65.7813 189.788L66.6199 140.187C66.845 126.836 77.7832 115.973 91.0017 115.973L106.951 116.119C112.672 116.173 117.339 120.858 117.375 126.575C118.102 130.244 120.526 133.423 124.033 135.304C128.274 137.579 130.888 141.997 130.859 146.839C130.839 150.127 129.595 153.254 127.359 155.646C125.138 158.019 124.281 161.438 125.064 164.792L130.878 189.693C130.909 189.827 130.878 189.972 130.791 190.079C130.704 190.189 130.574 190.253 130.434 190.253L130.432 190.251ZM66.6983 189.342H129.858L124.174 165.001C123.321 161.349 124.263 157.621 126.689 155.026C128.769 152.802 129.926 149.894 129.944 146.836C129.973 142.336 127.54 138.225 123.6 136.11C119.836 134.092 117.238 130.665 116.47 126.712C116.464 126.683 116.462 126.654 116.462 126.625C116.451 121.384 112.178 117.082 106.94 117.034L90.9955 116.888C78.2748 116.888 67.7455 127.348 67.5286 140.206L66.6983 189.342Z" fill="black"/>
<path d="M128.061 194.429C128.061 194.429 155.668 186.667 158.368 186.667L200.173 186.654V209.588L143.214 209.599C134.845 209.599 128.061 202.809 128.061 194.431V194.429Z" fill="#FFBFBF"/>
<path d="M225.319 193.787L227.803 196.476C229.059 197.833 229.185 199.89 228.105 201.392L225.664 204.784L219.748 198.176H182.584V190.389H217.551C220.5 190.389 223.315 191.62 225.319 193.787Z" fill="#FFBFBF"/>
<path d="M224.172 188.928L225.579 190.448C226.835 191.806 226.961 193.863 225.881 195.365L223.439 198.756L217.524 192.148H182.584V186.733H188.514C190.967 186.733 195.342 184.363 200.879 184.363H213.738C217.7 184.363 221.483 186.018 224.175 188.93L224.172 188.928Z" fill="#FFBFBF"/>
<path d="M226.187 199.021L229.17 202.245C230.425 203.603 230.551 205.66 229.471 207.162L227.03 210.553L221.115 203.945H198.09V196.158H219.646C222.131 196.158 224.502 197.195 226.189 199.021H226.187Z" fill="#FFBFBF"/>
<path d="M225.097 204.69L228.207 208.055C229.36 209.303 229.475 211.191 228.484 212.57C227.152 214.421 224.452 214.566 222.932 212.866L221.245 210.98C220.437 210.079 219.287 209.563 218.079 209.563H198.745C193.691 209.563 190.132 209.274 185.262 201.77L218.44 201.776C220.968 201.776 223.382 202.831 225.099 204.69H225.097Z" fill="#FFBFBF"/>
<path d="M228.264 201.722C228.171 201.722 228.078 201.693 227.997 201.635C227.793 201.489 227.748 201.203 227.894 200.999C228.803 199.735 228.632 198.039 227.469 196.781L224.984 194.092C223.074 192.024 220.364 190.84 217.551 190.84H210.71C210.458 190.84 210.256 190.636 210.256 190.386C210.256 190.136 210.46 189.932 210.71 189.932H217.551C220.616 189.932 223.569 191.225 225.653 193.476L228.138 196.166C229.604 197.752 229.803 199.908 228.634 201.534C228.545 201.658 228.404 201.724 228.264 201.724V201.722Z" fill="black"/>
<path d="M228.518 208.937C228.425 208.937 228.332 208.908 228.251 208.851C228.047 208.704 228.001 208.419 228.148 208.214L229.098 206.892C230.048 205.573 229.937 203.747 228.832 202.553L225.849 199.326C224.253 197.599 221.989 196.61 219.641 196.61H210.644C210.392 196.61 210.189 196.406 210.189 196.156C210.189 195.906 210.394 195.701 210.644 195.701H219.641C222.243 195.701 224.75 196.798 226.518 198.711L229.501 201.937C230.897 203.447 231.039 205.756 229.837 207.427L228.887 208.749C228.799 208.873 228.658 208.939 228.518 208.939V208.937Z" fill="black"/>
<path d="M225.586 214.509C224.443 214.509 223.361 214.028 222.593 213.168L220.905 211.282C220.187 210.479 219.156 210.018 218.078 210.018H196.693C192.82 210.018 189.21 208.099 187.033 204.887C186.893 204.679 186.946 204.396 187.155 204.255C187.364 204.115 187.647 204.169 187.787 204.377C189.795 207.339 193.124 209.107 196.693 209.107H218.078C219.414 209.107 220.693 209.68 221.585 210.675L223.272 212.561C223.904 213.267 224.807 213.645 225.755 213.594C226.701 213.544 227.56 213.073 228.116 212.303C228.979 211.103 228.876 209.446 227.874 208.364L224.764 204.999C223.138 203.239 220.833 202.231 218.439 202.231H210.952C210.7 202.231 210.498 202.027 210.498 201.777C210.498 201.527 210.703 201.322 210.952 201.322H218.439C221.085 201.322 223.636 202.438 225.433 204.383L228.543 207.748C229.838 209.149 229.97 211.289 228.855 212.838C228.138 213.833 227.027 214.441 225.805 214.505C225.732 214.509 225.66 214.511 225.586 214.511V214.509Z" fill="black"/>
<path d="M143.21 210.052C139.042 210.052 135.124 208.427 132.176 205.477C129.229 202.525 127.604 198.603 127.604 194.428C127.604 194.224 127.74 194.044 127.936 193.99C129.066 193.672 155.635 186.211 158.365 186.211H187.402C189.577 186.211 191.314 185.732 193.152 185.224C195.387 184.606 197.919 183.908 201.736 183.908H213.736C217.811 183.908 221.737 185.627 224.507 188.62L225.914 190.14C227.12 191.445 227.413 193.327 226.657 194.936C226.552 195.164 226.281 195.263 226.052 195.155C225.825 195.048 225.726 194.777 225.833 194.55C226.43 193.278 226.199 191.79 225.244 190.758L223.838 189.237C221.242 186.428 217.559 184.817 213.736 184.817H201.736C198.043 184.817 195.681 185.47 193.394 186.1C191.496 186.624 189.701 187.12 187.402 187.12H158.365C156.304 187.12 138.139 192.069 128.518 194.771C128.605 198.572 130.125 202.133 132.821 204.832C135.597 207.611 139.285 209.141 143.21 209.141H204.072C204.324 209.141 204.527 209.346 204.527 209.596C204.527 209.846 204.322 210.05 204.072 210.05H143.21V210.052Z" fill="black"/>
<path d="M103.56 214.341C96.7151 213.765 90.174 208.884 87.6336 201.9C82.5445 187.91 73.8348 160.263 71.2944 146.706C68.4627 131.601 72.4985 123.673 85.1696 118.245C85.5062 118.1 92.1754 118.875 92.5265 118.765L102.496 149.705L111.224 183.157L179.043 184.609V214.723L103.56 214.339V214.341Z" fill="#A0D2F4"/>
<path d="M179.042 215.181H179.04L103.557 214.797C103.538 214.797 103.52 214.797 103.501 214.792C95.8653 213.817 89.5845 209.083 87.1102 202.44C81.9612 188.611 73.5675 159.024 70.4798 143.813C70.4302 143.567 70.5892 143.326 70.835 143.276C71.0828 143.229 71.3224 143.386 71.372 143.631C74.4535 158.807 82.8266 188.326 87.9632 202.122C90.3157 208.439 96.3011 212.944 103.588 213.886L178.586 214.268V185.058L111.213 183.617C111.009 183.613 110.831 183.472 110.782 183.274L102.815 151.726C102.753 151.483 102.902 151.235 103.146 151.173C103.39 151.111 103.637 151.259 103.699 151.503L111.581 182.714L179.053 184.158C179.3 184.164 179.499 184.367 179.499 184.612V214.726C179.499 214.848 179.451 214.964 179.365 215.049C179.28 215.133 179.164 215.181 179.044 215.181H179.042Z" fill="black"/>
<path d="M71.2557 160.664V201.604C71.2557 227.599 55.1499 250.017 32.6992 255.275V106.994C55.152 112.253 71.2557 134.671 71.2557 160.666V160.664Z" fill="#008BCE"/>
<path d="M32.6986 255.731C32.5974 255.731 32.4962 255.696 32.4157 255.631C32.3062 255.545 32.2422 255.415 32.2422 255.274V106.995C32.2422 106.856 32.3062 106.724 32.4157 106.638C32.5251 106.551 32.6677 106.52 32.8019 106.551C43.767 109.118 53.6994 115.951 60.7651 125.787C67.8225 135.611 71.7095 147.999 71.7095 160.665V201.604C71.7095 214.27 67.8225 226.658 60.7651 236.482C53.6974 246.318 43.767 253.151 32.8019 255.718C32.7668 255.727 32.7337 255.731 32.6986 255.731ZM33.1551 107.573V254.698C55.0047 249.27 70.8008 227.046 70.8008 201.604V160.665C70.8008 135.223 55.0047 113 33.1551 107.571V107.573Z" fill="black"/>
<path d="M125.696 257.188C125.444 257.188 125.241 256.984 125.241 256.734V239.788C125.241 228.117 114.885 218.622 102.156 218.622H42.1282C41.8762 218.622 41.6738 218.417 41.6738 218.167C41.6738 217.917 41.8783 217.713 42.1282 217.713H102.154C115.385 217.713 126.15 227.617 126.15 239.79V256.736C126.15 256.988 125.945 257.19 125.696 257.19V257.188Z" fill="black"/>
<path d="M399.545 396H392.004C391.789 396 391.605 395.852 391.56 395.643L359.069 247.488L326.579 395.643C326.533 395.852 326.348 396 326.135 396H318.594C318.456 396 318.326 395.938 318.239 395.831C318.152 395.723 318.119 395.583 318.15 395.449L355.552 224.896C355.597 224.688 355.783 224.539 355.996 224.539H362.145C362.36 224.539 362.543 224.688 362.589 224.896L399.991 395.449C400.02 395.583 399.987 395.723 399.9 395.831C399.813 395.938 399.683 396 399.545 396ZM392.369 395.089H398.979L361.777 225.448H356.362L319.16 395.089H325.769L358.625 245.263C358.671 245.054 358.857 244.906 359.069 244.906C359.282 244.906 359.468 245.054 359.513 245.263L392.369 395.089Z" fill="#6155FF"/>
<path d="M399.545 225.448H153.366C153.115 225.448 152.912 225.244 152.912 224.994V218.636C152.912 218.384 153.117 218.182 153.366 218.182H399.545C399.797 218.182 400 218.386 400 218.636V224.994C400 225.246 399.795 225.448 399.545 225.448ZM153.823 224.537H399.091V219.09H153.823V224.537Z" fill="#6155FF"/>
<path d="M153.871 393.695C153.838 393.695 153.805 393.691 153.774 393.684C153.528 393.631 153.373 393.387 153.427 393.143L161.06 358.336C161.114 358.09 161.356 357.935 161.603 357.989C161.849 358.043 162.004 358.287 161.95 358.53L154.317 393.337C154.269 393.55 154.081 393.695 153.873 393.695H153.871Z" fill="white"/>
<path d="M234.318 396H226.778C226.563 396 226.379 395.851 226.334 395.643L193.843 247.487L169.492 358.531C169.439 358.776 169.197 358.931 168.949 358.878C168.703 358.824 168.548 358.58 168.602 358.336L193.399 245.265C193.445 245.056 193.63 244.908 193.843 244.908C194.056 244.908 194.242 245.056 194.287 245.265L227.143 395.091H233.752L196.551 225.45H191.135L161.952 358.533C161.898 358.779 161.656 358.933 161.408 358.88C161.163 358.826 161.008 358.582 161.061 358.339L190.324 224.898C190.369 224.69 190.555 224.541 190.768 224.541H196.916C197.131 224.541 197.315 224.69 197.36 224.898L234.762 395.451C234.791 395.585 234.758 395.725 234.674 395.833C234.587 395.94 234.457 396.002 234.318 396.002V396Z" fill="#6155FF"/>
<path d="M161.316 394.145C161.283 394.145 161.25 394.141 161.219 394.135C160.973 394.081 160.818 393.837 160.872 393.593L168.603 358.336C168.656 358.09 168.898 357.935 169.146 357.989C169.392 358.043 169.547 358.287 169.493 358.53L161.762 393.788C161.715 394 161.527 394.145 161.318 394.145H161.316Z" fill="white"/>
<path d="M160.906 396.001H153.366C153.227 396.001 153.097 395.939 153.01 395.832C152.924 395.725 152.891 395.584 152.922 395.45L153.428 393.145C153.481 392.899 153.723 392.744 153.971 392.798C154.217 392.851 154.371 393.095 154.318 393.339L153.934 395.093H160.543L160.871 393.595C160.925 393.349 161.167 393.194 161.414 393.248C161.66 393.302 161.815 393.545 161.761 393.789L161.354 395.644C161.309 395.853 161.123 396.001 160.91 396.001H160.906Z" fill="#6155FF"/>
<path d="M355.723 322.748C361.554 345.585 362.178 350.334 357.33 351.247C354.348 351.809 350.99 348.609 345.159 325.772C339.328 302.935 341.047 283.965 341.047 283.965C341.047 283.965 349.893 299.911 355.721 322.748H355.723Z" fill="#DADADA"/>
<path d="M365.748 319.215C370.55 345.911 369.034 351.343 366.047 351.847C362.135 352.508 359.378 348.505 354.576 321.809C349.774 295.114 350.311 271.961 350.311 271.961C350.311 271.961 360.946 292.518 365.748 319.215Z" fill="#DADADA"/>
<path d="M373.66 319.67C376.601 346.634 374.703 351.854 371.7 352.244C368.697 352.635 365.452 347.933 362.511 320.969C359.57 294.005 362.897 271.555 362.897 271.555C362.897 271.555 370.719 292.706 373.66 319.67Z" fill="#2A2A2A"/>
<path d="M386.558 323.613C381.261 346.434 377.919 349.951 374.984 349.173C372.049 348.394 370.632 343.614 375.93 320.794C381.228 297.973 390.836 280.883 390.836 280.883C390.836 280.883 391.856 300.793 386.558 323.615V323.613Z" fill="#2A2A2A"/>
<path d="M378.844 320.754C377.586 347.887 374.911 352.678 371.892 352.504C368.872 352.331 366.654 347.257 367.912 320.126C369.17 292.993 375.655 271.312 375.655 271.312C375.655 271.312 380.102 293.623 378.844 320.756V320.754Z" fill="#DADADA"/>
<path d="M391.713 329.027C384.319 348.252 380.564 350.705 377.59 349.423C374.615 348.14 373.55 343.606 380.944 324.382C388.338 305.157 399.718 291.896 399.718 291.896C399.718 291.896 399.107 309.805 391.713 329.029V329.027Z" fill="#DADADA"/>
<path d="M348.658 395.453H387.766V346.662H348.658V395.453Z" fill="#A0D2F4"/>
<path d="M387.765 395.911H348.657C348.406 395.911 348.203 395.706 348.203 395.456V346.667C348.203 346.415 348.408 346.213 348.657 346.213H387.765C388.017 346.213 388.22 346.417 388.22 346.667V395.456C388.22 395.708 388.015 395.911 387.765 395.911ZM349.114 395H387.311V347.122H349.114V395Z" fill="black"/>
<path d="M321.428 192.311H351.031V208.174C351.031 213.786 346.477 218.341 340.865 218.341H331.594C325.982 218.341 321.428 213.786 321.428 208.174V192.311Z" fill="#FFBFBF"/>
<path d="M340.864 218.797H331.593C325.736 218.797 320.971 214.031 320.971 208.174V192.31C320.971 192.058 321.175 191.855 321.425 191.855H351.028C351.28 191.855 351.483 192.06 351.483 192.31V208.174C351.483 214.031 346.718 218.797 340.86 218.797H340.864ZM321.882 192.766V208.176C321.882 213.53 326.237 217.888 331.593 217.888H340.864C346.218 217.888 350.576 213.532 350.576 208.176V192.766H321.884H321.882Z" fill="black"/>
<path d="M356.483 196.842C353.504 196.842 351.086 199.259 351.086 202.239C351.086 205.22 353.502 207.641 356.483 207.641C359.463 207.641 361.884 205.224 361.884 202.239C361.884 199.254 359.467 196.842 356.483 196.842ZM356.483 204.741C355.101 204.741 353.98 203.623 353.98 202.237C353.98 200.851 355.101 199.734 356.483 199.734C357.865 199.734 358.99 200.855 358.99 202.237C358.99 203.619 357.869 204.741 356.483 204.741Z" fill="#FF7DCE"/>
<path d="M356.482 208.092C353.256 208.092 350.631 205.465 350.631 202.237C350.631 199.008 353.256 196.385 356.482 196.385C359.708 196.385 362.337 199.01 362.337 202.237C362.337 205.463 359.71 208.092 356.482 208.092ZM356.482 197.296C353.758 197.296 351.542 199.512 351.542 202.237C351.542 204.961 353.758 207.182 356.482 207.182C359.206 207.182 361.427 204.963 361.427 202.237C361.427 199.51 359.208 197.296 356.482 197.296ZM356.482 205.197C354.85 205.197 353.522 203.868 353.522 202.237C353.522 200.605 354.85 199.277 356.482 199.277C358.114 199.277 359.446 200.605 359.446 202.237C359.446 203.868 358.116 205.197 356.482 205.197ZM356.482 200.19C355.352 200.19 354.433 201.109 354.433 202.239C354.433 203.368 355.352 204.288 356.482 204.288C357.612 204.288 358.535 203.368 358.535 202.239C358.535 201.109 357.614 200.19 356.482 200.19Z" fill="black"/>
<path d="M339.627 187.839C339.459 187.733 339.373 187.665 339.257 187.579C339.152 187.496 339.046 187.411 338.947 187.324C338.747 187.151 338.559 186.969 338.381 186.777C338.026 186.393 337.704 185.98 337.435 185.527C336.894 184.627 336.56 183.59 336.479 182.549C336.473 182.289 336.463 182.03 336.469 181.77C336.496 181.508 336.506 181.241 336.555 180.983C336.653 180.469 336.799 179.969 337 179.512C337.39 178.589 337.914 177.8 338.414 177.05C338.916 176.301 339.406 175.586 339.753 174.834C340.106 174.08 340.296 173.312 340.277 172.481C340.265 171.655 340.11 170.825 339.697 170.124C339.499 169.771 339.245 169.447 338.939 169.176C338.644 168.906 338.268 168.67 337.925 168.536L337.89 168.522C337.722 168.455 337.642 168.267 337.708 168.1C337.77 167.941 337.943 167.861 338.104 167.908C338.613 168.063 339.024 168.294 339.418 168.594C339.808 168.891 340.147 169.259 340.42 169.668C340.988 170.484 341.246 171.467 341.333 172.421C341.355 172.661 341.374 172.901 341.36 173.153L341.347 173.526L341.295 173.894C341.269 174.144 341.207 174.382 341.143 174.619C341.089 174.863 340.996 175.084 340.918 175.315C340.577 176.224 340.102 177.036 339.664 177.813C339.224 178.589 338.813 179.345 338.559 180.101C338.301 180.863 338.224 181.586 338.34 182.346C338.458 183.092 338.747 183.786 339.176 184.395C339.391 184.699 339.647 184.98 339.922 185.234C340.06 185.362 340.205 185.482 340.354 185.591C340.428 185.649 340.502 185.699 340.577 185.748C340.643 185.792 340.74 185.852 340.767 185.862C341.347 186.11 341.616 186.781 341.368 187.364C341.12 187.944 340.449 188.215 339.868 187.965C339.815 187.942 339.761 187.915 339.713 187.884L339.631 187.833L339.627 187.839Z" fill="black"/>
<path d="M333.095 187.544C332.983 187.474 332.925 187.428 332.849 187.371C332.779 187.315 332.708 187.259 332.644 187.201C332.512 187.086 332.386 186.966 332.268 186.838C332.033 186.584 331.82 186.309 331.641 186.009C331.281 185.412 331.058 184.723 331.006 184.033C331.002 183.859 330.994 183.69 331 183.516C331.019 183.341 331.025 183.165 331.058 182.994C331.122 182.653 331.219 182.32 331.353 182.019C331.614 181.407 331.961 180.883 332.291 180.385C332.624 179.887 332.948 179.412 333.179 178.914C333.413 178.414 333.541 177.904 333.526 177.353C333.518 176.803 333.415 176.252 333.14 175.789C333.008 175.556 332.841 175.339 332.638 175.159C332.442 174.979 332.192 174.824 331.965 174.733L331.942 174.723C331.831 174.68 331.777 174.554 331.82 174.444C331.862 174.339 331.977 174.285 332.083 174.318C332.419 174.422 332.692 174.574 332.954 174.773C333.214 174.969 333.437 175.215 333.619 175.485C333.995 176.027 334.166 176.679 334.224 177.313C334.239 177.472 334.253 177.631 334.241 177.799L334.233 178.047L334.197 178.29C334.179 178.456 334.138 178.615 334.096 178.772C334.061 178.933 333.999 179.079 333.946 179.234C333.718 179.838 333.404 180.377 333.113 180.893C332.822 181.409 332.547 181.909 332.38 182.413C332.209 182.919 332.159 183.399 332.235 183.905C332.314 184.398 332.504 184.861 332.791 185.264C332.933 185.466 333.103 185.652 333.287 185.821C333.378 185.906 333.475 185.987 333.574 186.059C333.623 186.096 333.673 186.129 333.722 186.164C333.768 186.193 333.832 186.233 333.848 186.241C334.235 186.406 334.412 186.852 334.247 187.236C334.082 187.623 333.636 187.8 333.252 187.635C333.214 187.619 333.181 187.602 333.148 187.581L333.093 187.546L333.095 187.544Z" fill="black"/>
</g>
</g>
<defs>
<clipPath id="clip0_2414_15521">
<rect width="427" height="425" fill="white"/>
</clipPath>
<clipPath id="clip1_2414_15521">
<rect width="377" height="378" fill="white" transform="translate(23 18)"/>
</clipPath>
</defs>
</svg>
