<svg width="427" height="425" viewBox="0 0 427 425" fill="none" xmlns="http://www.w3.org/2000/svg">
<g clip-path="url(#clip0_2421_10868)">
<path d="M400.041 382.57C388.531 392.16 338.441 398.94 278.761 401.49C187.021 405.42 72.6009 399.37 40.7909 378.2C25.7309 368.19 15.5509 337.25 9.1009 297.66C-6.9291 199.16 0.220901 47.1301 13.1609 30.6501C31.3109 7.56009 323.301 -15.3099 399.911 13.9301C432.741 26.4601 429.231 358.23 400.031 382.57H400.041Z" fill="white"/>
<path d="M373.314 247.44L375.204 241.883L377.358 247.44C377.358 247.44 381.657 248.14 381.712 248.531C381.757 248.913 377.595 250.095 377.595 250.095C377.595 250.095 375.85 255.488 375.204 254.27C374.568 253.051 373.95 250.35 373.95 250.35C373.95 250.35 368.533 249.268 368.533 248.731C368.533 248.158 373.314 247.449 373.314 247.449V247.44Z" fill="white"/>
<path d="M304.094 233.142L305.566 228.822L307.238 233.142C307.238 233.142 310.574 233.688 310.619 233.988C310.656 234.279 307.429 235.198 307.429 235.198C307.429 235.198 306.075 239.381 305.575 238.435C305.075 237.49 304.594 235.389 304.594 235.389C304.594 235.389 300.395 234.543 300.395 234.134C300.395 233.688 304.103 233.142 304.103 233.142H304.094Z" fill="white"/>
<g clip-path="url(#clip1_2421_10868)">
<path d="M352.105 69.1797H79.2604C65.2523 69.1797 53.8965 80.5109 53.8965 94.4886V303.541C53.8965 317.519 65.2523 328.85 79.2604 328.85H352.105C366.113 328.85 377.469 317.519 377.469 303.541V94.4886C377.469 80.5109 366.113 69.1797 352.105 69.1797Z" fill="white"/>
<path d="M352.108 329.215H79.2608C65.0738 329.215 53.5312 317.698 53.5312 303.541V94.4891C53.5312 80.333 65.0738 68.8154 79.2608 68.8154H352.105C366.292 68.8154 377.835 80.333 377.835 94.4891V303.541C377.835 317.698 366.292 329.215 352.105 329.215H352.108ZM79.2608 69.545C65.476 69.545 54.2624 80.7342 54.2624 94.4891V303.541C54.2624 317.296 65.476 328.485 79.2608 328.485H352.105C365.89 328.485 377.104 317.296 377.104 303.541V94.4891C377.104 80.7342 365.89 69.545 352.105 69.545H79.2608Z" fill="#292929"/>
<path d="M377.472 106.437H53.8968C53.6945 106.437 53.5312 106.274 53.5312 106.072C53.5312 105.87 53.6945 105.707 53.8968 105.707H377.469C377.672 105.707 377.835 105.87 377.835 106.072C377.835 106.274 377.672 106.437 377.469 106.437H377.472Z" fill="#292929"/>
<path d="M76.5385 89.4862C78.2803 89.4862 79.6922 88.0773 79.6922 86.3393C79.6922 84.6013 78.2803 83.1924 76.5385 83.1924C74.7967 83.1924 73.3848 84.6013 73.3848 86.3393C73.3848 88.0773 74.7967 89.4862 76.5385 89.4862Z" fill="#292929"/>
<path d="M88.2905 89.7733C90.0322 89.7733 91.4442 88.3644 91.4442 86.6264C91.4442 84.8884 90.0322 83.4795 88.2905 83.4795C86.5487 83.4795 85.1367 84.8884 85.1367 86.6264C85.1367 88.3644 86.5487 89.7733 88.2905 89.7733Z" fill="#292929"/>
<path d="M100.04 90.0584C101.782 90.0584 103.194 88.6495 103.194 86.9115C103.194 85.1736 101.782 83.7646 100.04 83.7646C98.2987 83.7646 96.8867 85.1736 96.8867 86.9115C96.8867 88.6495 98.2987 90.0584 100.04 90.0584Z" fill="#292929"/>
<path d="M303.965 177.072H127.405C115.102 177.072 105.09 167.084 105.09 154.806C105.09 148.857 107.41 143.266 111.626 139.061C115.84 134.857 121.443 132.539 127.405 132.539H303.965C304.304 132.539 304.631 132.549 304.962 132.568C316.912 133.077 326.278 142.843 326.278 154.803C326.278 160.752 323.958 166.343 319.741 170.547C315.786 174.494 310.534 176.8 304.955 177.038C304.628 177.058 304.302 177.067 303.963 177.067L303.965 177.072ZM127.402 133.271C121.638 133.271 116.218 135.511 112.141 139.579C108.063 143.648 105.819 149.054 105.819 154.808C105.819 166.683 115.502 176.345 127.402 176.345H303.963C304.287 176.345 304.599 176.335 304.916 176.316C310.319 176.085 315.398 173.855 319.225 170.037C323.302 165.968 325.547 160.562 325.547 154.808C325.547 143.239 316.488 133.794 304.923 133.3C304.599 133.281 304.287 133.271 303.963 133.271H127.402Z" fill="#292929"/>
<path d="M325.911 154.808C325.911 160.863 323.452 166.333 319.482 170.294C315.726 174.042 310.616 176.437 304.937 176.68C293.26 176.184 283.965 166.585 283.965 154.81C283.965 148.755 286.424 143.285 290.394 139.324C294.15 135.576 299.261 133.181 304.939 132.938C316.616 133.434 325.911 143.032 325.911 154.81V154.808Z" fill="#292929"/>
<path d="M304.452 159.552C300.485 159.552 297.258 156.333 297.258 152.373C297.258 148.414 300.485 145.194 304.452 145.194C308.42 145.194 311.647 148.414 311.647 152.373C311.647 156.333 308.42 159.552 304.452 159.552ZM304.452 145.926C300.889 145.926 297.989 148.82 297.989 152.376C297.989 155.931 300.889 158.825 304.452 158.825C308.016 158.825 310.916 155.931 310.916 152.376C310.916 148.82 308.016 145.926 304.452 145.926Z" fill="white"/>
<path d="M315.671 162.96C315.588 162.96 315.503 162.93 315.435 162.874L309.166 157.592C309.013 157.463 308.993 157.232 309.123 157.079C309.252 156.926 309.483 156.907 309.637 157.035L315.905 162.318C316.059 162.446 316.078 162.677 315.949 162.831C315.876 162.916 315.774 162.96 315.669 162.96H315.671Z" fill="white"/>
<path d="M190.184 242.315L192.339 240.084C193.831 241.334 195.834 242.175 197.773 242.175C200.119 242.175 201.408 241.239 201.408 239.81C201.408 238.302 200.062 237.82 198.168 237.114L195.317 236.027C193.264 235.275 191.102 233.847 191.102 231.168C191.102 228.247 194.035 226 198.104 226C200.54 226 202.9 226.885 204.532 228.337L202.632 230.4C201.305 229.408 199.889 228.825 198.104 228.825C196.127 228.825 194.839 229.638 194.839 230.977C194.839 232.417 196.427 232.95 198.155 233.572L200.968 234.609C203.449 235.517 205.184 236.895 205.184 239.552C205.184 242.522 202.377 245 197.697 245C194.878 245 192.162 244.025 190.184 242.315H190.184Z" fill="#018BCE"/>
<path d="M209.184 226H220.886V228.686H212.632V233.299H219.626V235.985H212.632V241.314H221.184V244H209.184V226Z" fill="#018BCE"/>
<path d="M224.184 235.427C224.184 229.497 227.661 226 232.684 226C237.706 226 241.184 229.514 241.184 235.427C241.184 241.34 237.706 245 232.684 245C227.661 245 224.184 241.357 224.184 235.427ZM237.67 235.427C237.67 231.313 235.713 228.825 232.684 228.825C229.654 228.825 227.697 231.313 227.697 235.427C227.697 239.54 229.654 242.175 232.684 242.175C235.713 242.175 237.67 239.54 237.67 235.427Z" fill="#018BCE"/>
<path d="M112.705 288.612C112.705 304.409 105.706 318.575 94.6335 328.191C85.4038 336.204 73.3421 341.058 60.1446 341.058C49.2211 341.058 39.075 337.732 30.6716 332.043C29.2483 331.08 27.8737 330.049 26.5576 328.955C21.2932 324.587 16.899 319.212 13.6697 313.128C9.78478 305.813 7.58398 297.466 7.58398 288.612C7.58398 270.112 17.1865 253.847 31.6855 244.511C39.8891 239.229 49.6574 236.165 60.1446 236.165C70.6319 236.165 79.73 239.023 87.7532 243.974C102.73 253.215 112.708 269.75 112.708 288.612H112.705Z" fill="white"/>
<path d="M87.7514 243.974C81.0076 254.922 74.2712 265.871 67.5299 276.819C62.1145 276.493 56.6966 276.163 51.2811 275.837C44.747 265.397 38.2177 254.954 31.6836 244.511C39.8872 239.229 49.6555 236.165 60.1428 236.165C70.63 236.165 79.7281 239.023 87.7514 243.974Z" fill="#018BCE"/>
<path d="M94.6325 328.191C85.4028 336.204 73.3411 341.058 60.1437 341.058C49.2202 341.058 39.0741 337.731 30.6706 332.043C29.2473 331.08 27.8727 330.049 26.5566 328.955L42.1718 304.332L50.4022 302.408L69.5001 297.945C77.8768 308.028 86.2559 318.108 94.6325 328.191Z" fill="#E7ECF2"/>
<path d="M60.143 341.423C49.4998 341.423 39.2367 338.283 30.4652 332.344C29.0444 331.381 27.6503 330.336 26.322 329.234C20.965 324.788 16.5976 319.426 13.3439 313.298C9.33472 305.749 7.2168 297.21 7.2168 288.611C7.2168 270.588 16.2905 253.988 31.4864 244.204C40.0264 238.706 49.936 235.8 60.143 235.8C70.35 235.8 79.6089 238.519 87.9442 243.665C95.48 248.314 101.78 254.83 106.162 262.505C110.681 270.421 113.072 279.448 113.072 288.611C113.072 303.896 106.438 318.422 94.8731 328.465C85.2486 336.822 72.9164 341.423 60.1455 341.423H60.143ZM60.143 236.529C50.0774 236.529 40.3042 239.397 31.8813 244.817C16.8949 254.465 7.94552 270.836 7.94552 288.611C7.94552 297.094 10.0342 305.513 13.9898 312.957C17.1996 319.003 21.5037 324.29 26.7875 328.675C28.0963 329.759 29.4709 330.793 30.8723 331.741C39.5243 337.597 49.646 340.693 60.1406 340.693C72.736 340.693 84.8977 336.155 94.3881 327.916C105.794 318.011 112.336 303.684 112.336 288.611C112.336 270.43 103.072 253.859 87.5542 244.282C79.336 239.209 69.8553 236.527 60.1382 236.527L60.143 236.529Z" fill="#292929"/>
<path d="M50.4014 302.41C50.3917 302.522 50.3576 302.595 50.2966 302.614C49.7653 302.792 37.5013 321.542 30.6699 332.043C29.2465 331.08 27.872 330.049 26.5559 328.954C21.2915 324.587 16.8973 319.212 13.668 313.128L47.8351 294.752C47.8351 294.752 50.5282 301.16 50.4039 302.41H50.4014Z" fill="#292929"/>
<path d="M60.1436 308.634C71.2254 308.634 80.2091 299.67 80.2091 288.612C80.2091 277.554 71.2254 268.59 60.1436 268.59C49.0617 268.59 40.0781 277.554 40.0781 288.612C40.0781 299.67 49.0617 308.634 60.1436 308.634Z" fill="white"/>
<path d="M60.142 308.996C48.8772 308.996 39.7109 299.852 39.7109 288.609C39.7109 277.367 48.8748 268.223 60.142 268.223C71.4092 268.223 80.573 277.367 80.573 288.609C80.573 299.852 71.4092 308.996 60.142 308.996ZM60.142 268.955C49.2794 268.955 40.4421 277.773 40.4421 288.612C40.4421 299.451 49.2794 308.269 60.142 308.269C71.0046 308.269 79.8419 299.451 79.8419 288.612C79.8419 277.773 71.0046 268.955 60.142 268.955Z" fill="#292929"/>
<path d="M57.6328 291.202L58.0228 290.71C58.6467 291.25 59.5509 291.81 60.6915 291.81C62.0831 291.81 62.8314 291.024 62.8314 289.896C62.8314 286.822 58.0593 287.675 58.0593 284.506C58.0593 283.079 59.2072 282.062 60.7402 282.062C61.9857 282.062 62.6851 282.568 63.3017 283.184L62.863 283.616C62.2391 283.033 61.7395 282.67 60.7281 282.67C59.585 282.67 58.8075 283.449 58.8075 284.465C58.8075 287.196 63.5796 286.274 63.5796 289.847C63.5796 291.435 62.322 292.415 60.6939 292.415C59.4339 292.415 58.3299 291.817 57.6352 291.197L57.6328 291.202ZM60.3966 280.535H61.0278V282.398H60.3966V280.535ZM60.3966 292.25H61.0278V293.947H60.3966V292.25Z" fill="#292929"/>
<path d="M81.6753 310.72C69.1651 310.72 59.0215 320.839 59.0215 333.324C59.0215 345.81 69.1627 355.929 81.6753 355.929C94.1878 355.929 104.329 345.81 104.329 333.324C104.329 320.839 94.1878 310.72 81.6753 310.72ZM81.6753 353.086C70.7371 353.086 61.8681 344.239 61.8681 333.322C61.8681 322.405 70.7371 313.558 81.6753 313.558C92.6134 313.558 101.482 322.407 101.482 333.322C101.482 344.236 92.6158 353.086 81.6753 353.086Z" fill="white"/>
<path d="M81.6751 356.292C68.9846 356.292 58.6582 345.988 58.6582 333.325C58.6582 320.662 68.9846 310.355 81.6751 310.355C94.3656 310.355 104.694 320.659 104.694 333.325C104.694 345.99 94.3681 356.292 81.6751 356.292ZM81.6751 311.085C69.3868 311.085 59.3894 321.061 59.3894 333.325C59.3894 345.589 69.3868 355.562 81.6751 355.562C93.9635 355.562 103.963 345.587 103.963 333.325C103.963 321.063 93.9659 311.085 81.6751 311.085ZM81.6751 353.451C70.5542 353.451 61.5049 344.422 61.5049 333.325C61.5049 322.228 70.5542 313.196 81.6751 313.196C92.7961 313.196 101.848 322.226 101.848 333.325C101.848 344.424 92.7985 353.451 81.6751 353.451ZM81.6751 313.926C70.9563 313.926 62.236 322.627 62.236 333.325C62.236 344.023 70.9563 352.722 81.6751 352.722C92.3939 352.722 101.117 344.02 101.117 333.325C101.117 322.629 92.3964 313.926 81.6751 313.926Z" fill="#292929"/>
<path d="M112.107 370.202C111.352 370.849 110.211 370.762 109.563 370.008L97.0964 355.506C96.4481 354.753 96.5358 353.614 97.2914 352.968C98.0469 352.321 99.1875 352.408 99.8358 353.162L112.302 367.664C112.95 368.417 112.863 369.556 112.107 370.202Z" fill="white"/>
<path d="M110.937 371C110.881 371 110.825 371 110.769 370.993C110.191 370.949 109.665 370.681 109.287 370.243L96.8208 355.742C96.0409 354.835 96.1481 353.466 97.0547 352.69C97.4934 352.313 98.054 352.131 98.634 352.174C99.2117 352.218 99.7381 352.486 100.116 352.923L112.582 367.425C113.362 368.332 113.255 369.701 112.348 370.477C111.951 370.817 111.456 371 110.939 371H110.937ZM98.4634 352.897C98.1198 352.897 97.7932 353.018 97.53 353.242C96.928 353.758 96.8573 354.665 97.374 355.265L109.84 369.767C110.091 370.059 110.44 370.234 110.822 370.263C111.205 370.292 111.578 370.171 111.868 369.92C112.47 369.404 112.541 368.497 112.024 367.897L99.5577 353.395C99.3067 353.103 98.9582 352.928 98.5755 352.899C98.539 352.897 98.5 352.894 98.4634 352.894V352.897Z" fill="#292929"/>
<path d="M381.246 239.265C365.95 239.265 353.506 226.848 353.506 211.585C353.506 196.323 365.95 183.905 381.246 183.905C396.542 183.905 408.986 196.323 408.986 211.585C408.986 226.848 396.542 239.265 381.246 239.265ZM381.246 184.635C366.352 184.635 354.237 196.724 354.237 211.585C354.237 226.447 366.352 238.536 381.246 238.536C396.14 238.536 408.255 226.447 408.255 211.585C408.255 196.724 396.14 184.635 381.246 184.635Z" fill="#292929"/>
<path d="M375.736 242.982C390.855 242.982 403.111 230.753 403.111 215.667C403.111 200.581 390.855 188.352 375.736 188.352C360.617 188.352 348.361 200.581 348.361 215.667C348.361 230.753 360.617 242.982 375.736 242.982Z" fill="#018BCE"/>
<path d="M369.087 227.437C367.32 227.437 365.673 226.943 364.356 225.924C361.992 224.098 361.663 221.211 361.634 220.888C361.269 216.948 364.21 213.042 368.787 211.391C369.104 211.277 369.453 211.44 369.567 211.756C369.682 212.072 369.518 212.42 369.202 212.534C365.146 213.998 362.533 217.386 362.845 220.776C362.87 221.046 363.145 223.451 365.1 224.964C367.91 227.135 372.775 226.381 376.413 223.213C376.667 222.991 377.052 223.018 377.274 223.271C377.495 223.524 377.469 223.908 377.215 224.129C374.722 226.301 371.766 227.437 369.087 227.437Z" fill="white"/>
<path d="M382.476 219.976C382.228 219.976 381.994 219.822 381.904 219.574C381.789 219.258 381.952 218.91 382.269 218.796C386.325 217.332 388.937 213.944 388.626 210.554C388.601 210.284 388.326 207.879 386.371 206.367C383.561 204.195 378.696 204.949 375.058 208.118C374.804 208.339 374.419 208.312 374.197 208.059C373.975 207.806 374.002 207.422 374.256 207.201C378.392 203.599 383.802 202.843 387.117 205.404C389.481 207.23 389.81 210.117 389.839 210.44C390.205 214.38 387.263 218.285 382.686 219.937C382.618 219.961 382.547 219.973 382.479 219.973L382.476 219.976Z" fill="white"/>
<path d="M367.218 221.44C367.008 221.44 366.806 221.333 366.691 221.141C366.521 220.851 366.618 220.479 366.908 220.309L383.262 210.732C383.552 210.562 383.925 210.659 384.095 210.949C384.266 211.238 384.169 211.61 383.879 211.78L367.525 221.357C367.427 221.413 367.323 221.44 367.218 221.44Z" fill="white"/>
<path d="M2.90514 133.354H84.4855C86.0892 133.354 87.3907 134.652 87.3907 136.252V183.993C87.3907 185.593 86.0892 186.892 84.4855 186.892H73.2695C72.3678 186.892 71.7414 187.792 72.0558 188.636L75.4338 197.692L56.8428 188.422C54.8248 187.415 52.5996 186.892 50.3428 186.892H2.90514C1.30146 186.892 0 185.593 0 183.993V136.252C0 134.652 1.30146 133.354 2.90514 133.354Z" fill="#018BCE"/>
<path d="M17.9758 158.742H10.752V177.108H17.9758V158.742Z" fill="white"/>
<path d="M31.9094 165.607H24.6855V177.281H31.9094V165.607Z" fill="white"/>
<path d="M45.843 154.966H38.6191V177.451H45.843V154.966Z" fill="white"/>
<path d="M59.7766 158.742H52.5527V177.624H59.7766V158.742Z" fill="white"/>
<path d="M73.7102 149.472H66.4863V177.794H73.7102V149.472Z" fill="white"/>
<path d="M26.5767 158.249C26.5304 158.249 26.4841 158.239 26.4402 158.222L12.6773 152.728C12.4897 152.653 12.3995 152.441 12.4726 152.254C12.5482 152.067 12.7602 151.977 12.9479 152.05L26.5499 157.478L48.4164 145.545C48.5042 145.496 48.6065 145.486 48.7016 145.515L59.5569 148.901L74.5554 140.058C74.7309 139.956 74.9527 140.014 75.055 140.187C75.1574 140.36 75.0989 140.583 74.9259 140.686L59.7884 149.611C59.6982 149.664 59.591 149.676 59.4935 149.645L48.6333 146.257L26.7497 158.198C26.6961 158.227 26.6352 158.242 26.5743 158.242L26.5767 158.249Z" fill="white"/>
<path d="M14.3648 152.39C14.3648 153.244 13.6726 153.934 12.8172 153.934C11.9617 153.934 11.2695 153.244 11.2695 152.39C11.2695 151.536 11.9617 150.846 12.8172 150.846C13.6726 150.846 14.3648 151.536 14.3648 152.39Z" fill="white"/>
<path d="M28.1284 157.538C28.1284 158.392 27.4363 159.083 26.5808 159.083C25.7254 159.083 25.0332 158.392 25.0332 157.538C25.0332 156.685 25.7254 155.994 26.5808 155.994C27.4363 155.994 28.1284 156.685 28.1284 157.538Z" fill="white"/>
<path d="M50.146 145.868C50.146 146.721 49.4539 147.412 48.5984 147.412C47.7429 147.412 47.0508 146.721 47.0508 145.868C47.0508 145.014 47.7429 144.323 48.5984 144.323C49.4539 144.323 50.146 145.014 50.146 145.868Z" fill="white"/>
<path d="M60.8101 149.302C60.8101 150.156 60.1179 150.846 59.2625 150.846C58.407 150.846 57.7148 150.156 57.7148 149.302C57.7148 148.448 58.407 147.758 59.2625 147.758C60.1179 147.758 60.8101 148.448 60.8101 149.302Z" fill="white"/>
<path d="M76.6382 140.374C76.6382 141.228 75.946 141.919 75.0906 141.919C74.2351 141.919 73.543 141.228 73.543 140.374C73.543 139.521 74.2351 138.83 75.0906 138.83C75.946 138.83 76.6382 139.521 76.6382 140.374Z" fill="white"/>
<path d="M395.584 54H264.475V97.0789H395.584V54Z" fill="#E7ECF2"/>
<path d="M388.282 92.0591H273.682C273.48 92.0591 273.316 91.8962 273.316 91.6943V61.2857C273.316 61.0838 273.48 60.9209 273.682 60.9209C273.884 60.9209 274.048 61.0838 274.048 61.2857V91.3296H388.282C388.484 91.3296 388.647 91.4925 388.647 91.6943C388.647 91.8962 388.484 92.0591 388.282 92.0591Z" fill="#292929"/>
<path d="M302.287 91.743C302.085 91.743 301.922 91.58 301.922 91.3782V61.2857C301.922 61.0838 302.085 60.9209 302.287 60.9209C302.49 60.9209 302.653 61.0838 302.653 61.2857V91.3782C302.653 91.58 302.49 91.743 302.287 91.743Z" fill="#292929"/>
<path d="M328.916 91.743C328.714 91.743 328.551 91.58 328.551 91.3782V61.2857C328.551 61.0838 328.714 60.9209 328.916 60.9209C329.119 60.9209 329.282 61.0838 329.282 61.2857V91.3782C329.282 91.58 329.119 91.743 328.916 91.743Z" fill="#292929"/>
<path d="M355.545 91.743C355.343 91.743 355.18 91.58 355.18 91.3782V61.2857C355.18 61.0838 355.343 60.9209 355.545 60.9209C355.748 60.9209 355.911 61.0838 355.911 61.2857V91.3782C355.911 91.58 355.748 91.743 355.545 91.743Z" fill="#292929"/>
<path d="M382.174 91.743C381.972 91.743 381.809 91.58 381.809 91.3782V61.2857C381.809 61.0838 381.972 60.9209 382.174 60.9209C382.376 60.9209 382.54 61.0838 382.54 61.2857V91.3782C382.54 91.58 382.376 91.743 382.174 91.743Z" fill="#292929"/>
<path d="M343.818 85.102C336.205 85.102 331.001 80.8778 325.961 76.7897C316.395 69.0295 307.36 61.7021 282.925 84.674C282.779 84.8126 282.547 84.8053 282.408 84.6594C282.269 84.5135 282.277 84.2824 282.423 84.1438C293.736 73.5091 302.518 68.5261 310.063 68.4628C310.11 68.4628 310.156 68.4628 310.202 68.4628C316.853 68.4628 321.716 72.4074 326.422 76.2255C331.496 80.3403 336.741 84.5961 344.428 84.3651C349.329 83.261 352.217 79.4308 355.273 75.3792C358.895 70.5762 362.641 65.6102 370.116 64.0975C374.274 63.2561 378.722 63.6866 383.33 65.3792C383.52 65.4497 383.618 65.6588 383.547 65.8485C383.477 66.0382 383.267 66.1331 383.077 66.065C378.595 64.4186 374.283 63.9978 370.26 64.8125C363.058 66.2717 359.397 71.1258 355.856 75.8194C352.709 79.9925 349.736 83.9347 344.552 85.0874C344.53 85.0923 344.508 85.0947 344.484 85.0971C344.26 85.1044 344.038 85.1068 343.818 85.1068V85.102Z" fill="#018BCE"/>
<path d="M311.456 69.2042C311.505 72.4922 306.329 72.4922 306.377 69.2042C306.329 65.9163 311.505 65.9163 311.456 69.2042Z" fill="white"/>
<path d="M308.917 72.0355C308.359 72.0355 307.801 71.8969 307.326 71.6197C306.463 71.1163 305.997 70.2578 306.012 69.1999C305.997 68.1518 306.463 67.2933 307.326 66.7899C308.279 66.2354 309.558 66.2354 310.511 66.7899C311.371 67.2909 311.837 68.1493 311.825 69.2048C311.839 70.2602 311.371 71.1187 310.511 71.6197C310.036 71.8969 309.478 72.0355 308.92 72.0355H308.917ZM308.917 67.106C308.486 67.106 308.054 67.2106 307.694 67.4197C307.253 67.6775 306.729 68.1955 306.743 69.1975C306.729 70.2116 307.253 70.7296 307.694 70.9874C308.413 71.4057 309.419 71.4081 310.141 70.9874C310.582 70.7296 311.106 70.2116 311.091 69.2072V69.1975C311.106 68.1931 310.582 67.6751 310.141 67.4173C309.78 67.2082 309.349 67.1036 308.917 67.1036V67.106Z" fill="#292929"/>
<path d="M347.013 84.4083C347.062 87.6963 341.885 87.6963 341.934 84.4083C341.885 81.1204 347.062 81.1204 347.013 84.4083Z" fill="white"/>
<path d="M344.474 87.2396C343.916 87.2396 343.358 87.101 342.882 86.8238C342.02 86.3204 341.554 85.4619 341.569 84.404C341.554 83.3559 342.02 82.4974 342.882 81.994C343.835 81.4395 345.115 81.4395 346.068 81.994C346.928 82.495 347.394 83.3534 347.381 84.4089C347.396 85.4643 346.928 86.3228 346.068 86.8238C345.593 87.101 345.034 87.2396 344.476 87.2396H344.474ZM344.474 82.3101C344.042 82.3101 343.611 82.4147 343.25 82.6238C342.809 82.8816 342.285 83.3996 342.3 84.4016C342.285 85.4157 342.809 85.9337 343.25 86.1915C343.972 86.6122 344.976 86.6098 345.697 86.1915C346.138 85.9337 346.662 85.4157 346.648 84.4113V84.4016C346.662 83.3972 346.138 82.8792 345.697 82.6214C345.337 82.4123 344.905 82.3077 344.474 82.3077V82.3101Z" fill="#292929"/>
<path d="M384.79 65.7199C384.839 69.0078 379.663 69.0078 379.711 65.7199C379.663 62.4319 384.839 62.4319 384.79 65.7199Z" fill="white"/>
<path d="M382.251 68.5502C381.693 68.5502 381.135 68.4115 380.66 68.1343C379.797 67.6309 379.331 66.7724 379.346 65.7146C379.331 64.6664 379.797 63.8079 380.66 63.3045C381.613 62.7501 382.892 62.7501 383.845 63.3045C384.705 63.8055 385.171 64.664 385.159 65.7194C385.173 66.7749 384.705 67.6333 383.845 68.1343C383.37 68.4115 382.812 68.5502 382.254 68.5502H382.251ZM382.251 63.6207C381.82 63.6207 381.388 63.7253 381.028 63.9344C380.587 64.1922 380.063 64.7102 380.077 65.7121C380.063 66.7262 380.587 67.2442 381.028 67.502C381.749 67.9227 382.753 67.9227 383.475 67.502C383.916 67.2442 384.44 66.7262 384.425 65.7219V65.7121C384.44 64.7077 383.916 64.1897 383.475 63.932C383.114 63.7228 382.683 63.6182 382.251 63.6182V63.6207Z" fill="#292929"/>
<path d="M411.271 287.86H240.155C237.193 287.86 234.791 290.257 234.791 293.213V338.378C234.791 341.335 237.193 343.731 240.155 343.731H411.271C414.234 343.731 416.635 341.335 416.635 338.378V293.213C416.635 290.257 414.234 287.86 411.271 287.86Z" fill="white"/>
<path d="M411.271 344.095H240.158C236.999 344.095 234.428 341.53 234.428 338.378V293.213C234.428 290.061 236.999 287.495 240.158 287.495H411.271C414.43 287.495 417.001 290.061 417.001 293.213V338.378C417.001 341.53 414.43 344.095 411.271 344.095ZM240.155 288.225C237.399 288.225 235.156 290.462 235.156 293.213V338.378C235.156 341.129 237.399 343.366 240.155 343.366H411.269C414.025 343.366 416.267 341.129 416.267 338.378V293.213C416.267 290.462 414.025 288.225 411.269 288.225H240.155Z" fill="#292929"/>
<path d="M402.679 300.552H356.819C356.616 300.552 356.453 300.389 356.453 300.187C356.453 299.985 356.616 299.822 356.819 299.822H402.679C402.882 299.822 403.045 299.985 403.045 300.187C403.045 300.389 402.882 300.552 402.679 300.552Z" fill="#292929"/>
<path d="M393.971 307.647H356.821C356.618 307.647 356.455 307.484 356.455 307.282C356.455 307.08 356.618 306.917 356.821 306.917H393.971C394.173 306.917 394.336 307.08 394.336 307.282C394.336 307.484 394.173 307.647 393.971 307.647Z" fill="#292929"/>
<path d="M374.418 314.742H356.819C356.616 314.742 356.453 314.579 356.453 314.377C356.453 314.176 356.616 314.013 356.819 314.013H374.418C374.62 314.013 374.783 314.176 374.783 314.377C374.783 314.579 374.62 314.742 374.418 314.742Z" fill="#292929"/>
<path d="M402.679 321.836H356.819C356.616 321.836 356.453 321.673 356.453 321.471C356.453 321.269 356.616 321.106 356.819 321.106H402.679C402.882 321.106 403.045 321.269 403.045 321.471C403.045 321.673 402.882 321.836 402.679 321.836Z" fill="#292929"/>
<path d="M402.679 328.931H356.819C356.616 328.931 356.453 328.768 356.453 328.566C356.453 328.364 356.616 328.201 356.819 328.201H402.679C402.882 328.201 403.045 328.364 403.045 328.566C403.045 328.768 402.882 328.931 402.679 328.931Z" fill="#292929"/>
<path d="M389.348 336.026H356.819C356.616 336.026 356.453 335.864 356.453 335.662C356.453 335.46 356.616 335.297 356.819 335.297H389.348C389.55 335.297 389.714 335.46 389.714 335.662C389.714 335.864 389.55 336.026 389.348 336.026Z" fill="#292929"/>
<path d="M338.688 309.942H326.955V335.66H338.688V309.942Z" fill="#292929"/>
<path d="M323.045 321.827H311.312V335.662H323.045V321.827Z" fill="#018BCE"/>
<path d="M323.223 314.375H311.49V319.341H323.223V314.375Z" fill="#018BCE"/>
<path d="M307.405 316.86H295.672V335.661H307.405V316.86Z" fill="#018BCE"/>
<path d="M307.582 307.991H295.85V314.377H307.582V307.991Z" fill="#018BCE"/>
<path d="M291.762 325.02H280.029V335.662H291.762V325.02Z" fill="#292929"/>
<path d="M291.94 318.634H280.207V322.182H291.94V318.634Z" fill="#292929"/>
<path d="M276.119 321.827H264.387V335.662H276.119V321.827Z" fill="#018BCE"/>
<path d="M260.475 326.793H248.742V335.662H260.475V326.793Z" fill="#018BCE"/>
<path d="M260.655 320.762H248.922V323.955H260.655V320.762Z" fill="#018BCE"/>
<path d="M276.119 316.15H264.387V319.699H276.119V316.15Z" fill="#018BCE"/>
<path d="M338.688 295.93H326.955V304.799H338.688V295.93Z" fill="#292929"/>
<path d="M162.128 206.6C162.128 207.8 161.904 208.928 161.456 209.984C161.008 211.024 160.384 211.944 159.584 212.744C158.8 213.528 157.856 214.152 156.752 214.616C155.664 215.064 154.472 215.288 153.176 215.288C151.88 215.288 150.688 215.064 149.6 214.616C148.512 214.152 147.568 213.536 146.768 212.768C145.984 211.984 145.368 211.072 144.92 210.032C144.488 208.976 144.272 207.848 144.272 206.648V206.6C144.272 205.4 144.496 204.28 144.944 203.24C145.392 202.184 146.008 201.264 146.792 200.48C147.592 199.68 148.536 199.056 149.624 198.608C150.728 198.144 151.928 197.912 153.224 197.912C154.52 197.912 155.712 198.144 156.8 198.608C157.888 199.056 158.824 199.672 159.608 200.456C160.408 201.224 161.024 202.136 161.456 203.192C161.904 204.232 162.128 205.352 162.128 206.552V206.6ZM158.264 206.648V206.6C158.264 205.88 158.136 205.2 157.88 204.56C157.64 203.92 157.288 203.36 156.824 202.88C156.376 202.4 155.84 202.024 155.216 201.752C154.592 201.464 153.912 201.32 153.176 201.32C152.424 201.32 151.736 201.456 151.112 201.728C150.504 202 149.976 202.376 149.528 202.856C149.096 203.336 148.752 203.896 148.496 204.536C148.256 205.16 148.136 205.832 148.136 206.552V206.6C148.136 207.32 148.256 208 148.496 208.64C148.752 209.28 149.104 209.84 149.552 210.32C150.016 210.8 150.552 211.184 151.16 211.472C151.784 211.744 152.472 211.88 153.224 211.88C153.96 211.88 154.64 211.744 155.264 211.472C155.888 211.2 156.416 210.824 156.848 210.344C157.296 209.864 157.64 209.312 157.88 208.688C158.136 208.048 158.264 207.368 158.264 206.648ZM178.199 201.56H169.103V205.136H177.119V208.496H169.103V215H165.407V198.2H178.199V201.56ZM193.949 201.56H184.853V205.136H192.869V208.496H184.853V215H181.157V198.2H193.949V201.56ZM203.483 209.312H196.091V205.808H203.483V209.312ZM220 204.056C220 205.032 219.824 205.888 219.472 206.624C219.12 207.36 218.632 207.976 218.008 208.472C217.4 208.968 216.68 209.344 215.848 209.6C215.032 209.84 214.152 209.96 213.208 209.96H210.4V215H206.704V198.2H213.568C214.576 198.2 215.472 198.344 216.256 198.632C217.056 198.904 217.728 199.296 218.272 199.808C218.832 200.32 219.256 200.936 219.544 201.656C219.848 202.36 220 203.144 220 204.008V204.056ZM216.256 204.128V204.08C216.256 203.248 215.984 202.616 215.44 202.184C214.912 201.752 214.184 201.536 213.256 201.536H210.4V206.672H213.328C214.256 206.672 214.976 206.432 215.488 205.952C216 205.456 216.256 204.848 216.256 204.128ZM239.103 215H235.239L233.703 211.232H226.599L225.063 215H221.295L228.495 198.08H231.903L239.103 215ZM232.383 207.968L230.151 202.52L227.919 207.968H232.383ZM256.96 212.624C256.096 213.36 255.064 213.992 253.864 214.52C252.68 215.032 251.32 215.288 249.784 215.288C248.472 215.288 247.272 215.072 246.184 214.64C245.112 214.208 244.184 213.608 243.4 212.84C242.632 212.072 242.032 211.16 241.6 210.104C241.168 209.048 240.952 207.896 240.952 206.648V206.6C240.952 205.4 241.168 204.28 241.6 203.24C242.048 202.184 242.664 201.264 243.448 200.48C244.232 199.68 245.16 199.056 246.232 198.608C247.304 198.144 248.48 197.912 249.76 197.912C250.512 197.912 251.192 197.968 251.8 198.08C252.424 198.176 253 198.32 253.528 198.512C254.056 198.704 254.552 198.944 255.016 199.232C255.48 199.52 255.928 199.848 256.36 200.216L254.032 203.024C253.712 202.752 253.392 202.512 253.072 202.304C252.752 202.096 252.416 201.92 252.064 201.776C251.728 201.632 251.36 201.52 250.96 201.44C250.56 201.36 250.12 201.32 249.64 201.32C248.968 201.32 248.336 201.464 247.744 201.752C247.168 202.024 246.656 202.4 246.208 202.88C245.776 203.344 245.432 203.896 245.176 204.536C244.936 205.16 244.816 205.832 244.816 206.552V206.6C244.816 207.368 244.936 208.08 245.176 208.736C245.432 209.376 245.784 209.936 246.232 210.416C246.696 210.896 247.232 211.272 247.84 211.544C248.464 211.8 249.152 211.928 249.904 211.928C251.28 211.928 252.44 211.592 253.384 210.92V208.52H249.664V205.328H256.96V212.624ZM273.308 215H260.516V198.2H273.188V201.488H264.188V204.896H272.108V208.184H264.188V211.712H273.308V215Z" fill="#018BCE"/>
</g>
</g>
<defs>
<clipPath id="clip0_2421_10868">
<rect width="427" height="425" fill="white"/>
</clipPath>
<clipPath id="clip1_2421_10868">
<rect width="417" height="317" fill="white" transform="translate(0 54)"/>
</clipPath>
</defs>
</svg>
