<svg width="427" height="425" viewBox="0 0 427 425" fill="none" xmlns="http://www.w3.org/2000/svg">
<g clip-path="url(#clip0_2420_10619)">
<path d="M400.041 382.57C388.531 392.16 338.441 398.94 278.761 401.49C187.021 405.42 72.6009 399.37 40.7909 378.2C25.7309 368.19 15.5509 337.25 9.1009 297.66C-6.9291 199.16 0.220901 47.1301 13.1609 30.6501C31.3109 7.56009 323.301 -15.3099 399.911 13.9301C432.741 26.4601 429.231 358.23 400.031 382.57H400.041Z" fill="white"/>
<path d="M373.314 247.44L375.204 241.883L377.358 247.44C377.358 247.44 381.657 248.14 381.712 248.531C381.757 248.913 377.595 250.095 377.595 250.095C377.595 250.095 375.85 255.488 375.204 254.27C374.568 253.051 373.95 250.35 373.95 250.35C373.95 250.35 368.533 249.268 368.533 248.731C368.533 248.158 373.314 247.449 373.314 247.449V247.44Z" fill="white"/>
<path d="M304.094 233.142L305.566 228.822L307.238 233.142C307.238 233.142 310.574 233.688 310.619 233.988C310.656 234.279 307.429 235.198 307.429 235.198C307.429 235.198 306.075 239.381 305.575 238.435C305.075 237.49 304.594 235.389 304.594 235.389C304.594 235.389 300.395 234.543 300.395 234.134C300.395 233.688 304.103 233.142 304.103 233.142H304.094Z" fill="white"/>
<g clip-path="url(#clip1_2420_10619)">
<path d="M176.672 68.6475H339.546V210.36C339.546 212.691 337.657 214.583 335.329 214.583H180.89C178.563 214.583 176.674 212.691 176.674 210.36V68.6475H176.672Z" fill="white"/>
<path d="M325.465 214.932H190.749C182.793 214.932 176.32 208.449 176.32 200.48V68.2959H339.894V200.48C339.894 208.449 333.421 214.932 325.465 214.932ZM177.022 68.9987V200.482C177.022 208.064 183.18 214.232 190.749 214.232H325.465C333.035 214.232 339.192 208.064 339.192 200.482V68.9987H177.02H177.022Z" fill="black"/>
<path d="M311.28 82.498H208.08C204.552 82.498 201.691 85.3631 201.691 88.8973V117.182C201.691 120.716 204.552 123.581 208.08 123.581H311.28C314.808 123.581 317.668 120.716 317.668 117.182V88.8973C317.668 85.3631 314.808 82.498 311.28 82.498Z" fill="#EBEBEB"/>
<path d="M311.279 123.93H208.079C204.363 123.93 201.34 120.902 201.34 117.18V88.8952C201.34 85.1727 204.363 82.1445 208.079 82.1445H311.279C314.995 82.1445 318.018 85.1727 318.018 88.8952V117.18C318.018 120.902 314.995 123.93 311.279 123.93ZM208.079 82.8495C204.75 82.8495 202.042 85.562 202.042 88.8973V117.182C202.042 120.517 204.75 123.23 208.079 123.23H311.279C314.609 123.23 317.317 120.517 317.317 117.182V88.8973C317.317 85.562 314.609 82.8495 311.279 82.8495H208.079Z" fill="black"/>
<path d="M242.113 107.619C242.113 108.635 241.924 109.527 241.546 110.295C241.168 111.063 240.655 111.703 240.008 112.217C239.361 112.73 238.605 113.115 237.739 113.376C236.874 113.635 235.947 113.765 234.964 113.765C234.298 113.765 233.678 113.711 233.107 113.601C232.533 113.492 232.029 113.359 231.592 113.206C231.155 113.052 230.79 112.89 230.496 112.72C230.201 112.549 229.989 112.4 229.861 112.271C229.731 112.143 229.638 111.956 229.586 111.712C229.531 111.467 229.504 111.116 229.504 110.657C229.504 110.348 229.514 110.089 229.533 109.881C229.552 109.672 229.586 109.502 229.63 109.372C229.674 109.243 229.735 109.151 229.809 109.096C229.884 109.041 229.97 109.014 230.071 109.014C230.21 109.014 230.407 109.096 230.659 109.26C230.914 109.424 231.239 109.607 231.636 109.805C232.033 110.005 232.51 110.186 233.061 110.35C233.613 110.514 234.252 110.596 234.979 110.596C235.456 110.596 235.884 110.539 236.262 110.424C236.64 110.31 236.962 110.148 237.224 109.938C237.487 109.727 237.689 109.47 237.83 109.161C237.968 108.852 238.038 108.509 238.038 108.13C238.038 107.692 237.918 107.316 237.678 107.002C237.439 106.689 237.128 106.409 236.746 106.165C236.363 105.92 235.926 105.691 235.441 105.476C234.953 105.262 234.451 105.037 233.932 104.797C233.416 104.557 232.914 104.285 232.424 103.982C231.937 103.679 231.502 103.315 231.119 102.892C230.735 102.469 230.426 101.968 230.187 101.39C229.947 100.811 229.827 100.119 229.827 99.3107C229.827 98.3848 230 97.5704 230.342 96.8676C230.685 96.1647 231.147 95.5818 231.731 95.1189C232.313 94.6559 233 94.3087 233.79 94.0793C234.582 93.85 235.418 93.7363 236.304 93.7363C236.762 93.7363 237.22 93.7721 237.678 93.8415C238.136 93.911 238.565 94.0057 238.962 94.1256C239.359 94.2456 239.712 94.3803 240.021 94.5297C240.33 94.6791 240.533 94.8032 240.632 94.9042C240.731 95.0052 240.798 95.0894 240.834 95.1589C240.869 95.2283 240.899 95.3209 240.924 95.4345C240.949 95.5482 240.966 95.6934 240.977 95.868C240.987 96.0427 240.991 96.2594 240.991 96.5183C240.991 96.8066 240.983 97.0507 240.968 97.2506C240.953 97.4505 240.928 97.6146 240.893 97.743C240.857 97.8735 240.809 97.966 240.743 98.0271C240.678 98.086 240.592 98.1154 240.483 98.1154C240.374 98.1154 240.199 98.046 239.962 97.9071C239.722 97.7682 239.428 97.6146 239.082 97.4526C238.733 97.2884 238.33 97.139 237.874 97.0044C237.416 96.8697 236.914 96.8023 236.367 96.8023C235.939 96.8023 235.567 96.855 235.248 96.9602C234.928 97.0654 234.664 97.2085 234.449 97.3937C234.235 97.5788 234.075 97.7998 233.97 98.0586C233.865 98.3175 233.815 98.591 233.815 98.8814C233.815 99.3086 233.93 99.6811 234.166 99.9946C234.399 100.308 234.712 100.588 235.105 100.832C235.498 101.076 235.943 101.306 236.441 101.52C236.939 101.735 237.445 101.962 237.964 102.2C238.481 102.438 238.989 102.711 239.485 103.014C239.983 103.317 240.426 103.681 240.813 104.106C241.201 104.529 241.514 105.028 241.752 105.601C241.991 106.173 242.111 106.848 242.111 107.625L242.113 107.619Z" fill="white"/>
<path d="M258.729 111.88C258.729 112.168 258.716 112.41 258.691 112.606C258.666 112.8 258.628 112.957 258.579 113.077C258.531 113.197 258.468 113.284 258.392 113.338C258.317 113.393 258.235 113.42 258.147 113.42H248.447C248.119 113.42 247.842 113.324 247.619 113.128C247.397 112.934 247.283 112.616 247.283 112.179V95.3168C247.283 94.8791 247.395 94.5613 247.619 94.3677C247.844 94.1741 248.119 94.0752 248.447 94.0752H258.088C258.178 94.0752 258.258 94.1004 258.327 94.1509C258.397 94.2015 258.455 94.2877 258.506 94.414C258.556 94.5381 258.592 94.6981 258.617 94.8917C258.642 95.0853 258.655 95.3336 258.655 95.6303C258.655 95.9102 258.642 96.1459 258.617 96.3395C258.592 96.5352 258.554 96.6909 258.506 96.8108C258.455 96.9308 258.397 97.0171 258.327 97.0718C258.258 97.1265 258.178 97.1538 258.088 97.1538H251.193V101.878H257.027C257.117 101.878 257.199 101.905 257.273 101.96C257.346 102.015 257.409 102.101 257.46 102.215C257.51 102.331 257.546 102.484 257.571 102.678C257.596 102.871 257.609 103.109 257.609 103.387C257.609 103.665 257.596 103.915 257.571 104.104C257.546 104.294 257.508 104.445 257.46 104.559C257.409 104.673 257.348 104.757 257.273 104.805C257.197 104.854 257.115 104.881 257.027 104.881H251.193V110.337H258.147C258.237 110.337 258.319 110.365 258.392 110.42C258.468 110.474 258.529 110.561 258.579 110.683C258.63 110.803 258.666 110.958 258.691 111.154C258.716 111.348 258.729 111.59 258.729 111.88Z" fill="white"/>
<path d="M281.209 103.523C281.209 105.129 281.01 106.562 280.612 107.829C280.215 109.096 279.623 110.169 278.837 111.05C278.052 111.932 277.079 112.606 275.919 113.068C274.76 113.531 273.419 113.763 271.898 113.763C270.377 113.763 269.085 113.565 267.965 113.172C266.846 112.778 265.913 112.178 265.167 111.37C264.421 110.562 263.862 109.537 263.488 108.29C263.115 107.044 262.93 105.569 262.93 103.864C262.93 102.301 263.129 100.893 263.526 99.6407C263.923 98.3907 264.516 97.326 265.302 96.4484C266.087 95.5709 267.06 94.8976 268.22 94.4304C269.379 93.9632 270.724 93.7275 272.257 93.7275C273.791 93.7275 275.012 93.9232 276.129 94.3104C277.249 94.6997 278.184 95.2974 278.936 96.1054C279.686 96.9114 280.253 97.932 280.638 99.1609C281.02 100.392 281.213 101.844 281.213 103.519L281.209 103.523ZM277.091 103.734C277.091 102.717 277.012 101.793 276.852 100.96C276.692 100.129 276.421 99.4156 276.039 98.8221C275.657 98.2287 275.146 97.7721 274.51 97.448C273.873 97.1239 273.077 96.9619 272.121 96.9619C271.165 96.9619 270.35 97.1429 269.703 97.5069C269.056 97.871 268.533 98.3571 268.136 98.9631C267.738 99.5713 267.457 100.28 267.293 101.093C267.129 101.905 267.047 102.766 267.047 103.673C267.047 104.729 267.127 105.678 267.285 106.52C267.444 107.362 267.713 108.081 268.091 108.679C268.47 109.276 268.978 109.733 269.612 110.047C270.249 110.36 271.049 110.518 272.016 110.518C272.982 110.518 273.787 110.339 274.434 109.979C275.081 109.619 275.604 109.131 276.001 108.515C276.398 107.898 276.68 107.176 276.844 106.356C277.007 105.533 277.089 104.66 277.089 103.732L277.091 103.734Z" fill="white"/>
<path d="M151.106 50.5021C151.106 60.6703 159.33 68.9193 169.482 68.9193H336.559C346.711 68.9193 354.935 60.6724 354.935 50.5021C354.935 45.418 352.881 40.818 349.559 37.4805C346.227 34.143 341.635 32.085 336.559 32.085H169.49C159.339 32.085 151.104 40.3319 151.104 50.5021H151.106Z" fill="white"/>
<path d="M336.559 69.2686H169.481C159.155 69.2686 150.754 60.8491 150.754 50.5C150.754 40.1509 159.159 31.7314 169.491 31.7314H336.561C341.565 31.7314 346.269 33.6843 349.809 37.228C353.342 40.778 355.288 45.4896 355.288 50.4979C355.288 60.847 346.886 69.2665 336.561 69.2665L336.559 69.2686ZM169.491 32.4364C159.546 32.4364 151.456 40.5402 151.456 50.5021C151.456 60.464 159.542 68.5678 169.481 68.5678H336.559C346.498 68.5678 354.584 60.464 354.584 50.5021C354.584 45.6811 352.712 41.1441 349.311 37.7288C345.905 34.3156 341.376 32.4364 336.561 32.4364H169.491Z" fill="black"/>
<path d="M151.106 50.5021C151.106 60.6703 159.33 68.9193 169.482 68.9193H172.631C182.782 68.9193 191.007 60.6724 191.007 50.5021C191.007 45.418 188.952 40.818 185.631 37.4805C182.299 34.143 177.706 32.085 172.631 32.085H169.49C159.339 32.085 151.104 40.3319 151.104 50.5021H151.106Z" fill="#191919"/>
<path d="M172.63 69.2686H169.481C159.155 69.2686 150.754 60.8491 150.754 50.5C150.754 40.1509 159.159 31.7314 169.491 31.7314H172.632C177.636 31.7314 182.34 33.6843 185.88 37.228C189.414 40.778 191.359 45.4896 191.359 50.4979C191.359 60.847 182.958 69.2665 172.632 69.2665L172.63 69.2686ZM169.491 32.4364C159.546 32.4364 151.456 40.5402 151.456 50.5021C151.456 60.464 159.542 68.5678 169.481 68.5678H172.63C182.569 68.5678 190.655 60.464 190.655 50.5021C190.655 45.6811 188.783 41.1462 185.382 37.7288C181.977 34.3177 177.447 32.4385 172.63 32.4385H169.489L169.491 32.4364Z" fill="black"/>
<path d="M224.84 58.4945C224.798 58.665 224.74 58.8018 224.666 58.9028C224.59 59.0059 224.481 59.0838 224.332 59.1364C224.185 59.189 223.994 59.2247 223.761 59.2437C223.527 59.2605 223.231 59.271 222.87 59.271C222.467 59.271 222.143 59.2626 221.899 59.2437C221.656 59.2247 221.462 59.1911 221.322 59.1364C221.181 59.0838 221.078 59.0059 221.015 58.9028C220.952 58.7997 220.901 58.665 220.866 58.4945L218.672 49.7889H218.651L216.574 58.4945C216.538 58.6587 216.49 58.7913 216.425 58.8923C216.361 58.9954 216.261 59.0732 216.122 59.1301C215.983 59.1869 215.796 59.2226 215.561 59.2416C215.324 59.2584 215.013 59.2689 214.622 59.2689C214.212 59.2689 213.887 59.2605 213.641 59.2416C213.397 59.2247 213.204 59.189 213.063 59.1343C212.922 59.0817 212.819 59.0038 212.756 58.9007C212.693 58.7976 212.641 58.6629 212.597 58.4924L209.481 46.5061C209.418 46.2515 209.383 46.0516 209.374 45.9064C209.366 45.7612 209.408 45.6497 209.496 45.5718C209.584 45.494 209.729 45.4456 209.931 45.4287C210.133 45.4119 210.414 45.4014 210.773 45.4014C211.105 45.4014 211.368 45.4077 211.563 45.4182C211.759 45.4287 211.904 45.454 212.002 45.494C212.101 45.5339 212.168 45.5887 212.204 45.6644C212.24 45.7402 212.267 45.8433 212.288 45.978L214.693 56.4975H214.704L217.206 46.0516C217.233 45.9169 217.271 45.8075 217.317 45.7233C217.364 45.6392 217.441 45.5739 217.551 45.5276C217.66 45.4813 217.811 45.4498 218 45.4329C218.191 45.4161 218.446 45.4056 218.765 45.4056C219.103 45.4056 219.374 45.414 219.576 45.4266C219.777 45.4414 219.933 45.4708 220.042 45.5171C220.151 45.5634 220.231 45.6286 220.28 45.7128C220.328 45.797 220.368 45.9106 220.397 46.0516L222.983 56.4975H223.004L225.41 46.0095C225.431 45.8959 225.458 45.7991 225.494 45.717C225.53 45.6349 225.597 45.5718 225.696 45.5255C225.794 45.4792 225.935 45.4477 226.12 45.4308C226.303 45.414 226.561 45.4035 226.893 45.4035C227.204 45.4035 227.446 45.4119 227.62 45.4308C227.792 45.4477 227.918 45.4961 227.996 45.5739C228.074 45.6518 228.107 45.7675 228.097 45.919C228.086 46.0705 228.048 46.2789 227.985 46.5398L224.838 58.4924L224.84 58.4945Z" fill="#C5CDE3"/>
<path d="M247.766 58.4945C247.724 58.665 247.665 58.8018 247.592 58.9028C247.516 59.0059 247.407 59.0838 247.258 59.1364C247.111 59.189 246.92 59.2247 246.686 59.2437C246.453 59.2605 246.157 59.271 245.796 59.271C245.392 59.271 245.069 59.2626 244.825 59.2437C244.581 59.2247 244.388 59.1911 244.247 59.1364C244.107 59.0838 244.004 59.0059 243.941 58.9028C243.878 58.7997 243.827 58.665 243.791 58.4945L241.598 49.7889H241.577L239.499 58.4945C239.464 58.6587 239.415 58.7913 239.35 58.8923C239.287 58.9954 239.186 59.0732 239.048 59.1301C238.909 59.1869 238.722 59.2226 238.487 59.2416C238.249 59.2584 237.939 59.2689 237.548 59.2689C237.138 59.2689 236.812 59.2605 236.567 59.2416C236.321 59.2226 236.13 59.189 235.989 59.1343C235.848 59.0817 235.745 59.0038 235.682 58.9007C235.619 58.7976 235.567 58.6629 235.523 58.4924L232.407 46.5061C232.344 46.2515 232.308 46.0516 232.3 45.9064C232.291 45.7612 232.333 45.6497 232.422 45.5718C232.51 45.494 232.655 45.4456 232.857 45.4287C233.058 45.4119 233.34 45.4014 233.699 45.4014C234.031 45.4014 234.294 45.4077 234.489 45.4182C234.684 45.4287 234.829 45.454 234.928 45.494C235.027 45.5339 235.094 45.5887 235.13 45.6644C235.165 45.7402 235.193 45.8433 235.214 45.978L237.619 56.4975H237.63L240.132 46.0516C240.159 45.9169 240.197 45.8075 240.243 45.7233C240.289 45.6392 240.367 45.5739 240.476 45.5276C240.586 45.4813 240.737 45.4498 240.926 45.4329C241.117 45.4161 241.371 45.4056 241.691 45.4056C242.029 45.4056 242.3 45.414 242.502 45.4266C242.703 45.4414 242.859 45.4708 242.968 45.5171C243.077 45.5634 243.157 45.6286 243.205 45.7128C243.254 45.797 243.294 45.9106 243.323 46.0516L245.909 56.4975H245.93L248.336 46.0095C248.357 45.8959 248.384 45.7991 248.42 45.717C248.455 45.6349 248.523 45.5718 248.621 45.5255C248.72 45.4792 248.861 45.4477 249.046 45.4308C249.228 45.414 249.487 45.4035 249.819 45.4035C250.13 45.4035 250.371 45.4119 250.546 45.4308C250.718 45.4477 250.844 45.4961 250.922 45.5739C250.999 45.6518 251.033 45.7675 251.023 45.919C251.012 46.0705 250.976 46.2789 250.911 46.5398L247.764 58.4924L247.766 58.4945Z" fill="#C5CDE3"/>
<path d="M270.694 58.4945C270.652 58.665 270.593 58.8018 270.52 58.9028C270.444 59.0059 270.335 59.0838 270.186 59.1364C270.039 59.189 269.847 59.2247 269.614 59.2437C269.381 59.2605 269.085 59.271 268.723 59.271C268.32 59.271 267.997 59.2626 267.753 59.2437C267.509 59.2269 267.316 59.1911 267.175 59.1364C267.034 59.0838 266.931 59.0059 266.868 58.9028C266.805 58.7997 266.755 58.665 266.719 58.4945L264.526 49.7889H264.505L262.427 58.4945C262.391 58.6587 262.343 58.7913 262.278 58.8923C262.215 58.9954 262.114 59.0732 261.976 59.1301C261.837 59.1869 261.65 59.2226 261.415 59.2416C261.177 59.2584 260.866 59.2689 260.476 59.2689C260.066 59.2689 259.74 59.2605 259.494 59.2416C259.251 59.2247 259.057 59.189 258.917 59.1343C258.776 59.0817 258.673 59.0038 258.61 58.9007C258.547 58.7976 258.494 58.6629 258.45 58.4924L255.335 46.5061C255.272 46.2515 255.236 46.0516 255.228 45.9064C255.219 45.7612 255.261 45.6497 255.349 45.5718C255.438 45.494 255.583 45.4456 255.784 45.4287C255.986 45.4119 256.268 45.4014 256.627 45.4014C256.959 45.4014 257.221 45.4077 257.417 45.4182C257.612 45.4287 257.757 45.454 257.856 45.494C257.955 45.5339 258.022 45.5887 258.057 45.6644C258.093 45.7402 258.12 45.8433 258.141 45.978L260.547 56.4975H260.557L263.06 46.0516C263.087 45.9169 263.125 45.8075 263.171 45.7233C263.217 45.6392 263.295 45.5739 263.404 45.5276C263.513 45.4813 263.665 45.4498 263.854 45.4329C264.045 45.4161 264.299 45.4056 264.618 45.4056C264.957 45.4056 265.228 45.414 265.429 45.4266C265.631 45.4414 265.786 45.4708 265.896 45.5171C266.005 45.5634 266.085 45.6286 266.133 45.7128C266.181 45.797 266.221 45.9106 266.251 46.0516L268.837 56.4975H268.858L271.263 46.0095C271.284 45.8959 271.312 45.7991 271.347 45.717C271.383 45.6349 271.45 45.5718 271.549 45.5255C271.648 45.4792 271.789 45.4477 271.973 45.4308C272.156 45.414 272.415 45.4035 272.747 45.4035C273.057 45.4035 273.299 45.4119 273.473 45.4308C273.646 45.4477 273.772 45.4961 273.849 45.5739C273.927 45.6518 273.961 45.7675 273.95 45.919C273.94 46.0705 273.902 46.2789 273.839 46.5398L270.692 58.4924L270.694 58.4945Z" fill="#C5CDE3"/>
<path d="M162.549 54.831C159.325 51.6009 159.325 46.3443 162.549 43.112C164.112 41.5464 166.19 40.6836 168.4 40.6836C170.61 40.6836 172.688 41.5464 174.249 43.112C177.476 46.3422 177.476 51.5988 174.249 54.831C172.686 56.3967 170.608 57.2594 168.4 57.2594C166.192 57.2594 164.112 56.3967 162.552 54.831H162.549ZM165.407 45.9739C163.757 47.6279 163.757 50.3172 165.407 51.9691C166.205 52.7709 167.268 53.2107 168.398 53.2107C169.528 53.2107 170.591 52.7688 171.392 51.9691C173.041 50.3151 173.041 47.6258 171.392 45.9739C170.591 45.1721 169.528 44.7323 168.398 44.7323C167.268 44.7323 166.205 45.1742 165.404 45.9739H165.407Z" fill="white"/>
<path d="M177.707 60.3174C178.224 60.3174 178.74 60.1196 179.135 59.724C179.923 58.9328 179.923 57.6513 179.135 56.8621L174.249 51.9674C173.461 51.1762 172.182 51.1762 171.392 51.9674C170.604 52.7587 170.604 54.0402 171.392 54.8293L176.278 59.724C176.673 60.1196 177.19 60.3174 177.707 60.3174Z" fill="white"/>
<path d="M102.105 130.47C102.105 130.47 119.782 152.505 129.723 156.501C142.118 161.484 182.12 138.433 182.12 138.433L178.007 125.031L139.196 134.088L117.162 109.762L102.105 130.47Z" fill="#FFCFC5"/>
<path d="M85.9654 109.09L103.888 131.912L104.404 132.575L107.892 137.007C109.495 136.929 111.846 135.973 114.461 134.49C115.673 133.808 116.938 133.01 118.211 132.148C125.921 126.906 133.995 118.981 132.031 116.475C132.031 116.475 115.86 96.7737 108.888 93.0617C102.48 89.6653 84.4297 89.2676 84.4297 89.2676L85.9633 109.088L85.9654 109.09Z" fill="#1D1D1D"/>
<path d="M104.402 132.575L107.89 137.006C109.493 136.928 111.844 135.973 114.459 134.49C115.671 133.808 116.936 133.01 118.209 132.147L110.377 114.372L104.4 132.575H104.402Z" fill="black"/>
<path d="M215.308 109.068L169.379 161.712C167.169 164.172 163.392 164.374 160.93 162.16C158.474 159.946 158.278 156.156 160.488 153.696L206.404 101.059C206.478 101.149 206.568 101.237 206.665 101.326L214.9 108.75C215.03 108.868 215.165 108.973 215.308 109.066V109.068Z" fill="white"/>
<path d="M164.925 164.041C163.416 164.041 161.902 163.507 160.694 162.421C158.099 160.081 157.889 156.062 160.225 153.461L206.137 100.827C206.206 100.749 206.299 100.699 206.408 100.707C206.511 100.707 206.61 100.755 206.673 100.835C206.736 100.913 206.813 100.989 206.897 101.065L215.133 108.489C215.25 108.596 215.37 108.691 215.496 108.773C215.58 108.828 215.637 108.918 215.649 109.019C215.664 109.12 215.633 109.221 215.567 109.297L169.639 161.941C168.389 163.334 166.658 164.041 164.923 164.041H164.925ZM206.418 101.576L160.752 153.926C158.67 156.242 158.857 159.818 161.164 161.897C163.473 163.974 167.042 163.784 169.118 161.474L214.792 109.12C214.748 109.084 214.706 109.046 214.664 109.009L206.429 101.584C206.429 101.584 206.42 101.576 206.416 101.574L206.418 101.576Z" fill="black"/>
<path d="M200.893 105.429C200.975 105.536 201.08 105.637 201.187 105.738L210.536 114.164C210.683 114.298 210.838 114.416 211.002 114.526C213.179 116.098 216.227 115.803 218.067 113.766L222.124 109.404C215.504 105.382 209.574 100.204 204.679 94.0547L200.798 98.2044C198.933 100.29 199.004 103.432 200.895 105.429H200.893Z" fill="#242B2B"/>
<g opacity="0.2">
<path d="M255.803 112.685C243.152 116.016 230.353 113.895 219.881 107.767C214.185 104.44 209.181 99.9222 205.269 94.4552C201.99 89.8762 199.473 84.6343 197.958 78.8578C191.313 53.5174 206.429 27.5731 231.734 20.9108C257.032 14.2547 282.929 29.4018 289.58 54.7422C296.225 80.0826 281.11 106.027 255.805 112.685H255.803Z" fill="white"/>
</g>
<path d="M243.685 114.612C235.336 114.612 227.101 112.399 219.7 108.07L219.563 107.99C219.37 107.876 219.174 107.761 218.987 107.643C214.168 104.716 209.952 101.006 206.46 96.6181C205.964 95.9974 205.479 95.3555 204.983 94.659C201.586 89.9221 199.107 84.636 197.615 78.948C190.933 53.4603 206.195 27.2719 231.641 20.5738C257.084 13.8778 283.225 29.17 289.914 54.6556C293.151 67.0017 291.397 79.8739 284.973 90.8985C278.546 101.925 268.218 109.783 255.889 113.026C251.849 114.088 247.754 114.614 243.685 114.614V114.612ZM198.294 78.7692C199.765 84.373 202.206 89.5833 205.555 94.2486C206.044 94.9368 206.521 95.5681 207.008 96.1783C210.45 100.501 214.605 104.156 219.357 107.043C219.544 107.161 219.733 107.272 219.92 107.382L220.055 107.462C230.901 113.804 243.565 115.536 255.71 112.342C267.857 109.147 278.036 101.403 284.365 90.5387C290.695 79.6761 292.424 66.9954 289.235 54.8281C282.645 29.7171 256.886 14.6521 231.819 21.2471C206.75 27.8484 191.71 53.6497 198.294 78.7649V78.7692Z" fill="#242B2B"/>
<path d="M178.006 125.024L179.691 130.519L188.874 126.093C188.874 126.093 195.813 130.435 196.019 127.777C196.153 125.984 193.294 122.249 191.315 120.86C190.315 120.155 189.029 120.035 187.911 120.513L178.004 125.024H178.006Z" fill="#FFCFC5"/>
<path d="M197.19 140.87C195.777 142.699 193.961 142.165 193.961 142.165C193.961 142.165 194.045 144.494 192.415 144.993C190.785 145.492 190.197 144.435 190.197 144.435C190.197 144.435 190.375 146.626 188.991 146.944C187.606 147.261 185.848 145.635 185.848 145.635C185.848 145.635 184.667 148.2 183.066 147.179C181.468 146.167 175.764 141.996 179.161 140.353C178.52 139.829 178.638 136.258 181.159 137.878C181.159 137.878 179.707 135.454 182.678 134.978C182.678 134.978 180.713 131.538 182.674 131.317C184.627 131.098 186.945 135.913 191.052 136.754C191.304 136.813 192.094 136.304 192.871 135.727C193.823 135.037 194.779 134.24 194.779 134.24C194.779 134.24 198.604 139.04 197.188 140.866L197.19 140.87Z" fill="#FFCFC5"/>
<path d="M194.03 138.12C193.023 138.288 191.051 136.758 191.051 136.758C191.303 136.817 192.093 136.308 192.87 135.731C192.937 135.803 194.129 138.103 194.03 138.12Z" fill="#FC9B88"/>
<path d="M181.158 137.88C183.444 139.932 185.744 142.137 188.753 143.025C185.616 142.625 183.07 140.256 181.158 137.88Z" fill="#FC9B88"/>
<path d="M179.16 140.357C180.746 142.026 182.473 143.569 184.65 144.379C182.322 144.051 180.347 142.323 179.16 140.357Z" fill="#FC9B88"/>
<path d="M182.674 134.726C185.205 136.91 187.779 139.601 191.226 140.077C187.72 140.117 184.81 137.228 182.674 134.726Z" fill="#FC9B88"/>
<path d="M185.483 359.582L164.892 353.307L160.569 350.152L140.617 357.24L142.619 372.925C142.619 373.788 143.397 374.422 144.224 374.255L187.5 365.461C188.226 365.314 188.697 364.603 188.55 363.875L188.231 362.303C187.949 360.916 186.871 359.849 185.483 359.586V359.582Z" fill="black"/>
<path d="M160.567 350.152L157.655 334.605L137.389 338.572L140.616 357.238C149.519 359.035 157.046 356.404 160.567 350.15V350.152Z" fill="#FFCFC5"/>
<path d="M167.176 360.049L166.504 359.847C167.43 356.75 170.103 355.916 170.216 355.883L170.418 356.556C170.319 356.586 167.991 357.324 167.176 360.049Z" fill="white"/>
<path d="M171.7 361.495L171.027 361.293C171.956 358.195 174.626 357.362 174.74 357.328L174.941 358.002C174.842 358.031 172.515 358.77 171.698 361.495H171.7Z" fill="white"/>
<path d="M89.3941 373.086L72.5075 359.719L69.6315 355.203L48.4739 354.511L44.6252 369.847C44.3101 370.651 44.8038 371.526 45.6357 371.672L89.1315 379.296C89.8626 379.424 90.558 378.934 90.6861 378.201L90.9613 376.621C91.205 375.228 90.5895 373.841 89.392 373.088L89.3941 373.086Z" fill="black"/>
<path d="M69.6302 355.203L72.5798 339.664L52.2668 335.952L48.4727 354.51C56.1092 359.437 64.0735 359.737 69.6302 355.203Z" fill="#FFCFC5"/>
<path d="M72.1775 366.831L71.625 366.398C73.6166 363.852 76.4065 364.051 76.5242 364.064L76.4674 364.765C76.3666 364.761 73.9296 364.592 72.1754 366.833L72.1775 366.831Z" fill="white"/>
<path d="M75.865 369.828L75.3125 369.395C77.3062 366.848 80.0961 367.046 80.2138 367.061L80.157 367.762C80.0562 367.757 77.6171 367.591 75.865 369.83V369.828Z" fill="white"/>
<path d="M165.059 334.902L150.811 338.49L132.773 343.035L114.139 257.126L63.2188 187.258C64.1872 175.071 85.7944 171.7 99.9835 165.732C99.9835 165.732 138.292 224.871 146.706 246.669C154.353 266.469 161.628 311.9 164.135 328.591C164.731 332.552 165.057 334.9 165.057 334.9L165.059 334.902Z" fill="#018BCE"/>
<path d="M165.059 334.903L150.811 338.49L137.637 339.993L164.135 328.594C164.731 332.554 165.057 334.903 165.057 334.903H165.059Z" fill="black"/>
<path d="M83.4198 165.737C83.4198 165.737 99.4703 230.119 99.9661 252.162C100.544 277.894 79.777 346.807 79.777 346.807L46.6614 345.599L60.9619 257.653C53.0459 223.219 37.0018 174.462 48.6047 167.892L83.4177 165.739L83.4198 165.737Z" fill="#018BCE"/>
<path d="M82.1157 338.791L59.4141 343.035L80.1851 344.281L82.1157 338.791Z" fill="black"/>
<path d="M97.7771 235.207C95.5313 220.774 91.6133 202.512 88.7246 189.735L89.4074 189.579C92.3002 202.367 96.2204 220.643 98.4704 235.098L97.7771 235.207Z" fill="white"/>
<path d="M107.39 177.951C99.5983 182.532 43.9471 186.623 42.8778 175.737C42.5437 172.366 44.5269 167.494 44.5269 167.494C44.5269 167.494 40.9072 102.971 47.3105 94.2615C50.508 89.914 63.0542 87.7591 66.6824 87.2352C80.4786 85.2402 99.1677 87.2562 107.976 94.2258C117.674 101.9 105.308 163.694 105.308 163.694C105.308 163.694 106.378 164.881 107.489 166.613C107.722 166.977 113.195 174.534 107.388 177.949L107.39 177.951Z" fill="#1D1D1D"/>
<path d="M102.106 165.531L70.2807 149.439L61.7324 120.366L65.1337 105.448C65.1337 105.448 69.3144 116.814 70.5412 120.804C72.6862 127.779 77.2639 147.278 77.2639 147.278L102.104 165.533L102.106 165.531Z" fill="black"/>
<path d="M78.2285 37.126C78.3903 37.6773 78.4764 38.3002 78.4974 38.9799C78.3861 38.3717 78.2957 37.7531 78.2285 37.126Z" fill="#FFCFC5"/>
<path d="M71.2521 82.4963L74.9685 90.2676L85.6849 91.3977L91.584 92.7528L89.8887 83.418L90.0378 81.099L90.4433 74.9691L72.3592 63.29C72.4244 64.0939 72.4748 64.8935 72.5063 65.6764C72.9265 75.007 71.25 82.4942 71.25 82.4942L71.2521 82.4963Z" fill="#FFCFC5"/>
<path d="M72.3595 63.292C72.4246 64.0958 72.4751 64.8955 72.5066 65.6783C72.6221 65.6973 72.7314 65.7099 72.8406 65.7183C73.0402 66.2002 73.181 66.7557 73.2692 67.3723C75.6852 75.6402 83.7209 80.9895 90.036 81.101L90.4415 74.9711L72.3574 63.292H72.3595Z" fill="#FC9B88"/>
<path d="M71.2488 82.498C73.0912 86.873 80.0429 89.3645 85.6815 91.3973C85.6815 91.3973 83.9862 101.397 82.2866 101.361C80.7214 101.33 66.4883 95.0231 66.6836 87.2391C68.9294 85.6314 69.5177 84.7791 71.2488 82.498Z" fill="#4D4D4D"/>
<path d="M85.6836 91.3976C85.6836 91.3976 88.8979 98.9985 91.1206 99.6277C93.6521 100.345 95.6395 93.2347 95.2739 89.4721L89.8874 83.418C90.358 86.0126 91.2655 88.3148 85.6836 91.3976Z" fill="#4D4D4D"/>
<path d="M89.3825 78.7649C82.9813 79.0511 74.4351 73.6156 71.9245 65.0405C71.8405 64.426 71.6998 63.8683 71.4981 63.3864C69.9939 63.2665 68.3741 62.3301 67.2061 60.7687C65.3573 58.2918 65.3384 55.148 67.1914 53.778C68.246 52.9868 69.6493 52.9279 71.0275 53.5087C72.0569 44.5316 77.0464 37.6694 83.4855 37.2296C87.7838 36.9349 91.8216 39.5506 94.7061 43.9129C95.0548 44.4369 95.3888 44.9882 95.6998 45.5648C97.4897 48.8455 98.6787 52.8921 98.9666 57.3133C99.7712 68.9187 96.1073 78.4598 89.3783 78.7649H89.3825Z" fill="#FFCFC5"/>
<path d="M59.4267 64.7753C60.4477 67.2605 62.7523 69.0618 65.2796 69.9519C67.9855 70.901 70.3679 72.5297 73.0738 71.5765L72.788 71.1072C72.8301 68.9103 72.1872 66.7975 71.9225 65.0362C71.8427 64.428 71.6998 63.8662 71.5023 63.3864C69.9939 63.2622 68.3742 62.3279 67.2061 60.7686C65.3595 58.2876 65.3427 55.1437 67.1914 53.7759C68.2502 52.9826 69.6515 52.9257 71.0275 53.5044C71.0275 53.5044 74.1284 55.15 73.9204 57.9804L76.0443 58.799L77.2502 53.6938C77.2502 53.6938 80.8742 51.2465 79.3133 48.3299C81.496 49.199 83.891 49.6409 86.2313 49.7671C87.2544 49.8219 88.3406 49.7798 89.1956 49.22C89.9372 48.7297 90.3931 47.7112 90.0969 46.9052C89.578 46.5244 89.0654 46.1393 88.5527 45.7458C89.0044 46.0193 89.4561 46.2929 89.9162 46.5664C89.996 46.6717 90.0549 46.7853 90.0969 46.9052C91.4645 47.9048 92.8805 48.8202 94.454 49.4262C96.6242 50.2701 99.1578 50.4616 101.225 49.3926C102.04 48.9759 102.784 48.3383 103.128 47.4945C103.473 46.6443 103.343 45.5606 102.651 44.9566C102.502 44.8198 102.322 44.723 102.128 44.6599C101.519 44.8872 100.895 45.0703 100.271 45.2449C100.628 44.6241 101.456 44.4305 102.128 44.6599C102.725 44.439 103.303 44.1696 103.826 43.8119C104.891 43.0817 105.744 41.9264 105.759 40.6406C105.775 39.1508 104.549 37.7598 103.076 37.5578C101.603 37.3621 100.067 38.3406 99.5927 39.7526C99.3217 37.2527 98.3847 34.8306 96.9057 32.802C96.1389 31.7477 95.1998 30.7881 94.0275 30.2347C92.849 29.6813 91.3994 29.6013 90.2796 30.2557C89.1536 30.9102 88.5023 32.3916 88.9939 33.5932C86.8868 31.8066 84.4078 30.3231 81.6662 29.9906C78.9267 29.6581 75.9057 30.6829 74.4057 33.004C73.6683 34.1446 73.3616 35.445 73.2838 36.796C70.0506 39.5506 70.1242 42.7366 70.1242 42.7366C68.5191 41.1836 65.3532 41.5897 63.6788 43.0669C62.0044 44.5505 61.7187 47.3514 63.0591 49.14C62.2334 47.9595 60.412 47.8059 59.1935 48.5719C57.9813 49.3379 57.3301 50.7856 57.1725 52.2166C56.8889 54.826 58.1452 57.5532 60.307 59.0262C58.2523 60.7497 58.4078 62.29 59.4225 64.7689L59.4267 64.7753Z" fill="black"/>
<path d="M88.5527 45.752C89.0653 46.1455 89.5779 46.5327 90.0969 46.9114C90.0548 46.7915 89.996 46.6779 89.9162 46.5726C89.4582 46.2991 89.0065 46.0255 88.5527 45.752Z" fill="black"/>
<path d="M93.9121 58.9004L95.7335 66.1204L92.1621 66.5433L93.9121 58.9004Z" fill="#FC9B88"/>
<path d="M107.492 166.614C102.235 167.875 94.8718 169.781 91.834 170.051C98.0063 169.097 105.311 163.693 105.311 163.693C105.311 163.693 106.38 164.88 107.492 166.612V166.614Z" fill="black"/>
<path d="M44.2969 162.879C46.6981 167.875 63.2486 171.122 63.654 171.189C49.8641 171.904 44.528 167.496 44.528 167.496V168.001C44.528 168.001 44.5028 167.883 44.4565 167.679V167.673L44.2969 162.879Z" fill="black"/>
<path d="M129.613 345.641C129.844 346.624 130.421 347.417 131.161 347.922C131.9 348.427 132.8 348.644 133.697 348.434L166.312 340.747C168.106 340.324 169.188 338.388 168.726 336.422C168.495 335.439 167.917 334.646 167.178 334.141C166.438 333.636 165.539 333.419 164.642 333.63L132.026 341.317C130.232 341.74 129.15 343.676 129.613 345.641Z" fill="#018BCE"/>
<path d="M44.0846 342.915C43.9459 343.915 44.198 344.864 44.7043 345.605C45.2106 346.343 45.9711 346.871 46.885 347L80.0699 351.648C81.8955 351.905 83.6014 350.491 83.8808 348.49C84.0195 347.49 83.7673 346.541 83.261 345.8C82.7547 345.06 81.9942 344.533 81.0804 344.405L47.8955 339.757C46.0699 339.5 44.364 340.914 44.0846 342.913V342.915Z" fill="#018BCE"/>
<path d="M104.989 167.347L98.6885 180.705C98.6885 180.705 58.2368 172.208 53.0099 165.32C45.9364 156.009 41.7578 126.047 41.7578 126.047L67.0099 123.951C67.0099 124.869 70.596 145.218 71.2494 145.874C71.9028 146.529 104.989 167.349 104.989 167.349V167.347Z" fill="#FFCFC5"/>
<path d="M71.2505 130.866C71.2505 132.436 44.3241 141.421 40.7989 136.703C40.7989 136.703 35.9144 114.073 39.0552 103.065C42.1959 92.0554 56.7484 89.3408 56.7484 89.3408C63.2463 95.4287 69.2169 114.993 71.2526 130.866H71.2505Z" fill="#1D1D1D"/>
<path d="M104.023 166.652C104.023 166.652 115.469 161.637 117.383 164.381C119.297 167.123 112.54 171.016 112.54 171.016" fill="#FFCFC5"/>
<path d="M112.808 197.014H143.161C145.348 197.014 147.192 195.385 147.468 193.209L152.531 153.061C152.858 150.462 150.844 148.168 148.224 148.168H117.879C115.69 148.168 113.846 149.797 113.573 151.973L108.51 192.121C108.182 194.72 110.197 197.014 112.808 197.014Z" fill="#242B2B"/>
<path d="M143.162 197.363H112.809C111.464 197.363 110.185 196.784 109.296 195.774C108.406 194.762 107.994 193.415 108.162 192.075L113.225 151.926C113.519 149.582 115.521 147.814 117.878 147.814H148.223C149.572 147.814 150.855 148.393 151.744 149.405C152.632 150.418 153.046 151.764 152.876 153.103L147.813 193.251C147.519 195.595 145.517 197.363 143.16 197.363H143.162ZM117.88 148.517C115.874 148.517 114.172 150.02 113.922 152.015L108.859 192.163C108.714 193.304 109.065 194.451 109.824 195.309C110.58 196.168 111.668 196.66 112.809 196.66H143.162C145.168 196.66 146.87 195.158 147.12 193.163L152.183 153.014C152.326 151.876 151.977 150.729 151.221 149.868C150.464 149.01 149.372 148.515 148.227 148.515H117.882L117.88 148.517Z" fill="#242B2B"/>
<path d="M114.357 197.014H144.71C146.899 197.014 148.741 195.385 149.016 193.209L154.079 153.061C154.407 150.462 152.392 148.168 149.773 148.168H119.428C117.239 148.168 115.395 149.797 115.121 151.973L110.058 192.121C109.731 194.72 111.745 197.014 114.357 197.014Z" fill="white"/>
<path d="M114.359 197.013H144.712C146.462 197.013 148.001 195.965 148.674 194.429C148.464 194.461 148.237 194.476 148.018 194.476H117.665C115.056 194.476 113.039 192.182 113.367 189.583L118.43 149.434C118.485 149.003 118.602 148.588 118.775 148.214C116.884 148.504 115.367 150.015 115.125 151.972L110.062 192.121C109.735 194.72 111.749 197.013 114.361 197.013H114.359Z" fill="#E5E8FF"/>
<path d="M144.711 197.363H114.358C113.013 197.363 111.734 196.784 110.845 195.774C109.954 194.762 109.543 193.415 109.711 192.075L114.774 151.926C115.068 149.582 117.07 147.814 119.427 147.814H149.772C151.12 147.814 152.402 148.393 153.291 149.403C154.181 150.415 154.593 151.762 154.425 153.101L149.362 193.249C149.066 195.593 147.066 197.361 144.709 197.361L144.711 197.363ZM119.429 148.517C117.423 148.517 115.721 150.02 115.471 152.015L110.408 192.163C110.263 193.304 110.614 194.451 111.372 195.309C112.129 196.168 113.217 196.66 114.358 196.66H144.711C146.717 196.66 148.419 195.158 148.669 193.163L153.732 153.014C153.875 151.874 153.524 150.729 152.767 149.868C152.011 149.008 150.921 148.515 149.774 148.515H119.429V148.517Z" fill="#242B2B"/>
<path d="M133.232 178.91C135.826 178.91 138.219 176.802 138.583 174.203C138.94 171.604 137.129 169.502 134.534 169.502C131.94 169.502 129.549 171.604 129.184 174.203C128.826 176.802 130.637 178.91 133.232 178.91Z" fill="#E5E8FF"/>
<path d="M133.23 178.908C134.425 178.908 135.593 178.46 136.524 177.702C136.028 177.864 135.518 177.948 134.993 177.948C132.398 177.948 130.587 175.84 130.944 173.241C131.14 171.854 131.909 170.606 132.986 169.752C131.049 170.375 129.469 172.134 129.182 174.201C128.825 176.799 130.635 178.908 133.23 178.908Z" fill="#C5CDE3"/>
<path d="M112.54 171.017C112.54 171.017 125.815 174.487 125.376 177.001C125.044 178.918 122.38 178.697 120.574 178.085C122.624 179.116 125.588 182.132 125.143 183.018C123.948 185.381 119.462 182.041 118.086 181.206C119.401 182.054 122.647 185.593 122.05 186.29C120.945 187.592 117.05 185.048 115.244 184.047C116.803 184.97 117.981 188.1 117.271 188.472C114.7 189.827 97.7711 180.577 97.7249 180.008C95.2669 178.843 101.567 165.493 104.025 166.65" fill="#FFCFC5"/>
<path d="M247.519 176.377H191.051V187.221H247.519V176.377Z" fill="#E5E8FF"/>
<path d="M243.153 193.334H195.416V196.602H243.153V193.334Z" fill="#E5E8FF"/>
<path d="M243.153 200.04H195.416V203.308H243.153V200.04Z" fill="#E5E8FF"/>
<path d="M200.488 161.632V168.395C200.488 169.146 199.876 169.75 199.126 169.75H192.412C191.662 169.75 191.051 169.146 191.051 168.395V161.632C191.051 160.889 191.662 160.276 192.412 160.276H199.126C199.876 160.276 200.488 160.889 200.488 161.632Z" fill="#444BA1"/>
<path d="M199.126 170.101H192.411C191.468 170.101 190.701 169.335 190.701 168.395V161.631C190.701 160.691 191.468 159.925 192.411 159.925H199.126C200.069 159.925 200.838 160.691 200.838 161.631V168.395C200.838 169.335 200.071 170.101 199.126 170.101ZM192.411 160.628C191.855 160.628 191.401 161.078 191.401 161.631V168.395C191.401 168.948 191.855 169.399 192.411 169.399H199.126C199.682 169.399 200.136 168.948 200.136 168.395V161.631C200.136 161.078 199.682 160.628 199.126 160.628H192.411Z" fill="#242B2B"/>
<path d="M216.164 152.166V168.395C216.164 169.146 215.552 169.75 214.811 169.75H208.088C207.338 169.75 206.727 169.146 206.727 168.395V152.166C206.727 151.415 207.338 150.803 208.088 150.803H214.811C215.552 150.803 216.164 151.415 216.164 152.166Z" fill="#018BCE"/>
<path d="M214.81 170.101H208.087C207.144 170.101 206.377 169.335 206.377 168.395V152.166C206.377 151.221 207.144 150.453 208.087 150.453H214.81C215.749 150.453 216.514 151.221 216.514 152.166V168.395C216.514 169.335 215.749 170.101 214.81 170.101ZM208.087 151.154C207.53 151.154 207.077 151.606 207.077 152.166V168.395C207.077 168.948 207.53 169.398 208.087 169.398H214.81C215.362 169.398 215.812 168.948 215.812 168.395V152.166C215.812 151.608 215.362 151.154 214.81 151.154H208.087Z" fill="#242B2B"/>
<path d="M231.843 140.769V168.395C231.843 169.146 231.24 169.75 230.49 169.75H223.768C223.018 169.75 222.406 169.146 222.406 168.395V140.769C222.406 140.026 223.018 139.414 223.768 139.414H230.49C231.24 139.414 231.843 140.026 231.843 140.769Z" fill="#6D6D6D"/>
<path d="M230.489 170.101H223.767C222.823 170.101 222.057 169.335 222.057 168.395V140.769C222.057 139.828 222.823 139.062 223.767 139.062H230.489C231.428 139.062 232.193 139.828 232.193 140.769V168.395C232.193 169.335 231.428 170.101 230.489 170.101ZM223.767 139.765C223.21 139.765 222.756 140.216 222.756 140.769V168.395C222.756 168.948 223.208 169.399 223.767 169.399H230.489C231.042 169.399 231.492 168.948 231.492 168.395V140.769C231.492 140.216 231.042 139.765 230.489 139.765H223.767Z" fill="#242B2B"/>
<path d="M247.519 134.787V168.395C247.519 169.146 246.916 169.75 246.166 169.75H239.443C238.693 169.75 238.082 169.146 238.082 168.395V134.787C238.082 134.036 238.693 133.432 239.443 133.432H246.166C246.916 133.432 247.519 134.036 247.519 134.787Z" fill="#1D1D1D"/>
<path d="M246.165 170.102H239.443C238.499 170.102 237.732 169.336 237.732 168.395V134.787C237.732 133.846 238.499 133.08 239.443 133.08H246.165C247.104 133.08 247.869 133.846 247.869 134.787V168.395C247.869 169.336 247.104 170.102 246.165 170.102ZM239.443 133.783C238.886 133.783 238.432 134.233 238.432 134.787V168.395C238.432 168.948 238.886 169.399 239.443 169.399H246.165C246.718 169.399 247.167 168.948 247.167 168.395V134.787C247.167 134.233 246.718 133.783 246.165 133.783H239.443Z" fill="#242B2B"/>
<path d="M382.203 133.933H267.491C266.535 133.933 265.76 134.709 265.76 135.667V224.789C265.76 225.747 266.535 226.523 267.491 226.523H382.203C383.159 226.523 383.934 225.747 383.934 224.789V135.667C383.934 134.709 383.159 133.933 382.203 133.933Z" fill="white"/>
<path d="M378.158 226.873H271.534C268.156 226.873 265.408 224.12 265.408 220.736V139.717C265.408 136.334 268.156 133.581 271.534 133.581H378.158C381.536 133.581 384.284 136.334 384.284 139.717V220.736C384.284 224.12 381.536 226.873 378.158 226.873ZM271.534 134.284C268.543 134.284 266.11 136.721 266.11 139.717V220.736C266.11 223.733 268.543 226.17 271.534 226.17H378.158C381.15 226.17 383.583 223.733 383.583 220.736V139.717C383.583 136.721 381.15 134.284 378.158 134.284H271.534Z" fill="black"/>
<path d="M354.312 155.576L339.447 175.539L330.503 187.545H324.846V143.025C336.302 143.025 346.694 147.804 354.314 155.576H354.312Z" fill="#6D6D6D"/>
<path d="M354.312 155.575L339.447 175.539L330.503 187.545H324.846V186.038H328.247L337.19 174.033L347.993 159.527C350.413 156.278 349.755 151.64 346.472 149.269C346.451 149.254 346.432 149.239 346.411 149.225C349.283 151.011 351.93 153.147 354.314 155.578L354.312 155.575Z" fill="#EBEBEB"/>
<path d="M367.197 187.545H330.502L339.445 175.54L354.311 155.576C362.26 163.663 367.197 174.999 367.197 187.545Z" fill="#018BCE"/>
<path d="M367.549 187.896H329.803L354.273 155.037L354.561 155.33C362.937 163.852 367.549 175.291 367.549 187.545V187.896ZM331.202 187.193H366.847C366.761 175.399 362.332 164.391 354.347 156.117L331.202 187.193Z" fill="black"/>
<path d="M324.845 143.025V187.545H319.187L314.366 181.547L309.929 176.028L294.357 156.651C302.059 148.25 312.874 143.025 324.847 143.025H324.845Z" fill="#018BCE"/>
<path d="M324.844 143.025V187.545H319.187L317.975 186.038H322.588V143.086C323.336 143.049 324.088 143.025 324.846 143.025H324.844Z" fill="#0068B5"/>
<path d="M319.188 187.545H282.492C282.492 178.74 284.927 170.531 289.127 163.627C289.318 163.316 289.513 163.004 289.706 162.697C289.902 162.386 290.106 162.083 290.309 161.779C290.505 161.487 290.704 161.199 290.908 160.915C290.912 160.91 290.917 160.9 290.923 160.896C290.927 160.887 290.931 160.877 290.942 160.873C290.965 160.841 290.984 160.811 291.007 160.78C291.192 160.519 291.383 160.258 291.578 159.999C291.769 159.742 291.965 159.488 292.164 159.235C292.364 158.985 292.564 158.732 292.767 158.486C292.887 158.337 293.013 158.187 293.139 158.04C293.316 157.83 293.496 157.621 293.679 157.411C293.902 157.154 294.131 156.904 294.358 156.653L309.929 176.03L314.366 181.55L319.188 187.547V187.545Z" fill="#9E9E9E"/>
<path d="M319.186 187.544H315.451L310.825 181.793L306.388 176.269L292.428 158.902C292.539 158.763 292.65 158.622 292.766 158.483C292.886 158.334 293.012 158.184 293.138 158.037C293.314 157.827 293.495 157.618 293.678 157.408C293.9 157.151 294.129 156.901 294.356 156.65L309.928 176.027L314.365 181.547L319.186 187.544Z" fill="#7B7B7B"/>
<path d="M367.199 187.544H330.504L339.447 175.539L354.313 155.575C362.262 163.662 367.199 174.998 367.199 187.544Z" fill="#1D1D1D"/>
<path d="M367.199 187.544H330.504L331.628 186.038H340.367C355.704 186.038 364.096 168.01 354.128 156.335C354.061 156.255 353.991 156.175 353.924 156.097L354.315 155.575C362.264 163.662 367.201 174.998 367.201 187.544H367.199Z" fill="#4D4D4D"/>
<path d="M330.681 187.896H324.496V142.674H324.847C336.009 142.674 346.563 147.169 354.565 155.329L354.776 155.544L330.681 187.896ZM325.196 187.193H330.328L353.851 155.607C346.093 147.802 335.941 143.469 325.196 143.377V187.193Z" fill="black"/>
<path d="M325.195 187.896H319.019L293.893 156.636L294.096 156.413C302.22 147.554 313.14 142.674 324.844 142.674H325.195V187.896ZM319.355 187.193H324.496V143.377C313.222 143.473 302.706 148.181 294.819 156.666L319.355 187.193Z" fill="black"/>
<path d="M319.92 187.896H282.141V187.545C282.141 178.97 284.452 170.634 288.826 163.444C289.017 163.13 289.214 162.815 289.41 162.508C289.603 162.198 289.807 161.897 290.01 161.594C290.214 161.287 290.418 160.995 290.624 160.708L290.716 160.58C290.907 160.313 291.101 160.05 291.296 159.787C291.489 159.528 291.687 159.271 291.886 159.016C292.088 158.762 292.29 158.509 292.496 158.261C292.603 158.128 292.714 157.996 292.828 157.861C293.048 157.6 293.229 157.39 293.412 157.179C293.636 156.921 293.865 156.668 294.094 156.413L294.37 156.11L319.918 187.896H319.92ZM282.842 187.193H318.454L294.34 157.192C294.206 157.339 294.073 157.489 293.943 157.64C293.762 157.849 293.584 158.057 293.407 158.265C293.256 158.444 293.145 158.575 293.04 158.707C292.834 158.955 292.636 159.204 292.437 159.454C292.239 159.702 292.046 159.955 291.859 160.21C291.664 160.468 291.475 160.727 291.29 160.986L291.187 161.127C290.989 161.403 290.792 161.687 290.599 161.977C290.391 162.287 290.191 162.581 290 162.886C289.804 163.194 289.611 163.503 289.422 163.812C285.176 170.794 282.903 178.873 282.84 187.196L282.842 187.193Z" fill="black"/>
<path d="M367.55 187.896H329.805L354.275 155.037L354.563 155.33C362.939 163.852 367.55 175.291 367.55 187.545V187.896ZM331.204 187.193H366.849C366.763 175.399 362.334 164.391 354.349 156.117L331.204 187.193Z" fill="black"/>
<g opacity="0.1">
<path d="M342.48 185.451C342.48 186.158 342.438 186.861 342.354 187.545H307.335C307.251 186.861 307.209 186.158 307.209 185.451C307.209 181.989 308.203 178.755 309.927 176.028C313.049 171.076 318.564 167.787 324.846 167.787C331.127 167.787 336.274 170.864 339.446 175.539C341.36 178.364 342.48 181.779 342.48 185.451Z" fill="black"/>
</g>
<path d="M324.848 201.174C333.519 201.174 340.548 194.133 340.548 185.448C340.548 176.763 333.519 169.723 324.848 169.723C316.177 169.723 309.148 176.763 309.148 185.448C309.148 194.133 316.177 201.174 324.848 201.174Z" fill="white"/>
<path d="M324.847 201.525C315.996 201.525 308.797 194.314 308.797 185.448C308.797 176.583 315.996 169.371 324.847 169.371C333.698 169.371 340.898 176.583 340.898 185.448C340.898 194.314 333.698 201.525 324.847 201.525ZM324.847 170.074C316.383 170.074 309.499 176.972 309.499 185.448C309.499 193.924 316.385 200.822 324.847 200.822C333.309 200.822 340.196 193.924 340.196 185.448C340.196 176.972 333.309 170.074 324.847 170.074Z" fill="black"/>
<path d="M328.633 194.603C333.681 192.509 336.078 186.712 333.987 181.656C331.896 176.6 326.109 174.198 321.062 176.293C316.014 178.387 313.617 184.184 315.708 189.24C317.799 194.296 323.586 196.697 328.633 194.603Z" fill="#E5E8FF"/>
<path d="M326.456 187.729L320.994 183.868C320.805 183.733 320.773 183.464 320.931 183.291L339.502 162.74C339.809 162.402 340.347 162.78 340.131 163.185L327.021 187.597C326.912 187.801 326.647 187.864 326.456 187.729Z" fill="black"/>
<path d="M331.47 185.45C331.47 189.114 328.504 192.085 324.846 192.085C321.189 192.085 318.227 189.114 318.227 185.45C318.227 181.787 321.189 178.815 324.846 178.815C328.504 178.815 331.47 181.787 331.47 185.45Z" fill="black"/>
<path d="M357.609 207.41H294.674C292.815 207.41 291.309 208.919 291.309 210.781V214.096C291.309 215.957 292.815 217.467 294.674 217.467H357.609C359.468 217.467 360.975 215.957 360.975 214.096V210.781C360.975 208.919 359.468 207.41 357.609 207.41Z" fill="#E5E8FF"/>
<path d="M357.606 217.818H294.673C292.625 217.818 290.957 216.147 290.957 214.095V210.783C290.957 208.731 292.625 207.061 294.673 207.061H357.606C359.655 207.061 361.323 208.731 361.323 210.783V214.095C361.323 216.147 359.655 217.818 357.606 217.818ZM294.673 207.761C293.01 207.761 291.657 209.116 291.657 210.783V214.095C291.657 215.762 293.01 217.115 294.673 217.115H357.606C359.27 217.115 360.623 215.76 360.623 214.095V210.783C360.623 209.116 359.27 207.761 357.606 207.761H294.673Z" fill="#242B2B"/>
<path d="M168.058 240.732L171.974 235.993C172.917 234.852 174.509 234.509 175.835 235.157L178.234 236.334C179.207 236.809 180.356 236.75 181.287 236.195C182.03 235.751 182.789 235.349 183.57 234.985C184.551 234.528 185.251 233.613 185.404 232.533L185.785 229.888C185.991 228.426 187.175 227.294 188.642 227.159L194.768 226.576C196.236 226.441 197.606 227.329 198.085 228.722L198.946 231.254C199.297 232.285 200.156 233.053 201.209 233.325C202.041 233.533 202.864 233.79 203.677 234.078C204.701 234.452 205.833 234.297 206.703 233.642L208.837 232.041C210.02 231.155 211.648 231.195 212.787 232.14L217.522 236.067C218.656 237.007 219.003 238.606 218.352 239.93L217.18 242.329C216.701 243.308 216.764 244.454 217.318 245.387C217.757 246.138 218.163 246.9 218.522 247.68C218.984 248.667 219.892 249.364 220.97 249.517L223.614 249.892C225.075 250.107 226.201 251.289 226.343 252.758L226.917 258.894C227.06 260.363 226.169 261.742 224.774 262.217L222.251 263.084C221.222 263.436 220.448 264.292 220.188 265.346C219.972 266.18 219.724 267.004 219.427 267.821C219.058 268.842 219.209 269.98 219.862 270.851L221.461 272.989C222.346 274.174 222.31 275.809 221.369 276.95L217.453 281.688C216.509 282.829 214.913 283.17 213.587 282.52L211.192 281.345C210.215 280.866 209.07 280.929 208.14 281.484C207.396 281.928 206.633 282.326 205.856 282.694C204.871 283.149 204.175 284.066 204.022 285.146L203.642 287.791C203.436 289.254 202.251 290.386 200.785 290.52L194.659 291.103C193.19 291.238 191.82 290.35 191.337 288.953L190.476 286.421C190.125 285.39 189.27 284.626 188.217 284.355C187.385 284.146 186.562 283.89 185.743 283.597C184.724 283.227 183.587 283.378 182.717 284.033L180.583 285.634C179.406 286.524 177.768 286.484 176.633 285.544L171.898 281.617C170.759 280.672 170.419 279.073 171.068 277.745L172.241 275.346C172.72 274.368 172.661 273.225 172.102 272.288C171.667 271.541 171.262 270.78 170.902 269.999C170.44 269.012 169.526 268.311 168.448 268.158L165.804 267.783C164.348 267.573 163.222 266.39 163.079 264.921L162.505 258.785C162.362 257.316 163.253 255.938 164.648 255.462L167.171 254.595C168.201 254.244 168.963 253.387 169.234 252.333C169.446 251.495 169.698 250.675 169.995 249.858C170.364 248.838 170.209 247.695 169.56 246.828L167.957 244.686C167.072 243.501 167.112 241.87 168.056 240.73L168.058 240.732Z" fill="white"/>
<path d="M194.363 291.471C192.859 291.471 191.506 290.52 191.006 289.07L190.145 286.537C189.836 285.63 189.082 284.942 188.13 284.698C187.327 284.496 186.506 284.245 185.626 283.932C184.704 283.597 183.695 283.74 182.928 284.317L180.794 285.918C179.481 286.909 177.68 286.869 176.412 285.817L171.676 281.89C170.412 280.84 170.033 279.075 170.756 277.593L171.928 275.194C172.351 274.33 172.304 273.313 171.804 272.471C171.327 271.655 170.93 270.895 170.588 270.148C170.17 269.256 169.353 268.644 168.405 268.507L165.76 268.132C164.138 267.899 162.895 266.592 162.735 264.957L162.162 258.818C162.002 257.177 162.981 255.662 164.542 255.132L167.065 254.265C167.972 253.953 168.657 253.2 168.901 252.247C169.115 251.392 169.367 250.572 169.672 249.738C170.004 248.817 169.861 247.809 169.285 247.038L167.683 244.896C166.699 243.579 166.743 241.773 167.792 240.504L171.708 235.765C172.756 234.497 174.517 234.116 175.993 234.84L178.393 236.016C179.256 236.439 180.271 236.39 181.113 235.892C181.872 235.437 182.63 235.037 183.428 234.665C184.317 234.25 184.928 233.434 185.063 232.483L185.443 229.838C185.672 228.205 186.979 226.959 188.617 226.809L194.741 226.227C196.374 226.079 197.891 227.058 198.422 228.609L199.283 231.142C199.594 232.051 200.348 232.742 201.302 232.986C202.101 233.186 202.92 233.436 203.802 233.747C204.727 234.086 205.733 233.941 206.5 233.362L208.634 231.761C209.949 230.776 211.752 230.82 213.017 231.87L217.752 235.797C219.021 236.847 219.399 238.613 218.672 240.088L217.502 242.485C217.08 243.347 217.126 244.366 217.626 245.21C218.101 246.02 218.5 246.78 218.846 247.535C219.262 248.423 220.077 249.035 221.025 249.172L223.67 249.547C225.294 249.785 226.54 251.093 226.699 252.726L227.273 258.865C227.433 260.506 226.454 262.021 224.893 262.552L222.369 263.419C221.456 263.732 220.769 264.485 220.533 265.434C220.296 266.352 220.044 267.171 219.762 267.945C219.428 268.869 219.571 269.877 220.147 270.645L221.746 272.783C222.731 274.102 222.689 275.91 221.641 277.179L217.725 281.918C216.676 283.185 214.914 283.563 213.435 282.839L211.04 281.665C210.178 281.242 209.164 281.289 208.319 281.789C207.611 282.212 206.855 282.614 206.006 283.016C205.115 283.427 204.506 284.241 204.369 285.201L203.989 287.848C203.76 289.481 202.456 290.727 200.817 290.876L194.691 291.457C194.582 291.467 194.472 291.471 194.363 291.471ZM184.622 283.052C185.038 283.052 185.456 283.126 185.863 283.273C186.72 283.578 187.519 283.822 188.302 284.018C189.485 284.321 190.422 285.179 190.809 286.312L191.67 288.845C192.101 290.091 193.325 290.882 194.626 290.76L200.752 290.179C202.067 290.059 203.111 289.06 203.296 287.751L203.676 285.104C203.846 283.908 204.607 282.892 205.712 282.383C206.538 281.991 207.275 281.602 207.964 281.19C209.012 280.567 210.277 280.512 211.351 281.038L213.743 282.212C214.93 282.793 216.346 282.49 217.187 281.474L221.103 276.735C221.943 275.718 221.977 274.269 221.185 273.21L219.586 271.072C218.867 270.115 218.687 268.858 219.103 267.711C219.376 266.958 219.622 266.161 219.853 265.268C220.145 264.092 221 263.153 222.141 262.762L224.664 261.895C225.916 261.47 226.699 260.254 226.571 258.938L225.998 252.8C225.87 251.489 224.869 250.439 223.567 250.25L220.924 249.875C219.741 249.707 218.725 248.945 218.208 247.838C217.869 247.102 217.481 246.363 217.019 245.574C216.399 244.526 216.342 243.259 216.869 242.182L218.042 239.785C218.624 238.602 218.321 237.188 217.304 236.346L212.567 232.42C211.552 231.58 210.107 231.542 209.052 232.333L206.918 233.935C205.96 234.656 204.706 234.835 203.563 234.419C202.706 234.114 201.907 233.872 201.128 233.676C199.943 233.373 199.004 232.514 198.617 231.378L197.756 228.844C197.33 227.601 196.119 226.814 194.802 226.934L188.678 227.516C187.363 227.636 186.319 228.634 186.134 229.945L185.754 232.59C185.584 233.779 184.825 234.795 183.72 235.311C182.943 235.673 182.206 236.062 181.468 236.504C180.422 237.125 179.157 237.184 178.082 236.656L175.683 235.479C174.498 234.898 173.086 235.206 172.246 236.222L168.33 240.961C167.489 241.977 167.454 243.425 168.243 244.482L169.846 246.624C170.563 247.583 170.743 248.84 170.33 249.984C170.033 250.797 169.79 251.594 169.58 252.426C169.277 253.61 168.422 254.547 167.29 254.934L164.767 255.801C163.514 256.226 162.731 257.442 162.859 258.757L163.433 264.896C163.561 266.207 164.556 267.257 165.857 267.444L168.5 267.819C169.685 267.987 170.701 268.751 171.22 269.86C171.554 270.588 171.943 271.327 172.405 272.122C173.027 273.166 173.084 274.433 172.556 275.512L171.384 277.911C170.804 279.1 171.107 280.518 172.122 281.36L176.857 285.287C177.872 286.129 179.315 286.162 180.372 285.367L182.506 283.765C183.124 283.302 183.865 283.06 184.619 283.06L184.622 283.052Z" fill="#242B2B"/>
<path d="M207.026 271.174C213.825 264.363 213.825 253.32 207.026 246.509C200.226 239.698 189.202 239.698 182.402 246.509C175.602 253.32 175.602 264.363 182.402 271.174C189.202 277.985 200.226 277.985 207.026 271.174Z" fill="#C5CDE3"/>
<path d="M204.888 269.033C210.507 263.405 210.507 254.279 204.888 248.651C199.269 243.022 190.159 243.022 184.54 248.651C178.92 254.279 178.92 263.405 184.54 269.033C190.159 274.662 199.269 274.661 204.888 269.033Z" fill="white"/>
<path d="M194.686 273.608C191.266 273.608 187.98 272.427 185.312 270.213C179.052 265.022 178.176 255.698 183.358 249.427C188.541 243.158 197.85 242.278 204.11 247.47C207.142 249.984 209.016 253.53 209.386 257.457C209.755 261.384 208.575 265.218 206.064 268.256C203.554 271.293 200.014 273.17 196.094 273.54C195.623 273.584 195.152 273.608 194.686 273.608ZM194.726 244.787C190.684 244.787 186.673 246.521 183.9 249.875C178.965 255.847 179.799 264.729 185.762 269.673C188.65 272.067 192.295 273.195 196.031 272.84C199.764 272.488 203.138 270.699 205.528 267.808C207.919 264.915 209.043 261.262 208.692 257.522C208.341 253.783 206.556 250.403 203.669 248.008C201.056 245.841 197.884 244.785 194.728 244.785L194.726 244.787Z" fill="#242B2B"/>
<path d="M225.635 272.381L226.816 268.126C227.099 267.101 228.043 266.409 229.104 266.447L231.019 266.514C231.795 266.541 232.532 266.165 232.98 265.527C233.337 265.018 233.717 264.532 234.122 264.065C234.631 263.477 234.822 262.671 234.608 261.92L234.082 260.075C233.788 259.056 234.236 257.966 235.158 257.449L239.003 255.271C239.925 254.753 241.082 254.932 241.803 255.704L243.108 257.112C243.639 257.684 244.427 257.937 245.196 257.804C245.801 257.697 246.417 257.623 247.034 257.573C247.814 257.518 248.511 257.084 248.889 256.401L249.82 254.725C250.335 253.797 251.414 253.347 252.438 253.631L256.69 254.816C257.709 255.1 258.404 256.045 258.362 257.106L258.295 259.02C258.267 259.801 258.643 260.536 259.28 260.984C259.788 261.348 260.276 261.727 260.74 262.133C261.33 262.644 262.131 262.834 262.881 262.619L264.723 262.089C265.744 261.8 266.828 262.246 267.349 263.166L269.519 267.021C270.043 267.943 269.862 269.107 269.087 269.826L267.685 271.135C267.114 271.668 266.858 272.455 266.994 273.223C267.097 273.833 267.175 274.445 267.219 275.068C267.276 275.845 267.706 276.547 268.389 276.926L270.061 277.858C270.988 278.374 271.442 279.458 271.158 280.48L269.977 284.735C269.694 285.76 268.744 286.45 267.685 286.415L265.774 286.347C264.994 286.32 264.261 286.697 263.814 287.334C263.456 287.844 263.072 288.328 262.671 288.797C262.158 289.384 261.971 290.19 262.185 290.941L262.711 292.787C263.005 293.805 262.557 294.895 261.635 295.413L257.79 297.591C256.868 298.108 255.711 297.93 254.986 297.155L253.681 295.747C253.15 295.175 252.366 294.925 251.597 295.055C250.992 295.162 250.377 295.236 249.755 295.284C248.98 295.341 248.278 295.773 247.9 296.457L246.969 298.132C246.459 299.06 245.372 299.514 244.356 299.23L240.104 298.045C239.08 297.761 238.391 296.81 238.427 295.75L238.494 293.835C238.522 293.054 238.15 292.322 237.509 291.871C237.005 291.509 236.517 291.128 236.053 290.722C235.463 290.211 234.658 290.019 233.908 290.234L232.066 290.764C231.049 291.053 229.967 290.609 229.444 289.687L227.274 285.832C226.751 284.91 226.931 283.746 227.706 283.027L229.108 281.718C229.679 281.185 229.929 280.401 229.799 279.63C229.692 279.018 229.618 278.408 229.574 277.785C229.517 277.008 229.082 276.303 228.404 275.927L226.727 274.992C225.801 274.477 225.351 273.395 225.635 272.37V272.381Z" fill="white"/>
<path d="M244.975 299.674C244.74 299.674 244.498 299.643 244.263 299.576L240.011 298.391C238.83 298.063 238.036 296.975 238.078 295.746L238.145 293.831C238.168 293.174 237.855 292.551 237.309 292.166C236.755 291.766 236.269 291.383 235.826 290.994C235.318 290.554 234.639 290.399 234.007 290.58L232.164 291.11C230.992 291.442 229.744 290.935 229.141 289.868L226.971 286.013C226.364 284.946 226.57 283.614 227.471 282.777L228.87 281.47C229.349 281.024 229.568 280.361 229.454 279.698C229.345 279.073 229.269 278.459 229.225 277.819C229.177 277.152 228.807 276.563 228.234 276.243L226.557 275.31C225.488 274.713 224.969 273.471 225.297 272.289L226.479 268.034C226.807 266.851 227.881 266.085 229.116 266.098L231.032 266.165C231.692 266.18 232.307 265.875 232.694 265.327C233.057 264.81 233.45 264.309 233.86 263.838C234.299 263.33 234.452 262.651 234.274 262.019L233.748 260.174C233.408 258.991 233.918 257.746 234.99 257.144L238.832 254.966C239.9 254.368 241.227 254.572 242.063 255.467L243.368 256.874C243.813 257.354 244.471 257.575 245.141 257.459C245.721 257.356 246.334 257.278 247.011 257.226C247.681 257.177 248.269 256.807 248.589 256.233L249.519 254.558C250.116 253.486 251.358 252.969 252.536 253.297L256.788 254.482C257.971 254.812 258.765 255.898 258.719 257.123L258.652 259.038C258.629 259.692 258.942 260.315 259.488 260.702C260.036 261.094 260.524 261.477 260.975 261.874C261.481 262.312 262.16 262.468 262.788 262.287L264.631 261.756C265.811 261.422 267.055 261.933 267.658 262.998L269.828 266.853C270.435 267.92 270.229 269.252 269.328 270.09L267.929 271.396C267.446 271.847 267.227 272.507 267.345 273.166C267.456 273.84 267.532 274.454 267.574 275.047C267.622 275.717 267.992 276.306 268.563 276.624L270.236 277.556C271.309 278.153 271.828 279.397 271.5 280.58L270.32 284.835C269.998 285.986 268.958 286.773 267.771 286.773C267.74 286.773 267.71 286.773 267.679 286.773L265.765 286.705C265.114 286.665 264.49 286.994 264.103 287.543C263.763 288.029 263.383 288.515 262.939 289.033C262.496 289.538 262.343 290.218 262.526 290.853L263.051 292.699C263.391 293.881 262.881 295.127 261.809 295.729L257.965 297.907C256.897 298.504 255.57 298.3 254.732 297.406L253.425 295.998C252.979 295.518 252.32 295.3 251.658 295.413C251.068 295.518 250.452 295.594 249.782 295.647C249.112 295.695 248.524 296.068 248.206 296.64L247.276 298.315C246.803 299.176 245.916 299.681 244.975 299.681V299.674ZM234.532 289.805C235.162 289.805 235.784 290.035 236.284 290.466C236.713 290.843 237.179 291.211 237.715 291.596C238.454 292.116 238.879 292.964 238.845 293.858L238.778 295.773C238.746 296.676 239.33 297.475 240.196 297.717L244.448 298.902C245.316 299.14 246.227 298.761 246.66 297.972L247.591 296.297C248.024 295.516 248.822 295.011 249.727 294.944C250.372 294.896 250.965 294.82 251.534 294.719C252.431 294.563 253.328 294.862 253.935 295.516L255.24 296.922C255.855 297.579 256.832 297.73 257.616 297.29L261.46 295.112C262.246 294.67 262.62 293.757 262.372 292.888L261.847 291.042C261.599 290.178 261.807 289.252 262.406 288.57C262.83 288.073 263.198 287.604 263.526 287.137C264.051 286.394 264.897 285.984 265.786 286.003L267.698 286.07C268.595 286.099 269.397 285.516 269.639 284.647L270.82 280.395C271.061 279.525 270.679 278.612 269.891 278.172L268.219 277.24C267.439 276.807 266.935 276.007 266.868 275.1C266.828 274.528 266.757 273.934 266.647 273.288C266.488 272.398 266.786 271.5 267.444 270.885L268.843 269.578C269.505 268.964 269.656 267.987 269.21 267.202L267.04 263.347C266.597 262.567 265.683 262.192 264.813 262.436L262.971 262.964C262.116 263.211 261.192 263.002 260.505 262.407C260.068 262.024 259.599 261.655 259.072 261.277C258.332 260.753 257.908 259.907 257.939 259.014L258.007 257.1C258.04 256.199 257.458 255.403 256.591 255.161L252.339 253.977C251.471 253.737 250.559 254.116 250.122 254.903L249.192 256.578C248.759 257.36 247.958 257.866 247.055 257.931C246.406 257.983 245.816 258.057 245.255 258.158C244.353 258.312 243.456 258.015 242.847 257.358L241.542 255.951C240.929 255.294 239.952 255.143 239.171 255.584L235.326 257.762C234.538 258.204 234.164 259.118 234.414 259.987L234.939 261.832C235.185 262.693 234.977 263.617 234.383 264.303C233.99 264.757 233.612 265.239 233.261 265.738C232.74 266.479 231.921 266.899 231.003 266.874L229.087 266.807C228.198 266.788 227.391 267.36 227.15 268.229L225.967 272.484C225.725 273.353 226.108 274.267 226.891 274.704L228.568 275.637C229.347 276.072 229.851 276.872 229.918 277.777C229.963 278.391 230.034 278.983 230.139 279.586C230.292 280.485 229.994 281.384 229.343 281.992L227.942 283.299C227.28 283.913 227.129 284.889 227.574 285.674L229.744 289.529C230.189 290.312 231.101 290.689 231.965 290.441L233.807 289.912C234.045 289.845 234.286 289.811 234.528 289.811L234.532 289.805Z" fill="#242B2B"/>
<path d="M260.604 279.138C262.094 272.386 257.837 265.703 251.096 264.211C244.355 262.719 237.683 266.983 236.193 273.735C234.704 280.487 238.961 287.17 245.702 288.662C252.443 290.154 259.115 285.89 260.604 279.138Z" fill="#C5CDE3"/>
<path d="M251.659 286.241C257.071 284.438 260 278.582 258.201 273.16C256.401 267.739 250.555 264.805 245.142 266.607C239.73 268.41 236.801 274.266 238.6 279.688C240.399 285.109 246.246 288.043 251.659 286.241Z" fill="white"/>
<path d="M248.413 287.134C247.451 287.134 246.485 287.004 245.533 286.739C239.859 285.158 236.529 279.249 238.107 273.566C239.684 267.882 245.586 264.546 251.258 266.127C254.006 266.893 256.292 268.684 257.695 271.173C259.098 273.662 259.449 276.547 258.684 279.3C257.92 282.052 256.132 284.342 253.647 285.748C252.023 286.667 250.228 287.134 248.411 287.134H248.413ZM238.783 273.753C237.308 279.062 240.422 284.584 245.722 286.061C248.292 286.777 250.983 286.448 253.304 285.135C255.626 283.822 257.296 281.682 258.01 279.111C258.724 276.539 258.397 273.841 257.086 271.518C255.775 269.193 253.638 267.52 251.071 266.804C245.768 265.327 240.258 268.446 238.783 273.755V273.753Z" fill="#242B2B"/>
<path d="M327.065 310.892C327.065 310.892 333.187 307.355 334.013 301.338C334.836 295.324 325.063 291.431 325.063 291.431C325.063 291.431 327.3 302.752 324.475 302.635C321.649 302.517 322.708 289.779 322.708 289.779C322.708 289.779 313.878 285.415 308.695 285.415C308.695 285.415 313.994 295.44 311.992 296.383C309.989 297.325 303.042 284.823 303.042 284.823C303.042 284.823 295.742 281.757 290.914 287.772C286.086 293.786 292.328 299.802 292.328 299.802C292.328 299.802 303.16 299.095 304.103 301.454C305.044 303.813 293.859 303.695 293.859 303.695C293.859 303.695 298.805 313.131 302.101 314.192C305.397 315.252 309.685 308.767 313.065 308.295C316.553 307.809 319.88 309.002 319.055 310.772C318.229 312.542 308.695 313.038 307.282 318.346C307.282 318.346 322.586 323.745 327.061 310.89L327.065 310.892Z" fill="#7B7B7B"/>
<path d="M333.712 347.346C333.691 347.056 331.611 318.241 326.775 311.091C321.941 303.942 299.943 293.976 299.723 293.877L300.01 293.235C300.922 293.646 322.412 303.385 327.357 310.697C332.298 318.003 334.328 346.105 334.412 347.298L333.712 347.346Z" fill="black"/>
<path d="M349.65 326.117C349.65 326.117 344.194 321.942 344.343 316.589C344.492 311.235 354.723 309.646 354.723 309.646C354.723 309.646 350.717 319.034 353.513 319.446C356.311 319.859 357.301 308.647 357.301 308.647C357.301 308.647 366.681 306.479 371.776 307.422C371.776 307.422 364.965 315.13 366.784 316.311C368.601 317.491 377.429 307.942 377.429 307.942C377.429 307.942 385.097 306.618 388.885 312.7C392.673 318.781 385.576 322.849 385.576 322.849C385.576 322.849 375.036 320.265 373.734 322.134C372.431 324.002 383.45 325.936 383.45 325.936C383.45 325.936 377.08 333.198 373.671 333.516C370.259 333.834 367.08 327.443 363.83 326.418C360.477 325.362 357.017 325.789 357.545 327.47C358.072 329.152 367.37 331.317 367.912 336.165C367.912 336.165 352 338.051 349.652 326.115L349.65 326.117Z" fill="#7B7B7B"/>
<path d="M343.071 345.538L342.371 345.491C342.409 344.915 343.352 331.315 349.419 325.856C355.453 320.429 378.136 315.915 379.1 315.726L379.237 316.414C379.001 316.46 355.779 321.079 349.89 326.378C344.037 331.645 343.083 345.397 343.075 345.536L343.071 345.538Z" fill="black"/>
<path d="M338.675 315.981C338.675 315.981 330.742 311.398 329.675 303.605C328.608 295.813 341.268 290.771 341.268 290.771C341.268 290.771 338.368 305.438 342.03 305.287C345.692 305.133 344.318 288.633 344.318 288.633C344.318 288.633 355.759 282.981 362.469 282.981C362.469 282.981 355.606 295.969 358.198 297.191C360.791 298.414 369.791 282.217 369.791 282.217C369.791 282.217 379.249 278.244 385.503 286.036C391.757 293.829 383.673 301.621 383.673 301.621C383.673 301.621 369.639 300.703 368.419 303.761C367.198 306.817 381.69 306.665 381.69 306.665C381.69 306.665 375.282 318.889 371.011 320.263C366.74 321.637 361.188 313.235 356.805 312.624C352.287 311.993 347.978 313.542 349.045 315.834C350.112 318.125 365.062 317.361 366.892 324.236C366.892 324.236 344.469 332.639 338.671 315.985L338.675 315.981Z" fill="#9E9E9E"/>
<path d="M334.055 345.963C333.966 345.122 331.979 325.252 338.384 315.783C344.773 306.337 372.586 293.73 373.767 293.199L374.055 293.841C373.767 293.971 345.242 306.896 338.964 316.179C332.704 325.436 334.729 345.69 334.752 345.892L334.055 345.965V345.963Z" fill="black"/>
<path d="M360.008 340.652H318.703C317.86 340.652 317.176 341.337 317.176 342.182V347.443C317.176 348.288 317.86 348.973 318.703 348.973H360.008C360.851 348.973 361.535 348.288 361.535 347.443V342.182C361.535 341.337 360.851 340.652 360.008 340.652Z" fill="white"/>
<path d="M360.007 349.324H318.702C317.667 349.324 316.824 348.481 316.824 347.443V342.18C316.824 341.143 317.667 340.299 318.702 340.299H360.007C361.043 340.299 361.885 341.143 361.885 342.18V347.443C361.885 348.481 361.043 349.324 360.007 349.324ZM318.702 341.004C318.053 341.004 317.526 341.532 317.526 342.182V347.445C317.526 348.095 318.053 348.624 318.702 348.624H360.007C360.656 348.624 361.183 348.095 361.183 347.445V342.182C361.183 341.532 360.656 341.004 360.007 341.004H318.702Z" fill="#242B2B"/>
<path d="M358.418 348.977L355.025 379.201C354.868 380.594 353.689 381.648 352.29 381.648H326.796C325.84 381.648 324.985 381.158 324.479 380.405C324.258 380.049 324.107 379.645 324.061 379.201L321.04 352.312L320.668 348.977H358.418Z" fill="white"/>
<path d="M358.418 348.977L355.025 379.201C354.868 380.594 353.689 381.649 352.29 381.649H326.796C325.84 381.649 324.985 381.158 324.479 380.405C341.733 375.811 349.225 366.664 353.452 352.215L321.04 352.31L320.668 348.975H358.418V348.977Z" fill="#E5E8FF"/>
<path d="M352.29 382H326.796C325.752 382 324.777 381.478 324.187 380.602C323.92 380.173 323.763 379.717 323.71 379.239L320.275 348.625H358.809L355.374 379.239C355.196 380.813 353.87 381.998 352.29 381.998V382ZM321.059 349.328L324.408 379.161C324.448 379.533 324.572 379.889 324.775 380.219C325.227 380.891 325.983 381.297 326.794 381.297H352.288C353.511 381.297 354.538 380.379 354.677 379.161L358.025 349.328H321.061H321.059Z" fill="#242B2B"/>
</g>
</g>
<defs>
<clipPath id="clip0_2420_10619">
<rect width="427" height="425" fill="white"/>
</clipPath>
<clipPath id="clip1_2420_10619">
<rect width="352" height="363" fill="white" transform="translate(38 19)"/>
</clipPath>
</defs>
</svg>
