<svg width="423" height="403" viewBox="0 0 423 403" fill="none" xmlns="http://www.w3.org/2000/svg">
<g clip-path="url(#clip0_2442_15938)">
<path d="M400.041 382.57C388.531 392.16 338.441 398.94 278.761 401.49C187.021 405.42 72.6009 399.37 40.7909 378.2C25.7309 368.19 15.5509 337.25 9.1009 297.66C-6.9291 199.16 0.220901 47.1301 13.1609 30.6501C31.3109 7.56009 323.301 -15.3099 399.911 13.9301C432.741 26.4601 429.231 358.23 400.031 382.57H400.041Z" fill="white"/>
<path d="M373.314 247.44L375.204 241.883L377.358 247.44C377.358 247.44 381.657 248.14 381.712 248.531C381.757 248.913 377.595 250.095 377.595 250.095C377.595 250.095 375.85 255.488 375.204 254.27C374.568 253.051 373.95 250.35 373.95 250.35C373.95 250.35 368.533 249.268 368.533 248.731C368.533 248.158 373.314 247.449 373.314 247.449V247.44Z" fill="white"/>
<path d="M304.094 233.142L305.566 228.822L307.238 233.142C307.238 233.142 310.574 233.688 310.619 233.988C310.656 234.279 307.429 235.198 307.429 235.198C307.429 235.198 306.075 239.381 305.575 238.435C305.075 237.49 304.594 235.389 304.594 235.389C304.594 235.389 300.395 234.543 300.395 234.134C300.395 233.688 304.103 233.142 304.103 233.142H304.094Z" fill="white"/>
<g clip-path="url(#clip1_2442_15938)">
<path d="M372.815 359.453H50.4377C50.0772 359.453 49.7852 359.161 49.7852 358.801C49.7852 358.44 50.0772 358.148 50.4377 358.148H372.815C373.175 358.148 373.467 358.44 373.467 358.801C373.467 359.161 373.175 359.453 372.815 359.453Z" fill="#1A1A1A"/>
<path d="M252.252 68.832C182.306 68.832 125.611 125.515 125.611 195.431C125.611 265.346 182.306 322.029 252.252 322.029C322.198 322.029 378.886 265.353 378.886 195.431C378.886 125.508 322.191 68.832 252.252 68.832ZM252.252 274.579C208.526 274.579 173.077 239.142 173.077 195.431C173.077 151.719 208.526 116.282 252.252 116.282C295.978 116.282 331.42 151.719 331.42 195.431C331.42 239.142 295.978 274.579 252.252 274.579Z" fill="#DDDDDD"/>
<path d="M252.253 50.6113C245.673 50.6113 239.196 51.0492 232.844 51.9045L243.225 128.651C246.177 128.25 249.189 128.049 252.253 128.049C284.407 128.049 311.305 150.565 318.028 180.688L393.633 163.739C379.184 99.0055 321.373 50.6113 252.253 50.6113Z" fill="#1A1A1A"/>
<path d="M393.633 163.739L318.028 180.688C311.307 150.565 284.41 128.049 252.253 128.049C249.189 128.049 246.177 128.25 243.225 128.651L232.844 51.9045C239.193 51.0492 245.671 50.6113 252.253 50.6113C321.373 50.6113 379.184 99.0055 393.633 163.739Z" fill="#008BCE"/>
<path d="M228.287 256.127L247.315 290.733L269.376 243.404L307.19 266.267L271.043 339.91C267.409 350.865 257.16 358.259 245.615 358.259C232.973 358.259 222.053 349.425 219.414 337.066L197.885 279.459L228.287 256.127Z" fill="white"/>
<path d="M245.615 358.914C232.766 358.914 221.49 349.807 218.786 337.253L197.276 279.692C197.175 279.423 197.262 279.12 197.49 278.947L227.892 255.614C228.043 255.498 228.237 255.452 228.424 255.493C228.611 255.532 228.771 255.65 228.862 255.817L247.269 289.295L268.787 243.133C268.865 242.965 269.011 242.839 269.189 242.784C269.366 242.73 269.558 242.755 269.718 242.851L307.533 265.713C307.822 265.889 307.93 266.256 307.781 266.56L271.653 340.163C267.909 351.383 257.452 358.916 245.618 358.916L245.615 358.914ZM198.667 279.686L220.028 336.84C220.039 336.87 220.048 336.902 220.055 336.934C222.613 348.913 233.363 357.609 245.618 357.609C256.902 357.609 266.873 350.416 270.425 339.71C270.434 339.682 270.446 339.655 270.459 339.627L306.344 266.521L269.665 244.344L247.911 291.014C247.806 291.238 247.587 291.384 247.34 291.393C247.101 291.375 246.866 291.27 246.747 291.055L228.086 257.115L198.672 279.69L198.667 279.686Z" fill="#1A1A1A"/>
<path d="M187.916 229.383L208.023 229.974C215.626 230.197 222.699 233.915 227.189 240.05L242.804 261.371L204.015 294.427L187.918 229.383H187.916Z" fill="#008BCE"/>
<path d="M204.012 295.081C203.946 295.081 203.878 295.072 203.812 295.049C203.597 294.981 203.433 294.805 203.378 294.584L194.115 257.153C194.028 256.804 194.243 256.449 194.592 256.362C194.943 256.278 195.297 256.49 195.384 256.841L204.393 293.245L241.916 261.268L226.662 240.437C226.449 240.145 226.511 239.737 226.803 239.523C227.095 239.308 227.503 239.374 227.716 239.664L243.331 260.985C243.534 261.261 243.488 261.647 243.228 261.868L204.439 294.924C204.318 295.026 204.168 295.081 204.015 295.081H204.012Z" fill="#1A1A1A"/>
<path d="M160.453 228.739C160.028 228.785 140.55 229.884 126.042 232.053C117.616 233.315 111.383 240.549 111.383 249.066V358.26H223.937L215.039 245.978C214.407 238.018 208.384 231.542 200.487 230.331C187.713 228.37 168.666 227.857 160.453 228.739Z" fill="#008BCE"/>
<path d="M150.548 242.222L140.947 230.895L146.916 193.289L180.469 200.28L182.743 228.325L179.186 237.856C173.628 248.694 159.086 250.911 150.548 242.224V242.222Z" fill="white"/>
<path d="M163.215 248.224C158.289 248.224 153.618 246.279 150.082 242.677C150.07 242.666 150.059 242.655 150.05 242.641L140.449 231.314C140.326 231.171 140.273 230.979 140.303 230.79L146.272 193.184C146.299 193.006 146.399 192.849 146.545 192.748C146.691 192.646 146.874 192.607 147.05 192.646L180.602 199.634C180.885 199.693 181.098 199.933 181.12 200.22L183.395 228.265C183.402 228.361 183.39 228.457 183.356 228.546L179.799 238.077C177.023 243.503 172.035 247.093 166.085 248.001C165.124 248.147 164.166 248.22 163.217 248.22L163.215 248.224ZM151.031 241.781C154.951 245.759 160.363 247.558 165.886 246.714C171.417 245.871 176.053 242.534 178.604 237.557L182.081 228.233L179.856 200.82L147.453 194.069L141.64 230.701L151.031 241.781Z" fill="#1A1A1A"/>
<path d="M146.833 197.176C139.596 179.47 144.072 159.817 144.072 159.817L185.496 146.914C186.274 147.735 208.492 160.59 207.589 190.097C206.847 214.278 187.109 224.37 160.75 213.459" fill="white"/>
<path d="M180.558 218.507C174.443 218.507 167.655 217.027 160.5 214.064C160.167 213.925 160.007 213.544 160.147 213.211C160.286 212.876 160.667 212.718 161 212.858C174.778 218.562 187.083 218.653 195.648 213.118C202.712 208.554 206.615 200.587 206.935 190.077C207.46 172.923 199.944 157.956 185.773 147.934C185.598 147.811 185.465 147.715 185.36 147.64L144.632 160.326C144.08 163.084 140.897 180.935 147.436 196.931C147.573 197.266 147.413 197.647 147.078 197.784C146.745 197.921 146.361 197.761 146.227 197.426C138.994 179.733 143.388 159.872 143.434 159.671C143.487 159.446 143.655 159.263 143.877 159.192L185.301 146.29C185.538 146.215 185.798 146.283 185.969 146.463C186.036 146.523 186.234 146.657 186.528 146.865C201.069 157.147 208.781 172.506 208.242 190.113C207.907 201.07 203.798 209.404 196.357 214.212C191.929 217.075 186.567 218.505 180.558 218.505V218.507Z" fill="#1A1A1A"/>
<path d="M151.107 148.067C151.107 148.067 141.485 144.15 133.876 154.428C126.267 164.705 140.817 184.614 140.817 184.614L152.907 180.155C152.907 180.155 152.891 182.267 156.439 180.128C159.987 177.988 160.174 167.111 164.15 165.444C164.15 165.444 188.05 181.606 209.884 164.044C221.546 154.665 204.014 132.801 181.718 132.911C159.425 133.018 151.107 148.067 151.107 148.067Z" fill="#1A1A1A"/>
<path d="M180.94 179.365C178.759 178.667 176.281 179.472 174.652 181.409L180.94 179.365Z" fill="white"/>
<path d="M174.653 182.062C174.505 182.062 174.356 182.012 174.233 181.909C173.957 181.676 173.921 181.266 174.153 180.988C175.956 178.841 178.698 177.959 181.14 178.743C181.484 178.853 181.673 179.22 181.562 179.564C181.452 179.909 181.085 180.1 180.74 179.986C178.808 179.371 176.613 180.091 175.153 181.827C175.023 181.982 174.838 182.06 174.653 182.06V182.062Z" fill="#1A1A1A"/>
<path d="M195.29 183.035C195.566 184.779 196.748 186.05 197.932 185.863C199.105 185.676 199.835 184.1 199.547 182.346C199.262 180.592 198.078 179.321 196.905 179.509C195.723 179.705 195.002 181.281 195.29 183.035Z" fill="#1A1A1A"/>
<path d="M177.391 186.228C177.676 187.982 178.86 189.244 180.042 189.057C181.215 188.87 181.934 187.294 181.658 185.54C181.372 183.786 180.188 182.515 179.006 182.711C177.834 182.898 177.115 184.474 177.391 186.228Z" fill="#1A1A1A"/>
<path d="M198.833 176.172C196.652 175.474 194.174 176.279 192.545 178.215L198.833 176.172Z" fill="white"/>
<path d="M192.546 178.87C192.397 178.87 192.249 178.819 192.126 178.717C191.85 178.484 191.813 178.074 192.046 177.795C193.848 175.649 196.591 174.771 199.032 175.549C199.377 175.658 199.566 176.028 199.456 176.37C199.347 176.712 198.977 176.901 198.635 176.794C196.703 176.174 194.508 176.897 193.048 178.635C192.917 178.79 192.733 178.867 192.548 178.867L192.546 178.87Z" fill="#1A1A1A"/>
<path d="M153.399 180.469C153.399 180.469 143.785 170.297 138.186 172.099C132.587 173.901 134.122 193.488 140.65 195.507C147.178 197.525 152.551 195.071 152.551 195.071" fill="white"/>
<path d="M145.983 196.962C144.322 196.962 142.446 196.745 140.461 196.132C136.334 194.857 134.135 187.695 134.098 181.281C134.066 175.937 135.522 172.272 137.988 171.478C143.909 169.567 153.473 179.593 153.877 180.022C154.126 180.284 154.112 180.697 153.852 180.946C153.59 181.192 153.177 181.181 152.928 180.921C150.332 178.175 142.659 171.351 138.39 172.724C136.551 173.317 135.378 176.672 135.406 181.274C135.44 187.147 137.484 193.846 140.847 194.884C147.044 196.8 152.232 194.501 152.285 194.478C152.613 194.327 153.001 194.473 153.149 194.802C153.298 195.13 153.154 195.516 152.828 195.666C152.668 195.739 149.923 196.964 145.983 196.964V196.962Z" fill="#1A1A1A"/>
<path d="M141.723 186.974C141.47 186.974 141.228 186.826 141.121 186.575C140.573 185.282 140.286 183.856 140.295 182.453C140.302 181.281 140.61 180.467 141.237 179.965C141.762 179.545 142.513 179.39 143.243 179.55C143.784 179.666 144.315 179.942 144.865 180.391C145.563 180.962 146.152 181.689 146.563 182.494C146.727 182.816 146.599 183.208 146.277 183.373C145.956 183.537 145.563 183.409 145.399 183.087C145.07 182.444 144.6 181.86 144.039 181.404C143.654 181.089 143.302 180.9 142.967 180.827C142.62 180.752 142.271 180.813 142.056 180.987C141.76 181.224 141.609 181.719 141.605 182.462C141.598 183.69 141.847 184.935 142.326 186.064C142.467 186.395 142.312 186.78 141.979 186.921C141.895 186.958 141.81 186.974 141.723 186.974Z" fill="#1A1A1A"/>
<path d="M189.7 186.965C190.243 189.471 190.788 191.98 191.331 194.487C191.66 195.999 191.986 197.571 191.528 199.003C191.069 200.435 189.588 201.687 187.781 201.557" fill="white"/>
<path d="M188.048 202.22C187.943 202.22 187.838 202.217 187.733 202.208C187.373 202.181 187.103 201.868 187.129 201.508C187.154 201.15 187.464 200.89 187.827 200.904C189.353 201.027 190.551 199.902 190.905 198.801C191.318 197.508 190.987 195.975 190.692 194.622L189.061 187.1C188.983 186.747 189.209 186.4 189.561 186.323C189.912 186.25 190.261 186.471 190.339 186.822L191.97 194.344C192.299 195.856 192.67 197.571 192.15 199.198C191.657 200.735 190.108 202.215 188.048 202.215V202.22Z" fill="#1A1A1A"/>
<path d="M179.328 207.103H179.321C177.601 207.084 175.879 206.416 174.594 205.267C173.312 204.117 172.459 202.479 172.251 200.771C172.208 200.413 172.463 200.089 172.821 200.046C173.179 200.003 173.506 200.256 173.549 200.616C173.718 202.014 174.418 203.355 175.468 204.295C176.517 205.235 177.927 205.782 179.337 205.798C179.698 205.8 179.988 206.097 179.983 206.457C179.979 206.815 179.687 207.103 179.331 207.103H179.328Z" fill="#1A1A1A"/>
<path d="M223.935 358.914C223.598 358.914 223.313 358.654 223.285 358.311L214.387 247.565C214.357 247.206 214.627 246.889 214.987 246.862C215.348 246.846 215.662 247.102 215.69 247.462L224.588 358.209C224.618 358.567 224.348 358.884 223.988 358.911C223.97 358.911 223.951 358.911 223.935 358.911V358.914Z" fill="#1A1A1A"/>
<path d="M81.3911 283.619C81.3911 283.619 66.4719 324.329 65.8125 339.798L115.624 321.866L121.136 290.4L81.3933 283.619H81.3911Z" fill="white"/>
<path d="M65.8116 340.453C65.6747 340.453 65.5378 340.41 65.4238 340.325C65.2481 340.195 65.1477 339.988 65.1568 339.771C65.8139 324.378 80.165 285.061 80.7765 283.396C80.886 283.1 81.1894 282.929 81.4997 282.977L121.242 289.758C121.414 289.787 121.566 289.883 121.667 290.024C121.767 290.166 121.806 290.341 121.776 290.513L116.264 321.979C116.223 322.209 116.063 322.401 115.842 322.48L66.0307 340.412C65.9577 340.437 65.8846 340.451 65.8094 340.451L65.8116 340.453ZM81.8191 284.357C80.1376 289.007 67.6437 323.972 66.5235 338.85L115.046 321.381L120.378 290.934L81.8191 284.357Z" fill="#1A1A1A"/>
<path d="M130.741 231.354L117.328 233.21C106.002 234.777 96.3171 242.135 91.7723 252.622L73.6543 294.429L128.433 294.197L130.741 231.354Z" fill="#008BCE"/>
<path d="M73.6531 295.082C73.4341 295.082 73.2287 294.972 73.1078 294.787C72.9869 294.603 72.9663 294.37 73.053 294.167L91.171 252.36C91.3147 252.029 91.698 251.878 92.0311 252.02C92.362 252.164 92.5148 252.549 92.3711 252.88L74.6524 293.77L127.804 293.544L129.125 257.626C129.139 257.266 129.442 256.962 129.803 256.997C130.163 257.01 130.444 257.311 130.432 257.672L129.088 294.217C129.075 294.568 128.79 294.844 128.438 294.847L73.6599 295.079H73.6577L73.6531 295.082Z" fill="#1A1A1A"/>
<path d="M208.791 228.195L181.129 277.458C179.466 280.544 175.617 281.703 172.523 280.038C170.978 279.208 169.922 277.83 169.454 276.27C168.993 274.715 169.119 272.981 169.949 271.439L197.611 222.174C199.256 223.467 201.031 224.639 202.936 225.666C204.841 226.692 206.806 227.531 208.791 228.193V228.195Z" fill="#1A1A1A"/>
<g opacity="0.6">
<path d="M252.445 210.828C243.898 226.691 225.324 233.682 208.792 228.194C206.807 227.533 204.842 226.694 202.937 225.667C201.032 224.641 199.257 223.469 197.612 222.175C183.929 211.401 179.551 192.044 188.1 176.181C197.669 158.42 219.83 151.778 237.596 161.344C255.37 170.914 262.014 193.068 252.445 210.828Z" fill="white"/>
</g>
<path d="M220.314 230.719C216.417 230.719 212.463 230.103 208.586 228.816C206.533 228.132 204.53 227.268 202.629 226.244C200.729 225.22 198.906 224.024 197.208 222.69C183.005 211.505 178.933 191.815 187.525 175.872C192.237 167.127 200.072 160.741 209.588 157.89C219.104 155.039 229.162 156.061 237.907 160.771C246.657 165.481 253.047 173.315 255.902 182.828C258.756 192.342 257.734 202.395 253.022 211.14C246.374 223.477 233.675 230.721 220.316 230.721L220.314 230.719ZM220.316 157.612C216.853 157.612 213.373 158.118 209.962 159.14C200.781 161.893 193.22 168.053 188.675 176.49C180.386 191.874 184.315 210.873 198.016 221.664C199.654 222.952 201.413 224.107 203.248 225.094C205.082 226.082 207.017 226.916 208.997 227.576C225.552 233.07 243.583 225.897 251.868 210.52C256.413 202.083 257.401 192.383 254.647 183.202C251.893 174.025 245.726 166.466 237.284 161.92C231.979 159.065 226.173 157.612 220.314 157.612H220.316Z" fill="#1A1A1A"/>
<path d="M245.511 298.773C245.461 298.773 245.408 298.766 245.356 298.755C245.004 298.668 244.79 298.317 244.877 297.966L246.681 290.583C246.768 290.232 247.119 290.015 247.471 290.104C247.822 290.191 248.037 290.542 247.95 290.893L246.145 298.276C246.072 298.575 245.805 298.776 245.511 298.776V298.773Z" fill="#1A1A1A"/>
<path d="M93.0923 309.407L162.756 247.994L177.332 239.284C178.797 238.02 180.652 237.507 182.507 236.966C189.224 234.998 205.64 230.626 208.341 234.127C211.732 238.561 194.976 244.806 194.976 244.806C194.976 244.806 202.156 245.868 198.574 253.359C198.574 253.359 201.964 253.819 202.53 256.547C203.183 259.647 200.979 262.313 200.979 262.313C200.979 262.313 205.727 264.29 203.226 269.612C200.979 274.42 180.137 282.058 180.137 282.058L114.66 353.288C106.558 365.499 87.9542 370.768 76.2361 361.964C67.6277 355.5 65.7637 347.166 65.7637 340.878C65.7637 340.016 65.8344 339.153 65.9736 338.273" fill="white"/>
<path d="M89.999 367.001C84.7035 367.001 79.7958 365.456 75.8442 362.487C68.7211 357.141 65.1094 349.869 65.1094 340.878C65.1094 339.977 65.1801 339.093 65.3261 338.171C65.3832 337.815 65.7163 337.571 66.0745 337.628C66.4304 337.685 66.6745 338.021 66.6175 338.376C66.4829 339.229 66.4167 340.048 66.4167 340.878C66.4167 349.436 69.8528 356.356 76.629 361.442C81.4796 365.087 87.8795 366.453 94.6534 365.288C102.612 363.919 109.885 359.301 114.115 352.928C114.133 352.901 114.156 352.873 114.179 352.848L179.656 281.618C179.726 281.541 179.813 281.484 179.911 281.447C185.638 279.349 200.883 273.079 202.633 269.339C203.347 267.817 203.489 266.465 203.049 265.318C202.412 263.653 200.74 262.925 200.724 262.918C200.534 262.838 200.393 262.672 200.345 262.471C200.295 262.27 200.345 262.061 200.473 261.901C200.493 261.876 202.467 259.428 201.89 256.685C201.424 254.449 198.513 254.014 198.483 254.009C198.278 253.98 198.095 253.854 197.997 253.672C197.899 253.487 197.892 253.27 197.983 253.081C199.026 250.898 199.2 249.119 198.499 247.794C197.484 245.874 194.903 245.459 194.878 245.454C194.584 245.411 194.356 245.171 194.326 244.875C194.296 244.578 194.468 244.3 194.748 244.195C198.15 242.927 207.174 238.951 208.077 235.822C208.214 235.343 208.134 234.933 207.824 234.524C206.158 232.364 196.528 233.541 182.692 237.594L182.526 237.642C180.751 238.158 179.072 238.646 177.76 239.777C177.732 239.802 177.7 239.825 177.668 239.843L163.144 248.522L93.5263 309.894C93.2548 310.131 92.8419 310.106 92.6046 309.837C92.365 309.565 92.3924 309.155 92.6616 308.915L162.325 247.502C162.354 247.475 162.386 247.452 162.423 247.431L176.952 238.751C178.474 237.46 180.349 236.915 182.163 236.388L182.327 236.34C192.95 233.227 206.177 230.248 208.862 233.728C209.423 234.463 209.585 235.311 209.334 236.182C208.326 239.684 200.546 243.248 196.927 244.738C197.885 245.176 198.99 245.922 199.654 247.169C200.477 248.716 200.422 250.641 199.496 252.899C200.667 253.243 202.704 254.158 203.174 256.413C203.694 258.879 202.601 261.055 201.94 262.09C202.654 262.542 203.724 263.415 204.269 264.829C204.846 266.326 204.696 268.027 203.822 269.888C201.572 274.698 183.276 281.598 180.516 282.617L115.181 353.692C110.752 360.336 103.168 365.151 94.8816 366.574C93.2297 366.857 91.5984 366.998 90.0036 366.998L89.999 367.001Z" fill="#1A1A1A"/>
<path d="M186.927 248.317C186.658 248.317 186.407 248.15 186.311 247.881C186.19 247.541 186.368 247.167 186.708 247.046L194.76 244.188C195.1 244.067 195.474 244.245 195.595 244.585C195.716 244.925 195.538 245.299 195.198 245.42L187.146 248.278C187.073 248.303 187 248.314 186.927 248.314V248.317Z" fill="#1A1A1A"/>
<path d="M190.428 256.96C190.162 256.96 189.911 256.796 189.815 256.529C189.692 256.189 189.867 255.815 190.207 255.692L198.359 252.747C198.699 252.627 199.073 252.8 199.197 253.14C199.32 253.48 199.144 253.854 198.804 253.977L190.652 256.921C190.579 256.949 190.504 256.96 190.431 256.96H190.428Z" fill="#1A1A1A"/>
<path d="M191.744 266.04C191.47 266.04 191.215 265.867 191.124 265.593C191.009 265.251 191.194 264.881 191.537 264.767L200.775 261.695C201.117 261.583 201.486 261.766 201.601 262.11C201.715 262.452 201.53 262.822 201.188 262.936L191.949 266.008C191.881 266.031 191.81 266.042 191.744 266.042V266.04Z" fill="#1A1A1A"/>
<path d="M303.914 289.911H223.16L242.556 190.188H323.312L303.914 289.911Z" fill="white"/>
<path d="M303.914 290.564H223.158C222.961 290.564 222.777 290.477 222.653 290.327C222.53 290.176 222.478 289.978 222.516 289.786L241.914 190.062C241.974 189.757 242.243 189.533 242.555 189.533H323.312C323.506 189.533 323.693 189.62 323.816 189.77C323.939 189.921 323.989 190.119 323.953 190.311L304.555 290.035C304.496 290.34 304.226 290.564 303.914 290.564ZM223.952 289.257H303.375L322.518 190.84H243.094L223.952 289.257Z" fill="#1A1A1A"/>
<path d="M317.197 254.122C318.71 247.987 321.883 238.889 316.773 231.426C312.116 224.627 288.28 219.481 294.92 237.087C294.92 237.087 290.265 237.324 289.467 241.767C288.668 246.21 292.554 247.563 292.554 247.563C292.554 247.563 287.594 247.978 287.575 251.996C287.557 256.017 290.163 257.819 290.163 257.819C289.766 257.692 284.463 256.704 285.955 263.66C287.292 269.898 304.639 271.224 307.19 270.676C313.056 269.42 315.963 259.138 317.197 254.122Z" fill="white"/>
<path d="M305.525 271.428C300.245 271.428 286.604 269.802 285.317 263.796C284.735 261.08 285.068 259.134 286.307 258.012C286.976 257.408 287.795 257.155 288.527 257.075C287.751 256.046 286.912 254.379 286.921 251.993C286.932 249.279 288.945 247.881 290.765 247.274C289.494 246.241 288.326 244.41 288.824 241.65C289.428 238.288 292.143 236.922 294.032 236.543C291.73 229.78 294.121 226.829 296.592 225.54C302.383 222.525 314.065 226.311 317.314 231.055C322.075 238.007 319.912 246.284 318.333 252.328C318.158 253.004 317.987 253.656 317.834 254.276C315.244 264.782 311.808 270.356 307.329 271.314C306.996 271.385 306.367 271.426 305.527 271.426L305.525 271.428ZM289.091 258.354C288.502 258.354 287.728 258.475 287.165 259C286.325 259.78 286.127 261.345 286.595 263.523C287.788 269.09 304.4 270.605 307.053 270.037C310.941 269.204 314.14 263.799 316.563 253.964C316.718 253.339 316.889 252.682 317.067 252C318.582 246.2 320.658 238.254 316.234 231.794C313.312 227.525 302.399 223.992 297.195 226.699C293.4 228.677 294.197 233.313 295.531 236.853C295.604 237.049 295.582 237.266 295.468 237.442C295.353 237.615 295.162 237.724 294.954 237.736C294.788 237.745 290.806 238.014 290.11 241.88C289.424 245.7 292.634 246.893 292.771 246.944C293.06 247.046 293.238 247.338 293.2 247.644C293.161 247.949 292.914 248.184 292.609 248.212C292.431 248.228 288.244 248.631 288.23 251.998C288.214 255.631 290.512 257.264 290.535 257.28C290.802 257.465 290.893 257.816 290.749 258.106C290.606 258.395 290.272 258.537 289.964 258.439C289.958 258.439 289.59 258.352 289.093 258.352L289.091 258.354Z" fill="#1A1A1A"/>
<path d="M306.463 240.896C306.406 240.896 306.349 240.889 306.289 240.873L294.747 237.717C294.398 237.621 294.195 237.261 294.288 236.914C294.384 236.567 294.742 236.364 295.091 236.455L306.634 239.612C306.983 239.708 307.186 240.068 307.093 240.415C307.013 240.705 306.75 240.896 306.463 240.896Z" fill="#1A1A1A"/>
<path d="M303.24 251.137C303.183 251.137 303.126 251.13 303.067 251.114L292.38 248.193C292.031 248.097 291.828 247.736 291.921 247.39C292.017 247.041 292.375 246.842 292.724 246.931L303.411 249.853C303.76 249.949 303.963 250.309 303.87 250.656C303.79 250.946 303.528 251.137 303.24 251.137Z" fill="#1A1A1A"/>
<path d="M300.462 261.289C300.405 261.289 300.348 261.283 300.289 261.267L289.99 258.45C289.641 258.354 289.436 257.996 289.531 257.647C289.627 257.3 289.985 257.095 290.334 257.189L300.633 260.005C300.983 260.101 301.188 260.459 301.092 260.808C301.012 261.098 300.75 261.289 300.462 261.289Z" fill="#1A1A1A"/>
<path d="M403.691 92.5806H380.061C379.34 92.5806 378.754 91.9944 378.754 91.2737C378.754 90.553 379.338 89.9668 380.061 89.9668H403.691C404.412 89.9668 404.999 90.553 404.999 91.2737C404.999 91.9944 404.415 92.5806 403.691 92.5806Z" fill="#1A1A1A"/>
<path d="M403.693 102.03H388.628C387.907 102.03 387.32 101.444 387.32 100.723C387.32 100.002 387.904 99.416 388.628 99.416H403.693C404.414 99.416 405 100.002 405 100.723C405 101.444 404.416 102.03 403.693 102.03Z" fill="#1A1A1A"/>
<path d="M111.545 199.188L59.9357 219.665C51.8932 222.856 42.7874 218.926 39.5955 210.887L19.1093 159.292C15.9174 151.253 19.8485 142.15 27.8911 138.959L79.5002 118.482C87.5427 115.291 96.6485 119.221 99.8404 127.261L120.324 178.853C123.516 186.893 119.585 195.995 111.543 199.186L111.545 199.188Z" fill="#1A1A1A"/>
<path d="M53.3051 201.755C52.9765 201.755 52.6617 201.568 52.5156 201.251L32.5679 158.424C32.3648 157.989 32.5542 157.471 32.99 157.268C33.4257 157.063 33.9436 157.254 34.1467 157.69L53.7431 199.762L105.745 178.231C106.19 178.044 106.698 178.258 106.883 178.703C107.068 179.148 106.856 179.656 106.411 179.841L53.6382 201.691C53.5287 201.737 53.4169 201.757 53.3051 201.757V201.755Z" fill="white"/>
<path d="M53.5158 151.608L42.7812 155.867L56.8975 191.418L67.632 187.159L53.5158 151.608Z" fill="white"/>
<path d="M74.801 159.59L64.0664 163.85L72.5462 185.206L83.2808 180.946L74.801 159.59Z" fill="#008BCE"/>
<path d="M88.4982 148.463L77.7637 152.723L88.1964 178.997L98.9309 174.737L88.4982 148.463Z" fill="white"/>
<path d="M205.263 104.229H172.096C175.107 91.6848 175.107 78.6089 172.096 66.0645H205.263C208.275 78.6089 208.275 91.6848 205.263 104.229Z" fill="#1A1A1A"/>
<path d="M201.421 73.4375H179.84C179.592 73.4375 179.391 73.6387 179.391 73.8868V76.4847C179.391 76.7328 179.592 76.934 179.84 76.934H201.421C201.67 76.934 201.871 76.7328 201.871 76.4847V73.8868C201.871 73.6387 201.67 73.4375 201.421 73.4375Z" fill="white"/>
<path d="M201.072 80.1836H179.49C179.242 80.1836 179.041 80.3848 179.041 80.6329V83.2308C179.041 83.4789 179.242 83.6801 179.49 83.6801H201.072C201.32 83.6801 201.521 83.4789 201.521 83.2308V80.6329C201.521 80.3848 201.32 80.1836 201.072 80.1836Z" fill="white"/>
<path d="M200.724 86.9297H179.143C178.895 86.9297 178.693 87.1309 178.693 87.379V89.9768C178.693 90.225 178.895 90.4262 179.143 90.4262H200.724C200.972 90.4262 201.174 90.225 201.174 89.9768V87.379C201.174 87.1309 200.972 86.9297 200.724 86.9297Z" fill="white"/>
<path d="M383.894 244.614H350.727C353.738 232.07 353.738 218.994 350.727 206.449H383.894C386.905 218.994 386.905 232.07 383.894 244.614Z" fill="white"/>
<path d="M380.048 213.824H358.467C358.219 213.824 358.018 214.025 358.018 214.274V216.871C358.018 217.12 358.219 217.321 358.467 217.321H380.048C380.297 217.321 380.498 217.12 380.498 216.871V214.274C380.498 214.025 380.297 213.824 380.048 213.824Z" fill="white"/>
<path d="M379.703 220.57H358.121C357.873 220.57 357.672 220.771 357.672 221.02V223.617C357.672 223.866 357.873 224.067 358.121 224.067H379.703C379.951 224.067 380.152 223.866 380.152 223.617V221.02C380.152 220.771 379.951 220.57 379.703 220.57Z" fill="white"/>
<path d="M379.353 227.316H357.772C357.523 227.316 357.322 227.518 357.322 227.766V230.364C357.322 230.612 357.523 230.813 357.772 230.813H379.353C379.601 230.813 379.803 230.612 379.803 230.364V227.766C379.803 227.518 379.601 227.316 379.353 227.316Z" fill="white"/>
<path d="M58.3614 260.134L52.484 263.833C49.7256 265.553 46.1002 264.73 44.3753 261.99L40.6746 256.115C38.9498 253.376 39.7757 249.751 42.5136 248.027L48.3955 244.309C51.1356 242.585 54.761 243.409 56.5042 246.152L60.2003 252.048C61.9252 254.787 61.1015 258.412 58.3614 260.136V260.134Z" fill="white"/>
<path d="M136.202 101.055L131.178 104.216C128.819 105.685 125.721 104.983 124.247 102.64L121.085 97.6179C119.611 95.2755 120.316 92.1781 122.657 90.7047L127.685 87.5276C130.028 86.0542 133.127 86.7589 134.617 89.1036L137.777 94.1419C139.251 96.482 138.546 99.5816 136.205 101.055H136.202Z" fill="white"/>
<path d="M82.122 90.0777L78.905 92.1031C77.3946 93.045 75.4096 92.5934 74.465 91.0927L72.439 87.8767C71.4944 86.3759 71.9462 84.3916 73.4452 83.4497L76.6667 81.4152C78.1657 80.4709 80.1507 80.9225 81.1067 82.4256L83.1304 85.6529C84.075 87.1514 83.6232 89.1357 82.1243 90.08L82.122 90.0777Z" fill="white"/>
<path d="M186.056 45.1578L182.837 47.1831C181.326 48.1251 179.341 47.6735 178.397 46.1727L176.371 42.9568C175.426 41.456 175.878 39.4717 177.377 38.5297L180.598 36.4953C182.097 35.551 184.082 36.0026 185.038 37.5057L187.062 40.733C188.007 42.2315 187.555 44.2158 186.056 45.1601V45.1578Z" fill="white"/>
</g>
</g>
<defs>
<clipPath id="clip0_2442_15938">
<rect width="423" height="403" fill="white"/>
</clipPath>
<clipPath id="clip1_2442_15938">
<rect width="387" height="331" fill="white" transform="translate(18 36)"/>
</clipPath>
</defs>
</svg>
