<svg width="427" height="425" viewBox="0 0 427 425" fill="none" xmlns="http://www.w3.org/2000/svg">
<g clip-path="url(#clip0_2378_10423)">
<path d="M400.041 382.57C388.531 392.16 338.441 398.94 278.761 401.49C187.021 405.42 72.6009 399.37 40.7909 378.2C25.7309 368.19 15.5509 337.25 9.1009 297.66C-6.9291 199.16 0.220901 47.1301 13.1609 30.6501C31.3109 7.56009 323.301 -15.3099 399.911 13.9301C432.741 26.4601 429.231 358.23 400.031 382.57H400.041Z" fill="white"/>
<path d="M373.314 247.44L375.204 241.883L377.358 247.44C377.358 247.44 381.657 248.14 381.712 248.531C381.757 248.913 377.595 250.095 377.595 250.095C377.595 250.095 375.85 255.488 375.204 254.27C374.568 253.051 373.95 250.35 373.95 250.35C373.95 250.35 368.533 249.268 368.533 248.731C368.533 248.158 373.314 247.449 373.314 247.449V247.44Z" fill="white"/>
<path d="M304.094 233.142L305.566 228.822L307.238 233.142C307.238 233.142 310.574 233.688 310.619 233.988C310.656 234.279 307.429 235.198 307.429 235.198C307.429 235.198 306.075 239.381 305.575 238.435C305.075 237.49 304.594 235.389 304.594 235.389C304.594 235.389 300.395 234.543 300.395 234.134C300.395 233.688 304.103 233.142 304.103 233.142H304.094Z" fill="white"/>
<path d="M379.129 307.576C379.129 307.576 385.106 285.478 388.494 286.871C391.882 288.264 398.856 314.145 398.856 314.145L375.342 329.674C375.342 329.674 375.065 320.212 379.129 307.576Z" fill="#A3787D"/>
<path d="M287.662 271.542C287.662 271.542 287.464 283.686 290.852 285.876C294.239 288.067 306.993 293.64 306.993 293.64C306.993 293.64 315.361 309.965 329.312 314.942C343.26 319.92 356.611 319.323 360.597 320.517C364.583 321.712 385.905 328.481 385.905 328.481L394.673 294.239L380.325 287.47L333.297 276.321L287.664 271.544L287.662 271.542Z" fill="#FFBFBF"/>
<path d="M415.595 318.127C415.595 318.127 409.076 290.836 407.824 290.454C400.651 288.264 394.768 310.8 393.677 314.544C392.585 318.288 386.303 336.444 389.89 337.638C393.476 338.832 415.597 318.127 415.597 318.127H415.595Z" fill="#272525"/>
<path d="M416.791 295.033L388.494 286.871C388.494 286.871 389.888 297.821 385.505 310.562C381.121 323.304 375.342 329.674 375.342 329.674L402.195 339.828L416.791 295.033Z" fill="#018BCE"/>
<path d="M427.95 294.038L407.823 290.455C407.823 290.455 407.229 303.373 403.837 313.351C396.775 334.134 389.889 337.639 389.889 337.639L414.599 346C414.599 346 427.551 329.874 427.95 294.038Z" fill="#272525"/>
<path d="M279.201 161.531C300.111 162.442 319.981 162.866 324.437 167.319C328.893 171.771 338.921 206.502 341.818 214.072C344.715 221.642 357.417 266.39 357.417 269.729C357.417 273.068 356.908 276.14 356.303 277.075C353.853 280.86 318.867 282.692 301.931 282.195C284.99 281.698 246.445 283.53 241.32 278.188C235.417 272.034 235.303 230.991 236.417 212.067C237.531 193.143 237.978 163.979 242.212 161.531C246.445 159.082 268.312 161.056 279.203 161.531H279.201Z" fill="#142232"/>
<path d="M288.639 276.853C274.702 276.853 264.362 275.806 257.794 274.842C249.011 273.553 242.508 271.748 240.82 270.129C240.331 269.661 238.845 268.234 238.603 245.383C238.482 233.999 238.745 221.454 238.98 217.818C239.419 210.996 242.293 164.634 242.321 164.165C242.34 163.858 242.602 163.626 242.912 163.645C243.22 163.663 243.452 163.928 243.434 164.235C243.405 164.703 240.532 211.066 240.092 217.89C239.857 221.508 239.596 234.012 239.717 245.371C239.937 266.14 241.209 268.957 241.593 269.325C243.731 271.376 260.001 275.74 288.535 275.74C291.134 275.74 293.827 275.704 296.627 275.626C328.465 274.747 357.026 269.235 357.31 269.181C357.61 269.121 357.904 269.318 357.963 269.62C358.023 269.922 357.826 270.214 357.524 270.273C357.238 270.329 328.585 275.858 296.658 276.739C293.866 276.815 291.191 276.851 288.639 276.851V276.853Z" fill="#018BCE"/>
<path d="M419.142 166.983C419.142 166.983 408.001 136.149 400.201 136.371C392.401 136.594 391.734 165.091 391.287 169.765C390.842 174.441 385.94 195.367 391.287 197.148C396.635 198.929 416.023 182.9 416.023 182.9L419.142 166.981V166.983Z" fill="#272525"/>
<path d="M241.603 278.551C241.34 278.551 241.104 278.362 241.056 278.094C240.671 275.977 240.588 273.819 240.807 271.68C240.839 271.374 241.112 271.152 241.418 271.182C241.724 271.215 241.946 271.488 241.915 271.793C241.707 273.829 241.786 275.882 242.153 277.896C242.208 278.198 242.007 278.488 241.705 278.542C241.671 278.549 241.637 278.551 241.605 278.551H241.603Z" fill="#018BCE"/>
<path d="M248.227 164.201C245.939 165.877 244.66 205.609 244.885 213.18C245.107 220.75 242.635 264.162 246.545 266.832C250.456 269.503 289.676 271.961 301.485 271.734C313.295 271.507 348.057 268.39 349.84 265.051C351.623 261.712 337.138 211.621 334.687 204.941C332.237 198.262 321.762 169.988 320.204 168.653C318.645 167.318 287.892 165.981 281.653 165.536C275.414 165.092 251.57 161.751 248.228 164.201H248.227Z" fill="#A0D2F4"/>
<path d="M380.324 287.468C380.324 287.468 364.381 264.374 358.205 262.384C352.027 260.393 343.659 258.8 331.503 256.809C319.348 254.818 294.439 249.442 292.246 256.809C290.054 264.175 297.445 265.816 303.206 267.56C308.968 269.302 321.739 272.368 323.532 272.551C325.325 272.736 329.509 273.333 333.296 276.319C337.083 279.305 352.426 286.808 352.426 286.808L380.324 287.468Z" fill="#FFBFBF"/>
<path d="M293.258 261.682C294.394 262.693 299.04 263.458 301.934 262.795C302.328 262.705 302.727 262.596 303.06 262.367C304.029 261.702 304.102 260.324 304.079 259.15C304.039 257.318 303.786 256.152 302.087 255.526C300.025 254.766 297.727 254.403 295.533 254.553" stroke="#142232" stroke-width="5" stroke-linecap="round" stroke-linejoin="round"/>
<path d="M373.906 168.877C373.906 169.767 374.129 186.465 380.592 188.469C387.053 190.472 393.962 182.902 393.962 182.902C393.962 182.902 397.528 139.49 388.614 139.268C379.7 139.046 373.906 168.877 373.906 168.877Z" fill="#A3787D"/>
<path d="M397.973 142.606C397.973 142.606 364.548 139.49 357.418 136.373C350.287 133.256 334.02 128.358 331.792 128.581C329.564 128.803 325.064 129.471 325.064 129.471C325.064 129.471 312.851 130.362 309.509 134.147C306.167 137.932 303.047 143.943 303.047 145.056V148.619L299.141 157.747C299.141 157.747 290.34 168.433 287.669 170.437C284.997 172.441 278.089 179.342 279.426 182.904C280.762 186.465 282.109 188.024 292.354 182.013C302.601 176.002 312.851 165.761 312.851 165.761L313.965 168.656C313.965 168.656 307.726 171.994 308.393 175.557C309.062 179.12 311.662 179.037 320.871 179.12C330.08 179.202 341.372 179.565 348.726 177.561C356.079 175.557 359.646 173.776 359.646 173.776C359.646 173.776 388.615 179.342 391.288 181.122C393.962 182.904 397.973 142.608 397.973 142.608V142.606Z" fill="#FFBFBF"/>
<path d="M405.325 139.266H388.612C388.612 139.266 391.287 149.952 388.612 167.319C385.937 184.683 380.59 188.468 380.59 188.468L400.868 194.702L411.34 163.313L405.324 139.266H405.325Z" fill="#018BCE"/>
<path d="M426.495 133.033L400.201 136.372C400.201 136.372 405.548 150.175 402.875 164.035C396.862 195.199 391.287 197.151 391.287 197.151L417.359 200.045C417.359 200.045 425.604 183.262 427.387 166.831C429.17 150.399 426.495 133.035 426.495 133.035V133.033Z" fill="#272525"/>
<path d="M399.536 159.033C397.977 159.033 396.418 158.939 394.874 158.753C393.609 158.6 392.283 158.362 391.159 157.672C389.829 156.856 389.039 155.473 389.146 154.148C389.17 153.841 389.44 153.614 389.746 153.637C390.053 153.661 390.281 153.931 390.257 154.236C390.174 155.273 390.943 156.232 391.743 156.722C392.633 157.268 393.692 157.487 395.01 157.646C397.452 157.942 399.935 157.998 402.387 157.811C402.694 157.787 402.961 158.018 402.985 158.323C403.009 158.63 402.778 158.897 402.472 158.921C401.497 158.995 400.517 159.033 399.537 159.033H399.536Z" fill="#142232"/>
<path d="M396.58 153.429C396.001 153.429 395.386 153.295 394.777 153.029C394.517 152.915 394.182 152.749 393.916 152.464C393.33 151.838 393.15 151.083 393.408 150.342C393.739 149.392 394.771 148.608 395.919 148.436C396.612 148.331 397.339 148.472 397.962 148.83C398.927 149.385 399.521 150.381 399.44 151.309C399.396 151.813 399.11 152.736 397.701 153.243C397.353 153.368 396.974 153.431 396.58 153.431V153.429ZM396.381 149.512C396.286 149.512 396.188 149.519 396.086 149.534C395.354 149.644 394.656 150.148 394.461 150.705C394.34 151.052 394.428 151.378 394.731 151.702C394.858 151.838 395.06 151.936 395.223 152.008C395.665 152.201 396.526 152.481 397.324 152.193C397.757 152.037 398.283 151.738 398.331 151.207C398.375 150.711 397.995 150.128 397.409 149.792C397.173 149.656 396.818 149.512 396.383 149.512H396.381Z" fill="#142232"/>
<path d="M314.644 263.546C314.354 263.546 314.109 263.322 314.089 263.029C313.945 260.986 314.441 258.889 315.485 257.128C315.641 256.864 315.982 256.777 316.249 256.933C316.514 257.089 316.601 257.432 316.444 257.695C315.514 259.264 315.072 261.13 315.201 262.949C315.223 263.256 314.992 263.523 314.685 263.543C314.671 263.543 314.658 263.543 314.644 263.543V263.546Z" fill="#142232"/>
<path d="M318.562 263.737C318.534 263.737 318.507 263.736 318.48 263.731C318.176 263.687 317.966 263.403 318.01 263.099L318.419 260.314C318.463 260.01 318.747 259.8 319.051 259.844C319.355 259.888 319.565 260.171 319.521 260.475L319.112 263.261C319.071 263.537 318.833 263.736 318.562 263.736V263.737Z" fill="#142232"/>
<path d="M321.101 265.898C320.986 265.898 320.868 265.862 320.77 265.788C320.524 265.604 320.471 265.255 320.654 265.009C321.892 263.344 322.405 261.132 322.025 259.093C321.969 258.791 322.168 258.501 322.47 258.443C322.772 258.387 323.062 258.586 323.12 258.888C323.557 261.225 322.969 263.762 321.549 265.67C321.441 265.818 321.273 265.894 321.101 265.894V265.898Z" fill="#142232"/>
<path d="M344.678 283.172C344.625 283.172 344.571 283.165 344.516 283.148C340.324 281.884 336.301 279.77 332.882 277.035C332.643 276.844 332.604 276.492 332.796 276.253C332.988 276.014 333.339 275.975 333.579 276.167C336.887 278.813 340.78 280.859 344.839 282.083C345.133 282.171 345.301 282.481 345.211 282.777C345.138 283.018 344.917 283.172 344.678 283.172Z" fill="#142232"/>
<path d="M329.228 304.811C327.394 304.811 325.414 304.161 323.323 302.868C322.349 302.266 321.418 301.579 320.52 300.915C319.518 300.176 318.48 299.411 317.4 298.78C315.86 297.88 314.146 297.205 312.491 296.554C310.793 295.885 309.037 295.193 307.42 294.248C307.155 294.094 307.065 293.753 307.221 293.486C307.376 293.221 307.717 293.132 307.984 293.288C309.527 294.19 311.241 294.865 312.9 295.519C314.595 296.187 316.347 296.878 317.962 297.819C319.095 298.481 320.156 299.263 321.182 300.021C322.062 300.671 322.974 301.343 323.909 301.922C326.27 303.381 328.437 303.944 330.349 303.598C330.651 303.542 330.941 303.744 330.996 304.046C331.05 304.348 330.85 304.638 330.547 304.692C330.118 304.77 329.676 304.809 329.228 304.809V304.811Z" fill="#142232"/>
<path d="M303.514 148.09C303.437 148.09 303.359 148.075 303.285 148.041C303.004 147.914 302.88 147.585 303.006 147.305C304.3 144.446 305.767 141.205 308.301 138.876C309.94 137.368 311.908 136.34 313.812 135.345L325.497 129.239C325.77 129.097 326.106 129.202 326.249 129.475C326.392 129.748 326.286 130.084 326.013 130.227L314.328 136.333C312.489 137.293 310.587 138.287 309.055 139.695C306.688 141.872 305.271 145.002 304.02 147.764C303.926 147.97 303.724 148.092 303.512 148.092L303.514 148.09Z" fill="#142232"/>
<path d="M299.675 158.086C299.452 158.086 299.243 157.954 299.157 157.735C299.043 157.45 299.184 157.126 299.469 157.012C302.385 155.857 304.638 153.443 306.819 151.11C307.522 150.357 308.25 149.578 308.992 148.848C314.345 143.587 321.739 139.731 330.97 137.385C331.269 137.308 331.571 137.49 331.648 137.787C331.724 138.085 331.544 138.387 331.245 138.464C322.208 140.761 314.984 144.52 309.774 149.642C309.048 150.355 308.328 151.125 307.632 151.87C305.369 154.293 303.027 156.799 299.878 158.047C299.81 158.074 299.741 158.086 299.673 158.086H299.675Z" fill="#142232"/>
<path d="M314.998 168.961C314.75 168.961 314.524 168.795 314.459 168.545C314.381 168.249 314.56 167.943 314.858 167.867L333.917 162.894C334.754 162.675 335.619 162.45 336.308 161.976C336.987 161.51 337.397 160.799 337.351 160.166C337.247 158.751 335.22 158.173 334.038 158.054C327.756 157.421 320.834 159.964 313.464 165.609C313.22 165.795 312.87 165.749 312.683 165.505C312.496 165.261 312.542 164.911 312.787 164.725C320.389 158.902 327.576 156.284 334.15 156.946C336.047 157.136 338.315 158.074 338.463 160.085C338.538 161.12 337.955 162.195 336.94 162.892C336.091 163.476 335.085 163.739 334.199 163.97L315.14 168.942C315.093 168.954 315.045 168.961 314.999 168.961H314.998Z" fill="#142232"/>
<path d="M299.126 168.152C298.908 168.152 298.703 168.025 298.613 167.813C297.855 166.028 297.168 164.19 296.567 162.346C296.471 162.054 296.631 161.741 296.923 161.646C297.215 161.551 297.529 161.71 297.625 162.002C298.215 163.814 298.891 165.622 299.637 167.378C299.757 167.662 299.625 167.987 299.341 168.108C299.27 168.138 299.197 168.152 299.124 168.152H299.126Z" fill="#142232"/>
<path d="M304.833 164.532C304.656 164.532 304.483 164.449 304.374 164.293C303.282 162.723 302.029 161.256 300.65 159.929C300.427 159.715 300.421 159.364 300.635 159.142C300.849 158.92 301.2 158.913 301.423 159.127C302.854 160.503 304.155 162.026 305.289 163.657C305.464 163.909 305.403 164.255 305.15 164.432C305.053 164.5 304.943 164.532 304.833 164.532Z" fill="#142232"/>
<path d="M325.031 165.67C324.788 165.67 324.564 165.511 324.494 165.265C323.935 163.288 323.878 161.184 324.324 159.181C324.39 158.881 324.689 158.692 324.988 158.758C325.289 158.825 325.477 159.123 325.411 159.422C325.005 161.247 325.058 163.163 325.566 164.963C325.649 165.258 325.477 165.567 325.18 165.65C325.129 165.663 325.078 165.67 325.029 165.67H325.031Z" fill="#142232"/>
<path d="M332.91 174.996C332.697 174.996 332.494 174.874 332.402 174.669C331.643 172.984 331.317 171.121 331.458 169.278C331.482 168.971 331.75 168.744 332.056 168.766C332.363 168.79 332.592 169.058 332.568 169.363C332.441 171.019 332.735 172.695 333.417 174.21C333.543 174.49 333.417 174.82 333.139 174.947C333.064 174.981 332.986 174.996 332.91 174.996Z" fill="#142232"/>
<path d="M338.105 173.011C338.068 173.011 338.03 173.008 337.995 172.999C337.692 172.938 337.499 172.645 337.56 172.343C337.932 170.512 337.675 168.583 336.836 166.912C336.699 166.637 336.809 166.303 337.084 166.166C337.36 166.028 337.694 166.138 337.832 166.413C338.781 168.305 339.071 170.49 338.65 172.563C338.596 172.828 338.365 173.01 338.105 173.01V173.011Z" fill="#142232"/>
<path d="M359.878 173.903C359.677 173.903 359.482 173.795 359.384 173.605C359.241 173.332 359.348 172.996 359.62 172.853L366.071 169.492C366.344 169.35 366.681 169.455 366.823 169.728C366.966 170.001 366.859 170.337 366.587 170.48L360.136 173.841C360.054 173.883 359.966 173.903 359.879 173.903H359.878Z" fill="#142232"/>
<path d="M335.319 173.223C335.054 173.223 334.82 173.033 334.771 172.763L334.136 169.196C334.081 168.894 334.284 168.603 334.588 168.551C334.89 168.497 335.18 168.698 335.233 169.002L335.868 172.57C335.922 172.872 335.72 173.162 335.416 173.215C335.384 173.22 335.35 173.223 335.318 173.223H335.319Z" fill="#142232"/>
<path d="M310.994 178.439C314.602 179.842 321.58 176.545 319.413 172.051C317.919 168.953 312.199 171.792 309.91 172.699" stroke="#142232" stroke-width="5" stroke-linecap="round" stroke-linejoin="round"/>
<path d="M280.922 184.58C282.7 183.561 284.398 182.404 285.999 181.124C286.646 180.607 287.297 180.045 287.652 179.297C288.154 178.233 287.959 176.922 287.324 175.931C286.689 174.94 285.665 174.245 284.568 173.815" stroke="#142232" stroke-width="5" stroke-linecap="round" stroke-linejoin="round"/>
<path d="M404.403 302.29C404.342 302.29 404.279 302.279 404.218 302.257C400.181 300.842 395.968 300.014 391.695 299.794C391.057 299.76 390.466 299.824 390.033 299.975C389.338 300.215 389.248 300.593 389.219 300.719C389.148 301.017 388.849 301.204 388.549 301.132C388.25 301.061 388.063 300.763 388.134 300.462C388.426 299.227 389.746 298.579 391.753 298.683C396.131 298.908 400.449 299.758 404.586 301.207C404.877 301.309 405.029 301.626 404.928 301.916C404.848 302.145 404.632 302.29 404.401 302.29H404.403Z" fill="#142232"/>
<path d="M395.777 309.975C394.853 309.975 393.968 309.517 393.53 308.745C392.506 306.945 393.136 305.852 393.601 305.36C394.618 304.288 396.561 304.197 397.738 304.782C398.849 305.337 399.258 306.378 398.83 307.569C398.432 308.681 397.602 309.531 396.612 309.846C396.337 309.933 396.055 309.975 395.777 309.975ZM396.089 305.53C395.432 305.53 394.776 305.74 394.41 306.127C393.847 306.719 394.148 307.58 394.498 308.195C394.803 308.735 395.602 308.998 396.274 308.786C396.926 308.579 397.504 307.97 397.78 307.196C398.015 306.541 397.838 306.08 397.239 305.781C396.899 305.612 396.493 305.532 396.087 305.532L396.089 305.53Z" fill="#142232"/>
<path d="M256.092 245.182C255.778 245.756 255.134 246.088 254.468 245.992L247.964 245.05C247.777 245.325 247.582 245.595 247.38 245.858L250.267 251.752C250.603 252.437 250.403 253.265 249.79 253.723L247.119 255.717C247.056 255.764 246.99 255.806 246.92 255.844L243.982 257.42C243.912 257.457 243.839 257.489 243.765 257.517L240.621 258.641C239.901 258.899 239.098 258.608 238.713 257.948L235.359 252.215L234.474 252.172L231.59 258.255C231.263 258.945 230.492 259.305 229.753 259.111L226.528 258.273C226.452 258.253 226.377 258.227 226.304 258.197L223.23 256.884C223.157 256.852 223.086 256.816 223.018 256.774L220.177 255.014C219.527 254.612 219.257 253.803 219.532 253.09L221.969 246.798C221.79 246.596 221.617 246.389 221.449 246.173L214.855 247.726C214.111 247.9 213.347 247.522 213.038 246.825L211.683 243.779C211.651 243.706 211.623 243.632 211.603 243.555L210.717 240.337C210.696 240.261 210.679 240.181 210.671 240.103L210.277 236.786C210.187 236.028 210.65 235.312 211.381 235.083L218.042 232.994C218.056 232.928 218.07 232.864 218.085 232.799C218.109 232.668 218.136 232.538 218.163 232.405L212.661 228.088C212.06 227.616 211.88 226.783 212.233 226.104L213.777 223.14C213.814 223.069 213.856 223.001 213.902 222.937L215.872 220.239C215.92 220.175 215.971 220.115 216.027 220.058L218.374 217.688C218.912 217.145 219.759 217.06 220.393 217.487L226.233 221.418C226.394 221.328 226.555 221.24 226.718 221.155L226.664 214.121C226.659 213.356 227.197 212.696 227.948 212.55L231.229 211.909C231.307 211.894 231.387 211.884 231.467 211.88L234.805 211.738C234.885 211.734 234.963 211.738 235.043 211.744L238.356 212.099C239.115 212.18 239.709 212.79 239.772 213.551L240.328 220.397C240.547 220.487 240.762 220.582 240.976 220.682L246.327 216.357C246.922 215.877 247.776 215.887 248.358 216.383L250.9 218.546C250.96 218.597 251.018 218.653 251.068 218.712L253.257 221.225C253.31 221.284 253.356 221.347 253.398 221.413L255.19 224.221C255.601 224.866 255.496 225.711 254.937 226.233L250.024 230.845C250.094 231.108 250.153 231.374 250.206 231.644L256.829 233.106C257.576 233.271 258.099 233.944 258.075 234.709L257.966 238.043C257.965 238.121 257.956 238.201 257.941 238.277L257.343 241.548C257.33 241.626 257.309 241.703 257.284 241.776L256.204 244.933C256.173 245.021 256.138 245.104 256.093 245.182H256.092ZM244.478 244.39C244.972 243.803 245.417 243.174 245.802 242.522C246.13 241.966 246.762 241.662 247.402 241.755L253.619 242.656L254.234 240.86L254.789 237.821L254.85 235.922L248.518 234.524C247.942 234.397 247.484 233.963 247.327 233.395C247.297 233.284 247.265 233.174 247.231 233.065C247.203 232.981 247.185 232.892 247.173 232.804C247.085 232.149 246.93 231.505 246.714 230.89C246.506 230.297 246.667 229.635 247.125 229.206L251.797 224.82L250.778 223.222L248.745 220.887L247.299 219.657L242.16 223.811C241.645 224.226 240.925 224.281 240.353 223.945C239.725 223.576 239.052 223.28 238.353 223.062C237.733 222.871 237.291 222.319 237.239 221.673L236.707 215.119L234.822 214.917L231.721 215.049L229.853 215.416L229.904 222.138C229.909 222.771 229.536 223.347 228.955 223.604C228.305 223.89 227.663 224.238 227.046 224.637C226.511 224.983 225.822 224.976 225.292 224.622L219.703 220.858L218.367 222.207L216.538 224.711L215.658 226.4L220.929 230.536C221.434 230.931 221.651 231.593 221.48 232.21C221.369 232.609 221.276 233.011 221.203 233.405C221.199 233.423 221.196 233.44 221.193 233.459C221.121 233.776 221.065 234.099 221.024 234.418C220.946 235.033 220.517 235.548 219.922 235.732L213.588 237.719L213.812 239.609L214.636 242.597L215.409 244.331L221.756 242.838C222.408 242.685 223.086 242.955 223.451 243.515C223.881 244.17 224.372 244.762 224.913 245.276C225.38 245.719 225.533 246.401 225.3 247.001L222.974 253.009L224.592 254.011L227.445 255.231L229.281 255.708L232.054 249.858C232.327 249.278 232.925 248.922 233.567 248.951L235.585 249.046C235.719 249.032 235.863 249.015 236.03 248.993C236.665 248.91 237.288 249.214 237.611 249.767L240.795 255.208L242.583 254.568L245.312 253.104L246.832 251.969L244.065 246.321C243.753 245.683 243.902 244.914 244.432 244.439L244.481 244.395L244.478 244.39ZM242.472 240.624C241.781 241.886 240.789 243.018 239.526 243.971C237.661 245.379 235.111 245.948 232.344 245.569C230.042 245.254 227.528 243.647 226.09 241.569C224.672 239.518 224.093 236.83 224.541 234.379C224.981 231.978 226.343 229.855 228.481 228.24C230.346 226.832 232.896 226.264 235.663 226.642C237.965 226.958 240.479 228.564 241.917 230.643C243.335 232.694 243.914 235.381 243.466 237.833C243.286 238.815 242.953 239.75 242.474 240.624H242.472ZM228.322 233.121C228.028 233.658 227.795 234.265 227.669 234.949C227.374 236.565 227.771 238.41 228.705 239.76C229.636 241.106 231.348 242.224 232.774 242.419C233.89 242.571 236.001 242.646 237.605 241.435C238.645 240.649 239.962 239.287 240.334 237.261C240.63 235.644 240.232 233.8 239.298 232.45C238.368 231.104 236.656 229.986 235.23 229.791C234.114 229.638 232.003 229.564 230.398 230.775C229.709 231.296 228.899 232.07 228.322 233.121Z" fill="#018BCE"/>
<path d="M197.301 232.909L199.746 222.891L195.783 221.091L191.582 219.896L187.248 219.345L184.016 229.343C182.975 229.443 181.936 229.628 180.898 229.897L174.461 221.574L170.575 223.551L167.023 226.087L163.89 229.131L169.679 237.861C169.351 238.35 169.04 238.857 168.75 239.381C168.497 239.806 168.266 240.235 168.057 240.669L157.659 240.505L156.783 244.782L156.559 249.138L156.987 253.473L167.189 254.379C167.495 255.526 167.916 256.603 168.454 257.61L162 265.436L164.8 268.787L168.072 271.678L171.727 274.043L178.762 266.681C179.63 267.015 180.499 267.348 181.367 267.682C181.63 267.743 181.894 267.796 182.157 267.847L184.225 277.588L188.588 277.485L192.881 276.735L197.014 275.359L195.674 265.512C195.744 265.482 195.813 265.451 195.885 265.421C196.899 264.806 197.838 264.119 198.702 263.363L207.585 267.804L210.222 264.331L212.31 260.519L213.814 256.427L205.052 251.208C205.06 251.035 205.067 250.862 205.07 250.687C205.259 249.69 205.342 248.694 205.323 247.701L214.485 243.457L213.418 239.237L211.737 235.221L209.474 231.496L199.775 235.145C199.04 234.307 198.215 233.56 197.301 232.907V232.909ZM195.404 246.051C196.16 248.629 195.83 251.668 194.538 254.025C193.173 256.515 190.919 258.158 188.282 259.052C185.635 259.949 182.738 259.381 180.301 258.186C177.952 257.036 175.991 254.403 175.269 251.936C174.513 249.357 174.843 246.319 176.135 243.962C177.5 241.472 179.754 239.829 182.391 238.935C185.039 238.038 187.936 238.606 190.373 239.8C192.721 240.951 194.683 243.584 195.404 246.051Z" fill="#018BCE"/>
<path d="M233.881 222.644L233.244 214.778L229.931 214.424L226.591 214.566L223.31 215.208L223.371 223.248C222.639 223.57 221.927 223.955 221.24 224.401L214.557 219.904L212.21 222.274L210.241 224.972L208.697 227.935L215.006 232.884C214.885 233.319 214.781 233.762 214.697 234.213C214.615 234.581 214.55 234.949 214.505 235.316L206.912 237.698L207.306 241.014L208.193 244.233L209.548 247.278L217.178 245.483C217.675 246.243 218.241 246.924 218.874 247.526L216.07 254.764L218.911 256.523L221.985 257.836L225.21 258.674L228.547 251.635C229.258 251.669 229.968 251.703 230.68 251.735C230.885 251.716 231.091 251.691 231.293 251.666L235.142 258.245L238.286 257.122L241.224 255.546L243.895 253.552L240.549 246.722C240.594 246.683 240.636 246.644 240.68 246.605C241.27 245.916 241.786 245.19 242.231 244.433L249.754 245.522L250.834 242.365L251.431 239.094L251.538 235.76L243.917 234.077C243.881 233.95 243.844 233.823 243.805 233.695C243.701 232.925 243.521 232.182 243.27 231.466L248.903 226.179L247.111 223.37L244.922 220.857L242.38 218.694L236.214 223.677C235.479 223.244 234.699 222.902 233.877 222.647L233.881 222.644ZM235.667 232.647C236.837 234.338 237.33 236.625 236.96 238.648C236.569 240.785 235.326 242.519 233.626 243.804C231.919 245.093 229.678 245.376 227.62 245.095C225.636 244.823 223.578 243.383 222.459 241.764C221.289 240.073 220.796 237.786 221.167 235.763C221.557 233.626 222.8 231.892 224.5 230.608C226.207 229.318 228.448 229.035 230.506 229.316C232.49 229.588 234.548 231.028 235.667 232.647Z" fill="#272525"/>
<path d="M277.026 224.789C280.57 230.181 287.179 233.72 293.549 232.675C301.532 231.365 307.048 223.49 308.534 215.545C308.894 213.621 309.074 211.643 308.785 209.708C307.722 202.573 300.427 197.731 293.255 196.894C286.953 196.161 277.863 198.365 274.572 204.475C271.51 210.16 273.696 219.722 277.026 224.789Z" fill="#B0D5D1"/>
<path d="M310.532 219.256C310.299 220.363 309.426 221.241 308.295 221.467L285.277 226.061C283.729 226.37 282.223 225.368 281.914 223.822C281.605 222.276 282.609 220.772 284.156 220.463L298.592 217.58C290.826 213.532 283.65 208.409 277.176 202.284C276.03 201.2 275.981 199.393 277.066 198.248C278.151 197.102 279.96 197.053 281.106 198.137C289.247 205.842 298.568 211.859 308.81 216.021C309.978 216.496 310.696 217.68 310.578 218.936C310.567 219.044 310.55 219.151 310.528 219.255L310.532 219.256Z" fill="#272525"/>
<path d="M306.831 223.953C306.162 225.676 305.42 227.293 304.272 228.759C303.14 230.206 301.774 231.448 300.224 232.434C296.724 234.656 292.521 235.181 288.455 234.701C286.03 234.414 283.628 233.688 281.751 232.073C281.384 231.757 280.899 232.295 281.247 232.627C282.904 234.212 285.037 235.167 287.25 235.688C289.595 236.239 292.09 236.399 294.482 236.114C298.549 235.629 302.336 233.543 305.052 230.496C306.553 228.813 307.869 226.723 308.448 224.526C308.693 223.6 307.186 223.033 306.83 223.951L306.831 223.953Z" fill="#018BCE"/>
<path d="M97.32 288.099L43.7037 273.754C40.3192 272.848 38.312 269.373 39.2171 265.994L48.6352 230.857C49.542 227.476 53.0198 225.471 56.4026 226.375L110.019 240.72C113.403 241.626 115.411 245.1 114.505 248.48L105.087 283.616C104.181 286.998 100.703 289.003 97.32 288.099Z" fill="#A0D2F4"/>
<path d="M71.4134 245.396L66.5549 263.524C66.1745 264.944 67.4855 266.238 68.9018 265.841L86.6341 260.872C88.0232 260.484 88.4868 258.75 87.4798 257.72L74.6059 244.563C73.5768 243.511 71.7938 243.978 71.4134 245.398V245.396Z" fill="#272525"/>
<path d="M63.9453 221.822C60.9548 221.515 57.9286 221.046 54.9195 221.002C52.6592 220.97 50.2156 221.255 48.3051 222.565C45.8971 224.214 45.0395 226.983 44.1344 229.613C43.0272 232.831 41.9557 236.06 40.8722 239.285C40.2745 241.064 43.1546 241.853 43.7048 240.043C44.5912 237.128 45.4929 234.219 46.3607 231.299C47.0536 228.968 47.5121 225.931 49.6687 224.453C51.4094 223.261 53.656 223.172 55.6939 223.203C58.4483 223.244 61.2078 223.49 63.9588 223.644C65.1459 223.71 65.0898 221.941 63.9453 221.822Z" fill="#018BCE"/>
<path d="M111.828 277.842C111.932 277.036 110.527 276.847 110.395 277.658C109.862 280.909 108.845 284.063 107.301 286.978C106.053 289.334 104.448 292.436 101.587 293.019C100.23 293.296 98.7864 293.107 97.4346 292.902C95.8587 292.663 94.2913 292.375 92.7273 292.076C91.0478 291.755 89.3768 291.394 87.7143 290.992C86.0671 290.593 84.4147 289.976 82.7471 289.701C80.9658 289.407 80.3595 291.733 82.0271 292.386C83.3806 292.917 84.9259 293.147 86.3456 293.454C87.7415 293.756 89.1424 294.029 90.5485 294.273C93.2707 294.748 96.0574 295.193 98.822 295.31C101.199 295.411 103.555 294.938 105.323 293.25C107.157 291.497 108.408 289 109.405 286.705C110.638 283.866 111.433 280.906 111.827 277.84L111.828 277.842Z" fill="#018BCE"/>
<path d="M292.714 38.2578L242.601 59.5228C240.025 60.6154 238.824 63.5878 239.918 66.1615L254.132 99.5979C255.225 102.172 258.201 103.371 260.777 102.278L282.5 93.0609C288.459 98.5918 298.439 104.308 306.564 104.308C307.021 104.308 307.222 103.729 306.86 103.449C304.201 101.384 297.52 95.4565 296.268 87.2196L310.891 81.0151C313.468 79.9225 314.668 76.9501 313.575 74.3764L299.361 40.9401C298.267 38.3664 295.292 37.1669 292.716 38.2595L292.714 38.2578Z" fill="#5DB5E4"/>
<path d="M301.323 104.998C301.194 105.052 301.055 105.088 300.911 105.1C296.844 105.451 291.936 104.325 286.719 101.843C282.599 99.883 278.403 97.1057 275.073 94.1485L254.15 103.027C250.889 104.409 247.109 102.886 245.725 99.6285L231.512 66.1922C230.126 62.9347 231.653 59.1582 234.913 57.7754L285.026 36.5104C288.287 35.1277 292.067 36.6513 293.451 39.9087L307.664 73.345C309.048 76.6024 307.523 80.379 304.263 81.7618L290.64 87.542C292.585 96.5696 301.452 102.559 301.544 102.62C302.025 102.939 302.251 103.527 302.108 104.084C302.001 104.501 301.705 104.834 301.323 104.996V104.998ZM235.973 60.2728C234.089 61.0719 233.208 63.2537 234.008 65.1352L248.222 98.5715C249.021 100.453 251.205 101.334 253.089 100.534L274.812 91.3169C275.304 91.1082 275.873 91.2083 276.265 91.5714C282.961 97.7877 290.858 101.308 296.716 102.212C293.452 99.2298 288.827 93.8974 287.769 86.9245C287.675 86.312 288.01 85.7148 288.58 85.4739L303.203 79.2695C305.087 78.4704 305.968 76.2886 305.168 74.4071L290.954 40.9708C290.155 39.0892 287.971 38.2087 286.087 39.0078L235.974 60.2728H235.973Z" fill="#2F2F2F"/>
<path d="M285.561 51.1855C282.849 52.3375 280.001 53.2062 277.217 54.1749C275.874 54.6432 274.516 55.0826 273.193 55.6102C271.856 56.1447 270.693 56.8776 269.472 57.6224C268.333 58.3197 267.185 58.5199 265.87 58.6064C264.717 58.6827 263.539 58.7336 262.452 59.1731C261.299 59.6379 260.482 60.5337 259.682 61.4465C258.864 62.3813 258.032 63.043 256.86 63.4807C254.469 64.3748 251.738 64.4732 249.977 66.5532C249.347 67.298 250.56 68.1921 251.191 67.4575C252.66 65.7473 255.287 65.6981 257.296 65.0466C258.383 64.6937 259.373 64.1407 260.185 63.3297C260.98 62.5374 261.638 61.516 262.625 60.9443C263.629 60.3624 264.858 60.359 265.984 60.2928C267.139 60.2249 268.297 60.1079 269.363 59.6261C270.6 59.0662 271.663 58.1992 272.902 57.6393C274.196 57.054 275.558 56.6299 276.9 56.1752C279.946 55.1437 282.984 53.9578 286.09 53.1281C287.539 52.7413 286.9 50.6155 285.557 51.1838L285.561 51.1855Z" fill="#018BCE"/>
<path d="M287.675 59.6302C286.275 59.7845 285.154 60.4445 284.032 61.2555C282.94 62.0444 281.882 62.7129 280.605 63.1692C278.051 64.0837 275.32 64.4128 272.984 65.8804C271.8 66.6235 270.774 67.6397 269.504 68.242C268.382 68.7748 267.145 68.7917 265.928 68.8799C264.736 68.9665 263.538 69.148 262.503 69.7791C261.45 70.4187 260.815 71.4604 259.937 72.2918C257.968 74.1546 254.781 73.1112 252.782 75.0114C252.083 75.6782 252.991 76.8692 253.732 76.2058C254.601 75.4271 255.732 75.31 256.846 75.1743C257.948 75.0402 259.089 74.8977 260.076 74.3531C261.134 73.7678 261.793 72.8058 262.623 71.9643C263.464 71.111 264.459 70.831 265.624 70.7258C266.829 70.6156 268.039 70.6342 269.215 70.3102C270.491 69.959 271.574 69.2023 272.627 68.427C273.733 67.6126 274.823 66.9323 276.127 66.4776C277.345 66.0534 278.611 65.7854 279.854 65.4444C281.272 65.0558 282.639 64.5825 283.884 63.7834C284.974 63.0827 286.265 61.5931 287.681 61.7187C289.21 61.8544 289.203 59.4571 287.676 59.6268L287.675 59.6302Z" fill="#018BCE"/>
<path d="M283.933 74.6289C282.186 74.8409 280.627 75.2651 279.146 76.2423C278.477 76.6834 277.886 77.5266 277.039 77.5623C276.274 77.5962 275.558 77.4248 274.799 77.6166C273.452 77.9559 272.428 78.911 271.447 79.8374C270.525 80.7077 269.551 81.7562 268.22 81.8784C267.308 81.9615 267.539 83.2577 268.403 83.2509C269.754 83.2424 270.932 82.501 271.914 81.6341C272.843 80.8129 273.771 79.6949 274.994 79.3131C275.67 79.1028 276.351 79.2741 277.042 79.269C277.954 79.2639 278.621 78.889 279.306 78.3156C280.571 77.2552 282.249 76.4748 283.937 76.6936C285.429 76.8887 285.457 74.4422 283.932 74.6272L283.933 74.6289Z" fill="#018BCE"/>
<path d="M138.962 221.646C131.361 224.975 122.917 225.146 115.186 222.131C107.455 219.115 101.362 213.271 98.0307 205.678C94.6988 198.084 94.5273 189.648 97.545 181.924C100.564 174.201 106.413 168.113 114.014 164.785C121.615 161.456 130.058 161.285 137.79 164.301C145.52 167.318 151.613 173.161 154.945 180.755C158.277 188.349 158.448 196.784 155.429 204.509C152.409 212.231 146.561 218.319 138.96 221.648L138.962 221.646ZM115.133 167.331C100.848 173.587 94.3201 190.288 100.581 204.56C106.842 218.831 123.559 225.353 137.844 219.098C152.129 212.842 158.657 196.141 152.396 181.869C146.135 167.598 129.418 161.074 115.133 167.331Z" fill="#018BCE"/>
<path d="M151.146 215.714C162.736 204.134 162.736 185.36 151.146 173.78C139.556 162.201 120.764 162.201 109.174 173.78C97.5833 185.36 97.5833 204.134 109.174 215.714C120.764 227.293 139.556 227.293 151.146 215.714Z" fill="#272525"/>
<path d="M136.703 190.301C134.166 189.605 131.343 189.828 128.73 190.92C128.694 190.934 128.657 190.946 128.621 190.961C126.329 191.965 123.781 191.422 123.06 189.777C122.338 188.131 123.664 185.891 125.957 184.889C127.587 184.175 129.402 184.217 130.584 184.996C131.617 185.676 133.004 185.391 133.685 184.359C134.366 183.328 134.081 181.942 133.048 181.261C131.133 179.999 128.636 179.614 126.193 180.135L124.783 176.92C124.287 175.788 122.968 175.274 121.835 175.77C120.703 176.265 120.188 177.583 120.684 178.715L122.114 181.974C120.915 182.858 119.94 183.976 119.283 185.247C118.218 187.306 118.101 189.612 118.96 191.57C119.82 193.529 121.596 195.004 123.834 195.618C125.865 196.176 128.12 196.005 130.207 195.143C130.245 195.129 130.28 195.118 130.318 195.101C132.053 194.34 133.901 194.166 135.521 194.61C136.969 195.007 138.046 195.862 138.554 197.018C139.06 198.173 138.96 199.544 138.27 200.877C137.499 202.369 136.12 203.607 134.385 204.367C132.649 205.127 130.802 205.302 129.182 204.858C127.733 204.461 126.656 203.606 126.149 202.45C125.653 201.319 124.333 200.804 123.201 201.3C122.068 201.795 121.553 203.114 122.049 204.245C123.109 206.659 125.22 208.409 127.996 209.17C129.924 209.7 132.016 209.698 134.055 209.189L135.539 212.574C136.035 213.705 137.355 214.219 138.487 213.724C139.62 213.229 140.135 211.91 139.639 210.779L138.155 207.394C139.912 206.24 141.33 204.705 142.247 202.93C143.568 200.375 143.711 197.639 142.653 195.224C141.593 192.81 139.483 191.061 136.706 190.299L136.703 190.301Z" fill="#F3E5CC"/>
<path d="M115.075 176.05C114.922 178.253 115.29 180.44 116.197 182.444C114.161 183.789 113.151 186.472 113.023 188.827C112.881 191.497 113.728 194.186 115.484 196.217C116.381 197.254 118.065 195.878 117.135 194.877C115.706 193.34 114.901 191.329 114.895 189.225C114.888 187.183 115.638 184.509 117.635 183.562C118.016 183.382 118.296 182.861 118.069 182.456C116.992 180.542 116.408 178.413 116.46 176.211C116.481 175.327 115.136 175.142 115.073 176.05H115.075Z" fill="#018BCE"/>
<path d="M146.873 191.964C146.44 191.037 145.019 191.657 145.414 192.602C146.52 195.24 147.045 198.185 146.379 201.01C146.099 202.199 145.586 203.355 144.891 204.361C144.552 204.853 144.173 205.319 143.735 205.728C143.239 206.193 142.606 206.531 142.181 207.06C141.641 207.734 142.302 209.021 143.212 208.767C144.62 208.377 145.812 206.902 146.584 205.72C147.415 204.451 147.97 203.049 148.286 201.568C148.974 198.334 148.252 194.916 146.87 191.962L146.873 191.964Z" fill="#018BCE"/>
<path d="M224.774 181.831C217.173 185.16 208.73 185.331 200.998 182.317C193.268 179.3 187.175 173.457 183.843 165.863C180.511 158.269 180.34 149.834 183.357 142.109C186.377 134.386 192.225 128.299 199.826 124.97C207.427 121.642 215.871 121.47 223.602 124.487C231.332 127.503 237.426 133.346 240.757 140.94C244.089 148.534 244.261 156.97 241.241 164.694C238.222 172.417 232.373 178.504 224.772 181.833L224.774 181.831ZM200.945 127.517C186.66 133.772 180.133 150.473 186.394 164.745C192.655 179.017 209.372 185.538 223.657 179.283C237.942 173.028 244.47 156.327 238.208 142.055C231.947 127.783 215.23 121.26 200.945 127.517Z" fill="#018BCE"/>
<path d="M236.958 175.899C248.549 164.32 248.549 145.546 236.958 133.966C225.368 122.387 206.576 122.387 194.986 133.966C183.396 145.546 183.396 164.32 194.986 175.899C206.577 187.479 225.368 187.479 236.958 175.899Z" fill="#272525"/>
<path d="M222.515 150.486C219.978 149.791 217.156 150.013 214.542 151.106C214.507 151.119 214.469 151.131 214.434 151.146C212.141 152.151 209.594 151.608 208.872 149.962C208.15 148.317 209.477 146.077 211.769 145.074C213.399 144.36 215.215 144.402 216.397 145.181C217.429 145.862 218.817 145.577 219.498 144.545C220.179 143.513 219.893 142.127 218.861 141.447C216.945 140.185 214.449 139.8 212.005 140.321L210.596 137.105C210.1 135.974 208.78 135.46 207.648 135.955C206.515 136.451 206.001 137.769 206.496 138.9L207.926 142.16C206.727 143.044 205.753 144.162 205.095 145.432C204.031 147.492 203.913 149.798 204.773 151.755C205.632 153.715 207.408 155.189 209.646 155.804C211.677 156.362 213.933 156.19 216.02 155.328C216.057 155.315 216.093 155.303 216.13 155.286C217.866 154.526 219.713 154.351 221.333 154.796C222.782 155.193 223.858 156.048 224.366 157.203C224.872 158.359 224.772 159.729 224.083 161.063C223.312 162.554 221.933 163.793 220.197 164.553C218.462 165.313 216.614 165.488 214.994 165.043C213.545 164.646 212.469 163.791 211.961 162.636C211.465 161.504 210.146 160.99 209.013 161.485C207.88 161.981 207.366 163.299 207.862 164.431C208.921 166.845 211.032 168.594 213.809 169.356C215.736 169.885 217.828 169.884 219.868 169.375L221.352 172.759C221.848 173.891 223.167 174.405 224.3 173.91C225.433 173.414 225.947 172.096 225.451 170.964L223.967 167.58C225.725 166.426 227.143 164.89 228.06 163.116C229.381 160.561 229.524 157.824 228.466 155.41C227.406 152.996 225.295 151.247 222.519 150.485L222.515 150.486Z" fill="#F3E5CC"/>
<path d="M200.887 136.235C200.734 138.439 201.103 140.626 202.01 142.63C199.974 143.975 198.963 146.657 198.836 149.012C198.693 151.683 199.54 154.372 201.296 156.402C202.193 157.439 203.878 156.063 202.947 155.062C201.519 153.525 200.714 151.515 200.707 149.411C200.7 147.368 201.451 144.694 203.448 143.748C203.828 143.568 204.109 143.047 203.881 142.641C202.804 140.728 202.22 138.599 202.273 136.396C202.293 135.512 200.948 135.328 200.885 136.235H200.887Z" fill="#018BCE"/>
<path d="M232.686 152.149C232.253 151.223 230.831 151.842 231.227 152.787C232.332 155.425 232.857 158.371 232.191 161.196C231.911 162.385 231.398 163.54 230.704 164.546C230.364 165.038 229.986 165.505 229.547 165.914C229.052 166.379 228.418 166.716 227.994 167.246C227.454 167.919 228.114 169.207 229.024 168.952C230.432 168.562 231.624 167.088 232.397 165.905C233.227 164.636 233.783 163.235 234.099 161.754C234.786 158.52 234.065 155.101 232.682 152.148L232.686 152.149Z" fill="#018BCE"/>
<path d="M80.6667 342.821L127.79 328.911C131.146 327.92 134.678 329.839 135.669 333.193L144.687 363.684C145.678 367.037 143.757 370.565 140.401 371.556L93.2782 385.466C89.9217 386.457 86.39 384.538 85.3983 381.184L76.3812 350.693C75.3895 347.34 77.3102 343.811 80.6667 342.821Z" fill="#018BCE"/>
<path d="M136.928 317.657L133.586 308C133.227 308.195 126.684 315.989 126.684 315.989L129.935 316.519L122.544 351.516L111.644 342.425L107.223 368.461L97.1685 361.342L93.373 385.478L97.5098 384.258L100.042 368.149L110.027 375.219L114.351 349.755L125.018 358.652L133.783 317.145L136.926 317.657H136.928Z" fill="#B0D5D1"/>
<path d="M121.715 325.096C121.216 326.479 120.921 327.94 120.52 329.356C120.117 330.775 119.688 332.185 119.231 333.586C118.417 336.08 117.514 338.543 116.526 340.975C115.313 340.184 114.316 339.081 113.021 338.404C111.412 337.564 109.456 337.396 108.023 338.669C106.646 339.892 106.262 341.993 105.739 343.67C105.07 345.817 104.411 347.966 103.759 350.117C103.114 352.247 102.467 354.374 101.821 356.503C100.306 355.83 98.6983 355.284 97.0731 355.019C96.1884 354.875 95.2425 354.876 94.4851 355.421C93.7294 355.966 93.4543 356.919 93.152 357.752C91.7052 361.742 90.6846 365.865 90.0648 370.063C89.9459 370.867 91.1686 371.184 91.3061 370.368C91.9175 366.736 92.8328 363.156 94.0317 359.674C94.317 358.846 94.5751 357.971 94.964 357.185C95.3953 356.313 96.1782 356.427 97.0001 356.648C98.7119 357.104 100.369 357.798 101.952 358.587C102.502 358.862 103.103 358.577 103.282 358.002C104.824 353.003 106.372 348.009 107.877 342.999C108.154 342.079 108.383 341.058 108.969 340.274C109.58 339.454 110.485 339.359 111.412 339.665C113.404 340.323 114.639 342.306 116.543 343.167C116.979 343.363 117.626 343.285 117.84 342.783C119.032 339.996 120.122 337.162 121.094 334.292C121.568 332.895 122.012 331.489 122.43 330.074C122.867 328.595 123.371 327.088 123.583 325.558C123.755 324.326 122.136 323.929 121.715 325.098V325.096Z" fill="#171717"/>
<path d="M144.293 351.736C144.843 354.617 145.648 357.462 146.334 360.314C146.684 361.763 147.032 363.212 147.382 364.662C147.698 365.974 148.187 367.355 148.285 368.703C148.375 369.923 147.733 370.712 146.721 371.303C145.599 371.957 144.327 372.38 143.123 372.857C140.387 373.944 137.628 374.974 134.848 375.944C131.704 377.042 128.554 378.118 125.372 379.1C124.684 379.312 124.995 380.369 125.689 380.174C131.776 378.464 137.752 376.445 143.631 374.124C145.687 373.311 148.691 372.548 149.516 370.21C149.973 368.916 149.549 367.518 149.258 366.235C148.919 364.739 148.581 363.242 148.241 361.746C147.451 358.263 146.799 354.718 145.845 351.276C145.561 350.255 144.101 350.731 144.291 351.734L144.293 351.736Z" fill="#018BCE"/>
<path d="M45.7072 184.039C42.2514 186.156 37.6902 185.065 35.5708 181.613L29.5016 171.73C29.0159 170.94 29.2672 169.898 30.0569 169.413L39.7466 163.473C40.538 162.988 41.5807 163.239 42.0663 164.028L48.1356 173.91C50.2549 177.363 49.163 181.92 45.7072 184.037V184.039Z" fill="#272525"/>
<path d="M20.3146 143.136C13.1805 147.654 10.9356 157.131 15.2863 164.366C17.7011 168.381 21.6306 170.916 25.8998 171.69C28.4301 172.148 30.6615 173.62 32.0065 175.811L32.0302 175.85L44.595 168.147L44.5712 168.108C43.2365 165.935 42.9053 163.297 43.644 160.855C44.8939 156.733 44.4405 152.116 42.0087 148.156C37.4542 140.739 27.6965 138.462 20.3146 143.136Z" fill="#018BCE"/>
<path d="M33.173 150.233C31.8925 149.932 30.6376 150.653 29.9244 151.685C29.8072 151.853 29.7121 152.028 29.6289 152.208C28.7798 151.85 27.8832 151.804 27.0103 152.306C26.2427 152.747 25.7757 153.524 25.5176 154.369C25.0285 154.172 24.4953 154.104 23.9145 154.254C22.736 154.556 21.8275 155.608 21.5286 156.761C21.1431 158.258 21.7511 159.795 22.3947 161.123C23.1249 162.631 24.0028 164.072 24.9963 165.421C27.0748 168.247 29.6085 170.634 32.582 172.499C33.2664 172.928 33.7894 171.862 33.1628 171.415C29.4794 168.785 26.3837 165.309 24.3051 161.288C23.6174 159.956 22.2707 157.509 23.8126 156.269C24.3595 155.828 24.8349 155.994 25.2578 156.344C25.2917 157.548 25.6976 158.787 26.4125 159.747C26.7946 160.261 27.248 160.687 27.8967 160.823C28.6354 160.979 29.3775 160.553 29.5491 159.807C29.7087 159.113 29.2807 158.478 28.9326 157.917C28.4741 157.175 27.9511 156.473 27.3754 155.816C27.3414 155.779 27.3075 155.74 27.2735 155.703C27.3363 154.981 27.5588 154.152 28.1752 153.996C28.5268 153.906 28.9072 154.059 29.2706 154.31C29.2909 154.717 29.3504 155.124 29.4336 155.524C29.707 156.827 30.1247 158.746 31.6497 159.075C32.2763 159.211 32.9675 159.046 33.4243 158.582C34.0051 157.99 33.9168 157.143 33.5958 156.456C33.1713 155.548 32.3782 154.355 31.3984 153.421C31.5393 152.871 32.0759 152.082 32.7229 152.274C33.0863 152.381 33.3139 152.793 33.4905 153.095C33.8166 153.658 34.0866 154.262 34.3515 154.854C34.866 156.001 35.3109 157.182 35.6998 158.376C36.5948 161.12 37.1654 163.953 37.398 166.829C37.5169 168.306 39.8417 168.254 39.7041 166.78C39.4069 163.598 38.7514 160.455 37.6952 157.438C37.1772 155.96 36.5676 154.513 35.8781 153.107C35.2923 151.909 34.5875 150.56 33.173 150.228V150.233ZM28.2092 158.86C28.2075 158.851 28.199 158.84 28.1905 158.826C28.5726 158.621 28.2517 159.03 28.2092 158.86Z" fill="white"/>
<path d="M44.6236 171.872C43.7915 172.134 43.0936 172.844 42.3566 173.303C41.6145 173.768 40.8707 174.233 40.1269 174.696C38.6019 175.646 37.099 176.619 35.5979 177.606C35.0901 177.94 35.5639 178.712 36.092 178.41C37.6526 177.519 39.2014 176.622 40.7399 175.694C41.4905 175.241 42.2411 174.791 42.9934 174.34C43.7372 173.894 44.6882 173.592 45.2978 172.971C45.758 172.503 45.2503 171.675 44.6236 171.872Z" fill="white"/>
<path d="M47.1184 175.332C45.4338 175.953 43.9207 177.083 42.3856 178.008C40.7927 178.967 39.1981 179.917 37.629 180.916C36.9735 181.333 37.59 182.339 38.2607 181.944C39.8621 180.999 41.4312 180.01 43.0105 179.024C44.5304 178.076 46.2234 177.239 47.5412 176.021C47.8401 175.745 47.5005 175.193 47.1201 175.334L47.1184 175.332Z" fill="white"/>
<path d="M19.6448 148.294C18.9842 147.82 18.1403 148.188 17.9127 148.933C17.7599 149.437 17.3098 149.949 17.0585 150.419C16.7783 150.944 16.5491 151.49 16.3487 152.048C15.9411 153.178 15.7238 154.371 15.6643 155.568C15.5438 157.947 16.2094 160.358 17.5187 162.348C17.9501 163.003 18.9418 162.396 18.558 161.712C17.5136 159.854 17.1417 157.74 17.3014 155.626C17.3778 154.623 17.6104 153.606 17.9772 152.667C18.2829 151.887 18.794 150.55 19.5854 150.146C20.3071 149.776 20.2443 148.723 19.6465 148.295L19.6448 148.294Z" fill="white"/>
<path d="M46.9648 178.987C46.0596 179.34 45.2513 179.912 44.4345 180.434C43.5939 180.972 42.7567 181.513 41.9178 182.055C41.2267 182.499 41.8754 183.559 42.5869 183.144C43.4479 182.642 44.3122 182.141 45.1715 181.636C46.007 181.145 46.8833 180.684 47.6084 180.037C48.0703 179.625 47.5421 178.762 46.9631 178.987H46.9648Z" fill="white"/>
<path d="M10.1206 149.87C8.66017 149.168 7.1454 148.591 5.60177 148.094C4.86646 147.858 4.12606 147.641 3.37886 147.444C2.64355 147.251 1.71296 146.899 0.974252 147.195C0.442724 147.408 0.240642 148.031 0.670279 148.464C1.18482 148.981 1.96938 149.054 2.65714 149.217C3.40773 149.393 4.15492 149.592 4.89533 149.809C6.39651 150.25 7.86882 150.788 9.32755 151.353C10.3074 151.733 11.1259 150.352 10.1223 149.868L10.1206 149.87Z" fill="#018BCE"/>
<path d="M15.2539 143.525C14.286 142.295 13.2059 141.24 11.9323 140.325C10.8149 139.523 9.27296 138.33 7.82951 138.452C7.101 138.513 6.80382 139.327 7.29289 139.855C7.79555 140.398 8.47821 140.627 9.13031 140.944C9.70939 141.226 10.2715 141.54 10.8149 141.884C11.9832 142.627 13.0548 143.542 14.0312 144.522C14.6494 145.143 15.8177 144.241 15.2539 143.525Z" fill="#018BCE"/>
<path d="M17.5962 129.031C17.2023 129.753 17.3432 130.654 17.4111 131.448C17.4825 132.288 17.5962 133.13 17.761 133.956C18.0904 135.615 18.6831 137.212 19.3912 138.744C19.7818 139.59 21.2473 138.949 20.9043 138.077C20.3286 136.613 19.921 135.108 19.6544 133.557C19.5237 132.797 19.4354 132.034 19.3912 131.265C19.3454 130.478 19.4473 129.708 19.0821 128.988C18.7799 128.391 17.8866 128.498 17.5962 129.032V129.031Z" fill="#018BCE"/>
<path d="M36.2419 127.638C34.7407 128.296 33.9154 130.013 33.2293 131.428C32.5025 132.925 31.9862 134.521 31.6687 136.153C31.4445 137.3 33.1495 137.717 33.4399 136.577C33.8101 135.118 34.3501 133.736 35.0684 132.411C35.4114 131.778 35.7884 131.16 36.2079 130.577C36.6613 129.944 37.1028 129.408 37.2862 128.634C37.417 128.084 36.8413 127.377 36.2436 127.638H36.2419Z" fill="#018BCE"/>
<path d="M8.4121 158.289C6.79374 157.985 5.28237 158.457 3.83723 159.193C2.39039 159.931 0.685426 161.18 0.0723871 162.747C-0.308003 163.721 0.896 164.865 1.69923 163.911C2.18321 163.338 2.53134 162.668 3.00852 162.089C3.47552 161.522 4.00535 160.969 4.56914 160.498C5.69333 159.556 7.10791 158.942 8.4138 158.302C8.42059 158.299 8.41719 158.289 8.4121 158.287V158.289Z" fill="#018BCE"/>
<path d="M11.529 168.45C10.4353 169.603 9.46058 170.906 8.73716 172.325C8.10884 173.556 7.14937 175.368 7.5909 176.771C7.74543 177.265 8.39583 177.448 8.75924 177.051C9.22963 176.537 9.37397 175.937 9.59304 175.294C9.83248 174.59 10.0991 173.896 10.4183 173.224C11.0433 171.909 11.799 170.691 12.738 169.578C13.419 168.77 12.2677 167.671 11.529 168.45Z" fill="#018BCE"/>
<path d="M21.2606 173.695C20.7919 175.591 20.2519 177.467 19.6321 179.32C19.3366 180.2 19.0173 181.071 18.7032 181.944C18.3584 182.903 17.9033 183.839 17.7131 184.84C17.5178 185.867 18.8203 186.315 19.3739 185.471C19.9004 184.667 20.1823 183.727 20.5066 182.825C20.8547 181.863 21.1621 180.887 21.4508 179.905C22.0163 177.986 22.4952 176.045 22.8993 174.087C23.1184 173.029 21.5221 172.64 21.2606 173.695Z" fill="#018BCE"/>
<path d="M49.666 133.629C48.2684 134.204 47.0899 135.319 45.8944 136.228C44.6547 137.173 43.415 138.116 42.1771 139.061C41.2855 139.74 42.155 141.235 43.106 140.573C44.3796 139.686 45.6532 138.797 46.9285 137.909C48.141 137.064 49.6354 136.274 50.5932 135.135C51.1213 134.509 50.5694 133.256 49.6677 133.627L49.666 133.629Z" fill="#018BCE"/>
<path d="M54.8936 144.461C52.6707 145.967 50.154 146.795 47.4624 146.846C46.2839 146.868 46.3331 148.645 47.5015 148.665C50.5055 148.718 53.4739 147.89 56.0042 146.269C57.1556 145.531 56.0246 143.694 54.8936 144.461Z" fill="#018BCE"/>
<path d="M57.2212 158.468C55.7489 158.616 54.3394 158.918 52.8484 158.864C51.3744 158.809 49.9293 158.49 48.5436 157.99C47.5977 157.647 46.9728 159.259 47.9118 159.649C49.4317 160.28 50.994 160.687 52.6327 160.847C54.2188 161.001 56.0155 161.018 57.5235 160.447C58.5186 160.068 58.4371 158.348 57.2212 158.47V158.468Z" fill="#018BCE"/>
<path d="M88.4196 59.3046L79.5547 56.666L69.8351 89.26L78.7 91.8986L88.4196 59.3046Z" fill="#018BCE"/>
<path d="M105.742 51.7021L96.877 49.0635L83.6625 93.3774L92.5274 96.016L105.742 51.7021Z" fill="#99B9FF"/>
<path d="M117.832 61.6503L108.967 59.0117L97.3601 97.934L106.225 100.573L117.832 61.6503Z" fill="#018BCE"/>
<path d="M137.117 49.4101L128.252 46.7715L111.721 102.207L120.586 104.846L137.117 49.4101Z" fill="#018BCE"/>
<path d="M153.127 48.7939L144.262 46.1553L126.257 106.532L135.122 109.171L153.127 48.7939Z" fill="#99B9FF"/>
<path d="M158.316 80.5888L149.451 77.9502L139.732 110.544L148.596 113.183L158.316 80.5888Z" fill="#018BCE"/>
<path d="M161.168 118.257L59.8789 88.1017L78.0035 27.3419C78.2752 26.4291 79.238 25.91 80.1517 26.1814C81.0653 26.4529 81.5849 27.4148 81.3132 28.3276L64.177 85.7808L162.156 114.952C163.07 115.223 163.59 116.185 163.318 117.098C163.046 118.011 162.083 118.53 161.17 118.259L161.168 118.257Z" fill="#272525"/>
<path d="M77.6648 53.7749C77.59 53.7528 77.517 53.724 77.4474 53.6867C76.8429 53.3728 76.6085 52.6297 76.9227 52.0257C77.7191 50.4937 78.7142 49.0482 79.8792 47.7283C80.3292 47.2176 81.1104 47.1701 81.6198 47.618C82.131 48.0676 82.1802 48.8463 81.7302 49.357C80.6977 50.5276 79.8163 51.8086 79.1116 53.1624C78.8348 53.6952 78.2218 53.9412 77.6665 53.7749H77.6648ZM84.1144 46.4389C83.858 46.3625 83.6253 46.203 83.4589 45.9689C83.0666 45.4124 83.1991 44.6439 83.7561 44.252C85.1911 43.2408 86.7347 42.4061 88.3446 41.7733C88.978 41.5239 89.6946 41.8343 89.9442 42.4689C90.1939 43.1017 89.8831 43.8176 89.248 44.067C87.8215 44.6286 86.4528 45.3683 85.1775 46.2658C84.8565 46.4932 84.4642 46.5441 84.1144 46.4389ZM112.822 48.8633C112.413 48.7411 111.985 48.5867 111.55 48.4052C110.922 48.1422 110.626 47.4212 110.888 46.7935C111.151 46.1657 111.868 45.8688 112.501 46.1318C114.045 46.7782 115.322 46.9428 116.529 46.6577L116.577 46.6459C117.242 46.5033 117.898 46.9258 118.042 47.5908C118.185 48.2559 117.762 48.9108 117.096 49.055C115.734 49.3757 114.335 49.3129 112.82 48.8616L112.822 48.8633ZM93.2115 42.8777C92.7581 42.7437 92.4049 42.3535 92.3404 41.8547C92.2521 41.1795 92.7292 40.5619 93.4051 40.4737C95.1236 40.2514 96.8779 40.2311 98.6168 40.4177C99.2927 40.4889 99.7851 41.0963 99.7121 41.7733C99.6408 42.4502 99.0328 42.9405 98.3553 42.8676C96.8082 42.703 95.251 42.72 93.7227 42.9185C93.546 42.9405 93.3728 42.9252 93.2115 42.8777ZM107.35 46.0877C107.254 46.0588 107.159 46.0181 107.069 45.9638C106.581 45.672 106.006 45.3344 105.445 45.0341C104.625 44.5947 103.759 44.2113 102.869 43.8957C102.227 43.6666 101.893 42.9626 102.122 42.3213C102.351 41.6799 103.058 41.344 103.698 41.5748C104.703 41.9327 105.683 42.3654 106.61 42.8625C107.215 43.1865 107.821 43.5428 108.334 43.8499C108.918 44.1994 109.108 44.9561 108.76 45.5397C108.464 46.0334 107.877 46.2455 107.35 46.0894V46.0877ZM120.791 46.6917C120.53 46.6136 120.292 46.449 120.128 46.2064C119.742 45.6449 119.886 44.878 120.448 44.4929C120.701 44.3198 121.038 44.0925 121.391 43.8736C122.559 43.1492 123.831 42.5673 125.173 42.1448C125.823 41.9412 126.514 42.3009 126.72 42.949C126.924 43.5988 126.564 44.2893 125.913 44.4946C124.77 44.8543 123.685 45.3497 122.692 45.9672C122.447 46.1182 122.186 46.2913 121.841 46.5254C121.522 46.7443 121.136 46.7918 120.791 46.69V46.6917ZM130.047 43.7617C129.535 43.609 129.165 43.1373 129.167 42.5774C129.167 41.8971 129.722 41.3457 130.403 41.3491C131.93 41.3525 133.433 41.5595 134.871 41.9633C134.878 41.965 134.883 41.9667 134.89 41.9684C135.533 42.1601 135.907 42.8336 135.724 43.4817C135.54 44.1366 134.859 44.5183 134.202 44.3351C132.979 43.9924 131.697 43.8159 130.395 43.8126C130.272 43.8126 130.155 43.7939 130.045 43.7617H130.047Z" fill="#272525"/>
<path d="M159.547 109.43L166.132 118.415L155.826 121.898L159.547 109.43Z" fill="#272525"/>
<path d="M72.8008 27.5794L81.796 21L85.2823 31.2949L72.8008 27.5794Z" fill="#272525"/>
</g>
<defs>
<clipPath id="clip0_2378_10423">
<rect width="427" height="425" fill="white"/>
</clipPath>
</defs>
</svg>
