<svg width="423" height="403" viewBox="0 0 423 403" fill="none" xmlns="http://www.w3.org/2000/svg">
<g clip-path="url(#clip0_2441_15450)">
<path d="M400.041 382.57C388.531 392.16 338.441 398.94 278.761 401.49C187.021 405.42 72.6009 399.37 40.7909 378.2C25.7309 368.19 15.5509 337.25 9.1009 297.66C-6.9291 199.16 0.220901 47.1301 13.1609 30.6501C31.3109 7.56009 323.301 -15.3099 399.911 13.9301C432.741 26.4601 429.231 358.23 400.031 382.57H400.041Z" fill="white"/>
<path d="M373.314 247.44L375.204 241.883L377.358 247.44C377.358 247.44 381.657 248.14 381.712 248.531C381.757 248.913 377.595 250.095 377.595 250.095C377.595 250.095 375.85 255.488 375.204 254.27C374.568 253.051 373.95 250.35 373.95 250.35C373.95 250.35 368.533 249.268 368.533 248.731C368.533 248.158 373.314 247.449 373.314 247.449V247.44Z" fill="white"/>
<path d="M304.094 233.142L305.566 228.822L307.238 233.142C307.238 233.142 310.574 233.688 310.619 233.988C310.656 234.279 307.429 235.198 307.429 235.198C307.429 235.198 306.075 239.381 305.575 238.435C305.075 237.49 304.594 235.389 304.594 235.389C304.594 235.389 300.395 234.543 300.395 234.134C300.395 233.688 304.103 233.142 304.103 233.142H304.094Z" fill="white"/>
<g clip-path="url(#clip1_2441_15450)">
<path d="M401.589 157.63C395.086 134.091 385.335 112.357 365.51 94.4478C347.747 78.4065 325.748 68.6065 302.851 63.3214C252.858 51.7774 200.302 54.4243 150.651 67.4734C117.985 76.0517 85.68 89.5434 60.6648 113.021C30.4135 141.403 12.7993 184.507 16.4812 226.717C20.1632 268.927 45.9647 308.871 83.1267 326.24C116.912 342.034 155.711 338.935 192.605 335.536L236.752 336.43C269.288 337.094 301.686 330.835 331.262 317.317C337.349 314.537 343.316 311.465 349.107 308.021C372.281 294.246 392.763 273.646 401.423 247.389C410.766 219.042 409.545 186.428 401.589 157.621V157.63Z" fill="#E8E8E8"/>
<path d="M307.191 108.249C308.698 107.638 374.16 116.517 373.42 120.545C373.022 122.688 363.586 165.765 358.646 167.589C353.705 169.422 295.738 155.301 294.424 153.805C293.11 152.318 304.212 109.453 307.191 108.249Z" fill="#6C6C6C"/>
<path d="M372.504 121.067C362.698 128.698 352.151 135.887 340.939 141.482C338.386 142.757 335.619 143.775 332.696 143.403C330.235 143.093 327.959 141.96 326.091 140.411C323.954 138.64 322.205 136.294 320.577 134.09C318.819 131.699 317.237 129.185 315.776 126.618C312.51 120.872 309.781 114.87 306.599 109.089C306.127 108.231 307.477 107.469 307.949 108.328C313.167 117.774 317.191 127.972 324.296 136.321C326.146 138.49 328.135 140.508 330.957 141.464C334.075 142.509 337.053 141.694 339.884 140.304C345.056 137.772 350.024 134.727 354.862 131.655C360.561 128.034 366.074 124.139 371.384 120.005C372.162 119.403 373.281 120.465 372.495 121.076L372.504 121.067Z" fill="#FFE6DE"/>
<path d="M344.214 138.8C350.218 147.608 355.648 156.78 360.468 166.243C360.912 167.111 359.561 167.881 359.117 167.005C354.297 157.541 348.876 148.379 342.863 139.561C342.308 138.747 343.668 137.985 344.223 138.8H344.214Z" fill="#FFE6DE"/>
<path d="M322.261 136.587C312.936 141.633 303.981 147.281 295.451 153.487C294.646 154.071 293.86 152.761 294.655 152.185C303.185 145.98 312.149 140.332 321.465 135.285C322.344 134.807 323.14 136.109 322.261 136.587Z" fill="#FFE6DE"/>
<path d="M206.186 72.7045C205.826 73.5013 198.702 89.6665 198.702 89.6665C198.702 89.6665 182.929 81.6547 185.714 87.71C188.498 93.7653 191.94 102.848 191.94 102.848C191.94 102.848 177.924 106.965 181.375 108.718C184.825 110.471 195.659 113.773 195.659 113.773C195.659 113.773 189.71 133.966 194.539 129.823C199.368 125.68 205.197 118.624 205.197 118.624C205.197 118.624 231.895 130.726 227.631 126.113C223.366 121.501 215.308 109.452 215.308 109.452C215.308 109.452 237.677 95.0667 233.487 93.6679C229.296 92.2692 212.949 94.4735 212.949 94.4735C212.949 94.4735 206.973 70.9517 206.177 72.7134L206.186 72.7045Z" fill="white"/>
<path d="M29.3952 191.368C29.793 191.749 38.0358 199.397 38.0358 199.397C38.0358 199.397 29.5617 206.382 33.8912 206.205C38.2208 206.028 44.5301 206.17 44.5301 206.17C44.5301 206.17 43.8548 214.925 45.7142 213.402C47.5645 211.871 52.042 206.577 52.042 206.577C52.042 206.577 62.9954 214.483 61.5708 210.844C60.1461 207.206 57.1672 202.345 57.1672 202.345C57.1672 202.345 70.6091 190.19 66.8254 191.518C63.0417 192.846 53.8645 194.608 53.8645 194.608C53.8645 194.608 50.1733 178.85 48.3693 180.877C46.5653 182.905 44.197 192.528 44.197 192.528C44.197 192.528 28.4978 190.518 29.3859 191.368H29.3952Z" fill="white"/>
<path d="M98.6693 218.483C97.3279 217.916 38.99 226.096 39.6561 229.806C40.0076 231.78 48.4169 271.458 52.8205 273.14C57.224 274.822 108.873 261.817 110.048 260.445C111.223 259.073 101.324 219.599 98.6785 218.483H98.6693Z" fill="white"/>
<path d="M40.4698 230.293C49.2029 237.323 58.6021 243.944 68.6026 249.097C70.8784 250.274 73.3392 251.204 75.948 250.867C78.1406 250.584 80.1666 249.539 81.8318 248.105C83.7375 246.476 85.2917 244.316 86.7442 242.28C88.3169 240.076 89.723 237.765 91.0182 235.401C93.9323 230.116 96.3561 224.575 99.1962 219.254C99.6218 218.466 98.4099 217.758 97.9843 218.555C93.3402 227.257 89.7508 236.65 83.4137 244.343C81.767 246.344 80.0001 248.203 77.4745 249.079C74.6991 250.044 72.044 249.292 69.5185 248.008C64.9114 245.671 60.4893 242.873 56.1783 240.04C51.0994 236.703 46.187 233.117 41.4504 229.311C40.7566 228.753 39.7574 229.727 40.4605 230.293H40.4698Z" fill="#FFE6DE"/>
<path d="M65.6705 246.628C60.314 254.746 55.4849 263.182 51.1924 271.902C50.7946 272.699 52.0065 273.407 52.4043 272.602C56.6968 263.882 61.5352 255.445 66.8824 247.327C67.3819 246.575 66.17 245.875 65.6705 246.628Z" fill="#FFE6DE"/>
<path d="M85.2364 244.591C93.5439 249.239 101.528 254.444 109.132 260.163C109.854 260.703 110.548 259.499 109.835 258.959C102.231 253.24 94.247 248.044 85.9395 243.387C85.1531 242.945 84.45 244.149 85.2364 244.591Z" fill="#FFE6DE"/>
<path d="M199.794 217.45C201.626 216.671 205.077 195.991 203.291 195.973C197.962 195.92 184.363 201.028 181.384 203.445C180.728 204.162 197.213 218.548 199.785 217.459L199.794 217.45Z" fill="white"/>
<path d="M197.759 200.372C197.759 200.372 192.754 185.977 191.237 182.967C189.498 179.515 180.987 185.181 181.643 186.916C182.291 188.66 189.479 203.258 189.479 203.258L197.759 200.372Z" fill="white"/>
<path d="M265.903 85.9128L270.186 72.9258L275.052 85.9128C275.052 85.9128 284.775 87.5594 284.895 88.4624C285.006 89.3477 275.588 92.1098 275.588 92.1098C275.588 92.1098 271.638 104.698 270.186 101.848C268.743 98.9972 267.336 92.6852 267.336 92.6852C267.336 92.6852 255.088 90.1533 255.088 88.9139C255.088 87.5683 265.893 85.9217 265.893 85.9217L265.903 85.9128Z" fill="white"/>
<path d="M80.1762 122.326L83.4696 112.34L87.2163 122.326C87.2163 122.326 94.7005 123.592 94.7838 124.282C94.867 124.964 87.6234 127.089 87.6234 127.089C87.6234 127.089 84.5797 136.774 83.4696 134.578C82.3595 132.383 81.2771 127.531 81.2771 127.531C81.2771 127.531 71.8594 125.584 71.8594 124.628C71.8594 123.592 80.1762 122.326 80.1762 122.326Z" fill="white"/>
<path d="M374.373 213.837L378.657 200.85L383.523 213.837C383.523 213.837 393.246 215.483 393.366 216.386C393.477 217.272 384.059 220.034 384.059 220.034C384.059 220.034 380.109 232.622 378.657 229.772C377.213 226.921 375.807 220.609 375.807 220.609C375.807 220.609 363.559 218.077 363.559 216.838C363.559 215.492 374.364 213.846 374.364 213.846L374.373 213.837Z" fill="white"/>
<path d="M178.979 183.72C177.092 172.512 183.309 160.472 193.753 155.099C181.819 147.034 178.507 132.515 181.56 118.847C175.603 121.83 165.177 119.599 159.654 115.916C154.14 112.234 150.227 106.798 146.443 101.486L146.045 101.672C141.762 106.453 133.824 114.535 127.284 115.208C120.734 115.872 113.944 114.066 108.707 110.251C109.216 122.494 101.852 134.737 90.5195 140.456C103.184 150.938 100.983 168.378 94.9786 181.436C108.152 177.434 133.787 185.57 141.022 196.84C141.679 189.43 148.552 183.525 156.092 181.693C163.622 179.869 171.615 181.374 178.998 183.711L178.979 183.72Z" fill="#008BCE"/>
<path d="M158.551 135.19C158.32 131.994 156.312 129.081 153.685 127.089C151.742 125.62 149.402 124.558 146.932 124.389C144.462 124.221 141.871 125.009 140.169 126.735C138.476 128.462 137.829 131.171 138.856 133.322L153.824 142.945C156.942 141.776 158.783 138.377 158.551 135.181V135.19Z" fill="#070707"/>
<path d="M148.848 134.348C148.848 134.348 134.897 124.637 118.921 138.686C102.944 152.735 103.647 152.328 92.3975 155.011C81.1481 157.693 71.7859 161.553 67.5488 168.582L112.815 191.599L148.848 134.348Z" fill="white"/>
<path d="M148.247 133.986C148.247 133.986 163.234 142.529 154.297 161.457C145.361 180.384 145.536 179.614 146.397 190.68C147.257 201.746 146.082 211.138 140.43 217.185L103.693 183.58L148.256 133.995L148.247 133.986Z" fill="white"/>
<path d="M141.326 216.08C145.016 210.831 131.491 195.943 111.118 182.827C90.7436 169.711 71.2356 163.334 67.5453 168.583C63.8549 173.832 77.3796 188.72 97.7536 201.836C118.128 214.952 137.636 221.33 141.326 216.08Z" fill="white"/>
<g opacity="0.3">
<path d="M118.865 197.824C118.338 197.709 117.848 197.603 117.367 197.497C116.377 196.93 115.119 198.214 115.193 199.187C115.886 199.657 116.478 200.055 117.071 200.453C117.061 200.56 117.052 200.675 117.034 200.781C118.939 201.144 119.772 199.258 118.865 197.833V197.824Z" fill="#070707"/>
<path d="M119.216 190.174C119.272 189.457 118.633 189.484 118.189 189.289C117.588 189.36 116.959 189.378 116.543 189.9C116.589 190.095 116.755 190.378 116.672 190.475C115.987 191.263 116.496 191.706 117.033 192.157C117.394 192.06 117.662 191.989 117.921 191.918C117.902 192.14 117.875 192.352 117.856 192.573C118.994 193.025 120.234 192.184 120.41 191.06C119.993 190.75 119.595 190.466 119.207 190.183L119.216 190.174Z" fill="#070707"/>
<path d="M116.607 205.039C116.598 205.145 116.589 205.26 116.57 205.366C114.581 205.03 114.933 207.376 116.311 207.987C118.263 208.155 119.873 204.915 116.607 205.039Z" fill="#070707"/>
<path d="M134.842 202.074C134.842 202.074 134.879 202.038 134.888 202.021C134.185 201.259 133.436 200.48 132.631 199.684C132.02 200.684 132.372 202.056 134.833 202.065L134.842 202.074Z" fill="#070707"/>
<path d="M123.111 193.946C120.937 193.026 119.873 195.035 120.872 196.753C121.547 197.018 122.093 196.54 122.565 196.983C123.98 197.045 124.239 194.522 123.111 193.946Z" fill="#070707"/>
<path d="M136.007 211.634C135.138 212.767 135.674 213.998 136.96 214.529C140.235 214.024 137.793 208.624 136.007 211.634Z" fill="#070707"/>
<path d="M141.041 210.545C140.698 209.802 140.264 209.005 139.746 208.182C139.635 208.226 139.514 208.279 139.385 208.323C140.153 209.138 140.032 210.112 141.05 210.545H141.041Z" fill="#070707"/>
<path d="M136.266 204.508C136.441 205.597 137.663 206.615 138.44 206.27C137.838 205.456 137.163 204.606 136.423 203.738C136.33 203.96 136.266 204.216 136.266 204.508Z" fill="#070707"/>
<path d="M121.946 201.426C119.948 201.4 119.208 202.666 119.994 204.312C122.372 205.95 123.935 203.099 121.946 201.426Z" fill="#070707"/>
<path d="M141.326 216.087C141.409 215.972 141.465 215.848 141.529 215.724C140.382 215.175 139.189 216.362 139.318 217.486C140.197 217.185 140.872 216.725 141.326 216.087Z" fill="#070707"/>
<path d="M120.883 212.689C123.362 211.608 121.771 209.466 119.513 209.643C119.097 210.298 119.134 211.042 119.153 211.794C119.763 212.113 120.355 212.414 120.883 212.689Z" fill="#070707"/>
<path d="M130.429 203.109C129.356 202.71 128.597 202.409 127.885 203.542C129.254 207.677 132.871 204.56 130.429 203.109Z" fill="#070707"/>
<path d="M131.678 207.261C132.076 211.661 137.645 208.792 133.297 206.588C132.723 206.827 132.214 207.039 131.678 207.261Z" fill="#070707"/>
<path d="M130.522 197.656C130.06 197.231 129.588 196.797 129.107 196.363C129.079 196.505 129.051 196.638 129.023 196.779C129.514 197.479 130.041 197.691 130.522 197.647V197.656Z" fill="#070707"/>
<path d="M130.448 211.104C129.661 211.033 129.051 210.971 128.459 210.918C128.042 211.458 127.163 211.564 127.2 212.485C128.634 214.238 130.929 213.441 130.448 211.095V211.104Z" fill="#070707"/>
<path d="M134.323 216.035C134.027 215.46 132.991 214.707 132.306 215.008C131.936 215.601 130.826 215.247 130.826 216.035C131.067 216.69 131.326 217.133 131.613 217.407C132.029 217.487 132.436 217.558 132.834 217.629C133.342 217.398 133.851 216.823 134.323 216.035Z" fill="#070707"/>
<path d="M125.591 201.693C126.072 200.923 126.516 200.728 127.33 200.507C127.663 198.4 125.24 197.444 124.139 199.356C125.064 199.949 125.323 200.578 125.582 201.702L125.591 201.693Z" fill="#070707"/>
<path d="M123.075 214.565C123.038 214.68 123.019 214.777 123.01 214.883C123.824 215.184 124.61 215.459 125.387 215.724C125.822 214.556 125.156 213.343 123.075 214.574V214.565Z" fill="#070707"/>
<path d="M126.6 208.536C126.646 208.102 126.683 207.739 126.729 207.225C125.462 206.933 124.019 205.676 123.371 207.394C123.898 207.845 124.416 208.297 124.972 208.784C125.48 208.704 126.026 208.624 126.6 208.544V208.536Z" fill="#070707"/>
<path d="M96.5141 195.01C100.501 194.532 99.1692 190.38 95.6445 191.46C95.4132 191.982 95.2097 192.425 94.9414 193.027C96.1256 193.301 95.6722 194.47 96.5141 195.001V195.01Z" fill="#070707"/>
<path d="M82.9526 182.571C82.6565 182.58 82.3235 182.598 81.9535 182.607C79.9367 180.145 79.3909 183.74 80.427 185.2C81.5557 186.44 84.3495 183.97 82.9618 182.562L82.9526 182.571Z" fill="#070707"/>
<path d="M82.7667 169.761C83.035 169.442 83.4328 169.256 83.8306 169.079C82.9425 168.778 82.0728 168.504 81.2402 168.256C81.3327 168.84 81.7768 169.416 82.7667 169.761Z" fill="#070707"/>
<path d="M106.126 184.076C105.525 184.501 104.822 184.855 104.461 185.528C104.738 186.316 104.942 186.652 105.062 187.502C106.08 187.538 106.987 187.892 108.004 187.555C107.764 186.148 108.004 184.43 106.135 184.085L106.126 184.076Z" fill="#070707"/>
<path d="M94.4048 197.17C94.1643 196.116 94.5066 195.257 93.1837 194.779C91.2132 194.779 90.6026 196.019 91.2409 197.426C91.6387 197.71 92.0365 197.993 92.4436 198.276C93.2392 198.276 93.7942 197.639 94.3956 197.17H94.4048Z" fill="#070707"/>
<path d="M79.0106 169.619C78.3168 169.867 77.6877 170.097 77.0124 170.345C75.2269 175.223 83.0257 173.151 79.0106 169.619Z" fill="#070707"/>
<path d="M103.24 193.831C103.934 194.221 103.842 194.84 103.416 195.584C108.745 196.328 107.366 189.121 103.24 193.831Z" fill="#070707"/>
<path d="M101.723 187.6C98.6241 188.361 99.8083 191.92 102.547 190.902C103.777 190.255 102.954 187.963 101.723 187.6Z" fill="#070707"/>
<path d="M112.037 183.421C111.732 183.226 111.436 183.022 111.122 182.828C110.511 182.429 109.9 182.049 109.29 181.668C109.077 181.889 108.929 182.155 108.883 182.536C109.521 184.147 111.02 184.359 112.047 183.43L112.037 183.421Z" fill="#070707"/>
<path d="M102.721 179.986C100.936 180.349 100.251 181.465 101.287 183.014C104.118 183.926 105.552 181.447 102.721 179.986Z" fill="#070707"/>
<path d="M70.8882 169.256C69.7596 169.291 69.038 169.805 68.4922 170.858C69.1398 173.682 72.3499 172.824 71.9521 170.132C71.6098 169.858 71.2305 169.539 70.8882 169.256Z" fill="#070707"/>
<path d="M94.7654 189.988C94.9689 189.546 95.1725 189.112 95.413 188.59C92.6561 184.482 88.9649 191.175 94.7654 189.988Z" fill="#070707"/>
<path d="M73.627 173.701C71.6472 173.683 72.7111 175.259 72.6278 176.489C73.664 176.348 74.5798 176.224 75.5882 176.091C76.023 174.365 75.653 172.975 73.627 173.701Z" fill="#070707"/>
<path d="M109.873 206.782C109.734 205.826 109.706 204.808 108.411 204.48C104.535 204.994 107.874 210.067 109.873 206.782Z" fill="#070707"/>
<path d="M77.872 177.436C76.5028 177.285 76.4843 178.613 75.7812 179.481C76.9099 180.596 77.8813 181.756 79.1764 180.171C79.2319 179.029 78.9729 178.082 77.872 177.427V177.436Z" fill="#070707"/>
<path d="M88.5481 194.141C91.4438 193.371 90.7962 190.564 88.1318 190.795C87.9098 191.29 87.4935 191.884 87.0957 192.308C87.3177 193.167 87.5305 193.946 88.5481 194.141Z" fill="#070707"/>
<path d="M84.3945 180.181C84.5518 183.368 87.8822 181.19 87.9192 179.065C86.365 177.879 85.0606 178.826 84.3945 180.181Z" fill="#070707"/>
<path d="M77.2617 185.979C77.6873 186.395 78.1313 186.811 78.5846 187.227C78.5014 186.474 77.9186 186.049 77.2617 185.979Z" fill="#070707"/>
<path d="M112.843 193.229C111.529 193.308 111.52 195.22 112.232 195.991C115.627 197.23 116.173 193.299 112.843 193.229Z" fill="#070707"/>
<path d="M110.65 209.324C111.668 209.846 112.667 210.351 113.666 210.829C113.805 210.643 113.935 210.421 114.027 210.165C113.074 208.359 111.548 208.191 110.66 209.324H110.65Z" fill="#070707"/>
<path d="M91.0465 183.455C89.5016 181.756 87.2443 183.526 88.2804 185.474C90.1677 186.988 91.1761 185.155 91.0465 183.455Z" fill="#070707"/>
<path d="M98.2157 202.135C98.3915 200.887 97.7347 200.09 96.8373 199.391C96.347 199.709 95.8844 200.01 95.4219 200.311C96.1897 200.825 96.9576 201.329 97.7532 201.843C97.9104 201.94 98.0677 202.038 98.2157 202.135Z" fill="#070707"/>
<path d="M111.13 190.813C111.547 189.697 110.492 187.829 109.141 188.44C108.947 189.573 107.865 190.706 108.688 191.645C109.576 192.309 110.927 191.848 111.13 190.813Z" fill="#070707"/>
<path d="M102.055 196.523C100.605 196.075 99.5044 196.432 98.752 197.594C100.038 200.286 103.193 198.542 102.055 196.523Z" fill="#070707"/>
<path d="M99.3914 186.271C99.2064 185.279 99.7429 183.783 98.3923 183.615C97.0231 183.402 96.5698 183.686 96.5143 184.969C95.9962 186.634 98.2997 186.899 99.3914 186.279V186.271Z" fill="#070707"/>
<path d="M112.546 204.066C112.999 203.96 113.434 203.862 113.841 203.765C114.868 202.189 114.674 201.738 112.528 200.879C111.936 201.49 110.825 201.569 110.909 202.658C111.445 203.119 111.991 203.579 112.546 204.066Z" fill="#070707"/>
<path d="M100.195 203.383C100.316 203.463 100.436 203.533 100.565 203.604C100.464 203.525 100.371 203.445 100.269 203.365C100.242 203.365 100.223 203.374 100.205 203.383H100.195Z" fill="#070707"/>
<path d="M83.8686 176.772C83.6281 176.161 83.406 175.603 83.184 175.045C82.4347 174.895 82.1664 174.727 81.5928 174.16C79.7611 174.975 81.0007 175.869 81.4078 177.099C81.7593 178.578 83.184 177.4 83.8686 176.772Z" fill="#070707"/>
<path d="M110.215 199.054C110.4 198.399 110.566 197.841 110.797 197.027C106.588 195.619 105.728 200.612 110.215 199.054Z" fill="#070707"/>
<path d="M112.936 187.121C113.334 189.476 116.414 187.971 115.998 186.094C115.794 185.952 115.6 185.811 115.397 185.678C114.083 185.023 112.621 185.448 112.936 187.13V187.121Z" fill="#070707"/>
<path d="M70.3881 177.506C70.1291 177.382 69.8978 177.329 69.6758 177.32C70.0921 177.931 70.5454 178.56 71.045 179.197C71.2485 178.79 71.1282 178.223 70.3881 177.506Z" fill="#070707"/>
<path d="M95.792 174.117C94.8946 173.674 94.0065 173.249 93.1277 172.842C93.0999 172.895 93.0629 172.948 93.0352 173.001C93.3867 174.196 94.8299 174.612 95.7828 174.117H95.792Z" fill="#070707"/>
<path d="M89.1788 175.355C88.5682 177.542 89.8726 179.224 91.8616 177.383C93.0273 175.656 90.6034 175.258 89.1788 175.355Z" fill="#070707"/>
<path d="M106.191 201.86C105.895 199.576 102.953 200.098 102.49 202.028C102.722 202.329 102.99 202.666 103.267 203.029C104.433 202.568 105.589 203.038 106.191 201.86Z" fill="#070707"/>
<path d="M95.7652 181.792C95.5339 181.102 95.3211 180.447 95.0898 179.765C94.2665 179.464 93.5449 179.561 92.8418 180.163C92.8696 180.863 92.9436 181.624 93.0638 182.314C94.1555 182.704 95.0158 182.562 95.7652 181.801V181.792Z" fill="#070707"/>
<path d="M73.377 181.986C73.821 182.482 74.2743 182.978 74.7554 183.482C75.1532 182.783 74.9404 182.039 73.377 181.986Z" fill="#070707"/>
<path d="M73.5808 166.777C73.146 168.734 73.8953 169.079 75.8103 168.424C76.1896 167.893 76.3561 167.459 76.4117 167.105C75.394 166.928 74.4597 166.83 73.5808 166.777Z" fill="#070707"/>
<path d="M83.8955 186.864C83.8122 187.856 83.8214 189.051 84.6356 189.759C85.6902 190.361 85.977 188.52 86.4488 187.918C86.8373 186.643 84.9223 186.262 83.8862 186.873L83.8955 186.864Z" fill="#070707"/>
<path d="M87.6523 171.107C86.5422 170.824 85.7096 171.027 85.0527 171.842C85.5153 172.541 85.9223 173.161 86.3294 173.781C88.1981 173.745 88.3369 172.506 87.6523 171.107Z" fill="#070707"/>
<path d="M98.8731 179.304C99.308 178.507 99.6872 177.799 100.141 176.976C99.5115 176.843 99.4467 175.418 98.6049 175.816C96.9489 176.383 97.578 178.817 98.8731 179.304Z" fill="#070707"/>
</g>
<path d="M122.852 190.865C118.458 197.442 109.318 199.363 102.444 195.158C95.5706 190.953 93.5631 182.207 97.9574 175.629" fill="white"/>
<path d="M142.047 216.485C144.138 213.343 141.427 209.058 139.586 206.446C135.673 200.905 130.428 196.195 125.127 191.91C117.874 186.041 110.01 180.826 101.768 176.312C94.9771 172.593 87.789 169.15 80.2308 167.131C76.447 166.122 69.6474 164.405 66.8351 168.185C66.2152 169.017 67.6584 169.814 68.269 168.99C70.406 166.122 76.6413 167.857 79.3889 168.574C86.3828 170.38 93.0251 173.479 99.3344 176.834C107.05 180.942 114.432 185.678 121.315 190.972C126.699 195.115 131.945 199.621 136.256 204.809C137.875 206.756 139.466 208.881 140.437 211.209C141.02 212.599 141.511 214.325 140.613 215.689C140.04 216.556 141.474 217.353 142.047 216.494V216.485Z" fill="#070707"/>
<path d="M143.695 133.969C136.794 131.313 128.902 133.73 124.739 139.581C124.138 140.431 125.581 141.228 126.173 140.387C129.939 135.084 137.062 133.128 143.242 135.509C144.232 135.89 144.666 134.349 143.686 133.978L143.695 133.969Z" fill="white"/>
<path d="M122.676 143.263C123.749 143.263 123.749 141.67 122.676 141.67C121.603 141.67 121.603 143.263 122.676 143.263Z" fill="white"/>
<path d="M179.479 172.131C185.464 176.089 193.901 176.31 200.099 172.671C192.365 171.751 185.26 166.926 181.801 160.242" fill="#008BCE"/>
<path d="M60.4426 328.196C54.3091 331.321 48.1663 334.446 42.0328 337.562C42.4491 337.792 42.8654 338.023 43.2817 338.253C43.698 328.913 50.8676 321.955 57.4082 315.776C57.9263 315.289 57.5377 314.421 56.8161 314.412C47.2042 314.297 37.8142 311.801 29.5159 307.153V308.525C38.7023 304.568 48.6659 302.585 58.7404 302.665C59.8135 302.673 59.8135 301.08 58.7404 301.071C48.3606 300.983 38.138 303.072 28.6741 307.144C28.0912 307.401 28.1745 308.242 28.6741 308.516C37.2129 313.306 46.9174 315.882 56.8161 315.997C56.6219 315.545 56.4276 315.094 56.2241 314.634C49.3412 321.14 42.042 328.426 41.6072 338.235C41.5795 338.864 42.3288 339.191 42.8561 338.926C48.9897 335.801 55.1324 332.676 61.266 329.559C62.2096 329.081 61.3677 327.7 60.4241 328.187L60.4426 328.196Z" fill="#070707"/>
<path d="M61.09 296.052C57.2785 293.776 53.4763 291.501 49.6648 289.235C48.7582 288.695 47.9164 290.067 48.823 290.607C52.6345 292.882 56.4367 295.157 60.2482 297.424C61.1548 297.964 61.9966 296.592 61.09 296.052Z" fill="#070707"/>
<path d="M41.1623 283.916C42.2354 283.916 42.2354 282.322 41.1623 282.322C40.0891 282.322 40.0891 283.916 41.1623 283.916Z" fill="#070707"/>
<path d="M362.596 232.912C360.375 225.742 354.899 219.695 348.201 215.844C351.374 215.8 354.149 213.383 355.185 210.506C356.222 207.638 355.759 204.433 354.667 201.582C349.218 187.382 330.624 182.071 322.048 169.367C316.025 160.443 315.378 148.439 307.533 140.923C302.25 135.859 294.377 133.752 286.93 134.345C279.483 134.939 272.434 137.993 266.254 142.012L266.698 167.827C277.651 183.062 284.951 200.679 287.883 218.96C289.345 228.096 289.826 237.666 294.396 245.811C298.457 253.052 305.562 258.541 313.583 261.471C321.604 264.402 330.485 264.889 338.959 263.543C346.332 262.374 353.789 259.63 358.553 254.124C363.539 248.36 364.834 240.092 362.614 232.921L362.596 232.912Z" fill="#070707"/>
<path d="M225.51 136.222C219.22 137.453 213.197 140.826 209.885 146.093C206.573 151.361 206.453 158.593 210.412 163.436C211.19 164.383 212.124 165.277 212.448 166.437C212.781 167.623 212.402 168.871 212.152 170.075C211.162 174.856 212.17 179.991 214.918 184.098L244.596 137.24C238.37 135.718 231.81 134.992 225.51 136.222Z" fill="#070707"/>
<path d="M306.634 288.88C307.189 291.032 332.547 349.779 362.317 346.902C392.087 344.024 391.81 331.002 387.184 305.541C382.559 280.081 337.357 236.525 314.544 230.877L304.516 286.951" fill="#008BCE"/>
<path d="M216.353 224.017C214.262 224.353 126.691 227.549 108.716 233.702C83.978 242.183 87.1142 257.038 88.1595 264.775C89.2049 272.512 105.579 283.348 130.669 286.429C155.758 289.518 201.93 284.375 201.93 284.375L213.143 272.371L216.353 224.008V224.017Z" fill="#008BCE"/>
<path d="M326.581 237.082C326.424 232.151 326.276 227.22 326.118 222.289C325.961 217.145 325.767 211.86 323.611 207.151C320.568 200.476 313.944 195.846 306.913 193.066C295.303 188.471 282.12 188.206 269.89 190.994C257.669 193.783 246.336 199.484 236.067 206.425C230.1 210.453 222.339 215.561 218.527 221.519L196.889 233.709L212.144 286.613L304.887 286.489L329.81 240.18L326.572 237.082H326.581Z" fill="#008BCE"/>
<path d="M323.953 340.165C318.236 343.618 87.9276 345.388 76.4469 342.369C74.3469 341.821 72.6817 337.731 71.442 331.861C67.9543 315.368 67.8341 284.897 70.8592 279.621C76.3174 270.095 307.911 271.467 321.066 280.356C321.066 280.356 321.113 280.391 321.224 280.471C321.362 280.586 321.622 280.781 321.955 281.046C322.038 281.108 322.13 281.17 322.223 281.259C333.981 292.077 329.855 336.606 323.962 340.165H323.953Z" fill="#EBEBEB"/>
<path d="M105.448 293.865C105.754 294.184 105.911 294.485 105.911 294.777C105.911 294.998 105.855 295.211 105.735 295.414C105.624 295.618 105.458 295.777 105.254 295.892C105.051 295.998 104.838 296.06 104.607 296.06C104.431 296.06 104.264 296.016 104.107 295.936C103.95 295.848 103.792 295.751 103.607 295.627C102.821 294.874 101.988 294.325 101.119 293.998C100.249 293.67 99.2594 293.502 98.14 293.502C96.9373 293.502 95.8549 293.723 94.8928 294.157C93.9214 294.6 93.1629 295.184 92.5985 295.91C92.0342 296.645 91.7567 297.459 91.7567 298.362C91.7567 299.115 91.9602 299.823 92.3673 300.469C92.7743 301.115 93.4589 301.726 94.4118 302.302C95.3646 302.877 96.6598 303.47 98.288 304.072C100.962 305.046 102.932 306.197 104.19 307.534C105.448 308.862 106.087 310.42 106.087 312.199C106.087 313.784 105.689 315.165 104.884 316.351C104.079 317.537 102.96 318.449 101.517 319.095C100.073 319.742 98.3898 320.069 96.4563 320.069C95.3646 320.069 94.2915 319.945 93.2461 319.706C92.2007 319.458 91.2386 319.122 90.3597 318.679C89.4809 318.237 88.7223 317.732 88.084 317.139C87.9082 316.971 87.7694 316.794 87.6862 316.608C87.5936 316.422 87.5566 316.245 87.5566 316.077C87.5566 315.855 87.6121 315.661 87.7324 315.475C87.8434 315.289 88.0007 315.147 88.2135 315.032C88.417 314.917 88.639 314.864 88.8611 314.864C89.0831 314.864 89.2959 314.917 89.4901 315.032C89.6844 315.138 89.8879 315.306 90.1192 315.528C90.5263 315.891 91.0721 316.236 91.7659 316.555C92.4505 316.873 93.2091 317.13 94.0232 317.325C94.8373 317.52 95.6329 317.617 96.3915 317.617C98.4545 317.617 100.129 317.139 101.415 316.192C102.701 315.244 103.348 313.987 103.348 312.42C103.348 311.571 103.136 310.791 102.719 310.101C102.294 309.41 101.591 308.746 100.601 308.109C99.6109 307.472 98.2325 306.825 96.4748 306.17C93.9029 305.197 92.025 304.116 90.8408 302.93C89.6567 301.753 89.0646 300.319 89.0646 298.637C89.0646 297.176 89.4624 295.875 90.2672 294.741C91.0721 293.608 92.1637 292.714 93.5514 292.05C94.9391 291.395 96.5118 291.059 98.2695 291.059C99.8515 291.059 101.267 291.324 102.516 291.847C103.765 292.369 104.745 293.05 105.458 293.874L105.448 293.865Z" fill="#2B2B2B"/>
<path d="M122.416 320.564C121.297 320.564 120.205 320.405 119.15 320.086C118.096 319.767 117.134 319.307 116.282 318.696C115.431 318.085 114.747 317.333 114.238 316.43C113.905 315.845 113.618 315.093 113.378 314.163C113.137 313.234 112.952 312.234 112.823 311.145C112.693 310.056 112.591 308.993 112.517 307.94C112.443 306.895 112.406 305.939 112.406 305.089C112.406 303.841 112.443 302.54 112.517 301.159C112.591 299.778 112.684 298.388 112.786 296.989C112.887 295.59 112.98 294.254 113.054 292.988C113.082 292.501 113.23 292.155 113.516 291.943C113.794 291.739 114.099 291.633 114.432 291.633C114.691 291.633 114.913 291.686 115.117 291.784C115.32 291.881 115.496 292.023 115.635 292.209C115.774 292.394 115.829 292.651 115.811 292.996C115.737 294.289 115.644 295.635 115.542 297.042C115.441 298.45 115.348 299.831 115.274 301.212C115.2 302.593 115.163 303.903 115.163 305.142C115.163 307.727 115.32 309.914 115.644 311.711C115.959 313.5 116.366 314.765 116.847 315.5C117.43 316.377 118.225 317.041 119.234 317.474C120.242 317.917 121.25 318.13 122.277 318.13C123.221 318.13 124.109 318.006 124.951 317.749C125.793 317.492 126.542 317.085 127.208 316.518C127.874 315.961 128.402 315.226 128.818 314.323C129.095 313.712 129.336 312.712 129.539 311.322C129.743 309.932 129.919 308.25 130.076 306.276C130.224 304.301 130.344 302.141 130.418 299.804C130.492 297.467 130.529 295.041 130.529 292.527C130.529 292.111 130.668 291.792 130.946 291.562C131.223 291.332 131.556 291.199 131.935 291.182C132.315 291.182 132.629 291.306 132.87 291.562C133.11 291.819 133.231 292.138 133.231 292.527C133.258 296.653 133.175 300.273 132.981 303.407C132.787 306.541 132.555 309.1 132.278 311.074C132 313.048 131.704 314.367 131.399 315.022C130.788 316.412 130.011 317.519 129.086 318.333C128.152 319.148 127.134 319.732 126.005 320.068C124.886 320.414 123.683 320.582 122.416 320.582V320.564Z" fill="#2B2B2B"/>
<path d="M144.054 293.944C143.85 294.015 143.656 294.032 143.48 293.979C143.304 293.935 143.138 293.855 142.999 293.74C142.86 293.634 142.74 293.492 142.657 293.342C142.564 293.183 142.527 292.997 142.527 292.775C142.527 292.527 142.601 292.297 142.759 292.076C142.916 291.855 143.175 291.695 143.563 291.598C144.711 291.332 145.867 291.12 147.023 290.96C148.18 290.801 149.345 290.739 150.52 290.757C152.685 290.783 154.452 291.12 155.831 291.784C157.209 292.439 158.227 293.271 158.883 294.271C159.549 295.272 159.873 296.308 159.873 297.379C159.873 298.184 159.688 299.016 159.318 299.884C158.948 300.752 158.347 301.557 157.505 302.319C156.663 303.071 155.544 303.735 154.138 304.293C155.59 304.656 156.802 305.222 157.764 305.993C158.735 306.763 159.457 307.63 159.929 308.586C160.401 309.551 160.632 310.507 160.632 311.455C160.632 312.552 160.364 313.641 159.827 314.73C159.29 315.819 158.486 316.802 157.422 317.696C156.349 318.59 155.026 319.316 153.444 319.874C151.862 320.431 150.012 320.741 147.902 320.786C146.885 320.812 145.895 320.786 144.942 320.732C143.989 320.67 142.99 320.582 141.945 320.458C141.491 320.414 141.121 320.263 140.853 320.015C140.585 319.767 140.455 319.475 140.455 319.139C140.455 318.847 140.52 318.617 140.668 318.44C140.807 318.271 140.982 318.139 141.204 318.032C141.417 317.935 141.63 317.899 141.834 317.926C142.851 318.05 143.85 318.156 144.831 318.236C145.812 318.324 146.829 318.36 147.875 318.36C149.401 318.36 150.779 318.156 152.001 317.758C153.222 317.351 154.276 316.819 155.155 316.147C156.034 315.474 156.709 314.73 157.181 313.916C157.653 313.101 157.884 312.26 157.884 311.41C157.884 310.481 157.625 309.631 157.098 308.852C156.58 308.073 155.775 307.418 154.711 306.878C153.638 306.347 152.306 305.975 150.696 305.78C150.234 305.877 149.725 305.966 149.17 306.054C148.605 306.143 148.05 306.205 147.486 306.258C146.922 306.302 146.376 306.329 145.839 306.329C145.229 306.329 144.627 306.311 144.045 306.276C143.452 306.24 142.823 306.161 142.13 306.037C141.852 305.992 141.593 305.913 141.362 305.815C141.13 305.718 140.955 305.585 140.825 305.408C140.696 305.24 140.631 305.028 140.631 304.789C140.631 304.549 140.705 304.328 140.862 304.151C141.019 303.965 141.232 303.815 141.51 303.691C141.787 303.567 142.148 303.469 142.583 303.399C143.452 303.257 144.23 303.16 144.914 303.124C145.599 303.089 146.265 303.071 146.903 303.071C147.615 303.071 148.282 303.089 148.911 303.124C149.53 303.16 150.076 303.239 150.53 303.363C152.648 302.85 154.276 302.062 155.423 300.982C156.571 299.911 157.144 298.751 157.144 297.503C157.144 296.768 156.885 296.069 156.376 295.405C155.868 294.732 155.09 294.183 154.045 293.758C153 293.333 151.658 293.121 150.03 293.121C149.188 293.121 148.254 293.191 147.218 293.324C146.182 293.457 145.118 293.661 144.026 293.926L144.054 293.944ZM142.102 292.589C142.148 292.173 142.296 291.855 142.537 291.624C142.777 291.394 143.101 291.279 143.508 291.279C143.739 291.279 143.943 291.323 144.119 291.403C144.294 291.492 144.442 291.607 144.563 291.766C144.674 291.925 144.757 292.111 144.794 292.333C144.831 292.554 144.84 292.811 144.812 293.103C144.553 295.369 144.331 298.122 144.146 301.354C143.952 304.585 143.86 308.197 143.86 312.198V315.288C143.86 316.35 143.887 317.466 143.934 318.634C143.934 318.829 143.897 318.997 143.823 319.13C143.748 319.263 143.637 319.387 143.499 319.493C143.36 319.599 143.212 319.679 143.064 319.732C142.916 319.776 142.749 319.803 142.564 319.803C142.361 319.803 142.148 319.759 141.935 319.652C141.722 319.555 141.537 319.422 141.399 319.254C141.26 319.086 141.186 318.864 141.186 318.599C141.158 317.43 141.14 316.324 141.13 315.288C141.121 314.252 141.112 313.234 141.112 312.234C141.112 308.967 141.204 305.727 141.399 302.522C141.593 299.317 141.824 296.007 142.102 292.589Z" fill="#2B2B2B"/>
<path d="M183.5 294.236C183.833 294.555 183.999 294.891 183.999 295.263C183.999 295.484 183.935 295.688 183.805 295.865C183.676 296.051 183.509 296.201 183.306 296.325C183.102 296.449 182.889 296.511 182.658 296.511C182.454 296.511 182.269 296.476 182.103 296.405C181.936 296.334 181.788 296.219 181.668 296.077C181.002 295.343 180.16 294.803 179.124 294.448C178.088 294.094 176.848 293.917 175.396 293.917C173.564 293.917 172.047 294.325 170.844 295.139C169.642 295.953 169.049 296.989 169.049 298.229C169.049 298.963 169.262 299.636 169.679 300.256C170.095 300.876 170.816 301.486 171.816 302.088C172.824 302.682 174.202 303.337 175.96 304.045C178.079 304.895 179.762 305.762 181.02 306.621C182.279 307.489 183.204 308.418 183.768 309.419C184.342 310.419 184.628 311.526 184.628 312.747C184.628 314.234 184.212 315.571 183.37 316.749C182.528 317.935 181.363 318.873 179.873 319.582C178.384 320.29 176.654 320.644 174.693 320.644C173.518 320.644 172.38 320.502 171.27 320.219C170.16 319.936 169.142 319.564 168.217 319.086C167.282 318.608 166.478 318.068 165.793 317.457C165.617 317.306 165.488 317.156 165.414 316.979C165.34 316.811 165.303 316.634 165.303 316.465C165.303 316.244 165.358 316.04 165.479 315.846C165.59 315.651 165.756 315.492 165.96 315.368C166.163 315.244 166.385 315.182 166.607 315.182C166.764 315.182 166.903 315.208 167.042 315.253C167.181 315.297 167.356 315.394 167.56 315.545C168.753 316.474 169.928 317.138 171.075 317.554C172.223 317.97 173.435 318.174 174.702 318.174C176.154 318.174 177.422 317.953 178.504 317.501C179.587 317.05 180.428 316.421 181.03 315.616C181.631 314.81 181.927 313.907 181.927 312.907C181.927 312.004 181.687 311.189 181.224 310.454C180.752 309.72 179.975 309.02 178.893 308.347C177.81 307.675 176.376 306.993 174.591 306.285C172.676 305.532 171.112 304.744 169.891 303.921C168.67 303.107 167.773 302.23 167.199 301.292C166.626 300.353 166.339 299.335 166.339 298.237C166.339 296.918 166.737 295.759 167.523 294.741C168.309 293.731 169.392 292.926 170.77 292.324C172.149 291.731 173.703 291.43 175.433 291.43C177.163 291.43 178.754 291.669 180.132 292.147C181.511 292.625 182.63 293.315 183.5 294.209V294.236Z" fill="#2B2B2B"/>
<path d="M212.438 294.785C212.614 294.953 212.743 295.113 212.817 295.246C212.891 295.378 212.928 295.529 212.928 295.706C212.928 295.927 212.864 296.131 212.734 296.326C212.605 296.52 212.438 296.689 212.235 296.821C212.031 296.954 211.809 297.025 211.587 297.025C211.43 297.025 211.291 296.99 211.152 296.91C211.013 296.839 210.865 296.751 210.708 296.653C210.477 296.432 210.061 296.131 209.45 295.759C208.839 295.378 208.062 295.024 207.119 294.697C206.175 294.369 205.093 294.201 203.871 294.201C202.188 294.201 200.634 294.475 199.209 295.024C197.784 295.573 196.545 296.396 195.499 297.494C194.454 298.592 193.649 299.955 193.075 301.593C192.502 303.222 192.215 305.125 192.215 307.303C192.215 309.136 192.474 310.729 193.001 312.092C193.529 313.456 194.25 314.589 195.185 315.492C196.11 316.395 197.201 317.068 198.45 317.519C199.699 317.971 201.059 318.192 202.539 318.192C204.473 318.192 206.147 317.82 207.563 317.077C208.978 316.333 210.144 315.483 211.06 314.536C211.263 314.341 211.448 314.208 211.615 314.155C211.781 314.093 211.939 314.067 212.096 314.067C212.327 314.067 212.531 314.12 212.706 314.235C212.882 314.341 213.03 314.492 213.15 314.677C213.261 314.863 213.326 315.058 213.326 315.279C213.326 315.527 213.243 315.775 213.076 316.05C212.91 316.315 212.66 316.607 212.327 316.926C211.05 318.192 209.561 319.13 207.859 319.741C206.157 320.352 204.408 320.653 202.623 320.653C200.18 320.653 197.96 320.157 195.971 319.157C193.982 318.157 192.409 316.669 191.253 314.695C190.097 312.721 189.514 310.26 189.514 307.303C189.514 304.346 189.948 301.921 190.809 299.929C191.678 297.946 192.816 296.352 194.232 295.157C195.647 293.962 197.192 293.103 198.876 292.581C200.56 292.059 202.206 291.793 203.807 291.793C204.926 291.793 206.018 291.917 207.072 292.156C208.127 292.404 209.117 292.74 210.033 293.183C210.949 293.626 211.753 294.157 212.438 294.794V294.785Z" fill="#2B2B2B"/>
<path d="M221.68 294.749C221.217 294.776 220.894 294.67 220.69 294.44C220.487 294.209 220.385 293.944 220.385 293.652C220.385 293.306 220.533 293.014 220.82 292.758C221.116 292.501 221.587 292.341 222.254 292.262C222.864 292.217 223.484 292.164 224.104 292.12C224.724 292.067 225.325 292.032 225.88 292.014C228.276 291.916 230.45 292.147 232.421 292.713C234.382 293.271 235.945 294.156 237.102 295.343C238.258 296.538 238.841 298.06 238.841 299.911C238.841 301.371 238.434 302.619 237.62 303.646C236.806 304.673 235.714 305.514 234.354 306.169C232.994 306.825 231.477 307.329 229.803 307.666C228.137 308.011 226.463 308.223 224.779 308.321C226.407 309.197 227.98 310.127 229.497 311.1C231.014 312.074 232.532 313.084 234.049 314.119C235.566 315.155 237.129 316.235 238.73 317.359C238.906 317.483 239.035 317.634 239.109 317.82C239.183 318.006 239.22 318.183 239.22 318.351C239.22 318.617 239.155 318.847 239.026 319.024C238.896 319.21 238.739 319.351 238.545 319.449C238.351 319.546 238.156 319.59 237.953 319.59C237.694 319.59 237.444 319.528 237.185 319.387C236.926 319.254 236.676 319.103 236.417 318.926C234.835 317.829 233.309 316.784 231.829 315.801C230.348 314.81 228.933 313.871 227.564 312.986C226.204 312.101 224.909 311.295 223.706 310.569C222.494 309.852 221.384 309.224 220.366 308.684C220.006 308.515 219.756 308.312 219.598 308.082C219.441 307.852 219.367 307.612 219.367 307.365C219.367 306.975 219.497 306.692 219.765 306.524C220.033 306.355 220.32 306.258 220.625 306.231L222.614 306.161C224.169 306.116 225.741 305.975 227.332 305.736C228.924 305.506 230.385 305.151 231.708 304.673C233.031 304.195 234.095 303.576 234.9 302.805C235.705 302.035 236.103 301.097 236.103 299.973C236.103 298.928 235.76 297.981 235.094 297.14C234.419 296.299 233.41 295.626 232.078 295.13C230.737 294.634 229.035 294.378 226.972 294.378C226.102 294.378 225.232 294.404 224.354 294.466C223.475 294.528 222.577 294.617 221.661 294.741L221.68 294.749ZM220.191 294.342C220.191 293.979 220.32 293.678 220.57 293.448C220.82 293.218 221.171 293.103 221.597 293.103C221.874 293.103 222.115 293.174 222.328 293.306C222.531 293.439 222.688 293.625 222.809 293.855C222.92 294.085 222.957 294.333 222.901 294.608C222.799 296.343 222.698 298.22 222.596 300.256C222.494 302.292 222.411 304.39 222.346 306.568C222.281 308.737 222.226 310.906 222.17 313.075C222.115 315.244 222.096 317.342 222.096 319.369C222.096 319.829 221.967 320.166 221.698 320.378C221.43 320.582 221.116 320.697 220.764 320.723C220.403 320.723 220.098 320.617 219.83 320.414C219.561 320.21 219.413 319.874 219.395 319.404C219.423 316.678 219.469 313.916 219.524 311.118C219.589 308.33 219.682 305.523 219.793 302.708C219.904 299.893 220.043 297.104 220.191 294.351V294.342Z" fill="#2B2B2B"/>
<path d="M245.919 292.732C245.919 292.315 246.049 292.006 246.317 291.802C246.585 291.598 246.9 291.492 247.251 291.492C247.631 291.492 247.954 291.598 248.223 291.802C248.491 292.006 248.611 292.315 248.583 292.732C248.556 294.759 248.537 296.892 248.509 299.132C248.482 301.372 248.454 303.638 248.435 305.913C248.408 308.197 248.38 310.455 248.361 312.703C248.334 314.943 248.306 317.077 248.287 319.104C248.287 319.52 248.158 319.839 247.89 320.051C247.621 320.273 247.298 320.379 246.918 320.379C246.557 320.379 246.252 320.273 246.002 320.051C245.743 319.83 245.623 319.511 245.623 319.104L245.928 292.732H245.919Z" fill="#2B2B2B"/>
<path d="M256.89 293.28C256.862 292.766 256.964 292.377 257.195 292.111C257.427 291.846 257.741 291.695 258.148 291.669C258.426 291.642 258.676 291.677 258.898 291.775C259.11 291.872 259.286 292.023 259.416 292.235C259.545 292.439 259.61 292.704 259.61 293.023C259.434 297.29 259.351 301.566 259.379 305.86C259.406 310.153 259.277 314.447 258.999 318.732C258.972 319.192 258.851 319.555 258.639 319.812C258.426 320.068 258.121 320.219 257.741 320.272C257.306 320.299 256.955 320.201 256.668 319.998C256.391 319.794 256.261 319.493 256.289 319.103C256.465 316.324 256.566 313.491 256.594 310.596C256.622 307.71 256.64 304.806 256.668 301.894C256.696 298.981 256.77 296.113 256.899 293.28H256.89ZM258.722 294.378V291.996C259.36 291.854 260.073 291.722 260.859 291.615C261.645 291.5 262.681 291.447 263.958 291.447C265.05 291.447 266.197 291.536 267.381 291.722C268.565 291.908 269.666 292.226 270.684 292.687C271.701 293.147 272.534 293.793 273.172 294.608C273.811 295.422 274.125 296.467 274.125 297.733C274.125 298.999 273.663 300.247 272.728 301.477C271.794 302.708 270.36 303.691 268.426 304.425C270.008 304.771 271.313 305.284 272.349 305.966C273.385 306.647 274.153 307.435 274.68 308.33C275.198 309.224 275.467 310.136 275.467 311.092C275.467 312.508 275.041 313.765 274.19 314.881C273.339 315.987 272.21 316.917 270.804 317.66C269.398 318.404 267.862 318.971 266.178 319.36C264.495 319.75 262.829 319.944 261.173 319.944C260.433 319.944 259.693 319.918 258.953 319.856C258.213 319.794 257.63 319.741 257.195 319.688L257.621 317.271C258.204 317.368 258.777 317.43 259.342 317.457C259.906 317.483 260.48 317.492 261.062 317.492C262.413 317.492 263.773 317.351 265.133 317.076C266.493 316.793 267.76 316.386 268.917 315.837C270.073 315.288 270.998 314.615 271.692 313.827C272.377 313.039 272.728 312.101 272.728 311.03C272.728 310.153 272.451 309.392 271.886 308.746C271.322 308.099 270.61 307.577 269.731 307.17C268.852 306.763 267.89 306.462 266.844 306.258C265.799 306.054 264.791 305.948 263.829 305.948C263.088 306.072 262.441 306.152 261.877 306.205C261.312 306.249 260.785 306.276 260.267 306.276C259.351 306.276 258.62 306.178 258.065 305.984C257.519 305.789 257.242 305.408 257.242 304.85C257.242 304.629 257.269 304.434 257.316 304.248C257.362 304.063 257.455 303.912 257.584 303.788C257.714 303.664 257.88 303.62 258.084 303.646C258.518 303.673 258.925 303.7 259.305 303.735C259.684 303.77 260.11 303.788 260.563 303.788C261.682 303.788 262.885 303.673 264.152 303.443C265.429 303.213 266.613 302.859 267.705 302.38C268.796 301.902 269.703 301.3 270.397 300.574C271.1 299.84 271.452 298.981 271.452 297.981C271.452 296.98 271.091 296.148 270.378 295.546C269.666 294.953 268.75 294.519 267.622 294.262C266.502 294.006 265.346 293.882 264.143 293.882C263.607 293.882 262.996 293.917 262.311 293.97C261.627 294.032 260.951 294.094 260.304 294.174C259.656 294.245 259.129 294.324 258.722 294.395V294.378Z" fill="#2B2B2B"/>
<path d="M283.45 320.457C283.191 320.457 282.904 320.44 282.59 320.404C282.266 320.369 282.007 320.254 281.803 320.077C281.6 319.891 281.498 319.608 281.498 319.218C281.729 316.367 281.933 313.49 282.127 310.587C282.321 307.683 282.497 304.806 282.664 301.937C282.83 299.069 282.978 296.254 283.099 293.465C283.154 293.005 283.284 292.633 283.496 292.368C283.709 292.102 284.088 291.952 284.625 291.934C285.948 291.836 287.308 291.757 288.695 291.695C290.083 291.633 291.554 291.589 293.108 291.553C294.662 291.518 296.328 291.5 298.113 291.5C298.622 291.5 298.983 291.606 299.205 291.828C299.418 292.049 299.529 292.323 299.529 292.669C299.529 293.032 299.418 293.341 299.205 293.58C298.992 293.828 298.622 293.943 298.113 293.943C296.837 293.943 295.652 293.943 294.561 293.961C293.469 293.979 292.424 293.997 291.425 294.032C290.435 294.067 289.473 294.103 288.538 294.138C287.613 294.174 286.688 294.227 285.772 294.306C285.717 295.333 285.661 296.422 285.596 297.582C285.532 298.742 285.467 299.884 285.402 301.017C285.337 302.15 285.273 303.257 285.189 304.328C286.364 304.186 287.613 304.071 288.954 304C290.296 303.929 291.591 303.876 292.849 303.85C294.107 303.823 295.153 303.841 295.967 303.885C296.328 303.885 296.624 303.991 296.864 304.195C297.105 304.399 297.244 304.691 297.262 305.054C297.262 305.417 297.133 305.718 296.883 305.948C296.624 306.178 296.318 306.293 295.967 306.293C295.301 306.249 294.366 306.222 293.155 306.24C291.943 306.249 290.629 306.302 289.223 306.39C287.807 306.479 286.429 306.603 285.078 306.771C284.976 308.604 284.856 310.463 284.717 312.348C284.579 314.243 284.431 316.102 284.283 317.926C285.199 317.855 286.225 317.784 287.363 317.704C288.501 317.633 289.667 317.554 290.879 317.483C292.091 317.412 293.266 317.35 294.394 317.297C295.532 317.253 296.55 317.226 297.475 317.226C297.882 317.226 298.187 317.332 298.391 317.554C298.594 317.775 298.696 318.05 298.696 318.395C298.696 318.758 298.594 319.068 298.391 319.307C298.187 319.554 297.882 319.67 297.475 319.67H295.865C295.329 319.67 294.81 319.678 294.302 319.705C293.099 319.732 291.896 319.776 290.694 319.855C289.482 319.926 288.279 320.015 287.086 320.112C285.892 320.21 284.68 320.316 283.459 320.44L283.45 320.457Z" fill="#2B2B2B"/>
<g opacity="0.3">
<path d="M161.91 342.803C161.429 341.254 161.355 341.183 159.977 340.82V341.431C159.523 341.591 158.913 341.369 158.607 341.918C158.768 342.673 159.224 343.125 159.977 343.273V343.582C160.809 343.706 161.327 343.184 161.91 342.812V342.803Z" fill="#070707"/>
<path d="M198.683 340.652C196.63 340.953 196.408 343.051 197.693 343.733C198.295 343.733 198.887 343.724 199.488 343.715C201.033 342.901 200.672 340.803 198.683 340.652Z" fill="#070707"/>
<path d="M258.075 339.421C257.909 338.696 257.761 338.014 257.594 337.27C256.345 336.677 254.699 337.394 254.338 338.766C255.161 340.28 256.789 340.873 258.075 339.413V339.421Z" fill="#070707"/>
<path d="M322.851 327.08C322.657 326.797 322.416 326.629 322.148 326.531C321.954 327.523 321.704 328.249 321.399 328.638C321.278 328.798 320.825 328.939 320.066 329.09C321.214 330.134 323.573 329.125 322.842 327.08H322.851Z" fill="#070707"/>
<path d="M219.34 332.579C219.562 332.286 219.654 331.994 219.654 331.711C218.488 331.711 217.314 331.729 216.139 331.737C216.925 332.995 217.98 332.844 219.33 332.579H219.34Z" fill="#070707"/>
<path d="M269.149 341.388C267.724 340.042 265.902 341.29 266.013 342.822C267.123 342.795 268.224 342.777 269.325 342.751C269.436 342.335 269.38 341.83 269.149 341.388Z" fill="#070707"/>
<path d="M322.213 297.283C322.25 298.009 322.287 298.744 322.324 299.488C323.221 298.709 322.999 297.867 322.213 297.283Z" fill="#070707"/>
<path d="M296.883 342.016C297.836 341.98 298.77 341.954 299.677 341.918C299.214 340.272 297.558 340.962 296.883 342.016Z" fill="#070707"/>
<path d="M275.679 340.68C274.717 341.069 273.607 341.361 273.496 342.663C274.68 342.636 275.846 342.61 277.002 342.583C277.058 342.468 277.113 342.362 277.16 342.229C276.623 341.671 276.17 341.202 275.679 340.68Z" fill="#070707"/>
<path d="M281.23 335.394C282.146 335.916 282.516 337.04 283.691 336.544C284.108 335.951 284.478 335.42 284.875 334.854C284.755 334.508 284.626 334.137 284.468 333.694C282.775 332.481 281.98 334.154 281.23 335.402V335.394Z" fill="#070707"/>
<path d="M315.561 335.164C315.006 333.34 313.23 333.11 312.166 334.677C312.268 337.386 314.59 337.51 315.561 335.164Z" fill="#070707"/>
<path d="M258.853 341.422C258.807 341.944 258.409 342.537 258.464 342.962C259.537 342.945 260.601 342.927 261.656 342.9C262.119 341.626 260.416 339.935 258.853 341.413V341.422Z" fill="#070707"/>
<path d="M194.473 340.635C196.61 340.183 197.156 338.085 195.084 337.28C192.734 337.023 193.03 339.581 194.473 340.635Z" fill="#070707"/>
<path d="M323.11 290.873C322.777 290.527 322.268 289.492 321.723 289.314C321.787 290.333 321.861 291.413 321.935 292.537C322.074 292.537 322.231 292.528 322.426 292.519C322.768 292.077 323.471 291.492 323.11 290.881V290.873Z" fill="#070707"/>
<path d="M320.641 333.659C320.021 334.261 320.058 334.987 319.947 335.713C322.732 338.962 325.054 332.959 320.641 333.659Z" fill="#070707"/>
<path d="M253.811 335.995C253.913 333.817 251.434 332.295 250.73 334.924C250.832 336.579 252.71 337.677 253.811 335.995Z" fill="#070707"/>
<path d="M199.043 333.49C197.471 333.357 197.304 334.402 197.082 335.393C197.961 336.73 199.376 336.934 200.551 335.747C200.718 334.508 199.552 334.18 199.043 333.49Z" fill="#070707"/>
<path d="M311.741 339.182C311.5 338.226 310.988 337.509 310.205 337.031C308.975 337.261 308.494 338.085 308.309 339.368C309.604 340.192 310.834 340.705 311.741 339.182Z" fill="#070707"/>
<path d="M246.048 341.459C244.605 340.148 242.847 341.618 243.115 343.22C244.096 343.203 245.077 343.194 246.048 343.176C246.242 342.769 246.279 342.211 246.048 341.459Z" fill="#070707"/>
<path d="M176.822 343.786C177.719 342.051 176.572 340.103 174.555 341.351C174.333 341.803 174.139 342.21 173.824 342.856C174.287 343.166 174.712 343.6 175.175 343.874C175.684 343.874 176.183 343.874 176.692 343.874C176.738 343.848 176.775 343.839 176.822 343.803V343.786Z" fill="#070707"/>
<path d="M235.42 342.52C235.475 342.848 235.651 343.114 235.873 343.335C236.687 343.326 237.501 343.308 238.316 343.299C238.482 343.06 238.602 342.759 238.593 342.343C238.713 340.52 235.226 340.396 235.42 342.52Z" fill="#070707"/>
<path d="M322.749 319.557C322.731 320.052 322.722 320.548 322.703 321.017C322.971 320.592 323.027 320.079 322.749 319.557Z" fill="#070707"/>
<path d="M325.312 307.756C324.257 308.03 323.591 308.668 323.193 309.792C326.838 312.094 328.448 309.65 325.312 307.756Z" fill="#070707"/>
<path d="M326.636 322.7C326.182 322.594 325.683 322.479 325.035 322.328C320.761 325.497 327.098 327.312 326.636 322.7Z" fill="#070707"/>
<path d="M265.727 339.254C265.791 337.023 262.868 337.147 262.285 339.068C263.192 340.865 264.82 340.998 265.727 339.254Z" fill="#070707"/>
<path d="M261.628 335.73C261.415 334.809 261.443 333.853 260.444 333.357C259.62 333.464 257.789 334.588 258.714 335.394C258.982 335.562 258.982 335.783 258.945 336.049C259.13 337.315 261.045 336.235 261.628 335.73Z" fill="#070707"/>
<path d="M252.321 340.652C251.673 341.042 251.331 341.502 250.748 342.06C250.989 342.423 251.146 342.777 251.303 343.105C252.08 343.096 252.857 343.078 253.634 343.069C254.078 342.095 253.819 341.095 252.321 340.661V340.652Z" fill="#070707"/>
<path d="M204.797 334.827C205.454 336.633 205.537 336.686 207.128 336.492C207.47 336.093 207.794 335.704 208.137 335.314C207.896 334.553 207.137 334.057 206.675 333.455C205.793 333.632 205.17 334.09 204.806 334.827H204.797Z" fill="#070707"/>
<path d="M312.676 341.342C313.333 341.307 313.971 341.271 314.572 341.236C313.823 340.484 313.138 340.492 312.676 341.342Z" fill="#070707"/>
<path d="M272.517 337.254C271.37 337.316 270.667 337.962 269.945 338.67C270.843 342.185 274.46 339.75 272.517 337.254Z" fill="#070707"/>
<path d="M250.377 338.828C250.137 337.748 249.48 337.527 248.508 337.412C246.917 336.951 246.427 339.023 247.435 339.873C248.508 340.156 249.841 339.793 250.377 338.828Z" fill="#070707"/>
<path d="M210.024 336.996C209.21 337.669 208.544 338.289 208.59 339.448C209.432 340.139 210.163 340.573 211.125 339.829C213.271 338.899 210.773 338.014 210.015 336.996H210.024Z" fill="#070707"/>
<path d="M277.27 335.411C276.826 334.774 276.299 334.305 275.67 333.889C275.069 334.039 274.467 334.19 273.866 334.34C273.718 334.623 273.579 334.889 273.459 335.128C273.894 337.031 276.373 337.067 277.261 335.411H277.27Z" fill="#070707"/>
<path d="M295.051 332.941C296.541 332.897 296.263 331.56 295.541 330.568C294.857 330.586 294.163 330.613 293.451 330.63C292.914 331.728 293.377 333.1 295.042 332.941H295.051Z" fill="#070707"/>
<path d="M256.021 332.863C257.057 332.544 257.853 332.075 257.668 331.34C256.66 331.358 255.642 331.366 254.615 331.384C254.597 331.482 254.578 331.579 254.578 331.676C254.828 332.331 255.346 332.65 256.021 332.871V332.863Z" fill="#070707"/>
<path d="M326.682 316.068C326.229 315.714 325.776 315.368 325.23 314.943C323.056 315.59 323.139 318.538 325.646 318.201C325.952 317.502 327.099 317.157 326.682 316.077V316.068Z" fill="#070707"/>
<path d="M327.486 313.103C327.634 314.67 328.837 314.909 329.67 314.342C329.697 313.501 329.716 312.66 329.716 311.819C328.744 311.226 327.625 311.58 327.486 313.103Z" fill="#070707"/>
<path d="M322.787 312.898C322.787 313.261 322.787 313.616 322.796 313.978C322.972 313.722 323 313.376 322.787 312.898Z" fill="#070707"/>
<path d="M215.113 341.378H214.391C214.253 341.166 214.114 340.971 214.003 340.803C213.513 341.139 213.068 341.449 212.476 341.856C212.199 342.777 212.652 343.228 213.226 343.591C213.855 343.591 214.484 343.583 215.113 343.574C215.557 342.972 215.548 342.042 215.113 341.378Z" fill="#070707"/>
<path d="M208.212 342.14C207.491 341.627 206.862 341.184 206.186 340.697C204.808 341.14 204.484 342.955 205.344 343.672C205.909 343.672 206.473 343.663 207.037 343.654C207.454 343.211 207.463 342.521 208.212 342.14Z" fill="#070707"/>
<path d="M294.034 337.589C293.146 338.315 292.637 340.369 294.376 340.298C297.216 340.776 296.115 336.049 294.034 337.589Z" fill="#070707"/>
<path d="M287.243 333.208C287.66 332.73 288.02 332.305 288.344 331.933C288.316 331.544 288.289 331.198 288.252 330.773C287.326 330.8 286.374 330.818 285.421 330.844C285.245 331.012 285.097 331.207 285.014 331.455C285.874 332.075 286.004 333.438 287.243 333.217V333.208Z" fill="#070707"/>
<path d="M300.639 338.43C300.593 342.927 306.421 338.97 302.101 337.314C301.829 337.769 301.342 338.141 300.639 338.43Z" fill="#070707"/>
<path d="M279.307 336.951C278.474 337.296 277.493 337.535 277.604 338.81C279.788 341.758 282.507 337.916 279.307 336.951Z" fill="#070707"/>
<path d="M188.376 332.808C188.598 332.463 188.746 332.153 188.848 331.879C187.867 331.879 186.887 331.879 185.906 331.888C185.98 332.091 186.045 332.277 186.119 332.49C186.85 332.605 187.46 333.171 188.376 332.817V332.808Z" fill="#070707"/>
<path d="M188.339 340.166C188.95 337.803 186.896 335.908 185.619 338.652C185.823 339.786 186.692 340.113 187.506 340.582C187.784 340.441 188.061 340.308 188.339 340.166Z" fill="#070707"/>
<path d="M323.962 301.009C322.111 305.799 329.078 303.134 325.294 300.398C324.924 300.567 324.507 300.761 323.962 301.009Z" fill="#070707"/>
<path d="M189.303 334.607C190.135 335.457 190.45 336.74 191.736 336.882C192.883 336.43 192.568 335.235 192.439 334.315C191.838 333.58 189.886 334.067 189.303 334.607Z" fill="#070707"/>
<path d="M204.419 338.838C203.984 338.033 203.364 337.555 202.411 337.289C201.865 337.723 201.403 338.104 200.885 338.52C202.171 340.866 202.67 341.105 204.419 338.847V338.838Z" fill="#070707"/>
<path d="M165.397 331.941C164.574 331.941 163.759 331.941 162.945 331.941C163.732 333.004 164.842 332.658 165.397 331.941Z" fill="#070707"/>
<path d="M238.249 336.165C239.026 335.598 238.166 334.916 238.249 334.217C237.935 333.04 235.538 333.863 235.733 334.978C235.474 336.43 237.231 337.121 238.258 336.165H238.249Z" fill="#070707"/>
<path d="M326.645 293.875C326.256 293.618 325.822 293.335 325.359 293.043C324.378 293.618 323.398 294.123 323.666 295.575C325.461 296.026 327.329 296.301 326.636 293.875H326.645Z" fill="#070707"/>
<path d="M327.219 327.267C327.533 327.789 327.829 328.32 328.255 328.701C328.375 328.01 328.495 327.293 328.606 326.559C328.107 326.683 327.626 326.86 327.219 327.267Z" fill="#070707"/>
<path d="M227.76 342.034C227.593 342.796 227.797 343.212 228.176 343.433C228.916 343.424 229.656 343.415 230.387 343.407C231.423 341.37 228.481 339.786 227.76 342.043V342.034Z" fill="#070707"/>
<path d="M328.217 307.18C328.947 307.234 329.354 307.251 329.66 307.101C329.623 306.18 329.586 305.259 329.521 304.348C329.419 304.312 329.308 304.268 329.206 304.232C327.504 304.569 327.791 305.932 328.217 307.18Z" fill="#070707"/>
<path d="M170.217 338.766C170.356 339.873 171.234 340.024 172.086 340.519C172.576 340.086 173.001 339.705 173.371 339.377V337.766C171.882 336.482 171.521 338.377 170.217 338.775V338.766Z" fill="#070707"/>
<path d="M228.175 334.067C228.055 334.448 227.925 334.872 227.74 335.457C228.804 336.404 229.683 337.077 230.886 335.811V334.483C230.072 333.668 229.193 333.642 228.175 334.076V334.067Z" fill="#070707"/>
<path d="M211.754 331.764C210.755 331.764 209.756 331.773 208.747 331.781C208.701 331.888 208.664 331.994 208.627 332.109C209.487 333.047 211.939 333.525 211.754 331.764Z" fill="#070707"/>
<path d="M280.954 332.047C280.834 331.604 280.621 331.259 280.362 330.949C279.464 330.967 278.548 330.985 277.633 331.002C277.392 332.817 279.705 333.092 280.954 332.038V332.047Z" fill="#070707"/>
<path d="M317.32 329.658C316.821 330.499 314.878 331.606 316.608 332.305C317.533 332.465 318.375 332.951 319.096 332.04C318.967 331.03 318.939 329.941 317.32 329.658Z" fill="#070707"/>
<path d="M289.131 334.651C289.39 336.997 291.37 336.448 292.628 335.076C291.98 334.483 291.888 333.527 290.935 333.332C290.306 333.792 289.732 334.217 289.14 334.651H289.131Z" fill="#070707"/>
<path d="M183.334 333.588C182.677 334.084 182.067 334.535 181.475 334.978C182.03 337.377 184.5 336.872 184.944 334.659C184.379 334.278 183.88 333.951 183.343 333.588H183.334Z" fill="#070707"/>
<path d="M299.4 336.279C299.687 335.898 299.955 335.544 300.26 335.145C299.955 334.729 299.668 334.331 299.4 333.968C297.309 333.773 297.143 333.95 296.865 335.818C297.596 336.535 298.503 336.305 299.4 336.287V336.279Z" fill="#070707"/>
<path d="M217.278 340.236C218.018 339.909 218.916 339.705 219.443 338.776C217.926 335.146 214.993 338.705 217.278 340.236Z" fill="#070707"/>
<path d="M317.642 340.617C317.938 339.697 319.169 339.679 319.409 338.643C318.79 338.227 318.17 337.793 317.476 337.324C315.348 338.077 316.153 339.962 317.652 340.617H317.642Z" fill="#070707"/>
<path d="M173.418 332.535C173.465 332.313 173.502 332.11 173.511 331.924C172.539 331.924 171.577 331.924 170.615 331.924C170.652 332.127 170.698 332.34 170.791 332.57C171.614 332.685 172.447 332.694 173.428 332.535H173.418Z" fill="#070707"/>
<path d="M324.637 329.977C324.304 330.463 324.017 330.871 323.721 331.313C324.951 335.501 329.225 330.233 324.637 329.977Z" fill="#070707"/>
<path d="M311.704 331.747C312.194 330.082 310.214 329.861 309.03 330.366C307.772 333.101 310.029 333.163 311.704 331.747Z" fill="#070707"/>
<path d="M225.382 332.88C225.817 332.667 226.233 332.464 226.696 332.234C226.733 332.012 226.77 331.826 226.798 331.658C225.956 331.658 225.123 331.676 224.281 331.676V332.499C224.679 332.632 225.021 332.756 225.382 332.88Z" fill="#070707"/>
<path d="M223.003 341.715C220.875 340.068 220.422 341.255 220.107 343.3C220.635 343.255 221.125 343.397 221.625 343.512C222.161 343.512 222.688 343.503 223.225 343.494C223.253 343.486 223.29 343.477 223.318 343.468C223.068 342.822 222.948 342.317 223.012 341.715H223.003Z" fill="#070707"/>
<path d="M281.629 342.468C282.563 342.441 283.488 342.424 284.404 342.397C284.432 340.768 282.212 341.025 281.629 342.468Z" fill="#070707"/>
<path d="M306.903 333.73C306.144 333.925 305.34 334.129 304.553 334.332C303.23 338.573 309.197 335.793 306.903 333.73Z" fill="#070707"/>
<path d="M242.644 331.508C241.525 331.517 240.405 331.534 239.268 331.543C240.128 332.88 242.283 333.163 242.644 331.508Z" fill="#070707"/>
<path d="M265.373 332.145C265.355 331.765 265.309 331.472 265.244 331.225C264.254 331.242 263.246 331.251 262.237 331.269C262.237 331.278 262.228 331.287 262.219 331.304C262.829 332.535 264.393 333.048 265.373 332.154V332.145Z" fill="#070707"/>
<path d="M223.975 338.75C224.086 340.095 226.657 340.768 227.092 339.475C227.25 337.838 224.409 336.66 223.975 338.75Z" fill="#070707"/>
<path d="M248.685 332.88C249.435 332.295 249.944 331.862 250.036 331.428C249.055 331.437 248.066 331.454 247.066 331.463C247.122 331.977 247.668 332.481 248.685 332.88Z" fill="#070707"/>
<path d="M289.141 341.476C289.159 341.733 289.178 341.99 289.205 342.264C290.177 342.237 291.13 342.211 292.064 342.176C291.833 341.069 290.501 340.44 289.15 341.476H289.141Z" fill="#070707"/>
<path d="M304.924 341.715C305.553 341.688 306.173 341.662 306.783 341.635C306.802 341.591 306.811 341.556 306.83 341.511C306.968 340.228 305.803 341.042 304.924 341.715Z" fill="#070707"/>
<path d="M163.02 339.536C164.87 340.855 167.775 338.261 164.547 337.367C163.446 337.898 162.03 338.049 163.02 339.536Z" fill="#070707"/>
<path d="M272.923 331.092C271.951 331.11 270.98 331.127 269.99 331.145C270.166 333.464 273.247 332.907 272.923 331.092Z" fill="#070707"/>
<path d="M322.436 284.632C322.575 283.897 322.917 282.339 321.622 282.587C321.502 282.622 321.372 282.658 321.252 282.702C321.307 283.401 321.372 284.234 321.437 285.181C321.863 285.216 322.242 285.119 322.436 284.632Z" fill="#070707"/>
<path d="M324.471 288.882C325.267 288.935 326.007 288.528 326.405 288.006C326.127 287.298 325.831 286.625 325.526 285.979C324.261 286.687 323.913 287.655 324.48 288.882H324.471Z" fill="#070707"/>
<path d="M239.267 339.386C239.609 340.049 240.275 340.147 240.775 340.572C241.339 339.864 241.839 339.244 242.357 338.598C242.079 338.128 241.839 337.704 241.571 337.261C241.016 337.296 240.488 337.093 239.868 337.535C240.692 338.412 239.915 338.899 239.258 339.377L239.267 339.386Z" fill="#070707"/>
<path d="M168.404 333.658C165.324 333.676 166.896 338.04 169.191 335.845C169.311 335.03 169.468 334.216 168.404 333.658Z" fill="#070707"/>
<path d="M329.207 321.593C329.281 320.814 329.346 320.026 329.411 319.23C328.911 319.168 328.338 319.274 327.856 319.353C326.719 320.15 327.949 321.398 329.207 321.584V321.593Z" fill="#070707"/>
<path d="M234.688 331.808C234.688 331.728 234.688 331.667 234.688 331.596C233.698 331.605 232.708 331.613 231.709 331.622C231.432 332.711 232.921 333.233 234.697 331.808H234.688Z" fill="#070707"/>
<path d="M234.66 338.723C234.188 338.095 232.449 336.608 231.996 337.803C232.236 338.458 231.737 338.936 231.635 339.458C232.273 340.512 234.993 340.104 234.66 338.723Z" fill="#070707"/>
<path d="M212.338 335.119C212.939 336.908 215.622 336.571 215.548 334.783C214.873 333.269 213.133 333.898 212.338 335.119Z" fill="#070707"/>
<path d="M220.46 335.207C220.996 336.668 222.865 336.429 223.623 335.181C223.364 334.915 223.059 334.756 223.031 334.561C222.643 333.038 219.951 333.676 220.45 335.207H220.46Z" fill="#070707"/>
<path d="M174.222 334.952C174.722 337.103 177.034 336.723 177.192 334.669C177.016 334.403 176.849 334.155 176.729 333.978C175.628 333.73 174.833 333.978 174.213 334.952H174.222Z" fill="#070707"/>
<path d="M246.39 335.784C246.492 334.518 245.585 334.101 244.558 333.57C242.338 335.766 243.828 337.014 246.39 335.784Z" fill="#070707"/>
<path d="M180.754 338.138C179.126 337.182 178.691 337.297 177.951 338.873C178.145 339.192 178.349 339.537 178.59 339.927H180.625C180.671 339.28 180.717 338.696 180.754 338.147V338.138Z" fill="#070707"/>
<path d="M269.528 335.614C269.093 335.11 268.705 334.658 268.335 334.233C267.743 334.18 267.225 334.136 266.651 334.092C265.929 336.358 267.706 337.403 269.528 335.614Z" fill="#070707"/>
<path d="M181.549 342.467C181.789 342.821 182.002 343.148 182.326 343.635C183.797 343.945 186.174 343.202 184.01 341.909C183.131 340.679 182.261 341.714 181.549 342.476V342.467Z" fill="#070707"/>
<path d="M180.18 332.34C180.337 332.198 180.466 332.048 180.587 331.906C179.819 331.906 179.051 331.906 178.283 331.906C178.588 332.243 179.199 332.455 180.18 332.331V332.34Z" fill="#070707"/>
<path d="M300.594 332.144C302.296 333.295 303.591 333.322 303.351 330.914C302.435 329.55 300.797 330.852 300.594 332.144Z" fill="#070707"/>
<path d="M324.213 339.953C324.758 339.51 325.277 338.722 325.776 337.651C324.62 337.616 323.334 338.908 324.213 339.953Z" fill="#070707"/>
<path d="M322.621 306.357C322.825 306.224 322.834 305.95 322.584 305.295C322.593 305.649 322.612 306.003 322.621 306.357Z" fill="#070707"/>
<path d="M189.783 341.866C190.042 342.467 190.311 343.069 190.625 343.778C190.81 343.778 190.995 343.778 191.18 343.778C194.307 342.326 191.032 340.015 189.783 341.866Z" fill="#070707"/>
<path d="M327.865 297.363C327.375 298.487 328.624 298.806 328.837 299.514C328.92 299.54 329.003 299.549 329.077 299.567C328.975 298.779 328.874 297.991 328.753 297.23C328.429 297.221 328.124 297.256 327.865 297.363Z" fill="#070707"/>
<path d="M203.651 331.809C202.847 331.809 202.042 331.809 201.246 331.817C201.274 332.729 202.671 332.889 203.651 331.809Z" fill="#070707"/>
<path d="M195.333 331.845C194.862 331.845 194.39 331.845 193.918 331.845C194.001 332.093 194.14 332.332 194.344 332.526C194.88 332.695 195.037 332.172 195.333 331.836V331.845Z" fill="#070707"/>
<path d="M287.392 339.998C287.772 339.449 288.058 339.033 288.327 338.643C288.132 338.05 287.836 337.59 287.198 337.307C285.274 337.82 285.255 339.785 287.392 340.007V339.998Z" fill="#070707"/>
<path d="M167.562 343.282H169.153V342.033C168.765 341.732 168.367 341.414 167.895 341.051C166.443 341.644 167.201 342.379 167.553 343.282H167.562Z" fill="#070707"/>
<path d="M159.985 335.926C160.975 336.05 161.502 336.244 161.845 335.005C161.428 334.314 160.845 333.863 159.985 333.783V334.093C158.579 334.235 158.357 337.068 159.985 335.926Z" fill="#070707"/>
<path d="M96.9565 334.517C96.9843 335.615 97.2803 336.465 98.3442 336.881C99.5098 336.456 100.99 336.252 100.527 334.721C98.8623 333.109 98.9455 332.888 96.9473 334.517H96.9565Z" fill="#070707"/>
<path d="M138.578 343.175C137.986 341.511 137.912 340.068 135.674 340.688C134.563 341.989 135.387 343.547 136.589 343.892C136.904 343.892 137.219 343.892 137.533 343.892C137.894 343.786 138.245 343.565 138.569 343.175H138.578Z" fill="#070707"/>
<path d="M77.5017 335.811C77.9642 334.199 75.9197 332.562 74.5598 333.606C72.9131 335.226 75.966 337.254 77.5017 335.811Z" fill="#070707"/>
<path d="M106.448 336.873C106.883 336.589 107.355 336.28 107.882 335.943C107.66 330.844 101.36 335.332 106.448 336.873Z" fill="#070707"/>
<path d="M81.2844 331.905C81.2844 331.905 81.2844 331.897 81.2844 331.888C80.128 331.888 79.0548 331.888 78.0742 331.879C78.6108 333.039 80.2667 333.304 81.2844 331.905Z" fill="#070707"/>
<path d="M112.119 332.72C112.119 332.446 112.1 332.198 112.063 331.959C110.907 331.959 109.769 331.959 108.649 331.959C108.649 332.003 108.64 332.039 108.631 332.083C109.186 332.431 110.345 332.644 112.109 332.72H112.119Z" fill="#070707"/>
<path d="M131.639 339.776C132.749 340.581 133.72 340.396 134.654 339.634C135.256 335.978 131.028 336.722 131.639 339.776Z" fill="#070707"/>
<path d="M92.0545 341.299C89.7232 340.83 88.5761 342.105 89.5474 343.273C90.4263 343.3 91.3422 343.326 92.3043 343.353C92.6836 342.733 92.6743 341.901 92.0545 341.299Z" fill="#070707"/>
<path d="M122.935 341.52C121.899 340.024 120.539 341.502 119.762 342.423C120.104 343.14 120.668 343.592 121.251 343.795C121.695 343.795 122.139 343.795 122.583 343.804C123.231 343.521 123.555 342.751 122.926 341.511L122.935 341.52Z" fill="#070707"/>
<path d="M111.361 339.803C111.444 339.396 111.537 338.962 111.62 338.555C111.287 338.112 110.991 337.705 110.649 337.253C109.825 337.289 108.956 337.068 108.262 337.546C108.419 338.165 108.549 338.705 108.706 339.369C109.612 339.909 110.399 340.759 111.352 339.794L111.361 339.803Z" fill="#070707"/>
<path d="M126.976 337.403C126.393 337.155 125.829 337.244 125.163 337.146C124.247 338.492 123.202 339.298 124.839 340.537C125.481 340.561 126.138 340.407 126.81 340.077C126.458 339.749 126.208 339.519 125.912 339.245C126.44 338.678 127.309 338.315 126.967 337.403H126.976Z" fill="#070707"/>
<path d="M115.885 342.335C115.33 341.742 114.812 341.184 114.275 340.6C112.749 341.033 111.926 342.591 113.073 343.725C113.378 343.725 113.683 343.725 113.989 343.733C114.775 343.592 115.617 343.503 115.876 342.335H115.885Z" fill="#070707"/>
<path d="M104.321 338.899C103.738 338.252 103.489 337.261 102.286 337.102C101.851 337.447 101.37 337.819 100.861 338.226C101.259 339.102 101.49 340.005 102.416 340.554C103.35 340.377 103.997 339.872 104.321 338.899Z" fill="#070707"/>
<path d="M80.5728 337.245C78.6393 336.156 77.0758 339.148 78.7873 340.228C80.7208 340.157 81.7199 339.006 80.5728 337.245Z" fill="#070707"/>
<path d="M84.8748 335.146C84.588 334.499 84.6435 333.623 83.6907 333.357C81.3871 333.596 81.2576 336.314 83.4316 336.863C84.1532 336.5 84.6158 335.916 84.8841 335.146H84.8748Z" fill="#070707"/>
<path d="M147.245 338.943C147.652 339.749 147.837 340.448 148.957 340.546C149.41 340.2 149.891 339.829 150.456 339.404C150.428 337.899 149.096 337.66 147.791 337.332C147.005 337.837 146.681 338.191 147.245 338.943Z" fill="#070707"/>
<path d="M151.612 343.884C153.147 344.061 153.924 343.335 153.813 341.387C151.741 340.033 149.53 342.105 151.612 343.884Z" fill="#070707"/>
<path d="M102.951 333.268C103.155 332.79 103.451 332.374 103.682 331.949C102.757 331.949 101.832 331.949 100.935 331.949C100.935 332.002 100.925 332.047 100.916 332.1C101.342 332.773 101.961 333.162 102.942 333.268H102.951Z" fill="#070707"/>
<path d="M112.129 335.615C113.535 336.784 115.654 336.474 115.607 334.464C115.052 334.057 114.525 333.677 114.016 333.305C113.489 333.632 113.054 333.907 112.573 334.208C112.434 334.65 112.286 335.12 112.129 335.624V335.615Z" fill="#070707"/>
<path d="M95.143 333.206C95.9479 333.038 96.3364 332.507 96.4104 331.932C95.3835 331.932 94.3752 331.932 93.3945 331.932C93.5333 332.436 94.1624 332.826 95.143 333.215V333.206Z" fill="#070707"/>
<path d="M145.684 341.308C143.769 340.794 142.538 342.14 143.537 343.866C143.565 343.884 143.593 343.893 143.62 343.902C144.111 343.902 144.61 343.902 145.101 343.902C146.072 343.495 146.738 342.37 145.674 341.299L145.684 341.308Z" fill="#070707"/>
<path d="M74.8926 341.245C75.3829 341.838 75.901 342.227 76.4468 342.369C76.6133 342.413 76.8261 342.458 77.0851 342.493C77.1129 342.316 77.1406 342.13 77.1221 341.926C76.5393 341.015 75.7067 341.209 74.8926 341.245Z" fill="#070707"/>
<path d="M88.6392 331.914C87.6309 331.914 86.6687 331.914 85.7344 331.914C85.8916 332.259 86.1414 332.578 86.4652 332.897C87.4458 333.065 88.1397 332.658 88.6392 331.923V331.914Z" fill="#070707"/>
<path d="M124.396 331.969C124.85 332.783 126.034 333.314 127.061 332.376C127.079 332.234 127.089 332.102 127.098 331.969C126.191 331.969 125.294 331.969 124.396 331.969Z" fill="#070707"/>
<path d="M71.6547 332.809C71.812 332.862 71.9692 332.906 72.1543 332.906C72.8481 332.791 73.1719 332.366 73.2366 331.861C72.4318 331.861 71.8305 331.861 71.4512 331.861C71.5159 332.18 71.5899 332.499 71.6547 332.809Z" fill="#070707"/>
<path d="M131.13 342.822C130.815 341.14 128.614 340.6 127.846 342.229C128.105 342.37 128.364 342.521 128.632 342.663C128.558 342.946 128.493 343.185 128.419 343.468C128.503 343.619 128.604 343.743 128.715 343.84C129.27 343.84 129.835 343.84 130.399 343.849C130.732 343.61 131.01 343.256 131.13 342.813V342.822Z" fill="#070707"/>
<path d="M82.2667 341.334C81.6098 341.954 81.7486 342.45 82.0816 342.945C82.868 342.99 83.7283 343.034 84.6535 343.078C84.9217 341.945 83.8579 340.245 82.2667 341.334Z" fill="#070707"/>
<path d="M73.0605 337.758C73.1716 338.068 73.2918 338.36 73.4121 338.634C73.5324 338.298 73.4121 338.05 73.0605 337.758Z" fill="#070707"/>
<path d="M116.43 339.857C117.651 341.167 118.576 340.22 119.501 339.122C118.789 338.387 118.382 337.847 117.845 336.988C116.661 337.564 116.55 338.608 116.43 339.848V339.857Z" fill="#070707"/>
<path d="M157.562 331.959C156.59 331.959 155.628 331.959 154.666 331.959C154.666 332.012 154.666 332.056 154.666 332.109C155.24 333.491 157.007 333.03 157.571 331.959H157.562Z" fill="#070707"/>
<path d="M139.113 338.634C139.187 339.351 139.816 339.714 140.177 340.351C140.917 339.971 141.805 340.219 142.388 339.546C142.259 339.032 142.129 338.545 141.99 338.005C140.757 337.592 139.798 337.805 139.113 338.643V338.634Z" fill="#070707"/>
<path d="M107.532 341.724C106.939 341.45 106.44 341.211 105.913 340.963C105.422 341.397 105.034 341.698 104.516 342.078C104.516 342.928 104.96 343.371 105.57 343.628C106.125 343.628 106.699 343.645 107.263 343.654C107.744 343.052 107.643 342.379 107.522 341.724H107.532Z" fill="#070707"/>
<path d="M93.8765 337.474C92.202 338.563 94.0522 340.431 95.5972 339.882C96.7721 338.492 95.773 336.42 93.8765 337.474Z" fill="#070707"/>
<path d="M91.3329 336.615C92.2672 336.19 92.4985 335.366 92.8408 334.561C89.8989 332.259 88.3262 334.941 91.3329 336.615Z" fill="#070707"/>
<path d="M119.261 331.969C118.336 331.969 117.42 331.969 116.514 331.969C117.309 332.81 118.78 332.96 119.261 331.969Z" fill="#070707"/>
<path d="M135.617 335.712C136.098 336.305 136.635 336.748 137.495 336.89C138.642 335.402 138.679 335.128 137.921 334.083C136.209 334.145 135.756 333.596 135.626 335.712H135.617Z" fill="#070707"/>
<path d="M134.248 331.977C133.48 331.977 132.721 331.977 131.963 331.977C132.342 332.826 133.471 332.835 134.248 331.977Z" fill="#070707"/>
<path d="M149.947 331.969C149.152 331.969 148.356 331.969 147.561 331.969C148.134 332.774 149.041 332.836 149.947 331.969Z" fill="#070707"/>
<path d="M142.13 331.969C141.343 331.969 140.566 331.969 139.789 331.969C140.094 332.358 140.4 332.748 140.686 333.12C141.584 332.704 141.76 332.615 142.13 331.969Z" fill="#070707"/>
<path d="M87.2058 337.633C84.9763 337.845 85.3926 339.996 87.3538 340.218C89.2595 339.757 88.9635 337.925 87.2058 337.633Z" fill="#070707"/>
<path d="M100.25 342.972C100.111 341.051 98.5288 340.776 97.1504 341.998C97.5112 342.414 97.5297 342.99 97.835 343.485C98.316 343.494 98.8064 343.503 99.3059 343.512C99.6112 343.361 99.9165 343.184 100.25 342.972Z" fill="#070707"/>
<path d="M120.158 335.765C121.278 335.632 121.796 336.65 122.675 336.137C122.86 335.65 123.026 335.19 123.202 334.721C122.804 333.915 122.008 333.826 121.204 333.658C120.556 334.207 120.538 334.995 120.158 335.765Z" fill="#070707"/>
<path d="M154.639 339.21C155.286 339.892 156.193 339.785 157.035 339.971C157.294 339.52 157.516 339.13 157.812 338.617C157.109 336.767 155.11 337.758 154.639 339.21Z" fill="#070707"/>
<path d="M143.961 335.375C144.748 335.969 145.183 336.695 146.274 336.11C145.747 335.154 145.599 334.118 144.655 333.277C143.924 333.897 142.722 334.588 143.961 335.375Z" fill="#070707"/>
<path d="M127.875 335.651C129.105 337.315 129.642 337.059 130.9 335.607C130.16 334.385 128.245 333.889 127.875 335.651Z" fill="#070707"/>
<path d="M153.065 335.943C154.637 334.536 152.907 333.429 151.233 334.164C150.613 335.403 151.982 336.218 153.065 335.943Z" fill="#070707"/>
<path d="M130.233 334.049C130.122 333.526 129.891 333.748 129.512 333.774C129.576 334.226 129.854 334.102 130.233 334.049Z" fill="#070707"/>
</g>
<path d="M74.5588 334.402C115.07 334.402 155.571 333.482 196.073 333.066C207.332 332.951 218.581 332.88 229.84 332.871C230.913 332.871 230.913 331.277 229.84 331.277C189.329 331.277 148.827 332.198 108.326 332.614C97.0669 332.729 85.8174 332.8 74.5588 332.809C73.4856 332.809 73.4856 334.402 74.5588 334.402Z" fill="#070707"/>
<path d="M239.822 332.896C260.998 332.896 282.165 332.099 303.332 331.736C308.05 331.657 312.777 331.577 317.495 331.568C318.568 331.568 318.568 329.975 317.495 329.975C296.319 329.975 275.153 330.771 253.986 331.134C249.268 331.214 244.541 331.294 239.822 331.303C238.749 331.303 238.749 332.896 239.822 332.896Z" fill="#070707"/>
<path d="M233.995 207.524C225.576 211.614 217.824 218.244 216.325 227.602C215.169 234.843 217.898 241.713 223.226 246.883C227.806 251.327 233.791 254.249 240.045 255.878C241.081 256.143 241.525 254.612 240.489 254.346C231.432 251.991 221.894 246.343 218.795 237.384C216.667 231.231 217.805 224.539 221.617 219.209C224.882 214.632 229.739 211.375 234.837 208.896C235.79 208.435 234.948 207.054 233.995 207.524Z" fill="#070707"/>
<path d="M280.529 245.334C291.602 240.5 302.676 235.658 313.74 230.824C314.712 230.399 313.87 229.027 312.898 229.452C301.825 234.285 290.751 239.128 279.687 243.961C278.715 244.386 279.557 245.759 280.529 245.334Z" fill="#070707"/>
<path d="M298.096 211.012C285.865 218.731 273.256 226.017 260.314 232.851C259.407 233.329 258.427 233.825 257.353 233.816C256.253 233.816 255.272 233.276 254.347 232.763C249.629 230.125 244.92 227.487 240.202 224.848L232.449 220.227C232.449 220.227 251.497 202.938 273.404 202.212C295.311 201.486 298.086 210.418 298.086 210.418" fill="#070707"/>
<path d="M235.336 230.311C235.336 230.311 226.64 222.954 203.003 230.337C192.734 233.542 187.424 245.467 176.332 248.087L168.32 248.512V265.323C168.32 265.323 177.812 272.972 184.612 269.989C191.411 267.005 196.694 260.109 196.694 260.109C196.694 260.109 192.447 265.589 197.739 267.581C203.031 269.573 207.388 267.563 209.414 265.217C211.44 262.862 210.774 260.18 210.774 260.18C210.774 260.18 215.955 258.702 216.676 256.462C217.398 254.213 215.261 250.876 215.261 250.876C215.261 250.876 221.154 249.034 221.977 245.467C222.8 241.899 223.698 240.412 218.711 238.898C213.725 237.384 211.385 236.693 211.385 236.693C211.385 236.693 216.389 234.463 222.578 234.967C228.767 235.472 235.891 235.304 235.336 230.319V230.311Z" fill="#FFCFC5"/>
<path d="M211.311 261.737C210.553 254.655 205.474 248.396 198.471 245.97C197.462 245.616 197.028 247.157 198.027 247.502C204.271 249.671 208.962 255.408 209.646 261.737C209.757 262.747 211.422 262.755 211.311 261.737Z" fill="#070707"/>
<path d="M216.028 251.177C213.16 246.237 208.729 242.174 203.446 239.65C202.494 239.199 201.643 240.571 202.605 241.023C207.656 243.431 211.847 247.255 214.594 251.974C215.112 252.868 216.555 252.071 216.028 251.168V251.177Z" fill="#070707"/>
<path d="M211.838 235.949C209.118 235.445 206.343 235.223 203.577 235.338C202.513 235.383 202.504 236.976 203.577 236.932C206.204 236.826 208.822 237.012 211.403 237.49C211.847 237.569 212.301 237.375 212.43 236.932C212.541 236.542 212.291 236.038 211.847 235.949H211.838Z" fill="#070707"/>
<path d="M197.026 261.489C197.109 261.418 197.202 261.339 197.295 261.277C197.369 261.215 197.387 261.206 197.332 261.25C197.378 261.215 197.424 261.188 197.47 261.153C197.665 261.029 197.859 260.905 198.062 260.799C198.497 260.568 198.738 260.471 199.228 260.329C199.45 260.267 199.672 260.214 199.903 260.17C199.931 260.17 200.246 260.117 200.116 260.135C200.227 260.117 200.347 260.108 200.458 260.099C200.69 260.082 200.921 260.082 201.152 260.09C201.273 260.09 201.384 260.099 201.504 260.108C201.559 260.108 201.615 260.117 201.68 260.126C201.606 260.117 201.615 260.117 201.717 260.126C202.142 260.188 202.632 260.02 202.743 259.568C202.836 259.187 202.623 258.656 202.161 258.585C199.885 258.258 197.591 258.878 195.861 260.356C195.528 260.639 195.555 261.188 195.861 261.48C196.194 261.799 196.702 261.764 197.035 261.48L197.026 261.489Z" fill="#070707"/>
<path d="M203.576 262.604C203.724 260.657 202.929 258.638 201.448 257.284C199.968 255.938 197.841 255.239 195.805 255.478C195.361 255.531 194.973 255.805 194.973 256.275C194.973 256.664 195.352 257.125 195.805 257.071C197.415 256.886 199.08 257.328 200.274 258.417C201.467 259.506 202.041 261.055 201.92 262.604C201.883 263.029 202.327 263.401 202.753 263.401C203.234 263.401 203.548 263.038 203.585 262.604H203.576Z" fill="#070707"/>
<path d="M234.115 230.328C233.541 230.806 232.866 231.293 232.181 231.568C231.996 231.638 231.802 231.7 231.598 231.753C231.386 231.807 231.275 231.824 231.127 231.833C230.942 231.851 230.747 231.851 230.562 231.833C230.414 231.824 230.303 231.807 230.091 231.753C229.998 231.727 229.915 231.7 229.822 231.674C229.711 231.638 229.785 231.674 229.683 231.612C229.6 231.567 229.517 231.532 229.443 231.479C229.36 231.426 229.304 231.39 229.276 231.364C229.23 231.32 229.193 231.275 229.138 231.231C229.23 231.302 229.202 231.328 229.147 231.231C229.119 231.187 229.091 231.134 229.073 231.089C229.008 230.983 229.11 231.213 229.054 231.036C229.017 230.912 228.98 230.797 228.953 230.673C228.934 230.611 228.925 230.541 228.916 230.479C228.916 230.443 228.906 230.408 228.897 230.381C228.906 230.452 228.906 230.47 228.897 230.381C228.869 230.08 228.86 229.788 228.869 229.487C228.869 229.407 228.879 229.319 228.888 229.239C228.888 229.195 228.916 228.991 228.906 229.071C228.897 229.151 228.934 228.947 228.934 228.912C228.953 228.841 228.971 228.761 228.99 228.69C229.008 228.62 229.027 228.549 229.054 228.478C229.064 228.442 229.138 228.257 229.101 228.354C229.054 228.46 229.138 228.283 229.156 228.257C229.184 228.203 229.323 228.035 229.156 228.221C229.434 227.885 229.498 227.424 229.156 227.097C228.869 226.822 228.259 226.76 227.981 227.097C227.482 227.699 227.315 228.425 227.232 229.177C227.158 229.894 227.195 230.665 227.417 231.355C227.685 232.196 228.268 232.763 229.11 233.108C230.063 233.497 231.145 233.524 232.144 233.258C233.338 232.931 234.365 232.231 235.29 231.461C235.632 231.178 235.595 230.629 235.29 230.337C234.957 230.018 234.448 230.054 234.115 230.337V230.328Z" fill="#070707"/>
<path d="M267.844 147.828C253.236 131.38 224.928 135.966 216.722 156.079C214.132 162.436 213.475 170.651 214.668 181.451C217.989 211.586 244.688 209.444 244.688 209.444L252.163 230.212L258.528 232.718L279.297 218.766L272.257 195.855C272.257 195.855 275.541 170.208 272.312 156.132C271.591 152.998 269.99 150.236 267.853 147.828H267.844Z" fill="#FFCFC5"/>
<path d="M226.88 164.295C226.954 165.401 227.86 166.251 228.906 166.18C229.951 166.118 230.738 165.162 230.664 164.056C230.59 162.949 229.683 162.099 228.638 162.17C227.592 162.232 226.806 163.188 226.88 164.295Z" fill="#070707"/>
<path d="M249.138 162.914C249.212 164.021 250.118 164.87 251.164 164.8C252.209 164.738 252.995 163.782 252.921 162.675C252.847 161.568 251.941 160.718 250.895 160.789C249.85 160.851 249.064 161.807 249.138 162.914Z" fill="#070707"/>
<path d="M257.612 150.778C253.56 148.325 247.861 146.909 243.439 149.574C242.542 150.114 243.124 151.397 244.151 151.185C248.592 150.273 252.792 149.476 257.103 151.61C257.676 151.893 258.167 151.105 257.612 150.778Z" fill="#070707"/>
<path d="M241.811 178.806C239.396 181.152 237.148 182.409 233.661 181.249C232.671 180.922 231.977 182.453 232.939 182.887C236.362 184.436 241.718 183.17 242.431 179.151C242.486 178.815 242.088 178.531 241.802 178.806H241.811Z" fill="#070707"/>
<path d="M258.731 204.054C253.088 206.816 247.473 208.471 241.136 208.861C240.099 208.923 240.081 210.41 241.136 210.41C247.648 210.454 253.986 208.356 258.824 204.16C258.889 204.107 258.805 204.009 258.731 204.045V204.054Z" fill="#070707"/>
<g opacity="0.3">
<path d="M245.085 172.873C245.196 174.52 247.972 175.68 251.293 175.476C254.605 175.273 257.204 173.768 257.093 172.13C256.982 170.483 254.207 169.323 250.886 169.527C247.574 169.731 244.974 171.236 245.085 172.873Z" fill="#070707"/>
</g>
<g opacity="0.3">
<path d="M215.529 174.705C215.64 176.352 218.415 177.512 221.736 177.308C225.048 177.105 227.648 175.6 227.537 173.962C227.426 172.315 224.65 171.156 221.329 171.359C218.017 171.563 215.418 173.068 215.529 174.705Z" fill="#070707"/>
</g>
<path d="M239.712 137.993C236.021 130.68 224.614 129.166 217.889 133.168C217.315 133.504 217.676 134.478 218.36 134.248C222.486 132.858 226.483 131.911 230.812 133.168C234.189 134.142 236.752 136.213 239.564 138.143C239.666 138.214 239.758 138.081 239.721 137.993H239.712Z" fill="#070707"/>
<path d="M224.484 123.944C232.431 124.697 238.999 129.92 240.924 137.339C241.183 138.321 242.774 137.905 242.515 136.922C240.369 128.725 233.338 123.369 224.484 123.634C224.271 123.634 224.281 123.927 224.484 123.944Z" fill="#070707"/>
<path d="M223.919 152.84C225.39 151.928 227.925 151.114 229.692 151.264C234.262 151.654 235.483 156.346 235.492 159.94C235.511 164.703 233.836 169.041 231.995 173.378C231.579 174.361 233.235 174.981 233.762 174.096C237.102 168.483 239.581 158.683 235.575 152.805C232.763 148.679 226.75 148.467 223.447 152.265C223.188 152.566 223.521 153.088 223.919 152.849V152.84Z" fill="#070707"/>
<path d="M235.613 230.761C235.613 230.761 242.893 285.02 247.861 287.932C252.829 290.845 283.663 283.931 284.117 281.47C284.579 279.009 275.698 226.972 272.543 224.679C269.379 222.386 234.364 226.37 235.613 230.761Z" fill="#070707"/>
<path d="M237.001 228.877C244.328 227.487 251.211 225.256 258.751 224.796C262.266 224.584 271.175 223.433 273.063 226.974C275.089 230.772 274.959 237.287 275.727 241.466C277.596 251.638 279.677 262.571 281.5 272.353C281.749 273.681 283.859 273.115 283.609 271.796C281.426 260.021 279.048 247.043 276.772 234.871C276.245 232.055 276.374 226.035 273.877 223.867C270.352 220.803 260.546 222.574 256.392 222.99C249.694 223.663 242.571 224.92 236.696 228.204C236.298 228.426 236.576 228.975 237.001 228.895V228.877Z" fill="#008BCE"/>
<path d="M300.695 270.785C300.695 270.785 290.861 248.335 289.316 243.926C287.772 239.517 261.646 232.09 259.713 235.525C257.779 238.959 262.553 241.332 264.958 242.191C267.363 243.049 278.456 246.971 278.456 246.971C278.456 246.971 261.258 252.433 258.908 254.549C256.558 256.665 259.565 260.312 263.358 259.817C263.358 259.817 257.927 263.074 262.923 266.253C265.217 267.713 279.862 262.676 279.862 262.676C279.862 262.676 266.549 271.892 266.919 274.353C267.289 276.814 267.576 280.116 271.961 276.876C276.346 273.636 284.931 266.642 284.931 266.642C284.931 266.642 281.703 282.613 285.079 287.765C288.456 292.917 293.239 292.554 299.826 291.607L319.272 313.013L329.818 291.811L300.686 270.794L300.695 270.785Z" fill="#FFCFC5"/>
<path d="M285.515 251.273C277.901 253.814 270.241 256.124 262.859 259.249C261.878 259.665 262.729 261.037 263.701 260.621C270.954 257.558 278.484 255.301 285.959 252.804C286.967 252.468 286.533 250.927 285.515 251.273Z" fill="#070707"/>
<path d="M259.64 258.736C261.425 258.443 263.248 258.027 264.617 256.823C265.977 255.628 266.559 253.681 265.653 252.078C265.44 251.698 264.894 251.583 264.515 251.795C264.117 252.016 264.006 252.503 264.219 252.884C264.339 253.096 264.422 253.397 264.432 253.61C264.45 253.982 264.432 254.141 264.311 254.486C264.256 254.663 264.247 254.672 264.145 254.867C264.071 255.009 263.978 255.141 263.877 255.265C263.84 255.31 263.84 255.31 263.877 255.265C263.858 255.283 263.84 255.31 263.821 255.327C263.766 255.389 263.701 255.451 263.645 255.513C263.525 255.637 263.386 255.752 263.248 255.858C263.34 255.788 263.127 255.947 263.127 255.938C263.063 255.982 263.007 256.018 262.942 256.062C262.803 256.151 262.665 256.23 262.517 256.301C262.174 256.478 261.925 256.567 261.545 256.691C260.787 256.93 259.991 257.062 259.205 257.195C258.761 257.266 258.511 257.788 258.622 258.178C258.751 258.629 259.205 258.806 259.649 258.736H259.64Z" fill="#070707"/>
<path d="M262.645 266.705C264.301 266.147 266.022 265.271 266.891 263.739C267.715 262.287 267.687 260.375 266.456 259.144C265.716 258.401 264.541 259.525 265.282 260.269C265.633 260.623 265.8 261.092 265.8 261.588C265.8 262.119 265.661 262.624 265.365 263.084C264.689 264.146 263.404 264.766 262.201 265.164C261.775 265.306 261.498 265.704 261.618 266.147C261.729 266.537 262.219 266.846 262.645 266.705Z" fill="#070707"/>
<path d="M268.187 277.611C269.566 277.505 270.888 276.726 271.453 275.487C272.073 274.15 271.814 272.618 270.824 271.512C270.537 271.193 269.936 271.211 269.649 271.512C269.325 271.848 269.344 272.3 269.649 272.636C269.797 272.804 269.612 272.565 269.686 272.671C269.723 272.725 269.76 272.769 269.788 272.822C269.852 272.928 269.908 273.034 269.963 273.141C269.889 272.999 269.982 273.203 269.991 273.22C270.01 273.265 270.019 273.309 270.037 273.362C270.074 273.477 270.093 273.592 270.121 273.716C270.084 273.548 270.121 273.769 270.121 273.796C270.121 273.84 270.121 273.893 270.121 273.937C270.121 274.061 270.121 274.176 270.102 274.3C270.111 274.123 270.093 274.345 270.084 274.371C270.074 274.415 270.065 274.469 270.047 274.513C270.028 274.584 270 274.654 269.982 274.716C269.936 274.858 270.01 274.681 269.973 274.761C269.917 274.867 269.862 274.964 269.797 275.062C269.769 275.115 269.732 275.159 269.695 275.203C269.612 275.327 269.732 275.168 269.667 275.23C269.584 275.31 269.51 275.398 269.418 275.478C269.371 275.513 269.325 275.557 269.279 275.593C269.362 275.522 269.297 275.575 269.242 275.619C269.14 275.681 269.038 275.743 268.936 275.805C268.881 275.832 268.825 275.858 268.779 275.885C268.64 275.956 268.835 275.876 268.742 275.894C268.622 275.92 268.511 275.965 268.4 275.991C268.344 276 268.28 276.018 268.224 276.027C268.372 276 268.224 276.027 268.159 276.027C267.725 276.062 267.308 276.372 267.327 276.823C267.345 277.222 267.697 277.656 268.159 277.62L268.187 277.611Z" fill="#070707"/>
<path d="M259.703 239.624C261.442 239.942 263.357 239.987 264.948 239.128C266.308 238.384 267.326 236.994 267.28 235.463C267.27 235.029 266.91 234.666 266.447 234.666C265.984 234.666 265.605 235.029 265.614 235.463C265.633 235.959 265.503 236.357 265.198 236.8C264.921 237.216 264.504 237.543 264.023 237.8C262.867 238.393 261.405 238.322 260.147 238.092C259.703 238.012 259.25 238.207 259.12 238.65C259.009 239.039 259.259 239.553 259.703 239.632V239.624Z" fill="#070707"/>
<path d="M315.877 276.115C314.461 277.461 303.304 299.106 304.729 303.993C306.154 308.879 337.857 341.785 344.389 340.289C350.92 338.802 358.839 297.468 351.706 292.086C344.574 286.703 315.867 276.115 315.867 276.115H315.877Z" fill="#008BCE"/>
<path d="M314.508 277.114C333.057 283.187 350.995 291.182 368.072 300.38C369.007 300.884 369.849 299.512 368.914 299.007C351.716 289.747 333.639 281.7 314.952 275.583C313.934 275.246 313.5 276.787 314.508 277.114Z" fill="#070707"/>
<path d="M352.178 292.129C355.86 289.8 360.107 288.375 364.51 288.048C365.574 287.968 365.583 286.374 364.51 286.454C359.811 286.808 355.277 288.269 351.336 290.748C350.448 291.305 351.281 292.686 352.178 292.12V292.129Z" fill="#070707"/>
<path d="M312.037 269.865C315.46 260.224 318.994 252.035 325.137 243.651C325.627 242.987 324.517 242.173 323.962 242.784C317.412 249.91 312.056 260.206 311.325 269.776C311.297 270.183 311.917 270.228 312.037 269.865Z" fill="#070707"/>
<path d="M273.803 143.8C266.319 137.718 256.143 134.841 246.383 135.859C244.875 136.019 238.926 135.886 238.686 137.32C242.145 146.279 253.441 155.557 262.813 158.841C263.571 159.107 264.404 159.39 264.839 160.045C265.329 160.78 265.162 161.727 265.005 162.586C263.072 173.413 264.774 185.107 272.369 193.332C279.964 187.383 286.172 177.884 286.052 168.491C285.931 159.098 281.287 149.882 273.794 143.8H273.803Z" fill="#070707"/>
<path d="M278.872 167.26C280.593 166.304 282.86 166.543 284.525 167.579C286.19 168.615 287.3 170.323 287.901 172.138C288.901 175.148 288.512 178.672 286.44 181.133C284.367 183.594 280.528 184.7 277.559 183.319" fill="#FFCFC5"/>
<path d="M287.365 178.929C287.041 178.345 286.902 177.832 286.292 177.442C285.727 177.088 284.996 176.902 284.33 176.893C282.924 176.867 281.509 177.557 280.75 178.69C280.232 179.469 281.398 180.31 282.073 179.664C282.776 178.991 283.461 178.487 284.497 178.46C285.237 178.434 286.541 178.699 287.152 179.133C287.291 179.23 287.429 179.053 287.365 178.929Z" fill="#070707"/>
<path d="M267.178 139.746C271.285 141.358 274.94 144.217 277.465 147.696C278.326 148.891 280.389 147.696 279.482 146.563C276.355 142.632 272.433 140.065 267.455 138.755C266.771 138.578 266.558 139.499 267.169 139.738L267.178 139.746Z" fill="#008BCE"/>
<path d="M171.013 271.856C169.449 267.793 168.737 263.411 168.506 259.108C168.274 254.868 168.441 250.397 170.032 246.378C170.411 245.422 168.802 245.006 168.432 245.953C166.794 250.087 166.609 254.735 166.85 259.099C167.09 263.544 167.803 268.085 169.412 272.272C169.782 273.228 171.392 272.812 171.013 271.847V271.856Z" fill="#070707"/>
<path d="M122.824 237.491C132.649 238.057 142.455 238.996 152.196 240.333C156.822 240.97 161.457 241.652 166.045 242.502C169.57 243.157 173.631 244.157 175.241 247.574C175.685 248.504 177.119 247.698 176.675 246.769C175.204 243.644 171.827 242.192 168.525 241.395C163.76 240.235 158.774 239.66 153.908 238.969C143.593 237.517 133.213 236.49 122.805 235.888C121.732 235.827 121.741 237.42 122.805 237.482L122.824 237.491Z" fill="#070707"/>
<path d="M129.975 233.888C131.705 235.375 133.444 236.871 135.174 238.358C135.498 238.633 136.034 238.686 136.349 238.358C136.635 238.057 136.691 237.526 136.349 237.234C134.619 235.747 132.88 234.251 131.15 232.763C130.826 232.489 130.289 232.436 129.975 232.763C129.688 233.064 129.632 233.595 129.975 233.888Z" fill="#070707"/>
<path d="M309.067 144.342C314.452 154.779 319.938 165.164 330.669 171.431C336.053 174.574 342.159 176.451 347.478 179.718C355.083 184.392 362.141 194.28 353.945 201.885C352.992 202.77 354.389 204.036 355.379 203.257C365.463 195.21 357.701 182.789 348.894 177.416C341.243 172.75 332.482 170.564 325.627 164.615C319.012 158.878 314.026 151.397 309.364 144.182C309.252 144.005 308.975 144.156 309.077 144.342H309.067Z" fill="#070707"/>
<path d="M257.946 243.687C256.133 244.687 253.82 244.121 252.793 242.412C251.766 240.703 252.405 238.508 254.218 237.507C256.031 236.507 258.344 237.074 259.371 238.782C260.398 240.491 259.759 242.686 257.946 243.687Z" fill="white"/>
<path d="M323.388 246.228C335.59 257.072 350.226 265.013 362.058 276.398C373.372 287.278 381.92 299.867 387.249 314.332C387.527 315.093 388.738 314.801 388.535 313.996C384.89 299.893 376.148 287.561 365.833 277.115C354.056 265.199 339.097 253.212 323.749 245.776C323.462 245.634 323.129 245.997 323.388 246.228Z" fill="#008BCE"/>
<path d="M167.266 247.087C156.979 243.378 144.749 242.846 133.851 241.997C121.806 241.049 109.715 240.686 97.6328 240.288C95.9861 240.235 96.0139 242.616 97.6328 242.723C109.271 243.466 120.927 243.811 132.565 244.511C144.139 245.21 155.582 247.556 167.109 248.176C167.803 248.211 167.84 247.291 167.266 247.087Z" fill="#008BCE"/>
<path d="M132.047 232.434C158.543 231.115 185.214 229.903 211.617 227.38C213.004 227.247 213.014 225.149 211.617 225.281C185.131 227.902 158.237 227.636 131.899 231.443C131.316 231.531 131.455 232.461 132.038 232.426L132.047 232.434Z" fill="#008BCE"/>
<path d="M307.356 234.444C309.965 236.897 313.499 238.402 316.274 240.721C319.115 243.085 321.474 245.98 324.369 248.264C325.128 248.866 326.525 248.069 325.849 247.166C322.038 242.067 314.48 234.861 307.699 233.869C307.375 233.825 307.079 234.179 307.356 234.436V234.444Z" fill="#008BCE"/>
<path d="M274.394 143.305C274.976 138.834 274.199 134.602 271.544 130.822C270.24 128.963 267.372 125.201 264.495 126.36C258.259 128.883 269.629 142.065 273.616 142.57C277.733 143.092 282.932 138.179 285.846 135.921C287.678 134.496 292.396 131.566 290.491 128.635C288.622 125.776 284.07 127.998 281.85 129.114C277.234 131.424 273.746 135.107 271.387 139.507C270.499 141.162 273.117 142.632 274.005 140.967C276.253 136.771 279.546 133.319 284.024 131.22C288.983 128.901 286.365 131.973 284.542 133.478C282.525 135.142 280.231 137.302 277.779 138.409C273.283 140.436 271.202 138.471 268.639 135.178C267.807 134.115 263.459 129.786 268.019 129.884C269.62 129.919 271.914 135.417 272.321 136.585C273.089 138.754 273.394 141.012 273.33 143.305C273.311 143.977 274.31 143.933 274.394 143.305Z" fill="#008BCE"/>
<path d="M313.065 230.23C317.293 232.143 321.41 234.285 325.443 236.551C329.218 238.676 333.186 240.889 336.35 243.819C337.118 244.528 338.302 243.403 337.525 242.695C334.333 239.747 330.365 237.499 326.572 235.338C322.455 233.001 318.227 230.806 313.898 228.849C312.935 228.416 312.094 229.788 313.056 230.222L313.065 230.23Z" fill="#070707"/>
</g>
</g>
<defs>
<clipPath id="clip0_2441_15450">
<rect width="423" height="403" fill="white"/>
</clipPath>
<clipPath id="clip1_2441_15450">
<rect width="392" height="291" fill="white" transform="translate(16 56)"/>
</clipPath>
</defs>
</svg>
