<svg width="427" height="425" viewBox="0 0 427 425" fill="none" xmlns="http://www.w3.org/2000/svg">
<g clip-path="url(#clip0_2430_10535)">
<path d="M400.041 382.57C388.531 392.16 338.441 398.94 278.761 401.49C187.021 405.42 72.6009 399.37 40.7909 378.2C25.7309 368.19 15.5509 337.25 9.1009 297.66C-6.9291 199.16 0.220901 47.1301 13.1609 30.6501C31.3109 7.56009 323.301 -15.3099 399.911 13.9301C432.741 26.4601 429.231 358.23 400.031 382.57H400.041Z" fill="white"/>
<path d="M373.314 247.44L375.204 241.883L377.358 247.44C377.358 247.44 381.657 248.14 381.712 248.531C381.757 248.913 377.595 250.095 377.595 250.095C377.595 250.095 375.85 255.488 375.204 254.27C374.568 253.051 373.95 250.35 373.95 250.35C373.95 250.35 368.533 249.268 368.533 248.731C368.533 248.158 373.314 247.449 373.314 247.449V247.44Z" fill="white"/>
<path d="M304.094 233.142L305.566 228.822L307.238 233.142C307.238 233.142 310.574 233.688 310.619 233.988C310.656 234.279 307.429 235.198 307.429 235.198C307.429 235.198 306.075 239.381 305.575 238.435C305.075 237.49 304.594 235.389 304.594 235.389C304.594 235.389 300.395 234.543 300.395 234.134C300.395 233.688 304.103 233.142 304.103 233.142H304.094Z" fill="white"/>
<g clip-path="url(#clip1_2430_10535)">
<path d="M271.792 28.4297H45.4297V50.6942H271.792V28.4297Z" fill="#1E1E1E"/>
<path d="M261.9 44.0258C264.404 42.9872 265.593 40.1126 264.555 37.6051C263.518 35.0977 260.647 33.907 258.143 34.9456C255.639 35.9842 254.45 38.8589 255.487 41.3663C256.525 43.8737 259.395 45.0644 261.9 44.0258Z" fill="white"/>
<path d="M247.35 42.9631C249.267 41.044 249.267 37.9325 247.35 36.0134C245.433 34.0943 242.326 34.0943 240.41 36.0134C238.493 37.9325 238.493 41.044 240.41 42.9631C242.326 44.8822 245.433 44.8822 247.35 42.9631Z" fill="white"/>
<path d="M229.616 44.0278C232.12 42.9892 233.309 40.1145 232.272 37.6071C231.235 35.0996 228.364 33.9089 225.86 34.9475C223.356 35.9862 222.167 38.8608 223.204 41.3682C224.241 43.8757 227.112 45.0664 229.616 44.0278Z" fill="white"/>
<path d="M271.792 181.506H45.4298C45.1915 181.506 45 181.312 45 181.075V28.4304C45 28.1937 45.1934 28 45.4298 28H271.792C272.031 28 272.222 28.1937 272.222 28.4304V181.073C272.222 181.312 272.029 181.504 271.792 181.504V181.506ZM45.8616 180.643H271.363V28.8627H45.8616V180.645V180.643Z" fill="black"/>
<path d="M199.098 102.418C206.67 103.361 212.67 109.369 213.611 116.954H256.182C255.107 85.8702 230.139 60.8689 199.096 59.791V102.418H199.098Z" fill="#DFE3E8"/>
<path d="M232.575 148.225C238.915 140.619 242.853 130.939 243.219 120.348H210.143C209.877 122.484 209.094 124.458 207.926 126.142L232.575 148.225Z" fill="black"/>
<path d="M188.7 108.922C190.603 107.259 192.992 106.142 195.626 105.813V72.6934C183.226 73.1237 172.074 78.4683 164.049 86.8392L188.698 108.922H188.7Z" fill="#B9BEC6"/>
<path d="M205.76 128.559C203.48 130.542 200.503 131.745 197.244 131.745C194.49 131.745 191.936 130.885 189.834 129.421L167.781 154.104C175.762 160.777 186.034 164.793 197.244 164.793C210.277 164.793 222.042 159.364 230.412 150.643L205.76 128.559Z" fill="#B9BEC6"/>
<path d="M165.369 151.939L187.426 127.253C185.447 124.968 184.245 121.988 184.245 118.727C184.245 115.985 185.095 113.439 186.543 111.342L161.89 89.2578C155.241 97.2453 151.242 107.518 151.242 118.727C151.242 131.778 156.662 143.558 165.369 151.939Z" fill="white"/>
<path d="M165.369 152.369C165.258 152.369 165.15 152.326 165.07 152.25C155.874 143.398 150.811 131.494 150.811 118.727C150.811 107.872 154.628 97.3076 161.56 88.9817C161.634 88.8917 161.741 88.8369 161.859 88.8272C161.972 88.8193 162.089 88.8585 162.177 88.9367L186.83 111.021C186.992 111.166 187.02 111.409 186.897 111.587C185.443 113.692 184.675 116.162 184.675 118.727C184.675 121.753 185.767 124.682 187.75 126.971C187.893 127.135 187.891 127.38 187.746 127.54L165.69 152.226C165.611 152.314 165.502 152.365 165.385 152.369C165.379 152.369 165.375 152.369 165.369 152.369ZM161.937 89.8757C155.314 97.9943 151.672 108.222 151.672 118.725C151.672 131.104 156.525 142.66 165.348 151.315L186.856 127.241C184.892 124.84 183.816 121.832 183.816 118.723C183.816 116.109 184.562 113.59 185.976 111.409L161.937 89.8718V89.8757Z" fill="black"/>
<path d="M56.1347 106.003C57.7758 98.3341 65.7975 91.2699 71.1857 92.4085C75.56 93.3318 75.5033 99.0912 79.227 99.3944C84.2264 99.8013 86.9869 89.6325 92.0098 89.9533C96.3704 90.2331 97.1753 98.0837 101.081 98.2617C106.504 98.5082 109.073 83.5602 115.512 83.345C120.33 83.1826 122.147 91.444 127.058 91.6534C130.378 91.7942 134.875 88.2475 140.666 74.0938V110.927H55.9257C55.7811 109.733 55.7069 108.006 56.1347 106.005V106.003Z" fill="#B9BEC6"/>
<path d="M55.8126 94.4854C55.5743 94.4854 55.3828 94.2917 55.3828 94.055V65.2702C55.3828 65.0316 55.5762 64.8398 55.8126 64.8398H94.8604C95.0988 64.8398 95.2902 65.0335 95.2902 65.2702C95.2902 65.5069 95.0968 65.7006 94.8604 65.7006H56.2424V94.053C56.2424 94.2917 56.049 94.4834 55.8126 94.4834V94.4854Z" fill="black"/>
<path d="M140.667 111.354H101.082C100.844 111.354 100.652 111.16 100.652 110.923C100.652 110.687 100.846 110.493 101.082 110.493H140.237V74.0925C140.237 73.8538 140.431 73.6621 140.667 73.6621C140.904 73.6621 141.097 73.8558 141.097 74.0925V110.925C141.097 111.164 140.904 111.356 140.667 111.356V111.354Z" fill="black"/>
<path d="M55.8137 158.494C55.6749 158.494 55.5401 158.428 55.4561 158.305C55.3233 158.107 55.376 157.839 55.5734 157.706L70.8607 147.408C71.0483 147.283 71.3003 147.322 71.439 147.5L77.8138 155.611L94.0214 142.22C94.1894 142.081 94.4356 142.091 94.5938 142.242L105.159 152.391L112.48 145.477C112.636 145.329 112.878 145.321 113.044 145.456L119.042 150.302L127.941 139.563C128.015 139.473 128.124 139.417 128.242 139.409C128.359 139.401 128.474 139.44 128.56 139.518L133.571 144.045L140.341 136.257C140.497 136.077 140.769 136.06 140.948 136.214C141.128 136.371 141.146 136.643 140.991 136.823L133.935 144.941C133.858 145.029 133.751 145.082 133.636 145.088C133.522 145.096 133.407 145.055 133.321 144.978L128.318 140.459L119.435 151.18C119.284 151.362 119.016 151.387 118.833 151.241L112.796 146.365L105.45 153.302C105.284 153.461 105.022 153.459 104.856 153.301L94.2714 143.134L78.0209 156.56C77.931 156.634 77.8158 156.669 77.7005 156.656C77.5852 156.644 77.4797 156.585 77.4094 156.493L71.0092 148.351L56.052 158.426C55.9778 158.475 55.8957 158.498 55.8117 158.498L55.8137 158.494Z" fill="#020202"/>
<path d="M68.5563 156.371C68.4527 156.371 68.3492 156.334 68.2691 156.262L55.5273 144.79C55.3515 144.632 55.3359 144.358 55.4941 144.182C55.6524 144.006 55.9259 143.99 56.1017 144.148L68.5739 155.377L85.2601 142.214C85.4378 142.073 85.6957 142.094 85.8462 142.264L92.217 149.395L113.819 131.544C113.994 131.397 114.254 131.417 114.409 131.585L120.385 138.101L129.446 132.215C129.645 132.086 129.911 132.143 130.042 132.342C130.171 132.542 130.114 132.808 129.915 132.939L120.547 139.025C120.369 139.14 120.137 139.109 119.996 138.954L114.049 132.469L92.4437 150.324C92.2659 150.471 92.0021 150.451 91.8498 150.279L85.473 143.141L68.82 156.277C68.7419 156.34 68.6481 156.369 68.5543 156.369L68.5563 156.371Z" fill="#020202"/>
<path d="M101.085 165.809H55.8146C55.5762 165.809 55.3848 165.616 55.3848 165.379V132.007C55.3848 131.768 55.5782 131.576 55.8146 131.576C56.051 131.576 56.2444 131.77 56.2444 132.007V164.948H101.083C101.321 164.948 101.513 165.142 101.513 165.379C101.513 165.616 101.319 165.809 101.083 165.809H101.085Z" fill="black"/>
<path d="M140.67 155.238C140.431 155.238 140.24 155.044 140.24 154.807V120.158H91.6095C91.3711 120.158 91.1797 119.964 91.1797 119.727C91.1797 119.491 91.3731 119.297 91.6095 119.297H140.67C140.908 119.297 141.1 119.491 141.1 119.727V154.807C141.1 155.046 140.906 155.238 140.67 155.238Z" fill="black"/>
<path d="M122.793 319.629H109.752V352.794H122.793V319.629Z" fill="#B9BEC6"/>
<path d="M144.783 291.264H131.742V352.797H144.783V291.264Z" fill="#B9BEC6"/>
<path d="M166.773 301.084H153.732V352.794H166.773V301.084Z" fill="#B9BEC6"/>
<path d="M188.763 284.07H175.723V352.795H188.763V284.07Z" fill="#B9BEC6"/>
<path d="M210.754 280.197H197.713V352.795H210.754V280.197Z" fill="#B9BEC6"/>
<path d="M232.744 258.84H219.703V352.794H232.744V258.84Z" fill="#B9BEC6"/>
<path d="M322.911 334.745H284.186C284.275 324.453 285.114 313.013 286.778 301.034C292.684 258.538 306.756 225.381 318.209 226.977C329.661 228.574 334.156 264.317 328.25 306.813C326.871 316.741 325.044 326.159 322.911 334.743V334.745Z" fill="#020202"/>
<path d="M320.814 294.473H329.694C329.311 298.505 328.83 302.626 328.248 306.815C326.869 316.743 325.042 326.161 322.909 334.745H314.027C316.161 326.161 317.987 316.743 319.367 306.815C319.949 302.626 320.429 298.503 320.812 294.473H320.814Z" fill="black"/>
<path d="M331.103 334.744C328.921 327.111 326.961 318.85 325.326 310.177C317.382 268.016 320.155 232.096 331.517 229.95C342.88 227.804 358.53 260.243 366.472 302.405C368.623 313.826 369.987 324.787 370.608 334.744H331.101H331.103Z" fill="#020202"/>
<path d="M370.61 335.177C370.386 335.177 370.196 335.001 370.181 334.772C369.54 324.489 368.149 313.626 366.051 302.485C362.215 282.13 356.478 263.401 349.89 249.75C343.474 236.451 336.804 229.391 331.598 230.375C331.365 230.418 331.139 230.265 331.096 230.03C331.051 229.796 331.205 229.571 331.44 229.528C337.144 228.45 343.972 235.498 350.667 249.376C357.286 263.093 363.05 281.899 366.898 302.327C369.004 313.503 370.397 324.401 371.042 334.719C371.058 334.956 370.876 335.161 370.64 335.177C370.63 335.177 370.622 335.177 370.612 335.177H370.61Z" fill="black"/>
<path d="M331.103 335.177C330.916 335.177 330.744 335.054 330.691 334.864C328.452 327.032 326.506 318.753 324.906 310.258C323.947 305.172 323.126 300.062 322.462 295.066H318.615C318.377 295.066 318.186 294.872 318.186 294.635C318.186 294.399 318.379 294.205 318.615 294.205H322.839C323.056 294.205 323.238 294.365 323.265 294.581C323.935 299.681 324.773 304.902 325.752 310.1C327.348 318.569 329.288 326.82 331.519 334.628C331.586 334.857 331.453 335.095 331.224 335.16C331.185 335.172 331.144 335.177 331.105 335.177H331.103Z" fill="black"/>
<path d="M258.886 201.273L266.298 234.209L283.142 214.621L296.058 234.544L275.507 259.383C266.223 270.604 248.025 265.015 246.622 250.511L241.859 201.271H258.887L258.886 201.273Z" fill="#F2A391"/>
<path d="M263.301 265.888C259.393 265.888 255.351 264.561 251.985 262.059C249.838 260.463 248.047 257.566 247.421 256.114C246.896 254.895 246.617 253.387 246.37 252.055C246.31 251.732 246.253 251.421 246.195 251.127C246.191 251.112 246.189 251.098 246.189 251.082C245.874 247.673 245.605 244.738 245.36 242.08C244.45 232.165 243.899 226.183 242.656 213.77C242.633 213.534 242.805 213.322 243.041 213.299C243.284 213.277 243.489 213.447 243.512 213.684C244.755 226.101 245.306 232.085 246.216 242.001C246.46 244.654 246.728 247.583 247.042 250.981C247.099 251.27 247.158 251.579 247.216 251.898C247.455 253.185 247.724 254.645 248.211 255.774C248.844 257.245 250.594 259.952 252.497 261.369C257.131 264.814 263.092 265.927 268.062 264.28C268.369 264.129 268.742 263.978 269.103 263.834C269.459 263.691 269.826 263.544 270.105 263.403C272.102 262.259 273.856 260.797 275.296 259.066C280.028 253.342 284.572 247.786 288.968 242.414C291.138 239.759 293.311 237.107 295.511 234.423C294.456 232.942 293.51 231.4 292.592 229.908C291.492 228.116 290.455 226.423 289.253 224.847L283.089 215.341L266.62 234.493C266.515 234.616 266.347 234.669 266.19 234.63C266.032 234.591 265.911 234.466 265.874 234.307L265.624 233.186C262.558 219.481 260.321 209.537 258.971 203.637C258.919 203.404 259.063 203.173 259.296 203.12C259.524 203.067 259.759 203.212 259.812 203.445C261.162 209.347 263.398 219.291 266.464 232.999L266.528 233.282L282.814 214.345C282.902 214.242 283.035 214.187 283.169 214.197C283.304 214.207 283.427 214.279 283.502 214.392L289.958 224.354C291.168 225.938 292.266 227.728 293.327 229.46C294.29 231.031 295.288 232.656 296.402 234.19C296.517 234.348 296.511 234.566 296.386 234.716C294.114 237.486 291.873 240.225 289.632 242.964C285.236 248.336 280.69 253.892 275.959 259.62C274.452 261.431 272.62 262.959 270.512 264.166C270.18 264.334 269.795 264.487 269.422 264.636C269.066 264.778 268.699 264.925 268.417 265.066C268.4 265.076 268.38 265.084 268.361 265.089C266.747 265.627 265.036 265.89 263.297 265.892L263.301 265.888Z" fill="black"/>
<path d="M293.461 237.606L277.205 221.527L271.994 227.586L282.728 249.729L293.461 237.606Z" fill="black"/>
<path d="M269.479 247.877C269.286 247.877 269.108 247.744 269.061 247.546L265.881 234.312C265.826 234.081 265.969 233.848 266.199 233.792C266.434 233.735 266.662 233.878 266.719 234.111L269.9 247.345C269.954 247.576 269.812 247.809 269.581 247.865C269.548 247.873 269.513 247.877 269.479 247.877Z" fill="black"/>
<path d="M245.757 175.536L261.806 178.071L257.987 192.172L262.256 216.25L242.996 213.194L241.283 194.455C241.099 191.155 241.267 187.845 241.781 184.578L242.875 177.637C243.092 176.259 244.383 175.318 245.759 175.538L245.757 175.536Z" fill="#F2A391"/>
<path d="M262.559 217.76C262.354 217.76 262.175 217.613 262.138 217.405L257.724 193.124C255.843 194.941 252.887 195.253 250.586 194.891C250.351 194.853 250.191 194.632 250.228 194.398C250.265 194.163 250.488 194.002 250.72 194.04C253.039 194.405 256.075 194.04 257.642 191.917C257.744 191.778 257.92 191.716 258.086 191.753C258.252 191.792 258.381 191.927 258.412 192.095L262.983 217.253C263.026 217.488 262.872 217.711 262.638 217.754C262.612 217.758 262.587 217.762 262.559 217.762V217.76Z" fill="black"/>
<path d="M250.138 198.005L253.539 199.479L269.998 161.393L266.597 159.919L250.138 198.005Z" fill="white"/>
<path d="M253.55 199.901C253.491 199.901 253.433 199.889 253.378 199.866L249.977 198.391C249.758 198.297 249.658 198.043 249.752 197.823L266.212 159.74C266.305 159.523 266.557 159.422 266.778 159.515L270.179 160.991C270.285 161.036 270.367 161.122 270.408 161.227C270.451 161.333 270.449 161.452 270.402 161.558L253.941 199.643C253.896 199.748 253.81 199.831 253.704 199.872C253.653 199.891 253.599 199.901 253.546 199.901H253.55ZM250.715 197.773L253.327 198.905L269.447 161.613L266.835 160.482L250.715 197.775V197.773Z" fill="black"/>
<path d="M241.367 212.928L248.688 216.099L261.132 185.268L255.297 182.74L241.367 212.928Z" fill="white"/>
<path d="M248.688 216.53C248.63 216.53 248.571 216.519 248.516 216.495L241.196 213.322C241.091 213.275 241.007 213.189 240.966 213.08C240.925 212.972 240.928 212.851 240.977 212.745L254.907 182.558C255.005 182.346 255.253 182.248 255.47 182.342L261.305 184.872C261.52 184.964 261.622 185.212 261.534 185.429L249.089 216.26C249.046 216.368 248.96 216.454 248.853 216.497C248.8 216.519 248.745 216.528 248.69 216.528L248.688 216.53ZM241.944 212.706L248.456 215.529L260.578 185.496L255.513 183.301L241.944 212.706Z" fill="black"/>
<path d="M267.528 126.479C259.053 146.085 257.383 164.231 263.797 167.011C264.111 167.148 267.169 168.563 267.509 168.621C274.114 169.758 282.693 155.19 290.751 136.544C298.695 118.163 303.267 101.977 298.197 97.62C297.859 97.3304 294.885 96.1841 294.485 96.01C288.071 93.2301 276.003 106.871 267.528 126.477V126.479Z" fill="white"/>
<path d="M268.231 169.115C267.961 169.115 267.698 169.094 267.436 169.049C267.196 169.007 266.326 168.636 264.115 167.63C263.868 167.519 263.689 167.437 263.626 167.409C260.34 165.985 258.928 160.873 259.652 153.019C260.362 145.319 263.019 135.835 267.135 126.312C275.835 106.183 287.92 92.7006 294.656 95.6194C294.744 95.6585 294.963 95.7446 295.252 95.86C297.139 96.6151 298.214 97.069 298.479 97.2959C304.331 102.324 297.723 121.509 291.149 136.717C281.852 158.226 274.149 169.115 268.233 169.115H268.231ZM267.922 126.652C263.841 136.093 261.208 145.485 260.508 153.097C259.832 160.445 261.092 165.373 263.968 166.619C264.035 166.648 264.218 166.73 264.47 166.846C265.17 167.163 267.299 168.131 267.59 168.199C267.807 168.237 268.028 168.256 268.252 168.256C273.701 168.256 281.322 157.279 290.358 136.375C299.488 115.251 302.172 101.606 297.917 97.9493C297.659 97.7517 295.678 96.9575 294.932 96.6582C294.633 96.5388 294.406 96.4469 294.314 96.4078C291.438 95.1616 286.988 97.6148 282.102 103.137C277.04 108.86 272.005 117.209 267.924 126.652H267.922Z" fill="black"/>
<path d="M294.455 138.144C302.928 118.538 304.597 100.391 298.183 97.6118C291.77 94.8326 279.701 108.474 271.228 128.08C262.755 147.686 261.086 165.833 267.5 168.612C273.914 171.391 285.982 157.75 294.455 138.144Z" fill="white"/>
<path d="M269.312 169.414C268.613 169.414 267.955 169.285 267.337 169.017C264.051 167.592 262.639 162.481 263.363 154.626C264.073 146.926 266.73 137.442 270.846 127.919C279.546 107.791 291.633 94.308 298.369 97.2268C301.655 98.651 303.068 103.763 302.343 111.617C301.634 119.317 298.977 128.801 294.86 138.324C286.956 156.612 276.254 169.414 269.312 169.414ZM271.241 128.089L271.635 128.261C267.554 137.702 264.92 147.094 264.219 154.706C263.543 162.054 264.803 166.982 267.679 168.228C270.555 169.474 275.005 167.021 279.891 161.499C284.953 155.776 289.988 147.427 294.069 137.984C298.15 128.543 300.784 119.151 301.483 111.539C302.159 104.191 300.899 99.2633 298.023 98.0171C295.147 96.771 290.697 99.2242 285.811 104.747C280.749 110.469 275.714 118.818 271.633 128.261L271.239 128.089H271.241Z" fill="black"/>
<path d="M269.707 155.959C269.693 155.959 269.68 155.959 269.668 155.959C269.432 155.938 269.258 155.728 269.279 155.49C269.947 148.226 272.454 139.28 276.336 130.299C282.199 116.734 290.131 105.683 296.542 102.148C296.752 102.032 297.013 102.108 297.127 102.318C297.242 102.527 297.166 102.789 296.957 102.903C290.703 106.352 282.918 117.24 277.125 130.641C273.278 139.54 270.795 148.394 270.135 155.568C270.113 155.791 269.926 155.959 269.707 155.959Z" fill="black"/>
<path d="M250.014 176.197L261.576 177.96C262.554 178.109 263.463 178.553 264.18 179.235L271.096 185.824C271.914 186.605 271.948 187.902 271.168 188.721L270.914 188.989C270.135 189.809 268.839 189.842 268.021 189.062L261.71 183.05C261.048 182.418 260.206 182.007 259.302 181.87L249.359 180.354L250.014 176.199V176.197Z" fill="#F2A391"/>
<path d="M250.126 171.706L262.606 173.678C263.788 173.866 264.888 174.408 265.755 175.235L265.961 175.431C267.467 176.867 268.172 178.95 267.848 181.006L267.611 182.501L263.968 179.054C263.436 178.551 262.766 178.222 262.045 178.107L245.74 175.531L245.852 174.819C246.174 172.776 248.087 171.383 250.126 171.704V171.706Z" fill="#F2A391"/>
<path d="M242.716 210.194C242.497 210.194 242.31 210.026 242.288 209.803L240.854 194.493C240.668 191.15 240.838 187.797 241.356 184.508L242.45 177.567C242.573 176.789 242.995 176.102 243.64 175.638C244.164 175.261 244.787 175.071 245.414 175.075L245.463 174.76C245.822 172.487 247.958 170.93 250.23 171.288L262.673 173.254C263.946 173.455 265.115 174.032 266.05 174.924C267.787 176.579 268.6 178.984 268.227 181.355L268.035 182.569C267.998 182.804 267.777 182.965 267.543 182.927C267.309 182.89 267.148 182.669 267.185 182.434L267.377 181.22C267.707 179.128 266.99 177.008 265.458 175.548C264.652 174.778 263.642 174.279 262.54 174.105L250.097 172.139C248.296 171.853 246.598 173.089 246.315 174.895L246.203 175.605C246.186 175.719 246.123 175.818 246.031 175.887C245.937 175.953 245.826 175.981 245.711 175.963C245.158 175.875 244.601 176.008 244.144 176.339C243.687 176.667 243.388 177.152 243.3 177.702L242.206 184.643C241.698 187.871 241.532 191.163 241.712 194.428L243.146 209.723C243.167 209.959 242.993 210.171 242.757 210.192C242.743 210.192 242.73 210.192 242.716 210.192V210.194Z" fill="black"/>
<path d="M261.726 183.049L266.198 187.31C267.046 188.118 267.079 189.46 266.272 190.307L266.116 190.471C265.309 191.32 263.971 191.354 263.123 190.546L259.292 186.895C258.661 186.295 257.862 185.903 257.002 185.774L248.703 184.516L249.358 180.361L259.325 181.872C260.228 182.009 261.066 182.419 261.726 183.047V183.049Z" fill="#F2A391"/>
<path d="M269.43 190.059C268.816 190.059 268.201 189.832 267.722 189.376L261.412 183.364C260.81 182.791 260.056 182.421 259.236 182.298L250.798 181.011C250.563 180.976 250.401 180.755 250.436 180.52C250.472 180.285 250.692 180.123 250.927 180.158L259.365 181.445C260.361 181.596 261.275 182.044 262.006 182.738L268.316 188.75C268.963 189.366 269.987 189.339 270.602 188.693L270.856 188.425C271.153 188.112 271.311 187.701 271.302 187.269C271.292 186.837 271.112 186.434 270.799 186.136L263.883 179.548C263.227 178.924 262.408 178.521 261.512 178.386L251.454 176.852C251.22 176.817 251.058 176.596 251.093 176.361C251.128 176.126 251.347 175.964 251.583 175.999L261.641 177.533C262.711 177.695 263.692 178.174 264.477 178.922L271.393 185.51C272.384 186.453 272.423 188.026 271.481 189.018L271.227 189.286C270.741 189.799 270.086 190.057 269.432 190.057L269.43 190.059Z" fill="black"/>
<path d="M259.298 186.891L261.605 189.095C262.443 189.897 262.477 191.228 261.678 192.067L261.5 192.255C260.699 193.098 259.366 193.129 258.526 192.327L256.864 190.739C256.233 190.138 255.434 189.747 254.574 189.618L248.053 188.641L248.707 184.486L256.897 185.715C257.8 185.852 258.638 186.263 259.298 186.891Z" fill="#F2A391"/>
<path d="M259.974 193.341C259.32 193.341 258.702 193.092 258.228 192.64L256.565 191.052C255.996 190.51 255.285 190.162 254.508 190.044L249.493 189.301C249.258 189.266 249.096 189.047 249.129 188.812C249.164 188.577 249.381 188.413 249.618 188.448L254.635 189.191C255.588 189.336 256.459 189.763 257.157 190.428L258.819 192.016C259.142 192.325 259.554 192.49 260.013 192.478C260.461 192.468 260.875 192.282 261.183 191.958L261.361 191.77C261.996 191.103 261.969 190.042 261.305 189.407C261.133 189.242 261.127 188.97 261.291 188.798C261.455 188.626 261.728 188.62 261.898 188.785C262.907 189.749 262.946 191.355 261.984 192.367L261.807 192.554C261.34 193.045 260.711 193.325 260.033 193.341C260.011 193.341 259.992 193.341 259.97 193.341H259.974Z" fill="black"/>
<path d="M264.581 191.559C263.95 191.559 263.317 191.327 262.825 190.857L258.994 187.207C258.425 186.665 257.714 186.317 256.936 186.199L250.142 185.174C249.907 185.139 249.745 184.92 249.78 184.683C249.815 184.448 250.036 184.286 250.271 184.321L257.065 185.346C258.017 185.491 258.89 185.918 259.588 186.581L263.419 190.231C264.093 190.873 265.163 190.845 265.804 190.172L265.96 190.008C266.271 189.681 266.437 189.253 266.425 188.801C266.414 188.349 266.228 187.931 265.902 187.619C265.73 187.455 265.722 187.183 265.886 187.011C266.05 186.839 266.324 186.833 266.494 186.995C266.986 187.465 267.267 188.099 267.285 188.78C267.303 189.46 267.052 190.108 266.584 190.601L266.427 190.765C265.927 191.291 265.253 191.557 264.581 191.557V191.559Z" fill="black"/>
<path d="M268.637 217.55L279.483 208.081C286.306 202.124 295.05 198.842 304.103 198.838L343.794 198.822C354.842 198.822 365.439 203.204 373.265 211.012L384.401 222.118L364.276 242.269L361.051 239.04V254.175H290.064V236.653L287.339 239.032L268.637 217.55Z" fill="#008BCE"/>
<path d="M361.051 254.606H290.065C289.827 254.606 289.635 254.413 289.635 254.176V237.6L287.623 239.357C287.445 239.514 287.171 239.496 287.015 239.316L268.313 217.834C268.157 217.654 268.176 217.382 268.354 217.226L279.201 207.757C286.103 201.732 294.947 198.412 304.102 198.408L343.792 198.393C355.03 198.393 365.605 202.767 373.568 210.707L384.704 221.813C384.784 221.893 384.831 222.003 384.831 222.118C384.831 222.234 384.786 222.343 384.704 222.424L364.579 242.575C364.417 242.738 364.132 242.738 363.972 242.575L361.481 240.081V254.176C361.481 254.415 361.287 254.606 361.051 254.606ZM290.495 253.744H360.621V239.038C360.621 238.864 360.727 238.708 360.887 238.641C361.047 238.575 361.233 238.612 361.356 238.735L364.277 241.66L383.792 222.118L372.961 211.318C365.16 203.538 354.801 199.253 343.792 199.253L304.102 199.269C295.154 199.273 286.511 202.518 279.765 208.405L269.243 217.59L287.379 238.422L289.78 236.325C289.907 236.213 290.086 236.188 290.241 236.258C290.395 236.329 290.493 236.481 290.493 236.65V253.742L290.495 253.744Z" fill="black"/>
<path d="M319.895 214.26L331.282 229.175L337.991 198.42H327.942L319.895 214.26Z" fill="white"/>
<path d="M331.282 229.606C331.149 229.606 331.022 229.545 330.94 229.437L319.552 214.523C319.451 214.392 319.435 214.214 319.509 214.065L327.556 198.227C327.631 198.082 327.779 197.992 327.939 197.992H337.989C338.12 197.992 338.243 198.051 338.325 198.153C338.407 198.254 338.438 198.387 338.409 198.515L331.698 229.269C331.663 229.434 331.536 229.561 331.372 229.598C331.341 229.606 331.309 229.608 331.278 229.608L331.282 229.606ZM320.4 214.214L331.059 228.174L337.457 198.851H328.205L320.4 214.212V214.214Z" fill="black"/>
<path d="M287.42 241.434C287.383 241.434 287.344 241.428 287.304 241.418C287.076 241.356 286.941 241.119 287.004 240.888L294.154 214.766C294.216 214.537 294.455 214.402 294.683 214.465C294.912 214.527 295.047 214.764 294.984 214.995L287.834 241.117C287.781 241.309 287.607 241.434 287.42 241.434Z" fill="black"/>
<path d="M361.05 239.041V250.927L347.775 225.748L361.05 239.041Z" fill="black"/>
<path d="M305.434 226.125L319.895 214.26V198.42H309.845L305.434 226.125Z" fill="white"/>
<path d="M305.433 226.556C305.359 226.556 305.284 226.536 305.218 226.499C305.064 226.409 304.98 226.235 305.007 226.057L309.418 198.352C309.452 198.143 309.631 197.988 309.842 197.988H319.892C320.13 197.988 320.322 198.182 320.322 198.419V214.257C320.322 214.386 320.263 214.509 320.164 214.589L305.703 226.454C305.624 226.519 305.527 226.552 305.429 226.552L305.433 226.556ZM310.212 198.853L306.037 225.075L319.464 214.057V198.853H310.212Z" fill="black"/>
<path d="M364.276 242.702C364.167 242.702 364.055 242.659 363.971 242.575L344.587 223.166C344.419 222.998 344.419 222.726 344.587 222.558C344.755 222.39 345.027 222.39 345.195 222.558L364.579 241.966C364.747 242.134 364.747 242.406 364.579 242.575C364.495 242.659 364.385 242.702 364.274 242.702H364.276Z" fill="black"/>
<path d="M308.706 244.596H314.436C317.019 244.596 319.566 245.183 321.887 246.313L332.947 251.697H308.706C306.789 251.697 305.234 250.142 305.234 248.221V248.07C305.234 246.151 306.788 244.594 308.706 244.594V244.596Z" fill="#F2A391"/>
<path d="M334.817 252.128H308.704C306.553 252.128 304.803 250.375 304.803 248.221V248.071C304.803 245.917 306.553 244.164 308.704 244.164H314.434C317.066 244.164 319.707 244.772 322.075 245.925L334.817 252.126V252.128ZM308.704 245.027C307.028 245.027 305.664 246.392 305.664 248.071V248.221C305.664 249.9 307.028 251.265 308.704 251.265H331.076L321.698 246.699C319.447 245.604 316.937 245.025 314.434 245.025H308.704V245.027Z" fill="black"/>
<path d="M325.227 276.543H287.947L274.289 233.1H311.569L325.227 276.543Z" fill="#B9BEC6"/>
<path d="M325.227 276.976H287.948C287.76 276.976 287.594 276.855 287.537 276.675L273.881 233.229C273.84 233.098 273.864 232.956 273.944 232.846C274.026 232.734 274.155 232.67 274.291 232.67H311.571C311.759 232.67 311.925 232.791 311.981 232.971L325.637 276.416C325.679 276.547 325.655 276.69 325.575 276.8C325.493 276.911 325.364 276.976 325.227 276.976ZM288.262 276.113H324.639L311.255 233.531H274.878L288.262 276.113Z" fill="black"/>
<path d="M306.16 236.41L303.886 229.176H278.729L281.003 236.41H306.16Z" fill="white"/>
<path d="M306.16 236.843H281.003C280.815 236.843 280.649 236.722 280.593 236.542L278.319 229.308C278.278 229.176 278.301 229.034 278.381 228.924C278.463 228.813 278.592 228.748 278.729 228.748H303.886C304.074 228.748 304.24 228.869 304.296 229.049L306.571 236.284C306.612 236.415 306.588 236.558 306.508 236.667C306.426 236.779 306.297 236.843 306.16 236.843ZM281.318 235.98H305.572L303.57 229.607H279.315L281.318 235.98Z" fill="black"/>
<path d="M310.966 246.929L304.001 244.23C302.741 243.741 301.383 244.672 301.383 246.025V246.213C301.383 247.009 301.871 247.723 302.612 248.009L309.002 250.486C309.748 250.775 310.542 250.924 311.343 250.924H318.684V246.927H310.964L310.966 246.929Z" fill="#F2A391"/>
<path d="M307.864 254.313L302.378 252.187C301.118 251.698 299.76 252.629 299.76 253.982V254.17C299.76 254.966 300.248 255.681 300.989 255.966L307.379 258.443C308.125 258.732 308.919 258.881 309.72 258.881H322.676V254.884H310.927C309.878 254.884 308.838 254.691 307.862 254.311L307.864 254.313Z" fill="#F2A391"/>
<path d="M308.94 250.456L301.645 247.631C300.373 247.138 299.004 248.079 299.004 249.444V249.597C299.004 250.399 299.496 251.121 300.244 251.41L307.895 254.374C308.8 254.724 309.763 254.904 310.734 254.904H322.676V250.908H311.339C310.519 250.908 309.704 250.755 308.938 250.46L308.94 250.456Z" fill="#F2A391"/>
<path d="M309.723 258.874C308.912 258.874 308.107 258.724 307.351 258.43L303.663 257C302.405 256.513 301.049 257.442 301.049 258.794V258.99C301.049 259.784 301.537 260.496 302.276 260.784L306.867 262.564C307.392 262.768 307.949 262.871 308.512 262.871H322.676V258.874H309.723Z" fill="#F2A391"/>
<path d="M323.043 257.846L310.182 252.861V262.14L320.177 266.015C322.07 266.749 324.082 267.127 326.114 267.127H330.836V257.848H323.041L323.043 257.846Z" fill="#F2A391"/>
<path d="M319.064 246.92H314.611L325.136 267.126H331.866V251.202L326.241 248.536C323.997 247.472 321.545 246.92 319.062 246.92H319.064Z" fill="#F2A391"/>
<path d="M385.59 265.31L328.967 267.125V251.201L370.611 244.597L352.178 226.501L372.866 214.881L396.294 237.02C406.879 247.021 400.133 264.844 385.588 265.31H385.59Z" fill="#F2A391"/>
<path d="M328.967 267.555C328.737 267.555 328.545 267.371 328.537 267.138C328.53 266.899 328.715 266.702 328.953 266.694L385.75 264.874C392.272 264.665 397.759 260.741 400.073 254.629C402.386 248.52 400.874 241.937 396.128 237.453L372.803 215.412L352.892 226.596L370.914 244.289C371.029 244.402 371.072 244.572 371.024 244.727C370.975 244.881 370.842 244.997 370.682 245.022L331.2 251.284C330.966 251.321 330.745 251.161 330.708 250.926C330.671 250.691 330.831 250.47 331.065 250.433L369.703 244.306L351.88 226.809C351.784 226.713 351.737 226.578 351.755 226.445C351.772 226.31 351.852 226.193 351.971 226.126L372.661 214.506C372.825 214.414 373.03 214.44 373.167 214.569L396.722 236.827C401.725 241.556 403.32 248.495 400.881 254.937C398.443 261.379 392.658 265.516 385.781 265.737L328.985 267.557C328.985 267.557 328.975 267.557 328.971 267.557L328.967 267.555Z" fill="black"/>
<path d="M318.138 255.333H310.734C309.706 255.333 308.698 255.146 307.741 254.774L300.09 251.81C299.184 251.458 298.574 250.57 298.574 249.596V249.443C298.574 248.659 298.959 247.927 299.606 247.485C300.25 247.043 301.071 246.945 301.802 247.229L309.097 250.053C309.816 250.331 310.572 250.474 311.343 250.474H318.142C318.38 250.474 318.572 250.668 318.572 250.904C318.572 251.141 318.378 251.335 318.142 251.335H311.343C310.466 251.335 309.605 251.174 308.788 250.857L301.493 248.033C301.02 247.851 300.51 247.909 300.094 248.195C299.678 248.481 299.438 248.936 299.438 249.443V249.596C299.438 250.216 299.827 250.783 300.403 251.006L308.053 253.97C308.913 254.302 309.816 254.471 310.738 254.471H318.142C318.38 254.471 318.572 254.664 318.572 254.901C318.572 255.138 318.378 255.331 318.142 255.331L318.138 255.333Z" fill="black"/>
<path d="M318.138 263.304H308.512C307.893 263.304 307.287 263.19 306.711 262.967L302.12 261.187C301.221 260.839 300.617 259.956 300.617 258.992V258.796C300.617 258.02 301 257.294 301.639 256.854C302.28 256.416 303.092 256.32 303.817 256.599L307.506 258.029C308.215 258.305 308.961 258.444 309.723 258.444H318.138C318.376 258.444 318.567 258.638 318.567 258.875C318.567 259.111 318.374 259.305 318.138 259.305H309.723C308.856 259.305 308.006 259.147 307.195 258.832L303.507 257.402C303.04 257.222 302.538 257.28 302.127 257.562C301.715 257.844 301.479 258.294 301.479 258.792V258.988C301.479 259.6 301.862 260.16 302.43 260.379L307.021 262.159C307.498 262.345 308 262.439 308.512 262.439H318.138C318.376 262.439 318.567 262.633 318.567 262.869C318.567 263.106 318.374 263.3 318.138 263.3V263.304Z" fill="black"/>
<path d="M331.128 251.269C331.065 251.269 331.001 251.255 330.938 251.226L323.051 247.36C322.838 247.254 322.75 246.998 322.854 246.783C322.959 246.57 323.215 246.48 323.43 246.585L331.317 250.451C331.53 250.557 331.618 250.813 331.515 251.028C331.44 251.181 331.286 251.269 331.128 251.269Z" fill="black"/>
<path d="M328.967 267.554H325.136C325.07 267.554 325.003 267.539 324.947 267.509C323.251 267.392 321.594 267.024 320.023 266.414L311.994 263.301H308.514C307.897 263.301 307.291 263.188 306.713 262.965L302.122 261.185C301.223 260.836 300.62 259.954 300.62 258.99V258.794C300.62 258.023 300.979 257.327 301.604 256.881C301.671 256.834 301.739 256.789 301.811 256.75L300.835 256.372C299.934 256.024 299.33 255.14 299.33 254.173V253.986C299.33 253.293 299.631 252.64 300.157 252.194C300.258 252.107 300.366 252.031 300.479 251.963L300.09 251.812C299.184 251.46 298.574 250.57 298.574 249.598V249.445C298.574 248.662 298.959 247.929 299.606 247.487C300.055 247.18 300.588 247.039 301.116 247.076C301.01 246.806 300.954 246.516 300.954 246.217V246.029C300.954 245.251 301.337 244.525 301.978 244.085C302.618 243.645 303.433 243.551 304.158 243.83L311.046 246.501H314.518C314.549 246.493 314.581 246.489 314.614 246.489H318.14C318.378 246.489 318.57 246.683 318.57 246.919C318.57 247.156 318.377 247.35 318.14 247.35H314.715C314.684 247.358 314.653 247.362 314.62 247.362H310.966C310.914 247.362 310.861 247.352 310.81 247.332L303.845 244.633C303.378 244.453 302.874 244.511 302.462 244.793C302.05 245.077 301.813 245.527 301.813 246.027V246.215C301.813 246.804 302.163 247.34 302.706 247.579C302.921 247.673 303.019 247.921 302.931 248.138C302.841 248.355 302.595 248.459 302.378 248.375L301.491 248.031C301.018 247.849 300.508 247.907 300.092 248.193C299.674 248.479 299.436 248.934 299.436 249.441V249.594C299.436 250.214 299.825 250.781 300.401 251.004L302.147 251.681C302.353 251.761 302.466 251.982 302.407 252.196C302.349 252.409 302.142 252.544 301.923 252.507C301.495 252.436 301.053 252.559 300.715 252.845C300.377 253.133 300.192 253.536 300.192 253.98V254.167C300.192 254.78 300.575 255.341 301.147 255.562L303.753 256.572C303.972 256.656 304.082 256.9 304.001 257.121C303.921 257.342 303.679 257.458 303.456 257.382C302.995 257.223 302.503 257.294 302.104 257.577C301.708 257.859 301.481 258.301 301.481 258.79V258.986C301.481 259.608 301.854 260.154 302.433 260.377L307.024 262.157C307.5 262.343 308.003 262.437 308.514 262.437H312.074C312.127 262.437 312.18 262.446 312.23 262.466L320.336 265.608C321.87 266.202 323.489 266.555 325.148 266.656C325.197 266.658 325.246 266.67 325.289 266.69H328.969C329.208 266.69 329.399 266.883 329.399 267.12C329.399 267.357 329.206 267.55 328.969 267.55L328.967 267.554Z" fill="black"/>
<path d="M364.988 245.919C364.779 245.919 364.597 245.766 364.564 245.553C364.527 245.318 364.689 245.097 364.923 245.062L381.256 242.523C381.49 242.486 381.711 242.648 381.746 242.883C381.783 243.118 381.621 243.339 381.387 243.374L365.054 245.913C365.033 245.917 365.009 245.919 364.988 245.919Z" fill="black"/>
<path d="M383.889 225.294L369.801 243.799L361.652 235.797L379.364 221.018L383.889 225.294Z" fill="black"/>
<path d="M364.489 242.058L384.403 222.119L373.267 211.012L347.988 225.535L364.489 242.058Z" fill="#008BCE"/>
<path d="M317.839 178.719L323.508 180.783C323.424 182.602 323.113 184.564 322.555 186.569C320.662 193.346 328.103 199.467 324.594 199.471C324.264 199.471 312.439 198.51 312.12 198.422C310.088 197.853 308.766 195.226 308.338 192.016C311.155 190.619 314.187 187.236 316.309 182.747C316.95 181.391 317.46 180.035 317.839 178.717V178.719Z" fill="black"/>
<path d="M324.513 190.208C328.799 189.877 332.004 186.129 331.673 181.837C331.342 177.545 327.599 174.335 323.313 174.667C319.027 174.999 315.821 178.747 316.153 183.038C316.484 187.33 320.227 190.54 324.513 190.208Z" fill="#F2A391"/>
<path d="M319.895 188.422V214.262L327.942 198.978L327.85 187.26L319.895 188.422Z" fill="#F2A391"/>
<path d="M323.88 184.686C323.314 186.008 321.809 186.675 320.442 186.178C319.942 185.996 319.529 185.681 319.225 185.288C320.729 185.089 322.317 184.883 323.88 184.686Z" fill="white"/>
<path d="M319.131 176.277C321.174 174.682 323.966 174.142 326.582 175.093C330.351 176.466 332.418 180.449 331.484 184.262C329.513 184.327 326.871 183.499 324.328 181.868C321.747 180.211 319.873 178.116 319.131 176.275V176.277Z" fill="black"/>
<path d="M321.259 190.175C321.21 190.175 321.161 190.168 321.112 190.15C316.855 188.601 314.652 183.87 316.201 179.61C316.951 177.546 318.459 175.897 320.448 174.967C322.437 174.038 324.668 173.94 326.729 174.691C328.792 175.443 330.437 176.953 331.365 178.942C332.293 180.934 332.391 183.166 331.641 185.232C331.334 186.075 330.898 186.858 330.343 187.552C330.195 187.738 329.925 187.769 329.738 187.621C329.552 187.472 329.521 187.202 329.669 187.014C330.166 186.392 330.556 185.694 330.83 184.936C331.502 183.088 331.414 181.088 330.584 179.306C329.753 177.524 328.278 176.172 326.432 175.499C324.586 174.826 322.589 174.914 320.81 175.746C319.03 176.577 317.68 178.054 317.008 179.903C315.623 183.72 317.596 187.953 321.405 189.34C321.628 189.422 321.743 189.669 321.663 189.892C321.601 190.066 321.435 190.175 321.259 190.175Z" fill="black"/>
<path d="M326.923 187.173C327.349 182.46 326.554 178.192 324.991 175.519C325.339 175.376 325.7 175.288 326.073 175.257C329.9 174.954 333.497 180.93 334.103 188.607C334.708 196.283 332.098 202.751 328.269 203.054C326.165 203.22 324.133 201.489 322.629 198.623C324.794 196.34 326.476 192.118 326.925 187.173H326.923Z" fill="black"/>
<path d="M270.084 295.39L390.978 292.34L394.733 385.549L270.084 385.999V295.39Z" fill="black"/>
<path d="M264.672 292.34H390.978V381.67L264.846 382.112L264.672 292.34Z" fill="white"/>
<path d="M271.779 382.975H264.846C264.608 382.975 264.416 382.783 264.416 382.545L264.242 292.341C264.242 292.225 264.287 292.116 264.367 292.035C264.447 291.955 264.557 291.908 264.672 291.908H390.978C391.216 291.908 391.408 292.102 391.408 292.339V381.668C391.408 381.907 391.214 382.099 390.978 382.099C390.742 382.099 390.548 381.905 390.548 381.668V292.769H265.104L265.276 382.111H271.779C272.018 382.111 272.209 382.304 272.209 382.541C272.209 382.778 272.016 382.971 271.779 382.971V382.975Z" fill="black"/>
<path d="M367.567 307.055C369.944 307.055 372.146 307.801 373.957 309.066L377.761 303.824C374.883 301.781 371.367 300.582 367.569 300.582C364.662 300.582 361.919 301.286 359.502 302.53L362.579 308.233C364.081 307.482 365.775 307.055 367.569 307.055H367.567Z" fill="#B9BEC6"/>
<path d="M357.055 332.373L360.857 327.13C358.155 325.093 356.406 321.858 356.406 318.213C356.406 314.569 358.164 311.313 360.88 309.277L357.783 303.539C353.05 306.7 349.932 312.092 349.932 318.211C349.932 324.01 352.731 329.155 357.055 332.369V332.373Z" fill="#B9BEC6"/>
<path d="M385.106 316.34C384.633 311.874 382.494 307.905 379.319 305.068L375.486 310.352C377.258 312.134 378.429 314.511 378.679 317.158L385.106 316.34Z" fill="#DFE3E8"/>
<path d="M378.687 319.163C378.206 324.884 373.414 329.375 367.569 329.375C365.764 329.375 364.062 328.945 362.554 328.184L358.721 333.47C361.321 334.982 364.345 335.849 367.571 335.849C377.271 335.849 385.142 328.018 385.204 318.334L378.689 319.163H378.687Z" fill="#DFE3E8"/>
<path d="M381.284 345.195H349.932C349.693 345.195 349.502 345.001 349.502 344.764C349.502 344.528 349.695 344.334 349.932 344.334H381.284C381.522 344.334 381.714 344.528 381.714 344.764C381.714 345.001 381.52 345.195 381.284 345.195Z" fill="black"/>
<path d="M381.284 352.443H372.182C371.943 352.443 371.752 352.249 371.752 352.012C371.752 351.776 371.945 351.582 372.182 351.582H381.284C381.522 351.582 381.714 351.776 381.714 352.012C381.714 352.249 381.52 352.443 381.284 352.443Z" fill="black"/>
<path d="M369.832 352.443H349.932C349.693 352.443 349.502 352.249 349.502 352.012C349.502 351.776 349.695 351.582 349.932 351.582H369.832C370.07 351.582 370.262 351.776 370.262 352.012C370.262 352.249 370.068 352.443 369.832 352.443Z" fill="black"/>
<path d="M381.285 359.689H362.235C361.996 359.689 361.805 359.495 361.805 359.259C361.805 359.022 361.998 358.828 362.235 358.828H381.285C381.523 358.828 381.714 359.022 381.714 359.259C381.714 359.495 381.521 359.689 381.285 359.689Z" fill="black"/>
<path d="M359.882 359.689H349.932C349.693 359.689 349.502 359.495 349.502 359.259C349.502 359.022 349.695 358.828 349.932 358.828H359.882C360.12 358.828 360.312 359.022 360.312 359.259C360.312 359.495 360.118 359.689 359.882 359.689Z" fill="black"/>
<path d="M336.884 301.992H274.82V344.428H336.884V301.992Z" fill="#B9BEC6"/>
<path d="M271.735 340.167C271.657 340.167 271.579 340.145 271.506 340.1C271.305 339.973 271.245 339.709 271.37 339.505L287.585 313.542C287.657 313.424 287.784 313.35 287.921 313.34C288.064 313.332 288.193 313.389 288.281 313.495L297.072 324.127L303.16 315.564C303.242 315.449 303.386 315.382 303.517 315.384C303.658 315.386 303.791 315.459 303.869 315.576L315.554 333.081L334.803 304.324C334.936 304.126 335.204 304.073 335.401 304.206C335.598 304.339 335.651 304.607 335.518 304.805L315.911 334.098C315.831 334.218 315.696 334.29 315.554 334.29C315.411 334.29 315.276 334.218 315.196 334.098L303.5 316.578L297.449 325.09C297.371 325.199 297.248 325.266 297.115 325.27C296.98 325.273 296.853 325.217 296.767 325.113L287.999 314.508L272.098 339.965C272.016 340.096 271.876 340.169 271.733 340.169L271.735 340.167Z" fill="black"/>
<path d="M334.622 311.654C334.61 311.654 334.598 311.654 334.586 311.654C334.35 311.634 334.172 311.427 334.192 311.19L334.674 305.269L328.979 307.917C328.765 308.017 328.509 307.923 328.407 307.708C328.307 307.493 328.401 307.237 328.616 307.135L334.981 304.175C335.12 304.11 335.282 304.124 335.409 304.212C335.534 304.3 335.604 304.447 335.593 304.601L335.051 311.261C335.034 311.486 334.844 311.656 334.624 311.656L334.622 311.654Z" fill="black"/>
<path d="M315.261 352.443H275.143C274.904 352.443 274.713 352.249 274.713 352.012C274.713 351.776 274.906 351.582 275.143 351.582H315.261C315.499 351.582 315.691 351.776 315.691 352.012C315.691 352.249 315.497 352.443 315.261 352.443Z" fill="black"/>
<path d="M295.203 359.689H275.143C274.904 359.689 274.713 359.495 274.713 359.259C274.713 359.022 274.906 358.828 275.143 358.828H295.203C295.441 358.828 295.633 359.022 295.633 359.259C295.633 359.495 295.439 359.689 295.203 359.689Z" fill="black"/>
<path d="M81.1924 380.238H48.8125L63.0527 352.848H85.9398L81.1924 380.238Z" fill="white"/>
<path d="M81.1928 380.671H48.8129C48.6624 380.671 48.5237 380.592 48.4456 380.463C48.3674 380.334 48.3616 380.174 48.4319 380.041L62.6721 352.651C62.7464 352.508 62.8929 352.418 63.0531 352.418H85.9402C86.0672 352.418 86.1883 352.475 86.2704 352.571C86.3524 352.666 86.3876 352.796 86.3661 352.921L81.6187 380.311C81.5835 380.518 81.4038 380.669 81.1948 380.669L81.1928 380.671ZM49.524 379.808H80.8314L85.4283 353.281H63.3149L49.524 379.808Z" fill="black"/>
<path d="M83.4596 385.967H77.3154L74.6936 383.26L72.0639 385.967H59.7031L56.927 383.26L54.0492 385.967H45.4258L46.596 379.629H82.2894L83.4596 385.967Z" fill="black"/>
<path d="M163.188 380.654C163.188 381.46 163.123 382.252 163.012 383.029H131.3C131.185 382.252 131.124 381.46 131.124 380.654C131.124 380.231 131.142 379.809 131.175 379.396H126.281L130.435 357.889H147.777L152.128 365.399C158.55 367.494 163.188 373.531 163.188 380.654Z" fill="white"/>
<path d="M163.013 383.46H131.301C131.088 383.46 130.906 383.303 130.875 383.092C130.754 382.29 130.693 381.468 130.693 380.655C130.693 380.379 130.701 380.101 130.715 379.827H126.282C126.153 379.827 126.032 379.77 125.95 379.671C125.868 379.571 125.835 379.442 125.86 379.315L130.013 357.807C130.052 357.604 130.23 357.459 130.435 357.459H147.778C147.932 357.459 148.073 357.541 148.151 357.674L152.42 365.044C159.125 367.305 163.62 373.557 163.62 380.657C163.62 381.439 163.56 382.259 163.439 383.092C163.407 383.303 163.226 383.462 163.013 383.462V383.46ZM131.674 382.597H162.636C162.718 381.932 162.759 381.281 162.759 380.655C162.759 373.876 158.433 367.909 151.996 365.81C151.894 365.777 151.81 365.709 151.758 365.617L147.532 358.32H130.791L126.805 378.966H131.178C131.299 378.966 131.412 379.017 131.494 379.105C131.576 379.193 131.617 379.313 131.606 379.432C131.572 379.831 131.555 380.244 131.555 380.655C131.555 381.304 131.596 381.956 131.676 382.597H131.674Z" fill="black"/>
<path d="M155.381 371.441C155.233 371.441 155.088 371.365 155.008 371.226L151.759 365.62C151.64 365.414 151.71 365.15 151.915 365.031C152.121 364.911 152.384 364.982 152.504 365.187L155.752 370.794C155.872 370.999 155.801 371.263 155.596 371.383C155.528 371.422 155.454 371.441 155.381 371.441Z" fill="black"/>
<path d="M165.064 385.735H158.523L155.725 383.027L152.924 385.735H139.76L136.804 383.027L133.735 385.735H124.551L125.799 379.395H163.821L165.064 385.735Z" fill="black"/>
<path d="M161.376 245.214L155.125 199.74H98.0426V230.333L87.2389 282.579L56.5801 359.702H87.2779L106.729 318.117C115.452 299.47 121.412 279.649 124.425 259.282L127.807 236.421L131.966 281.566L124.427 359.704H155.125L161.089 318.714C164.635 294.35 164.731 269.609 161.378 245.218L161.376 245.214Z" fill="#020202"/>
<path d="M155.122 360.129H124.424C124.303 360.129 124.188 360.078 124.106 359.988C124.024 359.898 123.984 359.779 123.996 359.658L131.531 281.561L127.376 236.457C127.355 236.22 127.528 236.011 127.765 235.987C127.999 235.968 128.21 236.14 128.234 236.377L132.393 281.52C132.395 281.547 132.395 281.575 132.393 281.6L124.901 359.264H154.753L160.662 318.642C164.202 294.312 164.3 269.626 160.95 245.268L154.698 199.794C154.665 199.557 154.831 199.34 155.065 199.309C155.3 199.276 155.518 199.442 155.55 199.677L161.801 245.151C165.162 269.588 165.064 294.357 161.512 318.767L155.548 359.757C155.517 359.969 155.335 360.127 155.122 360.127V360.129Z" fill="black"/>
<path d="M135.486 236.658H116.109C115.871 236.658 115.68 236.464 115.68 236.227C115.68 235.991 115.873 235.797 116.109 235.797H135.486C135.724 235.797 135.916 235.991 135.916 236.227C135.916 236.464 135.722 236.658 135.486 236.658Z" fill="white"/>
<path d="M128.914 210.375H146.843V220.814C146.843 225.765 142.828 229.787 137.881 229.787H137.874C132.929 229.787 128.912 225.767 128.912 220.814V210.375H128.914Z" fill="#020202"/>
<path d="M137.883 230.218H137.876C132.698 230.218 128.484 226.001 128.484 220.814V210.376C128.484 210.137 128.678 209.945 128.914 209.945H146.843C147.081 209.945 147.273 210.139 147.273 210.376V220.814C147.273 225.999 143.061 230.218 137.881 230.218H137.883ZM129.346 210.806V220.814C129.346 225.525 133.173 229.356 137.876 229.356H137.883C142.588 229.356 146.413 225.523 146.413 220.814V210.806H129.346Z" fill="white"/>
<path d="M101.019 288.759C100.946 288.759 100.874 288.742 100.806 288.702L87.0245 280.871C86.8506 280.772 86.7666 280.566 86.8252 280.375C86.8818 280.183 87.0655 280.054 87.2628 280.067L99.0785 280.774C99.3149 280.787 99.4966 280.993 99.483 281.229C99.4693 281.466 99.2661 281.648 99.0277 281.634L89.0602 281.04L101.23 287.955C101.437 288.073 101.509 288.335 101.392 288.542C101.312 288.681 101.167 288.761 101.017 288.761L101.019 288.759Z" fill="white"/>
<path d="M139.822 286.923C139.743 286.923 139.665 286.902 139.593 286.857L131.733 281.927C131.571 281.825 131.495 281.628 131.548 281.444C131.601 281.26 131.769 281.133 131.962 281.133H143.26C143.498 281.133 143.69 281.326 143.69 281.563C143.69 281.8 143.496 281.994 143.26 281.994H133.46L140.05 286.127C140.251 286.254 140.312 286.52 140.187 286.722C140.105 286.853 139.964 286.923 139.822 286.923Z" fill="white"/>
<path d="M173.91 112.982L169.91 123.28L168.973 117.216L169.938 114.587C170.479 113.115 172.099 112.349 173.577 112.867L173.908 112.982H173.91Z" fill="#F2A391"/>
<path d="M189.355 120.898L187.796 132.669L173.433 136.871L169.221 125.904C168.088 122.954 168.064 119.693 169.154 116.728L169.821 114.914L189.357 120.898H189.355Z" fill="#F2A391"/>
<path d="M139.454 127.384C152.999 127.384 163.98 116.398 163.98 102.846C163.98 89.2945 152.999 78.3086 139.454 78.3086C125.909 78.3086 114.928 89.2945 114.928 102.846C114.928 116.398 125.909 127.384 139.454 127.384Z" fill="#008BCE"/>
<path d="M195.317 128.78C195.262 128.78 195.208 128.77 195.155 128.748L165.981 116.838C165.876 116.795 165.79 116.711 165.747 116.606C165.702 116.5 165.702 116.381 165.747 116.275L168.536 109.528C168.626 109.309 168.878 109.205 169.097 109.293L198.238 121.189C198.343 121.232 198.427 121.316 198.472 121.422C198.517 121.528 198.517 121.647 198.472 121.753L195.716 128.512C195.647 128.678 195.487 128.78 195.317 128.78ZM166.706 116.205L195.081 127.788L197.511 121.827L169.165 110.256L166.704 116.207L166.706 116.205Z" fill="black"/>
<path d="M139.454 127.815C125.693 127.815 114.498 116.613 114.498 102.847C114.498 89.0806 125.693 77.8789 139.454 77.8789C153.216 77.8789 164.41 89.0806 164.41 102.847C164.41 116.613 153.216 127.815 139.454 127.815ZM139.454 78.7397C126.167 78.7397 115.358 89.554 115.358 102.847C115.358 116.14 126.167 126.954 139.454 126.954C152.741 126.954 163.551 116.14 163.551 102.847C163.551 89.554 152.741 78.7397 139.454 78.7397Z" fill="black"/>
<path d="M153.526 117.356C153.417 117.356 153.306 117.313 153.222 117.229C153.054 117.061 153.054 116.787 153.222 116.619C156.18 113.661 158.075 109.92 158.702 105.806C158.737 105.571 158.958 105.409 159.192 105.444C159.427 105.479 159.589 105.701 159.554 105.935C158.899 110.233 156.92 114.138 153.831 117.229C153.747 117.313 153.638 117.354 153.526 117.354V117.356Z" fill="black"/>
<path d="M159.127 100.251C158.918 100.251 158.734 100.099 158.703 99.8855C157.267 90.4679 148.993 83.3666 139.453 83.3666C139.215 83.3666 139.023 83.173 139.023 82.9362C139.023 82.6995 139.217 82.5059 139.453 82.5059C149.413 82.5059 158.054 89.9221 159.552 99.7564C159.588 99.9911 159.427 100.212 159.191 100.247C159.17 100.251 159.148 100.253 159.125 100.253L159.127 100.251Z" fill="black"/>
<path d="M166.561 115.877C166.506 115.877 166.451 115.867 166.397 115.843L161.597 113.872C161.378 113.782 161.272 113.529 161.362 113.31C161.452 113.089 161.704 112.985 161.925 113.075L166.326 114.885L167.925 110.994L163.21 109.055C162.99 108.965 162.886 108.713 162.976 108.494C163.066 108.273 163.318 108.169 163.539 108.259L168.651 110.36C168.757 110.403 168.841 110.487 168.886 110.593C168.931 110.698 168.931 110.818 168.886 110.923L166.961 115.611C166.893 115.777 166.733 115.879 166.563 115.879L166.561 115.877Z" fill="black"/>
<path d="M178.952 111.016L174.544 123.012L170.582 121.554L174.989 109.556C175.374 108.506 176.537 107.968 177.586 108.353L177.748 108.414C178.797 108.799 179.336 109.965 178.95 111.018L178.952 111.016Z" fill="#F2A391"/>
<path d="M183.575 110.67L178.937 123.296L174.975 121.839L179.615 109.209C180.003 108.153 181.172 107.611 182.227 107.998L182.365 108.049C183.422 108.438 183.963 109.61 183.575 110.669V110.67Z" fill="#F2A391"/>
<path d="M191.493 113.6L186.929 126.022L182.967 124.565L187.532 112.138C187.923 111.072 189.103 110.526 190.168 110.918L190.273 110.957C191.338 111.348 191.885 112.532 191.493 113.6Z" fill="#F2A391"/>
<path d="M191.492 122.746L187.839 132.576L183.857 131.113L190.019 114.455L191.457 118.184C192.022 119.649 192.035 121.271 191.492 122.746Z" fill="#F2A391"/>
<path d="M185.82 110.345L186.035 110.425C187.071 110.804 187.545 112.099 187.1 113.316L182.64 125.455L178.678 123.998L183.138 111.859C183.585 110.642 184.785 109.965 185.82 110.347V110.345Z" fill="#F2A391"/>
<path d="M182.01 115.36C181.961 115.36 181.91 115.352 181.862 115.332C181.639 115.25 181.524 115.002 181.606 114.778L183.171 110.518C183.319 110.115 183.302 109.678 183.122 109.289C182.942 108.9 182.62 108.602 182.217 108.456L182.08 108.405C181.248 108.098 180.322 108.526 180.017 109.36L178.24 114.199C178.158 114.422 177.909 114.538 177.687 114.456C177.464 114.374 177.349 114.125 177.431 113.902L179.209 109.062C179.677 107.785 181.098 107.127 182.375 107.597L182.512 107.648C183.132 107.875 183.624 108.331 183.901 108.929C184.179 109.528 184.206 110.199 183.977 110.817L182.413 115.078C182.348 115.252 182.184 115.36 182.008 115.36H182.01Z" fill="black"/>
<path d="M185.742 117.44C185.694 117.44 185.643 117.433 185.594 117.413C185.371 117.331 185.256 117.082 185.338 116.859L186.815 112.837C186.96 112.444 186.942 112.02 186.766 111.64C186.59 111.26 186.278 110.973 185.885 110.828L185.67 110.748C184.859 110.451 183.959 110.867 183.66 111.677L182.234 115.558C182.152 115.781 181.904 115.897 181.681 115.815C181.458 115.733 181.343 115.484 181.425 115.261L182.851 111.38C183.312 110.124 184.709 109.476 185.965 109.938L186.18 110.018C186.788 110.241 187.272 110.689 187.546 111.278C187.817 111.867 187.845 112.526 187.62 113.135L186.143 117.157C186.079 117.331 185.914 117.438 185.739 117.438L185.742 117.44Z" fill="black"/>
<path d="M187.973 131.634L187.547 149.425L172.221 144.528L172.572 125.971L187.973 131.634Z" fill="#F2A391"/>
<path d="M187.827 137.695L187.547 149.423L172.221 144.527L172.318 139.389L181.833 138.351L187.827 137.695Z" fill="black"/>
<path d="M170.988 120.877C170.939 120.877 170.888 120.869 170.839 120.85C170.616 120.768 170.501 120.519 170.583 120.296L174.584 109.405C175.051 108.134 176.466 107.48 177.735 107.948L177.896 108.007C178.511 108.234 179.001 108.686 179.277 109.282C179.552 109.879 179.58 110.546 179.353 111.16L177.923 115.055C177.841 115.278 177.593 115.394 177.37 115.312C177.147 115.229 177.032 114.981 177.114 114.758L178.544 110.863C178.691 110.464 178.673 110.03 178.495 109.644C178.316 109.257 177.997 108.963 177.599 108.817L177.438 108.758C176.612 108.455 175.696 108.879 175.391 109.705L171.39 120.595C171.325 120.77 171.161 120.877 170.986 120.877H170.988Z" fill="black"/>
<path d="M187.548 149.854C187.505 149.854 187.46 149.848 187.417 149.835L172.09 144.938C171.909 144.879 171.788 144.709 171.791 144.52L171.985 134.308L168.818 126.06C167.763 123.315 167.64 120.25 168.468 117.429C168.537 117.2 168.775 117.071 169.004 117.137C169.232 117.204 169.361 117.445 169.295 117.673C168.519 120.314 168.634 123.182 169.623 125.751L172.821 134.077C172.841 134.13 172.85 134.184 172.85 134.239L172.661 144.214L187.134 148.839L187.528 132.324C187.528 132.277 187.538 132.23 187.556 132.185L191.092 122.597C191.598 121.22 191.586 119.708 191.058 118.341L190.24 116.216C190.203 116.12 190.201 116.016 190.236 115.919L191.092 113.458C191.244 113.043 191.226 112.603 191.045 112.208C190.863 111.814 190.539 111.513 190.13 111.364L190.027 111.325C189.187 111.016 188.251 111.449 187.94 112.29L185.924 117.777C185.842 118 185.594 118.116 185.371 118.033C185.149 117.951 185.033 117.703 185.115 117.48L187.132 111.992C187.604 110.705 189.034 110.044 190.322 110.515L190.425 110.555C191.049 110.783 191.545 111.241 191.824 111.846C192.104 112.448 192.131 113.125 191.9 113.747L191.099 116.054L191.861 118.031C192.465 119.594 192.477 121.324 191.9 122.897L188.39 132.418L187.983 149.436C187.979 149.571 187.913 149.698 187.804 149.776C187.729 149.829 187.643 149.856 187.554 149.856L187.548 149.854Z" fill="black"/>
<path d="M180.285 192.749C180.207 192.749 180.127 192.749 180.049 192.747C176.431 192.684 173.053 191.215 170.538 188.611C168.024 186.007 166.672 182.578 166.734 178.957L167.268 141.923C167.272 141.688 167.463 141.498 167.698 141.498L194.045 141.551C194.16 141.551 194.271 141.598 194.351 141.68C194.432 141.762 194.476 141.874 194.475 141.989L193.83 179.425C193.703 186.819 187.648 192.747 180.285 192.747V192.749ZM168.122 142.363L167.594 178.973C167.536 182.365 168.8 185.575 171.156 188.013C173.512 190.452 176.675 191.827 180.062 191.886C180.137 191.886 180.211 191.886 180.285 191.886C187.181 191.886 192.849 186.336 192.97 179.411L193.607 142.414L168.122 142.363Z" fill="black"/>
<path d="M194.045 141.98L193.4 179.419C193.275 186.667 187.303 192.442 180.055 192.317C176.587 192.256 173.457 190.855 171.15 188.611L171.146 188.615L153.713 174.295L157.199 199.737L95.4142 205.563L96.7388 190.662C94.6171 191.679 92.6029 192.221 90.5457 192.221C88.4885 192.221 86.5524 191.72 84.3565 190.666C77.7238 187.477 75.8014 177.725 78.9859 171.093L90.5457 147.107C95.0938 137.67 104.639 131.676 115.111 131.676H130.299C143.781 131.676 156.71 137.032 166.242 146.573L167.616 147.948L167.702 141.929L194.047 141.98H194.045Z" fill="#008BCE"/>
<path d="M95.4115 205.996C95.2982 205.996 95.1887 205.951 95.1086 205.87C95.0188 205.781 94.9719 205.653 94.9836 205.526L96.2437 191.363C94.251 192.231 92.3813 192.654 90.5449 192.654C88.4916 192.654 86.4051 192.132 84.1701 191.056C80.9368 189.5 78.5944 186.384 77.5726 182.276C76.6114 178.41 76.9845 174.267 78.5983 170.908L90.1581 146.922C94.7472 137.399 104.543 131.246 115.11 131.246H130.298C143.993 131.246 156.866 136.581 166.544 146.27L167.197 146.924L167.269 141.923C167.273 141.689 167.464 141.499 167.699 141.499L194.044 141.55C194.159 141.55 194.271 141.597 194.351 141.679C194.431 141.761 194.476 141.873 194.474 141.988L193.829 179.427C193.7 186.902 187.507 192.879 180.046 192.748C176.613 192.689 173.37 191.347 170.903 188.97C170.893 188.962 170.883 188.956 170.874 188.947L154.289 175.323L157.626 199.677C157.641 199.792 157.61 199.912 157.536 200.004C157.464 200.096 157.356 200.154 157.239 200.164L95.4544 205.99C95.4408 205.99 95.4271 205.99 95.4134 205.99L95.4115 205.996ZM96.738 190.232C96.824 190.232 96.9099 190.257 96.9842 190.308C97.1111 190.396 97.1815 190.547 97.1678 190.7L95.8882 205.086L156.711 199.35L153.287 174.353C153.263 174.177 153.349 174.005 153.504 173.919C153.658 173.832 153.849 173.85 153.986 173.962L171.366 188.237C171.397 188.254 171.424 188.276 171.452 188.301C173.769 190.557 176.826 191.828 180.064 191.885C187.062 192.004 192.85 186.409 192.971 179.41L193.61 142.409L168.127 142.358L168.047 147.953C168.045 148.127 167.939 148.281 167.779 148.346C167.619 148.411 167.435 148.373 167.312 148.252L165.939 146.877C156.422 137.352 143.765 132.105 130.3 132.105H115.112C104.873 132.105 95.3822 138.066 90.9356 147.293L79.3758 171.279C77.8715 174.413 77.5101 178.445 78.4107 182.066C79.37 185.92 81.5483 188.835 84.5452 190.277C86.663 191.294 88.6244 191.789 90.5469 191.789C92.4693 191.789 94.4229 191.292 96.5544 190.271C96.613 190.244 96.6774 190.228 96.74 190.228L96.738 190.232Z" fill="black"/>
<path d="M171.144 189.046C171.048 189.046 170.951 189.015 170.87 188.948L142.841 165.925C142.658 165.774 142.63 165.502 142.781 165.318C142.931 165.134 143.203 165.107 143.386 165.257L171.416 188.281C171.599 188.432 171.627 188.704 171.476 188.887C171.392 188.991 171.267 189.046 171.144 189.046Z" fill="black"/>
<path d="M189.698 170.483C189.589 170.483 189.477 170.44 189.393 170.358L165.932 146.879C156.277 137.215 143.811 132.107 129.881 132.107C129.643 132.107 129.451 131.913 129.451 131.676C129.451 131.44 129.645 131.246 129.881 131.246C144.043 131.246 156.72 136.442 166.541 146.27L190.003 169.75C190.171 169.918 190.171 170.19 190.003 170.36C189.919 170.444 189.809 170.487 189.698 170.487V170.483Z" fill="black"/>
<path d="M96.805 191.099C96.7913 191.099 96.7757 191.099 96.762 191.097C96.5256 191.074 96.3537 190.862 96.3771 190.626L100.068 153.272C100.091 153.036 100.298 152.861 100.538 152.885C100.775 152.908 100.947 153.12 100.923 153.356L97.2328 190.71C97.2113 190.933 97.0238 191.099 96.805 191.099Z" fill="black"/>
<path d="M134.981 117.191C134.981 121.847 135.282 128.305 130.626 128.305C125.971 128.305 118.127 121.847 118.127 117.191C118.127 112.535 121.899 108.762 126.553 108.762C131.207 108.762 134.979 112.535 134.979 117.191H134.981Z" fill="#F2A391"/>
<path d="M130.629 128.736C125.832 128.736 117.699 122.175 117.699 117.192C117.699 112.209 121.673 108.33 126.555 108.33C131.437 108.33 135.411 112.305 135.411 117.192V117.99C135.427 121.584 135.44 125.657 133.483 127.623C132.748 128.36 131.787 128.736 130.627 128.736H130.629ZM126.555 109.193C122.146 109.193 118.559 112.781 118.559 117.192C118.559 121.603 126.258 127.873 130.627 127.873C131.564 127.873 132.299 127.592 132.873 127.015C134.577 125.303 134.563 121.249 134.551 117.994V117.192C134.551 112.781 130.963 109.193 126.553 109.193H126.555Z" fill="black"/>
<path d="M138.074 115.127C136.788 110.833 132.811 107.703 128.1 107.703C123.39 107.703 119.559 110.583 118.383 115.127H138.074Z" fill="black"/>
<path d="M129.575 117.191H119.828V131.678H129.575V117.191Z" fill="#F2A391"/>
<path d="M129.576 132.255C129.338 132.255 129.146 132.061 129.146 131.824V123.665C129.146 123.426 129.34 123.234 129.576 123.234C129.813 123.234 130.006 123.428 130.006 123.665V131.824C130.006 132.063 129.813 132.255 129.576 132.255Z" fill="black"/>
<path d="M318.156 49.166H401.996V98.928H317.982L318.156 49.166Z" fill="black"/>
<path d="M315.094 46.918H398.933V96.68H314.92L315.094 46.918Z" fill="white"/>
<path d="M398.933 97.111H314.92C314.805 97.111 314.695 97.0661 314.615 96.9839C314.535 96.9037 314.488 96.7922 314.49 96.6787L314.664 46.9167C314.664 46.68 314.858 46.4863 315.094 46.4863H398.935C399.174 46.4863 399.365 46.68 399.365 46.9167V96.6787C399.365 96.9174 399.172 97.1091 398.935 97.1091L398.933 97.111ZM315.352 96.2483H398.503V47.3491H315.522L315.352 96.2503V96.2483Z" fill="black"/>
<path d="M328.086 77.293H321.25V91.5797H328.086V77.293Z" fill="#BBD8FF"/>
<path d="M341 66.1211H334.164V91.5782H341V66.1211Z" fill="#BBD8FF"/>
<path d="M353.912 70.6816H347.076V91.5767H353.912V70.6816Z" fill="#BBD8FF"/>
<path d="M366.824 65.5996H359.988V91.5771H366.824V65.5996Z" fill="#BBD8FF"/>
<path d="M379.736 59.7168H372.9V91.5788H379.736V59.7168Z" fill="#BBD8FF"/>
<path d="M392.648 52.1875H385.812V91.5773H392.648V52.1875Z" fill="#BBD8FF"/>
<path d="M331.972 87.3818C331.874 87.3818 331.779 87.3486 331.699 87.284L320.977 78.4436C320.793 78.2929 320.768 78.021 320.918 77.8371C321.069 77.6532 321.34 77.6278 321.524 77.7784L331.99 86.4076L346.001 76.2838C346.173 76.1586 346.412 76.1801 346.562 76.3327L351.884 81.7888L370.023 67.4043C370.201 67.2634 370.459 67.2849 370.612 67.4551L375.568 73.0344L392.371 58.7125C392.551 58.5579 392.823 58.5795 392.979 58.7614C393.133 58.9433 393.112 59.2152 392.93 59.3698L375.806 73.9637C375.629 74.1143 375.361 74.0967 375.207 73.9226L370.24 68.3335L352.114 82.7063C351.94 82.8432 351.692 82.8276 351.54 82.6691L346.206 77.2013L332.228 87.3016C332.152 87.3564 332.064 87.3838 331.976 87.3838L331.972 87.3818Z" fill="#020202"/>
<path d="M120.26 120.992H119.398V131.675H120.26V120.992Z" fill="black"/>
</g>
</g>
<defs>
<clipPath id="clip0_2430_10535">
<rect width="427" height="425" fill="white"/>
</clipPath>
<clipPath id="clip1_2430_10535">
<rect width="357" height="358" fill="white" transform="translate(45 28)"/>
</clipPath>
</defs>
</svg>
