<svg width="427" height="425" viewBox="0 0 427 425" fill="none" xmlns="http://www.w3.org/2000/svg">
<g clip-path="url(#clip0_2447_10398)">
<path d="M400.041 382.57C388.531 392.16 338.441 398.94 278.761 401.49C187.021 405.42 72.6009 399.37 40.7909 378.2C25.7309 368.19 15.5509 337.25 9.1009 297.66C-6.9291 199.16 0.220901 47.1301 13.1609 30.6501C31.3109 7.56009 323.301 -15.3099 399.911 13.9301C432.741 26.4601 429.231 358.23 400.031 382.57H400.041Z" fill="white"/>
<path d="M373.314 247.44L375.204 241.883L377.358 247.44C377.358 247.44 381.657 248.14 381.712 248.531C381.757 248.913 377.595 250.095 377.595 250.095C377.595 250.095 375.85 255.488 375.204 254.27C374.568 253.051 373.95 250.35 373.95 250.35C373.95 250.35 368.533 249.268 368.533 248.731C368.533 248.158 373.314 247.449 373.314 247.449V247.44Z" fill="white"/>
<path d="M304.094 233.142L305.566 228.822L307.238 233.142C307.238 233.142 310.574 233.688 310.619 233.988C310.656 234.279 307.429 235.198 307.429 235.198C307.429 235.198 306.075 239.381 305.575 238.435C305.075 237.49 304.594 235.389 304.594 235.389C304.594 235.389 300.395 234.543 300.395 234.134C300.395 233.688 304.103 233.142 304.103 233.142H304.094Z" fill="white"/>
<path d="M396.938 45.1665C397.71 43.3039 396.825 41.1686 394.96 40.3971C393.096 39.6256 390.959 40.5101 390.187 42.3727C389.415 44.2352 390.3 46.3705 392.164 47.142C394.028 47.9135 396.165 47.0291 396.938 45.1665Z" fill="#0D0D0D"/>
<path d="M383.259 47.4371C385.267 47.2386 386.734 45.4513 386.535 43.4451C386.337 41.4389 384.548 39.9734 382.54 40.1719C380.532 40.3703 379.065 42.1576 379.264 44.1639C379.463 46.1701 381.251 47.6356 383.259 47.4371Z" fill="#E2EAFF"/>
<path d="M375.611 45.1675C376.384 43.3049 375.498 41.1696 373.634 40.3981C371.77 39.6266 369.633 40.511 368.861 42.3736C368.089 44.2362 368.974 46.3715 370.838 47.143C372.702 47.9145 374.839 47.03 375.611 45.1675Z" fill="#E2EAFF"/>
<path d="M352.66 55.3619H300.33C300.147 55.3619 300 55.2152 300 55.0325C300 54.8499 300.147 54.7031 300.33 54.7031H352.66C352.843 54.7031 352.99 54.8499 352.99 55.0325C352.99 55.2152 352.843 55.3619 352.66 55.3619Z" fill="black"/>
<path d="M397.218 55.3619H359.787C359.604 55.3619 359.457 55.2152 359.457 55.0325C359.457 54.8499 359.604 54.7031 359.787 54.7031H397.218C397.4 54.7031 397.547 54.8499 397.547 55.0325C397.547 55.2152 397.4 55.3619 397.218 55.3619Z" fill="black"/>
<path d="M374.127 63.0397H343.98C343.797 63.0397 343.65 62.8929 343.65 62.7103C343.65 62.5276 343.797 62.3809 343.98 62.3809H374.127C374.31 62.3809 374.456 62.5276 374.456 62.7103C374.456 62.8929 374.31 63.0397 374.127 63.0397Z" fill="black"/>
<path d="M397.217 63.0397H381.853C381.67 63.0397 381.523 62.8929 381.523 62.7103C381.523 62.5276 381.67 62.3809 381.853 62.3809H397.217C397.4 62.3809 397.547 62.5276 397.547 62.7103C397.547 62.8929 397.4 63.0397 397.217 63.0397Z" fill="black"/>
<path d="M355.793 70.7193H343.982C343.799 70.7193 343.652 70.5726 343.652 70.3899C343.652 70.2073 343.799 70.0605 343.982 70.0605H355.793C355.976 70.0605 356.123 70.2073 356.123 70.3899C356.123 70.5726 355.976 70.7193 355.793 70.7193Z" fill="black"/>
<path d="M397.201 151.629C397.018 151.629 396.871 151.48 396.871 151.299L396.888 70.7193H365.091C364.909 70.7193 364.762 70.5726 364.762 70.3899C364.762 70.2073 364.909 70.0605 365.091 70.0605H397.218C397.305 70.0605 397.388 70.095 397.451 70.1564C397.514 70.2178 397.547 70.3016 397.547 70.3899L397.531 151.299C397.531 151.482 397.382 151.629 397.201 151.629Z" fill="black"/>
</g>
<defs>
<clipPath id="clip0_2447_10398">
<rect width="427" height="425" fill="white"/>
</clipPath>
</defs>
</svg>
