<svg width="427" height="425" viewBox="0 0 427 425" fill="none" xmlns="http://www.w3.org/2000/svg">
<g clip-path="url(#clip0_2438_13179)">
<path d="M400.041 382.57C388.531 392.16 338.441 398.94 278.761 401.49C187.021 405.42 72.6009 399.37 40.7909 378.2C25.7309 368.19 15.5509 337.25 9.1009 297.66C-6.9291 199.16 0.220901 47.1301 13.1609 30.6501C31.3109 7.56009 323.301 -15.3099 399.911 13.9301C432.741 26.4601 429.231 358.23 400.031 382.57H400.041Z" fill="white"/>
<path d="M373.314 247.44L375.204 241.883L377.358 247.44C377.358 247.44 381.657 248.14 381.712 248.531C381.757 248.913 377.595 250.095 377.595 250.095C377.595 250.095 375.85 255.488 375.204 254.27C374.568 253.051 373.95 250.35 373.95 250.35C373.95 250.35 368.533 249.268 368.533 248.731C368.533 248.158 373.314 247.449 373.314 247.449V247.44Z" fill="white"/>
<path d="M304.094 233.142L305.566 228.822L307.238 233.142C307.238 233.142 310.574 233.688 310.619 233.988C310.656 234.279 307.429 235.198 307.429 235.198C307.429 235.198 306.075 239.381 305.575 238.435C305.075 237.49 304.594 235.389 304.594 235.389C304.594 235.389 300.395 234.543 300.395 234.134C300.395 233.688 304.103 233.142 304.103 233.142H304.094Z" fill="white"/>
<g clip-path="url(#clip1_2438_13179)">
<path d="M402.824 232.175C427.064 207.885 427.064 168.502 402.824 144.212C378.585 119.921 339.284 119.921 315.044 144.212C290.805 168.502 290.805 207.885 315.044 232.175C339.284 256.466 378.585 256.466 402.824 232.175Z" fill="#E5E5E4"/>
<path d="M385.467 111.527L298.676 24.5547L211.885 111.527L298.676 198.5L385.467 111.527Z" fill="white"/>
<mask id="mask0_2438_13179" style="mask-type:luminance" maskUnits="userSpaceOnUse" x="211" y="24" width="175" height="175">
<path d="M385.467 111.527L298.676 24.5547L211.885 111.527L298.676 198.5L385.467 111.527Z" fill="white"/>
</mask>
<g mask="url(#mask0_2438_13179)">
<path d="M385.467 111.527L298.676 24.5547L211.885 111.527L298.676 198.5L385.467 111.527Z" fill="white"/>
<path d="M286.348 149.179C291.612 148.137 295.048 142.958 294.025 137.605C293.002 132.252 287.914 128.756 282.65 129.79C277.386 130.832 273.95 136.01 274.973 141.364C275.996 146.717 281.085 150.213 286.348 149.179Z" fill="#FFCFC5"/>
<path d="M287.012 194.766C290.081 194.162 292.083 191.139 291.489 188.011C290.894 184.883 287.922 182.85 284.853 183.455C281.784 184.06 279.781 187.082 280.376 190.21C280.971 193.33 283.943 195.371 287.012 194.766Z" fill="#FFCFC5"/>
<path d="M274.973 141.364L280.376 190.202L291.489 188.012L294.025 137.605L274.973 141.364Z" fill="#FFCFC5"/>
<path d="M275.086 135.975C273.766 141.268 276.913 146.639 282.107 147.979C287.301 149.32 292.582 146.122 293.893 140.829C295.214 135.537 292.066 130.166 286.872 128.826C281.679 127.485 276.398 130.683 275.086 135.975Z" fill="#FFCFC5"/>
<path d="M288.088 103.014C294.298 103.014 299.332 97.8905 299.332 91.5708C299.332 85.2511 294.298 80.1279 288.088 80.1279C281.878 80.1279 276.844 85.2511 276.844 91.5708C276.844 97.8905 281.878 103.014 288.088 103.014Z" fill="#FFCFC5"/>
<path d="M298.982 94.3741L293.902 140.829L275.086 135.975L277.193 88.7578L298.982 94.3741Z" fill="#FFCFC5"/>
<path d="M276.837 158.046L275.499 141.539C275.499 141.539 274.913 137.596 277.693 134.293" stroke="#E38C72" stroke-width="1.24" stroke-miterlimit="10" stroke-linecap="round"/>
<path d="M272.665 86.8745C272.665 88.4779 272.988 90.0112 273.574 91.3956L277.5 110.794L298.554 111.994L295.144 86.8745C295.144 80.5573 290.117 75.4316 283.9 75.4316C277.684 75.4316 272.656 80.5485 272.656 86.8745H272.665Z" fill="#018BCE"/>
<path d="M299.403 109.059L300.181 113.94L276.399 112.003L275.621 107.123L299.403 109.059Z" fill="#DFDFDF"/>
<path d="M343.121 156.372H282.939L284.513 75.6504L339.982 78.5505L343.121 156.372Z" fill="#018BCE"/>
<mask id="mask1_2438_13179" style="mask-type:luminance" maskUnits="userSpaceOnUse" x="282" y="75" width="62" height="82">
<path d="M343.121 156.372H282.939L284.513 75.6504L339.982 78.5505L343.121 156.372Z" fill="white"/>
</mask>
<g mask="url(#mask1_2438_13179)">
<path d="M333.092 101.174C333.092 103.925 335.286 106.159 337.988 106.159C340.69 106.159 342.884 103.925 342.884 101.174C342.884 98.4227 340.69 96.1885 337.988 96.1885C335.286 96.1885 333.092 98.4227 333.092 101.174Z" fill="#DFDFDF"/>
<path d="M300.451 119.389C300.451 122.14 302.646 124.374 305.348 124.374C308.049 124.374 310.244 122.14 310.244 119.389C310.244 116.638 308.049 114.403 305.348 114.403C302.646 114.403 300.451 116.638 300.451 119.389Z" fill="#DFDFDF"/>
<path d="M278.654 101.174C278.654 103.925 280.849 106.159 283.551 106.159C286.252 106.159 288.447 103.925 288.447 101.174C288.447 98.4227 286.252 96.1885 283.551 96.1885C280.849 96.1885 278.654 98.4227 278.654 101.174Z" fill="#DFDFDF"/>
<path d="M278.654 141.522C278.654 144.273 280.849 146.507 283.551 146.507C286.252 146.507 288.447 144.273 288.447 141.522C288.447 138.77 286.252 136.536 283.551 136.536C280.849 136.536 278.654 138.77 278.654 141.522Z" fill="#DFDFDF"/>
<path d="M336.318 122.885C336.318 125.636 338.513 127.87 341.215 127.87C343.916 127.87 346.111 125.636 346.111 122.885C346.111 120.134 343.916 117.899 341.215 117.899C338.513 117.899 336.318 120.134 336.318 122.885Z" fill="#DFDFDF"/>
<path d="M315.867 152.316C315.867 155.067 318.062 157.301 320.764 157.301C323.465 157.301 325.66 155.067 325.66 152.316C325.66 149.564 323.465 147.33 320.764 147.33C318.062 147.33 315.867 149.564 315.867 152.316Z" fill="#DFDFDF"/>
<path d="M302.891 137.176C302.891 139.927 305.085 142.161 307.787 142.161C310.489 142.161 312.683 139.927 312.683 137.176C312.683 134.425 310.489 132.19 307.787 132.19C305.085 132.19 302.891 134.425 302.891 137.176Z" fill="#DFDFDF"/>
<path d="M319.811 118.417C319.811 121.703 322.434 124.366 325.66 124.366C328.886 124.366 331.509 121.703 331.509 118.417C331.509 115.131 328.886 112.468 325.66 112.468C322.434 112.468 319.811 115.131 319.811 118.417Z" fill="#DFDFDF"/>
<path d="M308.74 104.722C311.971 104.722 314.589 102.058 314.589 98.7725C314.589 95.4868 311.971 92.8232 308.74 92.8232C305.509 92.8232 302.891 95.4868 302.891 98.7725C302.891 102.058 305.509 104.722 308.74 104.722Z" fill="#DFDFDF"/>
<path d="M323.666 89.1348C326.896 89.1348 329.515 86.4712 329.515 83.1856C329.515 79.8999 326.896 77.2363 323.666 77.2363C320.435 77.2363 317.816 79.8999 317.816 83.1856C317.816 86.4712 320.435 89.1348 323.666 89.1348Z" fill="#DFDFDF"/>
<path d="M335.365 143.125C338.596 143.125 341.214 140.461 341.214 137.176C341.214 133.89 338.596 131.227 335.365 131.227C332.134 131.227 329.516 133.89 329.516 137.176C329.516 140.461 332.134 143.125 335.365 143.125Z" fill="#DFDFDF"/>
<path d="M288.437 125.338C291.668 125.338 294.287 122.674 294.287 119.389C294.287 116.103 291.668 113.439 288.437 113.439C285.207 113.439 282.588 116.103 282.588 119.389C282.588 122.674 285.207 125.338 288.437 125.338Z" fill="#DFDFDF"/>
<path d="M339.885 161.884C343.115 161.884 345.734 159.22 345.734 155.935C345.734 152.649 343.115 149.985 339.885 149.985C336.654 149.985 334.035 152.649 334.035 155.935C334.035 159.22 336.654 161.884 339.885 161.884Z" fill="#DFDFDF"/>
<path d="M302.89 165.389C306.121 165.389 308.74 162.725 308.74 159.439C308.74 156.154 306.121 153.49 302.89 153.49C299.66 153.49 297.041 156.154 297.041 159.439C297.041 162.725 299.66 165.389 302.89 165.389Z" fill="#DFDFDF"/>
</g>
<path d="M297.514 79.164C298.45 85.2096 303.503 89.6168 309.51 89.6168C310.157 89.6168 310.787 89.5642 311.416 89.4678C317.292 88.5216 321.524 83.431 321.681 77.5956L297.392 76.3252C297.331 77.2539 297.357 78.2002 297.514 79.164Z" fill="#DFDFDF"/>
<path d="M299.638 78.8229C300.504 84.3866 305.628 88.1804 311.092 87.3042C316.557 86.4281 320.29 81.206 319.425 75.6423C318.559 70.0786 313.436 66.2848 307.971 67.161C302.506 68.0371 298.773 73.2591 299.638 78.8229Z" fill="#FFCFC5"/>
<path d="M319.425 75.6421L317.265 61.7109L298.117 64.6549L299.639 78.8227L319.425 75.6421Z" fill="#FFCFC5"/>
<path d="M321.034 54.6747C321.034 54.6747 326.997 53.4218 326.35 60.0807C325.703 66.7397 318.07 64.8384 318.07 64.8384L321.034 54.6747Z" fill="#FFCFC5"/>
<path d="M322.127 57.3208C323.167 57.1719 324.059 57.5574 324.409 58.2583C324.514 58.4686 324.593 58.6964 324.645 58.9242C324.759 59.4412 324.741 59.9932 324.601 60.5101C324.461 61.0183 324.19 61.5089 323.762 61.8594C323.334 62.2099 322.73 62.3939 322.171 62.2712" stroke="#0B0A3B" stroke-width="0.62" stroke-miterlimit="10" stroke-linecap="round"/>
<path d="M321.943 60.125C321.567 59.3452 323.211 58.0484 324.645 59.389" stroke="#0B0A3B" stroke-width="0.62" stroke-miterlimit="10" stroke-linecap="round"/>
<g style="mix-blend-mode:multiply" opacity="0.1">
<path d="M299.323 75.9657L299.113 74.0469C299.113 74.0469 309.168 79.5142 316.242 69.666C316.242 70.551 311.643 81.1176 299.323 75.9657Z" fill="black"/>
</g>
<path d="M319.651 62.9195C319.651 62.9195 315.638 73.8629 309.675 75.5802C303.712 77.2975 296.07 75.186 296.07 67.7998V51.8797C296.07 47.7617 298.317 43.9152 301.972 42.1366C305.076 40.6296 309.457 39.8761 315.253 41.9438C328.605 46.6927 319.66 62.9195 319.66 62.9195H319.651Z" fill="#FFCFC5"/>
<path d="M307.822 57.3296C307.822 57.9254 308.155 58.4161 308.574 58.4161C308.994 58.4161 309.326 57.9342 309.326 57.3296C309.326 56.7251 308.994 56.2432 308.574 56.2432C308.155 56.2432 307.822 56.7251 307.822 57.3296Z" fill="#2E1124"/>
<path d="M300.635 58.4161C301.05 58.4161 301.387 57.9297 301.387 57.3296C301.387 56.7296 301.05 56.2432 300.635 56.2432C300.219 56.2432 299.883 56.7296 299.883 57.3296C299.883 57.9297 300.219 58.4161 300.635 58.4161Z" fill="#2E1124"/>
<path d="M302.419 54.2811C301.649 53.5013 299.883 53.3611 298.982 54.2811" stroke="#0B0A3B" stroke-width="0.93" stroke-miterlimit="10" stroke-linecap="round"/>
<path d="M310.288 54.2811C309.518 53.5013 307.752 53.3611 306.852 54.2811" stroke="#0B0A3B" stroke-width="0.93" stroke-miterlimit="10" stroke-linecap="round"/>
<path d="M301.789 68.7556C301.789 68.7556 304.578 70.578 306.86 68.3525" stroke="#0B0A3B" stroke-width="1.24" stroke-miterlimit="10" stroke-linecap="round"/>
<path d="M303.94 58.6006C303.94 58.6006 301.247 63.6824 301.605 64.3746C301.964 65.0668 303.389 64.7075 303.389 64.7075" stroke="#0B0A3B" stroke-width="0.62" stroke-miterlimit="10" stroke-linecap="round"/>
<path d="M308.006 63.0777C308.006 64.3569 309.029 65.3996 310.288 65.3996C311.547 65.3996 312.57 64.3569 312.57 63.0777C312.57 61.7985 311.547 60.7559 310.288 60.7559C309.029 60.7559 308.006 61.7985 308.006 63.0777Z" fill="#EFA284"/>
<path d="M296.307 63.0777C296.307 64.3569 297.33 65.3996 298.589 65.3996C299.848 65.3996 300.871 64.3569 300.871 63.0777C300.871 61.7985 299.848 60.7559 298.589 60.7559C297.33 60.7559 296.307 61.7985 296.307 63.0777Z" fill="#EFA284"/>
<path d="M326.349 59.31C326.349 59.31 326.664 57.2159 325.685 56.3047C322.31 53.1855 319.608 56.1382 319.206 61.9998C319.206 61.9998 318.585 62.5869 318.559 61.6493C318.533 60.5454 319.075 57.6803 318.655 54.1931C318.34 51.5733 319.232 49.4705 319.223 49.5231C319.223 49.5231 304.7 52.8087 297.732 47.0873C295.275 48.9798 296.315 56.1557 296.071 58.6966C294.243 55.4373 289.67 50.1189 292.984 46.9384C289.679 44.1083 290.274 39.745 296.315 34.3039C300.355 30.6678 299.437 22.861 308.547 31.982C313.4 36.8448 317.405 29.3886 321.208 38.4044C324.644 35.1275 330.529 39.9903 329.986 46.7982C329.287 55.6125 326.349 59.31 326.349 59.31Z" fill="black"/>
<path d="M324.801 145.588C330.161 145.588 334.506 141.167 334.506 135.713C334.506 130.26 330.161 125.839 324.801 125.839C319.441 125.839 315.096 130.26 315.096 135.713C315.096 141.167 319.441 145.588 324.801 145.588Z" fill="#FFCFC5"/>
<path d="M276.669 133.452C279.793 133.452 282.326 130.871 282.326 127.687C282.326 124.503 279.793 121.922 276.669 121.922C273.544 121.922 271.012 124.503 271.012 127.687C271.012 130.871 273.544 133.452 276.669 133.452Z" fill="#FFCFC5"/>
<path d="M324.801 125.83L276.668 121.931V133.452L324.801 145.587V125.83Z" fill="#FFCFC5"/>
<path d="M316.172 130.841C313.401 135.511 314.861 141.583 319.451 144.404C324.033 147.226 330.005 145.736 332.776 141.075C335.548 136.405 334.088 130.333 329.497 127.512C324.907 124.69 318.944 126.18 316.172 130.841Z" fill="#FFCFC5"/>
<path d="M331.726 86.3053C328.509 91.7113 330.214 98.747 335.521 102.015C340.828 105.283 347.744 103.557 350.962 98.1512C354.18 92.7452 352.475 85.7095 347.167 82.4413C341.86 79.1732 334.944 80.8993 331.726 86.3053Z" fill="#FFCFC5"/>
<path d="M350.962 98.1516L332.776 141.075L316.172 130.842L331.727 86.3057L350.962 98.1516Z" fill="#FFCFC5"/>
<path d="M331.438 83.7729C330.581 85.1222 330.03 86.5766 329.785 88.0661L322.703 106.518L341.676 120.651L351.557 97.0031C354.94 91.7023 352.195 83.8517 346.984 80.4084C341.773 76.965 334.813 78.472 331.438 83.7816V83.7729Z" fill="#018BCE"/>
<path d="M342.91 117.55L341.327 122.22L321.27 109.068L322.852 104.398L342.91 117.55Z" fill="#DFDFDF"/>
<path d="M284.26 98.6587L284.741 90.6592" stroke="white" stroke-width="1.24" stroke-miterlimit="10" stroke-linecap="round"/>
<path d="M283.752 105.441L283.988 97.4326" stroke="white" stroke-width="1.24" stroke-miterlimit="10" stroke-linecap="round"/>
<path d="M298.047 123.875L314.284 124.988C314.284 124.988 318.201 124.988 320.998 128.273" stroke="#E38C72" stroke-width="1.24" stroke-miterlimit="10" stroke-linecap="round"/>
<path d="M324.287 104.398L330.539 89.1091C330.539 89.1091 331.798 85.3328 335.759 83.6943" stroke="white" stroke-width="1.24" stroke-miterlimit="10" stroke-linecap="round"/>
<path d="M265.329 117.357C264.621 117.313 264.271 119.968 264.193 124.226C264.114 128.117 264.263 131.341 264.971 131.446L265.303 131.507C265.303 131.507 265.329 131.507 265.347 131.507C265.347 131.507 266.248 131.648 266.72 131.718C272.884 132.664 278.462 131.323 279.074 125.479C279.669 119.749 274.44 117.699 268.224 117.313C267.778 117.287 267.332 117.278 266.895 117.287C266.86 117.287 266.825 117.278 266.79 117.278L265.329 117.357Z" fill="#FFCFC5"/>
<path d="M267.699 117.059C268.529 117.147 269.133 117.874 269.054 118.697C268.975 119.512 268.057 120.257 267.226 120.169L253.202 118.54C252.371 118.452 251.768 117.725 251.847 116.901C251.925 116.086 252.669 115.491 253.491 115.57L267.69 117.05L267.699 117.059Z" fill="#FFCFC5"/>
<path d="M273.924 116.858C274.641 117.585 278.007 120.327 277.299 121.317L277.387 121.773C276.39 122.754 270.182 121.37 269.902 120.231L269.08 116.472C268.363 115.745 267.349 115.035 268.101 114.36C268.844 113.686 269.885 113.826 270.75 114.387C272.14 115.307 273.933 116.858 273.933 116.858H273.924Z" fill="#FFCFC5"/>
<path d="M270.942 114.518C271.484 115.692 270.854 117.576 269.691 117.848L269.508 118.075C268.345 118.356 268.45 118.163 267.838 117.033C266.85 115.219 267.007 111.986 267.007 111.986C267.025 110.347 268.004 108.648 268.73 108.499C269.447 108.306 270.365 108.613 270.575 109.103C270.575 109.103 269.525 111.425 270.951 114.518H270.942Z" fill="#FFCFC5"/>
<path d="M260.887 123.533L266.754 124.199C267.795 124.313 268.739 123.551 268.853 122.491C268.966 121.431 268.214 120.476 267.174 120.353L261.307 119.687C260.267 119.573 259.322 120.335 259.209 121.396C259.095 122.456 259.847 123.411 260.887 123.533Z" fill="#FFCFC5"/>
<path d="M260.887 127.319L266.754 127.985C267.795 128.098 268.739 127.336 268.853 126.276C268.966 125.216 268.214 124.261 267.174 124.138L261.307 123.472C260.267 123.358 259.322 124.121 259.209 125.181C259.095 126.241 259.847 127.196 260.887 127.319Z" fill="#FFCFC5"/>
<path d="M261.342 131.017L267.209 131.683C268.25 131.797 269.194 131.034 269.308 129.974C269.421 128.914 268.669 127.959 267.629 127.836L261.762 127.17C260.722 127.057 259.777 127.819 259.664 128.879C259.55 129.939 260.302 130.894 261.342 131.017Z" fill="#FFCFC5"/>
<path d="M232.516 263.267L210.535 253.532L232.927 182.475L262.874 194.364L232.516 263.267Z" fill="#2D49A0"/>
<path d="M233.303 195.083C236.976 203.31 246.497 206.955 254.585 203.214C262.673 199.472 266.249 189.782 262.576 181.555C258.904 173.327 249.383 169.682 241.295 173.424C233.216 177.156 229.631 186.855 233.303 195.083Z" fill="#2D49A0"/>
<path d="M248.351 204.668L244.635 172.302L322.408 160.368L325.722 201.619L248.351 204.668Z" fill="#2D49A0"/>
<path d="M308.286 167.869C301.178 176.735 302.472 189.791 311.189 197.019C319.898 204.256 332.724 202.933 339.833 194.066C346.941 185.199 345.647 172.144 336.93 164.916C328.222 157.679 315.395 159.002 308.286 167.869Z" fill="#2D49A0"/>
<path d="M235.472 177.971C229.858 184.971 230.881 195.275 237.763 200.988C240.867 203.564 244.635 204.764 248.342 204.668C252.854 204.545 257.295 202.495 260.373 198.657C265.986 191.656 264.964 181.353 258.082 175.64C251.201 169.927 241.076 170.97 235.463 177.971H235.472Z" fill="#2D49A0"/>
<path d="M280.054 178.777L282.573 153.245L343.331 155.646L344.529 178.733C344.642 180.862 343.41 182.825 341.469 183.622L317.511 193.462C312.545 195.503 306.976 195.345 302.132 193.024L282.844 183.797C280.964 182.895 279.845 180.888 280.054 178.786V178.777Z" fill="#2D49A0"/>
<path d="M247.291 178.076L249.669 210.574L328.247 207.332L323.84 166.178L247.291 178.076Z" fill="#2D49A0"/>
<path d="M312.99 202.679C304.361 195.345 303.215 182.273 310.42 173.493C317.624 164.714 330.469 163.54 339.098 170.874C347.728 178.207 348.874 191.28 341.669 200.059C334.464 208.838 321.62 210.012 312.99 202.679Z" fill="#2D49A0"/>
<path d="M239.615 206.771C232.804 200.979 231.895 190.658 237.587 183.728C240.157 180.6 243.628 178.689 247.292 178.076C251.751 177.331 256.49 178.479 260.224 181.66C267.035 187.451 267.944 197.773 262.252 204.703C256.56 211.634 246.426 212.562 239.615 206.771Z" fill="#2D49A0"/>
<path d="M247.249 270.583L271.022 267.429L268.889 192.84L236.879 195.81L247.249 270.583Z" fill="#2D49A0"/>
<path d="M265.095 204.852C259.324 211.721 249.182 212.527 242.432 206.657C235.682 200.787 234.895 190.457 240.666 183.596C246.436 176.727 256.579 175.921 263.329 181.791C270.079 187.662 270.865 197.992 265.095 204.852Z" fill="#2D49A0"/>
<path d="M244.416 250.142L236.879 197.3C236.879 197.3 235.48 183.08 246.558 179.181" stroke="#091A4C" stroke-width="1.09" stroke-miterlimit="10"/>
<path d="M270.681 176.587C270.681 176.587 249.355 178.348 246.557 179.18C243.926 179.969 242.754 181.239 242.754 181.239" stroke="#091A4C" stroke-width="1.09" stroke-miterlimit="10"/>
<path d="M273.943 175.99L297.262 171.96" stroke="#091A4C" stroke-width="1.02" stroke-miterlimit="10"/>
<path d="M282.283 156.732L343.531 159.386L343.33 155.645L282.423 153.323L282.283 156.732Z" fill="#091A4C"/>
</g>
<path d="M385.467 111.527L298.676 24.5547L211.885 111.527L298.676 198.5L385.467 111.527Z" stroke="black" stroke-width="0.89" stroke-miterlimit="10"/>
<path d="M286.526 147.051C291.746 146.034 295.156 140.97 294.142 135.748C293.127 130.517 288.074 127.1 282.862 128.116C277.643 129.133 274.233 134.197 275.247 139.419C276.261 144.65 281.315 148.067 286.526 147.051Z" fill="#FFCFC5"/>
<path d="M275.369 134.162C274.066 139.323 277.179 144.571 282.337 145.876C287.487 147.182 292.724 144.063 294.027 138.893C295.33 133.724 292.217 128.484 287.059 127.179C281.909 125.873 276.671 128.993 275.369 134.162Z" fill="#FFCFC5"/>
<path d="M294.055 100.338C299.314 97.1311 300.984 90.2586 297.783 84.9879C294.583 79.7173 287.724 78.0445 282.465 81.2516C277.205 84.4587 275.536 91.3313 278.736 96.6019C281.937 101.873 288.795 103.545 294.055 100.338Z" fill="#FFCFC5"/>
<path d="M299.064 93.5337L294.028 138.893L275.369 134.162L277.45 88.0488L299.064 93.5337Z" fill="#FFCFC5"/>
<path d="M277.099 155.707L275.779 139.585C275.779 139.585 275.202 135.73 277.956 132.506" stroke="#E38C72" stroke-width="1.22" stroke-miterlimit="10" stroke-linecap="round"/>
<path d="M272.955 86.2084C272.955 87.7767 273.279 89.2662 273.856 90.6243L277.746 109.567L298.635 110.741L295.251 86.2084C295.251 80.0313 290.258 75.0371 284.103 75.0371C277.948 75.0371 272.955 80.0401 272.955 86.2084Z" fill="#018BCE"/>
<path d="M299.482 107.876L300.252 112.642L276.662 110.741L275.893 105.975L299.482 107.876Z" fill="#DFDFDF"/>
<path d="M342.842 154.078H283.15L284.715 75.248L339.721 78.0781L342.842 154.078Z" fill="#018BCE"/>
<mask id="mask2_2438_13179" style="mask-type:luminance" maskUnits="userSpaceOnUse" x="283" y="75" width="60" height="80">
<path d="M342.842 154.078H283.15L284.715 75.248L339.721 78.0781L342.842 154.078Z" fill="white"/>
</mask>
<g mask="url(#mask2_2438_13179)">
<path d="M332.9 100.166C332.9 102.856 335.078 105.029 337.753 105.029C340.429 105.029 342.606 102.848 342.606 100.166C342.606 97.4854 340.429 95.3037 337.753 95.3037C335.078 95.3037 332.9 97.4854 332.9 100.166Z" fill="#DFDFDF"/>
<path d="M300.523 117.961C300.523 120.651 302.701 122.824 305.376 122.824C308.052 122.824 310.229 120.643 310.229 117.961C310.229 115.28 308.052 113.099 305.376 113.099C302.701 113.099 300.523 115.28 300.523 117.961Z" fill="#DFDFDF"/>
<path d="M278.9 100.166C278.9 102.856 281.078 105.029 283.753 105.029C286.429 105.029 288.606 102.848 288.606 100.166C288.606 97.4854 286.429 95.3037 283.753 95.3037C281.078 95.3037 278.9 97.4854 278.9 100.166Z" fill="#DFDFDF"/>
<path d="M278.9 139.577C278.9 142.267 281.078 144.439 283.753 144.439C286.429 144.439 288.606 142.258 288.606 139.577C288.606 136.896 286.429 134.714 283.753 134.714C281.078 134.714 278.9 136.896 278.9 139.577Z" fill="#DFDFDF"/>
<path d="M336.092 121.378C336.092 124.068 338.269 126.241 340.944 126.241C343.62 126.241 345.797 124.06 345.797 121.378C345.797 118.697 343.62 116.516 340.944 116.516C338.269 116.516 336.092 118.697 336.092 121.378Z" fill="#DFDFDF"/>
<path d="M315.814 150.118C315.814 152.808 317.992 154.98 320.667 154.98C323.343 154.98 325.52 152.799 325.52 150.118C325.52 147.437 323.343 145.255 320.667 145.255C317.992 145.255 315.814 147.437 315.814 150.118Z" fill="#DFDFDF"/>
<path d="M302.945 135.328C302.945 138.017 305.122 140.19 307.798 140.19C310.473 140.19 312.651 138.009 312.651 135.328C312.651 132.647 310.473 130.465 307.798 130.465C305.122 130.465 302.945 132.647 302.945 135.328Z" fill="#DFDFDF"/>
<path d="M325.521 122.833C328.727 122.833 331.326 120.228 331.326 117.015C331.326 113.802 328.727 111.197 325.521 111.197C322.314 111.197 319.715 113.802 319.715 117.015C319.715 120.228 322.314 122.833 325.521 122.833Z" fill="#DFDFDF"/>
<path d="M308.741 103.644C311.948 103.644 314.547 101.04 314.547 97.8266C314.547 94.6135 311.948 92.0088 308.741 92.0088C305.535 92.0088 302.936 94.6135 302.936 97.8266C302.936 101.04 305.535 103.644 308.741 103.644Z" fill="#DFDFDF"/>
<path d="M317.738 82.6078C317.738 85.8146 320.335 88.4257 323.544 88.4257C326.753 88.4257 329.35 85.8234 329.35 82.6078C329.35 79.3923 326.753 76.79 323.544 76.79C320.335 76.79 317.738 79.3923 317.738 82.6078Z" fill="#DFDFDF"/>
<path d="M337.368 140.699C340.33 139.47 341.737 136.066 340.51 133.098C339.283 130.129 335.887 128.72 332.924 129.949C329.962 131.179 328.555 134.582 329.782 137.551C331.009 140.519 334.405 141.929 337.368 140.699Z" fill="#DFDFDF"/>
<path d="M288.606 123.779C291.813 123.779 294.412 121.174 294.412 117.961C294.412 114.748 291.813 112.144 288.606 112.144C285.4 112.144 282.801 114.748 282.801 117.961C282.801 121.174 285.4 123.779 288.606 123.779Z" fill="#DFDFDF"/>
<path d="M339.624 159.466C342.83 159.466 345.43 156.861 345.43 153.648C345.43 150.435 342.83 147.83 339.624 147.83C336.418 147.83 333.818 150.435 333.818 153.648C333.818 156.861 336.418 159.466 339.624 159.466Z" fill="#DFDFDF"/>
<path d="M305.205 162.442C308.158 161.19 309.539 157.776 308.29 154.817C307.04 151.858 303.634 150.474 300.681 151.726C297.728 152.977 296.347 156.391 297.596 159.35C298.845 162.309 302.252 163.694 305.205 162.442Z" fill="#DFDFDF"/>
</g>
<path d="M297.611 78.6828C298.538 84.5882 303.548 88.8902 309.502 88.8902C310.141 88.8902 310.77 88.8377 311.4 88.7413C317.232 87.8125 321.42 82.8446 321.586 77.1495L297.498 75.9141C297.436 76.8165 297.463 77.7453 297.611 78.6828Z" fill="#DFDFDF"/>
<path d="M299.709 78.3401C300.566 83.7724 305.655 87.4786 311.076 86.6199C316.497 85.7613 320.195 80.6619 319.338 75.2296C318.481 69.7973 313.393 66.0911 307.972 66.9498C302.551 67.8084 298.852 72.9078 299.709 78.3401Z" fill="#FFCFC5"/>
<path d="M319.339 75.2388L317.197 61.6318L298.197 64.5057L299.71 78.3405L319.339 75.2388Z" fill="#FFCFC5"/>
<path d="M320.93 54.7628C320.93 54.7628 326.841 53.5361 326.202 60.0461C325.564 66.5561 317.992 64.6899 317.992 64.6899L320.93 54.7628Z" fill="#FFCFC5"/>
<path d="M322.021 57.3479C323.053 57.2077 323.945 57.5757 324.286 58.2591C324.391 58.4694 324.47 58.6884 324.513 58.9075C324.627 59.4157 324.61 59.9501 324.47 60.4496C324.33 60.949 324.059 61.4221 323.639 61.7638C323.219 62.1055 322.616 62.2808 322.065 62.1669" stroke="#0B0A3B" stroke-width="0.61" stroke-miterlimit="10" stroke-linecap="round"/>
<path d="M321.83 60.0905C321.454 59.3282 323.089 58.0577 324.514 59.372" stroke="#0B0A3B" stroke-width="0.61" stroke-miterlimit="10" stroke-linecap="round"/>
<g style="mix-blend-mode:multiply" opacity="0.1">
<path d="M299.405 75.5541L299.195 73.6791C299.195 73.6791 309.172 79.015 316.184 69.4033C316.184 70.262 311.62 80.5833 299.405 75.5541Z" fill="black"/>
</g>
<path d="M319.567 62.8147C319.567 62.8147 315.58 73.504 309.67 75.1775C303.759 76.851 296.17 74.792 296.17 67.5811V52.0377C296.17 48.0161 298.4 44.266 302.019 42.5312C305.097 41.0592 309.443 40.3232 315.196 42.3384C328.433 46.9734 319.567 62.8147 319.567 62.8147Z" fill="#FFCFC5"/>
<path d="M307.834 57.3561C307.834 57.9431 308.166 58.4162 308.577 58.4162C308.988 58.4162 309.32 57.9431 309.32 57.3561C309.32 56.769 308.988 56.2959 308.577 56.2959C308.166 56.2959 307.834 56.769 307.834 57.3561Z" fill="#2E1124"/>
<path d="M299.955 57.3561C299.955 57.9431 300.287 58.4162 300.698 58.4162C301.109 58.4162 301.441 57.9431 301.441 57.3561C301.441 56.769 301.109 56.2959 300.698 56.2959C300.287 56.2959 299.955 56.769 299.955 57.3561Z" fill="#2E1124"/>
<path d="M302.465 54.3768C301.704 53.6146 299.955 53.4831 299.055 54.3768" stroke="#0B0A3B" stroke-width="0.91" stroke-miterlimit="10" stroke-linecap="round"/>
<path d="M310.281 54.3768C309.52 53.6146 307.772 53.4831 306.871 54.3768" stroke="#0B0A3B" stroke-width="0.91" stroke-miterlimit="10" stroke-linecap="round"/>
<path d="M301.844 68.5095C301.844 68.5095 304.615 70.2882 306.871 68.1152" stroke="#0B0A3B" stroke-width="1.22" stroke-miterlimit="10" stroke-linecap="round"/>
<path d="M303.978 58.5918C303.978 58.5918 301.311 63.551 301.661 64.2256C302.01 64.9003 303.427 64.5498 303.427 64.5498" stroke="#0B0A3B" stroke-width="0.61" stroke-miterlimit="10" stroke-linecap="round"/>
<path d="M308.018 62.9724C308.018 64.2254 309.032 65.2417 310.282 65.2417C311.532 65.2417 312.547 64.2254 312.547 62.9724C312.547 61.7195 311.532 60.7031 310.282 60.7031C309.032 60.7031 308.018 61.7195 308.018 62.9724Z" fill="#EFA284"/>
<path d="M296.414 62.9724C296.414 64.2254 297.428 65.2417 298.679 65.2417C299.929 65.2417 300.943 64.2254 300.943 62.9724C300.943 61.7195 299.929 60.7031 298.679 60.7031C297.428 60.7031 296.414 61.7195 296.414 62.9724Z" fill="#EFA284"/>
<path d="M326.204 59.2838C326.204 59.2838 326.51 57.2336 325.539 56.3486C322.19 53.2996 319.515 56.1909 319.113 61.9124C319.113 61.9124 318.492 62.4906 318.474 61.5707C318.448 60.493 318.99 57.6892 318.57 54.2896C318.256 51.7312 319.148 49.6722 319.139 49.7248C319.139 49.7248 304.738 52.9316 297.822 47.3503C295.392 49.1903 296.415 56.2085 296.178 58.688C294.369 55.5075 289.822 50.3118 293.11 47.2014C289.831 44.4414 290.425 40.1832 296.415 34.8648C300.419 31.3163 299.51 23.6848 308.55 32.5955C313.368 37.3444 317.338 30.0634 321.106 38.8602C324.516 35.6621 330.357 40.411 329.815 47.0612C329.115 55.674 326.204 59.2838 326.204 59.2838Z" fill="black"/>
<path d="M316.113 129.142C313.359 133.698 314.81 139.63 319.365 142.39C323.912 145.15 329.831 143.695 332.586 139.13C335.34 134.565 333.888 128.642 329.333 125.882C324.786 123.122 318.867 124.577 316.113 129.142Z" fill="#FFCFC5"/>
<path d="M331.544 85.6481C328.353 90.9227 330.04 97.7919 335.304 100.99C340.567 104.188 347.422 102.497 350.614 97.2224C353.805 91.9478 352.118 85.0786 346.854 81.8806C341.59 78.6825 334.736 80.3736 331.544 85.6481Z" fill="#FFCFC5"/>
<path d="M350.615 97.2227L332.577 139.13L316.113 129.142L331.545 85.6484L350.615 97.2227Z" fill="#FFCFC5"/>
<path d="M331.25 83.177C330.402 84.4913 329.86 85.9195 329.615 87.3739L322.594 105.388L341.418 119.188L351.22 96.0918C354.577 90.9137 351.849 83.2471 346.682 79.8826C341.515 76.5181 334.616 77.9988 331.259 83.177H331.25Z" fill="#018BCE"/>
<path d="M342.633 116.165L341.059 120.73L321.168 107.885L322.733 103.32L342.633 116.165Z" fill="#DFDFDF"/>
<path d="M284.453 97.7217L284.934 89.9062" stroke="white" stroke-width="1.22" stroke-miterlimit="10" stroke-linecap="round"/>
<path d="M283.955 104.337L284.191 96.5127" stroke="white" stroke-width="1.22" stroke-miterlimit="10" stroke-linecap="round"/>
<path d="M324.158 103.321L330.357 88.3907C330.357 88.3907 331.608 84.702 335.533 83.0986" stroke="white" stroke-width="1.22" stroke-miterlimit="10" stroke-linecap="round"/>
<path d="M169.353 78.8926H139.783C131.537 78.8926 124.857 85.5866 124.857 93.8489C124.857 102.111 131.537 108.805 139.783 108.805H148.491C149.322 108.805 150.1 109.208 150.572 109.892L154.279 115.166C154.821 115.929 155.958 115.911 156.465 115.122L159.779 109.979C160.251 109.252 161.055 108.814 161.921 108.814H169.353C177.598 108.814 184.278 102.12 184.278 93.8577C184.278 85.5953 177.598 78.9013 169.353 78.9013V78.8926Z" fill="#E5E4E4"/>
<path d="M145.213 93.5862C145.213 94.9267 144.129 96.0219 142.782 96.0219C141.436 96.0219 140.352 94.9355 140.352 93.5862C140.352 92.2368 141.436 91.1504 142.782 91.1504C144.129 91.1504 145.213 92.2368 145.213 93.5862Z" fill="white"/>
<path d="M154.569 96.0219C155.912 96.0219 157 94.9314 157 93.5862C157 92.2409 155.912 91.1504 154.569 91.1504C153.227 91.1504 152.139 92.2409 152.139 93.5862C152.139 94.9314 153.227 96.0219 154.569 96.0219Z" fill="white"/>
<path d="M166.355 96.0219C167.697 96.0219 168.785 94.9314 168.785 93.5862C168.785 92.2409 167.697 91.1504 166.355 91.1504C165.012 91.1504 163.924 92.2409 163.924 93.5862C163.924 94.9314 165.012 96.0219 166.355 96.0219Z" fill="white"/>
<path d="M252.26 32.2012H213.552C202.763 32.2012 194.02 40.9629 194.02 51.7749C194.02 62.587 202.763 71.3487 213.552 71.3487H224.945C226.029 71.3487 227.044 71.8744 227.673 72.7681L232.526 79.6724C233.234 80.6712 234.729 80.6449 235.394 79.611L239.73 72.882C240.342 71.927 241.4 71.3575 242.528 71.3575H252.251C263.04 71.3575 271.784 62.5957 271.784 51.7837C271.784 40.9717 263.04 32.2099 252.251 32.2099L252.26 32.2012Z" fill="#959595"/>
<path d="M220.66 51.3367C220.66 53.0979 219.235 54.526 217.478 54.526C215.72 54.526 214.295 53.0979 214.295 51.3367C214.295 49.5756 215.72 48.1475 217.478 48.1475C219.235 48.1475 220.66 49.5756 220.66 51.3367Z" fill="white"/>
<path d="M236.084 51.3367C236.084 53.0979 234.659 54.526 232.901 54.526C231.144 54.526 229.719 53.0979 229.719 51.3367C229.719 49.5756 231.144 48.1475 232.901 48.1475C234.659 48.1475 236.084 49.5756 236.084 51.3367Z" fill="white"/>
<path d="M251.508 51.3367C251.508 53.0979 250.083 54.526 248.325 54.526C246.568 54.526 245.143 53.0979 245.143 51.3367C245.143 49.5756 246.568 48.1475 248.325 48.1475C250.083 48.1475 251.508 49.5756 251.508 51.3367Z" fill="white"/>
<path d="M111.963 286.517C136.203 262.227 136.203 222.844 111.963 198.553C87.7233 174.263 48.4228 174.263 24.183 198.553C-0.0567953 222.844 -0.0567899 262.227 24.183 286.517C48.4228 310.808 87.7233 310.808 111.963 286.517Z" fill="#4A4A4A"/>
<path d="M212.047 326.045C212.047 326.045 202.683 328.113 196.746 333.089C196.746 333.089 198.888 333.79 205.087 331.319C211.295 328.849 212.038 326.045 212.038 326.045H212.047Z" fill="#683B1C"/>
<path d="M198.774 337.654L189.322 314.856L206.162 308.136L214.285 332.213L198.774 337.654Z" fill="#FFCFC5"/>
<path d="M243.978 333.992L216.428 344.97C214.705 345.654 212.624 344.068 209.984 345.119C209.109 345.47 209.538 347.713 209.538 347.713L201.8 350.797C201.573 350.227 201.302 349.43 201.004 348.519C199.291 343.139 196.764 333.089 196.764 333.089C196.764 333.089 197.795 333.422 203.575 331.118C209.337 328.822 212.056 326.045 212.056 326.045C212.056 326.045 212.659 326.676 216.174 327.999C221.7 330.084 228.572 328.507 234.273 327.175C238.077 326.29 241.102 329.585 242.702 331.907C243.532 333.072 243.978 333.992 243.978 333.992Z" fill="#212121"/>
<path d="M241.478 330.329C241.478 330.329 233.53 333.501 229.342 335.166C224.813 336.971 225.303 339.494 225.303 339.494" stroke="#2E2E2E" stroke-width="0.17" stroke-miterlimit="10"/>
<path d="M198.363 339.249C198.363 339.249 204.475 339.512 206.862 346.837" stroke="#2E2E2E" stroke-width="0.17" stroke-miterlimit="10"/>
<path d="M212.57 327.368C212.57 327.368 219.268 331.066 224.802 330.391C224.802 330.391 226.201 332.678 226.778 334.842C226.778 334.842 219.18 337.611 215.499 339.503C212.833 340.879 213.165 344.331 213.165 344.331" stroke="#2E2E2E" stroke-width="0.17" stroke-miterlimit="10"/>
<path d="M213.541 326.729C213.541 326.729 215.307 327.228 215.788 329.471" stroke="#3F220E" stroke-width="0.51" stroke-miterlimit="10" stroke-linecap="round"/>
<path d="M215.771 327.666C215.771 327.666 214.233 326.675 212.947 328.296" stroke="#3F220E" stroke-width="0.51" stroke-miterlimit="10" stroke-linecap="round"/>
<path d="M217.162 328.112C217.162 328.112 218.928 328.612 219.409 330.855" stroke="#3F220E" stroke-width="0.51" stroke-miterlimit="10" stroke-linecap="round"/>
<path d="M219.46 328.656C219.46 328.656 217.065 327.859 215.779 329.48" stroke="#3F220E" stroke-width="0.51" stroke-miterlimit="10" stroke-linecap="round"/>
<path d="M220.59 328.743C220.59 328.743 222.216 328.551 222.706 330.794" stroke="#3F220E" stroke-width="0.51" stroke-miterlimit="10" stroke-linecap="round"/>
<path d="M222.678 328.866C222.678 328.866 220.693 329.234 219.408 330.855" stroke="#3F220E" stroke-width="0.51" stroke-miterlimit="10" stroke-linecap="round"/>
<path d="M223.247 330.802C223.247 330.802 223.204 329.61 223.632 328.979" stroke="#3F220E" stroke-width="0.51" stroke-miterlimit="10" stroke-linecap="round"/>
<path d="M243.155 331.723L244.047 333.966L214.695 345.663C214.695 345.663 212.474 344.611 210.708 345.312C209.379 345.838 209.598 347.687 209.598 347.687L201.72 350.823L200.828 348.58L243.147 331.714L243.155 331.723Z" fill="#717171"/>
<path d="M197.121 334.5C197.121 334.5 202.079 334.141 207.412 330.995" stroke="#2E2E2E" stroke-width="0.17" stroke-miterlimit="10"/>
<path d="M188.369 322.715L208.575 313.892L187.984 249.572L160.451 260.34L188.369 322.715Z" fill="#018BCE"/>
<path d="M188.805 257.094C190.027 249.008 184.476 241.461 176.407 240.237C168.338 239.012 160.807 244.575 159.585 252.66C158.363 260.746 163.914 268.293 171.983 269.518C180.052 270.742 187.583 265.18 188.805 257.094Z" fill="#018BCE"/>
<path d="M186.018 319.351L208.069 309.477L209.45 313.516L187.854 323.241L186.018 319.351Z" fill="#8FABF9"/>
<path d="M134.975 213.237C139.954 213.237 143.99 209.192 143.99 204.203C143.99 199.214 139.954 195.17 134.975 195.17C129.997 195.17 125.961 199.214 125.961 204.203C125.961 209.192 129.997 213.237 134.975 213.237Z" fill="#FFCFC5"/>
<path d="M175.501 174.019C176.874 176.577 175.921 179.775 173.368 181.151C170.815 182.527 167.624 181.572 166.251 179.013C164.878 176.455 165.831 173.257 168.384 171.881C170.937 170.505 174.129 171.46 175.501 174.019Z" fill="#FFCFC5"/>
<path d="M130.709 196.256L168.385 171.881L173.368 181.16L139.251 212.159L130.709 196.256Z" fill="#FFCFC5"/>
<path d="M139.72 210.658C143.241 207.13 143.241 201.411 139.72 197.883C136.2 194.355 130.492 194.355 126.972 197.883C123.451 201.411 123.451 207.13 126.972 210.658C130.492 214.186 136.2 214.186 139.72 210.658Z" fill="#FFCFC5"/>
<path d="M147.999 169.344C152.076 165.258 152.076 158.634 147.999 154.549C143.923 150.463 137.312 150.463 133.236 154.549C129.159 158.634 129.159 165.258 133.236 169.344C137.312 173.429 143.923 173.429 147.999 169.344Z" fill="#FFCFC5"/>
<path d="M130.174 161.945L124.342 204.273H142.362L151.044 161.945H130.174Z" fill="#FFCFC5"/>
<path d="M155.408 180.818L142.538 188.757C142.538 188.757 139.32 190.456 138.42 194.329" stroke="#717171" stroke-width="1.14" stroke-miterlimit="10" stroke-linecap="round"/>
<path d="M151.902 161.744C151.902 163.207 151.605 164.609 151.054 165.879L147.408 183.622L127.857 184.717L131.023 161.753C131.023 155.97 135.692 151.291 141.462 151.291C147.233 151.291 151.902 155.97 151.902 161.753V161.744Z" fill="#242424"/>
<path d="M127.07 182.028L126.354 186.496L148.431 184.718L149.156 180.258L127.07 182.028Z" fill="#262626"/>
<path d="M172.273 342.929C172.273 342.929 162.943 340.721 155.441 342.622C155.441 342.622 157.068 344.19 163.73 344.655C170.393 345.119 172.281 342.92 172.281 342.92L172.273 342.929Z" fill="#683B1C"/>
<path d="M155.285 347.624L156.632 322.969L174.713 324.239L171.618 349.464L155.285 347.624Z" fill="#FFCFC5"/>
<path d="M197.595 363.965L168.016 361.888C166.162 361.757 164.982 359.426 162.149 359.225C161.213 359.155 160.619 361.371 160.619 361.371L152.312 360.784C152.356 360.171 152.461 359.339 152.584 358.384C153.362 352.794 155.443 342.63 155.443 342.63C155.443 342.63 156.23 343.375 162.437 343.813C168.628 344.251 172.274 342.928 172.274 342.928C172.274 342.928 172.545 343.76 175.142 346.476C179.216 350.761 186.097 352.32 191.807 353.6C195.61 354.449 196.922 358.734 197.35 361.529C197.595 362.94 197.595 363.965 197.595 363.965Z" fill="#212121"/>
<path d="M196.931 359.575C196.931 359.575 188.397 358.971 183.903 358.655C179.042 358.314 178.395 360.793 178.395 360.793" stroke="#2E2E2E" stroke-width="0.17" stroke-miterlimit="10"/>
<path d="M154.219 348.877C154.219 348.877 159.613 351.768 158.59 359.409" stroke="#2E2E2E" stroke-width="0.17" stroke-miterlimit="10"/>
<path d="M172.168 344.348C172.168 344.348 176.601 350.586 181.882 352.382C181.882 352.382 182.153 355.055 181.733 357.245C181.733 357.245 173.689 356.43 169.553 356.544C166.554 356.623 165.365 359.882 165.365 359.882" stroke="#2E2E2E" stroke-width="0.17" stroke-miterlimit="10"/>
<path d="M173.314 344.198C173.314 344.198 174.687 345.416 174.154 347.65" stroke="#3F220E" stroke-width="0.51" stroke-miterlimit="10" stroke-linecap="round"/>
<path d="M174.923 346.003C174.923 346.003 173.961 344.435 172.107 345.346" stroke="#3F220E" stroke-width="0.51" stroke-miterlimit="10" stroke-linecap="round"/>
<path d="M175.98 347.011C175.98 347.011 177.353 348.229 176.82 350.463" stroke="#3F220E" stroke-width="0.51" stroke-miterlimit="10" stroke-linecap="round"/>
<path d="M177.827 348.501C177.827 348.501 176.017 346.74 174.154 347.642" stroke="#3F220E" stroke-width="0.51" stroke-miterlimit="10" stroke-linecap="round"/>
<path d="M178.797 349.07C178.797 349.07 180.353 349.605 179.811 351.839" stroke="#3F220E" stroke-width="0.51" stroke-miterlimit="10" stroke-linecap="round"/>
<path d="M180.624 350.096C180.624 350.096 178.674 349.561 176.82 350.464" stroke="#3F220E" stroke-width="0.51" stroke-miterlimit="10" stroke-linecap="round"/>
<path d="M180.301 352.084C180.301 352.084 180.773 350.989 181.437 350.604" stroke="#3F220E" stroke-width="0.51" stroke-miterlimit="10" stroke-linecap="round"/>
<path d="M197.839 361.564L197.673 363.974L166.162 361.757C166.162 361.757 164.614 359.847 162.726 359.716C161.3 359.619 160.697 361.38 160.697 361.38L152.242 360.784L152.408 358.375L197.839 361.573V361.564Z" fill="#717171"/>
<path d="M155.154 344.059C155.154 344.059 159.78 345.89 165.952 345.373" stroke="#2E2E2E" stroke-width="0.17" stroke-miterlimit="10"/>
<path d="M86.4746 225.285L142.345 223.112L140.903 151.484L89.3949 154.139L86.4746 225.285Z" fill="#242424"/>
<path d="M173.815 269.662L177.225 240.363L105.72 229.56L102.678 266.902L173.815 269.662Z" fill="#018BCE"/>
<path d="M118.074 260.81C125.016 253.133 124.432 241.27 116.771 234.313C109.11 227.357 97.2714 227.941 90.3294 235.618C83.3874 243.296 83.9705 255.159 91.6318 262.115C99.2932 269.072 111.132 268.488 118.074 260.81Z" fill="#018BCE"/>
<path d="M185.652 245.498C190.811 251.832 189.867 261.164 183.545 266.333C180.695 268.664 177.232 269.759 173.814 269.663C169.66 269.549 165.586 267.7 162.753 264.221C157.594 257.887 158.539 248.555 164.86 243.386C171.182 238.217 180.494 239.163 185.652 245.498Z" fill="#018BCE"/>
<path d="M144.653 246.225L142.336 223.111L86.4736 225.284L85.3719 246.181C85.267 248.109 86.4037 249.887 88.1873 250.606L110.212 259.508C114.776 261.356 119.9 261.207 124.35 259.113L142.091 250.755C143.822 249.94 144.845 248.126 144.661 246.216L144.653 246.225Z" fill="#018BCE"/>
<path d="M86.0985 225.302L142.678 223.059L143.386 228.298L85.8887 229.866L86.0985 225.302Z" fill="#8FABF9"/>
<path d="M126.86 154.384C126.055 159.465 121.299 162.944 116.219 162.138C111.148 161.332 107.677 156.565 108.481 151.475C109.285 146.393 114.042 142.914 119.122 143.721C124.193 144.527 127.664 149.293 126.86 154.384Z" fill="#F6CACA"/>
<path d="M108.48 151.475L110.483 138.735L128.267 141.425L126.859 154.384L108.48 151.475Z" fill="#F6CACA"/>
<path d="M106.987 132.314C106.987 132.314 101.452 131.166 102.056 137.255C102.659 143.345 109.741 141.601 109.741 141.601L106.987 132.314Z" fill="#FFCFC5"/>
<path d="M105.973 134.723C105.011 134.591 104.172 134.942 103.857 135.573C103.761 135.765 103.691 135.976 103.638 136.177C103.534 136.65 103.551 137.15 103.682 137.623C103.813 138.087 104.067 138.534 104.46 138.85C104.863 139.165 105.422 139.34 105.938 139.226" stroke="#FC9EAA" stroke-width="0.57" stroke-miterlimit="10" stroke-linecap="round"/>
<path d="M106.148 137.29C106.498 136.58 104.968 135.388 103.639 136.615" stroke="#FC9EAA" stroke-width="0.57" stroke-miterlimit="10" stroke-linecap="round"/>
<path opacity="0.4" d="M127.14 151.773L127.332 150.012C127.332 150.012 117.994 155.006 111.428 146.008C111.428 146.814 115.695 156.478 127.131 151.773H127.14Z" fill="#DCA7A7"/>
<path d="M108.273 139.839C108.273 139.839 112.006 149.845 117.541 151.414C123.075 152.982 130.175 151.055 130.175 144.299V129.746C130.175 125.978 128.085 122.465 124.693 120.844C121.816 119.468 117.75 118.776 112.364 120.669C99.9662 125.006 108.273 139.839 108.273 139.839Z" fill="#FFCFC5"/>
<path d="M119.254 134.731C119.254 135.275 118.94 135.721 118.555 135.721C118.17 135.721 117.855 135.275 117.855 134.731C117.855 134.188 118.17 133.741 118.555 133.741C118.94 133.741 119.254 134.188 119.254 134.731Z" fill="#2E1124"/>
<path d="M126.624 134.731C126.624 135.275 126.309 135.721 125.924 135.721C125.539 135.721 125.225 135.275 125.225 134.731C125.225 134.188 125.539 133.741 125.924 133.741C126.309 133.741 126.624 134.188 126.624 134.731Z" fill="#2E1124"/>
<path d="M124.271 131.945C124.98 131.235 126.623 131.104 127.463 131.945" stroke="#474DBD" stroke-width="0.57" stroke-miterlimit="10" stroke-linecap="round"/>
<path d="M116.963 131.945C117.671 131.235 119.315 131.104 120.154 131.945" stroke="#474DBD" stroke-width="0.57" stroke-miterlimit="10" stroke-linecap="round"/>
<path d="M124.857 145.176C124.857 145.176 122.269 146.84 120.145 144.808" stroke="#FC9EAA" stroke-width="0.57" stroke-miterlimit="10" stroke-linecap="round"/>
<path d="M122.865 135.888C122.865 135.888 125.366 140.531 125.034 141.162C124.701 141.793 123.381 141.46 123.381 141.46" stroke="#FC9EAA" stroke-width="0.57" stroke-miterlimit="10" stroke-linecap="round"/>
<path d="M118.369 170.356L117.67 219.554" stroke="black" stroke-width="1.14" stroke-miterlimit="10" stroke-linecap="round"/>
<path d="M118.91 140.803C119.36 139.723 118.85 138.481 117.772 138.03C116.693 137.579 115.454 138.089 115.004 139.17C114.554 140.251 115.064 141.493 116.142 141.943C117.221 142.394 118.46 141.884 118.91 140.803Z" fill="#FFC6C6"/>
<path d="M129.771 140.81C130.221 139.729 129.712 138.488 128.633 138.037C127.555 137.586 126.316 138.096 125.866 139.177C125.416 140.258 125.925 141.499 127.004 141.95C128.082 142.401 129.321 141.891 129.771 140.81Z" fill="#FFC6C6"/>
<path d="M102.055 136.536C102.055 136.536 101.767 134.618 102.676 133.785C105.806 130.929 108.316 133.636 108.691 138.99C108.691 138.99 109.269 139.524 109.295 138.665C109.321 137.658 108.814 135.038 109.207 131.849C109.505 129.457 108.674 127.529 108.674 127.573C108.674 127.573 122.156 130.578 128.635 125.348C130.917 127.074 129.947 133.636 130.174 135.958C131.87 132.979 136.12 128.116 133.042 125.207C136.111 122.623 140.457 111.434 134.843 106.457C131.092 103.128 127.044 103.198 118.58 111.539C114.069 115.981 110.353 109.165 106.82 117.409C103.629 114.413 98.1644 118.864 98.6627 125.085C99.3185 133.146 102.038 136.528 102.038 136.528L102.055 136.536Z" fill="#0A0A0A"/>
<path d="M109.182 121.265C108.71 120.178 109.059 118.785 110.004 118.067C110.904 117.375 112.146 117.322 113.283 117.445C114.419 117.559 115.565 117.813 116.684 117.611C118.144 117.34 119.359 116.323 120.33 115.202C121.3 114.072 122.096 112.801 123.145 111.75C124.885 109.997 127.29 108.928 129.755 108.814" fill="#0A0A0A"/>
<path d="M109.182 121.265C108.71 120.178 109.059 118.785 110.004 118.067C110.904 117.375 112.146 117.322 113.283 117.445C114.419 117.559 115.565 117.813 116.684 117.611C118.144 117.34 119.359 116.323 120.33 115.202C121.3 114.072 122.096 112.801 123.145 111.75C124.885 109.997 127.29 108.928 129.755 108.814" stroke="#B2B2B2" stroke-width="0.17" stroke-linecap="round" stroke-linejoin="round"/>
<path d="M110.694 124.427C110.362 123.709 110.782 122.807 111.455 122.395C112.128 121.983 112.985 121.974 113.763 122.123C114.541 122.272 115.285 122.561 116.063 122.701C117.855 123.043 119.735 122.614 121.361 121.79C122.988 120.967 124.404 119.766 125.733 118.513C126.494 117.786 127.246 117.033 128.172 116.533C129.099 116.034 130.253 115.841 131.198 116.297" fill="#0A0A0A"/>
<path d="M110.694 124.427C110.362 123.709 110.782 122.807 111.455 122.395C112.128 121.983 112.985 121.974 113.763 122.123C114.541 122.272 115.285 122.561 116.063 122.701C117.855 123.043 119.735 122.614 121.361 121.79C122.988 120.967 124.404 119.766 125.733 118.513C126.494 117.786 127.246 117.033 128.172 116.533C129.099 116.034 130.253 115.841 131.198 116.297" stroke="#B2B2B2" stroke-width="0.17" stroke-linecap="round" stroke-linejoin="round"/>
<path d="M108.316 124.638C107.521 123.692 106.069 123.368 104.941 123.885C103.813 124.402 103.123 125.716 103.324 126.943C103.455 127.731 103.91 128.432 104.355 129.098C104.845 129.843 105.335 130.579 105.833 131.323" fill="#0A0A0A"/>
<path d="M108.316 124.638C107.521 123.692 106.069 123.368 104.941 123.885C103.813 124.402 103.123 125.716 103.324 126.943C103.455 127.731 103.91 128.432 104.355 129.098C104.845 129.843 105.335 130.579 105.833 131.323" stroke="#B2B2B2" stroke-width="0.17" stroke-linecap="round" stroke-linejoin="round"/>
<path d="M106.838 121.326C105.789 120.975 104.618 121.01 103.586 121.431C103.157 121.606 102.738 121.86 102.449 122.22C102.152 122.579 101.995 123.069 102.091 123.525" fill="#0A0A0A"/>
<path d="M106.838 121.326C105.789 120.975 104.618 121.01 103.586 121.431C103.157 121.606 102.738 121.86 102.449 122.22C102.152 122.579 101.995 123.069 102.091 123.525" stroke="#B2B2B2" stroke-width="0.17" stroke-linecap="round" stroke-linejoin="round"/>
<path d="M105.648 118.128C106.094 116.989 106.54 115.833 107.231 114.825C107.922 113.817 108.901 112.95 110.081 112.635C111.166 112.337 112.32 112.521 113.448 112.556C114.576 112.591 115.808 112.424 116.587 111.609" fill="#0A0A0A"/>
<path d="M105.648 118.128C106.094 116.989 106.54 115.833 107.231 114.825C107.922 113.817 108.901 112.95 110.081 112.635C111.166 112.337 112.32 112.521 113.448 112.556C114.576 112.591 115.808 112.424 116.587 111.609" stroke="#8C3FFB" stroke-width="0.57" stroke-miterlimit="10" stroke-linecap="round"/>
<path d="M106.698 118.329C106.55 117.322 105.964 116.384 105.116 115.815C104.268 115.245 103.183 115.061 102.195 115.306" fill="#0A0A0A"/>
<path d="M106.698 118.329C106.55 117.322 105.964 116.384 105.116 115.815C104.268 115.245 103.183 115.061 102.195 115.306" stroke="#8C3FFB" stroke-width="0.57" stroke-miterlimit="10" stroke-linecap="round"/>
<path d="M130.287 124.279C132.394 123.788 134.335 122.596 135.734 120.932C137.133 119.276 137.973 117.155 138.104 114.982" fill="#0A0A0A"/>
<path d="M130.287 124.279C132.394 123.788 134.335 122.596 135.734 120.932C137.133 119.276 137.973 117.155 138.104 114.982" stroke="#8C3FFB" stroke-width="0.57" stroke-miterlimit="10" stroke-linecap="round"/>
<path d="M124.185 135.459C124.658 137.649 126.817 139.051 129.003 138.578C131.189 138.105 132.588 135.941 132.116 133.75C131.644 131.56 129.484 130.158 127.298 130.631C125.112 131.104 123.713 133.268 124.185 135.459Z" stroke="white" stroke-width="0.57" stroke-miterlimit="10" stroke-linecap="round"/>
<path d="M113.606 135.906C114.06 138 116.124 139.332 118.213 138.885C120.303 138.429 121.632 136.362 121.186 134.267C120.732 132.173 118.668 130.842 116.578 131.288C114.489 131.744 113.16 133.812 113.606 135.906Z" stroke="white" stroke-width="0.57" stroke-miterlimit="10" stroke-linecap="round"/>
<path d="M124.08 134.977C124.08 134.977 123.075 133.943 121.273 135.169" stroke="white" stroke-width="0.57" stroke-miterlimit="10" stroke-linecap="round"/>
<path d="M174.775 245.593L172.598 275.007L100.342 272.071L104.408 234.816L174.775 245.593Z" fill="#018BCE"/>
<path d="M120.464 258.269C123.119 248.256 117.171 237.983 107.179 235.322C97.187 232.662 86.9347 238.622 84.2798 248.635C81.6249 258.648 87.5727 268.921 97.5647 271.582C107.557 274.242 117.809 268.282 120.464 258.269Z" fill="#018BCE"/>
<path d="M181.84 271.563C188.1 266.324 188.94 256.984 183.702 250.702C181.342 247.871 178.15 246.145 174.775 245.585C170.675 244.91 166.32 245.953 162.884 248.827C156.624 254.066 155.785 263.406 161.022 269.688C166.259 275.962 175.571 276.803 181.84 271.555V271.563Z" fill="#018BCE"/>
<path d="M174.818 329.33L152.959 326.483L154.926 258.956L184.357 261.637L174.818 329.33Z" fill="#018BCE"/>
<path d="M158.414 269.829C163.722 276.041 173.051 276.777 179.25 271.459C185.449 266.141 186.184 256.792 180.876 250.58C175.569 244.368 166.24 243.632 160.041 248.95C153.841 254.268 153.107 263.617 158.414 269.829Z" fill="#018BCE"/>
<path d="M177.422 310.825L184.356 262.986C184.356 262.986 185.641 250.115 175.455 246.584" stroke="#091A4C" stroke-width="0.99" stroke-miterlimit="10"/>
<path d="M90.2775 212.641C88.1266 217.136 82.7406 219.037 78.2552 216.882C73.7698 214.726 71.8725 209.329 74.0234 204.834C76.1743 200.34 81.5603 198.438 86.0456 200.594C90.531 202.749 92.4284 208.146 90.2775 212.641Z" fill="#FFCFC5"/>
<path d="M130.357 223.768C129.098 226.388 125.959 227.501 123.344 226.239C120.73 224.977 119.62 221.832 120.879 219.212C122.138 216.592 125.277 215.479 127.891 216.741C130.505 218.003 131.616 221.148 130.357 223.768Z" fill="#FFCFC5"/>
<path d="M86.0463 200.594L127.893 216.742L123.346 226.248L78.2559 216.882L86.0463 200.594Z" fill="#FFCFC5"/>
<path d="M89.4975 208.986C90.6361 204.129 87.6301 199.267 82.7835 198.126C77.9368 196.985 73.0849 199.998 71.9463 204.854C70.8077 209.711 73.8137 214.573 78.6604 215.714C83.507 216.855 88.359 213.843 89.4975 208.986Z" fill="#FFCFC5"/>
<path d="M98.1686 166.9C99.4352 161.263 95.9021 155.665 90.2773 154.396C84.6524 153.127 79.0658 156.667 77.7992 162.304C76.5326 167.94 80.0657 173.539 85.6906 174.808C91.3154 176.077 96.902 172.537 98.1686 166.9Z" fill="#FFCFC5"/>
<path d="M77.5477 164.601L71.707 206.929H89.7361L98.4183 164.601H77.5477Z" fill="#FFCFC5"/>
<path d="M153.004 325.063L177.022 327.639L176.192 331.819L152.637 329.348L153.004 325.063Z" fill="#8FABF9"/>
<path d="M92.4467 233.38C92.4467 233.38 93.767 247.968 86.9121 252.069" stroke="#091A4C" stroke-width="0.99" stroke-miterlimit="10"/>
<path d="M125.951 172.731C129.807 173.581 133.882 173.432 137.676 172.311" stroke="black" stroke-width="1.14" stroke-miterlimit="10" stroke-linecap="round"/>
<path d="M122.253 178.312C122.253 178.89 121.789 179.355 121.212 179.355C120.635 179.355 120.172 178.89 120.172 178.312C120.172 177.734 120.635 177.27 121.212 177.27C121.789 177.27 122.253 177.734 122.253 178.312Z" fill="#686868"/>
<path d="M121.212 185.199C121.787 185.199 122.253 184.732 122.253 184.156C122.253 183.58 121.787 183.113 121.212 183.113C120.638 183.113 120.172 183.58 120.172 184.156C120.172 184.732 120.638 185.199 121.212 185.199Z" fill="#686868"/>
<path d="M121.212 191.035C121.787 191.035 122.253 190.568 122.253 189.992C122.253 189.416 121.787 188.949 121.212 188.949C120.638 188.949 120.172 189.416 120.172 189.992C120.172 190.568 120.638 191.035 121.212 191.035Z" fill="#686868"/>
<path d="M153.703 245.393C153.703 245.393 175.028 245.358 177.109 247.049C179.199 248.74 179.925 249.572 179.925 249.572" stroke="#091A4C" stroke-width="0.99" stroke-miterlimit="10"/>
<path d="M98.5035 164.6C98.5035 166.063 98.2062 167.465 97.6554 168.736L94.0094 186.478L74.459 187.574L77.6241 164.6C77.6241 158.817 82.2931 154.139 88.0638 154.139C93.8345 154.139 98.5035 158.817 98.5035 164.6Z" fill="#242424"/>
<path d="M73.673 184.884L72.9473 189.344L95.0333 187.574L95.7502 183.105L73.673 184.884Z" fill="#262626"/>
<path d="M95.2441 180.45L96.7218 173.274" stroke="black" stroke-width="1.14" stroke-miterlimit="10" stroke-linecap="round"/>
<path d="M141.601 178.715L141.383 171.391" stroke="black" stroke-width="1.14" stroke-miterlimit="10" stroke-linecap="round"/>
<path d="M109.304 209.575L103.446 207.314C103.446 207.314 94.8857 203.336 89.0801 203.371" stroke="#717171" stroke-width="1.14" stroke-miterlimit="10" stroke-linecap="round"/>
<path d="M181.499 166.553C182.154 166.51 182.478 168.945 182.557 172.836C182.627 176.393 182.487 179.337 181.831 179.433L181.525 179.486C181.525 179.486 181.499 179.486 181.481 179.486C181.481 179.486 180.642 179.617 180.213 179.679C174.495 180.546 169.31 179.319 168.742 173.975C168.191 168.735 173.044 166.86 178.814 166.51C179.234 166.483 179.645 166.475 180.047 166.483C180.082 166.483 180.117 166.475 180.143 166.475L181.499 166.545V166.553Z" fill="#FFCFC5"/>
<path d="M179.296 166.282C178.527 166.361 177.967 167.027 178.037 167.78C178.116 168.525 178.964 169.209 179.733 169.13L192.761 167.64C193.531 167.561 194.099 166.895 194.02 166.142C193.942 165.397 193.26 164.854 192.49 164.924L179.305 166.282H179.296Z" fill="#FFCFC5"/>
<path d="M173.515 166.099C172.851 166.765 169.729 169.271 170.385 170.182L170.306 170.594C171.233 171.487 176.995 170.226 177.257 169.183L178.018 165.74C178.682 165.074 179.618 164.425 178.927 163.812C178.237 163.199 177.266 163.321 176.47 163.838C175.176 164.679 173.515 166.099 173.515 166.099Z" fill="#FFCFC5"/>
<path d="M176.287 163.952C175.789 165.021 176.375 166.747 177.45 167.001L177.625 167.211C178.709 167.465 178.604 167.29 179.173 166.256C180.082 164.591 179.942 161.639 179.942 161.639C179.925 160.14 179.015 158.589 178.351 158.449C177.686 158.274 176.829 158.554 176.637 159.001C176.637 159.001 177.608 161.122 176.287 163.952Z" fill="#FFCFC5"/>
<path d="M177.791 167.632C177.791 167.632 177.415 173.818 172.457 174.746" stroke="#717171" stroke-width="1.14" stroke-miterlimit="10" stroke-linecap="round"/>
<path d="M185.616 172.206L180.169 172.81C179.199 172.915 178.333 172.223 178.22 171.251C178.115 170.278 178.805 169.411 179.776 169.297L185.223 168.692C186.194 168.587 187.059 169.279 187.173 170.252C187.278 171.224 186.587 172.092 185.616 172.206Z" fill="#FFCFC5"/>
<path d="M185.616 175.658L180.169 176.262C179.199 176.368 178.333 175.675 178.22 174.703C178.115 173.73 178.805 172.863 179.776 172.749L185.223 172.144C186.194 172.039 187.059 172.731 187.173 173.704C187.278 174.676 186.587 175.544 185.616 175.658Z" fill="#FFCFC5"/>
<path d="M185.197 179.04L179.749 179.644C178.779 179.749 177.913 179.057 177.8 178.085C177.695 177.112 178.385 176.245 179.356 176.131L184.803 175.526C185.774 175.421 186.639 176.113 186.753 177.086C186.858 178.058 186.167 178.926 185.197 179.04Z" fill="#FFCFC5"/>
<path d="M137.807 221.131C138.462 221.078 138.637 222.147 138.489 223.9C138.349 225.494 138.043 226.835 137.387 226.914L137.072 226.957C137.072 226.957 137.046 226.957 137.028 226.957C137.028 226.957 136.189 227.063 135.752 227.115C130.016 227.842 124.936 227.588 124.683 225.214C124.438 222.883 129.369 221.762 135.131 221.262C135.551 221.227 135.953 221.201 136.355 221.175C136.39 221.175 136.425 221.175 136.451 221.166L137.798 221.122L137.807 221.131Z" fill="#FFCFC5"/>
<path d="M128.258 219.755C127.593 220.421 124.489 222.953 125.145 223.856L125.066 224.276C126.002 225.17 131.755 223.864 132.009 222.83L132.752 219.387C133.416 218.721 134.352 218.064 133.652 217.451C132.953 216.837 131.991 216.969 131.196 217.495C129.91 218.344 128.249 219.773 128.249 219.773L128.258 219.755Z" fill="#FFCFC5"/>
<path d="M133.146 216.838C131.965 216.908 130.732 218.248 131.03 219.317L130.934 219.571C131.231 220.64 131.336 220.474 132.507 220.482C134.396 220.491 136.923 218.958 136.923 218.958C138.226 218.222 139.152 216.689 138.96 216.032C138.794 215.366 138.147 214.744 137.657 214.787C137.657 214.787 136.258 216.662 133.146 216.846V216.838Z" fill="#FFCFC5"/>
<path d="M137.509 224.574L132.202 223.216C131.257 222.971 130.689 222.016 130.934 221.07C131.179 220.123 132.132 219.554 133.076 219.799L138.383 221.157C139.328 221.403 139.896 222.358 139.651 223.304C139.406 224.25 138.453 224.82 137.509 224.574Z" fill="#FFCFC5"/>
<path d="M145.404 224.986L139.939 225.371C138.969 225.441 138.129 224.705 138.059 223.733C137.989 222.76 138.724 221.919 139.694 221.849L145.159 221.464C146.13 221.394 146.969 222.13 147.039 223.102C147.109 224.075 146.374 224.916 145.404 224.986Z" fill="#FFCFC5"/>
<path d="M141.644 224.653L136.179 225.038C135.209 225.108 134.369 224.372 134.3 223.4C134.23 222.427 134.964 221.586 135.935 221.516L141.399 221.131C142.37 221.061 143.209 221.796 143.279 222.769C143.349 223.742 142.615 224.583 141.644 224.653Z" fill="#FFCFC5"/>
<path d="M134.826 224.285C134.056 224.364 133.497 225.03 133.566 225.783C133.645 226.528 134.493 227.211 135.263 227.133L148.29 225.643C149.06 225.564 149.628 224.898 149.55 224.145C149.471 223.4 148.789 222.857 148.019 222.927L134.834 224.285H134.826Z" fill="#FFCFC5"/>
<path d="M136.381 223.514C137.605 223.987 140.753 223.76 142.37 223.409" stroke="#717171" stroke-width="1.14" stroke-miterlimit="10" stroke-linecap="round"/>
<path d="M130.943 222.121C131.73 221.718 132.482 221.271 132.998 220.903" stroke="#717171" stroke-width="1.14" stroke-miterlimit="10" stroke-linecap="round"/>
<path d="M157.585 273.745H147.854" stroke="#091A4C" stroke-width="0.99" stroke-miterlimit="10"/>
<path d="M144.654 246.225L127.893 245.393" stroke="#091A4C" stroke-width="0.99" stroke-miterlimit="10"/>
<path d="M249.584 229.621H48.1522H22.0879V222.095H249.584V229.621Z" fill="#171717"/>
<path d="M48.1523 362.423V229.621" stroke="black" stroke-width="0.89" stroke-miterlimit="10"/>
<path d="M242.082 362.423V229.621" stroke="black" stroke-width="0.89" stroke-miterlimit="10"/>
<path d="M145.484 278.021H85.9939C82.6627 278.021 79.9609 275.314 79.9609 271.975C79.9609 268.637 82.6627 265.93 85.9939 265.93H145.484C148.816 265.93 151.517 268.637 151.517 271.975C151.517 275.314 148.816 278.021 145.484 278.021Z" fill="#383838"/>
<path d="M72.8867 361.248L91.7376 278.021" stroke="black" stroke-width="0.89" stroke-miterlimit="10"/>
<path d="M156.842 361.248L138 278.021" stroke="black" stroke-width="0.89" stroke-miterlimit="10"/>
<path d="M153.616 217.749H120.041V222.104H153.616V217.749Z" fill="#ABBDFF"/>
<path d="M216.386 222.094H148.65L158.662 180.336H226.983L216.386 222.094Z" fill="#858585"/>
<mask id="mask3_2438_13179" style="mask-type:luminance" maskUnits="userSpaceOnUse" x="148" y="180" width="79" height="43">
<path d="M216.386 222.094H148.65L158.662 180.336H226.983L216.386 222.094Z" fill="white"/>
</mask>
<g mask="url(#mask3_2438_13179)">
<path opacity="0.18" d="M146.002 218.117L168.473 217.933C192.596 217.74 214.341 202.74 222.56 180.003C222.761 179.434 222.971 178.856 223.163 178.269L235.824 178.856L222.569 229.612H146.002V218.099V218.117Z" fill="#ABBDFF"/>
</g>
<path d="M77.4393 113.244C81.5198 94.8299 69.9314 76.5877 51.556 72.4988C33.1806 68.4098 14.9766 80.0223 10.8961 98.4362C6.81568 116.85 18.404 135.092 36.7794 139.181C55.1548 143.27 73.3588 131.658 77.4393 113.244Z" fill="#018BCE"/>
<path d="M61.0662 92.1748H26.8355C24.6191 92.1748 22.8223 93.9754 22.8223 96.1965V116.208C22.8223 118.429 24.6191 120.23 26.8355 120.23H61.0662C63.2826 120.23 65.0794 118.429 65.0794 116.208V96.1965C65.0794 93.9754 63.2826 92.1748 61.0662 92.1748Z" fill="white"/>
<path d="M30.4805 99.7012L42.3104 110.794C43.3596 111.775 44.9859 111.775 46.0351 110.794L57.865 99.7012" stroke="#141C31" stroke-width="0.89" stroke-linecap="round" stroke-linejoin="round"/>
<path d="M52.2881 83.7464C52.2007 71.1733 57.6829 56.8566 70.6232 53.1416C78.3 50.7234 88.4162 53.1329 91.7562 61.071C93.6535 65.0401 91.5463 70.8228 86.9123 70.9806C81.5613 70.9806 80.1798 63.9799 81.229 59.6166C84.0881 45.9657 99.0919 40.6211 111.648 41.3833C123.792 41.6988 136.619 46.6316 141.865 57.7152" stroke="#141C31" stroke-width="0.89" stroke-linecap="round" stroke-linejoin="round"/>
<path d="M286.771 154.62H320.346V150.266H286.771V154.62Z" fill="white" stroke="black" stroke-width="0.89" stroke-miterlimit="10"/>
<path d="M224.001 154.62H291.737L281.726 112.861H213.404L224.001 154.62Z" fill="white"/>
<mask id="mask4_2438_13179" style="mask-type:luminance" maskUnits="userSpaceOnUse" x="213" y="112" width="79" height="43">
<path d="M224.001 154.62H291.737L281.726 112.861H213.404L224.001 154.62Z" fill="white"/>
</mask>
<g mask="url(#mask4_2438_13179)">
<path d="M294.386 150.634L271.915 150.45C247.792 150.257 226.047 135.257 217.828 112.52C217.627 111.95 217.417 111.372 217.225 110.785L204.564 111.372L217.82 162.129H294.386V150.616V150.634Z" fill="#E2E8FF"/>
</g>
<path d="M224.001 154.62H291.737L281.726 112.861H213.404L224.001 154.62Z" stroke="black" stroke-width="0.89" stroke-miterlimit="10"/>
<path d="M256.142 131.051C257.384 132.61 257.244 134.801 255.819 135.931C254.394 137.07 252.234 136.728 250.992 135.16C249.751 133.6 249.891 131.41 251.316 130.279C252.741 129.149 254.901 129.482 256.142 131.042V131.051Z" fill="#E2E8FF"/>
<path d="M218.887 154.62H224.002" stroke="black" stroke-width="0.89" stroke-miterlimit="10"/>
<path d="M333.571 137.558C335.592 132.63 333.243 126.994 328.326 124.969C323.408 122.944 317.783 125.297 315.763 130.225C313.742 135.153 316.09 140.789 321.008 142.814C325.925 144.839 331.55 142.486 333.571 137.558Z" fill="#FFB89B"/>
<path d="M271.312 126.065C271.312 129.176 273.822 131.691 276.926 131.691C280.03 131.691 282.539 129.176 282.539 126.065C282.539 122.955 280.03 120.44 276.926 120.44C273.822 120.44 271.312 122.955 271.312 126.065Z" fill="#FFB89B"/>
<path d="M324.674 124.252L276.926 120.44V131.691L324.674 143.545V124.252Z" fill="#FFB89B"/>
<path d="M298.137 122.342L314.242 123.428C314.242 123.428 318.133 123.428 320.905 126.644" stroke="#E38C72" stroke-width="1.22" stroke-miterlimit="10" stroke-linecap="round"/>
<path d="M265.682 115.972C264.983 115.929 264.633 118.522 264.554 122.684C264.475 126.487 264.624 129.632 265.332 129.737L265.665 129.79C265.665 129.79 265.691 129.79 265.708 129.79C265.708 129.79 266.6 129.93 267.063 130C273.175 130.929 278.71 129.614 279.313 123.911C279.908 118.312 274.723 116.314 268.55 115.937C268.104 115.911 267.667 115.902 267.238 115.911C267.203 115.911 267.168 115.902 267.133 115.902L265.682 115.981V115.972Z" fill="#FFB89B"/>
<path d="M268.042 115.683C268.864 115.762 269.467 116.48 269.389 117.278C269.31 118.075 268.401 118.802 267.579 118.723L253.668 117.129C252.846 117.05 252.243 116.331 252.321 115.534C252.4 114.737 253.134 114.15 253.956 114.237L268.042 115.683Z" fill="#FFB89B"/>
<path d="M274.206 115.49C274.914 116.2 278.254 118.881 277.555 119.845L277.642 120.292C276.654 121.247 270.499 119.897 270.219 118.785L269.406 115.114C268.698 114.404 267.692 113.712 268.435 113.054C269.179 112.397 270.21 112.529 271.058 113.081C272.44 113.983 274.215 115.49 274.215 115.49H274.206Z" fill="#FFB89B"/>
<path d="M271.251 113.195C271.784 114.334 271.163 116.183 270.009 116.446L269.825 116.665C268.671 116.936 268.776 116.752 268.173 115.648C267.194 113.878 267.351 110.724 267.351 110.724C267.369 109.121 268.339 107.465 269.056 107.316C269.764 107.132 270.674 107.43 270.883 107.903C270.883 107.903 269.843 110.172 271.259 113.195H271.251Z" fill="#FFB89B"/>
<path d="M261.284 122.01L267.107 122.658C268.139 122.772 269.074 122.027 269.188 120.993C269.302 119.959 268.559 119.022 267.527 118.908L261.704 118.26C260.672 118.146 259.736 118.89 259.623 119.924C259.509 120.958 260.252 121.896 261.284 122.01Z" fill="#FFB89B"/>
<path d="M261.284 125.707L267.107 126.355C268.139 126.469 269.074 125.724 269.188 124.69C269.302 123.657 268.559 122.719 267.527 122.605L261.704 121.957C260.672 121.843 259.736 122.588 259.623 123.622C259.509 124.655 260.252 125.593 261.284 125.707Z" fill="#FFB89B"/>
<path d="M261.729 129.316L267.553 129.965C268.584 130.079 269.52 129.334 269.633 128.3C269.747 127.266 269.004 126.328 267.972 126.215L262.149 125.566C261.117 125.452 260.182 126.197 260.068 127.231C259.954 128.265 260.698 129.202 261.729 129.316Z" fill="#FFB89B"/>
<path d="M262.402 269.233C270.368 272.685 279.977 272.071 287.444 267.629C294.911 263.196 300.06 255.047 300.865 246.382C301.293 241.791 300.568 237.165 299.396 232.705C298.443 229.077 296.738 225.065 293.162 223.943C290.119 222.988 286.709 224.679 284.873 227.281C283.037 229.892 282.512 233.213 282.504 236.402C282.469 249.895 291.509 262.95 304.135 267.638C316.761 272.326 332.105 268.321 340.849 258.053C343.699 254.714 345.859 250.833 347.642 246.82C356.447 227.045 355.861 202.705 343.874 184.682" stroke="#141C31" stroke-width="0.89" stroke-linecap="round" stroke-linejoin="round"/>
<path d="M330.889 257.01C330.889 257.01 303.024 304.937 345.438 342.095C345.438 342.095 352.459 299.452 330.889 257.01Z" fill="white"/>
<mask id="mask5_2438_13179" style="mask-type:luminance" maskUnits="userSpaceOnUse" x="321" y="257" width="26" height="86">
<path d="M330.889 257.01C330.889 257.01 303.024 304.937 345.438 342.095C345.438 342.095 352.459 299.452 330.889 257.01Z" fill="white"/>
</mask>
<g mask="url(#mask5_2438_13179)">
<path d="M331.448 251.727C331.238 253.058 322.233 321.733 346.531 345.635C371.59 370.291 308.234 300.372 308.234 300.372L313.244 276.724L331.448 251.727Z" fill="#BDBDBD"/>
<path d="M319.986 264.115L329.884 274.936" stroke="white" stroke-width="1.37" stroke-miterlimit="10"/>
<path d="M318.412 284.837L330.513 297.866" stroke="white" stroke-width="1.37" stroke-miterlimit="10"/>
</g>
<path d="M330.889 257.01C330.889 257.01 303.024 304.937 345.438 342.095C345.438 342.095 352.459 299.452 330.889 257.01Z" stroke="#BDBDBD" stroke-width="1.37" stroke-miterlimit="10"/>
<path d="M309.486 286.02C309.486 286.02 299.37 317.439 336.792 339.563C336.792 339.563 335.612 300.205 309.486 286.02Z" fill="white"/>
<mask id="mask6_2438_13179" style="mask-type:luminance" maskUnits="userSpaceOnUse" x="308" y="286" width="29" height="54">
<path d="M309.486 286.02C309.486 286.02 299.37 317.439 336.792 339.563C336.792 339.563 335.612 300.205 309.486 286.02Z" fill="white"/>
</mask>
<g mask="url(#mask6_2438_13179)">
<path d="M309.311 281.455C309.311 281.455 311.164 314.732 339.991 345.977L310.666 331.117L299.203 290.243L309.319 281.464L309.311 281.455Z" fill="#3A3A3A"/>
</g>
<path d="M309.486 286.02C309.486 286.02 299.37 317.439 336.792 339.563C336.792 339.563 335.612 300.205 309.486 286.02Z" stroke="#3A3A3A" stroke-width="1.37" stroke-miterlimit="10"/>
<path d="M361.694 261.794C361.694 261.794 335.026 292.784 355.914 334.438C355.914 334.438 376.986 289.455 361.694 261.794Z" fill="white"/>
<mask id="mask7_2438_13179" style="mask-type:luminance" maskUnits="userSpaceOnUse" x="347" y="261" width="21" height="74">
<path d="M361.694 261.794C361.694 261.794 335.026 292.784 355.914 334.438C355.914 334.438 376.986 289.455 361.694 261.794Z" fill="white"/>
</mask>
<g mask="url(#mask7_2438_13179)">
<path d="M364.108 256.563C364.108 256.563 347.049 294.984 355.163 343.112L337.396 313.261L350.162 261.978L364.108 256.555V256.563Z" fill="#A4A4A4"/>
</g>
<path d="M361.694 261.794C361.694 261.794 335.026 292.784 355.914 334.438C355.914 334.438 376.986 289.455 361.694 261.794Z" stroke="#3A3A3A" stroke-width="1.53" stroke-miterlimit="10"/>
<path d="M378.691 288.552C378.691 288.552 388.807 319.971 351.385 342.095C351.385 342.095 352.565 302.737 378.691 288.552Z" fill="white"/>
<mask id="mask8_2438_13179" style="mask-type:luminance" maskUnits="userSpaceOnUse" x="351" y="288" width="29" height="55">
<path d="M378.691 288.552C378.691 288.552 388.807 319.971 351.385 342.095C351.385 342.095 352.565 302.737 378.691 288.552Z" fill="white"/>
</mask>
<g mask="url(#mask8_2438_13179)">
<path d="M379.933 284.215C379.933 284.215 369.598 324.58 348.701 348.062L379.933 284.215Z" fill="white"/>
<path d="M379.933 284.215C379.933 284.215 369.598 324.58 348.701 348.062" stroke="#BDBDBD" stroke-width="1.37" stroke-miterlimit="10"/>
</g>
<path d="M378.691 288.552C378.691 288.552 388.807 319.971 351.385 342.095C351.385 342.095 352.565 302.737 378.691 288.552Z" stroke="#BDBDBD" stroke-width="1.37" stroke-miterlimit="10"/>
<mask id="mask9_2438_13179" style="mask-type:luminance" maskUnits="userSpaceOnUse" x="337" y="273" width="22" height="69">
<path d="M354.462 273.929C354.462 273.929 319.802 303.543 350.405 341.832C350.405 341.832 365.286 311.228 354.462 273.929Z" fill="white"/>
</mask>
<g mask="url(#mask9_2438_13179)">
<path d="M356.026 270.064C355.72 270.713 345.516 293.905 344.327 316.213C343.768 326.753 345.21 337.101 350.666 344.785C368.197 369.458 325.406 301.344 325.406 301.344L334.657 284.644L356.026 270.073V270.064Z" fill="#A4A4A4"/>
<path d="M343.242 276.697L349.948 287.255" stroke="white" stroke-width="1.16" stroke-miterlimit="10"/>
<path d="M337.664 292.004L345.9 304.77" stroke="white" stroke-width="1.16" stroke-miterlimit="10"/>
<path d="M355.843 270.818C355.843 270.818 336.791 310.421 348.096 342.095C359.323 373.55 348.096 339.563 348.096 339.563L362.357 336.453L361.911 276.768L355.851 270.81L355.843 270.818Z" fill="white"/>
<path d="M335.436 305.725L345.438 321.145" stroke="white" stroke-width="1.16" stroke-miterlimit="10"/>
</g>
<path d="M354.462 273.929C354.462 273.929 319.802 303.543 350.405 341.832C350.405 341.832 365.286 311.228 354.462 273.929Z" stroke="#A4A4A4" stroke-width="1.37" stroke-miterlimit="10"/>
<path d="M326.283 337.145C326.283 337.145 326.449 356.736 332.517 359.268H359.15C359.15 359.268 365.051 356.903 365.051 337.145H366.345V334.665L324.543 334.438V336.856L326.283 337.136V337.145Z" fill="white"/>
<mask id="mask10_2438_13179" style="mask-type:luminance" maskUnits="userSpaceOnUse" x="324" y="334" width="43" height="26">
<path d="M326.283 337.145C326.283 337.145 326.449 356.736 332.517 359.268H359.15C359.15 359.268 365.051 356.903 365.051 337.145H366.345V334.665L324.543 334.438V336.856L326.283 337.136V337.145Z" fill="white"/>
</mask>
<g mask="url(#mask10_2438_13179)">
<path d="M360.33 332.238C360.33 332.238 358.756 353.748 351.342 363.991L368.531 360.39L370.333 329.645L360.33 332.238Z" fill="#3A3A3A"/>
</g>
<path d="M326.283 337.145C326.283 337.145 326.449 356.736 332.517 359.268H359.15C359.15 359.268 365.051 356.903 365.051 337.145H366.345V334.665L324.543 334.438V336.856L326.283 337.136V337.145Z" stroke="black" stroke-width="1.37" stroke-miterlimit="10"/>
<path d="M314.871 360.171H373.758" stroke="#A4A4A4" stroke-width="1.37" stroke-miterlimit="10"/>
<path d="M22.0879 362.169H141.602" stroke="#FCDCC3" stroke-width="1.37" stroke-miterlimit="10"/>
<path d="M204.406 363.071H268.575" stroke="#FCDCC3" stroke-width="1.37" stroke-miterlimit="10"/>
</g>
</g>
<defs>
<clipPath id="clip0_2438_13179">
<rect width="427" height="425" fill="white"/>
</clipPath>
<clipPath id="clip1_2438_13179">
<rect width="415" height="340" fill="white" transform="translate(6 24)"/>
</clipPath>
</defs>
</svg>
