<svg width="427" height="425" viewBox="0 0 427 425" fill="none" xmlns="http://www.w3.org/2000/svg">
<g clip-path="url(#clip0_2378_10158)">
<path d="M400.041 382.57C388.531 392.16 338.441 398.94 278.761 401.49C187.021 405.42 72.6009 399.37 40.7909 378.2C25.7309 368.19 15.5509 337.25 9.1009 297.66C-6.9291 199.16 0.220901 47.1301 13.1609 30.6501C31.3109 7.56009 323.301 -15.3099 399.911 13.9301C432.741 26.4601 429.231 358.23 400.031 382.57H400.041Z" fill="white"/>
<path d="M373.314 247.44L375.204 241.883L377.358 247.44C377.358 247.44 381.657 248.14 381.712 248.531C381.757 248.913 377.595 250.095 377.595 250.095C377.595 250.095 375.85 255.488 375.204 254.27C374.568 253.051 373.95 250.35 373.95 250.35C373.95 250.35 368.533 249.268 368.533 248.731C368.533 248.158 373.314 247.449 373.314 247.449V247.44Z" fill="white"/>
<path d="M304.094 233.142L305.566 228.822L307.238 233.142C307.238 233.142 310.574 233.688 310.619 233.988C310.656 234.279 307.429 235.198 307.429 235.198C307.429 235.198 306.075 239.381 305.575 238.435C305.075 237.49 304.594 235.389 304.594 235.389C304.594 235.389 300.395 234.543 300.395 234.134C300.395 233.688 304.103 233.142 304.103 233.142H304.094Z" fill="white"/>
<g clip-path="url(#clip1_2378_10158)">
<path d="M214.122 222.2L172.98 255.035L110.018 186.947L68.2227 214.458C68.2227 214.458 127.343 318.402 167.376 321.063C203.732 323.48 266.53 247.307 266.53 247.307" fill="white"/>
<path d="M169.124 321.806C168.517 321.806 167.919 321.786 167.33 321.747C150.518 320.63 128.617 302.268 102.235 267.173C82.6503 241.12 67.7698 215.057 67.6233 214.795C67.4441 214.481 67.5398 214.08 67.8431 213.881L109.639 186.37C109.922 186.185 110.296 186.23 110.526 186.478L173.053 254.094L213.692 221.66C213.991 221.422 214.423 221.473 214.661 221.768C214.899 222.064 214.85 222.497 214.553 222.734L173.411 255.569C173.128 255.794 172.719 255.764 172.472 255.498L109.907 187.841L69.1418 214.673C73.8971 222.885 129.72 317.866 167.42 320.372C203.005 322.764 265.37 247.626 265.995 246.866C266.238 246.572 266.671 246.529 266.966 246.771C267.261 247.012 267.302 247.445 267.062 247.739C266.905 247.93 251.101 267.033 231.054 285.592C205.085 309.632 184.265 321.804 169.124 321.804V321.806Z" fill="black"/>
<path d="M292.733 198.429C291.947 198.395 266.017 187.84 250.203 195.732C236.944 202.347 190.848 233.479 190.848 233.479L232.45 294.964L305.171 237.131L292.733 198.427V198.429Z" fill="url(#paint0_linear_2378_10158)"/>
<path d="M329.684 208.988C329.684 208.988 290.562 191.705 267.093 199.762C234.789 210.85 216.084 362.991 216.084 362.991C235.923 378.292 319.781 372.725 374.922 362.991C374.922 362.991 387.087 249.404 372.398 231.769C357.707 214.137 329.686 208.988 329.686 208.988H329.684Z" fill="url(#paint1_linear_2378_10158)"/>
<path d="M216.084 363.679C216.055 363.679 216.029 363.679 215.998 363.673C215.62 363.626 215.351 363.283 215.398 362.907C215.516 361.951 227.41 266.636 248.19 221.909C248.349 221.566 248.758 221.413 249.106 221.574C249.452 221.734 249.601 222.142 249.442 222.488C228.754 267.018 216.886 362.119 216.768 363.076C216.725 363.425 216.428 363.679 216.084 363.679Z" fill="black"/>
<path d="M309.582 175.019L297.867 201.36C297.867 201.36 295.455 213.034 309.132 215.877C322.81 218.72 334.594 209.983 334.594 209.983L347.911 176.993" fill="#FFBFBF"/>
<path d="M314.795 217.141C312.922 217.141 310.98 216.964 308.991 216.55C294.805 213.601 297.166 201.344 297.191 201.22C297.201 201.173 297.215 201.125 297.236 201.08L308.951 174.739C309.103 174.393 309.51 174.235 309.861 174.389C310.209 174.544 310.365 174.95 310.211 175.297L298.528 201.567C298.341 202.589 296.845 212.62 309.272 215.203C321.649 217.774 332.613 210.524 334.028 209.539L347.269 176.733C347.412 176.38 347.815 176.213 348.167 176.351C348.519 176.493 348.69 176.893 348.55 177.247L335.233 210.237C335.186 210.355 335.106 210.457 335.005 210.532C334.583 210.845 325.946 217.137 314.795 217.137V217.141Z" fill="black"/>
<path d="M315.388 188.188C315.388 188.188 309.523 191.415 303.018 191.161L308.463 177.657L315.388 188.188Z" fill="black"/>
<path d="M329.093 187.799C324.436 188.421 316.352 188.752 310.791 187.174C277.238 177.655 297.869 128.823 313.327 124.57C328.658 120.354 374.539 115.614 368.069 152.853C368.112 152.737 361.382 169.645 348.739 180.817" fill="#FFBFBF"/>
<path d="M320.963 189.01C317.358 189.01 313.621 188.693 310.602 187.836C298.582 184.426 291.992 175.429 292.043 162.5C292.112 145.129 303.901 126.451 313.143 123.908C322.458 121.347 349.472 117.265 362.429 128.989C368.442 134.43 370.568 142.499 368.748 152.971C368.738 153.024 368.723 153.074 368.703 153.123C367.966 154.921 361.308 170.63 349.196 181.333C348.911 181.583 348.475 181.558 348.223 181.274C347.97 180.99 347.997 180.555 348.282 180.303C360.064 169.891 366.598 154.618 367.402 152.662C369.112 142.721 367.127 135.099 361.503 130.009C349.006 118.701 322.622 122.728 313.509 125.234C304.711 127.655 293.491 145.688 293.423 162.506C293.389 171.176 296.406 182.379 310.979 186.512C316.674 188.129 324.986 187.651 329.002 187.117C329.381 187.068 329.727 187.332 329.778 187.708C329.829 188.086 329.562 188.431 329.185 188.482C326.863 188.793 323.96 189.01 320.965 189.01H320.963Z" fill="black"/>
<path d="M318.45 102.134C330.265 98.5274 341.919 107.695 342.047 110.27C342.047 110.27 362.13 107.236 367.101 114.322C372.072 121.408 368.63 132.026 368.63 132.026C368.63 132.026 392.638 142.124 384.256 162.384C378.479 176.349 361.615 181.315 345.752 181.315C348.331 178.364 354.519 174.353 357.098 171.404C358.444 169.864 352.431 168.268 352.199 166.101C351.893 163.248 344.952 166.408 342.717 165.549C339.022 164.129 346.126 156.667 342.888 154.397C339.649 152.124 337.223 148.062 338.342 144.272C338.859 142.526 340.042 140.542 338.955 139.079C337.933 137.702 335.826 138.09 334.141 138.417C326.594 139.884 311.563 135.954 306.804 129.932C302.045 123.91 298.739 114.095 301.929 107.116C304.882 100.654 320.53 97.8288 327.645 97.579C334.759 97.3292 341.929 101.968 344.105 108.731C350.132 103.576 358.957 102.187 366.531 104.561C374.106 106.936 380.355 112.793 383.899 119.881C386.228 124.54 387.464 129.956 386.163 134.999C384.581 141.122 379.067 146.037 372.791 146.917" fill="black"/>
<path d="M306.409 142.306C305.206 143.393 304.813 145.06 305.53 146.031C306.246 147.002 307.804 146.908 309.005 145.824C310.206 144.739 310.601 143.07 309.884 142.099C309.167 141.128 307.61 141.222 306.409 142.306Z" fill="#001018"/>
<path d="M319.083 150.579C317.88 151.665 317.487 153.333 318.204 154.303C318.92 155.274 320.477 155.181 321.678 154.096C322.881 153.01 323.274 151.342 322.558 150.371C321.841 149.401 320.284 149.494 319.083 150.579Z" fill="#001018"/>
<path d="M311.606 172.765C311.081 172.765 310.558 172.722 310.04 172.639C308.029 172.31 306.128 171.341 304.685 169.905C304.416 169.637 304.414 169.202 304.685 168.932C304.953 168.664 305.389 168.662 305.66 168.932C306.899 170.165 308.536 171 310.264 171.282C311.997 171.564 313.808 171.292 315.38 170.516C315.722 170.348 316.135 170.488 316.304 170.829C316.473 171.17 316.333 171.583 315.993 171.751C314.637 172.421 313.122 172.767 311.61 172.767L311.606 172.765Z" fill="black"/>
<path d="M305.006 164.911C304.856 164.911 304.703 164.862 304.577 164.76C303.726 164.08 302.761 163.31 302.081 162.295C301.277 161.094 301.031 159.695 301.424 158.55C301.768 157.546 302.549 156.809 303.178 156.218L311.205 148.657C311.482 148.397 311.919 148.409 312.18 148.685C312.443 148.962 312.428 149.396 312.152 149.658L304.125 157.221C303.58 157.735 302.963 158.316 302.729 158.998C302.474 159.74 302.659 160.686 303.225 161.533C303.787 162.372 304.626 163.042 305.436 163.69C305.733 163.928 305.782 164.36 305.544 164.657C305.408 164.827 305.208 164.915 305.004 164.915L305.006 164.911Z" fill="black"/>
<path d="M345.882 166.673C348.337 163.808 353.296 163.615 355.969 166.279C358.361 168.663 358.638 172.681 357.072 175.672C355.507 178.664 352.402 180.652 349.117 181.452C345.831 182.253 342.371 181.982 339.053 181.333" fill="#FFBFBF"/>
<path d="M344.77 182.639C342.995 182.639 341.069 182.43 338.922 182.009C338.547 181.936 338.305 181.575 338.378 181.201C338.452 180.829 338.808 180.583 339.188 180.659C343.083 181.418 346.185 181.461 348.955 180.784C352.304 179.968 355.111 177.937 356.463 175.354C357.979 172.456 357.568 168.843 355.484 166.765C354.346 165.63 352.666 165.012 350.873 165.089C349.082 165.158 347.453 165.9 346.409 167.12C346.163 167.409 345.727 167.443 345.438 167.195C345.149 166.95 345.114 166.515 345.363 166.227C346.657 164.716 348.646 163.8 350.822 163.714C352.996 163.637 355.052 164.387 356.461 165.792C358.961 168.282 359.476 172.571 357.688 175.989C356.133 178.963 353.071 181.197 349.285 182.121C347.87 182.466 346.384 182.639 344.772 182.639H344.77Z" fill="black"/>
<path d="M180.579 262.64C180.412 262.64 180.247 262.581 180.115 262.46L172.514 255.54C172.233 255.284 172.212 254.85 172.469 254.569C172.725 254.287 173.161 254.267 173.442 254.525L181.043 261.444C181.324 261.7 181.344 262.135 181.088 262.415C180.951 262.563 180.766 262.638 180.579 262.638V262.64Z" fill="black"/>
<path d="M208.643 96.5877L54.9414 130.837L96.6698 317.242L250.371 282.993L208.643 96.5877Z" fill="white"/>
<path d="M96.6668 317.933C96.5365 317.933 96.4083 317.896 96.2963 317.825C96.1416 317.728 96.0337 317.571 95.993 317.395L54.2687 130.988C54.228 130.81 54.2626 130.623 54.3603 130.471C54.458 130.316 54.6148 130.209 54.7919 130.168L208.494 95.9221C208.865 95.8388 209.235 96.0724 209.316 96.4441L251.043 282.85C251.083 283.029 251.051 283.216 250.951 283.368C250.853 283.523 250.699 283.63 250.52 283.671L96.8154 317.919C96.7665 317.931 96.7156 317.935 96.6647 317.935L96.6668 317.933ZM55.7649 131.36L97.1899 316.424L249.547 282.477L208.122 97.4128L55.7649 131.36Z" fill="black"/>
<path d="M219.284 144.128L65.582 178.377L87.3346 275.548L241.036 241.299L219.284 144.128Z" fill="#A0D2F4"/>
<path d="M87.3338 276.239C87.0183 276.239 86.7333 276.022 86.6621 275.701L64.9093 178.529C64.8686 178.35 64.9032 178.163 65.0009 178.011C65.0986 177.856 65.2554 177.749 65.4325 177.708L219.135 143.46C219.505 143.377 219.876 143.61 219.957 143.982L241.71 241.155C241.751 241.333 241.718 241.52 241.618 241.673C241.52 241.827 241.366 241.935 241.187 241.975L87.4845 276.223C87.4336 276.235 87.3827 276.239 87.3338 276.239ZM66.4055 178.9L87.857 274.73L240.214 240.783L218.762 144.953L66.4055 178.9Z" fill="black"/>
<path d="M88.2731 146.994C87.6095 147.142 87.0375 146.886 86.5591 146.23C86.3352 145.92 86.1418 145.743 85.979 145.708C85.8568 145.68 85.5596 145.719 85.0874 145.822C84.1591 146.029 83.2553 147.018 82.3759 148.791C81.1423 151.269 80.7311 153.424 81.1423 155.256C81.3296 156.091 81.7591 156.747 82.4309 157.224C83.1026 157.701 83.8151 157.858 84.5662 157.689C85.295 157.527 85.9912 157.163 86.6548 156.596C86.8869 156.391 87.3632 155.892 88.0838 155.096C88.5703 154.569 88.9591 154.273 89.2543 154.208C89.696 154.108 90.1092 154.194 90.494 154.462C90.8523 154.712 91.0762 155.041 91.1678 155.445C91.2696 155.898 91.1657 156.334 90.8563 156.757C89.2278 158.987 87.3632 160.335 85.2624 160.802C83.6034 161.172 82.0644 160.855 80.6395 159.854C79.2777 158.885 78.4146 157.583 78.0461 155.944C77.4721 153.379 77.9647 150.518 79.526 147.364C80.8532 144.687 82.4756 143.135 84.3912 142.709C84.7148 142.636 85.012 142.581 85.2787 142.546C85.5454 142.51 85.7835 142.493 85.9932 142.496C86.2436 142.095 86.5978 141.842 87.0538 141.74C87.807 141.573 88.3708 141.917 88.7474 142.774C89.0161 143.389 89.2482 144.126 89.4395 144.983C89.525 145.367 89.4965 145.739 89.352 146.1C89.1647 146.578 88.8064 146.874 88.2751 146.992L88.2731 146.994Z" fill="black"/>
<path d="M101.66 157.594C99.4773 158.082 97.4743 157.842 95.6504 156.883C93.7023 155.854 92.4788 154.233 91.9842 152.017C91.402 149.414 91.6544 146.863 92.7435 144.369C93.9649 141.564 95.9129 139.862 98.5878 139.267C101.159 138.694 103.225 138.877 104.78 139.817C106.337 140.756 107.39 142.456 107.941 144.915C108.524 147.521 108.33 150.039 107.359 152.476C106.242 155.291 104.34 156.997 101.657 157.594H101.66ZM99.288 142.38C97.6432 142.746 96.4219 143.887 95.6219 145.802C94.8687 147.596 94.7038 149.434 95.1272 151.317C95.4122 152.59 96.1185 153.516 97.2463 154.103C98.3313 154.666 99.571 154.789 100.963 154.481C102.584 154.119 103.752 152.992 104.465 151.095C105.122 149.365 105.236 147.539 104.805 145.616C104.444 144.007 103.848 142.965 103.015 142.492C102.217 142.043 100.976 142.005 99.288 142.382V142.38Z" fill="black"/>
<path d="M127.732 148.083C127.818 148.467 127.891 149.084 127.952 149.939C128.025 150.961 127.598 151.574 126.67 151.781C126.153 151.897 125.503 151.724 124.719 151.263C121.287 149.238 117.251 146.225 112.61 142.224C113.011 144.226 113.263 145.453 113.365 145.904C113.501 146.509 113.717 147.417 114.016 148.629C114.315 149.842 114.531 150.75 114.668 151.355C115.172 153.615 114.896 154.862 113.835 155.1C113.298 155.22 112.827 155.142 112.426 154.87C112.07 154.629 111.844 154.289 111.746 153.851C111.679 153.544 111.598 153.077 111.508 152.445C111.417 151.814 111.337 151.345 111.268 151.038C111.166 150.585 111.03 149.905 110.857 148.995C110.684 148.085 110.547 147.405 110.446 146.952C110.338 146.468 110.165 145.745 109.925 144.777C109.684 143.81 109.511 143.085 109.403 142.601C109.3 142.142 109.102 141.466 108.811 140.572C108.518 139.681 108.32 139.007 108.217 138.546C108.115 138.085 108.213 137.634 108.512 137.189C108.811 136.744 109.204 136.468 109.69 136.358C110.236 136.236 110.951 136.592 111.834 137.424C116.29 141.643 120.498 144.955 124.457 147.364C124.41 147.118 124.284 146.533 124.076 145.615C123.231 141.84 122.623 139.301 122.254 137.999C122.189 137.78 122.049 137.378 121.833 136.791C121.64 136.271 121.509 135.857 121.44 135.55C121.204 134.494 121.623 133.844 122.7 133.604C123.901 133.336 124.933 135.13 125.794 138.982C125.813 139.068 125.941 139.673 126.179 140.804C127.006 144.705 127.525 147.13 127.738 148.081L127.732 148.083Z" fill="black"/>
<path d="M140.536 133.733C139.96 133.861 139.056 134.019 137.821 134.206C136.63 134.383 135.726 134.543 135.109 134.689C135.333 135.557 135.783 137.088 136.453 139.287C137.049 141.229 137.477 142.775 137.735 143.924C137.792 144.184 137.906 144.566 138.071 145.067C138.238 145.569 138.35 145.951 138.409 146.211C138.537 146.786 138.535 147.33 138.403 147.842C138.234 148.5 137.867 148.89 137.308 149.016C136.903 149.105 136.516 149.052 136.145 148.851C135.732 148.63 135.476 148.293 135.374 147.842C135.349 147.734 135.331 147.568 135.319 147.342C135.307 147.117 135.288 146.944 135.262 146.83C135.182 146.477 135.04 145.951 134.832 145.248C134.625 144.548 134.48 144.015 134.401 143.656C134.171 142.628 133.782 141.257 133.234 139.537C132.607 137.563 132.192 136.194 131.993 135.435L131.417 135.563C129.772 135.928 128.44 136.097 127.421 136.066C126.555 136.042 126.034 135.632 125.857 134.836C125.77 134.444 125.823 134.064 126.018 133.69C126.244 133.245 126.61 132.987 127.121 132.914C127.382 132.872 127.982 132.807 128.923 132.717C129.672 132.64 130.27 132.551 130.72 132.449C131.17 132.35 131.842 132.193 132.734 131.976C133.625 131.761 134.297 131.604 134.747 131.503C135.307 131.377 136.156 131.231 137.295 131.062C138.433 130.894 139.282 130.745 139.844 130.621C140.286 130.522 140.691 130.591 141.055 130.822C141.422 131.054 141.652 131.389 141.749 131.826C141.847 132.262 141.78 132.667 141.55 133.034C141.32 133.402 140.982 133.635 140.54 133.735L140.536 133.733Z" fill="black"/>
<path d="M154.008 129.729C153.861 129.762 153.701 129.774 153.528 129.764C152.257 129.693 151.06 129.782 149.933 130.034C149.381 130.158 148.797 130.334 148.184 130.568C147.569 130.802 146.926 131.09 146.254 131.431C146.482 132.451 146.788 133.972 147.17 135.993C147.575 135.871 148.984 135.408 151.398 134.605C152.774 134.146 153.65 133.874 154.024 133.791C154.458 133.694 154.863 133.755 155.237 133.974C155.612 134.193 155.85 134.538 155.958 135.014C156.162 135.926 155.81 136.547 154.902 136.878C154.321 137.055 153.458 137.329 152.31 137.697C151.29 138.052 149.747 138.554 147.679 139.199C147.844 140.184 147.995 140.975 148.129 141.572C148.465 143.072 148.74 143.909 148.958 144.078C149.061 144.159 149.538 144.106 150.385 143.917C150.841 143.816 151.529 143.649 152.445 143.422C153.361 143.194 154.047 143.028 154.505 142.926C154.651 142.894 154.865 142.823 155.142 142.711C155.419 142.601 155.628 142.53 155.767 142.5C156.194 142.404 156.587 142.451 156.945 142.636C157.355 142.843 157.617 143.202 157.733 143.716C157.925 144.573 157.609 145.183 156.785 145.544C156.08 145.855 154.568 146.267 152.245 146.785C149.843 147.321 148.202 147.333 147.321 146.822C146.352 146.257 145.589 144.74 145.037 142.264C144.807 141.237 144.534 139.681 144.217 137.591C143.899 135.501 143.626 133.949 143.398 132.93C143.339 132.662 143.213 132.272 143.022 131.764C142.83 131.256 142.704 130.867 142.645 130.598C142.385 129.435 142.771 128.738 143.801 128.507C144.125 128.433 144.445 128.464 144.76 128.594C145.566 128.182 146.34 127.834 147.085 127.55C147.83 127.268 148.546 127.05 149.23 126.896C151.087 126.482 152.622 126.374 153.835 126.571C154.572 126.689 155.02 127.099 155.178 127.804C155.268 128.204 155.215 128.584 155.018 128.949C154.802 129.368 154.464 129.628 154.008 129.729Z" fill="black"/>
<path d="M176.03 137.321C176.115 137.705 176.189 138.322 176.25 139.179C176.323 140.201 175.896 140.814 174.967 141.021C174.45 141.137 173.801 140.964 173.017 140.503C169.585 138.478 165.548 135.464 160.909 131.464C161.31 133.466 161.563 134.693 161.662 135.144C161.797 135.749 162.015 136.657 162.314 137.869C162.613 139.082 162.829 139.989 162.965 140.595C163.47 142.855 163.193 144.102 162.133 144.34C161.595 144.46 161.125 144.384 160.724 144.112C160.368 143.869 160.142 143.531 160.044 143.093C159.975 142.786 159.895 142.317 159.806 141.687C159.714 141.056 159.635 140.587 159.566 140.28C159.464 139.827 159.328 139.147 159.155 138.237C158.981 137.327 158.845 136.644 158.743 136.194C158.635 135.71 158.462 134.987 158.222 134.018C157.984 133.05 157.809 132.325 157.701 131.843C157.597 131.384 157.4 130.708 157.109 129.816C156.816 128.925 156.618 128.249 156.516 127.79C156.413 127.329 156.512 126.878 156.812 126.433C157.111 125.988 157.504 125.712 157.99 125.604C158.536 125.482 159.248 125.838 160.132 126.671C164.588 130.889 168.797 134.203 172.755 136.61C172.708 136.362 172.582 135.779 172.376 134.861C171.529 131.086 170.922 128.547 170.554 127.245C170.489 127.026 170.348 126.624 170.133 126.037C169.939 125.517 169.807 125.105 169.738 124.798C169.502 123.742 169.921 123.092 170.998 122.852C172.199 122.584 173.231 124.378 174.094 128.23C174.112 128.316 174.241 128.923 174.479 130.052C175.305 133.953 175.826 136.378 176.038 137.329L176.03 137.321Z" fill="black"/>
<path d="M188.833 122.97C188.257 123.098 187.353 123.257 186.118 123.444C184.927 123.62 184.023 123.781 183.406 123.927C183.63 124.794 184.078 126.325 184.75 128.525C185.346 130.467 185.774 132.012 186.032 133.162C186.089 133.422 186.203 133.803 186.368 134.305C186.535 134.807 186.647 135.189 186.706 135.449C186.834 136.023 186.832 136.566 186.7 137.079C186.531 137.737 186.164 138.127 185.605 138.253C185.2 138.345 184.813 138.29 184.442 138.091C184.029 137.869 183.773 137.532 183.671 137.081C183.646 136.974 183.628 136.807 183.618 136.582C183.606 136.354 183.587 136.184 183.561 136.07C183.481 135.717 183.339 135.191 183.131 134.488C182.924 133.787 182.779 133.255 182.7 132.896C182.47 131.87 182.081 130.497 181.533 128.777C180.906 126.803 180.491 125.434 180.29 124.674L179.714 124.802C178.071 125.168 176.737 125.336 175.718 125.306C174.854 125.282 174.331 124.871 174.152 124.075C174.065 123.683 174.118 123.303 174.313 122.93C174.539 122.485 174.905 122.227 175.416 122.154C175.677 122.111 176.277 122.046 177.218 121.957C177.967 121.88 178.565 121.788 179.015 121.689C179.465 121.589 180.137 121.433 181.029 121.216C181.92 121 182.592 120.844 183.042 120.742C183.602 120.617 184.45 120.47 185.59 120.302C186.728 120.133 187.577 119.985 188.139 119.861C188.581 119.761 188.984 119.829 189.35 120.062C189.715 120.294 189.947 120.629 190.044 121.065C190.142 121.502 190.077 121.904 189.845 122.274C189.615 122.643 189.277 122.877 188.835 122.974L188.833 122.97Z" fill="black"/>
<path d="M174.147 211.111L155.952 231.215C152.076 235.498 144.97 233.632 143.708 228L136.864 197.424C135.604 191.792 141.239 187.087 146.574 189.319L171.612 199.79C176.142 201.685 177.438 207.475 174.147 211.111Z" fill="white"/>
<path d="M150.726 234.259C150.048 234.259 149.36 234.172 148.674 233.991C145.793 233.234 143.684 231.051 143.035 228.15L136.191 197.574C135.542 194.672 136.519 191.803 138.803 189.895C141.089 187.988 144.091 187.536 146.84 188.685L171.878 199.157C174.245 200.146 175.925 202.148 176.484 204.648C177.044 207.148 176.379 209.673 174.656 211.572L156.462 231.676C154.941 233.358 152.887 234.259 150.724 234.259H150.726ZM143.786 189.439C142.318 189.439 140.885 189.952 139.69 190.952C137.81 192.522 137.003 194.888 137.539 197.276L144.383 227.852C144.918 230.24 146.654 232.04 149.026 232.661C151.397 233.285 153.797 232.572 155.442 230.754L173.637 210.65C175.053 209.084 175.601 207.006 175.141 204.947C174.681 202.887 173.299 201.24 171.347 200.424L146.308 189.952C145.482 189.607 144.629 189.439 143.786 189.439Z" fill="black"/>
<path d="M139.259 281.633C138.943 281.633 138.658 281.416 138.587 281.095C138.504 280.724 138.738 280.356 139.11 280.275L221.478 261.921C221.848 261.838 222.219 262.071 222.3 262.443C222.384 262.815 222.15 263.182 221.777 263.264L139.41 281.615C139.359 281.627 139.308 281.631 139.259 281.631V281.633Z" fill="black"/>
<path d="M141.284 291.063C140.969 291.063 140.684 290.846 140.613 290.525C140.529 290.153 140.763 289.785 141.136 289.704L188.476 279.156C188.849 279.072 189.217 279.306 189.299 279.677C189.382 280.049 189.148 280.417 188.776 280.498L141.435 291.047C141.384 291.059 141.333 291.063 141.284 291.063Z" fill="black"/>
<path d="M120.351 302C126.786 302 132.003 296.796 132.003 290.375C132.003 283.955 126.786 278.75 120.351 278.75C113.916 278.75 108.699 283.955 108.699 290.375C108.699 296.796 113.916 302 120.351 302Z" fill="#C5E2F9"/>
<path d="M120.35 302.689C113.545 302.689 108.008 297.165 108.008 290.375C108.008 283.586 113.545 278.062 120.35 278.062C127.155 278.062 132.692 283.586 132.692 290.375C132.692 297.165 127.155 302.689 120.35 302.689ZM120.35 279.439C114.306 279.439 109.386 284.345 109.386 290.377C109.386 296.409 114.304 301.316 120.35 301.316C126.396 301.316 131.314 296.409 131.314 290.377C131.314 284.345 126.396 279.439 120.35 279.439Z" fill="black"/>
<path d="M76.4155 230.33C80.0003 231.273 87.8171 228.161 89.126 224.548C91.011 219.345 87.0721 214.574 87.0721 214.574C87.0721 214.574 92.096 213.185 91.07 207.565C90.4675 204.261 87.4181 204.095 87.4181 204.095C87.4181 204.095 90.952 200.459 89.6308 196.74C87.8537 191.765 81.4069 193.727 80.8899 193.871C81.354 193.68 86.9682 190.8 85.3764 186.947C83.9107 183.409 72.3036 179.368 65.1178 186.947C61.1626 191.121 69.0527 228.397 76.4176 230.332L76.4155 230.33Z" fill="#FFBFBF"/>
<path d="M77.8932 231.187C77.2887 231.187 76.7309 231.126 76.2403 230.996C72.1019 229.907 68.7146 220.057 67.0637 214.283C64.3726 204.866 61.7324 189.514 64.6148 186.472C68.0917 182.806 73.1238 181.262 78.4306 182.241C82.0907 182.915 85.2093 184.741 86.0134 186.681C86.7869 188.553 86.223 190.487 84.3849 192.272C84.2363 192.416 84.0836 192.554 83.9309 192.686C86.3106 192.599 89.1279 193.277 90.28 196.506C91.3284 199.455 89.6999 202.274 88.6617 203.67C89.8953 204.124 91.3406 205.219 91.7457 207.441C92.5884 212.063 89.6755 214.127 88.1406 214.878C89.2073 216.481 91.3406 220.453 89.7732 224.781C88.5253 228.226 82.1029 231.185 77.8912 231.185L77.8932 231.187ZM76.5904 229.666C79.878 230.531 87.2938 227.58 88.4765 224.314C90.2007 219.552 86.5752 215.055 86.5365 215.01C86.39 214.83 86.3411 214.588 86.4123 214.367C86.4836 214.145 86.6607 213.973 86.8846 213.912C87.0638 213.861 91.2856 212.604 90.39 207.689C89.8953 204.98 87.477 204.789 87.3752 204.783C87.1065 204.764 86.8724 204.594 86.7767 204.344C86.6811 204.094 86.736 203.812 86.9213 203.619C86.9538 203.584 90.1396 200.237 88.9793 196.974C87.5686 193.025 82.6078 194.1 81.1197 194.522C80.7655 194.622 80.3767 194.437 80.2566 194.094C80.1365 193.748 80.2851 193.377 80.623 193.239C80.8368 193.151 82.2576 192.42 83.4179 191.293C84.8388 189.914 85.2805 188.541 84.733 187.213C84.2098 185.952 81.7345 184.258 78.1742 183.6C75.8881 183.179 70.0846 182.704 65.6123 187.422C63.6825 189.457 65.0036 202.083 68.3848 213.91C70.9782 222.982 74.1192 229.02 76.5864 229.67L76.5904 229.666Z" fill="black"/>
<path d="M72.5494 196.83C72.2461 196.83 71.9672 196.629 71.8837 196.324C71.784 195.957 71.9997 195.579 72.3682 195.48L80.7082 193.207C81.0746 193.107 81.4552 193.323 81.555 193.69C81.6547 194.058 81.439 194.436 81.0705 194.535L72.7305 196.808C72.6695 196.824 72.6084 196.832 72.5494 196.832V196.83Z" fill="black"/>
<path d="M76.3859 207.236C76.0704 207.236 75.7854 207.019 75.7141 206.698C75.6307 206.326 75.8648 205.959 76.2373 205.877L87.2684 203.424C87.6409 203.341 88.0093 203.574 88.0908 203.946C88.1742 204.318 87.9401 204.685 87.5676 204.767L76.5365 207.22C76.4857 207.232 76.4348 207.236 76.3859 207.236Z" fill="black"/>
<path d="M77.4908 216.913C77.1611 216.913 76.87 216.678 76.813 216.343C76.7478 215.969 77.0003 215.611 77.3748 215.548L86.9545 213.899C87.3311 213.836 87.6873 214.086 87.7504 214.46C87.8156 214.834 87.5631 215.191 87.1886 215.254L77.6089 216.903C77.5682 216.909 77.5295 216.913 77.4908 216.913Z" fill="black"/>
<path d="M352.596 216.984C352.596 216.984 383.412 227.379 393.622 247.089C403.833 266.799 406.001 298.706 406.001 298.706L342.319 296.736C342.319 296.736 338.685 256.407 341.28 242.306C343.876 228.205 352.596 216.986 352.596 216.986V216.984Z" fill="url(#paint2_linear_2378_10158)"/>
<path d="M404.848 299.355H404.825L342.297 297.42C341.916 297.408 341.617 297.091 341.629 296.711C341.641 296.331 341.945 296.025 342.34 296.045L404.868 297.98C405.249 297.993 405.548 298.309 405.536 298.689C405.524 299.061 405.218 299.355 404.848 299.355Z" fill="black"/>
<path d="M342.316 297.42C341.964 297.42 341.663 297.152 341.63 296.794C341.602 296.471 338.734 264.287 339.965 247.521C339.994 247.144 340.311 246.857 340.704 246.886C341.085 246.914 341.37 247.243 341.341 247.623C340.118 264.277 342.976 296.349 343.005 296.672C343.039 297.052 342.758 297.385 342.38 297.42C342.359 297.42 342.337 297.422 342.316 297.422V297.42Z" fill="black"/>
<path d="M287.623 244.76C287.623 244.76 269.697 219.887 261.133 222.373C252.57 224.861 266.074 239.571 266.074 239.571L281.335 242.747" fill="#FFBFBF"/>
<path d="M287.623 245.449C287.407 245.449 287.197 245.349 287.063 245.162C282.155 238.354 267.969 221.12 261.326 223.035C260.095 223.393 259.366 224.028 259.1 224.977C258.067 228.655 263.908 236.147 266.436 238.945L281.477 242.077C281.85 242.154 282.09 242.518 282.011 242.892C281.933 243.263 281.565 243.501 281.194 243.424L265.933 240.247C265.793 240.219 265.662 240.146 265.565 240.038C265.186 239.626 256.294 229.861 257.768 224.607C258.169 223.183 259.234 222.211 260.94 221.715C269.872 219.113 287.438 243.328 288.181 244.36C288.402 244.669 288.333 245.099 288.024 245.321C287.902 245.408 287.761 245.451 287.621 245.451L287.623 245.449Z" fill="black"/>
<path d="M287.112 235.486L283.478 214.364L213.604 232.815L218.114 248.781L287.112 235.486Z" fill="#383838"/>
<path d="M218.114 249.467C217.811 249.467 217.536 249.266 217.45 248.966L212.939 233.003C212.89 232.826 212.913 232.635 213.004 232.474C213.096 232.314 213.249 232.198 213.426 232.152L283.299 213.7C283.484 213.652 283.686 213.682 283.848 213.786C284.011 213.891 284.123 214.058 284.156 214.249L287.789 235.371C287.852 235.74 287.608 236.092 287.24 236.163L218.242 249.455C218.197 249.463 218.155 249.467 218.11 249.467H218.114ZM214.458 233.303L218.606 247.985L286.32 234.94L282.926 215.222L214.458 233.303Z" fill="black"/>
<path d="M218.29 248.635L213.779 232.67L207.693 240.406L203.127 246.216L210.386 247.374L218.29 248.635Z" fill="#FFBFBF"/>
<path d="M218.29 249.322C218.253 249.322 218.216 249.319 218.18 249.313L203.018 246.895C202.778 246.856 202.575 246.693 202.485 246.466C202.396 246.239 202.434 245.983 202.585 245.79L213.235 232.243C213.396 232.04 213.655 231.941 213.911 231.993C214.166 232.044 214.371 232.233 214.44 232.483L218.951 248.446C219.014 248.672 218.959 248.915 218.803 249.09C218.67 249.238 218.483 249.319 218.288 249.319L218.29 249.322ZM204.393 245.721L217.333 247.784L213.484 234.161L204.395 245.721H204.393Z" fill="black"/>
<path d="M210.386 247.373L207.693 240.405L203.127 246.216L210.386 247.373Z" fill="black"/>
<path d="M297.276 233.578L294.229 211.93L283.479 214.365L287.112 235.487L297.276 233.578Z" fill="#FFBFBF"/>
<path d="M287.112 236.175C286.974 236.175 286.836 236.132 286.719 236.051C286.567 235.945 286.465 235.785 286.432 235.602L282.799 214.48C282.738 214.121 282.968 213.773 283.326 213.692L294.076 211.259C294.264 211.217 294.461 211.255 294.622 211.365C294.781 211.474 294.886 211.645 294.913 211.836L297.96 233.482C298.011 233.845 297.767 234.184 297.405 234.254L287.243 236.165C287.2 236.173 287.157 236.177 287.114 236.177L287.112 236.175ZM284.269 214.89L287.674 234.68L296.501 233.021L293.651 212.766L284.269 214.89Z" fill="black"/>
<path d="M275.694 238.433C273.583 237.345 271.419 236.611 269.296 236.467C258.135 235.704 234.3 241.118 232.022 245.176C229.738 249.236 235.924 250.255 235.924 250.255C235.924 250.255 230.929 252.01 232.303 254.973C233.677 257.936 239.14 257.276 239.14 257.276C239.14 257.276 232.606 260.012 234.139 263.095C234.973 264.779 237.612 266.058 238.813 266.135C237.793 267.374 235.908 271.077 238.636 273.696C242.045 276.972 264.956 273.826 264.956 273.826C264.956 273.826 322.448 398.199 373.174 378.128C403.574 366.098 399.737 298.669 399.737 298.669L347.955 296.603L348.553 314.143C348.553 314.143 293.168 249.169 287.13 244.091" fill="#FFBFBF"/>
<path d="M361.745 380.999C353.167 380.999 344.035 377.611 334.466 370.858C323.325 362.997 311.555 350.563 299.484 333.905C280.332 307.477 266.427 278.556 264.546 274.573C260.579 275.097 241.523 277.425 238.156 274.19C235.534 271.671 236.599 268.385 237.666 266.584C236.174 266.094 234.264 264.902 233.519 263.399C233.153 262.662 233.114 261.888 233.407 261.102C233.885 259.821 235.186 258.732 236.402 257.95C234.633 257.753 232.53 257.109 231.675 255.263C231.292 254.439 231.27 253.616 231.608 252.818C232.053 251.764 233.077 250.96 233.989 250.421C232.919 250.007 231.669 249.298 231.115 248.149C230.639 247.158 230.74 246.045 231.416 244.842C233.951 240.328 258.447 235.033 269.34 235.782C271.416 235.925 273.66 236.611 276.009 237.825C276.347 238 276.479 238.414 276.304 238.754C276.129 239.091 275.716 239.223 275.374 239.048C273.193 237.923 271.131 237.285 269.244 237.157C257.487 236.351 234.539 242.095 232.617 245.517C232.167 246.317 232.082 246.983 232.355 247.554C232.959 248.815 235.213 249.445 236.031 249.583C236.34 249.633 236.577 249.889 236.605 250.202C236.634 250.515 236.444 250.805 236.149 250.911C235.416 251.169 233.401 252.115 232.876 253.36C232.693 253.791 232.709 254.227 232.925 254.69C233.879 256.748 237.672 256.766 239.054 256.6C239.39 256.557 239.715 256.774 239.803 257.105C239.893 257.436 239.722 257.784 239.404 257.916C238.303 258.377 235.314 259.936 234.7 261.588C234.541 262.014 234.557 262.398 234.755 262.792C235.463 264.222 237.871 265.387 238.854 265.45C239.113 265.467 239.341 265.627 239.443 265.863C239.547 266.098 239.508 266.374 239.343 266.573C239.31 266.612 236.271 270.473 239.111 273.203C241.436 275.437 255.785 274.393 264.86 273.148C265.161 273.101 265.452 273.265 265.58 273.542C265.723 273.852 280.17 304.916 300.609 333.119C312.589 349.649 324.251 361.973 335.266 369.745C348.911 379.372 361.578 381.978 372.915 377.492C400.964 366.392 399.35 306.155 399.073 299.335L348.664 297.322L349.238 314.12C349.249 314.412 349.072 314.68 348.799 314.786C348.524 314.892 348.215 314.815 348.025 314.589C347.472 313.939 292.609 249.601 286.682 244.619C286.39 244.375 286.354 243.941 286.598 243.65C286.844 243.36 287.278 243.321 287.569 243.567C293.141 248.252 339.256 302.194 347.791 312.197L347.26 296.629C347.254 296.439 347.327 296.254 347.463 296.118C347.6 295.984 347.789 295.906 347.976 295.919L399.759 297.986C400.113 298 400.4 298.281 400.42 298.634C400.43 298.803 401.351 315.775 398.531 333.997C394.775 358.275 386.091 373.759 373.422 378.771C369.656 380.26 365.758 381.005 361.739 381.005L361.745 380.999Z" fill="black"/>
<path d="M356.58 323.347C356.397 323.347 356.214 323.274 356.077 323.13L348.049 314.612C347.788 314.336 347.8 313.899 348.079 313.639C348.358 313.379 348.792 313.391 349.054 313.67L357.083 322.187C357.343 322.464 357.329 322.9 357.052 323.16C356.918 323.286 356.749 323.347 356.58 323.347Z" fill="black"/>
<path d="M235.92 250.944C235.608 250.944 235.327 250.733 235.25 250.418C235.16 250.048 235.388 249.677 235.759 249.587L248.03 246.636C248.4 246.551 248.773 246.774 248.862 247.144C248.952 247.514 248.724 247.885 248.353 247.975L236.083 250.926C236.028 250.938 235.975 250.944 235.92 250.944Z" fill="black"/>
<path d="M239.137 257.963C238.815 257.963 238.526 257.738 238.461 257.411C238.386 257.037 238.628 256.675 239.002 256.6L250.235 254.358C250.61 254.281 250.972 254.525 251.047 254.898C251.123 255.272 250.88 255.633 250.506 255.709L239.273 257.951C239.228 257.961 239.182 257.965 239.137 257.965V257.963Z" fill="black"/>
<path d="M238.811 266.822C238.497 266.822 238.214 266.607 238.139 266.29C238.053 265.92 238.283 265.551 238.656 265.464L250.047 262.827C250.414 262.742 250.788 262.972 250.876 263.343C250.961 263.713 250.731 264.082 250.359 264.17L238.967 266.806C238.917 266.818 238.864 266.824 238.811 266.824V266.822Z" fill="black"/>
<path d="M285.49 120.19L272.637 140.649C272.533 140.816 272.419 140.976 272.295 141.125C270.735 143.072 267.924 143.582 265.76 142.228L233.852 122.276C231.682 120.919 230.917 118.173 231.993 115.925V115.921C232.077 115.746 232.168 115.577 232.272 115.411L245.125 94.9512C245.274 94.7156 245.437 94.4942 245.62 94.2911C247.208 92.5019 249.907 92.0632 252.006 93.3752L283.914 113.327C286.009 114.637 286.79 117.251 285.868 119.459C285.765 119.71 285.636 119.954 285.488 120.19H285.49Z" fill="#99B9FF"/>
<path d="M268.411 143.678C267.377 143.678 266.331 143.396 265.394 142.811L233.486 122.859C231.039 121.327 230.129 118.22 231.373 115.627C231.462 115.432 231.57 115.237 231.69 115.046L244.543 94.586C244.718 94.3078 244.908 94.0539 245.109 93.8305C246.954 91.7529 250.009 91.3142 252.375 92.7927L284.283 112.747C286.644 114.223 287.581 117.158 286.506 119.725C286.394 119.999 286.247 120.282 286.074 120.558L273.221 141.02C273.099 141.212 272.969 141.397 272.826 141.568C271.723 142.947 270.08 143.68 268.411 143.68V143.678ZM249.354 93.2984C248.159 93.2984 246.982 93.796 246.139 94.7485C245.987 94.9191 245.848 95.1019 245.714 95.3172L232.861 115.779C232.773 115.917 232.694 116.059 232.629 116.205C232.621 116.226 232.607 116.25 232.596 116.268C231.68 118.186 232.37 120.537 234.223 121.695L266.131 141.647C267.98 142.805 270.4 142.397 271.762 140.699C271.874 140.565 271.969 140.429 272.057 140.288L284.91 119.827C285.044 119.615 285.15 119.412 285.236 119.203C286.05 117.253 285.342 115.034 283.554 113.915L251.646 93.9605C250.935 93.5157 250.141 93.3005 249.358 93.3005L249.354 93.2984Z" fill="black"/>
<path d="M231.996 115.923L232 115.919L251.833 113.23L262.677 111.762L266.075 122.142L272.297 141.127" fill="#99B9FF"/>
<path d="M272.297 141.815C272.006 141.815 271.737 141.63 271.642 141.34L262.198 112.521L232.12 116.595C231.904 116.636 231.674 116.571 231.509 116.406C231.24 116.138 231.238 115.703 231.507 115.435L231.511 115.431C231.617 115.326 231.755 115.257 231.906 115.236L262.581 111.081C262.913 111.038 263.226 111.233 263.33 111.55L272.953 140.914C273.071 141.275 272.873 141.663 272.511 141.781C272.44 141.805 272.368 141.815 272.297 141.815Z" fill="black"/>
<path d="M285.869 119.457L266.073 122.139L259.134 123.084C256.878 123.384 254.72 122.04 254.01 119.879L251.834 113.23L245.623 94.2891" fill="#99B9FF"/>
<path d="M258.505 123.815C256.188 123.815 254.091 122.337 253.357 120.095L244.968 94.5046C244.85 94.1431 245.047 93.7552 245.41 93.6374C245.772 93.5176 246.161 93.7166 246.279 94.0781L254.668 119.668C255.272 121.51 257.102 122.664 259.044 122.404L285.778 118.776C286.159 118.73 286.503 118.99 286.554 119.365C286.605 119.743 286.34 120.088 285.963 120.139L259.227 123.766C258.985 123.799 258.743 123.813 258.505 123.813V123.815Z" fill="black"/>
<path d="M160.318 49.9112L167.182 80.5744C168.141 84.8617 165.436 89.1125 161.14 90.0711L148.033 92.9916C147.145 93.1886 146.384 93.7613 145.948 94.5575L141.751 102.234C141.108 103.412 139.571 103.756 138.486 102.962L131.42 97.7968C130.685 97.2607 129.755 97.0657 128.866 97.2627L115.758 100.183C111.461 101.14 107.2 98.4406 106.239 94.1553L99.3753 63.4921C98.4145 59.2007 101.122 54.954 105.417 53.9954L150.799 43.8834C155.095 42.9268 159.357 45.6198 160.318 49.9112Z" fill="white"/>
<path d="M139.797 104.077C139.184 104.077 138.579 103.884 138.074 103.514L131.009 98.3493C130.433 97.9289 129.706 97.7766 129.012 97.9329L115.904 100.853C111.247 101.893 106.604 98.9545 105.563 94.3036L98.6993 63.6404C97.6591 58.9916 100.603 54.3631 105.264 53.3232L150.649 43.2112C152.906 42.7055 155.225 43.1117 157.177 44.3465C159.131 45.5833 160.485 47.5066 160.99 49.761L167.852 80.4242C168.892 85.075 165.948 89.7036 161.287 90.7414L148.179 93.6619C147.485 93.8162 146.891 94.263 146.551 94.8845L142.353 102.561C141.95 103.297 141.25 103.825 140.43 104.005C140.22 104.052 140.006 104.075 139.795 104.075L139.797 104.077ZM129.551 96.4971C130.361 96.4971 131.159 96.753 131.825 97.2404L138.889 102.405C139.245 102.665 139.699 102.758 140.128 102.663C140.56 102.568 140.928 102.289 141.142 101.903L145.34 94.2285C145.871 93.2577 146.797 92.5611 147.878 92.3214L160.985 89.4009C164.904 88.5276 167.379 84.6363 166.504 80.7268L159.642 50.0636C159.216 48.1687 158.079 46.5521 156.436 45.5122C154.793 44.4724 152.843 44.1352 150.946 44.5577L105.565 54.6698C101.647 55.5431 99.1695 59.4344 100.045 63.3439L106.909 94.0071C107.332 95.902 108.472 97.5166 110.113 98.5564C111.756 99.5963 113.706 99.9355 115.603 99.513L128.711 96.5925C128.989 96.5296 129.27 96.4991 129.549 96.4991L129.551 96.4971Z" fill="black"/>
<path d="M145.282 76.2408L142.023 76.9578C140.989 77.1873 140.397 76.9659 140.246 76.2875C140.075 75.5259 140.566 75.0162 141.72 74.7582C141.83 74.7339 141.95 74.7115 142.082 74.6872L140.388 67.126C139.99 67.5728 139.719 67.8124 139.576 67.8449C139.271 67.9119 138.978 67.8591 138.701 67.6824C138.424 67.5057 138.251 67.2661 138.184 66.9655C138.115 66.6527 138.227 66.2912 138.518 65.879L139.287 64.9732L140.101 63.915C140.443 63.517 140.806 63.2753 141.188 63.19C141.681 63.0803 141.997 63.3322 142.133 63.9475C142.284 64.6238 142.469 65.5824 142.691 66.8213C142.911 68.0622 143.275 69.821 143.786 72.0997L144.248 74.1632L144.79 74.0434C145.105 73.9723 145.396 74.019 145.659 74.1815C145.921 74.3419 146.088 74.5816 146.157 74.8923C146.227 75.2051 146.178 75.4894 146.009 75.7493C145.84 76.0073 145.598 76.1718 145.28 76.2429L145.282 76.2408Z" fill="black"/>
<path d="M151.184 70.9499L151.98 74.5406C152.034 74.7904 152.018 75.0362 151.929 75.2779C151.802 75.6089 151.556 75.8181 151.19 75.8993C150.758 75.9968 150.38 75.8892 150.052 75.5805C149.797 75.3388 149.634 75.0565 149.561 74.7315C149.278 73.4703 148.891 71.5653 148.403 69.0185C147.912 66.4717 147.528 64.5687 147.245 63.3054C147.173 62.9886 147.222 62.6901 147.389 62.4139C147.556 62.1376 147.804 61.963 148.132 61.8899C148.46 61.8168 148.757 61.8696 149.024 62.0483C149.29 62.229 149.459 62.4768 149.531 62.7957C149.645 63.3075 149.775 64.0021 149.921 64.8835C150.086 65.9091 150.206 66.6078 150.278 66.9794C150.577 66.5184 151.642 64.6215 153.474 61.2907C153.663 60.9516 153.919 60.7444 154.247 60.6713C154.559 60.6022 154.856 60.653 155.139 60.8297C155.422 61.0064 155.599 61.2562 155.672 61.5791C155.752 61.9305 155.306 62.9906 154.335 64.7596C153.616 66.0594 152.841 67.3572 152.012 68.6509C152.739 69.1038 153.47 69.5547 154.202 70.0076C155.053 70.5214 155.804 70.9337 156.46 71.2403C156.786 71.3886 157.124 71.48 157.47 71.5165C158.099 71.5795 158.475 71.8862 158.597 72.4386C158.652 72.6823 158.632 72.9341 158.534 73.1961C158.402 73.5475 158.154 73.7648 157.793 73.844C157.012 74.0187 155.878 73.714 154.394 72.9281C153.95 72.6925 152.881 72.0344 151.186 70.9479L151.184 70.9499Z" fill="black"/>
<path d="M109.109 72.6923C107.241 80.2535 118.648 84.7399 123.169 86.2042C124.273 86.5616 125.476 86.2611 126.28 85.4263C129.571 82.0123 137.498 72.7045 132.297 66.9122C130.39 64.7858 127.487 63.8029 124.755 64.6498C122.744 65.2733 121.185 66.7112 120.381 68.5025C118.811 67.3042 116.771 66.764 114.705 67.16C111.894 67.6962 109.793 69.9221 109.107 72.6943L109.109 72.6923Z" fill="url(#paint3_linear_2378_10158)"/>
<path d="M33.289 211.718C34.0605 218.983 45.5578 219.304 50.0138 219.152C51.1008 219.115 52.0657 218.467 52.5074 217.474C54.3171 213.414 58.3273 202.681 51.8866 199.23C49.5232 197.963 46.6489 198.022 44.5115 199.638C42.9379 200.829 42.0239 202.595 41.8875 204.429C40.1206 203.873 38.1481 204.048 36.4524 205.053C34.146 206.422 33.0041 209.054 33.289 211.716V211.718Z" fill="#C5E2F9"/>
<path d="M39.2405 164.991C39.6761 169.092 46.1657 169.272 48.6818 169.187C49.2965 169.167 49.84 168.801 50.0904 168.241C51.1123 165.95 53.3759 159.889 49.7403 157.942C48.407 157.227 46.7846 157.259 45.5774 158.171C44.6879 158.843 44.1728 159.841 44.0955 160.876C43.098 160.562 41.9845 160.661 41.0278 161.23C39.725 162.004 39.0817 163.488 39.2405 164.991Z" fill="#C5E2F9"/>
<path d="M73.4964 281.162C75.9412 280.859 77.8303 283.272 76.959 285.575L73.7651 293.971C74.7748 296.581 75.3895 299.398 75.5442 302.351C76.3463 317.447 64.7208 330.337 49.5818 331.137C34.0785 331.952 20.912 319.778 20.6902 304.15C20.4927 290.045 31.3121 277.959 45.3783 276.548C52.735 275.818 59.646 278.034 64.9977 282.196L73.4944 281.162H73.4964Z" fill="white"/>
<path d="M48.0944 331.863C40.9412 331.863 34.1788 329.204 28.9126 324.289C23.276 319.029 20.1126 311.88 20.0027 304.158C19.8012 289.735 30.9177 277.305 45.3117 275.861C52.4628 275.155 59.5122 277.147 65.1977 281.477L73.4135 280.478C74.7998 280.303 76.1433 280.859 77.0084 281.958C77.8777 283.061 78.0995 284.503 77.6028 285.815L74.5006 293.967C75.498 296.618 76.0802 299.424 76.2308 302.312C76.6278 309.796 74.0792 316.99 69.0512 322.563C64.0232 328.138 57.1224 331.426 49.617 331.822C49.1081 331.848 48.5972 331.863 48.0923 331.863H48.0944ZM48.1392 277.098C47.2455 277.098 46.3498 277.143 45.4501 277.23C31.7625 278.603 21.1915 290.423 21.3829 304.138C21.4867 311.482 24.4953 318.282 29.8551 323.284C35.219 328.288 42.2114 330.831 49.5478 330.447C56.6847 330.069 63.2496 326.944 68.0293 321.643C72.8089 316.342 75.2334 309.504 74.8568 302.385C74.7082 299.554 74.124 296.804 73.1224 294.217C73.0614 294.059 73.0614 293.884 73.1224 293.726L76.3163 285.33C76.64 284.473 76.4955 283.53 75.9275 282.809C75.3637 282.094 74.4904 281.731 73.5845 281.844L65.0878 282.878C64.9066 282.907 64.7255 282.85 64.5809 282.738C59.8481 279.056 54.0954 277.098 48.1432 277.098H48.1392Z" fill="black"/>
<path d="M35.2464 296.196L31.4069 310.218C31.2016 310.967 31.6444 311.741 32.396 311.946L37.4171 313.315C38.1686 313.52 38.9444 313.078 39.1497 312.328L42.9891 298.306C43.1945 297.556 42.7516 296.783 42.0001 296.578L36.979 295.209C36.2274 295.004 35.4517 295.446 35.2464 296.196Z" fill="#383838"/>
<path d="M44.7326 302.337C44.985 301.417 45.6934 300.7 46.6054 300.412C48.2441 299.892 50.925 298.73 52.7611 296.342C54.0375 294.681 54.6889 292.938 55.0186 291.531C55.6741 288.732 59.8126 288.817 60.1444 291.673C60.1586 291.805 60.1688 291.941 60.1729 292.083C60.2461 295.495 57.7016 299.153 57.0929 299.979C57.0298 300.065 57.0746 300.182 57.1764 300.209L62.6909 301.712C64.5393 302.215 65.4227 304.313 64.4904 305.983L59.0329 315.754C58.3713 316.938 56.9871 317.516 55.6782 317.159L44.4028 314.084C42.9189 313.68 42.0456 312.151 42.4507 310.67L44.7326 302.337Z" fill="#383838"/>
<path d="M204.545 65.111L199.364 65.8891C198.593 66.0048 198.063 66.7217 198.179 67.4904L200.358 81.9383C200.474 82.7069 201.193 83.2362 201.963 83.1205L207.145 82.3424C207.915 82.2267 208.446 81.5098 208.33 80.7412L206.15 66.2933C206.034 65.5247 205.315 64.9953 204.545 65.111Z" fill="#C5E2F9"/>
<path d="M209.398 69.3207C209.255 68.3722 209.616 67.4278 210.336 66.7921C211.631 65.6507 213.62 63.4979 214.336 60.5612C214.835 58.5181 214.723 56.6537 214.454 55.2259C213.919 52.3887 217.756 50.7923 219.22 53.2803C219.287 53.394 219.352 53.5158 219.411 53.6458C220.867 56.7511 220.018 61.142 219.794 62.1474C219.771 62.2509 219.859 62.3403 219.965 62.3241L225.642 61.4711C227.543 61.1847 229.211 62.7566 229.034 64.6657L227.995 75.8522C227.869 77.2068 226.833 78.3015 225.485 78.5026L213.876 80.2431C212.348 80.4726 210.923 79.4226 210.695 77.8973L209.4 69.3166L209.398 69.3207Z" fill="#C5E2F9"/>
</g>
</g>
<defs>
<linearGradient id="paint0_linear_2378_10158" x1="239.114" y1="197.67" x2="260.456" y2="288.376" gradientUnits="userSpaceOnUse">
<stop stop-color="#008BCE"/>
<stop offset="1" stop-color="#A0D2F4"/>
</linearGradient>
<linearGradient id="paint1_linear_2378_10158" x1="319.18" y1="213.054" x2="303.414" y2="312.539" gradientUnits="userSpaceOnUse">
<stop stop-color="#A0D2F4"/>
<stop offset="1" stop-color="#008BCE"/>
</linearGradient>
<linearGradient id="paint2_linear_2378_10158" x1="355.522" y1="240.558" x2="384.169" y2="312.123" gradientUnits="userSpaceOnUse">
<stop stop-color="#008BCE"/>
<stop offset="1" stop-color="#9DD1F3"/>
</linearGradient>
<linearGradient id="paint3_linear_2378_10158" x1="118.709" y1="67.338" x2="128.848" y2="87.1597" gradientUnits="userSpaceOnUse">
<stop stop-color="#008BCE"/>
<stop offset="1" stop-color="#A0D2F4"/>
</linearGradient>
<clipPath id="clip0_2378_10158">
<rect width="427" height="425" fill="white"/>
</clipPath>
<clipPath id="clip1_2378_10158">
<rect width="386" height="338" fill="white" transform="translate(20 43)"/>
</clipPath>
</defs>
</svg>
