<svg width="427" height="425" viewBox="0 0 427 425" fill="none" xmlns="http://www.w3.org/2000/svg">
<g clip-path="url(#clip0_2418_9470)">
<path d="M400.041 382.57C388.531 392.16 338.441 398.94 278.761 401.49C187.021 405.42 72.6009 399.37 40.7909 378.2C25.7309 368.19 15.5509 337.25 9.1009 297.66C-6.9291 199.16 0.220901 47.1301 13.1609 30.6501C31.3109 7.56009 323.301 -15.3099 399.911 13.9301C432.741 26.4601 429.231 358.23 400.031 382.57H400.041Z" fill="white"/>
<path d="M373.314 247.44L375.204 241.883L377.358 247.44C377.358 247.44 381.657 248.14 381.712 248.531C381.757 248.913 377.595 250.095 377.595 250.095C377.595 250.095 375.85 255.488 375.204 254.27C374.568 253.051 373.95 250.35 373.95 250.35C373.95 250.35 368.533 249.268 368.533 248.731C368.533 248.158 373.314 247.449 373.314 247.449V247.44Z" fill="white"/>
<path d="M304.094 233.142L305.566 228.822L307.238 233.142C307.238 233.142 310.574 233.688 310.619 233.988C310.656 234.279 307.429 235.198 307.429 235.198C307.429 235.198 306.075 239.381 305.575 238.435C305.075 237.49 304.594 235.389 304.594 235.389C304.594 235.389 300.395 234.543 300.395 234.134C300.395 233.688 304.103 233.142 304.103 233.142H304.094Z" fill="white"/>
<g clip-path="url(#clip1_2418_9470)">
<path d="M165.836 271.612L165.795 271.39C165.672 270.71 166.699 270.525 166.822 271.201L166.862 271.423C166.986 272.103 165.961 272.29 165.836 271.612Z" fill="#232526"/>
<path d="M371.479 315.435C167.181 315.255 174.932 315.822 174.766 315.019L167.423 279.323C167.284 278.653 168.302 278.431 168.444 279.113L175.701 314.393H370.839L342.657 177.324H337.157C336.467 177.324 336.466 176.282 337.157 176.282H343.082C343.33 176.282 343.543 176.456 343.593 176.698L371.989 314.81C372.056 315.139 371.804 315.436 371.479 315.436L371.479 315.435Z" fill="#232526"/>
<path d="M341.161 175.948L369.679 314.799H322.455V326.14L380.154 325.5C381.327 325.488 382.196 324.408 381.96 323.261L347.145 154.556C347.076 154.224 346.783 153.985 346.445 153.985L341.16 175.949L341.161 175.948Z" fill="#232526"/>
<path d="M322.4 326.396H128.944C128.656 326.396 128.422 326.163 128.422 325.875V314.761C128.422 314.473 128.656 314.239 128.944 314.239H322.399C322.687 314.239 322.921 314.473 322.921 314.761V325.875C322.921 326.163 322.687 326.396 322.399 326.396H322.4ZM129.465 325.354H321.878V315.282H129.465V325.354Z" fill="#232526"/>
<path d="M146.046 271.295H319.498C319.634 270.572 316.493 287.362 363.651 35.2295L368.629 38.5239C369.278 38.9408 370.723 28.4729 323.948 279.205C323.934 279.33 323.823 279.413 323.698 279.413L298.709 279.496V279.218H298.765V271.518H145.838L146.046 271.296L146.046 271.295Z" fill="#232526"/>
<path d="M140.458 188.202L151.277 130.335C151.406 129.653 152.427 129.85 152.301 130.526L141.482 188.393C141.357 189.07 140.331 188.882 140.458 188.202Z" fill="#232526"/>
<path d="M319.5 271.816H146.047C145.357 271.816 145.356 270.774 146.047 270.774H319.067L362.96 36.0421H169.967L166.973 52.0737C166.849 52.7505 165.822 52.5619 165.949 51.8824L169.022 35.4249C169.067 35.1786 169.283 34.999 169.534 34.999H363.582C363.906 34.999 364.152 35.2923 364.095 35.6108C316.961 287.711 320.151 270.649 320.013 271.39C319.967 271.638 319.752 271.816 319.501 271.816H319.5Z" fill="#232526"/>
<path d="M138.906 196.554V196.526C138.906 195.837 139.949 195.836 139.949 196.526C139.949 197.216 138.906 197.229 138.906 196.554Z" fill="#232526"/>
<path d="M156.214 103.911L159.44 86.6333C159.564 85.9575 160.591 86.1452 160.464 86.8246L157.238 104.102C157.112 104.781 156.087 104.589 156.214 103.911Z" fill="#232526"/>
<path d="M138.48 279.74C137.791 279.74 137.79 278.698 138.48 278.698H298.244V272.039H145.837C145.147 272.039 145.146 270.997 145.837 270.997H298.765C299.052 270.997 299.286 271.231 299.286 271.519V279.219C299.286 280.254 309.358 279.492 138.48 279.741V279.74Z" fill="#232526"/>
<path d="M267.331 253.701L267.029 253.699C248.596 253.338 235.462 238.052 236.071 220.713C237.017 193.632 268.587 178.177 289.307 194.707C289.843 195.136 289.2 195.953 288.656 195.522C268.67 179.576 238.041 194.387 237.115 220.75C236.504 238.124 249.941 252.659 267.575 252.659C283.099 252.659 296.873 241.081 299.691 225.627C299.816 224.949 300.842 225.134 300.718 225.814C297.809 241.759 283.526 253.828 267.331 253.701V253.701Z" fill="#1D1D1B"/>
<path d="M309.111 225.828L268.971 225.396C269.036 225.15 269.126 224.933 269.244 224.716L303.387 202.772C307.44 209.394 309.571 217.358 309.112 225.829L309.111 225.828Z" fill="#7EADFF"/>
<path d="M268.186 225.385L296.086 184.747C301.291 188.702 305.746 193.398 309.349 198.935L268.186 225.384V225.385Z" fill="#A0D2F4"/>
<path d="M321.192 111.356H182.096C181.772 111.356 181.526 111.062 181.582 110.741L192.53 51.3164C192.576 51.0692 192.792 50.8896 193.043 50.8896H332.14C332.464 50.8896 332.71 51.1838 332.653 51.505L321.706 110.929C321.66 111.177 321.444 111.356 321.192 111.356ZM182.722 110.314H320.757L331.513 51.9318H193.478L182.722 110.314Z" fill="#1D1D1B"/>
<path d="M249.845 79.2876C254.588 79.2876 258.433 75.1492 258.433 70.0442C258.433 64.9392 254.588 60.8008 249.845 60.8008C245.103 60.8008 241.258 64.9392 241.258 70.0442C241.258 75.1492 245.103 79.2876 249.845 79.2876Z" fill="#1D1D1B"/>
<path d="M260.709 110.833L226.652 78.0944L183.493 103.549C182.909 103.903 182.364 103.004 182.964 102.652L226.463 76.9963C227.118 76.6074 225.098 75.3793 261.431 110.083C261.931 110.563 261.198 111.308 260.709 110.834V110.833Z" fill="#1D1D1B"/>
<path d="M319.289 110.239L283.408 70.0049L244.401 94.1106C243.816 94.4733 243.266 93.5881 243.853 93.2245L283.231 68.8888C283.444 68.7543 283.726 68.794 283.896 68.9853L320.068 109.546C320.529 110.065 319.741 110.746 319.288 110.24L319.289 110.239Z" fill="#1D1D1B"/>
<path d="M160.243 69.7303L147.867 85.7014L141.178 67.2281L152.817 51.7568L160.243 69.7303Z" fill="#99B9FF"/>
<path d="M182.035 69.5495L161.189 69.2986L153.721 51.1592L173.83 52.4522L182.035 69.5495Z" fill="#A0D2F4"/>
<path d="M181.882 70.5773L169.853 86.8968L148.535 86.5349L161.079 70.3418L181.882 70.5773Z" fill="#7EADFF"/>
<path d="M160.785 256.359C160.095 256.359 160.095 255.317 160.785 255.317H211.981L224.307 196.505H180.198C179.509 196.505 179.508 195.463 180.198 195.463H224.95C225.108 195.463 225.255 195.533 225.354 195.656C225.454 195.778 225.492 195.938 225.46 196.091L212.916 255.945C212.75 256.744 215.152 256.179 160.785 256.36V256.359Z" fill="#1D1D1B"/>
<path d="M187.474 255.687L174.197 255.644L185.15 204.184H198.284L187.474 255.687Z" fill="#0A0A0A"/>
<path d="M180.436 226.342L174.192 255.685H161.76L162.024 254.448C166.141 249.514 168.24 244.162 169.687 237.643C170.069 236.117 171.311 230.341 171.995 226.343H180.435L180.436 226.342Z" fill="#6D7091"/>
<path d="M200.862 255.565L187.467 255.681L196.445 213.003H209.614L200.862 255.565Z" fill="#7EADFF"/>
<path d="M169.93 130.948H81.0157C80.6853 130.948 80.4416 130.646 80.5039 130.328L85.6377 103.905C85.6855 103.659 85.8995 103.482 86.1495 103.482H175.064C175.395 103.482 175.638 103.785 175.576 104.103L170.442 130.526C170.394 130.771 170.18 130.948 169.93 130.948ZM81.6485 129.905H169.5L174.431 104.526H86.5792L81.6485 129.905Z" fill="#232526"/>
<path d="M196.132 134.152C199.794 134.152 200.2 135.912 201.051 135.842C201.877 135.779 202.635 134.732 202.026 134.074C198.68 130.598 189.913 132.119 187.99 137.689C187.535 139.006 187.592 140.06 188.159 140.849C190.276 143.804 198.066 142.025 196.701 145.986C195.885 148.354 193.327 149.158 190.822 149.158C188.915 149.158 187.09 148.849 185.666 147.572C184.702 146.859 183.331 148.472 184.164 149.262C187.318 152.261 196.94 151.802 198.983 145.881C199.419 144.615 199.328 143.615 198.707 142.877C196.339 140.067 188.804 141.85 190.263 137.611C190.907 135.745 192.946 134.153 196.133 134.153L196.132 134.152Z" fill="black"/>
<path d="M217.689 134.281C218.31 134.281 218.748 133.955 218.95 133.371C219.135 132.833 218.94 132.487 218.307 132.487H208.25C207.436 132.487 206.886 132.913 206.629 133.658L201.114 149.651C200.852 150.421 201.138 150.822 201.93 150.822H211.987C212.597 150.822 213.043 150.503 213.247 149.911C213.433 149.369 213.233 149.027 212.604 149.027H203.493L205.771 142.422C214.661 142.345 214.525 142.598 215.099 142.187C215.586 141.834 216.125 140.627 214.933 140.627H206.39L208.578 134.281H217.689Z" fill="black"/>
<path d="M230.798 132.252C225.812 132.252 220.965 135.523 218.854 141.641C216.978 147.087 218.711 151.056 224.314 151.056C229.917 151.056 234.48 146.977 236.33 141.615C238.184 136.232 236.533 132.253 230.798 132.253V132.252ZM233.969 141.641C232.501 145.903 229.446 149.157 224.97 149.157C220.493 149.157 219.757 145.854 221.208 141.641C223.014 136.409 226.583 134.151 230.144 134.151C234.632 134.151 235.449 137.349 233.97 141.641H233.969Z" fill="black"/>
<path d="M296.525 156.112H202.379C201.689 156.112 201.688 155.069 202.379 155.069H296.133L304.812 125.31H182.3L173.621 155.069H194.216C194.905 155.069 194.906 156.112 194.216 156.112H172.926C172.579 156.112 172.329 155.78 172.425 155.445L181.408 124.643C181.473 124.42 181.677 124.268 181.909 124.268H305.507C305.671 124.268 305.827 124.345 305.924 124.476C306.023 124.608 306.053 124.777 306.008 124.934L297.025 155.736C296.96 155.959 296.756 156.112 296.524 156.112H296.525Z" fill="#222425"/>
<path d="M151.637 206.563L152.959 204.965C153.391 204.435 154.205 205.093 153.763 205.629L152.441 207.227C152.003 207.758 151.197 207.097 151.637 206.563Z" fill="#222425"/>
<path d="M57.3383 299.635C68.0049 284.014 66.7357 285.648 68.078 284.012C68.849 283.07 69.7228 282.004 69.9313 281.176C69.9295 281.177 69.9295 281.18 69.9295 281.18C90.4692 198.121 85.8951 216.711 86.5604 213.922C87.4288 210.455 90.6353 208.379 93.6251 206.139C96.1934 204.216 118.859 186.331 119.847 185.468C120.504 184.894 121.181 184.3 121.967 183.945C123.113 183.455 125.441 183.768 126.668 184.02C128.659 184.427 130.918 185.33 132.753 186.2C133.097 186.366 133.155 186.831 132.86 187.074C129.688 189.673 106.196 209.087 106.336 208.971C106.321 208.982 106.28 209.011 106.239 209.041C105.648 209.56 104.935 208.528 105.674 208.177C105.863 207.986 119.696 196.592 119.557 196.708C119.69 196.566 131.42 186.911 131.559 186.798C129.04 185.665 126.247 184.696 123.483 184.733C122.998 184.733 122.651 184.786 122.387 184.899C121.859 185.138 98.8708 203.514 94.2498 206.974C91.4622 209.06 88.346 211.087 87.5751 214.167V214.163C67.0363 297.222 71.6095 278.633 70.9442 281.422C70.6752 282.484 69.7246 283.646 68.8851 284.671C67.4895 286.375 68.9203 284.549 58.1986 300.223C57.8114 300.793 56.9466 300.205 57.3374 299.635H57.3383Z" fill="#222425"/>
<path d="M106.177 320.981C111.32 307.603 110.895 308.796 111.78 306.471C111.849 306.287 109.723 308.586 160.02 255.909C165.177 250.633 167.628 244.517 169.177 237.53C169.985 233.816 171.086 229.117 171.882 223.763C172.641 218.684 173.97 213.389 170.461 209.394C168.628 207.3 165.653 207.237 162.915 207.607C162.17 207.607 162.194 206.57 162.831 206.57C165.891 206.152 169.163 206.328 171.247 208.707C175.342 213.371 173.56 219.706 172.51 226.428C171.703 231.137 170.781 235.105 170.193 237.77C168.602 244.943 166.08 251.207 160.772 256.634L112.718 306.943C111.737 309.505 111.92 308.951 107.15 321.357C106.905 322 105.927 321.628 106.178 320.983L106.177 320.981Z" fill="#222425"/>
<path d="M114.16 218.266C162.158 175.654 138.316 196.821 145.236 190.677C141.232 188.586 137.781 187.759 133.679 187.399C133.086 187.342 132.593 187.292 132.305 187.532C132.29 187.544 132.206 187.61 132.192 187.621C127.939 191.152 126.809 192.052 120.539 197.235C120 197.673 119.346 196.864 119.877 196.429C127.219 190.377 129.888 188.161 130.111 187.999C131.913 186.502 131.951 186.179 133.663 186.351C138.15 186.745 141.682 187.6 146.127 189.968C148.102 188.619 149.655 189.198 156.122 186.626C159.029 185.47 171.475 181.17 172.47 180.838C176.626 179.469 182.771 177.947 185.311 181.518C185.513 181.803 185.794 182.255 185.916 182.581C186.16 183.225 185.186 183.597 184.941 182.95C184.812 182.611 184.494 182.197 184.421 182.057C182.184 179.083 176.336 180.662 172.798 181.828C171.605 182.226 159.101 186.564 156.508 187.595C151.797 189.468 152.267 188.976 148.194 190.15C146.144 190.72 147.914 189.977 114.853 219.046C114.338 219.505 113.644 218.723 114.161 218.266H114.16Z" fill="#222425"/>
<path d="M124.347 268.771C120.391 268.084 108.517 258.45 110.977 255.519C157.396 199.669 155.388 201.935 155.652 201.845L174.968 195.199C177.327 194.195 179.276 193.085 180.892 191.818C186.57 187.365 186.931 181.056 180.703 180.275C180.211 180.213 180.088 180.233 179.661 180.313C171.965 181.73 171.295 182.418 168.395 183.099C167.916 183.211 167.009 183.56 166.454 183.692C165.968 183.8 165.627 183.25 165.92 182.867C183.458 160.009 182.304 161.418 182.493 161.315L203.221 150.156C203.614 149.945 204.072 150.293 203.977 150.727C198.728 174.655 199.113 173.203 198.97 173.384C169.189 210.298 170.888 209.046 170.174 208.705C160.766 204.289 159.014 210.067 154.245 223.851C153.92 224.789 148.863 239.24 148.248 240.022C135.498 256.391 126.114 268.428 126.235 268.283C125.774 268.835 125.048 268.897 124.345 268.772L124.347 268.771ZM156.13 202.783L111.778 256.186C111.593 256.405 111.72 256.856 111.811 257.106C113.012 260.387 121.093 267.148 124.525 267.745C124.783 267.789 125.244 267.831 125.43 267.62L147.382 239.439C157.257 215.134 157.102 201.666 170.244 207.588L198.08 172.828L202.714 151.613L183.086 162.181L167.746 182.199C168.411 181.993 168.26 182.118 170.697 181.36C173.869 180.374 175.517 180.099 179.468 179.289C180.009 179.186 180.242 179.167 180.834 179.241C188.744 180.233 189.069 190.341 175.342 196.171L156.13 202.784V202.783Z" fill="#222425"/>
<path d="M197.305 154.355L201.55 157.831L202.986 151.294L197.305 154.355Z" fill="#222425"/>
<path d="M199.009 172.781L189.465 175.915L191.038 166.988L182.16 170.538L183.196 161.494L199.048 172.6L199.009 172.781Z" fill="#222425"/>
<path d="M123.741 271.665L132.306 260.64L117.041 248.335L108.405 258.783C106.133 261.505 121.469 274.402 123.742 271.665L123.741 271.665Z" fill="#A0D2F4"/>
<path d="M117.406 248.703L131.797 260.256L133.146 258.522L118.654 247.2L117.406 248.703Z" fill="#222425"/>
<path d="M105.311 108.96C101.663 108.96 99.617 112.623 98.512 116.104C97.4197 119.551 97.1408 123.267 100.776 123.267C104.411 123.267 106.48 119.572 107.588 116.085C108.688 112.612 108.976 108.961 105.312 108.961L105.311 108.96ZM106.081 116.084C105.273 118.632 103.895 121.861 101.221 121.861C98.5473 121.861 99.218 118.624 100.023 116.084C100.827 113.551 102.196 110.365 104.866 110.365C107.537 110.365 106.897 113.514 106.081 116.084Z" fill="black"/>
<path d="M116.327 108.96C112.677 108.96 110.632 112.625 109.528 116.104C108.435 119.551 108.156 123.267 111.792 123.267C115.427 123.267 117.505 119.551 118.604 116.085C119.709 112.599 119.984 108.961 116.328 108.961L116.327 108.96ZM117.097 116.084C116.289 118.632 114.911 121.861 112.237 121.861C109.563 121.861 110.234 118.624 111.039 116.084C111.842 113.551 113.212 110.365 115.882 110.365C118.552 110.365 117.912 113.514 117.097 116.084Z" fill="black"/>
<path d="M127.482 109.098C126.944 109.308 126.757 109.482 123.836 111.156C122.932 111.652 123.087 112.883 124.109 112.383L126.404 111.047L123.026 121.703H120.639C119.697 121.703 119.253 123.088 120.2 123.088C126.515 123.031 126.446 123.222 126.865 122.911C127.145 122.702 127.394 122.128 127.195 121.871C126.978 121.591 126.561 121.748 124.53 121.702C128.387 109.358 128.556 109.476 128.33 109.166C128.153 108.919 127.759 108.988 127.481 109.097L127.482 109.098Z" fill="black"/>
<path d="M138.356 108.96C134.707 108.96 132.661 112.625 131.557 116.104C130.465 119.551 130.186 123.267 133.821 123.267C137.456 123.267 139.534 119.551 140.633 116.085C141.738 112.599 142.013 108.961 138.357 108.961L138.356 108.96ZM139.126 116.084C138.318 118.632 136.94 121.861 134.266 121.861C131.592 121.861 132.263 118.624 133.068 116.084C133.872 113.551 135.241 110.365 137.911 110.365C140.581 110.365 139.941 113.514 139.126 116.084Z" fill="black"/>
<path d="M149.372 108.96C145.723 108.96 143.678 112.623 142.573 116.104C141.48 119.551 141.201 123.267 144.837 123.267C148.472 123.267 150.541 119.572 151.649 116.085C152.749 112.612 153.037 108.961 149.373 108.961L149.372 108.96ZM150.142 116.084C149.334 118.632 147.956 121.861 145.282 121.861C142.608 121.861 143.279 118.624 144.084 116.084C144.887 113.551 146.257 110.365 148.927 110.365C151.597 110.365 150.957 113.514 150.142 116.084Z" fill="black"/>
<path d="M169.932 130.427L149.854 140.302L151.744 130.439L169.932 130.427Z" fill="#232526"/>
<path d="M321.634 371.547C320.079 368.187 319.008 365.277 318.368 362.668C315.722 362.021 312.803 360.952 309.466 359.411C308.834 359.141 308.798 358.211 309.451 357.882C312.798 356.32 315.719 355.292 318.388 354.737C319.037 352.109 320.136 349.12 321.641 345.885C321.904 345.268 322.836 345.202 323.17 345.873C324.669 349.041 325.714 352.025 326.282 354.756C328.96 355.305 331.882 356.33 335.172 357.877C335.845 358.212 335.804 359.134 335.164 359.415C331.901 360.922 328.998 361.982 326.293 362.65C325.749 365.318 324.723 368.253 323.175 371.564C322.838 372.239 321.911 372.195 321.634 371.548V371.547ZM310.291 358.642C313.451 360.08 316.212 361.075 318.731 361.685C319.039 361.772 319.246 361.968 319.337 362.242C319.943 364.759 320.946 367.529 322.41 370.737C323.836 367.632 324.785 364.866 325.304 362.303C325.412 361.961 325.624 361.753 325.902 361.673C328.49 361.042 331.25 360.051 334.346 358.642C331.257 357.217 328.501 356.267 325.943 355.75C325.604 355.655 325.378 355.427 325.294 355.131C324.764 352.521 323.796 349.7 322.41 346.709C321.001 349.786 319.981 352.613 319.365 355.13C319.257 355.463 319.006 355.685 318.714 355.735C316.207 356.243 313.444 357.196 310.29 358.642H310.291Z" fill="#222425"/>
<path d="M313.85 376.572C311.882 377.463 309.967 378.211 308.143 378.637C308.107 378.655 308.071 378.672 308.071 378.708C307.693 380.584 306.958 382.514 306.042 384.442C306.006 384.514 305.881 384.514 305.845 384.442C304.936 382.475 304.17 380.561 303.744 378.72C303.726 378.684 303.708 378.649 303.672 378.649C301.832 378.199 299.919 377.446 297.954 376.549C297.864 376.495 297.864 376.37 297.954 376.334C299.886 375.425 301.818 374.695 303.679 374.323C303.715 374.323 303.75 374.305 303.75 374.252C304.2 372.429 304.953 370.501 305.869 368.553C305.905 368.464 306.03 368.464 306.066 368.553C306.975 370.485 307.687 372.398 308.06 374.258C308.06 374.294 308.096 374.329 308.131 374.347C310.008 374.707 311.921 375.443 313.85 376.358C313.939 376.394 313.939 376.518 313.85 376.572Z" fill="#222425"/>
<path d="M321.636 371.547C320.081 368.187 319.01 365.277 318.37 362.668C315.724 362.021 312.805 360.952 309.468 359.411C308.836 359.141 308.8 358.211 309.453 357.882C312.799 356.32 315.721 355.292 318.39 354.737C319.039 352.109 320.138 349.12 321.643 345.885C321.906 345.268 322.838 345.202 323.172 345.873C324.671 349.041 325.716 352.025 326.283 354.756C328.962 355.305 331.884 356.33 335.174 357.877C335.847 358.212 335.806 359.134 335.166 359.415C331.903 360.922 329 361.982 326.295 362.65C325.751 365.318 324.725 368.253 323.177 371.564C322.84 372.239 321.913 372.195 321.636 371.548V371.547ZM310.293 358.642C313.453 360.08 316.214 361.075 318.733 361.685C319.041 361.772 319.248 361.968 319.339 362.242C319.945 364.759 320.948 367.529 322.412 370.737C323.838 367.632 324.787 364.866 325.306 362.303C325.414 361.961 325.626 361.753 325.904 361.673C328.492 361.042 331.252 360.051 334.348 358.642C331.259 357.217 328.503 356.267 325.945 355.75C325.606 355.655 325.38 355.427 325.296 355.131C324.766 352.521 323.798 349.7 322.412 346.709C321.003 349.786 319.982 352.613 319.367 355.13C319.259 355.463 319.008 355.685 318.716 355.735C316.209 356.243 313.446 357.196 310.292 358.642H310.293Z" fill="#222425"/>
<path d="M313.85 376.572C311.882 377.463 309.967 378.211 308.143 378.637C308.107 378.655 308.071 378.672 308.071 378.708C307.693 380.584 306.958 382.514 306.042 384.442C306.006 384.514 305.881 384.514 305.845 384.442C304.936 382.475 304.17 380.561 303.744 378.72C303.726 378.684 303.708 378.649 303.672 378.649C301.832 378.199 299.919 377.446 297.954 376.549C297.864 376.495 297.864 376.37 297.954 376.334C299.886 375.425 301.818 374.695 303.679 374.323C303.715 374.323 303.75 374.305 303.75 374.252C304.2 372.429 304.953 370.501 305.869 368.553C305.905 368.464 306.03 368.464 306.066 368.553C306.975 370.485 307.687 372.398 308.06 374.258C308.06 374.294 308.096 374.329 308.131 374.347C310.008 374.707 311.921 375.443 313.85 376.358C313.939 376.394 313.939 376.518 313.85 376.572Z" fill="#222425"/>
<path d="M249.086 138.354C248.4 138.354 248.394 137.32 249.081 137.311C249.337 137.309 286.436 136.918 286.294 136.918C286.981 136.918 286.987 137.952 286.3 137.96L249.091 138.354H249.086Z" fill="#222425"/>
<path d="M246.922 146.618C246.236 146.618 246.23 145.584 246.916 145.576C247.173 145.573 284.271 145.183 284.129 145.183C284.816 145.183 284.822 146.217 284.135 146.225L246.927 146.618H246.922Z" fill="#222425"/>
<path d="M95.7012 364.001L113.105 323.958L47.0182 295.262L29.834 334.8C115.061 372.585 91.4079 362.098 95.7012 364.002V364.001ZM43.4272 311.024C43.7982 307.779 46.7321 305.449 49.9783 305.821C53.2245 306.192 55.5553 309.124 55.1843 312.369C54.8133 315.615 51.8794 317.944 48.6332 317.573C45.3861 317.202 43.0553 314.269 43.4272 311.024ZM36.9456 327.869C37.3167 324.623 40.2496 322.294 43.4967 322.665C46.7429 323.036 49.0737 325.969 48.7027 329.214C48.3317 332.459 45.3987 334.789 42.1517 334.417C38.9055 334.046 36.5746 331.114 36.9456 327.869Z" fill="#008BCE"/>
<path d="M29.4195 335.754L26 343.622L92.0866 372.319L95.2859 364.957C27.1347 334.741 29.5603 335.817 29.4195 335.754Z" fill="#008BCE"/>
<path d="M128.04 189.667H111.037C110.347 189.667 110.346 188.625 111.037 188.625H128.04C128.729 188.625 128.73 189.667 128.04 189.667ZM92.959 189.667H74.8811C74.1914 189.667 74.1905 188.625 74.8811 188.625H92.959C93.6487 188.625 93.6496 189.667 92.959 189.667ZM56.8022 189.667H38.7243C38.0346 189.667 38.0337 188.625 38.7243 188.625H56.8022C57.4919 188.625 57.4928 189.667 56.8022 189.667ZM31.2344 178.041V159.971C31.2344 159.281 32.277 159.28 32.277 159.971V178.041C32.277 178.73 31.2344 178.731 31.2344 178.041ZM31.2344 141.901V123.831C31.2344 123.141 32.277 123.141 32.277 123.831V141.901C32.277 142.59 31.2344 142.591 31.2344 141.901ZM31.2344 105.761V94.202C31.2344 93.9142 31.4682 93.6805 31.7561 93.6805H38.2702C38.9599 93.6805 38.9608 94.7227 38.2702 94.7227H32.277V105.761C32.277 106.45 31.2344 106.451 31.2344 105.761ZM71.6403 94.7227H56.3491C55.6594 94.7227 55.6585 93.6805 56.3491 93.6805H71.1194V91.4166C71.1194 90.7272 72.1621 90.7263 72.1621 91.4166V94.2011C72.1621 94.489 71.9283 94.7227 71.6403 94.7227ZM71.1185 73.3466V58.5313C71.1185 58.2435 71.3523 58.0098 71.6403 58.0098H74.8964C75.5861 58.0098 75.587 59.052 74.8964 59.052H72.1612V73.3457C72.1612 74.0351 71.1185 74.036 71.1185 73.3457V73.3466ZM147.209 59.0529H129.131C128.441 59.0529 128.441 58.0107 129.131 58.0107H147.209C147.899 58.0107 147.9 59.0529 147.209 59.0529ZM111.053 59.0529H92.9753C92.2856 59.0529 92.2847 58.0107 92.9753 58.0107H111.053C111.743 58.0107 111.744 59.0529 111.053 59.0529Z" fill="#222425"/>
</g>
</g>
<defs>
<clipPath id="clip0_2418_9470">
<rect width="427" height="425" fill="white"/>
</clipPath>
<clipPath id="clip1_2418_9470">
<rect width="356" height="359" fill="white" transform="translate(26 35)"/>
</clipPath>
</defs>
</svg>
