<svg width="427" height="425" viewBox="0 0 427 425" fill="none" xmlns="http://www.w3.org/2000/svg">
<g clip-path="url(#clip0_2411_14202)">
<path d="M400.041 382.57C388.531 392.16 338.441 398.94 278.761 401.49C187.021 405.42 72.6009 399.37 40.7909 378.2C25.7309 368.19 15.5509 337.25 9.1009 297.66C-6.9291 199.16 0.220901 47.1301 13.1609 30.6501C31.3109 7.56009 323.301 -15.3099 399.911 13.9301C432.741 26.4601 429.231 358.23 400.031 382.57H400.041Z" fill="white"/>
<path d="M373.314 247.44L375.204 241.883L377.358 247.44C377.358 247.44 381.657 248.14 381.712 248.531C381.757 248.913 377.595 250.095 377.595 250.095C377.595 250.095 375.85 255.488 375.204 254.27C374.568 253.051 373.95 250.35 373.95 250.35C373.95 250.35 368.533 249.268 368.533 248.731C368.533 248.158 373.314 247.449 373.314 247.449V247.44Z" fill="white"/>
<path d="M304.094 233.142L305.566 228.822L307.238 233.142C307.238 233.142 310.574 233.688 310.619 233.988C310.656 234.279 307.429 235.198 307.429 235.198C307.429 235.198 306.075 239.381 305.575 238.435C305.075 237.49 304.594 235.389 304.594 235.389C304.594 235.389 300.395 234.543 300.395 234.134C300.395 233.688 304.103 233.142 304.103 233.142H304.094Z" fill="white"/>
<g clip-path="url(#clip1_2411_14202)">
<path d="M369.466 305.081H112.245C99.268 305.081 88.7109 294.499 88.7109 281.492V126.462C88.7109 113.455 99.268 102.873 112.245 102.873H369.464C382.441 102.873 392.998 113.455 392.998 126.462V281.49C392.998 294.497 382.441 305.079 369.464 305.079L369.466 305.081ZM112.245 103.739C99.745 103.739 89.5745 113.933 89.5745 126.462V281.49C89.5745 294.019 99.745 304.213 112.245 304.213H369.464C381.964 304.213 392.135 294.019 392.135 281.49V126.462C392.135 113.933 381.964 103.739 369.464 103.739H112.245Z" fill="black"/>
<path d="M392.491 268.595H89.2169C88.9775 268.595 88.7852 268.402 88.7852 268.162C88.7852 267.922 88.9795 267.729 89.2169 267.729H392.491C392.731 267.729 392.923 267.922 392.923 268.162C392.923 268.402 392.729 268.595 392.491 268.595Z" fill="black"/>
<path d="M291.821 358.188H189.887C189.76 358.188 189.64 358.131 189.557 358.035C189.475 357.936 189.44 357.809 189.461 357.683L198.482 304.576C198.517 304.367 198.698 304.216 198.908 304.216H282.803C283.013 304.216 283.193 304.367 283.229 304.576L292.249 357.683C292.271 357.809 292.235 357.936 292.153 358.035C292.071 358.131 291.951 358.188 291.823 358.188H291.821ZM190.399 357.323H291.311L282.438 305.081H199.273L190.399 357.323Z" fill="black"/>
<path d="M305.544 368.508H176.164C173.088 368.508 170.586 366 170.586 362.917C170.586 359.834 173.088 357.322 176.164 357.322H305.544C308.619 357.322 311.121 359.83 311.121 362.913C311.121 365.996 308.619 368.508 305.544 368.508ZM176.164 358.188C173.565 358.188 171.45 360.307 171.45 362.913C171.45 365.52 173.563 367.642 176.164 367.642H305.544C308.142 367.642 310.258 365.524 310.258 362.917C310.258 360.31 308.144 358.188 305.544 358.188H176.164Z" fill="black"/>
<path d="M240.856 296.714C238.358 296.714 236.324 294.676 236.324 292.172C236.324 289.668 238.358 287.63 240.856 287.63C243.354 287.63 245.388 289.668 245.388 292.172C245.388 294.676 243.354 296.714 240.856 296.714ZM240.856 288.497C238.834 288.497 237.19 290.146 237.19 292.172C237.19 294.198 238.834 295.847 240.856 295.847C242.877 295.847 244.522 294.198 244.522 292.172C244.522 290.146 242.877 288.497 240.856 288.497Z" fill="black"/>
<path d="M371.213 33.4326H200.015C195.428 33.4326 191.709 37.16 191.709 41.7579V149.73C191.709 154.328 195.428 158.056 200.015 158.056H371.213C375.8 158.056 379.519 154.328 379.519 149.73V41.7579C379.519 37.16 375.8 33.4326 371.213 33.4326Z" fill="white"/>
<path d="M199.86 33.4326H371.366C375.864 33.4326 379.517 37.0936 379.517 41.6025V53.0693H191.707V41.6025C191.707 37.0936 195.36 33.4326 199.858 33.4326H199.86Z" fill="#A0D2F4"/>
<path d="M371.662 158.489H199.564C194.995 158.489 191.277 154.763 191.277 150.183V41.3056C191.277 36.7259 194.995 33 199.564 33H371.662C376.232 33 379.949 36.7259 379.949 41.3056V150.183C379.949 154.763 376.232 158.489 371.662 158.489ZM199.564 33.8656C195.47 33.8656 192.141 37.2039 192.141 41.3056V150.183C192.141 154.285 195.472 157.623 199.564 157.623H371.662C375.755 157.623 379.085 154.285 379.085 150.183V41.3056C379.085 37.202 375.755 33.8656 371.662 33.8656H199.564Z" fill="black"/>
<path d="M379.517 53.5023H191.709C191.47 53.5023 191.277 53.3095 191.277 53.0695C191.277 52.8295 191.472 52.6367 191.709 52.6367H379.517C379.756 52.6367 379.949 52.8295 379.949 53.0695C379.949 53.3095 379.754 53.5023 379.517 53.5023Z" fill="black"/>
<path d="M357.852 53.5023C357.612 53.5023 357.42 53.3095 357.42 53.0695V33.4328C357.42 33.1928 357.614 33 357.852 33C358.089 33 358.283 33.1928 358.283 33.4328V53.0695C358.283 53.3095 358.089 53.5023 357.852 53.5023Z" fill="black"/>
<path d="M336.266 53.5023C336.026 53.5023 335.834 53.3095 335.834 53.0695V33.4328C335.834 33.1928 336.028 33 336.266 33C336.503 33 336.698 33.1928 336.698 33.4328V53.0695C336.698 53.3095 336.503 53.5023 336.266 53.5023Z" fill="black"/>
<path d="M329.927 48.1488H321.258C321.019 48.1488 320.826 47.956 320.826 47.716C320.826 47.476 321.02 47.2832 321.258 47.2832H329.927C330.166 47.2832 330.359 47.476 330.359 47.716C330.359 47.956 330.164 48.1488 329.927 48.1488Z" fill="white"/>
<path d="M372.519 48.1497C372.409 48.1497 372.297 48.1084 372.213 48.0238L363.644 39.435C363.475 39.2658 363.475 38.9924 363.644 38.8232C363.813 38.654 364.086 38.654 364.255 38.8232L372.823 47.412C372.992 47.5812 372.992 47.8547 372.823 48.0238C372.739 48.1084 372.629 48.1497 372.517 48.1497H372.519Z" fill="white"/>
<path d="M363.952 48.1497C363.842 48.1497 363.731 48.1084 363.646 48.0238C363.477 47.8547 363.477 47.5812 363.646 47.412L372.215 38.8232C372.384 38.654 372.657 38.654 372.825 38.8232C372.994 38.9924 372.994 39.2658 372.825 39.435L364.257 48.0238C364.172 48.1084 364.062 48.1497 363.95 48.1497H363.952Z" fill="white"/>
<path d="M351.278 48.1493H342.369C342.13 48.1493 341.938 47.9565 341.938 47.7165V38.7853C341.938 38.5453 342.132 38.3525 342.369 38.3525H351.278C351.517 38.3525 351.71 38.5453 351.71 38.7853V47.7165C351.71 47.9565 351.515 48.1493 351.278 48.1493ZM342.801 47.2837H350.846V39.2181H342.801V47.2817V47.2837Z" fill="white"/>
<path d="M367.298 71.2559H325.594V143.992H367.298V71.2559Z" fill="#A0D2F4"/>
<path d="M314.619 142.596H310.299C310.06 142.596 309.867 142.403 309.867 142.163C309.867 141.923 310.062 141.73 310.299 141.73H314.619C314.859 141.73 315.051 141.923 315.051 142.163C315.051 142.403 314.857 142.596 314.619 142.596ZM305.978 142.596H301.658C301.418 142.596 301.226 142.403 301.226 142.163C301.226 141.923 301.42 141.73 301.658 141.73H305.978C306.217 141.73 306.409 141.923 306.409 142.163C306.409 142.403 306.215 142.596 305.978 142.596ZM297.336 142.596H293.016C292.777 142.596 292.584 142.403 292.584 142.163C292.584 141.923 292.779 141.73 293.016 141.73H297.336C297.575 141.73 297.768 141.923 297.768 142.163C297.768 142.403 297.573 142.596 297.336 142.596ZM288.694 142.596H284.375C284.135 142.596 283.943 142.403 283.943 142.163C283.943 141.923 284.137 141.73 284.375 141.73H288.694C288.934 141.73 289.126 141.923 289.126 142.163C289.126 142.403 288.932 142.596 288.694 142.596ZM280.053 142.596H275.733C275.494 142.596 275.301 142.403 275.301 142.163C275.301 141.923 275.496 141.73 275.733 141.73H280.053C280.292 141.73 280.485 141.923 280.485 142.163C280.485 142.403 280.29 142.596 280.053 142.596ZM271.413 142.596H267.094C266.854 142.596 266.662 142.403 266.662 142.163C266.662 141.923 266.856 141.73 267.094 141.73H271.413C271.653 141.73 271.845 141.923 271.845 142.163C271.845 142.403 271.651 142.596 271.413 142.596ZM262.772 142.596H258.452C258.213 142.596 258.02 142.403 258.02 142.163C258.02 141.923 258.214 141.73 258.452 141.73H262.772C263.011 141.73 263.204 141.923 263.204 142.163C263.204 142.403 263.009 142.596 262.772 142.596ZM255.102 141.624C254.862 141.624 254.67 141.431 254.67 141.191V136.861C254.67 136.621 254.864 136.428 255.102 136.428C255.339 136.428 255.533 136.621 255.533 136.861V141.191C255.533 141.431 255.339 141.624 255.102 141.624ZM314.619 139.293C314.38 139.293 314.187 139.1 314.187 138.86V134.53C314.187 134.29 314.382 134.097 314.619 134.097C314.857 134.097 315.051 134.29 315.051 134.53V138.86C315.051 139.1 314.857 139.293 314.619 139.293ZM255.102 132.962C254.862 132.962 254.67 132.769 254.67 132.529V128.199C254.67 127.959 254.864 127.767 255.102 127.767C255.339 127.767 255.533 127.959 255.533 128.199V132.529C255.533 132.769 255.339 132.962 255.102 132.962ZM314.619 130.633C314.38 130.633 314.187 130.44 314.187 130.2V125.87C314.187 125.63 314.382 125.438 314.619 125.438C314.857 125.438 315.051 125.63 315.051 125.87V130.2C315.051 130.44 314.857 130.633 314.619 130.633ZM255.102 124.3C254.862 124.3 254.67 124.108 254.67 123.868V119.538C254.67 119.298 254.864 119.105 255.102 119.105C255.339 119.105 255.533 119.298 255.533 119.538V123.868C255.533 124.108 255.339 124.3 255.102 124.3ZM314.619 121.971C314.38 121.971 314.187 121.778 314.187 121.538V117.209C314.187 116.969 314.382 116.776 314.619 116.776C314.857 116.776 315.051 116.969 315.051 117.209V121.538C315.051 121.778 314.857 121.971 314.619 121.971ZM255.102 115.639C254.862 115.639 254.67 115.446 254.67 115.206V110.876C254.67 110.636 254.864 110.443 255.102 110.443C255.339 110.443 255.533 110.636 255.533 110.876V115.206C255.533 115.446 255.339 115.639 255.102 115.639ZM314.619 113.31C314.38 113.31 314.187 113.117 314.187 112.877V108.547C314.187 108.307 314.382 108.114 314.619 108.114C314.857 108.114 315.051 108.307 315.051 108.547V112.877C315.051 113.117 314.857 113.31 314.619 113.31ZM255.102 106.979C254.862 106.979 254.67 106.786 254.67 106.546V102.217C254.67 101.977 254.864 101.784 255.102 101.784C255.339 101.784 255.533 101.977 255.533 102.217V106.546C255.533 106.786 255.339 106.979 255.102 106.979ZM314.619 104.648C314.38 104.648 314.187 104.455 314.187 104.215V99.8854C314.187 99.6454 314.382 99.4526 314.619 99.4526C314.857 99.4526 315.051 99.6454 315.051 99.8854V104.215C315.051 104.455 314.857 104.648 314.619 104.648ZM255.102 98.3175C254.862 98.3175 254.67 98.1247 254.67 97.8847V93.5549C254.67 93.3149 254.864 93.1221 255.102 93.1221C255.339 93.1221 255.533 93.3149 255.533 93.5549V97.8847C255.533 98.1247 255.339 98.3175 255.102 98.3175ZM314.619 95.9883C314.38 95.9883 314.187 95.7955 314.187 95.5555V91.2257C314.187 90.9857 314.382 90.7929 314.619 90.7929C314.857 90.7929 315.051 90.9857 315.051 91.2257V95.5555C315.051 95.7955 314.857 95.9883 314.619 95.9883ZM255.102 89.6559C254.862 89.6559 254.67 89.4631 254.67 89.2231V84.8932C254.67 84.6532 254.864 84.4605 255.102 84.4605C255.339 84.4605 255.533 84.6532 255.533 84.8932V89.2231C255.533 89.4631 255.339 89.6559 255.102 89.6559ZM314.619 87.3267C314.38 87.3267 314.187 87.1339 314.187 86.8939V82.5641C314.187 82.3241 314.382 82.1313 314.619 82.1313C314.857 82.1313 315.051 82.3241 315.051 82.5641V86.8939C315.051 87.1339 314.857 87.3267 314.619 87.3267ZM255.102 80.9942C254.862 80.9942 254.67 80.8014 254.67 80.5614V76.2316C254.67 75.9916 254.864 75.7988 255.102 75.7988C255.339 75.7988 255.533 75.9916 255.533 76.2316V80.5614C255.533 80.8014 255.339 80.9942 255.102 80.9942ZM314.619 78.665C314.38 78.665 314.187 78.4723 314.187 78.2323V73.9024C314.187 73.6624 314.382 73.4696 314.619 73.4696C314.857 73.4696 315.051 73.6624 315.051 73.9024V78.2323C315.051 78.4723 314.857 78.665 314.619 78.665ZM311.781 72.848H307.461C307.222 72.848 307.029 72.6552 307.029 72.4152C307.029 72.1752 307.224 71.9824 307.461 71.9824H311.781C312.021 71.9824 312.213 72.1752 312.213 72.4152C312.213 72.6552 312.019 72.848 311.781 72.848ZM303.14 72.848H298.82C298.58 72.848 298.388 72.6552 298.388 72.4152C298.388 72.1752 298.582 71.9824 298.82 71.9824H303.14C303.379 71.9824 303.571 72.1752 303.571 72.4152C303.571 72.6552 303.377 72.848 303.14 72.848ZM294.498 72.848H290.178C289.939 72.848 289.746 72.6552 289.746 72.4152C289.746 72.1752 289.941 71.9824 290.178 71.9824H294.498C294.737 71.9824 294.93 72.1752 294.93 72.4152C294.93 72.6552 294.735 72.848 294.498 72.848ZM285.858 72.848H281.539C281.299 72.848 281.107 72.6552 281.107 72.4152C281.107 72.1752 281.301 71.9824 281.539 71.9824H285.858C286.098 71.9824 286.29 72.1752 286.29 72.4152C286.29 72.6552 286.096 72.848 285.858 72.848ZM277.217 72.848H272.897C272.658 72.848 272.465 72.6552 272.465 72.4152C272.465 72.1752 272.66 71.9824 272.897 71.9824H277.217C277.456 71.9824 277.649 72.1752 277.649 72.4152C277.649 72.6552 277.454 72.848 277.217 72.848ZM268.575 72.848H264.256C264.016 72.848 263.824 72.6552 263.824 72.4152C263.824 72.1752 264.018 71.9824 264.256 71.9824H268.575C268.815 71.9824 269.007 72.1752 269.007 72.4152C269.007 72.6552 268.813 72.848 268.575 72.848ZM259.934 72.848H255.614C255.375 72.848 255.182 72.6552 255.182 72.4152C255.182 72.1752 255.376 71.9824 255.614 71.9824H259.934C260.173 71.9824 260.366 72.1752 260.366 72.4152C260.366 72.6552 260.171 72.848 259.934 72.848Z" fill="black"/>
<path d="M284.165 92.4608H273.07V90.4307H297.505V92.4608H286.41V121.324H284.165V92.4608Z" fill="black"/>
<path d="M245.025 104.663H203.32V147.232H245.025V104.663Z" fill="#1E1E1E"/>
<path d="M224.173 99.3953C223.467 99.3953 222.756 99.354 222.063 99.2753C221.826 99.2477 221.657 99.0333 221.683 98.7953C221.71 98.5573 221.924 98.3841 222.161 98.4156C223.545 98.575 224.986 98.5671 226.367 98.394C226.601 98.3664 226.821 98.5317 226.85 98.7697C226.88 99.0077 226.711 99.2241 226.475 99.2537C225.72 99.3481 224.944 99.3973 224.175 99.3973L224.173 99.3953ZM217.918 98.272C217.867 98.272 217.818 98.2641 217.767 98.2445C216.387 97.7291 215.066 97.0464 213.846 96.2123C213.647 96.0786 213.598 95.8091 213.732 95.6104C213.867 95.4117 214.134 95.3605 214.332 95.4963C215.496 96.291 216.752 96.9422 218.067 97.432C218.291 97.5146 218.405 97.7645 218.322 97.9887C218.258 98.1638 218.093 98.27 217.918 98.27V98.272ZM230.599 98.2071C230.426 98.2071 230.261 98.1009 230.195 97.9297C230.108 97.7055 230.22 97.4556 230.444 97.371C231.753 96.8674 233.001 96.2025 234.157 95.3979C234.353 95.2622 234.622 95.3094 234.758 95.5061C234.893 95.7028 234.846 95.9723 234.65 96.1081C233.437 96.954 232.126 97.6504 230.752 98.1796C230.701 98.1992 230.648 98.2091 230.597 98.2091L230.599 98.2071ZM210.845 93.4464C210.727 93.4464 210.609 93.3973 210.523 93.3028C209.536 92.2032 208.682 90.9874 207.983 89.6871C207.869 89.4766 207.95 89.213 208.16 89.1009C208.37 88.9868 208.631 89.0674 208.745 89.2779C209.408 90.5173 210.223 91.6779 211.165 92.7245C211.324 92.9015 211.31 93.175 211.133 93.3363C211.051 93.411 210.947 93.4484 210.845 93.4484V93.4464ZM237.621 93.3087C237.519 93.3087 237.417 93.2733 237.335 93.2005C237.156 93.0432 237.138 92.7677 237.297 92.5887C238.23 91.5323 239.03 90.3638 239.682 89.1166C239.792 88.9061 240.053 88.8215 240.265 88.9336C240.477 89.0438 240.557 89.3055 240.447 89.5179C239.764 90.8261 238.922 92.0517 237.945 93.1612C237.859 93.2576 237.741 93.3068 237.621 93.3068V93.3087ZM206.8 85.8904C206.607 85.8904 206.431 85.7605 206.382 85.5638C206.019 84.1376 205.826 82.6622 205.811 81.1769C205.809 80.9389 205.999 80.7422 206.238 80.7402C206.478 80.7441 206.672 80.931 206.674 81.1691C206.688 82.5835 206.87 83.99 207.218 85.3494C207.277 85.5815 207.137 85.8176 206.906 85.8766C206.87 85.8864 206.833 85.8904 206.798 85.8904H206.8ZM241.59 85.7094C241.556 85.7094 241.521 85.7055 241.486 85.6976C241.254 85.6405 241.113 85.4064 241.17 85.1743C241.501 83.813 241.67 82.4064 241.67 80.99C241.67 80.87 241.67 80.7481 241.666 80.6281C241.662 80.39 241.851 80.1914 242.09 80.1855C242.326 80.1796 242.526 80.3704 242.532 80.6104C242.534 80.7363 242.536 80.8622 242.536 80.99C242.536 82.4753 242.359 83.9527 242.01 85.3809C241.961 85.5776 241.784 85.7114 241.59 85.7114V85.7094ZM206.713 77.3153C206.68 77.3153 206.649 77.3114 206.615 77.3035C206.384 77.2484 206.238 77.0163 206.293 76.7841C206.629 75.3441 207.139 73.9474 207.811 72.6294C207.918 72.4169 208.179 72.3323 208.391 72.4405C208.603 72.5487 208.688 72.8104 208.58 73.0228C207.94 74.2779 207.453 75.6097 207.133 76.9809C207.086 77.1796 206.91 77.3153 206.713 77.3153ZM241.497 76.7763C241.307 76.7763 241.132 76.6484 241.079 76.4556C240.718 75.0963 240.19 73.7802 239.511 72.5448C239.395 72.3343 239.472 72.0727 239.682 71.9566C239.892 71.8425 240.153 71.9173 240.269 72.1277C240.981 73.4241 241.535 74.8051 241.915 76.2333C241.976 76.4635 241.841 76.7015 241.609 76.7625C241.572 76.7723 241.535 76.7782 241.497 76.7782V76.7763ZM210.601 69.6766C210.501 69.6766 210.401 69.6412 210.319 69.5704C210.138 69.413 210.119 69.1395 210.274 68.9586C211.239 67.8392 212.336 66.8379 213.538 65.9822C213.732 65.8425 214.001 65.8897 214.14 66.0845C214.277 66.2792 214.232 66.5507 214.038 66.6884C212.894 67.5048 211.848 68.4589 210.927 69.5251C210.841 69.6235 210.721 69.6746 210.599 69.6746L210.601 69.6766ZM237.376 69.2635C237.258 69.2635 237.142 69.2163 237.058 69.1238C236.106 68.0851 235.03 67.1645 233.863 66.3835C233.664 66.2517 233.61 65.9822 233.743 65.7835C233.874 65.5848 234.143 65.5297 234.342 65.6635C235.568 66.4818 236.697 67.4497 237.696 68.5396C237.857 68.7166 237.845 68.99 237.67 69.1514C237.588 69.2281 237.482 69.2655 237.378 69.2655L237.376 69.2635ZM217.575 64.7074C217.402 64.7074 217.239 64.6032 217.172 64.434C217.084 64.2117 217.194 63.9599 217.416 63.8714C218.786 63.3284 220.222 62.9507 221.684 62.752C221.918 62.7205 222.138 62.8858 222.171 63.1238C222.203 63.3618 222.038 63.5802 221.8 63.6117C220.405 63.8005 219.037 64.1605 217.734 64.6779C217.681 64.6996 217.628 64.7074 217.575 64.7074ZM230.253 64.5107C230.204 64.5107 230.155 64.5028 230.106 64.4851C228.787 64.0091 227.408 63.6923 226.006 63.5468C225.769 63.5212 225.596 63.3087 225.622 63.0707C225.647 62.8327 225.861 62.6595 226.097 62.6851C227.567 62.8386 229.015 63.1691 230.401 63.6707C230.624 63.7514 230.742 63.9992 230.662 64.2255C230.599 64.4025 230.432 64.5127 230.255 64.5127L230.253 64.5107Z" fill="black"/>
<path d="M363.263 135.248H161.34C154.879 135.248 149.641 140.498 149.641 146.975V273.038C149.641 279.514 154.879 284.764 161.34 284.764H363.263C369.725 284.764 374.963 279.514 374.963 273.038V146.975C374.963 140.498 369.725 135.248 363.263 135.248Z" fill="white"/>
<path d="M159.878 135.248H364.727C370.378 135.248 374.965 139.845 374.965 145.509V158.807H149.641V145.509C149.641 139.845 154.227 135.248 159.878 135.248Z" fill="#1E1E1E"/>
<path d="M365.54 285.197H159.065C153.631 285.197 149.209 280.765 149.209 275.318V144.695C149.209 139.248 153.631 134.815 159.065 134.815H365.54C370.975 134.815 375.396 139.248 375.396 144.695V275.318C375.396 280.765 370.975 285.197 365.54 285.197ZM159.065 135.681C154.108 135.681 150.073 139.724 150.073 144.695V275.318C150.073 280.287 154.106 284.331 159.065 284.331H365.54C370.498 284.331 374.533 280.289 374.533 275.318V144.695C374.533 139.726 370.5 135.681 365.54 135.681H159.065Z" fill="black"/>
<path d="M374.963 159.241H149.641C149.401 159.241 149.209 159.048 149.209 158.808C149.209 158.568 149.403 158.375 149.641 158.375H374.963C375.202 158.375 375.395 158.568 375.395 158.808C375.395 159.048 375.2 159.241 374.963 159.241Z" fill="black"/>
<path d="M348.969 159.24C348.729 159.24 348.537 159.048 348.537 158.808V135.248C348.537 135.008 348.731 134.815 348.969 134.815C349.206 134.815 349.401 135.008 349.401 135.248V158.808C349.401 159.048 349.206 159.24 348.969 159.24Z" fill="black"/>
<path d="M323.074 159.24C322.835 159.24 322.643 159.048 322.643 158.808V135.248C322.643 135.008 322.837 134.815 323.074 134.815C323.312 134.815 323.506 135.008 323.506 135.248V158.808C323.506 159.048 323.312 159.24 323.074 159.24Z" fill="black"/>
<path d="M315.469 152.818H305.067C304.827 152.818 304.635 152.625 304.635 152.385C304.635 152.145 304.829 151.952 305.067 151.952H315.469C315.708 151.952 315.9 152.145 315.9 152.385C315.9 152.625 315.706 152.818 315.469 152.818Z" fill="white"/>
<path d="M366.567 152.817C366.457 152.817 366.345 152.776 366.26 152.691L355.982 142.387C355.813 142.218 355.813 141.945 355.982 141.775C356.151 141.606 356.424 141.606 356.592 141.775L366.871 152.08C367.04 152.249 367.04 152.522 366.871 152.691C366.786 152.776 366.677 152.817 366.565 152.817H366.567Z" fill="white"/>
<path d="M356.288 152.817C356.178 152.817 356.066 152.776 355.982 152.691C355.813 152.522 355.813 152.249 355.982 152.08L366.26 141.775C366.429 141.606 366.702 141.606 366.871 141.775C367.04 141.945 367.04 142.218 366.871 142.387L356.592 152.691C356.508 152.776 356.398 152.817 356.286 152.817H356.288Z" fill="white"/>
<path d="M341.083 152.817H330.395C330.155 152.817 329.963 152.625 329.963 152.385V141.671C329.963 141.431 330.157 141.238 330.395 141.238H341.083C341.323 141.238 341.515 141.431 341.515 141.671V152.385C341.515 152.625 341.321 152.817 341.083 152.817ZM330.826 151.952H340.651V142.104H330.826V151.952Z" fill="white"/>
<path d="M358.13 226.012H262.023V271.301H358.13V226.012Z" fill="#E4E4E4"/>
<path d="M358.13 170.348H262.023V215.637H358.13V170.348Z" fill="#008BCE"/>
<path d="M245.62 173.453C245.381 173.453 245.188 173.261 245.188 173.021V170.857H243.028C242.788 170.857 242.596 170.664 242.596 170.426C242.596 170.186 242.788 169.993 243.028 169.993H245.62C245.734 169.993 245.844 170.036 245.926 170.119C246.009 170.202 246.052 170.31 246.052 170.426V173.025C246.052 173.265 245.858 173.457 245.62 173.457V173.453Z" fill="black"/>
<path d="M245.619 264.101C245.38 264.101 245.188 263.908 245.188 263.668V258.632C245.188 258.392 245.382 258.199 245.619 258.199C245.857 258.199 246.051 258.392 246.051 258.632V263.668C246.051 263.908 245.857 264.101 245.619 264.101ZM245.619 254.029C245.38 254.029 245.188 253.836 245.188 253.596V248.56C245.188 248.32 245.382 248.127 245.619 248.127C245.857 248.127 246.051 248.32 246.051 248.56V253.596C246.051 253.836 245.857 254.029 245.619 254.029ZM245.619 243.956C245.38 243.956 245.188 243.764 245.188 243.524V238.488C245.188 238.248 245.382 238.055 245.619 238.055C245.857 238.055 246.051 238.248 246.051 238.488V243.524C246.051 243.764 245.857 243.956 245.619 243.956ZM245.619 233.884C245.38 233.884 245.188 233.692 245.188 233.452V228.416C245.188 228.175 245.382 227.983 245.619 227.983C245.857 227.983 246.051 228.175 246.051 228.416V233.452C246.051 233.692 245.857 233.884 245.619 233.884ZM245.619 223.812C245.38 223.812 245.188 223.619 245.188 223.379V218.343C245.188 218.103 245.382 217.911 245.619 217.911C245.857 217.911 246.051 218.103 246.051 218.343V223.379C246.051 223.619 245.857 223.812 245.619 223.812ZM245.619 213.74C245.38 213.74 245.188 213.547 245.188 213.307V208.271C245.188 208.031 245.382 207.838 245.619 207.838C245.857 207.838 246.051 208.031 246.051 208.271V213.307C246.051 213.547 245.857 213.74 245.619 213.74ZM245.619 203.67C245.38 203.67 245.188 203.477 245.188 203.237V198.201C245.188 197.961 245.382 197.768 245.619 197.768C245.857 197.768 246.051 197.961 246.051 198.201V203.237C246.051 203.477 245.857 203.67 245.619 203.67ZM245.619 193.598C245.38 193.598 245.188 193.405 245.188 193.165V188.129C245.188 187.889 245.382 187.696 245.619 187.696C245.857 187.696 246.051 187.889 246.051 188.129V193.165C246.051 193.405 245.857 193.598 245.619 193.598ZM245.619 183.526C245.38 183.526 245.188 183.333 245.188 183.093V178.057C245.188 177.817 245.382 177.624 245.619 177.624C245.857 177.624 246.051 177.817 246.051 178.057V183.093C246.051 183.333 245.857 183.526 245.619 183.526Z" fill="black"/>
<path d="M245.62 271.736H243.028C242.788 271.736 242.596 271.543 242.596 271.303C242.596 271.063 242.79 270.87 243.028 270.87H245.188V268.704C245.188 268.464 245.383 268.271 245.62 268.271C245.858 268.271 246.052 268.464 246.052 268.704V271.303C246.052 271.543 245.858 271.736 245.62 271.736Z" fill="black"/>
<path d="M237.662 271.736H232.296C232.056 271.736 231.864 271.543 231.864 271.303C231.864 271.063 232.058 270.87 232.296 270.87H237.662C237.901 270.87 238.093 271.063 238.093 271.303C238.093 271.543 237.899 271.736 237.662 271.736ZM226.93 271.736H221.564C221.324 271.736 221.132 271.543 221.132 271.303C221.132 271.063 221.326 270.87 221.564 270.87H226.93C227.169 270.87 227.362 271.063 227.362 271.303C227.362 271.543 227.167 271.736 226.93 271.736ZM216.2 271.736H210.834C210.595 271.736 210.402 271.543 210.402 271.303C210.402 271.063 210.597 270.87 210.834 270.87H216.2C216.439 270.87 216.632 271.063 216.632 271.303C216.632 271.543 216.437 271.736 216.2 271.736ZM205.468 271.736H200.102C199.863 271.736 199.671 271.543 199.671 271.303C199.671 271.063 199.865 270.87 200.102 270.87H205.468C205.708 270.87 205.9 271.063 205.9 271.303C205.9 271.543 205.706 271.736 205.468 271.736ZM194.738 271.736H189.373C189.133 271.736 188.941 271.543 188.941 271.303C188.941 271.063 189.135 270.87 189.373 270.87H194.738C194.978 270.87 195.17 271.063 195.17 271.303C195.17 271.543 194.976 271.736 194.738 271.736ZM184.009 271.736H178.643C178.403 271.736 178.211 271.543 178.211 271.303C178.211 271.063 178.405 270.87 178.643 270.87H184.009C184.248 270.87 184.44 271.063 184.44 271.303C184.44 271.543 184.246 271.736 184.009 271.736Z" fill="black"/>
<path d="M173.276 271.736H170.684C170.444 271.736 170.252 271.543 170.252 271.303V268.704C170.252 268.464 170.446 268.271 170.684 268.271C170.921 268.271 171.116 268.464 171.116 268.704V270.87H173.276C173.516 270.87 173.708 271.063 173.708 271.303C173.708 271.543 173.514 271.736 173.276 271.736Z" fill="black"/>
<path d="M170.684 264.102C170.444 264.102 170.252 263.91 170.252 263.67V258.637C170.252 258.397 170.446 258.205 170.684 258.205C170.921 258.205 171.116 258.397 171.116 258.637V263.67C171.116 263.91 170.921 264.102 170.684 264.102ZM170.684 254.036C170.444 254.036 170.252 253.843 170.252 253.603V248.571C170.252 248.331 170.446 248.138 170.684 248.138C170.921 248.138 171.116 248.331 171.116 248.571V253.603C171.116 253.843 170.921 254.036 170.684 254.036ZM170.684 243.972C170.444 243.972 170.252 243.779 170.252 243.539V238.507C170.252 238.267 170.446 238.074 170.684 238.074C170.921 238.074 171.116 238.267 171.116 238.507V243.539C171.116 243.779 170.921 243.972 170.684 243.972ZM170.684 233.906C170.444 233.906 170.252 233.713 170.252 233.473V228.441C170.252 228.201 170.446 228.008 170.684 228.008C170.921 228.008 171.116 228.201 171.116 228.441V233.473C171.116 233.713 170.921 233.906 170.684 233.906ZM170.684 223.839C170.444 223.839 170.252 223.647 170.252 223.407V218.374C170.252 218.134 170.446 217.942 170.684 217.942C170.921 217.942 171.116 218.134 171.116 218.374V223.407C171.116 223.647 170.921 223.839 170.684 223.839ZM170.684 213.775C170.444 213.775 170.252 213.582 170.252 213.342V208.31C170.252 208.07 170.446 207.877 170.684 207.877C170.921 207.877 171.116 208.07 171.116 208.31V213.342C171.116 213.582 170.921 213.775 170.684 213.775ZM170.684 203.709C170.444 203.709 170.252 203.516 170.252 203.276V198.244C170.252 198.004 170.446 197.811 170.684 197.811C170.921 197.811 171.116 198.004 171.116 198.244V203.276C171.116 203.516 170.921 203.709 170.684 203.709ZM170.684 193.643C170.444 193.643 170.252 193.45 170.252 193.21V188.178C170.252 187.938 170.446 187.745 170.684 187.745C170.921 187.745 171.116 187.938 171.116 188.178V193.21C171.116 193.45 170.921 193.643 170.684 193.643ZM170.684 183.576C170.444 183.576 170.252 183.384 170.252 183.144V178.112C170.252 177.872 170.446 177.679 170.684 177.679C170.921 177.679 171.116 177.872 171.116 178.112V183.144C171.116 183.384 170.921 183.576 170.684 183.576Z" fill="black"/>
<path d="M170.684 173.512C170.444 173.512 170.252 173.319 170.252 173.079V170.481C170.252 170.243 170.444 170.048 170.684 170.048H173.276V170.046C173.514 170.046 173.708 170.239 173.708 170.479C173.708 170.719 173.516 170.911 173.276 170.911H171.116V173.079C171.116 173.319 170.921 173.512 170.684 173.512Z" fill="black"/>
<path d="M178.643 170.906C178.405 170.906 178.211 170.713 178.211 170.473C178.211 170.233 178.403 170.04 178.643 170.04L184.009 170.036C184.246 170.036 184.44 170.229 184.44 170.469C184.44 170.709 184.248 170.902 184.009 170.902L178.643 170.906ZM189.374 170.898C189.137 170.898 188.943 170.705 188.943 170.465C188.943 170.225 189.135 170.032 189.374 170.032L194.74 170.029C194.978 170.029 195.172 170.221 195.172 170.461C195.172 170.701 194.98 170.894 194.74 170.894L189.374 170.898ZM200.104 170.89C199.867 170.89 199.673 170.697 199.673 170.457C199.673 170.217 199.865 170.025 200.104 170.025L205.47 170.021C205.708 170.021 205.902 170.213 205.902 170.453C205.902 170.693 205.71 170.886 205.47 170.886L200.104 170.89ZM210.834 170.882C210.597 170.882 210.402 170.69 210.402 170.45C210.402 170.21 210.595 170.017 210.834 170.017L216.2 170.013C216.437 170.013 216.632 170.206 216.632 170.446C216.632 170.686 216.439 170.878 216.2 170.878L210.834 170.882ZM221.566 170.872C221.328 170.872 221.134 170.68 221.134 170.44C221.134 170.2 221.326 170.007 221.566 170.007L226.932 170.003C227.169 170.003 227.364 170.196 227.364 170.436C227.364 170.676 227.171 170.869 226.932 170.869L221.566 170.872ZM232.296 170.865C232.058 170.865 231.864 170.672 231.864 170.432C231.864 170.192 232.056 169.999 232.296 169.999L237.662 169.995C237.899 169.995 238.093 170.188 238.093 170.428C238.093 170.668 237.901 170.861 237.662 170.861L232.296 170.865Z" fill="black"/>
<path d="M208.15 234.46C215.643 234.46 221.718 228.372 221.718 220.861C221.718 213.35 215.643 207.262 208.15 207.262C200.657 207.262 194.582 213.35 194.582 220.861C194.582 228.372 200.657 234.46 208.15 234.46Z" fill="#008BCE"/>
<path d="M208.151 229.261C207.911 229.261 207.719 229.068 207.719 228.828V212.896C207.719 212.656 207.913 212.463 208.151 212.463C208.388 212.463 208.582 212.656 208.582 212.896V228.828C208.582 229.068 208.388 229.261 208.151 229.261Z" fill="white"/>
<path d="M216.099 221.293H200.203C199.964 221.293 199.771 221.101 199.771 220.861C199.771 220.621 199.966 220.428 200.203 220.428H216.099C216.338 220.428 216.531 220.621 216.531 220.861C216.531 221.101 216.336 221.293 216.099 221.293Z" fill="white"/>
<path d="M310.759 243.209L309.795 248.832L313.288 249.433C313.371 250.771 313.669 252.066 314.156 253.275L311.259 255.329L314.541 259.988L317.437 257.934C318.411 258.797 319.528 259.512 320.758 260.037L320.158 263.54L325.763 264.506L326.364 261.003C327.698 260.92 328.988 260.619 330.193 260.131L332.238 263.035L336.883 259.742L334.838 256.838C335.7 255.86 336.412 254.741 336.936 253.508L340.563 253.976L341.394 248.487L337.9 247.885C337.818 246.548 337.519 245.253 337.033 244.043L339.929 241.99L336.648 237.331L333.751 239.385C332.778 238.521 331.661 237.807 330.43 237.282L331.031 233.778L325.425 232.812L324.825 236.316C323.49 236.399 322.201 236.7 320.996 237.188L318.951 234.284L314.305 237.577L316.35 240.481C315.489 241.458 314.776 242.578 314.252 243.811L310.759 243.209ZM326.807 241.569C330.711 242.241 333.331 245.959 332.658 249.874C331.987 253.789 328.277 256.419 324.373 255.746C320.47 255.073 317.85 251.355 318.523 247.441C319.194 243.526 322.903 240.896 326.807 241.569Z" fill="white"/>
<path d="M255.458 69.8776L255.56 70.3143L270.843 133.784L128.186 168.222L106.35 77.5418L138.068 69.8776L225.706 48.6966L248.999 43.0664L250.355 48.6966L255.458 69.8776Z" fill="white"/>
<path d="M227.706 46.0249C226.542 46.0249 225.484 45.2302 225.2 44.0479C225.039 43.377 225.147 42.6846 225.506 42.0964C225.865 41.5082 226.432 41.0951 227.101 40.9338C228.483 40.5993 229.879 41.4551 230.212 42.838C230.373 43.5088 230.265 44.2013 229.906 44.7895C229.547 45.3777 228.98 45.7908 228.31 45.9521C228.108 46.0013 227.906 46.0249 227.706 46.0249ZM227.706 41.7265C227.573 41.7265 227.439 41.7423 227.304 41.7757C226.858 41.8839 226.481 42.1574 226.244 42.5488C226.004 42.9403 225.932 43.4006 226.04 43.8452C226.261 44.7639 227.188 45.3325 228.108 45.1102C228.554 45.0039 228.931 44.7285 229.168 44.337C229.408 43.9456 229.48 43.4852 229.372 43.0406C229.184 42.2557 228.479 41.7265 227.706 41.7265Z" fill="#008BCE"/>
<path d="M234.956 44.2743C233.792 44.2743 232.734 43.4795 232.45 42.2972C232.289 41.6264 232.397 40.934 232.756 40.3458C233.115 39.7576 233.682 39.3444 234.351 39.1831C235.735 38.8507 237.129 39.7044 237.462 41.0874C237.623 41.7582 237.515 42.4507 237.156 43.0389C236.797 43.6271 236.23 44.0402 235.56 44.2015C235.358 44.2507 235.156 44.2743 234.956 44.2743ZM234.956 39.9759C234.823 39.9759 234.689 39.9917 234.554 40.0251C234.108 40.1333 233.731 40.4067 233.494 40.7982C233.254 41.1897 233.182 41.65 233.29 42.0946C233.511 43.0133 234.438 43.5818 235.358 43.3595C235.804 43.2533 236.181 42.9779 236.418 42.5864C236.658 42.1949 236.73 41.7346 236.622 41.29C236.434 40.5051 235.729 39.9759 234.956 39.9759Z" fill="#008BCE"/>
<path d="M242.206 42.5233C241.042 42.5233 239.984 41.7285 239.7 40.5463C239.539 39.8754 239.647 39.183 240.006 38.5948C240.365 38.0066 240.932 37.5935 241.601 37.4322C242.985 37.0997 244.379 37.9535 244.712 39.3364C244.873 40.0072 244.765 40.6997 244.406 41.2879C244.047 41.8761 243.48 42.2892 242.81 42.4505C242.608 42.4997 242.406 42.5233 242.206 42.5233ZM242.206 38.2269C242.073 38.2269 241.939 38.2426 241.804 38.2741C241.358 38.3823 240.981 38.6558 240.744 39.0472C240.504 39.4387 240.432 39.899 240.54 40.3436C240.761 41.2623 241.688 41.8308 242.608 41.6085C243.054 41.5004 243.431 41.2269 243.668 40.8354C243.908 40.444 243.98 39.9836 243.872 39.539C243.684 38.7541 242.979 38.2249 242.206 38.2249V38.2269Z" fill="#008BCE"/>
<path d="M128.187 168.655C127.992 168.655 127.816 168.521 127.767 168.323L105.93 77.644C105.903 77.5319 105.922 77.4138 105.981 77.3175C106.04 77.2191 106.136 77.1483 106.248 77.1227L248.897 42.6453C249.129 42.5883 249.363 42.7319 249.419 42.964L255.879 69.7752L255.983 70.2119L271.264 133.68C271.291 133.792 271.272 133.91 271.213 134.007C271.154 134.105 271.058 134.176 270.946 134.201L128.289 168.639C128.255 168.647 128.22 168.651 128.187 168.651V168.655ZM106.872 77.8624L128.507 167.699L270.324 133.464L248.682 43.5876L106.872 77.8624Z" fill="#008BCE"/>
<path d="M106.337 77.9328C106.143 77.9328 105.964 77.799 105.917 77.6003L103.842 68.9781C103.815 68.8659 103.834 68.7479 103.893 68.6495C103.954 68.5512 104.05 68.4803 104.16 68.4548L246.819 34.0187C247.053 33.9636 247.285 34.1053 247.341 34.3394L249.42 42.9656C249.475 43.1977 249.334 43.4318 249.102 43.4869C248.868 43.544 248.637 43.4003 248.58 43.1682L246.603 34.963L104.786 69.1964L106.759 77.3977C106.814 77.6299 106.672 77.864 106.441 77.921C106.407 77.9289 106.372 77.9328 106.339 77.9328H106.337Z" fill="#008BCE"/>
<path d="M243.342 56.516L159.945 77.4814L173.886 133.193L257.283 112.227L243.342 56.516Z" fill="#1E1E1E"/>
<path d="M214.488 106.197C221.824 102.719 224.955 93.9304 221.48 86.5661C218.005 79.2018 209.241 76.051 201.905 79.5285C194.568 83.0061 191.438 91.7951 194.912 99.1595C198.387 106.524 207.151 109.675 214.488 106.197Z" fill="white"/>
<path d="M206.016 99.3187C205.976 99.3187 205.937 99.3128 205.898 99.303C205.749 99.2597 205.635 99.1417 205.598 98.9922L203.009 88.6683C202.972 88.5188 203.017 88.3594 203.127 88.2512C203.239 88.143 203.398 88.1037 203.547 88.145L213.751 91.0683C213.9 91.1115 214.014 91.2296 214.051 91.3791C214.088 91.5286 214.043 91.6879 213.933 91.7961L206.318 99.1968C206.236 99.2755 206.128 99.3187 206.018 99.3187H206.016ZM204.028 89.1856L206.251 98.0538L212.793 91.6958L204.028 89.1856Z" fill="black"/>
<path d="M252.736 106.602L175.115 126.115L175.763 128.705L253.384 109.191L252.736 106.602Z" fill="white"/>
<path d="M135.615 156.914C135.423 156.914 135.246 156.782 135.197 156.587L133.786 150.959C133.759 150.847 133.776 150.729 133.835 150.631C133.894 150.532 133.99 150.461 134.1 150.434L259.005 119.035C259.237 118.978 259.47 119.118 259.529 119.35L260.94 124.978C260.968 125.09 260.95 125.208 260.891 125.307C260.832 125.405 260.736 125.476 260.626 125.503L135.721 156.902C135.686 156.912 135.651 156.916 135.615 156.916V156.914ZM134.728 151.168L135.929 155.956L259.996 124.768L258.795 119.979L134.728 151.168Z" fill="#008BCE"/>
<path d="M151.805 79.8835L119.869 87.9121L125.281 109.541L157.217 101.512L151.805 79.8835Z" fill="#E4E4E4"/>
<path d="M160.272 113.646L128.336 121.675L133.748 143.303L165.684 135.275L160.272 113.646Z" fill="#E4E4E4"/>
<path d="M255.89 53.5023H198.86C198.62 53.5023 198.428 53.3095 198.428 53.0695C198.428 52.8295 198.622 52.6367 198.86 52.6367H255.89C256.13 52.6367 256.322 52.8295 256.322 53.0695C256.322 53.3095 256.128 53.5023 255.89 53.5023Z" fill="black"/>
<path d="M103.871 389.736C103.632 389.736 103.439 389.543 103.439 389.303V379.347C103.439 379.107 103.634 378.914 103.871 378.914C104.109 378.914 104.303 379.107 104.303 379.347V389.303C104.303 389.543 104.109 389.736 103.871 389.736Z" fill="#A0D2F4"/>
<path d="M103.871 379.78C103.632 379.78 103.439 379.588 103.439 379.348V360.154C103.439 359.914 103.634 359.721 103.871 359.721C104.109 359.721 104.303 359.914 104.303 360.154V379.348C104.303 379.588 104.109 379.78 103.871 379.78Z" fill="black"/>
<path d="M103.871 360.586C103.632 360.586 103.439 360.394 103.439 360.154V348.014C103.439 347.774 103.634 347.581 103.871 347.581C104.109 347.581 104.303 347.774 104.303 348.014V360.154C104.303 360.394 104.109 360.586 103.871 360.586Z" fill="#A0D2F4"/>
<path d="M103.871 348.446C103.632 348.446 103.439 348.253 103.439 348.013V328.729C103.439 328.489 103.634 328.296 103.871 328.296C104.109 328.296 104.303 328.489 104.303 328.729V348.013C104.303 348.253 104.109 348.446 103.871 348.446Z" fill="black"/>
<path d="M103.871 329.16C103.632 329.16 103.439 328.967 103.439 328.727V316.562C103.439 316.322 103.634 316.129 103.871 316.129C104.109 316.129 104.303 316.322 104.303 316.562V328.727C104.303 328.967 104.109 329.16 103.871 329.16Z" fill="#A0D2F4"/>
<path d="M177.811 316.994H103.303C103.063 316.994 102.871 316.802 102.871 316.562C102.871 316.322 103.065 316.129 103.303 316.129H177.811C178.05 316.129 178.243 316.322 178.243 316.562C178.243 316.802 178.048 316.994 177.811 316.994Z" fill="black"/>
<path d="M166.588 329.268H92.0802C91.8408 329.268 91.6484 329.075 91.6484 328.835C91.6484 328.595 91.8427 328.402 92.0802 328.402H166.588C166.828 328.402 167.02 328.595 167.02 328.835C167.02 329.075 166.826 329.268 166.588 329.268Z" fill="black"/>
<path d="M148.875 348.476H74.4415C74.2021 348.476 74.0098 348.283 74.0098 348.043C74.0098 347.803 74.2041 347.61 74.4415 347.61H148.875C149.114 347.61 149.307 347.803 149.307 348.043C149.307 348.283 149.113 348.476 148.875 348.476Z" fill="black"/>
<path d="M137.665 360.749H63.5373C63.2978 360.749 63.1055 360.557 63.1055 360.317C63.1055 360.077 63.2998 359.884 63.5373 359.884H137.665C137.904 359.884 138.096 360.077 138.096 360.317C138.096 360.557 137.902 360.749 137.665 360.749Z" fill="black"/>
<path d="M120.193 379.957H46.1896C45.9502 379.957 45.7578 379.765 45.7578 379.525C45.7578 379.285 45.9521 379.092 46.1896 379.092H120.193C120.433 379.092 120.625 379.285 120.625 379.525C120.625 379.765 120.431 379.957 120.193 379.957Z" fill="black"/>
<path d="M109.047 392.229H35.0431C34.8037 392.229 34.6113 392.036 34.6113 391.796C34.6113 391.556 34.8056 391.363 35.0431 391.363H109.047C109.286 391.363 109.479 391.556 109.479 391.796C109.479 392.036 109.284 392.229 109.047 392.229Z" fill="black"/>
<path d="M108.533 392.729C108.428 392.729 108.324 392.691 108.24 392.614C108.063 392.453 108.052 392.18 108.215 392.003L177.416 316.353C177.441 316.326 177.467 316.298 177.492 316.269C177.588 316.163 177.732 316.113 177.869 316.133H177.871C177.9 316.137 177.928 316.145 177.957 316.157C178.081 316.206 178.173 316.306 178.212 316.428V316.432C178.212 316.432 178.212 316.432 178.212 316.434C178.212 316.434 178.212 316.434 178.212 316.436C178.212 316.436 178.212 316.436 178.212 316.438C178.212 316.438 178.212 316.438 178.212 316.44C178.212 316.44 178.212 316.44 178.212 316.442C178.212 316.442 178.212 316.442 178.212 316.444V316.446C178.212 316.446 178.212 316.446 178.212 316.448C178.212 316.448 178.212 316.446 178.212 316.45C178.212 316.45 178.212 316.45 178.212 316.452C178.212 316.452 178.212 316.452 178.212 316.456C178.212 316.456 178.212 316.456 178.212 316.458C178.212 316.458 178.212 316.458 178.212 316.46C178.212 316.46 178.212 316.46 178.212 316.462C178.212 316.462 178.212 316.462 178.212 316.464C178.212 316.464 178.212 316.464 178.212 316.466C178.212 316.466 178.212 316.466 178.212 316.468C178.218 316.493 178.22 316.521 178.22 316.548C178.33 340.676 178.33 365.15 178.22 389.294C178.22 389.532 178.026 389.725 177.789 389.725C177.549 389.725 177.357 389.528 177.359 389.29C177.467 365.518 177.469 341.426 177.363 317.66L108.831 392.577C108.746 392.67 108.629 392.717 108.513 392.717L108.533 392.729Z" fill="black"/>
<path d="M34.4314 392.768C34.3274 392.768 34.2214 392.731 34.139 392.654C33.9643 392.493 33.9525 392.217 34.1135 392.042C47.2613 377.739 60.4326 363.114 73.1702 348.972C82.8186 338.259 92.7967 327.181 102.738 316.271C102.898 316.094 103.171 316.082 103.348 316.243C103.525 316.405 103.536 316.678 103.375 316.855C93.4365 327.763 83.4604 338.841 73.812 349.552C61.0724 363.697 47.9011 378.323 34.7494 392.628C34.665 392.721 34.5472 392.768 34.4314 392.768Z" fill="black"/>
<path d="M105.322 131.88C104.227 131.88 103.369 130.621 103.369 129.016C103.369 127.41 104.227 126.151 105.322 126.151C106.417 126.151 107.275 127.41 107.275 129.016C107.275 130.621 106.417 131.88 105.322 131.88ZM105.322 127.017C104.806 127.017 104.233 127.837 104.233 129.016C104.233 130.194 104.806 131.014 105.322 131.014C105.838 131.014 106.411 130.194 106.411 129.016C106.411 127.837 105.838 127.017 105.322 127.017Z" fill="black"/>
<path d="M104.812 128.229C104.812 132.433 103.741 137.137 99.8567 137.137C95.9726 137.137 90.75 132.431 90.75 128.229C90.75 124.027 93.8981 120.618 97.7802 120.618C101.662 120.618 104.81 124.025 104.81 128.229H104.812Z" fill="#A0D2F4"/>
<path d="M99.6271 128.229H91.5566V141.561H99.6271V128.229Z" fill="#A0D2F4"/>
<path d="M99.6251 141.994C99.3857 141.994 99.1934 141.801 99.1934 141.561V134.697C99.1934 134.457 99.3877 134.265 99.6251 134.265C99.8626 134.265 100.057 134.457 100.057 134.697V141.561C100.057 141.801 99.8626 141.994 99.6251 141.994Z" fill="black"/>
<path d="M101.359 126.931C101.359 130.34 99.5276 135.699 95.1881 135.699C89.8635 135.699 89.0176 130.34 89.0176 126.931C89.0176 123.522 91.781 120.758 95.1881 120.758C98.5953 120.758 101.359 123.522 101.359 126.931Z" fill="black"/>
<path d="M100.894 126.339C104.348 126.339 107.149 124.547 107.149 122.337C107.149 120.127 104.348 118.336 100.894 118.336C97.4391 118.336 94.6387 120.127 94.6387 122.337C94.6387 124.547 97.4391 126.339 100.894 126.339Z" fill="black"/>
<path d="M106.844 129.449C106.834 129.449 106.823 129.449 106.813 129.449L100.103 128.957C99.865 128.939 99.6864 128.733 99.7021 128.493C99.7198 128.255 99.9259 128.072 100.165 128.094L106.876 128.585C107.113 128.603 107.292 128.81 107.276 129.05C107.26 129.278 107.07 129.451 106.846 129.451L106.844 129.449Z" fill="black"/>
<path d="M101.848 132.285C102.844 131.843 103.223 130.515 102.695 129.319C102.166 128.123 100.93 127.512 99.9343 127.954C98.9383 128.396 98.5593 129.724 99.0878 130.92C99.6164 132.117 100.852 132.728 101.848 132.285Z" fill="#A0D2F4"/>
<path d="M118.432 291.189L131.03 260.87L149.373 269.455L138.105 297.234L118.432 291.189Z" fill="black"/>
<path d="M118.432 291.188L121.988 282.633L143.63 284.033L138.105 297.233L118.432 291.188Z" fill="white"/>
<path d="M138.105 297.667C138.064 297.667 138.021 297.661 137.979 297.647L118.308 291.602C118.192 291.566 118.096 291.482 118.043 291.372C117.992 291.261 117.988 291.134 118.035 291.021L121.591 282.464C121.662 282.293 121.837 282.193 122.017 282.198L143.659 283.601C143.799 283.611 143.924 283.686 143.999 283.806C144.073 283.924 144.083 284.071 144.03 284.201L138.505 297.401C138.437 297.566 138.278 297.667 138.107 297.667H138.105ZM119.014 290.915L137.858 296.705L142.996 284.427L122.268 283.084L119.014 290.915Z" fill="black"/>
<path d="M168.396 310.625V306.578C168.396 303.559 166.174 301.001 163.185 300.578L154.832 299.4C153.505 299.213 152.247 298.696 151.174 297.893L149.27 296.585C145.144 293.748 144.13 289.782 143.894 289.354H116.733L114.986 310.361L168.396 310.623V310.625Z" fill="#008BCE"/>
<path d="M114.848 310.21C114.105 310.21 113.5 310.812 113.498 311.557L113.48 317.117C113.48 317.925 114.136 318.582 114.945 318.582H168.393C169.665 318.582 170.696 317.552 170.696 316.281V312.514C170.696 311.243 169.665 310.212 168.395 310.212H114.848V310.21Z" fill="black"/>
<path d="M168.408 310.641C168.408 310.641 168.39 310.641 168.382 310.641C168.145 310.628 167.962 310.423 167.976 310.185L168.147 307.224C168.318 304.26 166.233 301.689 163.299 301.242L153.266 299.719C153.223 299.713 153.18 299.731 153.156 299.768L147.983 307.641C147.851 307.84 147.584 307.895 147.384 307.765C147.186 307.633 147.129 307.366 147.26 307.165L152.434 299.292C152.644 298.974 153.021 298.807 153.396 298.864L163.429 300.386C166.808 300.9 169.207 303.86 169.011 307.275L168.84 310.236C168.826 310.466 168.636 310.643 168.408 310.643V310.641Z" fill="black"/>
<path d="M143.895 300.866C143.745 300.866 143.6 300.789 143.522 300.651C143.402 300.445 143.471 300.179 143.677 300.059L149.156 296.861C149.363 296.741 149.627 296.809 149.747 297.018C149.867 297.225 149.798 297.49 149.592 297.61L144.112 300.809C144.044 300.848 143.969 300.868 143.895 300.868V300.866Z" fill="black"/>
<path d="M125.22 310.477C123.479 303.444 118.475 300.466 115.884 299.366L114.908 310.235C114.612 310.235 125.22 310.477 125.22 310.477Z" fill="#020202"/>
<path d="M55.9023 321.842L75.1167 293.186L92.2585 305.807L74.9342 332.121L55.9023 321.842Z" fill="black"/>
<path d="M55.9023 321.842L64.2515 309.392L81.4874 322.165L74.9342 332.121L55.9023 321.842Z" fill="white"/>
<path d="M74.9334 332.554C74.8647 332.554 74.794 332.536 74.7293 332.503L55.6975 322.226C55.5895 322.167 55.513 322.067 55.4835 321.949C55.4541 321.831 55.4757 321.705 55.5444 321.602L63.8935 309.15C63.9602 309.052 64.0623 308.985 64.1781 308.965C64.2939 308.943 64.4136 308.973 64.5078 309.044L81.7438 321.819C81.9283 321.954 81.9734 322.214 81.8478 322.405L75.2926 332.359C75.2101 332.485 75.0727 332.554 74.9314 332.554H74.9334ZM56.5257 321.689L74.7901 331.551L80.9018 322.269L64.3586 310.008L56.5277 321.687L56.5257 321.689Z" fill="black"/>
<path d="M60.7122 310.625L46.3613 321.445L67.4323 344.721C69.3302 346.816 72.023 348.012 74.8492 348.012H92.0773C92.0773 338.805 85.8184 336.826 82.5742 336.421C81.2415 336.254 80.0129 335.624 79.0964 334.645L79.7224 329.319L60.7103 310.625H60.7122Z" fill="#008BCE"/>
<path d="M92.0801 348.012H74.8519C72.0257 348.012 69.331 346.816 67.4351 344.721L46.3641 321.445L46.0638 321.116C45.4142 320.441 44.3582 320.369 43.6223 320.949L40.9413 323.316C40.1071 323.975 40.011 325.204 40.7332 325.985L63.6158 350.683C66.3517 353.636 70.1965 355.316 74.2219 355.316H92.0801C93.0496 355.316 93.8366 354.529 93.8366 353.559V349.771C93.8366 348.801 93.0496 348.014 92.0801 348.014V348.012Z" fill="#020202"/>
<path d="M52.422 328.139C54.4828 325.97 55.7487 323.038 55.7487 319.808C55.7487 318.134 55.4091 316.539 54.7929 315.087L46.3613 321.445L52.422 328.139Z" fill="#020202"/>
<path d="M92.0797 348.447C91.8403 348.447 91.6479 348.254 91.6479 348.014C91.6479 341.654 88.4527 337.891 82.4117 337.134C81.9407 337.075 81.4775 336.96 81.0339 336.795C80.8102 336.713 80.6963 336.463 80.7788 336.238C80.8612 336.014 81.1105 335.898 81.3342 335.983C81.715 336.124 82.1134 336.223 82.5196 336.272C87.0789 336.842 92.5135 339.343 92.5135 348.01C92.5135 348.25 92.3192 348.443 92.0817 348.443L92.0797 348.447Z" fill="black"/>
<path d="M72.7238 343.308C72.5943 343.308 72.4648 343.249 72.3804 343.139C72.2351 342.948 72.2705 342.677 72.4608 342.533L80.8865 336.071C81.0769 335.925 81.3477 335.961 81.4929 336.152C81.6382 336.342 81.6029 336.614 81.4125 336.758L72.9868 343.22C72.9083 343.281 72.8161 343.308 72.7238 343.308Z" fill="black"/>
<path d="M70.5278 337.747C70.359 337.747 70.198 337.647 70.1293 337.482C70.0371 337.261 70.1411 337.007 70.3609 336.915L75.4089 334.792C75.6287 334.698 75.8819 334.804 75.9741 335.025C76.0664 335.245 75.9623 335.499 75.7425 335.591L70.6946 337.714C70.6396 337.737 70.5827 337.747 70.5278 337.747Z" fill="black"/>
<path d="M112.444 251.882L104.1 188.021L74.0208 191.953L82.786 259.041L61.6914 306.24L89.404 318.582L109.176 274.356C112.312 267.307 113.443 259.531 112.444 251.882Z" fill="#1E1E1E"/>
<path d="M117.434 190.596H79.584V208.869H117.434V190.596Z" fill="#1E1E1E"/>
<path d="M169.885 226.873L168.207 231.49L109.618 228.299C97.2046 227.623 86.5612 219.199 83.0481 207.266L79.5859 195.508L152.343 200.119C165.66 200.929 174.447 214.332 169.885 226.873Z" fill="#1E1E1E"/>
<path d="M148.713 285.451L120.18 275.146L141.584 215.829L170.117 226.133L148.713 285.451Z" fill="#1E1E1E"/>
<path d="M136.338 229.765L153.028 230.662L128.656 251.656L136.338 229.765Z" fill="black"/>
<path d="M148.713 285.884C148.664 285.884 148.615 285.876 148.566 285.858L120.033 275.554C119.925 275.515 119.837 275.434 119.788 275.33C119.738 275.226 119.733 275.106 119.772 274.999L136.123 229.687C136.203 229.462 136.45 229.344 136.676 229.427C136.9 229.508 137.016 229.755 136.935 229.982L120.732 274.887L148.452 284.898L169.71 225.988C169.79 225.764 170.037 225.646 170.263 225.729C170.487 225.809 170.603 226.057 170.522 226.283L149.119 285.601C149.057 285.778 148.89 285.886 148.713 285.886V285.884Z" fill="black"/>
<path d="M155.705 231.242C155.705 231.242 155.689 231.242 155.681 231.242L109.594 228.732C109.357 228.72 109.174 228.516 109.186 228.276C109.2 228.038 109.402 227.841 109.641 227.867L155.728 230.377C155.966 230.388 156.148 230.593 156.137 230.833C156.125 231.063 155.932 231.242 155.705 231.242Z" fill="black"/>
<path d="M109.618 228.732C109.618 228.732 109.602 228.732 109.595 228.732C105.342 228.5 101.271 227.391 97.4988 225.431C97.2868 225.321 97.2044 225.059 97.3143 224.847C97.4242 224.635 97.6852 224.552 97.8972 224.662C101.561 226.564 105.512 227.642 109.644 227.867C109.881 227.878 110.064 228.083 110.052 228.323C110.04 228.553 109.848 228.732 109.62 228.732H109.618Z" fill="black"/>
<path d="M148.711 285.884C148.662 285.884 148.613 285.876 148.564 285.858C148.34 285.777 148.225 285.529 148.305 285.303L167.777 231.341C167.792 231.295 167.816 231.256 167.843 231.221L169.478 226.725C171.602 220.885 170.868 214.554 167.466 209.355C164.055 204.14 158.532 200.931 152.315 200.552L111.755 197.981C111.517 197.965 111.337 197.76 111.35 197.52C111.366 197.282 111.572 197.101 111.81 197.115L152.368 199.686C158.86 200.082 164.626 203.432 168.189 208.879C171.741 214.31 172.507 220.922 170.289 227.023L168.611 231.64C168.595 231.683 168.571 231.724 168.544 231.758L149.116 285.6C149.053 285.777 148.886 285.885 148.709 285.885L148.711 285.884Z" fill="black"/>
<path d="M117.435 194.074L75.4084 202.348L73.748 190.596H117.435V194.074Z" fill="black"/>
<path d="M92.2571 261.303C92.2296 261.303 92.2021 261.301 92.1747 261.296L82.7029 259.466C82.4694 259.421 82.3163 259.195 82.3614 258.958C82.4065 258.724 82.6323 258.573 82.8678 258.614L92.3395 260.444C92.5731 260.489 92.7262 260.715 92.681 260.951C92.6418 261.158 92.4592 261.301 92.2571 261.301V261.303Z" fill="black"/>
<path d="M118.872 141.964C119.106 141.639 121.069 140.148 121.351 137.16L121.463 135.974C121.589 134.648 121.116 134.329 121.241 133.009L121.758 127.556C121.832 126.759 121.249 126.053 120.452 125.976L120.342 125.966C119.546 125.892 118.839 126.476 118.764 127.273L117.391 141.824L118.874 141.964H118.872Z" fill="#A0D2F4"/>
<path d="M117.869 139.56L114.187 133.781C113.25 132.311 112.836 130.568 113.009 128.835C113.343 125.477 113.604 123.964 113.262 121.584L113.215 121.248C113.086 120.341 113.837 119.552 114.748 119.638L114.868 119.65C115.519 119.711 116.043 120.213 116.136 120.86C116.338 122.267 116.565 123.589 116.371 125.642L116.194 127.517C116.032 129.242 116.45 130.973 117.384 132.433L118.393 134.011L117.869 139.56Z" fill="#A0D2F4"/>
<path d="M109.254 137.436L110.09 127.938C110.178 126.929 110.483 125.951 110.981 125.068L111.319 124.472C111.911 123.422 113.244 123.052 114.294 123.646C114.685 123.868 114.824 124.364 114.602 124.755L114.092 125.658C113.478 126.746 113.101 127.952 112.989 129.197L112.219 137.713L109.258 137.434L109.254 137.436Z" fill="#A0D2F4"/>
<path d="M107.219 139.454C106.608 138.156 106.349 136.718 106.467 135.287L106.72 132.23C106.809 131.221 107.113 130.243 107.611 129.36L107.949 128.764C108.542 127.714 109.874 127.344 110.924 127.938C111.315 128.158 111.454 128.656 111.232 129.047L109.788 131.603L108.744 142.759L107.219 139.454Z" fill="#A0D2F4"/>
<path d="M108.092 148.157L110.153 127.737L113.464 129.191L119.509 135.124L118.088 148.867L108.092 148.157Z" fill="#A0D2F4"/>
<path d="M112.035 135.809C111.99 135.809 111.942 135.801 111.895 135.785C111.67 135.708 111.548 135.463 111.624 135.236L111.709 134.986C111.972 134.207 112.145 133.395 112.223 132.577C112.323 131.52 112.451 130.167 112.468 129.974C112.557 128.99 112.645 128.15 112.724 127.407C112.979 124.964 113.12 123.618 112.837 121.643L112.788 121.308C112.708 120.744 112.886 120.185 113.277 119.772C113.67 119.359 114.219 119.152 114.788 119.205L114.908 119.217C115.76 119.298 116.441 119.947 116.562 120.797L116.604 121.084C116.792 122.379 116.984 123.716 116.8 125.682L116.623 127.556C116.47 129.177 116.869 130.826 117.746 132.199L118.515 133.403C118.645 133.604 118.586 133.873 118.384 134.001C118.182 134.131 117.915 134.072 117.787 133.871L117.018 132.667C116.036 131.133 115.591 129.289 115.762 127.476L115.938 125.601C116.115 123.738 115.936 122.508 115.748 121.208L115.707 120.919C115.642 120.468 115.281 120.122 114.826 120.079L114.706 120.067C114.404 120.04 114.109 120.148 113.901 120.368C113.693 120.586 113.599 120.884 113.64 121.183L113.689 121.517C113.987 123.598 113.834 125.064 113.579 127.493C113.503 128.233 113.414 129.069 113.326 130.047C113.308 130.242 113.181 131.597 113.081 132.655C112.996 133.541 112.81 134.418 112.525 135.26L112.441 135.51C112.38 135.691 112.211 135.805 112.031 135.805L112.035 135.809Z" fill="black"/>
<path d="M109.117 135.533C109.074 135.533 109.029 135.527 108.984 135.511C108.756 135.439 108.633 135.193 108.707 134.966L108.805 134.662C109.055 133.89 109.216 133.09 109.284 132.283L109.659 127.902C109.753 126.822 110.073 125.799 110.605 124.857L110.943 124.261C111.447 123.368 112.43 122.852 113.453 122.943C113.69 122.964 113.865 123.175 113.845 123.413C113.824 123.651 113.614 123.828 113.376 123.806C112.689 123.744 112.032 124.092 111.694 124.69L111.357 125.286C110.886 126.12 110.603 127.025 110.521 127.979L110.146 132.36C110.071 133.233 109.897 134.099 109.628 134.931L109.53 135.236C109.471 135.419 109.3 135.535 109.119 135.535L109.117 135.533Z" fill="black"/>
<path d="M108.092 148.592C108.069 148.592 108.043 148.59 108.02 148.586C107.784 148.547 107.625 148.322 107.667 148.086C107.706 147.858 107.769 147.555 107.841 147.203C108.134 145.791 108.677 143.17 108.157 142.082C106.789 140.172 106.085 138.353 105.943 136.36V136.328V136.297C105.967 135.951 105.987 135.583 106.006 135.203C106.163 132.146 106.379 127.96 110.049 127.25C110.283 127.202 110.51 127.358 110.556 127.592C110.601 127.826 110.448 128.054 110.214 128.1C107.207 128.682 107.021 132.323 106.87 135.246C106.85 135.622 106.832 135.984 106.807 136.326C106.942 138.15 107.602 139.828 108.878 141.604L108.913 141.661C109.594 143.005 109.048 145.637 108.687 147.378C108.616 147.719 108.556 148.01 108.518 148.23C108.483 148.44 108.3 148.59 108.092 148.59V148.592Z" fill="black"/>
<path d="M118.088 149.3C118.088 149.3 118.069 149.3 118.059 149.3C117.821 149.285 117.641 149.078 117.657 148.84C117.672 148.586 117.69 148.246 117.71 147.851C117.796 146.169 117.924 143.625 118.243 142.462C118.463 141.66 118.991 141.125 119.458 140.652C119.888 140.218 120.292 139.807 120.453 139.222C121.288 136.189 121.195 133.262 121.097 130.163C121.064 129.111 121.03 128.021 121.034 126.925C121.038 126.853 121.048 126.719 120.834 126.585C120.53 126.394 119.945 126.333 119.507 126.561C119.29 126.77 119.054 127.193 119.025 127.604C118.846 130.128 118.644 132.965 118.412 135.605C118.391 135.843 118.185 136.024 117.943 135.998C117.706 135.976 117.529 135.766 117.551 135.528C117.782 132.896 117.982 130.063 118.161 127.563C118.212 126.837 118.605 126.197 118.974 125.879L119.042 125.83C119.717 125.444 120.665 125.454 121.295 125.853C121.709 126.115 121.929 126.518 121.898 126.961C121.894 128.011 121.929 129.093 121.961 130.138C122.061 133.305 122.155 136.295 121.286 139.454C121.066 140.257 120.538 140.792 120.071 141.264C119.641 141.699 119.237 142.11 119.076 142.694C118.781 143.765 118.65 146.352 118.571 147.896C118.552 148.295 118.534 148.641 118.516 148.897C118.501 149.127 118.312 149.302 118.086 149.302L118.088 149.3Z" fill="black"/>
<path d="M188.121 151.391C188.392 151.057 189.389 148.586 192.421 147.443L193.624 146.99C194.969 146.485 195.436 146.884 196.774 146.381L202.309 144.295C203.118 143.99 204.021 144.4 204.325 145.208L204.366 145.318C204.67 146.127 204.262 147.03 203.453 147.335L188.688 152.896L188.121 151.389V151.391Z" fill="#A0D2F4"/>
<path d="M190.91 151.755L197.974 153.953C199.77 154.512 201.703 154.449 203.459 153.778C206.863 152.477 208.364 151.775 210.941 151.456L211.304 151.411C212.285 151.289 212.894 150.282 212.544 149.355L212.499 149.233C212.25 148.572 211.581 148.169 210.88 148.256C209.357 148.445 207.917 148.582 205.832 149.367L203.93 150.083C202.18 150.742 200.258 150.797 198.472 150.239L196.543 149.635L190.91 151.755Z" fill="#A0D2F4"/>
<path d="M195.568 160.134L205.224 156.567C206.251 156.187 207.183 155.593 207.96 154.824L208.486 154.305C209.411 153.388 209.418 151.895 208.502 150.97C208.16 150.626 207.603 150.622 207.259 150.964L206.463 151.753C205.503 152.703 204.355 153.437 203.089 153.907L194.438 157.126L195.57 160.134H195.568Z" fill="#A0D2F4"/>
<path d="M194.042 162.826C195.569 163.094 197.139 162.958 198.596 162.427L201.706 161.296C202.733 160.916 203.665 160.322 204.442 159.553L204.968 159.033C205.893 158.117 205.901 156.623 204.984 155.699C204.643 155.355 204.085 155.351 203.742 155.693L201.49 157.924L190.168 162.177L194.042 162.828V162.826Z" fill="#A0D2F4"/>
<path d="M184.73 164.386L205.415 156.444L202.961 153.405L195.066 148.788L181.154 154.166L184.73 164.386Z" fill="#A0D2F4"/>
<path d="M196.923 157.084C196.784 157.084 196.648 157.017 196.564 156.893C196.43 156.694 196.483 156.425 196.682 156.293L196.917 156.134C197.714 155.599 198.572 155.156 199.467 154.82C200.54 154.414 201.916 153.897 202.112 153.824C203.105 153.454 203.951 153.126 204.701 152.837C207.156 151.883 208.64 151.308 210.885 151.029L211.248 150.984C211.584 150.942 211.876 150.751 212.051 150.462C212.226 150.173 212.257 149.827 212.138 149.512L212.092 149.39C211.914 148.914 211.437 148.629 210.93 148.688L210.62 148.725C209.209 148.898 207.877 149.062 205.981 149.776L204.079 150.492C202.246 151.182 200.209 151.241 198.34 150.655L196.868 150.195C196.64 150.124 196.513 149.88 196.585 149.652C196.656 149.424 196.9 149.296 197.127 149.369L198.599 149.829C200.285 150.356 202.124 150.305 203.777 149.681L205.678 148.965C207.671 148.216 209.117 148.039 210.516 147.868L210.825 147.83C211.727 147.72 212.581 148.235 212.901 149.085L212.946 149.207C213.16 149.774 213.103 150.393 212.791 150.911C212.479 151.43 211.955 151.771 211.354 151.843L210.991 151.889C208.85 152.154 207.486 152.683 205.011 153.645C204.259 153.936 203.41 154.267 202.413 154.639C202.216 154.712 200.842 155.229 199.771 155.634C198.939 155.947 198.14 156.358 197.4 156.858L197.164 157.017C197.09 157.066 197.007 157.09 196.923 157.09V157.084Z" fill="black"/>
<path d="M198.039 160.047C197.897 160.047 197.76 159.978 197.675 159.85C197.546 159.649 197.601 159.382 197.801 159.25L198.092 159.059C198.881 158.544 199.73 158.117 200.616 157.792L205.073 156.159C206.046 155.799 206.916 155.247 207.654 154.515L208.18 153.995C208.715 153.464 208.892 152.664 208.631 151.957C208.549 151.733 208.662 151.483 208.886 151.401C209.11 151.316 209.359 151.432 209.442 151.656C209.822 152.683 209.565 153.842 208.788 154.611L208.262 155.131C207.436 155.949 206.464 156.569 205.371 156.972L200.914 158.607C200.09 158.908 199.301 159.305 198.567 159.785L198.276 159.976C198.203 160.023 198.121 160.047 198.041 160.047H198.039Z" fill="black"/>
<path d="M182.864 166.224C182.701 166.224 182.544 166.131 182.472 165.972C182.372 165.756 182.466 165.498 182.684 165.397C182.966 165.268 183.504 164.961 184.13 164.609C187.103 162.925 189.887 161.437 191.256 161.721L191.321 161.738C193.539 162.569 195.48 162.781 197.427 162.401C197.776 162.279 198.149 162.157 198.536 162.03C201.551 161.04 205.305 159.807 205.056 156.48C205.038 156.242 205.217 156.034 205.454 156.016C205.692 155.998 205.9 156.177 205.917 156.415C206.216 160.417 201.933 161.825 198.805 162.852C198.412 162.98 198.035 163.104 197.682 163.228L197.623 163.243C195.511 163.66 193.423 163.442 191.052 162.561C189.853 162.352 186.413 164.308 184.554 165.36C183.887 165.738 183.359 166.037 183.045 166.182C182.986 166.21 182.925 166.222 182.864 166.222V166.224Z" fill="black"/>
<path d="M179.125 155.139C178.946 155.139 178.777 155.026 178.716 154.845C178.64 154.619 178.76 154.373 178.985 154.295C179.321 154.181 179.933 153.988 180.685 153.754C182.809 153.091 186.365 151.979 187.325 151.411C187.896 151.072 188.212 150.529 188.543 149.955C188.918 149.31 189.305 148.641 190.07 148.188C193.111 146.39 196.251 145.639 199.574 144.846C200.673 144.582 201.807 144.313 202.932 144C203.344 143.855 203.815 143.969 204.196 144.321C204.778 144.858 205.051 145.828 204.845 146.626L204.816 146.707C204.592 147.173 204.046 147.758 203.332 148.007C200.763 148.906 197.866 149.921 195.187 150.909C194.963 150.992 194.714 150.878 194.632 150.653C194.549 150.429 194.663 150.179 194.887 150.097C197.572 149.105 200.472 148.09 203.032 147.193C203.477 147.038 203.858 146.662 204.015 146.367C204.135 145.828 203.905 145.232 203.607 144.956C203.389 144.756 203.236 144.809 203.185 144.826C202.019 145.149 200.877 145.422 199.77 145.688C196.512 146.467 193.434 147.201 190.504 148.934C189.933 149.272 189.617 149.815 189.285 150.39C188.91 151.035 188.524 151.704 187.758 152.156C186.712 152.776 183.236 153.862 180.936 154.58C180.194 154.812 179.59 155.001 179.258 155.115C179.211 155.131 179.164 155.139 179.119 155.139H179.125Z" fill="black"/>
<path d="M182.864 165.791L179.125 154.706L184.026 153.213L187.71 163.242L182.864 165.791Z" fill="black"/>
<path d="M148.497 182.402L137.797 163.007L171.821 151.539C174.932 150.49 178.302 152.162 179.35 155.274L182.534 164.729C183.582 167.841 181.909 171.213 178.801 172.259L148.499 182.402H148.497Z" fill="#008BCE"/>
<path d="M95.5929 149.803C100.386 149.803 104.272 147.19 104.272 143.967C104.272 140.743 100.386 138.13 95.5929 138.13C90.7997 138.13 86.9141 140.743 86.9141 143.967C86.9141 147.19 90.7997 149.803 95.5929 149.803Z" fill="#6155FF"/>
<path d="M126.583 146.388C122.424 143.187 117.323 141.458 112.077 141.47L81.9937 141.539C70.8105 141.564 62.3868 152.065 65.1679 162.903C65.2268 163.131 65.2896 163.361 65.3563 163.587L72.942 188.423V194.071H120.281V169.119L135.001 180.448C142.002 185.836 152.184 183.419 156.017 175.457L158.272 170.773L126.585 146.386L126.583 146.388Z" fill="#008BCE"/>
<path d="M149.693 164.606C149.601 164.606 149.509 164.577 149.43 164.516L126.322 146.73C122.275 143.616 117.239 141.903 112.136 141.903H112.081L103.875 141.922C103.638 141.922 103.443 141.73 103.443 141.49C103.443 141.252 103.636 141.057 103.875 141.055L112.081 141.035C117.378 141.029 122.64 142.8 126.852 146.042L149.96 163.827C150.149 163.973 150.186 164.244 150.041 164.435C149.956 164.545 149.827 164.604 149.697 164.604L149.693 164.606Z" fill="black"/>
<path d="M72.9415 188.858C72.7021 188.858 72.5098 188.666 72.5098 188.426V156.028C72.5098 155.788 72.7041 155.595 72.9415 155.595C73.179 155.595 73.3733 155.788 73.3733 156.028V188.426C73.3733 188.666 73.179 188.858 72.9415 188.858Z" fill="black"/>
<path d="M120.279 169.556C120.04 169.556 119.848 169.363 119.848 169.123V153.421C119.848 153.181 120.042 152.988 120.279 152.988C120.517 152.988 120.711 153.181 120.711 153.421V169.123C120.711 169.363 120.517 169.556 120.279 169.556Z" fill="black"/>
<path d="M134.999 180.451L120.279 169.123V163.076L134.999 180.451Z" fill="black"/>
<path d="M143.431 183.781C140.32 183.781 137.29 182.761 134.737 180.795L120.017 169.466C119.828 169.321 119.791 169.049 119.936 168.858C120.082 168.669 120.353 168.632 120.543 168.78L135.263 180.109C138.717 182.766 143.1 183.587 147.286 182.357L178.663 171.848C180.058 171.378 181.187 170.391 181.84 169.071C182.492 167.753 182.594 166.26 182.123 164.867L178.94 155.414C177.97 152.534 174.836 150.978 171.958 151.95L145.153 160.985C144.927 161.06 144.682 160.94 144.605 160.712C144.528 160.486 144.65 160.24 144.876 160.163L171.682 151.128C175.012 150.006 178.635 151.802 179.758 155.135L182.941 164.587C183.485 166.201 183.367 167.93 182.614 169.454C181.858 170.983 180.551 172.124 178.936 172.669L147.543 183.183C146.179 183.585 144.797 183.781 143.429 183.781H143.431Z" fill="black"/>
<path d="M361.915 358.496H333.615V287.419C333.615 279.586 339.951 273.237 347.764 273.237C355.577 273.237 361.913 279.587 361.913 287.419V358.496H361.915Z" fill="#99B9FF"/>
<path d="M372.234 295.599V306.247H341.816V324.871H375.389C383.907 324.871 390.814 317.95 390.814 309.411V295.599C390.814 290.457 386.655 286.288 381.525 286.288C376.394 286.288 372.236 290.457 372.236 295.599H372.234Z" fill="#99B9FF"/>
<path d="M323.052 333.651H324.7V297.262C324.7 292.294 320.683 288.266 315.725 288.266C310.768 288.266 306.75 292.293 306.75 297.262V317.312C306.75 326.335 314.049 333.651 323.052 333.651Z" fill="#99B9FF"/>
<path d="M306.75 318.183L306.742 323.193C306.73 330.586 312.573 336.584 319.784 336.584H351.671V318.183H306.748H306.75Z" fill="#99B9FF"/>
<path d="M353.643 356.612C353.403 356.612 353.211 356.419 353.211 356.179V275.557C353.211 275.317 353.405 275.124 353.643 275.124C353.88 275.124 354.074 275.317 354.074 275.557V356.179C354.074 356.419 353.88 356.612 353.643 356.612Z" fill="#E4E4E4"/>
<path d="M361.914 324.83C361.675 324.83 361.482 324.637 361.482 324.397V306.6C361.482 306.36 361.677 306.167 361.914 306.167C362.152 306.167 362.346 306.36 362.346 306.6V324.397C362.346 324.637 362.152 324.83 361.914 324.83Z" fill="#E4E4E4"/>
<path d="M341.817 356.612C341.577 356.612 341.385 356.419 341.385 356.179V275.557C341.385 275.317 341.579 275.124 341.817 275.124C342.054 275.124 342.248 275.317 342.248 275.557V356.179C342.248 356.419 342.054 356.612 341.817 356.612Z" fill="#E4E4E4"/>
<path d="M333.297 336.481C333.058 336.481 332.865 336.289 332.865 336.049V318.922C332.865 318.682 333.06 318.489 333.297 318.489C333.534 318.489 333.729 318.682 333.729 318.922V336.049C333.729 336.289 333.534 336.481 333.297 336.481Z" fill="#E4E4E4"/>
<path d="M351.779 266.626C351.779 272.874 347.766 277.939 347.766 277.939C347.766 277.939 343.752 272.874 343.752 266.626C343.752 260.378 347.766 255.312 347.766 255.312C347.766 255.312 351.779 260.378 351.779 266.626Z" fill="#1E1E1E"/>
<path d="M356.941 271.987C353.479 276.509 347.766 277.94 347.766 277.94C347.766 277.94 347.668 272.04 351.13 267.517C354.592 262.995 360.305 261.564 360.305 261.564C360.305 261.564 360.403 267.464 356.941 271.987Z" fill="#1E1E1E"/>
<path d="M338.591 271.987C342.053 276.509 347.766 277.94 347.766 277.94C347.766 277.94 347.864 272.04 344.402 267.517C340.94 262.995 335.227 261.564 335.227 261.564C335.227 261.564 335.129 267.464 338.591 271.987Z" fill="#1E1E1E"/>
<path d="M369.582 392.567H327.106L322.49 356.075H374.2L369.582 392.567Z" fill="#A0D2F4"/>
<path d="M369.582 392.567H327.106L322.49 356.075H374.2L369.582 392.567Z" fill="white"/>
<path d="M369.582 393H327.106C326.888 393 326.706 392.837 326.678 392.622L322.062 356.13C322.046 356.007 322.084 355.883 322.166 355.79C322.249 355.696 322.366 355.643 322.49 355.643H374.2C374.324 355.643 374.441 355.696 374.524 355.79C374.606 355.885 374.643 356.007 374.628 356.13L370.012 392.622C369.984 392.839 369.8 393 369.584 393H369.582ZM327.487 392.134H369.201L373.709 356.508H322.981L327.489 392.134H327.487Z" fill="black"/>
</g>
</g>
<defs>
<clipPath id="clip0_2411_14202">
<rect width="427" height="425" fill="white"/>
</clipPath>
<clipPath id="clip1_2411_14202">
<rect width="359" height="360" fill="white" transform="translate(34 33)"/>
</clipPath>
</defs>
</svg>
