<svg width="427" height="425" viewBox="0 0 427 425" fill="none" xmlns="http://www.w3.org/2000/svg">
<g clip-path="url(#clip0_2408_13444)">
<path d="M400.041 382.57C388.531 392.16 338.441 398.94 278.761 401.49C187.021 405.42 72.6009 399.37 40.7909 378.2C25.7309 368.19 15.5509 337.25 9.1009 297.66C-6.9291 199.16 0.220901 47.1301 13.1609 30.6501C31.3109 7.56009 323.301 -15.3099 399.911 13.9301C432.741 26.4601 429.231 358.23 400.031 382.57H400.041Z" fill="white"/>
<path d="M373.314 247.44L375.204 241.883L377.358 247.44C377.358 247.44 381.657 248.14 381.712 248.531C381.757 248.913 377.595 250.095 377.595 250.095C377.595 250.095 375.85 255.488 375.204 254.27C374.568 253.051 373.95 250.35 373.95 250.35C373.95 250.35 368.533 249.268 368.533 248.731C368.533 248.158 373.314 247.449 373.314 247.449V247.44Z" fill="white"/>
<path d="M304.094 233.142L305.566 228.822L307.238 233.142C307.238 233.142 310.574 233.688 310.619 233.988C310.656 234.279 307.429 235.198 307.429 235.198C307.429 235.198 306.075 239.381 305.575 238.435C305.075 237.49 304.594 235.389 304.594 235.389C304.594 235.389 300.395 234.543 300.395 234.134C300.395 233.688 304.103 233.142 304.103 233.142H304.094Z" fill="white"/>
<g clip-path="url(#clip1_2408_13444)">
<mask id="mask0_2408_13444" style="mask-type:luminance" maskUnits="userSpaceOnUse" x="6" y="8" width="411" height="409">
<path d="M318.487 393.109C232.205 443.299 126.967 406.63 69.3675 348.984C-6.09481 273.456 -12.3378 149.352 40.9516 75.7802C63.1065 45.1893 109.365 2.80919 158.755 8.52231C200.616 13.3639 206.199 48.2094 275.897 102.807C354.924 164.712 389.077 152.291 407.52 191.346C435.003 249.544 393.365 349.553 318.487 393.107V393.109Z" fill="white"/>
</mask>
<g mask="url(#mask0_2408_13444)">
<path d="M420.508 215.593L275.755 307.919C271.528 310.616 270.284 316.233 272.976 320.468L320.117 394.559C322.811 398.791 328.42 400.037 332.65 397.342L420.508 341.304V215.593Z" fill="white"/>
<path d="M327.789 399.255C324.625 399.255 321.526 397.689 319.704 394.825L272.564 320.734C269.729 316.278 271.045 310.345 275.493 307.507L420.246 215.181C420.398 215.084 420.589 215.077 420.747 215.165C420.904 215.252 421.003 215.416 421.003 215.597V341.308C421.003 341.476 420.918 341.633 420.774 341.723L332.915 397.76C331.327 398.773 329.548 399.257 327.789 399.257V399.255ZM420.018 216.489L276.021 308.333C272.029 310.881 270.85 316.204 273.392 320.201L320.532 394.292C323.077 398.289 328.393 399.47 332.387 396.925L420.018 341.03V216.487V216.489Z" fill="black"/>
<path d="M282.19 321.991C282.029 321.991 281.87 321.91 281.776 321.765C281.631 321.536 281.698 321.231 281.926 321.086C289.232 316.417 296.545 311.725 303.866 307.027C321.3 295.841 339.328 284.273 357.151 273.107C357.379 272.963 357.684 273.033 357.829 273.264C357.972 273.494 357.903 273.797 357.672 273.942C339.854 285.107 321.83 296.674 304.396 307.858C297.075 312.556 289.76 317.248 282.456 321.917C282.374 321.968 282.282 321.995 282.192 321.995L282.19 321.991Z" fill="black"/>
<path d="M285.495 309.998C286.186 311.082 285.866 312.523 284.783 313.215C283.7 313.908 282.262 313.587 281.57 312.503C280.879 311.418 281.199 309.978 282.282 309.285C283.365 308.593 284.804 308.914 285.495 309.998Z" fill="black"/>
<path d="M293.347 304.988C294.038 306.075 293.718 307.513 292.635 308.205C291.55 308.898 290.113 308.577 289.422 307.493C288.73 306.409 289.05 304.968 290.133 304.276C291.216 303.583 292.655 303.904 293.347 304.988Z" fill="black"/>
<path d="M301.198 299.98C301.89 301.065 301.57 302.505 300.487 303.198C299.404 303.89 297.965 303.57 297.273 302.485C296.582 301.401 296.902 299.96 297.985 299.268C299.068 298.576 300.507 298.896 301.198 299.98Z" fill="black"/>
<path d="M327.699 283.57C327.529 283.57 327.366 283.482 327.274 283.325C327.138 283.09 327.216 282.79 327.451 282.653C333.054 279.389 338.422 275.833 343.611 272.396C348.037 269.466 352.613 266.437 357.263 263.636C357.496 263.497 357.798 263.571 357.939 263.804C358.077 264.037 358.004 264.34 357.771 264.479C353.139 267.268 348.572 270.29 344.155 273.217C338.952 276.66 333.573 280.222 327.945 283.502C327.867 283.547 327.782 283.57 327.699 283.57Z" fill="black"/>
<path d="M305.909 297.467C305.748 297.467 305.589 297.386 305.495 297.239C305.349 297.01 305.416 296.705 305.645 296.56L315.394 290.343C315.622 290.197 315.927 290.264 316.072 290.493C316.218 290.721 316.15 291.026 315.922 291.172L306.173 297.389C306.092 297.44 306.001 297.465 305.909 297.465V297.467Z" fill="black"/>
<path d="M327.171 380.536C327.135 380.536 327.099 380.531 327.063 380.524C326.936 380.495 326.826 380.419 326.755 380.309L294.696 329.922C294.551 329.693 294.618 329.389 294.846 329.243L345.17 297.144C345.28 297.075 345.412 297.05 345.542 297.079C345.669 297.109 345.779 297.185 345.851 297.294L377.909 347.682C378.055 347.91 377.988 348.215 377.76 348.361L327.435 380.459C327.354 380.511 327.263 380.536 327.171 380.536ZM295.792 329.808L327.321 379.366L376.817 347.796L345.289 298.238L295.792 329.808Z" fill="#008BCE"/>
<path d="M365.685 284.633L354.695 291.643L361.697 302.647L372.687 295.638L365.685 284.633Z" fill="#008BCE"/>
<path d="M420.507 249.679L373.203 279.851L380.205 290.853L420.507 265.147V249.679Z" fill="#008BCE"/>
<path d="M378.212 304.322L367.223 311.332L374.224 322.335L385.213 315.325L378.212 304.322Z" fill="#008BCE"/>
<path d="M420.508 277.361L385.732 299.542L392.734 310.547L420.508 292.829V277.361Z" fill="#008BCE"/>
<path d="M390.741 324.014L379.752 331.023L386.753 342.026L397.742 335.017L390.741 324.014Z" fill="#008BCE"/>
<path d="M420.506 305.042L398.26 319.233L405.259 330.238L420.506 320.512V305.042Z" fill="white"/>
</g>
<path d="M116.795 378.688L115.658 374.532L110.962 374.745C110.525 373.829 110.022 372.962 109.453 372.151L111.939 368.163L108.878 365.131L104.918 367.667C104.092 367.101 103.222 366.605 102.315 366.182L102.476 361.477L98.3122 360.384L96.1507 364.558C95.1638 364.479 94.1591 364.488 93.1522 364.58L90.9436 360.424L86.7928 361.562L87.0054 366.265C86.0924 366.702 85.2242 367.206 84.4142 367.775L80.4312 365.286L77.4037 368.351L79.9367 372.316C79.3706 373.143 78.8738 374.015 78.4531 374.922L73.7541 374.761L72.6621 378.93L76.8308 381.094C76.7525 382.082 76.7615 383.088 76.8532 384.097L72.7024 386.308L73.8391 390.464L78.5359 390.251C78.9723 391.167 79.4757 392.034 80.0441 392.845L77.5581 396.833L80.6192 399.865L84.5798 397.329C85.4055 397.895 86.2759 398.393 87.1822 398.814L87.0211 403.519L91.1853 404.612L93.3469 400.438C94.3337 400.517 95.3384 400.508 96.3453 400.416L98.5539 404.572L102.705 403.434L102.492 398.731C103.407 398.294 104.273 397.79 105.083 397.221L109.066 399.71L112.094 396.645L109.561 392.68C110.127 391.853 110.624 390.981 111.044 390.074L115.743 390.235L116.835 386.066L112.667 383.902C112.745 382.914 112.736 381.908 112.644 380.899L116.795 378.688ZM97.6767 393.197C91.7738 394.815 85.6785 391.335 84.0629 385.427C82.4473 379.517 85.9224 373.414 91.823 371.797C97.726 370.179 103.821 373.658 105.437 379.566C107.052 385.477 103.577 391.58 97.6767 393.197Z" fill="black"/>
<path d="M185.625 335.631L183.68 328.518L175.645 328.883C174.9 327.317 174.038 325.831 173.063 324.442L177.319 317.618L172.083 312.431L165.305 316.771C163.893 315.803 162.405 314.952 160.852 314.23L161.129 306.178L154.005 304.308L150.308 311.45C148.619 311.318 146.902 311.331 145.177 311.486L141.398 304.375L134.293 306.322L134.658 314.367C133.094 315.113 131.61 315.976 130.223 316.953L123.407 312.691L118.227 317.934L122.561 324.72C121.595 326.134 120.744 327.624 120.024 329.179L111.982 328.901L110.113 336.034L117.247 339.736C117.115 341.427 117.128 343.146 117.283 344.873L110.18 348.657L112.125 355.77L120.16 355.405C120.905 356.971 121.767 358.457 122.743 359.846L118.489 366.67L123.725 371.857L130.503 367.517C131.915 368.487 133.403 369.336 134.956 370.058L134.678 378.11L141.803 379.981L145.499 372.838C147.189 372.97 148.905 372.957 150.63 372.802L154.41 379.913L161.514 377.966L161.149 369.921C162.714 369.175 164.197 368.312 165.584 367.336L172.4 371.595L177.58 366.352L173.244 359.566C174.213 358.152 175.061 356.662 175.781 355.107L183.823 355.385L185.692 348.252L178.558 344.55C178.69 342.859 178.677 341.14 178.523 339.413L185.625 335.629V335.631ZM152.908 360.46C142.807 363.229 132.378 357.276 129.612 347.163C126.846 337.049 132.792 326.607 142.893 323.837C152.993 321.068 163.423 327.021 166.189 337.135C168.954 347.248 163.009 357.691 152.908 360.46Z" fill="#008BCE"/>
<path d="M10.0461 183.533L94.365 347.19C86.1417 331.227 107.585 302.386 146.742 271.96C151.436 268.313 152.846 261.818 150.12 256.528L77.3455 115.278C73.7787 108.355 64.7699 106.392 58.6858 111.247C21.9101 140.579 2.08685 168.087 10.0461 183.533Z" fill="white"/>
<path d="M94.3655 347.683C94.1865 347.683 94.0164 347.586 93.9291 347.416L9.61025 183.759C5.68319 176.139 8.30347 165.266 17.1869 152.319C25.7101 139.893 39.9549 125.559 58.3819 110.862C61.3893 108.465 65.2716 107.55 69.0398 108.359C72.8237 109.17 76.0123 111.61 77.7845 115.054L150.562 256.307C153.401 261.816 151.922 268.564 147.046 272.353C127.512 287.531 112.347 302.377 103.188 315.286C93.8329 328.475 90.9307 339.424 94.7951 346.95L94.804 346.966C94.9294 347.208 94.8331 347.504 94.5937 347.629C94.5221 347.667 94.4438 347.685 94.3699 347.685L94.3655 347.683ZM10.4829 183.309L92.3001 342.109C90.1878 325.794 109.763 300.076 146.442 271.575C150.944 268.078 152.307 261.847 149.687 256.757L76.9096 115.504C75.2717 112.325 72.3269 110.071 68.8317 109.323C65.3544 108.577 61.7675 109.419 58.9928 111.633C21.0759 141.876 2.93984 168.67 10.4829 183.309Z" fill="black"/>
<path d="M8.72376 192.674L93.0426 356.331C84.8193 340.368 106.263 311.526 145.419 281.101C150.114 277.454 151.523 270.959 148.798 265.669L76.0209 124.416C72.4541 117.493 63.4453 115.531 57.3612 120.386C20.59 149.72 0.764464 177.228 8.72376 192.674Z" fill="white"/>
<path d="M93.0454 356.823C92.8664 356.823 92.6964 356.727 92.6091 356.557L8.28799 192.9C4.36092 185.28 6.9812 174.407 15.8646 161.46C24.3878 149.034 38.6327 134.7 57.0574 120.002C60.0648 117.605 63.9494 116.693 67.7153 117.5C71.4992 118.311 74.6878 120.751 76.46 124.194L149.237 265.447C152.077 270.956 150.598 277.705 145.722 281.493C126.187 296.672 111.023 311.517 101.864 324.427C92.5017 337.625 89.6017 348.581 93.4795 356.106C93.6048 356.348 93.5086 356.644 93.2692 356.77C93.1976 356.808 93.1193 356.826 93.0454 356.826V356.823ZM9.16067 192.449L90.9778 351.247C88.8655 334.932 108.44 309.214 145.12 280.714C149.622 277.216 150.985 270.986 148.364 265.895L75.5873 124.642C73.9494 121.463 71.0046 119.209 67.5094 118.461C64.0322 117.715 60.4452 118.557 57.6705 120.771C19.7537 151.017 1.61981 177.81 9.16067 192.449Z" fill="black"/>
<path d="M202.336 45.6023L275.234 187.088C278.1 192.651 284.666 195.196 290.526 193.014C350.625 170.632 398.665 166.223 408.347 185.016L324.026 21.3586C314.5 2.87046 267.841 6.84052 209.098 28.2905C202.099 30.8468 198.919 38.9706 202.334 45.6023H202.336Z" fill="white"/>
<path d="M286.228 194.284C281.538 194.284 277.056 191.701 274.796 187.314L201.9 45.8282C200.208 42.546 200.009 38.6902 201.352 35.2467C202.697 31.8009 205.46 29.0967 208.933 27.8286C238.25 17.1238 264.549 10.7363 284.988 9.35617C306.107 7.93125 319.761 12.0021 324.465 21.1319L408.783 184.789C408.909 185.031 408.813 185.327 408.571 185.452C408.329 185.578 408.034 185.481 407.909 185.242C403.321 176.338 389.647 172.476 368.378 174.066C347.452 175.632 320.589 182.345 290.696 193.475C289.228 194.022 287.718 194.282 286.228 194.282V194.284ZM202.773 45.3757L275.671 186.862C278.421 192.198 284.735 194.645 290.354 192.552C347.251 171.362 390.918 166.962 405.411 180.391L323.59 21.5845C314.48 3.90518 269.606 6.71917 209.268 28.7539C206.062 29.9256 203.509 32.4215 202.267 35.6051C201.027 38.7843 201.211 42.3444 202.773 45.3757Z" fill="black"/>
<path d="M201.014 54.7429L273.912 196.229C276.778 201.792 283.343 204.337 289.204 202.155C349.302 179.773 397.342 175.364 407.025 194.156L322.703 30.4992C313.178 12.0111 266.519 15.9811 207.776 37.4311C200.777 39.9874 197.597 48.1113 201.012 54.7429H201.014Z" fill="white"/>
<path d="M284.905 203.425C280.215 203.425 275.733 200.841 273.473 196.455L200.578 54.9689C198.886 51.6866 198.687 47.8308 200.029 44.3873C201.374 40.9415 204.138 38.2373 207.611 36.9692C236.928 26.2644 263.227 19.8769 283.666 18.4968C304.794 17.0719 318.441 21.1428 323.142 30.2725L407.461 193.93C407.586 194.172 407.49 194.467 407.249 194.593C407.007 194.718 406.712 194.622 406.586 194.382C401.999 185.479 388.329 181.616 367.056 183.207C346.13 184.773 319.267 191.485 289.374 202.616C287.906 203.163 286.396 203.422 284.905 203.422V203.425ZM201.45 54.5163L274.348 196.002C277.098 201.339 283.411 203.785 289.032 201.693C345.928 180.505 389.596 176.103 404.089 189.532L322.267 30.7251C313.158 13.0458 268.286 15.8598 207.946 37.8945C204.74 39.0662 202.187 41.5643 200.945 44.7458C199.705 47.9249 199.888 51.485 201.45 54.5163Z" fill="black"/>
<path d="M287.043 108.433C285.326 109.006 283.556 109.521 281.726 109.965C270.052 112.797 267.671 109.972 237.143 108.908C199.853 107.606 187.237 111.256 178.448 115.109C173.435 117.307 169.468 119.659 162.509 123.782C138.839 137.809 132.78 146.652 126.617 144.654C125.205 144.197 123.789 143.164 122.511 141.183C113.039 148.33 102.247 146.749 96.3418 145.019C96.344 146.356 96.4 147.719 96.523 149.106C96.8766 153.116 97.4942 160.137 101.804 166.057C111.081 178.8 133.966 181.63 158.403 173.293C156.857 176.649 144.386 204.895 159.083 231.166C174.265 258.304 207.483 263.755 229.316 260.03C264.926 253.953 293.391 219.516 288.526 199.022C287.689 195.496 284.002 190.401 276.662 180.353C267.982 168.472 260.131 159.214 254.586 152.986C260.549 152.621 281.146 150.629 299.09 134.079C300.719 132.576 302.223 131.043 303.621 129.495C293.409 126.072 288.931 115.526 287.038 108.433H287.043Z" fill="#A0D2F4"/>
<path d="M216.595 261.566C208.06 261.566 199.372 260.231 191.553 257.637C176.917 252.782 165.541 243.71 158.655 231.403C145.037 207.061 154.413 181.242 157.499 174.113C133.106 182.132 110.66 179.055 101.408 166.345C97.0174 160.314 96.402 153.324 96.0351 149.148C95.9165 147.81 95.856 146.421 95.8516 145.021C95.8516 144.866 95.9232 144.719 96.0485 144.627C96.1715 144.533 96.3327 144.503 96.4826 144.548C102.068 146.184 112.838 147.871 122.218 140.791C122.327 140.708 122.466 140.677 122.6 140.699C122.735 140.724 122.853 140.802 122.927 140.917C124.023 142.615 125.317 143.715 126.771 144.188C130.177 145.292 133.73 142.722 140.813 137.603C145.773 134.018 152.565 129.107 162.26 123.36C169.322 119.175 173.211 116.87 178.253 114.661C186.736 110.942 198.982 107.086 237.163 108.419C249.396 108.847 257.098 109.553 262.722 110.07C271.187 110.848 274.691 111.17 281.612 109.49C283.35 109.069 285.125 108.556 286.888 107.969C287.018 107.926 287.157 107.937 287.277 108.002C287.396 108.067 287.483 108.177 287.519 108.309C289.56 115.96 294.04 125.764 303.782 129.031C303.939 129.085 304.06 129.212 304.102 129.374C304.145 129.535 304.102 129.705 303.99 129.829C302.527 131.446 300.992 133.001 299.428 134.444C283.514 149.123 265.536 152.659 255.624 153.411C263.106 161.867 270.316 170.829 277.065 180.064C284.74 190.571 288.168 195.366 289.009 198.91C290.82 206.537 288.213 216.193 281.67 226.1C270.139 243.558 249.622 257.065 229.403 260.516C225.266 261.221 220.951 261.569 216.597 261.569L216.595 261.566ZM158.403 172.8C158.539 172.8 158.673 172.858 158.767 172.964C158.899 173.109 158.931 173.32 158.848 173.499C156.474 178.648 145.353 205.618 159.51 230.924C173.726 256.335 205.619 263.571 229.231 259.543C249.195 256.135 269.455 242.794 280.842 225.554C287.235 215.877 289.793 206.494 288.047 199.134C287.217 195.632 283.326 190.309 276.264 180.642C269.336 171.158 261.918 161.963 254.219 153.313C254.093 153.172 254.06 152.972 254.131 152.798C254.203 152.623 254.368 152.506 254.556 152.495C264.091 151.913 282.514 148.698 298.757 133.716C300.124 132.454 301.466 131.11 302.76 129.71C293.301 126.161 288.817 116.682 286.702 109.062C285.076 109.591 283.442 110.057 281.84 110.444C274.76 112.163 270.961 111.813 262.628 111.047C257.016 110.532 249.331 109.826 237.123 109.398C199.152 108.072 187.027 111.883 178.642 115.559C173.657 117.746 169.786 120.04 162.757 124.205C153.099 129.929 146.328 134.825 141.383 138.398C134.032 143.713 130.343 146.379 126.465 145.122C124.921 144.62 123.551 143.533 122.39 141.884C113.113 148.612 102.667 147.266 96.8384 145.671C96.8563 146.82 96.9144 147.958 97.0107 149.06C97.3687 153.136 97.9684 159.956 102.198 165.765C111.329 178.309 133.853 181.146 158.242 172.825C158.293 172.807 158.347 172.798 158.4 172.798L158.403 172.8Z" fill="#008BCE"/>
<path d="M332.568 82.9587L329.38 84.9975L334.256 76.2105C334.493 75.7826 334.508 75.2673 334.3 74.8259C333.824 73.82 332.461 73.6542 331.758 74.5167L325.28 82.4703L329.74 71.2435C330.107 70.3204 329.758 69.2652 328.912 68.7454C327.845 68.0867 326.444 68.537 325.956 69.6931L321.693 79.8221L323.168 70.9903C323.343 69.9373 322.562 68.9112 321.497 68.9201C320.834 68.9268 320.194 69.31 319.941 70.6072C319.337 73.7236 316.182 86.1872 316.182 86.1872C316.182 86.1872 314.813 85.6943 313.045 83.297C311.277 80.8975 310.554 82.2238 310.554 82.2238C309.474 85.8825 312.094 89.8794 314.005 92.1803C307.54 98.0727 298.576 104.581 287.039 108.43C288.932 115.523 293.407 126.069 303.622 129.493C314.804 117.123 318.921 103.793 320.463 97.0779C324.969 95.2229 332.597 86.8795 334.291 84.9841C334.513 84.7376 334.632 84.4195 334.632 84.0901C334.632 83.0282 333.459 82.3851 332.566 82.9565L332.568 82.9587Z" fill="white"/>
<path d="M303.623 129.985C303.572 129.985 303.518 129.977 303.466 129.961C293.31 126.558 288.669 116.444 286.566 108.56C286.498 108.309 286.639 108.049 286.886 107.966C296.252 104.841 305.145 99.5155 313.33 92.131C311.193 89.4627 309.027 85.6674 310.085 82.0872C310.097 82.0536 310.108 82.0222 310.126 81.9908C310.157 81.9326 310.457 81.4173 311.115 81.3725C311.84 81.3232 312.596 81.8586 313.444 83.008C314.469 84.3993 315.348 85.114 315.865 85.4545C316.507 82.9049 318.946 73.1881 319.463 70.5175C319.812 68.714 320.886 68.4362 321.495 68.4317C321.502 68.4317 321.506 68.4317 321.513 68.4317C322.131 68.4317 322.721 68.7073 323.133 69.1912C323.578 69.7132 323.769 70.3988 323.657 71.0754L322.874 75.7624L325.507 69.5049C325.796 68.8215 326.364 68.2995 327.069 68.0732C327.776 67.8469 328.541 67.941 329.172 68.3286C330.224 68.9761 330.654 70.2801 330.197 71.4294L326.917 79.6877L331.379 74.2098C331.817 73.6721 332.491 73.4032 333.173 73.4861C333.86 73.569 334.449 73.9925 334.744 74.6198C335.022 75.2045 334.999 75.8901 334.686 76.4547L330.754 83.539L332.305 82.5465C332.878 82.179 333.576 82.1566 334.174 82.4837C334.771 82.8108 335.127 83.4135 335.127 84.0946C335.127 84.5472 334.961 84.9818 334.661 85.3179C332.556 87.6726 325.424 95.4066 320.889 97.4386C318.908 105.921 314.373 118.344 303.99 129.829C303.896 129.934 303.762 129.99 303.625 129.99L303.623 129.985ZM287.637 108.751C289.712 116.252 294.129 125.623 303.475 128.923C313.661 117.551 318.076 105.285 319.985 96.9704C320.021 96.8158 320.13 96.6859 320.278 96.6254C324.715 94.7972 332.426 86.335 333.927 84.6569C334.066 84.5024 334.142 84.3007 334.142 84.0901C334.142 83.7742 333.977 83.4942 333.699 83.3418C333.422 83.1895 333.1 83.2007 332.831 83.3709L329.642 85.4097C329.452 85.5307 329.206 85.5083 329.04 85.3537C328.877 85.1991 328.839 84.9527 328.949 84.7555L333.825 75.9685C333.983 75.6795 333.997 75.33 333.856 75.032C333.701 74.7072 333.411 74.4966 333.055 74.454C332.697 74.4114 332.366 74.5459 332.14 74.8237L325.662 82.7772C325.509 82.9654 325.241 83.0147 325.031 82.8915C324.82 82.7683 324.733 82.5106 324.823 82.2866L329.282 71.0597C329.562 70.3562 329.298 69.5586 328.653 69.1621C328.266 68.9246 327.796 68.8663 327.364 69.0053C326.933 69.1442 326.584 69.4623 326.407 69.8813L322.144 80.0103C322.048 80.241 321.795 80.362 321.553 80.2926C321.314 80.2231 321.164 79.9856 321.206 79.7392L322.681 70.9074C322.746 70.5243 322.632 70.121 322.381 69.8253C322.151 69.5564 321.817 69.4063 321.5 69.4108C321.274 69.4108 320.672 69.4175 320.423 70.699C319.824 73.7931 316.787 85.7973 316.66 86.3059C316.626 86.4403 316.537 86.5546 316.413 86.6196C316.29 86.6845 316.147 86.6957 316.017 86.6487C315.957 86.6263 314.485 86.0774 312.65 83.586C311.777 82.4008 311.294 82.3403 311.177 82.3471C311.09 82.3538 311.032 82.4031 311.003 82.4322C310.027 85.9183 312.694 89.8301 314.379 91.8599C314.547 92.0616 314.527 92.3618 314.332 92.5388C306.08 100.06 297.098 105.511 287.633 108.744L287.637 108.751Z" fill="#008BCE"/>
<path d="M117.584 112.94C119.683 109.512 119.081 101.274 116.736 97.2724C114.361 93.2217 106.205 81.6387 106.205 81.6387C102.171 84.7932 108.183 94.1045 108.183 94.1045C101.211 98.5741 105.12 103.319 105.12 103.319C102.307 109.176 105.892 111.172 108.036 111.824C103.381 118.082 96.3059 129.934 96.3439 145.021C102.251 146.75 113.041 148.332 122.513 141.185C119.853 137.06 117.789 128.802 117.584 112.94Z" fill="white"/>
<path d="M106.219 146.97C102.236 146.97 98.7139 146.226 96.2033 145.492C95.9952 145.431 95.8498 145.238 95.8498 145.021C95.814 130.839 101.929 119.357 107.239 112.069C106.029 111.596 104.668 110.74 103.997 109.212C103.308 107.642 103.494 105.679 104.547 103.374C104.147 102.78 103.288 101.225 103.599 99.2355C103.903 97.2998 105.217 95.5254 107.51 93.9593C106.358 92.0527 102.023 84.2828 105.899 81.2515C106.004 81.1686 106.141 81.1328 106.273 81.153C106.405 81.1731 106.526 81.2471 106.602 81.3568C106.682 81.4733 114.798 93.0049 117.154 97.0264C119.423 100.898 120.251 109.3 118.072 113.075C118.26 126.856 119.891 136.225 122.921 140.921C123.062 141.138 123.01 141.425 122.804 141.58C117.313 145.722 111.379 146.973 106.215 146.973L106.219 146.97ZM96.8343 144.649C102.437 146.229 112.755 147.685 121.856 141.058C118.871 136.075 117.268 126.623 117.092 112.945C117.092 112.853 117.116 112.761 117.163 112.68C119.081 109.548 118.627 101.471 116.311 97.5193C114.243 93.9907 107.665 84.5741 106.125 82.3807C103.297 85.542 108.537 93.7509 108.593 93.8361C108.665 93.9459 108.689 94.0803 108.66 94.208C108.633 94.3357 108.555 94.4477 108.445 94.5172C106.15 95.9891 104.847 97.6269 104.57 99.3834C104.245 101.456 105.483 102.988 105.494 103.004C105.615 103.152 105.642 103.358 105.559 103.53C104.525 105.681 104.304 107.46 104.897 108.813C105.541 110.281 107.034 111.002 108.175 111.35C108.327 111.397 108.448 111.515 108.499 111.665C108.548 111.818 108.522 111.986 108.428 112.114C103.165 119.187 96.9059 130.55 96.8343 144.647V144.649Z" fill="#008BCE"/>
<path d="M112.531 109.889C112.416 109.889 112.302 109.848 112.211 109.768C112.07 109.647 108.798 106.759 110.309 103.519C111.512 100.934 111.329 100.633 110.309 98.9665L110.174 98.747C108.87 96.6029 110.134 94.7008 110.188 94.6201C110.268 94.5014 110.396 94.4252 110.539 94.4073C110.682 94.3916 110.823 94.4386 110.928 94.535L115.632 98.8904C115.831 99.0741 115.844 99.3855 115.659 99.5849C115.473 99.7843 115.164 99.7955 114.965 99.6118L110.747 95.7067C110.548 96.2691 110.396 97.2145 111.013 98.2339L111.145 98.4513C112.293 100.329 112.562 101.001 111.197 103.934C110.002 106.497 112.824 108.999 112.853 109.024C113.056 109.203 113.079 109.512 112.902 109.718C112.806 109.83 112.669 109.889 112.531 109.889Z" fill="#008BCE"/>
<path d="M107.96 106.042C107.408 106.042 106.859 105.827 106.452 105.408L104.765 103.663C104.577 103.468 104.581 103.156 104.776 102.968C104.971 102.78 105.282 102.784 105.472 102.979L107.159 104.725C107.557 105.137 108.218 105.175 108.663 104.812C108.873 104.64 109.182 104.671 109.354 104.882C109.527 105.092 109.495 105.401 109.285 105.574C108.9 105.89 108.43 106.044 107.96 106.044V106.042Z" fill="#008BCE"/>
<path d="M269.296 359.816C269.397 360.383 286.707 385.413 286.707 385.413L272.735 389.072L258.965 367.512L269.296 359.816Z" fill="white"/>
<path d="M272.736 389.563C272.57 389.563 272.414 389.48 272.322 389.337L258.552 367.777C258.413 367.559 258.467 367.27 258.672 367.118L269.004 359.422C269.14 359.321 269.319 359.297 269.478 359.36C269.612 359.413 269.717 359.523 269.762 359.66C270.234 360.625 280.378 375.394 287.113 385.131C287.205 385.263 287.225 385.431 287.169 385.582C287.113 385.732 286.988 385.846 286.833 385.886L272.861 389.545C272.821 389.556 272.779 389.561 272.736 389.561V389.563ZM259.626 367.633L272.958 388.505L285.905 385.116C278.93 375.029 270.915 363.368 269.163 360.531L259.626 367.633Z" fill="#008BCE"/>
<path d="M272.66 382.057C272.66 382.057 274.284 374.74 282.262 376.835C282.262 376.835 299.266 393.995 307.162 409.256C309.395 413.574 305.441 418.525 300.736 417.331C289.722 414.537 272.024 407.706 259.697 391.393C259.697 391.393 261.221 383.509 265.153 379.295L272.662 382.057H272.66Z" fill="white"/>
<path d="M302.153 418.001C301.645 418.001 301.128 417.938 300.615 417.808C288.438 414.719 271.387 407.679 259.304 391.689C259.219 391.577 259.188 391.436 259.214 391.299C259.277 390.972 260.81 383.227 264.793 378.959C264.927 378.814 265.137 378.767 265.321 378.834L272.336 381.415C272.667 380.42 273.587 378.287 275.699 376.997C277.516 375.888 279.765 375.672 282.385 376.36C282.47 376.383 282.546 376.427 282.609 376.49C282.779 376.663 299.756 393.878 307.597 409.033C308.716 411.197 308.467 413.733 306.946 415.653C305.746 417.168 303.996 418.003 302.15 418.003L302.153 418.001ZM260.224 391.273C272.126 406.909 288.877 413.814 300.857 416.852C302.853 417.358 304.891 416.664 306.178 415.039C307.456 413.426 307.666 411.298 306.726 409.483C299.255 395.046 283.381 378.681 282.007 377.279C279.716 376.703 277.769 376.889 276.221 377.832C273.813 379.297 273.148 382.138 273.142 382.167C273.11 382.306 273.021 382.423 272.898 382.492C272.772 382.56 272.625 382.571 272.493 382.521L265.294 379.873C262.011 383.597 260.494 390.029 260.226 391.277L260.224 391.273Z" fill="#008BCE"/>
<path d="M300.602 412.501C294.596 412.501 281.631 409.834 262.859 391.709C262.665 391.521 262.658 391.21 262.846 391.015C263.034 390.82 263.345 390.813 263.542 391.001C289.08 415.66 303.922 411.159 304.07 411.111C304.327 411.026 304.605 411.167 304.69 411.423C304.775 411.681 304.636 411.958 304.379 412.043C304.206 412.102 302.924 412.501 300.602 412.501Z" fill="#008BCE"/>
<path d="M289.029 398.962C288.89 398.962 288.752 398.904 288.655 398.789C288.481 398.583 288.505 398.272 288.711 398.095L294.809 392.91C295.017 392.736 295.326 392.76 295.503 392.966C295.677 393.172 295.652 393.484 295.447 393.659L289.349 398.843C289.257 398.921 289.143 398.96 289.031 398.96L289.029 398.962Z" fill="#008BCE"/>
<path d="M284.719 394.458C284.574 394.458 284.43 394.393 284.334 394.272C284.166 394.06 284.202 393.75 284.415 393.582L291.078 388.297C291.291 388.129 291.6 388.165 291.77 388.378C291.938 388.591 291.902 388.9 291.689 389.068L285.026 394.353C284.936 394.425 284.826 394.458 284.721 394.458H284.719Z" fill="#008BCE"/>
<path d="M226.537 302.828L214.941 311.743L225.123 325.593L235.977 315.231L226.537 302.828Z" fill="white"/>
<path d="M225.123 326.086C225.109 326.086 225.093 326.086 225.08 326.086C224.939 326.075 224.812 326.001 224.727 325.887L214.545 312.037C214.386 311.821 214.429 311.517 214.641 311.355L226.237 302.441C226.34 302.362 226.472 302.326 226.602 302.344C226.731 302.362 226.848 302.43 226.928 302.535L236.371 314.936C236.523 315.135 236.501 315.417 236.32 315.59L225.465 325.952C225.373 326.039 225.252 326.089 225.125 326.089L225.123 326.086ZM215.622 311.839L225.187 324.852L235.32 315.178L226.443 303.518L215.622 311.837V311.839Z" fill="#008BCE"/>
<path d="M232.019 323.97L221.242 315.23L219.213 307.906C213.554 307.767 207.201 311.988 203.717 314.703C202.104 315.96 201.578 318.169 202.48 320.006C208.228 331.699 221.191 349.941 227.465 358.531C229.045 360.695 232.471 359.996 233.023 357.37C235.794 344.221 232.019 323.967 232.019 323.967V323.97Z" fill="white"/>
<path d="M229.971 360.309C228.832 360.309 227.765 359.776 227.069 358.824C220.15 349.351 207.7 331.741 202.039 320.225C201.043 318.198 201.623 315.713 203.415 314.315C206.747 311.719 213.151 307.41 218.942 307.41C219.036 307.41 219.132 307.41 219.226 307.415C219.443 307.419 219.629 307.567 219.687 307.775L221.674 314.947L232.33 323.588C232.422 323.662 232.482 323.765 232.504 323.88C232.542 324.083 236.266 344.382 233.507 357.475C233.214 358.871 232.16 359.924 230.759 360.224C230.495 360.28 230.231 360.309 229.971 360.309ZM218.839 308.396C213.368 308.445 207.232 312.59 204.019 315.093C202.592 316.206 202.131 318.18 202.92 319.791C208.548 331.239 220.963 348.796 227.864 358.243C228.486 359.095 229.517 359.487 230.551 359.263C231.567 359.043 232.33 358.282 232.542 357.271C235.125 345.014 231.927 326.259 231.567 324.236L220.931 315.612C220.853 315.547 220.795 315.46 220.768 315.361L218.837 308.396H218.839Z" fill="#008BCE"/>
<path d="M228.405 353.785C228.251 353.785 228.097 353.711 228 353.574L210.833 328.802C209.656 327.106 209.135 324.971 209.359 322.795C209.786 318.67 208.121 314.436 208.105 314.393C208.005 314.14 208.128 313.856 208.378 313.755C208.631 313.654 208.918 313.777 209.016 314.03C209.088 314.212 210.786 318.534 210.334 322.898C210.133 324.841 210.596 326.738 211.639 328.242L228.806 353.014C228.96 353.238 228.904 353.543 228.683 353.7C228.598 353.758 228.499 353.787 228.403 353.787L228.405 353.785Z" fill="#008BCE"/>
<path d="M238.09 185.201C238.09 185.201 271.198 211.376 288.717 235.875C293.613 242.722 294.304 251.733 290.59 259.288C282.525 275.69 265.085 305.103 238.09 319.773L215.421 290.771C215.421 290.771 235.244 268.826 249.818 258.829L212.657 217.125L203.418 196.182L238.092 185.201H238.09Z" fill="#008BCE"/>
<path d="M254.022 380.695C255.197 382.767 281.899 363.221 281.899 363.221C281.899 363.221 261.469 339.28 229.003 217.591C228.625 216.175 222.639 186.415 222.639 186.415L178.273 209.698C178.273 209.698 186.069 260.907 254.022 380.692V380.695Z" fill="#008BCE"/>
<path d="M234.335 237.598C234.118 237.598 233.922 237.455 233.861 237.235L229.688 221.969C228.911 219.13 229.419 216.108 231.077 213.679L233.633 209.94C233.785 209.716 234.092 209.658 234.315 209.812C234.539 209.965 234.597 210.271 234.443 210.496L231.887 214.235C230.39 216.426 229.934 219.148 230.634 221.709L234.808 236.975C234.879 237.237 234.725 237.508 234.463 237.58C234.42 237.591 234.376 237.598 234.333 237.598H234.335Z" fill="white"/>
<path d="M261.438 317.466C261.247 317.466 261.066 317.354 260.986 317.168C260.885 316.93 250.809 293.262 247.067 281.37C246.987 281.11 247.13 280.835 247.387 280.754C247.649 280.673 247.922 280.817 248.005 281.074C251.731 292.919 261.789 316.543 261.89 316.78C261.997 317.031 261.881 317.32 261.63 317.425C261.567 317.452 261.502 317.466 261.438 317.466Z" fill="white"/>
<path d="M167.83 130.886C168.673 148.617 171.177 192.856 175.805 210.625C176.4 212.908 178.917 214.098 181.065 213.128C191.638 208.351 221.663 195.596 244.511 193.871C247.767 193.625 249.924 190.383 248.908 187.275C244.532 173.882 234.749 142.446 231.994 120.961C231.211 114.853 226.364 110.146 220.34 109.676C209.219 108.809 191.255 109.445 174.339 118.955C170.112 121.333 167.595 125.968 167.83 130.884V130.886Z" fill="white"/>
<path d="M179.492 213.959C178.855 213.959 178.219 213.818 177.628 213.536C176.485 212.989 175.648 211.974 175.328 210.751C170.703 192.993 168.199 149 167.337 130.911C167.096 125.834 169.75 120.974 174.097 118.53C190.817 109.129 208.494 108.26 220.379 109.187C226.584 109.671 231.674 114.596 232.482 120.9C235.25 142.496 245.219 174.406 249.376 187.125C249.909 188.754 249.669 190.504 248.718 191.929C247.77 193.349 246.25 194.237 244.55 194.364C222.048 196.063 192.8 208.367 181.269 213.578C180.703 213.834 180.099 213.961 179.492 213.961V213.959ZM168.32 130.864C169.181 148.921 171.679 192.834 176.279 210.502C176.525 211.445 177.17 212.227 178.051 212.648C178.94 213.074 179.965 213.085 180.862 212.68C192.439 207.448 221.815 195.092 244.474 193.383C245.87 193.278 247.121 192.547 247.899 191.38C248.683 190.208 248.879 188.77 248.441 187.43C244.274 174.687 234.286 142.702 231.506 121.024C230.757 115.18 226.047 110.614 220.302 110.169C208.55 109.252 191.083 110.108 174.578 119.388C170.551 121.653 168.094 126.156 168.318 130.864H168.32Z" fill="#008BCE"/>
<path d="M187.986 86.8795C187.986 86.8795 184.536 79.8579 183.321 78.6212C182.104 77.3845 181.164 76.0806 184.742 73.6833C188.32 71.286 197.666 64.8873 203.395 64.9299C209.123 64.9702 213.135 68.593 211.372 71.2054C209.609 73.8177 208.801 74.9178 210.159 75.0858C211.517 75.2538 212.267 76.7728 208.418 79.0066C204.567 81.2403 191.146 90.9324 187.986 86.8795Z" fill="#1C1C1C"/>
<path d="M207.599 111.276L205.599 100.632C211.62 97.6049 209.194 93.4063 208.295 90.0546C207.326 86.4475 204.341 78.6172 204.341 78.6172C199.4 81.523 189.714 80.656 189.714 80.656C189.714 80.656 191.103 82.8718 190.304 83.9651C189.508 85.0584 190.004 89.2525 190.004 89.2525C190.004 89.2525 188.275 87.6237 186.424 88.8694C185.384 89.5707 186.572 92.5617 187.424 94.2398C188.277 95.9178 190.112 96.2472 190.112 96.2472C190.112 96.2472 190.414 96.0657 191.031 97.5444L187.744 114.883L181.291 117.565L195.65 119.505C200.181 120.117 204.768 118.898 208.398 116.115L213.542 112.172L207.599 111.276Z" fill="#FFBFBF"/>
<path d="M197.914 120.15C197.138 120.15 196.359 120.099 195.585 119.994L181.226 118.053C181.006 118.024 180.832 117.849 180.805 117.63C180.776 117.41 180.899 117.198 181.105 117.112L187.312 114.531L190.521 97.6004C190.272 97.0314 190.107 96.8118 190.038 96.7334C190.033 96.7334 190.029 96.7334 190.024 96.7334C189.939 96.7177 187.939 96.3391 186.985 94.4638C186.238 92.9941 184.658 89.4654 186.149 88.4617C187.337 87.6618 188.549 87.8612 189.415 88.2757C189.31 86.8642 189.257 84.5656 189.906 83.6761C190.393 83.0062 189.608 81.4222 189.295 80.9181C189.196 80.759 189.196 80.5597 189.295 80.4006C189.393 80.2415 189.568 80.1519 189.758 80.1676C189.854 80.1765 199.348 80.9853 204.094 78.1937C204.22 78.1198 204.37 78.1064 204.506 78.1534C204.643 78.2005 204.75 78.308 204.801 78.4424C204.925 78.7628 207.807 86.3377 208.771 89.9269C208.89 90.366 209.033 90.8186 209.185 91.2981C210.154 94.3383 211.356 98.1068 206.151 100.901L208.019 110.841L213.618 111.686C213.812 111.715 213.971 111.859 214.021 112.049C214.07 112.239 214 112.443 213.844 112.562L208.699 116.505C205.614 118.871 201.783 120.148 197.916 120.148L197.914 120.15ZM183.159 117.323L195.714 119.019C200.085 119.61 204.598 118.41 208.098 115.726L212.322 112.488L207.522 111.764C207.317 111.733 207.151 111.574 207.113 111.368L205.113 100.724C205.072 100.509 205.18 100.291 205.374 100.193C210.21 97.7617 209.21 94.6296 208.245 91.5983C208.089 91.1076 207.941 90.6461 207.818 90.1823C207.012 87.1801 204.763 81.1377 204.079 79.3207C199.834 81.4917 192.998 81.3438 190.557 81.2094C190.942 82.0585 191.344 83.3714 190.698 84.2564C190.228 84.9016 190.293 87.5319 190.49 89.1943C190.514 89.4004 190.407 89.5976 190.223 89.6917C190.038 89.7835 189.816 89.7522 189.666 89.611C189.608 89.5573 188.191 88.2712 186.697 89.2772C186.251 89.5774 186.569 91.4751 187.863 94.0157C188.505 95.2793 189.827 95.6714 190.136 95.7476C190.203 95.7476 190.279 95.7565 190.351 95.7812C190.608 95.8663 190.971 96.1217 191.485 97.354C191.523 97.4436 191.532 97.5399 191.514 97.6363L188.227 114.975C188.196 115.139 188.086 115.275 187.932 115.338L183.159 117.321V117.323ZM190.362 96.6684C190.342 96.6796 190.322 96.6908 190.302 96.6998C190.322 96.6908 190.342 96.6818 190.362 96.6684Z" fill="#008BCE"/>
<path d="M200.052 102.383C194.559 102.383 192.514 98.1355 192.487 98.0795C192.373 97.833 192.48 97.5395 192.726 97.4275C192.973 97.3133 193.263 97.4208 193.378 97.6672C193.501 97.9294 196.448 103.938 205.405 100.179C205.656 100.073 205.944 100.192 206.047 100.443C206.152 100.694 206.034 100.981 205.783 101.086C203.554 102.023 201.655 102.383 200.048 102.383H200.052Z" fill="#008BCE"/>
<path d="M185.69 83.4648L187.529 88.8464C187.529 88.8464 199.234 95.8522 213.17 93.0158C215.081 92.626 216.296 90.7351 215.864 88.8307L214.79 79.3648C214.363 77.4784 212.481 76.3044 210.601 76.748L185.688 83.4648H185.69Z" fill="#99B9FF"/>
<path d="M206.43 94.1765C195.627 94.1765 187.377 89.3282 187.278 89.2699C187.177 89.2094 187.104 89.1176 187.066 89.0078L185.226 83.6263C185.181 83.4963 185.193 83.3552 185.258 83.2364C185.322 83.1154 185.432 83.0281 185.564 82.9922L210.478 76.2754C211.53 76.0267 212.599 76.2015 213.506 76.7683C214.41 77.3329 215.038 78.2178 215.276 79.2597C215.28 79.2776 215.282 79.2955 215.284 79.3134L216.356 88.7524C216.587 89.7964 216.394 90.8651 215.813 91.7635C215.229 92.6687 214.327 93.2848 213.275 93.4999C210.921 93.9793 208.625 94.1787 206.435 94.1787L206.43 94.1765ZM187.934 88.5127C189.348 89.3035 200.341 95.1264 213.074 92.5342C213.866 92.3729 214.544 91.9092 214.982 91.2281C215.423 90.5447 215.566 89.7315 215.387 88.9406C215.383 88.9227 215.381 88.9047 215.378 88.8868L214.307 79.4478C214.125 78.6749 213.655 78.0207 212.982 77.5995C212.302 77.1738 211.496 77.0416 210.715 77.2276L186.325 83.8033L187.934 88.5127Z" fill="#008BCE"/>
<path d="M198.935 89.8791C198.809 89.8791 198.684 89.8321 198.588 89.7358C198.395 89.5431 198.395 89.2317 198.588 89.039L203.052 84.5693C203.244 84.3766 203.555 84.3766 203.748 84.5693C203.94 84.762 203.94 85.0734 203.748 85.2661L199.284 89.7358C199.187 89.8321 199.062 89.8791 198.937 89.8791H198.935Z" fill="#008BCE"/>
<path d="M205.599 89.0118C205.473 89.0118 205.348 88.9648 205.252 88.8684C205.059 88.6758 205.059 88.3643 205.252 88.1717L211.938 81.4795C212.13 81.2868 212.441 81.2868 212.634 81.4795C212.826 81.6721 212.826 81.9836 212.634 82.1762L205.95 88.8684C205.854 88.9648 205.728 89.0118 205.603 89.0118H205.599Z" fill="#008BCE"/>
<path d="M122.977 359.437C122.977 359.437 122.968 359.437 122.964 359.437C107.598 359.027 97.8308 354.983 93.9306 347.415L9.61172 183.758C9.48641 183.516 9.58263 183.22 9.82206 183.095C10.0637 182.969 10.3591 183.066 10.4844 183.305C15.0895 192.245 28.8465 196.103 50.2652 194.463C71.3393 192.847 98.3656 186.048 128.426 174.801C134.519 172.52 141.362 175.168 144.345 180.955L217.245 322.445C218.934 325.723 219.136 329.577 217.798 333.016C216.457 336.459 213.7 339.166 210.232 340.438C201.523 343.635 192.949 346.494 184.748 348.934C184.488 349.012 184.215 348.862 184.137 348.602C184.058 348.343 184.208 348.067 184.468 347.991C192.649 345.556 201.203 342.706 209.892 339.515C213.094 338.339 215.643 335.841 216.88 332.66C218.115 329.485 217.93 325.927 216.37 322.898L143.47 181.408C140.715 176.062 134.396 173.618 128.768 175.724C93.2123 189.03 62.7893 195.811 41.3482 195.814C28.2513 195.814 18.5064 193.284 12.9861 188.165L94.8033 346.965C98.473 354.087 108.22 358.062 122.989 358.454C123.259 358.46 123.474 358.687 123.467 358.958C123.461 359.224 123.241 359.437 122.977 359.437Z" fill="black"/>
<path d="M163.872 354.428C163.648 354.428 163.445 354.274 163.393 354.045C163.333 353.781 163.498 353.516 163.762 353.456C170.348 351.959 177.314 350.12 184.465 347.992C184.725 347.913 184.998 348.063 185.076 348.323C185.154 348.583 185.004 348.859 184.745 348.935C177.573 351.07 170.587 352.914 163.982 354.415C163.946 354.424 163.908 354.428 163.872 354.428Z" fill="white"/>
<path d="M137.967 358.808C137.716 358.808 137.504 358.618 137.479 358.365C137.452 358.093 137.649 357.854 137.92 357.827C145.743 357.047 154.436 355.578 163.765 353.456C164.031 353.395 164.293 353.561 164.353 353.825C164.414 354.09 164.248 354.354 163.984 354.415C154.617 356.545 145.881 358.022 138.018 358.804C138.003 358.804 137.985 358.806 137.969 358.806L137.967 358.808Z" fill="black"/>
<path d="M125.501 359.471C124.639 359.471 123.794 359.46 122.963 359.438C122.693 359.431 122.478 359.205 122.485 358.933C122.491 358.662 122.717 358.445 122.988 358.454C127.508 358.575 132.529 358.362 137.918 357.827C138.188 357.8 138.428 357.997 138.455 358.268C138.481 358.539 138.285 358.779 138.014 358.806C133.572 359.247 129.374 359.471 125.499 359.471H125.501Z" fill="white"/>
<path d="M259.622 317.976C254.943 317.976 250.41 315.427 248.141 311.024C248.016 310.782 248.112 310.486 248.354 310.361C248.593 310.235 248.891 310.332 249.016 310.572C251.965 316.298 259.07 318.628 264.845 315.772C268.04 314.19 271.271 312.557 274.449 310.917C316.342 289.278 353.301 264.237 378.517 240.405C403.592 216.706 414.031 197.116 407.913 185.241L326.107 26.4662C327.727 38.849 316.895 56.6471 294.87 77.463C269.589 101.355 232.551 126.455 190.578 148.133C187.505 149.719 184.384 151.299 181.303 152.827C178.434 154.249 176.304 156.709 175.303 159.756C174.301 162.81 174.561 166.063 176.033 168.92L200.119 215.671C200.244 215.913 200.148 216.209 199.909 216.334C199.667 216.46 199.372 216.363 199.246 216.124L175.16 169.372C173.567 166.278 173.285 162.756 174.37 159.45C175.453 156.149 177.76 153.485 180.868 151.946C183.945 150.423 187.06 148.846 190.13 147.262C232.023 125.623 268.982 100.582 294.198 76.7505C319.253 53.0691 329.699 33.4899 323.608 21.6134L323.594 21.5865C323.469 21.3445 323.565 21.0488 323.807 20.9233C324.046 20.7978 324.344 20.8942 324.469 21.1339L408.788 184.791C415.125 197.091 404.615 217.096 379.193 241.122C353.912 265.014 316.875 290.114 274.901 311.793C271.719 313.437 268.481 315.073 265.281 316.657C263.469 317.553 261.535 317.978 259.625 317.978L259.622 317.976Z" fill="black"/>
<path d="M248.579 311.291C248.4 311.291 248.23 311.194 248.142 311.024L231.649 279.01C231.523 278.768 231.62 278.473 231.861 278.347C232.103 278.222 232.398 278.318 232.524 278.558L249.017 310.571C249.143 310.813 249.046 311.109 248.805 311.235C248.733 311.273 248.657 311.291 248.581 311.291H248.579Z" fill="white"/>
<path d="M232.083 279.277C231.904 279.277 231.734 279.181 231.646 279.011L224.629 265.391C224.504 265.149 224.6 264.853 224.842 264.728C225.081 264.603 225.379 264.699 225.504 264.939L232.521 278.558C232.647 278.8 232.55 279.096 232.309 279.221C232.237 279.259 232.161 279.275 232.085 279.275L232.083 279.277Z" fill="black"/>
<path d="M225.065 265.655C224.886 265.655 224.716 265.559 224.628 265.389L199.245 216.122C199.119 215.88 199.215 215.584 199.455 215.458C199.694 215.333 199.992 215.429 200.117 215.669L225.501 264.936C225.626 265.178 225.53 265.474 225.288 265.599C225.217 265.638 225.141 265.655 225.065 265.655Z" fill="white"/>
<path d="M199.986 168.893C199.807 168.893 199.636 168.797 199.549 168.626C199.424 168.384 199.52 168.089 199.76 167.963C266.202 133.644 319.382 90.8452 332.092 61.4619C332.199 61.2132 332.485 61.0967 332.738 61.2064C332.987 61.314 333.101 61.603 332.993 61.8539C320.201 91.4299 266.837 134.424 200.209 168.839C200.138 168.877 200.059 168.893 199.986 168.893Z" fill="black"/>
<path d="M207.999 185.877C207.82 185.877 207.65 185.781 207.563 185.611C207.438 185.369 207.534 185.073 207.773 184.948C274.216 150.629 327.398 107.83 340.107 78.4462C340.215 78.1975 340.504 78.081 340.754 78.1908C341.003 78.2984 341.117 78.5874 341.009 78.8383C328.217 108.414 274.853 151.408 208.225 185.824C208.154 185.862 208.075 185.88 208.001 185.88L207.999 185.877Z" fill="black"/>
<path d="M237.283 191.347C237.11 191.347 236.945 191.257 236.855 191.098C236.721 190.861 236.804 190.561 237.041 190.428C253.631 181.014 269.212 171.125 283.354 161.036C283.575 160.879 283.882 160.931 284.038 161.15C284.195 161.372 284.143 161.679 283.924 161.836C269.755 171.945 254.143 181.852 237.527 191.284C237.45 191.327 237.368 191.349 237.285 191.349L237.283 191.347Z" fill="black"/>
<path d="M295.088 153.47C294.941 153.47 294.795 153.403 294.697 153.277C294.531 153.062 294.574 152.753 294.789 152.587C322.372 131.473 341.311 111.175 348.121 95.4336C348.228 95.1849 348.519 95.0706 348.767 95.1781C349.016 95.2857 349.13 95.5769 349.022 95.8256C342.148 111.719 323.099 132.157 295.386 153.371C295.297 153.438 295.191 153.472 295.088 153.472V153.47Z" fill="black"/>
<path d="M266.264 195.845C266.101 195.845 265.94 195.762 265.846 195.614C265.703 195.384 265.772 195.081 266.003 194.935C282.483 184.634 297.464 174.055 310.532 163.495C310.744 163.325 311.053 163.359 311.223 163.569C311.393 163.78 311.36 164.091 311.149 164.262C298.052 174.845 283.038 185.447 266.524 195.769C266.443 195.82 266.354 195.843 266.264 195.843V195.845Z" fill="black"/>
<path d="M319.819 156.853C319.682 156.853 319.546 156.795 319.447 156.683C319.268 156.476 319.29 156.167 319.496 155.988C338.152 139.772 350.821 124.705 356.136 112.416C356.243 112.167 356.529 112.051 356.782 112.161C357.031 112.268 357.145 112.559 357.037 112.808C351.665 125.229 338.906 140.419 320.141 156.732C320.049 156.812 319.933 156.853 319.819 156.853Z" fill="black"/>
<path d="M240.058 253.821C239.879 253.821 239.709 253.724 239.621 253.554C239.496 253.312 239.592 253.016 239.834 252.891C242.866 251.325 245.927 249.712 248.934 248.094C249.174 247.967 249.472 248.056 249.599 248.296C249.727 248.536 249.637 248.834 249.398 248.961C246.386 250.581 243.32 252.196 240.284 253.765C240.212 253.803 240.136 253.819 240.06 253.819L240.058 253.821Z" fill="black"/>
<path d="M249.164 249.02C248.989 249.02 248.819 248.926 248.73 248.76C248.602 248.52 248.692 248.222 248.931 248.095C258.589 242.904 268.081 237.462 277.15 231.923C277.381 231.782 277.683 231.856 277.826 232.087C277.967 232.32 277.893 232.622 277.663 232.763C268.58 238.311 259.07 243.762 249.397 248.962C249.323 249.002 249.242 249.02 249.164 249.02Z" fill="white"/>
<path d="M277.408 232.835C277.243 232.835 277.082 232.752 276.988 232.6C276.847 232.367 276.92 232.064 277.151 231.923C301.324 217.159 322.873 201.44 339.467 186.469C355.945 171.604 367.252 157.744 372.164 146.388C372.271 146.139 372.56 146.025 372.81 146.132C373.059 146.24 373.173 146.531 373.065 146.78C362.866 170.36 327.203 202.504 277.661 232.763C277.581 232.813 277.493 232.835 277.406 232.835H277.408Z" fill="black"/>
<path d="M248.073 270.806C247.894 270.806 247.724 270.709 247.637 270.539C247.512 270.297 247.608 270.002 247.85 269.876C258.329 264.463 268.649 258.755 278.525 252.905C278.758 252.766 279.06 252.844 279.199 253.077C279.338 253.31 279.259 253.613 279.027 253.752C269.134 259.61 258.796 265.33 248.302 270.752C248.23 270.79 248.154 270.808 248.078 270.808L248.073 270.806Z" fill="white"/>
<path d="M278.773 253.821C278.605 253.821 278.442 253.734 278.35 253.579C278.211 253.346 278.29 253.044 278.522 252.905C330.709 221.996 369.661 187.69 380.181 163.375C380.288 163.126 380.574 163.01 380.827 163.12C381.076 163.227 381.19 163.518 381.082 163.767C370.487 188.264 331.38 222.744 279.023 253.754C278.945 253.801 278.858 253.824 278.773 253.824V253.821Z" fill="black"/>
<path d="M256.085 287.793C255.906 287.793 255.736 287.696 255.649 287.526C255.523 287.284 255.62 286.989 255.861 286.863C261.99 283.697 268.106 280.408 274.04 277.086C274.277 276.954 274.577 277.039 274.709 277.274C274.841 277.511 274.756 277.812 274.521 277.944C268.578 281.271 262.451 284.564 256.313 287.737C256.242 287.775 256.166 287.793 256.09 287.793H256.085Z" fill="black"/>
<path d="M274.281 278.009C274.109 278.009 273.941 277.918 273.851 277.759C273.719 277.521 273.804 277.221 274.039 277.089C332.003 244.643 376.812 206.676 388.195 180.362C388.302 180.114 388.593 179.999 388.842 180.107C389.09 180.214 389.204 180.506 389.097 180.754C383.482 193.733 369.889 209.64 349.784 226.755C329.446 244.069 303.42 261.771 274.518 277.949C274.442 277.992 274.359 278.012 274.279 278.012L274.281 278.009Z" fill="black"/>
<path d="M313.553 325.242C313.387 325.242 313.224 325.157 313.132 325.005C312.991 324.772 313.065 324.47 313.298 324.328C314.985 323.302 316.659 322.274 318.317 321.246C318.547 321.102 318.849 321.174 318.992 321.405C319.136 321.635 319.064 321.938 318.834 322.081C317.173 323.112 315.497 324.14 313.808 325.169C313.727 325.218 313.64 325.24 313.553 325.24V325.242ZM323.571 319.025C323.407 319.025 323.248 318.945 323.154 318.797C323.009 318.568 323.076 318.264 323.307 318.118C324.976 317.058 326.63 316.001 328.265 314.939C328.493 314.791 328.798 314.856 328.945 315.084C329.093 315.313 329.028 315.618 328.8 315.765C327.162 316.827 325.506 317.889 323.835 318.949C323.754 319.001 323.662 319.025 323.573 319.025H323.571ZM333.463 312.613C333.304 312.613 333.148 312.535 333.054 312.394C332.904 312.167 332.967 311.863 333.193 311.712C334.842 310.619 336.473 309.526 338.084 308.432C338.308 308.28 338.614 308.338 338.766 308.565C338.919 308.789 338.86 309.096 338.634 309.248C337.021 310.344 335.388 311.439 333.734 312.535C333.651 312.591 333.557 312.618 333.463 312.618V312.613ZM343.219 305.99C343.065 305.99 342.911 305.916 342.814 305.78C342.66 305.556 342.716 305.251 342.937 305.094C344.549 303.974 346.171 302.834 347.757 301.702C347.979 301.545 348.285 301.597 348.442 301.819C348.599 302.041 348.547 302.347 348.328 302.504C346.739 303.638 345.115 304.781 343.499 305.903C343.414 305.961 343.316 305.99 343.219 305.99ZM352.828 299.141C352.676 299.141 352.528 299.072 352.43 298.94C352.271 298.72 352.318 298.413 352.537 298.252C354.137 297.08 355.728 295.899 357.27 294.741C357.487 294.578 357.795 294.622 357.959 294.84C358.122 295.057 358.077 295.366 357.86 295.528C356.316 296.688 354.721 297.873 353.116 299.045C353.029 299.11 352.929 299.139 352.828 299.139V299.141Z" fill="black"/>
<path d="M357.565 295.626C357.415 295.626 357.267 295.559 357.171 295.429C357.007 295.211 357.052 294.902 357.269 294.741L357.388 294.651C357.605 294.488 357.914 294.533 358.075 294.75C358.238 294.967 358.193 295.276 357.976 295.438L357.858 295.527C357.77 295.594 357.665 295.626 357.565 295.626ZM362.371 291.958C362.223 291.958 362.078 291.893 361.982 291.768C361.816 291.553 361.854 291.244 362.069 291.078C363.626 289.87 365.184 288.645 366.701 287.435C366.913 287.265 367.222 287.3 367.392 287.513C367.562 287.726 367.527 288.035 367.314 288.206C365.795 289.42 364.233 290.648 362.671 291.857C362.581 291.927 362.476 291.96 362.371 291.96V291.958Z" fill="white"/>
<path d="M370.82 285.221C370.679 285.221 370.536 285.161 370.44 285.042C370.267 284.832 370.299 284.522 370.507 284.35C372.051 283.082 373.572 281.811 375.027 280.572C375.235 280.395 375.544 280.422 375.72 280.628C375.895 280.835 375.87 281.146 375.664 281.323C374.203 282.564 372.679 283.839 371.131 285.109C371.039 285.185 370.93 285.221 370.82 285.221Z" fill="black"/>
<path d="M379.316 278.009C379.179 278.009 379.043 277.953 378.946 277.841C378.767 277.637 378.787 277.325 378.991 277.146C380.484 275.833 381.958 274.511 383.375 273.214C383.574 273.031 383.885 273.044 384.068 273.246C384.252 273.445 384.236 273.756 384.037 273.94C382.616 275.242 381.135 276.57 379.638 277.886C379.544 277.968 379.43 278.009 379.313 278.009H379.316Z" fill="white"/>
<path d="M383.708 274.07C383.576 274.07 383.441 274.017 383.345 273.911C383.162 273.712 383.177 273.401 383.376 273.217C384.336 272.336 385.281 271.46 386.207 270.587C386.404 270.401 386.715 270.41 386.901 270.607C387.087 270.804 387.078 271.115 386.881 271.301C385.952 272.177 385.003 273.058 384.039 273.94C383.945 274.028 383.826 274.07 383.708 274.07ZM390.788 267.336C390.66 267.336 390.535 267.286 390.439 267.19C390.248 266.997 390.248 266.686 390.443 266.493C391.857 265.095 393.247 263.684 394.571 262.297C394.759 262.1 395.07 262.095 395.265 262.281C395.462 262.469 395.469 262.781 395.281 262.976C393.949 264.367 392.553 265.788 391.134 267.192C391.038 267.286 390.913 267.333 390.79 267.333L390.788 267.336ZM398.939 258.806C398.823 258.806 398.704 258.764 398.61 258.681C398.409 258.499 398.391 258.188 398.575 257.986C399.913 256.496 401.208 255.002 402.428 253.541C402.602 253.333 402.911 253.304 403.119 253.479C403.327 253.653 403.354 253.962 403.182 254.171C401.956 255.641 400.651 257.144 399.304 258.643C399.208 258.75 399.074 258.806 398.939 258.806ZM406.491 249.741C406.386 249.741 406.283 249.708 406.194 249.641C405.979 249.475 405.936 249.166 406.102 248.951C407.328 247.346 408.487 245.747 409.55 244.194C409.705 243.97 410.009 243.912 410.233 244.066C410.456 244.221 410.512 244.526 410.36 244.75C409.288 246.316 408.118 247.929 406.881 249.547C406.784 249.672 406.637 249.739 406.489 249.739L406.491 249.741ZM413.135 239.993C413.05 239.993 412.963 239.971 412.884 239.924C412.652 239.785 412.573 239.483 412.712 239.25C413.75 237.5 414.686 235.766 415.496 234.094C415.614 233.85 415.907 233.747 416.151 233.866C416.395 233.984 416.498 234.278 416.379 234.522C415.558 236.218 414.607 237.977 413.556 239.749C413.464 239.904 413.3 239.991 413.133 239.991L413.135 239.993Z" fill="black"/>
<path d="M56.5142 415.818C54.8941 415.818 53.2875 415.791 51.7457 415.74C51.475 415.731 51.2624 415.502 51.2714 415.231C51.2803 414.96 51.5041 414.749 51.7793 414.756C53.6723 414.819 55.646 414.843 57.6554 414.83C57.9172 414.817 58.1476 415.047 58.1499 415.318C58.1499 415.59 57.9328 415.811 57.6621 415.814C57.2772 415.816 56.8968 415.818 56.5164 415.818H56.5142ZM63.5515 415.666C63.2897 415.666 63.0727 415.46 63.0615 415.195C63.0503 414.924 63.2606 414.693 63.5314 414.682C65.4356 414.602 67.4115 414.487 69.403 414.344C69.676 414.324 69.9087 414.528 69.9288 414.799C69.949 415.07 69.7453 415.305 69.4746 415.325C67.4741 415.471 65.4871 415.583 63.5739 415.663C63.5672 415.663 63.5605 415.663 63.5538 415.663L63.5515 415.666ZM45.8764 415.401C45.863 415.401 45.8495 415.401 45.8361 415.401C43.8021 415.233 41.8218 415.009 39.9489 414.738C39.6804 414.7 39.4946 414.449 39.5327 414.18C39.5707 413.911 39.8213 413.726 40.0899 413.764C41.9426 414.032 43.905 414.252 45.9189 414.42C46.1897 414.442 46.3911 414.68 46.3687 414.951C46.3463 415.209 46.1315 415.401 45.8786 415.401H45.8764ZM75.3126 414.823C75.062 414.823 74.8494 414.633 74.8248 414.38C74.7979 414.109 74.9949 413.869 75.2656 413.842C77.1676 413.654 79.1367 413.437 81.1148 413.195C81.3833 413.163 81.6295 413.354 81.663 413.622C81.6966 413.891 81.5042 414.138 81.2356 414.171C79.2486 414.416 77.2728 414.633 75.3618 414.821C75.3462 414.821 75.3283 414.823 75.3126 414.823ZM34.2183 413.683C34.1825 413.683 34.1467 413.678 34.1109 413.672C32.0903 413.217 30.1614 412.684 28.3825 412.086C28.1252 411.998 27.9864 411.72 28.0737 411.463C28.161 411.205 28.4407 411.066 28.6958 411.153C30.4434 411.74 32.3387 412.265 34.3279 412.713C34.592 412.773 34.7598 413.035 34.6994 413.3C34.6479 413.528 34.4443 413.685 34.2205 413.685L34.2183 413.683ZM87.0199 413.394C86.7783 413.394 86.5702 413.217 86.5344 412.973C86.4963 412.704 86.6821 412.455 86.9506 412.415C88.857 412.142 90.815 411.839 92.7707 411.519C93.037 411.474 93.2898 411.658 93.3346 411.924C93.3793 412.193 93.1958 412.446 92.9296 412.489C90.9694 412.809 89.0047 413.112 87.0915 413.387C87.0669 413.392 87.0446 413.392 87.0222 413.392L87.0199 413.394ZM98.6602 411.494C98.4275 411.494 98.2194 411.328 98.1768 411.091C98.1276 410.824 98.3066 410.566 98.5729 410.519C100.475 410.174 102.419 409.805 104.359 409.419C104.623 409.368 104.885 409.54 104.937 409.807C104.988 410.074 104.816 410.331 104.55 410.385C102.607 410.77 100.654 411.142 98.7474 411.487C98.7183 411.492 98.6893 411.496 98.6602 411.496V411.494ZM23.0905 409.87C23.0166 409.87 22.9428 409.852 22.8712 409.818C20.9916 408.875 19.2842 407.811 17.7962 406.652C17.5814 406.487 17.5434 406.177 17.7089 405.962C17.8745 405.747 18.1833 405.709 18.3981 405.875C19.8347 406.993 21.4883 408.024 23.312 408.938C23.5537 409.059 23.6521 409.354 23.5313 409.599C23.4463 409.771 23.2717 409.87 23.0905 409.87ZM110.229 409.202C110.003 409.202 109.799 409.043 109.748 408.812C109.692 408.546 109.86 408.286 110.126 408.227C112.014 407.824 113.95 407.394 115.877 406.955C116.141 406.894 116.405 407.06 116.465 407.325C116.526 407.589 116.36 407.853 116.096 407.914C114.165 408.355 112.225 408.785 110.332 409.191C110.298 409.198 110.262 409.202 110.229 409.202ZM121.728 406.574C121.507 406.574 121.305 406.424 121.251 406.198C121.187 405.933 121.35 405.667 121.614 405.604C123.496 405.147 125.42 404.667 127.331 404.179C127.595 404.112 127.861 404.271 127.929 404.533C127.996 404.797 127.837 405.064 127.575 405.131C125.66 405.622 123.733 406.101 121.847 406.561C121.809 406.57 121.768 406.574 121.73 406.574H121.728ZM133.153 403.65C132.936 403.65 132.737 403.505 132.679 403.285C132.61 403.023 132.764 402.752 133.026 402.682C134.899 402.178 136.812 401.654 138.707 401.121C138.969 401.049 139.24 401.199 139.314 401.461C139.388 401.723 139.235 401.995 138.974 402.069C137.074 402.602 135.158 403.128 133.281 403.632C133.238 403.644 133.196 403.65 133.153 403.65ZM13.9542 402.584C13.8043 402.584 13.6566 402.517 13.5604 402.387C12.7257 401.275 12.0119 400.083 11.4346 398.842C11.1683 398.266 10.9266 397.673 10.7163 397.072C10.6268 396.817 10.7611 396.535 11.0184 396.445C11.2735 396.355 11.5554 396.49 11.6449 396.747C11.8441 397.317 12.0723 397.881 12.3274 398.428C12.8756 399.606 13.5536 400.74 14.348 401.795C14.5114 402.013 14.4666 402.322 14.2495 402.483C14.16 402.55 14.0571 402.582 13.9542 402.582V402.584ZM144.509 400.46C144.297 400.46 144.1 400.321 144.037 400.106C143.961 399.846 144.111 399.573 144.371 399.496C146.241 398.95 148.123 398.387 150.016 397.812C150.274 397.733 150.551 397.879 150.629 398.139C150.708 398.399 150.562 398.674 150.303 398.753C148.405 399.328 146.521 399.893 144.646 400.44C144.599 400.453 144.554 400.46 144.507 400.46H144.509ZM155.794 397.03C155.586 397.03 155.391 396.895 155.326 396.685C155.246 396.425 155.389 396.149 155.648 396.069C157.51 395.482 159.381 394.883 161.26 394.272C161.518 394.189 161.795 394.33 161.88 394.588C161.963 394.845 161.822 395.123 161.565 395.208C159.681 395.822 157.808 396.423 155.944 397.01C155.895 397.025 155.845 397.032 155.796 397.032L155.794 397.03ZM167.011 393.378C166.805 393.378 166.615 393.248 166.546 393.042C166.459 392.784 166.597 392.506 166.855 392.419C168.705 391.796 170.565 391.162 172.433 390.517C172.688 390.427 172.97 390.564 173.057 390.822C173.147 391.079 173.01 391.359 172.753 391.447C170.882 392.094 169.021 392.73 167.168 393.353C167.116 393.371 167.063 393.378 167.011 393.378ZM10.0741 391.628C9.81454 391.628 9.59749 391.424 9.58406 391.16C9.56392 390.761 9.55273 390.356 9.55273 389.95C9.55273 388.422 9.69594 386.818 9.98012 385.178C10.0271 384.911 10.28 384.73 10.5485 384.777C10.817 384.824 10.996 385.077 10.949 385.346C10.676 386.93 10.5373 388.478 10.5373 389.95C10.5373 390.34 10.5462 390.727 10.5664 391.111C10.5798 391.382 10.3717 391.612 10.101 391.626C10.092 391.626 10.0831 391.626 10.0763 391.626L10.0741 391.628ZM11.9515 380.052C11.8978 380.052 11.8441 380.043 11.7926 380.025C11.5353 379.937 11.3988 379.657 11.4883 379.4C12.0969 377.623 12.86 375.77 13.7528 373.893C13.8691 373.646 14.1623 373.543 14.4084 373.66C14.6523 373.776 14.7575 374.07 14.6411 374.316C13.764 376.16 13.0144 377.977 12.4192 379.718C12.3498 379.922 12.1596 380.049 11.9537 380.049L11.9515 380.052ZM16.9683 369.39C16.8833 369.39 16.7982 369.367 16.7199 369.322C16.485 369.186 16.4066 368.883 16.5454 368.648C17.5008 367.017 18.5682 365.33 19.7206 363.636C19.8727 363.412 20.1793 363.354 20.4031 363.506C20.6268 363.658 20.685 363.965 20.5328 364.189C19.3939 365.868 18.3377 367.534 17.3934 369.148C17.3017 369.304 17.1383 369.392 16.9683 369.392V369.39ZM23.5716 359.614C23.4686 359.614 23.3635 359.581 23.274 359.514C23.0569 359.35 23.0166 359.041 23.18 358.824C24.3324 357.307 25.572 355.747 26.8654 354.188C27.0399 353.98 27.3487 353.951 27.5568 354.125C27.7649 354.3 27.794 354.609 27.6217 354.818C26.3373 356.364 25.1066 357.912 23.9609 359.42C23.8647 359.547 23.717 359.614 23.5693 359.614H23.5716ZM31.1012 350.529C30.9849 350.529 30.8685 350.489 30.7745 350.404C30.5732 350.223 30.5553 349.911 30.7365 349.709C32.0142 348.28 33.3657 346.819 34.7508 345.365C34.9388 345.168 35.2498 345.161 35.4467 345.35C35.6437 345.538 35.6504 345.849 35.4624 346.044C34.084 347.491 32.7392 348.946 31.4682 350.366C31.372 350.473 31.2377 350.529 31.1012 350.529ZM39.2351 341.982C39.1075 341.982 38.9822 341.933 38.886 341.837C38.6958 341.644 38.6958 341.332 38.8882 341.14C40.2532 339.782 41.6831 338.4 43.1353 337.026C43.3322 336.84 43.6432 336.847 43.829 337.047C44.0147 337.244 44.0057 337.555 43.8088 337.741C42.3633 339.108 40.9402 340.488 39.5797 341.839C39.4835 341.933 39.3581 341.982 39.2328 341.982H39.2351ZM47.8052 333.87C47.671 333.87 47.5367 333.816 47.4405 333.708C47.2593 333.507 47.2749 333.195 47.4763 333.014C48.9106 331.717 50.3964 330.397 51.8979 329.091C52.1038 328.912 52.4126 328.934 52.5916 329.14C52.7706 329.346 52.7482 329.655 52.5423 329.835C51.0476 331.134 49.564 332.449 48.1364 333.744C48.0424 333.829 47.9238 333.872 47.8075 333.872L47.8052 333.87ZM56.7066 326.122C56.5656 326.122 56.4269 326.062 56.3307 325.945C56.1561 325.737 56.183 325.425 56.3911 325.253C57.3018 324.489 58.226 323.723 59.159 322.954C59.3694 322.782 59.6782 322.813 59.8505 323.024C60.0228 323.234 59.9915 323.543 59.7811 323.716C58.848 324.482 57.9283 325.244 57.0199 326.008C56.9281 326.084 56.8162 326.122 56.7044 326.122H56.7066Z" fill="black"/>
<path d="M101.474 42.8689C97.3944 35.7174 88.4281 33.3358 81.6078 37.6778C74.9575 41.9122 72.9437 50.7866 77.0497 57.7431C79.0278 61.0971 82.0665 63.3868 85.4722 64.3681C88.0858 65.1209 90.3279 66.8774 91.7063 69.2926L92.5253 70.7265C93.201 71.9117 94.6756 72.3194 95.8191 71.6361L104.159 66.6489C105.302 65.9655 105.678 64.451 105.002 63.2658L104.188 61.8386C102.83 59.4571 102.373 56.6229 103.033 53.968C103.935 50.343 103.47 46.3707 101.474 42.8711V42.8689Z" fill="black"/>
<path d="M104.955 77.8182C102.109 79.5209 98.4367 78.506 96.7518 75.5509L94.7715 72.0782L105.078 65.917L107.058 69.3897C108.743 72.3426 107.801 76.1177 104.957 77.8182H104.955Z" fill="white"/>
<path d="M101.985 79.1353C101.446 79.1353 100.902 79.0658 100.365 78.9247C98.6559 78.4744 97.2193 77.3631 96.3243 75.7948L94.3439 72.3221C94.2119 72.0891 94.288 71.7934 94.5185 71.6567L104.825 65.4955C104.939 65.4283 105.073 65.4081 105.201 65.4417C105.329 65.4754 105.438 65.5582 105.503 65.6725L107.483 69.1452C109.298 72.3244 108.276 76.4042 105.208 78.2414C104.216 78.8351 103.109 79.1375 101.985 79.1375V79.1353ZM95.4381 72.2527L97.179 75.3064C97.9421 76.6439 99.1616 77.5916 100.616 77.9725C102.015 78.3399 103.467 78.1338 104.704 77.3945C107.318 75.8329 108.182 72.349 106.631 69.6314L104.899 66.5956L95.4381 72.2527Z" fill="black"/>
<path d="M76.9052 28.6557C76.7351 28.6557 76.5695 28.5661 76.4778 28.4093L69.2524 15.7889C69.1182 15.5536 69.1987 15.2534 69.4337 15.1167C69.6686 14.9823 69.9685 15.063 70.105 15.2982L77.3303 27.9186C77.4646 28.1539 77.384 28.4541 77.1491 28.5907C77.073 28.6355 76.9879 28.6557 76.9052 28.6557Z" fill="black"/>
<path d="M53.0489 75.4756C52.8789 75.4756 52.7133 75.386 52.6216 75.2269C52.4873 74.9917 52.5678 74.6915 52.8028 74.5548L69.2271 65.1382C69.4643 65.0038 69.7619 65.0845 69.8984 65.3197C70.0327 65.555 69.9521 65.8552 69.7171 65.9918L53.2928 75.4084C53.2168 75.4532 53.1317 75.4734 53.0489 75.4734V75.4756Z" fill="black"/>
<path d="M111.789 42.2477C111.616 42.2477 111.449 42.1558 111.359 41.9945C111.227 41.757 111.312 41.4568 111.549 41.3246L128.535 31.8386C128.772 31.7064 129.072 31.7916 129.204 32.0291C129.336 32.2666 129.251 32.5668 129.014 32.699L112.028 42.185C111.952 42.2275 111.869 42.2477 111.789 42.2477Z" fill="black"/>
<path d="M64.7123 46.6928C64.6675 46.6928 64.6228 46.6861 64.578 46.6749L48.599 42.1627C48.3372 42.0887 48.185 41.8176 48.2589 41.5555C48.3327 41.2934 48.6035 41.141 48.8653 41.2149L64.8443 45.7272C65.1061 45.8011 65.2582 46.0722 65.1844 46.3344C65.124 46.5517 64.9271 46.6928 64.7123 46.6928Z" fill="black"/>
<path d="M98.121 28.6016C98.0785 28.6016 98.0337 28.5949 97.9889 28.5837C97.7271 28.512 97.575 28.2409 97.6466 27.9787L102.308 11.0724C102.379 10.8103 102.65 10.6579 102.912 10.7296C103.174 10.8013 103.326 11.0724 103.254 11.3345L98.5931 28.2409C98.5327 28.4582 98.3358 28.6016 98.1187 28.6016H98.121Z" fill="black"/>
<path d="M386.559 85.4121C386.44 85.4121 386.322 85.3695 386.228 85.2844C386.027 85.1007 386.013 84.7893 386.197 84.5899C386.816 83.9088 387.427 83.2322 388.027 82.5578C388.206 82.3539 388.517 82.336 388.721 82.5175C388.924 82.6989 388.942 83.0081 388.761 83.212C388.159 83.8908 387.546 84.5719 386.922 85.2553C386.825 85.3606 386.691 85.4166 386.559 85.4166V85.4121ZM392.245 78.9059C392.133 78.9059 392.021 78.8678 391.929 78.7916C391.721 78.6169 391.694 78.3077 391.867 78.0993C393.151 76.5624 394.395 75.021 395.561 73.5199C395.729 73.3048 396.036 73.2667 396.25 73.4325C396.465 73.5983 396.503 73.9075 396.335 74.1225C395.163 75.6326 393.912 77.183 392.621 78.7289C392.522 78.8454 392.384 78.9059 392.243 78.9059H392.245ZM399.473 69.5789C399.374 69.5789 399.273 69.5498 399.188 69.4871C398.967 69.3302 398.915 69.0233 399.074 68.8015C400.242 67.1593 401.35 65.5215 402.364 63.933C402.511 63.7045 402.813 63.6373 403.042 63.7829C403.27 63.9285 403.337 64.2332 403.191 64.4618C402.169 66.0637 401.052 67.7171 399.875 69.3728C399.779 69.5072 399.629 69.5789 399.475 69.5789H399.473ZM405.801 59.6224C405.72 59.6224 405.639 59.6023 405.563 59.5597C405.326 59.4275 405.239 59.1295 405.371 58.8898C406.356 57.1109 407.244 55.3499 408.009 53.6561C408.121 53.4097 408.412 53.2977 408.66 53.4119C408.906 53.524 409.016 53.8152 408.904 54.0639C408.128 55.7801 407.226 57.5657 406.23 59.367C406.141 59.5283 405.973 59.6202 405.801 59.6202V59.6224ZM410.616 48.8638C410.565 48.8638 410.513 48.8549 410.462 48.8392C410.204 48.7541 410.063 48.4763 410.148 48.2186C410.791 46.2739 411.274 44.3763 411.587 42.5749C411.634 42.3083 411.885 42.1291 412.155 42.1739C412.422 42.221 412.601 42.4764 412.556 42.743C412.234 44.5913 411.739 46.5383 411.081 48.5278C411.014 48.7339 410.822 48.8661 410.616 48.8661V48.8638ZM412.516 37.2763C412.252 37.2763 412.035 37.0657 412.026 36.8013C411.959 34.8029 411.645 32.894 411.088 31.1285C411.008 30.8687 411.151 30.5931 411.408 30.5102C411.665 30.4273 411.943 30.5729 412.026 30.8306C412.61 32.6812 412.941 34.6796 413.008 36.7677C413.017 37.0388 412.804 37.2673 412.534 37.2763C412.527 37.2763 412.522 37.2763 412.518 37.2763H412.516ZM290.305 28.393C290.094 28.393 289.9 28.2585 289.835 28.0457C289.754 27.7858 289.9 27.5102 290.159 27.4296C292.041 26.8471 293.941 26.2713 295.807 25.7179C296.069 25.6395 296.34 25.7896 296.418 26.0495C296.494 26.3094 296.346 26.5827 296.087 26.6611C294.223 27.2145 292.325 27.7881 290.448 28.3706C290.399 28.3863 290.349 28.393 290.302 28.393H290.305ZM408.953 26.2018C408.799 26.2018 408.647 26.1301 408.551 25.9935C407.483 24.4744 406.156 23.0719 404.606 21.8218C404.393 21.6515 404.362 21.3423 404.532 21.1295C404.702 20.9189 405.011 20.883 405.223 21.0555C406.843 22.3617 408.233 23.8337 409.354 25.4266C409.511 25.6484 409.457 25.9554 409.235 26.1122C409.15 26.1727 409.052 26.2018 408.953 26.2018ZM301.614 25.0435C301.399 25.0435 301.202 24.9024 301.142 24.6851C301.068 24.4229 301.22 24.1518 301.482 24.0779C303.386 23.5402 305.299 23.0114 307.174 22.5096C307.436 22.4401 307.707 22.5947 307.776 22.8569C307.846 23.119 307.691 23.3901 307.429 23.4595C305.561 23.9614 303.65 24.4879 301.75 25.0234C301.705 25.0368 301.661 25.0413 301.616 25.0413L301.614 25.0435ZM313.006 21.9876C312.786 21.9876 312.585 21.8397 312.529 21.6157C312.462 21.3513 312.623 21.0847 312.885 21.0175C314.807 20.5313 316.738 20.0585 318.62 19.6127C318.886 19.55 319.148 19.7135 319.211 19.9779C319.273 20.2423 319.11 20.5066 318.846 20.5694C316.968 21.013 315.042 21.4857 313.126 21.9696C313.086 21.9808 313.046 21.9853 313.006 21.9853V21.9876ZM324.482 19.2744C324.256 19.2744 324.053 19.1176 324.004 18.8868C323.945 18.6224 324.113 18.3581 324.377 18.302C326.319 17.8764 328.264 17.4664 330.157 17.0877C330.421 17.034 330.683 17.2065 330.734 17.4731C330.788 17.7397 330.616 17.9996 330.349 18.0511C328.463 18.4297 326.523 18.8375 324.588 19.261C324.552 19.2677 324.516 19.2722 324.482 19.2722V19.2744ZM399.949 18.7703C399.875 18.7703 399.799 18.7524 399.73 18.7188C398.099 17.8988 396.284 17.1617 394.342 16.5321C394.084 16.4492 393.943 16.1714 394.026 15.9115C394.109 15.6538 394.386 15.5105 394.646 15.5956C396.637 16.2408 398.497 16.9959 400.173 17.8383C400.415 17.9593 400.513 18.255 400.392 18.4992C400.305 18.6717 400.133 18.7703 399.954 18.7703H399.949ZM336.047 16.9578C335.814 16.9578 335.606 16.792 335.563 16.5523C335.516 16.2857 335.693 16.028 335.959 15.981C337.922 15.627 339.882 15.2954 341.784 14.9952C342.052 14.9526 342.303 15.1363 342.345 15.4052C342.388 15.674 342.205 15.9249 341.936 15.9675C340.041 16.2677 338.087 16.5971 336.132 16.9511C336.102 16.9555 336.073 16.96 336.044 16.96L336.047 16.9578ZM347.696 15.1184C347.452 15.1184 347.241 14.9391 347.21 14.6905C347.174 14.4216 347.362 14.1729 347.633 14.1371C349.616 13.8727 351.591 13.6352 353.5 13.4336C353.773 13.4044 354.013 13.6016 354.039 13.8705C354.069 14.1416 353.872 14.3835 353.603 14.4104C351.701 14.612 349.736 14.8473 347.761 15.1117C347.738 15.1139 347.716 15.1161 347.696 15.1161V15.1184ZM388.792 15.0669C388.759 15.0669 388.725 15.0646 388.694 15.0557C386.875 14.6815 384.93 14.3678 382.914 14.1236C382.645 14.09 382.453 13.8458 382.484 13.577C382.518 13.3081 382.76 13.1154 383.03 13.1468C385.073 13.3932 387.045 13.7114 388.891 14.0923C389.157 14.146 389.327 14.4082 389.273 14.6725C389.226 14.9055 389.02 15.0646 388.792 15.0646V15.0669ZM359.421 13.8839C359.166 13.8839 358.951 13.6867 358.931 13.4291C358.911 13.158 359.114 12.9228 359.385 12.9026C361.395 12.7525 363.382 12.6382 365.29 12.5665C365.55 12.5576 365.789 12.7682 365.8 13.0393C365.812 13.3104 365.599 13.5389 365.328 13.5501C363.431 13.624 361.457 13.736 359.459 13.8839C359.446 13.8839 359.434 13.8839 359.421 13.8839ZM377.098 13.615C377.098 13.615 377.08 13.615 377.071 13.615C375.192 13.5097 373.218 13.4515 371.202 13.4448C370.931 13.4448 370.712 13.223 370.712 12.9496C370.712 12.6785 370.934 12.459 371.204 12.459C373.236 12.4679 375.228 12.5262 377.123 12.6315C377.394 12.6472 377.602 12.8779 377.586 13.1513C377.573 13.4134 377.356 13.615 377.096 13.615H377.098Z" fill="black"/>
<path d="M48.1275 249.791C48.1275 249.791 48.1208 249.791 48.1185 249.791C46.0845 249.753 44.093 249.663 42.2022 249.524C41.9315 249.504 41.7278 249.269 41.748 248.998C41.7681 248.727 42.0008 248.523 42.2738 248.543C44.1467 248.682 46.1203 248.769 48.1364 248.807C48.4072 248.812 48.6243 249.036 48.6198 249.309C48.6153 249.578 48.396 249.793 48.1297 249.793L48.1275 249.791ZM54.0237 249.764C53.7574 249.764 53.5404 249.551 53.5336 249.285C53.5269 249.014 53.7395 248.787 54.0125 248.781C55.91 248.729 57.8859 248.639 59.8841 248.51C60.1593 248.496 60.3875 248.698 60.4054 248.969C60.4233 249.24 60.2175 249.473 59.9467 249.491C57.9351 249.621 55.9481 249.713 54.0371 249.764C54.0326 249.764 54.0282 249.764 54.0237 249.764ZM65.7892 249.014C65.5386 249.014 65.326 248.823 65.3014 248.57C65.2746 248.299 65.4737 248.059 65.7422 248.032C67.642 247.849 69.6089 247.629 71.5892 247.378C71.8577 247.344 72.1038 247.535 72.1374 247.806C72.171 248.075 71.9808 248.321 71.71 248.355C69.7208 248.606 67.7449 248.825 65.8362 249.011C65.8205 249.011 65.8049 249.014 65.7892 249.014ZM36.3754 248.897C36.353 248.897 36.3284 248.897 36.3038 248.893C34.2608 248.599 32.2984 248.232 30.468 247.797C30.204 247.734 30.0406 247.47 30.1033 247.206C30.1659 246.941 30.43 246.778 30.694 246.84C32.4953 247.266 34.4309 247.631 36.4448 247.92C36.7133 247.958 36.899 248.209 36.861 248.478C36.8252 248.722 36.6148 248.899 36.3754 248.899V248.897ZM77.4921 247.551C77.2527 247.551 77.0446 247.376 77.0065 247.132C76.9662 246.863 77.1497 246.612 77.4183 246.572C79.3158 246.285 81.2692 245.967 83.2272 245.626C83.4957 245.579 83.7485 245.758 83.7955 246.027C83.8425 246.294 83.6635 246.549 83.395 246.596C81.4303 246.939 79.4679 247.257 77.5637 247.544C77.5391 247.548 77.5145 247.551 77.4898 247.551H77.4921ZM24.9366 246.126C24.8806 246.126 24.8224 246.117 24.7665 246.094C22.7974 245.368 20.9737 244.524 19.3469 243.587C19.112 243.453 19.0314 243.15 19.1657 242.915C19.3022 242.68 19.602 242.599 19.837 242.734C21.4168 243.643 23.1912 244.463 25.1066 245.171C25.3617 245.265 25.4915 245.548 25.3975 245.803C25.3237 246.002 25.1357 246.126 24.9366 246.126ZM89.1099 245.532C88.8795 245.532 88.6736 245.368 88.6288 245.133C88.5774 244.867 88.7519 244.609 89.0182 244.557C90.9023 244.19 92.8423 243.793 94.7868 243.377C95.0509 243.321 95.3127 243.489 95.3708 243.755C95.4268 244.022 95.259 244.282 94.9927 244.34C93.0437 244.757 91.097 245.156 89.2061 245.523C89.1748 245.53 89.1435 245.532 89.1122 245.532H89.1099ZM100.645 243.067C100.421 243.067 100.22 242.913 100.166 242.687C100.106 242.422 100.269 242.158 100.533 242.095C102.413 241.66 104.339 241.197 106.259 240.72C106.523 240.655 106.79 240.816 106.854 241.078C106.919 241.342 106.758 241.609 106.496 241.674C104.572 242.151 102.639 242.615 100.755 243.052C100.717 243.061 100.681 243.065 100.643 243.065L100.645 243.067ZM112.093 240.229C111.876 240.229 111.677 240.083 111.618 239.861C111.549 239.599 111.706 239.33 111.967 239.261C113.845 238.766 115.756 238.246 117.653 237.72C117.915 237.648 118.186 237.8 118.257 238.062C118.329 238.324 118.177 238.596 117.915 238.667C116.015 239.196 114.098 239.716 112.218 240.213C112.176 240.224 112.133 240.229 112.093 240.229ZM14.847 240.175C14.7262 240.175 14.6054 240.13 14.5114 240.041C13.0077 238.625 11.7479 237.041 10.7656 235.331C10.6313 235.096 10.7119 234.796 10.9468 234.659C11.1818 234.525 11.4816 234.605 11.6181 234.841C12.5534 236.467 13.7528 237.975 15.1872 239.324C15.3841 239.51 15.3953 239.821 15.2095 240.018C15.1133 240.121 14.9813 240.173 14.8515 240.173L14.847 240.175ZM123.456 237.065C123.243 237.065 123.046 236.926 122.983 236.711C122.907 236.451 123.057 236.178 123.317 236.102C125.178 235.558 127.078 234.988 128.96 234.413C129.22 234.334 129.495 234.48 129.573 234.74C129.652 235 129.506 235.275 129.247 235.354C127.36 235.932 125.456 236.501 123.59 237.045C123.545 237.059 123.498 237.065 123.451 237.065H123.456ZM134.735 233.617C134.527 233.617 134.333 233.483 134.268 233.275C134.185 233.015 134.328 232.739 134.588 232.656C136.443 232.065 138.311 231.458 140.193 230.837C140.45 230.752 140.728 230.891 140.813 231.151C140.898 231.408 140.757 231.686 140.5 231.771C138.616 232.394 136.745 233.001 134.885 233.595C134.836 233.611 134.785 233.617 134.735 233.617ZM9.07391 230.093C8.84791 230.093 8.64652 229.936 8.59506 229.708C8.24151 228.115 8.0625 226.417 8.0625 224.662C8.0625 224.349 8.06698 224.035 8.0804 223.717C8.09159 223.446 8.31312 223.231 8.58835 223.242C8.8591 223.251 9.07168 223.479 9.06273 223.75C9.05154 224.055 9.04706 224.36 9.04706 224.66C9.04706 226.343 9.21936 227.967 9.55725 229.493C9.61542 229.757 9.44984 230.021 9.18356 230.08C9.14776 230.089 9.11195 230.091 9.07615 230.091L9.07391 230.093ZM145.933 229.914C145.729 229.914 145.537 229.786 145.467 229.58C145.38 229.322 145.516 229.042 145.774 228.955C147.618 228.323 149.473 227.678 151.339 227.017C151.594 226.927 151.876 227.06 151.965 227.317C152.055 227.573 151.921 227.855 151.665 227.945C149.797 228.605 147.94 229.253 146.092 229.887C146.038 229.905 145.984 229.914 145.933 229.914ZM9.35362 218.391C9.31782 218.391 9.28202 218.387 9.24621 218.38C8.98217 218.32 8.81435 218.058 8.87476 217.793C9.28649 215.96 9.86156 214.04 10.5843 212.082C10.6783 211.827 10.9625 211.697 11.2153 211.791C11.4704 211.885 11.6002 212.167 11.5062 212.423C10.7991 214.341 10.2353 216.22 9.83471 218.008C9.78325 218.237 9.57962 218.394 9.35586 218.394L9.35362 218.391ZM13.3657 207.319C13.2941 207.319 13.2203 207.303 13.1509 207.27C12.907 207.151 12.8041 206.858 12.9227 206.613C13.7461 204.913 14.6859 203.15 15.7175 201.375C15.854 201.14 16.1538 201.059 16.3888 201.196C16.6237 201.333 16.7043 201.633 16.5678 201.868C15.5497 203.622 14.621 205.363 13.8088 207.041C13.7237 207.216 13.5492 207.319 13.3657 207.319ZM19.2552 197.1C19.1612 197.1 19.0672 197.074 18.9844 197.02C18.7584 196.87 18.6958 196.565 18.8457 196.339C19.8952 194.75 21.0341 193.117 22.2335 191.479C22.3946 191.26 22.7012 191.213 22.9205 191.374C23.1397 191.535 23.1867 191.842 23.0256 192.062C21.8374 193.686 20.7052 195.308 19.6647 196.883C19.5707 197.027 19.4141 197.103 19.2552 197.103V197.1ZM26.212 187.57C26.1046 187.57 25.9972 187.534 25.9055 187.462C25.6929 187.294 25.6571 186.983 25.8271 186.77C27.0176 185.271 28.2841 183.734 29.5886 182.202C29.7654 181.995 30.0742 181.971 30.2823 182.146C30.4882 182.323 30.5128 182.632 30.3382 182.84C29.0404 184.366 27.7806 185.894 26.5969 187.384C26.5007 187.507 26.3575 187.57 26.212 187.57ZM33.8536 178.579C33.7372 178.579 33.6186 178.536 33.5246 178.451C33.3233 178.27 33.3076 177.958 33.4888 177.757C34.7777 176.329 36.1315 174.869 37.5099 173.421C37.6978 173.224 38.0089 173.217 38.2036 173.403C38.4005 173.592 38.4072 173.903 38.2215 174.098C36.8498 175.541 35.5005 176.993 34.2183 178.415C34.1221 178.523 33.9878 178.577 33.8536 178.577V178.579ZM41.9829 170.025C41.8576 170.025 41.7323 169.978 41.6361 169.881C41.4437 169.689 41.4437 169.377 41.6361 169.185C42.9966 167.818 44.4152 166.424 45.8518 165.04C46.0465 164.852 46.3598 164.858 46.5477 165.053C46.7357 165.248 46.729 165.56 46.5343 165.75C45.1022 167.128 43.6903 168.519 42.3342 169.879C42.238 169.975 42.1127 170.025 41.9874 170.025H41.9829ZM50.4793 161.834C50.3472 161.834 50.2152 161.78 50.119 161.677C49.9355 161.477 49.9467 161.166 50.1459 160.982C51.5645 159.667 53.0324 158.327 54.5137 157.001C54.7174 156.82 55.0262 156.838 55.2074 157.039C55.3886 157.241 55.3708 157.552 55.1694 157.734C53.6925 159.056 52.2291 160.391 50.8149 161.704C50.7209 161.791 50.6001 161.836 50.4815 161.836L50.4793 161.834ZM59.2665 153.959C59.1278 153.959 58.9913 153.9 58.895 153.788C58.7183 153.582 58.7406 153.273 58.9443 153.094C60.4077 151.826 61.9181 150.533 63.4352 149.256C63.6433 149.081 63.9521 149.108 64.1266 149.316C64.3012 149.525 64.2743 149.834 64.0662 150.009C62.5536 151.284 61.0454 152.572 59.5865 153.838C59.4925 153.918 59.3784 153.959 59.2642 153.959H59.2665Z" fill="black"/>
<path d="M292.884 334.262C292.618 334.262 292.399 334.049 292.392 333.78L292.336 331.163C292.329 330.892 292.546 330.666 292.817 330.661C293.088 330.657 293.314 330.872 293.318 331.143L293.374 333.76C293.381 334.031 293.164 334.257 292.893 334.262C292.889 334.262 292.887 334.262 292.882 334.262H292.884Z" fill="black"/>
<path d="M293.082 343.418C292.815 343.418 292.596 343.205 292.589 342.936L292.533 340.319C292.527 340.048 292.744 339.822 293.014 339.817C293.281 339.815 293.511 340.028 293.516 340.299L293.572 342.916C293.578 343.187 293.361 343.413 293.091 343.418C293.088 343.418 293.084 343.418 293.079 343.418H293.082Z" fill="black"/>
<path d="M287.16 337.578C286.889 337.578 286.67 337.361 286.668 337.09C286.668 336.818 286.885 336.597 287.156 336.594L289.731 336.574C290.009 336.588 290.226 336.792 290.226 337.063C290.226 337.334 290.011 337.556 289.738 337.558L287.162 337.578H287.158H287.16Z" fill="black"/>
<path d="M296.174 337.506C295.903 337.506 295.684 337.288 295.682 337.017C295.682 336.746 295.899 336.524 296.169 336.522L298.745 336.502H298.749C299.02 336.502 299.24 336.719 299.242 336.99C299.242 337.261 299.025 337.483 298.754 337.486L296.178 337.506H296.174Z" fill="black"/>
<path d="M182.23 55.7751C181.688 55.7751 181.147 55.6743 180.625 55.4727C179.493 55.0313 178.602 54.1665 178.115 53.0373C177.121 50.7297 178.153 48.0255 180.415 47.0083C181.505 46.5177 182.717 46.4863 183.829 46.9209C184.962 47.3623 185.852 48.2271 186.34 49.3563C187.334 51.6639 186.302 54.3682 184.04 55.3853C183.46 55.6452 182.845 55.7774 182.23 55.7774V55.7751ZM180.818 47.9045C179.043 48.7021 178.235 50.8305 179.019 52.6475C179.401 53.5347 180.099 54.2113 180.983 54.5563C181.849 54.8924 182.791 54.8678 183.639 54.4869C185.414 53.6893 186.222 51.5609 185.438 49.7439C185.056 48.8567 184.36 48.1801 183.474 47.835C182.608 47.499 181.666 47.5236 180.818 47.9045Z" fill="black"/>
</g>
</g>
<defs>
<clipPath id="clip0_2408_13444">
<rect width="427" height="425" fill="white"/>
</clipPath>
<clipPath id="clip1_2408_13444">
<rect width="415" height="410" fill="white" transform="translate(6 8)"/>
</clipPath>
</defs>
</svg>
