<svg width="427" height="425" viewBox="0 0 427 425" fill="none" xmlns="http://www.w3.org/2000/svg">
<g clip-path="url(#clip0_2451_9673)">
<path d="M400.041 382.57C388.531 392.16 338.441 398.94 278.761 401.49C187.021 405.42 72.6009 399.37 40.7909 378.2C25.7309 368.19 15.5509 337.25 9.1009 297.66C-6.9291 199.16 0.220901 47.1301 13.1609 30.6501C31.3109 7.56009 323.301 -15.3099 399.911 13.9301C432.741 26.4601 429.231 358.23 400.031 382.57H400.041Z" fill="white"/>
<path d="M373.314 247.44L375.204 241.883L377.358 247.44C377.358 247.44 381.657 248.14 381.712 248.531C381.757 248.913 377.595 250.095 377.595 250.095C377.595 250.095 375.85 255.488 375.204 254.27C374.568 253.051 373.95 250.35 373.95 250.35C373.95 250.35 368.533 249.268 368.533 248.731C368.533 248.158 373.314 247.449 373.314 247.449V247.44Z" fill="white"/>
<path d="M304.094 233.142L305.566 228.822L307.238 233.142C307.238 233.142 310.574 233.688 310.619 233.988C310.656 234.279 307.429 235.198 307.429 235.198C307.429 235.198 306.075 239.381 305.575 238.435C305.075 237.49 304.594 235.389 304.594 235.389C304.594 235.389 300.395 234.543 300.395 234.134C300.395 233.688 304.103 233.142 304.103 233.142H304.094Z" fill="white"/>
<path d="M262.99 154.225H33.4949C30.6252 154.225 28.2988 156.551 28.2988 159.422V331.504C28.2988 334.374 30.6252 336.701 33.4949 336.701H262.99C265.86 336.701 268.186 334.374 268.186 331.504V159.422C268.186 156.551 265.86 154.225 262.99 154.225Z" fill="white"/>
<path d="M262.989 337H33.4956C30.466 337 28 334.535 28 331.503V159.422C28 156.392 30.4646 153.926 33.4956 153.926H262.989C266.019 153.926 268.485 156.391 268.485 159.422V331.503C268.485 334.533 266.02 337 262.989 337ZM33.4956 154.523C30.7952 154.523 28.5975 156.722 28.5975 159.422V331.503C28.5975 334.204 30.7952 336.402 33.4956 336.402H262.989C265.69 336.402 267.887 334.204 267.887 331.503V159.422C267.887 156.722 265.69 154.523 262.989 154.523H33.4956Z" fill="black"/>
<path d="M262.22 331.192H34.2629C34.0976 331.192 33.9648 331.058 33.9648 330.894V170.923C33.9648 170.758 34.099 170.625 34.2629 170.625H262.22C262.385 170.625 262.518 170.759 262.518 170.923V330.893C262.518 331.058 262.384 331.191 262.22 331.191V331.192ZM34.5624 330.596H261.922V171.223H34.5624V330.596Z" fill="black"/>
<path d="M40.8595 165.149C42.3675 163.641 42.3675 161.195 40.8595 159.687C39.3515 158.179 36.9065 158.179 35.3985 159.687C33.8905 161.195 33.8905 163.641 35.3985 165.149C36.9065 166.657 39.3515 166.657 40.8595 165.149Z" fill="#008BCE"/>
<path d="M52.131 165.149C53.639 163.641 53.639 161.195 52.131 159.687C50.623 158.179 48.178 158.179 46.67 159.687C45.1619 161.195 45.1619 163.641 46.67 165.149C48.178 166.657 50.623 166.657 52.131 165.149Z" fill="#E2EAFF"/>
<path d="M64.427 163.303C64.9169 161.226 63.6314 159.146 61.5558 158.656C59.4801 158.166 57.4004 159.452 56.9105 161.528C56.4206 163.604 57.7061 165.684 59.7817 166.174C61.8573 166.664 63.9371 165.379 64.427 163.303Z" fill="#E2EAFF"/>
<path d="M230.834 165.275H102.777C101.126 165.275 99.7871 163.936 99.7871 162.284C99.7871 160.632 101.126 159.293 102.777 159.293H230.834C232.485 159.293 233.824 160.632 233.824 162.284C233.824 163.936 232.485 165.275 230.834 165.275Z" fill="#E2EAFF"/>
<path d="M148.243 305.653C178.471 305.653 202.976 281.143 202.976 250.908C202.976 220.674 178.471 196.164 148.243 196.164C118.015 196.164 93.5098 220.674 93.5098 250.908C93.5098 281.143 118.015 305.653 148.243 305.653Z" fill="#E2EAFF"/>
<mask id="mask0_2451_9673" style="mask-type:luminance" maskUnits="userSpaceOnUse" x="93" y="196" width="110" height="110">
<path d="M148.243 305.653C178.471 305.653 202.976 281.143 202.976 250.908C202.976 220.674 178.471 196.164 148.243 196.164C118.015 196.164 93.5098 220.674 93.5098 250.908C93.5098 281.143 118.015 305.653 148.243 305.653Z" fill="white"/>
</mask>
<g mask="url(#mask0_2451_9673)">
<path d="M183.11 233.149L159.247 257.017L142.312 240.078L166.175 216.21L138.694 215.209L117.373 236.534L120.683 261.711L137.618 278.65L162.79 281.96L184.11 260.635L183.11 233.149Z" fill="#008BCE"/>
<path d="M149.005 268.173L130.801 249.965L77.1889 303.587L95.3933 321.795L149.005 268.173Z" fill="#008BCE"/>
</g>
<path d="M262.733 336.891H200C200 333.086 203.085 330 206.89 330H255.843C259.648 330 262.733 333.086 262.733 336.891Z" fill="#A0D2F4"/>
<path d="M233.293 248.26H228.416L204.52 326.468H257.189L233.293 248.26Z" fill="#A0D2F4"/>
<path d="M257.189 326.767H204.519C204.425 326.767 204.335 326.723 204.28 326.647C204.223 326.571 204.206 326.472 204.233 326.382L228.13 248.174C228.168 248.048 228.285 247.963 228.416 247.963H233.292C233.424 247.963 233.539 248.048 233.578 248.174L257.475 326.382C257.502 326.473 257.486 326.571 257.429 326.647C257.372 326.723 257.284 326.767 257.189 326.767ZM204.923 326.17H256.787L233.072 248.559H228.637L204.922 326.17H204.923Z" fill="white"/>
<path d="M219.748 276.927C219.672 276.927 219.595 276.898 219.537 276.839C219.42 276.723 219.42 276.533 219.537 276.416L236.569 259.38C236.686 259.264 236.876 259.264 236.992 259.38C237.109 259.497 237.109 259.687 236.992 259.803L219.959 276.839C219.901 276.898 219.825 276.927 219.748 276.927Z" fill="white"/>
<path d="M207.498 317.018C207.422 317.018 207.345 316.988 207.287 316.93C207.17 316.813 207.17 316.624 207.287 316.507L243.061 280.726C243.177 280.61 243.367 280.61 243.483 280.726C243.6 280.843 243.6 281.032 243.483 281.149L207.709 316.93C207.651 316.988 207.575 317.018 207.498 317.018Z" fill="white"/>
<path d="M225.584 326.767C225.508 326.767 225.431 326.737 225.373 326.679C225.256 326.563 225.256 326.373 225.373 326.256L249.58 302.044C249.696 301.928 249.886 301.928 250.002 302.044C250.119 302.161 250.119 302.351 250.002 302.467L225.795 326.679C225.737 326.737 225.661 326.767 225.584 326.767Z" fill="white"/>
<path d="M171.617 171.918C171.617 171.918 166.743 180.51 169.022 182.029C171.301 183.55 175.155 178.29 177.402 172.437C179.65 166.584 181.447 147.503 178.553 139.815C175.657 132.127 146.424 116.301 139.737 113.731C133.051 111.162 108.251 110.474 93.9231 116.157C79.5949 121.841 65.0417 146.028 62.7058 151.459C60.3699 156.889 54.0397 172.825 87.784 172.638H114.645C114.645 172.638 126.04 145.978 134.297 138.538C134.297 138.538 153.897 147.8 158.161 151.459C158.161 151.459 158.308 153.607 156.416 158.362C154.526 163.117 150.594 170.602 157.066 170.43C159.58 170.364 161.55 164.952 163.8 164.674C167.346 164.238 170.746 169.205 171.617 171.917V171.918Z" fill="#008BCE"/>
<path d="M169.891 182.595C169.518 182.595 169.173 182.489 168.857 182.279C166.501 180.707 170.553 173.21 171.293 171.887C170.373 169.194 167.09 164.572 163.838 164.973C162.89 165.09 161.89 166.374 160.924 167.617C159.749 169.128 158.534 170.691 157.076 170.73C155.465 170.776 154.332 170.345 153.726 169.46C152.32 167.406 153.985 163.427 155.454 159.917C155.697 159.338 155.931 158.778 156.14 158.253C157.73 154.252 157.859 152.111 157.866 151.6C153.706 148.14 136.323 139.833 134.351 138.895C126.247 146.388 115.034 172.492 114.92 172.756C114.873 172.866 114.766 172.937 114.645 172.937H87.7839C74.1032 173.013 65.4385 170.436 62.0228 165.278C58.6368 160.166 61.2965 153.982 62.432 151.342C64.86 145.695 79.4403 121.584 93.8133 115.883C107.908 110.291 132.993 110.822 139.844 113.455C146.426 115.986 175.848 131.793 178.832 139.712C181.821 147.65 179.871 166.847 177.681 172.547C176.064 176.76 173.156 181.666 170.597 182.481C170.353 182.558 170.117 182.597 169.891 182.597V182.595ZM164.237 164.351C167.739 164.351 171.004 169.036 171.901 171.828C171.927 171.908 171.918 171.994 171.877 172.066C170.046 175.294 167.697 180.787 169.187 181.781C169.541 182.017 169.942 182.059 170.415 181.909C172.415 181.273 175.236 177.244 177.123 172.33C179.286 166.698 181.219 147.746 178.272 139.92C175.474 132.49 146.689 116.723 139.629 114.01C132.851 111.405 108.01 110.89 94.0328 116.435C79.8291 122.07 65.3884 145.976 62.9794 151.577C61.8819 154.129 59.3129 160.104 62.52 164.947C65.8179 169.928 74.3092 172.42 87.7825 172.34H114.449C115.548 169.788 126.151 145.477 134.098 138.318C134.187 138.238 134.317 138.219 134.426 138.27C135.228 138.65 154.111 147.591 158.356 151.234C158.417 151.286 158.454 151.36 158.459 151.44C158.466 151.531 158.588 153.711 156.694 158.475C156.484 159.003 156.248 159.567 156.004 160.149C154.664 163.351 152.995 167.338 154.218 169.124C154.71 169.841 155.641 170.172 157.06 170.134C158.234 170.102 159.362 168.652 160.451 167.251C161.54 165.85 162.569 164.527 163.764 164.381C163.921 164.362 164.079 164.352 164.237 164.352V164.351Z" fill="black"/>
<path d="M87.9774 151.971C87.9272 151.971 87.8758 151.959 87.8283 151.931C87.6861 151.848 87.6373 151.665 87.7199 151.523C90.2035 147.224 93.0068 143.047 96.0486 139.111C96.1489 138.979 96.3372 138.956 96.4673 139.056C96.5974 139.157 96.6218 139.345 96.5215 139.475C93.4946 143.392 90.7075 147.545 88.2375 151.821C88.182 151.917 88.0817 151.97 87.9787 151.97L87.9774 151.971Z" fill="black"/>
<path d="M103.195 152.964C103.195 152.964 103.189 152.964 103.188 152.964L85.2894 152.524C85.1241 152.52 84.9941 152.383 84.9981 152.217C85.0022 152.052 85.1391 151.919 85.3044 151.926L103.203 152.366C103.368 152.371 103.498 152.507 103.494 152.673C103.49 152.835 103.357 152.964 103.196 152.964H103.195Z" fill="black"/>
<path d="M158.53 150.956C158.502 150.956 158.472 150.952 158.444 150.943C158.286 150.894 158.197 150.727 158.246 150.57L160.422 143.438C160.471 143.281 160.636 143.191 160.794 143.24C160.952 143.289 161.041 143.455 160.992 143.613L158.816 150.745C158.777 150.874 158.659 150.956 158.53 150.956Z" fill="black"/>
<path d="M179.78 154.199C179.717 154.199 179.654 154.179 179.6 154.138C173.824 149.753 165.336 149.102 158.959 152.559C158.814 152.638 158.632 152.584 158.554 152.439C158.475 152.294 158.529 152.112 158.674 152.033C165.251 148.469 174.004 149.139 179.96 153.662C180.091 153.763 180.117 153.95 180.017 154.081C179.959 154.158 179.869 154.199 179.778 154.199H179.78Z" fill="black"/>
<path d="M157.5 155L158 152.5L164 150.5C174 148.9 178.833 152.5 180 154.5C180 165.3 177.333 173.334 176 176C174.667 178.334 171.5 182.9 169.5 182.5C167.5 182.1 168 179.334 168.5 178L166.5 178.5C166.5 179.7 166.167 180.334 166 180.5C162.8 182.5 161.667 180.334 161.5 179L160 178C159.2 178.8 158 178.667 157.5 178.5C155.1 177.7 155.833 175.5 156.5 174.5L156 173C153.2 172.6 153.5 170.5 154 169.5C153.833 169 153.5 167.8 153.5 167C153.5 166.2 154.167 164 154.5 163L156 159.5L157.5 155Z" fill="#FFE6DE" stroke="black" stroke-width="0.5"/>
<path d="M104.674 152.93C104.674 152.93 95.2351 162.313 96.3841 172.812C96.3841 172.812 119.785 174.638 122.419 170.432C122.419 170.432 127.933 172.18 126.771 168.214C126.771 168.214 132.336 168.39 130.436 165.171C130.436 165.171 135.475 166.824 134.184 162.924C134.184 162.924 141.035 169.955 142.428 169.395C143.821 168.836 143.282 165.664 140.793 162.806C138.304 159.95 131.794 154.359 128.107 153.844C124.419 153.329 104.674 152.93 104.674 152.93Z" fill="#FFE6DE"/>
<path d="M107.032 173.509C101.612 173.509 96.793 173.143 96.3595 173.109C96.2158 173.098 96.102 172.987 96.0858 172.844C94.9341 162.325 104.366 152.812 104.461 152.718C104.517 152.661 104.601 152.632 104.677 152.631C105.485 152.647 124.482 153.036 128.146 153.548C131.918 154.075 138.43 159.641 141.016 162.609C142.78 164.634 143.763 167.088 143.405 168.577C143.275 169.117 142.975 169.495 142.538 169.671C141.245 170.191 136.827 166.001 134.685 163.857C134.727 164.451 134.579 164.921 134.242 165.259C133.453 166.049 131.883 165.837 130.984 165.63C131.196 166.211 131.173 166.725 130.914 167.161C130.231 168.314 128.052 168.488 127.15 168.51C127.332 169.384 127.191 170.053 126.729 170.506C125.674 171.538 123.267 170.977 122.535 170.776C120.779 172.989 113.479 173.508 107.029 173.508L107.032 173.509ZM96.6548 172.533C104.757 173.147 120.179 173.447 122.165 170.273C122.237 170.158 122.379 170.105 122.508 170.147C123.294 170.395 125.511 170.868 126.314 170.08C126.67 169.731 126.727 169.132 126.483 168.298C126.456 168.206 126.475 168.107 126.534 168.031C126.592 167.955 126.681 167.911 126.779 167.916C127.598 167.942 129.845 167.801 130.403 166.859C130.629 166.477 130.554 165.961 130.178 165.324C130.115 165.217 130.125 165.082 130.203 164.985C130.281 164.889 130.41 164.849 130.528 164.889C131.208 165.111 133.127 165.535 133.82 164.838C134.159 164.498 134.186 163.886 133.899 163.02C133.856 162.888 133.908 162.743 134.028 162.67C134.147 162.598 134.3 162.617 134.396 162.716C137.625 166.028 141.57 169.418 142.316 169.118C142.569 169.016 142.741 168.787 142.824 168.439C143.091 167.332 142.4 165.108 140.565 163.003C138.102 160.177 131.636 154.641 128.062 154.142C124.589 153.657 106.509 153.268 104.794 153.233C103.856 154.207 95.7552 162.936 96.6535 172.535L96.6548 172.533Z" fill="black"/>
<path d="M154.119 170.504C154.119 171.591 155.001 172.472 156.089 172.472C156.17 172.472 156.25 172.465 156.328 172.456C156.524 173.246 156.836 173.99 157.245 174.669C157.183 174.718 157.122 174.769 157.065 174.826C156.295 175.595 156.295 176.841 157.065 177.61C157.834 178.378 159.081 178.378 159.85 177.61C159.907 177.553 159.959 177.492 160.008 177.429C160.688 177.839 161.432 178.15 162.223 178.346C162.213 178.424 162.207 178.503 162.207 178.584C162.207 179.671 163.089 180.552 164.177 180.552C165.265 180.552 166.147 179.671 166.147 178.584C166.147 178.503 166.14 178.424 166.13 178.346C166.922 178.149 167.666 177.839 168.346 177.429C168.395 177.492 168.446 177.553 168.503 177.61C169.273 178.378 170.519 178.378 171.289 177.61C172.058 176.841 172.058 175.595 171.289 174.826C171.232 174.769 171.171 174.718 171.108 174.669C171.518 173.99 171.829 173.246 172.026 172.456C172.104 172.465 172.184 172.472 172.264 172.472C173.352 172.472 174.234 171.591 174.234 170.504C174.234 169.418 173.352 168.537 172.264 168.537C172.183 168.537 172.103 168.543 172.026 168.553C171.829 167.763 171.518 167.019 171.108 166.34C171.171 166.291 171.232 166.24 171.289 166.183C172.058 165.414 172.058 164.168 171.289 163.399C170.519 162.631 169.273 162.631 168.503 163.399C168.446 163.456 168.395 163.517 168.346 163.579C167.666 163.17 166.922 162.858 166.13 162.663C166.14 162.585 166.147 162.506 166.147 162.425C166.147 161.338 165.265 160.457 164.177 160.457C163.089 160.457 162.207 161.338 162.207 162.425C162.207 162.506 162.213 162.585 162.223 162.663C161.432 162.86 160.688 163.17 160.008 163.579C159.959 163.517 159.907 163.456 159.85 163.399C159.081 162.631 157.834 162.631 157.065 163.399C156.295 164.168 156.295 165.414 157.065 166.183C157.122 166.24 157.183 166.291 157.245 166.34C156.836 167.019 156.524 167.763 156.328 168.553C156.249 168.543 156.169 168.537 156.089 168.537C155.001 168.537 154.119 169.418 154.119 170.504ZM160.52 170.504C160.52 168.487 162.158 166.849 164.178 166.849C166.198 166.849 167.836 168.485 167.836 170.504C167.836 172.524 166.198 174.159 164.178 174.159C162.158 174.159 160.52 172.524 160.52 170.504Z" fill="#008BCE"/>
<path d="M120.987 119.845C120.987 119.845 124.535 124.61 119.56 127.079C114.586 129.547 106.188 121.294 107.813 115.404C108.777 111.906 113.667 111.218 113.667 111.218L117.49 109.529L124.023 117.357L120.985 119.846L120.987 119.845Z" fill="#FFE6DE"/>
<path d="M117.559 127.824C115.817 127.824 113.843 127.006 111.951 125.445C109.12 123.108 106.526 118.944 107.525 115.323C108.494 111.814 113.06 111.008 113.583 110.926L117.368 109.254C117.49 109.2 117.633 109.234 117.718 109.335L124.251 117.163C124.303 117.224 124.327 117.304 124.319 117.383C124.312 117.463 124.273 117.534 124.211 117.586L121.386 119.902C121.804 120.55 122.853 122.418 122.398 124.318C122.094 125.587 121.184 126.605 119.691 127.346C119.042 127.667 118.322 127.826 117.558 127.826L117.559 127.824ZM117.404 109.891L113.787 111.489C113.763 111.5 113.736 111.508 113.709 111.512C113.661 111.519 109.002 112.217 108.101 115.483C107.173 118.848 109.643 122.767 112.331 124.985C114.864 127.076 117.517 127.758 119.426 126.811C120.753 126.152 121.558 125.267 121.818 124.179C122.304 122.147 120.761 120.044 120.746 120.023C120.651 119.895 120.673 119.715 120.796 119.613L123.601 117.313L117.405 109.891H117.404Z" fill="black"/>
<path d="M118.483 121.81C118.387 121.81 118.292 121.764 118.233 121.677C118.143 121.54 118.179 121.354 118.316 121.262L120.213 119.999C120.35 119.908 120.535 119.945 120.628 120.082C120.718 120.219 120.682 120.404 120.545 120.496L118.648 121.759C118.597 121.793 118.54 121.81 118.483 121.81Z" fill="black"/>
<path d="M111.065 96.4578C111.571 95.1555 112.495 93.9778 113.757 93.3789C115.02 92.7799 116.631 92.8449 117.719 93.7204C119.451 91.9193 121.483 90.3364 123.85 89.5315C126.217 88.7265 128.956 88.7807 131.092 90.0763C133.164 91.3312 134.467 93.6296 134.887 96.0133C135.374 98.7766 134.702 101.801 132.798 103.865C130.896 105.929 127.713 106.84 125.116 105.772C124.922 106.736 124.24 107.55 123.422 108.095C122.604 108.641 121.653 108.95 120.704 109.214C119.197 109.633 117.662 109.953 116.114 110.171C115.221 110.297 113.799 110.487 113.037 109.855C112.487 109.399 112.202 108.186 111.938 107.541C111.035 105.333 110.534 102.963 110.474 100.579C110.439 99.1831 110.558 97.7615 111.064 96.4592L111.065 96.4578Z" fill="black"/>
<path d="M116.016 109.7C116.016 109.7 118.123 108.12 117.959 104.089C117.959 104.089 121.287 100.169 127.068 99.6504C127.068 99.6504 131.835 110.001 131.196 114.837C130.558 119.672 123.564 123.849 116.016 115.127C116.016 115.127 110.855 115.643 109.661 111.5C108.468 107.357 113.036 105.804 116.016 109.7Z" fill="#FFE6DE"/>
<path d="M124.834 120.497C122.611 120.497 119.455 119.506 115.888 115.433C114.987 115.476 110.501 115.492 109.375 111.581C108.74 109.382 109.656 108.022 110.725 107.484C112.056 106.814 114.256 107.105 116.049 109.262C116.557 108.738 117.783 107.143 117.66 104.099C117.657 104.025 117.682 103.951 117.73 103.893C117.87 103.729 121.204 99.8749 127.04 99.3505C127.166 99.341 127.285 99.4088 127.338 99.5226C127.535 99.9481 132.133 110.008 131.492 114.873C131.168 117.328 129.308 119.471 126.864 120.204C126.327 120.365 125.642 120.496 124.834 120.496V120.497ZM116.016 114.827C116.103 114.827 116.184 114.865 116.243 114.93C120.928 120.344 124.802 120.2 126.693 119.634C128.917 118.967 130.608 117.024 130.902 114.796C131.473 110.459 127.526 101.402 126.884 99.9657C121.887 100.494 118.775 103.641 118.261 104.197C118.383 108.249 116.286 109.869 116.195 109.937C116.064 110.036 115.878 110.01 115.779 109.88C114.159 107.761 112.163 107.427 110.994 108.017C109.903 108.567 109.502 109.869 109.948 111.416C111.059 115.274 115.936 114.834 115.985 114.828C115.995 114.828 116.006 114.827 116.015 114.827H116.016Z" fill="black"/>
<path d="M115.381 113.117C115.299 113.117 115.217 113.083 115.158 113.016C114.46 112.23 113.463 111.705 112.419 111.573C112.255 111.553 112.14 111.402 112.161 111.24C112.181 111.076 112.33 110.961 112.494 110.981C113.678 111.131 114.811 111.729 115.603 112.621C115.713 112.744 115.702 112.932 115.579 113.042C115.522 113.092 115.452 113.118 115.381 113.118V113.117Z" fill="black"/>
<path d="M243.647 200.215C243.29 205.136 246.993 209.414 251.92 209.77C252.287 209.797 252.649 209.795 253.007 209.777C253.635 213.417 254.803 216.889 256.434 220.097C256.136 220.297 255.845 220.51 255.566 220.751C251.832 223.978 251.423 229.618 254.653 233.351C257.883 237.083 263.53 237.492 267.264 234.265C267.542 234.026 267.797 233.768 268.038 233.502C270.981 235.577 274.25 237.232 277.766 238.378C277.697 238.731 277.643 239.087 277.616 239.454C277.26 244.375 280.963 248.654 285.889 249.01C290.814 249.366 295.096 245.668 295.452 240.747C295.479 240.38 295.475 240.02 295.459 239.66C299.104 239.033 302.578 237.868 305.789 236.239C305.989 236.535 306.203 236.828 306.445 237.106C309.675 240.838 315.322 241.247 319.056 238.021C322.79 234.794 323.2 229.154 319.969 225.421C319.728 225.144 319.471 224.89 319.205 224.649C321.282 221.71 322.938 218.444 324.086 214.931C324.438 215 324.796 215.054 325.163 215.081C330.088 215.438 334.369 211.739 334.726 206.819C335.082 201.898 331.379 197.62 326.453 197.263C326.085 197.236 325.724 197.24 325.365 197.257C324.736 193.616 323.568 190.144 321.937 186.937C322.235 186.736 322.526 186.523 322.805 186.282C326.539 183.055 326.949 177.415 323.718 173.683C320.488 169.951 314.841 169.542 311.107 172.768C310.829 173.008 310.574 173.266 310.333 173.531C307.39 171.455 304.121 169.802 300.605 168.655C300.674 168.303 300.728 167.946 300.755 167.579C301.112 162.658 297.409 158.382 292.482 158.024C287.557 157.667 283.275 161.366 282.919 166.286C282.892 166.654 282.896 167.014 282.912 167.373C279.268 168.001 275.794 169.166 272.582 170.795C272.382 170.498 272.168 170.207 271.927 169.928C268.697 166.196 263.049 165.786 259.315 169.013C255.58 172.24 255.172 177.88 258.402 181.612C258.643 181.89 258.9 182.143 259.166 182.385C257.089 185.324 255.433 188.59 254.286 192.103C253.933 192.034 253.576 191.979 253.208 191.952C248.283 191.596 244.002 195.294 243.645 200.215H243.647ZM272.624 202.315C273.287 193.177 281.239 186.308 290.385 186.972C299.532 187.635 306.409 195.58 305.748 204.717C305.086 213.854 297.134 220.724 287.988 220.062C278.841 219.399 271.963 211.454 272.624 202.317V202.315Z" fill="#E2EAFF"/>
<path d="M349.918 290.82C349.918 290.82 356.888 317.597 361.369 327.833C364.793 335.655 377.656 354.999 383.537 363.691C385.266 366.248 385.004 369.658 382.904 371.921L371.229 384.501C367.618 388.393 362.548 390.605 357.239 390.605H353.967C352.388 390.605 351.409 388.887 352.212 387.527L355.559 381.875C355.559 381.875 332.317 341.341 329.149 332.096C325.98 322.851 328.107 288.047 328.107 288.047L349.917 290.82H349.918Z" fill="#1A1919"/>
<path d="M357.24 390.905H353.968C353.119 390.905 352.358 390.465 351.938 389.725C351.517 388.986 351.525 388.108 351.957 387.376L355.215 381.873C353.655 379.147 331.911 341.075 328.867 332.193C325.715 322.998 327.722 289.451 327.809 288.028C327.814 287.946 327.853 287.87 327.916 287.817C327.979 287.764 328.062 287.74 328.143 287.751L349.953 290.523C350.074 290.538 350.174 290.626 350.204 290.744C350.273 291.011 357.22 317.615 361.64 327.712C365.084 335.583 378.271 355.379 383.782 363.523C385.599 366.209 385.326 369.746 383.121 372.123L371.445 384.704C367.79 388.643 362.611 390.902 357.237 390.902L357.24 390.905ZM328.387 288.385C328.185 291.906 326.479 323.387 329.432 332.002C332.555 341.114 355.587 381.324 355.819 381.729C355.872 381.823 355.872 381.938 355.816 382.03L352.47 387.682C352.147 388.227 352.142 388.88 352.455 389.431C352.768 389.981 353.333 390.309 353.967 390.309H357.239C362.447 390.309 367.466 388.119 371.009 384.301L382.684 371.721C384.7 369.549 384.95 366.316 383.289 363.861C377.77 355.701 364.559 335.869 361.095 327.954C356.858 318.274 350.325 293.549 349.68 291.091L328.386 288.385H328.387Z" fill="black"/>
<path d="M357.584 381.043C357.481 381.043 357.381 380.99 357.325 380.894C357.243 380.752 357.292 380.569 357.434 380.486C366.169 375.431 373.995 369.039 380.692 361.489C380.802 361.366 380.99 361.355 381.114 361.463C381.237 361.573 381.248 361.761 381.139 361.885C374.399 369.483 366.524 375.915 357.733 381.002C357.686 381.029 357.634 381.043 357.584 381.043Z" fill="black"/>
<path d="M346.922 365.129C346.801 365.129 346.689 365.056 346.643 364.936C346.584 364.782 346.66 364.61 346.815 364.551C356.566 360.822 365.515 354.841 372.695 347.259C372.809 347.14 372.997 347.134 373.116 347.247C373.236 347.361 373.241 347.549 373.127 347.668C365.887 355.316 356.861 361.346 347.026 365.108C346.991 365.122 346.956 365.129 346.919 365.129H346.922Z" fill="black"/>
<path d="M336.999 292.167L329.97 386.317C329.79 388.736 327.775 390.606 325.35 390.606H290.245C288.966 390.606 288.401 388.998 289.397 388.197L297.031 382.06L307.827 285.059L336.999 292.168V292.167Z" fill="#1A1919"/>
<path d="M325.349 390.905H290.244C289.533 390.905 288.922 390.472 288.686 389.801C288.45 389.13 288.656 388.409 289.209 387.963L296.747 381.904L307.529 285.026C307.538 284.94 307.585 284.863 307.655 284.814C307.725 284.765 307.814 284.748 307.896 284.768L337.069 291.877C337.211 291.913 337.307 292.044 337.297 292.19L330.267 386.341C330.076 388.901 327.916 390.907 325.349 390.907V390.905ZM308.084 285.429L297.326 382.094C297.318 382.172 297.278 382.244 297.217 382.293L289.583 388.429C289.154 388.775 289.129 389.261 289.248 389.603C289.368 389.944 289.693 390.308 290.244 390.308H325.349C327.605 390.308 329.503 388.545 329.671 386.295L336.681 292.398L308.084 285.429Z" fill="black"/>
<path d="M328.579 383.91C328.579 383.91 328.575 383.91 328.572 383.91C318.177 383.668 307.648 383.13 297.281 382.31C297.117 382.297 296.993 382.153 297.007 381.989C297.02 381.825 297.164 381.705 297.328 381.716C307.685 382.535 318.202 383.072 328.586 383.313C328.751 383.317 328.881 383.454 328.877 383.618C328.873 383.781 328.74 383.91 328.579 383.91Z" fill="black"/>
<path d="M323.259 369.387C315.212 369.387 307.162 368.677 299.244 367.267C299.082 367.239 298.973 367.083 299.003 366.92C299.031 366.758 299.186 366.648 299.35 366.679C309.532 368.492 319.931 369.143 330.26 368.61C330.418 368.599 330.564 368.728 330.573 368.894C330.581 369.057 330.455 369.198 330.289 369.207C327.948 369.327 325.604 369.388 323.26 369.388L323.259 369.387Z" fill="black"/>
<path d="M314.223 230.442L317.087 236.857L315.363 237.536C315.363 237.536 318.76 243.866 326.696 243.073C334.633 242.28 323.44 228.853 323.44 228.853C323.44 228.853 316.197 227.252 314.223 230.441V230.442Z" fill="#FFE6DE"/>
<path d="M325.355 243.44C318.278 243.44 315.134 237.738 315.1 237.677C315.059 237.602 315.054 237.513 315.082 237.433C315.112 237.353 315.174 237.289 315.253 237.258L316.685 236.693L313.948 230.563C313.907 230.473 313.914 230.368 313.967 230.284C316.031 226.954 323.2 228.495 323.503 228.562C323.568 228.577 323.625 228.612 323.668 228.662C323.976 229.031 331.185 237.746 329.608 241.603C329.19 242.626 328.219 243.221 326.725 243.37C326.253 243.417 325.796 243.439 325.354 243.439L325.355 243.44ZM315.803 237.683C316.586 238.892 319.999 243.442 326.667 242.776C327.943 242.649 328.725 242.191 329.057 241.378C330.425 238.03 324.002 230.014 323.277 229.125C322.427 228.956 316.394 227.858 314.562 230.47L317.358 236.735C317.392 236.809 317.394 236.893 317.362 236.969C317.331 237.045 317.272 237.105 317.196 237.135L315.803 237.683Z" fill="black"/>
<path d="M335.89 236.857C335.89 236.857 323.034 235.067 312.697 238.237L303.84 311.189C303.84 311.189 312.739 313.842 313.22 302.94C313.22 302.94 316.111 314.167 335.04 312.843C353.968 311.519 356.048 307.891 356.048 307.891L335.89 236.856V236.857Z" fill="#008BCE"/>
<path d="M324.06 231.198L333.147 210.527C333.147 210.527 326.229 194.452 323.898 192.355C321.568 190.259 319.021 186.384 318.66 182.458C318.3 178.532 321.871 183.583 322.594 184.552C323.316 185.521 323.879 181.829 323.879 181.829V172.412C323.879 172.412 325.454 172.703 325.841 174.068C325.981 174.56 326.303 175.875 326.66 177.357C327.55 181.058 329.356 184.475 331.917 187.291C335.788 191.547 340.541 198.738 343.625 202.603C353.369 214.816 340.461 237.765 340.461 237.765L324.06 231.199V231.198Z" fill="#FFE6DE"/>
<path d="M340.462 238.063C340.426 238.063 340.388 238.056 340.351 238.041L323.95 231.475C323.875 231.445 323.814 231.385 323.785 231.311C323.753 231.236 323.755 231.152 323.787 231.078L332.822 210.526C332.184 209.053 325.851 194.513 323.699 192.577C321.306 190.425 318.729 186.47 318.364 182.485C318.304 181.834 318.29 180.945 318.865 180.727C319.578 180.456 320.686 181.456 322.691 184.18L322.833 184.373C322.833 184.373 322.84 184.381 322.843 184.385C323.067 184.137 323.398 182.992 323.581 181.806V172.412C323.581 172.324 323.621 172.24 323.688 172.183C323.756 172.126 323.846 172.101 323.934 172.119C324.005 172.132 325.695 172.462 326.129 173.986C326.252 174.419 326.528 175.529 326.95 177.286C327.825 180.929 329.619 184.32 332.138 187.088C334.574 189.766 337.373 193.623 339.842 197.026C341.316 199.057 342.709 200.976 343.858 202.416C347.904 207.487 348.639 215.242 345.985 224.843C343.989 232.058 340.754 237.852 340.721 237.911C340.667 238.007 340.565 238.063 340.461 238.063H340.462ZM324.458 231.034L340.327 237.386C341.628 234.96 352.383 214.055 343.392 202.787C342.235 201.337 340.838 199.412 339.359 197.376C336.899 193.985 334.109 190.143 331.696 187.489C329.111 184.646 327.268 181.166 326.368 177.426C325.947 175.675 325.673 174.573 325.553 174.149C325.328 173.356 324.614 172.975 324.176 172.811V181.829C324.176 181.844 324.176 181.859 324.172 181.874C324.005 182.969 323.625 184.831 322.954 184.997C322.827 185.03 322.58 185.037 322.351 184.73L322.207 184.535C319.839 181.318 319.21 181.235 319.074 181.287C319.071 181.287 318.859 181.398 318.954 182.431C319.307 186.255 321.79 190.059 324.095 192.132C326.447 194.248 333.135 209.75 333.418 210.408C333.451 210.484 333.451 210.571 333.418 210.647L324.455 231.036L324.458 231.034Z" fill="black"/>
<path d="M311.929 257.229C311.929 257.229 313.35 261.74 317.562 261.74C323.023 261.74 325.158 251.653 321.883 244.482C319.854 240.038 316.456 235.478 309.97 239.022C303.485 242.567 294.194 247.706 294.194 247.706C294.194 247.706 273.981 234.358 270.056 231.197C266.131 228.036 263.742 226.275 262.974 228.521C262.206 230.768 267.112 232.781 266.821 234.705H252.648C252.648 234.705 250.372 238.287 261.688 239.484C263.229 239.646 264.695 240.225 265.863 241.244C270.678 245.451 282.988 256.15 287.22 259.303C292.53 263.26 300.495 265.479 311.93 257.229H311.929Z" fill="#FFE6DE"/>
<path d="M297.352 263.13C293.693 263.13 290.249 261.934 287.039 259.543C282.825 256.403 270.687 245.856 265.664 241.468C264.587 240.526 263.199 239.942 261.655 239.78C256.326 239.216 253.201 238.056 252.368 236.331C251.895 235.351 252.374 234.577 252.394 234.545C252.448 234.458 252.544 234.406 252.646 234.406H266.523C266.421 233.726 265.579 232.943 264.76 232.181C263.51 231.018 262.216 229.815 262.691 228.425C262.907 227.797 263.259 227.408 263.739 227.269C265.052 226.889 267.073 228.411 270.244 230.964C273.936 233.936 292.344 246.123 294.208 247.357C295.463 246.663 303.875 242.012 309.826 238.759C311.585 237.798 313.531 237.308 315.468 237.328C315.633 237.331 315.765 237.466 315.762 237.63C315.759 237.794 315.627 237.924 315.464 237.924H315.46C313.632 237.897 311.781 238.37 310.112 239.282C303.702 242.787 294.432 247.915 294.338 247.966C294.241 248.021 294.123 248.015 294.029 247.954C293.827 247.82 273.76 234.562 269.868 231.429C267.118 229.215 264.931 227.545 263.904 227.842C263.618 227.925 263.405 228.178 263.255 228.617C262.905 229.64 264.054 230.709 265.165 231.743C266.249 232.75 267.272 233.703 267.114 234.749C267.092 234.896 266.966 235.003 266.818 235.003H252.834C252.76 235.203 252.676 235.604 252.913 236.084C253.336 236.939 255.041 238.479 261.717 239.185C263.385 239.361 264.885 239.995 266.056 241.018C271.074 245.402 283.198 255.936 287.396 259.064C293.98 263.971 301.617 263.656 310.093 258.126C310.231 258.036 310.417 258.075 310.506 258.213C310.596 258.351 310.558 258.536 310.42 258.626C305.818 261.628 301.45 263.13 297.352 263.13Z" fill="black"/>
<path d="M306.784 259.825C306.708 259.825 306.631 259.795 306.572 259.737C302.568 255.717 300.191 250.16 300.047 244.488C300.043 244.323 300.173 244.186 300.338 244.182C300.509 244.175 300.64 244.308 300.644 244.473C300.784 249.994 303.098 255.403 306.995 259.315C307.112 259.432 307.112 259.622 306.995 259.738C306.937 259.796 306.861 259.825 306.784 259.825Z" fill="black"/>
<path d="M312.262 256.918C312.159 256.918 312.06 256.865 312.004 256.77C311.92 256.628 311.969 256.445 312.111 256.362L313.752 255.399C314.058 255.22 314.438 254.996 314.871 254.962C315.34 254.927 315.89 255.159 316.043 255.674C316.091 255.833 316 255.998 315.843 256.045C315.685 256.093 315.519 256.002 315.471 255.845C315.412 255.647 315.139 255.542 314.919 255.559C314.622 255.582 314.321 255.759 314.055 255.915L312.415 256.879C312.367 256.907 312.316 256.919 312.264 256.919L312.262 256.918Z" fill="black"/>
<path d="M291.664 249.229C291.554 249.229 291.447 249.168 291.396 249.062C291.323 248.914 291.385 248.736 291.533 248.662L294.045 247.429C294.192 247.356 294.371 247.418 294.445 247.566C294.518 247.714 294.457 247.893 294.308 247.966L291.796 249.199C291.754 249.219 291.709 249.229 291.664 249.229Z" fill="black"/>
<path d="M312.459 217.278C311.823 216.335 311.051 215.332 311.175 214.202C311.379 212.373 313.675 211.661 315.517 211.68C322.104 211.745 328.085 215.555 332.968 219.979C337.851 224.403 342.077 229.585 347.441 233.411C351.297 236.162 355.691 238.171 359.218 241.333C362.746 244.495 365.363 249.331 364.115 253.902C363.036 257.854 359.23 260.644 355.214 261.441C351.197 262.238 347.023 261.337 343.183 259.91C329.779 254.932 321.289 242.153 317.56 228.354C317.045 226.452 315.331 225.777 315.03 223.856C314.664 221.512 313.785 219.246 312.459 217.278Z" fill="black"/>
<path d="M329.568 215.365C329.05 214.681 328.969 213.737 329.182 212.907C329.394 212.075 329.869 211.336 330.384 210.649C331.533 209.116 332.925 207.765 334.492 206.663C335.646 205.851 336.916 205.166 338.299 204.885C339.681 204.605 341.19 204.763 342.375 205.53C343.887 206.51 344.682 208.429 344.453 210.217C344.224 212.004 343.045 213.609 341.479 214.5C339.913 215.391 338.063 215.595 336.271 215.781C334.55 215.96 330.85 217.059 329.568 215.364V215.365Z" fill="black"/>
<path d="M313.37 218.808C313.37 218.808 317.356 220.261 316.986 222.249C316.615 224.237 316.603 225.242 317.534 226.089C317.534 226.089 321.01 225.004 321.391 227.415C321.772 229.826 319.192 230.746 317.275 230.041C317.275 230.041 315.222 232.201 312.015 230.614C308.808 229.027 310.595 223.796 313.37 218.807V218.808Z" fill="white"/>
<path d="M314.316 231.492C313.601 231.492 312.783 231.328 311.883 230.883C311.048 230.47 310.485 229.808 310.207 228.917C309.54 226.776 310.517 223.325 313.111 218.663C313.182 218.535 313.335 218.478 313.474 218.528C313.646 218.59 317.693 220.093 317.281 222.305C316.944 224.11 316.914 225.026 317.62 225.756C318.147 225.62 319.737 225.286 320.782 225.935C321.282 226.246 321.586 226.728 321.687 227.369C321.846 228.373 321.537 229.251 320.819 229.841C319.945 230.559 318.569 230.768 317.347 230.38C316.972 230.702 315.891 231.49 314.318 231.49L314.316 231.492ZM313.505 219.181C311.121 223.52 310.178 226.822 310.776 228.739C311.006 229.479 311.455 230.005 312.147 230.348C315.108 231.813 316.981 229.917 317.059 229.836C317.141 229.75 317.267 229.72 317.377 229.761C318.433 230.149 319.691 229.993 320.438 229.379C320.993 228.922 321.221 228.259 321.095 227.461C321.021 226.992 320.815 226.659 320.465 226.441C319.454 225.813 317.64 226.368 317.622 226.373C317.522 226.406 317.411 226.38 317.332 226.309C316.303 225.372 316.303 224.282 316.692 222.192C316.94 220.866 314.662 219.647 313.505 219.178V219.181Z" fill="black"/>
<path d="M317.56 228.654C317.474 228.654 317.387 228.616 317.329 228.544C317.224 228.416 317.245 228.228 317.372 228.124C318.066 227.56 319.048 227.416 319.873 227.756C320.026 227.819 320.098 227.994 320.036 228.147C319.973 228.3 319.799 228.372 319.645 228.309C319.028 228.055 318.266 228.167 317.749 228.589C317.693 228.633 317.627 228.655 317.56 228.655V228.654Z" fill="black"/>
<path d="M399.7 390.905H325.349C325.184 390.905 325.051 390.771 325.051 390.607C325.051 390.443 325.185 390.309 325.349 390.309H399.401V356.47C399.401 356.305 399.535 356.172 399.699 356.172C399.863 356.172 399.997 356.306 399.997 356.47V390.609C399.997 390.774 399.863 390.907 399.699 390.907L399.7 390.905Z" fill="black"/>
<path d="M207.499 143.822C207.334 143.822 207.201 143.688 207.201 143.524V96.1868C207.201 96.0215 207.335 95.8887 207.499 95.8887H356.84C357.005 95.8887 357.138 96.0228 357.138 96.1868C357.138 96.3508 357.004 96.485 356.84 96.485H207.797V143.524C207.797 143.689 207.663 143.822 207.499 143.822Z" fill="black"/>
<path d="M399.859 96.1976C399.865 93.5885 397.754 91.4687 395.144 91.4628C392.534 91.4568 390.413 93.5671 390.407 96.1762C390.401 98.7853 392.512 100.905 395.122 100.911C397.733 100.917 399.853 98.8067 399.859 96.1976Z" fill="#E2EAFF"/>
<path d="M386.066 96.1976C386.072 93.5885 383.961 91.4687 381.351 91.4628C378.741 91.4568 376.62 93.5671 376.614 96.1762C376.608 98.7853 378.719 100.905 381.329 100.911C383.94 100.917 386.06 98.8067 386.066 96.1976Z" fill="#008BCE"/>
<path d="M372.279 96.1977C372.285 93.5886 370.174 91.4687 367.564 91.4628C364.954 91.4568 362.833 93.5671 362.827 96.1762C362.821 98.7853 364.932 100.905 367.542 100.911C370.152 100.917 372.273 98.8068 372.279 96.1977Z" fill="#E2EAFF"/>
<path d="M206.214 73.1288C220.512 73.1288 232.104 61.532 232.104 47.2265C232.104 32.9211 220.512 21.3242 206.214 21.3242C191.915 21.3242 180.324 32.9211 180.324 47.2265C180.324 61.532 191.915 73.1288 206.214 73.1288Z" fill="white"/>
<path d="M206.214 73.4552C191.76 73.4552 180 61.6903 180 47.2284C180 32.7664 191.759 21 206.214 21C220.669 21 232.428 32.7649 232.428 47.2269C232.428 61.6889 220.669 73.4538 206.214 73.4538V73.4552ZM206.214 21.6492C192.117 21.6492 180.648 33.1234 180.648 47.2269C180.648 61.3303 192.117 72.8046 206.212 72.8046C220.308 72.8046 231.776 61.3303 231.776 47.2269C231.776 33.1234 220.31 21.6492 206.214 21.6492Z" fill="black"/>
<path d="M206.215 31.9547C206.035 31.9547 205.891 31.8101 205.891 31.6301V26.4691C205.891 26.2891 206.037 26.1445 206.215 26.1445C206.393 26.1445 206.539 26.2891 206.539 26.4691V31.6301C206.539 31.8101 206.393 31.9547 206.215 31.9547Z" fill="black"/>
<path d="M206.215 68.3102C206.035 68.3102 205.891 68.1641 205.891 67.9856V62.8246C205.891 62.6446 206.037 62.5 206.215 62.5C206.393 62.5 206.539 62.6446 206.539 62.8246V67.9856C206.539 68.1656 206.393 68.3102 206.215 68.3102Z" fill="black"/>
<path d="M190.624 47.5515H185.465C185.285 47.5515 185.141 47.4069 185.141 47.2269C185.141 47.0469 185.287 46.9023 185.465 46.9023H190.624C190.803 46.9023 190.948 47.0469 190.948 47.2269C190.948 47.4069 190.802 47.5515 190.624 47.5515Z" fill="black"/>
<path d="M226.961 47.5515H221.803C221.623 47.5515 221.479 47.4069 221.479 47.2269C221.479 47.0469 221.624 46.9023 221.803 46.9023H226.961C227.141 46.9023 227.286 47.0469 227.286 47.2269C227.286 47.4069 227.14 47.5515 226.961 47.5515Z" fill="black"/>
<path d="M226.098 37.7325C223.842 33.0126 219.956 29.2267 215.17 27.0918L206.213 47.2267L226.097 37.7325H226.098Z" fill="#E2EAFF"/>
<path d="M201.99 57.1217C201.946 57.1217 201.902 57.1128 201.859 57.0937C201.695 57.0214 201.622 56.8296 201.694 56.6643L205.917 47.0963C205.929 47.0697 205.945 47.0432 205.964 47.0196L217.801 32.7228C217.916 32.5841 218.12 32.5664 218.258 32.68C218.396 32.7951 218.415 32.9987 218.3 33.1374L206.493 47.3987L202.289 56.9255C202.236 57.0464 202.117 57.1187 201.991 57.1187L201.99 57.1217Z" fill="black"/>
</g>
<defs>
<clipPath id="clip0_2451_9673">
<rect width="427" height="425" fill="white"/>
</clipPath>
</defs>
</svg>
