<svg width="173" height="175" viewBox="0 0 173 175" fill="none" xmlns="http://www.w3.org/2000/svg">
<circle cx="86.5" cy="86.5361" r="86.5" fill="#008BCE"/>
<path d="M166.775 110.643C171.682 115.519 171.682 123.413 166.775 128.366C161.868 133.32 153.716 133.32 148.809 128.366C137.175 116.989 131.477 102.207 131.477 87.3468C131.477 72.4868 137.175 57.6268 148.73 46.2497C153.795 41.2963 161.868 41.2963 166.854 46.2497C171.92 51.1256 171.92 59.0973 166.854 63.9733C160.364 70.4745 157.12 78.9106 157.12 87.3468C157.12 95.7829 160.444 104.219 166.854 110.643H166.775Z" fill="#0E0E1B"/>
<path d="M127.13 154.309C131.09 160.13 129.847 168.076 124.257 172.246C118.667 176.337 110.826 175 106.788 169.256C100.422 160.366 95.9966 150.532 93.5897 140.541C89.863 125.278 90.4842 109.387 95.2978 94.7534C100.267 80.1202 109.584 66.8246 123.403 56.6758C132.254 50.1459 142.813 45.0322 155.003 41.8066C161.757 40.0758 168.59 44.2455 170.298 51.1687C171.928 58.0132 167.813 64.9364 161.136 66.6672C151.975 69.1061 144.211 72.725 138 77.3667C128.605 84.2112 122.394 93.1799 119.056 103.093C115.717 113.005 115.251 123.784 117.891 134.247C119.599 141.249 122.705 148.094 127.13 154.23V154.309Z" fill="#0E0E1B"/>
<path d="M153.95 43.1401L154.588 42.9124C161.521 41.2419 168.534 45.2661 170.287 51.9477C171.961 58.5535 167.737 65.2351 160.883 66.9055C151.48 69.2593 143.51 72.7519 137.135 77.2317C135.063 78.5984 133.15 80.1169 131.477 81.7114C132.592 68.7278 138.33 56.1238 148.611 46.2532C150.125 44.7346 151.958 43.6716 153.95 43.1401Z" fill="#0E0E1B"/>
<path d="M125.591 152.804C130.454 157.743 130.454 165.817 125.591 170.912C120.571 175.851 112.57 175.851 107.628 170.912C84.7237 147.709 73.2715 117.45 73.2715 87.3473C73.2715 57.2451 84.7237 26.8294 107.628 3.70398C112.491 -1.23466 120.571 -1.23466 125.591 3.70398C130.454 8.72102 130.454 16.8737 125.591 21.8123C107.628 39.9207 98.6075 63.5948 98.6075 87.3473C98.6075 111.1 107.628 134.696 125.591 152.804Z" fill="#0E0E1B"/>
<path d="M125.706 152.931C125.706 152.931 126.169 153.477 126.323 153.71L126.941 154.49C130.88 160.26 129.644 168.135 124.084 172.267C118.523 176.322 110.723 174.996 106.706 169.304C100.373 160.494 95.9713 150.748 93.5771 140.845C89.87 125.719 90.4878 109.969 95.2762 95.4671C96.3574 92.3483 97.5931 89.1516 99.1378 86.1887V87.8261C99.1378 111.373 108.019 134.92 125.706 152.931Z" fill="#0E0E1B"/>
</svg>
